<?xml version="1.0" encoding="UTF-8"?><svg id="b" xmlns="http://www.w3.org/2000/svg" xmlns:xlink="http://www.w3.org/1999/xlink" viewBox="0 0 511.92 512"><defs><linearGradient id="e" x1="-2485.68" y1="-2250.08" x2="-2321.97" y2="-2194.14" gradientTransform="translate(1403.77 1285.75) scale(.5)" gradientUnits="userSpaceOnUse"><stop offset="0" stop-color="#271220"/><stop offset="1" stop-color="#0e0f21"/></linearGradient></defs><g id="c"><g id="d"><rect width="511.92" height="512" style="fill:#6c4e57; stroke-width:0px;"/><path d="m377.44.06c-.9,8.65,13.46,13.23,17.5,6.5,40.81,26.39,69.21,86.41,79.49,132.48-4.5-1.84-1.89,4.49,0,1,3.65,16.66,7.19,40.38,8,57.24.71,14.79.86,100.83,0,113.98-.19,2.85-.53,5.92-1,8.75-7.51,5.24-7.01,13.31-1.5,5-.18,1.17.48.95.5,1-4.81,3.98-1.54,8.62-1.5,12.5.11,11.57-2.19,22.82-3.5,34.24-.46,1.99-1.46,2.12-1.5,2.25-5.57-5.99-4.54-2.1-1.75,3-7.33-7.16-9.04.07-9.5.5-.45.42-7.67-.94.75,9-.1-.03-1.06.4-2,0-1.81-1.82-3.76-3.34-4-6.25-1.7-1.82-10.54,2.57-5.5,9.75q-21.5,6-42.99,12c-2.43-1.25-4.84-3.17-7.5-3.5-.65-1.24-2.48-3.28-4-2-.68-1.34-11.26-10.65-14-13.75-8.12-9.18-17.52-22.74-26.25-30.25-.75-.65-3.41-3.07-3.75-2-3.45-3.13-9.74-7.6-14.5-7.5-.01-.57.95-.99,1-1.25.79-4.37.14-50.67,1.5-62.99.51-1.14,7.36-.82,10.75-1.75,8.77-2.42,28.37-23.33,30.75-32l6,.25-6-.75c.33-1.34,1.78-12.77,0-8l-.5-.5c.48-1.25.42-1.74.5-2,2.39-7.76.88-9.97,1-10.5,2.32-3.19,5.83-14.26,5.5-18.5.72-3.03,1.78-5.92,2.5-9,.5-2.14,1.09-4.36,1.5-6.5,3.72-19.34,2.91-35.57-2-54.74-5.86-22.89-23.1-47.7-41.24-62.74-57.2-47.43-171.31-34.76-203.22,26-.07.13-2,1.14-2,2-29.58,29.12-29.6,75.75-15.5,112.48.97,7.79.83,15.71,1.5,23.5.01.13-.74.22-.5,2.5.73,1.94.86,4.03,1.5,6-3.18,3.92,15.97,25.61,18.25,27.5,8.72,7.24,20.12,4.81,21.25,5.75,2.34,21.49,3.81,43.12,3,64.74-7.1,3.65-15.18,8.49-21,14-5.57,2.89-11.56,10.75-15,16-4.16.52-5.03,1.43-7.5,4.5-5,4.77-21.02,17.2-24,20.5,0-.33.14-.86-.25-1-2.25-.79-39.43-1.5-47.24-6,2.25-3.34.2-8.24-1.75-8.5-2.7-.36-6.44,3.66-8.5,5-.27.18-1.43-.18-1.75,0v-2c6.78-1.75,3.05-13.86-1.75-11-.41.24,1.72,5.86-3,5-3.07-.56-3.48-7.46,2.5-1.5,1.58-.92-3.01-6.87-6.25-2-.24-.82-.89-.33-1-.75-1.52-6.05-2.69-22.04-3.5-29.5-.34-3.12.52-4.04.5-4.25,5.88,3.26,4.16-5.32,0-2l-1.5-1.25c-1.36-13.98-2.22-28.17-1.5-42.24,4,.19.93-4.78-.5-2,0-.1-.99-1.57-1-1.75-.34-10.31.51-20.94.5-31.25,3.14-.79,1.44-3.28,0-2.5.07-37.06.63-68.48,7-105.48,7.89,1.21,10.94-14.59,3.5-16C53.54,81.28,75.19,35.08,122.48.06,207.47-.02,292.46-.02,377.44.06Z" style="fill:#6c4e57; stroke-width:0px;"/><path d="m122.48.06C75.19,35.08,53.54,81.28,41.49,137.54c-1.14,5.31-2.58,10.66-3.5,16-6.37,37-6.93,68.42-7,105.48,0,.83,0,1.67,0,2.5.01,10.31-.84,20.94-.5,31.25,0,.18,1,1.65,1,1.75.01.33-.98.85.5,2-.72,14.07.14,28.27,1.5,42.24l1.5,1.25c.04.66-.06,1.34,0,2,.02.21-.84,1.13-.5,4.25.81,7.45,1.98,23.45,3.5,29.5.11.42.76-.08,1,.75.42,1.43,1.22,11.38,8.5,9.5v2c-4.83,2.63,7.99,9.46,12,3.5,7.81,4.5,44.99,5.21,47.24,6,.39.14.25.67.25,1-1.31,1.45-2.3,1.45-3,3.75-2.62,12.38-2.04,24.92-2,37.49q10,10.37,20,20.75c-.08,1.38.35,1.62-1,3l-26-22.75c.85-12.06,1.02-24.29,4.5-35.99-10.7,4.75-21.75,11.51-32.74,16.75-4.52,2.16-48.06,19.99-47.24,23.25,16.75,5.55,23.03,46.22,30.5,52.49,1.79,1.5.9-6.53,1.5-13l1-2.25v20.25l6.5-10c1.62-18.7,3.3-37.52,6.5-55.99,1.22,8.06-.61,20.32,2.5,26,.84,6.43-2.76,6.03-3,8-.24,2.02,4.07,10.87,4.5,14-2.08,8.9-1.62,18.44-2.5,27.75-3.83,0-7.67.01-11.5,0,3.02-23.56,1.04-6.18-7.5,0-3.5-.01-7,.01-10.5,0,8.28-2.81,19.47-5.61,9.5-15.75-5.62-5.71-15.27-4.66-14.5,4.5,5.45-13.56,23.99.17,2,11.25-1.5,0-3,0-4.5,0-3.07-18.13-2.43-36.44-2.5-54.74-2.83,7.65-3.28,19.43-3,27.75-2.07,7.45.36,14.07.5,16.25.91,13.85-4.27-5.25-6-16.5-2.78,8.95.42,18.29,2,27.25-7-.06-14,.05-21,0V.06C40.83.03,81.65.1,122.48.06Z" style="fill:#6a2b49; stroke-width:0px;"/><path d="m384.44.06c42.49.04,84.99-.03,127.48,0v511.92c-7.16.05-14.33-.06-21.5,0,.59-12.1,2.79-24.17,3.5-36.24.58-9.84,1.34-30.28-2-20-3.1,9.54-2.29,43.41-3,56.24-.5,0-1,0-1.5,0,.12-6.55-.05-13.48-.5-20-.17-2.42.78-3.33-1.5-2.5,1.85-11.61,4.3-23.11,6-34.74,1.42-3.97,8.34-6.49,8.5-10.5-1.01-3.2-47.94-20.23-54.74-23.25-12.22-5.41-24.36-11.87-36.24-18q21.5-6,42.99-12c4,5.7,15.32,2.36,14-.75-.13-.3-2.59-.83-4.5-2.75.94.4,1.9-.03,2,0,1.45.38,2.39,1.54,4.25,1,3.89-1.13,5.41-10.48,6.25-13.5.04-.13,1.04-.26,1.5-2.25,1.31-11.43,3.61-22.67,3.5-34.24-.21-7.33,2.25-10.92,1.5-12.5-.02-.05-.68.17-.5-1,1.98-2.99,1.21-3.27,1.5-5,.47-2.83.81-5.9,1-8.75.86-13.15.71-99.19,0-113.98-.81-16.86-4.35-40.59-8-57.24-.07-.3.07-.7,0-1-10.28-46.07-38.68-106.09-79.49-132.48-3.47-2.24-7.31-3.85-10.5-6.5Z" style="fill:#6a2b49; stroke-width:0px;"/><path d="m384.44.06c3.19,2.65,7.03,4.26,10.5,6.5-4.03,6.73-18.4,2.15-17.5-6.5,2.33,0,4.67,0,7,0Z" style="fill:#f0d383; stroke-width:0px;"/><path d="m379.69,338.01c18.28-.86,17.04,29.75-1,27.5-14.77-1.85-14.68-26.76,1-27.5Z" style="fill:#f0d383; stroke-width:0px;"/><path d="m258.21,8.56c9.91-.54,10.62,14.47,2,15.5-10.47,1.25-12.16-14.94-2-15.5Z" style="fill:#f0d383; stroke-width:0px;"/><path d="m41.24,211.03c13.38-2.82,11.51,17.85-1,13-5.29-2.05-4.75-11.79,1-13Z" style="fill:#f0d383; stroke-width:0px;"/><path d="m59.24,189.03c9.27-.63,10.09,12.62,2.5,14-10.5,1.91-11.45-13.39-2.5-14Z" style="fill:#f0d383; stroke-width:0px;"/><path d="m409.19,44.05c11.84-2.24,11.59,16.52-.5,13.5-5.91-1.48-6.04-12.26.5-13.5Z" style="fill:#f0d383; stroke-width:0px;"/><path d="m473.93,375c-.84,3.02-2.36,12.37-6.25,13.5-1.86.54-2.8-.62-4.25-1-8.42-9.94-1.2-8.57-.75-9,.45-.43,2.17-7.66,9.5-.5-2.79-5.1-3.82-8.99,1.75-3Z" style="fill:#f0d383; stroke-width:0px;"/><path d="m459.18,279.52c11.79-2.89,11.83,15.14.5,13-6.38-1.21-6.25-11.59-.5-13Z" style="fill:#f0d383; stroke-width:0px;"/><path d="m461.43,387.5c1.91,1.92,4.37,2.45,4.5,2.75,1.32,3.11-10,6.45-14,.75-5.04-7.18,3.8-11.57,5.5-9.75.24,2.91,2.18,4.43,4,6.25Z" style="fill:#f0d383; stroke-width:0px;"/><path d="m459.18,189.03c8.65-2.42,13.65,11.1-1.5,13.5-1.8-3.55-4.01-11.95,1.5-13.5Z" style="fill:#f0d383; stroke-width:0px;"/><path d="m95.99,286.02c1.75-.3,3.97-.04,5.5,1,2.75,1.88-.33,8.74-.75,9-1.35.84-7.91-2.49-8.25-1.75.83.84,1.69,2.2,2.75,2.75,1.21.63,10.53,2.95,2,2.5-6.82-.36-8.95-12.18-1.25-13.5Z" style="fill:#f0d383; stroke-width:0px;"/><path d="m415.19,168.53c5.03-.93,7.13,2.97,4.75,7.25-2.43,4.37-9.96,4.44-14.25,4.25,4.68-2.82,4.49-10.58,9.5-11.5Z" style="fill:#f0d383; stroke-width:0px;"/><path d="m59.49,391.5c-4.01,5.97-16.83-.87-12-3.5.32-.18,1.47.18,1.75,0,2.06-1.34,5.8-5.36,8.5-5,1.95.26,4,5.16,1.75,8.5Z" style="fill:#f0d383; stroke-width:0px;"/><path d="m94.24,169.03c7.29-2.35,21.53,16.68,2.75,8.75,5.34-3.26.12-.23-2.75-1.75-2.47-1.3-2.63-6.15,0-7Z" style="fill:#f5ca83; stroke-width:0px;"/><path d="m47.49,386c-7.28,1.88-8.08-8.07-8.5-9.5,3.24-4.87,7.82,1.08,6.25,2-5.98-5.96-5.56.94-2.5,1.5,4.72.86,2.59-4.76,3-5,4.8-2.86,8.53,9.25,1.75,11Z" style="fill:#f0d383; stroke-width:0px;"/><path d="m349.7,308.51c8.19-1.24,8.56,11.34,0,10-5.23-.82-5-9.24,0-10Z" style="fill:#f0d383; stroke-width:0px;"/><path d="m358.19,7.06c7.2-1.87,8.27,9.34,3,10.5-7.66,1.69-7.14-9.42-3-10.5Z" style="fill:#f0d383; stroke-width:0px;"/><path d="m37.99,153.54c.92-5.34,2.36-10.69,3.5-16,7.44,1.41,4.39,17.21-3.5,16Z" style="fill:#f0d383; stroke-width:0px;"/><path d="m208.22,4.56c6.81-1.26,4.8,10.85,1,11.5-6.07,1.04-6.29-10.52-1-11.5Z" style="fill:#f0d383; stroke-width:0px;"/><path d="m101.48,286.52c-.29-.04-.49-1.48-5.5-1-8.1-8.17,11.16-13.37,8,.75-.94,1.3-1.2.42-2.5.25Z" style="fill:#f0d383; stroke-width:0px;"/><path d="m361.19,292.01c4.8-1.48,8.01,5.71,2.25,8.75,15.51,9.28-7.01,4.01-4.5-6,.11-.46,1.85-2.63,2.25-2.75Z" style="fill:#f0d383; stroke-width:0px;"/><path d="m400.69,233.02c7.89-1.07,7.53,11.57-1,9.5-4.14-1.01-3.58-8.88,1-9.5Z" style="fill:#f0d383; stroke-width:0px;"/><path d="m87.24,72.05c4.06-.94,3.91,6.45,3.25,8.75,6.18,4.69,4.81,6.05-1.25,3.75-5.62-2.14-5.54-11.67-2-12.5Z" style="fill:#f0d383; stroke-width:0px;"/><path d="m91.24,60.55c3.21-.36,7.74,4.63,10.75,6.25-3.48.72-12.23,3.73-13.5-1.5-.52-2.13.29-4.48,2.75-4.75Z" style="fill:#f0d383; stroke-width:0px;"/><path d="m198.22,21.56c6.72-1.87,5.48,8.19,1.5,9-6.4,1.31-5.26-7.95-1.5-9Z" style="fill:#f0d383; stroke-width:0px;"/><path d="m399.19,169.53c2.8-.33,6.73,4.12,4.75,7.75-3.62,6.63-9.76-7.15-4.75-7.75Z" style="fill:#f5ca83; stroke-width:0px;"/><path d="m350.2,6.56c3.93,0,6.77,11.3-.5,8-3.88-1.76-3.09-8,.5-8Z" style="fill:#f0d383; stroke-width:0px;"/><path d="m394.69,354.51c2.94,3.34.62,10.92-3.5,11.5-7.61,1.08-.06-3.64,3.5-11.5Z" style="fill:#f5ca83; stroke-width:0px;"/><path d="m216.72,7.56c3.36-.24,4.54,6.23,1,8-5.82,2.9-5.15-7.7-1-8Z" style="fill:#f0d383; stroke-width:0px;"/><path d="m451.68,190.03c4.81-1.09,1.21,5.9,3.5,11-8.39-5.37-6.29-10.37-3.5-11Z" style="fill:#f0d383; stroke-width:0px;"/><path d="m93.74,188.03c4.38-.72,5.83,6.11,2,7-5.25,1.21-6.1-6.33-2-7Z" style="fill:#f0d383; stroke-width:0px;"/><path d="m364.69,26.06c2.16,7.11,11.68,1.41,9.25,7.25-1.29,3.1-9.83,1.03-9.25-7.25Z" style="fill:#f0d383; stroke-width:0px;"/><path d="m420.19,188.03c4.64-1.32,5.91,5.85,2,6.5-4.55.76-4.97-5.65-2-6.5Z" style="fill:#f0d383; stroke-width:0px;"/><path d="m197.22,34.05c3.56-.76,4.99,6.16,2,7-4.17,1.18-4.94-6.37-2-7Z" style="fill:#f0d383; stroke-width:0px;"/><path d="m433.68,222.53c-5.47,7.46-4.5,9.24-4.75,9.75-1.41,2.83-4.99-1.18-5-1.5-.02-.64,8.62-7.17,9.75-8.25Z" style="fill:#f0d383; stroke-width:0px;"/><path d="m110.23,169.03c4.27-.92,4.12,6.04,1,6.5-4.08.59-4.25-5.8-1-6.5Z" style="fill:#f4bb81; stroke-width:0px;"/><path d="m427.18,288.02c5.16-1.63,5.16,7.13,0,5.5-2.26-.71-2.26-4.79,0-5.5Z" style="fill:#f0d383; stroke-width:0px;"/><path d="m415.69,247.52c4.87-1.5,4.9,6.23,1,6-2.53-.15-3.71-5.17-1-6Z" style="fill:#f0d383; stroke-width:0px;"/><path d="m82.74,284.02c3.88-1.03,5.02,4.55,2,5.5-4.62,1.46-4.64-4.8-2-5.5Z" style="fill:#f0d383; stroke-width:0px;"/><path d="m367.69,343.01c4.38-1.7-4.52,3.96.5,15.5-5.77-3.98-2.69-14.65-.5-15.5Z" style="fill:#f4bb81; stroke-width:0px;"/><path d="m93.24,76.05c3.29-.69,5.3,5.42,1.5,6-3.89.59-4.12-5.45-1.5-6Z" style="fill:#f0d383; stroke-width:0px;"/><path d="m135.23,77.05c3.49-.53,4.02,4.73,1.5,5.5-3.86,1.17-4.95-4.98-1.5-5.5Z" style="fill:#dfb46c; stroke-width:0px;"/><path d="m139.23,35.05c2.73-.27,4.21,4.87,1,5.5-3.7.72-4.07-5.2-1-5.5Z" style="fill:#f0d383; stroke-width:0px;"/><path d="m128.23,98.54c3.46-1.18,4.79,4.11,2,5-3.65,1.17-4.27-4.23-2-5Z" style="fill:#f0d383; stroke-width:0px;"/><path d="m389.69,370c3.22-.73,4.2,4.11,2,5-3.95,1.6-4.83-4.36-2-5Z" style="fill:#f0d383; stroke-width:0px;"/><path d="m481.43,320.01c-.29,1.73.48,2.01-1.5,5-5.51,8.31-6.01.24,1.5-5Z" style="fill:#f0d383; stroke-width:0px;"/><path d="m428.68,234.02c3.72-1.39,4.18,4.38,1.5,5-3.24.76-3.29-4.33-1.5-5Z" style="fill:#dfb46c; stroke-width:0px;"/><path d="m478.93,338.51c-.04-3.88-3.31-8.52,1.5-12.5.75,1.58-1.71,5.17-1.5,12.5Z" style="fill:#f4bb81; stroke-width:0px;"/><path d="m394.69,65.05c2.63-.53,3.81,3.72,1.5,4.5-3.75,1.27-4-3.99-1.5-4.5Z" style="fill:#f0d383; stroke-width:0px;"/><path d="m463.18,226.52c3.23-.57,3.31,4.96.5,5-2.61.04-2.8-4.59-.5-5Z" style="fill:#f0d383; stroke-width:0px;"/><path d="m115.23,172.53c5.99-2.3,1.9,5.36-1.5,3.5-.17-.09.27-3.03,1.5-3.5Z" style="fill:#955b5d; stroke-width:0px;"/><path d="m34.99,342.01c-.06-.66.04-1.34,0-2,4.16-3.32,5.88,5.26,0,2Z" style="fill:#f0d383; stroke-width:0px;"/><path d="m354.7,318.51c.16.01,2.23,2.09,2.25,2.25.75,5.75-8.12-2.73-2.25-2.25Z" style="fill:#f0d383; stroke-width:0px;"/><path d="m414.69,153.04c2.34-.24,2.52,4.22,0,4-1.85-.16-1.92-3.81,0-4Z" style="fill:#f0d383; stroke-width:0px;"/><path d="m463.18,308.01c2.57-1.19,3.63,3.35,1,3.5-1.53.09-2.59-2.76-1-3.5Z" style="fill:#f0d383; stroke-width:0px;"/><path d="m77.74,195.03c1.99-.93,3.25,2.18,1.5,3-1.99.93-3.25-2.18-1.5-3Z" style="fill:#f4bb81; stroke-width:0px;"/><path d="m41.24,341.51c1.61-.55,3.55.92,3.25,1.75-.81,2.24-5.93-.83-3.25-1.75Z" style="fill:#f0d383; stroke-width:0px;"/><path d="m462.18,251.52c2.11-.49,2.91,2.56,1,3-2.11.49-2.91-2.56-1-3Z" style="fill:#f0d383; stroke-width:0px;"/><path d="m204.72,17.56c4.11-.96-.88,4.16-2,3.5-.87-.52,1.52-3.39,2-3.5Z" style="fill:#f5ca83; stroke-width:0px;"/><path d="m382.94,246.02c.04-.15-.04-.34,0-.5l6,.75-6-.25Z" style="fill:#fae2d2; stroke-width:0px;"/><path d="m32,296.51c-1.48-1.15-.49-1.67-.5-2,1.43-2.78,4.5,2.19.5,2Z" style="fill:#f0d383; stroke-width:0px;"/><path d="m474.43,139.04c.07.3-.07.7,0,1-1.89,3.49-4.5-2.84,0-1Z" style="fill:#dfb46c; stroke-width:0px;"/><path d="m433.18,138.54c2.38-1.04,2.73,2.24,1,2.5-1.33.2-2.07-2.03-1-2.5Z" style="fill:#f4bb81; stroke-width:0px;"/><path d="m434.18,194.53c1.61-.61,2.5,1.93,1,2.5-1.61.61-2.5-1.93-1-2.5Z" style="fill:#eba76f; stroke-width:0px;"/><path d="m103.73,254.52c1.47-.06,1.71,2.03.5,2.5-2.15.84-1.85-2.45-.5-2.5Z" style="fill:#f4bb81; stroke-width:0px;"/><path d="m31,261.52c0-.83,0-1.67,0-2.5,1.44-.78,3.14,1.71,0,2.5Z" style="fill:#8e8179; stroke-width:0px;"/><path d="m371.19,50.55c.98-.23,1.77,1.5,1,2-1.6,1.05-2.53-1.63-1-2Z" style="fill:#e4b49a; stroke-width:0px;"/><path d="m101.48,286.52v.5c-1.53-1.04-3.75-1.3-5.5-1v-.5c5.01-.48,5.21.96,5.5,1Z" style="fill:#b99359; stroke-width:0px;"/><path d="m94.74,152.54c1.23-.27,1.67,1.74.5,2-1.23.27-1.67-1.74-.5-2Z" style="fill:#faad87; stroke-width:0px;"/><path d="m58.24,147.04c1.81-.35.75,2.03,0,2-.75-.03-1.02-1.8,0-2Z" style="fill:#e4b49a; stroke-width:0px;"/><path d="m407.69,73.55c1.16-.05.58,2.6-.5,2-.7-.39.02-1.98.5-2Z" style="fill:#e29684; stroke-width:0px;"/><path d="m145.73,55.55c1.13-.61,1.78,1.07,1,1.5-1.13.61-1.78-1.07-1-1.5Z" style="fill:#e4b49a; stroke-width:0px;"/><path d="m406.19,100.54c.43-.02,1.23,1.6.5,2-1.82.99-.97-1.98-.5-2Z" style="fill:#d28f94; stroke-width:0px;"/><path d="m75.74,135.54c.29,0,1.3,1.12.25,1.75-1.08.64-1.23-1.75-.25-1.75Z" style="fill:#e0c4c3; stroke-width:0px;"/><path d="m95.74,217.53c.29,0,1.3,1.12.25,1.75-1.08.64-1.23-1.75-.25-1.75Z" style="fill:#e0c4c3; stroke-width:0px;"/><path d="m442.18,155.54c.25,0,1.22,1.18.5,1.5-1.66.73-1.35-1.47-.5-1.5Z" style="fill:#e5b9b0; stroke-width:0px;"/><path d="m428.18,177.03c1.66-.73,1.35,1.47.5,1.5-.25,0-1.22-1.18-.5-1.5Z" style="fill:#b3737f; stroke-width:0px;"/><path d="m114.73,110.54c.18,0,1.1.72.25,1.25-.95.6-1.11-1.25-.25-1.25Z" style="fill:#f0aba6; stroke-width:0px;"/><path d="m111.73,330.01c.42-.25,1.28.68,1.25.75-.38.83-2.37-.07-1.25-.75Z" style="fill:#e0c4c3; stroke-width:0px;"/><path d="m82.74,179.03c.18,0,1.1.72.25,1.25-.95.6-1.11-1.25-.25-1.25Z" style="fill:#e0c4c3; stroke-width:0px;"/><path d="m469.68,160.03c1.29-.68,1.44.89.5,1-.06,0-1.01-.73-.5-1Z" style="fill:#b89ba0; stroke-width:0px;"/><path d="m457.18,339.51c.06,0,1.01.73.5,1-1.29.68-1.44-.89-.5-1Z" style="fill:#e0c4c3; stroke-width:0px;"/><path d="m345.2,31.55c1.29-.68,1.44.89.5,1-.06,0-1.01-.73-.5-1Z" style="fill:#b89ba0; stroke-width:0px;"/><path d="m59.24,309.01c.06-.04.82.51.5,1-.77,1.2-1.14-.55-.5-1Z" style="fill:#e0c4c3; stroke-width:0px;"/><path d="m430.68,271.02c.64.45.27,2.2-.5,1-.32-.49.44-1.04.5-1Z" style="fill:#e0c4c3; stroke-width:0px;"/><path d="m64.74,316.51c.75-.3,1.1.76.5,1-.75.3-1.1-.76-.5-1Z" style="fill:#cdb0b5; stroke-width:0px;"/><path d="m78.74,154.54h.5l.25.25v.5l-.25.25-.25-.25-.25-.25-.25-.25.25-.25Z" style="fill:#e0c4c3; stroke-width:0px;"/><path d="m394.19,315.51h.5l.25.25v.5l-.25.25-.25-.25-.25-.25-.25-.25.25-.25Z" style="fill:#e0c4c3; stroke-width:0px;"/><path d="m105.23,126.04c.29-.14,1.25-.02,1.25.25,0,.57-2.14.18-1.25-.25Z" style="fill:#e0c4c3; stroke-width:0px;"/><path d="m91.74,106.04h.5l.25.25v.5l-.25.25-.25-.25-.25-.25-.25-.25.25-.25Z" style="fill:#cdb0b5; stroke-width:0px;"/></g><path d="m383.94,224.53c1.42-6.24,4.02-12.27,5.5-18.5.34,4.24-3.18,15.31-5.5,18.5Z" style="fill:#d2a887; stroke-width:0px;"/><path d="m131.48,238.52l-1,1c-.24-2.28.51-2.37.5-2.5-.14.65.25.99.5,1.5Z" style="fill:#cbb6ab; stroke-width:0px;"/><path d="m174.47,343.51c-1.56,12.23-3.68,24.47-2,36.74.94,6.83,7.36,27.24,12,32.74,1.83,4.35,21.59,49.05,24.25,48.49,11.02-17.48,20.79-36.19,35.99-50.49l1.75-.5c-1.73,5.49-16.71,21-16.5,25.75.54,1.12,1.29,2.55,1.5,3.75-.37.11-.68-.53-.75-.5-3.71,1.62-16.98,22.52-20.75,27.25,9.12,21.65,8.16,24.36-.75.75l-1.25,1.75q6.75,21.37,13.5,42.74c-26.83-.01-53.66.02-80.49,0-.01-5.35-.52-10.74-1.5-16-.23-1.23-.11-2.75-.5-4-2.97-9.56-15.13-18.75-18-28.5,1.35-1.38.92-1.62,1-3,.14-2.32.42-4.71.5-7,.05-1.33-.03-2.67,0-4,.45-21.96,1.12-37.98,9.5-58.99,4.23-10.61,13.19-25.12,21.5-32.99,5.82-5.51,13.89-10.35,21-14Z" style="fill:#1b2934; stroke-width:0px;"/><path d="m353.45,351.51c14.29,12.99,24.48,36.83,30,54.99.81,16.15.48,32.42-1.5,48.49-.28,2.3-1.51,5.77-.5,8-.69,1.16-2.25,1.07.5,3-.63.81-1.21,1.59-2,2.25.03,2.04-.03,4.26-.5,6.25-.08.33-.3.62-.5,1.5-.8,3.46-1.23,8.61-1.5,9.5-.45,1.5-1.5,2.86-1.5,4.5-6.44,3.32-5.65,9.67-6,11-.01.05-.19-.4-.5,1-.72,3.3-.89,6.77-2,10-27.16.02-54.33-.01-81.49,0q8-21.5,16-42.99c4.47-5.13,14.03-22.29,11.5-28.5,8.55-16.34,24.98-50.78,26.5-68.24.82-9.42-1.08-18.44-2-27.75.45.04.51-.49,1-.5,4.76-.1,11.05,4.37,14.5,7.5Z" style="fill:#1b2934; stroke-width:0px;"/><path d="m153.48,357.5c-8.31,7.87-17.26,22.38-21.5,32.99-1.05-1.12-1.14,1.24-2,0,2.59-6.62,4.59-11.03,8.5-17,3.43-5.25,9.43-13.11,15-16Z" style="fill:#e4b49a; stroke-width:0px;"/><path d="m228.46,352.51c-.17,3.44,3.52,22.89,4.5,24.25.6.83,4.47,2.53,5.75,3.75l.75-.75c.38-3.12-.32-6.19-.5-9.25,2.27-.16-.27,4.16,2,4,.24,1.97-.17,4.24,0,6.25,1.14,3.17,18.65,3.62,25.25,1.25,2.32-.84,2.1-2.43,2.25-2.5.35-.16.66-.33,1-.5.51-.25,1.88,1.63,9.5-5.25-.65-2.67-.76-4.48-.5-7.25l1-1.25c-.57,3.82-1.27,9.43,4,6.75.85-.43,5.24-3.33,4.5-4.5.32.03.71-.07,1,0,1.66.38,3.22-1.41,5-2.5l.5,1.5c-5.67,5.12-11.83,18.95-9.75,9.5-4.02-2.62-10.01,16.86-15.25,15.75-.58-10.72.13-3.89-13.5-2.5v20.25c-.43-.02-5.23.98-8.5.5-.62.05-.47-.49-.5-.5,2.29.26,1.9-.5,2-.5,1.11-.03,1.93,1.3,3-.25l-.5-22c-1.63.2-9.81-4.59-10.25-4.25-1.65,1.28,2.39,4.74-2.75,6-5.89-.64-3.38-1.72-4-2.5-2.38-3.03-12.48-14.72-14.5-16.5l1-.5c3.34,2.4,6.95,4.66,10.5,6.75q-2.5-10.87-5-21.75c.7-.53.86-3.06,2-1.5Z" style="fill:#0e0f20; stroke-width:0px;"/><path d="m261.46,409.5c-1.32-.23-3.75.08-5.5,0v-20.25c13.63-1.39,12.92-8.22,13.5,2.5,5.24,1.11,11.23-18.37,15.25-15.75-2.08,9.46,4.08-4.38,9.75-9.5.27-.24,6.29-4.73,6-3.25-2.87,6.3-15.03,19.22-12.5,22-7.42,9.66-17.91,15.81-26.5,24.25Z" style="fill:#522d1d; stroke-width:0px;"/><path d="m267.96,454.49l-4.5,57.49c-1.33,0-2.67,0-4,0-1.23-25.68-1.56-21.68-6,0-2.83,0-5.67,0-8.5,0-1-1.47-.81-3.38-1-4,.92-4.25.08-8.69,0-13-.27-13.67-.27-27.34-1-40.99,4-.56,7.9-1.64,12-.75q1.87,16.62,3.75,33.24.37-16.37.75-32.74c.45-1.15,7.05.36,8.5.75Z" style="fill:#a53064; stroke-width:0px;"/><path d="m272.46,456.99c-1.66,12.29.41,20.66.5,30.75l-6.5,24.25c-1,0-2,0-3,0l4.5-57.49c1.25.34,2.53.56,3.75,1l.75,1.5Z" style="fill:#6a2b49; stroke-width:0px;"/><path d="m274.96,456.99c-.02.06-.43-.02-1,.75.57,10.47,1.48,20.99,1,31.5-.15,3.35-2.6,6.99-.5,13-1.87,2.91-3.11,6.26-3,9.75-1.67,0-3.33,0-5,0l6.5-24.25c-.09-10.09-2.16-18.45-.5-30.75h2.5Z" style="fill:#3a1636; stroke-width:0px;"/><path d="m243.96,507.98c.19.62,0,2.53,1,4-1.83,0-3.67,0-5.5,0-2.48-17.2-4.61-29.39-3.5-46.99-.17,19.6,2.77,25.98,8,42.99Z" style="fill:#3a1636; stroke-width:0px;"/><path d="m259.46,511.98c-2,0-4,0-6,0,4.44-21.68,4.77-25.68,6,0Z" style="fill:#c96c7b; stroke-width:0px;"/><path d="m240.96,453.99c.02,13.67-.48,27.6,3,40.99.08,4.31.92,8.75,0,13-5.23-17.02-8.17-23.39-8-42.99.16-2.52.22-4.97.5-7.5.21-1.94-.85-2.69-.25-3,1.58.03,3.2-.24,4.75-.5Z" style="fill:#832b59; stroke-width:0px;"/><path d="m242.96,453.99c.73,13.66.73,27.33,1,40.99-3.48-13.39-2.98-27.32-3-40.99.64-.11,1.36.09,2,0Z" style="fill:#532743; stroke-width:0px;"/><path d="m264.46,411c2.45,1.96,12.14,16.78,15.5,20.75.61,1.89-.25,4.85-.5,7.25-.48,4.62-2.24,12.67-3.5,17.25-.13.46-.98.69-1,.75h-2.5l-.75-1.5c-1.22-.44-2.5-.66-3.75-1-1.45-.39-8.05-1.9-8.5-.75q-.37,16.37-.75,32.74-1.87-16.62-3.75-33.24c-4.1-.89-8,.19-12,.75-.64.09-1.36-.11-2,0-1.55.26-3.17.53-4.75.5-.6.31.46,1.06.25,3-2.81-3.6-4.13-12.39-5-17.5-.21-1.2-.96-2.63-1.5-3.75-.21-4.75,14.77-20.25,16.5-25.75h.5c5.78,1.23,11.65,1.13,17.5.5Z" style="fill:#500a33; stroke-width:0px;"/><path d="m261.46,409.5c.13.02,1.91.84,2.5,1,.61-.06.47.48.5.5-5.85.63-11.71.73-17.5-.5l.5-.5c3.27.48,8.07-.52,8.5-.5,1.75.08,4.18-.23,5.5,0Z" style="fill:#3a1636; stroke-width:0px;"/><path d="m248.96,409c-3.31-3.82-18.8-16.06-20-19.25-1.4-3.73,4.55-.04,9.5-1.25,5.14-1.26,1.1-4.72,2.75-6,.44-.34,8.61,4.44,10.25,4.25l.5,22c-1.07,1.55-1.89.22-3,.25Z" style="fill:#522d1d; stroke-width:0px;"/><path d="m231.46,439.99c.87,5.11,2.19,13.9,5,17.5-.28,2.52-.34,4.98-.5,7.5-1.11,17.61,1.02,29.8,3.5,46.99-6,0-12,0-18,0q-6.75-21.37-13.5-42.74l1.25-1.75c8.91,23.61,9.87,20.9.75-.75,3.76-4.72,17.03-25.63,20.75-27.25.07-.03.38.61.75.5Z" style="fill:#f5e6b0; stroke-width:0px;"/><path d="m313.45,440.49c2.53,6.2-7.02,23.37-11.5,28.5-7.85-9.73-13.55-21.15-22.5-30,.25-2.4,1.11-5.36.5-7.25-3.36-3.97-13.05-18.79-15.5-20.75-.03-.02.11-.56-.5-.5l1-2c16,14.92,25.4,34.5,37.24,52.49,3.97-6.71,7.63-13.59,11.25-20.5Z" style="fill:#0e0f20; stroke-width:0px;"/><path d="m301.95,468.99q-8,21.5-16,42.99c-4.83,0-9.67,0-14.5,0-.11-3.48,1.13-6.84,3-9.75-2.1-6.01.35-9.64.5-13,.48-10.51-.43-21.03-1-31.5.57-.77.98-.69,1-.75s.87-.29,1-.75c1.26-4.58,3.02-12.63,3.5-17.25,8.94,8.84,14.65,20.26,22.5,30Z" style="fill:#f5e6b0; stroke-width:0px;"/><path d="m298.7,469.49c2.08,1.85-1.92,10.68-4,11.5,3.24-4.55,1.95-10.73,3-6,1.29-1.63.37-3.62,1-5.5Z" style="fill:#434831; stroke-width:0px;"/><path d="m295.7,469.49l.25,3.75c-6.59,16.78-1.92,4.89-.25-3.75Z" style="fill:#434831; stroke-width:0px;"/><path d="m246.96,409.5s-.12.55.5.5l-.5.5h-.5l-1.75.5c-15.21,14.3-24.98,33.01-35.99,50.49-2.66.56-22.42-44.14-24.25-48.49-10.52-25.04-15.85-39.11-8.75-67.49,9.86,21.46,32.14,32.15,49.99,45.99,3.95,3.06,18.76,17.11,21.25,18Z" style="fill:#f5e6b0; stroke-width:0px;"/><path d="m215.22,416.5c3.61-.4-.78,15.49-1.25,16.25-3.46,5.59-11.65.37-8-8.5.23-.56,8.65-7.68,9.25-7.75Z" style="fill:#6a2b49; stroke-width:0px;"/><path d="m337.95,344.51c.92,9.31,2.82,18.32,2,27.75-1.51,17.46-17.95,51.9-26.5,68.24-3.62,6.91-7.27,13.78-11.25,20.5-11.84-17.99-21.24-37.57-37.24-52.49,13.93-12.25,58.07-41.22,65.99-52.24,2.4-3.33,4.81-8.04,6-12l1,.25Z" style="fill:#f5e6b0; stroke-width:0px;"/><path d="m299.2,413.5c1.27.13,16.08,19.1,4,20-5.52.41-5.83-10.57-8.75-14.25-.19-3.27,4.06-5.82,4.75-5.75Z" style="fill:#6a2b49; stroke-width:0px;"/><path d="m381.94,454.99c1.98-16.07,2.31-32.34,1.5-48.49,4.79,15.77,10.38,33.94-1.5,48.49Z" style="fill:#6a2b49; stroke-width:0px;"/><path d="m140.98,511.98c-10.83,0-21.66.01-32.5,0q15.5-8,31-16c.98,5.26,1.49,10.65,1.5,16Z" style="fill:#e29684; stroke-width:0px;"/><path d="m139.48,495.98q-15.5,8-31,16c-1.5,0-3,0-4.5,0,7.71-6.56,16.78-10.96,25.75-15.5.87-.44,2.58-2.42,2.75-2.5.33-.16.78-.4,1-.5.28-.12,1.22,1.28,5.5-1.5.39,1.25.27,2.77.5,4Z" style="fill:#532743; stroke-width:0px;"/><path d="m130.98,378c-1.69,2.1-2.32,4.67-3.5,7-10.16,20.12-16.1,47.77-5,68.49-.08,2.29-.36,4.68-.5,7q-10-10.37-20-20.75c-.04-12.57-.62-25.12,2-37.49.7-2.3,1.69-2.3,3-3.75,2.98-3.3,19-15.73,24-20.5Z" style="fill:#e29684; stroke-width:0px;"/><path d="m30,511.98c-.83,0-1.67,0-2.5,0-.05-9.17-2.69-17.8-3-27-.28-8.32.17-20.09,3-27.75.07,18.3-.57,36.61,2.5,54.74Z" style="fill:#cd807f; stroke-width:0px;"/><path d="m24.5,484.99c.31,9.19,2.95,17.82,3,27-2.17-.02-4.33.02-6.5,0-1.58-8.95-4.78-18.3-2-27.25,1.73,11.25,6.91,30.34,6,16.5-.14-2.17-2.57-8.8-.5-16.25Z" style="fill:#6a2b49; stroke-width:0px;"/><path d="m37.49,511.98c-1,0-2,0-3,0,21.99-11.08,3.45-24.81-2-11.25-.77-9.16,8.88-10.21,14.5-4.5,9.97,10.14-1.22,12.93-9.5,15.75Z" style="fill:#e29684; stroke-width:0px;"/><path d="m55.49,511.98c-2.5,0-5,0-7.5,0,8.54-6.18,10.52-23.56,7.5,0Z" style="fill:#e29684; stroke-width:0px;"/><path d="m27.75,452.49c9.1,10.79,10.74,25.03,15.75,37.74-3.72.71-8.58-.5-10.75,3.75q-2.5-20.75-5-41.49Z" style="fill:#e29684; stroke-width:0px;"/><path d="m39.74,496.98c5.71-1.83,4.46,6.15-6.5,13.5-1.42-.94,5.77-13.27,6.5-13.5Z" style="fill:#e29684; stroke-width:0px;"/><path d="m66.24,462.99c2.03-.04.18,5.43-1,4.5-.83-.65.37-4.49,1-4.5Z" style="fill:#92425f; stroke-width:0px;"/><path d="m62.74,472.49c.97-.2,1.16,3.41,1,3.5-1.89,1.13-1.93-2.67-1-3.5Z" style="fill:#d28f94; stroke-width:0px;"/><path d="m138.48,373.5c-3.9,5.97-5.91,10.38-8.5,17-.88-1.26.48-1.15-.25-2-.18-.21-1.83.33-2.25-.25-.21-.29,3.2-4.76,0-3.25,1.18-2.33,1.81-4.9,3.5-7,2.47-3.07,3.34-3.98,7.5-4.5Z" style="fill:#6a2b49; stroke-width:0px;"/><path d="m129.98,390.5c-3.47,8.85-7.47,21.39-8.5,30.75-.62,5.63-1.53,26.22,1,28.25-.03,1.33.05,2.67,0,4-11.1-20.72-5.16-48.37,5-68.49,3.2-1.51-.21,2.96,0,3.25.42.58,2.07.04,2.25.25.73.85-.63.74.25,2Z" style="fill:#6a2b49; stroke-width:0px;"/><path d="m131.98,390.5c-8.38,21.01-9.05,37.03-9.5,58.99-2.53-2.02-1.62-22.62-1-28.25,1.03-9.36,5.03-21.89,8.5-30.75.86,1.24.95-1.12,2,0Z" style="fill:#e29684; stroke-width:0px;"/><path d="m100.98,502.48c.06.1-.09.78,1,2-2.98,3.2-3.54,2.06-7,3,.16-2,.48-1.42.5-1.5,1.62,1.12,1.68-4.91,5.5-3.5Z" style="fill:#cd807f; stroke-width:0px;"/><path d="m120.98,463.49c2.87,9.75,15.03,18.94,18,28.5-4.28,2.78-5.22,1.38-5.5,1.5-8.45-8.64-17.51,4.82-21.75,12,5.15-4.8,13.69-20.08,20.75-11.5-.17.08-1.88,2.06-2.75,2.5-8.96,4.54-18.04,8.94-25.75,15.5-2.17,0-4.33,0-6.5,0l2.25-2.5-3.25,2.5c-.33,0-.67,0-1,0,.04-6.18,4.8-1.1,6.5-7.5-1.09-1.21-.94-1.9-1-2-.1-.17.8-1.91-2.5-1.5-.66.06-.64-1.29-.5-1.75,1.75-5.78,4.62-14.01,0-2.5q-.12-6.62-.25-13.25-.37,9.25-.75,18.5c-1.7,1.54-1.35,3.29-1.5,4-.02.08-.34-.5-.5,1.5-.12,1.48.08,3.01,0,4.5-2.67,0-5.33,0-8,0l.75-7.5-1.75,7.5c-1.67,0-3.33,0-5,0-.24-4.86-1.31-5.41-1,0-1.17,0-2.33,0-3.5,0,3.46-14.72,5.77-23.58-.75-2.5-2.61-26.2.6-52.73,2-78.99-3.25,18.04-4.78,36.44-5.25,54.74-.24,9.28,1.33,18.12,1,20.5-.05.39-2.53,2.62-2,6.25-1.5,0-3,0-4.5,0,.88-9.3.42-18.84,2.5-27.75-.43-3.13-4.74-11.98-4.5-14,.24-1.97,3.84-1.57,3-8-3.11-5.68-1.28-17.93-2.5-26-3.2,18.48-4.88,37.29-6.5,55.99l-6.5,10v-20.25c.88,0,.32-1.06.5-1.5.04-.16,1.98-2.17,1.25-3-1.36,1.06-1.11,2.66-1.25,3-.02.08-.73-.22-.5,1.5l-1,2.25c-.6,6.47.29,14.5-1.5,13-7.47-6.27-13.75-46.95-30.5-52.49-.82-3.26,42.72-21.09,47.24-23.25,11-5.24,22.05-11.99,32.74-16.75-3.48,11.7-3.65,23.94-4.5,35.99l26,22.75Z" style="fill:#e29684; stroke-width:0px;"/><path d="m76.49,511.98c-1.67,0-3.33,0-5,0-.53-3.63,1.95-5.86,2-6.25.33-2.38-1.24-11.22-1-20.5.47-18.3,2-36.7,5.25-54.74-1.4,26.26-4.61,52.78-2,78.99,6.52-21.08,4.21-12.22.75,2.5Z" style="fill:#6a2b49; stroke-width:0px;"/><path d="m95.49,511.98c-.17,0-.33,0-.5,0,.08-1.49-.12-3.02,0-4.5,3.45-.94,4.02.2,7-3-1.69,6.39-6.46,1.32-6.5,7.5Z" style="fill:#591e29; stroke-width:0px;"/><path d="m86.99,511.98c-.33,0-.67,0-1,0l1.75-7.5-.75,7.5Z" style="fill:#783c3a; stroke-width:0px;"/><path d="m80.99,511.98c-.33,0-.67,0-1,0-.31-5.41.76-4.86,1,0Z" style="fill:#845149; stroke-width:0px;"/><path d="m97.49,511.98c-.33,0-.67,0-1,0l3.25-2.5-2.25,2.5Z" style="fill:#591e29; stroke-width:0px;"/><path d="m133.48,493.48c-.22.1-.67.34-1,.5-7.05-8.59-15.6,6.7-20.75,11.5,4.24-7.18,13.3-20.64,21.75-12Z" style="fill:#591e29; stroke-width:0px;"/><path d="m98.48,500.98c-.09.01-1.36.88-1.5,1q.37-9.25.75-18.5.12,6.62.25,13.25c4.62-11.51,1.75-3.28,0,2.5-.14.46-.16,1.81.5,1.75Z" style="fill:#845149; stroke-width:0px;"/><path d="m95.49,472.99c-2.73,2.5-9.82,8.83-12.25,10.5-10.07,6.9,6.43-7.61,12.25-10.5Z" style="fill:#845149; stroke-width:0px;"/><path d="m93.24,481.49c1.21.02.67.28,0,1-.49.53-9.84,7.27-11.75,8.25q5.87-4.62,11.75-9.25Z" style="fill:#845149; stroke-width:0px;"/><path d="m100.98,502.48c-3.82-1.41-3.88,4.62-5.5,3.5.15-.71-.2-2.46,1.5-4,.14-.12,1.41-.99,1.5-1,3.3-.41,2.4,1.33,2.5,1.5Z" style="fill:#591e29; stroke-width:0px;"/><path d="m86.24,462.49c-.04,1.75-1.54,6.2-2.25,7.75-5.63,12.33.2-4.52,2.25-7.75Z" style="fill:#a0574f; stroke-width:0px;"/><path d="m82.99,464.49c-.83,2.09-1.52,4.09-2.75,6-.36-2.46,1.5-4.24,2.75-6Z" style="fill:#a0574f; stroke-width:0px;"/><path d="m52.99,480.49c.13-.34-.11-1.94,1.25-3,.73.83-1.21,2.84-1.25,3Z" style="fill:#6a2b49; stroke-width:0px;"/><path d="m82.99,464.49c.06-.09.12-1.23.75-2,.93,1.51-.71,1.9-.75,2Z" style="fill:#a0574f; stroke-width:0px;"/><path d="m95.49,472.99c.08-.04.58-1.62,1.5-.75-.68,1.01-1.44.69-1.5.75Z" style="fill:#845149; stroke-width:0px;"/><path d="m52.49,481.99c-.23-1.72.48-1.42.5-1.5-.18.44.38,1.5-.5,1.5Z" style="fill:#6a2b49; stroke-width:0px;"/><path d="m457.43,511.98c-2,0-4,0-6,0,1.02-26.23-.47-52.54-4.25-78.49,6.2,25.71,11.55,51.89,10.25,78.49Z" style="fill:#6a2b49; stroke-width:0px;"/><path d="m490.42,511.98c-.5,0-1,0-1.5,0,.71-12.83-.1-46.7,3-56.24,3.34-10.28,2.58,10.16,2,20-.71,12.07-2.91,24.14-3.5,36.24Z" style="fill:#e29684; stroke-width:0px;"/><path d="m487.43,511.98c-.83,0-1.67,0-2.5,0l2-20c.45,6.51.62,13.45.5,20Z" style="fill:#c96c7b; stroke-width:0px;"/><path d="m486.93,491.98l-2,20c-2,.02-4-.01-6,0-7.82-6.74-.08.43-.75-8-1.58,6.61-8.18,2.58-8.25,3.25l6.5,4.75c-.5,0-1,0-1.5,0-8.44-5.28-10.09-12.61-5.25-11.5.59.14,2.62,3.31,3.5,3,1.8-.64-.76-4.64,2.5-4,.47.09,6.43,6.25,5.25-2.25-1.65-11.82-29.29.78-10.5,14.75-2.17,0-4.33,0-6.5,0-2.85-8.94-.68-22.09,11.25-20.5,11.02,1.47,6.63,20.74,10.25-2,2.28-.83,1.33.08,1.5,2.5Z" style="fill:#6a2b49; stroke-width:0px;"/><path d="m474.93,511.98c-1.5,0-3,0-4.5,0-18.79-13.96,8.85-26.57,10.5-14.75,1.18,8.5-4.78,2.34-5.25,2.25-3.26-.64-.7,3.36-2.5,4-.87.31-2.91-2.86-3.5-3-4.84-1.11-3.19,6.22,5.25,11.5Z" style="fill:#e29684; stroke-width:0px;"/><path d="m478.93,511.98c-.83,0-1.67,0-2.5,0l-6.5-4.75c.07-.67,6.67,3.36,8.25-3.25.67,8.43-7.07,1.26.75,8Z" style="fill:#e29684; stroke-width:0px;"/><path d="m397.44,397.5c3.61,7.09-.06,31.57,4,46.74-4.04,4.27-18,15.4-20,18.75-1.01-2.23.22-5.7.5-8,11.88-14.55,6.29-32.72,1.5-48.49-5.51-18.16-15.7-42-30-54.99.34-1.07,3,1.35,3.75,2,8.72,7.5,18.12,21.07,26.25,30.25,2.74,3.09,13.31,12.4,14,13.75Z" style="fill:#e29684; stroke-width:0px;"/><path d="m401.44,399.5c1.78,3.38,3.91,37.08,5.5,44.74-4.73,4.82-23.38,19.68-25,21.75-2.75-1.93-1.19-1.84-.5-3,2-3.35,15.96-14.48,20-18.75-4.06-15.18-.39-39.65-4-46.74,1.52-1.28,3.35.76,4,2Z" style="fill:#6a2b49; stroke-width:0px;"/><path d="m408.94,403c11.88,6.13,24.03,12.59,36.24,18,6.8,3.01,53.73,20.05,54.74,23.25-.16,4.01-7.08,6.53-8.5,10.5-1.7,11.63-4.15,23.14-6,34.74-3.62,22.74.77,3.47-10.25,2-11.93-1.59-14.09,11.56-11.25,20.5-2.17,0-4.33,0-6.5,0,1.3-26.6-4.05-52.77-10.25-78.49,3.77,25.94,5.27,52.25,4.25,78.49-26.16.05-52.33-.02-78.49,0l.75-6-2.25,6c-1.33,0-2.67,0-4,0,1.11-3.23,1.28-6.7,2-10l1.5,1.75-1-2.75c.35-1.33-.44-7.68,6-11,15.89,8.56,32.07,16.85,49.99,20.25.41-1.23-15.7-9.51-18-9.5,15.21-1.65,1.83-1.71-4.75-1.75-1.2-2.11,7.08-1.2,8-1.5,4.68-1.51-10.13-.62-12-1-1.19-.25-18.34-9.68-21.75-11,.27-.89.7-6.04,1.5-9.5.38.11.65-.53.75-.5.99.25,12.31,12.88,14.5,14.5,1.84.39,14.7-7.1,17.75-.75.42.88.61,6.64,1.5,4,.91-2.69-1.96-6.73-4.75-7.25-5.18-.97-12.53,3.48-14.5,3l-14.75-14.5c.47-1.99.53-4.21.5-6.25.79-.66,1.37-1.44,2-2.25,1.61-2.06,20.27-16.92,25-21.75-1.58-7.66-3.72-41.36-5.5-44.74,2.66.32,5.07,2.25,7.5,3.5Z" style="fill:#e29684; stroke-width:0px;"/><path d="m372.94,511.98c-.5,0-1,0-1.5,0l2.25-6-.75,6Z" style="fill:#845149; stroke-width:0px;"/><path d="m378.94,475.99c.2-.88.42-1.17.5-1.5l14.75,14.5c1.97.48,9.32-3.97,14.5-3,2.79.52,5.66,4.56,4.75,7.25-.89,2.64-1.08-3.12-1.5-4-3.05-6.35-15.91,1.14-17.75.75-2.18-1.62-13.5-14.25-14.5-14.5-.1-.03-.37.61-.75.5Z" style="fill:#783c3a; stroke-width:0px;"/><path d="m369.44,501.98c.31-1.4.49-.95.5-1l1,2.75-1.5-1.75Z" style="fill:#845149; stroke-width:0px;"/><path d="m374.69,497.98c9.07,2.6,18.21,5.83,25.75,11.75q-7.12-.12-14.25-.25v-1c12.68,1.36,17.89,2.48,4.5-4-5.12-2.48-11.14-3.43-16-6.5Z" style="fill:#591e29; stroke-width:0px;"/><path d="m375.94,489.98c0-1.64,1.05-3,1.5-4.5,3.4,1.32,20.55,10.75,21.75,11,1.87.38,16.67-.51,12,1-.92.3-9.2-.61-8,1.5,6.58.04,19.95.1,4.75,1.75,2.3-.01,18.41,8.27,18,9.5-17.92-3.4-34.11-11.69-49.99-20.25Z" style="fill:#6a2b49; stroke-width:0px;"/><path d="m408.19,502.98l8.25,2.75c-2.11.3-6.32-1.38-8.25-2.75Z" style="fill:#955e71; stroke-width:0px;"/><path d="m144.98,101.04c-9.73,30.39,7.3,48.16,9,59.99.36,2.48.71,5.86,0,8.25-3.12,10.44-6.92-16.78-9.5-20.5q3.25,18.37,6.5,36.74c-.03,1,.02,2,0,3-.03,1.59,1.25,9.31-1,6.25-1.17-1.59-11.16-30.98-12-37.49-1.35-10.47-.49-20.82,2-31-14.13,35.93,7.58,70.75,5.5,107.48-1.9-5.3-2.1-11.07-3.5-16.5-2.43-9.42-6.45-18.59-9-28-.31-1.16-3.35-16.04-2.5-8,.41,3.84,3.79,17.49,5,23.75-1.15.84-.31,3.8,0,6-1.26,24.93,4.08,31.87-6,2.5-14.1-36.73-14.08-83.36,15.5-112.48Z" style="fill:#f5e6b0; stroke-width:0px;"/><path d="m146.98,99.04c-4.63,23.32,6.26,35.26,10,46.99.47,1.48.75,3.15,1.5,4.5-.07,2.69-1.55,9.98-4.5,10.5-1.7-11.83-18.73-29.6-9-59.99,0-.86,1.93-1.87,2-2Z" style="fill:#3b1d1c; stroke-width:0px;"/><path d="m384.94,196.03c-1.51,12.91-5.57,25.52-6.75,38.49q6.87-18.75,13.75-37.49c-.72,3.08-1.78,5.97-2.5,9-1.47,6.23-4.08,12.26-5.5,18.5-.12.53,1.39,2.74-1,10.5-6.08-1.78-4.78,1.97-5,2.25-.49.62-3.44.58-.5-1-3.34-.84-.46-1.84-.5-2-1.18-4.82-6.1,6.22-4-.25,3.31-10.17,10.05-36.43,11.5-46.49l.5,8.5Z" style="fill:#1b1323; stroke-width:0px;"/><path d="m393.44,190.53c-.41,2.14-1,4.36-1.5,6.5q-6.87,18.75-13.75,37.49c1.18-12.98,5.24-25.58,6.75-38.49.04-.33-.04-.67,0-1,5.59-3.13,5.13.43,6.25,0,.98-.38.77-4.94,2.25-4.5Z" style="fill:#dfb46c; stroke-width:0px;"/><path d="m378.44,180.53c-3.63,8.33-9.02,15.85-10.5,25-2.91-.3-5.29-7.38-5.5-10,2.28-.85,3.25-4.8,4.5-7,4.73-8.31,11.18-16.21,15-25,5.51-.26-2.06,9.59-3.5,17Z" style="fill:#1b1323; stroke-width:0px;"/><path d="m383.44,174.03c-1.69,7.31-4.3,14.34-6.5,21.5-4.03,13.12-6.9,27.12-9,33.49h-1c-1.06-5.04,1.2-17.16,1-23.5,1.48-9.15,6.87-16.66,10.5-25,.79-1.82,2.21-3.6,3-5.5,1.2-1.08,1.9-.94,2-1Z" style="fill:#9b672a; stroke-width:0px;"/><path d="m385.94,173.53c-.58,4.68-.83,9.31-1.5,14-1.45,10.06-8.19,36.32-11.5,46.49-.02-8.66,1.31-17.06,3-25.5,2.35-11.71,7.35-23.03,8-34.99.1-.02.96-1.38,2,0Z" style="fill:#b99359; stroke-width:0px;"/><path d="m366.94,143.04c-.86,4.02-9.7,11.6-11.5,16-3.31-4.53-9.16-11.83-6.5-18.25.15-.37,1.15-.09,2-.75.53,3.23,3.45,9.04,4.75,12.5.79.2,8.99-11.54,9.75-13,.29.31,1.97,1.14,2,1.25.03.11-.41,1.85-.5,2.25Z" style="fill:#2a181f; stroke-width:0px;"/><path d="m367.94,144.04c-2.72,8.58-4.13,10.72-5,20.5-2.94,4.6-5.38-2.6-7.5-5.5,1.8-4.4,10.63-11.98,11.5-16l1,1Z" style="fill:#67401f; stroke-width:0px;"/><path d="m375.94,208.53c-1.52-3.84,4.83-13.71,1-13,2.2-7.15,4.81-14.19,6.5-21.5.03-.02-.2-.32.5-.5-.65,11.96-5.65,23.29-8,34.99Z" style="fill:#1b1323; stroke-width:0px;"/><path d="m367.44,180.53c-.38,3.18-2.83,7.04-.5,8-1.25,2.2-2.22,6.15-4.5,7-.44-5.48,2.56-12.25,4-17.5,2.2-.2,1.27.27,1,2.5Z" style="fill:#67401f; stroke-width:0px;"/><path d="m393.44,190.53c-1.48-.44-1.27,4.12-2.25,4.5-1.11.43-.66-3.13-6.25,0,.78-7.2,1.4-14.24,1-21.5-1.04-1.38-1.9-.02-2,0-.7.18-.47.48-.5.5-.1.06-.8-.08-2,1,4.56-10.97,10.02-31.85,8-43.24-1.1-6.21-.65,6.37-1.5,12-.69,4.55-4.11,15.41-6,19.75-3.82,8.79-10.26,16.68-15,25-2.33-.96.12-4.82.5-8,8.75-16.61,13.2-34.53,14-53.24h-1c-.68,15.06-6.88,29.82-13.5,43.24-1.18,2.4-2.98,4.52-3.5,7.25h-1c-.24-4.47.1-8.79.5-13.25.87-9.78,2.28-11.92,5-20.5,1.98-6.27,6.44-13.54,7-22.25,1.04-16.25-9.69-30-21-40.49,17,18.29,23.72,34.61,11.5,58.24-.75,1.46-8.96,13.2-9.75,13-1.3-3.46-4.22-9.26-4.75-12.5-.03-.16.02-.34,0-.5-.83-6.32,1.71-12.75,1-15.25-.64-2.23-2.93-2.32-3-2.5-.55-1.43,7.8-10.26,5-29.75-.41-2.88-1.33-5.74-2.25-8.5-.36,3.02,1.49,6.1,1.75,9,2.16,24.48-17.89,49.15-21.75,49.99-12.56,2.76-14.82-30.75-23.75-35.74,9.17,9.22,12.35,50.45,30.5,32.5-4.98,10.95.26,19.12,5,29,1.57,10.18,3.35,9.49,1,0-2.68-10.85-10.07-14.47-5.5-28.5.36-1.1,8.81-16.08,9.75-16.25,3.06-.56,1.83,5.84,1.75,7-17.69,28.97,5.85,34.24,7,39.24,1.1,4.79-5.05,2.16-8.5,7.5-9.39,14.54,19.26,20.25,3.25,23.75-13.72,3-24.25-20.46-54.49-15.5-22.5,3.69-22.89,25.25-23.75,27-3.23,6.58-16.13,2.46-18.5-3.25q-.12-78.61-.25-157.23c-1.88,41.72,1.65,97.74-.25,137.23-.82,17.02-.65,29.9-12.25,27.25-6.34-1.45-5.95-9.58-7.75-14-4.1-10.07-14.55-16.76-25.25-17.5-28.52-1.97-36.02,20.57-50.99,16-16.23-4.96,20.74-9.63-1.75-29.75,17.77-26.58,10.29-21.62,5-36.49-6.04-17-8.23-32.52,1-48.99,3.42-6.1,10.19-11.53,8.75-12.25-28.14,29.35-17.71,47.46-14.25,71.99l-.5.5c-3.74-11.74-14.63-23.67-10-46.99,31.91-60.75,146.02-73.43,203.22-26,18.14,15.04,35.39,39.85,41.24,62.74,4.91,19.18,5.72,35.41,2,54.74Z" style="fill:#f5e6b0; stroke-width:0px;"/><path d="m273.96,212.53c.13,1.05.74-.22,1,0-4.05,7.89-13.55,4.88-19.5.75l.5,30.75c-1.33-.65-1.4-1.16-2.5-1.5v-28.25c-5.48,6.27-11.83,3.49-17.25-1.25-1.83,1.49,5.15,29.03-18.75,39.99,1.42-2.76,6.73-4.23,11-9.75,7.15-9.26,6.96-19.36,7-30.5,0-.19,1-.82,1-1-.04-2.5-2.33-7.61-1.5-9.25,1.8,4.41,1.41,12.55,7.75,14,11.6,2.65,11.43-10.23,12.25-27.25,1.9-39.49-1.63-95.5.25-137.23q.12,78.61.25,157.23c2.36,5.7,15.26,9.83,18.5,3.25Z" style="fill:#0e1e1a; stroke-width:0px;"/><path d="m350.95,139.54c-2.84-.52-.75-5.57-.5-9,.08-1.16,1.31-7.55-1.75-7-.93.17-9.39,15.15-9.75,16.25-4.57,14.03,2.82,17.64,5.5,28.5,2.35,9.49.57,10.18-1,0-4.74-9.88-9.98-18.05-5-29-18.14,17.95-21.32-23.28-30.5-32.5,8.92,4.99,11.19,38.5,23.75,35.74,3.86-.85,23.91-25.51,21.75-49.99l.5-.5c2.8,19.48-5.55,28.32-5,29.75.07.18,2.36.26,3,2.5.71,2.5-1.82,8.93-1,15.25Z" style="fill:#241c13; stroke-width:0px;"/><path d="m367.94,144.04l-1-1c.09-.4.53-2.14.5-2.25-.03-.11-1.71-.94-2-1.25,12.22-23.63,5.5-39.95-11.5-58.24,11.31,10.49,22.04,24.25,21,40.49-.56,8.7-5.01,15.98-7,22.25Z" style="fill:#3b1d1c; stroke-width:0px;"/><path d="m367.44,180.53c.27-2.23,1.2-2.7-1-2.5,1.01-3.67,2.63-3.76.5-7.5,6.62-13.42,12.82-28.18,13.5-43.24h1c-.8,18.71-5.25,36.63-14,53.24Z" style="fill:#3b1d1c; stroke-width:0px;"/><path d="m177.97,138.04h.5c.37,1.23,2.45,8.33,3.25,8.5,7.64-6.92,12.89-12.07,18.25-21h.5c-12.59,23.76-32.73,30.6-32.74,49.49-1.97-13,4.93-18.66,13.25-27.25-1.16-3.22-2.14-6.44-3-9.75Z" style="fill:#0c372b; stroke-width:0px;"/><path d="m381.44,175.03c-.79,1.9-2.21,3.68-3,5.5,1.44-7.4,9.01-17.26,3.5-17,1.89-4.34,5.31-15.19,6-19.75.85-5.63.4-18.2,1.5-12,2.02,11.39-3.44,32.28-8,43.24Z" style="fill:#3b1d1c; stroke-width:0px;"/><path d="m298.2,176.53c4.93-.21,19.53,1.57,19.25,2.75-18.08-4.33-31.18,2.32-32.74,1.75-5.5-1.99,11.6-4.42,13.5-4.5Z" style="fill:#241004; stroke-width:0px;"/><path d="m204.72,176.53c12.18-1.49,43.06,6.76,9.5,1.5-10.66-1.06-32.43,3.9-9.5-1.5Z" style="fill:#241c13; stroke-width:0px;"/><path d="m178.47,138.04h-.5c-4.31-16.6-5.88-26.06,1.25-42.99-4.74,14.47-5.2,28.33-.75,42.99Z" style="fill:#463a11; stroke-width:0px;"/><path d="m384.94,195.03c-.04.33.04.67,0,1l-.5-8.5c.67-4.69.92-9.31,1.5-14,.4,7.26-.22,14.29-1,21.5Z" style="fill:#241004; stroke-width:0px;"/><path d="m353.95,92.05l-.5.5c-.26-2.89-2.11-5.97-1.75-9,.92,2.76,1.83,5.62,2.25,8.5Z" style="fill:#7a652f; stroke-width:0px;"/><path d="m200.47,125.54h-.5c4.11-6.86,4.85-8.22.5,0Z" style="fill:#968c53; stroke-width:0px;"/><path d="m158.48,150.54c-.75-1.35-1.03-3.02-1.5-4.5l.5-.5c.25,1.77,1.05,3.03,1,5Z" style="fill:#a38673; stroke-width:0px;"/><path d="m255.96,244.02c6.52,3.17,9.78,3.73,14,10.25,6.59,10.18,12.87,33.32-.25,40.74-15.66,8.86-14.03-17.81-14-26,4.78,42.95-32.52,31.56-19.25-7.75,6.03-17.88,15.95-14.69,17-18.75,1.1.34,1.17.85,2.5,1.5Z" style="fill:#0e0f20; stroke-width:0px;"/><path d="m234.96,202.53c-.83,1.63,1.46,6.75,1.5,9.25,0,.18-1,.81-1,1-.04,11.13.15,21.24-7,30.5-4.26,5.52-9.58,6.99-11,9.75-2.42,1.11-4.11,1.38-6.5,2,2.6-1.61,5.31-3.04,7.5-5.25,11.58-11.68,2.92-12.52-4.5-22,22.04.71-.71-6.01-7.75-6.75,2.01-9.44-.24-8.27-9.5-15.5q-10.37,18.37-20.75,36.74l10.75,8.25c11.29-27.69,8.63-12.26,3.75,5.5-21.53-4.44-26.75-25.91-21-44.74-12.97-9.41-7.49,3.41-14,18.5-5.26,12.2-18.57,19.74-24,8.75-.25-.51-.64-.85-.5-1.5-.67-7.79-.53-15.71-1.5-23.5,10.08,29.37,4.74,22.43,6-2.5.79,5.68,1.55,11.47,4,16.75-.66-7.71-2.53-15.18-4-22.75-1.21-6.25-4.59-19.9-5-23.75-.85-8.04,2.19,6.84,2.5,8,2.54,9.41,6.57,18.57,9,28,1.4,5.42,1.6,11.2,3.5,16.5,2.08-36.73-19.62-71.55-5.5-107.48-2.49,10.18-3.35,20.53-2,31,.84,6.51,10.83,35.91,12,37.49,2.25,3.06.97-4.66,1-6.25,3.23,2.21,3.46-7.77,6-12.75-7.48-.21-5.82,4.13-6,9.75q-3.25-18.37-6.5-36.74c2.58,3.72,6.38,30.94,9.5,20.5.71-2.39.36-5.77,0-8.25,2.95-.52,4.43-7.81,4.5-10.5.05-1.97-.75-3.23-1-5-3.47-24.53-13.89-42.64,14.25-71.99,1.45.72-5.33,6.15-8.75,12.25-9.23,16.47-7.04,31.99-1,48.99,5.29,14.87,12.77,9.91-5,36.49,22.49,20.12-14.48,24.79,1.75,29.75,14.98,4.58,22.47-17.97,50.99-16,10.69.74,21.14,7.42,25.25,17.5Z" style="fill:url(#e); stroke-width:0px;"/><path d="m210.97,255.02c-7.65,1.97-12.57,2.64-20.5,1,4.88-17.76,7.54-33.19-3.75-5.5l-10.75-8.25q10.37-18.37,20.75-36.74c9.26,7.23,11.51,6.05,9.5,15.5,7.04.74,29.79,7.46,7.75,6.75,7.42,9.48,16.08,10.32,4.5,22-2.19,2.21-4.9,3.64-7.5,5.25Z" style="fill:#6a2b49; stroke-width:0px;"/><path d="m335.95,271.02c2.28,1.3,2.64.73,1.5,3-10.28-.54-16.65.18-26.5,2l-3.5-1c14.62-3.23,21.04-8.25,28.5-4Z" style="fill:#1b1323; stroke-width:0px;"/><path d="m382.44,237.02l.5.5c-.27.72-.43,5.93-4,12.25-1.3,2.3-10.36,13.27-12.75,12.75-.74-.16-1.89-3-2.5-3-.83,0-6.16,8.08-12,11.5-.94-.27-2.33-12.25-7.5-18,5.58,12.78,12.84,25.41-8.25,18-7.46-4.25-13.87.77-28.5,4-1.72.38-4.43.46-6.25.5-14.68,20.67-.91,38.86-1.25,41.24-.11.75-5.58,5.61-6.5,5.75-.1.02-1.53-.39-2-.5.01-.57-.95-.99-1-1.25-.18-1.02-2.43-19.42-2.5-20.5-.41-6.73-.42-19.62,4-25,5.2-6.33,13.18-.49-.75-10.75-7.03,4.47-3.96,3.76-4,11q-2-2.25-4-4.5c-4.03,19.18,3.49,33.2,5.25,49.49.39,3.62,2.93,2.57-4.25,7.5-2.26-2.97-6.14-2.4-7-3-2.33-1.63-22.34-50.18-2.25-.25-6.1,8.92-2.98-1.62-12.25.25-1.51.3-3.57,2.35-4,4-5.86-4.75-3.22-2.98-3.25-7.75-.04-7.46.23-15.04.5-22.5.01-.34,3.23-2.3-.75-5.75-.82,5.32-.57,29.74-1.75,32.25-.45.96-4.48,2.77-4.75,2.75-.74-.05-6.53-6.1-11.25.25-4.26,5.73.62,14.04-4.75,19.75-5.62-7.07.15,1.84-.5,5.5-3.78-7.97-5.48-4.17-5.75-4.75-3.54-10.11,7.43-2.69,6.5-6.5-.8-3.28-9.78,4.14-8-12,13.56.21,13.04-17.59,18.5-26.5-4.26,4.63-8.89,22.44-13.75,24.25-5.98,2.22-4.01-1.54-4.25-1.75-.95-.82-4.7-1.78-5-3-.32-1.3,3.88-15.34,5-26.25,1.27-12.34,1.79-14.26-3.5-26.25-.73-.8-10.73-1.33-12.5-1.25v-.5c4.39-.95,8.35-4.22,11.25-7.5-32.25,10.58-48.65-5.28-51.24-6-3.37-.94-8.34,6.45-10,9.25l10-9.25c6.23,9.91,25.96,14.47,36.49,14,.81.27,1.69.33,2.5.5,11.56,2.43,14.81,21.46,14.5,31.5-.21,6.86-2.47,13.62-4,20.25-.91.81-8.67-4.21-7.5-5.75,7.46-13.05,4.63-24.05,2.75-37.99-3.31,3.59-6.74-1.82-12-4-3-1.24-12.19-4.24-15-4.5-16.6-1.54-17.46,10.57-31-.5-1.99-1.62-6.47-7.92-7-8-6.9,5.18-15.56-10.28-17.25-15.5-.64-1.96-.77-4.06-1.5-6l1-1c5.43,10.99,18.74,3.45,24-8.75,6.51-15.09,1.03-27.91,14-18.5-5.76,18.84-.53,40.3,21,44.74,7.92,1.64,12.85.97,20.5-1,2.39-.62,4.08-.89,6.5-2,23.9-10.96,16.92-38.5,18.75-39.99,5.42,4.73,11.77,7.52,17.25,1.25v28.25c-1.05,4.06-10.96.87-17,18.75-13.27,39.31,24.03,50.7,19.25,7.75-.03,8.18-1.66,34.86,14,26,13.12-7.43,6.84-30.57.25-40.74-4.22-6.52-7.48-7.08-14-10.25l-.5-30.75c5.94,4.13,15.45,7.14,19.5-.75.11.09.81-.22,1,.25.71,1.71-3.94,15.56,5,29,18.27,27.47,75.83,16.77,62.99-32l7.25-2.75c2.53.87,4,26.65,14.5,33.99,6.2,4.33,13.82,3.55,16.75-4Z" style="fill:#f5e6b0; stroke-width:0px;"/><path d="m291.46,322.01c-1.32-.31-1.95-.7-3-1.5-1.76-16.29-9.28-30.32-5.25-49.49q2,2.25,4,4.5c.04-7.24-3.03-6.52,4-11,13.93,10.26,5.95,4.42.75,10.75-4.42,5.38-4.41,18.27-4,25,.07,1.07,2.32,19.48,2.5,20.5.05.26,1.01.68,1,1.25Z" style="fill:#3b1d1c; stroke-width:0px;"/><path d="m209.47,269.52c1.77-.08,11.77.45,12.5,1.25,5.29,11.98,4.77,13.91,3.5,26.25-2.57.11-.01,4.45-2.5,4.5.31-10.04-2.94-29.07-14.5-31.5-.04-.66.45-.47,1-.5Z" style="fill:#3b1d1c; stroke-width:0px;"/><path d="m340.7,258.52c1.73.67-12.88,8.61-14,9-9.8,3.4-27.03,3.27-34.24-5.25l.25-.75c12.89,5.38,36.09,4.48,47.99-3Z" style="fill:#1b1323; stroke-width:0px;"/><path d="m245.21,231.02c-.41,6.96-3.8,14.48-8,20q4-10,8-20Z" style="fill:#241c13; stroke-width:0px;"/><path d="m270.71,231.52l3,20.5-2.25-7.75q-.37-6.37-.75-12.75Z" style="fill:#463a11; stroke-width:0px;"/><path d="m169.47,255.52l-10,9.25c1.66-2.8,6.63-10.19,10-9.25Z" style="fill:#423f1c; stroke-width:0px;"/><path d="m209.47,269.02c-.34.07-3.32.49-3.5.5-10.54.47-30.27-4.09-36.49-14,2.59.72,18.99,16.58,51.24,6-2.9,3.28-6.85,6.55-11.25,7.5Z" style="fill:#2a181f; stroke-width:0px;"/><path d="m209.47,269.02v.5c-.55.03-1.04-.16-1,.5-.81-.17-1.68-.23-2.5-.5.18,0,3.16-.43,3.5-.5Z" style="fill:#816653; stroke-width:0px;"/><path d="m150.98,188.53c.02-1-.03-2,0-3,.18-5.62-1.48-9.96,6-9.75-2.54,4.98-2.76,14.96-6,12.75Z" style="fill:#391520; stroke-width:0px;"/><path d="m135.48,211.03c-.31-2.2-1.15-5.16,0-6,1.47,7.56,3.34,15.04,4,22.75-2.45-5.27-3.21-11.07-4-16.75Z" style="fill:#d6a871; stroke-width:0px;"/><path d="m350.95,139.54c.02.16-.03.34,0,.5-.85.66-1.85.38-2,.75-2.66,6.42,3.19,13.72,6.5,18.25,2.12,2.9,4.56,10.1,7.5,5.5-.4,4.46-.74,8.77-.5,13.25h1c.52-2.73,2.32-4.85,3.5-7.25,2.13,3.74.51,3.83-.5,7.5-1.44,5.24-4.44,12.02-4,17.5.21,2.62,2.59,9.7,5.5,10,.2,6.34-2.06,18.45-1,23.5.1.45.58,1,.75,1.5.49-.12.11-1.09.25-1.5,2.1-6.38,4.97-20.37,9-33.49,3.83-.72-2.52,9.15-1,13-1.69,8.44-3.02,16.83-3,25.5-2.1,6.47,2.82-4.57,4,.25.04.16-2.84,1.16.5,2-2.94,1.58,0,1.62.5,1,.22-.28-1.08-4.03,5-2.25-.08.26-.02.75-.5,2-2.92,7.55-10.55,8.33-16.75,4-10.5-7.34-11.97-33.13-14.5-33.99l-7.25,2.75c12.84,48.76-44.72,59.47-62.99,32-8.94-13.44-4.29-27.29-5-29-.19-.47-.89-.16-1-.25-.26-.22-.87,1.05-1,0,.86-1.75,1.24-23.31,23.75-27,30.24-4.96,40.77,18.49,54.49,15.5,16.01-3.5-12.64-9.2-3.25-23.75,3.45-5.33,9.6-2.71,8.5-7.5-1.15-5-24.69-10.28-7-39.24-.25,3.43-2.34,8.48.5,9Z" style="fill:#0e0f20; stroke-width:0px;"/><path d="m328.95,247.02c-1.78-8.91-8.95-9.97-17-9.5-.99-1.6-4.44-8.03-5.25-8.5-2.31-.55-16.75-3.3-16.75-4.75,8.66-10.06,27.45-35.66,25-13.5,8.86,6.28,23.28,17.17,19,29.5-.89,2.56-3.36,4.77-5,6.75Z" style="fill:#500a33; stroke-width:0px;"/><path d="m328.95,247.02c-10.93,13.2-7.42,5.95-17-9.5,8.04-.47,15.21.59,17,9.5Z" style="fill:#6e5e61; stroke-width:0px;"/><path d="m299.7,239.02c.38-.18,6.46,3.96,7,4.5,8.48,8.58,2.81,21.9-7-4.5Z" style="fill:#aebb8c; stroke-width:0px;"/><path d="m290.21,232.52c2.74-.04,3.62,7.43-1,5.5-2.43-1.02-1.1-5.47,1-5.5Z" style="fill:#710c43; stroke-width:0px;"/><path d="m367.94,229.02c-.14.41.24,1.38-.25,1.5-.17-.5-.65-1.04-.75-1.5h1Z" style="fill:#513635; stroke-width:0px;"/><path d="m293.95,365c-1.78,1.09-3.34,2.88-5,2.5.35-4.89,1.6-9.53,3.5-14,2.05,6.62,2.78,2.33,5.5-1,9.8-12.03,15.78-12.43,21.5-21.75,7.31-11.92,9.12-29.15,11.25-42.74,1.4,16.79.67,35.02-4.25,51.24-1.23,4.07-6.27,13.36-3,9,4.35-5.8,9.21-27.98,11.25-36.24-.8,12.58,1.49,33.3-12,39.99-5.03,2.5-8.23,1.64-12,3-3.38,1.22-12.74,7.54-16.75,10Z" style="fill:#f5e6b0; stroke-width:0px;"/><path d="m337.45,274.02c4.33.53-4.28,1-8.25,2-3.6.91-7.19,2.42-10.75,3.5-3.9-1.45-7.83-2.38-12-2-1.91-1.98-2.22-.26,4.5-1.5,9.84-1.82,16.21-2.54,26.5-2Z" style="fill:#ad803b; stroke-width:0px;"/><path d="m382.94,245.52c-.04.16.04.35,0,.5-2.38,8.67-21.98,29.58-30.75,32-3.39.93-10.24.61-10.75,1.75-1.36,12.32-.71,58.62-1.5,62.99-.05.26-1.01.68-1,1.25-.49.01-.55.54-1,.5l-1-.25c-1.19,3.96-3.6,8.67-6,12-7.92,11.02-52.06,40-65.99,52.24l-1,2c-.59-.16-2.37-.98-2.5-1,8.59-8.44,19.07-14.59,26.5-24.25-2.53-2.77,9.63-15.7,12.5-22,.29-1.48-5.73,3.01-6,3.25l-.5-1.5c4-2.46,13.37-8.78,16.75-10,3.76-1.36,6.97-.5,12-3,13.49-6.7,11.2-27.42,12-39.99-2.04,8.26-6.9,30.45-11.25,36.24-3.28,4.36,1.77-4.93,3-9,4.92-16.22,5.65-34.45,4.25-51.24-2.13,13.6-3.93,30.83-11.25,42.74-5.72,9.32-11.69,9.71-21.5,21.75-1.09-2.17,9.06-22.69,6.25-22.5-2.58,8.84-9.8,18.9-11.75,23.5-1.9,4.47-3.15,9.11-3.5,14-.29-.07-.68.03-1,0l1.5-21.75c1.77-1.15,4.46-5.54,4.5-7.25.04-1.79-1.09-.4-1.5-1.5,1.89-1.28,9.09-23.99,1.5-9.5-1.34-1.11,1.41-2.65-.5-5,.92-.14,6.39-5,6.5-5.75.34-2.38-13.43-20.57,1.25-41.24,1.82-.04,4.53-.12,6.25-.5l3.5,1c-6.72,1.24-6.41-.48-4.5,1.5,6.19,6.42,5.38,4.02,12,2,3.56-1.08,7.15-2.59,10.75-3.5,3.97-1,12.58-1.47,8.25-2,1.14-2.27.78-1.7-1.5-3,21.08,7.42,13.83-5.21,8.25-18,5.17,5.75,6.55,17.73,7.5,18,5.84-3.42,11.17-11.5,12-11.5.6,0,1.76,2.84,2.5,3,2.39.53,11.45-10.44,12.75-12.75,3.57-6.32,3.73-11.53,4-12.25,1.78-4.77.33,6.66,0,8Z" style="fill:#0e0f20; stroke-width:0px;"/><path d="m303.2,372c.96.52-1.19,3.02-1.75,3.75-8.53,11.14-10.72,7.01,1.75-3.75Z" style="fill:#6c2c23; stroke-width:0px;"/><path d="m316.7,288.02c.4,9.37,1.95,33.03-9.5,35.49-1.76-1.41,4.62-15,.75-25.75l8.75-9.75Z" style="fill:#594253; stroke-width:0px;"/><path d="m303.45,295.51c-1.17,7.54,7.19,16.73.75,18-4.63.91-5.46-15.19-3.25-25.5l2.5,7.5Z" style="fill:#f0d383; stroke-width:0px;"/><path d="m303.45,295.51l-2.5-7.5c.23-1.06,1.28-6.94,2.25-7,7.65,7.8,1.36,7.32.25,14.5Z" style="fill:#67401f; stroke-width:0px;"/><path d="m318.45,279.52c-6.62,2.02-5.81,4.42-12-2,4.17-.39,8.1.55,12,2Z" style="fill:#67401f; stroke-width:0px;"/><path d="m297.95,352.51c-2.71,3.33-3.45,7.62-5.5,1,1.95-4.59,9.17-14.66,11.75-23.5,2.82-.19-7.34,20.33-6.25,22.5Z" style="fill:#dfb46c; stroke-width:0px;"/><path d="m302.7,316.01c-.53,6.78-.88,14.12-5.5,19.5q2.75-9.75,5.5-19.5Z" style="fill:#dfb46c; stroke-width:0px;"/><path d="m300.2,333.51c1.11.48-4.64,11.87-5.5,13,.06-4.92,1.62-9.87,5.5-13Z" style="fill:#dfb46c; stroke-width:0px;"/><path d="m292.71,347.01c.13,6.78-2.68,7.43-.25.25l.25-.25Z" style="fill:#a5a698; stroke-width:0px;"/><path d="m218.47,348.01c1.96-.29.55.75,1.5,2.75,4.07,8.54,4.44,7.5,2.5-1.5-.31-1.46-3.03-8.05-3-8.5.03-.42.96-.19,1-.25,3.1.38,2.25,6.49,6,13.5q2.5,10.87,5,21.75c-3.55-2.09-7.16-4.35-10.5-6.75-7.98-5.74-23.8-21.77-25.25-13-4.75-6.33-10.72-4.26-14.25-12.25-3.24-7.33-3.14-23.41-2.75-31.75,1.4,7.07,2.38,14.41,4.75,21.25.51,1.47,6.76,15.57,6.5,12-.09-1.3-4.21-13.57-5-17.5-2.23-11.11-4.56-30.69-4-41.74h.5c2,12.8,5.53,34.33,12,45.24,4.58,7.73,12.55,12.16,17.25,19.75-.26-1.78-5.57-14.36-2.75-12.75,11.38,16.65,9.06,31.73,10.5,9.75Z" style="fill:#f5e6b0; stroke-width:0px;"/><path d="m209.97,291.51c2.1,7.83,2.12,15.79-.5,23.5-1.61-.9-2.64-1.82-4-3-.69-3.45,4.19-14.28,1.5-21,.15-2.3,1.81-.32,3,.5Z" style="fill:#f0d383; stroke-width:0px;"/><path d="m211.47,316.01c-.83-1.41-1.14-.52-2-1,2.62-7.7,2.6-15.66.5-23.5-3.61-13.47-18.61-19.99-31.75-17.5-6.93,1.31,4.44,2.08,7.5,3,3.29.99,11.91,4.98,14.5,7,.77.61,6.57,6.55,6.75,7,2.69,6.71-2.19,17.54-1.5,21,.28,1.41,1.96,2.42,2,3.25.02.37-2.74,1.85-.5,1.75,2.06,5.83,1.19,16.27,4.5,16.25-.49-2.55-.51-5.2-1-7.75,1.49-.66-1.43-6.78,1.5-5-.4,4.68.05,13.82,4.5,16.5-.46.08-1.02,0-1.5,0-.56,0-1.26-1.39-1.5.25-.05.37,1.67,6.13,2,7.25v.5c-1.08.58.69,7.38,1,8,.21.42.37.73.75,1,.47-.31.17-.94.25-1.5.15-1-.03-2.38,0-3.5.77,0,.19-.88,1-1-1.44,21.98.88,6.9-10.5-9.75-2.82-1.61,2.48,10.96,2.75,12.75-4.7-7.59-12.67-12.02-17.25-19.75-6.47-10.92-10-32.45-12-45.24-.13-.82.28-1.89-.25-2.5-.42,0-.2,1.52-.25,2.5-.56,11.06,1.77,30.64,4,41.74.79,3.93,4.91,16.19,5,17.5.26,3.57-5.99-10.53-6.5-12-2.37-6.84-3.35-14.18-4.75-21.25-.39,8.34-.49,24.41,2.75,31.75,3.53,7.98,9.5,5.92,14.25,12.25,1.44-8.77,17.26,7.26,25.25,13l-1,.5c-.75-.66-1.63-1.19-2.25-2-1.25.42,12.42,21.17,16.75,18.5.62.78-1.89,1.86,4,2.5-4.95,1.21-10.9-2.48-9.5,1.25,1.2,3.19,16.68,15.43,20,19.25-.1,0,.29.76-2,.5-2.49-.88-17.3-14.93-21.25-18-17.86-13.84-40.13-24.54-49.99-45.99-7.1,28.38-1.77,42.45,8.75,67.49-4.64-5.51-11.06-25.92-12-32.74-1.68-12.27.44-24.51,2-36.74.81-21.62-.66-43.25-3-64.74-1.13-.94-12.53,1.49-21.25-5.75-2.28-1.89-21.43-23.58-18.25-27.5,1.69,5.22,10.34,20.68,17.25,15.5.53.08,5.01,6.38,7,8,13.53,11.07,14.39-1.04,31,.5,2.81.26,12,3.26,15,4.5,5.26,2.18,8.69,7.59,12,4,1.88,13.95,4.71,24.94-2.75,37.99Z" style="fill:#0e0f20; stroke-width:0px;"/><path d="m210.72,370c1.82-.07,11.17,10.86,12.25,12.75,4.94,8.67-16.31-8.75-15.5-11,.06-.17,3.07-1.74,3.25-1.75Z" style="fill:#522d1d; stroke-width:0px;"/><path d="m219.97,369.5c2.02,1.78,12.12,13.47,14.5,16.5-4.32,2.67-18-18.08-16.75-18.5.62.81,1.5,1.34,2.25,2Z" style="fill:#562420; stroke-width:0px;"/><path d="m195.22,288.52c1.64,1.8,5.96,5.64,6.75,7.25,2.17,4.42,1.33,21.74,2.25,28.25-10.72-3.36-6.27-23.5-9-35.49Z" style="fill:#594253; stroke-width:0px;"/><path d="m209.97,291.51c-1.19-.82-2.85-2.8-3-.5-.18-.45-5.97-6.39-6.75-7-2.58-2.02-11.21-6.01-14.5-7-3.06-.92-14.43-1.69-7.5-3,13.13-2.49,28.14,4.03,31.75,17.5Z" style="fill:#754f2e; stroke-width:0px;"/><path d="m181.47,286.02h-.5c.05-.98-.17-2.5.25-2.5.53.61.12,1.68.25,2.5Z" style="fill:#554a53; stroke-width:0px;"/><path d="m214.97,337.01c3.27,3.54,2.63,7.37,2.5,12-.03,1.12.15,2.5,0,3.5l-1,.5c-.31-.62-2.08-7.42-1-8,1.78,2.98.19.15,0-.5-.33-1.12-2.05-6.88-2-7.25.24-1.64.94-.25,1.5-.25Z" style="fill:#dfb46c; stroke-width:0px;"/><path d="m210.47,325.51c.49,2.55.51,5.2,1,7.75-3.31.02-2.44-10.41-4.5-16.25,2.14,2.13,2.94,5.6,3.5,8.5Z" style="fill:#d7b788; stroke-width:0px;"/><path d="m208.22,332.51c4.25,1.6,4.19,5.87,4,10-1.37-1.16-5.54-8.75-4-10Z" style="fill:#dfb46c; stroke-width:0px;"/><path d="m215.47,345.01v-.5c.19.65,1.78,3.48,0,.5Z" style="fill:#755a2e; stroke-width:0px;"/><path d="m216.47,353.01l1-.5c-.08.56.22,1.19-.25,1.5-.38-.27-.54-.58-.75-1Z" style="fill:#88898b; stroke-width:0px;"/><path d="m293.95,338.51c-.04,1.71-2.73,6.1-4.5,7.25l-1.5,21.75c.74,1.17-3.65,4.07-4.5,4.5-4.95,2.43-3.67-6.16-3-9.25.74-3.43,6.01-11.95,8-16,.38-.77.03-6.85,5.5-8.25Z" style="fill:#f5e6b0; stroke-width:0px;"/><path d="m292.46,337.01c-.08.06-.84-.27-1.75,1-.18-3.58,1.56-7.27,3.25-10.5,7.59-14.5.39,8.22-1.5,9.5Z" style="fill:#dfb46c; stroke-width:0px;"/><path d="m216.47,331.51c.32,1.91.87,3.85,1,5.75-.23.62-.54-.33-1-.25-4.45-2.68-4.89-11.82-4.5-16.5,3.12,1.9,3.94,7.67,4.5,11Z" style="fill:#dfb46c; stroke-width:0px;"/><path d="m257.96,375c-.03.61-.14,4.49.25,4.5.14-1.35.55-2.69.75-4,.87-5.79,2.71-22.67,8-22.5-.42,5.2,1.38,19.55,1.5,26.5-.15.07.07,1.66-2.25,2.5-6.59,2.37-24.1,1.92-25.25-1.25-.17-2.01.24-4.28,0-6.25-.84-6.92-1.25-13.88-2.5-20.75.35-1.41,4.31,2.52,3-1.5-.67-2.04-5.76.95-3.75-6.75,5.18,3.07,4.51,12.35,5.5,12.5,5.62-7.03-9.23-14.77,3.75-9.75,0,10.21.82,20.6,3.5,30.5l-3-24c1.7-8.05.77-16.3,1-24.5,11.48-8.66,8.87,8.15,10,15l-8.25.25-.75,6.25c.87,1.81,1.6-3.43,2.25-3.75,1.78-.88,9.12-.53,8.5,3.5.27-4.24,2.65-4.01,6.75-4.25-1.2,2.5-3.63,2.09-5.5,4.5-3.07,3.94-3.24,17.79-3.5,23.25Z" style="fill:#f5e6b0; stroke-width:0px;"/><path d="m278.46,366.5c-.26,2.76-.15,4.58.5,7.25-7.62,6.88-8.98,5-9.5,5.25-1.54-10.77-.87-21.64-1-32.5.92-2.17,5-3.81,6-1.25.26.66-5.08,6.87-2.25,13.25,8.66-7.27-4.34,10.46-2,11,12.72-21.65,10.61-28.43,8.25-3Z" style="fill:#f5e6b0; stroke-width:0px;"/><path d="m238.96,370.5c.18,3.05.88,6.13.5,9.25l-.75.75c-1.28-1.22-5.15-2.92-5.75-3.75-.98-1.36-4.67-20.81-4.5-24.25l4.75,5.5,2.25-9.25c.14-.5.92.24,1,.5.33,1.02,2.31,18.12,2.5,21.25Z" style="fill:#f5e6b0; stroke-width:0px;"/><path d="m220.97,339.01c-2.92-1.5-.91-9.26-1.5-12.5,5.54,1.47,2.43,8.32,4,12.75-.91.64-1.69.17-2.5-.25Z" style="fill:#dfb46c; stroke-width:0px;"/><path d="m269.46,379c-.34.17-.65.34-1,.5-.12-6.94-1.92-21.3-1.5-26.5,0-.05.95.17,1-.25.26-2.19-.44-4.03.5-6.25.13,10.86-.54,21.72,1,32.5Z" style="fill:#0e1e1a; stroke-width:0px;"/><path d="m258.96,375.5c-.2,1.31-.61,2.65-.75,4-.39,0-.28-3.89-.25-4.5l1,.5Z" style="fill:#605b3c; stroke-width:0px;"/><path d="m288.46,320.51c1.05.8,1.68,1.19,3,1.5.47.11,1.9.52,2,.5,1.91,2.35-.84,3.89.5,5-1.69,3.22-3.43,6.91-3.25,10.5.91-1.27,1.67-.94,1.75-1,.41,1.1,1.54-.29,1.5,1.5-5.47,1.4-5.12,7.48-5.5,8.25-1.99,4.05-7.26,12.56-8,16-.67,3.09-1.95,11.67,3,9.25-5.27,2.68-4.56-2.93-4-6.75l-1,1.25c2.36-25.43,4.47-18.65-8.25,3-2.34-.54,10.66-18.27,2-11-2.83-6.38,2.51-12.59,2.25-13.25-1-2.56-5.08-.92-6,1.25-.94,2.22-.24,4.06-.5,6.25-.05.42-1,.2-1,.25-5.29-.17-7.13,16.71-8,22.5l-1-.5c.26-5.46.43-19.3,3.5-23.25,1.87-2.41,4.3-2,5.5-4.5-4.1.24-6.48,0-6.75,4.25.62-4.03-6.72-4.38-8.5-3.5-.65.32-1.38,5.56-2.25,3.75l.75-6.25,8.25-.25c-1.13-6.85,1.48-23.66-10-15-.23,8.19.7,16.44-1,24.5l3,24c-2.68-9.9-3.5-20.29-3.5-30.5-12.98-5.02,1.87,2.72-3.75,9.75-.99-.15-.31-9.43-5.5-12.5-2.01,7.7,3.08,4.71,3.75,6.75,1.31,4.02-2.65.09-3,1.5,1.25,6.87,1.66,13.83,2.5,20.75-2.27.16.27-4.16-2-4-.18-3.12-2.17-20.23-2.5-21.25-.08-.26-.86-1-1-.5l-2.25,9.25-4.75-5.5c-1.14-1.56-1.3.97-2,1.5-3.75-7.01-2.89-13.11-6-13.5.04-.07-.07-.75.5-1.5.81.42,1.59.89,2.5.25-1.57-4.42,1.54-11.28-4-12.75-.36-.1-1.03,0-1.5,0-.47-2.3-.42-1.66-1-.5-1.48,2.96,4.4,1.18-.5,5.5-.56-3.33-1.38-9.1-4.5-11-2.93-1.78-.01,4.34-1.5,5-.56-2.9-1.36-6.36-3.5-8.5-2.24.11.52-1.38.5-1.75-.04-.83-1.72-1.84-2-3.25,1.35,1.18,2.39,2.1,4,3,.86.48,1.17-.41,2,1-1.17,1.54,6.59,6.55,7.5,5.75,1.52-6.63,3.79-13.38,4-20.25,2.49-.05-.07-4.39,2.5-4.5-1.12,10.9-5.32,24.95-5,26.25.3,1.22,4.05,2.18,5,3,.24.21-1.73,3.97,4.25,1.75,4.86-1.8,9.49-19.62,13.75-24.25-5.46,8.9-4.93,26.7-18.5,26.5-1.78,16.14,7.2,8.72,8,12,.93,3.81-10.04-3.61-6.5,6.5.26.58,1.96-3.22,5.75,4.75.65-3.66-5.12-12.57.5-5.5,5.37-5.7.49-14.02,4.75-19.75,4.72-6.35,10.5-.3,11.25-.25.27.02,4.3-1.79,4.75-2.75,1.18-2.5.93-26.92,1.75-32.25,3.98,3.45.76,5.41.75,5.75-.27,7.46-.54,15.04-.5,22.5.03,4.77-2.61,2.99,3.25,7.75.42-1.65,2.49-3.7,4-4,9.27-1.87,6.15,8.67,12.25-.25-20.1-49.93-.08-1.38,2.25.25.86.6,4.74.03,7,3,7.18-4.93,4.64-3.88,4.25-7.5Z" style="fill:#0f272d; stroke-width:0px;"/><path d="m263.21,327.01c9.52-2.1,11.14,20.65-2.5,18,.53-4.46-3.61-16.65,2.5-18Z" style="fill:#f5e6b0; stroke-width:0px;"/><path d="m241.21,327.51c8.67-2.06,5.69,13.03,5,18l-8.25-2.25c.39-3.46-1.59-14.6,3.25-15.75Z" style="fill:#f5e6b0; stroke-width:0px;"/><path d="m274.71,327.01c.31-.05,5.63,2.32,5.75,2.75-3.09,8.09,1.8,16.74-8.5,12,1.13-2.4-.08-14.31,2.75-14.75Z" style="fill:#f5e6b0; stroke-width:0px;"/><path d="m291.21,325.01c4.1-.76-1.16,2.54-1.25,2.75-1,2.34-.06,16.33-5.75,13.25-1.85-1,.79-7.82.25-9.75.26-.74,6.3-6.17,6.75-6.25Z" style="fill:#f0d383; stroke-width:0px;"/><path d="m281.46,358.5l-.5-.5c.54-5.33.89-13.17,7-15.25-2.18,4.23-4.36,11.97-6.5,15.75Z" style="fill:#f5ca83; stroke-width:0px;"/><path d="m281.21,341.01c2.14-.33-.06,5.02-.25,5.25-.89,1.05-5.59.81-6.75,7.25-1.74-5.69,3.17-7.23,4.75-8.75.55-.53,1.64-3.66,2.25-3.75Z" style="fill:#ebd4a2; stroke-width:0px;"/><path d="m282.71,330.01c1.56,1.35-.41,6.32-1,9l1-9Z" style="fill:#e0dcc8; stroke-width:0px;"/><path d="m281.46,358.5c-1.55,2.73-.64.91-.5-.5l.5.5Z" style="fill:#8c928f; stroke-width:0px;"/><path d="m217.97,326.51c.47,0,1.13-.1,1.5,0,.59,3.24-1.42,11,1.5,12.5-.57.75-.46,1.43-.5,1.5-.04.06-.97-.17-1,.25-.03.45,2.69,7.04,3,8.5,1.94,9,1.57,10.04-2.5,1.5-.95-2,.46-3.04-1.5-2.75-.81.12-.23,1-1,1,.13-4.63.77-8.46-2.5-12,.48,0,1.04.08,1.5,0,.46-.08.76.87,1,.25-.13-1.9-.68-3.84-1-5.75,4.9-4.32-.98-2.54.5-5.5.88,2.99.86.5,1,.5Z" style="fill:#1b2934; stroke-width:0px;"/><path d="m217.97,326.51c-.14,0-.12,2.49-1-.5.58-1.16.53-1.8,1,.5Z" style="fill:#bac2b0; stroke-width:0px;"/><path d="m219.72,346.01c3.71,6.21,2.25,7.71-.25.25l.25-.25Z" style="fill:#6d7570; stroke-width:0px;"/></g></svg>