<?xml version="1.0" encoding="UTF-8"?><svg id="b" xmlns="http://www.w3.org/2000/svg" xmlns:xlink="http://www.w3.org/1999/xlink" viewBox="0 0 1098.86 628.84"><defs><linearGradient id="e" x1="539.14" y1="300.33" x2="936.91" y2="316.87" gradientTransform="translate(-1155.14 6.64) scale(2.42 1)" gradientUnits="userSpaceOnUse"><stop offset=".39" stop-color="#7b6b6b"/><stop offset="1" stop-color="#92526c"/></linearGradient><linearGradient id="f" x1="704.69" y1="306.64" x2="1102.45" y2="323.18" gradientTransform="matrix(1,0,0,1,0,0)" xlink:href="#e"/><linearGradient id="g" x1="414.26" y1="254.23" x2="404.41" y2="336.26" gradientUnits="userSpaceOnUse"><stop offset="0" stop-color="#580d3e"/><stop offset="1" stop-color="#941f63"/></linearGradient></defs><g id="c"><g id="d"><rect y="0" width="1098.86" height="628.84" style="fill:url(#e); stroke-width:0px;"/><path d="m643.84.19c151.66.07,303.32-.05,454.98,0-.07,108.74.09,217.48,0,326.21-24.89,40.25-2.24,13.46-31.12,2.68,3.79-.53,6.55-6.22,3.22-9.66-3.8-3.92-9.18,14.7-15.02-6.44,17.37-15.68.5-23.25,0-24.68-1.05-2.98,2.29-10.88-3.22-15.02-.46-3.17,6.6-5.39,3.22-14.49,3.74-10.08-.26-12.5,4.29-19.85-15.6-.24-6.24-10.77-13.95-9.12,7.48-22.8-33.51-28.12-22.53,1.07v1.07c-13.57,2.73-1.09,12.88,2.68,3.22,2.83.38,4.1,2.81,6.97,3.22-1.09,3.36-.42,2.83,0,4.29-11.61,2.8-11.73,15-2.15,20.39v1.07c-22.09.55-13.8,8.01-13.95,9.12-.09.67-8.78,5.47-5.37,10.73,1.1,1.69,6.25,2.43,8.58,5.37.6.75,3.81,9.71,4.29,10.19-19.75,8.84-.64,14.17,2.15,16.1,2.57,1.77,11.14,8.28,11.8,8.58-6.75.49-2.59,8.91-8.58,12.88-11.4,7.54-3.41-13.95-10.19-13.95-1.82,0-2.93,5.25-3.22,5.37-.39.16-4.06-4.91-6.44-5.37-12.62-2.44-13.8,14.29,6.97,22,.53.72-5.17,6.37-2.15,17.17,2.52,9.02,10.35,8.13,11.8,14.49-4.9,5.26-7.49,14.05-3.22,20.39-16.7-2.78-13.55,9.23.54,9.66.5.02,4.98-4.02,8.05,1.07-18.4,8.46-7.11,20.56-5.9,31.12,11.98,2.47-1.57-9.99,8.05-2.15,11.85,9.67,9.22-1.69,19.32,4.29-.4.45.67,3.44-.54,4.29-14.21-2.22-8.32,1.22-11.27,6.44-.18.31.27,1.43-2.15,1.07-.5-1.28-7.76-8.55-11.27-4.29-3.41,4.13,1.92,11.75,1.61,12.34-12.75-2.53-12.42,15.68,2.15,6.44-2.06-5.2,1.01-8.5,6.44-8.05l7.51,10.73c-1.45,3.28-2.84,4.26-3.22,5.37-1.68,4.93-1.67,10.6,0,15.56-6.19-6.26-14.31,5.46-8.05,8.05,8.89,3.67,11.11-3.28,11.8-3.22,2.96.24-3.96,9.12,15.56-5.37,1.18-.88,2.71,1.71,3.22.54.54-1.35-2.33-6.61-3.22-8.05,1.36-4.98,13.87,4.59,13.95,6.97.14,4.14-5.45,5.52-6.44,7.51-.82,1.65,1.38,3.08,1.07,4.29-.6,2.4-5.85,1.37,0,6.44-20.42,17.82,12.19,5.54,2.68,18.78,9.63-1.35,7.42,4.92,14.49-5.37,1.12.12,7.8-1.72,10.73-2.15-.11,36.13.08,72.25,0,108.38-143.79.06-287.58-.08-431.37,0q13.15-10.73,26.29-21.46c3.76,1.22,10.89,3.01,14.49,3.22,28.7,1.69,36.82,1.27,63.85-10.73,41.09-18.24,74.47-53.85,83.16-98.72,12.28-9.83,22.33-16.85,34.34-27.9,22.81-21,29.82-24.06,35.41-56.87,1.8-10.57,8.87-35.29-10.73-25.22,5.48-14.3-.77-32.97-16.1-20.92.51-6-1.57-14.47-9.66-12.88-4.49-23.16-24.77-1.71-34.34,5.37,6.44-15.35,4.02-35.21-16.1-33.8-2.1-8.08,1.03-20.35-6.44-24.14.09-2.23-.31-4.38-1.07-6.44,2.52-5.06,8.79-21.03,2.15-19.32,5.82-8.59,3.79-36.5,2.15-47.22-1.25-8.15.91-15.09-6.44-18.78-10-47.46-31.09-101.39-62.24-138.96,1,.46,3.24-.97,3.22-1.61-.11-4.18-36.88-41.88-20.39-16.63-19.86-19.57-26.22-24.03-51.51-35.41-19.03-8.56-34.55-12.83-53.65-19.32Z" style="fill:url(#f); stroke-width:0px;"/><path d="m71.9.19c-5.59,15.82,8,18.27,3.22,0,104.08-.45,208.18.06,312.26,0,.06,1.28,1.66,1.26.54,2.15-3.44,2.69-36.15,18.75-56.87,36.48-5.06,4.33-33.72,31.78-27.36,34.34-2.26,2.62-5.98,8.39-8.58,11.8-6.37-2.84-20.89,21.58-13.95,18.24-2.37,3.79-6.17,11.57-8.58,16.1-3.58-3-4.59,1.48-2.15,4.29-10.68,20.92-27.44,61.56-30.05,84.24-6.63,4.33-6.74,11.85-8.58,18.78-3.27,12.26-7.12,35.47-2.15,47.22-4.71,16.55,10.11,3.92,9.66,17.17-6.69,9.38-6.74,5.53-7.51,19.32-.01.22-1.27-1.02-1.07,4.29-26.39,6.88-5.95,44.96,11.8,50.43,3.01,11.77,7.56,22.95,9.66,34.34-15.57,11.67-21.22,19.69-42.39,17.17-42.1-5.01-73.52-63.57-31.12-80.48-1.1,44.97,41.28,43.11,52.58,50.43,8.68,5.63,9.47,22.8,12.34,14.49,2.52-7.29-10-19.21-17.17-20.39,3.02-22.67-3.84-3.09-4.83-2.68-5.19,2.11-35.58-11.95-38.09-31.66-2.51-19.68,9.67-9.44,9.66-13.95,0-1.28-17-.7-1.61-11.27,1.15-.79,14.51-6.13-1.07-3.22-6.3,1.18-10.04,13.37-10.73,13.95-1.51,1.27-19.58.76-26.83,25.75-35.18-2.29-39.24,39.24-22,62.77,28.33,38.68,94.71,10.09,123.4-15.56l2.15,1.07c-.66,6.23,6.42,15.89,8.58,21.46-9.04,15.27,1.02,20.09,1.07,22,.15,5.17-23.84,28.86-4.29,27.36-4.83,12.19,4.37,18.62,16.1,16.1-7.67,10.44-5.91,13.44,6.44,20.39-2.66,22.71,21.41,9.46,23.61,12.34-25.46,18.73-6.34,46.86,17.71,22,4.02,1.8-7.14,7.59-9.12,11.27-6.26,11.65,3.74,17.96,18.24,11.27.01.12,1,2.05,1.07,2.15-20.6,14.51-16.07,30.72-1.61,27.9,1.38-.27,5.86-4.51,8.05-5.37,1.62-.63,2.61-3.01,8.05-4.29h55.26c2.41,2.24,5.85,3.38,7.51,6.44-16.24-.25-12.39,17.99-2.68,21.46,9.63,3.45,34.75-.91,44.53,1.07.85.17,12.88,7.08,15.02,8.58-145.85-.07-292,2.08-437.81,0-7.15-39.61-3.38-46.64,0-79.94,1.67-16.47-2.51-38.02,7.51-44-11.99-28.12,6.45-44.43-2.15-56.87,20.59-17.07,27.64.31,25.75-13.95-1.38-10.39-20.61-9.14-23.61-12.88.46-5.43-7.87-14.43-6.44-16.1,6.04-7.03,7.67,9.64,10.19,11.27,3.84,2.48,11.39-.02,13.95,1.07.42.18,2.43,6.19,5.37,7.51,5.57,2.51,13.53-.54,14.49-6.97,3.56-23.9-30.35-6.74-22-23.07,2.98,4.72,14.46,3.71,15.56,1.61,6.33-12.13-18.97-16.3-20.39-17.71-3.11-3.08-.13-6,0-9.66,2.01-.83.47-2.87,1.61-3.22,2.35-.72,10.81.7,11.8,0,3.42-2.42-6.09-11.65,9.12-13.41-3.24-23.42,9.01-1.12-1.61-26.29,39.13,21.63,36.95-16.39,8.05-9.12,3.37-22.06,12.36-26.72-15.02-26.83,4.54-17.94,28.78-8.81,23.61-31.12-2.36-10.17-17.05-10.51-18.78-19.85-8.01,16.26-17.11,8.33-18.24,8.58-2.43.55-2.73,7.35-5.37,5.37-3.24-2.45,3.71-15.68-4.83-26.29,13.66-11.81,2.42-18.87,2.15-20.39.41-13.49-3.1-28.17-7.51-40.78L36.48.19c11.8-.14,23.61.06,35.41,0Z" style="fill:#7b6a6b; stroke-width:0px;"/><path d="m36.48.19l-1.07,164.72c4.41,12.61,7.92,27.28,7.51,40.78.28,1.52,11.51,8.58-2.15,20.39,8.54,10.61,1.59,23.84,4.83,26.29,2.63,1.99,2.94-4.82,5.37-5.37,1.14-.26,10.24,7.67,18.24-8.58,1.73,9.34,16.42,9.68,18.78,19.85,5.18,22.3-19.07,13.18-23.61,31.12,27.38.1,18.39,4.77,15.02,26.83,28.9-7.26,31.08,30.76-8.05,9.12,10.62,25.17-1.63,2.87,1.61,26.29-15.21,1.76-5.7,10.99-9.12,13.41-.99.7-9.45-.72-11.8,0-1.14.35.4,2.39-1.61,3.22-14.02,5.8-10.51,11.27-8.05,24.68,2.57,1.56,2.43-13.41,8.05-15.02,1.41,1.4,26.71,5.58,20.39,17.71-1.1,2.1-12.58,3.12-15.56-1.61-8.35,16.33,25.56-.83,22,23.07-.96,6.44-8.92,9.48-14.49,6.97-2.94-1.32-4.94-7.33-5.37-7.51-2.56-1.09-10.11,1.41-13.95-1.07-2.52-1.63-4.15-18.3-10.19-11.27-1.43,1.67,6.9,10.67,6.44,16.1,3,3.73,22.23,2.49,23.61,12.88,1.89,14.26-5.17-3.12-25.75,13.95,8.6,12.44-9.84,28.75,2.15,56.87-10.02,5.97-5.84,27.53-7.51,44-3.38,33.31-7.15,40.34,0,79.94-10.73-.15-21.46.11-32.19,0V.19C12.16.08,24.33.34,36.48.19Z" style="fill:#94536c; stroke-width:0px;"/><path d="m1098.82,326.4c0,3.93,0,7.87,0,11.8-1.99,4.97-9.92,19.97,0,13.95-.04,49,.11,98.01,0,147.01-14.39,1.73-12.5,14.29-14.49,15.02-2.01-2.21-10.15-2.96-11.27-.54-2.57,5.57,12.1,5.61,14.49,5.9.9.11.43,2.13.54,2.15-7.07,10.29-4.85,4.01-14.49,5.37,9.51-13.24-23.1-.96-2.68-18.78-5.85-5.06-.6-4.04,0-6.44.3-1.21-1.89-2.64-1.07-4.29.98-1.99,6.57-3.37,6.44-7.51-.08-2.39-12.59-11.95-13.95-6.97-3.23-5.22-15.27-15.25-15.02-4.29-.19-.19-1.74.88-4.29-3.22.37-1.1,1.77-2.08,3.22-5.37.45-1.03,9.34-4.29-4.29-18.24,2.95-5.21-2.94-8.66,11.27-6.44,1.2-.85.14-3.84.54-4.29,16.52-18.81,0-3.24-12.34-9.66.42,5.03-2.25-2.93-6.97,5.37-9.62-7.84,3.93,4.61-8.05,2.15-1.21-10.56-12.5-22.66,5.9-31.12.75-.35,6.28-1.68,6.97,0,4.92-10.23-10.55-3.3-15.56-10.73-4.27-6.33-1.68-15.12,3.22-20.39,3.72-4,9.73-4.71,9.66-5.9-32.9-22.69,4.26-28.17-6.44-33.8,6-3.97,1.84-12.38,8.58-12.88,9.75,4.54,22.76-7.51,6.44-1.61,5.42-18.65-.59-15.88-3.22-20.92-2-3.84-2.57-2.99-1.61-8.58-7.05,7.42-11.33-4.72-5.9,10.73-.36-.05-5.77-2.79-6.44-3.22-.39-.25-1.37.78-3.22-1.07-.48-.48-3.69-9.44-4.29-10.19-2.33-2.93-7.49-3.68-8.58-5.37-3.42-5.26,5.27-10.06,5.37-10.73.15-1.11-8.14-8.57,13.95-9.12,2.86-.07,5.73.05,8.58,0,4.2,7.86,9.98,3.6,13.95-2.15.47-.69,2.08-3.04,2.15-3.22,3.38,9.09-3.68,11.31-3.22,14.49,5.51,4.14,2.17,12.04,3.22,15.02.5,1.43,17.37,9,0,24.68,5.84,21.14,11.23,2.52,15.02,6.44,3.33,3.44.57,9.13-3.22,9.66,28.87,10.77,6.23,37.57,31.12-2.68Z" style="fill:#7b2451; stroke-width:0px;"/><path d="m1098.82,499.17c-.01,6.8.02,13.59,0,20.39-2.93.42-9.61,2.26-10.73,2.15-.11-.01.36-2.04-.54-2.15-2.39-.29-17.06-.34-14.49-5.9,1.12-2.42,9.26-1.68,11.27.54,1.99-.73.1-13.29,14.49-15.02Z" style="fill:#873a5f; stroke-width:0px;"/><path d="m75.11.19c4.78,18.27-8.81,15.82-3.22,0,1.07,0,2.15,0,3.22,0Z" style="fill:#7d5f64; stroke-width:0px;"/><path d="m1098.82,352.16c-9.92,6.02-1.99-8.98,0-13.95,0,4.65,0,9.3,0,13.95Z" style="fill:#94536c; stroke-width:0px;"/><path d="m1030.15,337.13c10.7,5.63-26.46,11.11,6.44,33.8.08,1.19-5.94,1.9-9.66,5.9-1.45-6.35-9.28-5.47-11.8-14.49-3.02-10.8,2.67-16.45,2.15-17.17-20.78-7.7-19.6-24.44-6.97-22,2.37.46,6.05,5.52,6.44,5.37.29-.12,1.4-5.37,3.22-5.37,6.78,0-1.2,21.49,10.19,13.95Z" style="fill:#873a5f; stroke-width:0px;"/><path d="m1046.24,229.83c-1.93,5.89-6.96,9.42-12.88,8.58-2.87-.41-4.15-2.83-6.97-3.22-3.77,9.67-16.26-.49-2.68-3.22v-1.07c-10.97-29.19,30.01-23.87,22.53-1.07Z" style="fill:#7b2451; stroke-width:0px;"/><path d="m1055.9,258.8c-.07.18-1.67,2.53-2.15,3.22-5.6-5.22-4.11-14.26-14.49-8.58.19-6.08-4.51-5.9-5.9-10.73-.42-1.46-1.09-.93,0-4.29,5.91.84,10.94-2.69,12.88-8.58,7.71-1.65-1.65,8.88,13.95,9.12-4.55,7.35-.55,9.77-4.29,19.85Z" style="fill:#7d5f64; stroke-width:0px;"/><path d="m1033.37,242.7c1.39,4.83,6.09,4.65,5.9,10.73,10.38-5.67,8.89,3.37,14.49,8.58-3.97,5.75-9.75,10-13.95,2.15-2.06-3.86,1.87-17.24-8.58-1.07-9.58-5.39-9.46-17.59,2.15-20.39Z" style="fill:#7b2451; stroke-width:0px;"/><path d="m1034.44,303.87c2.34.3,5.32-1.27,7.51-2.15,2.63,5.05,8.64,2.28,3.22,20.92,16.32-5.9,3.32,6.15-6.44,1.61-.66-.31-9.24-6.81-11.8-8.58,15-12.57-3.87.21,1.07-15.02.67.43,6.08,3.17,6.44,3.22Z" style="fill:#94536c; stroke-width:0px;"/><path d="m1047.32,478.78c4.63,4.56,2.13,6.94,15.02,11.8-19.52,14.49-12.6,5.6-15.56,5.37-.7-.06-2.91,6.89-11.8,3.22-6.26-2.58,1.86-14.31,8.05-8.05-1.67-4.96-1.68-10.63,0-15.56,2.56,4.1,4.1,3.03,4.29,3.22Z" style="fill:#7b2451; stroke-width:0px;"/><path d="m1039.8,453.03c.81,2.07,2.6,6.94-1.07,6.44-5.43-.45-8.5,2.85-6.44,8.05-14.56,9.24-14.9-8.97-2.15-6.44.31-.59-5.02-8.21-1.61-12.34,3.51-4.25,10.77,3.02,11.27,4.29Z" style="fill:#7b2451; stroke-width:0px;"/><path d="m1023.71,397.23c5.01,7.43,20.48.51,15.56,10.73-.7-1.68-6.22-.35-6.97,0-3.07-5.09-7.55-1.06-8.05-1.07-14.08-.43-17.24-12.44-.54-9.66Z" style="fill:#7b2451; stroke-width:0px;"/><path d="m1053.75,441.22c-10.1-5.99-7.46,5.38-19.32-4.29,4.72-8.29,7.4-.33,6.97-5.37,12.34,6.41,28.86-9.15,12.34,9.66Z" style="fill:#873a5f; stroke-width:0px;"/><path d="m1062.34,483.07c.89,1.43,3.76,6.7,3.22,8.05-.51,1.17-2.04-1.41-3.22-.54-12.9-4.86-10.39-7.24-15.02-11.8-.24-10.95,11.79-.93,15.02,4.29Z" style="fill:#873a5f; stroke-width:0px;"/><path d="m1024.78,299.58c1.85,1.85,2.83.83,3.22,1.07-4.94,15.24,13.93,2.45-1.07,15.02-2.79-1.92-21.89-7.25-2.15-16.1Z" style="fill:#7b2451; stroke-width:0px;"/><path d="m1013.51,370.4c4.69-.95,8.06,3.28,8.05,3.76-.02,1.06-3.19,1.78-3.22,2.15-.07.92,3.28,1.91,3.22,2.15-4.43,17.31-20.52-5.53-8.05-8.05Z" style="fill:#873a5f; stroke-width:0px;"/><path d="m1046.24,470.19l-7.51-10.73c3.67.5,1.89-4.37,1.07-6.44,2.42.35,1.97-.76,2.15-1.07,13.63,13.95,4.75,17.21,4.29,18.24Z" style="fill:#873a5f; stroke-width:0px;"/><path d="m856.31,279.19c2.5,2.4,2.34-3.7.54-3.22-.79.21-.66,3.1-.54,3.22-4.58-9.44,8.4-9.06,9.66-3.76,1.18,5-6.76,9.72-9.66,3.76Z" style="fill:#131421; stroke-width:0px;"/><path d="m1006,288.85c9.08-2.92,12.47,7.32,5.37,8.58-5.32.94-10.15-7.05-5.37-8.58Z" style="fill:#7b2451; stroke-width:0px;"/><path d="m1039.8,264.17c-2.86.05-5.73-.07-8.58,0v-1.07c10.46-16.16,6.52-2.79,8.58,1.07Z" style="fill:#94536c; stroke-width:0px;"/><path d="m1016.73,5.56c8.19-5.02,11.86,9.71,2.15,6.44-1.22-.41-3.78-5.44-2.15-6.44Z" style="fill:#7d5f64; stroke-width:0px;"/><path d="m1032.83,503.46c3.59-1.61,8.71,3.35,8.05,4.83-1.74,3.85-13.47-2.4-8.05-4.83Z" style="fill:#7b2451; stroke-width:0px;"/><path d="m1022.1,499.17c4.9-1.63,6.16,4.66,4.29,6.44-1.91,1.82-9.28-4.78-4.29-6.44Z" style="fill:#7a4957; stroke-width:0px;"/><path d="m858.99,316.75c2.52-.91,7.54,6.61,0,5.37-2.14-.35-.46-5.2,0-5.37Z" style="fill:#1d101a; stroke-width:0px;"/><path d="m852.55,301.72c1.86,0,4.15,5.43,0,5.37-4.29-.07-1.73-5.36,0-5.37Z" style="fill:#544548; stroke-width:0px;"/><path d="m858.99,289.92c1.77.18-.98,4.34-1.61,2.68-.42-1.09,1.44-2.7,1.61-2.68Z" style="fill:#544548; stroke-width:0px;"/><path d="m334.8,569.99c-14.5,6.7-24.51.38-18.24-11.27,1.98-3.67,13.14-9.47,9.12-11.27-24.04,24.86-43.17-3.27-17.71-22-2.2-2.88-26.27,10.37-23.61-12.34,57.39-9.64,30.25,6.61,30.05,9.12-.33,4.17,25.05,15.24,30.05,16.1-17.52,19.1-3.95,16.42-3.22,18.24,1.38,3.44-7,8.28-6.44,13.41Z" style="fill:#141027; stroke-width:0px;"/><path d="m413.13,596.82c3.36.05,43.89,15.23,41.85,22.53-9.78-1.98-34.9,2.37-44.53-1.07-9.7-3.47-13.56-21.71,2.68-21.46Z" style="fill:#141027; stroke-width:0px;"/><path d="m380.94,571.06c10.34-1.22-20.34,15.45-27.36,18.24-.64.25-11.44-.44-11.27,5.37-2.19.86-6.66,5.1-8.05,5.37-14.47,2.82-18.99-13.39,1.61-27.9,6.35,7.44,27.31,7.73,45.07-1.07Z" style="fill:#141027; stroke-width:0px;"/><path d="m405.62,590.38h-55.26c-5.44,1.28-6.43,3.66-8.05,4.29-.17-5.8,10.63-5.11,11.27-5.37,7.02-2.79,37.71-19.46,27.36-18.24,3.8-1.88,7.1-5.18,11.27-6.44,3.14,2.44-7.95,5.92,13.41,25.75Z" style="fill:#322d3d; stroke-width:0px;"/><path d="m288.66,480.93c-1.83,4.6-8.87,9.27-10.73,11.8-11.73,2.52-20.93-3.91-16.1-16.1.7-1.77,12.06-13.83,15.02-16.1,2.1,4.8,8.45,16.78,11.8,20.39Z" style="fill:#282037; stroke-width:0px;"/><path d="m271.49,442.29c.87,2.14.82,5.85,1.07,6.44,2.68,6.15,4.04,11.23,4.29,11.8-2.96,2.26-14.32,14.33-15.02,16.1-19.54,1.49,4.45-22.2,4.29-27.36-.06-1.91-10.11-6.73-1.07-22,1.99,5.12,4.38,9.94,6.44,15.02Z" style="fill:#322d3d; stroke-width:0px;"/><path d="m53.12,442.29c1.19.03,8.06,3.62,9.12,5.9.38.82,4.54,17.26,3.76,17.71-2.29,1.29-9.24.06-8.58-4.29-18.71,9.58-19.03-19.63-4.29-19.32Z" style="fill:#94536c; stroke-width:0px;"/><path d="m284.9,562.48c10.66,0,7.99,18.49-3.22,12.88-6.55-3.28-2.7-12.88,3.22-12.88Z" style="fill:#141027; stroke-width:0px;"/><path d="m50.43,368.25c-.13,3.66-3.11,6.58,0,9.66-5.62,1.62-5.47,16.59-8.05,15.02-2.46-13.41-5.97-18.88,8.05-24.68Z" style="fill:#7d5f64; stroke-width:0px;"/><path d="m55.26,197.63c6.07-1.86,7.89,7.31,3.22,8.58-5.36,1.46-8.42-6.99-3.22-8.58Z" style="fill:#7b2451; stroke-width:0px;"/><path d="m225.88,431.56c5.54-.97,9.65,5.94,2.15,5.37-2.11-.16-7.85-4.37-2.15-5.37Z" style="fill:#1c222b; stroke-width:0px;"/><path d="m280.61,523.85c.32-.13,3.94,4.26,4.83,4.83-13.08,6.64-5.6-4.51-4.83-4.83Z" style="fill:#141027; stroke-width:0px;"/><path d="m245.2,449.81c1.93-.44,5.11,3.54,2.15,4.29-3.83.97-4.81-3.68-2.15-4.29Z" style="fill:#1d101a; stroke-width:0px;"/><path d="m305.29,593.6c1.34-.21,3.79,2.45,3.76,2.68-.6,3.77-8.3-1.97-3.76-2.68Z" style="fill:#131421; stroke-width:0px;"/><path d="m63.85,226.61c3.34-1.93,1.83,7.3-.54,2.68-.26-.5-.17-2.27.54-2.68Z" style="fill:#7d5f64; stroke-width:0px;"/><path d="m259.15,527.07c.89-.55,2.75,1.47,2.68,1.61-.81,1.78-5.08-.15-2.68-1.61Z" style="fill:#544548; stroke-width:0px;"/><path d="m48.82,264.17c18.61,3.92,10.35,7.61,6.44,21.46-4.59-.12-.37-8.72-1.61-12.34-.6-1.76-8.81-6.11-4.83-9.12Z" style="fill:#8b5f6f; stroke-width:0px;"/><path d="m54.19,328.55c9.36-4.26-1.46,13.42-2.68,6.97,1.55-.98,1.84-6.59,2.68-6.97Z" style="fill:#7d5f64; stroke-width:0px;"/><path d="m1041.95,301.72c-2.19.88-5.17,2.44-7.51,2.15-5.43-15.45-1.15-3.31,5.9-10.73-.96,5.6-.39,4.74,1.61,8.58Z" style="fill:#8b5f6f; stroke-width:0px;"/><path d="m1053.22,460.54c5.91-3.08,9.99,7.63,1.07,2.15-.94-.58-2.01-1.66-1.07-2.15Z" style="fill:#c27194; stroke-width:0px;"/><path d="m1073.61,463.76c2.75-1.22,5.18,3.83,4.29,4.29-1.07.56-5.47-3.77-4.29-4.29Z" style="fill:#db7ca0; stroke-width:0px;"/><path d="m1086.48,478.78c1.99-.88,6.35.84,5.9,1.61-1.07,1.84-7.65-.83-5.9-1.61Z" style="fill:#ec94ab; stroke-width:0px;"/><path d="m1040.34,350.01c3.03-1.41,7.96,7.09,0,2.15-.89-.55-.87-1.74,0-2.15Z" style="fill:#db7ca0; stroke-width:0px;"/><path d="m856.31,279.19c-.12-.12-.25-3.01.54-3.22,1.8-.48,1.96,5.62-.54,3.22Z" style="fill:#9991a1; stroke-width:0px;"/><path d="m147.55,360.74c8.7-.39,2.92,5.14,8.05,19.85,2.72,7.8,12.2,19.96,18.78,25.22,25.48,20.36,60.99,12.18,25.75,22.53-23.88,7.01-56.24,8.01-68.14-18.78-12.19-27.45,4.59-48.34,15.56-48.82Z" style="fill:#7b6a6b; stroke-width:0px;"/></g><path d="m642.77,619.35c16.15,6.55,21.97.63,23.07,1.07,2.11.85-3.05,4.55-2.68,7.51-20.03.01-40.06,0-60.09,0,.44-1.61,3.04-1.81,4.29-2.15,11.58-3.16,23.65-4.24,35.41-6.44Z" style="fill:#7b6a6b; stroke-width:0px;"/><path d="m230.71,314.6c.01.36-.02.72,0,1.07-12.27,13.5-6.25,23.11,3.22,35.41,2.63,3.41,4.41,7.53,8.58,9.66,1.15,4.75-.05,4.08,0,4.29-17.75-5.48-38.19-43.56-11.8-50.43Z" style="fill:#e4dcac; stroke-width:0px;"/><path d="m240.37,290.99c-.13.17-.95-.17-1.07,0,.46-13.25-14.36-.62-9.66-17.17.92,2.17,4.79,8.07,8.05,7.51,2.98-1.26,5.6-33.83,2.68,9.66Z" style="fill:#3c2236; stroke-width:0px;"/><path d="m272.56,119.3c-.75,1.41-1.42,2.87-2.15,4.29-2.44-2.81-1.44-7.29,2.15-4.29Z" style="fill:#94536c; stroke-width:0px;"/><path d="m252.17,399.37c.06.35,3.84-.96,2.15,5.37-28.69,25.65-95.08,54.23-123.4,15.56-17.24-23.54-13.18-65.06,22-62.77,7.24-25,25.31-24.48,26.83-25.75.69-.58,4.43-12.77,10.73-13.95,15.58-2.91,2.22,2.43,1.07,3.22-15.39,10.57,1.61,9.99,1.61,11.27,0,4.51-12.17-5.73-9.66,13.95,2.52,19.7,32.91,33.76,38.09,31.66.99-.4,7.84-19.99,4.83,2.68,7.16,1.18,19.69,13.1,17.17,20.39-2.87,8.32-3.66-8.86-12.34-14.49-11.3-7.33-53.68-5.46-52.58-50.43-42.4,16.91-10.98,75.47,31.12,80.48,21.16,2.52,26.81-5.5,42.39-17.17Z" style="fill:#e4dcac; stroke-width:0px;"/><path d="m241.44,342.5c-3.9,1.94-3.35,2.02-3.22,6.44l-4.29,2.15c-9.46-12.3-15.49-21.91-3.22-35.41.05.74,2.82,13.26,3.22,14.49.61,1.88,5.61,9.36,7.51,12.34Z" style="fill:#7b6a6b; stroke-width:0px;"/><path d="m241.44,355.38c.37,1.73.67,3.69,1.07,5.37-4.18-2.13-5.96-6.24-8.58-9.66l4.29-2.15c.1,3.39,3.14,6.09,3.22,6.44Z" style="fill:#48424f; stroke-width:0px;"/><path d="m586.97.19c44.63,8.14,102.45,28.47,137.35,57.95,20.13,17,52.03,59.82,66.53,83.7-.04.71.02,1.43,0,2.15-12.31,2.42.55,24.9,5.37,11.8,5.57,15.68,19.49,38.63,9.66,49.9,1.69,9.15-.4,18.17,0,27.36-.73-.38-2.12-5.08-2.15-5.37-1.06-10.21-.28-26.68-7.51-44.53-5.98-14.76-28.43-33.88-11.8-42.92-39.9-66.27-94.28-108.58-169.01-129.3-28.71-7.96-81.1-9.44-110.53-6.44-39.12,3.99-96.76,18.67-129.84,39.7-20.75,13.19-60.4,53.21-74.58,73.51-23.09,33.05-3.67,16.33-9.66,35.41-1.44,4.6-11.68,18.59-17.17,30.05-.53,1.11-2.73-.03-3.22,1.07,2.27,4.4-4.01,21.82-6.44,15.56,2.8-11.74,5.69-25.51,10.73-36.48,3.48-7.58,15.92-12.69,4.29-21.46.08-.15-.17-.95,1.07-3.22C325.34,56.38,402.73,8.44,495.76.19c30.4-.01,60.81-.01,91.21,0Z" style="fill:#141027; stroke-width:0px;"/><path d="m495.76.19c-93.03,8.25-170.42,56.19-215.69,138.43-1.32-.47-2.24-1.1-3.22-2.15,21.35-33.84,48.41-67.9,80.48-92.28,10.62-8.07,30.59-20.78,42.39-26.83,7.56-3.87,23.97-7.86,20.92-10.73,6.32-2.19,13.42-2.89,19.32-6.44,18.6,0,37.2,0,55.8,0Z" style="fill:#7b2451; stroke-width:0px;"/><path d="m627.75.19c60.19,17.94,116.12,54.45,152.38,106.23,2.13,3.7,14.9,25.81,15.02,27.36.3,3.81-3.16,4.54-3.22,4.83-15.99-30.5-40.21-60.25-66.53-82.63-31.06-26.41-66.09-44.58-105.16-55.8,2.5,0,5.01,0,7.51,0Z" style="fill:#261129; stroke-width:0px;"/><path d="m643.84.19c19.1,6.49,34.63,10.75,53.65,19.32-4.09,6.74,21.58,15.95,32.73,24.68,15.54,12.17,39.77,44.64,49.9,62.24C743.86,54.64,687.94,18.13,627.75.19c5.37,0,10.73,0,16.1,0Z" style="fill:#db7ca0; stroke-width:0px;"/><path d="m418.5.19c-.19,3.07-9.45,6.23-15.02,8.58-40.21,16.97-63.33,22.03-99.8,64.38-6.35-2.56,22.3-30.01,27.36-34.34,20.73-17.73,53.44-33.79,56.87-36.48,1.13-.88-.48-.87-.54-2.15,10.37,0,20.75,0,31.12,0Z" style="fill:#b94c81; stroke-width:0px;"/><path d="m727.54,597.89c1.13,6.43-12.62,5.85-19.32,11.8-3.6-.21-10.72-2-14.49-3.22q-13.15,10.73-26.29,21.46c-1.43,0-2.86,0-4.29,0-.37-2.96,4.79-6.67,2.68-7.51-1.1-.44-6.92,5.48-23.07-1.07-2.18-.88-9.03-6.16-10.73-8.58q29.78-2.15,59.56-4.29c22.7-14.19,26.32-7.49,35.95-8.58Z" style="fill:#141027; stroke-width:0px;"/><path d="m620.23.19c39.07,11.22,74.1,29.39,105.16,55.8l-1.07,2.15C689.42,28.66,631.6,8.33,586.97.19c11.09,0,22.18,0,33.27,0Z" style="fill:#7b2451; stroke-width:0px;"/><path d="m439.96.19c-5.89,3.55-13,4.24-19.32,6.44-4.53,1.57-9.55,3.47-13.95,5.37l-3.22-3.22c5.57-2.35,14.83-5.52,15.02-8.58,7.15,0,14.31,0,21.46,0Z" style="fill:#cc5d8e; stroke-width:0px;"/><path d="m533.32,627.94c-2.86,0-5.72,0-8.58,0,3.17-5.01,5.77-5.09,8.58,0Z" style="fill:#b8e2c6; stroke-width:0px;"/><path d="m898.16,369.33c-.86,10.05-12.83,24.91-19.32,32.73,13.56-4.62,31.07,0,20.39,15.02.58,2.15,12.76.61,12.88,11.27.03,2.91-12.44,25.14-15.02,29.51-2.74,4.62-12.46,14.61-7.51,14.49-12,11.05-22.06,18.07-34.34,27.9-6.4,5.12-11.22,8.31-17.17,12.88-1.49,1.14-4.76,1.92-5.37,2.68-.71,1.97-1.12,4.05-2.15,5.9-10.85,19.58-4.75,18.45-27.9,40.78-4.21-22.79-22.19-4.74-23.61-10.19-.69-2.66,9.05-6.5,5.9-11.27-17.59,6.62-36.11-6.19-18.24-12.88,4.48-1.68,16.04-1.92,20.39-3.22,11.56-3.45,46.28-13.84,53.65-19.32,13.62-10.12,42.68-49.05,55.26-64.92-.34-2.7-20.5-2.33-33.27,8.05.1-1.47-3.13-1.35-3.76-1.07-10.82,4.81-21.06,13.57-32.73,17.17.89-8.16,26.7-34.45,26.83-38.09.05-1.42-7.3-12.59-9.12-13.41-1.48-.67-7.02,5.87-27.36-13.95.07-.34-.07-.73,0-1.07,40.66-34.55,33.38-20.98,47.75-23.61,7.77-1.42,22.65-17.95,24.14-18.24,8.08-1.59,10.17,6.88,9.66,12.88Z" style="fill:#141027; stroke-width:0px;"/><path d="m749,54.92c5.75,5.67,12.02,12.04,17.17,18.24,31.15,37.57,52.24,91.5,62.24,138.96,7.35,3.69,5.19,10.63,6.44,18.78-4.23-6.98-8.82,9.05-21.46,13.95-1.18-5.64-2.54-11.14-4.29-16.63-2.32,7.01-2.67,17.52-3.22,4.83-.4-9.2,1.69-18.21,0-27.36,9.83-11.27-4.09-34.22-9.66-49.9-1.43-4.02-2.44-8.5-5.37-11.8.02-.71-.04-1.43,0-2.15.11-2.18.87-2.26,1.07-3.22.06-.28,3.52-1.02,3.22-4.83-.12-1.56-12.89-23.66-15.02-27.36-10.12-17.59-34.35-50.07-49.9-62.24-11.15-8.73-36.82-17.94-32.73-24.68,25.29,11.38,31.65,15.85,51.51,35.41Z" style="fill:#f1a7aa; stroke-width:0px;"/><path d="m888.5,356.45c-1.49.29-16.38,16.82-24.14,18.24-14.37,2.63-7.09-10.94-47.75,23.61.99-4.94,2.44-10.12,3.22-15.02,2.95.68,5.07-2.45,8.58-5.37,7.15,3.39,16.37-9.16,25.75-16.1,9.57-7.07,29.85-28.53,34.34-5.37Z" style="fill:#322d3d; stroke-width:0px;"/><path d="m834.85,230.9c1.64,10.71,3.68,38.62-2.15,47.22-1.6,2.36-7.31,5.71-7.51,0,4.89-6.56-.5-16.2-4.29-9.12-.9,1.69.17,8.98-3.22,8.05-.96-10.72-2.08-21.65-4.29-32.19,12.64-4.9,17.23-20.93,21.46-13.95Z" style="fill:#db7ca0; stroke-width:0px;"/><path d="m854.16,361.81c-9.39,6.94-18.6,19.48-25.75,16.1,38.61-32.05,34.03-28.72-5.37-48.29,1.66-3.41,3.25-9.52,1.07-12.88.18-.26.17.55,3.22-4.29,1.3-2.06,4-1.06,4.29-8.58,7.47,3.8,4.34,16.06,6.44,24.14,20.12-1.4,22.54,18.45,16.1,33.8Z" style="fill:#322d3d; stroke-width:0px;"/><path d="m924.99,415.47c-5.67-5.28-6.56,11.59-12.88,12.88-.12-10.65-12.29-9.12-12.88-11.27,10.68-15.03-6.83-19.64-20.39-15.02,6.49-7.82,18.45-22.68,19.32-32.73,15.32-12.05,21.58,6.62,16.1,20.92,19.6-10.08,12.53,14.65,10.73,25.22Z" style="fill:#322d3d; stroke-width:0px;"/><path d="m924.99,415.47c-5.59,32.81-12.6,35.87-35.41,56.87-4.95.12,4.78-9.86,7.51-14.49,2.58-4.36,15.06-26.6,15.02-29.51,6.31-1.28,7.21-18.15,12.88-12.88Z" style="fill:#48424f; stroke-width:0px;"/><path d="m825.19,278.12c.21,5.71,5.91,2.36,7.51,0,6.64-1.71.37,14.25-2.15,19.32-.86-2.31-4.6-6.5-7.51-7.51-3.57-4.12.06-17.65,2.15-11.8Z" style="fill:#322d3d; stroke-width:0px;"/><path d="m766.17,73.16c-5.14-6.21-11.42-12.57-17.17-18.24-16.49-25.25,20.28,12.45,20.39,16.63.02.64-2.22,2.07-3.22,1.61Z" style="fill:#b94c81; stroke-width:0px;"/><path d="m406.69,11.99c-14.07,6.06-26.83,14.35-39.7,22.53-.39-4.83-23.57,10.06-27.36,12.88-18.15,13.5-54.54,53.59-59.56,75.11-3.62,7.11-7.72,9.15-3.22,13.95.98,1.05,1.9,1.68,3.22,2.15-1.25,2.27-.99,3.07-1.07,3.22-2.34,4.42-4.36,8.3-6.44,12.88-6.42,14.16-11.72,28.56-16.1,43.46,6.14.4,4.29,2.72,5.37,5.9.25.74-.19,2.19,0,3.22-1.71,7.12-3.05,14.51-5.37,21.46-.58,1.75-2.7,4.58-3.22,6.44-.29,1.03-1.05,1.25-1.07,2.15-7.08.94-13.37-8.28-20.39-10.73,1.85-6.93,1.96-14.45,8.58-18.78,2.61-22.68,19.36-63.31,30.05-84.24.73-1.42,1.39-2.88,2.15-4.29,2.41-4.52,6.22-12.31,8.58-16.1,1.35-2.15,10.59-13.84,13.95-18.24,2.6-3.41,6.33-9.18,8.58-11.8,36.46-42.35,59.58-47.42,99.8-64.38l3.22,3.22Z" style="fill:#f1a7aa; stroke-width:0px;"/><path d="m252.17,237.34c-4.72,14.24-4.33,29.5-7.51,44-.39,1.8.27,4.79-1.07,7.51-1.38,2.79-3.1,1.99-3.22,2.15,2.92-43.48.3-10.92-2.68-9.66-3.26.56-7.13-5.34-8.05-7.51-4.97-11.74-1.13-34.96,2.15-47.22,7.02,2.45,13.31,11.67,20.39,10.73Z" style="fill:#db7ca0; stroke-width:0px;"/><path d="m295.09,84.96c-3.36,4.4-12.6,16.09-13.95,18.24-6.94,3.34,7.58-21.08,13.95-18.24Z" style="fill:#b94c81; stroke-width:0px;"/><path d="m770.46,160.08c16.91,21.2,24.12,42.87,31.12,68.68.32,1.2-.32,3.09,0,4.29q-4.83,16.63-9.66,33.27c-3.34.72-10.49,3.97-12.34,3.22-2.3-.93-4.66-17.04-10.19-17.17,2.31-24.4.66-48.74-5.37-72.43-1.56-6.11-5.71-11.87-7.51-17.71-.93-3.01-6.04-21.26-3.76-21.46,5.81,6.36,12.34,12.59,17.71,19.32Z" style="fill:#322d3d; stroke-width:0px;"/><path d="m770.46,160.08c-5.36-6.72-11.9-12.95-17.71-19.32-2.29.2,2.83,18.45,3.76,21.46l-2.15,2.15c-.08-.7.09-1.45,0-2.15-6.76-49.39-49.25-86.63-91.21-108.38,11.72,1.81,8.67-6.65,19.85-3.22,11.21,3.44,56.07,45.8,69.21,67.07,3.52,5.7,20.74,38.36,18.24,42.39Z" style="fill:#322d3d; stroke-width:0px;"/><path d="m791.93,266.31c5.38-1.15,10.84-2.63,16.1-4.29,2.45,9.73,6.44,18.95,7.51,28.97-.35.06-.73-.06-1.07,0-3.39.63-3.53,3.38-6.97,3.22-19.31-36.52-41.69-10.34-44-11.8,2.13-10.02,4.93-19.79,5.9-30.05,5.54.13,7.89,16.24,10.19,17.17,1.85.75,9-2.5,12.34-3.22Z" style="fill:#322d3d; stroke-width:0px;"/><path d="m862.75,448.73c-3.06,2.49-32.63,32.8-34.87,31.12-.11-5.08-2.17-9.94-1.61-15.02,11.67-3.6,21.91-12.36,32.73-17.17.63-.28,3.86-.4,3.76,1.07Z" style="fill:#48424f; stroke-width:0px;"/><path d="m632.04,610.77c1.7,2.42,8.55,7.7,10.73,8.58-11.76,2.2-23.83,3.28-35.41,6.44-.88-3.74,6.9-2.55,8.05-3.22.93-.55,11.85-14.56,16.63-11.8Z" style="fill:#141027; stroke-width:0px;"/><path d="m427.08,44.19c-42.01,18.69-90.74,59.88-110.53,101.94-6.93,14.72-11.68,30.03-13.95,46.14-6-3.22-3.64,10.92-7.51,18.78,3.85,16.41,3.4,33.04,4.29,49.9-2.38.04-3.98-.92-6.44-1.07-8.08-11.96-10.76-6.07-14.49-7.51-15.67-6.05-4.52-21.62-11.27-28.97.27-.29-.32-2.35,0-2.68,3.13-3.31,8.58-7.36,12.88-15.02-4.1.02,2.97-5.72,4.29-8.58.14-.3-2.15.6,1.07-6.44.75-1.64,2.92-1.51,3.22-2.15.16-.34-1.96-1.2,1.07-7.51,10.92-22.72,36.52-76.12,50.43-92.28,7.52-8.73,39.28-35.56,48.82-40.24,5.46-2.68,34.41-11.05,38.63-9.66.61.2,4.25,3.49-.54,5.37Z" style="fill:#322d3d; stroke-width:0px;"/><path d="m803.73,227.68l-2.15,1.07c-7-25.8-14.21-47.48-31.12-68.68,2.5-4.03-14.72-36.68-18.24-42.39-13.14-21.27-58.01-63.62-69.21-67.07-11.18-3.44-8.13,5.03-19.85,3.22-73.61-38.16-159.9-43.54-236.08-9.66,4.79-1.87,1.14-5.17.54-5.37-4.22-1.4-33.17,6.98-38.63,9.66-9.55,4.68-41.31,31.51-48.82,40.24-13.91,16.17-39.52,69.56-50.43,92.28-3.03,6.32-.91,7.17-1.07,7.51-.3.64-2.47.5-3.22,2.15-3.23,7.04-.94,6.14-1.07,6.44-1.32,2.86-8.39,8.6-4.29,8.58-4.3,7.66-9.74,11.71-12.88,15.02-.32.33.27,2.4,0,2.68-.22.23-.54-1.53-5.37,3.22.86-7.01,1.31-12.17,0-19.32-.19-1.02.25-2.47,0-3.22,1.58-.46,1.84-3,2.15-4.29,2.43,6.26,8.71-11.16,6.44-15.56.49-1.11,2.69.04,3.22-1.07,5.49-11.45,15.73-25.45,17.17-30.05,5.99-19.08-13.43-2.37,9.66-35.41,14.18-20.3,53.83-60.32,74.58-73.51,33.08-21.03,90.73-35.71,129.84-39.7,29.43-3,81.82-1.52,110.53,6.44,74.73,20.73,129.11,63.03,169.01,129.3-16.63,9.05,5.82,28.16,11.8,42.92,7.24,17.85,6.45,34.32,7.51,44.53Z" style="fill:#322d3d; stroke-width:0px;"/><path d="m805.88,233.05c.55,12.69.89,2.19,3.22-4.83,1.75,5.49,3.11,10.99,4.29,16.63,2.21,10.54,3.34,21.47,4.29,32.19.06.64,2.69,5.03,0,12.88-.96.06-1.07.87-2.15,1.07-1.07-10.03-5.06-19.24-7.51-28.97-2.41-9.59-3.88-19.39-6.44-28.97-.32-1.2.32-3.1,0-4.29l2.15-1.07c.03.29,1.41,4.98,2.15,5.37Z" style="fill:#460e35; stroke-width:0px;"/><path d="m791.93,138.62c-.2.96-.96,1.04-1.07,3.22-14.5-23.88-46.41-66.7-66.53-83.7l1.07-2.15c26.32,22.38,50.54,52.12,66.53,82.63Z" style="fill:#b94c81; stroke-width:0px;"/><path d="m274.71,163.3c-5.04,10.97-7.93,24.75-10.73,36.48-.31,1.29-.56,3.84-2.15,4.29-1.07-3.18.77-5.5-5.37-5.9,4.38-14.9,9.68-29.3,16.1-43.46l2.15,8.58Z" style="fill:#601543; stroke-width:0px;"/><path d="m274.71,163.3l-2.15-8.58c2.07-4.58,4.09-8.46,6.44-12.88,11.63,8.77-.81,13.89-4.29,21.46Z" style="fill:#9e2e6a; stroke-width:0px;"/><path d="m790.85,143.98c2.92,3.3,3.94,7.79,5.37,11.8-4.81,13.09-17.68-9.39-5.37-11.8Z" style="fill:#9e2e6a; stroke-width:0px;"/><path d="m357.33,44.19c-32.07,24.38-59.13,58.45-80.48,92.28-4.5-4.8-.4-6.84,3.22-13.95,17.36-34.06,47.28-61.49,78.33-82.63l-1.07,4.29Z" style="fill:#261129; stroke-width:0px;"/><path d="m357.33,44.19l1.07-4.29c2.81-1.91,5.73-3.55,8.58-5.37,12.88-8.18,25.63-16.47,39.7-22.53,4.4-1.9,9.42-3.79,13.95-5.37,3.05,2.87-13.37,6.86-20.92,10.73-11.79,6.04-31.77,18.75-42.39,26.83Z" style="fill:#460e35; stroke-width:0px;"/><path d="m855.24,500.24c-8.69,44.88-42.08,80.48-83.16,98.72-27.03,12-35.15,12.42-63.85,10.73,6.69-5.95,20.45-5.37,19.32-11.8,31.84-3.62,52.28-13.39,75.11-35.41,23.15-22.32,17.05-21.2,27.9-40.78l7.51-8.58c5.95-4.56,10.77-7.76,17.17-12.88Z" style="fill:#322d3d; stroke-width:0px;"/><path d="m830.56,521.7c1.03-1.85,1.43-3.93,2.15-5.9.6-.77,3.87-1.54,5.37-2.68l-7.51,8.58Z" style="fill:#8a7f7f; stroke-width:0px;"/><path d="m828.41,377.91c-3.51,2.92-5.64,6.04-8.58,5.37,1.25-7.88,4.3-28.96,3.22-35.41,4.88-5.26,1.27-8.16-4.29-9.66-.31-.08-4.64,2.99-4.29-.54,2.38-.72,8.18-7.21,8.58-8.05,39.39,19.57,43.98,16.23,5.37,48.29Z" style="fill:#141027; stroke-width:0px;"/><path d="m825.19,278.12c-2.09-5.84-5.72,7.68-2.15,11.8-.25-.09-4.9-.03-5.37,0,2.69-7.85.06-12.24,0-12.88,3.39.93,2.31-6.36,3.22-8.05,3.79-7.08,9.18,2.56,4.29,9.12Z" style="fill:#b94c81; stroke-width:0px;"/><path d="m366.99,34.53c-2.85,1.81-5.77,3.45-8.58,5.37-31.06,21.14-60.97,48.57-78.33,82.63,5.01-21.53,41.41-61.61,59.56-75.11,3.79-2.82,26.97-17.71,27.36-12.88Z" style="fill:#db7ca0; stroke-width:0px;"/><path d="m257.54,229.83c5.91,12.09,3.7,20.87,0,34.34-2.85,10.36-12.19,23.37-9.66,27.9-.21-.16-2.56.55-4.29-3.22,1.34-2.72.68-5.72,1.07-7.51,6.46-4.81,18.55-46.79,8.58-46.14.52-1.85,2.64-4.69,3.22-6.44,1.3-.11.95.81,1.07,1.07Z" style="fill:#460e35; stroke-width:0px;"/><path d="m244.66,281.33c3.18-14.49,2.79-29.76,7.51-44,.02-.9.79-1.12,1.07-2.15,9.96-.65-2.13,41.34-8.58,46.14Z" style="fill:#601543; stroke-width:0px;"/><path d="m261.83,226.61c-1.24,1.22-1.71,3.74-4.29,3.22-.13-.26.23-1.18-1.07-1.07,2.31-6.95,3.66-14.34,5.37-21.46,1.31,7.14.86,12.3,0,19.32Z" style="fill:#94536c; stroke-width:0px;"/><path d="m808.02,262.02c-5.26,1.66-10.72,3.14-16.1,4.29q4.83-16.63,9.66-33.27c2.56,9.58,4.02,19.39,6.44,28.97Z" style="fill:#48424f; stroke-width:0px;"/><path d="m823.04,289.92c2.91,1.01,6.65,5.2,7.51,7.51.77,2.06,1.16,4.2,1.07,6.44-.29,7.52-2.99,6.52-4.29,8.58-15.26,4.84-25.26-10.89-12.88-21.46.35-.06.73.06,1.07,0,1.07-.2,1.18-1.01,2.15-1.07.46-.03,5.11-.09,5.37,0Z" style="fill:#f1a7aa; stroke-width:0px;"/><path d="m823.04,329.62c-.41.84-6.2,7.33-8.58,8.05-.35,3.52,3.98.45,4.29.54.45,3.94,3.6,5.49,4.29,9.66,1.08,6.46-1.96,27.53-3.22,35.41-.78,4.91-2.23,10.09-3.22,15.02-.07.34.07.73,0,1.07-.48,2.36-1.58,4.97-2.15,7.51l-7.51-4.29c.34-1.25.34-5.14,1.07-7.51.24-.78,3.88-1.8,6.44-14.49-15.67,5.34-9.35-.49-20.39-2.68.57-5.73,5.97-40.28,7.51-42.92,8.39,2.33,7.44.36,9.66-1.07,2.27-1.47,10.59-13.76,12.88-17.17,2.18,3.36.59,9.47-1.07,12.88Z" style="fill:#f1a7aa; stroke-width:0px;"/><path d="m814.46,406.88c-1.76,7.85-4.19,15.87-6.44,23.61l-8.58,6.44c2.28-10.06,3.83-19.98,6.44-30.05.38-1.45.67-2.79,1.07-4.29l7.51,4.29Z" style="fill:#db7ca0; stroke-width:0px;"/><path d="m808.02,395.08c-2.3-4.42-8.79-1.34-12.88-1.07.49-6.68-1.69-9.9-1.07-16.1,11.04,2.19,4.72,8.03,20.39,2.68-2.55,12.69-6.2,13.7-6.44,14.49Z" style="fill:#db7ca0; stroke-width:0px;"/><path d="m808.02,395.08c-.73,2.37-.73,6.26-1.07,7.51-.41,1.5-.7,2.84-1.07,4.29-23.4,8.1-10.83-11.45-10.73-12.88,4.09-.27,10.57-3.35,12.88,1.07Z" style="fill:#873a5f; stroke-width:0px;"/><path d="m823.04,347.86c-.7-4.17-3.84-5.71-4.29-9.66,5.56,1.5,9.17,4.4,4.29,9.66Z" style="fill:#b94c81; stroke-width:0px;"/><path d="m292.95,259.87c2.46.16,4.06,1.11,6.44,1.07.4,7.54,4.11,20.5,1.61,25.75-6.58,4.52-13.96-8.96-46.68,11.8-2.42-1.35-4.37-4.88-6.44-6.44-2.54-4.53,6.81-17.54,9.66-27.9,12.07-2.26,23.02-5.08,35.41-4.29Z" style="fill:#322d3d; stroke-width:0px;"/><path d="m267.19,223.39c6.75,7.35-4.41,22.92,11.27,28.97,3.73,1.44,6.41-4.45,14.49,7.51-12.39-.79-23.34,2.04-35.41,4.29,3.7-13.47,5.91-22.25,0-34.34,2.58.52,3.05-2,4.29-3.22,4.83-4.75,5.15-2.99,5.37-3.22Z" style="fill:#7b6a6b; stroke-width:0px;"/><path d="m247.88,292.07c2.07,1.56,4.02,5.08,6.44,6.44-2.26,19.9-11.25,13.61-12.34,13.95-.75.23-3.12,9.73-10.19-2.15.77-13.79.82-9.93,7.51-19.32.12-.17.94.17,1.07,0,.12-.15,1.84.65,3.22-2.15,1.73,3.76,4.08,3.06,4.29,3.22Z" style="fill:#f1a7aa; stroke-width:0px;"/><path d="m754.37,162.22c.09.69-.08,1.45,0,2.15,2.56,21.82.88,45.26-6.44,65.99-6.32,17.92-11.2,23.99-10.73,0,.39-19.83,16.07-46.63-3.76-6.97,2.16-20.87,8.63-42,9.12-63.31,1.32.12,1.01-1.04,1.07-1.07,12.34-6.39,6.14,2.57,10.73,3.22Z" style="fill:#b8e2c6; stroke-width:0px;"/><path d="m626.67,429.42c-6.61,24.93,2.76,29.81,3.22,32.73,1.1,7.08-3.68,28.12-6.97,8.05-5.37,20.26-4.94-1.27-8.05,4.29-1.87,3.35.18,5.26-4.29,5.37-10.46.24-2.4-6.66-6.44-20.39.55-6.81,1.17-8.11,1.07-16.1q3.22-11.27,6.44-22.53c2.81-.5,14.41,3.45,15.02,4.83.12.28-4.19,4.6,0,3.76Z" style="fill:#dce3b6; stroke-width:0px;"/><path d="m590.19,474.49c-.28,4.3,1.36,8.42-2.15,9.12,7.94,3.85,1.65,15.48,5.9,22,0-29.57,11.98-32.88,13.95-5.37l2.68-20.39c4.47-.1,2.42-2.02,4.29-5.37,5.88,40.37-.88,28.31-4.83,28.97-.93.16-5.89,7.69-9.66-1.07-3.98,16.68-5.21.69-13.95,3.22-.6.17-6.73,9.5-9.12,2.68-.48-1.38.23-28.07,3.22-27.9.13-1.03-.78-1.49-1.07-3.76,1.69-7.6,5.8-5.62,10.73-2.15Z" style="fill:#b8e2c6; stroke-width:0px;"/><path d="m514,482c.79-.16,2.36-.12,3.22,0,12.88,1.8,9.49,19.03,9.66,26.83-1.16,2.7-19.56,1.34-20.39-.54.11-6.64-1.59-24.39,7.51-26.29Z" style="fill:#e4dcac; stroke-width:0px;"/><path d="m514,479.85v2.15c-9.11,1.9-7.4,19.65-7.51,26.29.83,1.88,19.23,3.24,20.39.54.04,1.77.09,2.41,0,4.29-24.17-7.44-19.32,10.23-10.73,24.68-11.58-3.78-4.24-29.02-11.8-27.9-.15-8.97-.27-16.55-3.22-25.22,5.79-4.35,3.97-6.41,4.29-12.34-2.41-34.23,1.15-21.94,2.15,4.83,2.28,2.92,5.61,2.38,6.44,2.68Z" style="fill:#1c222b; stroke-width:0px;"/><path d="m343.38,160.08c.8,17.89,5.21,35.29,6.44,53.12q-5.9-11.8-11.8-23.61c2.5,12.17,3.47,24.82,3.76,37.02-6.27-15.75-12.62-33.48-12.34-50.97h-2.15c2.58,10.72-.73,21.34,0,32.19.37,5.49,7.97,24.51,1.07,16.1-3.33-4.06-8.81-28.61-7.51-9.66.7,10.16,4.22,22.45,8.58,31.66-2.65,1.66,3.1,5.26-3.22,3.22-9.08-13.68-11.65-22.65-10.73-14.49.62,5.49,8.74,31.62,10.73,44,1.83,11.41,3.52,19.07-3.76,6.97,10.72,27.31-1.54,18.47-9.12,1.61-11.72-26.05-14.68-66.94-10.73-94.97,2.27-16.11,7.02-31.42,13.95-46.14,9.23.49,21.26,6.46,26.83,13.95Z" style="fill:#b8e2c6; stroke-width:0px;"/><path d="m442.1,409.03c11.24,10.31,11.92,24.67,13.95,38.63,2.97,6.77,14.23,4.47,17.17,12.88q-.27,10.73-.54,21.46c-17.65-15.46-6.94,4.2-13.95,3.22-8.06-24.03-1.52-.57-8.58-3.22-2.61-.98-2.41-8.48-3.22-10.73-2.57,1.96-1.63,5.51-2.68,8.58-14.92-10.5,17.39-41.91-7.51-71.9,2.11-1.71,3.37.43,5.37,1.07Z" style="fill:#b8e2c6; stroke-width:0px;"/><path d="m341.24,279.19v17.17c.15,2.85-.14,5.74,0,8.58-2.68,11.84.42,30.75-8.58,38.09-4.32-28.61-3.47-43.51,0-71.36,10.24,2.52,7.34,3.03,8.58,7.51Z" style="fill:#b8e2c6; stroke-width:0px;"/><path d="m449.62,489.51c.49,3.13-.35,7.37,0,10.73-4.93,5.93-10.75,1.01-8.58-13.41.57-3.76,3.14-4.55,3.22-4.83,3.7-1.09,4.87,4.36,5.37,7.51Z" style="fill:#b8e2c6; stroke-width:0px;"/><path d="m451.76,499.17c-.46.11-2.07.98-2.15,1.07-.35-3.36.49-7.6,0-10.73h1.07c-.43,3.78.35,6.21,1.07,9.66Z" style="fill:#6c7f66; stroke-width:0px;"/><path d="m248.95,334.99c2.77,1.92,3.39,6.07,9.66,0,2.63,2.29,2.92,5.82,3.22,6.44q3.22,23.88,6.44,47.75l-9.66-7.51c-1.73,5.05,3.04,13.74,3.22,14.49.15.62-.16,1.54,0,2.15-1.56,4.46-4.83,2.49-5.37,7.51l-2.15-1.07c1.7-6.32-2.08-5.02-2.15-5.37-2.1-11.38-6.65-22.57-9.66-34.34-.05-.21,1.15.46,0-4.29-.41-1.68-.7-3.64-1.07-5.37.81-3.5,2.36-11.46,3.22-13.95.06-.17,1.72.62,3.22-1.61-17.07-7.42-12.6-27.26-7.51-20.39.96,1.29.09,9.66,8.58,15.56Z" style="fill:#f1a7aa; stroke-width:0px;"/><path d="m272.56,391.86c-.45.37-8.84,3.61-10.73,4.29-.18-.74-4.95-9.44-3.22-14.49l9.66,7.51q-3.22-23.88-6.44-47.75c3.68,7.67,15.66,46.36,10.73,50.43Z" style="fill:#db7ca0; stroke-width:0px;"/><path d="m266.12,411.18c2.99,10.17,10.08,26.42,5.37,31.12-2.06-5.09-4.45-9.91-6.44-15.02-2.16-5.57-9.24-15.24-8.58-21.46.53-5.02,3.8-3.06,5.37-7.51,1.17,4.49,3.03,8.57,4.29,12.88Z" style="fill:#db7ca0; stroke-width:0px;"/><path d="m272.56,391.86c13.27,24.1,1.52,10.55-6.44,19.32-1.27-4.31-3.12-8.38-4.29-12.88-.16-.61.15-1.53,0-2.15,1.89-.69,10.29-3.92,10.73-4.29Z" style="fill:#9e2e6a; stroke-width:0px;"/><path d="m241.44,355.38c-.08-.35-3.12-3.05-3.22-6.44-.13-4.42-.68-4.49,3.22-6.44.22-.11,1.6.15,3.22-1.07-.86,2.49-2.41,10.45-3.22,13.95Z" style="fill:#db7ca0; stroke-width:0px;"/><path d="m302.61,192.27c-3.95,28.03-.99,68.91,10.73,94.97,7.59,16.86,19.84,25.7,9.12-1.61,7.28,12.09,5.59,4.43,3.76-6.97-1.99-12.37-10.11-38.5-10.73-44-.92-8.17,1.65.81,10.73,14.49,2.59,3.9,6.58,6.73,9.66,10.19.71,2.9-2.76,8.63-3.22,12.34-3.47,27.85-4.32,42.75,0,71.36,9-7.34,5.9-26.26,8.58-38.09.66,12.94,5.87,25.43,0,38.09-7.06,15.22-26.68,7.92-18.24,20.39,5.37,7.93,15.66,3.46,16.1,4.29-1.47,7.29-4.21,8.87-2.15,16.63,2.95,11.12,17.7,24.59,28.44,28.97h10.73c11.46-5.93,19.99,2.9,39.7-13.95-3.65,16.3,13.74-5.57,23.61,30.05,3.67-10.13-10.44-30.8-2.68-21.46,24.9,29.98-7.41,61.39,7.51,71.9-.18.52.16,1.56,0,2.15-.08.28-2.65,1.07-3.22,4.83-2.17,14.43,3.65,19.34,8.58,13.41.08-.09,1.68-.96,2.15-1.07.31,1.51.05,3.44,2.15,6.44-.21.12-.37,1.54-4.29,2.15-.23.03-.92-3.63-4.29-1.61.52,6.34-2,13.11,3.22,17.71-.54,1.48-2.05.91-3.22,2.68-1.25,5.08,5.29,12.48,0,13.41-32.55-25.45-35.66-55.63-42.92-94.43-.4-2.15-.56-4.43-1.61-6.44-.85.14-.6,6.22-.54,7.51,2.15,40.99,14.37,81.72,42.92,112.14-38.99-15.32-36.1-82.86-48.82-119.65.16,42.32,11.84,89.38,3.76,130.38,5.93,4.1,38.7,30.45,41.31,30.58,2.33.12,7.3-5.95,8.58-5.37,1.56.72,6.12,29.64,20.39,4.29.75.16,2.64,11.61,4.83,14.49,6.8,8.94,6.79-6.73,17.17,14.49-6.8,0-13.59,0-20.39,0-2.15-1.5-14.18-8.41-15.02-8.58,2.04-7.3-38.49-22.48-41.85-22.53-1.66-3.06-5.1-4.2-7.51-6.44-21.37-19.83-10.27-23.32-13.41-25.75-4.17,1.26-7.47,4.56-11.27,6.44-17.76,8.8-38.72,8.52-45.07,1.07-.08-.09-1.06-2.03-1.07-2.15-.56-5.13,7.82-9.97,6.44-13.41-.73-1.82-14.3.86,3.22-18.24-5-.85-30.38-11.92-30.05-16.1.2-2.51,27.34-18.76-30.05-9.12-12.35-6.95-14.1-9.95-6.44-20.39,1.86-2.54,8.9-7.2,10.73-11.8,2.24,2.41,14.48,12.54,12.34,4.29,17.86,11.82,5.3-20.44-9.66-8.58-10.85-12.05-10.18-33.32-18.78-27.9-.26-.59-.21-4.3-1.07-6.44,4.72-4.7-2.38-20.95-5.37-31.12,7.96-8.77,19.7,4.79,6.44-19.32,4.93-4.07-7.05-42.76-10.73-50.43-.3-.62-.59-4.15-3.22-6.44-2.27-1.98-.25-2.68-9.66,0-8.49-5.9-7.63-14.27-8.58-15.56-5.09-6.88-9.56,12.97,7.51,20.39-1.5,2.23-3.16,1.44-3.22,1.61-1.62,1.23-3,.96-3.22,1.07-1.9-2.98-6.9-10.46-7.51-12.34-.4-1.22-3.17-13.75-3.22-14.49-.02-.36.01-.72,0-1.07-.19-5.31,1.06-4.07,1.07-4.29,7.07,11.88,9.45,2.38,10.19,2.15,1.09-.34,10.08,5.95,12.34-13.95,32.72-20.76,40.1-7.28,46.68-11.8,2.5-5.25-1.21-18.22-1.61-25.75-.89-16.86-.45-33.48-4.29-49.9,3.87-7.86,1.51-22,7.51-18.78Z" style="fill:#141027; stroke-width:0px;"/><path d="m449.62,507.75c1.32,8.8,1.49,9.04-1.07,16.1-5.22-4.6-2.7-11.36-3.22-17.71,3.37-2.03,4.07,1.64,4.29,1.61Z" style="fill:#b8e2c6; stroke-width:0px;"/><path d="m300.46,293.14c3.27,7.49-7.84,9.05,3.22,9.12-4.73,13.63-.03,3.16,3.22,9.12-3.45-.28-3.46,21.11.54,23.61,1.14.71,3.54-4.11,5.9,2.15-1.77,9.74-7.62,8.8,3.22,5.9l-5.37,10.73c14.99-12.87.97-.26,9.66,15.02l-8.05,15.56c-1.02.24-5.04-7.13-5.9-8.58-6.02-10.14-8.45-21.38-6.44-.54,10.8,25.13,14.61,48.95,25.75,74.04l-1.07,3.76c-.68-.62-11.85-6.34-15.56-9.66-2.53-.62-4.64,1.62-8.05,1.07-4.58-.74-8.74-1.67-13.41-1.07-5.61-1.71-4.41-3.57-5.9-5.37,1.48-3.03,3.42-5.85,5.37-8.58,2.51-3.54,5.87-5.13,5.37-8.05-5.18-16.19-10.41-32.47-15.02-48.82,3.25-.38,4.29,7.32,5.9,8.58,5.26,4.12,12.56-23.61,11.27-27.9,8.64,15.33,2.24-.67,2.15-1.61-.04-.38,2.74-1.41,2.15-4.29-2.93-14.19-29.99-56.61,1.07-54.19Z" style="fill:#db7ca0; stroke-width:0px;"/><path d="m325.14,453.03c5.5,5.02,6.76,10.32,10.73,16.1.85,2.5,1.26,4.95,2.15,7.51-7.67,18.16,14.25,43.1-5.37,44-14.19-20.47-22.62-52.47-31.12-76.19,3.4.55,5.52-1.7,8.05-1.07,3.71,3.32,14.88,9.04,15.56,9.66Z" style="fill:#7b2451; stroke-width:0px;"/><path d="m295.09,353.23c1.29,4.29-6.01,32.02-11.27,27.9-1.61-1.26-2.65-8.96-5.9-8.58-4.59-16.29-10.21-32.3-13.95-48.82,5.9-9.49,9.74-16.44,18.24-24.14-.39,12.69,7.24,43.66,12.88,53.65Z" style="fill:#f4c2ac; stroke-width:0px;"/><path d="m338.02,421.91c1.85.69,3.55,3.15,4.29,4.83,3.12,7.1,18.76,49.71,21.46,58.48-9.72-1.12-9.28-24.73-16.1-5.9-.61,1.68,1.2,8.14-3.22,8.05-6.65-17.79-11.83-36.51-17.17-54.73,4.19.62.89-6.89,2.68-11.8,8.48,18.39,7.5,20.59,8.05,1.07Z" style="fill:#7b2451; stroke-width:0px;"/><path d="m363.77,485.22c1.22,3.96,8.68,25.93,8.58,27.36-.05.76-4.26,5.71-4.29,6.44-.16,3.29,5.21-2.12,5.37,1.07.1,1.91-5.04,11.12-6.97,11.27-4.79.36-19.76-38.02-22-44,4.42.1,2.61-6.37,3.22-8.05,6.82-18.83,6.37,4.78,16.1,5.9Z" style="fill:#7b2451; stroke-width:0px;"/><path d="m332.65,520.63c19.62-.89-2.3-25.84,5.37-44,14.52,41.91,23.98,52.27,23.61,55.26-.26,2.05-13.09,11.66-28.97-11.27Z" style="fill:#7b2451; stroke-width:0px;"/><path d="m338.02,421.91c-.55,19.52.43,17.32-8.05-1.07-1.79,4.92,1.51,12.42-2.68,11.8-2.61-8.91-5.03-17.88-7.51-26.83,2.87-5.04,5.79-14.87,6.44-20.39-.71,4.55,4.16-.55,5.37,1.61.58,1.05-.41,10.27,0,13.95.44,1.03,10.64-11.7,1.07,13.95,9.73-9.94,5.62-2.25,5.37,6.97Z" style="fill:#b94c81; stroke-width:0px;"/><path d="m306.9,375.76c9.25,31.18,18.51,62.56,28.97,93.36-3.97-5.78-5.23-11.08-10.73-16.1l1.07-3.76c-11.14-25.09-14.95-48.91-25.75-74.04-2.01-20.84.42-9.6,6.44.54Z" style="fill:#ec94ab; stroke-width:0px;"/><path d="m288.66,480.93c-3.35-3.61-9.71-15.59-11.8-20.39-.25-.58-1.62-5.65-4.29-11.8,8.6-5.42,7.93,15.85,18.78,27.9,14.95-11.86,27.52,20.4,9.66,8.58,2.14,8.24-10.1-1.88-12.34-4.29Z" style="fill:#460e35; stroke-width:0px;"/><path d="m300.46,293.14c-31.07-2.42-4,40-1.07,54.19.6,2.88-2.18,3.91-2.15,4.29.09.94,6.49,16.94-2.15,1.61-5.63-10-13.27-40.96-12.88-53.65,4.79-4.34,14.41-15.23,18.24-6.44Z" style="fill:#b94c81; stroke-width:0px;"/><path d="m326.21,385.42c-.65,5.52-3.57,15.35-6.44,20.39-1.51-5.47-7.15-15.32-6.44-19.85,1.09-7,16.06-27.6,12.88-.54Z" style="fill:#cc5d8e; stroke-width:0px;"/><path d="m306.9,311.38c4.8,8.82,1.53,14.3,2.15,18.78.58,4.17,6.5-5.18,4.29,6.97-2.37-6.25-4.76-1.43-5.9-2.15-4-2.49-3.98-23.89-.54-23.61Z" style="fill:#db7ca0; stroke-width:0px;"/><path d="m287.58,429.42c-1.94,2.74-3.89,5.55-5.37,8.58-8.59-10.37-9.19-21.86,5.37-8.58Z" style="fill:#7b2451; stroke-width:0px;"/><path d="m258.61,334.99c-6.27,6.07-6.89,1.92-9.66,0,9.41-2.68,7.38-1.98,9.66,0Z" style="fill:#cc5d8e; stroke-width:0px;"/><path d="m402.4,445.51l-2.15,1.07c-.07-1.29-.31-7.37.54-7.51,1.05,2,1.21,4.28,1.61,6.44Z" style="fill:#7d7982; stroke-width:0px;"/><path d="m571.95,627.94c-9.66,0-19.32,0-28.97,0-11.76-9.54-11.07-10.41-13.41-24.68-3.83,31.72-10.38,12.82-13.41,24.68-8.58,0-17.17,0-25.75,0-10.38-21.22-10.37-5.54-17.17-14.49-2.19-2.88-4.08-14.33-4.83-14.49-14.27,25.35-18.83-3.58-20.39-4.29-1.29-.59-6.25,5.49-8.58,5.37-2.61-.13-35.38-26.48-41.31-30.58,8.08-41-3.6-88.06-3.76-130.38,12.72,36.78,9.83,104.32,48.82,119.65-28.55-30.41-40.77-71.14-42.92-112.14l2.15-1.07c7.26,38.8,10.38,68.98,42.92,94.43,1.51,1.18,4.62,5.96,9.66,7.51,2.11,11.35,9.69,19.99,14.49,30.05.32-8.52-6.3-29.4,1.07-25.75,1.59.78-1.6,11.51,22.53,25.75q-1.61-13.95-3.22-27.9c4.2,11.49,22.37,40.4,15.56,9.12-.28-1.29-8.85-11.4-6.44-18.24,3.8-10.78,3.87,9.5,15.02,22.53,2.74,35.76,2.49-15.74,5.37-23.61-1.01-.62-3.13-1.45-3.22-1.61-8.59-14.45-13.44-32.12,10.73-24.68-.41,8.6,2.39,18.63-4.29,25.22.87,2.11,11.29,19.19,12.34,18.78,1.81-23.05,11.78-21.43,8.05-3.76-.89,4.22-11.88,22.43-13.95,31.12,23.3-28.99,23.11-42.99,19.85-2.68,25.31-24.1,19.82-35.97,20.92-39.17,1.28-3.69,6.63-6.36,5.37,4.29-.53,4.45-9.04,19.86-9.66,30.05,17.85-19.4,21.84-28.38,12.34,4.83q7.51-9.12,15.02-18.24-3.76,12.34-7.51,24.68c2.03-4.54,15.28-17.59,15.56-18.78,1.16-4.86-4.82-16.73,2.68-3.76q18.24-19.32,36.48-38.63c3.63.9-12.64,20.7-7.51,18.24,27.88-32.41,38.4-65.95,46.14-107.31-1.8,44.37-11.91,88.71-32.73,128.23l1.61.54c23.72-20.5,16.64-33.34,19.85-48.82,5.21-25.09,10.73-50.3,17.17-75.11-1.69,43.27-19.87,85.46-10.73,128.77-8.68,4.53-58.07,38.11-61.7,38.09-7-.03-5.61-10.23-6.44-10.73-3.8,3.58-8.86,17.25-15.02,16.1-6.55-1.23-9.07-25.52-4.83,2.68q-6.97,5.1-13.95,10.19Z" style="fill:#b8e2c6; stroke-width:0px;"/><path d="m542.97,627.94c-3.22,0-6.44,0-9.66,0-2.81-5.09-5.41-5.01-8.58,0-2.86,0-5.72,0-8.58,0,3.03-11.86,9.58,7.04,13.41-24.68,2.34,14.28,1.65,15.14,13.41,24.68Z" style="fill:#131421; stroke-width:0px;"/><path d="m405.08,521.7c4.82,16.47,7.53,34.01,10.73,50.43-17.19-14.74,13.75,15.06-4.29,5.37-11.96-6.42-.88-13.13-2.68-23.07q-1.88-16.36-3.76-32.73Z" style="fill:#131421; stroke-width:0px;"/><path d="m655.11,518.48c-2.65,18.51-13,33.02-27.9,44l27.9-44Z" style="fill:#131421; stroke-width:0px;"/><path d="m662.62,560.33c.91-.03,4.98,11.69,4.83,12.34-.54,2.35-36.77,26.72-4.83-12.34Z" style="fill:#131421; stroke-width:0px;"/><path d="m442.64,548.53c2.81,1.87,7.3,5.42,9.12,8.05,10.29,14.84-7.67-2.03-9.12-8.05Z" style="fill:#1a2d29; stroke-width:0px;"/><path d="m658.86,367.18c-.06.39,1.72,2.05,1.07,5.9-1.22,2.86-42.16,16.87-44.53,16.63-4.5-.46-1.34-7.48-8.05-1.61-10.19,8.91,1.55,7.9,2.15,8.58.58.67,1.31,14.73,4.29,17.17l-2.15,6.97q-3.22,11.27-6.44,22.53c-.15-12.69-.8-25.16-3.76-37.56-11.61,41.19-7.2,41.57-9.12-4.83,2.83-9.8,14.79-19.13,15.02-20.39.58-3.1-6.44-9.08-6.44-9.66.01-.94,10.17-7.22,15.02-11.27,34.25-1.63,32.03,10.05,33.8,10.73.52.2,7.38-2.58,9.12-3.22Z" style="fill:#141027; stroke-width:0px;"/><path d="m329.43,245.92c-4.37-9.2-7.89-21.5-8.58-31.66-1.3-18.95,4.18,5.6,7.51,9.66,6.9,8.42-.7-10.6-1.07-16.1-.73-10.85,2.58-21.48,0-32.19h2.15c-.28,17.49,6.07,35.22,12.34,50.97-.28-12.21-1.25-24.85-3.76-37.02q5.9,11.8,11.8,23.61c-1.23-17.83-5.64-35.23-6.44-53.12-.6-13.31-1.54-27.39,6.44-39.17-8.93,23.03-1.26,48.83,5.37,70.82,1.21-35.7,5.56.11,3.22,15.02-.86,5.48-18.53,47.45-20.39,49.36-3.26,3.35-7.59-8.1-8.58-10.19Z" style="fill:#141027; stroke-width:0px;"/><path d="m575.17,259.87c-.82,11.9-1.45,12.97-1.07,26.83.24,8.79-.98,16.83,2.68,25.75-6.8-6.84-10.31-15.17-14.49-23.61-4.42-8.95-16.17-40.42-19.32-44l3.22-1.07c7.54,5.11,28.38,17.55,23.61-1.07,9.59,2.5,5.9,9.38,5.37,17.17Z" style="fill:#141027; stroke-width:0px;"/><path d="m457.13,375.76c-1,1.84-1.7,9.24-2.68,9.66-13.22-4.63-42.77,2.07-46.14-13.95,8.9,10.95,13.92,1.78,7.51-2.15-1.1-.68-4.6,1.22-5.9-1.07,20.03-8.93,33.8-14.54,53.65-1.61.3,1.39-3.96,4.55-6.44,9.12Z" style="fill:#141027; stroke-width:0px;"/><path d="m509.71,222.32c-.24,1.3-11.03,16.99-12.88,19.32-1.1,1.39-4.58,4.2-6.44,6.44-.68.82-2.06,1.84-3.22,3.22-4.31,5.1-9.54,9.92-13.95,15.02l-2.15-1.07c.75-.92,1.41-2.28,2.15-3.22,13.36-17.09,15.35-17.27,1.07-40.24,11.36-14.6,28.02-19.65,35.41.54Z" style="fill:#b8e2c6; stroke-width:0px;"/><path d="m532.24,240.56c.03,8.6.3,17.22-1.07,25.75-.46,2.87-.46,6.19-1.07,9.12-3,4.19-8.05,6.12-11.8,9.12-4.94,3.95-11.79,10.55-18.24,9.66,6.26-14.32,9.35-30.7,18.24-44,5.08-7.6,3.62-9.64,13.95-9.66Z" style="fill:#b8e2c6; stroke-width:0px;"/><path d="m598.77,281.33l-2.15,1.07c-6.39-6.24-10.27-10.48-16.1-17.17-1.66-1.9-2.91-4.27-5.37-5.37.54-7.79,4.22-14.67-5.37-17.17-1.43-5.58-10.2-15.52-10.73-23.61,6.57-14.77,23.68-7.5,32.19,1.61.2,1.98-12.3,7.7-12.88,36.48,6.48,7.1,13.88,17.62,20.39,24.14Z" style="fill:#b8e2c6; stroke-width:0px;"/><path d="m542.97,244.85c3.14,3.58,14.89,35.05,19.32,44-6.93-7.06-5.32-3.98-11.8,2.15-2.89-4.98-12.42-15.79-13.41-15.02-.49.38-1.88,16.47-5.9,6.97-1.16-2.74,2.05-12.98,2.15-16.63.24-8.93-.17-17.89,0-26.83,2.83.35,7.57,2.99,9.66,5.37Z" style="fill:#b8e2c6; stroke-width:0px;"/><path d="m496.83,241.63c-3.97,19.18,12.47,9.02,21.46,3.22v5.37c-8.89,13.3-11.98,29.68-18.24,44-.96,2.2-4.01,6.21-5.37,8.58,3.24-14.24,2.45-34.67,0-21.46q-2.15-16.63-4.29-33.27c1.86-2.23,5.34-5.05,6.44-6.44Z" style="fill:#141027; stroke-width:0px;"/><path d="m449.62,341.43c.31-.12.76.12,1.07,0l2.15,3.22c-14.04,5.66-40.64,12.94-55.8,16.1-5.95,1.24-6.48-.15-7.51,0-.86.13-1.81-.09-2.68,0-1.3.6,1.04,1.57.54,2.15-2.94,3.41-3.95,6.2-6.44,9.66,2.69-16.89-5.15,4.44-12.88-6.97-1.65-2.44-12.11-22.3-6.97-22,.98.06,5.78,6.5,6.97,7.51,12.46,10.53,23.92,13.45,9.66,5.37l3.22-2.15c9.61,2.6,7.62-.92,12.88-5.37.26-.22,1.94-.88,2.15-1.07l2.15,1.07c-1.46,1.62-3.79,4.05-4.29,5.9,1.37,2.53,50.41-11.3,55.8-13.41Z" style="fill:#dce3b6; stroke-width:0px;"/><path d="m474.3,395.08c2.64,8.66-7.98,30-8.58,40.24-2.11-7.45-.87-15.47-1.07-23.07-.2-7.43.93-13.69-2.15-20.92l11.8,3.76Z" style="fill:#131421; stroke-width:0px;"/><path d="m610.58,479.85l-2.68,20.39c-1.97-27.51-13.94-24.2-13.95,5.37-4.25-6.52,2.03-18.15-5.9-22,3.5-.7,1.86-4.82,2.15-9.12.65-9.87-.54-11.4,2.15,3.76,14.94,6.97,10.35-.93,11.8-18.78,4.03,13.73-4.02,20.63,6.44,20.39Z" style="fill:#131421; stroke-width:0px;"/><path d="m393.82,380.06c-3.18,3.03-14.59,11.92-17.17,4.83-1.73-4.74,3.14-7.62,3.22-8.05,5.41-2.39,10.09.35,13.95,3.22Z" style="fill:#131421; stroke-width:0px;"/><path d="m494.69,302.8c-1.08,1.89-.77,6.8-4.29,4.29,3.05-8.83,2.74-14.72,2.15-23.61,1.04-.1,1.96-1.15,2.15-2.15,2.45-13.2,3.24,7.22,0,21.46Z" style="fill:#cdcab7; stroke-width:0px;"/><path d="m452.84,418.69c4.27,9.09,3.09,19.24,3.22,28.97-2.03-13.96-2.71-28.32-13.95-38.63,3.31,1.06,8.45,4.81,10.73,9.66Z" style="fill:#1d261b; stroke-width:0px;"/><path d="m663.16,53.84c41.96,21.75,84.45,58.99,91.21,108.38-4.59-.65,1.61-9.61-10.73-3.22l-.54-10.73c-.46,3.96-1.03,7.86-1.61,11.8-.74,5.01-1.11,10.04-2.15,15.02l-8.58-3.22c2.39-17.16,4.59-33.95-3.76-50.43-3.13.57,13.25,22.2-16.1,59.02,14.93-38.24-3.26-8.8-5.9,1.61-9.1,35.85,33.3,53.85,34.34,101.41-3.63.2.42,4.53-9.66,3.22-1.52-23.5-.67-.02-1.07,9.12-1.38,31.51-14.3,43.77,15.02,69.75-29.11,9.56-11.36,6.74-10.73,16.63q-8.85-6.44-17.71-12.88c-1.51.89,1.94,4.64,3.76,6.44-1.26,11.76-17.67-12.23-20.39-18.24,6.44-5.51,9.03-10.68,11.8-18.24.08-.22,3.62-1.04,1.61-4.29-1.34,1.66-1.48,4.11-1.61,4.29-6.78,9.57-14.14,18.79-24.68,24.68.07-1.54-1.14-.91-2.15-1.07-.13-.02-.73-2.02-1.61-2.15-5.1-.76-10.89-.13-16.1-1.07-49.21-8.87-52.13-14.74-84.24-34.34-.93-.9-2.07-4.41-4.29-2.68,2.45,3.26,4.08,2.55,4.29,2.68,23.65,22.87,46.93,29.86,79.41,35.41.91,6.37-2.09,6.1-2.15,6.44-1.75.64-8.6,3.42-9.12,3.22-1.77-.68.45-12.36-33.8-10.73,7.93-6.62-10.68-3.19-4.83,0l5.37-2.15-.54,2.15c-4.85,4.05-15.01,10.33-15.02,11.27,0,.58,7.02,6.56,6.44,9.66-.23,1.26-12.19,10.59-15.02,20.39,1.92,46.39-2.49,46.02,9.12,4.83,2.96,12.39,3.61,24.87,3.76,37.56.09,7.99-.52,9.28-1.07,16.1-1.45,17.85,3.14,25.75-11.8,18.78-2.69-15.16-1.5-13.63-2.15-3.76-4.93-3.48-9.04-5.45-10.73,2.15-.16-1.19-3.81-9.54-4.83-23.61-4.17,17.92,1.19,32.37-13.95,27.9-5.57-1.64-1.64-6.56-7.51-4.29q-1.07-11.27-2.15-22.53l-.54,24.14c-8.95,4.12-13.14-11.39-19.85,1.61v-24.68c-6.19,26.62,3.84,29.53-13.41,25.75-.17-.04-2.68-.87-3.22-1.07-.83-.31-4.16.23-6.44-2.68-1-26.77-4.56-39.06-2.15-4.83-12.93-6.22-10.8-.4-11.8,2.15-.43,1.09.44,4.07,0,4.83-6.68,11.52-6.43-29.15-7.51,0-.85,1.54-4.76-2.62-11.27,2.68.12-6.56.55-15.27-1.61-21.46-2.94-8.41-14.2-6.11-17.17-12.88-.13-9.74,1.05-19.88-3.22-28.97,3.37-2.92,7.41-6.8,11.8-6.44.2,7.6-1.04,15.62,1.07,23.07.61-10.24,11.22-31.58,8.58-40.24q-8.58-9.66-17.17-19.32c2.48-4.57,6.74-7.73,6.44-9.12-19.86-12.93-33.62-7.32-53.65,1.61-.5-.87,1.66-7.19,2.15-8.58,28.79-7.47,68.98-19.74,85.31-46.14-15.87,14.31-24.08,22.88-44.53,31.12l-2.15-3.22c14.74-5.93,34.29-18.63,39.7-34.34,3.52,2.51,3.21-2.4,4.29-4.29,1.36-2.37,4.4-6.38,5.37-8.58,6.45.89,13.3-5.71,18.24-9.66-9.15,15.67-28.08,70.88-28.97,85.31-.84,13.6,3.99,49.12,21.46,50.97-2.39,5.62.54,5.06,1.07,8.58,1.42,9.36,3.16,31.77,6.44,7.51,5.67,1.19,8.2-.64,13.95,0l.54,5.37c1.41-.9,1.44-5.14,1.61-5.37,4.52-5.82,7.12-4.03,7.51-4.29.79,11.66,27.57-12.77,7.51-4.29l3.22-7.51c9.33,1.1,14.98-7.63,18.24-15.02,2.07-4.69,3.54-8.88,4.29-13.95,3.03-20.31-.39-37.74-6.44-56.87-1.31-4.15-16.9-41.69-18.24-44,6.48-6.12,4.88-9.21,11.8-2.15,4.17,8.44,7.69,16.76,14.49,23.61-3.66-8.92-2.45-16.96-2.68-25.75h1.07c.73,28.93,15.61,45.13,41.31,55.8,39.2,16.27,84.2,23.89,96.04-26.83,6.56-28.08,9.2-58.86-15.02-78.33-23.63-19-68.73-28.98-98.19-21.46-10.28-11.82-41.72-19.15-40.24,3.22.53,8.09,9.3,18.03,10.73,23.61,4.77,18.62-16.07,6.18-23.61,1.07-3.91-2.65-6.76-5.95-11.8-6.97-.76-7.1,1.04-22.74,0-26.83-1.19-4.65-31.92-31.63-2.15,1.07-.75,24.9,2.53,23.18-13.95,33.8-8.99,5.8-25.43,15.96-21.46-3.22,1.85-2.33,12.63-18.02,12.88-19.32,3.19-17.09-18.38-29.51-41.31-6.44-27.05-5.54-77.85,8.32-99.26,24.68-18.04,13.78-21.32,29.78-19.32,51.51.46,4.94,1.06,8.09,2.15,12.88.13,16.07,12.3,44.85,28.97,49.36l-3.22,2.15c-3.19-1.81-6.51-3.46-9.66-5.37-1.19-1.01-6-7.45-6.97-7.51-5.13-.3,5.32,19.55,6.97,22,7.72,11.41,15.57-9.92,12.88,6.97-.25,1.56-.79,2.74-1.07,4.29-.08.43-4.95,3.31-3.22,8.05,2.58,7.09,13.99-1.8,17.17-4.83,6.53,4.85,3.1,7.45-3.22,11.8-7.15,4.92-9.98,3.86-11.8,4.29-2.74.64-8.09-.66-10.73,0-10.2-8.03-.87-15.32,4.29-23.07-2.28.44-6.41,5.02-7.51,6.97-6.28-1.41-3.98-4.11-4.29-4.29-3.53-2.06-7.52,2.33-10.73-1.61,11.09-15.43-6.33,2.5-10.73,9.12-.07.1-1.69.96-2.15,1.07-2.06-7.76.68-9.34,2.15-16.63-.43-.83-10.73,3.63-16.1-4.29-8.44-12.46,11.19-5.17,18.24-20.39,5.87-12.66.66-25.16,0-38.09-.14-2.85.15-5.74,0-8.58-.34-6.5,2.09-9.68,0-17.17-1.25-4.48,1.66-4.99-8.58-7.51.46-3.71,3.93-9.44,3.22-12.34-3.08-3.46-7.07-6.3-9.66-10.19,6.32,2.05.57-1.56,3.22-3.22.99,2.09,5.33,13.55,8.58,10.19,1.86-1.91,19.53-43.88,20.39-49.36,2.34-14.91-2.01-50.72-3.22-15.02-6.63-21.99-14.29-47.8-5.37-70.82-7.98,11.78-7.04,25.85-6.44,39.17-5.56-7.48-17.59-13.46-26.83-13.95,19.79-42.06,68.52-83.26,110.53-101.94,76.17-33.88,162.46-28.5,236.08,9.66Z" style="fill:#e4dcac; stroke-width:0px;"/><path d="m743.64,159c-.07.03.25,1.19-1.07,1.07h-1.07c.58-3.94,1.15-7.84,1.61-11.8l.54,10.73Z" style="fill:#6c7f66; stroke-width:0px;"/><path d="m517.22,480.93v1.07c-.86-.12-2.43-.16-3.22,0v-2.15c.54.2,3.05,1.04,3.22,1.07Z" style="fill:#757958; stroke-width:0px;"/><path d="m393.82,348.94c-5.26,4.44-3.27,7.96-12.88,5.37-16.67-4.51-28.84-33.29-28.97-49.36,4.77,21.04,17.33,43.79,41.85,44Z" style="fill:#141027; stroke-width:0px;"/><path d="m683.55,362.89c-7.39-.46-15.25-.9-22.53-2.15-32.48-5.56-55.76-12.54-79.41-35.41,32.1,19.6,35.02,25.46,84.24,34.34,5.21.94,11,.31,16.1,1.07.88.13,1.48,2.13,1.61,2.15Z" style="fill:#1d261b; stroke-width:0px;"/><path d="m412.06,359.67c-5.1,1.32-10.5,2.37-15.56,3.22l.54-2.15c15.16-3.15,41.76-10.44,55.8-16.1,20.45-8.24,28.66-16.81,44.53-31.12-16.33,26.4-56.52,38.68-85.31,46.14Z" style="fill:#1d261b; stroke-width:0px;"/><path d="m546.19,243.78l-3.22,1.07c-2.09-2.38-6.82-5.02-9.66-5.37-1.32-.16-1,1.07-1.07,1.07-10.33.02-8.87,2.06-13.95,9.66v-5.37c16.48-10.62,13.2-8.9,13.95-33.8-29.78-32.7.96-5.72,2.15-1.07,1.04,4.09-.76,19.72,0,26.83,5.05,1.02,7.89,4.33,11.8,6.97Z" style="fill:#10191d; stroke-width:0px;"/><path d="m575.7,414.4q-5.9,17.17-11.8,34.34c-5.25-20.92.43-19.19,11.8-34.34Z" style="fill:#131421; stroke-width:0px;"/><path d="m490.93,413.32q7.78,6.17,15.56,12.34-1.34,9.39-2.68,18.78-6.44-15.56-12.88-31.12Z" style="fill:#141027; stroke-width:0px;"/><path d="m575.17,391.86c-1.89-15-1.12-30.58-6.44-45.07v-11.8c6.05,19.13,9.46,36.57,6.44,56.87Z" style="fill:#261129; stroke-width:0px;"/><path d="m482.34,342.5c-4.76,11.71-24.78,14-35.95,12.34-.31-1.9,33.21-6.74,35.95-12.34Z" style="fill:#10191d; stroke-width:0px;"/><path d="m360.55,375.76c-6.31,2.51-16.78,9.99-21.46,7.51,4.4-6.62,21.82-24.55,10.73-9.12,3.21,3.94,7.2-.45,10.73,1.61Z" style="fill:#131421; stroke-width:0px;"/><path d="m586.43,343.57c15.36,14.79,12.12,6.44,13.95,7.51,19.56,11.4-5.27,12.28-13.95-7.51Z" style="fill:#10191d; stroke-width:0px;"/><path d="m572.48,184.76c2.22-.19,1.83.78,0,2.15-2.1,1.57-26.43,15.3-33.8,19.85,9.72-9.5,21.93-15.64,33.8-22Z" style="fill:#303025; stroke-width:0px;"/><path d="m518.29,436.93c-3.28,24.26-5.02,1.85-6.44-7.51l6.44,7.51Z" style="fill:#131421; stroke-width:0px;"/><path d="m541.9,432.64c.9-.59,6.82-4,7.51-4.29,20.06-8.48-6.72,15.95-7.51,4.29Z" style="fill:#131421; stroke-width:0px;"/><path d="m698.57,357.52c-3.42,2.93-7.97,4.39-11.27,7.51l-1.61-1.07c10.54-5.89,17.9-15.11,24.68-24.68-2.78,7.56-5.37,12.73-11.8,18.24Z" style="fill:#1a2d29; stroke-width:0px;"/><path d="m371.82,191.2c3.06,3.33-3.77,31.48-5.37,31.12q2.68-15.56,5.37-31.12Z" style="fill:#716643; stroke-width:0px;"/><path d="m377.72,356.45c14.26,8.09,2.81,5.16-9.66-5.37,3.15,1.91,6.46,3.55,9.66,5.37Z" style="fill:#2c3a2b; stroke-width:0px;"/><path d="m341.24,296.36v-17.17c2.09,7.49-.34,10.67,0,17.17Z" style="fill:#6c7f66; stroke-width:0px;"/><path d="m615.94,359.67l.54-2.15-5.37,2.15c-5.85-3.19,12.76-6.62,4.83,0Z" style="fill:#1d261b; stroke-width:0px;"/><path d="m581.6,325.33c-.22-.13-1.84.57-4.29-2.68,2.23-1.73,3.36,1.79,4.29,2.68Z" style="fill:#1d261b; stroke-width:0px;"/><path d="m710.37,339.28c.13-.19.27-2.63,1.61-4.29,2.01,3.25-1.53,4.08-1.61,4.29Z" style="fill:#1a2d29; stroke-width:0px;"/><path d="m634.18,415.47c.14-.19-.07-2.03,2.15-4.29,5.72-5.83,13.94-9.16,22-7.51,17.85,3.66-9.74.96-22,27.36-7.2,32.16-6.76-2.09-2.15-15.56Z" style="fill:#b8e2c6; stroke-width:0px;"/><path d="m718.96,375.76c3.6,3.57,9.09,5.01,11.8,9.66-3.39,7.74-21.65,26.13-29.51,27.9-17.72,4-30.33-10.47-38.63-11.8-10.76-1.73-31.07,3.73-26.29,9.66-2.22,2.26-2,4.1-2.15,4.29-3.31,4.43-6.07,8.52-7.51,13.95-4.19.85.12-3.48,0-3.76-.61-1.37-12.22-5.33-15.02-4.83l2.15-6.97c-2.98-2.44-3.71-16.5-4.29-17.17-.6-.69-12.34.33-2.15-8.58,6.71-5.87,3.54,1.15,8.05,1.61,2.38.24,43.32-13.77,44.53-16.63.65-3.85-1.13-5.51-1.07-5.9.05-.34,3.06-.06,2.15-6.44,7.28,1.25,15.14,1.69,22.53,2.15,1.01.16,2.21-.46,2.15,1.07l1.61,1.07c3.3-3.12,7.84-4.58,11.27-7.51,2.72,6.01,19.13,30,20.39,18.24Z" style="fill:#b8e2c6; stroke-width:0px;"/><path d="m732.91,382.2c.08,1.22-2.07,3.04-2.15,3.22-2.71-4.64-8.21-6.08-11.8-9.66-1.81-1.8-5.27-5.55-3.76-6.44q8.85,6.44,17.71,12.88Z" style="fill:#10191d; stroke-width:0px;"/><path d="m676.57,370.4c3.81-.09,9.33,8.97,6.44,9.66q-8.85-1.88-17.71-3.76c2.21-.6,10.63-5.89,11.27-5.9Z" style="fill:#131421; stroke-width:0px;"/><path d="m633.65,397.23q-6.44,9.66-12.88,19.32c-3.31-12.96,3.48-13.13,12.88-19.32Z" style="fill:#131421; stroke-width:0px;"/><path d="m659.4,381.13l1.07,6.44c-1.63-6.81-9.94.47-16.1,2.15-29.57,8.07,6.66-6.64,15.02-8.58Z" style="fill:#10191d; stroke-width:0px;"/><path d="m679.79,400.45c4.46,1.09,12.28,1.32,15.02,2.15,19.26,5.79-1.04,8.29-15.02-2.15Z" style="fill:#10191d; stroke-width:0px;"/><path d="m662.62,389.71l15.56,13.41c-5.77.09-15.22-7.34-15.56-13.41Z" style="fill:#1d261b; stroke-width:0px;"/><path d="m730.76,171.88c-2.52,18.09-9.83,35.97-5.9,54.73,3.96-17.38,10.85-34.05,14.49-51.51,1.04-4.98,1.41-10.02,2.15-15.02h1.07c-.49,21.31-6.96,42.44-9.12,63.31,19.83-39.66,4.15-12.85,3.76,6.97-.47,23.99,4.41,17.92,10.73,0,7.32-20.74,9-44.18,6.44-65.99l2.15-2.15c1.8,5.84,5.96,11.59,7.51,17.71,6.03,23.69,7.67,48.03,5.37,72.43-.97,10.25-3.78,20.03-5.9,30.05,2.31,1.47,24.69-24.71,44,11.8,3.44.16,3.59-2.59,6.97-3.22-12.38,10.57-2.38,26.3,12.88,21.46-3.05,4.84-3.04,4.03-3.22,4.29-2.29,3.41-10.61,15.7-12.88,17.17-4.47-2.49-6.8-3.84-9.66,1.07-1.54,2.65-6.94,37.19-7.51,42.92-.61,6.2,1.56,9.42,1.07,16.1-.1,1.43-12.67,20.97,10.73,12.88-2.6,10.07-4.16,19.99-6.44,30.05-1.58,6.98-5.66,36.06-11.8,39.17-1.11.56-11.33-5.93-15.56-3.76-5.7,2.92-7.46,26.83,13.95,10.73,10.29-7.74,18.3-39.89,22-52.58,2.25-7.74,4.68-15.76,6.44-23.61.57-2.54,1.67-5.16,2.15-7.51,20.34,19.82,25.89,13.28,27.36,13.95,1.82.83,9.17,12,9.12,13.41-.12,3.65-25.93,29.93-26.83,38.09-.56,5.08,1.5,9.94,1.61,15.02,2.24,1.68,31.82-28.63,34.87-31.12,12.76-10.37,32.93-10.75,33.27-8.05-12.58,15.87-41.64,54.8-55.26,64.92-7.37,5.48-42.1,15.86-53.65,19.32-4.35,1.3-15.91,1.54-20.39,3.22-17.86,6.69.65,19.49,18.24,12.88,3.15,4.77-6.59,8.6-5.9,11.27,1.41,5.46,19.4-12.6,23.61,10.19-22.83,22.02-43.28,31.79-75.11,35.41-9.63,1.1-13.25-5.6-35.95,8.58q-29.78,2.15-59.56,4.29c-4.78-2.75-15.7,11.26-16.63,11.8-1.14.67-8.93-.52-8.05,3.22-1.25.34-3.86.53-4.29,2.15-10.37,0-20.75,0-31.12,0q6.97-5.1,13.95-10.19c-4.24-28.2-1.72-3.91,4.83-2.68,6.17,1.16,11.22-12.51,15.02-16.1.83.5-.56,10.7,6.44,10.73,3.63.02,53.02-33.57,61.7-38.09-9.14-43.31,9.04-85.5,10.73-128.77-6.44,24.82-11.96,50.02-17.17,75.11-3.22,15.49,3.87,28.32-19.85,48.82l-1.61-.54c20.82-39.52,30.92-83.86,32.73-128.23-7.74,41.35-18.27,74.9-46.14,107.31-5.13,2.46,11.14-17.34,7.51-18.24q-18.24,19.32-36.48,38.63c-7.51-12.97-1.52-1.1-2.68,3.76-.28,1.19-13.53,14.24-15.56,18.78q3.76-12.34,7.51-24.68-7.51,9.12-15.02,18.24c9.5-33.21,5.51-24.23-12.34-4.83.62-10.18,9.13-25.6,9.66-30.05,1.27-10.65-4.08-7.98-5.37-4.29-1.11,3.19,4.38,15.07-20.92,39.17,3.26-40.3,3.44-26.3-19.85,2.68,2.07-8.69,13.06-26.9,13.95-31.12,3.73-17.67-6.24-19.3-8.05,3.76-1.05.41-11.47-16.67-12.34-18.78,6.68-6.59,3.88-16.62,4.29-25.22.09-1.88.04-2.52,0-4.29-.17-7.8,3.23-25.02-9.66-26.83v-1.07c17.25,3.78,7.23.87,13.41-25.75v24.68c6.71-13,10.91,2.51,19.85-1.61l.54-24.14q1.07,11.27,2.15,22.53c5.88-2.27,1.94,2.65,7.51,4.29,15.14,4.47,9.78-9.98,13.95-27.9,1.02,14.07,4.67,22.41,4.83,23.61.29,2.26,1.2,2.73,1.07,3.76-2.98-.17-3.7,26.52-3.22,27.9,2.39,6.82,8.53-2.51,9.12-2.68,8.74-2.53,9.97,13.46,13.95-3.22,3.77,8.77,8.73,1.23,9.66,1.07,3.95-.66,10.71,11.4,4.83-28.97,3.11-5.56,2.68,15.97,8.05-4.29,3.3,20.07,8.08-.97,6.97-8.05-.46-2.92-9.82-7.8-3.22-32.73,1.44-5.43,4.2-9.52,7.51-13.95-4.62,13.47-5.05,47.72,2.15,15.56,12.26-26.41,39.84-23.7,22-27.36-8.06-1.65-16.28,1.68-22,7.51-4.78-5.93,15.53-11.39,26.29-9.66,8.3,1.34,20.91,15.8,38.63,11.8,7.86-1.77,26.12-20.16,29.51-27.9.08-.18,2.22-2,2.15-3.22-.62-9.9-18.38-7.07,10.73-16.63-29.33-25.98-16.4-38.24-15.02-69.75.4-9.15-.45-32.62,1.07-9.12.82,12.24-1.1,27.45,0,39.17,3.71,39.53,9.9-31.43,9.66-42.39-1.04-47.55-43.44-65.55-34.34-101.41,2.64-10.41,20.83-39.85,5.9-1.61,29.35-36.82,12.97-58.45,16.1-59.02,8.35,16.49,6.15,33.28,3.76,50.43Z" style="fill:#141027; stroke-width:0px;"/><path d="m537.07,478.78c15.28-5.06,31.27,43.21-5.9,29.51-.53-5.55-.41-27.42,5.9-29.51Z" style="fill:#e4dcac; stroke-width:0px;"/><path d="m532.78,512.04q9.39.27,18.78.54c-.03,34.58-24.14,34.78-18.78-.54Z" style="fill:#dce3b6; stroke-width:0px;"/><path d="m739.35,283.48c.24,10.95-5.95,81.92-9.66,42.39-1.1-11.72.82-26.92,0-39.17,10.08,1.31,6.03-3.01,9.66-3.22Z" style="fill:#b8e2c6; stroke-width:0px;"/><path d="m560.68,482c11.87-5.83,14.05,17.12,14.49,24.14-29.86,20.1-16.66-23.08-14.49-24.14Z" style="fill:#dce3b6; stroke-width:0px;"/><path d="m554.24,510.97c3.95,4.07,10.33,4.17,15.02,1.07,2.93,31.85-23.67,36.75-15.02-1.07Z" style="fill:#b8e2c6; stroke-width:0px;"/><path d="m739.35,175.1c-3.63,17.46-10.53,34.13-14.49,51.51-3.93-18.75,3.38-36.64,5.9-54.73l8.58,3.22Z" style="fill:#b8e2c6; stroke-width:0px;"/><path d="m574.63,510.97c12.31-4.39,8.76,24.46,2.15,25.75-10.03,1.96-5.76-24.46-2.15-25.75Z" style="fill:#b8e2c6; stroke-width:0px;"/><path d="m588.58,508.83c9.07-2.15,10.86,28.52-1.07,24.68-6.03-1.94-3.38-23.62,1.07-24.68Z" style="fill:#b8e2c6; stroke-width:0px;"/><path d="m622.92,479.85c7.71,9.68,3.04,25.23-3.22,22.53-3.61-1.55-.27-22.86,3.22-22.53Z" style="fill:#b8e2c6; stroke-width:0px;"/><path d="m602.53,508.83c11.04-2.98,1.11,35.06-3.76,17.71-.72-2.58,1.33-17.05,3.76-17.71Z" style="fill:#b8e2c6; stroke-width:0px;"/><path d="m611.11,508.83c7.74-3.59,6.13,18.59,1.07,18.24-4.47-.3-3.24-17.24-1.07-18.24Z" style="fill:#b8e2c6; stroke-width:0px;"/><path d="m556.39,539.94c9.25-6.57,4.86,17.5,4.29,21.46-3.13-2.59-6.63-19.8-4.29-21.46Z" style="fill:#b8e2c6; stroke-width:0px;"/><path d="m623.99,504.53c.65.51.96,13.08.54,14.49-3.78,12.53-13.66-7.96-.54-14.49Z" style="fill:#b8e2c6; stroke-width:0px;"/><path d="m587.51,535.65c9.67-4.62-1.58,19.65-3.22,22.53-.42-3.54.92-21.43,3.22-22.53Z" style="fill:#b8e2c6; stroke-width:0px;"/><path d="m612.19,529.21c6.93-2.64,2.97,15.66,0,18.24-2.27-.1-2.66-17.23,0-18.24Z" style="fill:#b8e2c6; stroke-width:0px;"/><path d="m602.53,532.43c5.65-.16-.35,12.69-2.15,15.02-2.15.02-3.53-14.86,2.15-15.02Z" style="fill:#b8e2c6; stroke-width:0px;"/><path d="m619.7,525.99c3.43-.47,4.53,15.65-1.07,17.17l1.07-17.17Z" style="fill:#b8e2c6; stroke-width:0px;"/><path d="m799.44,436.93l8.58-6.44c-3.7,12.69-11.71,44.84-22,52.58-21.41,16.1-19.65-7.81-13.95-10.73,4.23-2.17,14.45,4.32,15.56,3.76,6.14-3.1,10.22-32.18,11.8-39.17Z" style="fill:#460e35; stroke-width:0px;"/><path d="m786.56,442.29c-4.66-7.96-7.89-3.6-8.58-4.83.96-3.31,1.2-5.64,1.07-9.12,17.23-13.35,20.41,9.37,7.51,13.95Z" style="fill:#7b2451; stroke-width:0px;"/><path d="m811.24,333.91c-2.22,1.44-1.26,3.4-9.66,1.07,2.86-4.91,5.19-3.56,9.66-1.07Z" style="fill:#cc5d8e; stroke-width:0px;"/><path d="m791.93,350.01c-2.7,18.13-14.78,70.78-15.02,74.58-.13,2.08,2.14,3.54,2.15,3.76.13,3.48-.11,5.81-1.07,9.12.69,1.23,3.92-3.13,8.58,4.83-13.2,4.69-12.5-5.12-18.24,13.95-8.4,3.25-15.76,8.69-23.61,12.88-1.53.82-5.6,2.14-7.51,2.15,10.92-31.41,16.78-64.11,23.61-96.58.03-.12.27.8,1.07-2.15,2.33-8.56,4.17-17.2,6.44-25.75q9.39,8.05,18.78,16.1c3.59-.78.63-13.52,4.83-12.88Z" style="fill:#db7ca0; stroke-width:0px;"/><path d="m744.71,469.12c.33,6.94-11.02,41.24-10.73,43.46.59,4.53,11.02,8.71,15.02,4.83-4.7,8.51-14.74,21.69-26.29,18.24-4.87-1.45-1.32-3.25-1.61-4.29,2.19-6.91,7.02-25,1.07-11.8-5.06-2.71-8.44-8.37-9.66-13.95-1.91-8.76-.24-12.24,1.07-20.39l12.88,4.29c-2.04,17.05,4.99-1.72,10.73-18.24,1.91,0,5.98-1.33,7.51-2.15Z" style="fill:#7b2451; stroke-width:0px;"/><path d="m749,517.41c-4.01,3.88-14.43-.29-15.02-4.83-.29-2.22,11.06-36.52,10.73-43.46,7.84-4.19,15.21-9.63,23.61-12.88-.75,2.48-2.74,16.32-6.44,27.36-3.11,9.29-8.46,25.8-12.88,33.8Z" style="fill:#7b2451; stroke-width:0px;"/><path d="m777.98,296.36c-2.56,6.97-.25,15.38-1.07,22.53-.53,4.61-3.27,10.45-4.29,15.02-5.26-2.23.99-15.65-4.29-16.63l-6.44,39.7c-2.15,2.65-2.28-2.82-3.22-5.9-.09-6.65.6-15.32-4.29-20.39,2.44-13.35,4.01-26.87,6.44-40.24,6.8-2.2,12.09,2.55,17.17,5.9Z" style="fill:#db7ca0; stroke-width:0px;"/><path d="m796.22,326.4c-.1,1.2-3.21,16.33-4.29,23.61-4.2-.64-1.24,12.1-4.83,12.88q-9.39-8.05-18.78-16.1c.77-2.89,1.49-5.52,1.07-8.58,1.09.12.92-.42,1.07-1.07.04-.19,1.04,1.74,2.15-3.22,1.02-4.58,3.76-10.42,4.29-15.02,6.92,1.63,12.2,8.13,19.32,7.51Z" style="fill:#f1a7aa; stroke-width:0px;"/><path d="m743.64,411.18c1.05,1.82,2.76,5.55,5.37,5.37-5.01,17.96-9.5,35.8-15.02,53.65-6.77-4.93-2.2-3.86-2.15-9.66.11-13.08.2-26.12-1.07-39.17l6.44,8.58c-.06-33.96-5.01-38.67,6.44-18.78Z" style="fill:#b94c81; stroke-width:0px;"/><path d="m731.83,460.54c-.05,5.79-4.63,4.73,2.15,9.66-1.32,4.28-7.39,18.29-7.51,19.32l-12.88-4.29c.78-4.82,1.58-9.63,2.15-14.49,8.57,17.6,4.99-17.72,9.66-28.97,2.94-7.09,2.38,19.84,6.44,18.78Z" style="fill:#7b2451; stroke-width:0px;"/><path d="m758.66,351.08c.24,17.39-6.13,31.95-2.15,35.41-.57,2.12-1.29,4.4-2.15,6.44-10.03,5.76-2.62-12.25-6.44-23.61,2.42-12.77,4.09-25.79,6.44-38.63,4.89,5.07,4.2,13.74,4.29,20.39Z" style="fill:#db7ca0; stroke-width:0px;"/><path d="m796.22,326.4c-7.12.62-12.4-5.88-19.32-7.51.82-7.15-1.49-15.56,1.07-22.53,9.68,6.38,19.14,18.96,18.24,30.05Z" style="fill:#f4c2ac; stroke-width:0px;"/><path d="m754.37,392.93c-2.63,7.58-3.23,15.96-5.37,23.61-2.61.19-4.32-3.55-5.37-5.37-7.4-16.09,1.54-27.31,4.29-41.85,3.82,11.36-3.59,29.37,6.44,23.61Z" style="fill:#cc5d8e; stroke-width:0px;"/><path d="m712.52,505.61c1.22,5.58,4.59,11.24,9.66,13.95-1.88,4.18-2.91,9.15-3.22,9.66-.17.28-5.73-1.1-2.15,3.76l-2.68.54c-2.51-.36-8.66-7.79-9.12-10.19-.64-3.33,2.14-21.82,4.83-22,.25-.02,0,6.85,2.68,4.29Z" style="fill:#460e35; stroke-width:0px;"/><path d="m721.1,531.36c-.04-.15-2.46-.94-2.15-2.15.31-.51,1.34-5.48,3.22-9.66,5.95-13.19,1.12,4.89-1.07,11.8Z" style="fill:#460e35; stroke-width:0px;"/><path d="m760.81,374.69c-6.83,32.47-12.69,65.16-23.61,96.58-5.74,16.53-12.77,35.29-10.73,18.24.12-1.03,6.19-15.04,7.51-19.32,5.52-17.85,10.01-35.69,15.02-53.65,2.13-7.65,2.73-16.02,5.37-23.61.86-2.04,1.57-4.32,2.15-6.44,2.65-9.81,4.13-11.2,4.29-11.8Z" style="fill:#261129; stroke-width:0px;"/><path d="m772.61,333.91c-1.11,4.96-2.1,3.03-2.15,3.22l-.54-3.22c-1.21,1.07-.12,3.17-.54,4.29-3.26,8.84-10.24,32.32-7.51,34.34-.8,2.94-1.04,2.03-1.07,2.15-.16.61-1.64,2-4.29,11.8-3.98-3.47,2.39-18.02,2.15-35.41.94,3.08,1.07,8.55,3.22,5.9l6.44-39.7c5.28.98-.97,14.4,4.29,16.63Z" style="fill:#b94c81; stroke-width:0px;"/><path d="m768.32,346.79c-2.27,8.55-4.11,17.19-6.44,25.75-2.73-2.02,4.25-25.49,7.51-34.34.41,3.06-.31,5.69-1.07,8.58Z" style="fill:#7b2451; stroke-width:0px;"/><path d="m770.46,337.13c-.15.66.02,1.19-1.07,1.07.41-1.13-.67-3.22.54-4.29l.54,3.22Z" style="fill:#7b2451; stroke-width:0px;"/><path d="m412.06,359.67c-.49,1.4-2.64,7.71-2.15,8.58,1.3,2.3,4.8.4,5.9,1.07,6.41,3.93,1.38,13.09-7.51,2.15,3.37,16.02,32.92,9.32,46.14,13.95.98-.42,1.69-7.82,2.68-9.66q8.58,9.66,17.17,19.32l-11.8-3.76c3.07,7.24,1.95,13.49,2.15,20.92-4.4-.36-8.44,3.52-11.8,6.44-2.28-4.85-7.42-8.6-10.73-9.66-2-.64-3.26-2.78-5.37-1.07-7.75-9.34,6.36,11.34,2.68,21.46-9.87-35.61-27.25-13.74-23.61-30.05-19.72,16.85-28.25,8.02-39.7,13.95h-10.73c-10.74-4.38-25.49-17.85-28.44-28.97.46-.11,2.08-.97,2.15-1.07,4.68,2.48,15.15-5,21.46-7.51.31.18-1.99,2.88,4.29,4.29-8.19,14.56,5.77,13.3-9.66,23.07,5.3-.04,7.03,5.06,10.19,5.9,19.46,5.15-3.59-5.22-3.76-6.97-.22-2.25,4.26-5.36,6.44-5.9,2.64-.66,7.99.64,10.73,0,19.7,10.77,21.17,3.19,37.56-3.76-1.54-3.27-26.95,10.08-25.75-.54,6.32-4.35,9.75-6.95,3.22-11.8-3.86-2.87-8.54-5.61-13.95-3.22.28-1.55.83-2.74,1.07-4.29,2.49-3.46,3.5-6.25,6.44-9.66,2.98.07,3.85.41,2.15-2.15,1.03-.15,1.56,1.24,7.51,0l-.54,2.15c5.06-.85,10.46-1.9,15.56-3.22Z" style="fill:#b8e2c6; stroke-width:0px;"/><path d="m378.79,396.15c1.82-.43,4.66.63,11.8-4.29-1.19,10.62,24.22-2.73,25.75.54-16.38,6.95-17.86,14.52-37.56,3.76Z" style="fill:#131421; stroke-width:0px;"/><path d="m368.06,396.15c-2.18.55-6.66,3.65-6.44,5.9.17,1.75,23.22,12.13,3.76,6.97-3.16-.84-4.89-5.95-10.19-5.9,15.43-9.77,1.47-8.51,9.66-23.07,1.1-1.96,5.23-6.54,7.51-6.97-5.16,7.75-14.5,15.04-4.29,23.07Z" style="fill:#121e1d; stroke-width:0px;"/><path d="m429.76,388.64c4.73-.64,36.54,7.46,27.36,19.85-4.71-16.47-23.7-12.04-37.02-13.41v-2.15c3.14-.2,9.13-4.22,9.66-4.29Z" style="fill:#131421; stroke-width:0px;"/><path d="m389.52,360.74c1.71,2.56.83,2.22-2.15,2.15.5-.58-1.84-1.55-.54-2.15.88-.09,1.82.13,2.68,0Z" style="fill:#6c7f66; stroke-width:0px;"/><path d="m505.42,472.34c-.32,5.93,1.49,7.99-4.29,12.34,2.95,8.67,3.07,16.25,3.22,25.22-22.02,5.63-14.58-23.83-12.88-26.29,2.52-3.66,12.15,2.97,2.15-9.12,1-2.54-1.13-8.37,11.8-2.15Z" style="fill:#dce3b6; stroke-width:0px;"/><path d="m504.34,512.04c-.07,8.29,1.13,35.04-12.88,20.39-8.54-26.42-4.74-23.34,12.88-20.39Z" style="fill:#dce3b6; stroke-width:0px;"/><path d="m486.1,508.83l-5.37,2.15c-.46-.56-3.24-1-4.29-2.68-4.33-6.91-1.27-25.9,3.76-27.36,10.7-3.11,5.7,23.76,5.9,27.9Z" style="fill:#b8e2c6; stroke-width:0px;"/><path d="m483.95,515.26c1.82,7.36,1.81,22.95-8.58,16.1-6.16-13.6-10.91-31.06,8.58-16.1Z" style="fill:#b8e2c6; stroke-width:0px;"/><path d="m493.61,474.49c10,12.09.37,5.46-2.15,9.12-1.7,2.46-9.15,31.92,12.88,26.29.01.71,0,1.43,0,2.15-17.62-2.96-21.41-6.03-12.88,20.39-6.94-7.26-4.87-13.61-5.37-23.61-.2-4.14,4.8-31.01-5.9-27.9-5.02,1.46-8.09,20.45-3.76,27.36,1.05,1.68,3.83,2.12,4.29,2.68,2.54,3.12,1.91-1.02,3.22,4.29-19.49-14.96-14.75,2.5-8.58,16.1-5.41-3.57-3.53-6.09-6.44-11.8-1.5-18.41-16.27-8.15-6.44,8.58-4.09-2.97-2.28-4.77-5.37-5.37.18-2.86.85-16.63-3.76-15.02-2.89,1.01-1.5,19.06,1.61,19.32,2.85,1.67,2.22,2.27,3.22,4.29-7.62-4.15-3.22,5.08-2.15,13.95.12.98-1.25,1.22-1.07,2.15-5.04-1.55-8.15-6.33-9.66-7.51,5.29-.94-1.25-8.33,0-13.41,1.17-1.77,2.68-1.2,3.22-2.68,2.56-7.06,2.4-7.3,1.07-16.1,3.93-.6,4.08-2.03,4.29-2.15,1.47-.83,2.72,1.8,3.22.54-.05-3.57-1.24-22.87-4.83-22-2.36,1.53-1.37,3.26-1.61,5.37h-1.07c-.49-3.15-1.66-8.61-5.37-7.51.16-.59-.18-1.62,0-2.15,1.05-3.07.11-6.62,2.68-8.58.81,2.25.61,9.75,3.22,10.73,7.06,2.65.52-20.81,8.58,3.22,7.01.98-3.7-18.68,13.95-3.22q.27-10.73.54-21.46c2.16,6.2,1.73,14.9,1.61,21.46,6.51-5.3,10.41-1.14,11.27-2.68,1.09-29.15.83,11.52,7.51,0,.44-.76-.43-3.74,0-4.83Z" style="fill:#1c222b; stroke-width:0px;"/><path d="m453.91,505.61c-2.1-3-1.83-4.93-2.15-6.44-.72-3.45-1.5-5.87-1.07-9.66.24-2.1-.75-3.83,1.61-5.37,3.59-.88,4.78,18.42,4.83,22-.5,1.26-1.75-1.37-3.22-.54Z" style="fill:#b8e2c6; stroke-width:0px;"/><path d="m463.03,482c9.96-3.89,10.61,21.68,10.19,23.07-1.36,4.58-17.36,6.46-16.1-10.73.12-1.59,4.79-11.91,5.9-12.34Z" style="fill:#b8e2c6; stroke-width:0px;"/><path d="m468.93,519.56c.56,6.83,1.12,14.09-6.44,8.58-9.83-16.73,4.94-27,6.44-8.58Z" style="fill:#b8e2c6; stroke-width:0px;"/><path d="m457.13,522.78c-.13,1.96.42,3.55-2.15,4.29-3.11-.25-4.5-18.3-1.61-19.32,4.61-1.61,3.94,12.17,3.76,15.02Z" style="fill:#b8e2c6; stroke-width:0px;"/><path d="m458.2,531.36c2.26,4.58,6.16,20.62-2.15,13.95-1.07-8.87-5.48-18.1,2.15-13.95Z" style="fill:#b8e2c6; stroke-width:0px;"/><path d="m450.15,524.92c8.18,35.19-4.87,10.7-3.76,3.76.46-2.89,2.17-2.2,3.76-3.76Z" style="fill:#b8e2c6; stroke-width:0px;"/><path d="m491.47,532.43c14.01,14.65,12.81-12.1,12.88-20.39,0-.72.01-1.43,0-2.15,7.57-1.12.22,24.12,11.8,27.9.09.15,2.21.99,3.22,1.61-2.87,7.87-2.63,59.37-5.37,23.61-11.15-13.03-11.22-33.31-15.02-22.53-2.41,6.84,6.16,16.95,6.44,18.24,6.81,31.28-11.36,2.37-15.56-9.12q1.61,13.95,3.22,27.9c-24.13-14.24-20.95-24.97-22.53-25.75-7.38-3.64-.76,17.24-1.07,25.75-4.79-10.06-12.38-18.69-14.49-30.05-.17-.93,1.19-1.17,1.07-2.15,8.31,6.67,4.41-9.37,2.15-13.95-1-2.02-.37-2.63-3.22-4.29,2.56-.74,2.02-2.33,2.15-4.29,3.09.6,1.28,2.39,5.37,5.37,7.56,5.5,6.99-1.75,6.44-8.58,2.91,5.71,1.03,8.24,6.44,11.8,10.4,6.86,10.4-8.73,8.58-16.1-1.31-5.31-.68-1.18-3.22-4.29l5.37-2.15c.49,10-1.57,16.35,5.37,23.61Z" style="fill:#141027; stroke-width:0px;"/><path d="m465.18,533.51c5.38-4.08,7.02,13.91,4.29,15.02-4.81,1.97-4.99-14.49-4.29-15.02Z" style="fill:#b8e2c6; stroke-width:0px;"/><path d="m482.34,534.58c9.01,29.14-7.26,13.43-2.68,1.61.3-.78,1.86-.21,2.68-1.61Z" style="fill:#b8e2c6; stroke-width:0px;"/><path d="m458.74,551.75c2.25-.77,3.81,1.11,2.15,2.15-.96.6-3.41-1.72-2.15-2.15Z" style="fill:#dfe5ef; stroke-width:0px;"/><path d="m533.32,266.31h-2.15c1.38-8.53,1.1-17.16,1.07-25.75.08,0-.24-1.23,1.07-1.07-.17,8.93.24,17.9,0,26.83Z" style="fill:#757958; stroke-width:0px;"/><path d="m533.32,266.31c-.1,3.66-3.31,13.9-2.15,16.63,4.02,9.49,5.41-6.6,5.9-6.97,1-.76,10.52,10.04,13.41,15.02,1.34,2.31,16.93,39.85,18.24,44v11.8c-2.55-6.93-4.35-8.8-8.58-14.49q-9.12-8.58-18.24-17.17c9.25,27.94,28.18,47.77,26.83,78.33-.12,2.76-8.04,11.77,2.15,12.34-3.27,7.39-8.91,16.13-18.24,15.02-10.19-1.2-18.54-21.28-16.1-30.05.25-12.68,1.32-28.43-1.07-40.78,4.74-20.43-.35-63-2.68-36.48-2.01,1.67-7.14-6.25-9.66-5.37-.69.24-5.85,12.68-5.9,13.41-.77,10.56,13.83-.8-13.41,43.46,4.3-39.33-13.49,21.69-1.07,2.15.22,22.28,18.97-29.23,22.53-30.05,4.35-1,6.82,4.04,8.05,6.44-4.22,24.71.96,38.85,1.07,47.22.18,13.42-7.54,31.75-23.61,30.05-17.47-1.85-22.3-37.37-21.46-50.97.89-14.43,19.82-69.63,28.97-85.31,3.75-3,8.81-4.93,11.8-9.12.61-2.93.61-6.25,1.07-9.12h2.15Z" style="fill:#141027; stroke-width:0px;"/><path d="m568.73,346.79c5.32,14.49,4.55,30.07,6.44,45.07-.76,5.07-2.22,9.26-4.29,13.95-10.19-.57-2.27-9.58-2.15-12.34,1.35-30.57-17.58-50.39-26.83-78.33q9.12,8.58,18.24,17.17c4.23,5.69,6.04,7.55,8.58,14.49Z" style="fill:#7b2451; stroke-width:0px;"/><path d="m535.46,350.01c-.58-2.98-.73-3.67-2.15-6.44-1.23-2.4-3.7-7.44-8.05-6.44-3.56.82-22.32,52.32-22.53,30.05-12.42,19.54,5.38-41.47,1.07-2.15,27.25-44.26,12.64-32.9,13.41-43.46.05-.73,5.21-13.17,5.9-13.41,2.52-.89,7.65,7.03,9.66,5.37,2.33-26.51,7.42,16.05,2.68,36.48Z" style="fill:#7b2451; stroke-width:0px;"/><path d="m535.46,350.01c2.4,12.35,1.32,28.1,1.07,40.78h-2.15c-.11-8.37-5.3-22.5-1.07-47.22,1.42,2.77,1.57,3.46,2.15,6.44Z" style="fill:#ec94ab; stroke-width:0px;"/><path d="m542.44,362.89c3.95-.87,8.65,8.96,6.97,12.34-.88,1.77-3.4-1.76-4.29,0-1.51,2.97,10.65,14.02,1.61,15.56-5.42.92-7.39-4.73-4.29-5.37.19-.04,3.03,2.19,3.22,2.15,7.06-1.53-8.52-9.5-6.97-18.78.17-1.02,2.56-5.64,3.76-5.9Z" style="fill:#7b2451; stroke-width:0px;"/><path d="m524.19,384.35c8.56.26,4.02,10.95-3.22,9.66-7.14-1.27-3.71-9.87,3.22-9.66Z" style="fill:#601543; stroke-width:0px;"/><path d="m502.73,395.08c5.02,12.51-1.79,17.76-.54.54l.54-.54Z" style="fill:#7b2451; stroke-width:0px;"/><path d="m494.69,281.33c-.18.99-1.11,2.05-2.15,2.15-.74-11.01-4.54-21.24-5.37-32.19,1.16-1.38,2.54-2.4,3.22-3.22q2.15,16.63,4.29,33.27Z" style="fill:#899390; stroke-width:0px;"/><path d="m473.22,262.02c-.73.94-1.4,2.3-2.15,3.22-3.55,4.36-8.87,9.37-12.88,13.95-8.09,9.24-58.84,65.52-62.24,68.68-.21.19-1.89.85-2.15,1.07-24.52-.2-37.08-22.96-41.85-44-1.09-4.79-1.69-7.94-2.15-12.88,2.45,2.05,2.74-.49,4.29-2.15,1.42-1.52,3.25-3.56,4.29-5.37,3.94.34-.7,19.8,5.37,11.8,6.63-8.73,5.23-29.3,10.19,6.44l15.56-5.37c.34.72.92.98,2.15,3.22.14.26-2.06-.47,0,5.9,23.05,22.83,15.42,3.85,19.85,3.76.83-.02,5.97,12.51,9.12-2.68,3.76-18.17-12.94-18.18-1.07-41.85-11.02-13.58,11.14-22.64,28.44-16.63,10.82,3.76,6.78,11.08,25.22,12.88Z" style="fill:url(#g); stroke-width:0px;"/><path d="m391.67,300.65c-1.23-2.24-1.81-2.5-2.15-3.22-8.66-18.29-8.5-2.63-12.34-3.22-2.18-.33-3.1-22.51-10.19-16.63-.82.68-7.78,19.95-3.22,18.78-6.07,7.99-1.43-11.46-5.37-11.8,2.73-4.7,5.1-3.9,4.29-14.49-2.03-26.55-13.06,7.87-8.58,19.85-1.55,1.66-1.84,4.19-4.29,2.15-2-21.72,1.28-37.73,19.32-51.51,10.11,23.01,46.11,35.66,12.34,25.75-.98,14.61,7.13,8.13,13.95,11.8,5.98,3.22,20.98,28.19-3.76,22.53Z" style="fill:#601543; stroke-width:0px;"/><path d="m487.17,251.29c.82,10.95,4.63,21.18,5.37,32.19.6,8.89.9,14.77-2.15,23.61-5.42,15.7-24.97,28.41-39.7,34.34-.31.12-.76-.12-1.07,0l-4.29-2.15c14.03-6.05,28.28-14.54,36.48-27.9,15.94-25.97,4.43-51.52-25.75-22.53-.09-.08-1.47.32-1.07-2.15,1.11-1.26,2.11-3.03,3.22-4.29,4.79-5.46,10.23-10.55,15.02-16.1,4.41-5.1,9.64-9.92,13.95-15.02Z" style="fill:#141027; stroke-width:0px;"/><path d="m509.71,222.32c-7.39-20.19-24.05-15.14-35.41-.54,14.27,22.97,12.28,23.15-1.07,40.24-18.44-1.8-14.4-9.12-25.22-12.88-17.3-6.01-39.46,3.05-28.44,16.63-11.87,23.67,4.84,23.68,1.07,41.85-3.15,15.2-8.29,2.67-9.12,2.68-4.43.09,3.2,19.08-19.85-3.76-2.06-6.37.14-5.64,0-5.9,24.74,5.66,9.73-19.31,3.76-22.53-6.82-3.68-14.93,2.8-13.95-11.8,33.77,9.91-2.23-2.74-12.34-25.75,21.41-16.36,72.21-30.22,99.26-24.68,22.93-23.07,44.51-10.65,41.31,6.44Z" style="fill:#141027; stroke-width:0px;"/><path d="m404.01,239.48c10.39-2.24,9.07,15.01-1.07,9.66-4.43-2.34-4.12-8.54,1.07-9.66Z" style="fill:#9e2e6a; stroke-width:0px;"/><path d="m406.16,270.6c11.31-1.81,1.29.87-2.15,13.95-4.15-4.48-5.98-12.65,2.15-13.95Z" style="fill:#7b2451; stroke-width:0px;"/><path d="m411.52,285.63c8.88,14.57-6.27,20.7-2.68,3.76.08-.36,2.32-3.76,2.68-3.76Z" style="fill:#7b2451; stroke-width:0px;"/><path d="m458.2,282.41c-1.11,1.27-2.11,3.03-3.22,4.29-13.57,15.39-27.02,30.91-40.78,46.14-5.07,5.61-11.11,10.57-16.1,16.1l-2.15-1.07c3.4-3.15,54.14-59.43,62.24-68.68v3.22Z" style="fill:#f1a7aa; stroke-width:0px;"/><path d="m389.52,297.43l-15.56,5.37c-4.96-35.73-3.56-15.17-10.19-6.44-4.56,1.17,2.4-18.1,3.22-18.78,7.09-5.88,8.01,16.3,10.19,16.63,3.84.59,3.68-15.07,12.34,3.22Z" style="fill:#141027; stroke-width:0px;"/><path d="m358.41,284.55c-1.05,1.8-2.87,3.85-4.29,5.37-4.47-11.98,6.56-46.4,8.58-19.85.81,10.59-1.56,9.78-4.29,14.49Z" style="fill:#261129; stroke-width:0px;"/><path d="m473.22,266.31c-4.8,5.54-10.23,10.63-15.02,16.1v-3.22c4.01-4.58,9.32-9.59,12.88-13.95l2.15,1.07Z" style="fill:#e5ccad; stroke-width:0px;"/><path d="m456.05,288.85c8.27,7.9,16.92,15.29,25.75,22.53-8.2,13.36-22.45,21.85-36.48,27.9-18.7,8.06-43.46,14.61-26.83,3.76l-4.29-10.19c13.75-15.23,27.2-30.75,40.78-46.14-.39,2.47.99,2.06,1.07,2.15Z" style="fill:#b94c81; stroke-width:0px;"/><path d="m481.81,311.38c-8.84-7.25-17.49-14.64-25.75-22.53,30.18-28.99,41.7-3.43,25.75,22.53Z" style="fill:#7b2451; stroke-width:0px;"/><path d="m445.32,339.28l4.29,2.15c-5.39,2.12-54.43,15.94-55.8,13.41.5-1.85,2.83-4.28,4.29-5.9,4.99-5.53,11.03-10.48,16.1-16.1l4.29,10.19c-16.63,10.85,8.12,4.3,26.83-3.76Z" style="fill:#261129; stroke-width:0px;"/><path d="m536.53,390.79c-2.45,8.77,5.91,28.84,16.1,30.05l-3.22,7.51c-.69.29-6.62,3.7-7.51,4.29-.39.26-3-1.53-7.51,4.29-.27-2.21-1.08.12-2.15,0-5.75-.64-8.28,1.19-13.95,0l-6.44-7.51c-.54-3.53-3.46-2.97-1.07-8.58,16.07,1.7,23.79-16.63,23.61-30.05h2.15Z" style="fill:#b8e2c6; stroke-width:0px;"/><path d="m534.39,436.93c-.17.22-.2,4.46-1.61,5.37l-.54-5.37c1.07.12,1.88-2.21,2.15,0Z" style="fill:#757958; stroke-width:0px;"/><path d="m534.93,410.1c1.82,1.05-1.62,17.95-1.61,5.9,0-.89.14-6.75,1.61-5.9Z" style="fill:#1d261b; stroke-width:0px;"/><path d="m580.53,265.24c-4.53-.04-2.76,3.65-3.22,6.44-.32,1.97-.94,4.8-1.07,6.44-.18,2.21-1.08,8.15-1.07,8.58h-1.07c-.37-13.86.25-14.92,1.07-26.83,2.46,1.1,3.71,3.46,5.37,5.37Z" style="fill:#5d545e; stroke-width:0px;"/><path d="m697.5,237.34c-3.81,9.6-17.28,3.1-26.83,12.34-.75.72-11.46,16.19-11.8,17.17-.97,2.75-.61,15.92-3.22,18.24-2.03,1.81-7.09-13.33-4.29,8.58.11.84-2.17.43-2.15.54-22.67,1.05,3.3,12.43-21.46,9.66-9.16-7.41-20.61-14.15-28.97-22.53-6.51-6.53-13.91-17.04-20.39-24.14.58-28.78,13.07-34.51,12.88-36.48-8.51-9.11-25.62-16.37-32.19-1.61-1.48-22.37,29.96-15.04,40.24-3.22,29.45-7.52,74.55,2.47,98.19,21.46Z" style="fill:#141027; stroke-width:0px;"/><path d="m629.36,278.12l9.66,11.8c-5.06.13-12.4-7.47-9.66-11.8Z" style="fill:#7b2451; stroke-width:0px;"/><path d="m621.84,265.24c5.4-1.43,1.01,10.23-1.07,8.58-1.04-.82-1.1-8.01,1.07-8.58Z" style="fill:#7b2451; stroke-width:0px;"/><path d="m630.43,297.43c8.8-.86-1.37,6.56-3.76,2.68-.15-.24,3.53-2.66,3.76-2.68Z" style="fill:#601543; stroke-width:0px;"/><path d="m639.01,270.6c.19,0,2.68,2.49,2.68,2.68,0,4.24-6.92-2.68-2.68-2.68Z" style="fill:#601543; stroke-width:0px;"/><path d="m648.67,262.02c.18-.1,2.29,1.44,1.07,3.22-1.96,2.87-2.26-2.53-1.07-3.22Z" style="fill:#460e35; stroke-width:0px;"/><path d="m580.53,265.24c5.82,6.69,9.71,10.93,16.1,17.17,3.56,3.48,7,7.42,10.73,10.73-13.78,16.58-28.89,23.81-3.22,39.7,9.33,5.78,29.6,11.67,40.78,13.95,2.37.48,5.01,1.8,7.51,2.15,5.41.74,10.61,1.39,16.1,1.07,9.33-.53,9.05-1.97,9.66-2.15,10.27-2.96,24.49-14.51,24.68-17.71.2-3.31-4.61-1.37-9.66-6.97v-1.07c7.54,1.27,15.1.13,19.32-6.44-11.84,50.72-56.84,43.09-96.04,26.83-25.71-10.67-40.58-26.87-41.31-55.8-.01-.43.89-6.37,1.07-8.58,8.68,2.4,9.34-4.09,1.07-6.44.46-2.79-1.31-6.48,3.22-6.44Z" style="fill:#141027; stroke-width:0px;"/><path d="m576.24,278.12c.14-1.64.75-4.47,1.07-6.44,8.27,2.35,7.61,8.84-1.07,6.44Z" style="fill:#3c2236; stroke-width:0px;"/><path d="m585.36,306.01c4.7-1.57,3.86,7.9,2.15,8.58-.74.3-6.38-7.17-2.15-8.58Z" style="fill:#7b2451; stroke-width:0px;"/><path d="m590.72,281.33c.36.04,4.74,5.64,3.22,6.44-7.98,4.17-7.45-6.86-3.22-6.44Z" style="fill:#7b2451; stroke-width:0px;"/><path d="m597.16,288.85c.46-.08,4.31,3.94,2.15,5.37-3.02,1.98-5.49-4.81-2.15-5.37Z" style="fill:#7b2451; stroke-width:0px;"/><path d="m627.75,303.87c7.26,5.88,12.19,8.74,16.1,11.8,12.39,9.7,26.08,18.29,34.34,32.19-.61.18-.33,1.61-9.66,2.15,2.29-6.26-12.82-17.83-18.78-24.68-1.74,1.33,0,20.58,2.68,23.61-2.51-.34-5.14-1.66-7.51-2.15-.21-5.45-.29-22.78-1.07-25.22-.42-1.3-10.27-8.02-12.88-10.19-7.53-6.28-16.26-11.72-23.61-18.24-3.73-3.31-7.17-7.26-10.73-10.73l2.15-1.07c8.37,8.39,19.81,15.12,28.97,22.53Z" style="fill:#f4c2ac; stroke-width:0px;"/><path d="m649.21,294.21c.3,1.28,16.21,14.86,18.24,16.1l-23.61,5.37c-3.91-3.06-8.83-5.93-16.1-11.8,24.76,2.77-1.21-8.61,21.46-9.66Z" style="fill:#9e2e6a; stroke-width:0px;"/><path d="m667.45,310.31c1.8,1.09,14.81,6.29,18.24,7.51.12,1.34-1.08,1-1.07,1.07-15.29-5.55-14.6,13.58-5.37,15.02,6.76,1.06,11.23-5.28,13.95-10.73,5.05,5.6,9.86,3.67,9.66,6.97-.19,3.2-14.41,14.74-24.68,17.71-8.25-13.91-21.95-22.49-34.34-32.19l23.61-5.37Z" style="fill:#b94c81; stroke-width:0px;"/><path d="m693.2,322.11v1.07c-2.72,5.45-7.19,11.79-13.95,10.73-1.38-13.3,6.66-6.45,5.37-15.02-.01-.08,1.19.27,1.07-1.07,2.81,1,5.58,3.97,7.51,4.29Z" style="fill:#9e2e6a; stroke-width:0px;"/><path d="m712.52,315.67c-4.22,6.57-11.77,7.71-19.32,6.44-1.94-.33-4.7-3.29-7.51-4.29-3.43-1.22-16.45-6.42-18.24-7.51-2.03-1.24-17.94-14.81-18.24-16.1-.03-.11,2.25.31,2.15-.54-2.8-21.91,2.27-6.78,4.29-8.58,2.61-2.33,2.25-15.5,3.22-18.24.35-.98,11.06-16.44,11.8-17.17,9.55-9.24,23.02-2.74,26.83-12.34,24.23,19.47,21.58,50.25,15.02,78.33Z" style="fill:#7b2451; stroke-width:0px;"/><path d="m672.28,274.9c4.46-.98,2.67,11.85-1.61,3.76-.54-1.03.57-3.53,1.61-3.76Z" style="fill:#290220; stroke-width:0px;"/><path d="m630.97,311.38q-13.41,10.73-26.83,21.46c-25.67-15.89-10.56-23.12,3.22-39.7,7.34,6.52,16.08,11.96,23.61,18.24Z" style="fill:#7b2451; stroke-width:0px;"/><path d="m644.91,346.79c-11.18-2.28-31.44-8.17-40.78-13.95q13.41-10.73,26.83-21.46c2.6,2.17,12.46,8.89,12.88,10.19.78,2.43.87,19.77,1.07,25.22Z" style="fill:#b94c81; stroke-width:0px;"/><path d="m668.52,350.01c-5.49.31-10.69-.33-16.1-1.07-2.69-3.03-4.42-22.28-2.68-23.61,5.96,6.85,21.07,18.42,18.78,24.68Z" style="fill:#d97e90; stroke-width:0px;"/><path d="m684.62,318.89c1.3,8.57-6.75,1.72-5.37,15.02-9.23-1.44-9.92-20.57,5.37-15.02Z" style="fill:#7b2451; stroke-width:0px;"/></g></svg>