<?xml version="1.0" encoding="UTF-8"?><svg id="b" xmlns="http://www.w3.org/2000/svg" xmlns:xlink="http://www.w3.org/1999/xlink" viewBox="0 0 1092.07 624.77"><defs><linearGradient id="e" x1="787.8" y1="292.53" x2="784.33" y2="318.95" gradientUnits="userSpaceOnUse"><stop offset="0" stop-color="#82d9b7"/><stop offset="1" stop-color="#badfb3"/></linearGradient><linearGradient id="f" x1="743.22" y1="312.32" x2="753.32" y2="367.9" gradientUnits="userSpaceOnUse"><stop offset="0" stop-color="#80d8b8"/><stop offset="1" stop-color="#4fbfa8"/></linearGradient></defs><g id="c"><g id="d"><rect width="1092.07" height="624.77" style="fill:#794058; stroke-width:0px;"/><path d="m262.19,1.06c-14.25,30.59,38.03,31.79,22.38,0,137.84-.13,275.69-.08,413.53,0-24.3,14.16-12.31,48.47-13.86,25.05,3.6-13.91,13.42-20.97,26.65-25.05,118.16.06,236.82-2.43,354.91,0-2.4,15.09-11.28,57.51-11.72,67.68-1.54,35.68,12.88-13.66,15.99-20.25,6.12-12.97,14.88-24.99,21.32-37.84,1.59,25.63-.08,78.49,0,109.78-26.13,14.82-15.65,38.37-18.12,50.63-2.72,13.5-19.13,10.35-21.32,20.25-1.11,5.03,10.69,61.48,13.32,63.42.9.66,6.4.32,7.99,2.66,4.44,6.52-5.79,36.6,18.12,7.99,0,8.53,0,17.05,0,25.58-9.82,6.41-3.91,24.31-5.33,35.7q-9.06,6.93-18.12,13.86c.69,21.02.26,30.49-16.52,44.23-43.96-12.28-30.23,51.57-32.51,63.42-2.21,11.52-22.61,24.95-22.38,39.43.13,8.42,10.84,9.7,11.19,35.7,22.27-32.03,32.02,6.37,25.05-47.43,1.73-5.2,11.35-1.31,18.12-13.86,8.49-15.73-2.25-35.79,20.78-38.9,6.65,21.97-1.25,42.91-.53,47.43,9.37,13.74,12.67,30.33,20.25,20.78-.03,13.5.05,27,0,40.5-21.26,17.24-20.07,51.51-34.11,18.12,5.11-9.26,27.54-61.91,3.73-57.55-9.81,1.8.62,14.91-22.91,31.44-.4,25.46-20.17,17.55-40.5,43.17-27.82-19.21-45.64,13.24-42.1,14.92,4.77-4.58,7.91-9.15,14.39-11.72l2.13,5.33c-18.95,4.83-16.94,28.93-14.39,43.7-13.93-29.29-6.14-67.97,31.44-67.68-55.83-25.64-61.04,32.22-45.83,73.01-13.5.03-27-.02-40.5,0,2.37-15.98-14.85-12.8-3.2,0-12.43.02-24.87-.01-37.3,0-12.8-8.53-27.13-15.88-41.03-22.38-13.21-6.18-36.39-13.97-38.37-14.92-2.79-1.34-4.15-8.11-12.79-6.39-3.17-1.43-2.1-2.11-2.66-3.2,4.14-43.67,21.94-92.27,14.92-135.89-.98-6.12-4.45-12.29-5.33-18.65,5.93-6.87,7.43,1.98,7.99,2.13,2.14.57,34.4-20.15,26.11-31.44,14.88-6.69-2.2-34.63-3.2-43.7-1.72-15.61,10.37-46.99,2.13-74.61q14.92-13.06,29.84-26.11c6.25,6.04,12.21-3.79,11.72-9.06-.16-1.74-3.1-3.51-3.2-3.73-.76-1.71-2.49-.6-2.13-2.66.25-1.42,16.19-18.98,13.32-25.05-16.69,34.35-22.17,34.32-53.29,50.09-17.06-.71-1.02,8.68-13.32,5.33-.07-.02.26-1.18-1.07-1.07.16-5.59,2.03-8.02,4.26-12.79.09-.19,1.47,1.05,3.2-2.66,1.21-3.44-1.96-2.33-2.13-2.66-1.35-2.65-3.13-4.49-4.26-7.46,4.61-.28,12.93-1.39,12.79-7.99-.03-1.29-9.66-22.91-13.86-19.72-.85-3.48-3.33-7.36-4.26-10.66-3.05-10.72-5.41-23.91-11.72-33.04-1.43-3.79-2.62-6.92-4.26-10.66-23.79-54.26-93.3-111.74-148.68-131.09-97.88-34.2-200.82-9.43-272.31,65.01-2.66-2.1,4.1-4,4.26-5.86.2-2.31-4.72.08-5.86-.53-7.51-4,.15-8.75-3.2-10.66-.93,4.09-10.17,16.57-10.13,17.59.08,1.77,7.34.26-1.6,9.06-.79-10.99-18.52,7.58-36.24,2.13-10.01-3.08-14.03-18.52-17.05-15.99-2.19,17.16.88,83.96-11.19,30.91-3.96-90.82-115.24-45.78-50.09-115.11,14.21-.02,28.42.01,42.63,0Z" style="fill:#794058; stroke-width:0px;"/><path d="m57.55,1.06c2.95,18.42,15.9,69.66,25.58,82.6,7.35,9.82,22.81,17.87,34.64,20.78,35.45,8.72,67.95-12.82,80.47,11.19,5.26,10.09,2.17,19.92-5.86,27.18-13.74,4.39-28.24,7.29-42.63,4.26-1.43,4.45-13.82,1.08-13.86,5.33,30.93-6.3,93.42,5.52,58.62-45.83q-6.39-3.2-12.79-6.39c-22.29-.78-36.32,9.36-57.55,2.13C91.48,89.53,83.33,31.38,78.87,1.06c6.75-.03,13.5.02,20.25,0,7.19,35.69,5.69,58.5,43.7,72.47,22.13,8.14,55.16,8.89,69.28,30.38,13.31,20.26,8.95,43.5-11.19,57.02-30.41,20.41-61.35,4.88-81.53,48.49-32.96,71.19,22.63,95.54,34.11,138.55,10.32,38.66-5.37,71.34,22.38,107.65,20.27,26.52,79.9,53.95,101.25,115.11,3.35,9.59.93,25.14,11.72,20.78-10.66,5.21-21.46,10.51-31.97,15.99-6.64-3.88-10.09-32.72-18.12-10.13,3.75,2.44,3.06-3.89,6.93-2.66.78.25,5.33,13.2,6.93,14.92-8.63,4.51-17.51,9.43-25.58,14.92-24.51-.03-49.03.05-73.54,0,6.3-11.38,16.39-21.25,28.24-26.65,1.82-.83,24.94-5.87,11.72-6.39-.79-.03-.25,2.07-1.07,2.13-18.58,1.49-35.08,13.56-42.1,30.91-39.06-.08-78.18.51-117.24,0,.32-3.74-3.25-6.12-5.33-8.53-5.3-12.39-11.52-24.23-17.59-36.24,1.06,14.15,8.68,25.92,17.59,36.24,1.28,3,1.9,6.01,4.26,8.53-10.65-.16-21.32.11-31.97,0V1.06c19.18-.11,38.37.14,57.55,0Z" style="fill:#44344c; stroke-width:0px;"/><path d="m201.44,1.06c-16.71,9.41-29.86,27.07-20.25,46.36,13.23,26.57,62.43,3.78,86.33,69.81,3.9,10.77,5.34,22.59,8.53,33.57-9.03,37.9-.95,49.54,0,58.62.85,8.09-7.31,39.71-13.32,44.23-7.97,6-17.37-3.03-22.91-8.53,2.33-26.23-45.06-22.53-34.11,7.99,2.86,7.96,21.69,14.56,19.18,5.86,4.1-1.26,6.72,7.03,7.99,10.66,25.14,1.8,3.45,13.46,2.66,30.91-33.65-5.25-60.78,42.5-14.39,60.75-34.96-49.56,29.45-59.05,21.85-25.05-2.1,9.4-16.76,11.51-17.59,12.26-4.07,3.68-.64,14.88,12.26,11.72,3.4,16.41,10.59,28.91,18.12,43.7-11.74.86-3.38,13.98-3.2,14.92.17.88-4.14,3.63,4.26,15.45,13.03,18.34,24.22,3.33,41.03,4.8,13.67,27.17,17.01,59.23,34.64,84.73-14.97,4.82-25.28-18.65-27.18-18.65-4.44,0-7.28,20.76,4.26,28.78,11.43,7.93,25.73,1.87,38.37,3.2,3.38.36,34.09,8.91,25.58,14.92-.44.31-8.17.05-10.66,1.07-4.52,1.85-3.5,4.09-3.73,4.26-3.35,2.55-6.09,5.58-9.06,8.53-16.25-4.11-25.67,15.08-41.57,14.92-7.8,10.17-12.17,6.97-19.72,10.66-10.8,4.35-8.38-11.19-11.72-20.78-21.35-61.15-80.98-88.59-101.25-115.11-27.75-36.31-12.07-68.99-22.38-107.65-11.48-43.02-67.06-67.36-34.11-138.55,20.19-43.61,51.13-28.08,81.53-48.49,20.14-13.52,24.5-36.76,11.19-57.02-14.11-21.48-47.14-22.24-69.28-30.38,8.54-1.8,10-3.45,4.26-10.66,6.52,1.63,13.11.96,19.72,1.07,1.32-1.18-.74-.4-1.6-2.13-9.98-20.16-13.69-13.6-15.99-60.75,17.41-.04,34.82.02,52.22,0Z" style="fill:#794058; stroke-width:0px;"/><path d="m1091.38,290.96c.06,66.79.14,133.58,0,200.37-7.58,9.54-10.88-7.04-20.25-20.78-.71-4.52,7.18-25.46.53-47.43-23.03,3.11-12.3,23.18-20.78,38.9-6.77,12.55-16.39,8.66-18.12,13.86,6.97,53.8-2.77,15.4-25.05,47.43-.35-26.01-11.06-27.29-11.19-35.7-.23-14.48,20.17-27.91,22.38-39.43,2.27-11.85-11.45-75.7,32.51-63.42,16.78-13.75,17.21-23.21,16.52-44.23q9.06-6.93,18.12-13.86c1.41-11.4-4.49-29.3,5.33-35.7Z" style="fill:#8f4158; stroke-width:0px;"/><path d="m1091.38,531.83c-.13,30.91.09,61.82,0,92.72-31.97.09-63.95-.13-95.92,0-2.03-29.34,24.82-49.42,49.56-58.62,5.35-4.49,8.93-9.96,12.26-15.99,14.03,33.39,12.85-.88,34.11-18.12Z" style="fill:#44344c; stroke-width:0px;"/><path d="m1057.28,549.95c-3.33,6.03-6.91,11.49-12.26,15.99-24.74,9.2-51.59,29.28-49.56,58.62-9.24.04-18.47-.02-27.71,0-12.71-50.86,35.16-35.3,25.05-45.83-4.2-4.37-14.88-4.7-20.78-3.2l-2.13-5.33c10.93-4.34,22.92-1.18,27.71-3.2,20.33-25.61,40.1-17.7,40.5-43.17,23.53-16.54,13.11-29.65,22.91-31.44,23.81-4.36,1.38,48.29-3.73,57.55Z" style="fill:#8f4158; stroke-width:0px;"/><path d="m1091.38,120.43c.12,48.32-.04,96.63,0,144.95-23.91,28.61-13.68-1.47-18.12-7.99-1.59-2.34-7.1-2.01-7.99-2.66-2.63-1.93-14.43-58.39-13.32-63.42,2.18-9.9,18.59-6.75,21.32-20.25,2.47-12.25-8.01-35.81,18.12-50.63Z" style="fill:#8f4158; stroke-width:0px;"/><path d="m78.87,1.06c4.46,30.31,12.61,88.47,45.3,101.25,21.24,7.23,35.27-2.92,57.55-2.13q6.39,3.2,12.79,6.39c34.8,51.35-27.69,39.53-58.62,45.83.03-4.25,12.43-.88,13.86-5.33,14.39,3.03,28.89.12,42.63-4.26,8.03-7.25,11.12-17.09,5.86-27.18-12.52-24.01-45.02-2.47-80.47-11.19-11.83-2.91-27.29-10.97-34.64-20.78-9.68-12.94-22.63-64.18-25.58-82.6,7.1-.05,14.21.03,21.32,0Z" style="fill:#794058; stroke-width:0px;"/><path d="m219.56,1.06c-65.15,69.33,46.13,24.29,50.09,115.11l-2.13,1.07c-23.9-66.03-73.1-43.24-86.33-69.81-9.61-19.29,3.54-36.95,20.25-46.36,6.04,0,12.08,0,18.12,0Z" style="fill:#44344c; stroke-width:0px;"/><path d="m972.01,575.53c5.9-1.5,16.59-1.17,20.78,3.2,10.11,10.53-37.75-5.03-25.05,45.83-8.17.02-16.34-.02-24.51,0-15.21-40.79-10-98.65,45.83-73.01-37.58-.29-45.37,38.38-31.44,67.68-2.55-14.76-4.56-38.87,14.39-43.7Z" style="fill:#30253d; stroke-width:0px;"/><path d="m119.37,1.06c-.2,21.62,2.43,55.5,27.71,61.82,5.73,7.21,4.28,8.85-4.26,10.66C104.81,59.56,106.31,36.75,99.12,1.06c6.75-.02,13.5.02,20.25,0Z" style="fill:#8f4158; stroke-width:0px;"/><path d="m1065.8,1.06c8.52.17,17.06-.13,25.58,0,.14,3.18-.2,6.42,0,9.59-6.44,12.85-15.2,24.87-21.32,37.84-3.11,6.59-17.53,55.93-15.99,20.25.44-10.17,9.32-52.59,11.72-67.68Z" style="fill:#8f4158; stroke-width:0px;"/><path d="m126.83,1.06c1.71,22.67,15.42,21.5,19.18,31.44-.23,13.65,6.6,24.27,19.18,29.31.85,1.73,2.92.95,1.6,2.13-6.6-.11-13.2.56-19.72-1.07-25.28-6.32-27.91-40.19-27.71-61.82,2.49,0,4.97,0,7.46,0Z" style="fill:#44344c; stroke-width:0px;"/><path d="m149.21,1.06c2.3,47.15,6.01,40.59,15.99,60.75-12.59-5.04-19.42-15.66-19.18-29.31-3.76-9.94-17.48-8.77-19.18-31.44,7.46-.02,14.92.02,22.38,0Z" style="fill:#8f4158; stroke-width:0px;"/><path d="m284.57,1.06c15.64,31.79-36.63,30.59-22.38,0,7.46,0,14.92,0,22.38,0Z" style="fill:#44344c; stroke-width:0px;"/><path d="m153.48,624.56c-1.07,0-2.13,0-3.2,0,7.02-17.35,23.52-29.42,42.1-30.91.82-.07.27-2.16,1.07-2.13,13.21.52-9.9,5.57-11.72,6.39-11.85,5.39-21.94,15.27-28.24,26.65Z" style="fill:#794058; stroke-width:0px;"/><path d="m710.89,1.06c-13.23,4.08-23.04,11.13-26.65,25.05,1.55,23.42-10.44-10.89,13.86-25.05,4.26,0,8.53,0,12.79,0Z" style="fill:#44344c; stroke-width:0px;"/><path d="m902.73,624.56c-1.07,0-2.13,0-3.2,0-11.65-12.8,5.57-15.98,3.2,0Z" style="fill:#22242f; stroke-width:0px;"/><path d="m33.04,624.56c-.36,0-.71,0-1.07,0-2.37-2.51-2.98-5.53-4.26-8.53,2.08,2.41,5.65,4.79,5.33,8.53Z" style="fill:#794058; stroke-width:0px;"/><path d="m350.65,89.53c-12.74,13.26-23.51,28.01-33.04,43.7-9.76,16.07-18.76,30.99-21.32,50.09-2.19,6.77-1.94,8.92-2.13,9.59-.36,1.26.24,3.64,0,5.33-4.74,4.01-13.02,29.16-4.26,30.91,5.38,7.75-1.29,10.29-3.2,14.92-3.03,2.43-1.25,3.29-1.07,4.26.3,1.65,4.03,8.82,6.39,9.59-6.58,12.62-5.99,16.24-6.39,17.05-.57,1.14-1.4,2.17-2.13,3.2-3.36,4.71-5.03,3.15-8.53,6.93-.4,9.49.16,18.8,1.07,28.24,2.05,21.32,8.46,41.55,14.92,61.82,1.8,5.65,8.35,31.87,11.72,34.11,5.08,3.37,8.88-2.13,11.72,1.6.51.67,4.1,13.46,5.33,15.99,20.14,41.57,48.24,80.43,56.49,126.83-1.18,1.68-7.94-3.38-17.05,3.73.23-.17-.79-2.41,3.73-4.26,2.49-1.02,10.22-.76,10.66-1.07,8.51-6.02-22.2-14.57-25.58-14.92-12.64-1.33-26.94,4.73-38.37-3.2-11.55-8.02-8.7-28.77-4.26-28.78,1.9,0,12.21,23.47,27.18,18.65-17.63-25.5-20.97-57.56-34.64-84.73-16.81-1.47-28,13.54-41.03-4.8-8.41-11.83-4.09-14.57-4.26-15.45,15.2,2.31,13.81-15.7,3.2-14.92-7.53-14.79-14.72-27.28-18.12-43.7,23.13-5.67,28.48-54.91-2.13-59.68.79-17.45,22.47-29.11-2.66-30.91-1.28-3.63-3.89-11.92-7.99-10.66.5-3.45,13.86-1.87,14.92-13.86,5.55,5.49,14.94,14.52,22.91,8.53,6.01-4.52,14.17-36.14,13.32-44.23-.95-9.08-9.03-20.72,0-58.62-3.19-10.98-4.63-22.8-8.53-33.57l2.13-1.07c12.07,53.05,9-13.75,11.19-30.91,3.03-2.54,7.04,12.91,17.05,15.99,17.72,5.45,35.45-13.12,36.24-2.13,8.94-8.8,1.68-7.29,1.6-9.06-.04-1.01,9.2-13.49,10.13-17.59,3.35,1.91-4.31,6.66,3.2,10.66,1.14.61,6.07-1.78,5.86.53-.16,1.86-6.93,3.76-4.26,5.86Z" style="fill:#794058; stroke-width:0px;"/><path d="m1033.3,272.84c15.75-.42,29.4,10.65,31.44,26.11,4.44,33.65-11.16,4.06-11.72,12.79-.15,2.32,12,18.09-10.13,42.1-57.77-16.42-46.63-80-9.59-81Z" style="fill:#8f4158; stroke-width:0px;"/><path d="m848.38,236.61c-5.02,1.34-9.47,8.11-8.53,12.79q-14.92,13.06-29.84,26.11c8.24,27.61-3.85,58.99-2.13,74.61,1,9.07,18.07,37.01,3.2,43.7,8.29,11.29-23.97,32.01-26.11,31.44-.57-.15-2.06-9.01-7.99-2.13-2.22-16.11,2.02-10.16,5.33-12.79,9.74-7.74,8.83-23.54,11.72-35.17,3.37-13.55,7.43-26.63,9.59-40.5,1.07-6.9,4-20.82,4.26-26.11,1.52-30.18-5.1-15.45-11.72-32.51-1.34-3.45-2.2-8.06-3.2-11.72,12.3,3.35-3.74-6.04,13.32-5.33,31.12-15.78,36.6-15.74,53.29-50.09,2.86,6.07-13.07,23.63-13.32,25.05-.36,2.06,1.37.95,2.13,2.66Z" style="fill:#794058; stroke-width:0px;"/><path d="m920.32,572.33c-1.94,10.96,11.01,30.27,11.19,34.64.48,11.44-19.8-2.24-21.32-9.59-1.87-9.05,3.34-19.13,10.13-25.05Z" style="fill:#1a0c18; stroke-width:0px;"/><path d="m846.78,511.58c8.15,1.6-11.87,20.08-27.71,21.32-38.11,2.98,7.19-12.01,15.99-14.92,5.86-1.94,11.07-6.52,11.72-6.39Z" style="fill:#69314d; stroke-width:0px;"/><path d="m814.27,499.86v-3.2c8.99-2.51,12.51-18.33,11.72-26.11-1.31-12.98-23.34-36.71-11.72-26.65,15.48,13.4,26.28,53.91,0,55.95Z" style="fill:#1a0c18; stroke-width:0px;"/><path d="m997.59,567c-4.79,2.02-16.78-1.14-27.71,3.2-6.48,2.57-9.62,7.14-14.39,11.72-3.55-1.68,14.28-34.13,42.1-14.92Z" style="fill:#44344c; stroke-width:0px;"/><path d="m792.96,237.67c-.75-1.97-3.83,1.33-1.07-7.46.05-.17,2.77.16,3.2-1.6.94-3.91-2.04-13.93-3.2-18.65,4.2-3.19,13.83,18.43,13.86,19.72.14,6.61-8.18,7.71-12.79,7.99Z" style="fill:#794058; stroke-width:0px;"/><path d="m799.88,112.97c.76-.39,14.01-.11,17.05,2.13,9.74,7.17,7.32,35.87-4.26,38.37-10.99,2.37,10.45-5.1,7.99-26.11-3,.02-1.93-6.07-2.13-6.39-9.71-15.67-21.32-2.05-24.51,12.79-.94,4.37-1.67,28.8-3.2,19.18-.84-5.3,4.19-37.45,9.06-39.97Z" style="fill:#69314d; stroke-width:0px;"/><path d="m758.32,102.31c.73-.53,11.78,12.55,12.26,13.32,3,4.84-.15,6.6,5.33,10.66l-2.66,9.06-7.99-9.06c11.18-8.42-.77-8.43-1.07-9.59,6.94-1.69-10.57-11-5.86-14.39Z" style="fill:#794058; stroke-width:0px;"/><path d="m848.38,236.61c.1.22,3.04,1.99,3.2,3.73.49,5.27-5.48,15.1-11.72,9.06-.94-4.67,3.51-11.45,8.53-12.79Z" style="fill:#2c3144; stroke-width:0px;"/><path d="m301.09,70.34c9.45-1.96,13.1,7.91-4.26,11.72-4.26-2.47-.3-10.78,4.26-11.72Z" style="fill:#2c3144; stroke-width:0px;"/><path d="m808.41,68.21c5.92-1.59,10.94,11.78,6.39,13.86-6.3,2.87-12.92-12.11-6.39-13.86Z" style="fill:#2c3144; stroke-width:0px;"/><path d="m912.86,613.9c.56-.32,11.61-.27,12.79,0,9.8,2.23-3.69,10.44-10.66,7.46-.36-.15-3.8-6.5-2.13-7.46Z" style="fill:#22242f; stroke-width:0px;"/><path d="m809.48,98.05c7.61-1.77,9.04,12.25-1.07,8.53-4.66-1.72-1.65-7.9,1.07-8.53Z" style="fill:#2c3144; stroke-width:0px;"/><path d="m814.27,496.66v3.2c-13.34,1.04-8.36-3.85-1.6-5.33,2.27-.5,1.47,2.17,1.6,2.13Z" style="fill:#cc6884; stroke-width:0px;"/><path d="m265.92,51.16c4.08-.32,3.78,5.8,1.07,6.39-2.91.63-5.9-6.02-1.07-6.39Z" style="fill:#cc6884; stroke-width:0px;"/><path d="m289.37,33.04c2.82-.17,3.54,3.44,1.07,4.26-4.49,1.49-3.54-4.12-1.07-4.26Z" style="fill:#cc6884; stroke-width:0px;"/><path d="m883.02,596.85c6.57-.92-5.8,8.2-3.73,2.66.2-.55,3.5-2.63,3.73-2.66Z" style="fill:#69314d; stroke-width:0px;"/><path d="m101.78,320.8c4.74,19.07-27.55,31.49-7.99,53.82,7.7,8.8,20.91,9.99,30.91,5.33-1.77,45.99-34.49,73.68,16.52,117.77,8.07,6.98,27.16,16.96,37.3,20.25,3.15,1.02,19.19,3.09,11.72,4.26-10.09,1.59-50.91-18.11-66.61-37.84-25.63-32.21-8.52-49.06-19.18-75.67,12.64,25.66,12.92-9.41,14.92-20.25-23.11,4.13-48.97-27.32-36.24-47.96,4.37-7.09,15.75-6.32,18.65-19.72Z" style="fill:#8f4158; stroke-width:0px;"/><path d="m33.57,31.97c10.77-2.58,11.74,19.45,14.39,26.11,2.84,7.14,8.17,13.88,10.66,21.32.31.93-1.75,6.87,2.13,19.18,3.82,12.12,14.43,20.1,10.13,21.85-12.75,5.17-15-25.63-16.52-30.38-8.15-25.43-21.79-5.74-27.71-26.65-2.78-9.84.2-29.83,6.93-31.44Z" style="fill:#794058; stroke-width:0px;"/><path d="m5.86,460.42c6.16,5.26,7.22,15.68,11.19,21.85,14.34,22.28,23.99,7.41,39.43,17.05-39.7,14.25-53.67,3.57-50.63-38.9Z" style="fill:#794058; stroke-width:0px;"/><path d="m16.52,556.35c22.6-.4,4.5,52.58,38.37,50.09,3.15,4.47-9.39,5.62-14.92,3.2-7.24-3.17-12.19-21.56-16.52-27.18-4.36-5.65-18.42-10.9-15.99-20.25.53-2.02,7.05-5.83,9.06-5.86Z" style="fill:#794058; stroke-width:0px;"/><path d="m61.28,530.77c7.22-.77-1.56,26.83,11.19,45.3,1.19,1.72,26.23,23.28,1.6,6.93-26.19-17.39-18.13-51.66-12.79-52.22Z" style="fill:#794058; stroke-width:0px;"/><path d="m65.55,272.84c-1.54,8.65-7.53,12.01-5.33,22.38-14.42-.07-15.49-13.66-19.72-11.19,23.88,31.52-3.27,15.91-5.33,4.26-2.66-15.04,8.81-12.59,18.65.53.95-8.16,6.01-11.18,11.72-15.99Z" style="fill:#794058; stroke-width:0px;"/><path d="m32.51,150.28c3.21-.82,23.91,1.45,23.98,2.66-26.95,18.06-37.04.68-23.98-2.66Z" style="fill:#794058; stroke-width:0px;"/><path d="m38.9,432.71c9.27,1.49,17.55,14.23,15.45,22.91-3.06,12.7-18.08-21.08-15.45-22.91Z" style="fill:#794058; stroke-width:0px;"/><path d="m256.86,607.51c-1.43.74-2.89,1.41-4.26,2.13-1.59-1.72-6.14-14.67-6.93-14.92-3.87-1.23-3.17,5.1-6.93,2.66,8.02-22.59,11.48,6.24,18.12,10.13Z" style="fill:#69314d; stroke-width:0px;"/><path d="m27.71,616.03c-8.91-10.32-16.53-22.09-17.59-36.24,6.06,12.01,12.29,23.85,17.59,36.24Z" style="fill:#794058; stroke-width:0px;"/><path d="m84.73,288.83c.57,16.23-23.47,25.52-22.38,54.36-6.37-22.35,16.15-35.92,22.38-54.36Z" style="fill:#794058; stroke-width:0px;"/><path d="m22.91,306.95c11.66,5.04,24.44,26.3,29.84,39.43-9.89-13.29-17.48-28.18-29.84-39.43Z" style="fill:#794058; stroke-width:0px;"/><path d="m126.3,564.87c1.01-.32,14.94.28,20.25,4.26,9.64,7.22,16.62,29.74,0,3.2-8.43-6.51-32.24-3.63-20.25-7.46Z" style="fill:#53344e; stroke-width:0px;"/><path d="m48.49,378.36c3.07,1.96,34.64,37.06,29.84,38.37-2.23-7.53-29.45-33.55-30.38-35.7-.24-.56-.18-2.29.53-2.66Z" style="fill:#69314d; stroke-width:0px;"/><path d="m81.53,216.36l-2.66,10.13c-32.42,50.82-11.18,16.58,2.66-10.13Z" style="fill:#69314d; stroke-width:0px;"/><path d="m87.93,163.07c10.94-1.97-12.82,4.35-15.99,22.38-3.89-6.5,9.37-21.19,15.99-22.38Z" style="fill:#53344e; stroke-width:0px;"/><path d="m165.73,586.19c3.24.8-13.27,22-13.86,24.51-2.99-1.28,12.35-21.55,13.86-24.51Z" style="fill:#53344e; stroke-width:0px;"/><path d="m127.36,573.4c6.61.76,8.52,9.44,7.46,14.92l-7.46-14.92Z" style="fill:#53344e; stroke-width:0px;"/><path d="m117.77,146.01c5.16.47-4.12,6.81-12.26,2.66,10.42-.05,11.63-2.72,12.26-2.66Z" style="fill:#53344e; stroke-width:0px;"/><path d="m235.54,300.55c30.61,4.78,25.26,54.02,2.13,59.68-12.89,3.16-16.32-8.05-12.26-11.72.83-.75,15.48-2.85,17.59-12.26,7.6-34-56.81-24.51-21.85,25.05-46.39-18.25-19.26-66,14.39-60.75Z" style="fill:#44344c; stroke-width:0px;"/><path d="m164.67,232.34c27.95-4.16,16.8,36.94,2.13,39.43-24.67,4.19-28.38-35.53-2.13-39.43Z" style="fill:#44344c; stroke-width:0px;"/><path d="m239.81,245.13c-1.06,11.99-14.42,10.41-14.92,13.86,2.5,8.7-16.33,2.1-19.18-5.86-10.96-30.53,36.43-34.22,34.11-7.99Z" style="fill:#b65973; stroke-width:0px;"/><path d="m264.85,473.21c24.23-5.17,28.62,24.74,9.59,27.71-20.41,3.19-24.68-24.49-9.59-27.71Z" style="fill:#44344c; stroke-width:0px;"/><path d="m205.17,425.25c28.96-5.74,14.82,36.81-5.33,24.51-11.15-6.81-3.86-22.69,5.33-24.51Z" style="fill:#44344c; stroke-width:0px;"/><path d="m255.79,403.94c10.61-.78,12,17.24-3.2,14.92-.18-.94-8.54-14.06,3.2-14.92Z" style="fill:#cc6884; stroke-width:0px;"/><path d="m240.34,196.11c4.55.07-1.59,3.81,3.73,13.32,22.06,22.27-17.69,13.66-3.73-13.32Z" style="fill:#794058; stroke-width:0px;"/><path d="m141.22,187.58c8.99-.14,3.94,13.33-4.26,10.66-5.56-1.81-.82-10.58,4.26-10.66Z" style="fill:#2c3144; stroke-width:0px;"/><path d="m194.51,273.91c6.74,14.89-5.62,14.99-4.8,7.99.09-.77,3.86-4.98,4.8-7.99Z" style="fill:#22242f; stroke-width:0px;"/><path d="m179.59,406.07c6.43-2.89,7.19,7.17,2.13,7.46-3.28.19-5.52-5.94-2.13-7.46Z" style="fill:#cc6884; stroke-width:0px;"/><path d="m142.28,276.04c5.46-2.43,5.9,5.93,2.13,6.39-2.67.33-5.59-4.85-2.13-6.39Z" style="fill:#2c3144; stroke-width:0px;"/><path d="m296.83,481.74c3.42-2.43,6.96,3.12,4.26,5.33-2.59,2.12-7.01-3.38-4.26-5.33Z" style="fill:#cc6884; stroke-width:0px;"/><path d="m209.43,198.24c3.71-.53,4.62,5.89,1.07,6.39-3.71.53-4.62-5.89-1.07-6.39Z" style="fill:#cc6884; stroke-width:0px;"/><path d="m239.27,180.12c2.44-.58,3.72,4.06,2.13,5.33-2.53,2.02-5.77-4.46-2.13-5.33Z" style="fill:#69314d; stroke-width:0px;"/><path d="m765.25,569.14c-3.99,18.25-1.45,4.87-16.52,3.2-4.35-8.7-12.6-9-21.32-8.53-2.12-6.6-7.9-.6-17.05-12.79h-7.46c-9.39-13.57-17.33-.68-20.78-10.66-10.74-2.78-17.16-19.83-21.32-31.44,23.75-19.56,48.02-9.12,54.36-25.58,2.9-7.54,1.72-25.07,3.2-29.84,3.86-12.48,14.99-4.89,22.91-9.06,5.77-3.04,19.29-22.28,25.58-27.71,1.15-.99,4.57,4.47,4.8-6.39,4.55-.69-.25,4.59,1.07,11.19,3.03,15.2,10.26,22.57,7.46,60.75-.49,6.73-12.57,76.11-14.92,86.86Z" style="fill:#794058; stroke-width:0px;"/><path d="m683.18,412.46c.73,14.1,20.28,7.98,21.85,8.53,1.1.38,4.88,14.11,18.12-1.07,26.93,20.61,25.08-19.57,29.31-35.17,5.91-2.72,9.57,9.52,14.92,13.86-.45,3.06-3.43,6.29-1.07,9.59,1.23,1.71,3.32,2.39,5.33,2.13-.23,10.87-3.65,5.4-4.8,6.39-6.29,5.43-19.81,24.68-25.58,27.71-7.92,4.17-19.05-3.42-22.91,9.06-1.48,4.77-.3,22.31-3.2,29.84-6.33,16.46-30.61,6.02-54.36,25.58,4.15,11.61,10.58,28.66,21.32,31.44-14.2,1.43-9.72-15.66-29.31-9.59-2.43-.59-6.33-16.37-26.11-10.66l2.13-23.45c4.67-3.31,19.53-15.02,22.91-15.99,7.87-2.24,26.67,2.86,25.05-17.59-.24-2.99-9.86-32.44-13.86-58.09,2.43-11.81,5.92-23.84,10.13-35.17.18,8.81,2.04,38.7,10.13,42.63Z" style="fill:#794058; stroke-width:0px;"/><path d="m425.26,417.79c-2.76,26.32-10.38,43.99-10.66,46.36-2.54,22.03,16.03,17.63,21.85,19.72,2.5.9,8.55,7.16,9.06,7.46,1.07,7.07,1.42,14.22,2.13,21.32-13.54,16.26-12.95-3.21-29.31,17.05-5.71-2.88-11.92,1.87-15.45,6.39-8.65,3.39,3.38-14.27-12.26-17.05-8.71-1.55-13.84,8.61-14.39,15.99-20.54-51.66-48.21-95.51-54.36-111.38-7.77-20.04-2.6-15.01-2.13-19.72.7-7.09-.62-7.39-2.13-13.86l11.72-15.99c.41,1.01.67,3.22,1.07,4.26,3.47,9.07,12.11,38.52,19.18,42.63,6.7,3.89,13.99.72,18.12-5.33.39-.56.89-1.43,1.07-2.13.18.18.86-.17,1.07,0,14.53,12.47,12.54-1.02,27.18,0,2.58-1.03,3.3-2.79,3.73-3.2,8.26-7.72,9.83-29.69,10.13-40.5,7.21,15.26,10.41,31.71,14.39,47.96Z" style="fill:#794058; stroke-width:0px;"/><path d="m402.87,536.1c-.79,1.01-4.33,9.25-5.33,11.72-22.97,3.45-15.97.66-21.32-12.79.55-7.38,5.68-17.54,14.39-15.99,15.64,2.78,3.61,20.45,12.26,17.05Z" style="fill:#794058; stroke-width:0px;"/><path d="m719.42,92.72c.7,2.29-.89,4.26-1.07,6.39-2.71-.19-10.95,2.53-10.66,5.86.22,2.5,16.23,15.63,30.91,39.43,10.82,17.55,17.63,36.99,27.71,54.89-.23.57.15,2.06,0,3.2-.76,5.82.27,11.69,2.13,17.59,3.99,12.67,7.02,12.67,7.46,13.32.57.84,4.87,1.03,4.26,4.26-.43,4.67.6,10.51,0,14.92-3.32,2.33-6.1,12.76-11.72,17.59,20,14.59,12.79,19.35,12.79,35.7l-18.12-9.06c-1.13-9.98,2.47-26.2-2.13-33.57-2.99-4.79-6.16-5.86-11.72-4.26-1.38.4-2.83.9-4.26,1.07-.09-.79-.67-1.21-1.07-2.13-2.8-6.52-13.38-5.38-17.59-1.07-2.9,2.98-1.25,7.95-1.6,11.72-10.27-9.89-14.2-1.53-14.92-3.73-.92-2.8,23.28-21.44,9.59-54.89,2.86-19.53,3.87-40.02-4.26-58.62h-1.07c.37-28.33-20.91-56.57-42.1-73.54-7.75-6.21-32.79-22.19-25.05-13.86v1.07c-10.74-11.46-13.24-12.28-27.71-19.18-9.34-8.44,37.71,11.86,44.23,14.92,16.22,7.61,41.81,21.41,55.95,31.97Z" style="fill:#794058; stroke-width:0px;"/><path d="m714.09,529.7c-.16-.11-1.8-2.5-2.13-3.2,3.72-2.91,8.54-4.32,11.72-7.99,3.89-4.48,4.04-17.23,17.59-13.32,17.21,4.96-10.93,36.27-27.18,24.51Z" style="fill:#44344c; stroke-width:0px;"/><path d="m729.54,476.41c5.14.26,11.23,13.01,2.13,14.92-12.79,2.68-10.75-15.36-2.13-14.92Z" style="fill:#b65973; stroke-width:0px;"/><path d="m761.52,483.87c12.88.81,2.06,27.72-11.19,3.73,3.58-.51,10.6-3.77,11.19-3.73Z" style="fill:#69314d; stroke-width:0px;"/><path d="m714.09,529.7c0,5.13-11.19,3.89-2.13-3.2.33.69,1.98,3.08,2.13,3.2Z" style="fill:#cc6884; stroke-width:0px;"/><path d="m721.02,507.32c.75.6.79,3.91.53,4.8-4.13,14.07-6.36-9.48-.53-4.8Z" style="fill:#53344e; stroke-width:0px;"/><path d="m372.5,449.77c19.97-4.83,20.52,22.45,7.46,25.58-19.04,4.57-20.08-22.53-7.46-25.58Z" style="fill:#cc6884; stroke-width:0px;"/><path d="m400.21,492.4c9.31-1.71,9.62,15.53-1.07,12.79-5.78-1.48-4.34-11.79,1.07-12.79Z" style="fill:#b65973; stroke-width:0px;"/><path d="m477.48,36.24c-54.42,16.93-120.24,72.97-127.9,132.16-1.86,14.34-2.41,32.12,2.13,45.83-.34,6.79.18,13.77,2.13,20.25-3.2-.94.14,3.88,0,13.86-8.02-6.84-15.88-3.71-20.25,5.33-2.88.37-6.85-2.21-7.46-2.13-2.83.35-8.99,5.74-10.66,8.53-.87-.07-1.93.13-2.13,0-14.9-9.8-9.89-9.84-11.72-26.65.96-1.19,1.04-2.67,3.2-2.13,7.65-1.48,8.45-24.59,9.59-28.78.09-.31-.95.53,1.07-6.39,7.87-27.09,24.76-57.73,41.57-80.47,6.13-8.29,26.74-22.7,8.53-25.05.53-.42-2.79-2.7,7.99-9.59,28.08-14.04,55.46-31.27,85.26-41.57,5.06-1.75,14.68-5.46,18.65-3.2Z" style="fill:#794058; stroke-width:0px;"/><path d="m616.03,423.12c-.14-.52-.1-10.13,0-10.66,2.59-13.49,14.73-24.09,21.32-34.11-1.05,6.99-7.16,54.27-11.19,54.36-2-2.94-9.35-6.68-10.13-9.59Z" style="fill:#69314d; stroke-width:0px;"/><path d="m466.82,423.12c-.37,2.51-5.37,10.91-6.93,11.72-11.93,6.26-8.51-46.89-10.13-55.42,9.04,11.81,19.43,27.7,17.05,43.7Z" style="fill:#69314d; stroke-width:0px;"/></g><path d="m787.63,199.3h-1.07c-3.84-10.85-6.6-22.29-10.66-33.04,6.31,9.13,8.68,22.32,11.72,33.04Z" style="fill:#7a888f; stroke-width:0px;"/><path d="m775.9,166.26c-2.42-2.76-3.65-6.39-5.33-9.59l1.07-1.07c1.64,3.74,2.83,6.86,4.26,10.66Z" style="fill:#7a888f; stroke-width:0px;"/><path d="m513.72,530.77c.32,1.48,1.03,1,1.07,1.07,6,12.15,22,14.07,24.51,3.2h4.26c1.9,7.06,14.38,14.21,26.11-4.26,5.5,3.25,11.9-4.11,16.52-6.39.29-.14.78.14,1.07,0,.71-.35,1.46,1.65,2.66,1.07,12.62-6.17,23.08-17.3,34.64-25.58-2.18,31.58-10.39,65.05-29.84,89.53-7.76-1.57-11.54,1.78-14.92,7.99,1.49,14.89.65-4.53,6.93-2.66,5.08,1.51-3.07,16.15,10.66,27.71-2.07-20.54,8.05-15.51,9.06,2.13-12.43,0-24.87,0-37.3,0-2.98-15.24,10.01-31.88-2.13-17.59q-.53,8.79-1.07,17.59c-3.91,0-7.82,0-11.72,0q.27-34.11.53-68.21-1.33,34.11-2.66,68.21c-5.33,0-10.66,0-15.99,0l-4.8-67.15c-2.25,21.75,2.88,44.86,2.66,67.15-1.42,0-2.84,0-4.26,0-1.71-2.28-5.26-3.43-6.39,0-5.33,0-10.66,0-15.99,0-4.8-12.79.19-18.72,0-19.72-.83-4.3-8.51.91-3.2,19.72-2.49,0-4.97,0-7.46,0-.67-4.8,1.53-28.23-1.6-29.84-.95,1-1.64.98-2.66,2.13-5.25,5.9-1.95,20.42,0,27.71-2.49,0-4.97,0-7.46,0q1.07-15.19,2.13-30.38-2.93,11.99-5.86,23.98l-1.6-27.71c4.86-8.1,4.79,2.58,10.66.53-30.78-41.49-32.21-45.14-39.43-96.46,19.49,12.63,31.55,25.94,33.57,26.65,6.21,2.16,7.01-1.9,9.59-1.07,1.54.5,5.53,15.51,19.72,10.66Z" style="fill:#1a0c18; stroke-width:0px;"/><path d="m507.32,624.56c-1.07,0-2.13,0-3.2,0-5.31-18.8,2.37-24.02,3.2-19.72.19.99-4.8,6.93,0,19.72Z" style="fill:#237b6a; stroke-width:0px;"/><path d="m484.94,624.56c-2.13,0-4.26,0-6.39,0,2.13-11.75-10.8-17.08-6.93-19.18,10.6,12.1,3.68,2.95,5.86-8.53.21-1.09,1.52-5.37,2.13-6.39l1.6,27.71q2.93-11.99,5.86-23.98-1.07,15.19-2.13,30.38Z" style="fill:#1c4a51; stroke-width:0px;"/><path d="m496.66,624.56c-.71,0-1.42,0-2.13,0l-2.13-27.71c1.03-1.15,1.71-1.13,2.66-2.13,3.13,1.61.93,25.04,1.6,29.84Z" style="fill:#09443d; stroke-width:0px;"/><path d="m494.53,624.56c-.71,0-1.42,0-2.13,0-1.95-7.29-5.25-21.81,0-27.71l2.13,27.71Z" style="fill:#237b6a; stroke-width:0px;"/><path d="m576.07,604.31c1.21.24-1.85,24.22-3.73,11.19-.08-.58,2.86-11.36,3.73-11.19Z" style="fill:#2e4242; stroke-width:0px;"/><path d="m554.22,624.56c-.71,0-1.42,0-2.13,0q1.33-34.11,2.66-68.21-.27,34.11-.53,68.21Z" style="fill:#50958b; stroke-width:0px;"/><path d="m536.1,624.56c-.71,0-1.42,0-2.13,0,.22-22.28-4.92-45.39-2.66-67.15l4.8,67.15Z" style="fill:#50958b; stroke-width:0px;"/><path d="m569.14,624.56c-1.07,0-2.13,0-3.2,0q.53-8.79,1.07-17.59c12.14-14.29-.85,2.34,2.13,17.59Z" style="fill:#237b6a; stroke-width:0px;"/><path d="m529.7,624.56c-2.13,0-4.26,0-6.39,0,1.14-3.43,4.68-2.28,6.39,0Z" style="fill:#4bbca5; stroke-width:0px;"/><path d="m554.75,546.75c.88,0,2.89,3.14.53,4.8-2.31,1.63-2.88-4.8-.53-4.8Z" style="fill:#31665c; stroke-width:0px;"/><path d="m530.24,548.89c3.94-.11,1.85,3.23,0,3.2-1.57-.03-1.61-3.15,0-3.2Z" style="fill:#237b6a; stroke-width:0px;"/><path d="m417.79,559.54c4.41,7.14,24.51,20.21,24.51,21.85,0,1.2-5.52,3.06-6.39,6.39-1.66,6.35,3.1,12.62,3.2,13.32.86,6.04,2.32,13.14,2.13,19.18-.07,2.09-1.25,2.47-1.07,4.26-1.07,0-2.13,0-3.2,0l-8.53-13.32q-1.6-5.6-3.2-11.19c-2.96.42-1.8-1.29-2.13-2.13.49-10.95-13.31-41.77-7.46-19.72.55,2.08,4.89,12.46,6.39,16.52q-7.99-1.6-15.99-3.2c-.72-1.07-1.42-2.12-2.13-3.2.09.13,2.82.28,3.2-.53-7.17-20.37,4.88-1.59,1.07-13.32,4.91-12.82,3.02-20.93,9.59-14.92Z" style="fill:#2c3144; stroke-width:0px;"/><path d="m458.3,573.4c2.13,1.4,5.05,1.84,6.93,3.2,4.11,2.96,1.27,3.87,1.6,4.26-8.74,1.1-1,17.68-11.19,10.66-2,1.39-1.41,2.36-1.6,3.2-.38,1.73.08,5.72,0,8.53-.27,9.51,1.73,14.18,8.53,21.32-1.07,0-2.13,0-3.2,0-.9-3.2-4.08-5.06-5.33-7.99-2.53-5.95-9.33-43.62-7.46-10.66.29,5.17,3.49,13.16,4.26,18.65-2.13,0-4.26,0-6.39,0-.22-2.56-2.76-9.26-3.2-4.26.19-6.05-1.27-13.15-2.13-19.18,11.31,2.24,1.48-12.01,12.79-18.65-.96-4.78-3.02-3.56-3.2-3.73,5.71-5.66-15.42-17.82-20.25-25.58l5.33-2.13c.75,1.9,12.87,11.57,15.99,14.39.29.26-1.49,2.95,3.73,6.93.2.15,4.01.55,4.8,1.07Z" style="fill:#33aa96; stroke-width:0px;"/><path d="m466.82,580.86c3.9,4.67,7.67,9.75,10.66,15.99-2.18,11.48,4.74,20.63-5.86,8.53-3.87,2.11,9.06,7.43,6.93,19.18-2.49,0-4.97,0-7.46,0,.48-5.67-1.6-10.74-3.2-15.99-3.12-10.23,1.73-11.17-13.86-13.86.18-.84-.4-1.8,1.6-3.2,10.19,7.02,2.45-9.56,11.19-10.66Z" style="fill:#1a0c18; stroke-width:0px;"/><path d="m467.89,608.57c1.6,5.25,3.68,10.32,3.2,15.99-2.84,0-5.68,0-8.53,0-6.8-7.14-8.8-11.81-8.53-21.32,10.08-2.5-7.7,6.01,13.86,5.33Z" style="fill:#30253d; stroke-width:0px;"/><path d="m459.36,624.56c-2.84,0-5.68,0-8.53,0-.77-5.49-3.97-13.48-4.26-18.65-1.87-32.96,4.93,4.71,7.46,10.66,1.25,2.93,4.43,4.79,5.33,7.99Z" style="fill:#172122; stroke-width:0px;"/><path d="m436.98,624.56c-3.2,0-6.39,0-9.59,0q-1.6-9.59-3.2-19.18c-.04-3.02-2.73-2.75,1.07-5.33q1.6,5.6,3.2,11.19l8.53,13.32Z" style="fill:#22242f; stroke-width:0px;"/><path d="m444.44,624.56c-1.42,0-2.84,0-4.26,0-.19-1.79,1-2.17,1.07-4.26.44-5,2.98,1.71,3.2,4.26Z" style="fill:#152319; stroke-width:0px;"/><path d="m626.69,520.11l1.07,6.39c-1.47,5.11-5.39,31.87-5.33,33.57.19,4.81,1.4.98,2.13,1.6.17.15,1.32,2.81,3.2,3.2-1.52,2.51-.8,7.56-1.07,7.99-1.94,3.24-10.74,10.12-10.66,16.52-2.61,1.04-8.52,5.34-11.19,7.46-2.11-2-8.02-7.04-10.13-7.46,19.45-24.48,27.67-57.95,29.84-89.53,1.43-1.03,2.81-2.17,4.26-3.2l-2.13,23.45Z" style="fill:#50958b; stroke-width:0px;"/><path d="m450.83,494.53c7.22,51.32,8.66,54.97,39.43,96.46-5.86,2.05-5.8-8.64-10.66-.53-.62,1.03-1.92,5.31-2.13,6.39-2.98-6.24-6.76-11.32-10.66-15.99-.33-.39,2.51-1.3-1.6-4.26-1.88-1.35-4.8-1.8-6.93-3.2-3.23-17.77-8.49-35.32-10.66-53.29-.04-.37.58-1.68,0-7.46-.72-7.1-1.06-14.24-2.13-21.32,1.89,1.11,3.46,1.99,5.33,3.2Z" style="fill:#1f8c81; stroke-width:0px;"/><path d="m447.64,520.11c-4.47,8.81-17.83,20.84-13.86,30.91l-5.33,2.13c-1.06-1.71-4.13-6.18-4.26-6.93-1.51-8.61,6.75-23.22-2.13-12.26-.71.03-1.43-.06-2.13,0-3.76.34-10.56,4.84-12.79,7.99-10.54,14.95.25,30.01,1.07,32.51,3.82,11.73-8.24-7.04-1.07,13.32-.38.81-3.11.67-3.2.53-.41-.61.18-11.62,0-12.26-1.34-4.75-7.76-12.25-7.46-22.91.41-1.75.37-3.61,1.07-5.33,1-2.47,4.54-10.72,5.33-11.72,3.53-4.52,9.75-9.28,15.45-6.39,16.36-20.26,15.77-.79,29.31-17.05.58,5.78-.04,7.09,0,7.46Z" style="fill:#69cfb3; stroke-width:0px;"/><path d="m376.23,535.03c5.35,13.45-1.66,16.24,21.32,12.79-.7,1.72-.66,3.58-1.07,5.33-7.27,30.93,1.05,25.52,7.46,35.17.71,1.07,1.41,2.13,2.13,3.2,16.82,25.07,18.33,31.21,18.12,13.86q1.6,9.59,3.2,19.18c-11.37,0-22.74,0-34.11,0q-1.33-14.92-2.66-29.84.27,14.92.53,29.84c-4.26,0-8.53,0-12.79,0-10.2-18.35-11.66-39.36-14.39-59.68-8.7,11.4,4.79,44.61,12.26,59.68-49.74-.03-99.48.06-149.21,0,8.07-5.49,16.95-10.41,25.58-14.92,1.38-.72,2.83-1.39,4.26-2.13,10.51-5.47,21.32-10.78,31.97-15.99,7.55-3.69,11.92-.48,19.72-10.66,15.9.16,25.32-19.03,41.57-14.92,2.96-2.94,5.71-5.98,9.06-8.53,9.12-7.11,15.87-2.05,17.05-3.73-8.25-46.4-36.35-85.26-56.49-126.83-1.23-2.53-4.82-15.32-5.33-15.99-2.84-3.72-6.64,1.77-11.72-1.6,6.13-1.94,12.07-.22,17.05-5.33-.47,4.71-5.63-.32,2.13,19.72,6.15,15.86,33.82,59.72,54.36,111.38Z" style="fill:#69cfb3; stroke-width:0px;"/><path d="m422.06,594.72c.38,1.03.71,2.3,1.07,3.2.34.85-.83,2.55,2.13,2.13-3.8,2.58-1.1,2.31-1.07,5.33.21,17.36-1.3,11.21-18.12-13.86q7.99,1.6,15.99,3.2Z" style="fill:#22242f; stroke-width:0px;"/><path d="m378.36,624.56c-.71,0-1.42,0-2.13,0-7.47-15.08-20.96-48.28-12.26-59.68,2.73,20.33,4.19,41.34,14.39,59.68Z" style="fill:#132826; stroke-width:0px;"/><path d="m393.28,624.56c-.71,0-1.42,0-2.13,0q-.27-14.92-.53-29.84,1.33,14.92,2.66,29.84Z" style="fill:#09443d; stroke-width:0px;"/><path d="m403.94,588.32c-6.41-9.66-14.73-4.24-7.46-35.17-.3,10.66,6.12,18.16,7.46,22.91.18.63-.41,11.65,0,12.26Z" style="fill:#22242f; stroke-width:0px;"/><path d="m330.93,578.73c4.82-2.04,1.57,33.71,4.26,39.43-5.19-4.89-9.56-37.19-4.26-39.43Z" style="fill:#132826; stroke-width:0px;"/><path d="m382.09,555.28c-4.81,12.55-9.31,24.7-9.59,38.37-1.23-11.46.78-30.25,9.59-38.37Z" style="fill:#0e3530; stroke-width:0px;"/><path d="m422.06,533.97c-16.88,20.85,14.79,33.61,26.65,44.76.18.17,2.24-1.05,3.2,3.73-11.31,6.65-1.48,20.89-12.79,18.65-.1-.7-4.86-6.97-3.2-13.32.87-3.34,6.4-5.2,6.39-6.39,0-1.64-20.1-14.71-24.51-21.85-7.37-11.93-4.41-14.29,2.13-25.58.7-.06,1.43.03,2.13,0Z" style="fill:#33aa96; stroke-width:0px;"/><path d="m419.93,533.97c-6.55,11.29-9.5,13.65-2.13,25.58-6.58-6-4.68,2.1-9.59,14.92-.81-2.5-11.61-17.55-1.07-32.51,2.23-3.16,9.03-7.66,12.79-7.99Z" style="fill:#1a0c18; stroke-width:0px;"/><path d="m423.12,597.91c-.35-.89-.68-2.16-1.07-3.2-1.51-4.06-5.84-14.43-6.39-16.52-5.85-22.06,7.95,8.77,7.46,19.72Z" style="fill:#316768; stroke-width:0px;"/><path d="m458.3,573.4c-.79-.52-4.6-.92-4.8-1.07-5.22-3.98-3.44-6.66-3.73-6.93-3.11-2.82-15.24-12.49-15.99-14.39-3.98-10.07,9.39-22.1,13.86-30.91,2.16,17.97,7.43,35.52,10.66,53.29Z" style="fill:#1a0c18; stroke-width:0px;"/><path d="m428.45,553.15c4.83,7.76,25.96,19.92,20.25,25.58-11.86-11.15-43.53-23.92-26.65-44.76,8.88-10.97.62,3.65,2.13,12.26.13.75,3.2,5.22,4.26,6.93Z" style="fill:#1c1c1f; stroke-width:0px;"/><path d="m467.89,608.57c-21.56.68-3.77-7.83-13.86-5.33.08-2.8-.38-6.79,0-8.53,15.58,2.69,10.74,3.63,13.86,13.86Z" style="fill:#30253d; stroke-width:0px;"/><path d="m594.72,589.39c2.1.42,8.02,5.46,10.13,7.46,2.67-2.12,8.58-6.42,11.19-7.46.24-.09.67.04,1.07,0,2.83,10.08-8.93,5.27-4.26,35.17-2.13,0-4.26,0-6.39,0-1.01-17.65-11.13-22.67-9.06-2.13-13.73-11.56-5.58-26.21-10.66-27.71-6.28-1.86-5.43,17.55-6.93,2.66,3.39-6.22,7.16-9.56,14.92-7.99Z" style="fill:#33aa96; stroke-width:0px;"/><path d="m678.92,593.65c-4.31,10.87-8.56,21.03-14.92,30.91-5.68,0-11.37,0-17.05,0,7.74-6.41,9.36-16.52,11.72-25.58,5.87-1.7,3.52,12.28,8.53,4.8,5.42-8.1,6.85-57.45,11.72-26.65.86,5.44-2.32,11.19,0,16.52Z" style="fill:#4bbca5; stroke-width:0px;"/><path d="m638.42,575.53c-1.22,17.37,1.1,35.49-5.33,49.03-3.91,0-7.82,0-11.72,0,1.12-4.35,1.93-6.57,5.33-9.59,1.27-1.13,7.33-3.67,9.59-4.8,1.1-3.55-.89-7.84-1.07-11.19-.29-5.39-1.26-11.28-.53-15.99-4.84.46-8.47-6.22-15.45,6.39-.71.03-1.43-.06-2.13,0-.4.04-.83-.09-1.07,0-.08-6.4,8.72-13.28,10.66-16.52.26-.44-.46-5.49,1.07-7.99.92-1.51,9.72-8.85,11.72-13.86,2.09,6.3-.56,17.29-1.07,24.51Z" style="fill:#30253d; stroke-width:0px;"/><path d="m619.23,589.39c-.7,7.13,1.08,7.08,1.07,7.46-.07,1.47-2.73-.35-2.13,5.86.42,4.3,8.43,7.34,1.07,21.85-2.13,0-4.26,0-6.39,0-4.66-29.91,7.09-25.09,4.26-35.17.7-.06,1.43.03,2.13,0Z" style="fill:#1c2a35; stroke-width:0px;"/><path d="m626.69,607.51c-.02.37-2.13-.66,0,7.46-3.4,3.02-4.2,5.24-5.33,9.59-.71,0-1.42,0-2.13,0,7.37-14.51-.65-17.55-1.07-21.85-.6-6.21,2.06-4.39,2.13-5.86,8.22,8.94,7.82-16.16,6.39,10.66Z" style="fill:#2a5b6a; stroke-width:0px;"/><path d="m639.48,585.12c.04,13.62,2.53,27.29-4.26,39.43-.71,0-1.42,0-2.13,0,6.42-13.53,4.11-31.66,5.33-49.03,1.67-.13,1.05,4.53,1.07,9.59Z" style="fill:#316768; stroke-width:0px;"/><path d="m643.74,589.39l-4.26-4.26c-.01-5.07.6-9.72-1.07-9.59.51-7.23,3.15-18.21,1.07-24.51,5.5-13.77-4.68-24.57-2.66-25.58,44.95,35.64,10.07,34.4,7.99,58.09-6.51-7.91-1.43,1.12-1.07,5.86Z" style="fill:#2e4242; stroke-width:0px;"/><path d="m624.56,561.68c-.73-.62-1.95,3.22-2.13-1.6-.07-1.7,3.85-28.46,5.33-33.57,10.55,16.19,7.01,20.78-3.2,35.17Z" style="fill:#172122; stroke-width:0px;"/><path d="m664,574.47l-15.99,11.72c.41-11.13,21.31-27.47,21.32-20.78,0,.53-3.19,3.09-5.33,9.06Z" style="fill:#22242f; stroke-width:0px;"/><path d="m682.11,540.36c3.45,9.98,11.39-2.92,20.78,10.66h7.46c9.15,12.19,14.93,6.19,17.05,12.79,8.72-.48,16.97-.18,21.32,8.53,15.07,1.68,12.53,15.05,16.52-3.2,2.13,2.63.31,5.03,2.13,8.53.57,1.08-.51,1.76,2.66,3.2,8.64-1.72,10,5.06,12.79,6.39,1.98.95,25.16,8.74,38.37,14.92,13.9,6.5,28.23,13.85,41.03,22.38-64.3.08-128.61-.04-192.91,0,10.91-18.68,20.36-41.2,19.72-62.88-1.66,11.38-5.94,21.41-10.13,31.97-2.32-5.33.86-11.08,0-16.52-4.87-30.81-6.31,18.55-11.72,26.65-5,7.48-2.66-6.5-8.53-4.8,1.2-4.61-.01-9.57,5.33-24.51,2.13-5.97,5.33-8.53,5.33-9.06,0-6.69-20.9,9.66-21.32,20.78-.02.51,1.84,3.15,1.07,10.13-5.62-22.15-2.45,30.4-5.33-6.93-.37-4.74-5.45-13.77,1.07-5.86,2.08-23.69,36.96-22.45-7.99-58.09-2.02,1.01,8.16,11.81,2.66,25.58-2,5.01-10.81,12.35-11.72,13.86-1.87-.39-3.02-3.05-3.2-3.2,10.21-14.39,13.74-18.98,3.2-35.17l-1.07-6.39c19.78-5.72,23.68,10.07,26.11,10.66,19.59-6.07,15.11,11.02,29.31,9.59Z" style="fill:#69cfb3; stroke-width:0px;"/><path d="m669.32,624.56c-1.78,0-3.55,0-5.33,0,6.36-9.88,10.61-20.04,14.92-30.91,4.19-10.56,8.47-20.59,10.13-31.97.64,21.68-8.81,44.2-19.72,62.88Z" style="fill:#132826; stroke-width:0px;"/><path d="m711.42,561.68c5.38,1.08-1.19,38.87-7.46,42.63,1.01-8.44,3.65-16.62,4.8-25.05,1.02-7.5-2.38-15.8,2.66-17.59Z" style="fill:#132826; stroke-width:0px;"/><path d="m657.07,537.16q2.93.8,5.86,1.6c28.87,36.86,14.52,34.42-5.86-1.6Z" style="fill:#132826; stroke-width:0px;"/><path d="m789.23,598.98c12.32,17.59,8.24,20.29-.53.53l.53-.53Z" style="fill:#09443d; stroke-width:0px;"/><path d="m664,574.47c-5.34,14.94-4.13,19.91-5.33,24.51-2.37,9.06-3.99,19.17-11.72,25.58-3.91,0-7.82,0-11.72,0,6.79-12.14,4.3-25.81,4.26-39.43l4.26,4.26c2.88,37.33-.29-15.22,5.33,6.93.77-6.98-1.08-9.62-1.07-10.13l15.99-11.72Z" style="fill:#22242f; stroke-width:0px;"/><path d="m649.61,610.7c4.69-2.23-6.15,14.06-6.93,6.93-.15-1.35,7.39-3.55,6.93-6.93Z" style="fill:#316768; stroke-width:0px;"/><path d="m635.22,598.98l-8.53,8.53c1.43-26.81,1.83-1.72-6.39-10.66.02-.38-1.77-.33-1.07-7.46,6.98-12.61,10.62-5.93,15.45-6.39-.73,4.7.25,10.59.53,15.99Z" style="fill:#2c3144; stroke-width:0px;"/><path d="m626.69,614.97c-2.13-8.12-.02-7.09,0-7.46l8.53-8.53c.18,3.35,2.16,7.64,1.07,11.19-2.27,1.13-8.32,3.67-9.59,4.8Z" style="fill:#31192d; stroke-width:0px;"/><path d="m771.64,155.61l-1.07,1.07c-12.91-24.56-28.64-47.12-51.16-63.95-1.36-4.45-42.9-34.43-49.56-38.37-66.46-39.31-152.24-47.63-224.88-21.32-43.53,15.77-101.47,60.98-126.3,100.19h-1.07c9.52-15.68,20.3-30.44,33.04-43.7C422.14,15.08,525.08-9.69,622.96,24.51c55.38,19.35,124.89,76.83,148.68,131.09Z" style="fill:#e9e5ad; stroke-width:0px;"/><path d="m782.3,410.33c-3.31,2.63-7.54-3.32-5.33,12.79.87,6.36,4.34,12.53,5.33,18.65,7.01,43.61-10.78,92.22-14.92,135.89-1.82-3.49,0-5.89-2.13-8.53,2.35-10.76,14.43-80.13,14.92-86.86,2.8-38.18-4.43-45.55-7.46-60.75-1.32-6.61,3.49-11.88-1.07-11.19-2.01.26-4.1-.42-5.33-2.13l15.99,2.13Z" style="fill:#4bbca5; stroke-width:0px;"/><path d="m719.42,92.72c-14.14-10.57-39.73-24.37-55.95-31.97-6.52-3.06-53.57-23.36-44.23-14.92-43.84-20.93-95.38-24.01-141.75-9.59-3.98-2.26-13.59,1.45-18.65,3.2-29.81,10.29-57.18,27.53-85.26,41.57-10.78,6.89-7.46,9.17-7.99,9.59-31.08,24.63-46.92,40.87-60.75,79.94-4.87.39-2.68,10.6-6.39,7.46,6.01-17.27,10.22-28.93,20.25-44.76,24.83-39.2,82.77-84.42,126.3-100.19,72.65-26.32,158.42-17.99,224.88,21.32,6.66,3.94,48.2,33.92,49.56,38.37Z" style="fill:#1a0c18; stroke-width:0px;"/><path d="m791.89,230.21c-2.76,8.79.32,5.49,1.07,7.46,1.13,2.97,2.92,4.81,4.26,7.46-6.1,6.97-25.05,4.07-11.72-9.06l-5.33,1.6c.61-3.23-3.69-3.43-4.26-4.26,1.57-6.43,5.94-.02,15.99-3.2Z" style="fill:#132826; stroke-width:0px;"/><path d="m797.22,245.13c.17.33,3.34-.78,2.13,2.66-1.73,3.72-3.11,2.48-3.2,2.66-6.35.43-10.75-1.54-15.99,2.13.6-4.41-.43-10.25,0-14.92l5.33-1.6c-13.32,13.13,5.63,16.03,11.72,9.06Z" style="fill:#4f878f; stroke-width:0px;"/><path d="m796.15,250.46c-2.23,4.77-4.1,7.2-4.26,12.79-.12,4.4.87,9.02,3.2,12.79-12.94,13.93-8.3-6.55-20.25-7.99-.62-.82,4.33-8.14,5.33-15.45,5.24-3.67,9.64-1.71,15.99-2.13Z" style="fill:#132826; stroke-width:0px;"/><path d="m792.96,264.32c1,3.66,1.86,8.28,3.2,11.72h-1.07c-2.33-3.77-3.32-8.39-3.2-12.79,1.32-.11.99,1.05,1.07,1.07Z" style="fill:#517380; stroke-width:0px;"/><path d="m786.03,252.59q2.13,9.59,4.26,19.18c-3.43-10.02-8.05-2.51-4.26-19.18Z" style="fill:#2e7878; stroke-width:0px;"/><path d="m787.63,199.3c.94,3.3,3.41,7.18,4.26,10.66,1.16,4.72,4.14,14.74,3.2,18.65-.42,1.76-3.14,1.43-3.2,1.6-10.04,3.18-14.42-3.23-15.99,3.2-.44-.65-3.47-.65-7.46-13.32-1.86-5.89-2.89-11.77-2.13-17.59,6.42.76,12.48-3.05,20.25-3.2h1.07Z" style="fill:#69cfb3; stroke-width:0px;"/><path d="m770.58,156.67c1.68,3.2,2.91,6.83,5.33,9.59,4.06,10.75,6.82,22.19,10.66,33.04-7.77.15-13.83,3.95-20.25,3.2.15-1.14-.23-2.63,0-3.2,2.07-5.18,9.34-5.61,14.92-4.8-.03-20.82-45.17-94.14-62.88-95.39.18-2.13,1.77-4.11,1.07-6.39,22.52,16.83,38.24,39.39,51.16,63.95Z" style="fill:#132826; stroke-width:0px;"/><path d="m718.35,99.12c17.71,1.25,62.86,74.56,62.88,95.39-5.58-.81-12.85-.38-14.92,4.8-10.08-17.9-16.89-37.34-27.71-54.89-14.68-23.81-30.69-36.94-30.91-39.43-.29-3.33,7.95-6.05,10.66-5.86Z" style="fill:#69cfb3; stroke-width:0px;"/><path d="m795.09,276.04h1.07c6.62,17.06,13.24,2.33,11.72,32.51-.27,5.29-3.19,19.21-4.26,26.11l-22.38-6.39c.89-7.87,0-14.68,0-22.38,0-16.35,7.21-21.12-12.79-35.7,5.63-4.82,8.41-15.26,11.72-17.59-1,7.31-5.95,14.64-5.33,15.45,11.95,1.45,7.31,21.92,20.25,7.99Z" style="fill:url(#e); stroke-width:0px;"/><path d="m803.62,334.66c-2.16,13.87-6.22,26.95-9.59,40.5l-21.32-2.13c1.59-8.77,2.85-17.82,4.26-26.65.78-4.9,3.45-10.89,4.26-18.12l22.38,6.39Z" style="fill:#69cfb3; stroke-width:0px;"/><path d="m794.02,375.16c-2.89,11.64-1.99,27.43-11.72,35.17l-15.99-2.13c-2.37-3.3.61-6.53,1.07-9.59,1.28-8.67,3.77-17,5.33-25.58l21.32,2.13Z" style="fill:#50958b; stroke-width:0px;"/><path d="m776.97,346.38c-1.41,8.83-2.67,17.87-4.26,26.65-1.55,8.58-4.05,16.91-5.33,25.58-5.35-4.33-9.01-16.57-14.92-13.86.09-.33-.09-.73,0-1.07,1.38-5.07,10.51-27.52,9.06-9.59,3.46,2.47,12.26-23.68,15.45-27.71Z" style="fill:#1a0c18; stroke-width:0px;"/><path d="m743.93,257.92c.4.92.98,1.35,1.07,2.13-3.04,11.06-3.69,22.75-5.33,34.11-.61,4.27-1.61,8.73-2.13,12.79-.81,6.28-4.29,12.65-4.26,19.18-6.28-15.64.28-34.69-10.66-30.91.75-7.84,1.44-15.61,2.13-23.45,3.36-.62,2.19,8.1,5.86,11.72,4.21-15.98-1.07-30.93,13.32-25.58Z" style="fill:#e9e5ad; stroke-width:0px;"/><path d="m743.93,257.92c-14.39-5.35-9.11,9.6-13.32,25.58-3.67-3.62-2.5-12.34-5.86-11.72.09-1.05-.1-2.15,0-3.2.35-3.78-1.3-8.75,1.6-11.72,4.21-4.32,14.79-5.45,17.59,1.07Z" style="fill:#c1e0b3; stroke-width:0px;"/><path d="m739.67,332.53c-1.87,17.76-9.3,68.61-17.05,82.07-7.76,13.48-2.58,1.1,1.07-17.05,3.48-17.32,7.18-34.71,9.59-52.22.05-.35-.05-.72,0-1.07,2.48-2.69,3.67-8.18,4.26-11.72h2.13Z" style="fill:#1c2a35; stroke-width:0px;"/><path d="m723.68,397.54c-4.29,2.09-3.84,4.04-7.46-1.07,3.19-11.19,6-21.42,7.46-33.04,4.19-.12,4.22-11.86,9.59-18.12-2.41,17.52-6.12,34.9-9.59,52.22Z" style="fill:#33aa96; stroke-width:0px;"/><path d="m722.61,359.17c-.48,3.05-.45,6.53-1.07,9.59-2.15-.21-8.8,8.28-9.59,9.59-.39-2.63,1.56-5.16,2.13-7.46.77-3.06,1.54-6.5,2.13-9.59l6.39-2.13Z" style="fill:#66b18f; stroke-width:0px;"/><path d="m781.23,305.88c0,7.7.89,14.51,0,22.38-.82,7.23-3.48,13.22-4.26,18.12-3.19,4.03-12,30.18-15.45,27.71,1.45-17.93-7.68,4.52-9.06,9.59-30.49-6.74-11.64,11.08-29.84,30.91,7.75-13.46,15.18-64.3,17.05-82.07.51-4.85.76-10.03,1.07-14.92h2.13c-.76,7.23-2.1,24.4,1.07,16.52,4.26-10.6,16.28-56.75,17.05-70.88,4.6,7.38,1,23.6,2.13,33.57l18.12,9.06Z" style="fill:url(#f); stroke-width:0px;"/><path d="m760.98,263.25c-.77,14.12-12.79,60.28-17.05,70.88-3.17,7.88-1.82-9.29-1.07-16.52,2.04-19.5,6.25-38.87,6.39-58.62,5.57-1.59,8.74-.53,11.72,4.26Z" style="fill:#c1e0b3; stroke-width:0px;"/><path d="m749.26,258.99c-.14,19.75-4.36,39.12-6.39,58.62h-2.13c.61-9.8,1.63-24-1.07-23.45,1.63-11.36,2.29-23.04,5.33-34.11,1.43-.17,2.88-.67,4.26-1.07Z" style="fill:#69cfb3; stroke-width:0px;"/><path d="m721.55,368.77c-3.09,15.48-13.18,43.51-13.86,48.49-1.85,13.6,6.77-14.62,8.53-20.78,3.63,5.1,3.17,3.15,7.46,1.07-3.64,18.15-8.83,30.54-1.07,17.05,18.2-19.82-.65-37.64,29.84-30.91-.09.33.09.73,0,1.07-4.22,15.6-2.38,55.79-29.31,35.17-13.24,15.18-17.02,1.45-18.12,1.07-1.57-.54-21.12,5.57-21.85-8.53,11.51,5.6,16.23-5.98,20.25-13.86,3.36-6.58,4.67-13.86,8.53-20.25.79-1.31,7.44-9.8,9.59-9.59Z" style="fill:#1f8c81; stroke-width:0px;"/><path d="m725.81,348.52c.01,4.69-1.54,10.23-2.13,14.92-1.46,11.62-4.27,21.85-7.46,33.04-1.76,6.17-10.37,34.39-8.53,20.78.68-4.99,10.76-33.02,13.86-48.49.61-3.06.58-6.54,1.07-9.59.68-4.27.68-11.52,3.2-10.66Z" style="fill:#132826; stroke-width:0px;"/><path d="m735.94,398.61c1.49.4-.08,3.21-.53,4.8-2.7,9.38-2.75,1.76,0-4.26.22-.32.41-.57.53-.53Z" style="fill:#237b6a; stroke-width:0px;"/><path d="m740.73,317.61c-.31,4.89-.56,10.07-1.07,14.92h-2.13c1.33-7.95,2.08-17.72,0-25.58.53-4.06,1.52-8.52,2.13-12.79,2.69-.55,1.68,13.65,1.07,23.45Z" style="fill:#684350; stroke-width:0px;"/><path d="m733.27,326.13c-.55,5.48.76,13.22,0,18.12-.05.35.05.72,0,1.07-5.37,6.26-5.4,18-9.59,18.12.59-4.69,2.14-10.23,2.13-14.92-.02-7.14-1.04-18.75-5.33-19.18.15-1.39-.15-2.87,0-4.26.36-3.4-1.37-5.03-1.07-7.99.75-7.23,2.5-14.49,3.2-21.85,10.94-3.78,4.38,15.27,10.66,30.91Z" style="fill:#edd6a7; stroke-width:0px;"/><path d="m737.54,332.53c-.59,3.54-1.78,9.03-4.26,11.72.76-4.9-.55-12.64,0-18.12-.03-6.54,3.45-12.9,4.26-19.18,2.08,7.86,1.33,17.63,0,25.58Z" style="fill:#d8969c; stroke-width:0px;"/><path d="m725.81,348.52c-2.52-.86-2.52,6.39-3.2,10.66l-6.39,2.13c1.98-10.36,3.12-21.48,4.26-31.97,4.29.43,5.31,12.04,5.33,19.18Z" style="fill:#d5bca1; stroke-width:0px;"/><path d="m304.82,231.28c-2.16-.54-2.24.94-3.2,2.13-6.84,8.44,5.63,11.59-8.53,14.39,11.11.49,7.24,8.12,20.25,16.52-4.28,2.41-7.86.14-10.66-2.13-10.42-8.43-3.39-18.2-10.66-4.26-2.37-.77-6.09-7.95-6.39-9.59.84-.09,5.31-1.32,5.33-1.6.06-.68-2.4.33-4.26-2.66,1.91-4.63,8.57-7.17,3.2-14.92,5.92,1.18,15.71-2.24,14.92,2.13Z" style="fill:#132826; stroke-width:0px;"/><path d="m302.69,262.19h-1.07c-10.41-10.82-10.42,4.99-14.92,12.79h-1.07c.41-.81-.19-4.43,6.39-17.05,7.27-13.93.24-4.17,10.66,4.26Z" style="fill:#316768; stroke-width:0px;"/><path d="m285.64,248.33c-.18-.98-1.97-1.83,1.07-4.26,1.86,3,4.32,1.99,4.26,2.66-.02.28-4.49,1.51-5.33,1.6Z" style="fill:#50958b; stroke-width:0px;"/><path d="m301.62,262.19c-.14,6.12-8.39,16.76-14.92,12.79,4.5-7.8,4.51-23.61,14.92-12.79Z" style="fill:#172122; stroke-width:0px;"/><path d="m301.62,233.41c1.84,16.81-3.17,16.85,11.72,26.65-.53,1.97,2.47,2.87,0,4.26-13.01-8.4-9.14-16.03-20.25-16.52,14.15-2.79,1.68-5.95,8.53-14.39Z" style="fill:#81afb4; stroke-width:0px;"/><path d="m294.16,198.24c6.3,4.44,10.2.51,13.32,1.07,1.83.33,1.53,5.36,6.93,3.2-1.14,4.18-1.95,27.3-9.59,28.78.79-4.37-9-.95-14.92-2.13-8.76-1.75-.48-26.89,4.26-30.91Z" style="fill:#69cfb3; stroke-width:0px;"/><path d="m318.67,133.22c-10.03,15.83-14.24,27.49-20.25,44.76-.59,1.7-1.59,3.67-2.13,5.33,2.55-19.1,11.56-34.02,21.32-50.09h1.07Z" style="fill:#99a0a1; stroke-width:0px;"/><path d="m294.16,192.91c.19-.68-.06-2.82,2.13-9.59-.36,2.71.04,7.3-2.13,9.59Z" style="fill:#73757f; stroke-width:0px;"/><path d="m304.82,170.53c-2.57,7.27-5.37,14.41-7.46,21.85q9.06,1.87,18.12,3.73c-2.01,6.93-.98,6.08-1.07,6.39-5.39,2.17-5.1-2.87-6.93-3.2-3.12-.56-7.02,3.37-13.32-1.07.24-1.69-.36-4.07,0-5.33,2.17-2.29,1.77-6.88,2.13-9.59.54-1.66,1.54-3.63,2.13-5.33,3.71,3.14,1.53-7.08,6.39-7.46Z" style="fill:#132826; stroke-width:0px;"/><path d="m315.48,196.11q-9.06-1.87-18.12-3.73c2.09-7.44,4.89-14.58,7.46-21.85,13.83-39.07,29.67-55.3,60.75-79.94,18.22,2.35-2.4,16.76-8.53,25.05-16.8,22.73-33.7,53.38-41.57,80.47Z" style="fill:#69cfb3; stroke-width:0px;"/><path d="m337.86,332.53c.26.7.3,5.97,4.26,6.39,6.24,33.73,3.54,45.44,23.45,75.67.73,10.47-18.07-20.54-21.32-29.31-.21-.57,4.16,1.57,0-6.93-4.87-9.94-6.45-2.3-13.86,0-.4-1.04-.65-3.26-1.07-4.26-6.15-14.96-2.07-.66-11.72-12.26-5.9-7.09-8.05-16.54-13.32-23.98,2.57,11.03,5.19,22.07,7.99,33.04q-10.66,2.13-21.32,4.26c-6.46-20.27-12.87-40.49-14.92-61.82q10.92-2.66,21.85-5.33c1.24-3.84.12-7.82.53-11.72l15.99-11.72c4,16.38,10.54,37.13,23.45,47.96Z" style="fill:#69cfb3; stroke-width:0px;"/><path d="m315.48,260.05l4.26,4.8c4.46,22.79,9.96,45.88,18.12,67.68-12.9-10.83-19.44-31.58-23.45-47.96-.63-2.56-.25-16.93-2.66-17.05-2.51,4.11-10.98,14.04-12.26,17.05-4.8-8.06-7.1-6.42-15.99-6.39.74-1.03,1.56-2.06,2.13-3.2h1.07c6.53,3.97,14.78-6.67,14.92-12.79h1.07c2.8,2.27,6.38,4.54,10.66,2.13,2.47-1.39-.53-2.29,0-4.26.2.13,1.26-.07,2.13,0Z" style="fill:#9cdbb8; stroke-width:0px;"/><path d="m312.28,370.9c1.64,6.42,3.83,12.79,5.33,19.18,1.51,6.47,2.83,6.77,2.13,13.86-4.98,5.11-10.92,3.39-17.05,5.33-3.37-2.24-9.92-28.46-11.72-34.11q10.66-2.13,21.32-4.26Z" style="fill:#50958b; stroke-width:0px;"/><path d="m299.49,284.57c-3.24,7.69-.63,7.56-1.07,11.72-.41,3.9.71,7.88-.53,11.72q-10.92,2.66-21.85,5.33c-.91-9.45-1.47-18.75-1.07-28.24,3.49-3.78,5.16-2.22,8.53-6.93,8.88-.02,11.19-1.67,15.99,6.39Z" style="fill:#c1e0b3; stroke-width:0px;"/><path d="m390.08,405c3.49,1.95,6.98,3.76,10.66,5.33-.43.4-1.15,2.17-3.73,3.2-14.64-1.02-12.65,12.47-27.18,0,3.86-2.81.5-.8-1.07-4.8-2.54-6.48-3.74-13.89-4.26-15.45,16.4,27.16,1.98-2.94-2.13-13.86,12.09,2.54,8.92,15.09,27.71,25.58Z" style="fill:#1f8c81; stroke-width:0px;"/><path d="m344.25,378.36c-5.96,17.32,22.67,44.09,5.33,42.63-7.07-4.11-15.72-33.56-19.18-42.63,7.41-2.3,8.99-9.94,13.86,0Z" style="fill:#50958b; stroke-width:0px;"/><path d="m329.33,374.09l-11.72,15.99c-1.49-6.39-3.69-12.77-5.33-19.18-2.81-10.97-5.42-22.01-7.99-33.04,5.27,7.44,7.42,16.89,13.32,23.98,9.66,11.6,5.57-2.7,11.72,12.26Z" style="fill:#1a0c18; stroke-width:0px;"/><path d="m345.32,333.59c2.75,20.22,12.61,40.03,19.18,59.68.52,1.56,1.73,8.97,4.26,15.45,1.56,3.99,4.93,1.99,1.07,4.8-.2-.17-.89.18-1.07,0-12.17-12.01-24.8-68.98-26.65-87.4,1.11.8,2.17,4.59,3.2,7.46Z" style="fill:#33aa96; stroke-width:0px;"/><path d="m341.06,313.34c.15,6.37.53,7.4,1.07,12.79,1.84,18.42,14.48,75.39,26.65,87.4-.17.7-.68,1.57-1.07,2.13-.45-.11-2.07-.97-2.13-1.07-19.91-30.23-17.2-41.95-23.45-75.67-1.52-8.23-2.87-16.27-4.26-24.51l2.13-1.07h1.07Z" style="fill:#1c2a35; stroke-width:0px;"/><path d="m365.57,414.6c.07.1,1.68.95,2.13,1.07-4.13,6.05-11.42,9.22-18.12,5.33,17.34,1.45-11.29-25.32-5.33-42.63,4.16,8.5-.21,6.36,0,6.93,3.24,8.77,22.04,39.78,21.32,29.31Z" style="fill:#237b6a; stroke-width:0px;"/><path d="m326.14,251.53c1.7,8.9,4.69,17.77,6.39,26.65,2.28,11.9,3.3,24.27,5.33,36.24,1.39,8.24,2.74,16.28,4.26,24.51-3.97-.43-4-5.7-4.26-6.39-8.16-21.8-13.66-44.89-18.12-67.68l-4.26-4.8c1.67-2.78,7.83-8.18,10.66-8.53Z" style="fill:#c1e0b3; stroke-width:0px;"/><path d="m314.41,284.57l-15.99,11.72c.44-4.16-2.18-4.04,1.07-11.72,1.27-3.02,9.75-12.94,12.26-17.05,2.42.13,2.04,14.49,2.66,17.05Z" style="fill:#794058; stroke-width:0px;"/><path d="m361.31,324c.77,2.82,1.29,5.73,2.13,8.53l-4.26,8.53c-1.78-7.28-4.67-14.52-6.39-21.85,3.61-22.22-3.27-42.77-3.2-49.56.03-2.5,1.16-6.89,3.2-8.53,1.22,20.12,6.15,42.62,8.53,62.88Z" style="fill:#d38098; stroke-width:0px;"/><path d="m367.7,368.77c2.56,6.11,5.21,11.32,8.53,17.05,4.16,7.17,7.37,13.54,13.86,19.18-18.79-10.49-15.62-23.04-27.71-25.58-1.56-4.15-2.69-8.65-4.26-12.79l9.59,2.13Z" style="fill:#33aa96; stroke-width:0px;"/><path d="m345.32,334.66c2.55,6.8,5.96,13.48,8.53,20.25,1.47,3.88,2.78,7.82,4.26,11.72,1.57,4.14,2.7,8.64,4.26,12.79,4.12,10.91,18.53,41.02,2.13,13.86-6.57-19.65-16.43-39.47-19.18-59.68.11.32-.12.75,0,1.07Z" style="fill:#132826; stroke-width:0px;"/><path d="m345.32,334.66c-.12-.31.11-.75,0-1.07-1.02-2.88-2.08-6.66-3.2-7.46-.54-5.39-.91-6.42-1.07-12.79-.23-9.83-1.12-24.66,2.13-27.71-1.85,16.1,8.43,39.73,2.13,49.03Z" style="fill:#d8969c; stroke-width:0px;"/><path d="m353.85,248.33c-.01,1.01-1.4,3.67-1.07,10.66.03.71-.04,1.43,0,2.13-2.04,1.64-3.17,6.02-3.2,8.53q-3.2,7.99-6.39,15.99c-3.25,3.05-2.36,17.88-2.13,27.71h-1.07c-.78-8.67-2.47-17.07-4.26-25.58,2.71-6.87-3.1-27.92-2.13-34.11,4.37-9.04,12.23-12.16,20.25-5.33Z" style="fill:#e9e5ad; stroke-width:0px;"/><path d="m335.73,287.76c1.8,8.51,3.48,16.91,4.26,25.58l-2.13,1.07c-2.02-11.96-3.05-24.34-5.33-36.24,2.58,2.47,2.53,6.42,3.2,9.59Z" style="fill:#426f59; stroke-width:0px;"/><path d="m333.6,253.66c-.97,6.19,4.84,27.24,2.13,34.11-.67-3.17-.61-7.13-3.2-9.59-1.7-8.87-4.7-17.74-6.39-26.65.62-.08,4.58,2.5,7.46,2.13Z" style="fill:#69cfb3; stroke-width:0px;"/><path d="m363.44,357.04c1.4,4.08,2.58,7.71,4.26,11.72l-9.59-2.13c-1.48-3.91-2.79-7.85-4.26-11.72l5.33-10.66c1.22,4.63,2.74,8.34,4.26,12.79Z" style="fill:#69cfb3; stroke-width:0px;"/><path d="m359.18,341.05c.23.94-.24,2.28,0,3.2l-5.33,10.66c-2.57-6.77-5.98-13.45-8.53-20.25,6.29-9.3-3.98-32.93-2.13-49.03q3.2-7.99,6.39-15.99c-.07,6.79,6.81,27.34,3.2,49.56,1.72,7.33,4.61,14.57,6.39,21.85Z" style="fill:#e9e5ad; stroke-width:0px;"/><path d="m662.93,405c4,25.65,13.62,55.1,13.86,58.09,1.62,20.45-17.17,15.34-25.05,17.59-3.39.96-18.24,12.68-22.91,15.99-1.46,1.03-2.83,2.17-4.26,3.2-11.56,8.28-22.02,19.41-34.64,25.58-1.2.59-1.95-1.42-2.66-1.07l-5.86-10.66q2.4,5.33,4.8,10.66c-4.62,2.28-11.02,9.64-16.52,6.39-11.73,18.48-24.21,11.33-26.11,4.26-.42-1.58,1.18-14.84,1.07-24.51,1.73.24,4.3-.36,5.33,0,1.24.44-.42,8.47,3.2-6.39,7.1-.69,5.39,5.24,9.59,2.13,2.7-2,5.87-19.54,6.39-23.45h3.2c-.3,3.43.02,7.18,0,10.66,0,.75-3.34,6.1,1.07,14.39h2.13c.42-11.9.22-5.97,4.26-1.6,9.71,10.51,22.07,9.51,26.11,5.33,3.77-3.9-11.65-1.31-25.05-6.39.53-2.53-.43-6.72,0-9.59h3.2c4,7.96,20.34-3.28,21.32-6.93,1.48-5.51-4.53-13.46-9.59-7.99-.01-4.76-2.13-3.01-2.13-3.2,0-1.44.69-2.42,1.07-4.26,6.08,1.81,6.92-.13,9.59-5.33,3.83-7.47,3.15-13.39,3.2-19.18l6.39-2.13c-.05,3.38-.82,13.45.53,13.86,16.59-6.96,29.94-23.65,35.7-40.5h1.07c-3.71,43.41-30.38,42.47-39.97,75.67,29.68-23.29,33.86-40.6,41.03-75.67.97-4.76,1.36-9.16,2.13-13.86,1-6.05,2.27-12.02,3.2-18.12l1.07,39.97c3.75-7.08,2.7-15.31,4.26-22.91Z" style="fill:#e9e5ad; stroke-width:0px;"/><path d="m434.85,432.71c3.76,17.37,16.14,52.37,31.97,61.82-.12,3.97,3.23,5.14,5.33,7.46,1.47,1.62,9.35,11.74,10.13,11.72,3.37-3.75,17.37-13.73,18.65-15.99,3.02-5.3,2.68-12.26,3.2-18.12l2.13-1.07c1.16,6.3,2.28,12.85,3.2,19.18-5.8,2.17-12.69,13.83-24.51,21.85q12.79-8.26,25.58-16.52c1.77-3.37,1.12-8.89,1.07-12.79l4.26-1.07c.89,5.55,4.1,30.42,5.33,11.72,10.34-1.43,4.93,3.98,6.39,7.99.35.96,2.06.39,2.13.53.19.37-.12,1.65,0,2.66,1.42,1.46.97-1.57,1.07-1.6,2.48-.75,3.77.26,7.46-5.33-.14,7.64,2.76,22.48,1.07,29.84-2.51,10.87-18.51,8.95-24.51-3.2q.8-5.86,1.6-11.72c-1.14-.27-3.07,8.79-2.66,10.66-14.18,4.85-18.17-10.16-19.72-10.66-2.59-.84-3.38,3.23-9.59,1.07-2.02-.7-14.08-14.02-33.57-26.65-1.87-1.21-3.44-2.09-5.33-3.2-.51-.3-6.56-6.56-9.06-7.46-5.82-2.09-24.39,2.32-21.85-19.72.27-2.37,7.9-20.04,10.66-46.36.42-3.97.82-7.72,1.07-11.72,6.09,4.85.07,21.25,3.2,35.7h2.13q1.6-4.53,3.2-9.06Z" style="fill:#e9e5ad; stroke-width:0px;"/><path d="m542.49,468.95c.07.1,1.66.95,2.13,1.07-.83,6.19.34,19.1,0,27.71-.16,4.23-.05,8.55,0,12.79.12,9.67-1.49,22.94-1.07,24.51h-4.26c1.7-7.36-1.21-22.2-1.07-29.84.14-7.82.67-15.64,1.07-23.45.22-4.34,1.51-8.52,0-12.79,2.01.51,3.39,1.41,3.2,0Z" style="fill:#511336; stroke-width:0px;"/><path d="m587.26,524.37c-.29.14-.78-.14-1.07,0q-2.4-5.33-4.8-10.66l5.86,10.66Z" style="fill:#71583a; stroke-width:0px;"/><path d="m514.78,531.83c-.03-.07-.74.41-1.07-1.07-.41-1.87,1.52-10.93,2.66-10.66q-.8,5.86-1.6,11.72Z" style="fill:#706243; stroke-width:0px;"/><path d="m714.09,336.79c-2.15,6.82-3.31,16.62-5.33,22.38-6.95,19.77-20.32,39.76-20.25,42.1.44,13.82,17.76-19.97,14.92-2.66-4.02,7.87-8.74,19.45-20.25,13.86-8.09-3.93-9.94-33.82-10.13-42.63-4.21,11.33-7.69,23.37-10.13,35.17-1.56-9.98-3.12-19.12-2.13-29.31h-2.13c-.32.56-.64,9.49-1.07,12.26-.93,6.1-2.2,12.06-3.2,18.12-3.67,3.39-2.9,9.87-4.26,13.86-5.76,16.85-19.11,33.54-35.7,40.5-1.35-.4-.58-10.48-.53-13.86.06-4.32,1.8-14.2,1.07-19.18-.16-1.07-1.11-1.19-1.07-2.13.69-.51,2.18-.83,2.13-2.13.77,2.92,8.12,6.65,10.13,9.59,4.03-.09,10.14-47.37,11.19-54.36,14.33-21.79-2.85-4.15-10.13,4.26-1.53-.59,11.07-26.95.53-17.05l-4.26-5.33c.32-.28,1.97-3.09,2.13-3.2,30.76-20.12,45.93,24.25,65.55-3.2,9.48,4.09,24.04-14.13,13.32-14.92v-1.07c1.31-.57,4.67-2.33,5.33-3.2l4.26,2.13Z" style="fill:#1a0c18; stroke-width:0px;"/><path d="m594.72,436.98c.61.45,1.89,1.36,2.13,2.13-3.02,13.35,2.18,27.66,3.2-3.2.05-.05-.3-.36,1.07-1.07l1.07,4.26c-.41,4.97-1.14,10.03-2.13,14.92-.19.92,1.26,1.21,1.07,2.13-2.44-.57-3.6.99-5.33,2.13-3.27,2.17-4.37,8.3-6.39,12.79-3.69,8.2-7.2,15.55-8.53,24.51-.43,2.87.53,7.07,0,9.59-.15.73-.06,1.19-1.07,1.07-1.78-8.2-2.49-13-1.07-21.32,1.41-8.26,9.42-18.14,4.8-26.65-3.4,8.27-2.56,17.15-5.86,25.58-.2.51-3.66,3.86-5.33,9.59.02-3.48-.3-7.23,0-10.66.53-6.11,2.25-12.1,3.2-18.12.99-6.28,3.08-20.46,4.26-24.51.23-.78-.55-2.19,1.07-2.13.6.41,3.48-.67,4.26.53.63.97-4.48,10.91,2.13,22.38h2.13c9.91-30.52-1.64-22.21-3.2-24.51-1.05-1.55,1.82-8.06,1.07-13.32h1.07c2.38,10.77-4.42,5.91,6.39,13.86Z" style="fill:#1a0c18; stroke-width:0px;"/><path d="m559.55,465.75c.84,5.62-4.63,31.13-6.39,38.37-3.62,14.86-1.96,6.84-3.2,6.39-.8-4.4.67-8.6,1.07-12.79,1.13-11.86,5.28-36.13-3.2-30.91.78-5.64,6.99-33.39-4.8-29.84-4.54,1.37-5.87,24.88-.53,31.97.19,1.41-1.18.51-3.2,0-9.68-2.47-5.82,5.48-6.39,13.86-4.81.21-.96-13.94-1.07-14.92,6.78-2.41,3.6-16.76,5.33-28.24,16.76-16.52-5.9-51.07-12.79-14.92-3.07-19.62-3.64-8.63,6.93-17.59,30.71,2.15-1.93,29.94,25.05,31.44.86,1.14-5.02,20.91,3.2,27.18Z" style="fill:#221b20; stroke-width:0px;"/><path d="m610.7,407.13c1.2,1.33,2.81,1.75,3.2,2.66.16.38-4,7.47,2.13,2.66-.1.52-.14,10.14,0,10.66.05,1.3-1.44,1.62-2.13,2.13-4.77,3.5-9.69,3.57-8.53,10.13l9.59-7.99c.74,4.98-1.01,14.86-1.07,19.18l-6.39,2.13c.04-5.45,4.07-11.79-2.13-5.33-2.32,2.41-4,3.69,0,2.13-.26,2.99,0,6.66-3.2,8.53-.23.14-1.28-.08-2.13,0,.99-4.89,1.72-9.95,2.13-14.92.06-.7,1.49-1.44,1.07-5.33-.24-2.18-2.61,4.01-3.2-10.66-.09-2.35.38-6.39-.53-6.39-1.12,1.74-.28,4.34-.53,6.39-.3,2.48-.52,5.02-1.07,7.46-8.99,1.82-4.47-12.26-5.33-19.18,8.05,1.43,10-2.02,17.05-5.33,1.29-.12,1.02,1.01,1.07,1.07Z" style="fill:#66b18f; stroke-width:0px;"/><path d="m651.21,419.92h1.07c-7.17,35.07-11.35,52.38-41.03,75.67,9.58-33.21,36.26-32.26,39.97-75.67Z" style="fill:#1a0c18; stroke-width:0px;"/><path d="m571.27,463.62c-.05,6.17-1.31,13.02-2.13,19.18-.52,3.91-3.7,21.45-6.39,23.45,2.22-13.63.49-34.28,1.07-43.7,2.08-33.86,7.72-30.81,7.46,1.07Z" style="fill:#22242f; stroke-width:0px;"/><path d="m562.74,506.25c-4.2,3.11-2.49-2.82-9.59-2.13,1.76-7.24,7.23-32.74,6.39-38.37l4.26-3.2c-.58,9.42,1.15,30.07-1.07,43.7Z" style="fill:#f6c1b0; stroke-width:0px;"/><path d="m584.06,495.6c-4.59-9.11,9.01-2.56,11.72-14.92,5.06-5.47,11.07,2.48,9.59,7.99-.98,3.64-17.31,14.88-21.32,6.93Z" style="fill:#b54683; stroke-width:0px;"/><path d="m662.93,405c-1.57,7.6-.51,15.83-4.26,22.91l-1.07-39.97c.42-2.77.74-11.69,1.07-12.26h2.13c-.99,10.19.58,19.33,2.13,29.31Z" style="fill:#69314d; stroke-width:0px;"/><path d="m590.45,472.15c.26,2.25-.18,4.65,0,6.93l3.2-1.6c0,.19,2.12-1.57,2.13,3.2-2.71,12.36-16.31,5.81-11.72,14.92h-3.2c1.33-8.96,4.84-16.31,8.53-24.51.92-.11.97.26,1.07,1.07Z" style="fill:#f3aeab; stroke-width:0px;"/><path d="m579.8,506.25c1.01.12.91-.34,1.07-1.07,13.39,5.08,28.82,2.49,25.05,6.39-4.04,4.18-16.4,5.18-26.11-5.33Z" style="fill:#cc6884; stroke-width:0px;"/><path d="m578.73,484.94c-1.42,8.32-.71,13.12,1.07,21.32-4.04-4.37-3.85-10.3-4.26,1.6h-2.13c-4.4-8.29-1.07-13.64-1.07-14.39,1.67-5.73,5.13-9.08,5.33-9.59l1.07,1.07Z" style="fill:#f3aeab; stroke-width:0px;"/><path d="m602.18,454.03l2.13,13.86c-2.67,5.2-3.51,7.14-9.59,5.33,1.4-6.95,5.98-15.08,6.39-17.05.19-.92-1.25-1.21-1.07-2.13.85-.08,1.9.14,2.13,0Z" style="fill:#d8969c; stroke-width:0px;"/><path d="m607.51,448.7c-.04,5.79.64,11.72-3.2,19.18l-2.13-13.86c3.2-1.86,2.93-5.54,3.2-8.53,0-.11,1.85.46,0-2.13,6.21-6.46,2.17-.12,2.13,5.33Z" style="fill:#2c1a20; stroke-width:0px;"/><path d="m601.11,456.16c-.42,1.97-4.99,10.11-6.39,17.05-.37,1.84-1.07,2.82-1.07,4.26l-3.2,1.6c-.18-2.27.26-4.67,0-6.93,1.89-4.79,6.12-8.65,5.33-13.86,1.73-1.15,2.89-2.71,5.33-2.13Z" style="fill:#30253d; stroke-width:0px;"/><path d="m551.02,497.73c-.4,4.19-1.86,8.39-1.07,12.79-1.03-.36-3.6.24-5.33,0-.05-4.24-.16-8.56,0-12.79h6.39Z" style="fill:#f6c1b0; stroke-width:0px;"/><path d="m575.53,464.69c-.95,6.02-2.66,12.01-3.2,18.12h-3.2c.82-6.16,2.08-13.01,2.13-19.18l4.26,1.07Z" style="fill:#9d9ec6; stroke-width:0px;"/><path d="m652.27,419.92h-2.13c1.36-3.98.59-10.46,4.26-13.86-.78,4.7-1.16,9.09-2.13,13.86Z" style="fill:#594d56; stroke-width:0px;"/><path d="m401.81,175.86c5.88,7.07,10.68,10.46,11.72,20.25,3.64,34.14-23.43,36.64-9.59,58.09-13.53,11.98-5.45,26.3-5.33,43.17-.18.48.16,3.44-1.07,6.39-.17.4-.05,4.53-1.07,6.93-6.83,16.13-20.61,5.94-24.51,13.86-2.94,5.97,2.12,10.72,7.46,12.26.44,1.34,1.88,2.74,3.2,3.2,3.13,5.23-13.22-7.19-4.26,5.86,1.31,1.92,4.3,3.87,5.86,5.86,12.86.67,13.47,11.2,21.32,11.72,11.35.75,23.09-20.26,52.76-6.39-4.61,1.9-2.31,1.04-2.13,4.26.26,4.79,2.07,3.55,4.26,8.53l-2.13,2.13c-10.06-13.73-10.47-8.81-4.8,4.26-19.72-15.7-15.84-12.63-3.73,3.2,1.61,8.53-1.8,61.68,10.13,55.42,1.55-.82,6.56-9.22,6.93-11.72,4.29,2.42,2.16,4.8,2.13,5.33-.32,5.29-3.63,11.93,2.13,15.45l-2.13,19.72c-.7-.63-2.53-1.5-3.2-2.13-17.15-16.08-26.71-29.4-33.04-52.22-2.62-9.44-3.26-19.32-5.86-28.78-1.28.02-.37,22.97-.53,25.58-.24,4-.65,7.75-1.07,11.72-3.98-16.25-7.18-32.7-14.39-47.96-.29,10.81-1.86,32.78-10.13,40.5-3.68-1.57-7.17-3.38-10.66-5.33-6.48-5.64-9.7-12.01-13.86-19.18,7.21-.17,16.28,16.33,15.99,6.93-.07-2.17-15.14-29.49-19.18-38.9-2.65-6.16-7.79-15.36-9.59-21.32-.84-2.79-1.36-5.71-2.13-8.53,11.24,5.01,18.33-12.85,20.25-21.85,1.8-8.45,4.74-36.05-6.39-36.77-.29-.55-.82-1.84-1.07-2.13,6.4-2.49-1.71-13.32-4.26-22.38-3.74-13.31-1.47-9,10.66,2.13,7.11,6.53,24.96,25.13,10.66,0,8.28-9.7,5.92-21.37,4.26-33.04-2.51-17.7-8.24-28.31-8.53-29.84,9.13,3.21,20.05,32.31,20.25,21.85.13-6.83-24.05-49.39-20.25-22.91l-2.13-1.07c-1.71-8.1-10.24-20.46-5.86-21.32.3-.06,4.72,3.82,5.86,1.6.54-1.05-5.74-7.95-2.66-22.91-.63,27.42,11.04,30.08,19.72,40.5Z" style="fill:#1a0c18; stroke-width:0px;"/><path d="m501.99,408.2c1.02.28,1.24,1.05,2.13,1.07-15.75,26.27,3.32,26.73,4.26,28.24,3.52,5.67-5.72,7.7-6.39,9.59-4.14,11.66,7.94,39.29,10.13-10.13,6.9,4.71-.07,16.81,4.8,26.65-1.61.26-4.38-.39-5.33,0-6.63,2.72-.2,11.34,0,26.65.05,3.9.7,9.42-1.07,12.79-1.92,0-.7-2.78-1.07-5.33-.91-6.33-2.03-12.89-3.2-19.18-.46-2.49-.78-5.05-1.6-7.46-1.08.02-.25,5.32-.53,8.53-.52,5.86-.17,12.82-3.2,18.12v-4.26c-1.39-11.65,1.36-24.22-5.33-34.11-1.87-15.28,6.5-20.67,6.39-21.85-.43-4.64-12.49,2.48-12.79,3.2-4.11,9.89,4.13,18.67,4.26,19.72.41,3.31.08,11.96,0,15.99-.08,4.19.79,9.1-1.07,12.79h-1.07c-.39-5.93-3.59-17.8-4.26-26.65-.02-.21.08-2.48,0-4.26-.25-5.38,2.38-12.85,1.07-18.65-.36-.74-6.97-2.13-12.79-5.86-.13-.08-.43-.74-2.13-2.13-.84-.69-1.01-1.02-1.07-1.07-.4-2.54,1.07-2.01,1.07-2.13,4.88,5.16,7.06,4.1,7.46,4.26.3.12.75-.11,1.07,0,2.52.89,3.47,1.81,6.39,2.13,14.59,1.61,8.94-3.46,8.53-19.72-.02-.9,6.21-15.4-7.46-1.6-1.08,1.1-2.4,3.36-2.66,3.2-.74-.44-.13-2.42-1.6-5.33-.31-.61.77-.15,0-2.13,4.6-8.22,1.63,1.8,2.66,2.13.77.25,2.75-6.39,14.39-3.2Z" style="fill:#1c1c1f; stroke-width:0px;"/><path d="m465.76,461.49q5.6,11.19,11.19,22.38c1.71-4.9-1.39-11.34,2.66-10.66.98,3.44,4.33,13.98,5.33,15.99.73,1.48,1.03,1,1.07,1.07,3.26,10.06-4.31,1.79-12.79,2.66-2.94,5.12,21.01,16.31,1.6,7.99-.72-.31-2.78-.28-2.66,1.07-2.1-2.32-5.45-3.49-5.33-7.46,1.05.62,1.93,1.14,2.66,2.13,2.7,1-4.27-19.79-4.8-20.78-2.91-5.44-22.7-20.07-29.84-46.36-1.5-7.64-4.57-17.84-2.13-20.25,6.33,22.83,15.89,36.14,33.04,52.22Z" style="fill:#e9e5ad; stroke-width:0px;"/><path d="m466.82,494.53c-15.83-9.45-28.22-44.45-31.97-61.82-.21-.98.19-2.21,0-3.2,7.15,26.29,26.94,40.92,29.84,46.36.53.99,7.5,21.79,4.8,20.78-.74-.99-1.62-1.51-2.66-2.13Z" style="fill:#1a0c18; stroke-width:0px;"/><path d="m500.93,493.46v4.26c-1.29,2.25-15.29,12.24-18.65,15.99-.77.02-8.66-10.1-10.13-11.72-.11-1.34,1.95-1.37,2.66-1.07,19.41,8.32-4.54-2.88-1.6-7.99,8.48-.88,16.05,7.39,12.79-2.66,1.35,2.48,3.16,5.12,4.8,7.46.9-.55.63-7.04.53-8.53h1.07c9.19,10.09,3.2-6.32,3.2-12.79l5.33,17.05Z" style="fill:#b54683; stroke-width:0px;"/><path d="m531.84,467.89c.1.98-3.75,15.13,1.07,14.92-.24,3.52.2,7.13,0,10.66-.32,5.68-1.73,11.37-2.13,17.05-.09.03.36,3.06-1.07,1.6-.12-1.01.19-2.3,0-2.66-1.3-15.9-3.43-32.05-4.26-47.96-.02-.35.02-.71,0-1.07-.27-5.12,2.36-15.29,1.07-18.65-1.05-2.73-4.72.78-5.33-1.07-.15-.47,5.42-7.78,5.86-7.99,8.16-3.95-.03,2.94.53,18.65.32,8.98,4.17,15.66,4.26,16.52Z" style="fill:#31192d; stroke-width:0px;"/><path d="m525.44,461.49c-9.34,16.28-3.17,22.78-4.26,39.43-1.23,18.7-4.44-6.18-5.33-11.72-1.36-8.53-1.15-17.37-4.26-25.58.95-.39,3.72.26,5.33,0,4.39,8.87,5.01.92,8.53-3.2.02.35-.02.71,0,1.07Z" style="fill:#22242f; stroke-width:0px;"/><path d="m529.7,509.45c-.07-.14-1.78.43-2.13-.53-1.46-4.01,3.94-9.42-6.39-7.99,1.1-16.65-5.07-23.15,4.26-39.43.84,15.91,2.96,32.06,4.26,47.96Z" style="fill:#f1b9bf; stroke-width:0px;"/><path d="m432.72,409.27c-2.44,2.41.63,12.61,2.13,20.25.19.99-.21,2.22,0,3.2q-1.6,4.53-3.2,9.06h-2.13c-3.12-14.46,2.9-30.86-3.2-35.7.16-2.6-.75-25.56.53-25.58,2.6,9.45,3.25,19.34,5.86,28.78Z" style="fill:#a4587e; stroke-width:0px;"/><path d="m539.3,481.74c-.4,7.81-.92,15.63-1.07,23.45-3.69,5.58-4.98,4.58-7.46,5.33.4-5.68,1.81-11.37,2.13-17.05,6.02-2.09,1.93-10.23,6.39-11.72Z" style="fill:#f3aeab; stroke-width:0px;"/><path d="m515.85,489.2l-4.26,1.07c-.2-15.3-6.63-23.92,0-26.65,3.11,8.21,2.9,17.05,4.26,25.58Z" style="fill:#a78db5; stroke-width:0px;"/><path d="m509.45,497.73c.37,2.55-.86,5.33,1.07,5.33q-12.79,8.26-25.58,16.52c11.83-8.02,18.71-19.68,24.51-21.85Z" style="fill:#cc6884; stroke-width:0px;"/><path d="m506.26,478.54l-2.13,1.07c.28-3.2-.55-8.51.53-8.53.82,2.41,1.14,4.97,1.6,7.46Z" style="fill:#8a7e8a; stroke-width:0px;"/><path d="m547.82,466.82c-.26,1.91-3.17,2.97-3.2,3.2-.47-.12-2.06-.97-2.13-1.07-5.34-7.1-4.01-30.61.53-31.97,11.79-3.54,5.57,24.2,4.8,29.84Z" style="fill:#e9e5ad; stroke-width:0px;"/><path d="m551.02,497.73h-6.39c.34-8.62-.83-21.52,0-27.71.03-.22,2.93-1.28,3.2-3.2,8.48-5.22,4.33,19.05,3.2,30.91Z" style="fill:#d3adc8; stroke-width:0px;"/><path d="m539.3,468.95c1.51,4.27.22,8.45,0,12.79-4.46,1.49-.37,9.63-6.39,11.72.2-3.53-.24-7.13,0-10.66.57-8.38-3.29-16.32,6.39-13.86Z" style="fill:#d3adc8; stroke-width:0px;"/><path d="m707.69,208.9c-.65,3.35-.11,7.46-2.13,10.66.52,2.51-.83,3.22-1.07,4.26-1.03,4.63-2.82,9.32-4.26,13.86-1.7,5.34-3.11,10.82-5.33,15.99-2.45,5.73-3,9.53-8.53,12.79-.79-3.49-7.36-10.47-7.46-11.19-.61-4.61,8.39-9.59,2.13-19.72,17.89,2.18,16.57-16.66,11.72-29.84,8.34-12.63,12.51-11.98,17.05-28.78.09-.33-.09-.73,0-1.07,1.54-5.91,4.19-18.96,4.26-24.51h1.07c1.31,15.29-5.02,29.5-7.46,44.23-.62,3.76.68,9.81,0,13.32Z" style="fill:#1a0c18; stroke-width:0px;"/><path d="m719.42,209.96c-.59,4.05-1.15,7.72-2.13,11.72-1.56.12-1.04-1.95-1.07-4.26-.37-32.8.93-16.27-6.39-7.99-.95,1.08-.84-.46-2.13-.53.68-3.51-.62-9.56,0-13.32,2.44-14.73,8.77-28.94,7.46-44.23,8.13,18.6,7.12,39.09,4.26,58.62Z" style="fill:#edd6a7; stroke-width:0px;"/><path d="m714.09,370.9c-.57,2.3-2.52,4.83-2.13,7.46-3.86,6.39-5.17,13.67-8.53,20.25,2.84-17.3-14.48,16.48-14.92,2.66-.07-2.33,13.3-22.33,20.25-42.1,5.34-.09-4.15,13.27,5.33,11.72Z" style="fill:#31192d; stroke-width:0px;"/><path d="m624.56,354.91c-.29.8,1.25,1.22,1.07,2.13-.16.11-1.81,2.92-2.13,3.2-8.7,7.53-13.92,14.56-12.26,26.65.16-8.4,10.36-16.53,9.06-11.72-5.12,8.37-7.89,18.08-9.59,27.71q-3.2.53-6.39,1.07c.14-.32-1.73.28,1.07-6.93-.73-.93-1.92.03-2.13-1.6,3.03-15.6,3.29-34.79,21.32-40.5Z" style="fill:#edd6a7; stroke-width:0px;"/><path d="m637.35,378.36c-6.59,10.01-18.73,20.61-21.32,34.11-6.13,4.8-1.97-2.29-2.13-2.66-.39-.92-1.99-1.34-3.2-2.66,6.04-2.81,16.24-31.16,12.79-35.17,1.01-1.3,3.98-6.13,4.26-6.39,10.54-9.89-2.06,16.46-.53,17.05,7.27-8.41,24.45-26.05,10.13-4.26Z" style="fill:#237b6a; stroke-width:0px;"/><path d="m720.48,325.07c-.15,1.4.15,2.87,0,4.26-1.15,10.5-2.29,21.62-4.26,31.97-.59,3.09-1.37,6.53-2.13,9.59-9.48,1.55,0-11.82-5.33-11.72,2.02-5.76,3.18-15.56,5.33-22.38,1.07-3.41,3.97-12.14,6.39-11.72Z" style="fill:#631956; stroke-width:0px;"/><path d="m627.76,365.57c-.28.26-3.25,5.1-4.26,6.39-3.2,4.11-3.08,3-3.2,3.2,1.3-4.8-8.9,3.33-9.06,11.72-1.67-12.09,3.56-19.12,12.26-26.65l4.26,5.33Z" style="fill:#53344e; stroke-width:0px;"/><path d="m614.97,427.38l-9.59,7.99c-1.16-6.55,3.76-6.63,8.53-10.13-.04.94.91,1.07,1.07,2.13Z" style="fill:#152319; stroke-width:0px;"/><path d="m587.26,423.12c.75,5.26-2.11,11.77-1.07,13.32,1.56,2.3,13.11-6,3.2,24.51h-2.13c-6.61-11.47-1.5-21.41-2.13-22.38-.79-1.2-3.67-.12-4.26-.53-7.35-5.04-4.96-22.8-2.66-23.45,4.91-1.4,8.48,4.48,9.06,8.53Z" style="fill:#e9e5ad; stroke-width:0px;"/><path d="m592.59,411.4c.86,6.92-3.66,21,5.33,19.18-.86,3.82-.86,7.27-3.2,6.39-10.82-7.94-4.01-3.08-6.39-13.86-5.27-23.82-1.19-12.69,4.26-11.72Z" style="fill:#c1e0b3; stroke-width:0px;"/><path d="m578.73,484.94l-1.07-1.07c3.3-8.43,2.46-17.31,5.86-25.58,4.63,8.5-3.38,18.39-4.8,26.65Z" style="fill:#739ac8; stroke-width:0px;"/><path d="m600.05,435.91c-1.01,30.85-6.22,16.55-3.2,3.2.86-3.81,3.03-3.04,3.2-3.2Z" style="fill:#b4c8b2; stroke-width:0px;"/><path d="m603.24,433.78c-.79.16-1.42.69-2.13,1.07-1.36.71-1.01,1.01-1.07,1.07-.16.16-2.33-.61-3.2,3.2-.24-.77-1.53-1.69-2.13-2.13,2.34.87,2.34-2.57,3.2-6.39.55-2.44.77-4.98,1.07-7.46h1.07c.59,14.67,2.96,8.48,3.2,10.66Z" style="fill:#132826; stroke-width:0px;"/><path d="m595.78,458.29c.79,5.21-3.44,9.07-5.33,13.86-.09-.8-.15-1.18-1.07-1.07,2.02-4.49,3.12-10.62,6.39-12.79Z" style="fill:#9d9ec6; stroke-width:0px;"/><path d="m602.18,439.11l-1.07-4.26c.72-.37,1.34-.91,2.13-1.07.42,3.89-1.01,4.63-1.07,5.33Z" style="fill:#b4c8b2; stroke-width:0px;"/><path d="m610.7,407.13c-.05-.06.22-1.19-1.07-1.07l1.07-3.2c1.7-9.63,4.47-19.34,9.59-27.71.12-.19,0,.91,3.2-3.2,3.45,4.01-6.75,32.36-12.79,35.17Z" style="fill:#31665c; stroke-width:0px;"/><path d="m600.05,423.12h-1.07c.25-2.05-.59-4.66.53-6.39.91,0,.44,4.05.53,6.39Z" style="fill:#668f6b; stroke-width:0px;"/><path d="m605.38,445.5c-4,1.56-2.32.28,0-2.13,1.85,2.59,0,2.03,0,2.13Z" style="fill:#1a0c18; stroke-width:0px;"/><path d="m360.24,248.33c.32-.12.78.13,1.07,0,2.37,4.86,11.71,9.17,8.53,12.79-5.08-2.64-10.79-6.25-12.79,2.66-.94,4.2,6.01,37.91,5.86,48.49,4.62,3.18,16.53-18.81,14.39-38.9-.04-.41-1.94-7.63-2.13-7.99,11.14.72,8.19,28.32,6.39,36.77-1.92,9-9.01,26.86-20.25,21.85-2.38-20.26-7.31-42.76-8.53-62.88-.04-.71.03-1.42,0-2.13,8.03-3.37,2.04-11.19,7.46-10.66Z" style="fill:#31192d; stroke-width:0px;"/><path d="m369.83,261.12c.77.4,4.11,1.95,4.26,2.13.24.3.77,1.58,1.07,2.13.19.37,2.09,7.58,2.13,7.99,2.14,20.09-9.77,42.08-14.39,38.9.15-10.58-6.8-44.3-5.86-48.49,2-8.91,7.71-5.31,12.79-2.66Z" style="fill:#631956; stroke-width:0px;"/><path d="m369.83,193.97c1.5,3.73,2.69,7.8,4.26,11.72,4.88,12.16,10.46,24.05,13.86,36.77.56,1.08,3.06.29,3.2.53,14.3,25.13-3.55,6.53-10.66,0,10.45-1.55-14.22-19.51-19.18-28.78-2.01-3.75-6.78-17.07-4.26-20.25,2.26,7.66,3.03,7.88,7.46,13.86,12.05,16.26,3.83,3.42,2.13-2.13-3.04-9.9-3.91-21.19-5.33-31.44,2.54,6.73,5.85,13.05,8.53,19.72Z" style="fill:#31192d; stroke-width:0px;"/><path d="m361.31,214.22c4.97,9.26,29.63,27.23,19.18,28.78-12.13-11.13-14.4-15.44-10.66-2.13-4.55,10.06-7.37,6.92-8.53,7.46-.28.13-.75-.12-1.07,0-.78-4.71-5.12-9.62-6.39-13.86-1.95-6.48-2.47-13.46-2.13-20.25,1.04-20.77,3.22,18.98,8.53,4.8.12-.31-3.56-4.81,1.07-4.8Z" style="fill:#631956; stroke-width:0px;"/><path d="m395.41,209.96c1.65,11.67,4.02,23.34-4.26,33.04-.14-.24-2.64.54-3.2-.53-3.4-12.72-8.97-24.61-13.86-36.77q6.39,1.6,12.79,3.2c.42,1.15.66,3.09,1.07,4.26,1.74,5.02,1.78,5.92,1.07,0-.2-1.67-1.84-12.55-.53-12.79,2.3,5.8,4.16,12.32,6.93,9.59Z" style="fill:#511336; stroke-width:0px;"/><path d="m373.03,353.84c4.05,9.41,19.12,36.73,19.18,38.9.29,9.41-8.78-7.1-15.99-6.93-3.32-5.73-5.96-10.94-8.53-17.05-1.68-4.01-2.86-7.64-4.26-11.72,8.27,1.24,1.37-12.63,9.59-3.2Z" style="fill:#491240; stroke-width:0px;"/><path d="m458.3,371.96c2.2,3,7.35,15.69,8.53,19.72-.09,7.16,3.34,16.52,4.26,21.85.82,4.71,1.89,10.22,2.13,14.92,0,.12-1.47-.4-1.07,2.13-1.54-1.34-.99-2.58-3.2-2.13.03-.53,2.16-2.91-2.13-5.33,2.38-16-8.02-31.89-17.05-43.7-12.11-15.82-15.99-18.89,3.73-3.2-5.67-13.08-5.26-17.99,4.8-4.26Z" style="fill:#2e7878; stroke-width:0px;"/><path d="m472.15,430.58c.06.05.23.38,1.07,1.07-.58,10.63,3.03,19.21,3.2,20.25,1.02,6.3,1.32,12.85,2.13,19.18-2.32-.1-5.99-4.21-9.59-7.46l2.13-19.72c-5.76-3.53-2.45-10.16-2.13-15.45,2.21-.45,1.66.8,3.2,2.13Z" style="fill:#93799c; stroke-width:0px;"/><path d="m386.89,180.12c-.06-.34.05-.72,0-1.07-3.8-26.47,20.38,16.09,20.25,22.91-.2,10.47-11.12-18.64-20.25-21.85Z" style="fill:#511336; stroke-width:0px;"/><path d="m373.03,353.84c-8.22-9.43-1.32,4.44-9.59,3.2-1.53-4.45-3.04-8.16-4.26-12.79-.24-.92.23-2.26,0-3.2l4.26-8.53c1.8,5.95,6.94,15.16,9.59,21.32Z" style="fill:#631956; stroke-width:0px;"/><path d="m386.89,179.05c.05.35-.06.72,0,1.07.29,1.53,6.02,12.14,8.53,29.84-2.77,2.72-4.63-3.79-6.93-9.59-1.31.24.33,11.12.53,12.79h-1.07c-.4-1.17-.65-3.11-1.07-4.26-.77-2.12-1.29-4.25-2.13-6.39,3.19-.23.47-22.3,0-24.51l2.13,1.07Z" style="fill:#f3aeab; stroke-width:0px;"/><path d="m374.1,263.25c-.15-.18-3.5-1.73-4.26-2.13,3.19-3.62-6.15-7.93-8.53-12.79,1.16-.54,3.98,2.6,8.53-7.46,2.55,9.06,10.66,19.9,4.26,22.38Z" style="fill:#330b2d; stroke-width:0px;"/><path d="m468.95,463.62c3.6,3.25,7.27,7.36,9.59,7.46.03.89.78,1.11,1.07,2.13-4.06-.68-.95,5.76-2.66,10.66q-5.6-11.19-11.19-22.38c.67.63,2.5,1.5,3.2,2.13Z" style="fill:#d8969c; stroke-width:0px;"/><path d="m488.14,434.85q.53-10.66,1.07-21.32c13.67-13.8,7.44.7,7.46,1.6.42,16.25,6.06,21.32-8.53,19.72Z" style="fill:#c1e0b3; stroke-width:0px;"/><path d="m480.68,432.71c-.4-.16-2.58.9-7.46-4.26-.24-4.7-1.31-10.21-2.13-14.92,5.82-16.98,12.27,2.89,9.59,19.18Z" style="fill:#83c6a6; stroke-width:0px;"/><path d="m487.07,458.29l-4.26-2.13c-.38-4.04-.15-13.7-1.07-16.52-2.78-8.62-.47,20.92-5.33,10.13q-.53-7.99-1.07-15.99c5.82,3.73,12.43,5.12,12.79,5.86,1.31,5.8-1.32,13.27-1.07,18.65Z" style="fill:#66b18f; stroke-width:0px;"/><path d="m495.6,459.36l-2.13,1.07c-.13-1.05-8.37-9.83-4.26-19.72.3-.71,12.36-7.84,12.79-3.2.11,1.17-8.26,6.57-6.39,21.85Z" style="fill:#9cdbb8; stroke-width:0px;"/><path d="m484.94,411.4c1.47,2.91.86,4.89,1.6,5.33.26.16,1.58-2.1,2.66-3.2q-.53,10.66-1.07,21.32c-2.92-.32-3.88-1.24-6.39-2.13.57-12.09-1.97-24.82,3.2-21.32Z" style="fill:#83c6a6; stroke-width:0px;"/><path d="m487.07,462.56c.68,8.85,3.87,20.71,4.26,26.65.1,1.49.36,7.97-.53,8.53-1.64-2.34-3.44-4.98-4.8-7.46-.04-.07-.33.41-1.07-1.07.6-9.54-1.15-19.31-2.13-28.78l4.26,2.13Z" style="fill:#d3adc8; stroke-width:0px;"/><path d="m500.93,493.46l-5.33-17.05h-2.13c.08-4.03.41-12.67,0-15.99l2.13-1.07c6.69,9.89,3.93,22.45,5.33,34.11Z" style="fill:#667899; stroke-width:0px;"/><path d="m495.6,476.41c0,6.47,5.99,22.88-3.2,12.79,1.85-3.69.99-8.6,1.07-12.79h2.13Z" style="fill:#f3aeab; stroke-width:0px;"/><path d="m475.35,433.78q.53,7.99,1.07,15.99v2.13c-.17-1.04-3.78-9.62-3.2-20.25,1.7,1.4,2,2.05,2.13,2.13Z" style="fill:#426f59; stroke-width:0px;"/><path d="m487.07,458.29c.08,1.78-.02,4.05,0,4.26l-4.26-2.13c-.28-2.68.07-3.48,0-4.26l4.26,2.13Z" style="fill:#445d6a; stroke-width:0px;"/><path d="m482.81,456.16c.07.78-.28,1.59,0,4.26.98,9.46,2.74,19.24,2.13,28.78-.99-2.01-4.35-12.55-5.33-15.99-.29-1.02-1.04-1.24-1.07-2.13-.81-6.34-1.11-12.89-2.13-19.18v-2.13c4.86,10.79,2.55-18.74,5.33-10.13.91,2.82.69,12.48,1.07,16.52Z" style="fill:#22242f; stroke-width:0px;"/><path d="m357.04,193.97c-2.52,3.18,2.25,16.5,4.26,20.25-4.63,0-.95,4.49-1.07,4.8-5.31,14.19-7.49-25.57-8.53-4.8-4.54-13.71-3.99-31.49-2.13-45.83,7.2-1.02,1.68,5.96,7.46,25.58Z" style="fill:#f6c1b0; stroke-width:0px;"/><path d="m353.85,234.47c1.27,4.23,5.62,9.15,6.39,13.86-5.43-.53.57,7.28-7.46,10.66-.33-6.99,1.05-9.65,1.07-10.66.14-9.97-3.2-14.79,0-13.86Z" style="fill:#330b2d; stroke-width:0px;"/><path d="m691.71,152.41c-1.72,8.83-6.85,14.71-10.66,22.38-.44.89-5.41,3.18-9.59,17.05-8.65,28.67,13.07,35.96,0,31.97-33.8-53.77,10.8-45.28,19.18-76.2,1.4-29.73,4.16-11.12,1.07,4.8Z" style="fill:#1a0c18; stroke-width:0px;"/><path d="m709.82,175.86c-.09.33.09.73,0,1.07-9.49-3.49-9.24,11.36-17.59,17.05,3.2-31.77,1.7-23.95-12.79-3.2q.8-7.99,1.6-15.99c3.81-7.68,8.94-13.55,10.66-22.38l1.6,13.86,9.06-19.72,7.46,29.31Z" style="fill:#d8969c; stroke-width:0px;"/><path d="m411.4,140.68c2.42,20.95,6.03,41.84,8.53,62.88l-6.39-7.46c-1.04-9.79-5.84-13.18-11.72-20.25,3.31-11.23,3.27-26.77,9.59-35.17Z" style="fill:#cc6884; stroke-width:0px;"/><path d="m426.32,203.57c-.7-13.32-3.13-28.35-5.33-41.57,6.78-8.92-7.11-53.5,9.06-21.32l2.13-14.92c7,17.4,20.59,30.57,35.7,41.03,4.91,27.36,24.36,49.17,4.8,34.64-13.62-17.96-26.66-17.23-20.25,7.46q-9.59-9.06-19.18-18.12.8,9.86,1.6,19.72l-8.53-6.93Z" style="fill:#d38098; stroke-width:0px;"/><path d="m420.99,162c2.2,13.21,4.62,28.24,5.33,41.57,1.5,28.36-3.07,28.08-6.39,0-2.49-21.05-6.11-41.93-8.53-62.88-1.29-11.21-2.95-22.23-2.13-33.57h2.13v18.12c3.72,12.1,7.51,24.25,9.59,36.77Z" style="fill:#6b1446; stroke-width:0px;"/><path d="m692.77,205.7c4.85,13.19,6.17,32.02-11.72,29.84-1-1.62-6.3-6.49-9.59-11.72,13.07,3.99-8.65-3.31,0-31.97.51,11.71,5.3,21.33,13.32,29.84,2.82-5.41,4.58-10.82,7.99-15.99Z" style="fill:#330b2d; stroke-width:0px;"/><path d="m364.5,207.83l2.13-2.13c1.7,5.55,9.92,18.4-2.13,2.13Z" style="fill:#d8969c; stroke-width:0px;"/><path d="m716.22,225.95c-1.54,5.25-3.73,10.14-6.39,14.92-4.23-5.31-4.21-1.36-9.59-3.2,1.45-4.53,3.23-9.22,4.26-13.86,7.63,3.82,9.25,5.18,6.39-1.07,3.42-2.06,3.79,1.21,5.33,3.2Z" style="fill:#7f226d; stroke-width:0px;"/><path d="m709.82,240.87c-2.68,4.8-9.78,18.6-14.92,12.79,2.21-5.17,3.63-10.64,5.33-15.99,5.38,1.84,5.36-2.12,9.59,3.2Z" style="fill:#631956; stroke-width:0px;"/><path d="m716.22,217.42c.03,2.31-.5,4.38,1.07,4.26-.34,1.39-.66,2.89-1.07,4.26-1.53-1.99-1.91-5.26-5.33-3.2-.09-.21-.61.64-3.2-3.2.41-.16,1.5-2.97,8.53-2.13Z" style="fill:#cc6884; stroke-width:0px;"/><path d="m724.75,268.58c-.1,1.05.09,2.14,0,3.2-.69,7.84-1.39,15.61-2.13,23.45-.7,7.36-2.45,14.62-3.2,21.85-.31,2.97,1.43,4.6,1.07,7.99-2.42-.42-5.32,8.32-6.39,11.72l-4.26-2.13c11.59-15.24-20.3-7.7-25.58-25.05-2.25-7.39.73-19.77,1.07-28.24.12-3.15,1.9-7.99,1.07-13.86-.05-.35.08-.73,0-1.07,5.52-3.26,6.07-7.06,8.53-12.79,5.14,5.81,12.24-7.99,14.92-12.79,2.67-4.78,4.86-9.67,6.39-14.92.4-1.37.72-2.87,1.07-4.26.98-4,1.54-7.67,2.13-11.72,13.69,33.45-10.51,52.09-9.59,54.89.72,2.2,4.66-6.16,14.92,3.73Z" style="fill:#330b2d; stroke-width:0px;"/><path d="m715.69,266.45c2.5-.24,8.12,9.05,6.39,9.59q-3.2-4.8-6.39-9.59Z" style="fill:#d8969c; stroke-width:0px;"/><path d="m709.82,176.92c-4.54,16.79-8.71,16.15-17.05,28.78-3.41,5.16-5.17,10.58-7.99,15.99-8.02-8.52-12.82-18.14-13.32-29.84,4.18-13.87,9.15-16.16,9.59-17.05q-.8,7.99-1.6,15.99c14.49-20.75,15.99-28.58,12.79,3.2,8.35-5.69,8.09-20.55,17.59-17.05Z" style="fill:#942b6f; stroke-width:0px;"/><path d="m716.22,217.42c-7.02-.84-8.12,1.98-8.53,2.13-.41.16-1.4-.08-2.13,0,2.02-3.2,1.49-7.31,2.13-10.66,1.3.07,1.18,1.61,2.13.53,7.33-8.28,6.03-24.8,6.39,7.99Z" style="fill:#d8969c; stroke-width:0px;"/><path d="m707.69,219.55c2.58,3.84,3.1,2.99,3.2,3.2,2.86,6.25,1.24,4.88-6.39,1.07.23-1.04,1.58-1.75,1.07-4.26.73-.08,1.72.16,2.13,0Z" style="fill:#942b6f; stroke-width:0px;"/><path d="m387.95,213.16h1.07c.71,5.92.67,5.02-1.07,0Z" style="fill:#942b6f; stroke-width:0px;"/><path d="m619.23,45.83c14.47,6.91,16.97,7.72,27.71,19.18,18.39,19.64,19.1,38.37,19.18,15.45q-9.59-8.26-19.18-16.52c-7.75-8.34,17.3,7.65,25.05,13.86,21.19,16.97,42.47,45.21,42.1,73.54-.07,5.55-2.72,18.6-4.26,24.51l-7.46-29.31-9.06,19.72-1.6-13.86c3.09-15.91.33-34.53-1.07-4.8-8.38,30.92-52.99,22.43-19.18,76.2,3.29,5.23,8.59,10.11,9.59,11.72,6.26,10.13-2.74,15.11-2.13,19.72.1.72,6.67,7.7,7.46,11.19.08.33-.05.72,0,1.07-9.89,3.37-6.31,7.06-1.07,13.86-.33,8.48-3.32,20.85-1.07,28.24,5.28,17.34,37.17,9.8,25.58,25.05-.66.87-4.02,2.63-5.33,3.2-3.64,1.59-23.35,5.17-27.18,4.26-1.87-.44-8.09-7.37-9.06-4.8-1.12,2.96,11.05,5.35-10.66,1.07,20.4,14.14,42.21.19,46.9.53,10.72.79-3.84,19.01-13.32,14.92-19.61,27.44-34.79-16.92-65.55,3.2.18-.91-1.36-1.33-1.07-2.13.45-1.22,5.78-4.96-7.99,1.07-4.95,2.17-8.87,5.72-13.32,8.53.69-7.71,6.63-12.57,11.72-17.59-.82-2.39-12.56,6.19-14.92,18.65-2.05,10.78,1.78,19.13,3.2,29.84.22,1.63,1.4.67,2.13,1.6-2.8,7.2-.92,6.61-1.07,6.93-4.98,11.12-12.31,1.09-17.59,2.13-2.96.59-4.76,9.76-12.79,7.46-4.88-1.4-1.32-19.36-4.8-3.73,13.92,16.79-.65,31.69,10.66,30.38-1.18,4.06-3.27,18.23-4.26,24.51l-4.26-1.07c.26-31.88-5.39-34.92-7.46-1.07l-4.26,3.2c-8.22-6.27-2.34-26.04-3.2-27.18-26.98-1.5,5.66-29.29-25.05-31.44-10.57,8.95-10-2.03-6.93,17.59,6.89-36.15,29.55-1.6,12.79,14.92-1.73,11.48,1.46,25.83-5.33,28.24-.09-.86-3.94-7.54-4.26-16.52-.56-15.72,7.63-22.6-.53-18.65-.45.22-6.02,7.52-5.86,7.99.61,1.85,4.28-1.67,5.33,1.07,1.29,3.36-1.34,13.53-1.07,18.65-3.52,4.12-4.14,12.07-8.53,3.2-4.86-9.83,2.1-21.94-4.8-26.65-2.18,49.42-14.27,21.78-10.13,10.13.67-1.9,9.92-3.92,6.39-9.59-.94-1.51-20.02-1.97-4.26-28.24-.43-8.54-.81-17.03-1.07-25.58-.19-6.37.58-12.86-.53-19.18-.96,0-.51,17.24-.53,19.18-.08,8.17.06,16.34,0,24.51-11.64-3.19-13.62,3.44-14.39,3.2-1.03-.33,1.93-10.36-2.66-2.13-.05-.13-1.74.43-2.13-.53,2.27-13.16-3.89,5.94-7.46-3.2-1.79-4.59,7.65-10.69-4.26-1.07-1.12-14.28-5.17-22.2-10.66-34.64-2.2-4.98-4-3.74-4.26-8.53,8.59,5.61,17.43,16.37,19.18,26.65.34,1.97-.58,5.13.53,5.33.34-1.63,1.23-3.04,1.6-4.26,5.01-16.47-5.54-25.6-19.18-31.97-29.67-13.86-41.4,7.15-52.76,6.39-7.85-.52-8.45-11.06-21.32-11.72-1.56-1.99-4.55-3.95-5.86-5.86-8.95-13.06,7.39-.64,4.26-5.86,15.16,5.26,32.22,6.86,44.76-4.8-17.91,3.89-21.89,5.66-14.92-1.6,1.82-1.89,3.55-2,0-1.07-4.7,1.24-8.68,5.03-10.13,5.33-1.84.39-21.38-.63-22.91-1.07-5.34-1.53-10.4-6.29-7.46-12.26,3.9-7.91,17.69,2.28,24.51-13.86,1.02-2.4.9-6.53,1.07-6.93,2.34-.5,4.53,8.77,6.93,8.53,8.18-.82,3.7-40.63-5.86-14.92-.13-16.86-8.2-31.19,5.33-43.17-13.84-21.45,13.23-23.95,9.59-58.09l6.39,7.46c3.33,28.08,7.89,28.36,6.39,0l8.53,6.93q-.8-9.86-1.6-19.72,9.59,9.06,19.18,18.12c-6.41-24.69,6.63-25.43,20.25-7.46,19.56,14.53.12-7.28-4.8-34.64-15.12-10.46-28.71-23.64-35.7-41.03l-2.13,14.92c-16.17-32.19-2.28,12.39-9.06,21.32-2.08-12.52-5.87-24.67-9.59-36.77v-18.12h-2.13c-.82,11.35.84,22.37,2.13,33.57-6.32,8.4-6.28,23.94-9.59,35.17-8.68-10.42-20.35-13.08-19.72-40.5-3.08,14.97,3.2,21.87,2.66,22.91-1.14,2.22-5.56-1.66-5.86-1.6-4.38.85,4.16,13.21,5.86,21.32.47,2.22,3.19,24.28,0,24.51-2.27-5.77-5.37-11.21-7.46-17.05-1.23-3.45-1.02-7.3-2.66-10.66-1.22.19.39,10.25.53,11.72,1.49,15.36,5.06,19.47-5.33,7.46-2.67-6.67-5.99-12.99-8.53-19.72,1.42,10.25,2.29,21.54,5.33,31.44l-2.13,2.13c-4.43-5.98-5.2-6.2-7.46-13.86-5.78-19.62-.26-26.6-7.46-25.58,7.66-59.18,73.48-115.23,127.9-132.16,46.37-14.42,97.91-11.33,141.75,9.59Z" style="fill:#e9e5ad; stroke-width:0px;"/><path d="m646.94,65.01v-1.07q9.59,8.26,19.18,16.52c-.08,22.92-.79,4.19-19.18-15.45Z" style="fill:#511336; stroke-width:0px;"/><path d="m704.5,337.86v1.07c-4.68-.34-26.5,13.61-46.9-.53,21.71,4.28,9.54,1.89,10.66-1.07.97-2.57,7.19,4.35,9.06,4.8,3.83.91,23.53-2.68,27.18-4.26Z" style="fill:#cc6884; stroke-width:0px;"/><path d="m604.31,403.94q3.2-.53,6.39-1.07l-1.07,3.2c-7.06,3.31-9,6.76-17.05,5.33-5.45-.97-9.53-12.1-4.26,11.72h-1.07c-.58-4.05-4.15-9.92-9.06-8.53-2.29.65-4.68,18.4,2.66,23.45-1.62-.06-.84,1.36-1.07,2.13-11.31,1.32,3.26-13.58-10.66-30.38,3.47-15.63-.08,2.33,4.8,3.73,8.03,2.3,9.83-6.87,12.79-7.46,5.27-1.05,12.61,8.98,17.59-2.13Z" style="fill:#152319; stroke-width:0px;"/><path d="m412.47,332.53v1.07c-6.96,7.25-2.99,5.49,14.92,1.6-12.55,11.65-29.61,10.05-44.76,4.8-1.31-.46-2.76-1.85-3.2-3.2,1.53.44,21.07,1.45,22.91,1.07,1.44-.3,5.43-4.09,10.13-5.33Z" style="fill:#cc6884; stroke-width:0px;"/><path d="m477.48,389.02l-2.13-1.07c-1.75-10.27-10.59-21.03-19.18-26.65-.18-3.23-2.48-2.36,2.13-4.26,13.64,6.37,24.2,15.5,19.18,31.97Z" style="fill:#330b2d; stroke-width:0px;"/><path d="m484.94,409.27c.77,1.98-.31,1.52,0,2.13-5.17-3.5-2.63,9.22-3.2,21.32-.32-.11-.76.12-1.07,0,2.68-16.3-3.77-36.17-9.59-19.18-.93-5.33-4.35-14.69-4.26-21.85-1.17-4.03-6.33-16.71-8.53-19.72l2.13-2.13c5.49,12.44,9.54,20.36,10.66,34.64,11.92-9.62,2.47-3.53,4.26,1.07,3.57,9.14,9.73-9.97,7.46,3.2.39.96,2.08.4,2.13.53Z" style="fill:#194330; stroke-width:0px;"/><path d="m397.54,303.75c1.23-2.96.89-5.92,1.07-6.39,9.56-25.71,14.04,14.1,5.86,14.92-2.39.24-4.59-9.03-6.93-8.53Z" style="fill:#d38098; stroke-width:0px;"/><path d="m504.12,409.27c-.89-.02-1.11-.78-2.13-1.07.06-8.17-.08-16.34,0-24.51h1.07c.26,8.55.63,17.04,1.07,25.58Z" style="fill:#98825d; stroke-width:0px;"/><path d="m492.4,212.09c.85.41,13.25,12.07,13.86,12.79.66.79,2.44,9.91,6.39,12.79,5.13,3.73,4.25,2.02,8.53,0-1.06,13.75-3.97,27.72-9.59,40.5-14.4-32.93-72.52-21.13-90.59,2.66-3.28,4.31-3.68,11.35-7.46,10.13-1.61-8.21-1.6-27.72,0-35.7,5.01-25.02,34.66-29.48,54.89-36.77,9.03-3.25,12.68-11.87,23.98-6.39Z" style="fill:#1a0c18; stroke-width:0px;"/><path d="m492.4,301.62c-13.93,9.29-37.6,16.13-54.36,13.86l5.33-1.6c-8.22-3.19-25.61-8.11-19.18-19.18,3.83-6.59,50.25-29.74,58.09-14.39,4.37-21.24,13.99,8.58,10.13,21.32Z" style="fill:#7e305c; stroke-width:0px;"/><path d="m511.59,278.17c-.7,1.6-1.16.7-2.13,1.6l2.13.53c-4.78,9.15-10.47,15.51-19.18,21.32,3.87-12.73-5.76-42.55-10.13-21.32-7.84-15.35-54.26,7.8-58.09,14.39-6.43,11.07,10.96,15.99,19.18,19.18l-5.33,1.6c-13.2-1.8-22-11.73-24.51-24.51,3.78,1.22,4.18-5.81,7.46-10.13,18.07-23.79,76.2-35.59,90.59-2.66Z" style="fill:#1a0c18; stroke-width:0px;"/><path d="m661.86,302.69c1.91-5.87,6.63-12.41,4.26-18.65-4.82-12.7-86.12-46.89-96.99-1.6-6.33-11.45-11.1-28.78-10.66-41.57.04-1.19-.33-2.21,1.07-2.13.92.23,4.14.16,5.33,0,9.35-1.27,6.97-10.01,9.59-13.86,2.4-3.53,7.99-9.71,11.72-11.72,11.38-6.15,13.35,1.37,25.05,5.33,26.48,8.97,54.59,11.7,58.09,41.03,1.75,14.65,1.19,30.8-7.46,43.17Z" style="fill:#1a0c18; stroke-width:0px;"/><path d="m652.27,311.21c-22.18,10.47-52.13-.21-70.34-14.92-2.62-10.61,13.14-28.87,15.45-27.71l-5.33,17.05,18.12-8.53c1.63,7.16,8.92,5.54,15.99,7.46,4.47,1.21,9.78,6.37,10.13,2.66.07-.77-6.28-7.9,7.99,3.73,14.8-5.84,20.38,10.45,7.99,20.25Z" style="fill:#7e305c; stroke-width:0px;"/><path d="m661.86,302.69c-4.16,5.95-2.92,5.37-9.59,8.53,12.38-9.8,6.81-26.09-7.99-20.25-14.27-11.63-7.92-4.5-7.99-3.73-.35,3.71-5.65-1.45-10.13-2.66-7.06-1.92-14.36-.3-15.99-7.46l-18.12,8.53,5.33-17.05c-2.31-1.16-18.07,17.1-15.45,27.71-5.67-4.58-9.17-7.31-12.79-13.86,10.87-45.29,92.16-11.1,96.99,1.6,2.37,6.24-2.35,12.78-4.26,18.65Z" style="fill:#231b2b; stroke-width:0px;"/><path d="m507.85,58.62l1.6.53c-24.86,26.35,38.91,27.53,25.58,65.01-9.08,25.51-58.38,31.48-74.07,12.26,33,15.73,70.13-5.19,60.22-36.77-4.03-12.86-34.58-19.76-13.32-41.03Z" style="fill:#d38098; stroke-width:0px;"/><path d="m578.73,203.57l-1.07-1.07c13.37-25.01,10.74-36.1,18.65-28.78,11.73-13.53,15.2-.64,5.86,12.26-5.11,7.06-19.79,14.05-23.45,17.59Z" style="fill:#d38098; stroke-width:0px;"/><path d="m552.09,232.34c1.61,2.89,6.98,6.28,7.46,6.39-1.39-.08-1.02.94-1.07,2.13-8.56-1.65-14.01-17.76-17.05-10.13-.98,2.47.72,26.46,0,33.57h-2.13v-34.64c-4.2-5.06-9.36,6.92-18.12,12.79.81,11.71-4.07,27.27-9.59,37.84l-2.13-.53c.98-.9,1.43,0,2.13-1.6,5.63-12.78,8.53-26.75,9.59-40.5,1.57-.74,2.95-2.08,4.26-3.2,1.98-1.69,2.21-3.73,6.93-8.53,2.81-2.86,9,2.92,6.93-19.72-23.91-29.54-31.71-38.97-2.66-7.99,7.41-14.67-2.69,35.03,11.72,27.71,1.97-1,5.84-25.77,1.6,2.66,1.1,1,1.43,2.48,2.13,3.73Z" style="fill:#2c1a20; stroke-width:0px;"/><path d="m660.8,150.28c-6.63,13.83-10.24,29.16-11.72,44.23,1.56,1.32,1.95,1.66,2.13,3.73q-3.46,5.86-6.93,11.72-2.93-11.99-5.86-23.98c-1.77-3.37-6.29,2.73-6.93,2.66-2.01-.2-4.83-8.5-5.33-8.53-1.77-.11-2.02,13.19-23.45,25.58,5.38-14.2,9.61-29.92,13.32-45.3,31.49-23.84,27.75-49.62,35.17-13.86h2.13c4.02-14.95,8.1-29.76,7.99-45.3,3.82,16.41.85,32.81-.53,49.03Z" style="fill:#d38098; stroke-width:0px;"/><path d="m651.21,198.24c-.19-2.07-.57-2.41-2.13-3.73,1.49-15.07,5.09-30.4,11.72-44.23-1.32,15.48-5.11,32.92-5.33,37.84-.11,2.45,5.53,56.47-1.07,33.04-1.17-4.14-2.71-17.52-3.2-22.91Z" style="fill:#7e305c; stroke-width:0px;"/><path d="m624.56,354.91c-18.03,5.71-18.28,24.9-21.32,40.5-1.42-10.72-5.24-19.06-3.2-29.84,3.61.49,3.05-.98,3.2-1.07,4.45-2.81,8.37-6.36,13.32-8.53,13.77-6.02,8.44-2.28,7.99-1.07Z" style="fill:#1a0c18; stroke-width:0px;"/><path d="m485.47,167.33q10.66,21.85,21.32,43.7c-8.56-12.85-31.59-29.34-21.32-43.7Z" style="fill:#d38098; stroke-width:0px;"/><path d="m497.73,374.09h-1.07c-4.2-19.71-12.65-24.64-12.79-26.11-1-10.36,12.82.24,14.92,7.46,1.58,5.44.09,13.16-1.07,18.65Z" style="fill:#1a0c18; stroke-width:0px;"/><path d="m677.32,288.83c1.87.39,4.29,10.36,3.73,15.45-2.34,21.37-12.75.99-10.66-8.53.11-.48,6.45-7.03,6.93-6.93Z" style="fill:#c45c8e; stroke-width:0px;"/><path d="m384.75,202.5c.84,2.14,1.36,4.28,2.13,6.39q-6.39-1.6-12.79-3.2c-1.58-3.93-2.77-7.99-4.26-11.72,10.39,12.01,6.82,7.9,5.33-7.46l2.13-1.07c2.09,5.84,5.19,11.29,7.46,17.05Z" style="fill:#7e305c; stroke-width:0px;"/><path d="m464.16,351.71c31.59,8.65,23.52,40.34,18.65,32.51-1.07-1.72,7.92-15.38-18.65-32.51Z" style="fill:#3a1526; stroke-width:0px;"/><path d="m608.57,127.89c-7.43,13.03-23.86,21.31-38.37,16.52,15.49-1.85,27.22-6.47,38.37-17.59v1.07Z" style="fill:#cc6884; stroke-width:0px;"/><path d="m586.19,213.16c-3.73,2.02-9.32,8.2-11.72,11.72-1.58-1.93-3.82-5.09-4.26-7.46-.06-1.63,1.4-.83,2.13-1.07,6.73-2.17,14.52-14.55,13.86-3.2Z" style="fill:#9f4180; stroke-width:0px;"/><path d="m506.26,224.88c-.6-.72-13.01-12.38-13.86-12.79,5.86-8.51,17.38,4.53,13.86,12.79Z" style="fill:#7e305c; stroke-width:0px;"/><path d="m474.82,166.26c2.22,15.5,10.03,27.96,17.05,41.57-10.89-11.66-18.04-25.06-17.05-41.57Z" style="fill:#c4817e; stroke-width:0px;"/><path d="m580.33,175.86c2.88,12.61-4.18,17.57-12.79,24.51-2.25-6.36,9.77-11.19,12.79-24.51Z" style="fill:#d38098; stroke-width:0px;"/><path d="m541.43,264.32c14.09,17.08,14.02,24.55,17.05,31.44,1.77,4.04,5.17,7.03,5.33,7.46,4.67,12.59,10.56,33.56,7.46,46.36-8.33-13.01,1.3-17.47-15.99-1.07-3.03-3.04-12.77-38.53-14.92-25.58-1.76,10.61,3.69,31.63-8.53,38.37-.27-2.63,4.81-5.54,4.26-7.99-1.77-7.97-17.28,5.82-10.66,10.13-5.77-.41-13.4-8.96-14.92-14.39-6.57-23.43,10.59-69.44,28.78-84.73h2.13Z" style="fill:#1a0c18; stroke-width:0px;"/><path d="m571.27,349.58c-3.23,13.36-14.75,18.82-23.45,6.39.71-4.53,6.59-3.98,6.93-4.26,1.09-.93.27-2.95.53-3.2,17.29-16.41,7.66-11.94,15.99,1.07Z" style="fill:#330b2d; stroke-width:0px;"/><path d="m555.28,348.52c-.26.25.56,2.27-.53,3.2-.34.29-6.22-.27-6.93,4.26-6.93-9.91-3.69-21.9-7.46-33.04,2.15-12.95,11.89,22.54,14.92,25.58Z" style="fill:#1a0c18; stroke-width:0px;"/><path d="m531.84,361.31c-1.36.75-5.12,2.22-6.39,2.13-6.62-4.31,8.89-18.09,10.66-10.13.55,2.46-4.54,5.36-4.26,7.99Z" style="fill:#511336; stroke-width:0px;"/><path d="m596.85,352.78q-5.86,2.66-11.72,5.33c1.28-8.74,12.89-15.16,15.99-11.19.25.32-3.98,5.25-4.26,5.86Z" style="fill:#31192d; stroke-width:0px;"/><path d="m550.49,397.54c.08,16.11,2.72,11.75,16.52,13.32-1.14,1.8-3.01,1.52-3.2,2.13-2.5,7.92-1.89,22.87-3.2,1.07-5.3-5.05-12.53-2.57-12.79-3.2q1.33-6.66,2.66-13.32Z" style="fill:#1c1c1f; stroke-width:0px;"/><path d="m593.65,359.17c-4.42,16.91,3.99,31.39,4.8,47.96-3.72-15.38-10.02-30.97-6.93-46.9.1-.07-.34-1.46,2.13-1.07Z" style="fill:#533b29; stroke-width:0px;"/><path d="m497.2,175.86q6.93,12.26,13.86,24.51c-5.99-6.13-15.12-15.47-13.86-24.51Z" style="fill:#d38098; stroke-width:0px;"/><path d="m525.44,234.47c-1.31,1.12-2.7,2.46-4.26,3.2-4.28,2.02-3.4,3.73-8.53,0,6.88-5.45,4.59-13.75,12.79-3.2Z" style="fill:#c45c8e; stroke-width:0px;"/><path d="m596.85,352.78c-.66,1.44-3.11,6.05-3.2,6.39-2.47-.39-2.04.99-2.13,1.07-5.61,4.16-3.43,7.67-5.86,7.46-.81-.52-.74-8.16-.53-9.59q5.86-2.66,11.72-5.33Z" style="fill:#69314d; stroke-width:0px;"/><path d="m390.62,105.51c-6.51,12.99-16.26,23.78-15.99,39.43-2.71-14.73,6.83-28.81,15.99-39.43Z" style="fill:#bb9973; stroke-width:0px;"/><path d="m564.88,238.74c-1.19.16-4.4.23-5.33,0-.48-.12-5.85-3.51-7.46-6.39,7.58-2.63,12.32-2,12.79,6.39Z" style="fill:#c45c8e; stroke-width:0px;"/><path d="m685.31,281.37c-5.24-6.8-8.83-10.49,1.07-13.86.83,5.86-.94,10.71-1.07,13.86Z" style="fill:#b77796; stroke-width:0px;"/><path d="m603.24,364.5c-.14.09.41,1.55-3.2,1.07,2.36-12.46,14.1-21.04,14.92-18.65-5.1,5.02-11.03,9.87-11.72,17.59Z" style="fill:#52272a; stroke-width:0px;"/><path d="m500.39,303.75c11.46-1.55-11.36,11.4-13.32,7.99,2.35-2.02,12.35-7.86,13.32-7.99Z" style="fill:#f3aeab; stroke-width:0px;"/><path d="m517.98,408.2l-6.93,17.05c-5.93-11.79,4.64-12.54,5.86-17.05h1.07Z" style="fill:#221b20; stroke-width:0px;"/><path d="m571.8,363.44q-4,5.06-7.99,10.13c-2.15,21.1-5.04,6.13-1.07-2.13,1.16-2.41,6.95-5.89,9.06-7.99Z" style="fill:#d5a48f; stroke-width:0px;"/><path d="m534.5,370.9c.86-.11,2.23-.26,2.66.53-16.15,22.71-9.41.35-2.66-.53Z" style="fill:#d38098; stroke-width:0px;"/><path d="m512.12,363.44c.64,1.91,2.61,4.53,2.66,4.8,2.76,12.99-4.75,16.04-2.66-4.8Z" style="fill:#d8969c; stroke-width:0px;"/><path d="m578.73,203.57c-2.16,2.09-8.82,10.85-6.39,12.79-.73.24-2.19-.57-2.13,1.07-1.38-7.31,4.71-9.78,7.46-14.92l1.07,1.07Z" style="fill:#d5a48f; stroke-width:0px;"/><path d="m603.78,190.78c-4.95,17.32-13.31,20.63-.53.53l.53-.53Z" style="fill:#d1a27e; stroke-width:0px;"/><path d="m517.98,408.2h-1.07c.88-3.24-1.05-19.18.53-19.18l.53,19.18Z" style="fill:#9b7b5d; stroke-width:0px;"/><path d="m503.06,383.69h-1.07c.02-1.94-.43-19.18.53-19.18,1.11,6.33.34,12.81.53,19.18Z" style="fill:#39261a; stroke-width:0px;"/><path d="m561.15,431.65c.45.06,1.34,5.16,3.2,8.53-8.18-1.29-3.84-8.61-3.2-8.53Z" style="fill:#292517; stroke-width:0px;"/><path d="m543.56,370.9l-2.13,1.07c-.33-.26-7.19-2.81-1.6-5.33,2.34-1.05,3.55,4.05,3.73,4.26Z" style="fill:#221b20; stroke-width:0px;"/><path d="m496.13,318.67c2.25,1.12,3.65,10.42,2.13,10.66q-1.07-5.33-2.13-10.66Z" style="fill:#53422a; stroke-width:0px;"/><path d="m377.29,185.45l-2.13,1.07c-.14-1.48-1.75-11.53-.53-11.72,1.65,3.35,1.43,7.21,2.66,10.66Z" style="fill:#b38c70; stroke-width:0px;"/><path d="m543.56,370.9c2.19,2.63,5.29,5.72,4.8,9.59-2.6-4.2-2.88-5.36-6.93-8.53l2.13-1.07Z" style="fill:#98825d; stroke-width:0px;"/><path d="m610.17,96.99c1.04,1.56,1.44,2.84,1.6,4.8.69,8.54-3.8,4.14-1.6-4.8Z" style="fill:#c4817e; stroke-width:0px;"/><path d="m582.46,380.49c5.41,1.21-3.34,12.19-1.6,1.6.02-.12,1.49-1.62,1.6-1.6Z" style="fill:#706243; stroke-width:0px;"/><path d="m539.83,156.67c.19,0,2.66,2.48,2.66,2.66,0,4.21-6.87-2.66-2.66-2.66Z" style="fill:#c3a777; stroke-width:0px;"/><path d="m477.48,389.02c-.37,1.22-1.26,2.63-1.6,4.26-1.11-.2-.2-3.35-.53-5.33l2.13,1.07Z" style="fill:#71583a; stroke-width:0px;"/><path d="m587.79,60.75c2.94-.74,3.73,5.69.53,1.6-.59-.75-1.72-1.3-.53-1.6Z" style="fill:#afa871; stroke-width:0px;"/><path d="m611.77,342.12c23.29,2.15,12.1-4.59,17.59-6.39,6.54-2.15,21.34,4.74-2.66-15.99,14.06,3.05,29,11.77,29.84,15.45.17.72-4.74,13.4-5.33,13.86-1.64,1.27-32.17,3-39.43-6.93Z" style="fill:#942b6f; stroke-width:0px;"/><path d="m626.69,319.74c24,20.72,9.2,13.84,2.66,15.99-5.49,1.8,5.7,8.54-17.59,6.39-1.3-1.77-2.25,2.7-1.07-5.33.14-.92,6.93-8.83-2.13-15.99-14.23-5.95,1.21-4.73,18.12-1.07Z" style="fill:#31192d; stroke-width:0px;"/><path d="m578.2,303.75c4.17,2.58,22.13,9.6,20.78,14.39-.92,3.28-17.28,16.26-20.78-14.39Z" style="fill:#7e305c; stroke-width:0px;"/><path d="m607.51,321.87c3.46,3.83,1.26,8.65,2.13,12.79-3.34,13.61-12.73-12.24-7.99-13.86,1.86-.63,3.83.8,5.86,1.07Z" style="fill:#31192d; stroke-width:0px;"/><path d="m610.7,336.79c.4-2.51-1.04-2.01-1.07-2.13-.87-4.14,1.32-8.96-2.13-12.79.81.1,1.18-.25,1.07-1.07,9.06,7.16,2.27,15.06,2.13,15.99Z" style="fill:#794058; stroke-width:0px;"/><path d="m597.38,321.87c.68-.2,1.45-.04,1.6.53.96,3.63-7.37,1.19-1.6-.53Z" style="fill:#611d32; stroke-width:0px;"/><path d="m496.66,374.09h1.07c-.24,1.15.47,4.26-.53,4.26-1.11-.99-.24-2.91-.53-4.26Z" style="fill:#706243; stroke-width:0px;"/><path d="m412.47,333.59v-1.07c3.55-.93,1.82-.83,0,1.07Z" style="fill:#c3a777; stroke-width:0px;"/><path d="m456.16,320.8c-14.19,19.55,10.51,21.16,13.32,19.18.79-.56-.48-4.88,2.66-12.79l3.2-3.2c.3-.11.82.15,1.07,0,.92,7.13-3.02,4.87-2.13,13.86.62,6.27,1.85,4.35,4.8,9.59-9.72-5.16-32.5,6.55-41.57,2.13-2.09-1.02,5.28-8.44-4.26-1.07-2.93-6.44-7.74,2.25-6.93-6.93,1.17-13.2,19.63-18.04,29.84-20.78Z" style="fill:#7e305c; stroke-width:0px;"/><path d="m478.55,316.54l1.07,2.13c-2.62,1.92-3.45,2.59-5.33,5.33-.55.8-.92.16-2.13,3.2-3.15,7.91-1.87,12.23-2.66,12.79-2.81,1.97-27.51.37-13.32-19.18,6.68-1.8,15.58-4.33,22.38-4.26Z" style="fill:#1a0c18; stroke-width:0px;"/><path d="m484.94,326.13c-1.2,7.27-2.61,10.95-10.66,11.72-.89-8.98,3.05-6.73,2.13-13.86,11.41-7.2,7.03.21,8.53,2.13Z" style="fill:#31192d; stroke-width:0px;"/><path d="m484.94,326.13c-1.49-1.92,2.89-9.33-8.53-2.13-.24.15-.77-.11-1.07,0h-1.07c1.88-2.74,2.7-3.41,5.33-5.33.69-.51,2.18-.83,2.13-2.13,4.32.68,9.11,1.3,4.26,5.86,5.26,1.81,5.28,11.87-1.07,3.73Z" style="fill:#edd6a7; stroke-width:0px;"/><path d="m481.74,316.54c.05,1.3-1.44,1.62-2.13,2.13l-1.07-2.13c1.04.01,2.19-.16,3.2,0Z" style="fill:#533b29; stroke-width:0px;"/><path d="m475.35,324l-3.2,3.2c1.21-3.04,1.58-2.4,2.13-3.2h1.07Z" style="fill:#b77796; stroke-width:0px;"/></g></svg>