<?xml version="1.0" encoding="UTF-8"?><svg id="b" xmlns="http://www.w3.org/2000/svg" xmlns:xlink="http://www.w3.org/1999/xlink" viewBox="0 0 813.83 464.9"><defs><linearGradient id="d" x1="659.01" y1="87.35" x2="815.82" y2="131.47" gradientUnits="userSpaceOnUse"><stop offset="0" stop-color="#3a554e"/><stop offset=".8" stop-color="#7c5047"/></linearGradient><linearGradient id="e" x1="59.53" y1="23.13" x2="45.59" y2="154.3" gradientUnits="userSpaceOnUse"><stop offset="0" stop-color="#38524a"/><stop offset="1" stop-color="#7b4f47"/></linearGradient></defs><g id="c"><rect width="813.83" height="464.9" style="fill:#47695f; stroke-width:0px;"/><path d="m399.78.02q1.39,15.5,2.78,30.99l-.4-30.99c10.6,0,21.19,0,31.79,0l3.58,23.84-.4-23.84c.53,0,1.06,0,1.59,0q.6,14.7,1.19,29.4L442.69.02c10.6,0,21.19,0,31.79,0-1.86,13.54,4.82,27.09,6.75,40.53q.4-8.34.79-16.69c4.01,2.46,4.05-3.17,4.77-3.18,1.39-.02,2.71,14.11,4.37,10.73-1.46-13.36-2.86-49.32,1.19-17.08q.99-7.15,1.99-14.3c6.62,0,13.24,0,19.87,0-3.62,12.39,3.4,51.17,3.97,17.08,13.1-10.25,3.27,7.53,10.73-8.34,5.01,16.69,1.94-3.04,2.78-8.74,32.31.02,64.63-.03,96.94,0q8.34,12.71,16.69,25.43c1.81,7.3,4.54,13.68,7.15,20.66,3.7,9.91,8.99,16.33,7.95,24.24,4.82-2.02,6.16,2.56,7.55,1.99,1.19-.5.88-6.85,3.58,1.19,4.02,11.98,6.45,39.42,7.15,52.84.23,4.47-.1,9.02,0,13.51-5.65-9.2-7.15,3.15-5.17-7.95-10.22,5.49-5.49-2.58-7.95-3.97-1.39-.79-4.37.93-4.77.79-.62-.22-1.78-2.18-2.38-2.38-14.01-4.77-24.01-3.76-36.55-7.15-2.53-12.48-6.73,6.08-8.34-11.92,13.68-17.02,24.25-16.25,7.55-47.68,11.06,32.17-7.84,30.48-19.47,48.87-13.83,21.87-9.49,49.13-8.74,73.5-4.8-34.14-24.25-67.36-49.27-90.59-3.26-3.03-2.23-1.45-2.38-1.59-.22-.2.45-1.52-3.58-4.77-6.59-5.31-14.73-9.12-21.46-14.3-.46,18.74-6.83,12.51-3.58-1.99-2.8-.96-15.53-8.45-16.69-5.56-.83,20.82-2.13-2.27-3.58-3.58-.67-.61-16.63-5.08-17.48-4.77-3.29,1.19,1.4,11.49-3.18,11.92-8.12.77,3.68-16.89-10.73-14.7-.28,17.54-.78,10.14-2.78-1.19-9.13-3.05-67.86-3.9-70.32,2.78.34,9.68-1.6,9.4-1.99-.4-22.58,3.54-40.54,12.52-59.2,25.43-.35-28.99-36.01-7.5-10.33,7.15-24.1,19.66-35.93,46.02-39.73,50.06-11.1,11.79-7.7-6.41-6.36-13.11,5.02-.82,3.14-4.72,3.18-5.17.07-.87,1.1-1.35,1.59-1.99-2.49-3.92-14.61,16.79-15.5,19.47-17.02-30.93-59-16.22-49.66-53.64,2.04-8.17,7.84-15.94,13.51-21.85.14-.14.37.57,3.18-2.38,9.29-9.77-7.17-.82-15.1,13.11-5,8.79-8.08,18.01-6.36,28.21-1.97,15.81-1.63,7.56-10.73,14.3-18.52,3.84-20.43-12.07-29.8-3.18,2.04-7.09,4.55-14.36,6.36-21.46,1.06.5,1.91,1.42,3.18.4,2.57-2.06,22.36-40.56,48.87-40.13C241.01,23.16,277.37,18.25,301.25.02c32.84-.02,65.69.01,98.53,0Z" style="fill:#47695f; stroke-width:0px;"/><path d="m813.78,71.54c.12,32.84-.04,65.69,0,98.53-5.29,2.85-18.24,23.28-21.85,23.84-2.16.34-6.73-3.18-7.15-3.18-2.12-.01-6.6,6.03-9.93,3.18,2.1-17.24-13.49-28.72-29.4-22.25-4.97-17.31-5.7-3.37-22.65-14.3l-7.95,3.97c-2.25-4.05-9.99-1.49-10.73.4-2.07,5.32,6.91,3.81-19.07,19.47-1.37-4.81-2.95-6.57-5.56-9.54-.15-.17-1.34-3.61-2.38-3.97,1.56-.16,2.31-5.05,2.38-6.36.11-1.83.02-3.73,0-5.56,1.31-9.65.99-19.69.79-29.4-.35-17.96-1.27-35.69.79-53.64-11.05-17.75-19.9-64.45-.4-54.43,8.04,4.13,20.39,43.58,23.84,54.03-.89-26.4-28.98-82.43,1.99-47.28,8.92,9.47,15.58,49.44,12.71,15.1-.89-10.62-6.45-32.7,1.19-6.75,8.53-8.37,7.22,2.31,8.34,4.37,2.79,5.12,6.89,9.86,9.54,15.1,12.8,25.39,19.81,55.45,26.62,83.04-2.44-21.94-.54-43.56-.4-65.56,6.62.01.91-16.14,3.97-20.66,1.85-2.73,4.47,2.71,6.36,0l5.17-11.52c7.89,14.77,11.36,18.88,4.77,34.96l-2.78-11.52-.79,38.14q-4.37-11.12-8.74-22.25c7.84,33.66,10.13,68.07,12.32,7.55,7.29,6.65,4.43,39.47,8.34,26.62.3-.99.36-5.57.79-6.36,1.29-2.35,3.26.49,3.97-1.59,3.1-9.02-3.46-52.51-4.77-65.16,4.36,13.54,2.56,3.42,5.17,2.78,2.73-.67,13.16,27.01,15.5,30.2Z" style="fill:url(#d); stroke-width:0px;"/><path d="m700.15.02l5.17,11.12L700.95.02c37.61.08,75.23-.06,112.84,0,.07,23.84-.09,47.68,0,71.52-2.34-3.18-12.77-30.87-15.5-30.2-2.6.64-.81,10.76-5.17-2.78,1.3,12.65,7.87,56.14,4.77,65.16-.72,2.08-2.68-.76-3.97,1.59-.43.78-.49,5.36-.79,6.36-3.91,12.85-1.06-19.97-8.34-26.62-2.19,60.52-4.47,26.11-12.32-7.55q4.37,11.12,8.74,22.25l.79-38.14,2.78,11.52c6.59-16.08,3.12-20.2-4.77-34.96l-5.17,11.52c-1.89,2.71-4.51-2.73-6.36,0-3.06,4.52,2.65,20.67-3.97,20.66-.15,22-2.04,43.62.4,65.56-6.81-27.59-13.82-57.65-26.62-83.04-2.64-5.24-6.74-9.98-9.54-15.1-1.13-2.06.19-12.74-8.34-4.37-7.64-25.95-2.08-3.87-1.19,6.75,2.87,34.34-3.8-5.63-12.71-15.1-30.97-35.15-2.88,20.88-1.99,47.28-3.45-10.46-15.8-49.91-23.84-54.03-19.5-10.01-10.65,36.68.4,54.43-2.07,17.94-1.15,35.68-.79,53.64h-1.59c-.7-13.43-3.14-40.86-7.15-52.84-2.69-8.04-2.39-1.69-3.58-1.19-1.38.58-2.73-4.01-7.55-1.99,1.04-7.9-4.24-14.32-7.95-24.24l8.74,11.52c3.12-24.74-1.86-25.85-17.88-41.72-.44.2,1.76,8.62,1.99,9.54q-8.34-12.71-16.69-25.43c23.84.02,47.68-.05,71.52,0Z" style="fill:#012227; stroke-width:0px;"/><path d="m301.25.02c-23.88,18.23-60.24,23.13-78.27,48.47-26.51-.43-46.3,38.06-48.87,40.13-1.27,1.02-2.12.11-3.18-.4.85-3.35,3-11.49,1.59-13.11l-13.91,38.54q-.2-10.13-.4-20.26c-.5,7.94-1.64,15.64-3.18,23.44-3.86-1.37-4.47.17-7.95.79.58-27.1-3.76-1.61-5.56,9.93l-5.56-11.92c-1.83-.72-.18,1.79,0,3.58-4.31-1.55-4.42-.88-8.74,0,.73-7.12,2.77-14.7,3.18-21.85,1.45-25.56-.73-8.27-2.78-7.55-.15.05-1.25-1.15-2.78-1.59.22-34.66,4.82-60.64,6.36-11.52,3.23-26.9,6.23-54.83,23.84-76.68C203.77-.04,252.51.05,301.25.02Z" style="fill:#3e5a4f; stroke-width:0px;"/><path d="m24.72.02c5.28,8.42,7.22,13.82,8.74,0,4.24-.03,8.48.03,12.71,0q-1.39,9.54-2.78,19.07c3.2,2.19,5.85-17.96,12.32-15.89q-2.58,15.89-5.17,31.79c3.59-10.31,4.45-21.08,5.96-31.79.02-.16,1.2.45.79-3.18,9.27-.04,18.54.02,27.81,0,1.18,7.27,1.12,4.84,3.97,0,21.98-.05,43.97.03,65.95,0-17.6,21.85-20.61,49.78-23.84,76.68-1.54-49.11-6.14-23.14-6.36,11.52-.41-.12-1.08.06-1.59,0,.81-19.74-1.6-39.48-1.59-59.2l3.97,2.38q.6-8.94,1.19-17.88l-3.97,7.95c1.14-13.57-12.32-.45-15.5,4.37-5.16,7.83-9.03,35.19-13.51,46.49-.21-.52-.89-3.82-1.59-5.96-2.97-2.91-13.73,50.29-14.3,53.64-1.84,10.7-4.1,39.1-5.56,40.53,2.03-19.51-.14-38.91-.79-58.41-3.58-7.4-8.78-35.06-3.18-17.48h1.59c2.94-17.57,29.51-48.22,18.28-66.75-11.43-18.86-29.81,35.58-31.39,42.51q4.57-26.42,9.14-52.84c-4.63,5.98-12.22,40.32-13.51,42.12-1.37,1.91-5.82,1.12-7.95,5.56-2.4,5.02-13.2,70.1-15.1,83.44-2.06-9.32,2.83-52.12,2.38-54.83-1.28-7.76-4.98,16.45-5.96,16.29l-.4-21.85h-1.59c-2.53,18.41-6.22,36.69-7.15,55.23C5.89,126.52,6.17,102.49.08,110.48c.05-24.1-.21-48.21,0-72.31q2.38,4.57,4.77,9.14c3.42-8.87,5.89-18.25,9.54-27.02,2.88-6.92,9.99-17.35,9.54-18.28-1.51-3.08-7.2,8.59-7.95,9.54C11.09,17.74,5.26,23.46.08,29.43.18,19.63,0,9.82.08.02,8.29-.06,16.51.14,24.72.02Z" style="fill:#012227; stroke-width:0px;"/><path d="m16.77,133.52l1.59,1.19c-3.46,9.17,5.84,7.01,3.97,16.69,10.77,10.33-2.68,4.58-5.17,5.17-6.15,1.45-6.46,17.18-2.38,17.48,2.45.18,3.17-5.91,4.77-6.36.92-.26,7.23,1.68,7.95,1.59,3.23-.41,9.32-8.44,10.33-8.74,9.31-2.74,9.47,4.48,11.12,5.56.69.45,11.44,1.63,14.7,6.75.19.3.09,6.35,1.99,6.75.25.05,3.51-3.33,3.58-3.58,2.26-8.47-19.77-16.71,2.38-14.7,2.47,7.82,3.49,12.62.79,20.66-1.33,3.98-3.93,9.06-8.74,7.95q-4.97-6.75-9.93-13.51l8.34,15.1c-.57.46-.89,8.76-9.54-2.78-.83-1.11-1.51-7.14-3.97-7.15,2.53,7.1,4.29,10.32-3.18,10.33,9.67.86,14.33,15.53,9.14,15.5-.51,0-7.45-6.26-7.55-6.75-.12-.59,3.97-11.86-2.78-.4-5.81-9.3-12.04-27.24-5.56-3.97-25.68-15.14,2.95,3.6,1.19,9.14-.53,1.67-1.52,1.51-2.78,1.19-1.5-.37-20.77-16.29-2.78-.4-11.4,4.97,2.77.58,5.56,5.17,4.03,6.61,3.56,17.69-6.36,3.58,1.41,1.56,5.07,11.11,5.56,11.52-5.82,9.69-4.77-4.49-7.15-8.34-1-1.62-3.84-2.19-7.15-5.56-4.01-4.08-1.08-8.77-8.74-4.37-.56-2.09-.95-4.26-1.59-6.36-3.36-11.05-9.59-21.68-3.18-1.59,4.4,16.41-3.17,6.56-11.12,4.77.03-31.52-.07-63.04,0-94.56,6.09-7.99,5.81,16.05,16.69,23.04Z" style="fill:#e5b56d; stroke-width:0px;"/><path d="m813.78,205.04c-7.33.3-17.85,26.57-19.07,27.81-3.16-1.69-1.6-23.04-2.78-23.04.24,3.6-1.33,18.13-1.19,19.07-7.89-4.48-9.82,5.77-19.87,18.28-.39-3.04-1.52-3.77-1.59-3.97-2.6-7.03-2.12-8.7-11.12-7.95-3.12-4.89,5.59-20.88,7.95-14.3-1.91,2.14-1.57,3.29.79.79,2.8-2.96-.17-3.16,0-3.58,3.54-8.91,15.72-14.7-7.55,1.19-4.61-12.95,13.73-10.92,15.5-25.43,3.34,2.85,7.81-3.19,9.93-3.18.42,0,4.99,3.52,7.15,3.18,3.61-.56,16.56-20.99,21.85-23.84.01,11.65,0,23.31,0,34.96Z" style="fill:#e5b56d; stroke-width:0px;"/><path d="m494.34.02q-.99,7.15-1.99,14.3c-4.05-32.23-2.65,3.72-1.19,17.08-1.66,3.39-2.98-10.74-4.37-10.73-.72,0-.76,5.64-4.77,3.18q-.4,8.34-.79,16.69c-1.94-13.43-8.61-26.99-6.75-40.53,6.62,0,13.24,0,19.87,0Z" style="fill:#012227; stroke-width:0px;"/><path d="m531.69.02c-.84,5.71,2.23,25.44-2.78,8.74-7.46,15.87,2.37-1.91-10.73,8.34-.57,34.09-7.6-4.69-3.97-17.08,5.83,0,11.65,0,17.48,0Z" style="fill:#012227; stroke-width:0px;"/><path d="m.08,38.17c.03-2.91-.03-5.83,0-8.74,5.18-5.97,11.01-11.68,15.89-17.88.74-.94,6.44-12.61,7.95-9.54.45.93-6.66,11.35-9.54,18.28-3.65,8.77-6.12,18.15-9.54,27.02Q2.47,42.74.08,38.17Z" style="fill:#4e1e36; stroke-width:0px;"/><path d="m57.3.02c.41,3.63-.77,3.02-.79,3.18h-.79c-6.46-2.07-9.11,18.08-12.32,15.89Q44.78,9.56,46.17.02c3.71-.02,7.42.02,11.12,0Z" style="fill:#4e1e36; stroke-width:0px;"/><path d="m442.69.02l-2.78,29.4q-.6-14.7-1.19-29.4c1.32,0,2.65,0,3.97,0Z" style="fill:#012227; stroke-width:0px;"/><path d="m402.16.02l.4,30.99q-1.39-15.5-2.78-30.99c.79,0,1.59,0,2.38,0Z" style="fill:#0f2e2b; stroke-width:0px;"/><path d="m33.46.02c-1.52,13.82-3.46,8.42-8.74,0,2.91-.04,5.83.02,8.74,0Z" style="fill:#792b47; stroke-width:0px;"/><path d="m437.13.02l.4,23.84L433.95.02c1.06,0,2.12,0,3.18,0Z" style="fill:#0f2e2b; stroke-width:0px;"/><path d="m700.15.02c.26,0,.53,0,.79,0l4.37,11.12L700.15.02Z" style="fill:#51605d; stroke-width:0px;"/><path d="m89.08.02c-2.85,4.84-2.79,7.27-3.97,0,1.32,0,2.65,0,3.97,0Z" style="fill:#7a3b59; stroke-width:0px;"/><path d="m592.88,182c1.34,9.52,1.09,19.05,1.59,28.61,1.21,23.38-2.11,22.67,11.12,12.32.46-11.75-.24-23.99,2.38-35.36,3.47-3.35,4.26-10.98,15.5-5.56,11.36-14.2,15.33-6.74,19.07-15.1,30.21-13.84,9.4,11.3,18.28,9.54,1.16-.23,10.77-10.64,16.29-8.74,1.05.36,2.23,3.8,2.38,3.97,5.91,14.37,3.51,29.95,2.38,44.9,9.69,5.96,4.7-30.01,3.18-35.36,25.98-15.66,17-14.15,19.07-19.47.73-1.89,8.48-4.45,10.73-.4l7.95-3.97c16.95,10.93,17.68-3.01,22.65,14.3-10.76,4.38-13.7,20.6-7.95,29.8,5.3,8.47,16.5,6.1,15.89,17.48-1.39,2.07-13.89-7.48-16.69-7.95,9.75,12.21,20.22,8.52,18.28,26.62-1.94,3.21-20.13,26.05-21.85,26.22-1.01.1-5.88-4.78-5.96-5.17-.43-2.07,3.52-3.64-1.99-10.73-7.29,24.95-1.36-15.68-15.89-20.66-12.25-4.2-15.08,8.13-21.85,15.1-.62-4.69-.34-9.64-.79-14.3-.12-1.25.36-2.57-.4-3.18-1.27-.84-16.8,22.35-17.88,24.63-.07.14-2.15,1.2-2.38,1.99-.44,1.49.37,5.3,0,7.55-.62,3.73-.43,5.51-2.38,9.54-1.29-14.88,2.55-8.23-8.74-3.97.03-2.87-.55-6.2.79-8.74,2.05,7.51,6.58-3.08,2.78-6.36-.41-.35-2.63-.96-3.58-.79-.27-2.69-.91-6.66-.79-8.74,5.8-1.63,6.87,1.04,7.55.79.76-.27,1.51-4.4,1.99-5.56,4.96,13.69,3.65-11.03,0-1.59h-7.15c4.48-7.28,10.96-9.49,12.71-11.52,4.64-5.39,3.68-8.75-2.78.4-1.88-3.87-5.94,5.1-11.52,3.58-1.92-27.61,29.08-28.08,10.33-25.83l.4-2.38c-.92.52-1.86,2.29-1.99,2.38-.19-.09-.88.17-.79-.79.94-4.74,3.05-7.98-1.19-3.18-6.22-8.98-1.62-6.02,1.59-14.3-7.04,8.19-7.48,5.3-7.95,5.56-1.22.68-1.25,9.07-8.74-4.77,6.88,17.33-.57,12.56-7.15.79.09,10.6,9.15,15.71,7.55,21.85-1.41,5.39-4.93.82-7.15-1.19l2.38-3.58-3.97,1.99c-4.85-6.62.7-2.56.4-8.74-7.53,10.41-8.97-.98-18.28-3.97,7.15,5.75,10.99,15.25,12.32,16.69-1.01-.07-.78.67-.79,1.59-7.93-2.7-1.26.16-.79,1.19.73,1.65.55,9.91.79,12.71.36,4.08,6.08,8.27-3.97,5.56,5.6,6.8,12.03-5.42,19.07,10.73-15.64-9.54-28.01,20.34-37.35,37.35-1.17,2.14-2.72,4.25-3.97,6.36-2.49-1.18-4.73-2.68-7.15-3.97,1.14-2.43,2.4-4.54,3.18-7.15.07-.23,3.04-2.25.4-3.97-21.48,2.85-11.29,22.38-36.95,24.63.91-1.58,7.74-15.03,7.95-15.89.43-1.83.82-12.72-2.38-7.95.6-1.08-.07-3.04,0-3.18,1.43-2.67,7.85-5.59,8.74-18.67-6.17,14.84-15.97,17.12-9.54-2.38,2.89-8.77,8.4-11.33,11.92-17.48,6.3-11.02,5.97-17.15-2.78-.4,5.07-16.68-1.31-.27-17.88,13.11-1.79,4.18-10.28,17.74-14.7,17.88-5.05.16,4.13-15.02,2.38-24.63-1.74,5.4-15.18,36.02-16.29,37.74-3.08,4.79.55-12.32-2.38-5.56-1.36,3.13-4.59,25.17-12.71,33.77l-.79-.79c.31-2.49,4.74-21.96,2.78-22.25-3.11,12.22-11.98,38.71-10.73,25.83,1.08-11.06,5.32-29.87,9.54-40.13,5.47-.18,14.51-6.33,9.54-11.12,15.69-12.28,5.1-18.6,15.5-24.63,5.57-3.23,21.9-1.59,20.66-19.87-.22,5.84-6.44,10.85-11.92,11.12-12.09.62,10.88-14.91,10.73-32.18,6.4-10.01,13.01-17.1,5.56-29-.35-.56-.55-1.21-1.19-1.59-1.31,2.24.4,2.26.4,2.38,0,3.53.39,10.34,0,12.32-.42,2.16-16.99,34.38-21.06,38.54-1.11-.34,2.15-8.19,1.19-15.5-1.88-14.43,1.07,18.83-17.08,29.8l-1.19-1.19c14.98-26.99,9.16-49.02,10.33-61.58.01-.13,2.51.43,1.59-1.99-.43-1.13-5.29-2.59-6.36-4.37,2.9-2.78,14.41-21.08,11.12-23.84-.2-.16-3.1-.65-3.18-.79l.79-35.76c25.02,23.23,44.47,56.44,49.27,90.59Z" style="fill:#e5b56d; stroke-width:0px;"/><path d="m251.18,154.98c-5.27-5.8-15.99-13.89-23.04-17.48-.12-.06-.93-2.58-2.38-1.19,1.09,1.62,2.29,1.09,2.38,1.19.13.15-.13.67,0,.79-9.18,7.72-16.99,2.33-25.83,7.15-9.49,1.25-17.71-6.06-18.67-6.36-.07-.02.21-1.03-1.19-.79-23.81,19.97-10.05,6.01-3.97-13.51-4.47,6.72-8.8,13.37-12.32,20.66-4.11-4.56-2.33-10.12-10.33-6.36,2.89-9.78,5.93-19.63,8.74-29.4,9.37-8.89,11.28,7.02,29.8,3.18,9.09-6.74,8.76,1.5,10.73-14.3,4.78,28.39,48.09,14.9,46.09,56.42Z" style="fill:#51605d; stroke-width:0px;"/><path d="m678.7,139.88c.12,5.24.75,10.76.79,15.89.02,1.84.11,3.73,0,5.56-3.27.55-1.79-1.16-3.18-3.18,3.15-5.78-7.95-21.85-12.71-19.07-2.94,1.72.89,3.77-.79,7.55-1.22,2.73-10.41,5.13-12.32,9.14-28.76-.42-4.78.48-11.92,8.74-9.04-3.54-6.84,3.29-13.51-3.97-22.01,2.94-14.77-2.92-15.5-5.96-1.64-6.83-7.09-.3-8.34-1.19-1.09-.78.98-3.9-2.78-3.18,1.67-18.23,3.56-28.55,15.1-42.91,1.61,17.99,5.82-.56,8.34,11.92,12.54,3.39,22.54,2.38,36.55,7.15.6.21,1.77,2.17,2.38,2.38.4.14,3.38-1.58,4.77-.79,2.46,1.4-2.27,9.47,7.95,3.97-1.98,11.1-.48-1.25,5.17,7.95Z" style="fill:#51605d; stroke-width:0px;"/><path d="m226.55,57.24l-3.18,2.38c-5.67,5.91-11.47,13.68-13.51,21.85-9.34,37.41,32.65,22.71,49.66,53.64.89-2.68,13-23.39,15.5-19.47-.49.63-1.52,1.12-1.59,1.99-11.86,11.09-11.94,29.98-19.07,42.12-3.08-3.93-2.99-4.56-3.18-4.77,2-41.51-41.31-28.03-46.09-56.42-1.72-10.2,1.36-19.42,6.36-28.21,7.93-13.94,24.39-22.88,15.1-13.11Z" style="fill:#a45b5c; stroke-width:0px;"/><path d="m613.54,107.3c-11.54,14.36-13.42,24.68-15.1,42.91-1.04,11.35-.2,22.85-.79,34.17,0,.08-1.56-.26-1.59.4-.5,9.62,1.5,23.13-1.59,25.83-.5-9.55-.25-19.08-1.59-28.61-.75-24.37-5.09-51.63,8.74-73.5,11.63-18.39,30.52-16.7,19.47-48.87,16.71,31.42,6.13,30.65-7.55,47.68Z" style="fill:#a45b5c; stroke-width:0px;"/><path d="m276.61,135.91q-7.15,17.08-14.3,34.17c-.3-.58-6.39-8.34-7.95-10.33,7.13-12.14,7.21-31.03,19.07-42.12-.04.45,1.84,4.35-3.18,5.17-1.35,6.7-4.75,24.9,6.36,13.11Z" style="fill:#51605d; stroke-width:0px;"/><path d="m652.47,46.11c-2.61-6.98-5.35-13.36-7.15-20.66-.23-.92-2.43-9.33-1.99-9.54,16.02,15.87,21,16.98,17.88,41.72l-8.74-11.52Z" style="fill:#3e5a4f; stroke-width:0px;"/><path d="m326.67,78.69c-2.27,1.57-9.76,6.69-10.33,7.15-25.68-14.65,9.98-36.14,10.33-7.15Z" style="fill:#e5b56d; stroke-width:0px;"/><path d="m254.76,80.28c7.74-1.5,13.94,5.99,10.73,13.11-1.39,3.08-9.25,4.89-10.73,10.73-4.03-5.96-12.06-21.49,0-23.84Z" style="fill:#e5b56d; stroke-width:0px;"/><path d="m680.29,126.37c.19,9.71.52,19.75-.79,29.4-.04-5.13-.68-10.65-.79-15.89-.1-4.49.23-9.03,0-13.51h1.59Z" style="fill:#3e5a4f; stroke-width:0px;"/><path d="m244.43,47.7c1.85-.15,3.09.08,4.77.79-14.22,7.55-19.45.42-4.77-.79Z" style="fill:#51605d; stroke-width:0px;"/><path d="m613.93,50.88c1.13-.5,4.51,3.33,4.37,3.58-1.06,1.84-3.91-1.72-4.37-3.58Z" style="fill:#51605d; stroke-width:0px;"/><path d="m226.55,57.24c-2.8,2.95-3.04,2.24-3.18,2.38l3.18-2.38Z" style="fill:#51605d; stroke-width:0px;"/><path d="m276.22,112.07c1.87-.17.8.69.79.79-.2,3.51-3.25-.58-.79-.79Z" style="fill:#51605d; stroke-width:0px;"/><path d="m231.72,53.26c2.98-.43-.26,3.3-1.19,1.19-.03-.08,1.11-1.18,1.19-1.19Z" style="fill:#51605d; stroke-width:0px;"/><path d="m197.94,205.83c2.66,6.28,8.3,10.79,11.12,17.08,1.18,2.63,2.33,11.1,3.97,15.1,1.92,3.13,17.22,10.57,22.25,15.5.79.77,2.53.76,3.18,1.99.36,7.58-1.1,15.42,1.59,22.65-.87.92-.68,3.43-2.38,1.99-8.63-9.7-20.69-46.44-37.74-35.36-14.24,9.25-1.02,15.39-.4,16.29,1.48,2.11,1.15,4.5,1.59,5.96-2.71-1.42-3.23-8.08-10.33-8.34,4.45,4.12,6.16,11.18,7.95,17.08,1.89,6.27,7.44,23.83-2.38,10.73-.47-.63-7.77-12.75-7.95-13.51-.47-2.03.89-3.93.79-6.75-.02-.64,1.2-1.13.79-2.78-5.7-2.19-13.64-33.79-11.12-8.34,1.44,14.61,13.97,3.13-2.78,27.81-13.17-10.88-19.19-57.82-40.13-27.02,2.27-13.65,16.67-26.98,23.84-38.54,4.04-6.52,6.63-13.99,10.33-20.66,3.89-7.02,12.16-13.33-1.19-4.37-1.48-5.38.44-10.57.4-11.12,16.71-2.01,13.46,3.85,17.08,6.36.89.62,12.54-1.13,9.14,15.5.47,1.87,2.31,2.61,2.38,2.78Z" style="fill:#f7d896; stroke-width:0px;"/><path d="m248.8,160.54c-1.27,10.15.88,19.93.79,30.2-4.35,4.59-2.83,10.14-16.29,11.12-8.76.64-8.68-2.7-10.73-1.59-7.32-.98-2.23-13.06-9.54-5.56-4.5,4.61.71,9.77-15.1,11.12-.07-.17-1.91-.91-2.38-2.78,3.4-16.63-8.25-14.88-9.14-15.5-3.62-2.51-.37-8.37-17.08-6.36-.39-5.41-3.33-16.81-2.38-25.03q8.34-8.54,16.69-17.08c.96.3,9.18,7.6,18.67,6.36,8.84-4.82,16.65.57,25.83-7.15,9.81,9.53,11.81,9.88,20.66,22.25Z" style="fill:#665f56; stroke-width:0px;"/><path d="m123.25,88.23c-.09,2.12-1.92,28.11-3.97,26.62-7.12-23.51.83,15.82-5.17,15.5-2.79-.15-4.6-11.82-3.58,2.38l-6.36,1.59c-4.24-10.26-8.13-20.56-11.92-30.99.19-15.75,4.98-24.06,3.97-29-3.02-.55-1.87-.72-2.38-1.99,4.48-11.29,8.35-38.65,13.51-46.49,3.17-4.82,16.63-17.94,15.5-4.37l3.97-7.95q-.6,8.94-1.19,17.88l-3.97-2.38c-.01,19.72,2.4,39.46,1.59,59.2Z" style="fill:#3e5a4f; stroke-width:0px;"/><path d="m120.07,192.33c1.23,3.48,3.07,7.14,3.97,10.73,5.63,22.27,2.09,26.71-.79,38.54-18.74-19.55-22.69,23.86-32.58,15.89-4.44-3.58-7.48-16.62-7.95-17.48,1.32-1.2,3.62-1.92,4.77-3.18,2.76-3.03-3.85-5.53-4.77-8.74,2.87-2.85,2.42-13.29,1.59-18.67l9.54-1.59c-19.08-1.71-1.22-5.29-4.37-6.75-16.9,10.94-3.76-2.23,2.78-8.74,1.37-1.37,3.63-1.84,4.77-3.58-2.29-1.23-4.53,2.64-4.77,2.78-2.36,1.35-10.39,6.6-11.12,3.18-2.1-6.96-5.04-7.21-.79,0,2.83,9.76-8.38.32-7.15-11.92,2.21-22.01,12.64-2.52,13.91-2.38,1.93.21,2.76-6.6,3.97-7.15,10.02-4.59,6.79,12.73,11.12,15.1,17.06,1,11.08,11.08,17.88,3.97Z" style="fill:#e5b56d; stroke-width:0px;"/><path d="m90.67,133.52c6.13,21.66,21.87,37.52,29.4,58.8-6.8,7.1-.81-2.98-17.88-3.97-4.33-2.36-1.11-19.69-11.12-15.1-1.21.56-2.04,7.36-3.97,7.15-1.26-.13-11.7-19.63-13.91,2.38l-.79-.79c2.69-8.04,1.67-12.84-.79-20.66-.09-.96.75-.76.79-.79,1.46-1.43,3.72-29.83,5.56-40.53,3.15.2,3.34-5.65,5.17-6.36,1.45-.57,11.06,12.19,5.96,17.08.17,1.33.73.57,1.59,2.78Z" style="fill:#775047; stroke-width:0px;"/><path d="m93.85,72.34c.51,1.27-.63,1.44,2.38,1.99,1.01,4.94-3.79,13.26-3.97,29-.1,8.43,3.32,14.1.4,16.69-11.11-15.34,7.18,18.57,11.52,32.18-.79,1.76-12.98-17.32-13.51-18.67-.86-2.21-1.42-1.45-1.59-2.78,5.1-4.89-4.51-17.65-5.96-17.08-1.82.71-2.01,6.56-5.17,6.36.58-3.35,11.33-56.54,14.3-53.64.7,2.14,1.38,5.44,1.59,5.96Z" style="fill:#664f48; stroke-width:0px;"/><path d="m135.96,119.22c1.81,18.38,4.96,47.13-11.12,10.73,1.38-3.47,2.01-7.03,2.38-10.73,4.32-.88,4.43-1.55,8.74,0Z" style="fill:#50554f; stroke-width:0px;"/><path d="m155.03,116.84c-.97,4.9-1.89,9.47-3.18,14.3h-6.36c.55-3.79,1.51-9.92,1.59-13.51,3.47-.63,4.09-2.16,7.95-.79Z" style="fill:#50554f; stroke-width:0px;"/><path d="m676.31,158.16c1.39,2.01-.09,3.73,3.18,3.18-.08,1.31-.82,6.2-2.38,6.36-5.52-1.9-15.13,8.51-16.29,8.74-8.88,1.77,11.94-23.38-18.28-9.54-3.74,8.35-7.71.9-19.07,15.1-11.24-5.42-12.03,2.21-15.5,5.56-5.16,4.99-5.7,2.81-10.33-3.18.6-11.32-.25-22.82.79-34.17,3.76-.72,1.69,2.4,2.78,3.18,1.25.89,6.7-5.64,8.34,1.19.73,3.04-6.52,8.9,15.5,5.96,6.67,7.26,4.47.43,13.51,3.97,7.14-8.26-16.84-9.16,11.92-8.74,1.9-4.01,11.1-6.4,12.32-9.14,1.69-3.78-2.15-5.83.79-7.55,4.39,6.26,8.36,12.78,12.71,19.07Z" style="fill:#665f56; stroke-width:0px;"/><path d="m685.05,181.2c1.53,5.35,6.51,41.32-3.18,35.36,1.13-14.95,3.52-30.53-2.38-44.9,2.62,2.96,4.19,4.73,5.56,9.54Z" style="fill:#a45b5c; stroke-width:0px;"/><path d="m685.45,69.95q1.99,12.71,3.97,25.43c-2.31-6.82-7.12-19.91-3.97-25.43Z" style="fill:#0f2e2b; stroke-width:0px;"/><path d="m705.32,73.13c.61,0,.61,3.18,0,3.18s-.61-3.18,0-3.18Z" style="fill:#254039; stroke-width:0px;"/><path d="m687.44,242.39c.3,1.86-.76,1.51-.79,1.59-4.71-2.33-5.06,2.96-8.74-3.18,2.95-4.16,4.98-9.11,8.74-12.71.46,4.67.18,9.61.79,14.3Z" style="fill:#994f5c; stroke-width:0px;"/><path d="m794.71,232.85c-1.44,1.46-3.76-2.54-3.97-3.97-.14-.94,1.43-15.47,1.19-19.07,1.18,0-.38,21.36,2.78,23.04Z" style="fill:#bc9156; stroke-width:0px;"/><path d="m72.39,160.54s-.88-.17-.79.79c-22.16-2.01-.13,6.23-2.38,14.7-.07.24-3.33,3.63-3.58,3.58-1.9-.41-1.8-6.46-1.99-6.75-3.26-5.13-14.01-6.3-14.7-6.75-1.65-1.08-1.82-8.3-11.12-5.56-1.01.3-7.1,8.33-10.33,8.74-.72.09-7.02-1.85-7.95-1.59-1.59.45-2.31,6.54-4.77,6.36-4.08-.3-3.76-16.03,2.38-17.48,2.48-.59,15.93,5.17,5.17-5.17,1.86-9.67-7.43-7.52-3.97-16.69l-1.59-1.19c.93-18.54,4.62-36.82,7.15-55.23h1.59l.4,21.85c.98.16,4.68-24.05,5.96-16.29.45,2.71-4.44,45.51-2.38,54.83,1.9-13.33,12.69-78.42,15.1-83.44,2.13-4.44,6.58-3.66,7.95-5.56,1.29-1.8,8.88-36.13,13.51-42.12q-4.57,26.42-9.14,52.84c1.57-6.93,19.96-61.37,31.39-42.51,11.23,18.53-15.33,49.17-18.28,66.75h-1.59c-5.6-17.58-.4,10.08,3.18,17.48.65,19.5,2.82,38.89.79,58.41Z" style="fill:url(#e); stroke-width:0px;"/><path d="m37.83,42.14c1.21,0-2.88,22.52-3.97,23.04-5.88,2.8,2.25-23.05,3.97-23.04Z" style="fill:#50554f; stroke-width:0px;"/><path d="m55.71,3.2h.79c-1.51,10.7-2.37,21.47-5.96,31.79q2.58-15.89,5.17-31.79Z" style="fill:#41484c; stroke-width:0px;"/><path d="m14.39,201.86l-3.18-1.59c-6.41-20.09-.18-9.46,3.18,1.59Z" style="fill:#322613; stroke-width:0px;"/><path d="m597.64,184.38c4.63,5.99,5.17,8.17,10.33,3.18-2.62,11.37-1.92,23.61-2.38,35.36-13.24,10.35-9.91,11.06-11.12-12.32,3.09-2.7,1.09-16.2,1.59-25.83.03-.65,1.58-.32,1.59-.4Z" style="fill:#775047; stroke-width:0px;"/><path d="m631.81,208.22c.01-.92-.22-1.66.79-1.59,8.85,9.63,16.58,2.69,14.3,20.26-14.59,2.52-15.25-5.37-15.1-18.67Z" style="fill:#f7d896; stroke-width:0px;"/><path d="m686.64,228.08c-3.76,3.6-5.79,8.56-8.74,12.71-1.98,2.78-3.38,7.49-7.15,8.74-.55.18-1.62-.11-2.38,0,1.08-2.28,16.6-25.47,17.88-24.63.76.6.27,1.92.4,3.18Z" style="fill:#201d2a; stroke-width:0px;"/><path d="m663.6,233.65c-.14.37.15,1.23,0,1.59-.48,1.16-1.23,5.29-1.99,5.56-.68.24-1.75-2.42-7.55-.79.08-1.45-.06-2.92,0-4.37.35-.78,2.3-1.85,2.38-1.99h7.15Z" style="fill:#a86f68; stroke-width:0px;"/><path d="m663.6,235.24c.15-.35-.14-1.22,0-1.59,3.65-9.44,4.96,15.28,0,1.59Z" style="fill:#593e35; stroke-width:0px;"/><path d="m664,213.78c1.17.2-1.11,4.06-1.59,3.97-1.17-.2,1.11-4.06,1.59-3.97Z" style="fill:#5d5734; stroke-width:0px;"/><path d="m228.14,137.5c-.09-.1-1.29.42-2.38-1.19,1.46-1.39,2.27,1.13,2.38,1.19Z" style="fill:#1a191b; stroke-width:0px;"/><path d="m676.31,158.16c-4.35-6.29-8.32-12.81-12.71-19.07,4.76-2.78,15.86,13.29,12.71,19.07Z" style="fill:#845e59; stroke-width:0px;"/><path d="m276.61,231.26c2.77-1.92,11.81,2.75,12.32,2.38,3.09-2.23,1.02-11.89-12.71-15.89l-1.99,12.71c-.16,2.21,5,4.29,7.15,7.55,17.89,27.13,7.38,20.48,34.96,28.21l-9.54,9.54c.01-.26-.02-.53,0-.79.19-3.08,4.32-6.43,3.97-7.55-.23-.75-7.22-5.67-7.95,2.78-.5,5.83,5.16,13.16,1.99,13.51-15.28-17.31-1.58.51,1.99,8.34-.55,1.08-5.67-2.31-6.36-2.78-.74-.51-3.49-4.57-4.37-4.77-1.26-.28-8.97,2.11-11.12,1.59-3.06-.73-18.28-23.48-23.84-24.63-9.62-2-12.49,5.13-17.08,11.12-1.72-5.29-.63-35.9,3.58-37.35,8.28-2.85,2.07,8,8.74,6.36,1.7-.42,2.5-3.02,2.78-4.37,2.25-10.69-1.76-47.06,0-60.79,3.59,8.44,4.54,18.08,7.95,26.62,2.71,4.84,35.68,22.47,38.94,52.45-6.88,3.41-7.48-11.16-29.4-24.24Z" style="fill:#f7d896; stroke-width:0px;"/><path d="m258.34,174.05c.05.11.19.96.79,2.38-1.76,13.73,2.25,50.1,0,60.79-.28,1.35-1.08,3.95-2.78,4.37-6.67,1.64-.46-9.21-8.74-6.36-4.2,1.45-5.3,32.06-3.58,37.35-1.55,2.03-1.97,3.42-3.97,5.56-2.69-7.23-1.23-15.07-1.59-22.65-.65-1.23-2.39-1.21-3.18-1.99,2.14-3.76,3.2-34.09,7.55-34.96.78-.16,2,3.47,3.18,3.18,2.45-.6,3.54-27.02,3.58-30.99.09-10.26-2.06-20.05-.79-30.2,2.15,3.01,8.31,10.88,9.54,13.51Z" style="fill:#a45b5c; stroke-width:0px;"/><path d="m235.29,253.51c-5.03-4.93-20.33-12.36-22.25-15.5-1.65-3.99-2.79-12.47-3.97-15.1-2.83-6.3-8.46-10.81-11.12-17.08,15.81-1.36,10.6-6.51,15.1-11.12-4.22,8.89,3.22,17.36,9.54,5.56,2.05-1.11,1.97,2.23,10.73,1.59,13.46-.98,11.94-6.53,16.29-11.12-.03,3.97-1.13,30.39-3.58,30.99-1.18.29-2.4-3.33-3.18-3.18-4.35.87-5.41,31.21-7.55,34.96Z" style="fill:#775047; stroke-width:0px;"/><path d="m203.11,224.11c.43-.09,3.13,7.13,2.78,8.34-2.03,7.06-7.14-4.12-2.78-8.34Z" style="fill:#a45b5c; stroke-width:0px;"/><path d="m177.68,229.67q.79,5.96,1.59,11.92c-2.55,1.93-2.38-10.41-1.59-11.92Z" style="fill:#aa5848; stroke-width:0px;"/><path d="m222.58,200.27c-6.32,11.79-13.75,3.33-9.54-5.56,7.31-7.49,2.21,4.59,9.54,5.56Z" style="fill:#e5b56d; stroke-width:0px;"/><path d="m178.48,161.33c5.54-.57,3.21,13.48,0,13.51-3.97.04-4.62-13.03,0-13.51Z" style="fill:#e5b56d; stroke-width:0px;"/><path d="m92.26,192.33v-.79c.24-.14,2.48-4.01,4.77-2.78-1.14,1.74-3.4,2.21-4.77,3.58Z" style="fill:#bc9156; stroke-width:0px;"/><path d="m81.13,194.71h-.79c-4.25-7.21-1.31-6.96.79,0Z" style="fill:#8c6e3e; stroke-width:0px;"/><path d="m82.72,225.7c-9.46-4.37-14.08,1.75-15.1,1.59-3.31-15.86,2.79-12.13,5.96-14.3,1.27-.87,4.13-4.61,4.77-4.77,8.06-2.02,3.68,12.69,4.37,17.48Z" style="fill:#e5b56d; stroke-width:0px;"/><path d="m640.16,217.75c.09-.01,1.61,1.16.79,1.59-2.04,1.08-2.3-1.42-.79-1.59Z" style="fill:#23371c; stroke-width:0px;"/><path d="m243.64,201.86c1.69,1.15,1.25,3.26,1.19,5.17-.29,9.11-4.5.75-1.19-5.17Z" style="fill:#a45b5c; stroke-width:0px;"/><path d="m78.35,214.57c.61,1.04,1.74.61,1.99,1.19,1.88,4.38-1.86,12.15-1.99-1.19Z" style="fill:#8c6e3e; stroke-width:0px;"/><path d="m155.03,176.43c-4.72,14.31-9.66,35.49-11.92,40.92-3.44,8.27-10.29,18.22-7.95.79.52-3.87,9.23-15.42,6.36-43.7,1.49-1.63,5.8-6.27,6.36-7.55,9.8-2.68,6.71,3.16,7.15,9.54Z" style="fill:#775047; stroke-width:0px;"/><path d="m166.16,145.44c-4.93,10.23-7.6,20.32-11.12,30.99-.44-6.37,2.65-12.22-7.15-9.54,4.37-10,5.06-18.06,7.95-27.81,8-3.76,6.22,1.8,10.33,6.36Z" style="fill:#665f56; stroke-width:0px;"/><path d="m189.2,266.23c-5.05-2.2-8.42-6.12-10.33-11.12-2.51-25.45,5.42,6.16,11.12,8.34.4,1.65-.82,2.14-.79,2.78Z" style="fill:#201d2a; stroke-width:0px;"/><path d="m201.12,267.02c.19.65-.2,1.77,0,2.38l-3.97-.4c.62,2.3,1.64,4.5,2.38,6.75h-.79c-1.78-5.91-3.5-12.97-7.95-17.08,7.1.26,7.62,6.92,10.33,8.34Z" style="fill:#ce9167; stroke-width:0px;"/><path d="m167.35,252.72c1.45,1.22,3.26,3.34,3.58,5.17,1.84,10.64-5.89-4.9-3.58-5.17Z" style="fill:#813933; stroke-width:0px;"/><path d="m774.85,193.91c-1.77,14.51-20.11,12.48-15.5,25.43,23.27-15.9,11.09-10.1,7.55-1.19-.17.42,2.8.62,0,3.58-.93.08-.69-.5-.79-.79-2.35-6.58-11.07,9.41-7.95,14.3-.62,2.42-3.08,2.21-3.18,2.38,1.94-18.1-8.53-14.41-18.28-26.62,2.8.46,15.29,10.02,16.69,7.95.61-11.38-10.6-9.01-15.89-17.48-5.75-9.2-2.81-25.42,7.95-29.8,15.91-6.47,31.5,5.01,29.4,22.25Z" style="fill:#012227; stroke-width:0px;"/><path d="m766.9,221.73c-2.36,2.5-2.7,1.35-.79-.79.1.29-.14.88.79.79Z" style="fill:#664a21; stroke-width:0px;"/><path d="m767.3,190.74c6.81.4-4.94,16.26-7.95,15.89-.73-.09-3.35-5.02-4.77-4.77-1.07.19-4.48,12.98-13.91-6.75,5.58-4.13,11.81,9.23,19.47,4.37.5-.32,2.4-9.02,7.15-8.74Z" style="fill:#e5b56d; stroke-width:0px;"/><path d="m747.43,178.02c3.39-.3,4.23,1.74,5.96,4.37-8.44,4.43-4.12,8.98-8.34,8.34-4.92-.74-4.14-12.14,2.38-12.71Z" style="fill:#e5b56d; stroke-width:0px;"/><path d="m756.97,177.23c5.33-2.18,12.52,5.54,7.95,9.54-2.27,1.99-15.32-6.52-7.95-9.54Z" style="fill:#e5b56d; stroke-width:0px;"/><path d="m47.76,210.6c-1.12-.44-1.85-1.6-1.99-1.59-2.8.22-2.96,14.51,6.36,15.1-.17-12.05,6.42,11.5,4.37-7.15,6.73,3.61,8.57,1.12,9.14,1.59,1.66,1.39-1.52,8.19,1.99,8.74,1.02.16,5.64-5.96,15.1-1.59.19,1.33-.11,1.99,0,2.38.92,3.21,7.53,5.71,4.77,8.74-5.78-11.43-12.18-10.69-18.28,0-.71,1.24-3.9,8.27-3.97,8.74-.15,1.01.1,2.14,0,3.18q1.99,33.18,3.97,66.35c-2.7-7.93-8.77-40.56-7.15-13.11h-1.59c.16-15.55-2.42-31.29-3.18-46.88-.02-.32.87-4.17.79-6.36-.39-11.88-1.6-22.84-16.69-21.46-.84.14-1.79-.3-2.38-.79-.49-.41-4.15-9.96-5.56-11.52,9.92,14.11,10.38,3.04,6.36-3.58,4.6,1.43,3.06-9.02,7.95-.79Z" style="fill:#012227; stroke-width:0px;"/><path d="m63.65,189.94c-.85-.05-.49.7-1.59,1.59l-8.34-15.1q4.97,6.75,9.93,13.51Z" style="fill:#23371c; stroke-width:0px;"/><path d="m58.09,248.74c-3.91-4.36-7.26-9.09-11.12-13.51-2.18-2.49-5.95-4.01-5.56-7.95,15.08-1.38,16.3,9.58,16.69,21.46Z" style="fill:#792b47; stroke-width:0px;"/><path d="m47.76,210.6c8.11,3.19,8.25,6.09,8.74,6.36,2.05,18.66-4.54-4.9-4.37,7.15-9.32-.58-9.16-14.88-6.36-15.1.13-.01.86,1.15,1.99,1.59Z" style="fill:#e5b56d; stroke-width:0px;"/><path d="m62.06,191.53c1.1-.89.74-1.64,1.59-1.59,4.81,1.11,7.41-3.97,8.74-7.95l.79.79c-1.23,12.24,9.98,21.68,7.15,11.92h.79c.73,3.42,8.76-1.82,11.12-3.18v.79c-6.54,6.51-19.68,19.68-2.78,8.74,3.16,1.46-14.71,5.04,4.37,6.75l-9.54,1.59c.83,5.39,1.29,15.82-1.59,18.67-.11-.39.19-1.06,0-2.38-.69-4.79,3.69-19.5-4.37-17.48-.64.16-3.5,3.9-4.77,4.77-3.17,2.17-9.27-1.56-5.96,14.3-3.51-.55-.32-7.35-1.99-8.74-.57-.47-2.41,2.03-9.14-1.59-.49-.26-.63-3.16-8.74-6.36-4.89-8.23-3.34,2.22-7.95.79-2.79-4.58-16.96-.19-5.56-5.17-17.99-15.9,1.28.02,2.78.4,1.26.31,2.25.48,2.78-1.19,1.76-5.54-26.87-24.27-1.19-9.14-6.47-23.27-.25-5.33,5.56,3.97,6.75-11.47,2.66-.2,2.78.4.1.5,7.04,6.75,7.55,6.75,5.19.04.53-14.64-9.14-15.5,7.47-.01,5.71-3.23,3.18-10.33,2.47.02,3.14,6.05,3.97,7.15,8.65,11.54,8.97,3.24,9.54,2.78Z" style="fill:#03393f; stroke-width:0px;"/><path d="m71.2,193.12c5.01-1.77,5.57,15.26-2.38,13.51-5.93-1.31,1.64-13.25,2.38-13.51Z" style="fill:#e5b56d; stroke-width:0px;"/><path d="m14.39,201.86c.64,2.09,1.02,4.27,1.59,6.36.4,1.49,1.41,11.44,3.18,17.88,2.34,8.52,19.19,60.24,16.69,64.37-.99,1.62-4.15-1.25-4.37-1.19-1.54.41-1.08,3.02-1.19,3.18-2.25,3.14-3.06,6.57-4.77,9.93,2.06,12.66,11.52,41.83,2.38,35.36.15-1.71.09-2.4,0-3.97-1.09-19.99-19.73-61.9-27.81-82.64-.01-15.36-.01-30.73,0-46.09,7.96,1.79,15.52,11.64,11.12-4.77l3.18,1.59Z" style="fill:#331b31; stroke-width:0px;"/><path d="m207.48,454.55c.5-.1,1.07.04,1.59,0,.65,6.67-.76,8.69,7.15,8.74v1.59c-11.65-.01-23.31.01-34.96,0-20.2-18.31-40.44-50.94-43.7-77.87,13.12,15.37,27.12,38.18,42.51,50.86,2.92,2.41,25.25,17.1,27.41,16.69Z" style="fill:#4e1e36; stroke-width:0px;"/><path d="m203.51,323.44c-12.32,2.9-25.94,5.35-38.54,8.74-1.26-6.78-18.25-8.87-21.85-7.15-2.96,1.41-3.39,5.73-6.36,7.15-1.02-9.26-.72-18.53-.79-27.81,19.54-5.46,17.32,8.38,22.25,11.52,8.83,5.63,34.1-3.46,45.29,7.55Z" style="fill:#792b47; stroke-width:0px;"/><path d="m151.86,359.2c-.97-.09-.75.76-.79.79-2.22,2-6.07,3.73-6.36,3.97l-7.95-3.18c-.32-9.51.23-19.09,0-28.61,2.97-1.43,3.4-5.74,6.36-7.15,1.14,11.47,8.21,11.41,16.69,17.08q-7.15,3.97-14.3,7.95c1.97,3.15,4.23,6.09,6.36,9.14Z" style="fill:#792b47; stroke-width:0px;"/><path d="m484.81,400.52c8.53.05,13.39,22.63-17.48,15.1-6.34-1.54-9.73-4.63-10.33-4.77-1.83-2.46.05-3.34,0-3.97,11.82.93,26.2-6.37,27.81-6.36Z" style="fill:#012227; stroke-width:0px;"/><path d="m292.51,430.71c-4.46-5.93-8.55-12.14-12.71-18.28,9.3-3.4,18.75-.03,26.22,5.96q-6.75,6.16-13.51,12.32Z" style="fill:#4e1e36; stroke-width:0px;"/><path d="m417.26,458.53c2.73,3.34-3.72,2.62-6.36,6.36-13.24,0-26.49,0-39.73,0,4.24-6.62.29-2.88-3.18-7.95,8.76,2.46,39.68,3,49.27,1.59Z" style="fill:#622b45; stroke-width:0px;"/><path d="m417.26,458.53c-9.59,1.41-40.51.87-49.27-1.59-1.36-.38-4.27-.92-3.58-2.38,10.93.81,59.39-1.08,62.78,0,.42.13,1.59,1.37.79,1.59-3.63.32-7.15,1.86-10.73,2.38Z" style="fill:#151f2c; stroke-width:0px;"/><path d="m456.99,410.85c.6.14,4,3.22,10.33,4.77-.92,4.67,9.76,6.44-5.96,5.56-6.66-.37-21.33-1.27-21.85-8.74,1.6-.07,7.29-.82,6.36-2.38,6.36,3.16,9.04.31,11.12.79Z" style="fill:#792b47; stroke-width:0px;"/><path d="m484.81,396.55c-.22.4-.66,3.21,0,3.97-1.61,0-16,7.29-27.81,6.36-.11-1.26-1.6-.36-1.59-1.59,8.57-.61,12.42-10.83,21.85-7.15.8-1.05,2.39-1.85,2.78-3.18l4.77,1.59Z" style="fill:#792b47; stroke-width:0px;"/><path d="m747.83,315.49c2.02.87,4.78,1.2,5.17,1.59.8.81.16,1.98.4,2.38-4.08,4.79-10.43,9.77-14.3,14.3-1.67-7.9-2.96-1.58-4.37-1.59-3.46-.02-12.02-18.41-20.66,3.97-15.43-5.54-15.56-11.23-32.18-2.78l13.51,7.95c.18,1.1-8.21,6.6-8.74,6.75-5.74,1.72-12.99-4.98-36.16,13.51,20.72,8.23,33.48,8.49,51.25-4.77,1.53-1.14,9.31-4.97,9.54-6.75.22-1.79-5.81-6.28-3.58-7.55l22.65,3.18c-3.42,4.09-5.87,9.89-7.15,11.12-.64.61-12.68,7.14-15.1,9.14.32,8.11-.03,16.56-2.38,23.44-4.39,2.77-7.73,6.47-11.12,10.33-4.38,4.97-9.75,13.7-13.51,16.69-1.77,1.07-4.37,1.35-4.77,1.59q12.91-25.43,25.83-50.86c-9.73,13.93-17.53,29.52-27.41,43.31-22.89,31.95-1.2-8.87,5.56-19.07q-6.56-7.35-13.11-14.7c-9.83,7.92-21.48,32.3-14.7,1.99q-10.93,20.06-21.85,40.13c-3.59.5-5.49-23.74-12.71-8.74-18.49-11.32,2.88,7.99-9.14,25.83-.5.74-6.28,6.73-6.75,6.75-6.63.32,12.2-34.42-2.38-12.71-3.17-1.96,13.93-43.09,14.3-49.27-5.27,7.62-20.39,49.48-26.22,51.65-9.65,3.59-4.96-8.95-2.78-13.91-13.89-11.4-6.94-5.1-11.52-.4-.5.51-7.5,3.04-11.92,7.95l-16.29-21.85c.51-2.98,17.18-2.89-1.19-2.78-1.6-.59-1.78-5.8-4.77-4.77-3.91,1.35-38.72,61.49-46.49,68.34-8.74,0-17.48,0-26.22,0-1.93-3.36-20.46-3.77-23.84,0-10.6,0-21.19,0-31.79,0,2.64-3.73,9.09-3.01,6.36-6.36,3.58-.53,7.1-2.06,10.73-2.38.8-.22-.38-1.46-.79-1.59-3.39-1.08-51.85.81-62.78,0-.69,1.46,2.22,2,3.58,2.38,3.47,5.07,7.42,1.33,3.18,7.95-17.75,0-35.49,0-53.24,0-6.67-12.66-16.92-22.85-25.43-34.17q6.75-6.16,13.51-12.32c-7.47-5.99-16.92-9.36-26.22-5.96-7.97,2.91-4.87,5.08-19.07,2.78,1.9,8.16,12.25,31.4,3.58,31.39-2.02,0-3.36-8.41-12.71,1.59-8.62-6.31-49.3-66.56-48.08-71.12.73-2.71,10.45-1.5,11.12-2.38-12.22-10.83-33.06-37.5-11.92-5.56-2.48,4.26-9.92-8.37-10.33-3.97,6.68,11.77,26.06,51.36,29.4,60.79q-7.95.79-15.89,1.59c-7.85-10.48-13.43-21.86-14.7-22.25-2.03-.62-5.78,3.22-6.36,3.18-3.06-.24-16.17-24.77-18.67-28.61l11.12-2.78c-5.81-4.7-10.89-14.65-19.07-9.93-1.84-2.83-4.49-5.27-6.36-7.95-2.12-3.05-4.39-5.99-6.36-9.14q7.15-3.97,14.3-7.95c-8.48-5.67-15.55-5.61-16.69-17.08,3.6-1.72,20.6.37,21.85,7.15,12.6-3.39,26.22-5.84,38.54-8.74,11.64-.28,13.92,4.09,14.7,3.97,1.31-.19,2.88-4.64,3.18-4.77,1.37-.58,26.75-3.19,29.4-.79,1.79-5.19,13.18-6.24,19.47-7.95,6.29,12.73.37,11.69,18.28,28.21l-1.19,1.19c-29-14.28,9.26,7,10.73,16.29,2.16,13.68-14.22,6.58-21.85,5.17.11,9.26,5,8.72-1.99,14.3-11.05,8.83-16.89,2.29-20.26,3.18-5.08,1.34-4.05,16.39,22.65-1.59.24-.08.56.08.79,0,6.49,3.39,14.66,1.73,21.46,2.38,3.68.36,8.92,2.32,12.71,2.38-16.37,12.06-34.91,12.38-1.19,9.54,4,13.07,17.01,2.06,26.22,2.38-14.23,10.02,3.33,2.84,9.93,6.75-18.99,9.03-.17,5.31,23.44,7.55,8.91-12.72,6.38-2.59,9.54-1.59,1.45.46,6.87-2.56,7.95-2.38,1.04.17,2.29,3.87,5.56,3.97,1.49.04,33.05-9.18,21.85-11.12-.85-7.01,9.68,2.92,16.69-9.54,3.32,5.93,3.08,4.64,7.95,5.56.24.05-.46,1.24,4.77.79,0,2.46,3.96,8.46,11.12,7.95-.01,1.23,1.48.33,1.59,1.59.05.63-1.83,1.51,0,3.97-2.09-.48-4.77,2.36-11.12-.79-.19-.09.66-1.71-2.78-3.18-2.2-.93-19.02-6.97-19.87-6.36-1.02.74-5.52,12.81,16.29,11.92.52,7.47,15.19,8.37,21.85,8.74,15.72.87,5.04-.89,5.96-5.56,30.87,7.53,26.01-15.05,17.48-15.1-.66-.76-.22-3.58,0-3.97,2.37-4.32,9.01-4,9.54-5.96.38-1.43-2.75-3.42-2.38-5.56.13-.78,9.17-12.11,9.93-12.32.51-.14,9.88,2.11,10.33,2.38,2.71,1.63,5.96,11.52,8.74,14.3,12.16.69,21.58,5.5,11.52-6.36,1.09-.11,2.12-.51,3.18-.79,7.49,6.63,11.3,3.66,12.32,3.97,2.11.64,16.33,8.73,27.41,5.96-10.56-6.89-20.33-15.12-30.99-21.85-5.1-3.22-7.21-2.94-7.55-3.18-10.68-7.51,14.98,1.25,16.29,1.59,1.68,4.92,20.73,7.04,23.44,8.74,4.62,2.91.42,13.39,17.08,6.75l-8.74-9.93c12.13-2.18,24.44-19.24,22.65-19.87-17.6,18.43-22.11,7.76-3.18-10.33,35.4,5.39,62.39-10.65,28.61-19.07-5.54-1.38-25.8,1.3,0-12.71,8.83-4.8,15.5-5.21,16.29-5.56,13.05,2.94,26.86-2.58,40.92.79.5-1.16,1.24-2.19,1.99-3.18,3.7-.55,1.62,4.74,2.78,5.56,5.39,3.82,19.23-3.46,24.63-3.18,1.47.08,25.53,7.58,28.21,8.74Z" style="fill:#a03b55; stroke-width:0px;"/><path d="m466.53,464.88c-7.95,0-15.89,0-23.84,0,3.38-3.77,21.91-3.36,23.84,0Z" style="fill:#201d2a; stroke-width:0px;"/><path d="m242.05,394.16c3.28-.8,19.58,7.23,23.44,9.93-13.83,9.2-23.41,13.81-37.35,1.59,2.46-1.26,13.03-11.31,13.91-11.52Z" style="fill:#4e1e36; stroke-width:0px;"/><path d="m244.43,344.1c9.91-.96,36.89,9.48,10.33,11.92-9.72.89-23.39-2.55-22.65-5.96.23-1.06,9.46-5.68,12.32-5.96Z" style="fill:#0b1d26; stroke-width:0px;"/><path d="m584.93,374.3l8.74,9.93c-16.67,6.63-12.46-3.85-17.08-6.75-2.71-1.71-21.76-3.82-23.44-8.74,8.54,2.23,24,6.96,31.79,5.56Z" style="fill:#792b47; stroke-width:0px;"/><path d="m445.87,410.05c.94,1.56-4.76,2.32-6.36,2.38-21.81.89-17.31-11.18-16.29-11.92.85-.61,17.67,5.42,19.87,6.36,3.45,1.46,2.59,3.08,2.78,3.18Z" style="fill:#0b1d26; stroke-width:0px;"/><path d="m464.54,434.69c14.27-.74,14.29,9.96-1.59,8.74-15.67-1.2-9.59-8.16,1.59-8.74Z" style="fill:#0b1d26; stroke-width:0px;"/><path d="m504.27,384.63c32.1,24,3.72,16.7,0,10.33-1.41-2.41,2.14-7.93-.79-8.74-.88-.24-16.03,9.27.79-1.59Z" style="fill:#0b1d26; stroke-width:0px;"/><path d="m166.16,379.86c-2.72-4.17-5.21-8.52-7.95-12.71,8.18-4.72,13.27,5.23,19.07,9.93l-11.12,2.78Z" style="fill:#4e1e36; stroke-width:0px;"/><path d="m276.61,380.65c-26.7,17.98-27.73,2.92-22.65,1.59,3.37-.89,9.21,5.66,20.26-3.18l2.38,1.59Z" style="fill:#4e1e36; stroke-width:0px;"/><path d="m479.64,425.95c19.33-3.66,16.23,16.9-5.17,2.78.06-.63,4.49-2.65,5.17-2.78Z" style="fill:#0b1d26; stroke-width:0px;"/><path d="m354.09,442.63c3.5-.39,23.08,8.1-5.56,5.56l-1.19-1.19c1.8-.78,5.44-4.22,6.75-4.37Z" style="fill:#4e1e36; stroke-width:0px;"/><path d="m492.36,398.13c2.14-1.26,12.76,3.24,15.5,4.37-1.39.66-21.74-.68-15.5-4.37Z" style="fill:#622b45; stroke-width:0px;"/><path d="m383.49,415.62c4.77-.4,14.64,5.43-3.18,2.38-.76-.38,2.98-2.37,3.18-2.38Z" style="fill:#792b47; stroke-width:0px;"/><path d="m405.74,418c3.77-.69,5.24.82,8.34,1.99-.18,1.17-16.42-.52-8.34-1.99Z" style="fill:#792b47; stroke-width:0px;"/><path d="m161.39,379.06c8.71,16.4,18.95,41.4,20.66,44.1,4.77,7.53,20.75,18.67,25.43,31.39-2.16.41-24.49-14.28-27.41-16.69-15.39-12.68-29.4-35.49-42.51-50.86-.6-4.97-.59-9.36-.79-14.3,7.57,3.95,16.22,5.1,24.63,6.36Z" style="fill:#a03b55; stroke-width:0px;"/><path d="m124.04,330.59c-.07,5.59-.2,37.46-.79,39.33-1.32,4.16-4.8-5.6-5.56-6.75.43-3.48-5.83-18.83-8.74-19.87,2.93-2.45,3.21-9.74,2.38-13.51l7.55-12.71c2.15,5.44,2.43,13.47,5.17,13.51Z" style="fill:#792b47; stroke-width:0px;"/><path d="m104.18,317.88c1.93,2.54,6.62,9.51,7.15,11.92.83,3.77.55,11.06-2.38,13.51-.85-.3-3.19.2-4.77,0-4.37-6.47-9.83-12.43-12.71-19.87,1.72-.87,5.22-3.53,6.36-3.97,2.01-.78,4.23-1.2,6.36-1.59Z" style="fill:#4e1e36; stroke-width:0px;"/><path d="m62.06,301.98c.12,2.1,2.89,23.8,3.18,25.03.14.59,1.05.4,1.59.4-5.71,2.46,1.46,20.08-7.15,9.54-3.61-4.42-5.22-20.29-7.95-26.22,9.18-4.89,8.53,11.82,8.74-8.74h1.59Z" style="fill:#4e1e36; stroke-width:0px;"/><path d="m161.39,379.06c-8.42-1.26-17.06-2.41-24.63-6.36-.02-.53.02-1.06,0-1.59,3.18-.47,5.92-5.42,7.95-7.15.29-.24,4.14-1.97,6.36-3.97,3.88,6.14,6.94,12.68,10.33,19.07Z" style="fill:#4e1e36; stroke-width:0px;"/><path d="m124.04,330.59c-2.73-.04-3.01-8.07-5.17-13.51l-7.55,12.71c-.53-2.41-5.22-9.38-7.15-11.92.13-.02.55-1.94,1.99-1.59,1.17.29,2.19,3.22,2.38,3.18.22-.04,1-4.84,3.18-3.18,2.87,2.2-3.4,7.95,11.52-4.77.17,6.37.88,12.61.79,19.07Z" style="fill:#a03b55; stroke-width:0px;"/><path d="m144.7,363.97c-2.03,1.73-4.76,6.68-7.95,7.15-.13-3.43.11-6.89,0-10.33l7.95,3.18Z" style="fill:#a03b55; stroke-width:0px;"/><path d="m170.93,88.23c-1.8,7.1-4.32,14.36-6.36,21.46-2.81,9.78-5.85,19.63-8.74,29.4-2.88,9.75-3.57,17.81-7.95,27.81-.56,1.28-4.87,5.92-6.36,7.55,2.87,28.29-5.84,39.84-6.36,43.7-2.35,17.43,4.5,7.48,7.95-.79,2.26-5.44,7.2-26.62,11.92-40.92,3.52-10.67,6.19-20.76,11.12-30.99,3.52-7.3,7.84-13.94,12.32-20.66-6.08,19.52-19.83,33.48,3.97,13.51,1.41-.24,1.12.77,1.19.79q-8.34,8.54-16.69,17.08c-.94,8.22,1.99,19.62,2.38,25.03.04.56-1.87,5.74-.4,11.12,13.35-8.96,5.08-2.65,1.19,4.37-3.7,6.68-6.29,14.14-10.33,20.66-7.17,11.56-21.56,24.89-23.84,38.54-2.27,13.64-.11,33.82,0,48.47.07,9.29-.22,18.55.79,27.81.23,9.52-.32,19.09,0,28.61.11,3.44-.13,6.9,0,10.33.02.53-.02,1.06,0,1.59.21,4.94.19,9.33.79,14.3,3.26,26.93,23.5,59.57,43.7,77.87-60.39-.07-120.78.05-181.18,0-.05-30.46.07-60.92,0-91.38,9.13,7.43,17.17,24.22,23.84,35.36.31.51-2.5,2.41,5.96,9.14,2-1.45-13.62-27.61-15.5-32.18-5.02-12.26-6.68-14.14,8.34-17.08-1.96-3.37.2-9.85,3.18-9.54,2.7.29,4.46,17.56,10.33,11.12,18.46,23.65,11.23,9.76,1.19-9.93,6.66-4.7,4.28-14.58,14.3-15.89-1.2-11.76,7.62,8.71,7.95-7.55,8.61,10.54,1.44-7.07,7.15-9.54,6.58-2.84,2.55,3.61,5.17,3.97,1.5.21,1.72-6.56,6.36.79,1.24-3.48,8.35-6.69,12.32-8.74.21-.11.58.11.79,0,2.88,7.43,8.34,13.39,12.71,19.87,4.48,6.63,9.08,13.21,13.51,19.87.77,1.15,4.24,10.92,5.56,6.75.59-1.88.72-33.74.79-39.33.08-6.46-.63-12.7-.79-19.07-.41-15.54,1.87-31.46-4.77-46.49-1.02-11.43,2.8-15.37,4.77-23.44,2.88-11.83,6.42-16.27.79-38.54-.91-3.58-2.74-7.24-3.97-10.73-7.53-21.28-23.28-37.15-29.4-58.8.53,1.36,12.71,20.43,13.51,18.67-4.34-13.62-22.63-47.52-11.52-32.18,2.92-2.58-.5-8.26-.4-16.69,3.79,10.43,7.68,20.73,11.92,30.99,11.47,27.77,8.07,22.11,6.36-1.59-1.03-14.2.79-2.53,3.58-2.38,5.99.32-1.95-39,5.17-15.5,2.05,1.49,3.89-24.5,3.97-26.62.51.06,1.18-.12,1.59,0,1.53.44,2.63,1.64,2.78,1.59,2.05-.72,4.23-18.01,2.78,7.55-.41,7.15-2.45,14.73-3.18,21.85-.38,3.69-1,7.26-2.38,10.73,16.09,36.4,12.94,7.65,11.12-10.73-.18-1.79-1.83-4.3,0-3.58l5.56,11.92c1.8-11.54,6.14-37.03,5.56-9.93-.08,3.59-1.04,9.71-1.59,13.51-2.11,14.5-10.84,34.72-5.17,31.79,1.5-.78,10.55-28.12,11.52-31.79,1.29-4.84,2.21-9.4,3.18-14.3,1.54-7.81,2.68-15.51,3.18-23.44q.2,10.13.4,20.26l13.91-38.54c1.41,1.62-.74,9.76-1.59,13.11Z" style="fill:#012227; stroke-width:0px;"/><path d="m162.58,166.9c3.04,21.96,3.74,28.14-9.54,46.88,2.48-15.81,4.29-31.72,9.54-46.88Z" style="fill:#e5b56d; stroke-width:0px;"/><path d="m151.86,131.14c-.98,3.66-10.02,31.01-11.52,31.79-5.67,2.93,3.06-17.29,5.17-31.79h6.36Z" style="fill:#665f56; stroke-width:0px;"/><path d="m130.8,156.57c3.36-.28,3.14,30.74,2.38,34.17-7.61-5.96-3.34-24.32-2.38-34.17Z" style="fill:#956a58; stroke-width:0px;"/><path d="m120.47,129.55c4.94,1.44,5.73,27.11,2.38,31.79-.06-4.17-5.54-28.33-5.17-29.8.09-.34,2.62-2.03,2.78-1.99Z" style="fill:#665f56; stroke-width:0px;"/><path d="m110.54,132.73c1.71,23.69,5.12,29.36-6.36,1.59l6.36-1.59Z" style="fill:#5e5149; stroke-width:0px;"/><path d="m96.63,347.28c10.83,19.9,23.28,41.12,30.59,63.17,1.49,14.14-9.3-6.17-14.3-16.69-2.23-4.7-17.46-41.35-17.48-43.7-.01-1.4-.05-1.87,1.19-2.78Z" style="fill:#331b31; stroke-width:0px;"/><path d="m108.95,343.31c2.91,1.03,9.18,16.39,8.74,19.87-4.43-6.65-9.03-13.23-13.51-19.87,1.58.2,3.92-.3,4.77,0Z" style="fill:#792b47; stroke-width:0px;"/><path d="m110.93,409.26c12.79,12.44,4.52,13.08.4,3.58-.35-.8-1.41-3.02-.4-3.58Z" style="fill:#201d2a; stroke-width:0px;"/><path d="m11.6,410.05c3.54,7.43-.8,10.61-.4.4l.4-.4Z" style="fill:#151f2c; stroke-width:0px;"/><path d="m14.78,424.36c3.36,7.02-1.02,9.3-.4.4l.4-.4Z" style="fill:#0b1d26; stroke-width:0px;"/><path d="m25.11,376.68l.4.4v.79l-.4.4h-.79l-.4-.4.4-.4.4-.4.4-.4Z" style="fill:#201d2a; stroke-width:0px;"/><path d="m686.64,243.98c-.68,1.85-22.04,29.72-23.84,31.39-2.97,2.75-.49-2.98.79-5.96,1.8-4.16,4.67-8.32,6.36-12.71.84-2.2,2.82-5.97.79-7.15,3.77-1.25,5.18-5.96,7.15-8.74,3.68,6.14,4.03.85,8.74,3.18Z" style="fill:#f7d896; stroke-width:0px;"/><path d="m669.96,256.69c-1.69,4.4-4.56,8.55-6.36,12.71v-.79c1.96-4.03,1.77-5.8,2.38-9.54l3.97-2.38Z" style="fill:#391f16; stroke-width:0px;"/><path d="m279.79,412.44c4.16,6.13,8.26,12.35,12.71,18.28,8.5,11.32,18.76,21.51,25.43,34.17-2.12,0-4.24,0-6.36,0-25.7-27.65-37.29-40.03-15.1,0-26.75-.02-53.51.03-80.26,0v-1.59c10.02.06,3.47-3.66-6.75-15.1-2.79.38-.51,5.21-.4,6.36-.52.04-1.09-.1-1.59,0-4.68-12.72-20.66-23.86-25.43-31.39-1.71-2.7-11.95-27.71-20.66-44.1-3.39-6.39-6.45-12.94-10.33-19.07.04-.04-.17-.88.79-.79,1.86,2.68,4.51,5.12,6.36,7.95,2.73,4.19,5.22,8.54,7.95,12.71,2.51,3.84,15.61,28.37,18.67,28.61.57.04,4.33-3.8,6.36-3.18,1.27.39,6.85,11.77,14.7,22.25,1.12,1.49,4.52,9.61,11.52,13.51.36-2.06,6.67-8.58,6.75-9.14.19-1.25-1.49-3.45-2.38-5.96-3.34-9.43-22.72-49.02-29.4-60.79.41-4.4,7.85,8.23,10.33,3.97-21.14-31.94-.3-5.27,11.92,5.56-.68.89-10.4-.33-11.12,2.38-1.23,4.56,39.46,64.81,48.08,71.12,9.35-10,10.69-1.59,12.71-1.59,8.68,0-1.68-23.22-3.58-31.39,14.2,2.3,11.1.13,19.07-2.78Z" style="fill:#012227; stroke-width:0px;"/><path d="m311.58,464.88c-5.03,0-10.07,0-15.1,0-22.19-40.03-10.61-27.65,15.1,0Z" style="fill:#4e1e36; stroke-width:0px;"/><path d="m205.89,427.54q7.95-.79,15.89-1.59c.89,2.51,2.58,4.71,2.38,5.96-.09.56-6.39,7.08-6.75,9.14-7-3.9-10.4-12.01-11.52-13.51Z" style="fill:#4e1e36; stroke-width:0px;"/><path d="m216.22,463.29c-7.92-.05-6.51-2.07-7.15-8.74-.11-1.15-2.4-5.97.4-6.36,10.23,11.44,16.77,15.16,6.75,15.1Z" style="fill:#a03b55; stroke-width:0px;"/><path d="m39.02,226.49c.59.49,1.55.94,2.38.79-.39,3.94,3.38,5.45,5.56,7.95l10.33,19.87c.76,15.59,3.34,31.33,3.18,46.88-.21,20.56.44,3.85-8.74,8.74-6.3-13.68-6.45-3.82-11.12-5.17,5.22,41.46-2.95,2.45-10.33-13.11.12-.16-.35-2.76,1.19-3.18.22-.06,3.38,2.82,4.37,1.19,2.5-4.12-14.34-55.85-16.69-64.37-1.77-6.44-2.77-16.39-3.18-17.88,7.66-4.4,4.73.29,8.74,4.37,3.31,3.37,6.15,3.94,7.15,5.56,2.38,3.86,1.33,18.03,7.15,8.34Z" style="fill:#792b47; stroke-width:0px;"/><path d="m27.89,333.77c-4.9,4.65-9.06-15.1-11.52-5.56-6.66-11.19-4.24,2.02-1.99,5.17,2.57,3.59,6.02-1.61,11.52,13.11,1.68.07,1.88-7.52,1.99-8.74,9.13,6.47-.32-22.7-2.38-35.36,1.71-3.36,2.52-6.8,4.77-9.93,7.38,15.56,15.55,54.57,10.33,13.11,4.67,1.34,4.83-8.52,11.12,5.17,2.73,5.93,4.34,21.81,7.95,26.22-.33,16.26-9.14-4.21-7.95,7.55-10.02,1.32-7.64,11.2-14.3,15.89,10.03,19.69,17.26,33.59-1.19,9.93-5.87,6.44-7.64-10.84-10.33-11.12-2.98-.32-5.14,6.16-3.18,9.54-15.03,2.94-13.36,4.83-8.34,17.08,1.87,4.57,17.5,30.74,15.5,32.18-8.45-6.73-5.65-8.63-5.96-9.14-6.67-11.14-14.7-27.93-23.84-35.36-.07-30.46.03-60.92,0-91.38l7.95,15.5c-.93-11.46-3.21-23.18-7.95-33.77,0-4.24,0-8.48,0-12.71,8.08,20.74,26.73,62.66,27.81,82.64Z" style="fill:#4e1e36; stroke-width:0px;"/><path d="m.08,282.12c0-6.09,0-12.18,0-18.28,4.74,10.59,7.02,22.31,7.95,33.77L.08,282.12Z" style="fill:#331b31; stroke-width:0px;"/><path d="m27.89,333.77c.09,1.58.15,2.27,0,3.97-.11,1.22-.31,8.82-1.99,8.74-5.51-14.72-8.95-9.52-11.52-13.11-2.25-3.15-4.67-16.35,1.99-5.17,2.46-9.54,6.62,10.21,11.52,5.56Z" style="fill:#792b47; stroke-width:0px;"/><path d="m2.86,354.43c.42-.21,8.65,3.75,8.34,4.37-.17.34-6.41,3.73-6.75,3.58-.49-.22-2.11-7.69-1.59-7.95Z" style="fill:#0b1d26; stroke-width:0px;"/><path d="m29.09,344.89c14.37,18.28.46,5.99-.4,1.99-.12-.54-.17-1.74.4-1.99Z" style="fill:#7a3b59; stroke-width:0px;"/><path d="m670.75,249.54c2.03,1.19.05,4.95-.79,7.15l-3.97,2.38c.37-2.25-.44-6.06,0-7.55.23-.79,2.32-1.85,2.38-1.99.76-.11,1.83.18,2.38,0Z" style="fill:#a45b5c; stroke-width:0px;"/><path d="m763.72,307.55c-4.9,1.68-.94-5.2-3.58-5.56-.91-.13-11.21,11.56-12.32,13.51-2.68-1.16-26.73-8.66-28.21-8.74-5.41-.28-19.24,7-24.63,3.18-1.16-.82.92-6.12-2.78-5.56,1.61-2.13,7-13.76,14.7-19.87-.76,4.94-14.84,17.2-11.92,19.07,15.12-16.34,29.41-3.78,36.55-4.77.9-.12,7.75-6.96,8.74-7.15,4.3-.82,17.56,6.97,19.87,7.15,5.62.43,7.77-4.7,12.71-4.77-4.13,6.44-7.09,5.27-9.14,13.51Z" style="fill:#792b47; stroke-width:0px;"/><path d="m739.09,333.77c-2.77,3.24-2.24,3.79-2.38,3.97-2.13,2.63-4.21,5.38-6.36,7.95l-22.65-3.18c-2.23,1.27,3.8,5.76,3.58,7.55-.22,1.79-8.01,5.62-9.54,6.75q-7.55-4.37-15.1-8.74c.53-.16,8.93-5.65,8.74-6.75l-13.51-7.95c16.62-8.45,16.75-2.76,32.18,2.78,8.64-22.38,17.2-4,20.66-3.97,1.41,0,2.7-6.31,4.37,1.59Z" style="fill:#4e1e36; stroke-width:0px;"/><path d="m686.64,348.07q7.55,4.37,15.1,8.74c-17.78,13.25-30.54,13-51.25,4.77,23.16-18.48,30.41-11.79,36.16-13.51Z" style="fill:#012227; stroke-width:0px;"/><path d="m535.66,382.24c12.26-3.24-1.04-4.06,0-7.55.66-2.21,9.11-1.48,8.74-4.37,10.66,6.73,20.43,14.96,30.99,21.85-11.09,2.77-25.31-5.32-27.41-5.96-1.01-.31-4.83,2.66-12.32-3.97Z" style="fill:#622b45; stroke-width:0px;"/><path d="m763.72,307.55c-.58,2.33.09,9.07,0,9.54-1.63,8.5-9.14,7.51-10.33,5.17-.28-.55.27-2.33,0-2.78-.24-.4.4-1.57-.4-2.38-.38-.39-3.15-.72-5.17-1.59,1.11-1.95,11.41-13.63,12.32-13.51,2.63.36-1.33,7.24,3.58,5.56Z" style="fill:#792b47; stroke-width:0px;"/><path d="m813.78,205.04c0,2.12,0,4.24,0,6.36-11.7,18.39-6.93,44.52-19.07,63.17,1.55,40.88,5.82.58,7.95-15.1,3.83-3.2,1.58,7.48,11.12-4.37-.02,29.4.05,58.8,0,88.2h-.79c-1.98-9.53.67-25.82-1.99-26.22q-11.12,19.47-22.25,38.94c-.16-10.12,10.12-37.46-7.95-31.79-.4-3.28-2.07-2.79-2.78-3.97,10.99-9.32-13.05-16.66-4.77-.79-4.97-.27-5.51-1.74-9.54-2.38.09-.47-.58-7.21,0-9.54,2.05-8.24,5.01-7.07,9.14-13.51-4.95.07-7.09,5.2-12.71,4.77-2.31-.18-15.56-7.97-19.87-7.15-.99.19-7.85,7.03-8.74,7.15-7.14.99-21.43-11.57-36.55,4.77-2.92-1.87,11.15-14.13,11.92-19.07-7.7,6.11-13.09,17.73-14.7,19.87-.75.99-1.49,2.02-1.99,3.18-14.06-3.38-27.87,2.15-40.92-.79,29.29-13.05,22.19-12.86,36.16-22.25,7.61-5.11,15.96-6.13,22.65-13.11,15.76-16.47-11.23,6.94-14.3,3.18-.96-1.17,11.12-24.41,12.71-27.41,5.84-10.98,8.22-12.66-1.59-1.59-18.67,21.06-27.07,41.58-50.06,43.31.06-8.08-.08-16.16,0-24.24,11.29-4.25,7.45-10.91,8.74,3.97v.79c-1.29,2.98-3.77,8.71-.79,5.96,1.8-1.67,23.16-29.54,23.84-31.39.03-.08,1.09.27.79-1.59,6.78-6.97,9.6-19.3,21.85-15.1,14.53,4.98,8.61,45.61,15.89,20.66,5.51,7.09,1.55,8.65,1.99,10.73.08.39,4.95,5.27,5.96,5.17,1.72-.18,19.92-23.02,21.85-26.22.1-.17,2.55.04,3.18-2.38,9-.76,8.52.92,11.12,7.95-14.44,17.95-16.3,26.24,1.59,3.97,10.05-12.5,11.97-22.76,19.87-18.28.22,1.43,2.54,5.43,3.97,3.97,1.22-1.24,11.74-27.52,19.07-27.81Z" style="fill:#792b47; stroke-width:0px;"/><path d="m813.78,345.69c-1.32.02-.58-1.33-.79-2.38h.79c0,.79,0,1.59,0,2.38Z" style="fill:#622b45; stroke-width:0px;"/><path d="m778.02,320.26c-.74-1.24-.61-4.5-1.19-4.77l-2.78,5.17c-1.07,1.09-.72-1.19-.79-1.19-8.28-15.86,15.76-8.53,4.77.79Z" style="fill:#a03b55; stroke-width:0px;"/><path d="m794.31,236.82c7.08,7.72,10.66,11.59,0,18.28-.53.33-.09-5-9.54,4.77q4.77-11.52,9.54-23.04Z" style="fill:#331b31; stroke-width:0px;"/><path d="m770.87,247.15c-17.89,22.27-16.03,13.98-1.59-3.97.07.2,1.2.93,1.59,3.97Z" style="fill:#331b31; stroke-width:0px;"/><path d="m799.88,298.01c2.13-.24.57,2.44,1.59,3.18.93.68,7.7-9.59-.79,7.15l-.79-10.33Z" style="fill:#792b47; stroke-width:0px;"/><path d="m706.51,247.15l-1.59-1.59c9.81-11.07,7.43-9.39,1.59,1.59Z" style="fill:#201d2a; stroke-width:0px;"/><path d="m813.78,255.1c-9.54,11.85-7.29,1.17-11.12,4.37-2.13,15.68-6.39,55.98-7.95,15.1,12.14-18.65,7.37-44.78,19.07-63.17.01,14.57.01,29.14,0,43.7Z" style="fill:#331b31; stroke-width:0px;"/><path d="m723.2,356.81c1.28-1.23,3.73-7.04,7.15-11.12,2.15-2.57,4.23-5.32,6.36-7.95,1.84,1.99-2.71,14.82-3.58,15.1-2.71-5.54-10.06,13.18-9.93,3.97Z" style="fill:#4e1e36; stroke-width:0px;"/><path d="m778.02,320.26c.71,1.18,2.38.7,2.78,3.97,18.07-5.67,7.79,21.66,7.95,31.79q11.12-19.47,22.25-38.94c2.65.4,0,16.7,1.99,26.22.22,1.06-.52,2.41.79,2.38-.08,39.73.06,79.46,0,119.19-62.78.05-125.55-.06-188.33,0,4.18-5.22,9.5-12.15,16.69-18.28,2.74,9.18,15.48-12.29,17.08-11.12,1.26.92-.87,4.63,1.59,4.77,1.6.09,21.35-22.12,20.26-23.84,3.76-2.98,9.13-11.71,13.51-16.69q-.6,5.17-1.19,10.33c3.73-7,9.71-13.03,12.32-20.66,2.35-6.89,2.71-15.33,2.38-23.44,2.42-2,14.46-8.53,15.1-9.14-.13,9.21,7.22-9.52,9.93-3.97.87-.28,5.41-13.11,3.58-15.1.15-.18-.39-.73,2.38-3.97,3.87-4.53,10.23-9.52,14.3-14.3.27.46-.28,2.24,0,2.78,1.19,2.35,8.7,3.33,10.33-5.17,4.02.65,4.57,2.11,9.54,2.38.07,0-.27,2.28.79,1.19l2.78-5.17c.58.27.45,3.52,1.19,4.77Z" style="fill:#012227; stroke-width:0px;"/><path d="m694.59,399.72c3.4-3.86,6.73-7.56,11.12-10.33-2.6,7.63-8.59,13.66-12.32,20.66q.6-5.17,1.19-10.33Z" style="fill:#331b31; stroke-width:0px;"/><path d="m801.47,350.46c6.94-.32-17.73,56.74-20.66,60.39-2.66-3.59.53-2.8,1.19-5.17,5.35-19.17,17.09-42.89,17.48-45.29,2.15-13.04-10.19,16.86-17.48,27.02-2.41-4.84,5.97-15.25,9.54-21.46.04-.08-1.25-.81-.79-1.59.31-.54,4.84-4.39,6.36-10.33,3.52-3.49,1.99,1.96,4.37-3.58Z" style="fill:#331b31; stroke-width:0px;"/><path d="m693.4,417.21c10.6-.13-14.04,30.35-19.87,30.99,3.07-5.94,8.01-10.61,11.52-16.29,2.01-3.25,4.51-14.65,8.34-14.7Z" style="fill:#331b31; stroke-width:0px;"/><path d="m722.8,391.78c.34.47,1.13.92,1.19,1.19.84,3.78-5.17,14.48-1.19-1.19Z" style="fill:#0b1d26; stroke-width:0px;"/><path d="m555.53,464.88c-9.27,0-18.54,0-27.81,0,7.27-10.79,15.32-20.37,20.26-32.58-6.31,28.72-6.53,20.93,11.92,3.18l-2.38,22.25c39.42-32.92,23.78-16.44-1.99,7.15Z" style="fill:#331b31; stroke-width:0px;"/><path d="m606.38,464.88c-9.01,0-18.01,0-27.02,0,4.61-4.09,31.07-22.67,33.77-23.04,7.1-.98-3.46,6.88,1.59,5.56,1.31-.34,16.52-16.24,20.66-17.48,3.4,2.01-25.59,33.45-29,34.96Z" style="fill:#4e1e36; stroke-width:0px;"/><path d="m523.74,445.02c-6.21,11.35,1.95-.83,6.36,1.99q-7.95,8.94-15.89,17.88c-4.5,0-9.01,0-13.51,0,5.04-9.28,15.08-15.21,21.46-23.04,1.29,1.69-1.38,3.37,1.59,3.18Z" style="fill:#4e1e36; stroke-width:0px;"/><path d="m642.14,446.61c-1.14-3.81,10.46-14.94,13.91-17.48,6.03-4.45,14.46-7.61,20.26-11.12.4-.24,3-.52,4.77-1.59,1.09,1.72-18.67,23.93-20.26,23.84-2.46-.14-.32-3.84-1.59-4.77-1.6-1.17-14.35,20.3-17.08,11.12Z" style="fill:#4e1e36; stroke-width:0px;"/><path d="m676.31,418c-5.8,3.52-14.23,6.68-20.26,11.12-3.45,2.54-15.04,13.67-13.91,17.48-7.18,6.13-12.5,13.05-16.69,18.28-6.36,0-12.71,0-19.07,0,3.42-1.52,32.4-32.95,29-34.96-4.14,1.24-19.35,17.14-20.66,17.48-5.05,1.32,5.51-6.54-1.59-5.56-2.7.37-29.17,18.95-33.77,23.04-7.95,0-15.89,0-23.84,0,25.77-23.59,41.4-40.07,1.99-7.15l2.38-22.25c-18.45,17.75-18.23,25.54-11.92-3.18-4.94,12.21-12.99,21.79-20.26,32.58-4.5,0-9.01,0-13.51,0q7.95-8.94,15.89-17.88c-4.41-2.82-12.57,9.36-6.36-1.99,2.29-4.19,18.23-27.07,16.69-29.8-7.47,6.68-11.46,18.24-18.28,26.62-6.38,7.83-16.41,13.76-21.46,23.04-2.65,0-5.3,0-7.95,0,7.77-6.84,42.58-66.99,46.49-68.34,2.99-1.03,3.17,4.18,4.77,4.77,18.37-.11,1.7-.19,1.19,2.78l16.29,21.85c4.42-4.9,11.42-7.43,11.92-7.95,4.58-4.7-2.36-11,11.52.4-2.18,4.96-6.87,17.49,2.78,13.91,5.83-2.17,20.95-44.03,26.22-51.65-.37,6.17-17.47,47.31-14.3,49.27,14.58-21.71-4.24,13.03,2.38,12.71.48-.02,6.26-6.02,6.75-6.75,12.01-17.84-9.35-37.15,9.14-25.83,7.22-15,9.13,9.25,12.71,8.74q10.93-20.06,21.85-40.13c-6.78,30.31,4.87,5.93,14.7-1.99q6.56,7.35,13.11,14.7c-6.77,10.2-28.46,51.02-5.56,19.07,9.88-13.79,17.69-29.38,27.41-43.31q-12.91,25.43-25.83,50.86Z" style="fill:#012227; stroke-width:0px;"/><path d="m523.74,445.02c-2.97.19-.3-1.49-1.59-3.18,6.82-8.38,10.81-19.94,18.28-26.62,1.55,2.73-14.4,25.61-16.69,29.8Z" style="fill:#792b47; stroke-width:0px;"/><path d="m598.84,443.43c4.88.36-11.67,11.86-12.71,11.92-4.97.27,2.17-12.69,12.71-11.92Z" style="fill:#4e1e36; stroke-width:0px;"/><path d="m656.05,394.16l1.19.4c-3.92,8.08-5.93,7.47-1.19-.4Z" style="fill:#201d2a; stroke-width:0px;"/><path d="m601.62,270.99c-8.57,2.72-13.03,20.08-23.84,31.79-4.47-9.75-16.4,2.08-21.46,6.75-.38.35,3.1.8-5.56,5.96-3.84,1.54-8.9,2.39-12.32,4.77-3.49,2.43-8.36,11.23-12.71,14.3-2.07-1.09,6.4-11.2,9.14-15.1q6.75-6.75,13.51-13.51c.21-.13,1.04,1.1,2.78,0,2.98-1.89,6.67-6.38,10.33-7.95,3.13-2.32,1.72-3.15,3.58-6.36,25.66-2.25,15.47-21.79,36.95-24.63,2.64,1.72-.33,3.74-.4,3.97Z" style="fill:#792b47; stroke-width:0px;"/><path d="m646.91,238.41c2.68,6.15,3.32,10.03,3.18,16.69-7.35,1.13-12.43,13.74-12.71,21.85-26.15,33.08,4.07,2.74,4.77.79.42-1.17-.46-6.99,1.19-9.93,1.74,7.27,3.47,7.52,3.58,7.95,1.22,4.77.75,9.11.79,13.91-10.31,6.3-18.32,15.43-27.81,22.65q-9.54-1.19-19.07-2.38c13.47-21.3,12.12-18.34-3.97-.79-1.87-2.69-7.89-3.18-11.12-3.18,4.25-9.33,8.34-18.52,12.71-27.81,2.42,1.3,4.66,2.79,7.15,3.97.14.07-.36,1.88,1.99,2.38,10.58,2.29,5.75-10.53,1.99-8.74,9.33-17.01,21.71-46.89,37.35-37.35Z" style="fill:#792b47; stroke-width:0px;"/><path d="m605.59,282.12c1.25-2.11,2.8-4.22,3.97-6.36,3.76-1.79,8.59,11.03-1.99,8.74-2.34-.51-1.85-2.32-1.99-2.38Z" style="fill:#4e1e36; stroke-width:0px;"/><path d="m619.89,312.31c-9.86,7.5-14.53,10.81-27.41,14.3-3.75-1.31,5.04-11.47,8.34-16.69q9.54,1.19,19.07,2.38Z" style="fill:#a03b55; stroke-width:0px;"/><path d="m650.09,255.1c-.14,6.41-2.46,14.16-3.18,20.66-.11-.42-1.84-.68-3.58-7.95-1.65,2.94-.77,8.76-1.19,9.93-.7,1.94-30.92,32.29-4.77-.79.28-8.11,5.37-20.72,12.71-21.85Z" style="fill:#e5b56d; stroke-width:0px;"/><path d="m596.85,309.14c-2.87,3.13-16.34,19.09-19.47,19.07-6-.03,2.81-10.1,8.34-22.25,3.24,0,9.25.48,11.12,3.18Z" style="fill:#a03b55; stroke-width:0px;"/><path d="m577.78,302.78c-.24.26.25,1.69-4.37,5.56-7.63,1.89-15.36,4.23-22.65,7.15,8.67-5.16,5.19-5.61,5.56-5.96,5.05-4.68,16.98-16.5,21.46-6.75Z" style="fill:#a03b55; stroke-width:0px;"/><path d="m240.06,278.15c2.01-2.14,2.42-3.53,3.97-5.56,4.59-5.99,7.46-13.12,17.08-11.12,5.56,1.15,20.78,23.9,23.84,24.63,2.16.52,9.86-1.87,11.12-1.59.89.19,3.63,4.26,4.37,4.77.06.78-.1,1.61,0,2.38.28,2.22,2.29,2.83,1.59,5.56-3.55-1.89-1.64-2.65-3.18,6.36-5.84-1.46-11.93-1.89-17.08-5.56-2.25,2.84,3.42,14.7,2.78,15.5-1.13,1.4-6.95-1.16-6.36,1.99-12.37-14.96-16.13-20.03-34.57-30.99l21.85,21.85c2.29,2.98,3.09,4.16,4.77,7.55-6.29,1.71-17.68,2.76-19.47,7.95-2.65-2.4-28.04.21-29.4.79-.3.13-1.87,4.57-3.18,4.77-.78.12-3.06-4.25-14.7-3.97-11.19-11.01-36.46-1.92-45.29-7.55-4.93-3.14-2.7-16.98-22.25-11.52-.11-14.65-2.27-34.83,0-48.47,20.94-30.8,26.96,16.14,40.13,27.02,16.75-24.68,4.22-13.2,2.78-27.81,1.91,5.01,5.28,8.93,10.33,11.12.09,2.82-1.26,4.72-.79,6.75.18.76,7.48,12.88,7.95,13.51,9.82,13.11,4.27-4.46,2.38-10.73h.79c2.09,6.36,4.27,12.71,6.36,19.07-5.92-3.03,6.53,16.43,7.55,16.69,1.01.26,4.91-3.01,6.75-3.18,16.36,18.03-5.91-9.5-7.15-11.52-4.92-8.02-8.95-18.44-11.92-27.41-.2-.61.19-1.74,0-2.38-.44-1.46-.11-3.85-1.59-5.96-.63-.89-13.85-7.04.4-16.29,17.05-11.08,29.12,25.66,37.74,35.36,1.71,1.44,1.52-1.06,2.38-1.99Z" style="fill:#792b47; stroke-width:0px;"/><path d="m201.12,269.4c2.97,8.98,6.99,19.39,11.92,27.41,1.24,2.02,23.51,29.55,7.15,11.52-4.41-4.86-7.97-10.67-14.3-13.51-2.09-6.37-4.26-12.71-6.36-19.07-.74-2.25-1.77-4.45-2.38-6.75l3.97.4Z" style="fill:#e5b56d; stroke-width:0px;"/><path d="m205.89,294.83c6.33,2.84,9.9,8.65,14.3,13.51-1.85.17-5.74,3.44-6.75,3.18-1.02-.26-13.47-19.71-7.55-16.69Z" style="fill:#4e1e36; stroke-width:0px;"/><path d="m262.71,270.2c3.75-2.18,4.09,6.23,4.37,6.75.2.38,5.94,3.64,2.78,6.75-1.04-1.06-8.28-12.85-7.15-13.51Z" style="fill:#4e1e36; stroke-width:0px;"/><path d="m239.66,296.42c3.19-1.07,8.77,8.25,7.95,8.74-2.63.55-10.45-7.9-7.95-8.74Z" style="fill:#201d2a; stroke-width:0px;"/><path d="m391.04,402.11l1.19,1.59c.69-.39.3-1.04.4-1.59,2.37-13.22.24-21.55,4.37,1.59,6.69-.4,12.13-1.52,17.88-3.18,11.2,1.95-20.36,11.17-21.85,11.12-3.27-.1-4.52-3.8-5.56-3.97-1.08-.18-6.49,2.84-7.95,2.38-3.16-1-.62-11.13-9.54,1.59-23.61-2.24-42.43,1.48-23.44-7.55-6.6-3.91-24.16,3.27-9.93-6.75-9.21-.32-22.22,10.68-26.22-2.38-33.72,2.84-15.18,2.52,1.19-9.54,2.2.04,1.25,1.5,8.34-2.38.6-1.11-19.32-6.59-21.06,0-6.79-.66-14.97,1.01-21.46-2.38,12.51-4.19,26.7.41,27.41-18.28,2.41.03,14.34,2.11,15.1,2.38,2.62.96-4.84,8.48,6.36,2.38l1.19,1.19-4.37,9.14c3.35.74,20.59-7.1,21.06-5.17-10.82,5.68-46.12,30.86-13.91,17.88,3.6-1.45,24.62-14.54,25.83-17.08,3.07-45.99,1.12-33.28,9.54,3.18,11.83-4.02-3.64,13.53,12.71,15.89q1.39,5.76,2.78,11.52c6.6-2.83,2.65-8.85,9.93-1.59Z" style="fill:#4e1e36; stroke-width:0px;"/><path d="m311.58,385.42c-3.79-.06-9.04-2.03-12.71-2.38,1.74-6.59,21.66-1.11,21.06,0-7.09,3.89-6.14,2.42-8.34,2.38Z" style="fill:#0b1d26; stroke-width:0px;"/><path d="m392.63,402.11c-.1.54.3,1.2-.4,1.59l-1.19-1.59h1.59Z" style="fill:#331b31; stroke-width:0px;"/><path d="m360.45,402.9l8.34,1.19c-2.46,3.16-6.04,1.26-8.34-1.19Z" style="fill:#a03b55; stroke-width:0px;"/><path d="m87.49,236.82c-1.14,1.25-3.45,1.98-4.77,3.18-.68-1.24-5.95-7.82-6.75-7.95-7.87-1.23,12.69,11.57,1.99,19.87-.91-1.22-3.18-3.59-3.97-4.77-2.06-3.04-3.25-7-4.77-10.33,6.1-10.69,12.5-11.43,18.28,0Z" style="fill:#843c4d; stroke-width:0px;"/><path d="m82.72,240c.47.86,3.51,13.91,7.95,17.48,0,1.37-1.51.54-2.38.79-1.12.33-.74.77-.79.79-.56.23-1.54.06-2.38.79-3.46-6.81-5.73-6.04-7.15-7.95,10.7-8.29-9.85-21.09-1.99-19.87.81.13,6.07,6.7,6.75,7.95Z" style="fill:#4e1e36; stroke-width:0px;"/><path d="m73.98,247.15c.54,8.23,12.8,17.85,13.51,16.29-.7-1.23-1.75-2.33-2.38-3.58.84-.73,1.82-.57,2.38-.79q5.17,5.36,10.33,10.73l-9.54-11.52c.88-.26,2.39.57,2.38-.79,9.89,7.96,13.84-35.45,32.58-15.89-1.97,8.07-5.79,12.01-4.77,23.44,6.64,15.02,4.35,30.94,4.77,46.49-14.93,12.71-8.65,6.96-11.52,4.77-2.17-1.66-2.96,3.14-3.18,3.18-.2.04-1.21-2.89-2.38-3.18-1.43-.35-1.86,1.57-1.99,1.59-2.13.38-4.35.81-6.36,1.59-2.17-2.81-9.92-.47-7.15,3.97-3.96,2.05-11.08,5.26-12.32,8.74-4.64-7.35-4.86-.59-6.36-.79-2.61-.36,1.41-6.81-5.17-3.97-.54,0-1.45.19-1.59-.4-.29-1.23-3.05-22.93-3.18-25.03-1.62-27.45,4.45,5.18,7.15,13.11q-1.99-33.18-3.97-66.35c2.92.33,2.69-3.06,0-3.18.07-.48,3.27-7.5,3.97-8.74,1.52,3.33,2.71,7.29,4.77,10.33Z" style="fill:#4e1e36; stroke-width:0px;"/><path d="m97.82,319.47c-1.14.44-4.63,3.1-6.36,3.97-.21.11-.59-.11-.79,0-2.77-4.45,4.98-6.78,7.15-3.97Z" style="fill:#792b47; stroke-width:0px;"/><path d="m92.66,278.94c7.92-1.13,10.76,8.24,15.5,13.11q-5.76,6.56-11.52,13.11l-6.36-9.54q-3.18,6.36-6.36,12.71-1.39-10.53-2.78-21.06c2.61-1.3,9.75-8.09,11.52-8.34Z" style="fill:#792b47; stroke-width:0px;"/><path d="m77.96,251.92c1.43,1.91,3.69,1.14,7.15,7.95.63,1.25,1.69,2.34,2.38,3.58-.71,1.56-12.97-8.06-13.51-16.29.8,1.18,3.06,3.54,3.97,4.77Z" style="fill:#ce9167; stroke-width:0px;"/><path d="m87.49,259.07c.05-.02-.32-.46.79-.79l9.54,11.52q-5.17-5.36-10.33-10.73Z" style="fill:#cea184; stroke-width:0px;"/><path d="m65.24,248.74c.1-1.04-.15-2.17,0-3.18,2.69.11,2.92,3.51,0,3.18Z" style="fill:#d49a9b; stroke-width:0px;"/><path d="m58.09,248.74c.07,2.19-.81,6.04-.79,6.36l-10.33-19.87c3.86,4.42,7.21,9.15,11.12,13.51Z" style="fill:#ce9167; stroke-width:0px;"/><path d="m278.2,315.49c-.59-3.15,5.23-.58,6.36-1.99.64-.8-5.03-12.65-2.78-15.5,5.15,3.67,11.24,4.11,17.08,5.56,1.77.44,10.95,4.26,11.92,2.78-2.69-2.63-5.38-7.35-8.74-9.14.7-2.73-1.3-3.35-1.59-5.56,3.26,2.28,19.68,20.39,19.87,21.85.97,7.73-8.44,1.11-10.73,1.99-.97.37-4.56,10.21-4.37,11.52.14.96,10.35,15.31,11.12,15.89,3.34,2.53,8.81,1.58,12.71,2.38-.13-30.97,5.76-4.67,6.36,7.95-1.47,3.31-8.57-3.53-11.52-4.37,5.97,35.33-37.26-23.18-45.69-33.37Z" style="fill:#a03b55; stroke-width:0px;"/><path d="m302.04,297.22c3.36,1.79,6.05,6.51,8.74,9.14-.97,1.48-10.15-2.34-11.92-2.78,1.54-9.01-.37-8.24,3.18-6.36Z" style="fill:#4e1e36; stroke-width:0px;"/><path d="m303.23,328.21c1.57.07,7.31,9.62,7.15,11.92-1.86-.72-11.63-8.39-11.52-9.14.04-.26,4.11-2.79,4.37-2.78Z" style="fill:#201d2a; stroke-width:0px;"/><path d="m655.65,255.9c-.8-2.93-.52-4.38-.79-7.15.94-.17,3.17.44,3.58.79,3.79,3.28-.73,13.87-2.78,6.36Z" style="fill:#a86f68; stroke-width:0px;"/><path d="m620.29,202.66c1.17.12,2.17,2.03,1.99,2.78-1.39,5.74-5.58-3.14-1.99-2.78Z" style="fill:#13251a; stroke-width:0px;"/><path d="m743.46,219.34c1.72.28.15,3.13,0,3.18-1.5.51-4.15-3.86,0-3.18Z" style="fill:#4e3e1b; stroke-width:0px;"/><path d="m639.76,204.24c-.7-.64-.97-.75-1.59-1.59l3.97-1.99-2.38,3.58Z" style="fill:#5d5734; stroke-width:0px;"/><path d="m665.19,200.27c-.12.01.62,1.09-1.59,0,.12-.09,1.06-1.86,1.99-2.38l-.4,2.38Z" style="fill:#5d5734; stroke-width:0px;"/><path d="m663.6,200.27c-.08.06-.03.73-1.19,1.59-1.28-2.34.37-2.27.4-2.38-.08.96.6.7.79.79Z" style="fill:#9fab97; stroke-width:0px;"/><path d="m558.31,137.5c2.47,8.46-3.78,12.2-.4,17.08-10.05,7.7-.77.2-6.36-5.56,7.3,3.73,5.92-11.53,6.75-11.52Z" style="fill:#2a4332; stroke-width:0px;"/><path d="m544.01,170.87c1.29-.02,1.68,9.12.79,10.33-2.14,1.33-2.69-10.3-.79-10.33Z" style="fill:#b97d5c; stroke-width:0px;"/><path d="m568.24,154.98l-.79.79c0-.12-1.71-.15-.4-2.38.64.38.84,1.03,1.19,1.59Z" style="fill:#6e5f33; stroke-width:0px;"/><path d="m541.22,89.82c.42,7.63-1.01,32.67,1.59,37.35.08.14,2.98.63,3.18.79-5.51,19.52-5.18,9.9-5.96,9.54-.38-.18,1.4,1.77-5.96,4.77-1.75-2.5-1.49-4.51-1.59-4.77-1.2-3.08-3.07-5.92-4.77-8.74-2.11-3.52-4.62-6.36-7.15-9.54-48.1-60.36-154.79-53.79-181.97,16.69-.8,2.06-.73,2.98-.79,3.18-2.19,6.31-3.5,10.9-4.77,17.48-1,5.18-2.71,10.65-3.18,15.89-1.19,13.22,2.51,36.13-5.56,9.14-.74-2.46-1.14-8.89-1.59-9.93-.4-.95-1.49-1.07-2.38-1.59-1.53-13.04-1.89,8.19-2.78,8.74-24.44-31.01-1.19-1.89.4,1.99.78,1.9.69,5.43.79,7.55.01.26,0,.53,0,.79.02.69-4.97,10.88,3.97,8.74,8.51,16.05,7.73,16.5-2.38,11.12,2.21-6.35-19.57-13.29-10.73-18.28,7.77,9.89-1.72-28.5.79-2.38l-11.52-18.67c.19,8.05,7.15,15.78,3.18,23.44-1.96.33-2.26-1.51-2.38-1.59-.08-.05-.83-1.76-1.19-1.59-1.64.77.39,2.26.4,2.38.16,2.19.16,2.63.79,4.77-1.35,4.46-.86,16.34,0,20.66-32.81-15.07-27.84-35.06-36.55-43.7-.44-.91-.62-3.65-.79-3.97q7.15-17.08,14.3-34.17c3.8-4.04,15.63-30.4,39.73-50.06.57-.46,8.06-5.58,10.33-7.15,18.66-12.91,36.62-21.88,59.2-25.43.39,9.8,2.33,10.08,1.99.4,2.46-6.68,61.19-5.83,70.32-2.78,2,11.34,2.5,18.73,2.78,1.19,14.4-2.19,2.61,15.47,10.73,14.7,4.58-.43-.12-10.73,3.18-11.92.85-.31,16.81,4.16,17.48,4.77,1.44,1.31,2.74,24.4,3.58,3.58,1.16-2.89,13.88,4.61,16.69,5.56-3.25,14.5,3.12,20.73,3.58,1.99,6.73,5.18,14.87,8.99,21.46,14.3,4.03,3.25,3.35,4.57,3.58,4.77Z" style="fill:#f7d896; stroke-width:0px;"/><path d="m322.7,197.89c-8.94,2.14-3.95-8.05-3.97-8.74.87,3.05,2.5,5.95,3.97,8.74Z" style="fill:#d39278; stroke-width:0px;"/><path d="m543.61,91.41l-.79,35.76c-2.6-4.68-1.17-29.72-1.59-37.35.15.13-.88-1.44,2.38,1.59Z" style="fill:#23371c; stroke-width:0px;"/><path d="m295.29,128.75c4.56-.56,4.83,4.81,7.95,7.15.8.6,17.9,6.23,6.36,13.51-15.68,9.88-25.25-19.31-14.3-20.66Z" style="fill:#e5b56d; stroke-width:0px;"/><path d="m320.32,209.01c-5.07-2.69-18.67-10.92-18.28-15.89,3.97-7.67-2.99-15.4-3.18-23.44l11.52,18.67c-2.51-26.12,6.97,12.28-.79,2.38-8.84,4.99,12.94,11.92,10.73,18.28Z" style="fill:#cd8375; stroke-width:0px;"/><path d="m321.51,125.58c1,.01-1.32,9.95,3.97,15.1.64-16.93,8.44,5.46,2.38,21.46,2.28-22.78-10.87-22.53-6.36-36.55Z" style="fill:#b97d5c; stroke-width:0px;"/><path d="m320.32,170.08c.26,2.17.56,19.11-.79,18.28h-.79c-.11-2.12-.01-5.64-.79-7.55-1.59-3.87-24.84-33-.4-1.99.89-.55,1.25-21.78,2.78-8.74Z" style="fill:#ce9167; stroke-width:0px;"/><path d="m355.68,82.67c.42,4.71-1.41,12.99,4.37,6.75-.67,8.51-8.96,4.04-4.37-6.75Z" style="fill:#23371c; stroke-width:0px;"/><path d="m299.66,191.53l-.79.79c0-.12-2.03-1.61-.4-2.38.36-.17,1.11,1.54,1.19,1.59Z" style="fill:#4e3e1b; stroke-width:0px;"/><path d="m276.61,231.26c-.75-.45-1.41-.98-2.38-.79l1.99-12.71c13.73,4,15.81,13.66,12.71,15.89-.51.37-9.54-4.3-12.32-2.38Z" style="fill:#be6b6e; stroke-width:0px;"/><path d="m532.48,383.04c10.05,11.86.64,7.04-11.52,6.36-2.78-2.78-6.03-12.68-8.74-14.3-.45-.27-9.82-2.52-10.33-2.38-.76.21-9.8,11.54-9.93,12.32-.36,2.15,2.76,4.13,2.38,5.56-.52,1.96-7.17,1.64-9.54,5.96l-4.77-1.59c.54-1.84-.78-7.78.79-9.14,1.19-1.03,2.09,3.02,2.78,2.78,1.54-.54.38-11.76,2.38-11.92,3.4-.27-.18,16.73,12.71-14.3,2.42,18.51,7.26-.63,9.54,0,4.27,17.1,5.04,7.02,8.74,7.95.85.21,7.38,14.33,8.74,14.3,2.69-.05-.72-10.41,6.75-1.59Z" style="fill:#4e1e36; stroke-width:0px;"/><path d="m444.28,397.34c-5.23.45-4.53-.75-4.77-.79.42-1.56.18-2.47,0-3.97-.83-6.86-3.13-13.19-3.18-13.91-.26-3.86,1.02-16.12.79-27.81-.08-4.21-1.51-8.63-1.59-13.11,0-.26,0-.53,0-.79.84-1.38,1.86-3.29,2.38-4.77,5.72,18.58,5.15,37.71,7.15,56.82h1.59q.6-4.17,1.19-8.34c3.5,7.08-3.57,15.8-3.58,16.69Z" style="fill:#792b47; stroke-width:0px;"/><path d="m570.63,267.82c-1.89,3.39-5.3,5.11-5.17,9.54-1.9-5.39-2.56-3.14-6.75,0-10.2,7.65-12.98,23.18-27.41,25.43,11.03-27.84,6.51-35.39,39.33-38.14-.07.14.6,2.1,0,3.18Z" style="fill:#f7d896; stroke-width:0px;"/><path d="m573.01,275.76c-1.32-.01-3.22,1.53-3.97,2.38q-6.75,3.18-13.51,6.36c1.11-2.34,2.66-4.58,3.18-7.15,4.19-3.14,4.85-5.39,6.75,0-.14-4.42,3.27-6.14,5.17-9.54,3.2-4.77,2.82,6.11,2.38,7.95Z" style="fill:#d39278; stroke-width:0px;"/><path d="m518.18,260.66c.51-1.23,1.34-5.72,1.59-7.55,1.18-1.69,5.71-1.82,7.95-3.58,4.97,4.8-4.07,10.95-9.54,11.12Z" style="fill:#cd8375; stroke-width:0px;"/><path d="m344.16,157.36c-1.79,4.76-1.19,14.09-8.74,6.75l-1.59,12.71c-2.5,1.44-2.47-2.84-3.97-4.37.47-5.24,2.18-10.71,3.18-15.89,9.01,1.25,5.66-12.09,4.77-17.48.07-.2,0-1.12.79-3.18l5.56,21.46Z" style="fill:#4e1e36; stroke-width:0px;"/><path d="m251.18,154.98c.19.21.1.84,3.18,4.77,1.55,1.99,7.64,9.75,7.95,10.33.17.33.35,3.06.79,3.97-2.29-2.28-2.57-3.7-4.77,0-1.22-2.62-7.38-10.5-9.54-13.51-8.85-12.37-10.85-12.72-20.66-22.25-.13-.13.13-.65,0-.79,7.06,3.59,17.77,11.68,23.04,17.48Z" style="fill:#1a191b; stroke-width:0px;"/><path d="m527.72,128.75c-8.05,1.3-16.66,5.34-23.04,10.33l-1.59-1.59c19.22-12.72,27.87-16.58-.79-5.56l-.79-.79c4.78-2.96,9.39-6.7,14.3-9.54.26-.07,3.27-1.8,4.77-2.38,2.53,3.18,5.04,6.02,7.15,9.54Z" style="fill:#792b47; stroke-width:0px;"/><path d="m304.43,206.63c-1.64,5.73,1.17,11.52,2.38,16.69.06.25-.06.54,0,.79,1.29,5.42,5.32,12.5,1.59,11.12-2.76-5.92-7.41-10.78-8.74-17.48-.86-4.32-1.35-16.2,0-20.66,1.25,4.21,2.15,6.05,4.77,9.54Z" style="fill:#be6b6e; stroke-width:0px;"/><path d="m333.03,156.57c1.27-6.58,2.58-11.17,4.77-17.48.89,5.39,4.24,18.73-4.77,17.48Z" style="fill:#792b47; stroke-width:0px;"/><path d="m322.7,171.66v19.47l-3.18-2.78c1.36.84,1.05-16.1.79-18.28.89.52,1.98.64,2.38,1.59Z" style="fill:#f2c69a; stroke-width:0px;"/><path d="m518.98,232.06c-7.74-3.22-11.18,6.4-15.1,3.97.42-.6,2.15-3.55,1.19-3.97-8.36,6.72-22.03,9.77-31.79,4.77-2.2,6.46-7.41-.82-9.54,12.71-2.04,1.05-6.71-7.73-8.74-9.54-.05-.05-.71,1.03-1.19.79-.1-.05.64-2.01-1.59-1.59-.3-6.09-9.54-15.52-13.51-21.85-3.79-6.06-8.44-18.64-9.93-17.88-6.57,28.36-30.2,37.66-7.95,65.95.59.18,4.64-3.35,5.17-3.97l.79.79c-5.63,16.49,3.01,1.05,5.56-4.77.55,1.39,3.78,9.41,4.37,9.54,3.23-4.1,8.83-7.48,11.52-11.92,1.28.07.79,4.42.79,8.74.02,10.04-.32,20.17,0,30.2h-5.56c-.12-.57-3.27-8.16-3.58-11.12-.98,1.35-4.38,10.53-4.37,11.12h-3.18c-.2-1.24-3.05-5.76-3.58-7.95-1.3-.08-2.72,6.68-2.78,7.95h-5.56c-.4-1.88-2.77-6.38-3.58-9.54-.5,0-2.57,7.6-2.78,9.54h-4.77c-.64-9-.29-18.1-1.99-27.02.16,9.19-.95,17.92-1.99,27.02l-3.97-.79c-1.09-6.02-4.15-6.52-5.56-.79h-2.38c2.2-10.47,3.46-14.46,1.59-26.62,2.13.34,8,18.18,9.54,15.1-1.45-45.28,7.84-48.33,15.89-68.34,3.25-8.08,3.91-17.09,7.55-25.03,3.1-.78,9.38,32.93,30.2,46.09l-2.38-9.54c20.26,13.42,49.76,17.14,54.03-13.51,5.28,8.31-5.34,18.32,10.33,19.07,1.5,3.01-1.1,2.22-1.19,2.38Z" style="fill:#792b47; stroke-width:0px;"/><path d="m417.26,157.36c-.17.92.32,1.69.79,2.38,2.42,3.52,14.49,7.51,15.89,12.71-10.9,0-19.49,6.09-21.85,5.56-7.63-6.53-8.65-12.72-19.47-12.71-2.42-2.05-7.52-.11-10.73.79l-10.73-7.95c6.01-5.2,14.81-12.44,22.25-15.1q11.92,7.15,23.84,14.3Z" style="fill:#9b2865; stroke-width:0px;"/><path d="m371.17,158.16l10.73,7.95c3.21-.9,8.3-2.85,10.73-.79-7.25,0-20.56,5.66-21.46,4.37-.7-1.01,2.48-4.28-.4-4.37-.62-.02-6.69,8.6-8.74,8.74-4.14.28.01-10.53-8.34,3.58-5.06,2.59-5.25-26.15-1.59-22.25-.5,9.25,1.7.23,3.97-3.18,8.84-13.28.67,2.18-2.78,10.73,11.54-11.49,33.15-20.82,17.08-5.96l.79,1.19Z" style="fill:#792b47; stroke-width:0px;"/><path d="m453.82,240.8c.04,17.4-.61,34.65,3.97,51.65-1.19.02-5.88.32-6.36-.4.12-9.28,1.12-25.71-2.38-28.21,0-4.32.48-8.67-.79-8.74,2.89-4.77,4.25-10.31,3.97-15.89,2.23-.42,1.49,1.54,1.59,1.59Z" style="fill:#622b45; stroke-width:0px;"/><path d="m395.01,307.55c.86,5.08,1.34,2.63,1.59,3.18-1.65,6.82-2.7,13.77-3.97,20.66-.75,4.08-.2,9.97-2.38,9.14-.58-10.34-.74-21.17-2.38-31.39,2.79-2.3.67,4.43,5.17,5.56.38-.21-2.24-7.67,1.99-7.15Z" style="fill:#012227; stroke-width:0px;"/><path d="m318.73,267.02c.08,4.1-6.92,7.6-9.54,11.92-.05-.19-2.28-2.36-2.38-3.18l9.54-9.54c1.85.52,2.26.76,2.38.79Z" style="fill:#cd8375; stroke-width:0px;"/><path d="m548.38,305.96q-6.75,6.75-13.51,13.51c.31-.44-1.34-1.26-.79-1.99,2.46-3.3,8.5-7.87,11.52-11.52,1.08-.1,2.53.16,2.78,0Z" style="fill:#f7d896; stroke-width:0px;"/><path d="m306.81,274.97l-3.97-4.77c.73-8.45,7.71-3.53,7.95-2.78.35,1.12-3.78,4.47-3.97,7.55Z" style="fill:#cd8375; stroke-width:0px;"/><path d="m309.99,224.91v.79c-.96-.65-2.17-1-3.18-1.59-.06-.25.06-.54,0-.79,1.89-.16,3.02,1.51,3.18,1.59Z" style="fill:#664a21; stroke-width:0px;"/><path d="m435.54,337.74c.08,4.48,1.51,8.9,1.59,13.11.23,11.69-1.06,23.95-.79,27.81.05.71,2.35,7.04,3.18,13.91-11.21-19.32-4.96-44.06-8.74-65.16-.25-1.37-.52-1.57-.79-2.38,8.55-4.15.37,12.15,5.56,12.71Z" style="fill:#151f2c; stroke-width:0px;"/><path d="m399.78,317.88c.89,3.79,1.36,10.88,1.59,15.1.07,1.32-.04,2.65,0,3.97-3.45-1.43,1.54-4.51-8.74-5.56,1.27-6.89,2.32-13.84,3.97-20.66,1.17,2.55,2.44,4,3.18,7.15Z" style="fill:#ae4650; stroke-width:0px;"/><path d="m387.86,309.14c1.65,10.22,1.8,21.05,2.38,31.39,2.18.83,1.63-5.06,2.38-9.14,10.28,1.05,5.29,4.13,8.74,5.56.29,9.63-3.45,18.61,4.77,6.36.86-1.29,6.24-10.49,6.36-11.12h2.38c.48,5.43-.65,12.92,0,17.88,2.42,18.34,8.43,5.26,10.33-4.37.1-.49-.08-1.09,0-1.59.47-2.96.53-5.08.79-7.95,1.71-5.37,2.39-10.96,4.77-8.74,3.78,21.1-2.47,45.84,8.74,65.16.18,1.5.42,2.42,0,3.97-4.86-.92-4.63.37-7.95-5.56-.35-.62.54-2.95-.4-3.97-1.09-.93-11.63,13.63-8.74-18.28-21.01,34.31-21.76-2.51-24.63-3.97-22.17,13.61-3.28-23.42-15.89-6.36-4.61-9.05-.64-16.04-7.15-8.74-16.22-14.47-12.69-62.93-13.91-87.01h1.59c7.35,15.8,13.63,32.08,21.46,47.68-4.75,18.07.78,11.89,2.38,4.77.52-2.29-.36-18.08,1.59-5.96Z" style="fill:#7b0c50; stroke-width:0px;"/><path d="m364.42,274.97c1.07,4.66,5.73,17.09,5.96,20.26.99,13.89-6.17-3.93-5.96-20.26Z" style="fill:#331b31; stroke-width:0px;"/><path d="m515.8,121.6c-4.92,2.84-9.53,6.57-14.3,9.54-14.78,9.16-23.15,12.13-33.77,28.61-2.58-1.98,5.1-12.47,3.18-13.51-24.06,21.07,3.58-9.07,11.92-14.3,12.63-7.93,20.59-7.22,32.98-10.33Z" style="fill:#0b1d26; stroke-width:0px;"/><path d="m503.08,137.5c-15.55,10.29-12.11,8.24-.79-5.56,28.66-11.02,20.02-7.16.79,5.56Z" style="fill:#0b1d26; stroke-width:0px;"/><path d="m520.56,119.22c-1.5.59-4.51,2.32-4.77,2.38-12.38,3.11-20.34,2.4-32.98,10.33-8.34,5.23-35.98,35.37-11.92,14.3,1.92,1.04-5.76,11.53-3.18,13.51,10.62-16.47,18.99-19.44,33.77-28.61l.79.79c-11.31,13.8-14.75,15.85.79,5.56l1.59,1.59c-10.9,8.52-20.14,26.68-21.85,27.02-20.36-9.58-39.69,9.47-42.12,9.54-2.04.05-3.25-4.36-6.75-3.18-1.4-5.2-13.47-9.19-15.89-12.71,2.68-.1,32.4.1,30.2-2.78l-30.99.4q-11.92-7.15-23.84-14.3c4.45-1.59,16.7-2.72,16.69-3.58q-9.34-.6-18.67-1.19v-1.59c33-9.98,45.3-11.67,7.15-7.15v-1.59c6.18-1.68,12.51-3.05,18.67-4.77,1.32-.37,2.71-.65,3.97-1.19-.11-.63-3.86-.44-4.77-.4-8.87.38-17.38,3.14-26.22,3.58q12.71-6.75,25.43-13.51c-38.42,6.44-21.54,4.81-12.32-1.99,1.18-.87,1.77-1.54,0-1.59-1.52-.05-24.67,7.93-29.4,7.95-3.34,2.09-6.87,3.84-9.93,6.36-3.38,1.01,3.18-7.23,7.15-16.69.05-.12,2.58-.92,1.19-2.38-1.61,1.08-1.1,2.29-1.19,2.38-6.49,7.09-7.76,12.7-11.92,20.66-.49.94-3.02,6.33-4.37,5.56,3.74-23.66-4.16,7.96-10.73,25.43l-5.56-21.46c27.18-70.48,133.87-77.05,181.97-16.69Z" style="fill:#a03b55; stroke-width:0px;"/><path d="m364.02,122.4c-.34.28-1.56,2.97-4.77,3.97,4.15-7.96,5.43-13.57,11.92-20.66-3.97,9.46-10.53,17.7-7.15,16.69Z" style="fill:#630e39; stroke-width:0px;"/><path d="m417.26,123.19l-.79-1.59c.91-.04,4.66-.23,4.77.4-1.26.55-2.65.82-3.97,1.19Z" style="fill:#630e39; stroke-width:0px;"/><path d="m418.06,159.75c-.48-.69-.96-1.47-.79-2.38l30.99-.4c2.2,2.88-27.51,2.69-30.2,2.78Z" style="fill:#21152a; stroke-width:0px;"/><path d="m463.75,124.78c7.88-2.14,8.15,9.08,1.59,9.54-6.41.44-5.05-8.6-1.59-9.54Z" style="fill:#0b1d26; stroke-width:0px;"/><path d="m485.2,111.27l-7.95,10.33c-2.09-.64,6.54-9.76,7.95-10.33Z" style="fill:#792b47; stroke-width:0px;"/><path d="m371.17,105.71c.09-.1-.41-1.3,1.19-2.38,1.39,1.46-1.14,2.26-1.19,2.38Z" style="fill:#630e39; stroke-width:0px;"/><path d="m432.36,255.9c.14.38-.15,1.22,0,1.59-2.56,5.82-11.19,21.26-5.56,4.77.91-2.68,2.38-6.3,5.56-6.36Z" style="fill:#231416; stroke-width:0px;"/><path d="m422.03,325.03c1.15,6.42,2.68,14.34.79,20.66-5.98,25.37-4.12,7.51-3.97-19.07l3.18-1.59Z" style="fill:#aa5848; stroke-width:0px;"/><path d="m416.47,121.6l.79,1.59c-6.16,1.72-12.49,3.09-18.67,4.77v1.59c38.14-4.51,25.85-2.83-7.15,7.15v1.59q9.34.6,18.67,1.19c.02.85-12.23,1.98-16.69,3.58-7.44,2.66-16.24,9.9-22.25,15.1l-.79-1.19c16.06-14.86-5.54-5.53-17.08,5.96,3.45-8.55,11.62-24,2.78-10.73-2.27,3.41-4.47,12.43-3.97,3.18-3.66-3.9-3.47,24.83,1.59,22.25,8.36-14.11,4.2-3.29,8.34-3.58,2.05-.14,8.12-8.76,8.74-8.74,2.87.09-.3,3.36.4,4.37.89,1.29,14.2-4.37,21.46-4.37,10.81,0,11.84,6.19,19.47,12.71,2.36.53,10.95-5.56,21.85-5.56,3.5-1.18,4.72,3.23,6.75,3.18,2.42-.06,21.76-19.12,42.12-9.54,1.71-.33,10.96-18.5,21.85-27.02,6.38-4.99,15-9.03,23.04-10.33,1.69,2.82,3.57,5.66,4.77,8.74-10.39,1.93-17.63,8.11-23.04,17.08,12.57-9.73,17.84-9.55,24.63-12.32,7.36-2.99,5.58-4.94,5.96-4.77.78.37.45,9.99,5.96-9.54,3.29,2.76-8.23,21.06-11.12,23.84-3.47,3.33-20.97,10.4-26.22,22.65,5.9-2.96,9.24-10.71,14.7-13.91,1.97-1.15,16.16-6.81,16.29-2.38-1.17,12.57,4.65,34.6-10.33,61.58l1.19,1.19c18.16-10.97,15.2-44.23,17.08-29.8.95,7.3-2.31,15.15-1.19,15.5,4.07-4.16,20.63-36.38,21.06-38.54.39-1.98,0-8.79,0-12.32l.79-.79c7.45,11.91.83,18.99-5.56,29,.15,17.28-22.82,32.8-10.73,32.18,5.48-.28,11.69-5.29,11.92-11.12,1.24,18.28-15.09,16.64-20.66,19.87-10.4,6.03.2,12.35-15.5,24.63-2.24,1.75-6.77,1.88-7.95,3.58-.25,1.83-1.08,6.32-1.59,7.55-4.22,10.26-8.46,29.07-9.54,40.13-1.25,12.88,7.62-13.61,10.73-25.83,1.95.29-2.47,19.76-2.78,22.25-.01.12-1.68.03-.4,2.38,1.14-.83,1.12-1.52,1.19-1.59,8.12-8.6,11.35-30.64,12.71-33.77,2.93-6.75-.7,10.35,2.38,5.56,1.11-1.73,14.55-32.34,16.29-37.74,1.75,9.61-7.43,24.79-2.38,24.63,4.42-.14,12.91-13.7,14.7-17.88,16.57-13.38,22.95-29.79,17.88-13.11,8.75-16.75,9.08-10.62,2.78.4-3.51,6.15-9.03,8.71-11.92,17.48-6.43,19.5,3.37,17.23,9.54,2.38-.9,13.08-7.31,16.01-8.74,18.67-32.83,2.76-28.3,10.3-39.33,38.14,14.43-2.25,17.22-17.78,27.41-25.43-.52,2.57-2.07,4.81-3.18,7.15-1.55,3.28-4,7.6-4.37,11.12,7.1-4.93,12.22-11.1,17.88-17.48.76-.86,2.65-2.4,3.97-2.38-.2.86-7.04,14.32-7.95,15.89-1.85,3.2-.45,4.04-3.58,6.36-3.66,1.57-7.35,6.06-10.33,7.95-1.74,1.1-2.58-.13-2.78,0-.25.16-1.7-.1-2.78,0-3.03,3.65-9.07,8.22-11.52,11.52-.54.73,1.1,1.55.79,1.99-2.74,3.9-11.21,14-9.14,15.1,4.35-3.08,9.22-11.88,12.71-14.3,3.42-2.38,8.47-3.23,12.32-4.77,7.29-2.93,15.02-5.26,22.65-7.15,4.62-3.87,4.13-5.3,4.37-5.56,10.81-11.71,15.27-29.07,23.84-31.79-.78,2.62-2.04,4.73-3.18,7.15-4.38,9.29-8.47,18.48-12.71,27.81-5.53,12.15-14.34,22.22-8.34,22.25,3.13.02,16.6-15.94,19.47-19.07,16.09-17.55,17.44-20.51,3.97.79-3.3,5.22-12.1,15.38-8.34,16.69,12.89-3.5,17.55-6.8,27.41-14.3,9.49-7.22,17.51-16.35,27.81-22.65-.05-4.8.43-9.14-.79-13.91.71-6.5,3.04-14.25,3.18-20.66.15-6.65-.5-10.53-3.18-16.69-7.04-16.15-13.47-3.93-19.07-10.73,10.05,2.7,4.33-1.48,3.97-5.56-.25-2.81-.06-11.07-.79-12.71-.46-1.04-7.14-3.89.79-1.19-.15,13.3.51,21.19,15.1,18.67,2.28-17.58-5.46-10.64-14.3-20.26-1.33-1.44-5.17-10.94-12.32-16.69,9.31,2.99,10.74,14.38,18.28,3.97.3,6.18-5.25,2.12-.4,8.74.62.84.89.95,1.59,1.59,2.22,2.01,5.74,6.58,7.15,1.19,1.6-6.14-7.45-11.25-7.55-21.85,6.58,11.77,14.03,16.54,7.15-.79,7.49,13.83,7.52,5.45,8.74,4.77.47-.26.91,2.63,7.95-5.56-3.21,8.28-7.81,5.32-1.59,14.3,4.24-4.8,2.13-1.56,1.19,3.18-.02.12-1.68.04-.4,2.38,1.17-.85,1.11-1.53,1.19-1.59,2.21,1.09,1.47.01,1.59,0,18.75-2.26-12.25-1.78-10.33,25.83,5.58,1.52,9.64-7.44,11.52-3.58,6.46-9.15,7.42-5.79,2.78-.4-1.75,2.04-8.24,4.24-12.71,11.52-.08.13-2.03,1.2-2.38,1.99-.06,1.45.08,2.92,0,4.37-.12,2.08.53,6.05.79,8.74.28,2.77,0,4.22.79,7.15-1.34,2.54-.77,5.87-.79,8.74-.08,8.08.06,16.16,0,24.24,22.99-1.72,31.39-22.25,50.06-43.31l1.59,1.59c-1.6,3-13.67,26.24-12.71,27.41,3.07,3.76,30.06-19.65,14.3-3.18-6.68,6.98-15.04,8-22.65,13.11-13.97,9.38-6.87,9.2-36.16,22.25-.79.35-7.46.76-16.29,5.56-25.8,14.01-5.54,11.33,0,12.71,33.78,8.43,6.79,24.46-28.61,19.07-18.93,18.09-14.42,28.76,3.18,10.33,1.79.63-10.52,17.68-22.65,19.87-7.78,1.4-23.24-3.34-31.79-5.56-1.31-.34-26.97-9.1-16.29-1.59.34.24,2.45-.04,7.55,3.18.37,2.89-8.08,2.16-8.74,4.37-1.04,3.49,12.26,4.31,0,7.55-1.06.28-2.09.68-3.18.79-7.48-8.82-4.06,1.53-6.75,1.59-1.36.03-7.89-14.09-8.74-14.3-3.7-.92-4.47,9.15-8.74-7.95-2.27-.63-7.11,18.51-9.54,0-12.89,31.03-9.31,14.03-12.71,14.3-2,.16-.85,11.38-2.38,11.92-.69.24-1.59-3.81-2.78-2.78-1.57,1.36-.26,7.3-.79,9.14-.39,1.32-1.98,2.13-2.78,3.18-9.43-3.68-13.28,6.54-21.85,7.15-7.16.51-11.13-5.48-11.12-7.95,0-.89,7.07-9.61,3.58-16.69q-.6,4.17-1.19,8.34h-1.59c-2-19.11-1.43-38.24-7.15-56.82.25-.72.18-1.53.79-3.18l4.37,11.12c3.47-16.81,2.59,5.55,6.75-7.95.91.29.96.87,2.38.79.08,0,.96,2.04,1.59.4.12-.32-.04-2.99.79-6.75l3.97.4c1.04,12.06.16,1.06,5.17-2.78.87,8.99,3.98,1.72,4.37-2.38.18-1.89-.61-10.07-2.38-10.33.3-.73,3.24-2.65,3.97,0-.05.11-1.31-.32-1.59.4-.73,5.65,2.79,3.95,1.59-.4.03-.05.27.32.79-.79,1.61.52,3.17.36,4.77,0l5.17,9.54c.85-.12,8.33-14.97,3.58-14.3,1.42-1.32,2.29-.68,2.38-.79,1.59-2,2.06-5.65.79-7.95-.51-.93-4.19-2.41-4.77-3.97-.81-2.17-2.35-42.41-1.59.79-1.95.66-4.82-3.01-7.95-1.59-.48-9.77-1.27-9.84-1.59,0-3.26,2.59-6.95-.18-10.73-1.59-2.87-.21-1.54,1.57-2.78,1.59-4.58-17-3.93-34.25-3.97-51.65.48.24,1.14-.84,1.19-.79,2.03,1.81,6.7,10.59,8.74,9.54,2.13-13.54,7.34-6.25,9.54-12.71,9.75,5,23.43,1.96,31.79-4.77.96.42-.77,3.37-1.19,3.97-2.8,3.96-16.42,13.42-.4,4.77-3.32,9.39,12.19-2.66,15.5-8.74.09-.16,2.69.62,1.19-2.38-15.67-.75-5.05-10.76-10.33-19.07-4.27,30.65-33.78,26.93-54.03,13.51l2.38,9.54c-20.82-13.15-27.1-46.87-30.2-46.09-3.64,7.94-4.3,16.95-7.55,25.03-8.05,20.01-17.34,23.06-15.89,68.34-1.54,3.08-7.41-14.76-9.54-15.1,1.87,12.16.61,16.15-1.59,26.62-.87,4.13-3.3,7.94-3.18,12.32,6.27-5.54,2.54-2.2,4.77-1.19-1.25,1.43-.24,2.55,0,3.97-4.22-.52-1.61,6.95-1.99,7.15-4.49-1.13-2.38-7.87-5.17-5.56-1.95-12.12-1.07,3.67-1.59,5.96-1.6,7.12-7.13,13.3-2.38-4.77-7.82-15.6-14.1-31.88-21.46-47.68h-1.59c1.22,24.08-2.32,72.54,13.91,87.01,6.52-7.3,2.54-.31,7.15,8.74,12.62-17.07-6.28,19.96,15.89,6.36,2.88,1.46,3.62,38.28,24.63,3.97-2.89,31.91,7.65,17.34,8.74,18.28.93,1.02.05,3.35.4,3.97-7.01,12.46-17.54,2.52-16.69,9.54-5.75,1.66-11.19,2.78-17.88,3.18-4.13-23.14-2-14.81-4.37-1.59h-1.59c-7.28-7.26-3.34-1.24-9.93,1.59q-1.39-5.76-2.78-11.52c-16.35-2.36-.88-19.91-12.71-15.89-8.42-36.46-6.46-49.17-9.54-3.18-1.21,2.54-22.23,15.64-25.83,17.08-32.21,12.98,3.09-12.2,13.91-17.88-.47-1.93-17.71,5.91-21.06,5.17l4.37-9.14-1.19-1.19c-11.19,6.09-3.73-1.43-6.36-2.38-.76-.28-12.69-2.36-15.1-2.38-.71,18.69-14.9,14.09-27.41,18.28-.24.08-.56-.08-.79,0l-2.38-1.59c6.98-5.58,2.09-5.04,1.99-14.3,7.64,1.41,24.01,8.51,21.85-5.17-1.47-9.29-39.73-30.57-10.73-16.29l1.19-1.19c-17.91-16.52-11.99-15.48-18.28-28.21-1.67-3.39-2.48-4.57-4.77-7.55l-21.85-21.85c18.44,10.96,22.19,16.03,34.57,30.99,8.43,10.2,51.66,68.71,45.69,33.37,2.96.84,10.06,7.68,11.52,4.37-.59-12.61-6.49-38.92-6.36-7.95-3.9-.81-9.37.15-12.71-2.38-.77-.59-10.99-14.93-11.12-15.89-.19-1.31,3.4-11.15,4.37-11.52,2.29-.88,11.7,5.75,10.73-1.99-.18-1.47-16.61-19.58-19.87-21.85-.1-.77.06-1.6,0-2.38.69.48,5.8,3.87,6.36,2.78-3.57-7.83-17.27-25.65-1.99-8.34,3.18-.35-2.49-7.68-1.99-13.51l3.97,4.77c-.02.26.01.53,0,.79.11.82,2.33,2.99,2.38,3.18.52,1.97.68,5.48,1.59,7.55,1.83,4.17,3.79,5.65,3.97,5.96,1.17,2.01,1.96,2.98,3.18,4.77,2.68,3.95,3.79,4.52,3.97,4.77,2.75,3.82,4.55,5.27,4.77,5.56,1.54,2.04,2.6,3.08,3.97,4.77,3.93,4.81,6.76,10.43,11.12,15.1,2.53,2.7,5.4,4.91,7.55,7.95,5.51-9.27-2.58-11.8-5.17-15.89-1.18-1.87-3.23-4.23-3.97-5.56-.18-.33-.61-1.44-1.59-3.18-1.77-3.12.09-12.43-13.11-20.66-4.19-2.61-15.36-5.56-.79-3.97,17.19,1.88,16.51,19.45,25.43,30.2.07-12.5-.53-27.38-8.34-37.74-9.25-12.27-19.81-10.65-23.04-11.52-.12-.03-.53-.28-2.38-.79-27.59-7.73-17.07-1.08-34.96-28.21-2.15-3.26-7.31-5.33-7.15-7.55.97-.19,1.63.35,2.38.79,21.92,13.08,22.52,27.64,29.4,24.24-3.26-29.98-36.23-47.61-38.94-52.45-3.41-8.54-4.35-18.18-7.95-26.62-.6-1.42-.74-2.27-.79-2.38,2.2-3.7,2.47-2.28,4.77,0,8.71,8.64,3.75,28.64,36.55,43.7,1.33,6.7,5.98,11.56,8.74,17.48,4.74,10.15,5.04,16.35,5.56,17.08,4.61,6.51,6.21-8.13,0-15.1,2.36-4.17-.32-9.07-3.97-11.52v-.79c12.66,6.26,11.01,15.55,16.29,27.02.79-31.49-11.71-31.83-21.85-45.29-2.62-3.48-3.52-5.32-4.77-9.54-.63-2.14-.63-2.58-.79-4.77l.79-.79c.12.08.42,1.92,2.38,1.59-.39,4.97,13.21,13.2,18.28,15.89,10.11,5.37,10.89,4.93,2.38-11.12-1.48-2.79-3.11-5.69-3.97-8.74,0-.26.01-.53,0-.79h.79l3.18,2.78v-19.47c.44,1.05.85,7.47,1.59,9.93,8.07,27,4.37,4.08,5.56-9.14,1.5,1.53,1.47,5.81,3.97,4.37l1.59-12.71c7.55,7.34,6.95-1.99,8.74-6.75,6.57-17.47,14.47-49.09,10.73-25.43,1.35.77,3.88-4.62,4.37-5.56,3.21-1.01,4.43-3.69,4.77-3.97,3.06-2.52,6.59-4.27,9.93-6.36,4.73-.02,27.88-7.99,29.4-7.95,1.77.05,1.18.72,0,1.59-9.22,6.8-26.1,8.42,12.32,1.99q-12.71,6.75-25.43,13.51c8.84-.44,17.35-3.2,26.22-3.58Z" style="fill:#012227; stroke-width:0px;"/><path d="m657.64,193.12c2.44-.77,6.75,7.4-2.38,11.92-1.01-.82.8-11.42,2.38-11.92Z" style="fill:#f7d896; stroke-width:0px;"/><path d="m567.05,330.59c16.06-1.07-3.88,9.82-4.77,15.1,22.01-13.32,17.17-4.97,19.87-3.97,2.44.9,13.16-1.5,13.11,1.19-3.46,2.27-22.84,15.85-25.43,12.71q.6-4.57,1.19-9.14l-10.33,9.54c-2.35-.84-.61-21.27-7.15-15.1-2.44,2.3.3,30.35-7.95,21.46-1.3-1.41,8.07-22.08,7.55-25.83,1.36-1.74,13.15-5.91,13.91-5.96Z" style="fill:#792b47; stroke-width:0px;"/><path d="m544.01,331.39c2.94.43-16.8,14.71-19.47,13.91,1.79-2.34,18.28-14.08,19.47-13.91Z" style="fill:#331b31; stroke-width:0px;"/><path d="m539.64,158.16c-.13-4.42-14.32,1.24-16.29,2.38-5.46,3.19-8.8,10.94-14.7,13.91,5.25-12.25,22.76-19.32,26.22-22.65,1.07,1.78,5.93,3.24,6.36,4.37.92,2.41-1.58,1.86-1.59,1.99Z" style="fill:#4c2e45; stroke-width:0px;"/><path d="m517.39,298.01c-.07.07-.06.76-1.19,1.59-1.28-2.35.38-2.26.4-2.38l.79.79Z" style="fill:#9fab97; stroke-width:0px;"/><path d="m534.07,142.26c-6.79,2.76-12.06,2.58-24.63,12.32,5.41-8.98,12.66-15.16,23.04-17.08.1.26-.16,2.27,1.59,4.77Z" style="fill:#792b47; stroke-width:0px;"/><path d="m375.94,236.82c.04,1.55-1.14,3.26-2.38,3.97-1.04.6-21.91,5.53-23.44,5.56-11.48.28-20.04-11.61-16.29-16.29,4.38-5.47,11.58,9.68,15.5-20.26,1.87,0,1.5,11.58,4.37,16.29,2.89,4.74,17.04,10.33,22.25,10.73Z" style="fill:#9b2865; stroke-width:0px;"/><path d="m309.99,224.91c-.16-.08-1.29-1.75-3.18-1.59-1.21-5.17-4.02-10.96-2.38-16.69,10.14,13.46,22.64,13.81,21.85,45.29-5.28-11.47-3.63-20.76-16.29-27.02Z" style="fill:#f7d896; stroke-width:0px;"/><path d="m505.86,151c.55-.14,1.65-.17,1.99.4-10.22,15.53-9.56,27.56-20.66,16.69,1.97-2.6,17.44-16.77,18.67-17.08Z" style="fill:#9b2865; stroke-width:0px;"/><path d="m309.99,225.7c3.65,2.45,6.33,7.35,3.97,11.52,6.21,6.97,4.61,21.61,0,15.1-.52-.73-.82-6.93-5.56-17.08,3.73,1.37-.29-5.7-1.59-11.12,1.01.59,2.22.94,3.18,1.59Z" style="fill:#f7d896; stroke-width:0px;"/><path d="m373.56,240.8c1.25-.71,2.43-2.42,2.38-3.97,11.75.89,21.64-6.83,20.66-1.99-.89,4.38-14.87,4.59-15.5,5.17-.86.79-.39,8.76-2.38,9.54-4.87,1.9-2.37-9.36-5.17-8.74Z" style="fill:#622b45; stroke-width:0px;"/><path d="m518.98,232.06c-3.31,6.08-18.82,18.13-15.5,8.74-16.02,8.65-2.4-.81.4-4.77,3.92,2.42,7.36-7.19,15.1-3.97Z" style="fill:#4e1e36; stroke-width:0px;"/><path d="m446.27,357.61c1.77,6.16,6.5,12.85,8.34,18.67,3.29,10.41-13.46,3.61-8.34-18.67Z" style="fill:#792b47; stroke-width:0px;"/><path d="m336.61,245.57c12.25,8.86,13.17-.35,13.51,23.04q-6.75-11.52-13.51-23.04Z" style="fill:#f7d896; stroke-width:0px;"/><path d="m340.18,313.9c.74,1.34,2.8,3.7,3.97,5.56l-2.38,7.95c-4.37-4.67-7.2-10.28-11.12-15.1l9.54,1.59Z" style="fill:#f2c69a; stroke-width:0px;"/><path d="m391.83,278.15h-2.38c-.85-5.09-26.84-19.89-17.88-18.28,1.16.21,18.15,10.13,19.47,13.11.88,1.98.73,3.12.79,5.17Z" style="fill:#622b45; stroke-width:0px;"/><path d="m339.79,337.74c2.42-.25,7.04.95,7.55,3.58,1.27,6.58-7.26-5.14-2.78,7.55-5.16-1.8-16.09-9.97-4.77-11.12Z" style="fill:#792b47; stroke-width:0px;"/><path d="m569.04,278.15c-5.66,6.39-10.78,12.55-17.88,17.48.37-3.52,2.82-7.85,4.37-11.12q6.75-3.18,13.51-6.36Z" style="fill:#f7d896; stroke-width:0px;"/><path d="m341.77,327.41l2.38-7.95c2.59,4.1,10.67,6.62,5.17,15.89-2.14-3.04-5.02-5.25-7.55-7.95Z" style="fill:#a45b5c; stroke-width:0px;"/><path d="m541.62,348.07c.59.29.51,2.14.4,2.78-1.4,7.69-22.9,25.19-.4-2.78Z" style="fill:#4e1e36; stroke-width:0px;"/><path d="m484.41,265.43c10.01-1.44-11.93,14.37-7.55,4.37.18-.4,7.12-4.31,7.55-4.37Z" style="fill:#4e1e36; stroke-width:0px;"/><path d="m391.83,278.15c.34,10.45-9.02,26.27-2.38,0h2.38Z" style="fill:#be6b6e; stroke-width:0px;"/><path d="m513.81,158.16c-6.13,16.07-14.2,18.23-.4.4l.4-.4Z" style="fill:#403044; stroke-width:0px;"/><path d="m371.57,174.84c20.48-3.18,41.79,17.08,28.61,14.3-1.39-.29-13.04-12.87-17.48-11.12-.63.25,1.46,2.24-.79,3.18-.63.26-5.4-.68-12.71,3.97-2.27,1.45-6.34,7.15-8.74,8.74-21.62,14.32-5.54-16.48,11.12-19.07Z" style="fill:#e5b56d; stroke-width:0px;"/><path d="m391.44,182.79c10.26,12.91-.33,17.23-3.58,21.85-2.57,3.66-5.37,13.22-11.52,12.32-8.07-1.19-3.06-18.47.79-11.12,5.8-10.83,16.36-17.68,14.3-23.04Z" style="fill:#e5b56d; stroke-width:0px;"/><path d="m410.51,216.16c.93-.25,1.41.26,1.19,1.19-7,9.6-17.82,17.95-30.2,16.69,8.75-15.62,5.5-9.48,6.36-7.95,2.01,3.6,12.36-6.95,13.11-6.75.58.15-2.49,9.47,4.77-2.38-1.55,10.5,3.64-.49,4.77-.79Z" style="fill:#e5b56d; stroke-width:0px;"/><path d="m368.39,225.7c3.61.4,11.44.04,9.93,5.17-.86,2.93-9.09-1.54-9.93-5.17Z" style="fill:#e5b56d; stroke-width:0px;"/><path d="m405.74,192.33c2.09-.21,8.1,8.16,6.36,8.74l-6.36-8.74Z" style="fill:#d0bd8b; stroke-width:0px;"/><path d="m528.11,310.73c.51-.1,1.05-.07,1.19.4-7.73,10.79-3.87.11-1.19-.4Z" style="fill:#978673; stroke-width:0px;"/><path d="m475.27,310.73c3.69-.83,6.03-2.25,8.74-4.77,4.75-.67-2.73,14.19-3.58,14.3l-5.17-9.54Z" style="fill:#012227; stroke-width:0px;"/><path d="m395.81,292.45c-.55,2.24.4,7.92,0,11.12-.22-.1-.57.1-.79,0-2.23-1.01,1.5-4.35-4.77,1.19-.12-4.38,2.31-8.19,3.18-12.32h2.38Z" style="fill:#c2bf7b; stroke-width:0px;"/><path d="m482.42,293.24c-.65.05-.88.55-1.59.79-.76-43.2.78-2.97,1.59-.79Z" style="fill:#d0bd8b; stroke-width:0px;"/><path d="m472.89,292.45c.21,4.29-.16,7.69-.79,11.92h-.79c.09-3.97-.13-7.95,0-11.92.32-9.84,1.11-9.77,1.59,0Z" style="fill:#8ab483; stroke-width:0px;"/><path d="m486.4,305.16l.79-7.95c1.27,2.3.79,5.94-.79,7.95Z" style="fill:#75936d; stroke-width:0px;"/><path d="m469.71,311.52c1.2,4.35-2.32,6.04-1.59.4.27-.72,1.54-.29,1.59-.4Z" style="fill:#b0c795; stroke-width:0px;"/><path d="m529.7,229.67c.51-.1,1.05-.07,1.19.4,1.11,3.64-8.3,1.06-1.19-.4Z" style="fill:#646961; stroke-width:0px;"/><path d="m477.65,177.23c3.28-.66,8.61,1.67,11.12,3.97,7.8,7.16,6.23,25.11,4.37,12.71-5.36,11.45-6.77.5-6.36,8.74-8.89-9.15-.34,3.72-.4,5.17-.03.69-5.05,12.24-5.56,12.71-6.48,6.02-26.17-4.53-24.63-21.46.69-7.58,9.11-19.31,17.88-17.88,1.12-.5-1.5-2.96,3.58-3.97Z" style="fill:#012227; stroke-width:0px;"/><path d="m490.37,179.61l-1.59,1.59c-2.51-2.3-7.85-4.63-11.12-3.97l-.79-2.38c3.73.18,10.27,2.7,13.51,4.77Z" style="fill:#d0bd8b; stroke-width:0px;"/><path d="m476.86,174.84l.79,2.38c-5.08,1.02-2.46,3.47-3.58,3.97-8.77-1.43-17.19,10.3-17.88,17.88-1.54,16.92,18.15,27.48,24.63,21.46.51-.47,5.53-12.02,5.56-12.71.06-1.44-8.49-14.31.4-5.17-.41-8.24.99,2.71,6.36-8.74,1.86,12.4,3.43-5.56-4.37-12.71l1.59-1.59c24.87,15.86,6.25,60.05-26.62,46.88-24.41-9.78-18.8-53.17,13.11-51.65Z" style="fill:#e5b56d; stroke-width:0px;"/><path d="m493.15,204.24c2.05-.1.95.75-1.19,2.78-5.82,5.51-1.08-2.67,1.19-2.78Z" style="fill:#4e3e1b; stroke-width:0px;"/><path d="m338.59,310.73l-11.92-3.18c-.22-.29-2.02-1.74-4.77-5.56,5.9-5.21,12.33,3.45,11.92.4-4.92-5.75-7.08-7.4-14.3-9.14-1.61-.39-3.04-1.07-4.77-.79-.18-.31-2.15-1.79-3.97-5.96-.9-2.07-1.07-5.58-1.59-7.55,2.62-4.32,9.61-7.82,9.54-11.92,3.24.87,13.8-.75,23.04,11.52,7.81,10.37,8.41,25.24,8.34,37.74-8.91-10.75-8.24-28.32-25.43-30.2-14.57-1.59-3.39,1.36.79,3.97,13.2,8.23,11.35,17.54,13.11,20.66Z" style="fill:#f7d896; stroke-width:0px;"/><path d="m321.91,301.98c-.18-.25-1.29-.82-3.97-4.77-1.45-4.23-.38-2.25,1.59-3.97,7.22,1.74,9.38,3.39,14.3,9.14.41,3.05-6.01-5.6-11.92-.4Z" style="fill:#be6b6e; stroke-width:0px;"/><path d="m338.59,310.73c.98,1.74,1.41,2.85,1.59,3.18l-9.54-1.59c-1.38-1.69-2.43-2.73-3.97-4.77l11.92,3.18Z" style="fill:#cd8375; stroke-width:0px;"/><path d="m319.52,293.24c-1.97,1.72-3.04-.26-1.59,3.97-1.22-1.79-2.01-2.76-3.18-4.77,1.73-.28,3.16.41,4.77.79Z" style="fill:#d39278; stroke-width:0px;"/><path d="m320.72,270.2c6.54,3.01,10.57,14.2,7.15,15.1-2.51.66-1.95-8.44-8.34-13.91l1.19-1.19Z" style="fill:#d39278; stroke-width:0px;"/><path d="m457.79,292.45c1.24-.02-.09-1.8,2.78-1.59,3.78,1.4,7.46,4.18,10.73,1.59-.13,3.97.09,7.95,0,11.92-2.37-5.34-7.73-5.69-13.51-5.56-.83-7.98-3.86-2.4-.79,5.56-.63.34-5.26-.21-7.15,0-.38-3.48-.68-6.82-.79-10.33-.32-10.03.02-20.16,0-30.2,3.5,2.5,2.5,18.93,2.38,28.21.48.72,5.17.42,6.36.4Z" style="fill:#023e34; stroke-width:0px;"/><path d="m480.83,294.04c.71-.24.94-.74,1.59-.79.58,1.57,4.26,3.05,4.77,3.97l-.79,7.95c-.09.11-.96-.53-2.38.79-2.71,2.52-5.05,3.94-8.74,4.77-1.6.36-3.15.52-4.77,0,2.86-6.1,1.35-4.77,1.59-6.36.63-4.23,1.01-7.63.79-11.92,3.13-1.42,5.99,2.25,7.95,1.59Z" style="fill:#023e34; stroke-width:0px;"/><path d="m449.84,332.18c-4.17,13.49-3.28-8.86-6.75,7.95l-4.37-11.12c.71-1.89,2.14-3.14,1.59-5.56.83.56,1.63,2.08,2.78,2.38,3.66.96,10.74-6.54,6.75,6.36Z" style="fill:#08563b; stroke-width:0px;"/><path d="m401.37,305.16c0,.06.65-.28.79.79.06.43-1.1,5.01,1.59,7.95-1.02,1.48-.91,3.09-.79,4.77l-3.18-.79c-.74-3.15-2.01-4.6-3.18-7.15-.25-.55-.73,1.9-1.59-3.18-.24-1.43-1.25-2.54,0-3.97.22.1.57-.1.79,0,1.27.57,3.56,2.85,5.56,1.59Z" style="fill:#023e34; stroke-width:0px;"/><path d="m440.31,323.44c.55,2.43-.88,3.68-1.59,5.56-.62,1.64-.54,2.46-.79,3.18-.53,1.48-1.55,3.39-2.38,4.77-.02-3.25-1.14-15.37,2.78-15.89,2.1-.28,1.86,2.3,1.99,2.38Z" style="fill:#e5b56d; stroke-width:0px;"/><path d="m421.24,321.06c-4.6-7.1-2.37,3.23-2.38,5.56-.14,26.58-2.01,44.44,3.97,19.07h2.38c-1.9,9.63-7.91,22.71-10.33,4.37-.65-4.96.48-12.45,0-17.88v-14.3c4.43,5.27,1.04-3.19,5.96-.79,2.02.98.35,3.78.4,3.97Z" style="fill:#13251a; stroke-width:0px;"/><path d="m404.55,314.7c.13,2.63-.18,5.32,0,7.95.36,5.21.71,10.75,1.59,15.89-.87,3.6-2.24,4.12,0,4.77-8.22,12.25-4.48,3.27-4.77-6.36-.04-1.32.07-2.66,0-3.97,4.44,1.13,1.93-9.24,1.59-14.3-.11-1.68-.23-3.28.79-4.77.19.21.58.6.79.79Z" style="fill:#201d2a; stroke-width:0px;"/><path d="m414.08,317.08c-5.72-1.32-.6,9.62-1.59,15.1-.11.63-5.49,9.84-6.36,11.12-2.24-.65-.87-1.17,0-4.77,2.3-9.49,2.07-13.42,2.38-15.1.25-1.35.43-4.92.79-5.56,2.41-4.29,3.17-2.14,4.77-.79Z" style="fill:#13251a; stroke-width:0px;"/><path d="m414.08,317.08s.76.75.79.79v14.3h-2.38c.99-5.47-4.13-16.42,1.59-15.1Z" style="fill:#e5b56d; stroke-width:0px;"/><path d="m443.49,294.04c.61,2.98.05,7.19.79,10.33-2.85-1.37-.58-5.8-6.36-3.97.27-6.73-2.38-5.97-2.38-6.36,0-.6,3.39-9.78,4.37-11.12.31,2.97,3.46,10.55,3.58,11.12Z" style="fill:#012227; stroke-width:0px;"/><path d="m401.37,293.24c.54,3.01-.45,8.4,0,11.92-2,1.26-4.29-1.02-5.56-1.59.4-3.21-.55-8.88,0-11.12,1.42-5.73,4.48-5.22,5.56.79Z" style="fill:#023e34; stroke-width:0px;"/><path d="m432.36,294.04c.26,1.65-2.23,6.83,0,11.12-1.85-.54-3.86-4.05-4.37-3.97-.8.11.28,1.66-1.19,2.38.8-2.87-.82-9.06-.79-9.54.06-1.27,1.48-8.02,2.78-7.95.53,2.18,3.38,6.7,3.58,7.95Z" style="fill:#0f2e2b; stroke-width:0px;"/><path d="m420.44,294.04c.61,2.9-1.25,7.3,1.59,11.12-.31-.05-5.59-2.47-5.56-2.78.04-.39,6.6-2.69,1.99-5.17-5.2-2.78-2.58,5.2-4.37,7.95.28-3.59-.39-7.6,0-11.12.21-1.93,2.28-9.54,2.78-9.54.81,3.15,3.18,7.66,3.58,9.54Z" style="fill:#0f2e2b; stroke-width:0px;"/><path d="m426,294.04c-.02.48,1.6,6.67.79,9.54-1.58.77-1.8,2.11-4.77,1.59-2.84-3.82-.98-8.22-1.59-11.12h5.56Z" style="fill:#e5b56d; stroke-width:0px;"/><path d="m435.54,294.04c0,.38,2.65-.38,2.38,6.36-.2,5.07-.86,6.14-5.56,4.77-2.23-4.3.26-9.47,0-11.12h3.18Z" style="fill:#e5b56d; stroke-width:0px;"/><path d="m449.05,294.04c.11,3.51.41,6.85.79,10.33-1.03.11-1.82,1.8-5.56,0-.74-3.14-.18-7.35-.79-10.33h5.56Z" style="fill:#dfc076; stroke-width:0px;"/><path d="m405.34,294.04c-.72,6.35,2.03,12.69-3.18,11.92-.15-1.08-.79-.74-.79-.79-.45-3.52.54-8.91,0-11.92l3.97.79Z" style="fill:#d0bd8b; stroke-width:0px;"/><path d="m409.32,317.88c-.36.65-.54,4.21-.79,5.56l-3.97-.79c-.18-2.62.13-5.31,0-7.95.23.21,4.88-.17,4.77,3.18Z" style="fill:#f7b471; stroke-width:0px;"/><path d="m421.24,321.06c.43,1.6.52,2.44.79,3.97l-3.18,1.59c.01-2.33-2.22-12.66,2.38-5.56Z" style="fill:#f7d896; stroke-width:0px;"/><path d="m457.79,298.81c.14,1.3.46,4.87-.79,5.56-3.06-7.97-.04-13.54.79-5.56Z" style="fill:#c2bf7b; stroke-width:0px;"/><path d="m409.32,294.04c.44,6.17-.55,19.27,4.77,11.12,1.79-2.75-.83-10.73,4.37-7.95,4.61,2.47-1.95,4.78-1.99,5.17-.03.31,5.26,2.73,5.56,2.78,2.97.52,3.19-.82,4.77-1.59,1.47-.72.39-2.27,1.19-2.38.51-.07,2.52,3.43,4.37,3.97,4.71,1.38,5.36.3,5.56-4.77,5.78-1.82,3.51,2.6,6.36,3.97,3.74,1.8,4.53.11,5.56,0,1.89-.21,6.52.34,7.15,0,1.26-.69.93-4.26.79-5.56,5.78-.13,11.14.22,13.51,5.56h.79c-.24,1.59,1.28.25-1.59,6.36-.52,1.11-.77.74-.79.79-.73-2.65-3.67-.73-3.97,0-.48,1.15.19,11.08,2.38,10.33-.39,4.1-3.5,11.37-4.37,2.38-5,3.84-4.13,14.85-5.17,2.78l-3.97-.4c4.24-19.18-3.68-9.03-2.38,6.36-1.43.08-1.47-.5-2.38-.79,3.98-12.9-3.1-5.4-6.75-6.36-1.15-.3-1.95-1.82-2.78-2.38-.13-.09.12-2.66-1.99-2.38-3.93.52-2.8,12.64-2.78,15.89,0,.26,0,.53,0,.79-5.19-.57,2.99-16.86-5.56-12.71-4.53-13.6-3.74,8.56-3.97,11.12-.14.44-3.44-.7-.79,7.95-.08.5.1,1.1,0,1.59h-2.38c1.89-6.32.36-14.24-.79-20.66-.28-1.54-.37-2.37-.79-3.97-.05-.19,1.62-2.99-.4-3.97-4.92-2.4-1.53,6.07-5.96.79-.04-.04-.75-.76-.79-.79-1.6-1.34-2.36-3.5-4.77.79.12-3.35-4.54-2.96-4.77-3.18-.21-.2-.6-.58-.79-.79-2.68-2.93-1.53-7.52-1.59-7.95,5.21.77,2.45-5.57,3.18-11.92,1.04-9.1,2.15-17.83,1.99-27.02,1.7,8.92,1.34,18.02,1.99,27.02Z" style="fill:#08563b; stroke-width:0px;"/><path d="m426,336.15c-.27,2.86-.32,4.98-.79,7.95-2.64-8.64.65-7.51.79-7.95Z" style="fill:#231416; stroke-width:0px;"/><path d="m454.61,326.62c-.83,3.77-.67,6.44-.79,6.75-.63,1.65-1.51-.4-1.59-.4-1.29-15.39,6.63-25.54,2.38-6.36Z" style="fill:#f2eaa4; stroke-width:0px;"/><path d="m468.12,321.85c-2.19.75-2.86-9.18-2.38-10.33,1.78.26,2.56,8.44,2.38,10.33Z" style="fill:#f2eaa4; stroke-width:0px;"/><path d="m429.98,325.03c.27.82.55,1.01.79,2.38-2.37-2.22-3.06,3.37-4.77,8.74.24-2.56-.56-24.72,3.97-11.12Z" style="fill:#f7d896; stroke-width:0px;"/><path d="m414.08,294.04c-.39,3.53.28,7.53,0,11.12-5.32,8.15-4.33-4.96-4.77-11.12h4.77Z" style="fill:#dfc076; stroke-width:0px;"/><path d="m461.36,313.11c1.99,0,1.34,4.4.79,4.77-2.62,1.79-2.55-4.77-.79-4.77Z" style="fill:#f2eaa4; stroke-width:0px;"/><path d="m458.98,316.29c1.65.73-.47,9.09-1.19,3.58-.17-1.31,1.01-3.66,1.19-3.58Z" style="fill:#f2eaa4; stroke-width:0px;"/><path d="m402.96,318.67c.35,5.06,2.85,15.43-1.59,14.3-.23-4.21-.7-11.31-1.59-15.1l3.18.79Z" style="fill:#012227; stroke-width:0px;"/><path d="m408.52,323.44c-.31,1.68-.09,5.61-2.38,15.1-.88-5.14-1.22-10.69-1.59-15.89l3.97.79Z" style="fill:#d17458; stroke-width:0px;"/><path d="m452.23,239.21c.28,5.59-1.08,11.12-3.97,15.89-2.69,4.44-8.29,7.82-11.52,11.92-.59-.12-3.82-8.15-4.37-9.54-.15-.37.14-1.21,0-1.59-.49-1.28-.63-4.64-1.99-3.97-.98,2.39-3.02,7.94-4.37,9.54-.52.62-4.58,4.16-5.17,3.97-22.25-28.29,1.37-37.59,7.95-65.95,1.49-.76,6.14,11.82,9.93,17.88,3.96,6.34,13.21,15.76,13.51,21.85Z" style="fill:#0b1d26; stroke-width:0px;"/><path d="m432.36,255.9c-3.18.06-4.65,3.68-5.56,6.36l-.79-.79c1.35-1.6,3.39-7.15,4.37-9.54,1.35-.67,1.5,2.7,1.99,3.97Z" style="fill:#b97d5c; stroke-width:0px;"/><path d="m431.17,224.91c5.27,7.43,9.34,14.52,7.15,23.84l-7.15-12.71c-12.6,26.66-11.13-1.62,0-11.12Z" style="fill:#e5b56d; stroke-width:0px;"/></g></svg>