<?xml version="1.0" encoding="UTF-8"?><svg id="b" xmlns="http://www.w3.org/2000/svg" xmlns:xlink="http://www.w3.org/1999/xlink" viewBox="0 0 601.84 602.35"><defs><linearGradient id="e" x1="682.79" y1="338.28" x2="494.12" y2="465.25" gradientUnits="userSpaceOnUse"><stop offset="0" stop-color="#6c6867"/><stop offset="1" stop-color="#655362"/></linearGradient></defs><g id="c"><g id="d"><rect y="0" width="601.84" height="602.35" style="fill:#a76871; stroke-width:0px;"/><path d="m17.12.53C-.04,34.7.34,90.4,18.59,123.35c17.81-9.64,38.18-11.01,50.83,7.35,8.06,11.69,3.38,16.12,6.46,1.18,8.6-41.67,54.85-22.65,57.59,3.53,1.62,15.48-12.96,41.2-18.22,56.41,7.59,4.81,17.18,13.85,22.33,21.15,19.26,27.36,3.78,46.3,27.62,53.18-.22.14-2.12,2.07-4.11,3.23,1.74,2.16,10.72,9.29,11.16,10.28.08.19-.05.74,0,1.18-3.24-1.03-6.8-1.39-9.7-3.53-5.79,5-11.42,8.4-19.1,9.7,18.21,11.21,36.61,22.22,57,29.09,1.76,4.2,3.03,8.69,4.7,12.93l-.59,1.18c-.26-.74-1.63-2.06-1.76-2.35-1.08-2.35-1.16-4.68-2.06-7.05-22.28-5.47-50.62-26.34-62.88-32.32-1.62-.79-5.28-2.48-6.76-2.06,24.22,15.88,46.26,35.64,72.28,48.48.13,1.34-.17,2.78,0,4.11-23.69-7.2-58.3-43.08-80.8-45.84-29.54-3.62-53.43,15.63-71.98,36.14-1.84,2.03-18.31,20.75-16.16,22.04,55.51-36.92,131.76-10,157.78,49.95-9.85,13.09-1.35,26.72-34.08,51.71-1.73-2.8,2-11.07-1.18-11.75,3.11-9,10.6-25.13-2.35-14.69,2.42-14.21-6.05-36.55-16.75-46.42-39.54-36.49-121.17.61-109.59,52.59,1.89,8.47,14.51,31.83,22.04,28.5,6.97-3.08-3.19-6.2-8.52-14.98-27.9-45.93,49.67-91.41,85.5-70.22,22.87,13.52,22.73,38.24,22.04,61.11-.2,6.46.43,17.68-1.18,23.51-15.1,3.7-25.22,2.89-35.26,17.04v20.27c-.88.67-1.16-1.24-1.76-2.06-1.05-1.42-2.08-3.16-2.94-4.7-.98-1.76-1.76-4.22-2.35-6.17-1.47-2.32-9.96,7.46-10.58,9.4-1.9,5.97.52,8.08.59,8.52.62,3.98,4.41,16.5,5.88,19.98-.53-.29-1.36-.78-1.76-1.18-1.72-1.71-3.29-3.91-4.7-5.88-4.99-6.95-8.62-14.95-14.69-21.15,0-2.1.47-4.37-.88-5.29-23.79,19.81-10.15,32.07-21.15,4.11l-7.93,8.23c-.42-10.17,2.02-12.72-4.7-9.4-.1-1.35-.64-10.46-1.47-10.58-2.69,1.56-14.55,14.91-15.57,15.28-1.06.38-4.49-.38-5.58,0-.49.17-1.67,2.62-2.64,3.53-1.05.98-7.22,7.87-7.05,8.52,2.31,1.83,5.19,2.87,7.64,4.41,2.4,1.5,5.48,4.08,8.23,4.7l-.59,3.53c-3.48-2.03-13.39-3.78-17.34-7.05L.08,531.75c-.03-14.49.02-28.99,0-43.48,9.81-8.59,9.5-28.62,0-37.02-.02-25.46.01-50.93,0-76.39q6.76-6.9,13.52-13.81c-2.43-22.58,2.34-51.36.59-72.28-1.88-22.49-13.79-41.04-4.11-87.56,1.87-9,9.77-29.78,9.99-31.73,1.17-10.45-6.68-15.21-3.53-33.49Q8.31,115.86.08,95.73C.11,75.75-.04,55.77.08,35.79,3.55,23.72,6.99,11.63,13.01.53c1.37-.02,2.74.02,4.11,0Z" style="fill:#a76871; stroke-width:0px;"/><path d="m553.63.53c.88.76-.83,2.7-1.76,3.82-4.47,5.37-38.21,42.89-40.84,44.37-13.62,7.64-26.19-5.04-32.32-6.46-26.53-6.18-50.84,36.44-22.33,50.54,6.04,2.99,21.71,4.75,24.39,17.92,2.42,11.91-5.7,37.93,19.98,59.94-11.16,3.45-18.12,13.29-27.32,19.69-12.51,8.69-26.83,15.39-39.08,24.68.18-.44.99-3.9,2.35-7.64,2.97-8.12,6-16.21,8.81-24.39,1-3.78.96-6.97,1.18-7.93,8.28-37.19,5.16-66.26-19.39-96.67C376.5,15.51,267.76,3.12,194.59,56.36c-14.73,10.71-31.14,25.99-40.55,41.72Q101.74,49.31,49.44.53C217.46-.16,385.6-.19,553.63.53Z" style="fill:#6b6665; stroke-width:0px;"/><path d="m559.5.53c-19.21,23.09-58.78,61.86-69.34,88.44-12.63,31.79-5.61,76.16,31.44,87.26,2.06-.62,3.01-23.16,3.82-26.74-16.58-8.07-19.5-33.09-8.23-46.42,10.85-12.84,47.76-23.26,44.95,4.41,6.58-5.33,15.18-7.46,23.51-7.05,17.35-31.66,6.9-71.58-12.63-99.9,5.68.05,11.37-.11,17.04,0,4.99,18.22,9.1,36.52,11.75,55.24.04,10.19-.02,20.37,0,30.56-9.12,25.74-1.84,53.11-4.7,79.62l4.7,4.99c0,9.4,0,18.8,0,28.21l-9.99,8.52c-3.67,77.4-7.57,154.86-19.39,231.53-2.81,18.23-5.92,37.09-10.58,54.94-.22.85-.63,2.74-1.76,2.35-1.07-.56-3.75-2.16-4.7-2.35l2.06-19.39c-13.25,12.26-28.8,5.76-33.49-11.16-5.9,4.41-13.33,4.57-20.27,3.82-5.84,16.82,3.59,23.48,5.29,26.74-4.29-.29-3.89,11.16-5.88,18.8-.05.18.05.4,0,.59-3.48-5.7-6-12.58-12.34-15.87-1.92-2.74-.8-7.55-2.94-12.05-3.03-6.38-3.82-3.05-4.11-3.23-.14-.09-.45.09-.59,0-5.47-3.42-12.97-11.75-19.1-15.28-18.78-10.81-18.97-1.82,2.35-9.99,29.48-11.3,39.42-42.43,28.5-70.81-15.16-39.41-65.67-44.09-96.37-20.27.08-2.74-.11-5.49,0-8.23,24.08-14.81,56.46-16.16,79.62,1.18,33.57,25.12,35.48,92.6-14.98,104.3,38.54,22.29,29.17-29.86,58.76-37.61-2.99-13.34-25.93-64.79-35.55-70.22-5.81-3.28-20.54-3.22-2.35-4.7,21.03-10.01,3.62-34.66-13.52-19.39-2.67.12,2.76-6.31,7.05-7.05,17.5-3.04,26.53,16.91,15.57,32.03,17.24,17.95,34.24,63.58,41.72,74.04,5.35,7.48,14.88,11.02,19.39,19.39-.28,3.18-6.86-7.35-14.4-6.17-6.71,1.05-20.6,20.87-2.35,25.27,23.79,5.73,24.26-15.65,29.09-42.6,12.35-68.92,15.79-147.87,19.39-218.01-.3-.42-9.42-1.15-10.28-.88-1.45.44-14.92,15.34-21.74,21.15-39.72,33.87-109.23,81.18-154.25,110.47.25-2.42.89-4.71,1.18-7.05.26-2.11.57-2.79.59-2.94,35.46-17.96,66.06-42.96,97.84-66.4,13.78-10.16,63.44-41.37,67.28-55.53,5.75-21.17-21.08-25.81-36.14-24.97-1.65,23.84-8.48,58.77-29.38,73.45-11.22,7.88-46.16,17.97-59.06,15.28-7.51-1.57-7.42-8.04-4.11-13.52,8.93-8.17,14.96-40.56,24.09-52.01-.88-1.68-29.03,15.24-30.56,17.92.31-.73,1.49-4.58,2.94-8.23,12.25-9.29,26.57-15.99,39.08-24.68,9.21-6.4,16.16-16.23,27.32-19.69-25.68-22.01-17.56-48.02-19.98-59.94-2.68-13.18-18.34-14.93-24.39-17.92-28.51-14.09-4.2-56.72,22.33-50.54,6.13,1.43,18.7,14.11,32.32,6.46,2.63-1.48,36.37-39,40.84-44.37.93-1.12,2.65-3.06,1.76-3.82,1.96,0,3.92,0,5.88,0Z" style="fill:#a76871; stroke-width:0px;"/><path d="m41.8.53c35.59,35.34,69.89,72.19,109.3,103.42-2.86,5.47-5.73,11.77-7.64,17.63-10.04,30.87-5.14,49.79,5.88,78.74.06.15-1.23.16,0,3.23.46,1.16,9.81,19.89,11.16,22.33,4.64,8.39,10.32,16.28,15.87,24.09.59,3.86-6.69,10.75-6.46,13.81-3.56,2.23-4.48,2.21-4.7,2.35-23.84-6.88-8.35-25.82-27.62-53.18-5.15-7.31-14.74-16.34-22.33-21.15,5.25-15.22,19.83-40.93,18.22-56.41-2.74-26.18-48.99-45.19-57.59-3.53-3.08,14.95,1.59,10.51-6.46-1.18-12.65-18.35-33.02-16.99-50.83-7.35C.34,90.4-.04,34.7,17.12.53c8.22-.12,16.46.04,24.68,0Z" style="fill:#6b6665; stroke-width:0px;"/><path d="m573.02.53c19.53,28.32,29.98,68.24,12.63,99.9-8.32-.4-16.92,1.72-23.51,7.05,2.8-27.67-34.1-17.25-44.95-4.41-11.27,13.34-8.35,38.36,8.23,46.42-.81,3.58-1.76,26.12-3.82,26.74-37.05-11.1-44.07-55.47-31.44-87.26,10.56-26.58,50.13-65.35,69.34-88.44,4.5.02,9.01-.04,13.52,0Z" style="fill:#6b6665; stroke-width:0px;"/><path d="m601.81,199.15c.08,129.08-.06,258.17,0,387.25-16-15.12-27.47-.7-31.73,15.87-.39,0-.78,0-1.18,0-.36-3.43-.71-9.47-1.76-12.34.32-4.33,1.32-20.45,1.18-21.74,11.49-4.36,17.79-14.84,25.86-23.21-4.28-5.58-10.69-12.27-18.22-8.52.78-5.74-2.82-13.65-8.23-16.45.21-8.66,11.11-16.83,9.4-24.97-1.66-7.92-11.16-4.74-15.28-.88,4.66-17.85,7.77-36.72,10.58-54.94,11.82-76.67,15.72-154.13,19.39-231.53l9.99-8.52Z" style="fill:url(#e); stroke-width:0px;"/><path d="m.08,374.85C.03,281.81-.07,188.77.08,95.73q8.23,20.13,16.45,40.25c-3.16,18.29,4.69,23.04,3.53,33.49-.22,1.96-8.12,22.73-9.99,31.73-9.67,46.52,2.23,65.07,4.11,87.56,1.75,20.91-3.02,49.7-.59,72.28q-6.76,6.9-13.52,13.81Z" style="fill:#6b6665; stroke-width:0px;"/><path d="m49.44.53q52.3,48.77,104.6,97.55c-.57.95-2.02,4.13-2.94,5.88C111.69,72.72,77.39,35.87,41.8.53c2.55-.01,5.09.01,7.64,0Z" style="fill:#a76871; stroke-width:0px;"/><path d="m28.87,521.76c1.08.63,2.18.93,2.94,2.06l5.88,24.39c-1.96-2.37-3.9-4.7-5.88-7.05-3.54-4.21-5.73-7.9-10.28-11.75-1.12-.95-8.26-6.93-8.81-7.05-2.4-.55-6.29,5.56-6.76,7.35-3.68,13.9,5.64,4.72,17.63,23.21.67,1.04,1.52,3.97,2.35,5.29-1.04,4.62-3.25-1.86-5.88-2.94-.59-.82-6.88-9.32-7.64-7.93v2.35c2.93,4.56,8.76,21.03,9.4,22.04-.97,2.29-9,4.13-13.52,5.88-.36-.8-6.35-7.34-8.23-7.05-.09-12.93.03-25.86,0-38.78l11.46-17.04c3.95,3.27,13.86,5.02,17.34,7.05Z" style="fill:#6b6665; stroke-width:0px;"/><path d="m41.21,582.29c1.57,2.27,1.06,3.93,1.18,4.11-4.02,4.76-8.77,9.47-9.99,15.87-1.37,0-2.74.01-4.11,0,.93-10.77,4.9-12.53,4.7-13.22-1.59-5.42-11.97,10.61-11.75,13.22-1.57-.02-3.13.03-4.7,0l-2.06-9.4-4.99,9.4c-2.07-.06-4.54.22-6.46,0,1.81-8.6,9.39-15.48,5.29-24.68,4.52-1.74,12.55-3.59,13.52-5.88.08.12,1.37-.15,1.47,0,4.07,6.06,9.69,13.48,17.92,10.58Z" style="fill:#695361; stroke-width:0px;"/><path d="m601.81,170.95l-4.7-4.99c2.86-26.52-4.42-53.89,4.7-79.62.06,28.21-.02,56.41,0,84.62Z" style="fill:#6b6665; stroke-width:0px;"/><path d="m590.06.53c3.91.07,7.84-.05,11.75,0,.05,18.41-.06,36.83,0,55.24-2.66-18.72-6.76-37.01-11.75-55.24Z" style="fill:#6b6665; stroke-width:0px;"/><path d="m13.01.53C6.99,11.63,3.55,23.72.08,35.79.15,24.04.03,12.29.08.53c4.31-.05,8.62.07,12.93,0Z" style="fill:#6b6665; stroke-width:0px;"/><path d="m.08,488.27c-.02-12.34.01-24.68,0-37.02,9.5,8.4,9.81,28.43,0,37.02Z" style="fill:#6b6665; stroke-width:0px;"/><path d="m203.4,339.01c.16,1.33.4,2.77.59,4.11-.61,14.51.58,28.96.59,43.48-4.05,3.41-9.14,9.15-11.16,14.1-.26.07-1.14.54-1.18.59-26.02-59.94-102.27-86.87-157.78-49.95-2.15-1.28,14.32-20,16.16-22.04,18.55-20.51,42.44-39.76,71.98-36.14,22.5,2.75,57.11,38.64,80.8,45.84Z" style="fill:#6b6665; stroke-width:0px;"/><path d="m72.06,153.9q17.78,19.54,35.55,39.08c-7.2,22.08-49.38,2.84-53.47,35.26-4.22,33.35,28.61,44.84,39.37,26.44,10.07-17.21-11.24-21.15,11.46-46.13,32.47,4.08,45.87,74.59,5.29,71.1-4.92-.42-39.79-9.28-44.07-11.75-17.51-10.13-38.39-53.03-28.5-79.62,6.64-17.86,25.45-13.77,34.38-34.38Z" style="fill:#6b6665; stroke-width:0px;"/><path d="m25.05,176.23c.82-.21,6.5,3.66,6.76,4.41.89,2.52-5.94,25.36,2.94,51.71,8.56,25.38,39.15,54.02,31.14,72.28-1.4,3.19-36.51,33.2-39.08,33.2-7.61,0-1.29-37.11-2.06-47.89-1.33-18.66-14.5-50.73-8.23-90.5.49-3.09,5.94-22.56,8.52-23.21Z" style="fill:#6b6665; stroke-width:0px;"/><path d="m93.81,115.12c14.72-2.26,24.3,10.04,23.8,23.8-21.55-2.29-14.28,27.6,1.76,14.69.16,12.55-4.11,24.49-9.7,35.55-5.31-6.05-20.05-22.21-23.21-27.32-11.84-19.13-8.3-44.32,7.35-46.72Z" style="fill:#6b6665; stroke-width:0px;"/><path d="m154.63,426.56c-.71,4.19-4.24,5.41-3.53,12.93l-1.76-2.35c.7-22.88.83-47.59-22.04-61.11-35.83-21.19-113.4,24.29-85.5,70.22,5.33,8.78,15.49,11.9,8.52,14.98-7.53,3.33-20.15-20.03-22.04-28.5-11.58-51.98,70.06-89.08,109.59-52.59,10.7,9.87,19.17,32.21,16.75,46.42Z" style="fill:#6b6665; stroke-width:0px;"/><path d="m99.1,207.38c.33-.02.74-.11.88.29-8.33,13.74-18.57,19.97-19.39,21.15-5.73,8.24,5.39,13.11,5.88,14.69,4.03,13.14-24.51,14.31-27.62-5.29-4.4-27.73,22.69-25.93,30.26-27.32,2-.37,9.46-3.5,9.99-3.53Z" style="fill:#6b6665; stroke-width:0px;"/><path d="m123.19,412.46c10.01,10.35,6.85,29.08-4.11,37.61-12.99,10.12-39.35,7.94-52.3-1.76-13.32-9.99-10.71-24.67-5.29-25.86,8.4-1.84.08,13.02,18.22,23.51,26.29,15.2,55.44-3.19,43.48-33.49Z" style="fill:#6b6665; stroke-width:0px;"/><path d="m172.26,280.83c2.75.88,3.57,1.58,4.11,1.76-11.19,13.33-9.65,12.55,7.64,13.52.03,1.03.87,8,1.47,8.23,2.71-1.09,3.79-3.89,5.58-5.88,1.2.18,4.1,5.8,5.29,8.23,1.48,3,2.82,6.31,4.11,9.4-20.39-6.87-38.79-17.88-57-29.09,7.68-1.29,13.31-4.7,19.1-9.7,2.89,2.14,6.46,2.49,9.7,3.53Z" style="fill:#6b6665; stroke-width:0px;"/><path d="m202.81,327.84c-.46,2.42.36,4.76.59,7.05-26.02-12.84-48.05-32.6-72.28-48.48,1.48-.42,5.14,1.27,6.76,2.06,12.26,5.98,40.6,26.85,62.88,32.32.89,2.37.97,4.7,2.06,7.05Z" style="fill:#6b6665; stroke-width:0px;"/><path d="m95.28,515.88l-4.41,20.57c-2.77-4.85-5.3-9.32-9.11-13.52-1.17-1.28-2.13-3.26-4.11-3.53.63-2.34,2.94-22.03,2.94-24.68,6.07,6.21,9.7,14.2,14.69,21.15Z" style="fill:#6c5c60; stroke-width:0px;"/><path d="m137.59,471.22c-3.08,2.03.07,2.57-9.7,1.18l-2.64,8.23c-1.63-1.94-1.66-1.74-4.11-2.35-2.71-.68-5.46-.66-8.23-.59,10.04-14.15,20.16-13.34,35.26-17.04-.11.41.08,1.01,0,1.47-.27.64-9.38,8.32-10.58,9.11Z" style="fill:#6b6665; stroke-width:0px;"/><path d="m28.87,497.08c2.78,13.02,9.49,23.17.59,21.15-2.75-.62-5.83-3.2-8.23-4.7,1.6-1.32,1.72-14.72-.59-12.93.98-.91,2.15-3.35,2.64-3.53,1.09-.38,4.52.38,5.58,0Z" style="fill:#695361; stroke-width:0px;"/><path d="m112.61,196.21c2.12-.3,21.07,15.89,21.74,26.44-7.26-9.72-14.47-15.48-26.15-19.1.65-1.13,3.74-7.25,4.41-7.35Z" style="fill:#6b6665; stroke-width:0px;"/><path d="m156.98,441.26c-1.25,3.61-3.39,6.68-3.53,7.05-.88-2.94-2.06-5.71-2.35-8.81-.71-7.52,2.81-8.74,3.53-12.93,12.95-10.44,5.46,5.69,2.35,14.69Z" style="fill:#7c1352; stroke-width:0px;"/><path d="m65.01,274.96c7.38,5.34,16.54,6.85,24.97,9.7q-8.37,3.09-16.75,6.17l-8.23-15.87Z" style="fill:#6b6665; stroke-width:0px;"/><path d="m21.23,513.53c-2.45-1.53-5.33-2.58-7.64-4.41-.17-.65,6-7.54,7.05-8.52,2.31-1.8,2.19,11.6.59,12.93Z" style="fill:#6b6665; stroke-width:0px;"/><path d="m151.1,439.49c.29,3.11,1.47,5.87,2.35,8.81-.9,2.54-1.79,7.22-1.76,9.99-.25.15-1.32,2.8-3.53,2.35,1.6-5.83.98-17.04,1.18-23.51l1.76,2.35Z" style="fill:#7d5567; stroke-width:0px;"/><path d="m158.15,453.01c-.25.19-2.05,2.24-4.7,4.11-.57.41-1.16.81-1.76,1.18-.03-2.77.87-7.45,1.76-9.99.13-.37,2.28-3.44,3.53-7.05,3.17.68-.55,8.95,1.18,11.75Z" style="fill:#a02b70; stroke-width:0px;"/><path d="m398.49,357.81c.25-6.43.51-12.39,1.18-18.8,45.02-29.29,114.53-76.61,154.25-110.47,6.82-5.82,20.29-20.71,21.74-21.15.87-.27,9.99.46,10.28.88-3.6,70.14-7.05,149.09-19.39,218.01-4.83,26.95-5.29,48.34-29.09,42.6-18.25-4.4-4.36-24.21,2.35-25.27,7.53-1.18,14.12,9.35,14.4,6.17-4.51-8.37-14.04-11.91-19.39-19.39-7.48-10.47-24.48-56.09-41.72-74.04,10.96-15.11,1.93-35.07-15.57-32.03-4.29.75-9.72,7.17-7.05,7.05,17.14-15.27,34.54,9.38,13.52,19.39-18.19,1.48-3.45,1.42,2.35,4.7,9.62,5.43,32.56,56.88,35.55,70.22-29.59,7.75-20.22,59.9-58.76,37.61,50.46-11.71,48.56-79.18,14.98-104.3-23.16-17.33-55.55-15.99-79.62-1.18Z" style="fill:#6b6665; stroke-width:0px;"/><path d="m483.11,482.39q-6.76,12.93-13.52,25.86c.5-4.72.83-11.18.59-15.87-.08-1.46-1.09-11.03-2.06-11.16-2.24,1.26-6.33,7.91-6.76,8.23-2.09,1.55-4.84,1.79-7.64.59,2.99-4.73,5.11-10,9.4-13.81-20.65-13.2-18.89,1.87-18.8-19.1,29.3-.19,49.88-30.39,45.25-57.88-1.69-10.04-10.56-25.65-21.45-27.91-2.8.88,7.07,6.79,11.46,14.98,15.59,29.08-1.25,65.21-35.26,65.52.4-13.53,2.47-14.22-7.05,2.94-4.62-6.52-12.56-11.7-17.04-19.1-5.55-9.18-8.34-23.11-14.69-34.38,10.33-6.15,23.92-10.17,35.26-4.7,12.18,5.87,14.82,22.59-2.35,24.97,16.59,15.74,38.12-6.59,28.21-30.56-8.79-21.25-42.9-24.65-57.59-8.81,15.53-7.7,38.04-11.63,50.54,3.53,13.88,16.83,2.62,39.81-8.52,39.08-9.74-.64,11.28-8.05-1.47-24.97-1.4-1.86-3.92-3.2-5.88-4.41-19.78-12.25-35.47,3.1-38.49,2.94-2.05-.11-1.56-3.39-3.23-3.53-.83-.07-1.26-1.59-1.18,1.18-.02-.06-.07.26-.59-1.18,2.56-3.04-.47-5.47-2.35-8.23.23-.79.87-.35,1.18-3.53,15.24-18.67,42.45-26.08,64.93-17.04,2.04.82,9.01,7.07,9.11,3.82.08-2.63-14.47-9.52-17.92-10.28-20.86-4.59-43.44,2.37-56.71,19.39.08-4.3-.13-8.63,0-12.93,30.7-23.81,81.21-19.13,96.37,20.27,10.92,28.38.98,59.51-28.5,70.81-21.32,8.17-21.13-.82-2.35,9.99,6.13,3.53,13.63,11.86,19.1,15.28Z" style="fill:#6b6665; stroke-width:0px;"/><path d="m401.43,329.02c1.09-8.22,3.29-16.52,2.94-24.68.53,1.02,1.31,1.99,1.18,3.23h1.18l8.23-16.16c6.39.95,13.27,8.93,11.75-8.81.78.18,2.46.16,2.35-.59,8.87,2.24,15.78-1.92,12.93-11.16,12.89,2.69,47.84-7.39,59.06-15.28,20.91-14.69,27.73-49.62,29.38-73.45,15.06-.83,41.89,3.8,36.14,24.97-3.85,14.16-53.51,45.37-67.28,55.53-31.78,23.44-62.38,48.44-97.84,66.4Z" style="fill:#6b6665; stroke-width:0px;"/><path d="m575.08,107.48c7.61-.71,9.08,5.89,10.28,12.05,7.74,39.65-14.41,62.06-53.77,57.29,1.02-20.3,13.31-49,29.38-61.7,2.49-1.96,11.39-7.39,14.1-7.64Z" style="fill:#6b6665; stroke-width:0px;"/><path d="m479.29,200.91c28.32-2.57,22.05,40.07,11.16,45.84-10.54,5.59-27.15-10.09-35.55-16.16,3.52-12.17,9.8-28.35,24.39-29.68Z" style="fill:#6b6665; stroke-width:0px;"/><path d="m501.03,176.23c7.04-.7,14,1.94,19.1,6.76.92,23.68-3.77,63.56-29.09,73.16,12.53-10.71,20.29-50.51,1.18-57-6.92-2.35-17.99.05-17.92-.88,8.08-7.18,14.97-20.87,26.74-22.04Z" style="fill:#6b6665; stroke-width:0px;"/><path d="m555.39,494.14c-1.16-.23-2.83.16-4.11,0-.14-.34-3.74-5.29-4.41-5.88-1.23-1.08-9.36-5.42-10.58-4.7.46,5.69,2.79,15.39.29,17.63-4.39,1.86-5.49,12.87-4.11,16.45q-9.11-6.46-18.22-12.93c-1.83-3.94-3.3-6.77-5.29-10.58-1.7-3.26-11.13-9.92-5.29-26.74,6.94.75,14.37.59,20.27-3.82,4.7,16.92,20.25,23.42,33.49,11.16l-2.06,19.39Z" style="fill:#6b6665; stroke-width:0px;"/><path d="m437.86,257.33c-8.84,8.08-15.74,3.69-21.15-5.29,2.97-4.73,2.75-7.27,2.94-7.64.04-.08.9.25,1.18-.29,2.78-5.52,8.91-16.94,10.58-20.86,1.53-2.69,29.68-19.6,30.56-17.92-9.13,11.45-15.16,43.83-24.09,52.01Z" style="fill:#6b6665; stroke-width:0px;"/><path d="m546.87,94.55c5.77-.15,12.5,4.86,9.7,10.87-.65,1.4-12.91,8.17-21.15,22.33-6.05,10.39-3.4,15.52-9.7,13.81-10.78-2.93-6.15-36.57,12.93-44.66,1.07-.45,7.78-2.34,8.23-2.35Z" style="fill:#6b6665; stroke-width:0px;"/><path d="m454.02,236.17c9.64,7.14,19.11,14.36,30.26,19.1.26,1.36-12.57,6.92-14.4,7.35-24.74,5.72-22-2.82-15.87-26.44Z" style="fill:#6b6665; stroke-width:0px;"/><path d="m503.09,513.53c-.25.94-.36,2.06-.59,2.94-2.17,8.31-7.05,16.22-7.35,25.27-1.75-7.64-1.56-16.41-8.23-21.74-2.41,7.21-7.48,12.19-11.46,18.22,1.99-14.79,15.75-25.01,15.28-40.55,6.34,3.29,8.86,10.16,12.34,15.87Z" style="fill:#6c5c60; stroke-width:0px;"/><path d="m520.43,437.73c2.64.81-.14,23.46-9.4,19.39-3.04-1.34,3.25-16.41,9.4-19.39Z" style="fill:#6b6665; stroke-width:0px;"/><path d="m582.13,178l7.35,7.93c-1.46,1.06-6.7,7.47-7.93,7.35-.52-.05-7.43-6.54-7.35-7.35l7.93-7.93Z" style="fill:#6b6665; stroke-width:0px;"/><path d="m443.74,395.42l-2.94,1.18c-11.34-5.47-24.92-1.45-35.26,4.7-1.17-2.07-3.24-3.86-3.53-6.46,1.67.14,1.18,3.42,3.23,3.53,3.02.16,18.71-15.19,38.49-2.94Z" style="fill:#a76871; stroke-width:0px;"/><path d="m444.33,457.12c0-1.76-.05-3.53,0-5.29,34.01-.31,50.85-36.44,35.26-65.52-4.39-8.19-14.26-14.11-11.46-14.98,10.89,2.27,19.76,17.87,21.45,27.91,4.63,27.49-15.95,57.69-45.25,57.88Z" style="fill:#a76871; stroke-width:0px;"/><path d="m440.8,396.6l2.94-1.18c1.96,1.21,4.47,2.55,5.88,4.41,12.75,16.92-8.28,24.33,1.47,24.97,11.14.74,22.4-22.25,8.52-39.08-12.5-15.16-35-11.23-50.54-3.53,14.69-15.84,48.8-12.44,57.59,8.81,9.91,23.97-11.61,46.29-28.21,30.56,17.17-2.38,14.53-19.1,2.35-24.97Z" style="fill:#a76871; stroke-width:0px;"/><path d="m478.12,401.88c4.43,21.44-19.7,46.09-40.55,33.49-5.08-3.07-14.22-14.55-18.51-19.69,6.7-1.72,21.02-11.24,27.32-7.93,5.65,2.97-5.87,1.23-12.34,2.94-2.09.55-7.7,3.76-10.58,4.7-.41.41-.43,1.61-.29,2.06.4,1.27,13.98,15.3,20.27,16.75,16.7,3.84,34.98-16.28,34.67-32.32Z" style="fill:#a76871; stroke-width:0px;"/><path d="m399.08,383.08c.3-3.08-.59-3.91-.59-4.11,13.27-17.02,35.85-23.98,56.71-19.39,3.46.76,18,7.66,17.92,10.28-.1,3.25-7.07-3-9.11-3.82-22.49-9.04-49.69-1.63-64.93,17.04Z" style="fill:#a76871; stroke-width:0px;"/></g><path d="m601.81,586.4v15.87c-10.58.06-21.16-.08-31.73,0,4.26-16.56,15.73-30.99,31.73-15.87Z" style="fill:#a76871; stroke-width:0px;"/><path d="m567.14,589.93c1.05,2.87,1.4,8.91,1.76,12.34-5.09.03-10.19-.02-15.28,0,3.04-11.17,5.57-9.94,6.46-11.16,1.16-1.58,2.52-3,3.53-4.7,2.47-.36,2.9,1.82,3.53,3.53Z" style="fill:#a9596f; stroke-width:0px;"/><path d="m180.48,284.36c1.47,2.62,2.8,2.22,2.94,2.35.09.08-.3,1.86,1.76,1.76-.95,2.16.11,1.82,0,2.35-.24,1.17-1.18,5.02-1.18,5.29-17.29-.97-18.82-.19-7.64-13.52,1.91.63,2.39,1.11,4.11,1.76Z" style="fill:#c68760; stroke-width:0px;"/><path d="m414.95,291.41l-8.23,16.16h-1.18c.13-1.24-.65-2.21-1.18-3.23-.82-1.58-1.25-3.75-2.35-5.29v-.59c1.86-1.53,3.75-5.23,4.7-5.88.05-.04.85-.42,1.18-.59.32-.16,4.82-.92,7.05-.59Z" style="fill:#bc7964; stroke-width:0px;"/><path d="m538.35,570.53c-.13.22-3.39,2.3-3.53,3.82-.4,4.66,3.21.17,4.7-1.18.3-.27-1.61-.39,5.29-4.7-1.6-2.4-.04-3.63,0-3.82-.27,4.32.12,1.57,3.53,3.53.13.08-.3,1.46.29,1.76.54.28,2.73-.28,3.23,0,2.81,1.55,5.27,3.12,7.64,5.29-.09,4.51,1.18,4.74,1.18,4.99-.05,5.28-1.31,6.76-1.18,9.7.03.65-.19,1.22.59,1.18-.89,1.22-3.43,0-6.46,11.16-9.79.03-19.59-.02-29.38,0-.19-3.14,5.67-11.17,7.64-16.45.36-.96,2.97-8.98,2.06-9.4-6.29,6.75-3.56,7.81-3.82,8.23-.56.92-12.74,16.37-13.81,16.45-2.33.18-10.17-11.62-8.52,1.18-.39,0-.78,0-1.18,0-.43-9.51,2.23-18.79,3.53-28.21.28.17,5.58,1.4,6.46.88.25-.35-4.23-5.33-5.29-6.17-2.47-5.66-1.66-12.18,5.58-13.52,15.83-2.91,18.55,7.32,20.27-.59-.27,3.71,2.75,9.7,2.35,12.05-.04.23-2.9,1.04-1.18,3.82Z" style="fill:#a02b70; stroke-width:0px;"/><path d="m500.74,602.27c-1.18,0-2.35,0-3.53,0,1.51-9.72-3.75-10.63-9.4-18.8-8.97-12.97-11.88-14.26-4.7-18.8,5.69,12.65,15.75,23.41,17.63,37.61Z" style="fill:#1b0e27; stroke-width:0px;"/><path d="m487.81,602.27c-5.68,0-11.36,0-17.04,0-2.91-16.17,6.38-2.61,12.93-8.81,2.45,1.59,3.87,6.01,4.11,8.81Z" style="fill:#0e0d1d; stroke-width:0px;"/><path d="m531.89,585.81c-1.97,5.29-7.83,13.31-7.64,16.45-5.48.01-10.97,0-16.45,0-1.65-12.8,6.19-1,8.52-1.18,1.07-.08,13.25-15.54,13.81-16.45l1.76,1.18Z" style="fill:#1b0e27; stroke-width:0px;"/><path d="m440.21,602.27c-3.33,0-6.66,0-9.99,0,.99-1.07,5.31-8.58,5.29-9.11-.04-1.29-4.15-3.58-2.35-4.41,4.28,4.85,4.9.53,10.58-.29l-3.53,13.81Z" style="fill:#0e0d1d; stroke-width:0px;"/><path d="m494.28,602.27c-.78,0-1.57,0-2.35,0-1.64-4.29-5.03-8.34-5.88-12.93-.27-1.46-.48-2.61,0-4.11,5.37,5.99,10.11,8.58,8.23,17.04Z" style="fill:#1b0e27; stroke-width:0px;"/><path d="m497.21,602.27c-.98,0-1.96,0-2.94,0,1.88-8.46-2.86-11.05-8.23-17.04.46-1.45,1.77-.96,1.76-1.76,5.65,8.17,10.92,9.08,9.4,18.8Z" style="fill:#cc637d; stroke-width:0px;"/><path d="m491.93,602.27c-1.37,0-2.74,0-4.11,0-.24-2.8-1.66-7.22-4.11-8.81,1.18-1.11,1.4-2.9,2.35-4.11.84,4.59,4.23,8.64,5.88,12.93Z" style="fill:#cc637d; stroke-width:0px;"/><path d="m478.41,515.88l4.99-12.34-11.46,12.05c-2.08,13.69-10.08,25.34-10.58,39.67-7.4-8.34-7.97-8.66-19.39-6.46-1.78-2.62-.6-4.86,0-7.64,2.19-10.18,3.6-16.39,4.7-27.03.17-1.61-.52-3.49,1.18-4.7.63,1.06,14.74,15.01,17.34,17.63,2.45-6,3.73-12.39,4.41-18.8q6.76-12.93,13.52-25.86c.14.09.45-.09.59,0,5.21,10.58,4.07,25.61-5.29,33.49Z" style="fill:#7c1352; stroke-width:0px;"/><path d="m490.75,497.67c.47,15.54-13.28,25.75-15.28,40.55-1.84,2.79-6.1,8.92-7.05,10.58-3.03-2.28,2.99-9.59,5.29-17.34,1.75-5.89,1.96-14.61,2.35-15.28.38-.66,2.09-.08,2.35-.29,9.36-7.89,10.49-22.91,5.29-33.49.29.18,1.08-3.15,4.11,3.23,2.13,4.5,1.02,9.3,2.94,12.05Z" style="fill:#9b4469; stroke-width:0px;"/><path d="m567.73,520c-.78-.4-1.56-.79-2.35-1.18,1.46-6.88,3.09-12.2,0-19.1-.35-.69-.89.59-1.18.29-.45-.46-3.87-3.4-4.11-3.53,1.13.38,1.54-1.5,1.76-2.35,4.12-3.86,13.62-7.04,15.28.88,1.71,8.14-9.2,16.31-9.4,24.97Z" style="fill:#9b4469; stroke-width:0px;"/><path d="m555.39,494.14c.95.19,3.63,1.79,4.7,2.35.24.13,3.66,3.07,4.11,3.53,2.19,9.58-2.71,13.63-4.11,17.63-5.11-2.93-4.21-5.1-5.88-10.58-.28-.91-.7-.37-1.18-.88.17-2.67-1-10.2-1.76-12.05,1.28.16,2.95-.23,4.11,0Z" style="fill:#7c1352; stroke-width:0px;"/><path d="m444.33,451.83c-.05,1.76,0,3.53,0,5.29-.08,20.97-1.84,5.9,18.8,19.1-4.29,3.81-6.41,9.08-9.4,13.81-.59.94-11.47,9.99-5.88,19.39-1.7,1.22-1.01,3.09-1.18,4.7-2.68-2.63-6.09-4.28-9.4-5.88-4.47-10.17-7.92-15.71-2.35-26.74-9.84-13.74-6.66-8.5,4.7-22.92-1.3-1.37-2.22-3.64-2.35-3.82,9.52-17.16,7.45-16.47,7.05-2.94Z" style="fill:#7c1352; stroke-width:0px;"/><path d="m437.28,508.25c3.32,1.6,6.72,3.25,9.4,5.88-1.1,10.65-2.51,16.85-4.7,27.03l-23.8-24.68c-1.13-.07-5.02,8.57-5.58,9.99-.48.04-1.06-.07-1.18,0-5.28-4.7-6.06-21.22-.88-25.27,5.16-4.03,20.58,4.09,26.74,7.05Z" style="fill:#a02b70; stroke-width:0px;"/><path d="m412.6,526.46c-.05.12.82,2.15,1.18,2.35-3.33,5.69-7.75,10.86-11.16,16.45l-1.76-2.35c1.84-2.77,8.86-15.33,10.58-16.45.11-.07.7.04,1.18,0Z" style="fill:#7c1352; stroke-width:0px;"/><path d="m568.32,568.18c-.03-.26-1.07.48-1.76-4.99-.46-.71-.81.67-1.76.88-.46.1-.81-.63-.88-.59-1.17.71-.82,1.69-.88,1.76-2.11,2.71-3.46,6.38-3.53,9.99-2.37-2.17-4.83-3.74-7.64-5.29,1.12-1.96,2.67-3.59,4.11-5.29,4.59-5.4,8.43-10.54,12.34-16.45,2.1-3.17,7.12-7.89,7.64-11.75,7.53-3.75,13.94,2.94,18.22,8.52-8.07,8.37-14.37,18.86-25.86,23.21Z" style="fill:#8a305d; stroke-width:0px;"/><path d="m565.38,518.82c.79.38,1.57.77,2.35,1.18,5.41,2.8,9,10.71,8.23,16.45-.52,3.87-5.54,8.58-7.64,11.75-.6-1.66-3.65-2.05-4.11-2.35-1.89-1.22-3.87-4.05-5.88-5.29.39-1.49-.69-13.26,7.05-21.74Z" style="fill:#7c1352; stroke-width:0px;"/><path d="m568.32,568.18c.15,1.3-.86,17.42-1.18,21.74-.62-1.71-1.05-3.89-3.53-3.53l1.18-22.33c.96-.22,1.3-1.59,1.76-.88.69,5.48,1.73,4.73,1.76,4.99Z" style="fill:#9b4469; stroke-width:0px;"/><path d="m542.46,532.93c2.97,10.98,4.82,20.33,2.35,31.73-.04.19-1.6,1.42,0,3.82-6.9,4.31-4.99,4.43-5.29,4.7-1.49,1.35-5.1,5.84-4.7,1.18.13-1.52,3.39-3.6,3.53-3.82,4.46-7.61,4.44-17.94,1.47-27.03-.43.06-.7,8.16-2.64,7.64.71-9.66-.9-21-5.88-29.38l1.76-3.53c5.83,4.4,7.61,11.43,9.4,14.69Z" style="fill:#9b4469; stroke-width:0px;"/><path d="m478.41,515.88c-.26.22-1.97-.36-2.35.29-.39.67-.6,9.39-2.35,15.28-2.3,7.75-8.32,15.05-5.29,17.34-.29.5-.88,2.39-1.18,2.94-.93,1.72-.97-1.79-4.11,9.4-2.39-.95-1.84-3.66-1.76-5.88.49-14.33,8.49-25.97,10.58-39.67l11.46-12.05-4.99,12.34Z" style="fill:#9b4469; stroke-width:0px;"/><path d="m538.35,570.53c-1.72-2.78,1.14-3.59,1.18-3.82.4-2.35-2.62-8.33-2.35-12.05.19-.86-.09-2.36,0-3.53,1.95.52,2.21-7.58,2.64-7.64,2.97,9.09,2.99,19.42-1.47,27.03Z" style="fill:#644358; stroke-width:0px;"/><path d="m511.32,568.77c1.06.84,5.54,5.82,5.29,6.17-.88.52-6.18-.71-6.46-.88-2.55-1.52-2.56-7.39-1.47-7.64.77.94,1.71,1.6,2.64,2.35Z" style="fill:#310d30; stroke-width:0px;"/><path d="m508.97,494.14c1.99,3.8,3.46,6.63,5.29,10.58.5,1.07.67,2.63.59,3.82.96,1.47,9.53,1.55,16.45,13.22,4.98,8.39,6.59,19.72,5.88,29.38-.09,1.17.19,2.66,0,3.53-1.72,7.91-4.44-2.33-20.27.59-7.24,1.33-8.05,7.86-5.58,13.52-.94-.75-1.88-1.41-2.64-2.35-1.09.25-1.08,6.12,1.47,7.64-1.3,9.41-3.96,18.69-3.53,28.21-1.96,0-3.92,0-5.88,0-1.88-14.2-11.93-24.96-17.63-37.61-3.73-8.3-.11-15.07-15.87-12.93.29-.54.89-2.44,1.18-2.94.96-1.66,5.21-7.79,7.05-10.58,3.98-6.02,9.05-11.01,11.46-18.22,6.67,5.34,6.47,14.1,8.23,21.74.29-9.04,5.18-16.96,7.35-25.27-.65,10.34,9.26-2.05.59-3.53,1.99-7.65,1.59-19.1,5.88-18.8Z" style="fill:#7c1352; stroke-width:0px;"/><path d="m502.5,516.47c.23-.88.34-2,.59-2.94.05-.18-.05-.4,0-.59,8.67,1.48-1.23,13.87-.59,3.53Z" style="fill:#7c1352; stroke-width:0px;"/><path d="m514.26,514.12c.04,2.32,2.88,1.52,0,19.39h-1.76c.54-4.55,1.3-9.04-1.18-13.22,1.09-1.84,1.77-4.14,2.35-6.17h.59Z" style="fill:#697067; stroke-width:0px;"/><path d="m532.47,517.65c.08.2-.11.65.59.59l-1.76,3.53c-6.93-11.67-15.49-11.75-16.45-13.22.08-1.19-.09-2.75-.59-3.82q9.11,6.46,18.22,12.93Z" style="fill:#bc7072; stroke-width:0px;"/><path d="m514.26,533.51c-1.08,6.72-2.97,13.48-4.99,19.98-2.66-.57,2.47-13.48,3.23-19.98h1.76Z" style="fill:#cc637d; stroke-width:0px;"/><path d="m514.26,514.12h-.59c.41-1.45-.89-3.73.88-4.11,3.05-.66-.34,1.38-.29,4.11Z" style="fill:#7c1352; stroke-width:0px;"/><path d="m441.98,541.15c-.6,2.78-1.78,5.02,0,7.64-8.75,17.51-3.42,1.98-22.33-15.87-2.19-2.06-5.43-5.85-5.88-4.11-.36-.2-1.22-2.23-1.18-2.35.56-1.42,4.45-10.06,5.58-9.99l23.8,24.68Z" style="fill:#7c1352; stroke-width:0px;"/><path d="m419.65,532.93c-6.5,6.18-10.61,14.45-12.34,16.75-1.75,2.31-4.79,4.04-6.46,6.17-.39-.29-2.19,1.01-2.94-1.76,1.76-2.69,3.02-6.06,4.7-8.81,3.42-5.6,7.84-10.77,11.16-16.45.44-1.73,3.69,2.05,5.88,4.11Z" style="fill:#0e0d1d; stroke-width:0px;"/><path d="m399.08,569.36c-1.51-3.19-5.48-4.29,1.76-13.52.57.43-1.87,11.76-1.76,13.52Z" style="fill:#b8467b; stroke-width:0px;"/><path d="m441.98,548.79c11.42-2.19,11.99-1.88,19.39,6.46-.08,2.21-.63,4.92,1.76,5.88-2.91,10.35,1.61-16.63-19.69-11.75-5.92,8.87-8.57,9.81-4.99,20.86l-12.34,4.11c2.18,3.85,4.45,11.45,7.05,14.4-1.8.83,2.31,3.11,2.35,4.41.02.53-4.3,8.04-5.29,9.11-3.13,0-6.27,0-9.4,0l-.88-11.75-2.06,11.75c-6.07,0-12.14,0-18.22,0,.04-.53-.55-.59-.59-1.18-.2-3.42-4.85-8.68-6.46-12.63-.7-1.72-.77-5.94-2.35-5.58.5-1.44,10.56-10.68,10.58-11.46,0-.14-1.31-1.09-1.76-2.06-.11-1.76,2.33-13.09,1.76-13.52,1.67-2.13,4.72-3.86,6.46-6.17,1.73-2.3,5.84-10.57,12.34-16.75,18.9,17.84,13.58,33.37,22.33,15.87Z" style="fill:#7c1352; stroke-width:0px;"/><path d="m420.82,602.27c-.98,0-1.96,0-2.94,0l2.06-11.75.88,11.75Z" style="fill:#ae7c7c; stroke-width:0px;"/><path d="m399.08,601.09c-3.71-3.05-10.42-13.57-8.81-18.22,1.58-.36,1.65,3.86,2.35,5.58,1.61,3.95,6.27,9.22,6.46,12.63Z" style="fill:#a02b70; stroke-width:0px;"/><path d="m419.94,578.76c1.48.08,1.37.96,1.47,2.06.54,6.08-4.95,12.47-1.47-2.06Z" style="fill:#9b4469; stroke-width:0px;"/><path d="m463.13,561.13c3.14-11.2,3.19-7.69,4.11-9.4,15.75-2.14,12.13,4.63,15.87,12.93-7.18,4.55-4.27,5.83,4.7,18.8,0,.8-1.3.32-1.76,1.76-.48,1.5-.27,2.65,0,4.11-.95,1.21-1.17,3-2.35,4.11-6.55,6.21-15.84-7.36-12.93,8.81-10.19.01-20.37,0-30.56,0l3.53-13.81c-5.68.82-6.3,5.15-10.58.29-2.6-2.95-4.87-10.55-7.05-14.4l12.34-4.11c-3.58-11.05-.93-11.99,4.99-20.86,21.3-4.88,16.78,22.1,19.69,11.75Z" style="fill:#e6b475; stroke-width:0px;"/><path d="m458.14,569.36c9.24-1.5,11.12,17.44-8.23,11.16-2.71-1.91,5.56-10.73,8.23-11.16Z" style="fill:#1b0e27; stroke-width:0px;"/><path d="m555.39,539.98l1.76,4.11c-2.3,9.2-5.39,15.33-8.81,24.09-3.41-1.96-3.8.79-3.53-3.53,2.47-11.4.62-20.75-2.35-31.73,7.32,13.31,9.9,25.26,12.93,7.05Z" style="fill:#695361; stroke-width:0px;"/><path d="m564.2,545.85c-3.05,5.13-11.38,18.32-8.23,18.8-1.45,1.7-3,3.33-4.11,5.29-.5-.28-2.69.28-3.23,0-.59-.3-.16-1.69-.29-1.76,3.43-8.76,6.52-14.9,8.81-24.09.27-1.06.9-2.46,1.18-3.53,2.01,1.24,3.99,4.07,5.88,5.29Z" style="fill:#9b4469; stroke-width:0px;"/><path d="m559.5,589.93c-.14-2.94,1.13-4.41,1.18-9.7,0-.26-1.26-.49-1.18-4.99.07-3.61,1.41-7.28,3.53-9.99-.57,8.33.19,17.16-3.53,24.68Z" style="fill:#7d5567; stroke-width:0px;"/><path d="m564.79,564.07l-1.18,22.33c-1.01,1.7-2.37,3.12-3.53,4.7-.78.04-.56-.52-.59-1.18,3.72-7.52,2.95-16.35,3.53-24.68.06-.08-.29-1.05.88-1.76.07-.04.42.69.88.59Z" style="fill:#644358; stroke-width:0px;"/><path d="m531.89,585.81l-1.76-1.18c.26-.42-2.47-1.47,3.82-8.23.91.42-1.7,8.44-2.06,9.4Z" style="fill:#412441; stroke-width:0px;"/><path d="m470.18,492.38c.24,4.69-.09,11.15-.59,15.87-.68,6.41-1.96,12.81-4.41,18.8-2.59-2.62-16.7-16.57-17.34-17.63-5.59-9.4,5.28-18.45,5.88-19.39,2.8,1.2,5.55.97,7.64-.59-.12,1.76,6.93,3.11,8.81,2.94Z" style="fill:#a02b70; stroke-width:0px;"/><path d="m470.18,492.38c-1.88.18-8.93-1.18-8.81-2.94.43-.32,4.52-6.97,6.76-8.23.97.14,1.98,9.7,2.06,11.16Z" style="fill:#7c1352; stroke-width:0px;"/><path d="m547.75,521.76c1.17,2.67,1.8,4.71,2.06,7.64.95.57,5.39-12.12,7.35-5.88-1.18,4.4-.92,11.38-1.76,16.45-3.02,18.21-5.61,6.26-12.93-7.05-1.79-3.26-3.57-10.29-9.4-14.69-.69.06-.51-.39-.59-.59-1.38-3.58-.27-14.59,4.11-16.45,1.73-.54,1.09,4.06,2.94,7.93.98,2.05,5.67,6.8,8.23,12.63Z" style="fill:#7c1352; stroke-width:0px;"/><path d="m551.28,494.14c.77,1.85,1.93,9.38,1.76,12.05.48.51.9-.02,1.18.88-2.91,4.08-2.85,13.96-6.46,14.69-2.56-5.84-7.25-10.58-8.23-12.63-1.85-3.87-1.21-8.47-2.94-7.93,2.5-2.24.17-11.94-.29-17.63,1.22-.72,9.35,3.62,10.58,4.7.67.59,4.27,5.54,4.41,5.88Z" style="fill:#9b4469; stroke-width:0px;"/><path d="m565.38,518.82c-7.74,8.48-6.66,20.25-7.05,21.74-.28,1.06-.91,2.46-1.18,3.53l-1.76-4.11c.84-5.08.58-12.05,1.76-16.45.09-.32.95-.2,2.94-5.88,1.4-4,6.3-8.05,4.11-17.63.29.29.82-.99,1.18-.29,3.09,6.89,1.46,12.22,0,19.1Z" style="fill:#5d5660; stroke-width:0px;"/><path d="m560.09,517.65c-1.99,5.67-2.85,5.56-2.94,5.88-1.95-6.25-6.4,6.45-7.35,5.88-.26-2.93-.89-4.97-2.06-7.64,3.62-.73,3.55-10.61,6.46-14.69,1.67,5.47.76,7.65,5.88,10.58Z" style="fill:#7d5567; stroke-width:0px;"/><path d="m568.32,548.2c-3.91,5.92-7.75,11.05-12.34,16.45-3.15-.48,5.18-13.67,8.23-18.8.46.3,3.52.69,4.11,2.35Z" style="fill:#695361; stroke-width:0px;"/><path d="m182.25,534.69c1.41,1.72,2.83,3.45,4.7,4.7,2.6,3.79.27-8.35,7.05-.29,3.04,3.61,3.91,9.01,6.46,12.93,9.96,15.29,27.45,33.85,37.61,50.24-.98,0-1.96,0-2.94,0q-16.31-21.74-32.61-43.48l-8.52,10.87c1.05,1.29,2.77,2.3,3.53,3.82l-3.82-2.94c-5.15,4.01-2.09-8.02-8.52-16.75-4.35-5.9-12.77-7.21-15.87-12.63-.16-.27-.26-2.63-2.35-5.88.09,0-.39-1.75,1.47-1.18.88.27,3.47,4.51,3.82,2.94,7.83,6.29,1.78-8.02,9.99-2.35Z" style="fill:#a02b70; stroke-width:0px;"/><path d="m66.48,567.6v.59c-.36,6.15-1.05,12.1-1.76,18.22-.09.81-3.52,3.75-.59,15.87-3.92-.01-7.84.01-11.75,0-2.5-5.78-6.69-10.61-9.99-15.87-.11-.18.4-1.84-1.18-4.11-.76-2.6-2.06-1.56-2.35-1.76-.25-2.36-3.92-8.04-5.88-11.16l1.18-1.18c11.3,9.61,7.92,3.54,15.87,16.45,1.53,2.48,3.67,7.98,6.46,11.46,1.37.5,7.08-24.95,7.05-27.91.43-.05,1.04-.91,2.94-.59Z" style="fill:#9b4469; stroke-width:0px;"/><path d="m165.2,588.16c-.45.11-.75.39-1.18.59-4.9,2.25-8.65,8.02-8.23,13.52-2.94,0-5.88,0-8.81,0,3.85-7.03-.49-3.37-2.94,0-1.37,0-2.74,0-4.11,0,4.16-3.63,14.31-15.29,14.1-20.57,6.97-5.71,3.09,1.52,11.16,6.46Z" style="fill:#310d30; stroke-width:0px;"/><path d="m52.38,602.27c-6.66-.02-13.32.04-19.98,0,1.22-6.4,5.97-11.1,9.99-15.87,3.3,5.26,7.49,10.08,9.99,15.87Z" style="fill:#a76871; stroke-width:0px;"/><path d="m8.31,577.59c4.1,9.2-3.48,16.08-5.29,24.68-.38-.04-.85.08-1.18,0,.7-5.48.36-11.95-1.76-17.04-.08-4.89.03-9.8,0-14.69,1.88-.29,7.87,6.25,8.23,7.05Z" style="fill:#a02b70; stroke-width:0px;"/><path d="m171.08,589.34c1.05.75,3.46,4.48,4.11,5.88.73,1.56.82,2.55,1.18,4.11.23,1.02.71,1.87.59,2.94-3.13,0-6.27,0-9.4,0-.39-4.75-3.75-9.78-3.53-13.52.43-.2.72-.48,1.18-.59,2.54-.59,3.52-.52,5.88,1.18Z" style="fill:#f0cf7b; stroke-width:0px;"/><path d="m167.55,602.27c-3.92,0-7.84,0-11.75,0-.43-5.5,3.32-11.26,8.23-13.52-.22,3.74,3.14,8.76,3.53,13.52Z" style="fill:#e6b475; stroke-width:0px;"/><path d="m28.29,602.27c-2.35-.02-4.7.02-7.05,0-.22-2.61,10.16-18.64,11.75-13.22.2.69-3.77,2.45-4.7,13.22Z" style="fill:#9b4469; stroke-width:0px;"/><path d="m128.77,602.27c-2.35,0-4.7,0-7.05,0q-.88-4.11-1.76-8.23c8.43,2.44,10.91-1.36,8.81,8.23Z" style="fill:#1b0e27; stroke-width:0px;"/><path d="m16.53,602.27c-2.35-.04-4.7.06-7.05,0l4.99-9.4,2.06,9.4Z" style="fill:#a9596f; stroke-width:0px;"/><path d="m1.84,602.27c-.51-.12-1.2.07-1.76,0-.07-5.68.09-11.36,0-17.04,2.12,5.09,2.46,11.56,1.76,17.04Z" style="fill:#a76871; stroke-width:0px;"/><path d="m84.11,597.57l-3.53,4.7c-5.48-.01-10.97.01-16.45,0-2.94-12.11.49-15.06.59-15.87,2.35-.5,4.29-2.04,6.46-2.94,2.06-.85,3.84-1.07,4.11-1.18.87-.32,8.59-3.65,8.81-3.23-2.2,5.55-4.18,13.36,0,18.51Z" style="fill:#e6b475; stroke-width:0px;"/><path d="m86.46,599.92l-2.35,2.35c-1.18,0-2.35,0-3.53,0l3.53-4.7c.1.13,2.22,2.25,2.35,2.35Z" style="fill:#7c1352; stroke-width:0px;"/><path d="m146.99,602.27c-.98,0-1.96,0-2.94,0,2.45-3.37,6.78-7.03,2.94,0Z" style="fill:#9b4469; stroke-width:0px;"/><path d="m45.91,492.38c.59,7.67.23,15.01-1.18,22.62,2.99,1.73,8.21,24.61,9.99,22.92l5.88-20.57c-3.21-4.41-10.97-12.06-9.99-15.57l7.93-8.23c11,27.96-2.63,15.7,21.15-4.11,1.35.92.88,3.19.88,5.29,0,2.65-2.3,22.34-2.94,24.68-1.51,5.56-1.55.76-4.7-.29-.56,3.4.53,7.63.59,10.28.04,1.56-.1,3.15,0,4.7-1.36,5.58-.32,26.44,3.53,23.51.06,1.15-.75,1.33-.59,2.35-3.19,2.01-6.12,4.57-9.4,6.46-1.89-2.68-2.22-6.23-3.53-9.11-2.84-6.27-2.84-5.93-3.53-4.99-.96,1.31-.37,2-.88,2.35-.8.54-1.94-.46-2.64-.59-10.1-18.37-20.04-31.94-5.29-1.76-.5-.05-6.72.43-9.99,0-.96-1.5-2.4-2.75-3.53-4.11l-5.88-24.39c-.76-1.13-1.86-1.43-2.94-2.06l.59-3.53c8.9,2.01,2.19-8.13-.59-21.15,1.03-.37,12.88-13.72,15.57-15.28.82.12,1.37,9.22,1.47,10.58Z" style="fill:#7c1352; stroke-width:0px;"/><path d="m108.2,491.2c-3.45.51,3.01,10.83,4.7,15.28.45,1.18,2.27,3,2.35,3.23,1.1,3.12,2.13,15.78,5.88,21.45.56,8.51,5.86,23.54,2.35,27.62-4.06-4.1-6.49,2.56-12.34-22.92-4.3-18.72-.02-25.36-15.28-32.91-.07-.44-2.49-2.55-.59-8.52.62-1.94,9.11-11.72,10.58-9.4.59,1.95,1.37,4.41,2.35,6.17Z" style="fill:#7c1352; stroke-width:0px;"/><path d="m99.98,521.76l3.53,15.28c-11.81-2.29-13.57,10.13-17.04,18.22-3.96.29-6.83,2.71-9.99,4.7-.16-1.02.65-1.21.59-2.35-.15-2.64-2.75-11.6-3.53-23.51-.1-1.55.04-3.14,0-4.7l8.23-6.46c3.81,4.19,6.33,8.66,9.11,13.52l4.41-20.57c1.42,1.97,2.98,4.17,4.7,5.88Z" style="fill:#7c1352; stroke-width:0px;"/><path d="m50.62,501.78c-.98,3.51,6.78,11.16,9.99,15.57l-5.88,20.57c-1.78,1.7-7-21.19-9.99-22.92,1.41-7.61,1.76-14.96,1.18-22.62,6.72-3.32,4.29-.77,4.7,9.4Z" style="fill:#6c5c60; stroke-width:0px;"/><path d="m121.13,478.28c3.77,4.94,3.8,9.01,3.53,14.98-.38.7-4.99-3.44-11.16,9.11-.41-1.22-4.15-5.29-2.35-6.46.6.82.88,2.73,1.76,2.06v-20.27c2.77-.07,5.51-.09,8.23.59Z" style="fill:#7c1352; stroke-width:0px;"/><path d="m111.14,535.86l-1.76.59c-.4-3.52-6.14-9.96-7.64-13.52-1.46-3.48-5.26-16-5.88-19.98,15.26,7.55,10.98,14.19,15.28,32.91Z" style="fill:#9b4469; stroke-width:0px;"/><path d="m101.74,522.94c1.5,3.56,7.24,10,7.64,13.52.1.85.16,2.23-.29,2.94-.46.36-2.34-1.72-5.58-2.35l-3.53-15.28c.4.4,1.24.88,1.76,1.18Z" style="fill:#7d5567; stroke-width:0px;"/><path d="m108.2,491.2c.86,1.54,1.89,3.28,2.94,4.7-1.8,1.18,1.94,5.24,2.35,6.46.49,1.45,1.33,3.5-.59,4.11-1.69-4.45-8.15-14.77-4.7-15.28Z" style="fill:#7d5567; stroke-width:0px;"/><path d="m186.95,539.39c-1.88-1.25-3.29-2.98-4.7-4.7-.39-.47-1.81-4.79-7.35-9.4-5.19,6.1-8.16,7.32-2.64,11.75-.35,1.57-2.94-2.66-3.82-2.94-1.86-.58-1.38,1.17-1.47,1.18-.26.01-1.1-.94-3.23-.59-9.07,13.48-20.18,20.79-30.26,34.38-.45.6-1.66.15-1.76.29-1.64-3.82-5.31-7.63-8.23-10.58,3.51-4.08-1.79-19.11-2.35-27.62,4.29-8.5,8.6-17.64,16.45-23.51.66,1.75,1,3.81,2.35,5.29-1.47,1.48,2.05,4.3,2.35,6.17.32,1.96-.08,19.36.59,24.68,3.66-1.88,5.45-5.8,8.23-8.52,1.75-1.71,3.18-3.4,4.7-5.29,2.72.57,12.81-3.33,13.52-5.58-.1-4.18-1.85-17.7-5.29-19.69-.08-.59.13-1.43,0-1.76,3.86-5.53,4.45-8.92,12.63-5.29,17.37,7.71,1.92,22.92,2.06,24.39,3.34,5.53,9.27,10.17,8.23,17.34Z" style="fill:#7c1352; stroke-width:0px;"/><path d="m153.45,481.8c.06,1.18,9.29,17.9,10.58,21.15.13.33-.08,1.17,0,1.76-.53-.3-2.16-.53-2.94-.59-1.19-2.75-9.55-17.2-11.75-17.04-3.93.28-.93,12.72-4.11,21.74-2.25,6.38-3.15,6.46-5.29,4.11-1.35-1.48-1.69-3.54-2.35-5.29-.94-2.51-1.22-6.56-2.35-9.11-.74-1.66-9.33-17.14-9.99-17.92l2.64-8.23c9.77,1.39,6.61.86,9.7-1.18,5.48,6.4,6.25,11.08,15.87,10.58Z" style="fill:#65214b; stroke-width:0px;"/><path d="m153.45,481.8c-9.62.5-10.38-4.18-15.87-10.58,1.19-.79,10.31-8.46,10.58-9.11.08-.46-.11-1.05,0-1.47,2.21.45,3.27-2.2,3.53-2.35.61-.36,1.19-.77,1.76-1.18,5.39,9.01,4.21,15.38,0,24.68Z" style="fill:#7c1352; stroke-width:0px;"/><path d="m166.97,535.28c2.09,3.25,2.19,5.6,2.35,5.88-19.83.63-8.54,21.59-17.04,35.85-2.23-4.34-6-6.64-10.87-5.29-7.56,2.1-11.42,14.33-13.52,14.1-6.01-.64,2.2-14.2,3.82-16.45.1-.14,1.32.31,1.76-.29,10.08-13.58,21.19-20.9,30.26-34.38,2.13-.35,2.97.6,3.23.59Z" style="fill:#1b0e27; stroke-width:0px;"/><path d="m86.46,555.26c-.82,1.9-1.99,6.83-2.94,9.11-3.22,7.71-8.54,15.56-8.81,16.45-.22.74.58.87.59,1.47-.28.1-2.05.32-4.11,1.18l-4.7-15.28v-.59l.59-1.18c3.28-1.9,6.21-4.45,9.4-6.46,3.16-1.99,6.03-4.41,9.99-4.7Z" style="fill:#a9596f; stroke-width:0px;"/><path d="m119.96,594.04q.88,4.11,1.76,8.23c-1.96,0-3.92,0-5.88,0l-.59-10.87c1.33.21,4.42,2.56,4.7,2.64Z" style="fill:#7c1352; stroke-width:0px;"/><path d="m123.48,558.78c2.92,2.94,6.58,6.76,8.23,10.58-1.62,2.25-9.83,15.82-3.82,16.45,2.09.22,5.96-12,13.52-14.1,4.87-1.35,8.64.95,10.87,5.29.11.22,1.75,4.45,1.76,4.7.21,5.28-9.94,16.94-14.1,20.57-3.72,0-7.44,0-11.16,0,2.1-9.58-.39-5.79-8.81-8.23-.28-.08-3.37-2.44-4.7-2.64l.59,10.87c-8.23-.01-16.45.01-24.68,0-2.09-2.93-4.47-2.19-4.7-2.35-.14-.1-2.25-2.22-2.35-2.35-4.18-5.15-2.2-12.96,0-18.51-.22-.41-7.94,2.92-8.81,3.23,0-.6-.81-.73-.59-1.47.27-.89,5.6-8.75,8.81-16.45.95-2.28,2.12-7.2,2.94-9.11,3.47-8.09,5.23-20.51,17.04-18.22,3.24.63,5.12,2.71,5.58,2.35.45-.71.39-2.08.29-2.94l1.76-.59c5.85,25.48,8.28,18.82,12.34,22.92Z" style="fill:#a02b70; stroke-width:0px;"/><path d="m91.16,602.27c-2.35,0-4.7,0-7.05,0l2.35-2.35c.23.16,2.61-.58,4.7,2.35Z" style="fill:#bdb76c; stroke-width:0px;"/><path d="m96.74,567.01c12.28.33,14.63,2.63,11.75,15.28-8.01-4.97-15.96-5.25-11.75-15.28Z" style="fill:#580835; stroke-width:0px;"/><path d="m31.81,541.15c-1.87,1.38-2.04,3.83-2.35,5.88q-2.94,2.94-5.88,5.88c-11.99-18.5-21.31-9.31-17.63-23.21.47-1.79,4.35-7.9,6.76-7.35.55.13,7.7,6.11,8.81,7.05,4.55,3.85,6.75,7.55,10.28,11.75Z" style="fill:#7c1352; stroke-width:0px;"/><path d="m20.06,555.26c5.59,7.76,8.54,18.62,16.16,24.68.11.08,2.25.31,2.64.59.29.2,1.59-.84,2.35,1.76-8.23,2.91-13.85-4.52-17.92-10.58-.1-.15-1.39.12-1.47,0-.65-1.01-6.48-17.48-9.4-22.04v-2.35c.76-1.39,7.05,7.11,7.64,7.93Z" style="fill:#9b4469; stroke-width:0px;"/><path d="m37.69,548.2c1.12,1.36,2.57,2.61,3.53,4.11-2.5,1.14-6.77,11.61-7.05,13.52-5.08-4.18-5.66-12.49-4.7-18.8.31-2.04.48-4.5,2.35-5.88,1.98,2.35,3.92,4.68,5.88,7.05Z" style="fill:#695361; stroke-width:0px;"/><path d="m25.94,558.19c3.21,5.09,4.42,9.23,4.7,9.7,1.02,1.69,2.28,1.35,2.35,1.47,1.95,3.13,5.62,8.81,5.88,11.16-.4-.27-2.54-.5-2.64-.59-7.62-6.06-10.57-16.92-16.16-24.68,2.63,1.07,4.84,7.56,5.88,2.94Z" style="fill:#695361; stroke-width:0px;"/><path d="m34.16,565.83c-.11.75-1.17.8,0,2.35l-1.18,1.18c-.07-.12-1.33.23-2.35-1.47-.28-.46-1.49-4.61-4.7-9.7-.83-1.32-1.68-4.25-2.35-5.29q2.94-2.94,5.88-5.88c-.96,6.32-.38,14.63,4.7,18.8Z" style="fill:#a02b70; stroke-width:0px;"/><path d="m182.25,534.69c-8.21-5.67-2.16,8.64-9.99,2.35-5.52-4.43-2.55-5.65,2.64-11.75,5.54,4.62,6.96,8.93,7.35,9.4Z" style="fill:#1b0e27; stroke-width:0px;"/><path d="m51.2,552.32c1.32.13,4.08,1.54,5.29,1.76.7.13,1.85,1.13,2.64.59.51-.35-.08-1.04.88-2.35,3.94,9.45-2.65,11.88-.59,15.87-.34.09-2.19,1.53-6.46,2.64l-2.94,13.81c-7.95-12.92-4.56-6.85-15.87-16.45-1.17-1.55-.11-1.6,0-2.35.29-1.9,4.55-12.38,7.05-13.52,3.27.43,9.49-.05,9.99,0Z" style="fill:#7c1352; stroke-width:0px;"/><path d="m63.54,568.18c.03,2.96-5.68,28.42-7.05,27.91-2.8-3.48-4.94-8.98-6.46-11.46l2.94-13.81c4.28-1.11,6.13-2.55,6.46-2.64,1.15-.32,2.92.15,4.11,0Z" style="fill:#644358; stroke-width:0px;"/><path d="m67.07,566.42l-.59,1.18c-1.89-.33-2.51.53-2.94.59-1.2.15-2.96-.32-4.11,0-2.07-3.98,4.53-6.42.59-15.87.69-.93.68-1.28,3.53,4.99,1.3,2.87,1.63,6.43,3.53,9.11Z" style="fill:#7f4859; stroke-width:0px;"/><path d="m71.18,583.46c-2.17.9-4.12,2.44-6.46,2.94.72-6.12,1.41-12.07,1.76-18.22l4.7,15.28Z" style="fill:#8a305d; stroke-width:0px;"/><path d="m169.32,541.15c3.1,5.42,11.52,6.73,15.87,12.63,6.43,8.73,3.37,20.76,8.52,16.75l3.82,2.94c7.04,14.18-7.78,25.41-21.15,25.86-.35-1.56-.45-2.55-1.18-4.11,3.24-5.62,1.84-18.7-1.76-23.8-5.69-8.06,2.24,6.93-2.35,17.92-2.36-1.69-3.34-1.77-5.88-1.18-8.07-4.94-4.2-12.18-11.16-6.46,0-.25-1.65-4.48-1.76-4.7,8.5-14.25-2.79-35.22,17.04-35.85Z" style="fill:#7c1352; stroke-width:0px;"/><path d="m175.19,595.21c-.65-1.4-3.07-5.12-4.11-5.88,4.59-11-3.34-25.98,2.35-17.92,3.6,5.1,5,18.17,1.76,23.8Z" style="fill:#310d30; stroke-width:0px;"/><path d="m56.49,554.08c-1.21-.22-3.97-1.63-5.29-1.76-14.75-30.18-4.81-16.61,5.29,1.76Z" style="fill:#7d5567; stroke-width:0px;"/><path d="m77.65,519.41c1.99.26,2.95,2.24,4.11,3.53l-8.23,6.46c-.06-2.65-1.15-6.89-.59-10.28,3.15,1.05,3.19,5.86,4.7.29Z" style="fill:#a76871; stroke-width:0px;"/><path d="m77.06,557.61c-3.84,2.94-4.88-17.93-3.53-23.51.77,11.9,3.38,20.86,3.53,23.51Z" style="fill:#9b4469; stroke-width:0px;"/><path d="m125.24,480.63c.66.78,9.25,16.27,9.99,17.92,1.13,2.55,1.41,6.6,2.35,9.11-7.86,5.86-12.17,15.01-16.45,23.51-3.75-5.67-4.77-18.33-5.88-21.45-.08-.23-1.9-2.05-2.35-3.23,1.92-.62,1.07-2.66.59-4.11,6.17-12.55,10.78-8.41,11.16-9.11.28-5.97.24-10.04-3.53-14.98,2.46.61,2.48.42,4.11,2.35Z" style="fill:#a02b70; stroke-width:0px;"/><path d="m161.09,504.13c.78.06,2.41.28,2.94.59,3.44,1.98,5.19,15.51,5.29,19.69-.71,2.26-10.8,6.15-13.52,5.58-2.95-1.42-8.08-18.97-7.05-20.86,1.2-.76,2.33-1.92,3.53-2.64,2.11-1.28,6.28-2.53,8.81-2.35Z" style="fill:#e6b475; stroke-width:0px;"/><path d="m151.1,535.28c-2.78,2.72-4.57,6.64-8.23,8.52-.66-5.32-.27-22.72-.59-24.68-.3-1.87-3.82-4.69-2.35-6.17,2.14,2.35,3.04,2.27,5.29-4.11.61-.2,1.65.41,1.76.88.93,3.98,1.37,18.27,4.11,25.56Z" style="fill:#a02b70; stroke-width:0px;"/><path d="m149.34,487.09l2.94,19.39c-1.19.73-2.32,1.88-3.53,2.64-1.02,1.89,4.1,19.44,7.05,20.86-1.52,1.89-2.95,3.58-4.7,5.29-2.74-7.29-3.18-21.58-4.11-25.56-.11-.48-1.15-1.08-1.76-.88,3.18-9.02.18-21.47,4.11-21.74Z" style="fill:#a02b70; stroke-width:0px;"/><path d="m161.09,504.13c-2.54-.18-6.71,1.07-8.81,2.35l-2.94-19.39c2.2-.15,10.56,14.29,11.75,17.04Z" style="fill:#1b0e27; stroke-width:0px;"/><path d="m227.49,497.67c1.99,2.64,4.97,8.39,7.05,11.16l-.59,1.47q18.51,45.98,37.02,91.96c-10.97,0-21.94,0-32.91,0-10.16-16.39-27.65-34.95-37.61-50.24-2.55-3.92-3.43-9.32-6.46-12.93-6.78-8.05-4.45,4.09-7.05.29,1.05-7.16-4.89-11.8-8.23-17.34-.14-1.46,15.32-16.68-2.06-24.39-8.19-3.63-8.77-.25-12.63,5.29-1.29-3.25-10.52-19.97-10.58-21.15,4.21-9.3,5.39-15.67,0-24.68,2.65-1.88,4.45-3.92,4.7-4.11,32.74-25,24.24-38.62,34.08-51.71.04-.05.91-.52,1.18-.59-2.82,6.93-3.5,21.57-2.94,29.09,2.05,27.28,21.48,47.25,37.02,67.87Z" style="fill:#1b0e27; stroke-width:0px;"/><path d="m235.13,602.27c-19.39-.01-38.78.01-58.18,0,.13-1.07-.36-1.92-.59-2.94,13.38-.44,28.19-11.67,21.15-25.86-.76-1.52-2.47-2.52-3.53-3.82l8.52-10.87q16.31,21.74,32.61,43.48Z" style="fill:#1b0e27; stroke-width:0px;"/><path d="m402.02,394.83c.28,2.61,2.36,4.39,3.53,6.46,6.35,11.27,9.14,25.2,14.69,34.38,4.48,7.4,12.42,12.57,17.04,19.1.13.18,1.05,2.45,2.35,3.82-11.36,14.42-14.54,9.17-4.7,22.92-5.57,11.03-2.12,16.57,2.35,26.74-6.15-2.96-21.58-11.08-26.74-7.05-5.18,4.05-4.4,20.56.88,25.27-1.72,1.12-8.74,13.69-10.58,16.45-13.4,20.13-27.65,39.69-41.72,59.35-13.12,0-26.25,0-39.37,0l38.2-95.2c22.21-32.35,48.66-54.42,45.25-97.25-.1-1.24-2.12-13.15-2.35-13.81-.09-2.77.34-1.24,1.18-1.18Z" style="fill:#1b0e27; stroke-width:0px;"/><path d="m400.84,555.84c-7.24,9.23-3.27,10.33-1.76,13.52.46.96,1.77,1.92,1.76,2.06-.02.78-10.08,10.02-10.58,11.46-1.61,4.65,5.1,15.16,8.81,18.22.03.58.63.65.59,1.18-12.54,0-25.07,0-37.61,0,11.79-16.19,24.86-31.38,35.85-48.19.75,2.77,2.55,1.47,2.94,1.76Z" style="fill:#1b0e27; stroke-width:0px;"/><path d="m402.61,545.27c-1.68,2.76-2.94,6.12-4.7,8.81-10.98,16.8-24.06,31.99-35.85,48.19-.98,0-1.96,0-2.94,0,14.07-19.66,28.32-39.22,41.72-59.35l1.76,2.35Z" style="fill:#7c1352; stroke-width:0px;"/><path d="m263.93,508.83c-1.1,10.62,13.93,20.84,22.33,24.97-12.15,17.55-14.08,48.04-9.4,68.46-1.96,0-3.92,0-5.88,0q-18.51-45.98-37.02-91.96l.59-1.47c4.53,6.02,9.71,11.71,14.4,17.63,1.16-.12,11.49-17.12,14.98-17.63Z" style="fill:#c68760; stroke-width:0px;"/><path d="m357.95,507.07l-38.2,95.2c-.2,0-.39,0-.59,0,.7-23.52-2.4-47.98-14.69-68.46,6.9-7.49,17.67-9.54,24.09-17.34,3.82,4.69,8.03,9.09,11.46,14.1q8.96-11.75,17.92-23.51Z" style="fill:#c68760; stroke-width:0px;"/><path d="m396.73,390.72c.09.26,3.43,3.86,3.53,4.11.52,1.44.57,1.11.59,1.18.23.66,2.25,12.57,2.35,13.81,3.41,42.83-23.04,64.9-45.25,97.25q-8.96,11.75-17.92,23.51c-3.43-5.01-7.63-9.41-11.46-14.1-4.72-5.79-8.66-12.45-14.1-17.63-1.64-1.56-2.76-3.72-4.99-4.7-2.43-.37-5.31,2.03-7.35,2.94-15.68,6.85-11.85,2.77-25.56-1.76-3.66,2.18-12.24,9.7-12.63,13.52-3.49.51-13.83,17.51-14.98,17.63-4.69-5.91-9.86-11.61-14.4-17.63-2.09-2.77-5.06-8.52-7.05-11.16q13.52-14.98,27.03-29.97c12.19,9.4,35.06,22.92,50.83,20.57,6.97-1.04,30.6-16.61,37.02-21.74,19.82-15.83,47.01-50.74,53.18-75.8.05.06.7-.03,1.18,0Z" style="fill:#f8efcc; stroke-width:0px;"/><path d="m204.58,386.61c0,1.18,0,2.35,0,3.53-.07,12.83-5.51,20.66,11.16,40.84,3.62,4.38,17.48,17.07,22.92,22.04.89.81,2.03,1.55,2.94,2.35,4.37,3.87,8.3,8.77,12.93,12.34q-13.52,14.98-27.03,29.97c-15.54-20.62-34.97-40.59-37.02-67.87-.56-7.51.11-22.16,2.94-29.09,2.02-4.96,7.12-10.69,11.16-14.1Z" style="fill:#429e95; stroke-width:0px;"/><path d="m302.12,497.08c-2.51,1.12-21.52,10.82-21.74,12.05-1.73,9.69,38.78,6.57,38.78-2.94,0-1.73-7.95-7.97-4.7-7.35,5.44,5.18,9.38,11.84,14.1,17.63-6.43,7.8-17.19,9.84-24.09,17.34,12.29,20.48,15.39,44.94,14.69,68.46-14.1,0-28.21,0-42.31,0-4.67-20.42-2.75-50.91,9.4-68.46-8.4-4.13-23.43-14.35-22.33-24.97.39-3.82,8.98-11.34,12.63-13.52,13.71,4.53,9.88,8.61,25.56,1.76Z" style="fill:#0e0d1d; stroke-width:0px;"/><path d="m314.46,498.84c-3.25-.63,4.7,5.62,4.7,7.35,0,9.51-40.51,12.62-38.78,2.94.22-1.22,19.23-10.93,21.74-12.05,2.04-.9,4.92-3.31,7.35-2.94,2.24.98,3.36,3.14,4.99,4.7Z" style="fill:#310d30; stroke-width:0px;"/><path d="m400.26,394.83c-.09-.25-3.44-3.86-3.53-4.11-1.37-3.9,1.06-3.73,1.18-4.11,1.88,2.76,4.91,5.19,2.35,8.23Z" style="fill:#a76871; stroke-width:0px;"/><path d="m395.55,390.72c-6.17,25.07-33.36,59.97-53.18,75.8-6.42,5.13-30.05,20.7-37.02,21.74-15.77,2.36-38.64-11.17-50.83-20.57-4.63-3.57-8.56-8.47-12.93-12.34-7.68-17.93-18.15-35.38-31.44-49.95,1.17,19.19,17.19,33.23,28.5,47.6-5.44-4.96-19.3-17.66-22.92-22.04-16.67-20.18-11.23-28.02-11.16-40.84l.88-.59c13.8,12.72,43,39.8,56.71,48.77,7.01,4.59,16.07,12.05,24.39,6.46,4.16-.33,9.78,3.95,16.45-.59.21,0,2.94,1.49,3.82,1.76.89.28,1.64.81,2.94,1.18,4.53,1.27,4.86,2.68,10.87,1.18,2.31-.58,36.62-19.98,40.84-24.39,5.19-8.33,8.59-17.73,16.16-24.39,1.69-1.49,16.05-10.73,17.04-10.58.86.13.82,1.69.88,1.76Z" style="fill:#0e0d1d; stroke-width:0px;"/><path d="m241.6,455.36c-.9-.8-2.05-1.54-2.94-2.35-11.31-14.37-27.33-28.41-28.5-47.6,13.29,14.56,23.76,32.02,31.44,49.95Z" style="fill:#22353b; stroke-width:0px;"/><path d="m348.54,445.37c2.24-1.24,4.77-2.26,7.05-3.53,6.49-3.6,12.27-9.1,11.75-5.58-.28,1.87-14.13,25.7-29.38,14.69,3.65-1.64,7.08-3.65,10.58-5.58Z" style="fill:#bc7964; stroke-width:0px;"/><path d="m379.1,416.58c-1.15,1.59-2.23,3.5-3.53,4.99-6.14,7.08-14.98,13.1-19.98,20.27-2.28,1.26-4.81,2.29-7.05,3.53-3.02.09,8.55-10.97,12.63-14.69,5.65-5.15,12.04-9.31,17.92-14.1Z" style="fill:#322e3c; stroke-width:0px;"/><path d="m379.1,416.58c.09-.13-.14-1.88,2.06-2.35.58.63-1.18,1.64-2.06,2.35Z" style="fill:#322e3c; stroke-width:0px;"/><path d="m194,256.74c2.35,2.86,4.13,5.32,8.23,6.46-2.77,2.72-8.05,3.71-11.75,5.29-6.87,2.93-7.08,3.11-12.93,7.64-1.6,1.24-3.56,2.44-5.29,3.53-.44-.99-9.43-8.12-11.16-10.28,2-1.16,3.89-3.09,4.11-3.23.22-.14,1.14-.12,4.7-2.35.52-.33,4.11-1.34,6.17-2.94,16.19-12.53,4.67-31.02,12.05-52.89.54,15.59-4.9,35.66,5.88,48.77Z" style="fill:#f0cf7b; stroke-width:0px;"/><path d="m204.58,330.19c3.94,11.18,6.01,30.8,12.93,49.95,2.19,6.06,5.06,11.63,7.35,17.63-14.44-14.55-18.14-35.12-20.86-54.65-.19-1.35-.42-2.78-.59-4.11-.17-1.33.13-2.77,0-4.11-.22-2.29-1.04-4.64-.59-7.05.14.3,1.5,1.61,1.76,2.35Z" style="fill:#1b0e27; stroke-width:0px;"/><path d="m214.56,353.11c.25.63.33,2.9.59,3.53-.92,12.17,9.02,23.64,8.81,24.97-.72,4.61-5.33-3.64-6.46-1.47-6.92-19.15-8.99-38.77-12.93-49.95l.59-1.18c3.16,8.01,6.17,16.12,9.4,24.09Z" style="fill:#ad595b; stroke-width:0px;"/><path d="m177.54,276.72c-.86,1.7,10.82,7.92,5.58,8.81-.37.06-1.38-.69-2.64-1.18-1.72-.66-2.21-1.13-4.11-1.76-.54-.18-1.36-.88-4.11-1.76-.05-.43.08-.99,0-1.18,1.73-1.08,3.69-2.28,5.29-3.53v.59Z" style="fill:#f0cf7b; stroke-width:0px;"/><path d="m176.37,103.96c-3.67,8.88-4.57,19.37-2.94,28.79,1.93,19.34-10.95-18.01-13.22-18.8-2.7-.94-.71,4.44-5.88,9.4-2.2.62-3.72-4.03-4.11-4.11-.37-.08-4.05,3.45-6.76,2.35,1.9-5.86,4.78-12.16,7.64-17.63.92-1.75,2.37-4.93,2.94-5.88,9.41-15.73,25.82-31.01,40.55-41.72,6.28.11-5.8,10.68-11.16,22.62-1.37,3.06-6.69,22.12-7.05,24.97Z" style="fill:#f0cf7b; stroke-width:0px;"/><path d="m436.69,207.38l-24.09,21.74c-.36-2.32-.74-4.75-1.18-7.05-.04-.19.04-.4,0-.59,1.61-2.82,5.67-8.55,6.46-9.99,6.1-3.15,10.84-8.37,15.28-13.52,7.51-8.71,9.04-12.18,13.52-22.92-.21.96-.18,4.15-1.18,7.93-2.81,8.18-5.85,16.26-8.81,24.39Z" style="fill:#923854; stroke-width:0px;"/><path d="m436.69,207.38c-1.37,3.74-2.17,7.2-2.35,7.64-1.45,3.64-2.63,7.5-2.94,8.23-1.67,3.92-7.8,15.34-10.58,20.86-.27.54-1.13.21-1.18.29-8.49.54-5.45-5.01-7.05-15.28l24.09-21.74Z" style="fill:#0e0d1d; stroke-width:0px;"/><path d="m405.54,202.68c.92,1.9,2.24,3.92,2.94,5.88,1.43,4,2.15,8.74,2.94,12.93.04.19-.04.4,0,.59l.59,17.92,2.94,10.58c.28.63,1.7,1.37,1.76,1.47,5.41,8.98,12.32,13.37,21.15,5.29-3.31,5.47-3.39,11.95,4.11,13.52,2.85,9.24-4.06,13.41-12.93,11.16-6.04-1.53-12.47-5.18-19.69-4.7-9.46-4.28-19.51-6.96-29.68-8.81,2.32-3.05,5.09-1.17.59-4.7,2.05.1,4.42.13,6.46,0,4.51-.28,9.18-1.72,13.52-2.94,6.42.53,14.06,5.83,18.8,9.99.1.12.43,2.94,2.35,2.06-.62-.86-1.58-1.38-2.35-2.06-6.29-7.61-9.85-10.11-19.39-10.58-.95-.05-5.56,1.33-2.35-1.76,17.19-1.25,12.35-43.05,4.11-52.3,1.13-1.59,2.29-4.01,4.11-3.53Z" style="fill:#f0cf7b; stroke-width:0px;"/><path d="m194.59,169.77c3.4,2.77,6.06,4.86,8.23,8.81-.9,9.78-7.44,15.19-11.75,23.51-1.01,1.94-2.23,3.78-2.94,5.88-7.37,21.87,4.14,40.36-12.05,52.89-2.06,1.6-5.65,2.61-6.17,2.94-.23-3.06,7.05-9.95,6.46-13.81-5.55-7.81-11.22-15.7-15.87-24.09-1.35-2.44-10.7-21.17-11.16-22.33-1.23-3.07.06-3.08,0-3.23l.88,1.18c-.19-5.09-2.07-10.61-3.82-15.57,1.51.27,5.53,4.27,6.17,4.41,2.1.44-.79-3.71-3.23-14.1,18.23,15.06,16.54,15.49,17.34-5.29,19.38,5.06,19.52,5.95,16.75-9.99,2.31,3.82,8.71,6.81,11.16,8.81Z" style="fill:#0e0d1d; stroke-width:0px;"/><path d="m200.46,91.03c-17.73,26.35-21.5,50.08-5.88,78.74-2.45-2-8.86-4.99-11.16-8.81-.98-1.62-2.1-5.84-2.35-7.93-2.09-3.14-16.21-2.71-21.74-23.21-1.78-6.62-.94-5.19-.59.59.83,13.67,2.06,27.4,8.81,39.67-15.36-6.05-20.99-24.91-19.69-40.25-2.58,16.5-2.34,30.23,1.47,46.42,2.44,10.39,5.33,14.54,3.23,14.1-.64-.13-4.66-4.14-6.17-4.41,1.75,4.96,3.62,10.48,3.82,15.57l-.88-1.18c-11.02-28.95-15.91-47.87-5.88-78.74,2.71,1.1,6.39-2.43,6.76-2.35.39.08,1.92,4.73,4.11,4.11,5.17-4.97,3.18-10.34,5.88-9.4,2.27.79,15.15,38.14,13.22,18.8.67,3.88,3.6,10.95,6.17,14.1.7-.23-1.86-9.42-2.06-10.58,2.3-8.82,6.05-2.24,6.46-3.23.93-12.58-1.14-21.41,4.7-34.08.62-1.34,6.58-10.52,7.64-11.75,9.65-11.26,7.44-5.2,4.11,3.82Z" style="fill:#f0cf7b; stroke-width:0px;"/><path d="m217.5,380.14c1.14-2.17,5.75,6.08,6.46,1.47.21-1.34-9.74-12.81-8.81-24.97,8.54,20.87,18.89,42.35,34.67,57.88q-8.52-16.89-17.04-33.79c2.17,2.07,10.7,7.28,13.52,7.05.12,2.26,3.06,5.61,4.7,7.64,17.26,21.32,12.07,15.05,6.46,0-1.51-4.07-5.97-8.86-.59-12.63.8-4.19-2.29-13.35,2.06-11.46,4.96,2.15-.95,13.95.29,17.92q7.35,10.14,14.69,20.27c1.75,9.39,1.72,19.25.29,28.79-20.74-19.19-21.35-25.4-12.05,0-13.71-8.97-42.91-36.05-56.71-48.77l-.88.59c0-1.18,0-2.35,0-3.53-.01-14.53-1.2-28.97-.59-43.48,2.72,19.53,6.42,40.1,20.86,54.65-2.29-6-5.15-11.57-7.35-17.63Z" style="fill:#ad595b; stroke-width:0px;"/><path d="m289.78,240.29c-4.84,4.61-14.76,29.09-16.45,36.14-1.8,7.47-2.63,17.36-1.76,24.97.96,8.47,4.77,13.57,5.88,20.27,1.33,8.04-.87,18.5.59,24.97.56,2.5-1.22,3.24,2.94,2.94-.94,1.6-1.57,2.29-3.53,2.35-5.25.17-10.71-3.4-14.69-6.46,1.69-14.06,2.85-29.53,0-43.48-.22-1.08-.47-1.32-.59-1.76,2.12-3.16.69-12.26-2.35-15.28.53-.79,1.85-1.58,2.35-2.35.24-.37.29-.02.59-1.18.64-2.48-.55-5,0-7.35,1.49-6.31,6.44-12.52,4.11-13.22,7.52-4.65-2.43-1.19-4.11-1.18-.55,0-1.94-1.18-2.06-1.18-9.49.17-18.46,2.51-27.91,2.94,6.23-2.29,12.57-3.2,18.8-5.29,9.98-3.35,19.28-9.86,24.09-19.98,9.06,1.33,3.5,1.5,3.53,7.05-.75,1.55-3.26,6.09,0,2.64,4.54-4.79,12.49-17.92,14.1-24.39,2.19-.69,2.34,6.28,7.05,12.63-4.15-.92-4.41,4.67-6.76,5.58-1.59.62-1.63-1.5-3.82.59Z" style="fill:#e6b475; stroke-width:0px;"/><path d="m285.08,421.28c.75,2.38,2.06,4.6,2.64,7.05.68-.12-.21-4.6-.29-5.29,5.17.71,9.22,15.83,12.34,21.45,2.44-1.64,5.55-1.58,7.05,1.47-.88-.27-3.61-1.77-3.82-1.76-6.68,4.54-12.29.25-16.45.59-8.32,5.58-17.38-1.88-24.39-6.46-9.3-25.4-8.7-19.19,12.05,0,1.43-9.54,1.46-19.41-.29-28.79-.23-1.26-.24-2.85-.59-4.11,2.28-1.86,7.35,11.34,11.75,15.87Z" style="fill:#efc685; stroke-width:0px;"/><path d="m231.02,293.76c7.35-.23,10.44,2.64,13.52,9.4,2.07,4.54,6.18,21.79,5.29,27.03-3.32-18.28-19.5-37.77-36.14-18.8-1.85.26-3.92-1.18-4.41-1.18-.77-1.81-.46-3.83-.59-4.11,1.46-.42,1.07-1.53,1.18-1.76,5.37-5.35,13.46-10.33,21.15-10.58Z" style="fill:#f0cf7b; stroke-width:0px;"/><path d="m223.38,365.45c1.92,4.25,6.2,12.21,9.4,15.28q8.52,16.89,17.04,33.79c-15.78-15.53-26.13-37.01-34.67-57.88-.25-.62-.33-2.9-.59-3.53,6.08-.61,4.13,9.86,8.81,12.34Z" style="fill:#1b0e27; stroke-width:0px;"/><path d="m253.94,311.98c3.47,11.98,2.73,25.49.59,37.61-1.66.42-4.75.61-4.11-1.76,1.31.16,2.21-5.75,2.35-7.35,1.11-12.41-1.96-25.22-6.46-36.73,3.9.28.91-.82,2.35-1.76,2.07,3.06,4.26,6.43,5.29,9.99Z" style="fill:#1b0e27; stroke-width:0px;"/><path d="m198.11,293.76c-.19.61-.59.73-.59,1.18.03,1.78,5.04,9.51,5.58,9.4.73-.92.82-2.24.88-2.35,1.29,2.29,3.75,1.98,4.7,4.11.12.28-.18,2.3.59,4.11-1.89,0-5.91,2.76-12.93-3.53-1.19-2.42-4.09-8.04-5.29-8.23.41-.45.77-1.31,1.18-1.76,1.29-1.46,2.81-2.73,4.11-4.11l1.76,1.18Z" style="fill:#c68760; stroke-width:0px;"/><path d="m275.09,397.18c6.05,9.84,6.74,13.81,9.99,24.09-4.4-4.52-9.47-17.73-11.75-15.87-.92-3.35-8.1-15.49-7.05-17.92,1.3-3.02,5.33,4.03,8.81,9.7Z" style="fill:#bc7964; stroke-width:0px;"/><path d="m289.19,354.87l-2.94-1.47c-.98,5.65.95,14.24-4.11,17.34-.58-.1-1.37.22-1.76.59-1.86-4.61.8-14.23-2.35-14.1.23-.57,1.09-2.81,1.18-2.94,3.37-4.88,7.06-4.31,9.99.59Z" style="fill:#f9e99c; stroke-width:0px;"/><path d="m282.14,370.74v.59c-2.71,1.03,1.15,1.29,1.76,3.82.22.92.31,13.12,0,13.81-2.33.32-3.84,3.09-3.53,5.29h-.59c-3.62-5.39.05-5.11,0-6.76-.02-.83-6.42-9.91-1.18-15.57.06-.07,1.04.08,1.76-.59.39-.36,1.18-.69,1.76-.59Z" style="fill:#f0cf7b; stroke-width:0px;"/><path d="m259.81,337.83c-.35,1.82-.63,3.5-1.18,5.29-.65,2.12-1.28,5.75-4.11,6.46,2.14-12.12,2.88-25.63-.59-37.61,5.33,1.11,5.13,9.49,4.11,14.4,5.24.82-1.28,10.09,1.76,11.46Z" style="fill:#e69c76; stroke-width:0px;"/><path d="m280.38,394.25c4.19,9.04,5.9,18.97,7.05,28.79.08.69.98,5.17.29,5.29-.58-2.45-1.89-4.67-2.64-7.05-3.25-10.28-3.94-14.25-9.99-24.09,4.3,1.1,1.14-.1,4.7-2.94h.59Z" style="fill:#28121e; stroke-width:0px;"/><path d="m262.75,345.47c-2.07-1.59-.62-2.93-4.11-2.35.55-1.79.83-3.47,1.18-5.29,1.19-6.24,1.92-14.23,1.76-20.57,4.15-1.87-.98-10.74,1.18-15.28,2.85,13.96,1.69,29.43,0,43.48Z" style="fill:#1b0e27; stroke-width:0px;"/><path d="m246.3,303.75c4.5,11.5,7.58,24.32,6.46,36.73-.14,1.59-1.04,7.51-2.35,7.35,1.22-4.88.33-12.59-.59-17.63.89-5.24-3.22-22.49-5.29-27.03,1.66-1.22.76.52,1.76.59Z" style="fill:#7f4859; stroke-width:0px;"/><path d="m280.38,371.33c-.72.67-1.7.52-1.76.59-4.18-2.16-2.05-11.01-.59-14.69,3.15-.12.49,9.49,2.35,14.1Z" style="fill:#f9e99c; stroke-width:0px;"/><path d="m257.46,395.42c5.6,15.05,10.79,21.32-6.46,0,3.79.98,4.41,4.16,6.46,0Z" style="fill:#1b0e27; stroke-width:0px;"/><path d="m249.82,330.19c.92,5.04,1.81,12.75.59,17.63-.63,2.37,2.45,2.18,4.11,1.76,2.84-.72,3.46-4.34,4.11-6.46,3.49-.58,2.04.76,4.11,2.35,3.98,3.06,9.44,6.63,14.69,6.46.45,1.16,2.21-.26,1.76,2.35-.09.13-.95,2.37-1.18,2.94-1.46,3.69-3.59,12.53.59,14.69-5.24,5.66,1.15,14.74,1.18,15.57.05,1.65-3.62,1.37,0,6.76-3.56,2.84-.4,4.04-4.7,2.94-3.48-5.67-7.52-12.71-8.81-9.7-1.05,2.44,6.13,14.57,7.05,17.92.35,1.27.35,2.86.59,4.11q-7.35-10.14-14.69-20.27c-1.24-3.97,4.66-15.77-.29-17.92-4.35-1.89-1.25,7.27-2.06,11.46-5.39,3.78-.93,8.57.59,12.63-2.05,4.16-2.67.98-6.46,0-1.64-2.02-4.58-5.38-4.7-7.64,2.41-.2,4.26-2.61,3.53-4.99-.51-1.67-7.66-3.35-10.87-5.58-14.39-10.01-18.32-36.86-24.09-52.3.4,13.9,2.79,27.83,8.52,40.55-4.68-2.48-2.73-12.95-8.81-12.34-3.23-7.98-6.24-16.08-9.4-24.09-1.67-4.24-2.94-8.73-4.7-12.93-1.3-3.09-2.64-6.4-4.11-9.4,7.02,6.28,11.04,3.53,12.93,3.53.48,0,2.55,1.44,4.41,1.18,16.64-18.97,32.82.53,36.14,18.8Z" style="fill:#0e0d1d; stroke-width:0px;"/><path d="m218.97,311.98c14.93,7.78,21.51,33.57,19.1,49.07-3.99,25.67-24.99-46.38-19.1-49.07Z" style="fill:#5c5a59; stroke-width:0px;"/><path d="m246.3,387.78c-2.82.23-11.35-4.98-13.52-7.05-3.2-3.07-7.48-11.03-9.4-15.28-5.73-12.71-8.13-26.65-8.52-40.55,5.78,15.44,9.7,42.29,24.09,52.3,3.21,2.23,10.36,3.92,10.87,5.58.73,2.38-1.11,4.8-3.53,4.99Z" style="fill:#e6b475; stroke-width:0px;"/><path d="m267.16,351.94c7.93-3.05,6.95,17.23,4.11,18.22-9.54,3.32-6.45-17.32-4.11-18.22Z" style="fill:#e6b475; stroke-width:0px;"/><path d="m262.75,362.51c-4.94.68-7.62,2.16-4.7,7.05-3.28-.74-1.57-14.62,0-17.34,3.71-6.44,7.54-.57,4.7,10.28Z" style="fill:#c68760; stroke-width:0px;"/><path d="m251.29,362.51c.55.03,1.38,3.25,1.47,3.82,3.23,20.7-7.76,6.64-1.47-3.82Z" style="fill:#923854; stroke-width:0px;"/><path d="m268.04,384.84c5.33,0,.12-6.66.59-13.52,4.85-.53,6.32,16.57,2.64,16.45-.76-.02-2.81-1.88-3.23-2.94Z" style="fill:#c68760; stroke-width:0px;"/><path d="m268.63,371.33c-.47,6.86,4.74,13.52-.59,13.52-.92-2.33-2.38-13.19.59-13.52Z" style="fill:#e69c76; stroke-width:0px;"/><path d="m262.75,362.51c-.55,2.11-1.43,7.79-4.7,7.05-2.92-4.89-.24-6.37,4.7-7.05Z" style="fill:#bc7964; stroke-width:0px;"/><path d="m192.23,296.7c-.4.45-.77,1.31-1.18,1.76-1.79,1.98-2.87,4.78-5.58,5.88-.6-.23-1.44-7.2-1.47-8.23,0-.27.93-4.12,1.18-5.29,2.51.47,4.6,4.18,7.05,5.88Z" style="fill:#f0cf7b; stroke-width:0px;"/><path d="m205.16,263.2c2.7,1.67,5.54,2.58,8.52,3.53.74.9-1.51,2.05-2.06,2.35-4.63,2.57-15.85,3.52-28.21,17.63-.14-.13-1.47.27-2.94-2.35,1.26.48,2.27,1.24,2.64,1.18,5.24-.9-6.44-7.11-5.58-8.81l12.93-8.23c3.7-1.58,8.98-2.57,11.75-5.29.71.2,2.01-.13,2.94,0Z" style="fill:#f9e99c; stroke-width:0px;"/><path d="m195.76,208.55c-5.2,12.01-9.05,36.72,0,47.6l-1.76.59c-10.78-13.11-5.33-33.18-5.88-48.77.71-2.1,1.93-3.94,2.94-5.88,2.02-1.47,3.83,4,4.7,6.46Z" style="fill:#e6b475; stroke-width:0px;"/><path d="m205.16,263.2c-.92-.13-2.23.2-2.94,0-4.09-1.14-5.87-3.6-8.23-6.46l1.76-.59c1.14,1.37,7.56,5.91,9.4,7.05Z" style="fill:#7c3c23; stroke-width:0px;"/><path d="m190.47,268.49l-12.93,8.23v-.59c5.84-4.53,6.06-4.71,12.93-7.64Z" style="fill:#935c2e; stroke-width:0px;"/><path d="m406.72,143.91c-3.76,18.63-4.15,24.25.59,43.78,16.62-31.36,16.51-49.37,13.52-3.23-3.36-5.43-2.23.74-2.94,2.06-3.81,7.09-7.44,14.03-9.4,22.04-.7-1.95-2.02-3.98-2.94-5.88-4.9-10.12-14.65-18.1-12.93-37.9,1.34-15.37,12.48-29.91,18.8-43.48.82-1.77,7.91-20.63,4.7-8.81-2.94,10.82-6.82,18.63-9.4,31.44Z" style="fill:#923854; stroke-width:0px;"/><path d="m426.7,180.35c-1.97,3.42-4.68,6.44-6.46,9.99.15-2,.46-3.93.59-5.88,2.99-46.14,3.1-28.13-13.52,3.23-4.74-19.53-4.34-25.15-.59-43.78,6.73-3.32.74,1.39,5.88,1.18-.65,2.3-1.29,3.95-1.76,6.46-.05.29-1.42.76-.59,4.99,2.56,2.84,7-10.09,13.52-14.69,1.44,9.38,3.38,18.64,2.94,28.21-5.48,14.68-1.65,10.16,0,10.28Z" style="fill:#f0cf7b; stroke-width:0px;"/><path d="m197.52,98.67c-3.24,9.85-4.26,10.94-4.7,22.33-1.1,28.06,10,47.07,10.58,52.59.37,3.58-.56,4.74-.59,4.99-2.17-3.95-4.83-6.04-8.23-8.81-15.62-28.67-11.86-52.39,5.88-78.74-.96,2.59-2.07,4.99-2.94,7.64Z" style="fill:#923854; stroke-width:0px;"/><path d="m401.43,206.2c8.24,9.25,13.08,51.05-4.11,52.3-.09,0,.19-.91-1.76-.29-.1-.23.76-1.54,1.18-2.64,6.49-17.26,6.76-20.56,3.53-39.96,1.97-2.81-.94-8.13-.59-9.11.46-.6,1.66-.15,1.76-.29Z" style="fill:#e6b475; stroke-width:0px;"/><path d="m199.87,202.09c-4.99,11.92-6.11,31.8-2.35,44.07.66,2.16,1.25,3.33,2.35,5.29,2.05,3.66,1.92,3.63,5.29,6.46.96.81,6.09,4.56,6.46,4.7-1.79,3.86,4.77,2.51,6.46,4.99-1.98.65-3.94,1.28-5.88,2.06l-.59-.59c.54-.3,2.8-1.46,2.06-2.35-2.99-.94-5.82-1.86-8.52-3.53-1.85-1.14-8.26-5.68-9.4-7.05-9.05-10.87-5.2-35.58,0-47.6.7-1.61,1.66-3.18,1.76-4.99l2.35-1.47Z" style="fill:#f0cf7b; stroke-width:0px;"/><path d="m176.37,103.96c-1.38,10.86-.66,21.61,1.18,32.32.2,1.15,2.76,10.34,2.06,10.58-2.57-3.15-5.5-10.22-6.17-14.1-1.63-9.43-.73-19.91,2.94-28.79Z" style="fill:#572a29; stroke-width:0px;"/><path d="m427.87,185.05c-1.11,3.09-1.79,6.31-2.94,9.4-1.89,5.09-2.67,8.16-5.29,13.52-.94-5.84.15-11.82.59-17.63,1.78-3.55,4.49-6.57,6.46-9.99,3.9.29-1.94,4.52,1.18,4.7Z" style="fill:#923854; stroke-width:0px;"/><path d="m192.82,121c.45-11.39,1.46-12.48,4.7-22.33,2.6.41-.37,10.14-.59,13.22-.33,4.64,1.98,17.66-3.53,16.45l-.59-7.35Z" style="fill:#f0cf7b; stroke-width:0px;"/><path d="m433.16,197.98c-4.43,5.14-9.18,10.37-15.28,13.52.63-1.14,1.19-2.35,1.76-3.53,2.62-5.36,3.39-8.42,5.29-13.52,4.48-.05,4.1,3.48,8.23,3.53Z" style="fill:#f0cf7b; stroke-width:0px;"/><path d="m319.75,198.56h-.59c-5.2,2.53-8.7,7.39-12.34,11.75-2.66-6.7-8.04-4.82-9.4-5.29-.16-.06-1.99-2.26-1.76-2.94.13-.09,1.27-1.88,2.06-2.35q4.7,3.53,9.4,7.05c.84-.07,4.33-7.55,13.22-9.99-.48,2.21-.57,1.67-.59,1.76Z" style="fill:#361510; stroke-width:0px;"/><path d="m295.66,202.09c-.23.67,1.6,2.88,1.76,2.94-.9,1.51-3.23,5.11-3.53,6.46l-6.46-.59c-.1-2.4.05-2.8,0-2.94,2.91-1.78,5.38-3.99,8.23-5.88Z" style="fill:#bc7964; stroke-width:0px;"/><path d="m446.68,175.06c-4.48,10.74-6.01,14.21-13.52,22.92-4.12-.04-3.75-3.58-8.23-3.53,1.15-3.09,1.83-6.31,2.94-9.4,3.35-9.29,6.26-18.75,9.99-27.91,4.95-25.17.19-2.03-3.53,7.64-1.25,3.25-5.77,12.33-7.64,15.57-1.65-.12-5.48,4.39,0-10.28.44-9.57-1.5-18.83-2.94-28.21-6.51,4.6-10.96,17.53-13.52,14.69-.83-4.24.53-4.7.59-4.99,4.28-10.6,10.85-25.27,10.58-36.14-2.12,10.14-6.02,19.74-8.81,29.68-5.13.21.85-4.5-5.88-1.18,2.58-12.81,6.47-20.62,9.4-31.44,3.21-11.82-3.88,7.05-4.7,8.81-6.33,13.58-17.47,28.11-18.8,43.48-1.72,19.8,8.03,27.78,12.93,37.9-1.82-.48-2.98,1.93-4.11,3.53-.1.14-1.3-.3-1.76.29-.35.98,2.56,6.3.59,9.11-1.52-9.09-.21-10.73-8.52-17.63-13.76-11.43-65.99-26-71.4-1.18-8.89,2.44-12.38,9.92-13.22,9.99q-4.7-3.53-9.4-7.05c-.79.47-1.93,2.26-2.06,2.35-2.85,1.89-5.32,4.1-8.23,5.88-.74-2.03-5.54-3.73-8.23-7.35-1.22-1.64-2.83-8-6.76-11.46-15.13-13.33-59.12-1.61-72.57,12.93l-2.35,1.47c-.11,1.81-1.07,3.39-1.76,4.99-.87-2.46-2.68-7.93-4.7-6.46,4.32-8.31,10.85-13.72,11.75-23.51.02-.25.96-1.42.59-4.99-.58-5.52-11.68-24.53-10.58-52.59l.59,7.35c5.51,1.2,3.2-11.81,3.53-16.45.22-3.08,3.19-12.81.59-13.22.87-2.65,1.98-5.04,2.94-7.64,3.33-9.02,5.53-15.07-4.11-3.82-1.06,1.24-7.02,10.41-7.64,11.75-5.84,12.67-3.77,21.5-4.7,34.08-.42.99-4.16-5.59-6.46,3.23-1.84-10.71-2.55-21.46-1.18-32.32.36-2.86,5.68-21.92,7.05-24.97,5.36-11.94,17.44-22.51,11.16-22.62,73.17-53.24,181.92-40.85,232.7,22.04,24.56,30.41,27.67,59.48,19.39,96.67Z" style="fill:#f9e99c; stroke-width:0px;"/><path d="m243.06,163.89c22.04-1.39,44.29,5.3,52.01,27.91-9.6-20.39-30.54-27.94-52.01-27.91Z" style="fill:#624412; stroke-width:0px;"/><path d="m333.56,163.31c11.52-1.08-7.09,2.42-9.99,3.53-10.69,4.1-20.41,14.98-24.39,25.56,3.41-16.07,18.3-27.58,34.38-29.09Z" style="fill:#624412; stroke-width:0px;"/><path d="m427.87,185.05c-3.12-.18,2.73-4.41-1.18-4.7,1.86-3.24,6.39-12.32,7.64-15.57,3.71-9.67,8.47-32.81,3.53-7.64-3.73,9.16-6.64,18.62-9.99,27.91Z" style="fill:#7a4639; stroke-width:0px;"/><path d="m410.83,151.55c.47-2.51,1.12-4.17,1.76-6.46,2.79-9.94,6.7-19.54,8.81-29.68.27,10.87-6.3,25.54-10.58,36.14Z" style="fill:#935c2e; stroke-width:0px;"/><path d="m420.82,184.46c-.13,1.95-.44,3.88-.59,5.88-.44,5.81-1.53,11.79-.59,17.63-.57,1.17-1.13,2.38-1.76,3.53-.8,1.44-4.85,7.16-6.46,9.99-.79-4.19-1.51-8.93-2.94-12.93,1.96-8.01,5.59-14.95,9.4-22.04.71-1.32-.42-7.48,2.94-2.06Z" style="fill:#7c1352; stroke-width:0px;"/><path d="m412.6,229.12c1.6,10.27-1.44,15.82,7.05,15.28-.18.37.03,2.91-2.94,7.64-.06-.1-1.48-.84-1.76-1.47l-2.94-10.58-.59-17.92c.43,2.3.81,4.73,1.18,7.05Z" style="fill:#e69c76; stroke-width:0px;"/><path d="m283.91,388.96c4.49,1.07,4.97,9.41,8.81,10.58-.22,1.42-.08,1.05,0,2.35.39,6.43,4.91,14.84,7.64,20.57.89,1.86.33,3.19,1.18,4.99l15.28,19.98c-3.52,1.18-7.44-2.91-7.05-.29-1.3-.36-2.04-.9-2.94-1.18-1.51-3.05-4.61-3.11-7.05-1.47-3.12-5.62-7.17-20.73-12.34-21.45-1.15-9.82-2.86-19.76-7.05-28.79-.32-2.2,1.2-4.97,3.53-5.29Z" style="fill:#f0cf7b; stroke-width:0px;"/><path d="m301.53,410.7c-.15.83-.57.63-1.18.59-.54-2.31-4.6-10.57-7.64-9.4-.08-1.3-.22-.93,0-2.35.19-1.19,3.45-8.75,4.41-8.81,3.65-.26,1.16,17.79,4.41,19.98Z" style="fill:#f0cf7b; stroke-width:0px;"/><path d="m300.36,411.29c.75,3.2,1.08,8.04,0,11.16-2.73-5.73-7.25-14.14-7.64-20.57,3.04-1.17,7.09,7.09,7.64,9.4Z" style="fill:#e6b475; stroke-width:0px;"/><path d="m401.43,329.02c-.02.15-.33.82-.59,2.94-1.99.49-2.96,8.54-4.7,13.81-2.84,8.57-6.48,17.11-9.7,25.56-.18-10.46,1.23-32.05.29-39.96-.02-.19.05-.41,0-.59,2.18-2.75,7.94-10.34,6.46-12.93,3.52-3.47,7.42-9.9,11.16-13.52.36,8.16-1.84,16.46-2.94,24.68Z" style="fill:#53bfa3; stroke-width:0px;"/><path d="m386.74,330.78c-.02-.08-.9-1.11-1.18-1.18.51-3.11,1.23-8.59,2.35-8.81.7.17-.74,3.01,5.29-2.94,1.48,2.59-4.28,10.18-6.46,12.93Z" style="fill:#53bfa3; stroke-width:0px;"/><path d="m353.25,376.03l-4.99,7.05c-.5-.31-.32-1.77-.29-2.35.04-.95,2.27-7.48,2.64-7.64,2.42-.4,2.49,2.78,2.64,2.94Z" style="fill:#151b18; stroke-width:0px;"/><path d="m387.92,320.79c-1.12.22-1.84,5.7-2.35,8.81-3.37,20.58-4.28,27.59-14.69,46.72-6.81,8.74-17.73,29.89-3.53,7.64,10.89-17.05,16.27-32.67,19.39-52.59.94,7.91-.47,29.5-.29,39.96,3.22-8.45,6.86-16.99,9.7-25.56,1.74-5.26,2.71-13.32,4.7-13.81-.28,2.35-.92,4.63-1.18,7.05-.67,6.42-.93,12.37-1.18,18.8-.11,2.73.08,5.49,0,8.23-.13,4.3.08,8.62,0,12.93,0,.21.88,1.03.59,4.11-.31,3.17-.95,2.74-1.18,3.53-.11.38-2.55.21-1.18,4.11-.48-.03-1.13.06-1.18,0-.06-.08-.02-1.63-.88-1.76-.99-.15-15.35,9.09-17.04,10.58-7.57,6.66-10.97,16.05-16.16,24.39-4.22,4.41-38.53,23.81-40.84,24.39-6.01,1.51-6.34.1-10.87-1.18-.39-2.61,3.53,1.48,7.05.29l-15.28-19.98c-.85-1.8-.29-3.14-1.18-4.99,1.08-3.12.75-7.97,0-11.16.6.04,1.02.24,1.18-.59,1.09-5.91-.18-23.07,7.93-20.57,6.28,1.94,1.29,20.3,2.35,25.27,1.59-6.6,2.64-13.43,4.41-19.98.57,2.72,5.4,1.92,7.93,1.18,4.64-1.36,4.54-5,8.52-7.05.47-.24,2.74,2.48,7.35-6.46.49-.13,3.43,2.64,6.76-2.94.04.05.93.53,1.18.59-.02.58-.21,2.04.29,2.35l4.99-7.05c.45.44,1.3-.73,1.76-.29.79.75-1.73,4.32,2.35,1.47,18.2-12.71,20.66-30.73,22.33-51.42.48-1.27,6.87-6.16,7.35-6.17,1.38-.02.81,1.16.88,1.18Z" style="fill:#f9e99c; stroke-width:0px;"/><path d="m386.74,330.78c.05.18-.02.4,0,.59-3.13,19.92-8.51,35.54-19.39,52.59-14.2,22.25-3.28,1.1,3.53-7.64,10.41-19.13,11.32-26.14,14.69-46.72.27.06,1.15,1.1,1.18,1.18Z" style="fill:#558f4f; stroke-width:0px;"/><path d="m331.21,394.25c1.57,2.33.01,6.09-2.35,7.64l2.35-7.64Z" style="fill:#1b0802; stroke-width:0px;"/><path d="m426.7,282.6c1.52,17.75-5.36,9.76-11.75,8.81-2.23-.33-6.74.43-7.05.59-1.38-.34-3.1-2.65-3.53-2.94-1.73-2.19,1.29-1.45,1.18-3.23-.29-4.58-15.78-11.4-19.39-14.4,5.94,1.56,11.67,3.53,17.34,5.88,8.2-.21,15.51,3.49,23.21,5.29Z" style="fill:#f0cf7b; stroke-width:0px;"/><path d="m379.69,268.49c10.16,1.86,20.22,4.53,29.68,8.81,7.22-.48,13.65,3.17,19.69,4.7.11.75-1.57.77-2.35.59-7.7-1.8-15.01-5.5-23.21-5.29-5.67-2.35-11.4-4.32-17.34-5.88-3.79-.99-7.29-2.1-11.16-2.94.9-1.4,3.35-.25,4.7,0Z" style="fill:#452715; stroke-width:0px;"/><path d="m360.3,259.09c7.38,1.63,11.71,4.29,19.98,4.7,4.5,3.53,1.73,1.65-.59,4.7-1.35-.25-3.8-1.4-4.7,0-3.1-.67-3.34-1.14-3.53-1.18-7.86-1.44-16.99-3.55-24.68,0,.87-2.24,3.63-2.11,0-4.7-2.61-1.87-6.43-1.56-9.4,0,1.7-10.34-21.02,2.53-7.35-5.29,4.9-1,5.81,2.56,6.76-3.53,4.83,2.26,17.2,3.89,23.51,5.29Z" style="fill:#f0cf7b; stroke-width:0px;"/><path d="m397.32,258.5c-3.21,3.1,1.4,1.72,2.35,1.76-.06.5.14.55.59.59-4.33,1.22-9.01,2.66-13.52,2.94l9.99-8.23c-.42,1.11-1.27,2.41-1.18,2.64,1.95-.61,1.67.3,1.76.29Z" style="fill:#e6b475; stroke-width:0px;"/><path d="m419.06,270.84c-4.74-4.16-12.38-9.46-18.8-9.99-.45-.04-.65-.09-.59-.59,9.54.46,13.1,2.97,19.39,10.58Z" style="fill:#6b3b15; stroke-width:0px;"/><path d="m419.06,270.84c.77.68,1.73,1.2,2.35,2.06-1.92.88-2.25-1.94-2.35-2.06Z" style="fill:#6b3b15; stroke-width:0px;"/><path d="m158.74,130.4l.59-.59c5.53,20.5,19.65,20.07,21.74,23.21.25,2.09,1.37,6.31,2.35,7.93,2.77,15.94,2.63,15.05-16.75,9.99-.8,20.78.9,20.35-17.34,5.29-3.81-16.19-4.05-29.92-1.47-46.42-1.3,15.34,4.32,34.2,19.69,40.25-6.75-12.27-7.99-26-8.81-39.67Z" style="fill:#923854; stroke-width:0px;"/><path d="m159.33,129.81l-.59.59c-.35-5.77-1.2-7.21.59-.59Z" style="fill:#a87e44; stroke-width:0px;"/><path d="m251.59,256.15c-6.23,2.09-12.58,3-18.8,5.29-1.19.44-2.71.61-3.53,1.76-4.54.22-10.15,2.19-17.63-.59-.37-.14-5.5-3.89-6.46-4.7,15.34-1.14,18.34-16.07,19.69-17.04q7.05-2.06,14.1-4.11l12.63,19.39Z" style="fill:#4d4547; stroke-width:0px;"/><path d="m286.84,212.08c3.15,10.54-3.27,22.16-7.64,31.14-.03-5.55,5.54-5.72-3.53-7.05,1.51-3.18,3.89-11.58,4.11-14.98,1.07-16.19-7.9-23.52.29-17.34,1.67,1.26,6.2,6.37,6.76,8.23Z" style="fill:#f0b282; stroke-width:0px;"/><path d="m293.89,211.49c-.59,2.69.15,7.04-.59,9.99-1.61,6.47-9.57,19.59-14.1,24.39-3.26,3.45-.75-1.09,0-2.64,4.37-8.98,10.79-20.6,7.64-31.14-.22-1.4.59-1.11.59-1.18l6.46.59Z" style="fill:#28121e; stroke-width:0px;"/><path d="m259.22,292.59c1.6,2.8,2.13,4.57,2.94,7.64.12.45.37.68.59,1.76-2.16,4.54,2.97,13.41-1.18,15.28-.06-2.49-.26-4.6-.59-7.05-1.56-11.75-4.89-18.91-14.1-26.44-.28-.23-1.24-2.94-6.17-2.94l.88-1.76c7.3,1.26,14.06,7.27,17.63,13.52Z" style="fill:#38141d; stroke-width:0px;"/><path d="m275.68,307.86c1.68,2.63,3.76,5.32,5.88,7.64-1.3,10.34-2.19,20.8-3.53,31.14-1.45-6.48.74-16.93-.59-24.97-1.11-6.71-4.92-11.8-5.88-20.27,1.77-.24,1.3,2.05,4.11,6.46Z" style="fill:#1f141a; stroke-width:0px;"/><path d="m262.75,259.68v.59c-.06,0,.2,1.11-.29,1.18-6.4.79-24.8,1.36-33.2,1.76.82-1.16,2.34-1.33,3.53-1.76,9.45-.42,18.42-2.77,27.91-2.94.12,0,1.51,1.18,2.06,1.18Z" style="fill:#d99964; stroke-width:0px;"/><path d="m259.81,284.95c3.04,3.02,4.47,12.12,2.35,15.28-.81-3.07-1.33-4.84-2.94-7.64.2-2.03-3.54-11.74.59-7.64Z" style="fill:#efc685; stroke-width:0px;"/><path d="m266.86,260.85c-1.82.3-2.72-.78-4.11-.59v-.59c1.69-.01,11.64-3.48,4.11,1.18Z" style="fill:#151212; stroke-width:0px;"/><path d="m339.73,370.15c1.23,7.45-1.65,7.97-2.35,9.7-.35.88.61.83.59.88-.47.95-2.04,5.46-3.23,5.29-7.51-18.13-7.18,5.32-11.46,2.64-.38-.24-5.2-6.9-5.29-7.35-.12-.57-.04-1.66,0-2.35.29-4.49,3.39-5.87,6.17-8.81,2.65.24,6.2,12.92,6.76,4.99,8.31-4.03,4.7-9.17,8.81-4.99Z" style="fill:#f9e99c; stroke-width:0px;"/><path d="m317.4,378.97c.01.12.01,2.23,0,2.35-.13,1.38-2.46,9.53-3.82,9.4-5.97-14.58-4.97-.96-9.4-2.35-3.47-1.09-3.85-10.74-.88-15.87.46-.79,1.71-1.08,1.76-1.18,4.46.08,4.02,3.32,4.41,3.53.54.28,6.8-6.02,7.93,4.11Z" style="fill:#f0cf7b; stroke-width:0px;"/><path d="m289.19,371.92c.56-.03.61-.56,1.18-.59,4.04-.19,6.72.73,7.64,5.58.31,1.62-.05,10.36-.59,11.75-4.81,12.57-14.6-11.97-8.23-16.75Z" style="fill:#f9e99c; stroke-width:0px;"/><path d="m303.88,352.52c-2.36,1.08,1.05,3.02,1.18,3.82.17,1.09-1.15,14.61-3.82,14.98-7.19,1.01-2.01-18.16-6.76-14.69,1.98-4.31,4.71-7.09,9.4-4.11Z" style="fill:#f9e99c; stroke-width:0px;"/><path d="m305.06,371.33c-.05.09-1.3.38-1.76,1.18-10.83,1.39-12.67-7.46-8.81-15.87,4.75-3.47-.43,15.7,6.76,14.69,2.67-.38,3.99-13.9,3.82-14.98-.12-.8-3.54-2.74-1.18-3.82,7.29,4.62,4.21,13.22,1.18,18.8Z" style="fill:#bdb76c; stroke-width:0px;"/><path d="m284.49,313.74c1.61.04,2.61.85,4.11.59,1.59,4.15,2.7,7.72,3.53,12.05.09.48,1.09.11,1.18.59.23,1.32,1.99,22.63,1.76,23.8-1.67,8.64-6.81-1.8-9.7-2.35-1.72-.33-3.8,1.13-4.41,1.18-4.16.3-2.38-.43-2.94-2.94,1.34-10.34,2.22-20.81,3.53-31.14.11-.89-.28-1.88.29-2.35.23-.15.91.54,2.64.59Z" style="fill:#f9e99c; stroke-width:0px;"/><path d="m300.95,304.93c-1.07-.05-.24-1.52-.88-1.76-.28-.11-.82,1.13-.88,1.18-2.07,1.61-4.95,8.95-5.29,11.46-.24,1.79.86,25.71,1.18,27.03.1.44.78.3,1.18.29.02,1.07-.57,5.74-.29,5.88,3.84-1.32,7.36-1.89,10.28,1.18-4.71-1.65-6.71-1.35-11.16.59.23-1.17-1.53-22.48-1.76-23.8-.08-.48-1.08-.11-1.18-.59-.83-4.32-1.93-7.89-3.53-12.05,2.42-.43,9.1-9.32,10.58-11.75,2.78-.42,1.34,1.26,1.76,2.35Z" style="fill:#e6b475; stroke-width:0px;"/><path d="m289.19,354.87c.73,1.22,2.9,8.09,2.94,9.7.06,2.32-.91,4.65-1.76,6.76-.56.03-.61.56-1.18.59-2.49.12-3.23,1.32-7.05-.59v-.59c5.06-3.09,3.13-11.69,4.11-17.34l2.94,1.47Z" style="fill:#bdb76c; stroke-width:0px;"/><path d="m248.65,301.99c-1.44.94,1.55,2.04-2.35,1.76-1-.07-.1-1.81-1.76-.59-3.08-6.76-6.17-9.64-13.52-9.4l-1.18-1.76c9.88-.71,13.49,2.13,18.8,9.99Z" style="fill:#28121e; stroke-width:0px;"/><path d="m209.28,294.35c-.08.14.07.41,0,.59-1.71,4.21,2.48-.79,2.35,4.7,0,.09-1.59.91,0,1.76-.92,1.14-1.19,1.59-1.76,2.94-.1.24.28,1.35-1.18,1.76-.95-2.14-3.42-1.83-4.7-4.11.89-1.49,1.43-3.23,2.35-4.7,1.57-2.51,2.24-2.79,2.35-2.94h.59Z" style="fill:#d99964; stroke-width:0px;"/><path d="m229.84,292l1.18,1.76c-7.7.24-15.78,5.22-21.15,10.58.58-1.35.84-1.8,1.76-2.94,4.09-5.07,11.73-8.93,18.22-9.4Z" style="fill:#452715; stroke-width:0px;"/><path d="m260.99,310.21c.33,2.45.53,4.56.59,7.05.16,6.34-.58,14.33-1.76,20.57-3.04-1.36,3.48-10.64-1.76-11.46,1.02-4.91,1.22-13.29-4.11-14.4-1.03-3.56-3.22-6.93-5.29-9.99-5.31-7.86-8.92-10.7-18.8-9.99-6.48.47-14.13,4.34-18.22,9.4-1.59-.85,0-1.67,0-1.76,4.33-3.79,2.67-4.84-2.35-4.7.07-.17-.08-.44,0-.59.73-1.32,1.99-1.98,2.94-2.94,5.54,0,16.41.47,20.86,0,.55-.06.03-1.68.59-1.76,8.64-1.23,13.32,5.42,20.57,8.81,2.45,2.37,3.8,12.3,6.76,11.75Z" style="fill:#efc685; stroke-width:0px;"/><path d="m206.34,297.29c-.92,1.47-1.46,3.21-2.35,4.7-.06.11-.15,1.43-.88,2.35-.54.11-5.55-7.62-5.58-9.4,3.75,1.67,6.73-1.38,8.81,2.35Z" style="fill:#e6b475; stroke-width:0px;"/><path d="m208.69,293.76c-.09.13.09.46,0,.59-.11.15-.78.43-2.35,2.94-2.09-3.73-5.06-.68-8.81-2.35,0-.45.4-.57.59-1.18.2-.65.8-1.17,1.18-1.76,3.15.43,6.85.32,9.4,1.76Z" style="fill:#f0cf7b; stroke-width:0px;"/><path d="m211.63,269.08l.59.59c-7.15,2.87-23.94,11.82-27.03,18.8-2.06.1-1.67-1.68-1.76-1.76,12.35-14.11,23.57-15.06,28.21-17.63Z" style="fill:#563b25; stroke-width:0px;"/><path d="m360.3,259.09c-6.31-1.39-18.68-3.03-23.51-5.29-9.74-4.55-16.69-22.25-17.63-32.32,1.94-1.9,3.16,2.82,9.11,7.05,9.21,6.56,30.04,13.91,40.84,30.26l-8.81.29Z" style="fill:#4d4547; stroke-width:0px;"/><path d="m400.26,215.61c3.24,19.4,2.97,22.7-3.53,39.96l-9.99,8.23c-2.04.13-4.42.1-6.46,0-8.27-.41-12.6-3.07-19.98-4.7l8.81-.29c-10.8-16.35-31.63-23.71-40.84-30.26-5.95-4.24-7.17-8.96-9.11-7.05-.34-3.69.03-19.47.59-22.92.01-.09.11.45.59-1.76,5.41-24.83,57.64-10.25,71.4,1.18,8.31,6.9,7,8.54,8.52,17.63Z" style="fill:#0e0d1d; stroke-width:0px;"/><path d="m374.69,237.94c1.18-.29,14.59,3.51,10.28,16.16-7.45,21.9-17.46-14.42-10.28-16.16Z" style="fill:#65214b; stroke-width:0px;"/><path d="m287.43,207.97c.05.14-.1.54,0,2.94,0,.07-.81-.22-.59,1.18-.55-1.86-5.09-6.97-6.76-8.23-8.2-6.18.78,1.14-.29,17.34-.23,3.41-2.6,11.8-4.11,14.98-4.81,10.12-14.11,16.63-24.09,19.98l-12.63-19.39q-7.05,2.06-14.1,4.11c-1.34.97-4.35,15.9-19.69,17.04-3.37-2.84-3.23-2.8-5.29-6.46,10.93,4.44,25.65-5.33,14.69-13.52,11.19-12.7-7.11-21.93-12.34-12.63-1.37,2.43-3.2,11.5,0,12.63-2.1,1.46-3.72,5.88-4.7,8.23-3.76-12.27-2.64-32.15,2.35-44.07,13.45-14.54,57.44-26.25,72.57-12.93,3.92,3.45,5.54,9.81,6.76,11.46,2.68,3.61,7.49,5.32,8.23,7.35Z" style="fill:#0e0d1d; stroke-width:0px;"/><path d="m214.56,237.94c10.95,8.19-3.76,17.96-14.69,13.52-1.1-1.95-1.69-3.12-2.35-5.29.99-2.35,2.6-6.77,4.7-8.23,3.44-2.38,8.98-2.51,12.34,0Z" style="fill:#65214b; stroke-width:0px;"/><path d="m214.56,237.94c-3.36-2.51-8.9-2.38-12.34,0-3.2-1.13-1.37-10.21,0-12.63,5.23-9.29,23.53-.06,12.34,12.63Z" style="fill:#310d30; stroke-width:0px;"/><path d="m395.55,301.99l.88.59c4.21-4.98,5.31-3.89,5.58-4.11v.59c-18.18,18.01-11.42,9.05-24.09,3.53.63-2.08-5.7-2.88-5.88-3.82-.17-.93,3.26-4.8,2.35-5.58,11.36,1.83,19.28,8.51,21.15,8.81Z" style="fill:#e6b475; stroke-width:0px;"/><path d="m404.37,304.34c-3.75,3.61-7.64,10.05-11.16,13.52-6.03,5.94-4.59,3.1-5.29,2.94-.08-.02.49-1.2-.88-1.18-.48,0-6.86,4.9-7.35,6.17-1.67,20.69-4.13,38.71-22.33,51.42-3.9-1.11-1.02-29.02-4.41-28.79-3.91,16.05-3.71-7.59,2.64.29-3.05-13.32.33-55.72,22.33-46.13,12.67,5.52,5.91,14.49,24.09-3.53,1.1,1.54,1.53,3.71,2.35,5.29Z" style="fill:#0f151c; stroke-width:0px;"/><path d="m379.1,309.04c1.46,9.16-7.02,50.13-19.39,54.36-1.03-18.35-4.03-30.03,5.29-46.72l14.1-7.64Z" style="fill:#5c5a59; stroke-width:0px;"/><path d="m379.1,309.04l-14.1,7.64c5.46-9.77,12.79-15.88,14.1-7.64Z" style="fill:#bc7072; stroke-width:0px;"/><path d="m379.69,291.41c-6.32-1.41-8.53-.68-14.1,1.18-.61.2-3.37,1.08-3.53,1.18,2.96-5.44-7.38,2.43-9.99,8.23-2.4,2.36-1.3-3.04,0-7.05.31-.96.37-3.41.88-4.11,1.07-1.47,10.88-5.63,12.93-5.88,10.07-1.22,18.62,5.06,13.81,6.46Z" style="fill:#d99964; stroke-width:0px;"/><path d="m362.06,293.76c-10.61,6.32-12.02,26.46-12.34,37.61-.79-9.37-1.63-20.54,2.35-29.38,2.61-5.8,12.95-13.67,9.99-8.23Z" style="fill:#1b0802; stroke-width:0px;"/><path d="m379.69,291.41c4.48,1,12.94,6.76,15.87,10.58-1.88-.31-9.79-6.99-21.15-8.81-3.01-.48-5.76-.86-8.81-.59,5.58-1.85,7.79-2.59,14.1-1.18Z" style="fill:#2f1c14; stroke-width:0px;"/><path d="m374.4,293.17c.91.78-2.52,4.65-2.35,5.58.17.94,6.51,1.74,5.88,3.82-22-9.59-25.38,32.81-22.33,46.13-6.35-7.88-6.56,15.75-2.64-.29,3.39-.22.51,27.69,4.41,28.79-4.08,2.85-1.56-.72-2.35-1.47-.46-.44-1.31.74-1.76.29-.16-.15-.23-3.34-2.64-2.94-.37.16-2.61,6.69-2.64,7.64-.25-.06-1.14-.53-1.18-.59-4.65-6.77-3.35-1.78-8.81.59.02-.05-.94,0-.59-.88.7-1.73,3.58-2.24,2.35-9.7.84.85,3.52,6.03,4.7.29,1.01-4.9-1.7-.68-2.64-.88-5.25-1.1-3.62-21.41,3.53-19.39,1.96.55,3.38,5.7,3.53,7.64.7-.01.02-4.84.29-6.46.01-.07,1.12-.42,1.18-.88.78-6.53-.78-12.55-.59-19.1.32-11.15,1.73-31.29,12.34-37.61.16-.1,2.92-.97,3.53-1.18,3.05-.27,5.8.1,8.81.59Z" style="fill:#f0cf7b; stroke-width:0px;"/><path d="m349.13,368.98h-.59c-1.14-4.09-2.68-2.65-2.94-3.23-.79-1.78,6.03-8.01,3.53,3.23Z" style="fill:#151212; stroke-width:0px;"/><path d="m348.54,368.98h.59c-.16.73.32,1.8-.29,2.35-.56,0-.15-1.84-.29-2.35Z" style="fill:#8f7845; stroke-width:0px;"/><path d="m404.37,289.06c.42.29,2.14,2.6,3.53,2.94-.33.16-1.12.55-1.18.59-15.48-11.2-60.59-26.1-63.46,3.53-2.53-35.62,44.62-18.22,61.11-7.05Z" style="fill:#151b18; stroke-width:0px;"/><path d="m406.72,292.59c-.95.65-2.84,4.35-4.7,5.88-.27.22-1.37-.86-5.58,4.11l-.88-.59c-2.92-3.82-11.38-9.58-15.87-10.58,4.81-1.41-3.74-7.68-13.81-6.46-2.04.25-11.85,4.41-12.93,5.88-.51.7-.57,3.15-.88,4.11-1.05-4.3-4.15,3.3-7.35,6.46-1.67-.12-1.4-4.29-1.47-5.29,2.88-29.62,47.98-14.73,63.46-3.53Z" style="fill:#f0cf7b; stroke-width:0px;"/><path d="m311.52,311.39c-.22,1.45-1.09-.92-2.06-.59-.95.33-.7,1.45-.88,2.35-1.92-1.71-2.64,4.71-2.35,9.99-.41,0-1.02.16-1.18-.29-.31-.88,1.09-4.61-4.11-17.92-.43-1.09,1.01-2.77-1.76-2.35.05-.08-.13-.54.59-1.76,3.16-5.19,7.19,6.33,11.75,10.58Z" style="fill:#f0cf7b; stroke-width:0px;"/><path d="m296.25,343.12c-.4,0-1.07.14-1.18-.29-.31-1.32-1.42-25.24-1.18-27.03.34-2.51,3.22-9.84,5.29-11.46-2.92,10.14-3.11,27.69-2.94,38.78Z" style="fill:#1b0802; stroke-width:0px;"/><path d="m319.16,221.48c.94,10.07,7.89,27.77,17.63,32.32-.95,6.09-1.86,2.53-6.76,3.53-13.67,7.81,9.04-5.05,7.35,5.29-.36.19-5.15,5.24-4.99,6.46,4.39-3.03,8.98-5.94,14.4-6.46,3.63,2.59.87,2.46,0,4.7-8.41,3.88-10.26,20.28-5.88,7.93,9.14-10.92,17.53-9.39,30.56-7.93.18.03.43.5,3.53,1.18,3.88.84,7.37,1.94,11.16,2.94,3.61,3,19.1,9.81,19.39,14.4.11,1.78-2.91,1.05-1.18,3.23-16.5-11.17-63.64-28.57-61.11,7.05.07,1-.2,5.17,1.47,5.29,3.19-3.16,6.3-10.76,7.35-6.46-1.3,4.01-2.4,9.41,0,7.05-3.99,8.84-3.14,20.02-2.35,29.38-.19,6.54,1.37,12.57.59,19.1-.06.47-1.16.81-1.18.88-2-5.46-9.23-3.96-10.87,1.18-1.37-4.78-6.41-4.34-6.76-4.99-.61-1.13.92-16.83-.88-23.21-2.12,10.6,4.33,21.63-5.88,28.79-3.57-6.58-12.76-4.99-15.28,1.76-1.04.32-.57-1.91-3.23-4.7-2.92-3.07-6.45-2.49-10.28-1.18-.27-.13.31-4.81.29-5.88-.18-11.09.02-28.64,2.94-38.78.06-.05.6-1.28.88-1.18.64.25-.19,1.71.88,1.76,5.21,13.31,3.81,17.04,4.11,17.92.16.45.77.3,1.18.29.85,15.51,1.73-6.95,2.35-9.99.18-.9-.07-2.02.88-2.35.96-.33,1.83,2.04,2.06.59,1.05.98,2.33,1.78,3.23,2.94,3.16-1.72,5.74-2.86,8.52-5.29,10.04-8.75,7.15-19.79,2.94-30.85-2.78-7.3-20.07-36.07-25.27-41.13-5.46-5.32-2.56,6.95-11.16,3.23,2.19-2.08,2.22.03,3.82-.59,2.34-.91,2.6-6.5,6.76-5.58-4.71-6.36-4.86-13.33-7.05-12.63.74-2.95,0-7.3.59-9.99.3-1.35,2.63-4.96,3.53-6.46,1.37.47,6.74-1.41,9.4,5.29,1.98,4.97.71,15.96,4.41,21.74,1.74-.46-7.78-14.18,7.93-33.49h.59c-.55,3.45-.93,19.22-.59,22.92Z" style="fill:#f9e99c; stroke-width:0px;"/><path d="m306.82,210.32c3.64-4.36,7.14-9.22,12.34-11.75-15.71,19.32-6.19,33.04-7.93,33.49-3.7-5.78-2.43-16.77-4.41-21.74Z" style="fill:#c68760; stroke-width:0px;"/><path d="m371.46,267.32c-13.02-1.46-21.42-2.98-30.56,7.93-4.39,12.35-2.53-4.05,5.88-7.93,7.69-3.55,16.82-1.44,24.68,0Z" style="fill:#6b3b15; stroke-width:0px;"/><path d="m346.78,262.62c-5.41.52-10,3.44-14.4,6.46-.15-1.22,4.63-6.27,4.99-6.46,2.97-1.56,6.79-1.87,9.4,0Z" style="fill:#d99964; stroke-width:0px;"/><path d="m308.59,313.15c-.62,3.04-1.5,25.5-2.35,9.99-.29-5.28.43-11.7,2.35-9.99Z" style="fill:#87612c; stroke-width:0px;"/><path d="m328.86,303.75c.39,2.37-.3,5.1-.88,7.35-5.73,22.33-3.29.57.88-7.35Z" style="fill:#483915; stroke-width:0px;"/><path d="m323.28,309.04c-2.78,2.43-5.36,3.57-8.52,5.29-.9-1.16-2.18-1.96-3.23-2.94-4.56-4.25-8.59-15.77-11.75-10.58.58-1,.65-2.83,2.94-3.23-1.14-1.78-2.79-7.04-2.94-8.81-2.86-35.09,6.91-4.82,12.34,5.29.91,1.7,8.23,14.06,8.81,14.69,1,1.08,2.35-.91,2.35.29Z" style="fill:#22353b; stroke-width:0px;"/><path d="m323.28,309.04c0-1.21-1.35.78-2.35-.29-.58-.63-7.9-13-8.81-14.69-5.43-10.11-15.2-40.38-12.34-5.29.14,1.78,1.8,7.03,2.94,8.81-2.29.4-2.36,2.23-2.94,3.23-.71,1.23-.54,1.68-.59,1.76-1.48,2.43-8.15,11.33-10.58,11.75-1.5.26-2.51-.55-4.11-.59-16.1-17.81,7.17-54.82,4.41-55.82-11.69,13.27-19.42,32.63-13.22,49.95-2.82-4.42-2.35-6.7-4.11-6.46-.86-7.62-.03-17.51,1.76-24.97,1.7-7.05,11.61-31.53,16.45-36.14,8.61,3.72,5.71-8.55,11.16-3.23,5.2,5.07,22.49,33.84,25.27,41.13,4.21,11.06,7.1,22.1-2.94,30.85Z" style="fill:#0e0d1d; stroke-width:0px;"/><path d="m285.37,278.48c1.43.02,7.88,21.71,7.93,25.56.09,6.84-2.92,5.14-5.58,9.11-11.38-3.79-5.56-25.1-2.35-34.67Z" style="fill:#22353b; stroke-width:0px;"/><path d="m284.49,313.74c-1.73-.05-2.41-.74-2.64-.59-.58.47-.18,1.47-.29,2.35-2.12-2.32-4.2-5.01-5.88-7.64-6.19-17.32,1.53-36.68,13.22-49.95,2.77,1-20.51,38.02-4.41,55.82Z" style="fill:#efc685; stroke-width:0px;"/><path d="m241.6,279.07l-.88,1.76c4.94,0,5.89,2.71,6.17,2.94-11.9-6.33-25.66-1.51-34.67,7.64-.95.96-2.21,1.62-2.94,2.94h-.59c.09-.13-.09-.46,0-.59,7.61-10.43,19.74-16.96,32.91-14.69Z" style="fill:#322818; stroke-width:0px;"/><path d="m266.86,260.85c2.33.7-2.63,6.91-4.11,13.22-.55,2.35.64,4.87,0,7.35-1.61-10.55-11.15-17.41-11.75-15.57,4.7,4.84,8.27,10.68,11.16,16.75-.5.77-1.82,1.56-2.35,2.35-4.13-4.1-.39,5.61-.59,7.64-3.57-6.24-10.33-12.26-17.63-13.52-13.16-2.27-25.3,4.27-32.91,14.69-2.55-1.44-6.26-1.33-9.4-1.76,5.33-8.43,17.93-14.55,19.69-15.87,3.72-2.79-7.03,1.31-14.1,7.05-3.35,2.72-5.64,6.33-8.52,9.4-1.3,1.39-2.83,2.66-4.11,4.11-2.45-1.7-4.54-5.4-7.05-5.88.11-.53-.95-.19,0-2.35,3.09-6.98,19.88-15.93,27.03-18.8,1.93-.78,3.9-1.4,5.88-2.06-1.7-2.48-8.25-1.14-6.46-4.99,7.48,2.77,13.09.81,17.63.59,8.4-.4,26.8-.97,33.2-1.76.49-.06.23-1.17.29-1.18,1.4-.19,2.29.88,4.11.59Z" style="fill:#f0cf7b; stroke-width:0px;"/><path d="m262.75,281.42c-.3,1.15-.35.8-.59,1.18-2.89-6.07-6.46-11.9-11.16-16.75.6-1.84,10.14,5.02,11.75,15.57Z" style="fill:#2f1c14; stroke-width:0px;"/><path d="m199.29,292c-.37.59-.98,1.11-1.18,1.76l-1.76-1.18c2.88-3.07,5.17-6.69,8.52-9.4,7.08-5.74,17.83-9.85,14.1-7.05-1.76,1.32-14.35,7.44-19.69,15.87Z" style="fill:#744d2e; stroke-width:0px;"/><path d="m237.78,265.55q4.11.88,8.23,1.76c17.51,16.37.79,1.59-8.23-1.76Z" style="fill:#d39c58; stroke-width:0px;"/><path d="m246.88,283.77c9.22,7.53,12.54,14.69,14.1,26.44-2.96.54-4.3-9.38-6.76-11.75-7.25-3.4-11.93-10.05-20.57-8.81-.56.08-.03,1.7-.59,1.76-4.45.47-15.32,0-20.86,0,9.01-9.15,22.77-13.97,34.67-7.64Z" style="fill:#f0cf7b; stroke-width:0px;"/><path d="m349.13,351.35c-.27,1.63.4,6.45-.29,6.46-.14-1.94-1.57-7.09-3.53-7.64-7.14-2.02-8.78,18.3-3.53,19.39.94.2,3.65-4.02,2.64.88-1.18,5.73-3.86.56-4.7-.29-4.12-4.17-.5.96-8.81,4.99-.56,7.92-4.11-4.76-6.76-4.99-2.78,2.94-5.88,4.33-6.17,8.81h-.59c-1.13-10.13-7.4-3.83-7.93-4.11-.39-.2.05-3.44-4.41-3.53,3.04-5.58,6.12-14.18-1.18-18.8-4.7-2.97-7.42-.19-9.4,4.11-3.86,8.4-2.01,17.26,8.81,15.87-2.96,5.13-2.59,14.78.88,15.87,4.44,1.39,3.43-12.23,9.4,2.35,1.36.13,3.69-8.02,3.82-9.4h.59c.09.44,4.9,7.11,5.29,7.35,4.28,2.67,3.95-20.77,11.46-2.64,1.19.17,2.76-4.34,3.23-5.29,5.47-2.37,4.16-7.36,8.81-.59-3.33,5.57-6.26,2.81-6.76,2.94-4.6,8.94-6.87,6.22-7.35,6.46-2.7-9.56-2.71-1.46-3.53-.29-8.5,12.16-8.45-10.45-12.93,6.17-1.76,6.55-2.81,13.38-4.41,19.98-1.07-4.97,3.93-23.33-2.35-25.27-8.11-2.5-6.84,14.65-7.93,20.57-3.25-2.19-.75-20.24-4.41-19.98-.96.07-4.22,7.63-4.41,8.81-3.84-1.17-4.32-9.5-8.81-10.58.31-.69.22-12.89,0-13.81-.61-2.53-4.48-2.79-1.76-3.82,3.83,1.91,4.56.71,7.05.59-6.37,4.78,3.41,29.32,8.23,16.75.54-1.4.89-10.14.59-11.75-.92-4.85-3.6-5.77-7.64-5.58.85-2.11,1.82-4.44,1.76-6.76-.04-1.6-2.2-8.47-2.94-9.7-2.93-4.89-6.61-5.47-9.99-.59.45-2.61-1.32-1.19-1.76-2.35,1.95-.06,2.58-.75,3.53-2.35.61-.04,2.69-1.5,4.41-1.18,2.89.55,8.03,10.99,9.7,2.35,4.46-1.93,6.45-2.24,11.16-.59,2.66,2.79,2.19,5.03,3.23,4.7,2.52-6.75,11.71-8.35,15.28-1.76,10.21-7.16,3.76-18.19,5.88-28.79,1.8,6.38.27,22.08.88,23.21.35.65,5.39.22,6.76,4.99,1.64-5.13,8.88-6.63,10.87-1.18Z" style="fill:#151212; stroke-width:0px;"/><path d="m332.68,389.54c-3.98,2.05-3.88,5.69-8.52,7.05-2.54.75-7.36,1.54-7.93-1.18,4.48-16.62,4.43,5.99,12.93-6.17.82-1.17.83-9.26,3.53.29Z" style="fill:#f9e99c; stroke-width:0px;"/><path d="m325.04,360.75c-.93,3.24.55,6.42-6.46,9.7.74-6.82-2.05-15.67,0-19.1,3.71.69,5.37,6.4,6.46,9.4Z" style="fill:#d8d083; stroke-width:0px;"/><path d="m317.99,381.32h-.59c.01-.12.01-2.23,0-2.35h.59c-.04.69-.12,1.78,0,2.35Z" style="fill:#8f7845; stroke-width:0px;"/><path d="m318.58,351.35c-2.05,3.43.74,12.27,0,19.1,7.01-3.28,5.54-6.45,6.46-9.7,7.68-26.93,20.06,5.66,7.93,10.58-7.3,2.96-7.73-3.93-8.81-4.11-1.3-.22-3.14,8.89-14.4,3.23-.4-6.31-1.3-20.98,8.81-19.1Z" style="fill:#f9e99c; stroke-width:0px;"/><path d="m334.74,353.11c3.97,3.03,1.06,17.67-1.18,15.87l1.18-15.87Z" style="fill:#d8d083; stroke-width:0px;"/><path d="m211.63,299.64c.13-5.5-4.06-.49-2.35-4.7,5.02-.14,6.68.91,2.35,4.7Z" style="fill:#e6b475; stroke-width:0px;"/></g></svg>