<?xml version="1.0" encoding="UTF-8"?><svg id="b" xmlns="http://www.w3.org/2000/svg" xmlns:xlink="http://www.w3.org/1999/xlink" viewBox="0 0 1434.16 819.56"><defs><linearGradient id="e" x1="1480.49" y1="338.49" x2="1148.76" y2="747" gradientUnits="userSpaceOnUse"><stop offset="0" stop-color="#597577"/><stop offset="1" stop-color="#71a097"/></linearGradient><linearGradient id="f" x1="150.87" y1="-1.28" x2="123.85" y2="157.38" gradientUnits="userSpaceOnUse"><stop offset="0" stop-color="#654f56"/><stop offset="1" stop-color="#32595d"/></linearGradient></defs><g id="c"><g id="d"><rect width="1434.16" height="819.56" style="fill:#597f7d; stroke-width:0px;"/><path d="m343.09.02c-.83,3.86,2.84,7.29,2.8,7.7-.02.22-1.84,1.75-2.8,3.5-1.26,2.3-2.36,2.67-4.2,4.2-4.54,3.78-3.04,5.99-4.9,1.4-3.14,4.78-29.79,15.36-30.79,16.79-2.76,3.96,2.18,8.64,2.1,9.1-1.13,6.45-66.57,28.89-58.08,101.47,23.81-24.12,53.2-41.84,74.18-68.58q8.4,2.1,16.79,4.2c4.91-3.37,27.55-24.6,29.39-25.19,5.9-1.88,7.81,6.51,21.69-9.8,15.37-3.71,31.1-6.62,44.79-14.7-1.77-1.19-3.5-1.72-5.6-2.1,12.03-6.32,18.34-15.09,22.39-27.99,18.19-.01,36.39,0,54.58,0-19.72,20.68-39.16,62.6-41.99,90.27-2.18,21.27,2.72,19.87,2.8,20.99,1.8,25.14,2.53,50.47,9.8,74.88q4.9,34.64,9.8,69.28c-8.66-11.06-8.36-25.64-11.9-38.49-15.59,45.59,21.87,80.76,34.29,121.76-6.04,2.63-14.15-.14-15.4,3.5,4.43,6.27,9.29,15.79,11.2,23.09,1.43,5.46,3.94,28.77,7,41.29,13.17,53.88,9.94,43.88,33.59,35.69,12.48-4.32,26.39-4.01,23.79-20.99l4.2-1.4c.83,2.9,1.87,5.56,2.8,8.4-.78,10.95-.49,22.65,0,33.59-56.89,15.29-53.26,125.47-2.8,99.37-1.41,3.94-4.55,6.59-7,9.8-.06.08-.52.38-1.4,1.4-3.23,3.75-6.27,6.43-9.8,9.8-6.87,6.55-17.11,11.3-20.99,20.99-16.67,11.85-21.83,12.15-39.19,19.59-8.24,3.53-16.85,6.46-25.19,9.8-13.59-7.04,8.36-8.71,9.8-13.3.97-3.1-3.75-6.66-2.8-9.8.42-1.38,17.68-9.33,12.6-23.79-2.18-6.19-53.64-26.94-62.98-31.49,13-2.6,3.46-5.05,0-11.2,3.46,1.75,16.04,3.91,21.69,5.6,12.31,13.46,25.79,17.89,41.99,25.19,3.4-1.1,5.1-38.97-14.7-58.78-24.79-24.81-54.35-21.42-57.38-22.39-.54-.17-6.89-8.73-7.7-8.4-1.45.59-.62,7.81-4.2,8.4-4.03.66-51.26-23.14-69.28-41.99,14.73-5.92-.57-13.67,2.8-19.59,11.94,13.95,59.75,53.53,67.18,25.89-6.16-4.37-6.45,8.24-25.89-3.5-12.6-7.61-49.77-51.34-58.08-65.08-4.09-6.76-15.31-36.24-9.8-4.9h-4.2c5.05-34.16,11.49-43.15,11.2-45.49-1.39-10.93-21.13,33.15-23.79,40.59-17.07,47.68-21.96,102.03-15.4,151.85-1.56.2-6.84-4.49-7-4.9-5.77-15.39-.43-69.84-27.29-28.69-12.9-5.14-6.96,12.95-22.39-2.8q1.75,19.94,3.5,39.89c-6.79,3.74-2.52,26.27-11.9,25.89-2.11-.08-7.92-10.53-14-4.2-12.95-16.42-10.56,4.84-11.9,7.7-3.69,7.86-12.62.91-17.49,11.9-7.43-7.21,13.55-6.64-3.5-20.29,8.56-25.36-3.94-20.31-4.2-22.39-.11-.92,5.24-5.88,4.2-16.79-.11-1.16-2.78-.56-2.8-.7-2.24-20.65-5.51-43.38-15.4-9.1-4.53,4.94-9.74-26.76-12.6-29.39-3.4-5.61,16.27-22.44,4.9-25.89-.59-.18-9.51,3.75-9.8,4.2-3.47,5.46,10.91,51.59,13.3,60.88,10.25-3.68,5.35-.11,12.6,4.9-.32.28,1.88,2.07-7,4.9-.48,8.37-3.19,22.67-7,27.29-2.22-.52-2.24-4.16-2.8-5.6-5.27-13.59-9.98-31.87-12.6-46.19-16.03-87.74,4.82-133.13,1.4-139.26-4.47-2.74-2.49,10-7,4.2-1.01-9.1-4.25-18.34-5.6-27.29-.73-4.83,1.33-21.49-2.8-17.49-1.07,3.43-2.04,9.9-2.8,11.9-19.27,50.35-13.53,98.45-18.19,117.56-12.42-9.91-38.86-31.76-46.19-44.09-3.68-6.18-22.48-55.14-8.4-53.18-14.64,3.3-15.82-12.78-39.19-20.29.05-54.58-.12-109.17,0-163.75,26.56,27.49,3.09-19.7,23.09-37.79,8.42-7.62,24.81-6.05,34.99-2.8,28.87,9.22,44.22,56.62,60.18,79.77q-.35-19.24-.7-38.49c21.94,18.85,20.34-27.81-26.59-43.39,3.31-5.67,8.46-11.62,11.2-17.49,11.59,3.1,20.91-26.32,51.78-9.8,8.23,4.4,27.53,32.27,38.49,40.59,2.26.19,3.63-2.54,4.9-4.2,2-.86,3.93,2.44,4.2,3.5,8.16,32.07,21.66,53.88,27.99,81.17,5.03,21.69,6.02,53.34,7,55.98.92,2.48,5.81.53,7.7,7.7,1.3.36,3.05-1.15,3.5-2.1,9.35-19.99-10.69-151.18-41.99-165.85.34-10.98-14.93-26.55,7.7-5.6,2.12-16.64,6.25-7.98,7.7-11.9,2.14-5.81-15.85-89.07,43.39-85.37-2.53,1.76-11.84,20.89-9.1,21.69Q278.36,17.52,301.1.02c14-.02,27.99.01,41.99,0Z" style="fill:#597f7d; stroke-width:0px;"/><path d="m1010.67.02c-14.13,19.8,2,2.91,0,19.59-13.74,6.81-18.29,27.71,4.2,44.79.3.22-1.29,1.38,4.9,5.6,13.38-1.15,13.27,12.89,36.39,9.8,10.06,17.45,18.08,15.99,20.29,18.89,2.54,29.21,28.23,5.38,29.39,37.79q9.8,9.8,19.59,19.59c-.07,16.2-7.68,48.09,4.2,13.3,9.32,84.67,15.86,13.81,33.59,30.79,4.43,10.49,24.37,23.5,7,4.2-.5-13.24-19.54-17.68,9.8-18.19,5.03,5.83,23.31,21.64,32.19,34.29,31.03,44.2,45.39,105.55,47.58,158.85-9.19,2.34-2.71-7.42-10.5-18.19-2.21.56,4.48,15.83,3.5,20.29-.27,1.21-2.72.54-2.8.7-8.72-14.25-5.26,1.76-5.6,2.8-.43,1.3-1.35,3.79-1.4,4.2-.05.44-3.27-3.1-2.8.7,22.03,19,6.52,52.18,15.4,23.09.2.64,2.56-2.53,4.2,11.2-2.45,37.29-16.54,81.55-33.59,114.76-8.38,16.33-28.04,44.04-39.19,60.18l-4.2.7q2.8-2.1,5.6-4.2c-2.56-6.74-16.92,20.37-12.6,2.8.52-2.09,7.27-3.74,9.8-9.8-30.33-12.73-25.82-6.08-27.29-6.3-.81-.12-3.05-6.03-11.2-4.2-5.24,1.18-16.82,39.13-21.69,19.59,19.55-15.54,21.9-46.47,13.3-68.58-2.25-.11-6.98,27.42-7.7,30.79-9.91-5.69-2.04,23.51-11.9,11.2-10.4,7.35,1.91-7.85-6.3-9.8,6.1-23.39,8.18-37.73,7-62.28-.92-19.09-13.73-99.44-11.2-61.58-5.62-3.17-8.11,18.04-19.59,34.99-4.66,6.87-16.06,16.94-22.39,23.09,1.41-5.57,5.6-10.51,7-16.09,6.03-24.04-2.92,2.29-19.59,13.3q-8.75-1.4-17.49-2.8l6.3,8.4c-2.84.73-26.11,4.44-26.59,2.1,17.76-7.76,56.1-48.31,11.9-20.29l-12.6-9.8c3.65,27.36-1.8-3.39-37.09,28.69,15.66,2.11,37.7,11.92,11.2,14.7-11.47,1.2-21.22-2.63-32.19-4.2q6.65-1.4,13.3-2.8c-13.12-4.96-29.92-3.26-44.09-1.4-6.02-1.96-8.79-7.42-13.3-11.2-2.75-.05-4.62,2.76-4.9,2.8-13.14,2.01-26.01,6.45-39.19,8.4-.31-6.92-.11-14.06,0-20.99,47.88-3.62,55.52-21.35,58.08-19.59,4.3,2.95-10.34,12.38,14,9.8-3.79-18.46-11.6-6.31-.7-34.29q-7.7,6.3-15.4,12.6c7.59-17.58,24.79-26.08,36.39-40.59,2.53-4.92,3.74-11.1,4.2-11.9,7.76-3.14,10.93-11.56,16.79-18.19,16.93-19.17,23.15-27.19,37.79-47.58,11.39-15.87,28.05-33.76,34.99-52.48,9.48-25.56-3.78,1.21-8.4,8.4-6.37,9.92-13.74,19.39-20.99,28.69,8.48-19.12,14.41-38.7,16.79-59.48.53-7.11-1.44-8.64-1.4-9.1,2.46.18,7.53-19.46,8.4-24.49,1.68-9.76,4.28-63.73-1.4-44.79-2.99,9.98-6.76,40.15-7,52.48-9.59,29.55-21.68,55.02-40.59,79.77-10.18-4.23,4.77-11.29,12.6-25.89,23.25-43.42-29.44,33.52-46.19,48.28-4.07,3.59-16.69,11.12-22.39,14,.66-10.64-6.43-6.76-7-7-3.79-1.59-11.1-3.64-14-5.6,26.03-14.01,49.94-32.38,67.18-56.68,15.48-50.95,36.59-103.64,29.39-158.15-5.79,26.54-11.21,52.79-18.19,79.07-4.5,5.67-15.2,25.49-16.79,30.79-22.55,28.01-34.02,63.89-60.18,88.87,4.41-10.31,42.52-68.63,43.39-72.78.21-1.02.31-2.9-.7-3.5q-9.1,5.6-18.19,11.2l-2.1-2.1c8.82-32.17,13.89-69.55,15.4-102.87,2.53-55.87-.69-103.71-33.59-151.15,27.06.01,54.12-.02,81.17,0Z" style="fill:#597f7d; stroke-width:0px;"/><path d="m1433.34,257.54c.11,90.5.11,181.01,0,271.51-3.57-.74-4.19,9.96-5.6,13.3-1.46,3.45-14.65,23.47-11.9,24.49,25.49-26.07-2.26,13.25,17.49,2.8,0,.47,0,.93,0,1.4-6.18,6.01-6.02,24.16-9.8,30.09-3.61,5.67-19.93,11.73-26.59,14.7-15.72,7-42.85,11.65-51.08,25.19-31.05-.58-46.09,43.72-55.28,69.28h-2.8c-7-39.35-9.51,2.75-12.6,12.6-5.3,16.9-13.29,6.74-30.79,27.99-4.52,5.49-24.84,40.71-29.39,49.68l-23.79,7c-4.43-8.25-8.36-16.84-12.6-25.19,3.04-4.67,9.73-14.37,11.2-18.89,10.49-32.34-4.9-14.14-6.3-14.7-3.22-1.28-9.35-47.8-45.49-43.39-1.17-.69-8.62-3.7-12.6-5.6,8.09-8.95,33.32-26.38,26.59-34.99,1.84-1.36,13.73-15.83,14.7-15.4-2.64,17.13-2.38,10.11,3.5,7,22.77-12.08,35.29-38.37,48.98-58.78,14.12-21.05,27.34-41.94,39.19-64.38,37.64-71.33,24.86-75.55,43.39-136.46,2.97-9.78,20.08-52.07,25.19-57.38,5.28-5.48,18.17-7.67,25.19-12.6.92-7.16-20.22,8.34-19.59,4.2,1.9-12.6,64.42-73.38,100.77-73.48Z" style="fill:url(#e); stroke-width:0px;"/><path d="m1069.45.02c121.29.1,242.59-.08,363.88,0,.1,52.72-.13,105.43,0,158.15-19.14,3.63-19.98-15.55-39.89-8.4,5.75-23.65-20.08-4.56-36.39,11.2-12.71-1.44-13.23-1.68-24.49,1.4.2-5.04-4.11-3.91-4.2-4.2-1.98-6.72,5.43-29.72-15.4-19.59-2.13-3.43-5.55-9.05-7-12.6-7.61-18.59-11.88-37.15-30.79-48.98-3.73-2.33-6.55-6.68-11.9-5.6-8,7.4-17.06,13.77-25.19,20.99-15.84,14.08-24.55,27.97-25.89,29.39-31.49,33.27-19.3,12.61-23.09,9.8-1.13-.84-17.21,18.86-18.89,20.99-3.31-11.91-4.72-24.06-4.2-36.39.36-8.49,5.88-25.92,5.6-27.29-1.02-5-6.41-2.87-7-4.2-1.24-2.82-5.6-39.67-20.99-57.38-12.05-13.87-46.84-26.07-20.99,4.2l-2.1,2.1q-25.54-16.79-51.08-33.59Z" style="fill:#664e56; stroke-width:0px;"/><path d="m301.1.02q-22.74,17.49-45.49,34.99c-2.75-.8,6.57-19.94,9.1-21.69-59.24-3.69-41.24,79.56-43.39,85.37-1.44,3.92-5.57-4.74-7.7,11.9-22.63-20.96-7.35-5.39-7.7,5.6-.03,1.07-7.75,18.75-8.4,19.59-1.26,1.66-2.64,4.39-4.9,4.2-10.96-8.31-30.26-36.18-38.49-40.59-32.28-43.19-34.04-28.32-51.78,9.8-2.74,5.88-7.88,11.82-11.2,17.49,46.93,15.57,48.53,62.23,26.59,43.39q.35,19.24.7,38.49c-15.96-23.16-31.31-70.56-60.18-79.77-10.18-3.25-26.57-4.82-34.99,2.8C3.29,149.67,26.76,196.86.2,169.37.32,112.92.11,56.47.2.02,100.5-.07,200.8.15,301.1.02Z" style="fill:url(#f); stroke-width:0px;"/><path d="m215.73,613.03c-3.12,16.95-.13,24.54,13.3,34.99,3.94-3.02-2.31-27.44-4.9-32.19,4.94-5.06,11.53-23.12,18.19-11.2-.38,6.91-.71,26.34,0,31.49,2.33,17,19.81,37.54-7.7,6.3-.02,25,11.43,40.88,27.29,58.78-2.02.92-7.53,3.31-8.4,4.9-.83,1.52,1.51,7.31-1.4,7.7-.94-11.34,0-18.86-8.4-.7-3.61,7.81-11.89,39.94-11.2,49.68-2.79,5.12-5.52,10.32-8.4,15.4-17.08-.41-16.54,4.13-17.49,4.2-1.89.14-8.88-10.39-11.2,1.4-2.73-10.27-17.37-34.83-30.09-22.39-8.16-8.6-29.22-17.91-33.59-22.39-2.14-2.19-21.39-39.99-31.49-41.99-15.38-3.05-4.68,5.03-6.3,9.1-1.52,3.81-20.51-1.21-18.19,12.6,1.58,9.38,17.18,11.96,23.09,16.09,11.26,7.89,31.13,26.45,37.09,22.39,1,1.61,17.13,21.42,18.19,22.39-2.23,9.7-9.46,1.93-17.49,4.2-6.66,1.88-4.86,11.2-11.9,9.8-9.85-5.54-29.16-6.45-41.29-15.4-61.43,9.1,13.67,5.17,49.68,22.39.73.84-3.97-.9,9.8,18.19-27.99-.08-55.99.22-83.97,0Q29.59,776.07.2,733.39c-.05-7.93.03-15.86,0-23.79,2.12,1.6,3.96,1.27,4.2,1.4,6.86,3.64,12.76,15.35,25.89,16.79,11.37-6.65,40.32-44.02,39.19-8.4-3.88-16.32,28.9-16.05,13.3-21.69.38-14.36,11.76-5.44,14.7-6.3,1.32-.38-5.81-3.43,0-8.4,8.83-7.55,28.17-3.75,27.29-8.4.17.85-.19,1.98,0,2.8,1.13,5,4.06,7.95,4.2,8.4,5.43,16.91,20.87,56.33,39.89,48.98,4.84,7.65,22.65,21.94,30.79,22.39,22.87,1.28-17.97-32.87-20.29-35.69-7.03-8.52-17.33-20.71-22.39-30.09-1.76-3.26-6.96-14.61-8.4-18.19-5.02-12.54-6.25-27.29-11.2-39.89-2.34-5.96-9.84-18.91-8.4-11.9-11.67-47.08,9.45,1.29,46.88,14,6.7-1.81-7.36-16.34-7.7-18.89-1.83-13.91,9.82,5.86-5.6-28.69,7.37,7.56-1.21-2.11,12.6,3.5-1.72,9.73,4.57,17.06,7.7,25.89,7.08-8.35,26.1-6.31,29.39,4.2.34-10.88,3.25-7.93,3.5-8.4Z" style="fill:#669590; stroke-width:0px;"/><path d="m1248.6,230.95c.1.2-.13,1.23,1.4,4.2,11.18,21.71,21.69,43.76,28.69,67.18,10.43-8.7,21.75-16.08,32.89-23.79,2.53-1.75,4.49-3.82,7-5.6,10.47-7.4,9.68-5.94-1.4,11.2-2.16,3.35-19.93,27.84-21.69,27.99-2.21.19-17.97-20.43-6.3,27.29,10.67-17.16,18.68-36.18,30.79-52.48,26.53-35.73,67.09-66.47,113.36-65.78.02,12.13-.02,24.26,0,36.39-36.34.1-98.86,60.88-100.77,73.48-.63,4.14,20.51-11.36,19.59-4.2-7.02,4.92-19.92,7.12-25.19,12.6-5.11,5.31-22.22,47.61-25.19,57.38-18.53,60.91-5.74,65.13-43.39,136.46-11.45,3.44,1.08-15.14,7-32.19.37-.72,7.1-8.45,7-13.3-.27-13.06-6.33,11.37-7,13.3-5.76,11.15-9.4,13.91-9.8,14.7-1.21,2.41-5.13,17.36-5.6,18.19-14.32,25.56-17.41,22.47-18.19,23.79-6.47,10.85-11.33,23.62-18.19,34.29-13.97,21.73-30.01,42.24-43.39,64.38-5.88,3.12-6.14,10.14-3.5-7-.97-.44-12.85,14.03-14.7,15.4-.48.36-6.38,1.14-11.2,4.2-2.59-2.16-7.89-4.51-9.8-7-.33-.43,1.36-5.82-4.2-5.6.41-1.26,1.32-1.64,1.4-2.8,24.47,15.14,20.61-17.19,22.39-30.79,5.34-40.66,8.18-1.64,11.9,15.4,4.54-20.91,16.08-25.42,18.89-29.39,2.98,10.77,18.03-13.1,27.99-28.69.95-1.49-2.94-3.96-2.8-4.2,2.69-4.41,28.89-26.15,19.59-37.09,17.05-33.22,31.14-77.47,33.59-114.76.77-11.64.5-32.62,0-44.79-2.2-53.3-16.55-114.65-47.58-158.85-8.88-12.65-27.16-28.45-32.19-34.29-1.35-1.57-8.25-8.5-8.4-9.1-1.39-5.8,8.06-19.9,11.2-25.89.17,0,1.3-3.03,2.1-2.8,17.65,5.04,54.32,64.91,63.68,82.57Z" style="fill:#a3818c; stroke-width:0px;"/><path d="m96.77,529.05c1.45,3.58,9.58,23.86,9.8,25.19.21,1.29,0,2.85,0,4.2-.01,3.71-2.69,6.64-2.8,7-.04.14-1.81-3.63-2.8-.7-2.32,6.89,10.32,47.99,7.7,49.68-25.18-9.95-27.48,6.93-37.79,12.6-6.97,3.83-17.48,4.45-19.59,5.6-2.01,1.09-5.06,5.98-7,7-5.36,2.81-17.81,4.51-23.79,11.2-11.45,12.78-2.31,29.9-20.29,1.4-.05-23.33.03-46.65,0-69.98,9.59,7.52,7.05-5.79,0-15.4-.05-35.92.03-71.84,0-107.77,10.65,21.81,10,47.94,16.09,71.38,7.79-17.3,2.09-55.45,11.9-69.28,21.36-30.13,62.46,52.73,68.58,67.88Z" style="fill:#597f7d; stroke-width:0px;"/><path d="m1433.34,158.17c.05,20.99-.04,41.99,0,62.98-46.27-.69-86.83,30.05-113.36,65.78l-2.8-2.8c11.08-17.14,11.87-18.6,1.4-11.2,8.12-49.19,30.84-80.6,81.17-94.47h-23.79l9.8-20.99c-49.3,29.5-62.73,66.05-74.18,121.06-11.14,7.71-22.46,15.1-32.89,23.79-7-23.42-17.51-45.47-28.69-67.18,17.07-30.41,48.05-63.33,82.57-72.78,11.26-3.08,11.78-2.84,24.49-1.4,16.3-15.76,42.14-34.85,36.39-11.2,19.9-7.15,20.75,12.03,39.89,8.4Z" style="fill:#597f7d; stroke-width:0px;"/><path d="m1433.34,800.57q-4.2,9.1-8.4,18.19c-17.98,1.86-100.34-.1-132.96,0l-1.4-16.09c10.69,12.31,3.59-6.51,4.2-11.2.16-1.21,3.97-9.08,4.2-11.2,2.69-25.18-5.52-33.48,11.2-2.8l2.8-1.4c-3.14-8.9,2.54-66.31,13.3-66.48,5.38-.08,1.29,11.59,6.3,12.6-6.59,26.23-7.47,53.47-8.4,80.47,21.63-2.63,51.08-41.43,53.18-61.58,1.98-19.02-13.03-.6,0-32.19-1.94-4.13-21.67,12.91-16.79,1.4,1.93-4.55,53.59-40.42,72.78-66.48-.11,51.8,1.91,105.17,0,156.75Z" style="fill:#a3818c; stroke-width:0px;"/><path d="m1396.95,620.02c-27.83,11.27-32.17,22.82-44.79,49.68-4.38,9.32-17.23,43.08-19.59,52.48-5.01-1.01-.92-12.68-6.3-12.6-10.76.17-16.44,57.58-13.3,66.48l-2.8,1.4c-16.71-30.68-8.5-22.38-11.2,2.8-.23,2.12-4.04,9.98-4.2,11.2-.61,4.69,6.49,23.51-4.2,11.2l1.4,16.09c-7.93.03-15.86-.02-23.79,0,.72-6.39-1.36-5.31-1.4-5.6-.43-3.47,2.05-28.5-9.1-23.79-4.73,2,6.49,23.27.7,29.39-17.26.04-34.52-.03-51.78,0,2.42-6.13,5.42-12.33,8.4-18.19,4.55-8.97,24.87-44.2,29.39-49.68,17.5-21.25,25.49-11.1,30.79-27.99,3.09-9.85,5.59-51.94,12.6-12.6h2.8c9.2-25.56,24.23-69.85,55.28-69.28,8.23-13.54,35.36-18.19,51.08-25.19v4.2Z" style="fill:#de97a3; stroke-width:0px;"/><path d="m1069.45.02q25.54,16.79,51.08,33.59l2.1-2.1c-25.85-30.27,8.94-18.07,20.99-4.2,15.39,17.71,19.75,54.56,20.99,57.38.59,1.33,5.98-.8,7,4.2.28,1.37-5.24,18.8-5.6,27.29-2.73,5.57-5.85,11.16-8.4,16.79-8.34-3.97,2.14-12.91-4.2-25.89-4.55,12.16,7.11,12.5-8.4,15.4q-7.7,23.44-15.4,46.88c-11.88,34.79-4.27,2.91-4.2-13.3q-9.8-9.8-19.59-19.59c-1.16-32.41-26.85-8.57-29.39-37.79-2.22-2.9-10.24-1.45-20.29-18.89-23.12,3.1-23.01-10.95-36.39-9.8-6.19-4.22-4.6-5.37-4.9-5.6,9.01,2.27,15.75,2.05,23.79-2.8-.48.9,2.21,1.98,1.4,3.5-.74,1.38-2.88-.94-5.6,3.5-2.26,3.69,10.53,12.66,16.79,0,.98-1.99-4.04-5.34.7-5.6,8.88,3.15,51.35,37.03,54.58,37.79,3.4.79,3.87-1.9,6.3-2.8,1.45,2.37,12.55,20.66,14,17.49-2.44-6.23-12.57-17.53-14-20.29-3.69-7.15-5.18-15.7-8.4-23.09-2.32-3.91-18-20.4-22.39-24.49-5.46-5.09-11.64-12.3-19.59-12.6-14.01-11.9-3.21-8.93-6.3-11.2-3.17-2.32-12.86-.97-17.49-2.8-1.6-.63-4.31-1.87-5.6-2.8-16.62-12.02,5.33-8.2,7-18.19,9.8,0,19.59,0,29.39,0Z" style="fill:#597f7d; stroke-width:0px;"/><path d="m103.77,565.44c2.81,11.69,5.37,23.34,8.4,34.99,2.04,7.85,7.27,19,8.4,25.89,2.48,15.17.29,28.44,4.2,48.28.88,4.65-18.46.85-27.29,8.4-5.81,4.96,1.32,8.01,0,8.4-2.93.85-14.31-8.06-14.7,6.3,15.6,5.65-17.18,5.37-13.3,21.69,1.13-35.63-27.82,1.74-39.19,8.4-13.13-1.44-19.03-13.16-25.89-16.79,9.34-6.81,4.98-9.88-4.2-14-.06-14.93.03-29.86,0-44.79,17.98,28.5,8.84,11.38,20.29-1.4,5.99-6.68,18.43-8.38,23.79-11.2,1.94-1.02,4.99-5.9,7-7,2.11-1.15,12.63-1.77,19.59-5.6,10.31-5.66,12.6-22.54,37.79-12.6,2.62-1.69-10.02-42.79-7.7-49.68.99-2.93,2.76.84,2.8.7Z" style="fill:#669590; stroke-width:0px;"/><path d="m1433.34,620.02c-.02,7.93.02,15.86,0,23.79-19.18,26.06-70.85,61.93-72.78,66.48-4.88,11.51,14.86-5.52,16.79-1.4-13.03,31.59,1.98,13.17,0,32.19-2.1,20.15-31.56,58.95-53.18,61.58.93-27.01,1.81-54.24,8.4-80.47,2.36-9.4,15.22-43.16,19.59-52.48,12.61-26.87,16.96-38.42,44.79-49.68,3.21-1.3,26.54-9.7,27.99-7.7q-10.5,14.7-20.99,29.39l2.1,2.1,27.29-23.79Z" style="fill:#597f7d; stroke-width:0px;"/><path d="m93.97,450.68c-.57,2.34-1.67,4.5-1.4,7-1.84-1.87-10.19-4.12-13.3-7,12.11,18.6,13.88,43.27,23.09,64.38,1.82,4.92.58,12.76-5.6,14-6.12-15.14-47.22-98.01-68.58-67.88-9.8,13.83-4.11,51.98-11.9,69.28-6.1-23.44-5.45-49.57-16.09-71.38-.01-13.53.01-27.06,0-40.59,19.93,5.36,34.14,22.41,53.18,30.09C25.32,427.76,15.99,397.4.2,368.11c0-11.66-.01-23.33,0-34.99,23.36,7.51,24.55,23.6,39.19,20.29-14.08-1.96,4.72,47,8.4,53.18,7.33,12.33,33.77,34.17,46.19,44.09Z" style="fill:#a3818c; stroke-width:0px;"/><path d="m58.98,818.76c-13.95-.11-28.07.58-41.99,0L.2,794.97c-.5-20.49.12-41.08,0-61.58q29.39,42.69,58.78,85.37Z" style="fill:#758386; stroke-width:0px;"/><path d="m177.94,790.77c.94-.18,10.29-6.14,16.79,3.5,2.94,4.36,4.15,18.59,4.2,24.49-18.66-.04-37.32.06-55.98,0-13.76-19.09-9.06-17.36-9.8-18.19-1.94-2.22-5.97-5.63-8.4-7,7.03,1.41,5.24-7.92,11.9-9.8,8.04-2.27,15.26,5.51,17.49-4.2.87.79,9.88,3.91,18.89,14,4.33.79,4.62-2.75,4.9-2.8Z" style="fill:#758386; stroke-width:0px;"/><path d="m224.13,778.17c-7.47,13.18-14.99,26.66-20.99,40.59-1.4,0-2.8,0-4.2,0-.05-5.9-1.25-20.13-4.2-24.49-6.51-9.64-15.86-3.68-16.79-3.5-5.4-6.66-21.62-20.57-12.6-29.39,12.72-12.43,27.36,12.12,30.09,22.39,2.32-11.79,9.31-1.26,11.2-1.4.96-.07.41-4.61,17.49-4.2Z" style="fill:#de97a3; stroke-width:0px;"/><path d="m450.85.02c-4.05,12.9-10.36,21.67-22.39,27.99-22.65-4.09-9.16,8.89-37.79-16.79q-1.4-5.6-2.8-11.2c20.99-.02,41.99.01,62.98,0Z" style="fill:#de97a3; stroke-width:0px;"/><path d="m.2,418.49c-.01-16.79-.01-33.59,0-50.38,15.79,29.29,25.12,59.65,53.18,80.47-19.04-7.68-33.25-24.73-53.18-30.09Z" style="fill:#597f7d; stroke-width:0px;"/><path d="m1433.34,620.02l-27.29,23.79-2.1-2.1q10.5-14.7,20.99-29.39c-1.45-2-24.79,6.4-27.99,7.7v-4.2c6.66-2.96,22.98-9.03,26.59-14.7,3.78-5.93,3.61-24.08,9.8-30.09-.02,16.33.03,32.66,0,48.98Z" style="fill:#a3818c; stroke-width:0px;"/><path d="m1040.06.02c-1.67,9.99-23.62,6.17-7,18.19-7.69-2.87-15.52-2.01-22.39,1.4,2-16.68-14.13.2,0-19.59,9.8,0,19.59,0,29.39,0Z" style="fill:#486f72; stroke-width:0px;"/><path d="m387.87.02q1.4,5.6,2.8,11.2c-3.9-3.5-2.32-6.17-7.7-7-9.56,5.2-17.06-1.13-23.09,9.8-3.9-4.82-11.6-4.16-16.79-2.8.96-1.75,2.77-3.28,2.8-3.5.05-.41-3.63-3.84-2.8-7.7,14.93-.01,29.86.01,44.79,0Z" style="fill:#486f72; stroke-width:0px;"/><path d="m1433.34,529.05c-.02,13.53.02,27.06,0,40.59-19.75,10.45,8-28.87-17.49-2.8-2.76-1.02,10.44-21.04,11.9-24.49,1.41-3.34,2.03-14.04,5.6-13.3Z" style="fill:#a3818c; stroke-width:0px;"/><path d="m1215.01,800.57c-2.97,5.87-5.98,12.06-8.4,18.19-3.27,0-6.53,0-9.8,0-.34-4.41-3.67-7.6-5.6-11.2l23.79-7Z" style="fill:#de97a3; stroke-width:0px;"/><path d="m16.99,818.76c-5.58-.23-11.21.17-16.79,0-.14-7.92.19-15.87,0-23.79l16.79,23.79Z" style="fill:#669590; stroke-width:0px;"/><path d="m1266.79,813.16q-2.8,2.8-5.6,5.6c-.93,0-1.87,0-2.8,0,5.79-6.12-5.43-27.39-.7-29.39,11.15-4.71,8.67,20.32,9.1,23.79Z" style="fill:#669590; stroke-width:0px;"/><path d="m1433.34,800.57c-.22,6.05.16,12.14,0,18.19-2.77.19-5.65-.28-8.4,0q4.2-9.1,8.4-18.19Z" style="fill:#597f7d; stroke-width:0px;"/><path d="m4.4,710.99c-.24-.12-2.08.2-4.2-1.4-.02-4.2.02-8.4,0-12.6,9.18,4.11,13.54,7.19,4.2,14Z" style="fill:#be8d97; stroke-width:0px;"/><path d="m.2,582.24c0-5.13,0-10.26,0-15.4,7.05,9.61,9.59,22.92,0,15.4Z" style="fill:#b27c89; stroke-width:0px;"/><path d="m1266.79,813.16c.04.29,2.12-.8,1.4,5.6-2.33,0-4.67,0-7,0q2.8-2.8,5.6-5.6Z" style="fill:#bf9b91; stroke-width:0px;"/><path d="m336.09,450.68c18.02,18.85,65.24,42.64,69.28,41.99,3.58-.58,2.75-7.81,4.2-8.4.81-.33,7.16,8.22,7.7,8.4-14.12,12.53,12.08,5.69,32.89,11.2,5.96,1.58,17.9,9.87,24.49,11.2,19.79,19.81,18.1,57.68,14.7,58.78-16.2-7.3-29.68-11.73-41.99-25.19-5.65-1.68-18.24-3.85-21.69-5.6-8.67-4.39-16.94-8.83-25.19-14-5.59-3.5-10.49-8.81-16.79-11.2q-18.89-17.84-37.79-35.69c10.99,25.8,18.64,34.71,40.59,51.08,5.44,4.06,12.37,9.38,18.19,12.6,10.95,6.04,18.87,7.36,20.99,8.4,9.34,4.55,60.8,25.3,62.98,31.49,5.09,14.46-12.17,22.41-12.6,23.79-.95,3.13,3.77,6.7,2.8,9.8-1.44,4.59-23.38,6.25-9.8,13.3-33.19,13.28-67.31,23.95-100.77,36.39-11.51-20.33-28.86-35.82-43.39-53.88-4.8-7.39-8.41-15.37-12.6-23.09-3.96-6.73,1.29-7.64,7-7,.48.78,8.68,8.47,11.9,14l2.1-2.1c-14.63-31.18-26.26-64.25-33.59-97.97,4.41,5.92,6.23,10.79,11.9,16.09,21.91,20.52,7.95-.81,6.3-9.1-5.22-26.17-2.86-59.58-5.6-86.77,7.47,11.08,14.48,21.75,23.79,31.49Z" style="fill:#7ebca6; stroke-width:0px;"/><path d="m280.11,530.45c1.46,11.09,4.12,20.1,7,30.79,11.9,44.2,33.49,84.62,72.78,110.56-20.31,7.53-43.74,14.68-62.98,22.39-2.3.18-4.72-.27-7,0-17.62-17.72-37.81-66.75-41.99-90.27-3.35-18.83-3.07-44.83-5.6.7-6.66-11.93-13.26,6.14-18.19,11.2-.25-.46-4.03-4.03-6.3-8.4-3.12,1.86-1.7,4.85-2.1,5.6-.25.47-3.16-2.48-3.5,8.4-3.29-10.51-22.31-12.55-29.39-4.2-3.13-8.83-9.41-16.17-7.7-25.89-13.81-5.61-5.22,4.06-12.6-3.5-5.38-12.05-12.45-23.14-18.19-34.99,3.81-4.62,6.52-18.93,7-27.29,8.88-2.83,6.67-4.62,7-4.9,2.21-1.91,4.58-3.93,7-5.6.02.14,2.69-.46,2.8.7,1.04,10.92-4.31,15.87-4.2,16.79.26,2.09,12.76-2.97,4.2,22.39,17.05,13.65-3.93,13.08,3.5,20.29,4.88-10.99,13.81-4.04,17.49-11.9,1.34-2.85-1.06-24.11,11.9-7.7,6.08-6.33,11.89,4.11,14,4.2,9.37.38,5.1-22.15,11.9-25.89q-1.75-19.94-3.5-39.89c15.44,15.75,9.49-2.34,22.39,2.8,26.86-41.15,21.52,13.3,27.29,28.69.15.41,5.44,5.09,7,4.9Z" style="fill:#669590; stroke-width:0px;"/><path d="m344.49,295.33c1.77,7.59,8.14,71.91,19.59,39.19.4.76,2.74.77,9.8,14,2.64,4.96,5.09,18.5,11.2,19.59.74,2.09-2.12,25.29,30.79,18.89-14.72-24.31-32.65-65.63-34.99-93.77-3.91-47.04,3.8-1.06,8.4,12.6,1.13,3.35,9.2,20.95,11.2,24.49,4.49,7.97,14.28,23.95,19.59,19.59,18.59,15.23,49.6,26.02,61.58,53.88,29.23,68-33.75,18.14-54.58-2.8,12.89,17.49,29.9,31.51,41.99,49.68-13.63,7.15-26.82-2.92-40.59-4.2-53.07-34.09-65.44-47.67-92.37-104.97,19.33,15.95,48.18,76.08,70.68,83.97,2.14.75,3.24,1.92,4.9-.7-50.2-63.96-123.56-127.69-88.17-217.63,2.18-5.54,5.36-15.76,11.2-16.09-18,30.89,2.14,71.36,9.8,104.27Z" style="fill:#7ebca6; stroke-width:0px;"/><path d="m441.06,230.95c-4.83,16.21,14.04,45.51,23.79,59.48,1,1.43,3.97.37,4.2.7,15.63,22.48,17.87,38.19,18.19,66.48-9.13,6.84-25.23-4.09-30.09-13.3-43.94,6.68-60.75-87-63.68-118.26-2.37-25.36,5.5,10.53,11.2,23.09,1.6,3.52,2.56,13.87,8.4,9.8,4.99,7.34,17.48,23.81,18.19,25.19,12.22,23.66,1.04,46.44,6.3,48.98,13.59,6.57.49-39.66-.7-46.19-10.91-59.92-24.18-95.42-12.6-163.05.48-1.45,2.73.96,2.8,1.4.84,5.31-7,45.32,14,105.67Z" style="fill:#7ebca6; stroke-width:0px;"/><path d="m361.28,30.81c13.31,1.64-27.78,23.03-9.1,25.19,1.94.22,4.35-3.3,37.09-11.2-13.88,16.31-15.79,7.92-21.69,9.8-1.84.59-24.49,21.82-29.39,25.19q-8.4-2.1-16.79-4.2c-20.98,26.74-50.36,44.46-74.18,68.58-8.48-72.58,56.95-95.02,58.08-101.47.08-.46-4.86-5.13-2.1-9.1,1-1.44,27.65-12.01,30.79-16.79,1.85,4.59.35,2.38,4.9-1.4-9.1,20.48,16.19,26.49,22.39,15.4Z" style="fill:#486f72; stroke-width:0px;"/><path d="m117.76,338.71c1.35,8.95,4.59,18.19,5.6,27.29,4.51,5.8,2.52-6.94,7-4.2,3.42,6.12-17.43,51.52-1.4,139.26-10.42,6.64-5.28-.16-7-3.5-4.11-8.01-.02,9.2,0,9.8.1,2.59-2.84,3.64-2.8,4.2.07,1.01,5.8.2,4.2,2.8-5.69,9.25-7.97-21.11-14-22.39q-2.1-27.99-4.2-55.98c-3.05,27.98.92,55.39,7,82.57,14.91,11.02,2.83,23.68,2.8,25.19-.04,2.1,10.79,15.78,4.2,18.19-4.59-2.7,1.86-16.01-12.6-7.7-.22-1.33-8.35-21.61-9.8-25.19,6.18-1.24,7.42-9.08,5.6-14,5.61,1.46-2.61-17.31-5.6-31.49-1.38-6.57-1.22-18.06-1.4-25.19-.53-1.3-2.56-.46-2.8-.7-.27-2.49.83-4.66,1.4-7,4.66-19.11-1.07-67.21,18.19-117.56l5.6,5.6Z" style="fill:#917f89; stroke-width:0px;"/><path d="m308.1,383.5c-3.81,25.78-5.01,51.73-7,77.67-.16,2.08-6.6,5.86-4.2,40.59,1.12,16.12,14.36,70.07,22.39,83.27-5.7-.64-10.95.27-7,7-.11-.21-2.11.61-2.8-.7-1.51-2.85-8.52-25.02-11.2-30.79-.67-1.45-3.41.06-4.2-1.4-.46-.84,5.3-15.67-7,2.1-2.88-10.69-5.54-19.7-7-30.79-6.56-49.82-1.67-104.17,15.4-151.85,2.66-7.44,22.4-51.52,23.79-40.59.3,2.34-6.14,11.32-11.2,45.49Z" style="fill:#af939d; stroke-width:0px;"/><path d="m197.54,135.78c.65-.85,8.36-18.53,8.4-19.59,31.3,14.67,51.33,145.86,41.99,165.85-.45.95-2.2,2.46-3.5,2.1-1.89-7.16-6.78-5.22-7.7-7.7-.98-2.65-1.96-34.29-7-55.98-6.34-27.3-19.83-49.11-27.99-81.17-.27-1.06-2.2-4.36-4.2-3.5Z" style="fill:#727278; stroke-width:0px;"/><path d="m312.3,383.5c2.02,11.51,18.73,38.39,26.59,47.58-3.37,5.92,11.93,13.67-2.8,19.59-9.31-9.74-16.32-20.41-23.79-31.49,2.74,27.19.38,60.6,5.6,86.77,1.65,8.29,15.62,29.62-6.3,9.1-5.67-5.31-7.49-10.18-11.9-16.09,7.33,33.72,18.96,66.79,33.59,97.97l-2.1,2.1c-3.21-5.53-11.42-13.21-11.9-14-8.03-13.21-21.28-67.15-22.39-83.27-2.4-34.73,4.04-38.51,4.2-40.59,1.99-25.94,3.19-51.89,7-77.67h4.2Z" style="fill:#669590; stroke-width:0px;"/><path d="m575.41,461.87c.11,2.52-.03,4.64,0,7q-4.2,4.55-8.4,9.1,4.9-1.75,9.8-3.5c-.2,12.64-.05,30.57-2.8,42.69-8.38,36.98-28.3,25.68-1.4,44.09-50.46,26.1-54.09-84.08,2.8-99.37Z" style="fill:#7ebca6; stroke-width:0px;"/><path d="m495.64,235.15c3.14,28.02,13.49,54.39,27.99,78.37-2.28,7.82-7.61,21.81-15.4,25.19-12.41-41-49.88-76.17-34.29-121.76,3.54,12.85,3.24,27.43,11.9,38.49q-4.9-34.64-9.8-69.28,9.8,24.49,19.59,48.98Z" style="fill:#7ebca6; stroke-width:0px;"/><path d="m128.96,501.06c2.62,14.31,7.33,32.6,12.6,46.19-2.49-.94-8.02,1.21-8.4,3.5-.51,3.09,24,52.58,25.19,57.38,7.2,28.87-38.71-15.81-51.78-49.68,0-1.35.21-2.91,0-4.2,14.46-8.31,8.01,4.99,12.6,7.7,6.59-2.42-4.23-16.1-4.2-18.19.03-1.51,12.11-14.17-2.8-25.19-6.08-27.19-10.04-54.59-7-82.57q2.1,27.99,4.2,55.98c6.03,1.28,8.3,31.65,14,22.39,1.6-2.6-4.13-1.79-4.2-2.8-.04-.56,2.9-1.61,2.8-4.2-.02-.6-4.11-17.81,0-9.8,1.71,3.34-3.42,10.14,7,3.5Z" style="fill:#83888b; stroke-width:0px;"/><path d="m390.67,11.22c28.63,25.68,15.13,12.71,37.79,16.79,2.1.38,3.83.91,5.6,2.1-13.69,8.08-29.42,10.99-44.79,14.7-32.73,7.9-35.14,11.42-37.09,11.2-18.68-2.16,22.41-23.56,9.1-25.19,2.04-3.65,1.39-13.35-1.4-16.79,6.03-10.92,13.53-4.6,23.09-9.8,5.37.83,3.8,3.5,7.7,7Z" style="fill:#597f7d; stroke-width:0px;"/><path d="m141.55,547.25c.56,1.44.58,5.08,2.8,5.6,5.74,11.84,12.82,22.94,18.19,34.99,15.41,34.55,3.76,14.78,5.6,28.69.34,2.56,14.4,17.08,7.7,18.89-37.43-12.7-58.56-61.08-46.88-14,1.4,5.65,5.28,14.95,5.6,17.49,2.36,18.84-19.01-44.09-22.39-38.49-3.02-11.65-5.58-23.3-8.4-34.99.11-.36,2.79-3.29,2.8-7,13.08,33.87,58.98,78.56,51.78,49.68-1.2-4.8-25.7-54.29-25.19-57.38.38-2.29,5.91-4.44,8.4-3.5Z" style="fill:#758386; stroke-width:0px;"/><path d="m381.58,89.59c-19.29,64.18,5.39,131.3,9.8,195.94-28.47-52.68-38.91-142.53-9.8-195.94Z" style="fill:#7ebca6; stroke-width:0px;"/><path d="m511.03,372.3c.97,1.25,2.03,1.87,2.8,2.8,8.07,9.67,12.85,16.01,23.79,22.39,12.55,7.32,16.59,9.9,32.19,8.4-.65,5.01,1.48,9.38,2.8,14l-4.2,1.4c-1.54-10.08-3.9-6.3-19.59-7-3.35-.15-22.94-.5-23.79.7.1,7.19-1.15,19.73,5.6,24.49,1.51,1.07,10.78,3.25,14,2.8-23.65,8.19-20.42,18.2-33.59-35.69-3.06-12.52-5.57-35.83-7-41.29,3.09,1.51,4.98,4.39,7,7Z" style="fill:#7ebca6; stroke-width:0px;"/><path d="m323.49,207.16c-35.39,89.94,37.97,153.67,88.17,217.63-1.66,2.62-2.76,1.45-4.9.7-22.49-7.89-51.34-68.02-70.68-83.97-28.03-59.62-33.43-78.83-15.4-147.65l2.8,13.3Z" style="fill:#af939d; stroke-width:0px;"/><path d="m338.89,431.08c-7.86-9.19-24.57-36.08-26.59-47.58-5.51-31.34,5.7-1.86,9.8,4.9,8.32,13.74,45.48,57.47,58.08,65.08,19.44,11.74,19.73-.88,25.89,3.5-7.43,27.64-55.24-11.94-67.18-25.89Z" style="fill:#7ebca6; stroke-width:0px;"/><path d="m68.08,256.14c7.08-.77,20.54,18.24,25.89,23.09-.52,50.35,7.83,19.88-18.89,18.89-11.99-9.38-7.91-18.9-9.1-24.49-.23-1.08-11.23-16.04,2.1-17.49Z" style="fill:#b27c89; stroke-width:0px;"/><path d="m154.15,99.39c-30.88-16.52-40.2,12.89-51.78,9.8,17.74-38.12,19.5-52.99,51.78-9.8Z" style="fill:#305457; stroke-width:0px;"/><path d="m165.35,515.06c-2.42,1.66-4.79,3.68-7,5.6-7.25-5.01-2.35-8.57-12.6-4.9-2.39-9.29-16.77-55.42-13.3-60.88.29-.45,9.21-4.38,9.8-4.2,11.37,3.45-8.3,20.28-4.9,25.89,2.86,2.63,8.07,34.33,12.6,29.39,9.88-34.29,13.16-11.56,15.4,9.1Z" style="fill:#be8d97; stroke-width:0px;"/><path d="m568.42,421.29c2.6,16.99-11.31,16.67-23.79,20.99-3.21.45-12.48-1.73-14-2.8.42-12.25,18.39-12.84,18.19-25.19,15.69.7,18.05-3.08,19.59,7Z" style="fill:#be8d97; stroke-width:0px;"/><path d="m148.55,358.31c.84,18.01-1.59,17.71,8.4,35.69-18.77,2.33-15.78,12.69-25.19,20.99.72-25.77,3.4-37.55,15.4-59.48,1.85-.11,1.33,1.25,1.4,2.8Z" style="fill:#a3818c; stroke-width:0px;"/><path d="m23.29,183.36c11.14,2.44,21.71,7.16,30.79,14,16.4,12.34,33.96,43.18,25.19,40.59-3.75-1.11-35.02-40.24-55.98-54.58Z" style="fill:#305457; stroke-width:0px;"/><path d="m469.05,450.68c26.26,39.49,10.88,37.09-17.49,5.6-9.16-.08-15.9-5.18-23.09-9.8,13.77,1.28,26.95,11.35,40.59,4.2Z" style="fill:#a299a0; stroke-width:0px;"/><path d="m359.88,14.02c2.79,3.45,3.44,13.14,1.4,16.79-6.2,11.09-31.5,5.08-22.39-15.4,1.84-1.53,2.94-1.89,4.2-4.2,5.2-1.36,12.89-2.02,16.79,2.8Z" style="fill:#de97a3; stroke-width:0px;"/><path d="m417.26,492.66c3.03.97,32.59-2.42,57.38,22.39-6.59-1.33-18.54-9.62-24.49-11.2-20.81-5.5-47.01,1.33-32.89-11.2Z" style="fill:#af939d; stroke-width:0px;"/><path d="m364.08,334.52c-11.46,32.72-17.83-31.59-19.59-39.19,6.47,10.96,12.73,26.2,19.59,39.19Z" style="fill:#a299a0; stroke-width:0px;"/><path d="m229.03,361.11c3.39-.55,13.1,16.74,10.5,28.69-4.44,20.39-22.52-18.2-10.5-28.69Z" style="fill:#de97a3; stroke-width:0px;"/><path d="m425.66,543.05c3.46,6.14,13,8.59,0,11.2-2.12-1.03-10.05-2.36-20.99-8.4,7.71-7.6-12.53-9.4-4.2-16.79,8.25,5.17,16.53,9.61,25.19,14Z" style="fill:#758386; stroke-width:0px;"/><path d="m336.79,118.99c17.49-2.73,14.02,28.62-2.8,19.59-7.85-4.21-5.69-18.27,2.8-19.59Z" style="fill:#de97a3; stroke-width:0px;"/><path d="m469.05,291.13c-.23-.33-3.2.73-4.2-.7-9.75-13.97-28.63-43.27-23.79-59.48,7.27,20.89,18.39,40.35,27.99,60.18Z" style="fill:#af939d; stroke-width:0px;"/><path d="m436.86,286.93c1.19,6.53,14.29,52.75.7,46.19-5.26-2.54,5.92-25.32-6.3-48.98l5.6,2.8Z" style="fill:#af939d; stroke-width:0px;"/><path d="m224.83,349.91c3.22-.73,13.43-.01,13.3,4.9-.19,7.21-12.52-5.74-20.29,4.9-3.39-1.83,3.83-9.08,7-9.8Z" style="fill:#a3818c; stroke-width:0px;"/><path d="m142.25,323.32c2.66-2.02,7.62,7.48,7.7,9.1.48,10.24-11.84,10.93-7.7-9.1Z" style="fill:#de97a3; stroke-width:0px;"/><path d="m385.08,368.11c-6.11-1.09-8.55-14.64-11.2-19.59,9,3.21,10.28,16.99,11.2,19.59Z" style="fill:#a299a0; stroke-width:0px;"/><path d="m420.06,349.91c-5.31,4.36-15.1-11.62-19.59-19.59,7.99,5.23,12.17,13.51,19.59,19.59Z" style="fill:#8e8a91; stroke-width:0px;"/><path d="m229.03,475.87q.7,9.1,1.4,18.19c-9.09-2.69-3.14-12-1.4-18.19Z" style="fill:#af939d; stroke-width:0px;"/><path d="m82.07,337.31q9.45,10.85,18.89,21.69c.33,5.93-24.19-21.92-18.89-21.69Z" style="fill:#83888b; stroke-width:0px;"/><path d="m117.76,338.71l-5.6-5.6c.76-2,1.73-8.47,2.8-11.9,4.13-4,2.07,12.67,2.8,17.49Z" style="fill:#727278; stroke-width:0px;"/><path d="m148.55,358.31c-.07-1.55.45-2.9-1.4-2.8,3.58-6.55,8.44-16.67,14-20.29l-12.6,23.09Z" style="fill:#758386; stroke-width:0px;"/><path d="m413.07,258.94c-5.84,4.07-6.8-6.28-8.4-9.8,2.48-.73,4.98,4.77,8.4,9.8Z" style="fill:#839496; stroke-width:0px;"/><path d="m124.06,303.73c.27,1.79,2.34,5.39,2.1,6.3-1.06,4.06-7.48,2.77-2.1-6.3Z" style="fill:#917f89; stroke-width:0px;"/><path d="m338.19,201.56c.7,0,1.27,10.6.7,11.9-1.54,3.51-2.17-11.9-.7-11.9Z" style="fill:#8ab4a9; stroke-width:0px;"/><path d="m222.03,292.53c5.22-.23.42,7.45-2.1,3.5-.67-1.05,1.68-3.48,2.1-3.5Z" style="fill:#be8d97; stroke-width:0px;"/><path d="m1042.86,498.26c8.35-2.15,4.96-1.48,11.2-5.6,16.68-11.01,25.62-37.34,19.59-13.3-1.4,5.58-5.59,10.52-7,16.09-12.75,12.39-26.75,22.57-40.59,33.59-19.91,7.77-39.86,15.69-60.18,22.39-4.06.33-16.22,1.5-16.79,7-.92,8.79,42.26,16.86,62.98,9.1-11.01-1.77-22.56-3.56-33.59-4.9.1-7.17,34.39-23.55,33.59-18.89-26.45,19.23-34.25,27.49,3.5,11.9,6.91-2.85,28.16-16.33,30.79-16.79,30.9-5.5-13.03,23.2-25.19,29.39-33.42,17.03-61.06,15.03-69.28,31.49l2.1,2.1q7-2.8,14-5.6c16.25,11.25,57.17-18.78,72.78-30.79,15.39-11.84,47.71-45.98,28.69-20.29-15.49,20.91-43.83,36.81-67.18,47.58,33.49-6.11,57.6-33.42,80.47-56.68,6.16,3.24-21.97,38.58-34.99,48.98-42.51,33.97-103.75,28.79-109.16,30.79-3.81,1.41-.58,4.92-.7,7-3.5-1.59-9.98-3.05-15.4-5.6,2.67-5.03,14.3-4.74,17.49-7,3.45-2.44,8.06-17.1,11.9-21.69-1.61-2.3-49.46-3.88-47.58-22.39,1.61-15.9,21.08-9.77,30.09-11.9,9.23-2.18,76.75-43.25,45.49-17.49,3.63,5.44,52.14-24.14,57.38-29.39-16.36,7.76-36.06,8.37-52.48,14.7-45.17,17.39-45.2,45.29-112.66,7-.1-.36-1.42,2-2.8-7,18.79.96,32.83,5.11,52.48,4.2,9.86-.46,20.46-4.41,30.09-5.6,9.31-1.14,38.16,1.31,37.79-7,26.51-2.77,4.47-12.59-11.2-14.7,35.29-32.08,40.74-1.33,37.09-28.69l12.6,9.8c44.2-28.02,5.87,12.53-11.9,20.29.48,2.34,23.75-1.37,26.59-2.1Z" style="fill:#7ebca6; stroke-width:0px;"/><path d="m1041.46,250.54c-.04.46,1.92,1.99,1.4,9.1-2.38,20.78-8.31,40.36-16.79,59.48-31.11,39.88-28.2,25.81-60.18,81.17-.46.79-1.67,6.98-4.2,11.9-11.59,14.51-28.8,23.01-36.39,40.59q7.7-6.3,15.4-12.6c-10.9,27.98-3.09,15.83.7,34.29-24.34,2.58-9.69-6.85-14-9.8-2.57-1.76-10.2,15.97-58.08,19.59.17-10.88.47-22.79,1.4-33.59,1.25-14.56,5-28.76,5.6-43.39,10.64.22,21.59-3.72,30.79-8.4,2.52-1.28,4.71-2.54,7-4.2,22.88-16.58,25.22-38.87,30.79-44.79,5.7-2.87,18.32-10.4,22.39-14l7,5.6c-16.95,19.75-34.4,38.89-50.38,59.48,1.76,5.01,68.21-70.49,69.98-77.67,4.73-2,6.63-9.32,7-9.8,18.91-24.75,31-50.22,40.59-79.77-.32,5.55.44,11.26,0,16.79Z" style="fill:#7ebca6; stroke-width:0px;"/><path d="m1131.03,559.84c-2.46,11.46-8.51,26.1-5.6,37.79,4.87,19.54,16.46-18.41,21.69-19.59,8.15-1.84,10.39,4.08,11.2,4.2,1.47.22-3.04-6.43,27.29,6.3-2.53,6.06-9.28,7.7-9.8,9.8-4.32,17.57,10.04-9.54,12.6-2.8q-2.8,2.1-5.6,4.2l4.2-.7c-1.5,2.18-3.81,7.27-5.6,9.8-2.82,3.97-14.35,8.48-18.89,29.39-3.72-17.03-6.56-56.05-11.9-15.4q-6.3,12.95-12.6,25.89,5.6-31.49,11.2-62.98c-3.71-10.36-27.63,63.96-20.99,67.88-.08,1.16-.99,1.54-1.4,2.8-.91,2.81-12.48,18.08-12.6,24.49-.22,12.49,14.21-7.66,2.8,16.09-21.99-9.9-44.97-17.35-67.18-26.59,21.39-14.25,33.51-38.53,43.39-61.58,7.9-11.86,15.96-33.63,19.59-47.58,8.2,1.95-4.1,17.15,6.3,9.8,9.86,12.31,1.99-16.89,11.9-11.2Z" style="fill:#669590; stroke-width:0px;"/><path d="m923.9,337.31c-9.5-6.42-9.41-10.41-12.6-19.59,25.24-38.04,34.89-78.93,41.99-123.16.32-1.98-3.24-.52-2.8-3.5.21-1.39,5.4-11.55,7-27.29.43-4.23,1.02-8.38,1.4-12.6h4.2c-1.51,33.32-6.57,70.69-15.4,102.87l2.1,2.1q9.1-5.6,18.19-11.2c1.01.59.91,2.48.7,3.5-.86,4.15-38.98,62.46-43.39,72.78,26.16-24.99,37.63-60.86,60.18-88.87-.66,2.19-3.76,14.06-2.1,15.4,16.95-11.6,16.76-38.16,18.89-46.19,6.99-26.29,12.4-52.54,18.19-79.07,7.2,54.51-13.91,107.2-29.39,158.15-17.24,24.31-41.15,42.67-67.18,56.68Z" style="fill:#7ebca6; stroke-width:0px;"/><path d="m1157.63,132.98c-13.34,29.52-1.84,12.38-1.4,37.09,6.5,5.65,6.45-6.93,14-14.7.36-.37,2.97,1.19,7.7-7,2.23-.64,3.02,2.81,4.9,2.8-3.13,5.99-12.59,20.09-11.2,25.89.14.6,7.04,7.53,8.4,9.1-29.34.51-10.29,4.95-9.8,18.19-2.05-2.28-7.68-6.9-7-4.2-17.73-16.98-24.27,53.88-33.59-30.79q7.7-23.44,15.4-46.88c15.5-2.89,3.85-3.23,8.4-15.4,6.34,12.99-4.14,21.92,4.2,25.89Z" style="fill:#627577; stroke-width:0px;"/><path d="m1112.84,561.24c-3.64,13.95-11.7,35.72-19.59,47.58-4.14,6.22-15.99,22.44-19.59,15.4,28.33-31.34,45.15-96.28,37.09-96.57-29.53,46.24-6.12,11.57-4.9-4.9.86-11.6-13.12-44.75,9.8-12.6,1.27-16.63-5.09-32.02-9.8-47.58h-2.8q-2.45,14.35-4.9,28.69,1.4-14.7,2.8-29.39c-14.86,26.09-38.41,45.9-61.58,64.38-6.62,3.94-12.15,2.35-13.3,2.8,13.84-11.02,27.84-21.2,40.59-33.59,6.34-6.16,17.74-16.22,22.39-23.09,11.48-16.94,13.98-38.16,19.59-34.99-2.54-37.86,10.28,42.49,11.2,61.58,1.18,24.55-.9,38.89-7,62.28Z" style="fill:#af939d; stroke-width:0px;"/><path d="m1033.07,18.22c1.29.93,4,2.17,5.6,2.8,19.25,21.68,2.74,35.47,0,40.59-8.04,4.85-14.78,5.07-23.79,2.8-22.49-17.08-17.94-37.97-4.2-44.79,6.87-3.41,14.7-4.27,22.39-1.4Z" style="fill:#de97a3; stroke-width:0px;"/><path d="m1021.17,396.1c2.42-.58,14.32-.8,13.3,2.1-14.24,12.77-35.56,52.65-48.28,60.88-35.73,23.11-17.4-19.29-9.8-20.99.48-.11,1.97,3.25,4.2,2.8,2.98-.61,29.28-42.09,40.59-44.79Z" style="fill:#7ebca6; stroke-width:0px;"/><path d="m908.51,496.86c3.03,19.49,27.11,20.64,43.39,23.79-9.63,1.18-20.23,5.14-30.09,5.6-19.66.91-33.69-3.24-52.48-4.2-.66-4.3.24-11.44,0-16.79,13.18-1.94,26.05-6.39,39.19-8.4Z" style="fill:#a3a2a8; stroke-width:0px;"/><path d="m1144.33,293.93c6.85,10.29,19.35,32.06,16.09,44.09-3.02,11.19-6.91-21.49-24.49,10.5-6.52-22.47,1.28-34.62,8.4-54.58Z" style="fill:#de97a3; stroke-width:0px;"/><path d="m926.7,505.26c4.66,1.52,22.33,2.99,30.79,4.2,10.97,1.57,20.72,5.4,32.19,4.2.38,8.31-28.48,5.85-37.79,7-16.28-3.15-40.35-4.3-43.39-23.79.28-.04,2.15-2.85,4.9-2.8,4.51,3.77,7.27,9.23,13.3,11.2Z" style="fill:#af939d; stroke-width:0px;"/><path d="m1020.47,334.52c-15.93,12.13-30.27,28.89-37.79,47.58-5.86,6.64-9.03,15.06-16.79,18.19,31.98-55.36,29.07-41.29,60.18-81.17,7.25-9.3,14.63-18.77,20.99-28.69,4.61-7.19,17.88-33.96,8.4-8.4-6.94,18.72-23.6,36.61-34.99,52.48Z" style="fill:#a299a0; stroke-width:0px;"/><path d="m1125.44,597.63c-2.92-11.69,3.14-26.33,5.6-37.79.72-3.37,5.45-30.9,7.7-30.79,8.6,22.11,6.25,53.04-13.3,68.58Z" style="fill:#af939d; stroke-width:0px;"/><path d="m1099.55,366.71c10.8,31.35,11.32,53.05-12.6,78.37-.35-8.79,10.97-16.77.7-30.09,12.25-7.65,3.27-15.01,11.2-26.59,1.12-9.16-5.78-13.14.7-21.69Z" style="fill:#a3818c; stroke-width:0px;"/><path d="m1000.88,313.52c-.37.48-2.27,7.79-7,9.8-5.36,5.39-15.15,13.01-19.59,18.19l-7-5.6c16.74-14.76,69.44-91.7,46.19-48.28-7.82,14.6-22.78,21.67-12.6,25.89Z" style="fill:#af939d; stroke-width:0px;"/><path d="m1181.42,608.83c1.79-2.53,4.09-7.62,5.6-9.8,11.15-16.14,30.81-43.85,39.19-60.18,9.3,10.93-16.9,32.68-19.59,37.09-.14.24,3.75,2.71,2.8,4.2-9.97,15.59-25.01,39.46-27.99,28.69Z" style="fill:#af939d; stroke-width:0px;"/><path d="m1041.46,250.54c.44-5.53-.32-11.24,0-16.79.23-12.34,4-42.5,7-52.48,5.68-18.94,3.08,35.02,1.4,44.79-.86,5.03-5.94,24.67-8.4,24.49Z" style="fill:#af939d; stroke-width:0px;"/><path d="m1259.79,379.3c.5,12.16.77,33.15,0,44.79-1.63-13.72-4-10.55-4.2-11.2-3.16-10.34-1.43-13.23-12.6-23.79.05-.41.97-2.89,1.4-4.2,8.18,6.4,4.14.2,5.6-2.8.08-.16,2.53.51,2.8-.7.98-4.47-5.71-19.73-3.5-20.29,7.79,10.78,1.31,20.53,10.5,18.19Z" style="fill:#597f7d; stroke-width:0px;"/><path d="m985.48,232.35c1.6-5.3,12.29-25.12,16.79-30.79-2.13,8.03-1.94,34.58-18.89,46.19-1.66-1.33,1.44-13.2,2.1-15.4Z" style="fill:#af939d; stroke-width:0px;"/><path d="m982.68,382.1c7.52-18.7,21.86-35.45,37.79-47.58-14.64,20.39-20.86,28.42-37.79,47.58Z" style="fill:#7ebca6; stroke-width:0px;"/><path d="m1187.72,523.45c8.5-.71,6.61,15.88,4.9,20.29-5.66,14.61-18.63-19.15-4.9-20.29Z" style="fill:#de97a3; stroke-width:0px;"/><path d="m1243.7,422.69q3.85,5.25,7.7,10.5c-3.81,41.24-8.5,15.65-7.7-10.5Z" style="fill:#a3818c; stroke-width:0px;"/><path d="m1085.55,232.35c7.16-2.14-12.51,37.83-18.19,39.19l18.19-39.19Z" style="fill:#8e8a91; stroke-width:0px;"/><path d="m957.49,509.46c-8.46-1.21-26.13-2.68-30.79-4.2,14.17-1.86,30.97-3.56,44.09,1.4q-6.65,1.4-13.3,2.8Z" style="fill:#7ebca6; stroke-width:0px;"/><path d="m1232.5,461.87c5.17-.74,5.63,19.29,4.9,23.09-4.41,23.07-9.39-22.45-4.9-23.09Z" style="fill:#a3818c; stroke-width:0px;"/><path d="m1243,389.1c11.17,10.56,9.44,13.45,12.6,23.79-8.88,29.09,6.64-4.09-15.4-23.09-.47-3.8,2.75-.26,2.8-.7Z" style="fill:#a299a0; stroke-width:0px;"/><path d="m1054.06,492.66c-6.24,4.12-2.84,3.44-11.2,5.6l-6.3-8.4q8.75,1.4,17.49,2.8Z" style="fill:#8e8a91; stroke-width:0px;"/><path d="m1144.33,358.31c6.37-2.99,7.82,6.57,4.2,8.4-5.36,2.71-9.19-6.05-4.2-8.4Z" style="fill:#be8d97; stroke-width:0px;"/><path d="m1250,382.1c-1.46,3,2.59,9.2-5.6,2.8.34-1.04-3.13-17.05,5.6-2.8Z" style="fill:#a3818c; stroke-width:0px;"/><path d="m1170.22,204.36c17.37,19.3-2.57,6.29-7-4.2-.68-2.7,4.95,1.92,7,4.2Z" style="fill:#83888b; stroke-width:0px;"/><path d="m1089.75,365.31q1.4,7.7,2.8,15.4c-3.06-.54-4.45-11.12-2.8-15.4Z" style="fill:#839496; stroke-width:0px;"/><path d="m1053.36,461.87c6.2-2.88.4,6.5-1.4,5.6-1.63-.82-.75-4.6,1.4-5.6Z" style="fill:#c1c0c6; stroke-width:0px;"/><path d="m1065.96,295.33c3.25-.15,1.63,7.28-1.4,5.6-1.97-1.09.05-5.53,1.4-5.6Z" style="fill:#83888b; stroke-width:0px;"/><path d="m1168.12,349.91c1.07,0,1.07,4.2,0,4.2s-1.07-4.2,0-4.2Z" style="fill:#87a4a0; stroke-width:0px;"/><path d="m1204.51,405.89l.7.7.7.7.7.7-.7.7h-1.4l-.7-.7v-1.4l.7-.7Z" style="fill:#8ab4a9; stroke-width:0px;"/><path d="m1178.62,782.37c-12.2-24.05-19.94-36.55-25.19-65.08-4.25-5.23-9.72-8.55-15.4-11.9,36.14-4.41,42.26,42.11,45.49,43.39,1.4.55,16.78-17.64,6.3,14.7-1.47,4.52-8.16,14.22-11.2,18.89Z" style="fill:#7ebca6; stroke-width:0px;"/><path d="m1280.79,680.2c1.34-3.63-5.65-4.18-8.4-4.2.2-14.57.4-21.46,12.6-31.49-.52-27.09,34.8-38.54,55.28-51.08-26.93,20.47-48.57,39.01-51.08,74.88-2.84,5.47-8.02,11.27-8.4,11.9Z" style="fill:#af939d; stroke-width:0px;"/><path d="m1131.03,662.01c4.94,23.74,5.82,9.53,9.8,7,4.82-3.06,10.72-3.84,11.2-4.2,6.73,8.61-18.5,26.04-26.59,34.99-2-.95-6.32-1.86-8.4-2.8,11.41-23.76-3.02-3.61-2.8-16.09.12-6.42,11.68-21.68,12.6-24.49,5.56-.22,3.87,5.17,4.2,5.6Z" style="fill:#de97a3; stroke-width:0px;"/><path d="m1258.39,533.25c-11.84,22.44-25.07,43.33-39.19,64.38l-5.6-5.6c6.86-10.67,11.73-23.44,18.19-34.29.79-1.32,3.88,1.77,18.19-23.79.47-.83,4.39-15.78,5.6-18.19.4-.79,4.03-3.55,9.8-14.7-5.91,17.05-18.45,35.63-7,32.19Z" style="fill:#a3818c; stroke-width:0px;"/><path d="m1219.21,597.63c-13.69,20.41-26.21,46.7-48.98,58.78,13.37-22.14,29.41-42.65,43.39-64.38l5.6,5.6Z" style="fill:#af939d; stroke-width:0px;"/><path d="m1272.39,676.01c2.75.02,9.73.57,8.4,4.2-12.1,20.32-28.68,29.48-48.28,41.99,11.39-16.6,26.98-29.85,36.39-47.58,1.67-.6,2.09,1.39,3.5,1.4Z" style="fill:#be8d97; stroke-width:0px;"/><path d="m1330.47,488.47c6.19-.32-20.63,34.74-25.19,37.79-4-2.61,6.34-14.54,4.9-17.49-.44-.91-5.52-.68-5.6-2.8-.06-1.56,23.87-12.84,25.89-17.49Z" style="fill:#a3818c; stroke-width:0px;"/><path d="m1349.36,585.04c3.89-5.69,33.11-42.26,35.69-43.39.14-.06,1.59,2.27,2.8,1.4-10.95,11.26-26.3,33.65-38.49,41.99Z" style="fill:#669590; stroke-width:0px;"/><path d="m1387.15,368.11c-52.09,48.76-55.11,37.99-10.5,5.6,5.51-4,10-5.27,10.5-5.6Z" style="fill:#839496; stroke-width:0px;"/><path d="m1223.41,674.61c-5.73,12.4-21.18,22.72-32.19,29.39v-1.4c11.38-7.67,22.59-18.23,32.19-27.99Z" style="fill:#8ab4a9; stroke-width:0px;"/><path d="m1244.4,596.23c16.31-21.16,29.5-32.7,18.19-17.49-4.58,6.16-12.49,12.19-18.19,17.49Z" style="fill:#8ab4a9; stroke-width:0px;"/><path d="m1379.45,291.13c20.1-1.42-13.55,12.35-13.3,6.3,3.57-1.58,11.83-6.19,13.3-6.3Z" style="fill:#a3818c; stroke-width:0px;"/><path d="m1375.26,501.06l2.1.7c-31.28,28.36-37.64,28.03-2.1-.7Z" style="fill:#87a4a0; stroke-width:0px;"/><path d="m1327.67,425.49c1.12-.11,3.05-.36,3.5.7-41.72,28.38-10.72.02-3.5-.7Z" style="fill:#669590; stroke-width:0px;"/><path d="m1289.18,593.43c6.97-10.04,9.13-13.4,18.19-22.39-5.16,9.48-11.59,14.49-18.19,22.39Z" style="fill:#8ab4a9; stroke-width:0px;"/><path d="m1387.15,368.11q4.55-4.2,9.1-8.4c27.4-12.69,10.08-4.27-9.1,8.4Z" style="fill:#839496; stroke-width:0px;"/><path d="m1254.2,627.02c3.83-9.11,9.19-16.8,16.09-23.79-3.19,8.07-10.45,17.16-16.09,23.79Z" style="fill:#8ab4a9; stroke-width:0px;"/><path d="m1223.41,674.61c5.18-11.2-2.54-1.6-2.8-4.9,16.9-11.95,14.77-7.27,2.8,4.9Z" style="fill:#8ab4a9; stroke-width:0px;"/><path d="m1344.47,359.71c.99.54.94,2.56.7,3.5-.85,3.29-29.79,24.06-.7-3.5Z" style="fill:#708c8a; stroke-width:0px;"/><path d="m1191.22,702.6v1.4c-.91.55-13.98,13.55-9.8,2.1,1.43-3.91,7.89-2.21,9.8-3.5Z" style="fill:#b4a0a2; stroke-width:0px;"/><path d="m1289.18,593.43c-2.29,3.3-7.09,16.18-13.3,18.19,2.99-7.02,8.51-12.46,13.3-18.19Z" style="fill:#8ab4a9; stroke-width:0px;"/><path d="m1411.64,274.34c9.58-.49-9.28,10.32-9.1,4.9.04-1.02,8.28-4.86,9.1-4.9Z" style="fill:#be8d97; stroke-width:0px;"/><path d="m1285.69,522.06c2.43-.29,2.59.73,1.4,2.8-1.9,3.3-17,8.65-1.4-2.8Z" style="fill:#669590; stroke-width:0px;"/><path d="m1244.4,596.23c-.23.29.68,4.67-5.6,4.9.18-2.45,3.99-3.41,5.6-4.9Z" style="fill:#8ab4a9; stroke-width:0px;"/><path d="m1349.36,585.04l-5.6,2.1c-.46-3.73,4.57-1.4,5.6-2.1Z" style="fill:#669590; stroke-width:0px;"/><path d="m1401.85,482.87c.88-.12,1.84-.17,2.1.7,1.2,4.04-8.44.17-2.1-.7Z" style="fill:#669590; stroke-width:0px;"/><path d="m1307.38,571.04c.17-.17-.74-2.29,2.1-4.2,2.43,2.57-1.99,3.99-2.1,4.2Z" style="fill:#8ab4a9; stroke-width:0px;"/><path d="m1254.2,627.02c-.15.18.72,2.3-2.1,4.2-2.45-2.58,2.01-3.98,2.1-4.2Z" style="fill:#8ab4a9; stroke-width:0px;"/><path d="m1305.98,125.98c-36.55,11.87-39.64,70.11-57.38,104.97-9.36-17.67-46.03-77.54-63.68-82.57-.79-.23-1.92,2.8-2.1,2.8-1.88,0-2.67-3.44-4.9-2.8-4.73,8.19-7.34,6.62-7.7,7-.1-.9.2-2.07,0-2.8,1.69-2.13,17.76-21.83,18.89-20.99,3.79,2.81-8.39,23.47,23.09-9.8,19.48-16.83,38.25-35.7,62.98-44.79,18.91,11.84,23.18,30.39,30.79,48.98Z" style="fill:#597f7d; stroke-width:0px;"/><path d="m1312.98,138.58c-6.83,3.32-22.93,23.77-27.99,31.49,14.64-4.44,27.31-13.47,43.39-11.9.08.28,4.4-.84,4.2,4.2-34.52,9.44-65.51,42.37-82.57,72.78-1.53-2.97-1.3-4-1.4-4.2,17.74-34.85,20.83-93.1,57.38-104.97,1.45,3.55,4.86,9.17,7,12.6Z" style="fill:#305457; stroke-width:0px;"/><path d="m1328.37,158.17c-16.08-1.57-28.74,7.46-43.39,11.9,5.06-7.72,21.16-28.17,27.99-31.49,20.82-10.12,13.41,12.87,15.4,19.59Z" style="fill:#597f7d; stroke-width:0px;"/><path d="m1170.22,152.57c.2.73-.1,1.9,0,2.8-7.54,7.77-7.5,20.35-14,14.7-.44-24.71-11.94-7.57,1.4-37.09,2.55-5.63,5.67-11.22,8.4-16.79-.53,12.32.89,24.48,4.2,36.39Z" style="fill:#8e717d; stroke-width:0px;"/><path d="m1275.19,77c-24.73,9.08-43.5,27.96-62.98,44.79,1.35-1.42,10.05-15.31,25.89-29.39,8.13-7.23,17.19-13.59,25.19-20.99,5.35-1.08,8.17,3.26,11.9,5.6Z" style="fill:#305457; stroke-width:0px;"/><path d="m289.91,694.2c-2.45.29-26.68,6.4-27.99,7-15.86-17.9-27.31-33.79-27.29-58.78,27.5,31.24,10.02,10.7,7.7-6.3-.71-5.15-.38-24.58,0-31.49,2.52-45.53,2.25-19.53,5.6-.7,4.18,23.52,24.36,72.55,41.99,90.27Z" style="fill:#7ebca6; stroke-width:0px;"/><path d="m141.55,680.2c.12,1.11,9.39,19.63,10.5,19.59,2.16-.07.71-9.62,4.9-8.4,5.07,9.38,15.36,21.57,22.39,30.09,2.32,2.81,43.16,36.97,20.29,35.69-8.14-.46-25.95-14.74-30.79-22.39-19.01,7.35-34.46-32.08-39.89-48.98,11.26-4.86,6.52-5.32,7-5.6,3.25-1.86,2.32,0,5.6,0Z" style="fill:#be8d97; stroke-width:0px;"/><path d="m131.76,738.99c-4.85,3.28,1.23,13.4,4.2,18.19-5.96,4.06-25.83-14.51-37.09-22.39-5.91-4.14-21.52-6.71-23.09-16.09-2.32-13.8,16.68-8.79,18.19-12.6,1.62-4.07-9.08-12.14,6.3-9.1,10.1,2,29.35,39.79,31.49,41.99Z" style="fill:#758386; stroke-width:0px;"/><path d="m128.96,621.42c-1.44-7.02,6.06,5.94,8.4,11.9,4.95,12.6,6.18,27.35,11.2,39.89-6.89-4-7.58,1.5-7,7-3.27,0-2.35-1.86-5.6,0-3.48-10.15-4.63-12.08-11.2-2.8-.19-.82.17-1.95,0-2.8-3.91-19.85-1.71-33.11-4.2-48.28-1.13-6.89-6.36-18.04-8.4-25.89,3.39-5.6,24.76,57.33,22.39,38.49-.32-2.55-4.2-11.85-5.6-17.49Z" style="fill:#a299a0; stroke-width:0px;"/><path d="m165.35,761.38c-9.03,8.82,7.2,22.73,12.6,29.39-.28.05-.57,3.59-4.9,2.8-9.01-10.09-18.02-13.21-18.89-14-1.07-.97-17.2-20.79-18.19-22.39-2.97-4.79-9.05-14.91-4.2-18.19,4.37,4.48,25.43,13.79,33.59,22.39Z" style="fill:#a3818c; stroke-width:0px;"/><path d="m252.12,713.79c.23,2.72,1.95,4.14,1.4,7-2.22,4.14-4.25,15.31-9.8,25.19-3.26,5.81-8.02,10.95-11.2,16.79-.69-9.74,7.58-41.87,11.2-49.68,8.4-18.16,7.45-10.64,8.4.7Z" style="fill:#7ebca6; stroke-width:0px;"/><path d="m124.76,793.57c2.43,1.36,6.46,4.78,8.4,7-36.01-17.23-111.11-13.29-49.68-22.39,12.13,8.94,31.43,9.86,41.29,15.4Z" style="fill:#be8d97; stroke-width:0px;"/><path d="m224.13,615.83c2.59,4.75,8.84,29.17,4.9,32.19-13.43-10.45-16.42-18.04-13.3-34.99.4-.75-1.02-3.74,2.1-5.6,2.27,4.37,6.05,7.94,6.3,8.4Z" style="fill:#de97a3; stroke-width:0px;"/><path d="m148.55,673.21c1.44,3.59,6.64,14.93,8.4,18.19-4.18-1.22-2.74,8.33-4.9,8.4-1.11.03-10.38-18.49-10.5-19.59-.58-5.5.11-11,7-7Z" style="fill:#af939d; stroke-width:0px;"/><path d="m65.98,761.38c-4.75-2.15-9.01-4-13.3-7-39.84-27.86-11.15-17.76,13.3,7Z" style="fill:#7ebca6; stroke-width:0px;"/><path d="m135.96,680.2c-.48.28,4.26.74-7,5.6-.14-.45-3.07-3.4-4.2-8.4,6.57-9.28,7.71-7.35,11.2,2.8Z" style="fill:#af939d; stroke-width:0px;"/><path d="m188.44,712.39l21.69,17.49c-1.8,3.8-23.11-12.14-21.69-17.49Z" style="fill:#7ebca6; stroke-width:0px;"/><path d="m35.89,764.18q8.05,3.85,16.09,7.7c-.73,2.24-15.47-4.11-16.09-7.7Z" style="fill:#8ab4a9; stroke-width:0px;"/><path d="m233.22,664.81c2.44,2.16-.32,9.01-1.4,2.8-.33-1.89,1.25-2.93,1.4-2.8Z" style="fill:#8ab4a9; stroke-width:0px;"/><path d="m65.98,761.38c.2.2,4.61-.6,2.1,2.8-.99-.19-1.94-2.73-2.1-2.8Z" style="fill:#7ebca6; stroke-width:0px;"/><path d="m1073.65,624.22c-14.27,15.79-34.26,27.71-54.58,33.59-7.55-3.16-14.92-6.65-22.39-9.8,26.01-6.06,54.07-21.99,59.48-50.38-14.55,24.94-41.28,35.52-65.08,48.98-5.54-2.34-11.66-6.18-16.79-8.4,6.73-14.56,21.35-10.15,34.29-15.4,39.36-34.55,10.41-13.14-14-7-16.52,4.16-36.59,3.86-51.08,9.8-1.85-.84-3.8-1.98-5.6-2.8.12-2.07-3.11-5.59.7-7,5.42-2,66.65,3.18,109.16-30.79,13.02-10.4,41.15-45.74,34.99-48.98-22.87,23.26-46.99,50.57-80.47,56.68,23.35-10.77,51.69-26.67,67.18-47.58,19.02-25.68-13.3,8.45-28.69,20.29-15.61,12.01-56.52,42.04-72.78,30.79q-7,2.8-14,5.6l-2.1-2.1c8.22-16.46,35.86-14.46,69.28-31.49,12.16-6.19,56.09-34.89,25.19-29.39-2.63.47-23.88,13.94-30.79,16.79-37.74,15.6-29.95,7.34-3.5-11.9.8-4.65-33.49,11.72-33.59,18.89-2.89-.35-5.51-1-8.4-1.4,8.17-12.73,6.66-10.67-4.2-9.8,20.32-6.7,40.27-14.62,60.18-22.39,1.15-.45,6.68,1.14,13.3-2.8,23.17-18.48,46.72-38.29,61.58-64.38q-1.4,14.7-2.8,29.39,2.45-14.35,4.9-28.69h2.8c4.7,15.56,11.07,30.96,9.8,47.58-22.92-32.15-8.94.99-9.8,12.6-1.22,16.46-24.64,51.14,4.9,4.9,8.07.29-8.76,65.23-37.09,96.57Z" style="fill:#669590; stroke-width:0px;"/><path d="m922.5,617.22c-3.42-1.61-8.36-2.74-11.2-4.2-26.61-13.71-34.66-33.19-46.19-60.18,15.69-16.22,8.69-17.51,7-23.79,67.46,38.3,67.49,10.39,112.66-7,16.43-6.32,36.12-6.93,52.48-14.7-5.24,5.25-53.76,34.83-57.38,29.39,31.27-25.75-36.25,15.32-45.49,17.49-9.01,2.12-28.48-4-30.09,11.9-1.87,18.51,45.97,20.1,47.58,22.39-3.83,4.6-8.45,19.26-11.9,21.69-3.19,2.25-14.83,1.96-17.49,7Z" style="fill:#669590; stroke-width:0px;"/><path d="m1049.86,670.41c-10.25-4.27-20.55-8.3-30.79-12.6,20.32-5.88,40.31-17.8,54.58-33.59,3.6,7.04,15.45-9.18,19.59-15.4-9.87,23.05-22,47.33-43.39,61.58Z" style="fill:#de97a3; stroke-width:0px;"/><path d="m974.29,638.22c-10.15-4.38-20.65-8.01-30.79-12.6,14.49-5.94,34.56-5.64,51.08-9.8,24.4-6.14,53.35-27.56,14,7-12.94,5.24-27.56.84-34.29,15.4Z" style="fill:#7ebca6; stroke-width:0px;"/><path d="m996.68,648.01c-1.26-.53-4.34-.87-5.6-1.4,23.8-13.47,50.52-24.05,65.08-48.98-5.41,28.4-33.47,44.32-59.48,50.38Z" style="fill:#7ebca6; stroke-width:0px;"/><path d="m1318.57,272.94c-2.51,1.78-4.47,3.85-7,5.6,11.45-55.01,24.88-91.56,74.18-121.06l-9.8,20.99h23.79c-50.33,13.87-73.05,45.28-81.17,94.47Z" style="fill:#305457; stroke-width:0px;"/><path d="m1150.63,622.82c-1.79,13.6,2.08,45.93-22.39,30.79-6.64-3.92,17.29-78.24,20.99-67.88q-5.6,31.49-11.2,62.98,6.3-12.95,12.6-25.89Z" style="fill:#7ebca6; stroke-width:0px;"/><path d="m1319.97,286.93c-12.11,16.31-20.12,35.32-30.79,52.48-11.67-47.73,4.08-27.1,6.3-27.29,1.76-.15,19.53-24.64,21.69-27.99l2.8,2.8Z" style="fill:#627577; stroke-width:0px;"/><path d="m1140.83,669.01c-3.98,2.53-4.86,16.75-9.8-7,1.91,2.49,7.21,4.84,9.8,7Z" style="fill:#4c988a; stroke-width:0px;"/><path d="m1265.39,501.06c.67-1.93,6.73-26.36,7-13.3.1,4.84-6.63,12.58-7,13.3Z" style="fill:#917f89; stroke-width:0px;"/><path d="m76.47,555.64c1.29-.41,13.15,12.37,13.3,13.3,2.53,16.6-21.57-10.66-13.3-13.3Z" style="fill:#be8d97; stroke-width:0px;"/><path d="m16.29,548.65c13.84,47.23,12.72,53.83-2.1,2.1l2.1-2.1Z" style="fill:#839496; stroke-width:0px;"/><path d="m1329.77,688.6c1.09-14.07,4.17-27.39,9.1-40.59,2.25.32-3.46,30.04-9.1,40.59Z" style="fill:#a3818c; stroke-width:0px;"/><path d="m1329.77,688.6c-.42.79.76,3.25-.7,4.2-2.31-3.92.68-3.99.7-4.2Z" style="fill:#a3818c; stroke-width:0px;"/><path d="m1062.46,35.01c5.52,4.69,12.95,9.63,19.59,12.6,4.39,4.09,20.07,20.59,22.39,24.49,3.22,7.39,4.7,15.94,8.4,23.09-2.18.02-.94,1.27,0,2.8-2.43.9-2.9,3.59-6.3,2.8-3.23-.75-45.7-34.64-54.58-37.79-4.74.25.28,3.61-.7,5.6-5.18-5.4-10.79-.87-16.79,0,2.71-4.43,4.86-2.12,5.6-3.5.81-1.51-1.88-2.59-1.4-3.5,2.74-5.12,19.25-18.91,0-40.59,4.64,1.83,14.33.48,17.49,2.8,3.09,2.26-7.71-.7,6.3,11.2Z" style="fill:#486f72; stroke-width:0px;"/><path d="m1051.26,68.6c-6.26,12.66-19.05,3.69-16.79,0,6.01-.87,11.61-5.4,16.79,0Z" style="fill:#de97a3; stroke-width:0px;"/><path d="m1112.84,97.99c-.94-1.53-2.18-2.78,0-2.8,1.43,2.77,11.55,14.06,14,20.29-1.45,3.16-12.54-15.13-14-17.49Z" style="fill:#758386; stroke-width:0px;"/><path d="m1082.05,47.61c-6.64-2.97-14.07-7.91-19.59-12.6,7.95.3,14.13,7.51,19.59,12.6Z" style="fill:#758386; stroke-width:0px;"/><path d="m54.08,662.01c8.24-3.28,25.56,4.7,11.2,18.19,1.46-5.77-21.37-14.14-11.2-18.19Z" style="fill:#be8d97; stroke-width:0px;"/><path d="m92.57,457.68c.24.24,2.27-.6,2.8.7.18,7.13.01,18.62,1.4,25.19,2.99,14.18,11.21,32.95,5.6,31.49-9.22-21.11-10.98-45.78-23.09-64.38,3.1,2.87,11.46,5.13,13.3,7Z" style="fill:#627577; stroke-width:0px;"/><path d="m312.3,592.03c4.19,7.72,7.79,15.7,12.6,23.09,14.52,18.06,31.88,33.55,43.39,53.88-2.79,1.04-5.74,1.81-8.4,2.8-39.28-25.94-60.88-66.36-72.78-110.56,12.29-17.76,6.54-2.94,7-2.1.79,1.46,3.53-.05,4.2,1.4,2.67,5.77,9.69,27.94,11.2,30.79.69,1.31,2.69.49,2.8.7Z" style="fill:#de97a3; stroke-width:0px;"/><path d="m318.6,443.68c14.81,26.37,22.75,19.91,25.19,57.38-22.24-9.24-23.08-36.65-25.19-57.38Z" style="fill:#669590; stroke-width:0px;"/><path d="m314.4,527.65c2.9,6.63,30.86,48.22,30.09,51.08-1.34,5-9.86-4.58.7,16.09-17.87-6.66-34.43-66.01-30.79-67.18Z" style="fill:#669590; stroke-width:0px;"/><path d="m383.68,517.86c-4.83,6.79,4.42,7.44,2.8,15.4-21.94-16.38-29.59-25.28-40.59-51.08q18.89,17.84,37.79,35.69Z" style="fill:#669590; stroke-width:0px;"/><path d="m400.47,529.05c-8.34,7.4,11.91,9.2,4.2,16.79-5.82-3.21-12.75-8.53-18.19-12.6,1.62-7.96-7.63-8.61-2.8-15.4,6.31,2.39,11.21,7.69,16.79,11.2Z" style="fill:#758386; stroke-width:0px;"/><path d="m331.19,508.06q26.59,35.69,53.18,71.38c-19.22-22.29-43.27-42.94-53.18-71.38Z" style="fill:#669590; stroke-width:0px;"/><path d="m556.52,494.06q-5.6,23.09-11.2,46.19c-2.51-16.34,3.57-32.1,11.2-46.19Z" style="fill:#4c988a; stroke-width:0px;"/><path d="m548.82,414.29c.19,12.35-17.77,12.95-18.19,25.19-6.75-4.76-5.5-17.3-5.6-24.49.85-1.2,20.45-.85,23.79-.7Z" style="fill:#a299a0; stroke-width:0px;"/><path d="m970.09,561.24c2.88.4,5.51,1.05,8.4,1.4,11.03,1.33,22.58,3.13,33.59,4.9-20.72,7.76-63.9-.3-62.98-9.1,8.01,5.08,17.05,2.26,20.99,2.8Z" style="fill:#83888b; stroke-width:0px;"/><path d="m970.09,561.24c-3.94-.54-12.99,2.28-20.99-2.8.57-5.49,12.74-6.67,16.79-7,10.86-.88,12.37-2.93,4.2,9.8Z" style="fill:#a299a0; stroke-width:0px;"/><path d="m974.29,341.51c4.45-5.19,14.24-12.8,19.59-18.19-1.76,7.19-68.22,82.68-69.98,77.67,15.99-20.59,33.44-39.73,50.38-59.48Z" style="fill:#597f7d; stroke-width:0px;"/><path d="m955.39,408.69c6-.4-10.77,11.25-19.59,16.79-17.14,10.78-36.4,19.72-53.88,30.09q22.74-17.14,45.49-34.29c9.34-4.57,19.89-4.08,27.99-12.6Z" style="fill:#597f7d; stroke-width:0px;"/><path d="m1252.1,128.78c14.08-6.87,0,54.57-2.8,55.98-13.28,6.69,0-54.61,2.8-55.98Z" style="fill:#305457; stroke-width:0px;"/><path d="m1253.5,107.79l2.1,2.1c-17,14.25-28.24,43.64-44.79,36.39l42.69-38.49Z" style="fill:#305457; stroke-width:0px;"/><path d="m1218.51,151.17c1.83-1.5,17.41,2.85,13.3,16.09-4.71,15.17-19.7-10.86-13.3-16.09Z" style="fill:#b27c89; stroke-width:0px;"/><path d="m1096.75,502.46c3.27,9.92-6.4,19.18-14,23.79q7-11.9,14-23.79Z" style="fill:#7ebca6; stroke-width:0px;"/><path d="m1056.16,46.21q-2.8,5.6-5.6,11.2c-2.39-3.91,3.67-7.45,5.6-11.2Z" style="fill:#758386; stroke-width:0px;"/><path d="m839.93,443.68c-1.89,8.4-4.03,15.69-7,23.79-9.75-5.09-14.51-15.43-20.99-23.79,1.73-8.14,7.28-16.13,12.6-22.39q7.7,11.2,15.4,22.39Z" style="fill:#597f7d; stroke-width:0px;"/><path d="m832.93,467.47c-4.85,13.26-5.91,21-19.59,30.79-.02-.84-1.36-1.19-1.4-5.6-.04-5.31.76-10.01-1.4-9.8.04-4.66-.05-9.33,0-14,.06-5.58,2.78-5.81,2.8-6.3.19-4.34-4.76-3.07-1.4-18.89,6.48,8.36,11.24,18.7,20.99,23.79Z" style="fill:#7ebca6; stroke-width:0px;"/><path d="m846.93,405.89c-2.9,12.47-4.19,25.31-7,37.79q-7.7-11.2-15.4-22.39c4.35-5.13,10.89-10.79,16.79-14,3.55-1.93,5.04-1.21,5.6-1.4Z" style="fill:#7ebca6; stroke-width:0px;"/></g><path d="m576.81,474.47q-4.9,1.75-9.8,3.5,4.2-4.55,8.4-9.1c.01.89,1.47,1.24,1.4,5.6Z" style="fill:#488577; stroke-width:0px;"/><path d="m289.91,694.2c2.28-.27,4.7.18,7,0-12.01,4.81-23.84,10.2-35.69,15.4-1.38,1.11-6.58,9.12-7.7,11.2.55-2.86-1.17-4.28-1.4-7,2.91-.39.57-6.18,1.4-7.7.86-1.59,6.38-3.98,8.4-4.9,1.31-.6,25.54-6.71,27.99-7Z" style="fill:#bf8573; stroke-width:0px;"/><path d="m922.5,678.8q-15.4,12.25-30.79,24.49,16.09,14.7,32.19,29.39-18.54,9.45-37.09,18.89c-.08,3.35,9.31,3.13,11.9,4.2,39.99,16.5,10.96,9.92-13.3,11.2q-15.74,25.89-31.49,51.78c-16.33,0-32.66,0-48.98,0,5.23-22.78,42.05-130.52,41.99-139.95,23.41-7.41,47.93-5.35,72.08-5.6,4.33,3.25,3.28,5.35,3.5,5.6Z" style="fill:#773460; stroke-width:0px;"/><path d="m762.95,669.01c5.01,3.47,6.98,5.68,11.2,9.8-.2,2.85-10.01,12.5-9.8,13.3.08.32,3.09,1.6,5.6,3.5-11.27-6.27-24.74,20.68-37.79,32.89q12.6,45.14,25.19,90.27c-14,0-27.99,0-41.99,0q-3.5-43.74-7-87.47c-2.52-6.25-13.52,5.8-19.59,7.7-.03-2.79.4-6.86,0-8.4q7-3.15,14-6.3c-5.8-15.87,20.16-28.11,27.99-44.09,13.25-1.82,9.22-4.03,9.8-4.2,7.46-2.11,14.52-6.17,22.39-7Z" style="fill:#0b080d; stroke-width:0px;"/><path d="m715.37,818.76c-16.33,0-32.66,0-48.98,0,2.52-22.7,22.62-60.3,22.39-79.77,6.07-1.9,17.08-13.94,19.59-7.7q3.5,43.74,7,87.47Z" style="fill:#64133d; stroke-width:0px;"/><path d="m266.11,783.77c.41.9,1.23,8.01,1.4,8.4l-27.99,9.1q18.89,6.65,37.79,13.3c.55,1.83,2.39,2.37,2.8,4.2-25.66-.03-51.32.05-76.98,0,6.01-13.93,13.52-27.41,20.99-40.59,2.87-5.07,5.61-10.27,8.4-15.4,3.18-5.84,7.93-10.98,11.2-16.79,9.05,9.35,16.86,25.74,22.39,37.79Z" style="fill:#250f23; stroke-width:0px;"/><path d="m576.81,627.02c3.57,60.15,25.39,133.25,41.99,191.74-4.2,0-8.4,0-12.6,0q-18.19-74.88-36.39-149.75-2.8-48.28-5.6-96.57c.88-1.02,1.34-1.32,1.4-1.4,3.41-1.58,2.47,14.13,4.2,25.89,1.37,9.33,4.12,9.27,4.2,9.8,1.42,9.3-2.81,21.42,2.8,20.29Z" style="fill:#4d102d; stroke-width:0px;"/><path d="m266.11,783.77c-5.53-12.05-13.34-28.44-22.39-37.79,5.55-9.88,7.58-21.06,9.8-25.19,1.11-2.08,6.32-10.09,7.7-11.2,11.85-5.19,23.68-10.58,35.69-15.4,19.24-7.71,42.67-14.86,62.98-22.39,2.66-.99,5.61-1.76,8.4-2.8,33.46-12.44,67.58-23.11,100.77-36.39,8.35-3.34,16.95-6.26,25.19-9.8,13.74,7.96-6.7,6.59-14.7,12.6-5.65,4.25-24.12,43.7-27.29,52.48-10.48,29.04-10.54,64.56-14,12.6-23.18,20.29,5.76-5.65-15.4-11.2,41.76-27.7,25.98-16.88-17.49-3.5q2.1,9.1,4.2,18.19-26.59-2.1-53.18-4.2l-11.2,43.39c-22.83-1.99-47.3-2.9-67.18-15.4-3.18,1.03-1.33,51.55-11.9,55.98Z" style="fill:#891f56; stroke-width:0px;"/><path d="m569.82,669.01q18.19,74.88,36.39,149.75c-16.33,0-32.66,0-48.98,0-15.68-23.05-23.05-42.32-26.59-69.98-.61-4.8.99-31.57,0-32.89-3.67-4.89-21.14-.65-22.39-7.7.88-1.36,3.15-3.48,2.8-4.9-37.39-25.32-45.28-30.2,7.7-34.29,16.57-1.28,34.37.95,51.08,0Z" style="fill:#773460; stroke-width:0px;"/><path d="m530.63,748.78q-15.05,3.5-30.09,7c-1.59-7.93,27.77-10.9,24.49-16.09-23.4,1.48-20.25,15.04-40.59-8.4-.35-3.41,20.93-18.7,23.79-23.09,1.25,7.04,18.73,2.81,22.39,7.7.99,1.32-.61,28.09,0,32.89Z" style="fill:#773460; stroke-width:0px;"/><path d="m277.31,814.56q-18.89-6.65-37.79-13.3l27.99-9.1c3.9,9.21,6.68,11.97,9.8,22.39Z" style="fill:#64133d; stroke-width:0px;"/><path d="m569.82,669.01c-16.71.95-34.51-1.28-51.08,0-52.98,4.09-45.09,8.96-7.7,34.29.35,1.42-1.92,3.54-2.8,4.9-2.86,4.39-24.14,19.68-23.79,23.09,20.34,23.43,17.18,9.88,40.59,8.4,3.28,5.19-26.09,8.16-24.49,16.09q15.05-3.5,30.09-7c3.54,27.66,10.91,46.93,26.59,69.98-92.37-.05-184.74.12-277.11,0-.41-1.83-2.25-2.37-2.8-4.2-3.12-10.42-5.9-13.19-9.8-22.39-.17-.39-.98-7.49-1.4-8.4,10.56-4.43,8.72-54.95,11.9-55.98,19.88,12.5,44.35,13.41,67.18,15.4l11.2-43.39q26.59,2.1,53.18,4.2-2.1-9.1-4.2-18.19c43.47-13.38,59.26-24.2,17.49,3.5,21.15,5.55-7.79,31.49,15.4,11.2,3.45,51.96,3.52,16.45,14-12.6,3.17-8.79,21.64-48.24,27.29-52.48,8-6.01,28.44-4.64,14.7-12.6,17.36-7.44,22.52-7.74,39.19-19.59,8.11-5.76,16.26-11.94,20.99-20.99,3.53-3.36,6.57-6.05,9.8-9.8q2.8,48.28,5.6,96.57Z" style="fill:#64133d; stroke-width:0px;"/><path d="m554.42,582.24c-4.73,9.05-12.89,15.23-20.99,20.99,3.88-9.69,14.12-14.45,20.99-20.99Z" style="fill:#8ab4a9; stroke-width:0px;"/><path d="m451.55,754.38c10.32-4.76.62,9.78,1.4,11.2-3.61,1.21-4.54-9.75-1.4-11.2Z" style="fill:#4d102d; stroke-width:0px;"/><path d="m911.31,613.03c2.84,1.46,7.77,2.59,11.2,4.2,5.41,2.55,11.89,4.01,15.4,5.6,1.8.82,3.74,1.96,5.6,2.8,10.14,4.59,20.64,8.22,30.79,12.6,5.13,2.22,11.26,6.06,16.79,8.4,1.26.53,4.33.87,5.6,1.4,7.47,3.14,14.84,6.63,22.39,9.8,10.24,4.29,20.54,8.33,30.79,12.6,22.21,9.24,45.19,16.69,67.18,26.59,2.08.94,6.4,1.85,8.4,2.8,3.98,1.9,11.43,4.91,12.6,5.6,5.67,3.35,11.15,6.67,15.4,11.9,5.25,28.53,13,41.03,25.19,65.08,4.24,8.35,8.17,16.94,12.6,25.19,1.93,3.6,5.26,6.78,5.6,11.2-28.92.04-57.85-.03-86.77,0,2.4-8.79,36.07-38.48,36.39-41.29.57-5.08-10.87-14.68-11.9-14.7-3.31-.04-16.98,19.19-25.19,20.99-3.01.66-43.09-.4-47.58-1.4-17.73-3.96-17.96-15.19-18.89-16.09-17.94-17.48-26.69-18.92-19.59-29.39-1.39-9.56-58.27-27.01-69.28-17.49-4.01,3.47-3.17,10.89-9.8,15.4-17.49.87-29.45,15.4-45.49,20.99-2.59-1.07-11.98-.85-11.9-4.2q18.54-9.45,37.09-18.89-16.09-14.7-32.19-29.39,15.4-12.25,30.79-24.49c7.62,8.38,17.35,36.42,21.69,36.39,6.01-.05,10.39-34.84-16.09-74.88-9.46-14.3-29.11-27.8-16.79-27.29Z" style="fill:#250f23; stroke-width:0px;"/><path d="m1110.04,818.76c-85.37.09-170.75-.04-256.12,0q15.74-25.89,31.49-51.78c24.26-1.28,53.29,5.31,13.3-11.2,16.04-5.6,27.99-20.13,45.49-20.99,6.63-4.5,5.78-11.92,9.8-15.4,11-9.52,67.88,7.94,69.28,17.49-7.09,10.47,1.66,11.91,19.59,29.39.93.91,1.16,12.14,18.89,16.09,4.5,1,44.57,2.06,47.58,1.4,8.22-1.81,21.88-21.03,25.19-20.99,1.02.01,12.47,9.61,11.9,14.7-.32,2.8-33.99,32.49-36.39,41.29Z" style="fill:#250f23; stroke-width:0px;"/><path d="m865.12,552.85c11.53,26.99,19.58,46.47,46.19,60.18-12.31-.51,7.34,12.99,16.79,27.29,26.48,40.04,22.1,74.83,16.09,74.88-4.34.03-14.08-28.01-21.69-36.39-.22-.24.83-2.34-3.5-5.6-24.15.25-48.66-1.81-72.08,5.6-.04-6.35-6.05-9.88-5.6-16.09,5.9-25.76,12.64-53.29,11.2-79.77-.36-6.61-6.6-14.84-1.4-20.29,2.51-1.9,13.4-9.18,14-9.8Z" style="fill:#150c18; stroke-width:0px;"/><path d="m792.34,701.2c-4.84,3.47-17.34-1.78-22.39-5.6-2.51-1.9-5.51-3.18-5.6-3.5-.21-.8,9.6-10.44,9.8-13.3,7.66,7.49,12.19,13.64,18.19,22.39Z" style="fill:#250f23; stroke-width:0px;"/><path d="m691.58,680.2c10.9.01,32.09.97,39.19,0-7.83,15.98-33.79,28.21-27.99,44.09q-7,3.15-14,6.3c-.05-.19-1.55,0-2.8-2.8-2.94-6.6-23.76-29.88-23.79-33.59,0-.95,5.59-11.13,11.2-15.4.99,2.33,10.25,1.39,18.19,1.4Z" style="fill:#64133d; stroke-width:0px;"/><path d="m729.36,670.41c-5.05,6.14,5.52,7.14,11.2,5.6-.58.16,3.45,2.38-9.8,4.2-7.1.97-28.29.01-39.19,0l-1.4-2.8c.85,0,10.27-1.94,16.79-2.8,4.97-.65,10.96.47,16.09,0,2.18-1.41,2.97-4.08,4.9-5.6l1.4,1.4Z" style="fill:#948c5d; stroke-width:0px;"/><path d="m690.18,677.41l1.4,2.8c-7.94,0-17.2.93-18.19-1.4.81-.62,2.9-1.09,2.8-2.8,4.61.5,9.38,1.42,14,1.4Z" style="fill:#7c5952; stroke-width:0px;"/><path d="m851.13,562.64c-5.2,5.45,1.04,13.69,1.4,20.29,1.44,26.48-5.29,54.02-11.2,79.77-.45,6.22,5.56,9.74,5.6,16.09.06,9.44-36.75,117.18-41.99,139.95-7,0-14,0-20.99,0q3.5-23.44,7-46.88l2.1,37.09c15.64-50.38,23.83-49.81-2.8-97.97q-15.05,29.04-30.09,58.08,7,24.84,14,49.68c-5.6,0-11.2,0-16.79,0q-12.6-45.14-25.19-90.27c13.05-12.21,26.52-39.16,37.79-32.89,5.05,3.82,17.55,9.06,22.39,5.6,39.85,58.03,15.62,66.44,39.19-13.3.29-10.28-26.94-51.84-34.99-60.88-5.61-6.3-9.39-9.74-16.79-14,.51-.49-3.58-2.69.7-5.6,21.84-16.19,49.22-28.62,70.68-44.79Z" style="fill:#722038; stroke-width:0px;"/><path d="m588.01,575.24c5.12,3.91,27.47,29.85,44.09,43.39,18,14.66,39.27,25.73,58.08,39.19,1.93,1.38,3.73,2.72,5.6,4.2l-1.4,1.4c-14.8-3.71-22.82-1.08-34.99,7-9.98,6.63-16.93,17.05-23.79,26.59-4.51,6.27-10.56,13.32-14,20.29-20.44,41.53-5.26,34.42-4.2,36.39,1.56,2.88,2.91,55.16,7,65.08-1.87,0-3.73,0-5.6,0-16.59-58.48-38.42-131.58-41.99-191.74-1.13-19.08-3.14-38.01,4.9-55.98,1.13-.51,5.13,3.31,6.3,4.2Z" style="fill:#efe0a7; stroke-width:0px;"/><path d="m793.74.02q11.55,8.4,23.09,16.79v2.8c-1.82.99-18.65-8.27-40.59,1.4-36.72-18.35-80.69-10.58-118.96-1.4-53.39,12.81-89.31,40.95-18.89-19.59C690.18,0,741.96,0,793.74.02Z" style="fill:#fcfcf5; stroke-width:0px;"/><path d="m783.95,818.76c-3.27,0-6.53,0-9.8,0q-7-24.84-14-49.68,15.05-29.04,30.09-58.08c26.63,48.16,18.44,47.59,2.8,97.97l-2.1-37.09q-3.5,23.44-7,46.88Z" style="fill:#efe0a7; stroke-width:0px;"/><path d="m662.19,694.2c.03,3.71,20.85,26.99,23.79,33.59q-8.05,11.9-16.09,23.79l-27.29-45.49-22.39,46.19q7,33.24,14,66.48c-3.27,0-6.53,0-9.8,0-4.09-9.92-5.44-62.2-7-65.08-1.07-1.97-16.24,5.15,4.2-36.39,3.43-6.97,9.48-14.02,14-20.29q13.3-1.4,26.59-2.8Z" style="fill:#722038; stroke-width:0px;"/><path d="m929.5.02c32.9,47.44,36.12,95.28,33.59,151.15h-4.2c1.46-16.31,1.72-31.29,0-47.58-4.16-39.41-20.74-75.74-48.98-103.57,6.53,0,13.06,0,19.59,0Z" style="fill:#efe0a7; stroke-width:0px;"/><path d="m685.98,727.79c1.24,2.79,2.75,2.61,2.8,2.8.4,1.54-.03,5.61,0,8.4.22,19.47-19.87,57.08-22.39,79.77-6.53,0-13.06,0-19.59,0q-2.45-26.59-4.9-53.18l-.7,53.18c-2.33,0-4.67,0-7,0q-7-33.24-14-66.48l22.39-46.19,27.29,45.49q8.05-11.9,16.09-23.79Z" style="fill:#efe0a7; stroke-width:0px;"/><path d="m646.79,818.76c-1.87,0-3.73,0-5.6,0l.7-53.18q2.45,26.59,4.9,53.18Z" style="fill:#77242a; stroke-width:0px;"/><path d="m597.81,398.9c5.07,7.25,12.63,11.73,19.59,16.79,4.38,6.3,10.57,9.5,14,16.79,2.49,17.36,4.44,36.56,0,53.88-3.81,14.85-7.55,5.89-11.2,9.1-.22.19.18.96,0,1.4-5.4,3.52-2.45,17.42-2.8,24.49-.06,1.15-2.79.56-2.8.7-2.35.03-.98-2.45-1.4-4.2q-2.1-32.54-4.2-65.08c-2.55-10.22-6.09,1.87-9.8,6.3-8.59-38-8.37-7.36-7,10.5.67,8.8,8.44,46.6,11.2,65.08h-1.4c-10.09-35.97-10.48-57.28-26.59-106.37-.93-2.83-1.97-5.49-2.8-8.4-1.32-4.62-3.45-8.98-2.8-14,5.1-.49,10.6-4.12,11.2-4.2,5.81-.74,10.78-2.94,16.79-2.8Z" style="fill:#0b080d; stroke-width:0px;"/><path d="m602.01,534.65c.12.43-.12.97,0,1.4-2.85,4.6-5.94,1.9-7,3.5-.45.68.39,3.39,0,4.9-2.25,8.59,3.2,23.28,4.2,32.19-3.69-1.83-9.34-3.92-9.8-4.2-3.54-2.13-12.66-8.37-16.79-11.2-26.9-18.41-6.98-7.11,1.4-44.09,2.75-12.12,2.6-30.04,2.8-42.69.07-4.36-1.39-4.71-1.4-5.6-.03-2.36.11-4.48,0-7-.49-10.94-.78-22.64,0-33.59,16.11,49.09,16.5,70.4,26.59,106.37Z" style="fill:#efe0a7; stroke-width:0px;"/><path d="m589.41,572.44l-1.4,2.8c-1.16-.89-5.17-4.71-6.3-4.2-8.04,17.98-6.03,36.9-4.9,55.98-5.61,1.13-1.38-10.99-2.8-20.29-.08-.53-2.83-.46-4.2-9.8-1.73-11.77-.79-27.47-4.2-25.89,2.45-3.21,5.58-5.86,7-9.8,4.13,2.83,13.25,9.06,16.79,11.2Z" style="fill:#250f23; stroke-width:0px;"/><path d="m869.32,484.27c-.11,6.93-.31,14.08,0,20.99.24,5.36-.66,12.5,0,16.79,1.38,9,2.7,6.63,2.8,7,1.69,6.28,8.69,7.58-7,23.79-.59.61-11.48,7.9-14,9.8-21.45,16.17-48.83,28.6-70.68,44.79-4.28,2.91-.19,5.11-.7,5.6-4.15,3.92-8.39,6.81-12.6,11.2q-12.25,10.5-24.49,20.99-9.45-5.6-18.89-11.2c2.48-3.49.56-7.22,0-12.6.91.1,2.12-.21,2.8,0,9.56,2.87,7.19.07,14-2.8,31.99-13.48,44.59-43.25,48.28-43.39,1.1-.04,6.79,6.84,9.8,7,7.64.4,29.78-31.45,32.89-39.19l-3.5,23.79c29.41-20.38,31.89-95.01,38.49-112.66.26-.7,3.02-3.23,4.2-3.5-.93,10.8-1.23,22.71-1.4,33.59Z" style="fill:#4d102d; stroke-width:0px;"/><path d="m904.31,268.74c.07.16,2.72,1.07,2.8,2.1-5.05,10.74.08,34.99,4.2,46.88,3.18,9.19,3.09,13.18,12.6,19.59,2.9,1.96,10.2,4.01,14,5.6-7.53,3.71-15.52,8.03-23.79,9.8-5.51-3.84-10.82-4.03-12.6-11.9-.72-3.21-1.79-62.51-1.4-65.78.1-.81,1.73-7.63,4.2-6.3Z" style="fill:#90484a; stroke-width:0px;"/><path d="m554.42,253.34c-4.03,1.78-6.02,4.04-7,4.2,3.51-6.6,5.48-22.1,0-22.39,14.41-25.88,17.34-38.53,14-68.58,37.1,16.58.27,53.61,29.39,70.68-10.75,2.63-33.08,7.73-36.39,16.09Z" style="fill:#f2edce; stroke-width:0px;"/><path d="m778.35,236.55c-26.92,5.26-18.44,14.9-20.99,20.29-1.04,2.2-9.34,5.93-9.8,6.3-2.77-17.99,14.88-30.17,30.79-26.59Z" style="fill:#90484a; stroke-width:0px;"/><path d="m539.03,146.98c5.68,5.69,13.15,13.04,20.99,15.4.18,1.05,1.07,1.27,1.4,4.2,3.34,30.04.41,42.7-14,68.58-5.43,9.75-11.57,5.32-7,19.59.35,1.09-2.36,1.28,0,4.2-7.57-2.71-13.82,9.51-14,10.5-.5,2.79,5.18,16.73-2.8,44.09-14.5-23.99-24.85-50.36-27.99-78.37,1.76,1.06,3.95,1.63,5.6,2.8,10.99,7.81,28.76,25.16,29.39,16.09.12-1.79-23.55-19.58-27.99-20.29,6.39-5.69,22.67,10.81,22.39,4.9-13.06-21.42-33-43.58-32.19-69.28.3,11.44,30.78,34,32.19,31.49,1.37-6.62-3.35-10.93-5.6-16.09-13.25-30.39-34.26-59.15-29.39-94.47h2.8c-5.1,45.31,20.25,75.6,56.68,98.67,19.46-16.42-22.59-22.73-28.69-60.88-2.15-13.41.57,1.22,18.19,18.89Z" style="fill:#320d0e; stroke-width:0px;"/><path d="m519.43,184.76c2.25,5.17,6.96,9.48,5.6,16.09-1.41,2.51-31.89-20.05-32.19-31.49.08-2.53-.67-11.54.7-12.6q12.95,14,25.89,27.99Z" style="fill:#b06554; stroke-width:0px;"/><path d="m501.24,237.95c1.67-2.2,1.23-4.05,1.4-4.2,4.44.72,28.12,18.5,27.99,20.29-.63,9.07-18.4-8.29-29.39-16.09Z" style="fill:#7a3c3f; stroke-width:0px;"/><path d="m687.38,270.14c.28,1.22,4.08,7.03,4.2,8.4-1.69.98-3.19,4.75-4.2,7-2.85,6.38-4.79,14.65-8.4,14,2.89-10.29,6.02-16.95,2.8-27.99q2.8-.7,5.6-1.4Z" style="fill:#5a3131; stroke-width:0px;"/><path d="m575.41.02c-25.42,21.47-42.74,54.48-38.49,88.17-.31-34.29,18.25-65.22,42.69-88.17,19.59,0,39.19,0,58.78,0-70.41,60.54-34.49,32.41,18.89,19.59,38.27-9.18,82.24-16.95,118.96,1.4,21.94-9.67,38.77-.41,40.59-1.4v-2.8q-11.55-8.4-23.09-16.79c19.13,0,38.25,0,57.38,0,4.98,7.45,11.29,13.98,16.79,20.99,41.76,68.43,4.58,93.31,1.4,146.95-.11,1.85.05,3.74,0,5.6-1.5,59.55,23.58,65.59,25.19,73.48,1.27,6.22-2.48,7.34-2.8,9.1-2.22,1.45-6.88,2.15-9.1,1.4-5.16-1.74-47.45-32.09-104.27-20.99-15.91-3.57-33.56,8.6-30.79,26.59-3.49,2.82-6.87,5.73-10.5,8.4-2.84.57-6.21-2.98-9.1-5.6-18.51-16.78-10-32.04,0-50.38.08-.15,3.36.89,2.8-2.1-1.43-1.68-2.65,1.97-2.8,2.1-7.67,6.47-9.71,15.68-13.3,15.4-32.73-43.55,4.13.96-.7,20.29-.33,1.31-14.77,21.41-16.09,21.69-3.15.68-13.5-15.95-10.5-2.8q-2.8.7-5.6,1.4c-1.95-6.69-7.89-10.68-8.4-11.9-.95-2.26,9.98-20.71-34.29-24.49-32.78-2.8-56.04,5.56-84.67,18.19,3.31-8.36,25.64-13.46,36.39-16.09-29.12-17.07,7.71-54.09-29.39-70.68-.33-2.93-1.22-3.14-1.4-4.2-1.55-9.2-2.4-17.48-7-25.89-40.34-39.52-44.14-46.19-14,10.5-17.63-17.67-20.34-32.3-18.19-18.89,6.1,38.15,48.15,44.46,28.69,60.88-36.43-23.07-61.79-53.35-56.68-98.67h-2.8c-4.87,35.32,16.14,64.08,29.39,94.47q-12.95-14-25.89-27.99c-1.37,1.05-.62,10.07-.7,12.6-.81,25.69,19.13,47.85,32.19,69.28.28,5.91-16.01-10.59-22.39-4.9-.17.15.27,1.99-1.4,4.2-1.65-1.17-3.84-1.74-5.6-2.8q-9.8-24.49-19.59-48.98c-7.26-24.4-8-49.73-9.8-74.88-.08-1.12-4.97.27-2.8-20.99,2.83-27.67,22.26-69.59,41.99-90.27,23.33-.01,46.65.01,69.98,0Z" style="fill:#efe0a7; stroke-width:0px;"/><path d="m579.61.02c-24.43,22.95-43,53.88-42.69,88.17-4.25-33.7,13.06-66.7,38.49-88.17,1.4,0,2.8,0,4.2,0Z" style="fill:#664e56; stroke-width:0px;"/><path d="m869.32,84h1.4c.52,25.48-1.29,54.08-11.2,77.67-22.68,54.01-53.69,34.18-100.07,49.68,19.51-12.96,87.69-29.43,43.39-27.99-4.26-2.6,19.11-18.42,30.09-31.49,12.73-15.15,34.13-48.64,36.39-67.88Z" style="fill:#b06554; stroke-width:0px;"/><path d="m560.02,162.37c-7.85-2.36-15.32-9.7-20.99-15.4-30.14-56.69-26.35-50.01,14-10.5,4.6,8.41,5.45,16.69,7,25.89Z" style="fill:#b06554; stroke-width:0px;"/><path d="m727.96,215.55c-10,18.35-18.51,33.61,0,50.38-4.43-4.23-5.04-.97-5.6-1.4-.08-.06.35-.34-1.4-1.4-.54-.33-1.85-5.17-3.5-5.6-9.63-2.49-14.22,30.18-16.09,36.39-3.56-4.64-6.13-9.49-9.8-14-.03-.46.04-.94,0-1.4-.11-1.37-3.92-7.18-4.2-8.4-3-13.15,7.35,3.47,10.5,2.8,1.32-.28,15.77-20.38,16.09-21.69,4.83-19.34-32.03-63.84.7-20.29,3.59.29,5.63-8.92,13.3-15.4Z" style="fill:#251e13; stroke-width:0px;"/><path d="m615.3,190.36q22.74,9.45,45.49,18.89c-14.65-.13-35.5-7.9-45.49-18.89Z" style="fill:#58261c; stroke-width:0px;"/><path d="m870.72,84h-1.4c.59-5-.99-10.46.7-15.4,1.18,0,.66,13.49.7,15.4Z" style="fill:#c8af7b; stroke-width:0px;"/><path d="m727.96,215.55c.15-.13,1.37-3.78,2.8-2.1.56,2.99-2.72,1.95-2.8,2.1Z" style="fill:#251e13; stroke-width:0px;"/><path d="m792.34,701.2c-6.01-8.75-10.53-14.91-18.19-22.39-4.22-4.12-6.19-6.33-11.2-9.8-7.91-5.48-19.68-15.52-33.59,1.4l-1.4-1.4c.39-.31,5.49-5.47,7-7,7.5,2.73,14.97-15.73,34.29-25.19,8.98-4.4,20.14-3.77,27.29-9.8,8.05,9.04,35.28,50.6,34.99,60.88-23.57,79.73.66,71.32-39.19,13.3Z" style="fill:#efe0a7; stroke-width:0px;"/><path d="m779.75,613.03c7.4,4.25,11.19,7.7,16.79,14-7.15,6.03-18.32,5.4-27.29,9.8-19.32,9.46-26.79,27.92-34.29,25.19,11.33-11.49,20.87-25.98,32.19-37.79,4.2-4.38,8.45-7.28,12.6-11.2Z" style="fill:#efe0a7; stroke-width:0px;"/><path d="m599.21,576.64c3.08,1.52,2.56,3.69,5.6,1.4,3.54,6.82,75.98,65.13,81.17,65.78-7.88,5.48,3.8,7.85,4.2,14-18.82-13.46-40.08-24.53-58.08-39.19-16.62-13.54-38.97-39.48-44.09-43.39l1.4-2.8c.46.27,6.1,2.37,9.8,4.2Z" style="fill:#90484a; stroke-width:0px;"/><path d="m694.38,663.41c.21.05-.62,2.05,4.2,1.4,2.83,2.55,8.34,5.69,8.4,9.8-6.53.86-15.94,2.8-16.79,2.8-4.62.02-9.39-.9-14-1.4-4.57-.5-17.21-1.48-16.79-5.6,12.17-8.08,20.19-10.71,34.99-7Z" style="fill:#722038; stroke-width:0px;"/><path d="m676.18,676.01c.1,1.71-1.99,2.18-2.8,2.8-5.6,4.27-11.2,14.44-11.2,15.4q-13.3,1.4-26.59,2.8c6.86-9.54,13.81-19.97,23.79-26.59-.42,4.12,12.23,5.1,16.79,5.6Z" style="fill:#250f23; stroke-width:0px;"/><path d="m767.15,624.22c-11.32,11.81-20.86,26.29-32.19,37.79-1.51,1.53-6.61,6.69-7,7-1.93,1.52-2.72,4.19-4.9,5.6-5.13.47-11.12-.65-16.09,0-.06-4.1-5.57-7.25-8.4-9.8-.98-.89-1.53-1.79-2.8-2.8-1.87-1.48-3.67-2.82-5.6-4.2-.4-6.15-12.08-8.51-4.2-14,5,.62,9.21-4.69,15.4-7,13.8-5.14,9.62,3.17,22.39-2.8q9.45,5.6,18.89,11.2,12.25-10.5,24.49-20.99Z" style="fill:#320d0e; stroke-width:0px;"/><path d="m698.57,664.81c-4.81.65-3.98-1.35-4.2-1.4l1.4-1.4c1.27,1,1.81,1.91,2.8,2.8Z" style="fill:#ba8684; stroke-width:0px;"/><path d="m762.95,669.01c-7.87.83-14.93,4.89-22.39,7-5.68,1.54-16.24.54-11.2-5.6,13.91-16.92,25.68-6.88,33.59-1.4Z" style="fill:#722038; stroke-width:0px;"/><path d="m754.56,362.51c-7.63,8.89-15.45,17.1-25.19,23.79-7.29-17.88-7.75-41.56-8.4-60.88h-2.8c3.25,11.59-7.72,87.18-11.9,88.87-2.61,1.05-24.79-12.48-10.5,9.8-17.33-1.45-31.27-36.14-14-72.08,3.95-8.21,15.84-19.48,19.59-26.59.76-1.44-.77-8.08,0-9.8,6.39-14.37,13.26-6.16,16.79-7.7,1.25-.54,3.21-4.08,4.2-5.6,10.23,20.46,23.42,38.92,32.19,60.18Z" style="fill:#0b080d; stroke-width:0px;"/><path d="m681.78,271.54c3.22,11.04.09,17.7-2.8,27.99-.89,3.17-1.39,6.76-2.8,9.8-17.6-13.49-80.18,22.47-95.17,39.19-51.99-7.03-29.6-75.69-30.79-80.47-.16-.65-9.17-8.87-9.8-9.1-2.36-2.92.35-3.11,0-4.2,2.17.7,4.64,3.17,7,2.8.98-.16,2.96-2.42,7-4.2,28.64-12.63,51.9-20.99,84.67-18.19,44.27,3.78,33.34,22.23,34.29,24.49.51,1.22,6.45,5.21,8.4,11.9Z" style="fill:#0b080d; stroke-width:0px;"/><path d="m676.18,309.32c-14.12,30.54-64.53,43.33-95.17,39.19,14.99-16.72,77.57-52.67,95.17-39.19Z" style="fill:#727278; stroke-width:0px;"/><path d="m841.33,407.29c-5.91,3.21-12.45,8.86-16.79,14-5.31,6.27-10.87,14.25-12.6,22.39-3.36,15.82,1.59,14.55,1.4,18.89-.02.48-2.74.72-2.8,6.3-6.73-1-10.64,2.65-11.2,2.8-7.3,1.92-11.58.78-16.79,8.4-.29-1.31.34-3.4,0-4.2-2.83-6.59-2.72-4.26-8.4-7,.49-.97,1.15-1.75,1.4-2.8,1.52-.34,1.63-1.66,4.2-1.4.68.07,4.16,2.62,8.4,1.4,9.88-2.84,4.23-10.48,4.2-11.2.17-15.03,8.45-30,20.29-39.19,7.54-5.85,28.36-15.82,28.69-8.4Z" style="fill:#25100d; stroke-width:0px;"/><path d="m802.14,375.1c-31.98,11.76-19.51,21.2-20.99,27.29-.52,2.13-29.76,33.03-32.19,25.89,13.65-16.29,21.69-22.41,11.2-57.38,1.16.14,1.36-.32,1.4-1.4,13.84,1.45,27.47-1.51,40.59,5.6Z" style="fill:#722038; stroke-width:0px;"/><path d="m802.14,375.1c8.58,4.65-4.02,2.06-.7,5.6l9.1,2.1c-1.56,2.02-3.66,3.32-5.6,4.9-9.95,8.07-14.01,13.27-19.59,25.19-.08.18-1.72.07-2.8,2.8-1.49,3.77-2.07,5.8-2.8,9.8-4.2.04-7.14-.73-11.2,1.4-.83.44-6.53,8.08-12.6,14l-9.8-9.8c1.59-2.33,2.67-2.65,2.8-2.8,2.43,7.14,31.67-23.76,32.19-25.89,1.48-6.1-10.99-15.53,20.99-27.29Z" style="fill:#190a0b; stroke-width:0px;"/><path d="m727.96,387.7c9.9,19.18,19.96,31.01,19.59,32.89-.48,2.46-14.99,15.82-30.79-11.9q.7-19.24,1.4-38.49c1.61-3.98,6.11,10.35,9.8,17.49Z" style="fill:#561424; stroke-width:0px;"/><path d="m729.36,386.3c-.08.06.31,1.56-1.4,1.4-3.69-7.15-8.18-21.48-9.8-17.49q-.7,19.24-1.4,38.49c-8.94,1.46-7.44,16.53-20.99,15.4-14.3-22.27,7.89-8.74,10.5-9.8,4.18-1.69,15.14-77.28,11.9-88.87h2.8c.64,19.33,1.11,43,8.4,60.88Z" style="fill:#716875; stroke-width:0px;"/><path d="m753.16,335.92c-6.01,9.02,8.7,26.07,8.4,33.59-.04,1.08-.24,1.54-1.4,1.4-.69-2.29-5.41-7.93-5.6-8.4-8.77-21.26-21.96-39.72-32.19-60.18,2.51-3.87,4.13-3.91,4.2-4.2,8.58,5.12,13.6,23.74,26.59,37.79Z" style="fill:#47202b; stroke-width:0px;"/><path d="m720.97,263.14c-12.44-5.09-4.67,25.81-2.8,39.19-8.62,10.28-14.73-5.71-16.79-8.4,1.88-6.21,6.46-38.88,16.09-36.39,1.65.43,2.96,5.27,3.5,5.6Z" style="fill:#f2edce; stroke-width:0px;"/><path d="m643.99,366.71c-13.88-6.4-28.72,2.01-42.69,4.2-10.58,1.66-27.19-.58-25.89,4.2-5.71-1.27-12.41-2.44-18.19-2.8v-1.4c27.8-2.3,75.03-16.89,79.07-16.79,6.42.15,10.41,6.83,20.29,6.3-2.76,5.78-10.19,5.43-12.6,6.3Z" style="fill:#320d0e; stroke-width:0px;"/><path d="m643.99,366.71c-17.55,6.37-36.41,7.34-53.88,14-4.81-5.99-7.04-6.17-14.7-5.6-1.3-4.78,15.32-2.54,25.89-4.2,13.96-2.19,28.81-10.6,42.69-4.2Z" style="fill:#722038; stroke-width:0px;"/><path d="m720.97,263.14c1.75,1.06,1.32,1.34,1.4,1.4,1.17,7.46,5.34,28.64,4.2,33.59-.07.29-1.69.33-4.2,4.2-.98,1.52-2.95,5.06-4.2,5.6-.16-1.83.25-3.79,0-5.6-1.87-13.38-9.64-44.28,2.8-39.19Z" style="fill:#d1ae8b; stroke-width:0px;"/><path d="m568.42,397.5c6.73,1.8,10.13.34,12.6,4.2-.59.08-6.1,3.71-11.2,4.2-15.6,1.5-19.64-1.07-32.19-8.4-.3-2.2.44-5.14,0-7,8.93,6.49,19.66,9.37,30.79,7Z" style="fill:#be8d97; stroke-width:0px;"/><path d="m540.43,258.94c.63.23,9.64,8.45,9.8,9.1,1.19,4.78-21.2,73.45,30.79,80.47,30.64,4.14,81.05-8.64,95.17-39.19,1.41-3.04,1.91-6.63,2.8-9.8,3.61.65,5.54-7.61,8.4-14,10.7,48.19-62.13,70.1-20.29,53.18,18.38-12.68,25.82-37.36,24.49-58.78,3.67,4.5,6.23,9.36,9.8,14,2.07,2.69,8.18,18.67,16.79,8.4.25,1.81-.16,3.77,0,5.6-3.53,1.54-10.4-6.67-16.79,7.7-.77,1.72.76,8.36,0,9.8-3.76,7.11-15.65,18.38-19.59,26.59-17.27,35.94-3.34,70.63,14,72.08,13.55,1.13,12.05-13.93,20.99-15.4,15.8,27.71,30.31,14.36,30.79,11.9.37-1.88-9.7-13.71-19.59-32.89,1.71.16,1.32-1.34,1.4-1.4,9.75-6.69,17.56-14.9,25.19-23.79.19.47,4.91,6.11,5.6,8.4,10.49,34.97,2.45,41.09-11.2,57.38-.13.15-1.21.47-2.8,2.8-.18.27-4.56,2.11-4.2,4.9.1.74,9.76,10.57,10.5,10.5,1.57-.16,2.49-4.61,3.5-5.6,6.06-5.91,11.76-13.56,12.6-14,8.18,4.54,8.58,32.6,7,39.19-.25,1.05-.91,1.83-1.4,2.8-6.21,12.29-17.7,7.45-18.89-18.19-1.47.23,4.58,24.86-7,26.59-3.08.46-1.9-2.67-2.1-2.8,2.12-4.83-5.15-40.27-7-41.29-6.66-3.65-3.72,23.29-4.2,27.29-.31,2.53.52,8.23,0,9.1-.48.81-7.28-.34-13.3,7.7l-12.6-14c-19.16,23.69-14.63,5.77-26.59,8.4-4.89,1.08-6.45,8.34-7,8.4-6.44-12.61-14.97-4.74-18.19-5.6-1.28-.34-1.93-2.75-2.1-2.8q-.35-14-.7-27.99c-3.25,7.82,2.96,21.24-3.5,26.59-26.12-10.64-8.95-15.14-19.59-37.79-3.43-7.3-9.61-10.5-14-16.79,10.02,7.29,21.86,12.67,27.29,25.19,4.16-1.57-15.23-41.25-46.88-41.99-6.02-.14-10.99,2.06-16.79,2.8-2.47-3.86-5.87-2.4-12.6-4.2-10.94-2.92-32.44-12.45-33.59-10.5,1.01,1.15,2.41,1.86,2.8,3.5.44,1.86-.3,4.8,0,7-10.94-6.38-15.72-12.72-23.79-22.39,12.27-3.7,30.29-3.61,43.39-2.8,5.78.36,12.48,1.53,18.19,2.8,7.65-.57,9.89-.39,14.7,5.6,17.48-6.65,36.33-7.62,53.88-14,2.4-.87,9.83-.52,12.6-6.3-9.88.53-13.87-6.15-20.29-6.3-4.04-.09-51.27,14.49-79.07,16.79-15.22,1.26-30.95-1.76-46.19,1.4-2.02-2.61-3.91-5.49-7-7-1.91-7.3-6.77-16.82-11.2-23.09,1.24-3.64,9.35-.87,15.4-3.5,7.78-3.38,13.11-17.37,15.4-25.19,7.98-27.35,2.3-41.29,2.8-44.09.18-.99,6.43-13.2,14-10.5Z" style="fill:#efe0a7; stroke-width:0px;"/><path d="m642.59,390.5c4.85,5.99,10.91,11.67,15.4,18.19.95,10.35,2.59,47.07-2.8,15.4-.55-3.21,3.18-7.55,1.4-10.5-.63-1.05-24.1-12.1-19.59-7.7-6.8-7.5-30.39-19.82-19.59-8.4-15.53-7.92-38.64-8.08-11.9-14,14.6-3.23,24.05.65,37.09,7Z" style="fill:#4d102d; stroke-width:0px;"/><path d="m617.4,415.69c-6.97-5.07-14.52-9.55-19.59-16.79,31.65.73,51.04,40.41,46.88,41.99-5.44-12.52-17.27-17.9-27.29-25.19Z" style="fill:#320d0e; stroke-width:0px;"/><path d="m657.99,408.69c-4.49-6.52-10.55-12.2-15.4-18.19-7.84-9.69-19.21-19.29,3.5-12.6,13.1,3.86,9.79,7.92,11.9,30.79Z" style="fill:#190a0b; stroke-width:0px;"/><path d="m746.16,474.47c-5.74-3.66-7.25-9.07-11.2-14,.48-4-2.46-30.94,4.2-27.29,1.85,1.01,9.12,36.45,7,41.29Z" style="fill:#efe0a7; stroke-width:0px;"/><path d="m655.19,424.09c-4.15,34.39,2.49,4.61-18.19-18.19-4.5-4.4,18.96,6.65,19.59,7.7,1.78,2.94-1.95,7.28-1.4,10.5Z" style="fill:#693546; stroke-width:0px;"/><path d="m718.87,419.89c15.59,6.66,5.74,21.02,2.8,34.99q-1.4-17.49-2.8-34.99Z" style="fill:#544452; stroke-width:0px;"/><path d="m691.58,279.93c1.32,21.42-6.11,46.11-24.49,58.78-41.84,16.92,30.99-4.99,20.29-53.18,1.01-2.25,2.51-6.02,4.2-7,.04.46-.03.93,0,1.4Z" style="fill:#948c5d; stroke-width:0px;"/><path d="m779.75,425.49c-2.07,11.42-2.42,27.79,0,39.19-2.57-.26-2.68,1.06-4.2,1.4,1.58-6.59,1.18-34.65-7-39.19,4.05-2.13,7-1.36,11.2-1.4Z" style="fill:#722038; stroke-width:0px;"/><path d="m568.42,397.5c-11.13,2.37-21.86-.51-30.79-7-.39-1.64-1.79-2.35-2.8-3.5,1.15-1.96,22.65,7.57,33.59,10.5Z" style="fill:#47202b; stroke-width:0px;"/><path d="m755.96,440.88c-1.01.99-1.93,5.44-3.5,5.6-.74.07-10.4-9.76-10.5-10.5-.36-2.78,4.02-4.63,4.2-4.9l9.8,9.8Z" style="fill:#891f56; stroke-width:0px;"/><path d="m557.22,370.9v1.4c-13.1-.81-31.12-.9-43.39,2.8-.77-.92-1.83-1.55-2.8-2.8,15.24-3.16,30.96-.14,46.19-1.4Z" style="fill:#6b613a; stroke-width:0px;"/><path d="m655.19,471.67c-1.51-.47-2.71-.79-4.2-1.4,6.46-5.35.24-18.77,3.5-26.59q.35,14,.7,27.99Z" style="fill:#c8af7b; stroke-width:0px;"/><path d="m617.4,397.5c.68.35,7.22,2.94,7,3.5-3.7,2.69-5.04-1.43-7-3.5Z" style="fill:#4d102d; stroke-width:0px;"/><path d="m587.31,391.9c.24-.11,4.95,1.84,4.9,2.1-.42,2.3-9.05-.12-4.9-2.1Z" style="fill:#b59670; stroke-width:0px;"/><path d="m599.21,459.08c4.46,19.73,9.34,39.13,14,58.78.41,1.75-.95,4.23,1.4,4.2-.02.47,0,.93,0,1.4-.19,13.35,2.5,13.15,5.6,23.79l-2.8-.7q.7,10.15,1.4,20.29-7.7,4.2-15.4,8.4-4.2-15.4-8.4-30.79c.39-1.5-.45-4.22,0-4.9,1.05-1.59,4.15,1.1,7-3.5,5.2,18.16,3.19,10.61,1.4-1.4-2.75-18.48-10.52-56.28-11.2-65.08-1.37-17.86-1.6-48.49,7-10.5Z" style="fill:#efe0a7; stroke-width:0px;"/><path d="m613.2,517.86c-4.65-19.65-9.53-39.05-14-58.78,3.7-4.43,7.25-16.52,9.8-6.3q2.1,32.54,4.2,65.08Z" style="fill:#486f72; stroke-width:0px;"/><path d="m602.01,536.05c-.12-.43.12-.97,0-1.4h1.4c1.79,12.01,3.8,19.56-1.4,1.4Z" style="fill:#665b44; stroke-width:0px;"/><path d="m603.4,575.24l1.4,2.8c-3.04,2.29-2.52.12-5.6-1.4-1-8.91-6.45-23.6-4.2-32.19q4.2,15.4,8.4,30.79Z" style="fill:#25100d; stroke-width:0px;"/><path d="m870.72,404.49c8.44.05,5.21,2.79,5.6,2.8-.6,14.63-4.35,28.83-5.6,43.39-1.18.27-3.94,2.8-4.2,3.5-6.6,17.65-9.08,92.28-38.49,112.66l3.5-23.79c1.3-3.25,2.86-4.62,2.8-4.9-.34-1.45-4.18.38-4.2-2.1,14.04-20.02,28.37-79.92,24.49-104.97-5.58,28.18-18.77,90.89-39.89,109.86-6.43,5.77,2.86-9.61-3.5-10.5-1.77-.25-7.83,9.44-9.1,11.2l-5.6-5.6c.99-.51,13.77-12.13,16.79-14.7-.38-7.63.18-15.49,0-23.09,13.69-9.79,14.74-17.53,19.59-30.79,2.97-8.11,5.11-15.39,7-23.79,2.8-12.47,4.1-25.32,7-37.79.31-.1,2.17-3.34,4.9-4.2,7.33,2.88,11.32,2.75,18.89,2.8Z" style="fill:#0b080d; stroke-width:0px;"/><path d="m831.53,543.05c-3.11,7.74-25.25,39.59-32.89,39.19-3.01-.16-8.7-7.04-9.8-7-3.69.14-16.29,29.9-48.28,43.39,7.12-8.35,12.56-18.22,19.59-26.59,10.94-13.01,45.21-46.01,30.79-23.09-.58,2.88,2.3,1.32,3.5.7,2.18-1.13,33.49-30.46,35.69-33.59.01,2.48,3.86.65,4.2,2.1.06.27-1.5,1.65-2.8,4.9Z" style="fill:#0b080d; stroke-width:0px;"/><path d="m722.37,569.64c-3.52,9.6-.67,21.18,0,30.79.49,7.03.66,13.94,1.4,20.99.56,5.38,2.48,9.11,0,12.6-12.77,5.97-8.6-2.34-22.39,2.8,7.39-15.42,16.01,11.46,16.79-17.49.02-.75-2.83-13.59-2.8-14.7.19-8.15-.43-24.25,1.4-30.79,3.13-11.22,5.05-4.33,5.6-4.2Z" style="fill:#eecda9; stroke-width:0px;"/><path d="m755.96,590.63q-14.7,15.4-29.39,30.79c-.68-.21-1.89.1-2.8,0-.74-7.05-.91-13.96-1.4-20.99,1.71,3.22,4.92-2.89,8.4-9.8.91-1.8,2.12-3.74,2.8-5.6,6.46-.39-1.76,13.37-2.1,19.59,1.94,1.05,21.97-16.46,23.79-16.79,3.83-.71.33,2.4.7,2.8Z" style="fill:#320d0e; stroke-width:0px;"/><path d="m760.15,592.03c-7.04,8.37-12.47,18.24-19.59,26.59-6.81,2.87-4.43,5.67-14,2.8q14.7-15.4,29.39-30.79c.68.74,2.95,1.67,4.2,1.4Z" style="fill:#64133d; stroke-width:0px;"/><path d="m904.31,268.74c-2.47-1.33-4.1,5.49-4.2,6.3-.39,3.27.68,62.57,1.4,65.78,1.77,7.87,7.08,8.05,12.6,11.9-32.16,6.86-58.31-4.58-34.29,4.2,7.17.41,14.55-.57,21.69,0l1.4,2.8c-3.52,1.91-23.9,9.84-26.59,9.8-25.78-10.85-53.91-8.9-81.17-7.7q19.24,5.25,38.49,10.5c10.32.26,16.75-10.54,42.69-1.4,5.91,2.08,16.22,5.72,16.79,12.6.63,7.52-6.98,9.26-7,14-1.35-.2-2.86.22-4.2,0-3.09-.51-8.09-4.1-18.19-5.6-.29-.11-.49-1.22-5.6-2.8-27.49-8.5-42.63-6.11-61.58,16.79.17-1.24-6.04-2.94,8.4-18.19,1.94-1.57,4.04-2.87,5.6-4.9l-9.1-2.1c-3.32-3.54,9.28-.94.7-5.6-13.11-7.11-26.75-4.15-40.59-5.6.31-7.52-14.41-24.57-8.4-33.59,4.02,2.28,5.58,10.59,11.2,7.7-12.74-9.2-23.2-30.42-25.19-45.49,7,8.29,10.19,19.01,20.99,23.79,4.67,6.89,6.66,5.3,7,5.6,12.92,11.46,25.38,14.77,41.99,18.19,4.01.83,8.71,2.4,12.6,2.8,35.67,3.7,62.79-4.59,64.38-44.79.94-23.78-10.66-32.83,7-41.99,2.46-1.28,5.51-5.66,11.2,7Z" style="fill:#efe0a7; stroke-width:0px;"/><path d="m876.32,369.5v1.4c-25.93-9.14-32.37,1.66-42.69,1.4q-19.24-5.25-38.49-10.5c27.26-1.2,55.4-3.15,81.17,7.7Z" style="fill:#320d0e; stroke-width:0px;"/><path d="m944.89,349.91c-5.57,5.91-7.91,28.21-30.79,44.79-4.36-18.18-5.58-10.65-20.99-11.2-.58-6.88-10.89-10.51-16.79-12.6v-1.4c2.69.05,23.07-7.89,26.59-9.8,1.38-.75,2.83-1.35,4.2-2.1-.63-1.29-4.13-.58-5.6-.7-7.14-.57-14.52.41-21.69,0-24.02-8.78,2.13,2.67,34.29-4.2,8.27-1.77,16.26-6.09,23.79-9.8.56.24,7.65-3.64,7,7Z" style="fill:#722038; stroke-width:0px;"/><path d="m914.1,394.7c-2.29,1.66-4.48,2.92-7,4.2-7.18-2.5-13.52-.27-20.99-1.4.02-4.74,7.63-6.47,7-14,15.41.55,16.63-6.98,20.99,11.2Z" style="fill:#250f23; stroke-width:0px;"/><path d="m886.11,397.5c7.48,1.13,13.81-1.1,20.99,1.4-9.2,4.68-20.15,8.61-30.79,8.4-.39,0,2.84-2.75-5.6-2.8,1.94-2.76,5.57-3.15,8.4-4.2,1.2-.44,3.34,1.07,2.8-2.8,1.34.22,2.85-.2,4.2,0Z" style="fill:#804053; stroke-width:0px;"/><path d="m902.91,359.71l-1.4-2.8c1.47.12,4.96-.59,5.6.7-1.36.75-2.82,1.35-4.2,2.1Z" style="fill:#dcaba8; stroke-width:0px;"/><path d="m760.15,321.92c-10.8-4.79-13.99-15.5-20.99-23.79-3.19-24.17-.69-18.49,9.1-7,10.71-34.61-2.91,8.96,11.9,30.79Z" style="fill:#5a3131; stroke-width:0px;"/><path d="m891.71,256.14c-.46,2.53,1.9,3.13,1.4,5.6-17.66,9.16-6.06,18.21-7,41.99-32.76-25.12-37.92,15.81-64.38,44.79-3.88-.4-8.58-1.97-12.6-2.8-10.4-5.7-32.62-23.22-41.99-18.19-.34-.3-2.33,1.29-7-5.6-14.8-21.83-1.19-65.4-11.9-30.79-9.79-11.49-12.29-17.18-9.1,7,1.99,15.07,12.46,36.28,25.19,45.49-5.62,2.89-7.18-5.41-11.2-7.7-12.99-14.04-18.01-32.67-26.59-37.79,1.14-4.95-3.03-26.13-4.2-33.59.56.43,1.17-2.83,5.6,1.4,2.89,2.62,6.26,6.17,9.1,5.6,3.62-2.66,7.01-5.58,10.5-8.4.45-.37,8.76-4.1,9.8-6.3,2.55-5.39-5.93-15.04,20.99-20.29,56.82-11.1,99.1,19.25,104.27,20.99,2.22.75,6.87.05,9.1-1.4Z" style="fill:#0b080d; stroke-width:0px;"/><path d="m886.11,303.73c-1.59,40.19-28.71,48.48-64.38,44.79,26.46-28.98,31.61-69.9,64.38-44.79Z" style="fill:#727278; stroke-width:0px;"/><path d="m809.14,345.71c-16.61-3.42-29.07-6.74-41.99-18.19,9.36-5.02,31.59,12.5,41.99,18.19Z" style="fill:#8e717d; stroke-width:0px;"/><path d="m547.42,257.54c-2.36.38-4.83-2.1-7-2.8-4.57-14.27,1.57-9.84,7-19.59,5.48.29,3.51,15.79,0,22.39Z" style="fill:#efe0a7; stroke-width:0px;"/><path d="m909.91.02c28.24,27.83,44.82,64.15,48.98,103.57-15.05-3.44-4.43.11-4.2,15.4h-5.6c-.41-7.91-1.76-27.44-2.8-14l-23.79-1.4c-.35-3.13-1.04-8.8-2.8-11.2-.99-1.35-6.2-2.65-8.4-4.2.52-31.34-22.97-70.08-18.89-30.79-6.66-13.2-15.41-24.8-24.49-36.39-5.5-7.02-11.81-13.54-16.79-20.99,19.59,0,39.19-.01,58.78,0Z" style="fill:#b06554; stroke-width:0px;"/><path d="m922.5,103.59c3.09,28-5.63,52.73-20.99,75.58-2.42,3.61-8.19,9.32-11.2,13.3,23.65-9.04,40.19-27.28,48.98-52.48,5.25-15.04,5.79-19.28,7-34.99,1.03-13.44,2.39,6.08,2.8,14,2.4,45.99-12.75,75.23-39.19,111.26,17.23-8.05,29.88-22.93,43.39-35.69-7.1,44.23-16.75,85.12-41.99,123.16-4.12-11.89-9.25-36.14-4.2-46.88-.08-1.03-2.73-1.94-2.8-2.1-5.69-12.66-8.73-8.28-11.2-7,.5-2.47-1.86-3.07-1.4-5.6.32-1.75,4.07-2.88,2.8-9.1-1.61-7.89-26.7-13.92-25.19-73.48,31.14-13.78,52.29-47.21,50.38-81.17,1.76,2.4,2.45,8.06,2.8,11.2Z" style="fill:#190a0b; stroke-width:0px;"/><path d="m911.31,88.2c-.63,37.83-24.77,48.33-32.19,59.48-7.84,11.78-5.68,21.27-9.8,20.29,3.18-53.65,40.36-78.52-1.4-146.95,9.08,11.59,17.83,23.18,24.49,36.39-4.07-39.29,19.42-.55,18.89,30.79Z" style="fill:#561424; stroke-width:0px;"/><path d="m919.7,92.39c1.9,33.96-19.25,67.4-50.38,81.17.05-1.86-.11-3.74,0-5.6,4.11.97,1.95-8.51,9.8-20.29,7.42-11.15,31.56-21.65,32.19-59.48,2.2,1.55,7.41,2.85,8.4,4.2Z" style="fill:#90484a; stroke-width:0px;"/><path d="m954.69,118.99c.04,2.4-3.44,7.49-1.4,20.29.22,1.36,5.02-6.3,4.2,24.49-1.6,15.74-6.79,25.9-7,27.29-.45,2.97,3.12,1.51,2.8,3.5-13.51,12.76-26.16,27.64-43.39,35.69,26.44-36.03,41.59-65.27,39.19-111.26h5.6Z" style="fill:#7a3c3f; stroke-width:0px;"/><path d="m946.29,104.99c-1.21,15.7-1.75,19.95-7,34.99q-18.89,19.59-37.79,39.19c15.36-22.85,24.08-47.57,20.99-75.58l23.79,1.4Z" style="fill:#90484a; stroke-width:0px;"/><path d="m958.89,103.59c1.72,16.29,1.46,31.28,0,47.58-.38,4.22-.97,8.37-1.4,12.6.82-30.79-3.98-23.13-4.2-24.49-2.04-12.81,1.44-17.89,1.4-20.29-.23-15.28-10.85-18.84,4.2-15.4Z" style="fill:#99544e; stroke-width:0px;"/><path d="m939.3,139.98c-8.8,25.2-25.34,43.44-48.98,52.48,3-3.97,8.77-9.69,11.2-13.3q18.89-19.59,37.79-39.19Z" style="fill:#722038; stroke-width:0px;"/><path d="m830.13,536.05c-2.19,3.13-33.51,32.46-35.69,33.59-1.2.62-4.08,2.18-3.5-.7,14.42-22.91-19.85,10.08-30.79,23.09-1.25.27-3.52-.66-4.2-1.4-.37-.4,3.13-3.51-.7-2.8-1.82.34-21.85,17.84-23.79,16.79.34-6.22,8.56-19.98,2.1-19.59,1.66-4.57,2.44-5.95,2.8-11.2,7.63-.71,5.28-5.26,5.6-5.6.96-1.01,3.96,2.36,5.6-4.2,5.09,6.21,31.72-15.88,37.09-15.4,3.53.32,1.36,5.8,4.2,4.2.63-.36,1.53-7.89,5.6-9.8,7.65-3.6,1.9,6.64,7.7-1.4,1.27-1.76,7.33-11.44,9.1-11.2,6.36.89-2.93,16.27,3.5,10.5,21.12-18.97,34.31-81.68,39.89-109.86,3.88,25.04-10.45,84.95-24.49,104.97Z" style="fill:#561424; stroke-width:0px;"/><path d="m732.16,571.04q-.7,9.8-1.4,19.59c-3.48,6.9-6.69,13.01-8.4,9.8-.67-9.61-3.52-21.19,0-30.79,5.36,1.25,3.95,1.42,9.8,1.4Z" style="fill:#722038; stroke-width:0px;"/><path d="m765.75,491.27c.32,8.42.75,9.93-5.6,15.4-23.14-10.01-2.91-10.6-26.59,4.9,12.17-2.26,7.33,27.86.7,27.29-12.92-1.12-1.71-31.07-11.9-35.69-.27-7.07,2.81-26.89,9.1-30.09,13.19-6.72,12.46,20.43,13.3,21.69,7.1,10.71,2.99-22.27,14.7-18.89,4.05,1.17,6.15,11.57,6.3,15.4Z" style="fill:#efe0a7; stroke-width:0px;"/><path d="m782.55,475.87c.34.8-.29,2.88,0,4.2.97,4.41,1.65,6.21,1.4,11.2-.39,7.71-.19,19.94-11.2,11.2-6.06-16.21-2.9-39.57,9.8-26.59Z" style="fill:#efe0a7; stroke-width:0px;"/><path d="m755.96,510.86c1.16,1.92.62,15.68,0,17.49-2.85,8.36-6.79,5.8-7,6.3-9.97-2.78-3.4-40.9,7-23.79Z" style="fill:#efe0a7; stroke-width:0px;"/><path d="m650.99,470.27c1.49.61,2.69.93,4.2,1.4.17.05.82,2.46,2.1,2.8,3.22.86,11.76-7.01,18.19,5.6.54-.05,2.11-7.32,7-8.4,11.96-2.63,7.43,15.29,26.59-8.4l12.6,14c6.01-8.04,12.81-6.89,13.3-7.7.52-.86-.31-6.56,0-9.1,3.95,4.92,5.46,10.33,11.2,14,.2.13-.98,3.26,2.1,2.8,11.57-1.73,5.53-26.36,7-26.59,1.2,25.65,12.68,30.49,18.89,18.19,5.68,2.74,5.57.4,8.4,7-12.69-12.98-15.85,10.38-9.8,26.59-7.92-6.29-1.3-14.85-7-11.2-.15-3.83-2.25-14.23-6.3-15.4-11.7-3.38-7.6,29.6-14.7,18.89-.83-1.26-.1-28.42-13.3-21.69-6.28,3.2-9.37,23.02-9.1,30.09,10.18,4.62-1.02,34.57,11.9,35.69,6.63.57,11.47-29.55-.7-27.29,23.68-15.5,3.45-14.91,26.59-4.9-2.7,2.32-4.82.6-4.2,4.2-10.4-17.11-16.97,21.02-7,23.79-.12.29-1.34,3.98-1.4,4.2-10.91-7.49-9.05,11.08-5.6,29.39-.32.34,2.03,4.89-5.6,5.6.11-1.64,3.42-2.48-.7-5.6-1.09.82-2.07,2.79-3.5,2.8-5.84.02-4.44-.15-9.8-1.4-.55-.13-2.46-7.02-5.6,4.2q-6.3-1.4-12.6-2.8c-1.51-5.33-4.17-.37-4.2-6.3,15.66-32.31-14.04-40.31-7-2.8.09.49,2.74,2.51,4.2,9.1h-2.8c-4.35-16.69-5.05,5.14-25.19-9.1,3.17-17.71,13.92-85.76-13.3-44.09-4.32-18.96-10.44-7.84-11.2-8.4-.8-.6-1.08-15.11-12.6-7-1.59-9.99-7.03-2.06-11.9-7,3.65-3.21,7.39,5.76,11.2-9.1,4.44-17.32,2.49-36.52,0-53.88,10.64,22.65-6.52,27.15,19.59,37.79Z" style="fill:#23211e; stroke-width:0px;"/><path d="m683.18,508.06c-1.8,1.17-3.18,3.1-5.6,2.8-1.51-11.64-16.76-10.85-20.29-1.4l-24.49-16.09c-1.35-30.82,12.69-36.53,11.9-10.5,6.31-17.71,10.8-8.28,12.6,5.6,7.19-25.23,16.16-8.96,15.4,8.4,12.42-48.19,31.17-2.29,10.5,11.2Z" style="fill:#efe0a7; stroke-width:0px;"/><path d="m704.87,471.67c5.91-1.81,10.18,4.01,11.9,9.1,10.22,30.25-7.04,15.17-16.09,32.89-.9-7.27-8.69-8.85-9.1-10.5-.42-1.68,9.61-30.36,13.3-31.49Z" style="fill:#efe0a7; stroke-width:0px;"/><path d="m710.47,506.66c19.1-5.27,16.79,40.97-4.2,30.79-13.03-6.31-2.73-28.88,4.2-30.79Z" style="fill:#efe0a7; stroke-width:0px;"/><path d="m677.58,510.86c2.42.3,3.8-1.62,5.6-2.8,19.5-3.7,18.62,33.9,2.1,29.39-12.5-3.41-7.35-23.9-7.7-26.59Z" style="fill:#efe0a7; stroke-width:0px;"/><path d="m675.48,536.05c3.33-1.57,14.33,2.27,11.9,18.89-4.38,29.88-21.06-14.58-11.9-18.89Z" style="fill:#efe0a7; stroke-width:0px;"/><path d="m727.26,537.45c20.01-3.79-1.44,61.86-3.5,14.7-.16-3.75-.93-13.86,3.5-14.7Z" style="fill:#efe0a7; stroke-width:0px;"/><path d="m717.47,540.25c4.3,1.47,1.41,24.13-.7,27.29-7.35,11.05-15.81-32.94.7-27.29Z" style="fill:#efe0a7; stroke-width:0px;"/><path d="m747.56,538.85c-1.31,5.05,1.3,19.98,0,25.19-1.64,6.56-4.64,3.19-5.6,4.2-3.45-18.31-5.31-36.88,5.6-29.39Z" style="fill:#efe0a7; stroke-width:0px;"/><path d="m736.36,573.84c-.36,5.24-1.14,6.63-2.8,11.2-.68,1.86-1.89,3.8-2.8,5.6q.7-9.8,1.4-19.59c1.43,0,2.41-1.98,3.5-2.8,4.12,3.12.81,3.96.7,5.6Z" style="fill:#efe0a7; stroke-width:0px;"/><path d="m856.72,390.5c.36.03,4.49,1.03,7,1.4,4.63,1.76,15.46,5.58,15.4,8.4-2.83,1.05-6.45,1.44-8.4,4.2-7.57-.04-11.57.08-18.89-2.8-2.73.86-4.59,4.09-4.9,4.2-.56.19-2.05-.53-5.6,1.4-.33-7.42-21.15,2.55-28.69,8.4-11.84,9.19-20.12,24.16-20.29,39.19-.69-13.69-2.03-17.84,4.2-30.79,11.43-23.78,34.87-35.67,60.18-33.59Z" style="fill:#efe0a7; stroke-width:0px;"/><path d="m804.94,387.7c-14.44,15.26-8.22,16.96-8.4,18.19-.86,6.14-2.23,12.04,0,18.19-6.23,12.95-4.89,17.1-4.2,30.79.04.72,5.68,8.36-4.2,11.2q-1.4-23.79-2.8-47.58v-5.6c5.58-11.92,9.64-17.12,19.59-25.19Z" style="fill:#90484a; stroke-width:0px;"/><path d="m785.35,418.49q1.4,23.79,2.8,47.58c-4.24,1.22-7.72-1.33-8.4-1.4-2.42-11.39-2.07-27.77,0-39.19.72-4,1.31-6.02,2.8-9.8l2.8,2.8Z" style="fill:#eecda9; stroke-width:0px;"/><path d="m799.34,471.67l1.4,18.19c-7.72,4.46-9.99,8.87-16.79,1.4.26-4.99-.43-6.79-1.4-11.2,5.22-7.62,9.5-6.47,16.79-8.4Z" style="fill:#722038; stroke-width:0px;"/><path d="m810.54,468.87c-.05,4.66.04,9.33,0,14-2.74,2.92-6.37,5.02-9.8,7l-1.4-18.19c.56-.15,4.47-3.79,11.2-2.8Z" style="fill:#4d102d; stroke-width:0px;"/><path d="m785.35,418.49l-2.8-2.8c1.08-2.73,2.72-2.62,2.8-2.8v5.6Z" style="fill:#dcaba8; stroke-width:0px;"/><path d="m694.38,571.04c.41,1.57,1.22,17.76,1.4,22.39l-1.4,1.4c-50.76-41.51-6.49,4.93,7.7,26.59,6.5-17.37-1.21-33.76-4.9-50.38-1.46-6.59-4.11-8.6-4.2-9.1-7.04-37.51,22.66-29.51,7,2.8.03,5.92,2.69.97,4.2,6.3,3.18,11.24,6.77,22.76,11.2,33.59-.03,1.11,2.82,13.95,2.8,14.7-.78,28.95-9.4,2.07-16.79,17.49-6.19,2.31-10.4,7.62-15.4,7-5.19-.64-77.63-58.96-81.17-65.78l-1.4-2.8q7.7-4.2,15.4-8.4c15.88,12.78,7.09-.06,1.4-19.59-3.1-10.64-5.79-10.44-5.6-23.79,22.29,19.75,29.72,12.72,24.49,9.8-1.33-.75-21.5-2.1-21.69-17.49-.17-13.8,18.26,4.18,34.99,15.4,5.42,33.51,15.6,43.99,2.8,2.8,27.86-1.39-8.4-5.3-10.5-16.09-9.42,7.48-11.59-11.13-12.6-11.2-.72-.04-1.05,10.32-9.8,1.4-4.25-4.34-4.64-5.05-2.1-11.2.18-.44-.22-1.21,0-1.4,4.87,4.93,10.31-2.99,11.9,7,11.51-8.11,11.8,6.4,12.6,7,.75.56,6.88-10.57,11.2,8.4,27.22-41.67,16.47,26.37,13.3,44.09,20.14,14.24,20.84-7.59,25.19,9.1Z" style="fill:#efe0a7; stroke-width:0px;"/><path d="m697.17,571.04c3.69,16.62,11.4,33.01,4.9,50.38-14.19-21.67-58.46-68.11-7.7-26.59,5.04,6.32,1.41-1.04,1.4-1.4-.18-4.63-.99-20.82-1.4-22.39h2.8Z" style="fill:#693546; stroke-width:0px;"/><path d="m716.77,573.84c-1.83,6.54-1.21,22.64-1.4,30.79-4.42-10.83-8.02-22.35-11.2-33.59q6.3,1.4,12.6,2.8Z" style="fill:#722038; stroke-width:0px;"/><path d="m640.49,558.44c9.89,11.78,21.33,23.03,30.09,35.69,26.4,38.17-1.72,15.47-12.6,1.4-5.77-7.47-14.88-27.23-17.49-37.09Z" style="fill:#693546; stroke-width:0px;"/><path d="m620.2,547.25c5.69,19.53,14.48,32.38-1.4,19.59q-.7-10.15-1.4-20.29l2.8.7Z" style="fill:#250f23; stroke-width:0px;"/><path d="m620.2,496.86c-2.54,6.14-2.15,6.86,2.1,11.2,8.75,8.92,9.08-1.44,9.8-1.4,1.01.06,3.18,18.67,12.6,11.2,2.1,10.8,38.35,14.7,10.5,16.09,12.8,41.19,2.62,30.71-2.8-2.8-16.73-11.22-35.16-29.19-34.99-15.4.2,15.4,20.36,16.75,21.69,17.49,5.23,2.92-2.2,9.95-24.49-9.8,0-.47-.02-.93,0-1.4,0-.14,2.74.45,2.8-.7.34-7.08-2.6-20.97,2.8-24.49Z" style="fill:#251e13; stroke-width:0px;"/><path d="m643.29,533.25c17.27,19.2,7.59,18.38,2.1,9.1-.65-1.09-3.35-8.67-2.1-9.1Z" style="fill:#251e13; stroke-width:0px;"/><path d="m694.38,594.83l1.4-1.4c.01.36,3.64,7.72-1.4,1.4Z" style="fill:#ba8684; stroke-width:0px;"/><path d="m881.92,397.5c.54,3.86-1.6,2.35-2.8,2.8.07-2.82-10.77-6.64-15.4-8.4,10.1,1.5,15.1,5.09,18.19,5.6Z" style="fill:#987c50; stroke-width:0px;"/><path d="m858.12,389.1l-1.4,1.4c-25.31-2.08-48.75,9.8-60.18,33.59-2.23-6.16-.86-12.05,0-18.19,18.95-22.91,34.09-25.29,61.58-16.79Z" style="fill:#190a0b; stroke-width:0px;"/><path d="m863.72,391.9c-2.5-.37-6.64-1.37-7-1.4l1.4-1.4c5.1,1.58,5.31,2.69,5.6,2.8Z" style="fill:#987c50; stroke-width:0px;"/><path d="m811.94,492.66c-37.18,11.6-13.85,40.85-9.1,8.4,14.73,13.34-3.59,31.7-2.8,14-3.52,6.18-19.23,29.14-3.5,20.99l5.6,5.6c-5.8,8.04-.05-2.2-7.7,1.4-4.06,1.91-4.97,9.44-5.6,9.8-2.83,1.6-.67-3.88-4.2-4.2-5.37-.49-32,21.6-37.09,15.4,1.3-5.22-1.31-20.14,0-25.19.06-.22,1.28-3.91,1.4-4.2.21-.49,4.15,2.06,7-6.3.62-1.81,1.16-15.58,0-17.49-.62-3.6,1.5-1.88,4.2-4.2,6.35-5.46,5.92-6.98,5.6-15.4,5.7-3.65-.92,4.9,7,11.2,11.01,8.75,10.8-3.49,11.2-11.2,6.81,7.47,9.07,3.06,16.79-1.4,3.42-1.98,7.06-4.08,9.8-7,2.16-.22,1.36,4.49,1.4,9.8Z" style="fill:#190a0b; stroke-width:0px;"/><path d="m811.94,492.66c.04,4.4,1.38,4.76,1.4,5.6.18,7.61-.38,15.46,0,23.09-3.03,2.57-15.8,14.18-16.79,14.7-15.73,8.14-.02-14.81,3.5-20.99-.79,17.71,17.53-.66,2.8-14-4.76,32.46-28.08,3.2,9.1-8.4Z" style="fill:#561424; stroke-width:0px;"/><path d="m774.85,530.45c3.01.41,1.05,14.05.7,14.7-9.83,18.1-9.26-15.87-.7-14.7Z" style="fill:#561424; stroke-width:0px;"/><path d="m784.65,527.65c2.83,7.26-1.54,17.31-4.2,15.4-2.06-1.49,1.45-13.73,4.2-15.4Z" style="fill:#722038; stroke-width:0px;"/><path d="m766.45,503.86c3.34-.82,5.77,14.95,4.9,18.89-3.13,14.08-15.35,2.23-4.9-18.89Z" style="fill:#efe0a7; stroke-width:0px;"/><path d="m756.66,536.05c4.2-1.01,3.6,6.52,3.5,9.1-1.32,32.67-11.07-7.27-3.5-9.1Z" style="fill:#eecda9; stroke-width:0px;"/><path d="m781.85,508.06c3.52,0,2.3,8.32,1.4,12.6-3.07,2.38-5.45-12.6-1.4-12.6Z" style="fill:#e6b596; stroke-width:0px;"/></g></svg>