<?xml version="1.0" encoding="UTF-8"?><svg id="b" xmlns="http://www.w3.org/2000/svg" xmlns:xlink="http://www.w3.org/1999/xlink" viewBox="0 0 522.71 522.71"><defs><linearGradient id="e" x1="430.49" y1="441.34" x2="435.86" y2="453.48" gradientUnits="userSpaceOnUse"><stop offset="0" stop-color="#016d70"/><stop offset="1" stop-color="#004a4e"/></linearGradient><linearGradient id="f" x1="269.28" y1="161.71" x2="320.96" y2="252.7" gradientUnits="userSpaceOnUse"><stop offset="0" stop-color="#015e65"/><stop offset=".71" stop-color="#161c27"/></linearGradient><linearGradient id="g" x1="149.02" y1="351.9" x2="166.18" y2="354.47" gradientUnits="userSpaceOnUse"><stop offset="0" stop-color="#d24666"/><stop offset="1" stop-color="#8c1c42"/></linearGradient><linearGradient id="h" x1="243.91" y1="412.42" x2="246.07" y2="429.64" gradientUnits="userSpaceOnUse"><stop offset="0" stop-color="#3e332a"/><stop offset="1" stop-color="#54462b"/></linearGradient></defs><g id="c"><g id="d"><rect width="522.71" height="522.71" style="fill:#181d26; stroke-width:0px;"/><path d="m522.71,0v522.71H0V0h522.71Z" style="fill:#181d26; stroke-width:0px;"/><path d="m421.64,452.78c-.89-7.82,4.55-1.11,5.1-14.29,11.69-8.21,22.89,3.32,18.38,14.55-3.12,7.74-19.33,12.37-23.48-.26Z" style="fill:url(#e); stroke-width:0px;"/><path d="m153.65,70.44c.82,7.35-3.09,12.42-8.17,17.36-2.03-.54-3.75-1.96-5.1-3.57,2.84-3.58,10.72-8.29,6.64-12.76-.44-.49-2.27-1.36-3.06-1.53,4.01-1.66,5.85-2.17,9.7.51Z" style="fill:#015e5f; stroke-width:0px;"/><path d="m81.16,159.26c4.43,3.97,10.32,9.09,4.08-.51,4.39,1.74,10,15.82,4.34,15.82-.78,0-10.78-10.22-10.97-10.97-.63-2.46.84-3.38,2.55-4.34Z" style="fill:#0cb5ac; stroke-width:0px;"/><path d="m145.48,87.8c5.08-4.94,8.99-10.01,8.17-17.36,7.05,4.9,6.11,21.18-8.17,17.36Z" style="fill:#014d53; stroke-width:0px;"/><path d="m110.77,53.09c3.92,2.24,7.47,1.17,5.62-3.57,1.5.32,2.7,1.06,3.57,2.3,7.14,10.18-12.63,14.21-9.19,1.28Z" style="fill:#015e5f; stroke-width:0px;"/><path d="m140.38,84.23c-3.7-4.39-3.53-7.57,0-11.74.49,3.53,4.1-.19,6.64-1.02,4.09,4.47-3.8,9.18-6.64,12.76Z" style="fill:#11a29e; stroke-width:0px;"/><path d="m184.53,464.52c6.91-1.42,8.51,9.14,2.55,10.21-6.74,1.21-7.97-9.1-2.55-10.21Z" style="fill:#b53d5c; stroke-width:0px;"/><path d="m66.62,71.97c1.59-.54,21.47,20.64,24.25,23.23l-.77.77c-5.02-5.56-20.44-16.8-22.46-18.89-1.45-1.51-3.49-4.27-1.02-5.1Z" style="fill:#18c9c8; stroke-width:0px;"/><path d="m118.68,78.61c7.69-1.58,7.96,11.26-.51,9.19-4.17-1.02-3.53-8.36.51-9.19Z" style="fill:#ca4a63; stroke-width:0px;"/><path d="m300.92,28.08c6.17-.64,6.88,8.7,2.04,9.7-6.79,1.4-7.53-9.13-2.04-9.7Z" style="fill:#fac441; stroke-width:0px;"/><path d="m155.95,482.9c3.41-.02,7.51,5.7,2.55,8.68-7.74,4.65-10.11-8.63-2.55-8.68Z" style="fill:#026e6a; stroke-width:0px;"/><path d="m81.42,181.21c6.84-2.09,8.26,8.97,1.02,8.17-4.44-.49-3.92-7.28-1.02-8.17Z" style="fill:#18c9c8; stroke-width:0px;"/><path d="m399.95,474.22c5.71-.89,5.59,9.12,0,8.17-3.89-.67-3.9-7.56,0-8.17Z" style="fill:#cf3b71; stroke-width:0px;"/><path d="m81.67,400.2c6.1,1.81,5.32-2.23,6.13-7.15,9.87,3.38-2.2,16.41-6.13,7.15Z" style="fill:#026e6a; stroke-width:0px;"/><path d="m87.8,393.05c-.81,4.92-.02,8.96-6.13,7.15-1.98-4.68,1.34-8.79,6.13-7.15Z" style="fill:#18c9c8; stroke-width:0px;"/><path d="m86.52,34.71c5.62-1.93,6.53,6.68,2.04,7.15-4.06.42-4.97-6.14-2.04-7.15Z" style="fill:#e6ca38; stroke-width:0px;"/><path d="m59.47,195.51c5.69-.97,4.89,8.66-1.02,6.64-2.64-.9-1.98-6.13,1.02-6.64Z" style="fill:#18c9c8; stroke-width:0px;"/><path d="m421.64,452.78c-1.83-5.56-.3-10.5,5.1-14.29-.55,13.18-6,6.47-5.1,14.29Z" style="fill:#14ebf1; stroke-width:0px;"/><path d="m229.2,30.12c2.94.91,5.14-.45,4.59-3.57,2.89.43,4.17,4.52,1.79,6.64-2.72,2.41-6.38-.6-6.38-3.06Z" style="fill:#cf3b71; stroke-width:0px;"/><path d="m468.86,421.64c5.72-1.3,5.85,11.06-.51,7.66-3.03-1.62-1.78-7.13.51-7.66Z" style="fill:#8b2747; stroke-width:0px;"/><path d="m171.26,448.69c3.27-.19,3.88,5.17.51,5.62-4.13.55-3.85-5.42-.51-5.62Z" style="fill:#18c9c8; stroke-width:0px;"/><path d="m473.45,409.9c.09,0,1.28,1.19,1.28,1.28,0,.56-6.86,8.28-7.4,8.42-4.88,1.28,5.42-9.7,6.13-9.7Z" style="fill:#18c9c8; stroke-width:0px;"/><path d="m463.75,138.85c3.33.17,1.99,6.22-1.02,5.62-2.49-.5-2.37-5.79,1.02-5.62Z" style="fill:#18c9c8; stroke-width:0px;"/><path d="m62.53,419.09c3.25-.94,4.45,4.44,1.53,5.1-3.49.79-4.13-4.35-1.53-5.1Z" style="fill:#18c9c8; stroke-width:0px;"/><path d="m427.51,345.58c3.26-.65,3.96,3.82,1.53,4.59-3.71,1.19-4.34-4.03-1.53-4.59Z" style="fill:#18c9c8; stroke-width:0px;"/><path d="m460.18,400.71c3.52-.13,2.76,5.2.51,5.62-3.05.57-4.09-5.49-.51-5.62Z" style="fill:#741535; stroke-width:0px;"/><path d="m143.95,69.93c.79.18,2.62,1.04,3.06,1.53-2.54.83-6.14,4.56-6.64,1.02,1.62-1.91,1.32-1.62,3.57-2.55Z" style="fill:#e1f9fb; stroke-width:0px;"/><path d="m66.62,345.58c3.95-1.36,3.6,4.91.51,4.59-2.24-.23-2.41-3.94-.51-4.59Z" style="fill:#18c9c8; stroke-width:0px;"/><path d="m376.98,32.16c3.03-1.04,4.42,3.25,2.04,4.08-3.15,1.11-4.54-3.23-2.04-4.08Z" style="fill:#18c9c8; stroke-width:0px;"/><path d="m72.74,209.29c3.5-1.61,4.46,3.34,2.04,4.08-2.57.79-3.92-3.22-2.04-4.08Z" style="fill:#18c9c8; stroke-width:0px;"/><path d="m410.67,457.37c4.19-1.06,3.68,5.07,1.53,5.62-2.41.61-4.63-4.83-1.53-5.62Z" style="fill:#741535; stroke-width:0px;"/><path d="m415.77,476.26c2.83-.87,3.81,3.39,1.53,4.08-2.83.87-3.81-3.39-1.53-4.08Z" style="fill:#06aab8; stroke-width:0px;"/><path d="m70.19,148.03c2.7-.31,2.96,3.49,1.02,4.08-2.95.9-3.96-3.75-1.02-4.08Z" style="fill:#18c9c8; stroke-width:0px;"/><path d="m233.79,26.54c.55,3.12-1.65,4.48-4.59,3.57,0-2.46,2.48-3.88,4.59-3.57Z" style="fill:#f3d0e6; stroke-width:0px;"/><path d="m54.36,132.72c2.93-.84,3.58,3.68,1.02,4.08-2.61.41-3.01-3.51-1.02-4.08Z" style="fill:#0cb5ac; stroke-width:0px;"/><path d="m42.11,215.92c4.22-1.44,2.85,4.3.51,4.08-1.09-.1-2.85-3.29-.51-4.08Z" style="fill:#18c9c8; stroke-width:0px;"/><path d="m116.39,49.51c1.85,4.75-1.7,5.81-5.62,3.57.39-1.47.59-2.28,2.04-3.06-3.09,4.36,4.56,4.02,2.55-.51.33,0,.72-.06,1.02,0Z" style="fill:#11a29e; stroke-width:0px;"/><path d="m205.46,38.8c3.31-1.13,3.57,2.95,1.53,3.57-2.54.78-3.87-2.78-1.53-3.57Z" style="fill:#10cfe9; stroke-width:0px;"/><path d="m115.36,49.51c2.01,4.53-5.64,4.87-2.55.51,1.07-.58,1.38-.51,2.55-.51Z" style="fill:#93f7f8; stroke-width:0px;"/><path d="m104.39,62.79c3.24-.94,3.11,3.26,1.02,3.57-1.82.27-3.2-2.94-1.02-3.57Z" style="fill:#18c9c8; stroke-width:0px;"/><path d="m442.82,348.64c2.06-.13,2.48,2.89,1.02,3.57-2.6,1.22-3.72-3.41-1.02-3.57Z" style="fill:#10cfe9; stroke-width:0px;"/><path d="m45.69,63.3c2.27-.56,3.08,3.06,1.02,3.57-2.27.56-3.08-3.06-1.02-3.57Z" style="fill:#0cb5ac; stroke-width:0px;"/><path d="m94.18,68.91c2.08-.42,2.41,2.41,1.02,3.06-2.44,1.15-2.99-2.67-1.02-3.06Z" style="fill:#14ebf1; stroke-width:0px;"/><path d="m42.11,125.57c2.08-.42,2.41,2.41,1.02,3.06-2.44,1.15-2.99-2.67-1.02-3.06Z" style="fill:#0cb5ac; stroke-width:0px;"/><path d="m64.57,401.22c1.95-.56,2.47,2.45,1.02,3.06-1.84.78-2.88-2.53-1.02-3.06Z" style="fill:#18c9c8; stroke-width:0px;"/><path d="m58.96,336.9c1.78-.25,2.21,2.82.51,3.06-1.78.25-2.21-2.82-.51-3.06Z" style="fill:#10cfe9; stroke-width:0px;"/><path d="m65.08,173.05c1.89-.39,2.44,1.92,1.02,2.55-2.32,1.03-2.9-2.17-1.02-2.55Z" style="fill:#14ebf1; stroke-width:0px;"/><path d="m81.42,121.49c1.89-.39,2.44,1.92,1.02,2.55-2.32,1.03-2.9-2.17-1.02-2.55Z" style="fill:#18c9c8; stroke-width:0px;"/><path d="m103.88,28.08c1.64-.62,2.56,1.97,1.02,2.55-1.64.62-2.56-1.97-1.02-2.55Z" style="fill:#18c9c8; stroke-width:0px;"/><path d="m480.09,345.07c2.58-1.01,1.54,3,0,2.55-.97-.28-1.08-2.13,0-2.55Z" style="fill:#0fbac1; stroke-width:0px;"/><path d="m359.62,446.14c2.15-.7,2.27,2.64.51,2.55-.53-.03-2.06-2.04-.51-2.55Z" style="fill:#14ebf1; stroke-width:0px;"/><path d="m478.05,128.13c.18,0,1.12.73.26,1.28-.97.61-1.14-1.28-.26-1.28Z" style="fill:#51a2b9; stroke-width:0px;"/><path d="m394.59,121.49c-1.36-5.3-3.14-9.95-6.64-14.29,5.16-4.81,11.78-9.77,16.33-15.06,2.89-3.36,9.48-16.55,14.29-15.57,4.74.97,4.94,13.6,4.59,17.1-.98,9.85-14.42,39.06-27.05,39.31.41-4.04-.54-7.63-1.53-11.49Z" style="fill:#053d46; stroke-width:0px;"/><path d="m79.38,452.27c18.29-2.84,21.51,22.92,5.1,25.52-21.14,3.36-20.56-23.12-5.1-25.52Z" style="fill:#181d26; stroke-width:0px;"/><path d="m156.46,484.43c1.56-.07,3.3,3.63,2.04,4.59-2.33,1.78-5.67-4.44-2.04-4.59Z" style="fill:#0fbac1; stroke-width:0px;"/><path d="m469.37,423.17c3-.82,2.54,5.02,1.02,5.1-2.3.13-3.09-4.54-1.02-5.1Z" style="fill:#da5291; stroke-width:0px;"/><path d="m460.18,402.24c1.54-.33,1.5,2.9,0,2.55-1.02-.24-.99-2.34,0-2.55Z" style="fill:#c74f96; stroke-width:0px;"/><path d="m411.18,458.39c1.5-.13,2.01,2.63,1.02,3.06-2.68,1.18-2.75-2.91-1.02-3.06Z" style="fill:#a72f65; stroke-width:0px;"/></g><path d="m408.11,488.51c8.5-2,7.11,12.76-.51,9.19-3.7-1.74-2.68-8.44.51-9.19Z" style="fill:#cf3b71; stroke-width:0px;"/><path d="m77.08,299.64c4.98-3.98,7.52-.23,8.68-7.66,8.65-.56,13.37,4.4,10.72,13.02-2.85,9.24-23.34,12.63-19.4-5.36Z" style="fill:#014d53; stroke-width:0px;"/><path d="m85.76,291.98c-1.15,7.43-3.7,3.68-8.68,7.66,1.08-4.95,3.61-7.33,8.68-7.66Z" style="fill:#0fbac1; stroke-width:0px;"/><path d="m316.49,472.69c-2.19-1.33-4.61,4.43-1.28,4.59,2.02.1,2.33-3.95,1.28-4.59,4.38,3.32-.92,8.21-3.83,5.1-1.92-2.05.22-7.84,3.83-5.1Z" style="fill:#741535; stroke-width:0px;"/><path d="m85.25,158.75c6.23,9.6.35,4.48-4.08.51,1.86-1.04,1.6-1.49,4.08-.51Z" style="fill:#039aa5; stroke-width:0px;"/><path d="m441.29,320.57c3.2-1.09,4.5,3.25,2.04,4.08-3.2,1.09-4.5-3.25-2.04-4.08Z" style="fill:#18c9c8; stroke-width:0px;"/><path d="m418.58,76.57c-4.82-.98-11.4,12.21-14.29,15.57-4.56,5.29-11.17,10.25-16.33,15.06-2.19-2.72-6.13-5.86-9.19-7.66-6.53-7.15-25.79-12.1-22.97-21.95,9.05-3.72,33.39-19.37,40.84-19.4,7.15-.03,26.51,7.89,21.95,18.38Z" style="fill:#11a29e; stroke-width:0px;"/><path d="m71.97,378.25c2.09-.24,4.06.67,6.13,1.02.05,0-.17.98.26,1.02,12.43,1.29,14.11-13.25,9.95-21.95,6.42,1.87,11.13,12.42,4.08,20.67-5.36,6.27-16.34,7.4-20.42-.77Z" style="fill:#014d53; stroke-width:0px;"/><path d="m75.04,362.94c-5.59,14.53,13.53,2.81,7.15-2.04.35.04,3.23-1.65,4.59,3.83.7,2.82-.13,4.26-1.02,6.89l-7.4,4.08c-2.39-3.76-7.01.42-7.91-6.64.41-2.97,2.75-6.81,5.1-8.68,1.71-.19,0,1.23-.51,2.55Z" style="fill:#0cb5ac; stroke-width:0px;"/><path d="m88.31,358.34c4.15,8.7,2.48,23.24-9.95,21.95-.42-.04-.2-1.01-.26-1.02,5.14-1.78,6.13-3.18,7.66-7.66.89-2.63,1.72-4.07,1.02-6.89-1.36-5.47-4.25-3.79-4.59-3.83-3.49-.42-4.28-.81-7.15,2.04.51-1.33,2.22-2.74.51-2.55,3.68-2.92,8.25-3.36,12.76-2.04Z" style="fill:#015e5f; stroke-width:0px;"/><path d="m85.76,371.62c-1.53,4.48-2.51,5.88-7.66,7.66-2.07-.35-4.03-1.26-6.13-1.02-1.57-3.14-2.03-5.52-1.53-9.19.9,7.06,5.52,2.88,7.91,6.64l7.4-4.08Z" style="fill:#11a29e; stroke-width:0px;"/><path d="m82.18,360.9c6.38,4.86-12.73,16.57-7.15,2.04,2.87-2.85,3.66-2.46,7.15-2.04Z" style="fill:#fdfcfa; stroke-width:0px;"/><path d="m100.31,282.28c4.52-.25,5.95,6.8,1.53,7.66-5.67,1.1-6.38-7.38-1.53-7.66Z" style="fill:#7e7528; stroke-width:0px;"/><path d="m100.82,283.31c.31.06,3.68,4.43,1.02,5.1-4.45,1.14-3.3-5.52-1.02-5.1Z" style="fill:#e5de4d; stroke-width:0px;"/><path d="m109.24,163.86c-.08-1.81-.48-2.42-.51-3.06-.03-.58.04-1.72,0-2.55-.33-7.43-1.7-16.3-.51-23.48.9-5.43,6.02-16.7,9.7-20.93,1.2-1.38,3.14-2.92,4.59-4.08,15.28-12.24,34.18-10.14,44.92-29.86,4.39-8.06,2.89-8.96,3.06-9.44.08-.23,1.05.42,2.55-4.08.04.14,1.12,1.13,1.53,2.55,1.93,6.63,3.93,7.19-3.06,16.08l.77.77c7.62-2.6,52.55-26.9,55.64-27.05,1.77-.09,2.42,1.43,2.81,2.81-19.36,8.36-37.26,19.67-55.9,29.35-29.46,15.3-57.4,18.02-63.55,56.41-.81,5.08-.37,15.38-2.04,16.59Z" style="fill:#fdfcfa; stroke-width:0px;"/><path d="m409.9,251.66c.91,2.03,3.04,3.21,3.06,4.59-4.79,5.68-9.06,11.89-16.85,13.02.09,3.93-3.81,15.05-5.62,19.91-1.55,4.17-12.25,28-12.25,29.61,0,3.97,9.01-14.42,11.74-12.51-.81-.05-.39.85-.51,1.02-2.64,3.75-4.6,7.99-7.66,11.49-1,17.35-.23,5.36,4.08-1.28-2.82,7.82-3.44,14.32-4.08,16.08-2.45,6.64-12.7,11.37-5.1,35.48-5.66,4.31-.99,19.24-10.21,27.56,1.17-2.51,3.57-9.83,4.08-12.51,3.87-20.12-3.52-38.14-.51-50.03.18-.7,3-3.35,3.06-3.57.44-1.62-.29-8.87,0-12.25.18-2.15,2.05-8.23,2.04-9.19,0-.4-2.37-5.84-2.04-7.66.06-.35,3-3.94,4.08-5.87,3.5-6.23,7.37-11.97,8.17-19.4,5.93-9.21,15.69-18.74,24.5-24.5Z" style="fill:#cf9a48; stroke-width:0px;"/><path d="m396.63,58.19c-7.44.03-31.79,15.68-40.84,19.4-3.46,1.42-9.17,3.91-12.76,4.08,3.6-4.93,8.37-8.62,12.76-12.76,9.18-2.27,43.25-30.65,40.84-10.72Z" style="fill:#fdfcfa; stroke-width:0px;"/><path d="m455.08,110.26c.18,0,1.83,1.01,1.28,2.81-.36,1.16-12.76,17.68-13.27,20.42-1.29,6.92,7.98,14.52-6.38,7.91-7.84,12.05-13.7,30.36-12.51,9.95,3.39-4.63,28.31-41.1,30.88-41.09Z" style="fill:#11a29e; stroke-width:0px;"/><path d="m407.86,294.54c-.37,1.89-12.49,15.08-11.74,19.4-.67.95-1.46,1.79-2.04,2.81.37,3.89.45,7.05,0,10.97-1.65-8.71-5.19,2.8-10.21,7.15q6.64-21.57,13.27-43.13c1.62-.06,4.98,5.32,5.36,5.36.52.05,1.75-3.62,3.32-3.83-10.09-21.82,3.48-6.11,2.04,1.28Z" style="fill:#11a29e; stroke-width:0px;"/><path d="m396.12,313.93c-.75-4.32,11.37-17.51,11.74-19.4,3.64-2.49,9.64-2.64,13.02-5.1,2.2-1.6,6.85-12.56,6.38-3.83-.56,10.4-11.61,10.21-18.12,15.06-.75.56-12.48,12.51-13.02,13.27Z" style="fill:#bf9c50; stroke-width:0px;"/><path d="m377.74,344.56c-.85,4.82-.37,19.3,0,25.01-.23-.07-1-.46-1.02-.51-7.6-24.1,2.66-28.83,5.1-35.48.65-1.76,1.26-8.26,4.08-16.08,1.26-3.5,3.9-6.45,3.57-10.21.12-.17-.3-1.07.51-1.02,1.91,1.33-3.61,15.62-4.59,18.63-1.03,3.17-1.82,6.85-2.04,10.21-.98,1.77-5.97,7.68-6.13,8.17-.41,1.28.52,1.21.51,1.28Z" style="fill:#2a3131; stroke-width:0px;"/><path d="m321.59,65.34c-19.65,22.84-.43-4.06-2.04-9.44-.18-.61-.59.31-1.02.26,3.07-9.42-2.07-20.04,2.04-15.57.19.2,2.48,4.34,2.55,4.59,2.52,9.36-2.07,15.24-1.53,20.16Z" style="fill:#fdfcfa; stroke-width:0px;"/><path d="m180.7,40.84c3.85-8.18-11.84,10.04-13.27,15.57-.54,2.1-.04,5.96-1.02,7.91-7.08-16.02,10.78-22.95,18.12-35.22,3.31,4.48-1.67,8.1-3.83,11.74Z" style="fill:#fdfcfa; stroke-width:0px;"/><path d="m180.7,40.84c-7.1,11.97-11.23,13.05-7.66,25.52-1.5,4.51-2.47,3.86-2.55,4.08-1.4-1.9-3.13-3.96-4.08-6.13.98-1.96.48-5.82,1.02-7.91,1.44-5.53,17.13-23.75,13.27-15.57Z" style="fill:#ddbb59; stroke-width:0px;"/><path d="m436.7,161.82c5.34-1.91,1.07,15.93-2.04,17.36-11.39,5.22.36-16.75,2.04-17.36Z" style="fill:#ca4a63; stroke-width:0px;"/><path d="m70.7,309.85c.19-.15,4.23,2.08,4.34,2.3.16.33-.21,4.11,1.53,7.15.91,1.59,12.48,9.39,9.95,10.46-13.8-.53-17.38-18.7-15.82-19.91Z" style="fill:#0cb5ac; stroke-width:0px;"/><path d="m430.83,279.73s.4-.41.51-.51c4.49-4.17,1.1,3.28,1.02,5.36-.31,8.15,2.81,7.1,1.28,8.42-15.54,5.09-6.42,0-4.85-4.34.78-2.16.2-6.13,2.04-8.93Z" style="fill:#cf9a48; stroke-width:0px;"/><path d="m81.42,337.92c2.48,2.7,21.4,19.7,21.69,21.18.17.86-.12,1.27-.77,1.79-2.34-2.97-20.81-20.23-21.18-21.69-.09-.34-.11-1.08.26-1.28Z" style="fill:#0cb5ac; stroke-width:0px;"/><path d="m208.27,63.3c9.15-6.36,19.51-13.76,30.12-17.36-.2.42-2.15,2.46-2.3,2.55-6.99,4.34-19.99,10.61-27.82,14.8Z" style="fill:#a4d6da; stroke-width:0px;"/><path d="m462.73,259.82c1.63,7.73-12.29,15.77-13.27,15.31-.14-.06-1.37-2.69-1.28-2.81.61-.77,7.31-.3,14.55-12.51Z" style="fill:#18c9c8; stroke-width:0px;"/><path d="m374.17,428.79c-1.66-2.69-5.07,2.97-7.15,1.53.16-.11,1.34-1.9,1.53-2.04,4.81-3.52,10.27-6.15,13.78-11.23.03,4.32-5.11,8.92-8.17,11.74Z" style="fill:#053d46; stroke-width:0px;"/><path d="m108.73,158.24c.04.83-.03,1.98,0,2.55-4.65-7.36-11.35-12.92-17.36-19.14,7.31,3.55,13.69,9.4,17.36,16.59Z" style="fill:#11a29e; stroke-width:0px;"/><path d="m94.95,267.48c1.79,1.95,8.37,8.69,9.7,9.7-2.59,1.89-17.55-7.96-17.87-8.93-2.51-7.72,5.25-2.17,8.17-.77Z" style="fill:#bf9c50; stroke-width:0px;"/><path d="m104.64,277.18c-1.32-1.01-7.91-7.75-9.7-9.7,2.04.98,11.62,6.07,12.25,7.91,1.12,3.26-.25,3.53-2.55,1.79Z" style="fill:#18c9c8; stroke-width:0px;"/><path d="m394.08,327.72c-.12,1.02.65,1.14.51,1.79-.89,4-10.77,15.01-7.66,24.76,2.25,7.06,2.14,1.1,7.15-1.53,3.96,7.36,1.26,19.17,2.04,27.82-8.37,8.62-4.58,8.9-5.62,16.59-12.17-12.06-11.93-14.78-12.76-27.56-.37-5.71-.85-20.19,0-25.01l6.13-9.7c5.02-4.34,8.56-15.86,10.21-7.15Z" style="fill:#cf9a48; stroke-width:0px;"/><path d="m394.08,352.73c-5.01,2.63-4.89,8.59-7.15,1.53,4.04-3.47,2.78-9.65,7.15-1.53Z" style="fill:#a2803c; stroke-width:0px;"/><path d="m451.76,337.41c3.74-5.59,1.39-5.07,1.53-5.36.46-.97,5.42-4.1,3.57-10.46,13.75.79,7.88,24.11-5.1,15.82Z" style="fill:#014d53; stroke-width:0px;"/><path d="m456.86,321.59c1.85,6.36-3.11,9.5-3.57,10.46-.14.29,2.2-.23-1.53,5.36-2.77-1.77-3.29-3.54-3.06-6.64,9.17-.33,4.99-2.14,3.06-7.66,1.33-1.07,3.46-1.63,5.1-1.53Z" style="fill:#028483; stroke-width:0px;"/><path d="m448.69,330.78c.17-2.4,1.15-6.12,3.06-7.66,1.93,5.52,6.1,7.32-3.06,7.66Z" style="fill:#14ebf1; stroke-width:0px;"/><path d="m402.75,334.35c.89-2.13,6.27-7.41,7.66-10.97,2.68-2.83,5.83-3.62,6.13-3.83.98,4.24,7.14-2.76,6.64.77-.19,1.36-16.76,20.87-18.12,20.67-.39-.06-3.79-3.07-2.3-6.64Z" style="fill:#11a29e; stroke-width:0px;"/><path d="m405.31,342.01c-2.54-.68-3.82-4.95-4.59-5.62l2.04-2.04c-1.49,3.57,1.9,6.58,2.3,6.64,1.36.2,17.93-19.31,18.12-20.67.5-3.52-5.65,3.48-6.64-.77,4.9-3.48,10.53-6.26,15.06-10.21,8.81-7.7,21.2-27.06,22.97-27.05.11,0,1.35,1.1,1.28,1.79-.4,3.82-45.16,50.49-50.54,57.94Z" style="fill:#0cb5ac; stroke-width:0px;"/><path d="m400.71,336.39c.78.66,2.06,4.93,4.59,5.62-1,1.58,1.36,4.91,1.02,8.17-2.64-3.05.69-7.31-4.59,0-.08-.57.66-.91,0-3.32-.42-1.53-5.09-6.97-5.1-7.66,0-.32,2.03-4.57,4.08-2.81Z" style="fill:#cf9a48; stroke-width:0px;"/><path d="m406.33,350.18c-.12,1.19-2.14,5.83-3.83,5.1-1.36-.59-.52-3.42-.77-5.1,5.29-7.31,1.96-3.05,4.59,0Z" style="fill:#a2803c; stroke-width:0px;"/><path d="m347.37,465.54c4.04-1.61,4.78,4.23,2.04,5.1-3.63,1.16-4.44-4.15-2.04-5.1Z" style="fill:#18c9c8; stroke-width:0px;"/><path d="m409.9,174.07c5.88.5.85-2.81-2.55-5.62,1.55-3.98,7.25-9.19,9.44-13.27,6,4.72,2.13,23.35-6.89,18.89Z" style="fill:#ca4a63; stroke-width:0px;"/><path d="m409.9,174.07c-3.22-1.59-3.58-2.98-2.55-5.62,3.4,2.8,8.43,6.12,2.55,5.62Z" style="fill:#b53d5c; stroke-width:0px;"/><path d="m462.99,366.51c-.8-.24-.61-2.54-1.02-3.06.53-.58,5.05-5.01,5.62-3.83-1.2,2.51-3.05,4.61-4.59,6.89Z" style="fill:#11a29e; stroke-width:0px;"/><path d="m481.36,318.53c2.19,7.3-7.3,6.43-4.59-.51,2.45-1.88,2.99-1.13,4.59.51Z" style="fill:#14ebf1; stroke-width:0px;"/><path d="m481.36,318.53c3.42,3.5-.42,6.62-3.32,6.13-1.89-.32-4.51-4.16-1.28-6.64-2.7,6.94,6.78,7.82,4.59.51Z" style="fill:#058375; stroke-width:0px;"/><path d="m430.83,279.22h-1.02c-5.7-3.41.39-5.21,1.02,0Z" style="fill:#11a29e; stroke-width:0px;"/><path d="m430.83,279.22h.51c-.11.1-.49.48-.51.51-1.19.19-.97-.48-1.02-.51h1.02Z" style="fill:#3f572f; stroke-width:0px;"/><path d="m374.17,183.77c-.34,7.7.96,11.09-5.1,19.14.71,11.46-.84,86.04.51,90.35.21.67,4.2,4.85,7.15.77l.51,1.53c-1.08,1.93-4.02,5.52-4.08,5.87-.33,1.82,2.04,7.26,2.04,7.66.01.96-1.86,7.04-2.04,9.19-.29,3.38.44,10.63,0,12.25-.06.23-2.89,2.87-3.06,3.57-3.01,11.88,4.38,29.9.51,50.03-.51,2.68-2.91,9.99-4.08,12.51-10.96,23.49-43.37,31.46-64.57,41.35-15.13,7.06-31.72,20-48.49,21.44-20.52,1.76-31.8-6.49-48.24-16.33-9.98-5.97-19.5-12.49-29.61-18.38-5.59-5.47,1.7-3.27,4.34-6.64,1.27-1.07,5.4,4.29,5.36.77,0-.34-3.88-3.84-4.34-5.36-3.76,1.01-4.62-3.2-5.62-4.08-3.93-3.51-9.69-6.98-13.27-10.72-.68-.7-3.07-5.63-5.87-6.89.92-1.07-3.55-5.77-5.1-9.7-.68-1.71-4.23-12.49-.51-10.97.65.87,1.81,2.2,2.55,3.06-5.57-.18,3.66,9.67,6.13,12.25-.38-.02-1.01-.09-1.02.26-.03.96,9.4,10.69,10.72,12.25.95,1.12,2.1,4.09,2.55,4.59,3.63,4.02,8.29,7.09,11.49,11.49,3.64-.33,6.68,4.44,9.7,6.64,3.33,2.43,4.88,1.88,5.1,2.04.53.38-.02,1.16.51,1.53,4.47,3.15,28.04,18.73,30.63,19.91,6.49,2.96,16.96,4.53,23.99,3.57,9.75-1.33,22.33-11.82,31.14-16.33,17.05-8.75,53.04-20.87,60.49-33.44.83-1.39.5-4.13,2.55-5.62l-.51-2.55c1.07.62,2.47-6,2.55-7.15.04-.52-.54-6.32-.51-10.46.2-26.75-1.95-53.61-1.02-80.4q3.83-8.68,7.66-17.36c.93-6.98,1.92-5.3,2.04-5.62.29-.73-2.88-2.51.51-3.06-2.19-.65.44-5.44.51-7.66,0-.29-1.56.61-1.02-5.1,2.65-6.35.15-12.82,0-19.14,8.54-.48,1.48,1.08,4.59,7.4,4.04,8.2,4.1-9.46,4.59-13.78.11-.93,1.52-1.42,1.53-1.53.56-6.21-.7-19.93,0-23.48.5-2.54,6.84-6.36,5.1-23.48l1.02,3.83Z" style="fill:#2a1b27; stroke-width:0px;"/><path d="m300.15,83.72c.18.93-1.05,2.17-1.02,2.3,1.21,5.07,62.79,22.39,62.79,38.28,3.96,2.45,6.88,4.62,10.21,7.91-2.74.39.48,1.63.51,1.79,1.57,8.3-7.17,4.84-6.89,11.49-5.6-4.67-2.93-1.3-4.08-.51-.37.25-1.77-3.25-2.3-1.53-.71-2.87-5.09-7.6-7.4-9.7-.19-.17-1.62.16-1.79,0-17.54-16.45-23.55-25.5-55.64-28.59-5.94-3.46-7.03-7.66-10.21-8.68-2.69-.86-4.15-.15-6.64.51-4.53-2.02-6.99-4.39-12.25-5.62-19.05-4.45-42.25,11.23-57.17,21.95-1.87.65-3.78,1.3-5.62,2.04-12.55,5.05-27.2,7.2-42.88,17.36-19.67,12.74-20.32,33.36-17.87,55.13-.56.67-1.05,1.06-1.79,1.53-7.75-1.95-10.18,1.67-10.72,1.53-1.49-.38.22-3.96-2.3-3.06.09-8.58-.76-30.64.51-36.75,2.63-12.61,15.7-25.11,26.29-31.65,8.41-5.2,69.14-32.87,85.25-40.33,9.41-4.36,15.9-4.03,10.97-8.17.08-.01,1.09-1.05,1.28-1.02.4.07,3.13,3.47,3.57,3.57.75.17,12.07-.83,15.31-.51,12.07,1.2,19.31,6.58,29.86,10.72Z" style="fill:#6b505c; stroke-width:0px;"/><path d="m141.91,187.85c.6,5.32,2.63,10.38,3.06,14.8.08.84-.06,1.71,0,2.55,1.86,27.08-.07,72.76,0,101.84.27.52,1.12.11,1.53.26-1.38,3.9-1.61,8-2.04,9.7-3.48,13.67-7.73,20.06-3.57,35.22-2.99,4.45-.52,7.48-.51,7.91,0,.22-1.05.58-1.02,1.53.14,4.2,1.66,8.48,1.02,12.76,3.15,8.02,2.98,17.09,4.59,25.52.39,2.06,3.55,6.44,1.02,7.91-10.14-8.06-17.71-18.39-19.91-31.39,1.45-62.86.38-125.75,1.02-188.62,2.51-.89.81,2.69,2.3,3.06.54.14,2.97-3.48,10.72-1.53.74-.47,1.23-.86,1.79-1.53Z" style="fill:#56404c; stroke-width:0px;"/><path d="m150.59,371.1c-3.72-1.51-.17,9.26.51,10.97,1.55,3.93,6.03,8.63,5.1,9.7,2.8,1.26,5.2,6.19,5.87,6.89,3.58,3.74,9.34,7.21,13.27,10.72.99.89,1.86,5.09,5.62,4.08.46,1.52,4.34,5.02,4.34,5.36.04,3.52-4.09-1.84-5.36-.77-2.64,3.36-9.93,1.17-4.34,6.64-9.98-5.81-20.48-9.59-29.61-16.85,2.53-1.47-.63-5.86-1.02-7.91-1.61-8.43-1.44-17.5-4.59-25.52.63-4.28-.88-8.56-1.02-12.76-.03-.95,1.02-1.31,1.02-1.53,0-.43-2.48-3.46.51-7.91,1.08,3.95,7.17,15.5,9.7,18.89Z" style="fill:#392f3c; stroke-width:0px;"/><path d="m374.17,183.77l-1.02-3.83c1.74,17.12-4.61,20.94-5.1,23.48-.7,3.55.56,17.27,0,23.48,0,.11-1.43.6-1.53,1.53-.49,4.32-.55,21.98-4.59,13.78-3.12-6.32,3.95-7.88-4.59-7.4-.46-19.62-1.74-48.05,2.04-66.87.46-2.32,2.14-6.2,2.55-9.19.42,2.28,1.27,4.51,1.02,6.89,4.26,2.55,5.71,8.48,10.72,9.19l.51-32.92c.44,8.48.39,33.03,0,41.86Z" style="fill:#392f3c; stroke-width:0px;"/><path d="m250.13,70.95c4.93,4.14-1.57,3.81-10.97,8.17-16.1,7.46-76.84,35.13-85.25,40.33-10.59,6.54-23.66,19.04-26.29,31.65-2.45-3.18,2.17-15.68,4.08-19.14,3.33-6.04,10.3-11.99,16.08-15.57,3.54-2.19,66.33-31.22,75.55-35.22,5.79-2.52,21.85-9.51,26.8-10.21Z" style="fill:#d5d4d8; stroke-width:0px;"/><path d="m377.74,369.57c.83,12.79.59,15.51,12.76,27.56-.86,6.4-2.24,6.44-3.57,9.7-2.67,3.74-17.69,18.49-18.38,19.65-.39.66-.46,1.13,0,1.79-.19.14-1.37,1.93-1.53,2.04-14.81,10.12-23.37,9.79-38.03,15.82-25.88,10.66-23.99,20.04-33.69,28.59-15.46,13.61-59.27,9.43-76.82.51-20.37-10.35-27.29-30.34-48.75-32.67-15.94,21.95-32.19,20.72-45.43,30.12-3.33,2.36-10.25,9.93-14.55,13.78h-3.06c4.42-3.61,9.26-12.97,14.55-16.85,9.22-6.76,41.51-13.48,45.18-34.71,6.96.44,5.09,5.94,6.89,6.64,4.67.94,22.81-.72,23.99-.51,2.72.47,7.78,9.51,7.91,2.04,16.44,9.84,27.72,18.09,48.24,16.33,16.78-1.44,33.37-14.38,48.49-21.44,21.2-9.89,53.61-17.85,64.57-41.35,9.22-8.33,4.55-23.26,10.21-27.56.02.05.79.44,1.02.51Z" style="fill:#028483; stroke-width:0px;"/><path d="m374.17,428.79c-12.64,11.65-37.02,15.73-53.85,26.54-22.9,14.71-34.7,42.4-76.57,34.71-7.1-1.3-22.94-7.4-25.27-14.8,17.55,8.92,61.37,13.1,76.82-.51,9.7-8.54,7.81-17.93,33.69-28.59,14.66-6.04,23.22-5.7,38.03-15.82,2.07,1.44,5.48-4.22,7.15-1.53Z" style="fill:#053d46; stroke-width:0px;"/><path d="m386.93,406.84c-1.33,3.24-2.61,7.33-4.59,10.21-3.51,5.08-8.97,7.71-13.78,11.23-.46-.66-.39-1.12,0-1.79.68-1.16,15.71-15.92,18.38-19.65Z" style="fill:#fdfcfa; stroke-width:0px;"/><path d="m137.82,427.26c-15.99,13.78-40.87,3.83-33.69,17.1,7.65,14.14,42.81,1.16,49.51-10.46.74.66,2.24,4.78,2.81,6.13.54.22,3.16-5.53,9.95-5.1-3.66,21.23-35.96,27.96-45.18,34.71-5.29,3.88-10.13,13.24-14.55,16.85-11.79,9.62-31.21,6.26-34.97,7.15-.76.18-.53,1.9-1.79,1.53-9.47-3.87-18-14.89-18.38-25.27-.68-19.02,24.14-42.36,43.39-35.22.06-17.1,18.78-19.87,17.36-34.2-.19-1.88-3.92-9.63-2.55-12.51,3.38,15.09,14.6,31.48,28.08,39.31Z" style="fill:#11a29e; stroke-width:0px;"/><path d="m109.75,486.47c-1.84,1.65-3.33,4.16-5.36,5.62-9.83,7.04-23.45,7.56-34.46,3.06,1.26.37,1.02-1.35,1.79-1.53,3.76-.88,23.18,2.48,34.97-7.15h3.06Z" style="fill:#015e5f; stroke-width:0px;"/><path d="m153.65,433.89c-6.71,11.63-41.86,24.6-49.51,10.46-7.18-13.27,17.7-3.32,33.69-17.1,2.92,1.7,14.79,5.71,15.82,6.64Z" style="fill:#053d46; stroke-width:0px;"/><path d="m453.29,72.49c-1.91.71-3.46,1.92-5.1,3.06-5.97-2.66,16.36-10.46,11.74-25.27-2.59-8.32-22.75-13.85-30.63-12.51-25.77-10.01-48.34,15.58-68.91,27.05,10.35-9.9,32.6-34.72,42.62-40.33,33.5-18.72,84.06,18.04,50.28,47.98Z" style="fill:#11a29e; stroke-width:0px;"/><path d="m448.18,75.55c-9.45,6.52-3.22,4.64-2.04-7.4,1.26-12.88-4.16-25.44-16.85-30.37,7.88-1.34,28.04,4.19,30.63,12.51,4.62,14.81-17.71,22.61-11.74,25.27Z" style="fill:#053d46; stroke-width:0px;"/><path d="m373.15,132.72c-.26-.07-.98-.47-1.02-.51-3.33-3.3-6.25-5.46-10.21-7.91,0-15.89-61.58-33.22-62.79-38.28-.03-.12,1.2-1.37,1.02-2.3.25.1,3.13.12,5.36,1.02,8.87,3.57,48.42,21.37,54.11,25.52,8.32,6.08,12,12.9,13.53,22.46Z" style="fill:#d5d4d8; stroke-width:0px;"/><path d="m372.13,132.21s.76.44,1.02.51c.51,3.19.85,5.96,1.02,9.19l-.51,32.92c-5-.71-6.46-6.64-10.72-9.19.25-2.39-.6-4.61-1.02-6.89-.85-4.59.08-9.6-2.55-13.78-.05-.49.1-1.11,0-1.53.53-1.72,1.93,1.78,2.3,1.53,1.16-.79-1.52-4.16,4.08.51-.28-6.64,8.46-3.19,6.89-11.49-.03-.15-3.25-1.4-.51-1.79Z" style="fill:#56404c; stroke-width:0px;"/><path d="m378.76,99.54c3.06,1.79,6.99,4.93,9.19,7.66,3.5,4.34,5.28,8.99,6.64,14.29-1.03,3.03-.65,7.45-1.53,10.46-2.91,9.95-2.08.44-2.55-2.55-3.53-22.15-27.53-33.07-45.94-40.84.56-1.71,29.45,8.19,34.2,10.97Z" style="fill:#fdfcfa; stroke-width:0px;"/><path d="m377.23,295.56l-.51-1.53c.62-.86,1.83-5.24,2.55-6.64,1.99-3.84,3.77-7.57,6.13-11.23-.8,7.43-4.67,13.17-8.17,19.4Z" style="fill:#2a3131; stroke-width:0px;"/><path d="m429.3,37.77c12.68,4.93,18.11,17.49,16.85,30.37-1.18,12.04-7.41,13.92,2.04,7.4,1.65-1.14,3.19-2.35,5.1-3.06,3.72-1.39,20.99-4.64,18.38,3.32-.66,2.02-18.07,10.62-31.65,28.08-9.02,11.59-10.03,19.29-13.27,25.52-10.42,20.02-26.4,9.53-29.61,34.2,1.86,15.67-4.41,28.62-4.08,30.12,1.06,4.85,11.48,5.67,15.82-12.76l10.97-5.36c5.31,44.09-28.18,30.43-31.39,53.34-.18,1.27.31,19.66.51,20.67l-6.89,4.08c-10.87-19.05-5.92.56-1.28,4.34,3.62,2.94,7.83-4.29,9.19-6.89h.51c-.94,1.47-10.77,19.1-11.23,20.16-1.93,4.49-6.02,14.04,0,16.08-.72,1.39-1.93,5.78-2.55,6.64-2.95,4.09-6.94-.1-7.15-.77-1.35-4.31.2-78.89-.51-90.35,6.06-8.05,4.77-11.44,5.1-19.14.39-8.83.44-33.38,0-41.86-.17-3.23-.51-6-1.02-9.19-1.52-9.56-5.2-16.38-13.53-22.46-5.69-4.16-45.24-21.96-54.11-25.52-2.23-.9-5.11-.92-5.36-1.02-10.55-4.14-17.8-9.52-29.86-10.72-3.25-.32-14.57.68-15.31.51-.44-.1-3.17-3.51-3.57-3.57-.19-.03-1.2,1.01-1.28,1.02-4.95.7-21,7.69-26.8,10.21-9.22,4-72,33.03-75.55,35.22-5.78,3.58-12.75,9.53-16.08,15.57-1.91,3.46-6.53,15.96-4.08,19.14-1.27,6.11-.42,28.18-.51,36.75-.64,62.86.43,125.75-1.02,188.62,2.2,13,9.77,23.33,19.91,31.39,9.12,7.25,19.62,11.04,29.61,16.85,10.11,5.88,19.63,12.4,29.61,18.38-.13,7.47-5.19-1.57-7.91-2.04-1.18-.21-19.32,1.45-23.99.51-1.8-.7.06-6.2-6.89-6.64-6.79-.43-9.42,5.32-9.95,5.1-.57-1.34-2.07-5.47-2.81-6.13-1.04-.93-12.9-4.94-15.82-6.64-13.48-7.83-24.7-24.22-28.08-39.31-1.8-8.04-2.27-26-1.02-33.95.41-2.61,3.2-7.7,3.57-11.23,1.98-18.72-9.99-19.12-3.06-37.26.21-.55,2.42-2.08,2.55-2.55.59-2.04.47-40.3,0-42.37-.17-.75-7.78-11.26-7.66-12.76,11.3-16.19,7.5-11.25,1.53-27.56.93-3.49,7.53-13.49,7.66-14.29,1.7-10.57-19.44-23.92-19.91-25.52,2.6-15.57-7.87-20.26-6.13-30.63l21.69,29.35c1.74-.47.34-13.44.26-15.31,1.67-1.21,1.23-11.51,2.04-16.59,6.16-38.38,34.09-41.11,63.55-56.41,18.63-9.68,36.53-20.99,55.9-29.35-.39-1.38-1.04-2.9-2.81-2.81-3.09.15-48.02,24.46-55.64,27.05l-.77-.77c6.99-8.89,4.99-9.45,3.06-16.08,13.74,10.23,21.98.65,33.69-5.62,7.83-4.19,20.83-10.47,27.82-14.8.15-.09,2.09-2.13,2.3-2.55,25.7-8.72,56.5-2.08,73.25,19.91.59.05,6.52-8.56,6.89-9.7.43.05.84-.87,1.02-.26,1.62,5.38-17.61,32.28,2.04,9.44.31,12.01,10.55,16.86,21.44,16.33,3.59-.17,9.31-2.66,12.76-4.08-2.82,9.85,16.44,14.8,22.97,21.95-4.75-2.79-33.64-12.69-34.2-10.97,18.42,7.77,42.42,18.69,45.94,40.84.48,3-.36,12.5,2.55,2.55.88-3.01.5-7.43,1.53-10.46.99,3.85,1.94,7.44,1.53,11.49,12.63-.24,26.08-29.45,27.05-39.31.35-3.5.15-16.13-4.59-17.1,4.56-10.49-14.8-18.4-21.95-18.38,2.41-19.93-31.65,8.45-40.84,10.72,1.51-1.42,3.12-2.68,4.59-4.08,20.57-11.48,43.15-37.07,68.91-27.05Z" style="fill:#ebb356; stroke-width:0px;"/><path d="m388.97,249.62c.02.09.6.2,1.02,1.53-1.35,2.6-5.57,9.83-9.19,6.89-4.64-3.77-9.6-23.39,1.28-4.34l6.89-4.08Z" style="fill:#053d46; stroke-width:0px;"/><path d="m115.11,305.26c2.77-.47,2.75,12.75,2.3,14.55-2.4,9.47-8.46-4.14-2.3-14.55Z" style="fill:#2a3131; stroke-width:0px;"/><path d="m113.07,217.46v9.19c-.51.07-3.99-4.66,0-9.19Z" style="fill:#2a3131; stroke-width:0px;"/><path d="m389.48,307.3c.33,3.76-2.31,6.71-3.57,10.21-4.31,6.64-5.08,18.63-4.08,1.28,3.06-3.5,5.01-7.74,7.66-11.49Z" style="fill:#a2803c; stroke-width:0px;"/><path d="m90.86,106.69c-.29.73-.89,1.95-1.02,2.55-.58,2.65-.95,6.61,0,9.19-4.97-2.23-2.03-11.75-5.1-11.74,1.23-4.44,3.5-7.36,7.15-10.21,2.25.26,6.69-.37,7.91,0,4.92,1.48-5.11.53-8.93,10.21Z" style="fill:#fdfcfa; stroke-width:0px;"/><path d="m117.41,112.81c.18.29.43.67.51,1.02-3.68,4.23-8.8,15.5-9.7,20.93-7.1-.71-15.91-5-20.42-10.72,8.54-1.29,14.01-7.79,17.87-10.21,4.47-2.81,3.34-3.54,11.74-1.02Z" style="fill:#741535; stroke-width:0px;"/><path d="m89.84,118.43c1.91.86,3.32.05,4.08,1.02-1.81,1.11-2.13,2.2-7.15,3.06-3.75-6.16-3.94-8.96-2.04-15.82,3.08,0,.13,9.51,5.1,11.74Z" style="fill:#ca4a63; stroke-width:0px;"/><path d="m105.67,113.83c-3.86,2.42-9.32,8.92-17.87,10.21-.65-.82-.57-.79-1.02-1.53,5.02-.86,5.33-1.95,7.15-3.06,2.54-1.56,9.86-7.8,11.74-5.62Z" style="fill:#b53d5c; stroke-width:0px;"/><path d="m120.98,106.69c-5.53-2.66-2.67,3.81-3.32,4.08-10.51-10.24-2.17-1.01-.26,2.04-8.4-2.52-7.27-1.79-11.74,1.02-1.88-2.19-9.2,4.06-11.74,5.62-.76-.97-2.17-.16-4.08-1.02-.95-2.58-.58-6.54,0-9.19,5,3.5,3.95.65,1.02-2.55,3.83-9.68,13.85-8.73,8.93-10.21-1.23-.37-5.66.26-7.91,0,11.06-8.63,23.79-1.01,29.1,10.21Z" style="fill:#ca4a63; stroke-width:0px;"/><path d="m120.98,106.69c.34.72.56,2.56,1.53,3.06-1.45,1.16-3.39,2.7-4.59,4.08-.08-.35-.33-.73-.51-1.02-1.92-3.05-10.25-12.29.26-2.04.64-.27-2.21-6.74,3.32-4.08Z" style="fill:#b53d5c; stroke-width:0px;"/><path d="m97.75,107.2c3.99-.31-2.43,3.19-3.32,4.85-.18.34-1.93,9.78-1.53,2.04.1-1.88,2.67-6.72,4.85-6.89Z" style="fill:#e7bec3; stroke-width:0px;"/><path d="m89.84,109.24c.13-.6.73-1.83,1.02-2.55,2.93,3.2,3.98,6.05-1.02,2.55Z" style="fill:#ca4a63; stroke-width:0px;"/><path d="m475.75,164.88c-2.27,1.68-7.64,10.28-9.7,13.27-6.73,9.77-10.04,18.23-20.16,26.54-3.2,2.62-15.81,10.94-19.14,10.21,20.48-13.46,26.37-23.6,38.8-44.15,3.99-4.23,10.35-10.21,10.21-5.87Z" style="fill:#11a29e; stroke-width:0px;"/><path d="m443.08,228.18c-1.55.89-2.24-.07-3.06,1.79-.55,2.91,1.18,1.95,2.55,3.83-1.92-.61-2.65-.78-4.59,0-1.18.47-4.11,3.36-5.62,4.59-1.98-.03-2.97.58-3.57-1.53.83-.87,3.71-4.44,4.59-5.62.71-.94,2.37-1.48,2.55-3.06h7.15Z" style="fill:#2a1b27; stroke-width:0px;"/><path d="m480.85,179.17c-1.72,5.18-3.49,10.07-6.13,14.8.87-7.87-9.83,1.31-.51,1.02-5.64,9.25-14.87,15.22-21.95,23.23-4.65,5.26-.3,4.83-9.19,9.95h-7.15c.56-4.78-6.85-3.83-2.55,3.06-.89,1.18-3.77,4.74-4.59,5.62-.96,1.02-6,6.38-6.38,6.64-6.05,4.13-8.36-1.17-12,5.62-.6,1.13-1.84-.41-.51,2.55-8.82,5.76-18.58,15.29-24.5,24.5-2.35,3.66-4.13,7.39-6.13,11.23-6.02-2.04-1.93-11.59,0-16.08.46-1.06,10.29-18.7,11.23-20.16,4.68-7.3,24.81-35.38,33.44-33.69,1.06-.7,1.82-1.91,2.81-2.55,3.33.73,15.95-7.58,19.14-10.21,10.12-8.32,13.44-16.77,20.16-26.54,1.06,1.16,2.34-.44,4.59-2.55,10.84-3.55,13.5-11.5,12.25-2.81-.17,1.22-3.08,5.41-2.04,6.38Z" style="fill:#ca4a63; stroke-width:0px;"/><path d="m474.73,193.98c-.09.17-.13.4-.51,1.02-9.32.29,1.38-8.89.51-1.02Z" style="fill:#fbdcda; stroke-width:0px;"/><path d="m435.93,228.18c-.19,1.58-1.84,2.12-2.55,3.06-4.3-6.89,3.11-7.85,2.55-3.06Z" style="fill:#fdfcfa; stroke-width:0px;"/><path d="m421.9,237.36c1.33.7-3.03,5.48-3.57,5.62-5.37,1.3-.75-2.4,3.57-5.62Z" style="fill:#e7bec3; stroke-width:0px;"/><path d="m446.91,221.03c3.89-1.09-.95,2.61-1.02,4.08-1.8-.96-.06-3.78,1.02-4.08Z" style="fill:#e7bec3; stroke-width:0px;"/><path d="m439,237.87c-2.22.97-2.09,3.33-1.53,5.1-8.81-1.87-1.11,9.72,1.02,2.04.04.14.33-1.08,1.53,2.55.7,2.13-1.03,7,2.55,6.13-2.7,3.06-7.89,6.16-12,6.64-10.24,1.18-14.98-5.3-17.61-4.08-.02-1.39-2.16-2.57-3.06-4.59-1.33-2.97-.09-1.43.51-2.55,11.02,2.18,15.54-5.45,21.95-10.72,1.5-1.23,4.44-4.12,5.62-4.59-.34,2.68.34,2.92,1.02,4.08Z" style="fill:#741535; stroke-width:0px;"/><path d="m444.61,236.85c3.42,6.66,2.64,10.1-1.53,15.82-.22-2.08-.87-4.5-3.06-5.1-1.2-3.63-1.49-2.41-1.53-2.55-.41-1.39-.85-1.51-1.02-2.04-.56-1.77-.69-4.14,1.53-5.1.27.47,2.53,2.99,2.81,3.06,4.26,1.05-.98-3.7,2.81-4.08Z" style="fill:#b53d5c; stroke-width:0px;"/><path d="m442.57,233.79c.89,1.22,1.31,1.63,2.04,3.06-3.79.39,1.45,5.14-2.81,4.08-.28-.07-2.54-2.6-2.81-3.06-.68-1.17-1.36-1.41-1.02-4.08,1.95-.78,2.68-.61,4.59,0Z" style="fill:#fdfcfa; stroke-width:0px;"/><path d="m443.08,252.68c-.13.18-.42.91-.51,1.02-3.58.88-1.85-4-2.55-6.13,2.2.61,2.84,3.03,3.06,5.1Z" style="fill:#8b2747; stroke-width:0px;"/><path d="m432.36,238.39c-6.41,5.27-10.93,12.9-21.95,10.72,3.63-6.78,5.94-1.48,12-5.62.38-.26,5.42-5.62,6.38-6.64.61,2.11,1.59,1.5,3.57,1.53Z" style="fill:#411428; stroke-width:0px;"/><path d="m437.46,242.98c.17.54.61.66,1.02,2.04-2.13,7.68-9.84-3.91-1.02-2.04Z" style="fill:#e6cdc5; stroke-width:0px;"/><path d="m398.67,442.06c3.64.87-1.96,4.2-7.15,10.72-6.56,3.36-12.66,12.27-17.87,17.87-5.94,6.39-11.94,12.73-18.12,18.89-7.6.89-14.99,2.41-22.72,2.04-7.76-12.76,7.28-30.12,5.62-22.21-.08.37-1.8,1.51-2.04,2.04-5.37,12.03-5.91,22.07,10.46,15.57,5.3-2.1,27.03-20.94,28.84-25.52,8.21-5.82,14.87-13.41,22.97-19.4Z" style="fill:#11a29e; stroke-width:0px;"/><path d="m391.52,452.78c-7.87,9.88-26.84,38.33-28.59,40.07-3.83,3.82-6.52,4.78-11.74,5.36.13-.9-.19-2.33,0-2.81.55-1.4,18.18-18.75,20.93-21.69.97-1.03.8-.57,1.53-2.04.05-.1,2.19-2.24,0-1.02,5.21-5.6,11.31-14.51,17.87-17.87Z" style="fill:#cf9a48; stroke-width:0px;"/><path d="m373.66,471.67c-.6.59-1.77.82-1.53,2.04-2.75,2.95-20.37,20.29-20.93,21.69-.19.48.13,1.91,0,2.81-6.37.71-14.68-.56-18.38-6.64,7.73.37,15.11-1.15,22.72-2.04,6.18-6.16,12.18-12.5,18.12-18.89-.08.04.09.93,0,1.02Z" style="fill:#028483; stroke-width:0px;"/><path d="m481.36,165.39c-3.51.54-7.25,6.96-10.72,10.21-2.26,2.11-3.53,3.71-4.59,2.55,2.06-2.99,7.43-11.59,9.7-13.27,2.81-2.08,2.87-2.35,5.62.51Z" style="fill:#fbdcda; stroke-width:0px;"/><path d="m481.36,165.39c5.21,5.43.81,9.82-.51,13.78-1.04-.97,1.87-5.16,2.04-6.38,1.25-8.69-1.41-.74-12.25,2.81,3.47-3.24,7.21-9.67,10.72-10.21Z" style="fill:#db6f80; stroke-width:0px;"/><path d="m401.22,440.02c-.8.71-1.69,1.4-2.55,2.04-8.1,5.99-14.77,13.58-22.97,19.4.37-.93-.28-2.68.51-4.34.73-1.53,7.62-12.7,9.7-16.08,5.38.04,12.8-4.99,13.53-5.1,6.12-.96-5.04,5.73,1.79,4.08Z" style="fill:#dc5a65; stroke-width:0px;"/><path d="m440.02,384.89c-3.22,4.97-9.49,10.78-14.29,14.29-2.85,2.08-9.44,6.25-12.76,7.15,8.91-9.42,20.79-16.17,28.59-26.54,1.07,1.17-.67,3.78-1.53,5.1Z" style="fill:#fdfcfa; stroke-width:0px;"/><path d="m444.1,390.5c-1.39,1.49,1.9,2.61,1.02,6.38-.68,2.93-5.5,4.68-7.15,1.53-2.28-4.38,3.28-7,4.59-8.42.62-.12,1.05.22,1.53.51Z" style="fill:#e7bec3; stroke-width:0px;"/><path d="m390.5,433.38c.34-2.95,4.19-4.82,5.62-6.64-.78,2.59-3.11,5.55-5.62,6.64Z" style="fill:#f7e7ee; stroke-width:0px;"/><path d="m441.55,386.93c.68.39.48.5.51.51-1.33,4.18-11.92,12.05-16.33,11.74,4.81-3.51,11.07-9.33,14.29-14.29,1.71.68-.16,1.08,1.53,2.04Z" style="fill:#db6f80; stroke-width:0px;"/><path d="m461.97,363.45c.41.52.22,2.82,1.02,3.06-5.89,8.67-13.34,15.8-20.42,23.48-1.32,1.43-6.88,4.04-4.59,8.42,1.64,3.15,6.46,1.4,7.15-1.53.88-3.78-2.41-4.89-1.02-6.38,9.34,5.55-4.84,12.45-12.25,20.67-8.52,9.45-15.95,25.31-30.63,28.84-6.83,1.64,4.33-5.04-1.79-4.08-.72.11-8.15,5.14-13.53,5.1,1.54-2.51,2.33-5.58,4.59-7.66,2.5-1.09,4.83-4.05,5.62-6.64,4.16-5.28,12.73-16.07,16.85-20.42,3.32-.9,9.91-5.06,12.76-7.15,4.42.31,15-7.56,16.33-11.74,1.26.27,1.21.53,1.28.51.83-.29,8.37-11.63,8.93-13.53,2.97-10.07-6.3,4.97-10.72,12.51-1.69-.96.17-1.37-1.53-2.04.86-1.33,2.6-3.93,1.53-5.1,3.31-4.4,12.15-26.76,20.42-16.33Z" style="fill:#ca4a63; stroke-width:0px;"/><path d="m442.06,387.44s.17-.12-.51-.51c4.42-7.53,13.69-22.57,10.72-12.51-.56,1.9-8.1,13.24-8.93,13.53-.06.02-.02-.24-1.28-.51Z" style="fill:#fbdcda; stroke-width:0px;"/><path d="m409.9,431.34c8.89-4.68,5.79-6.83-1.02-1.02.32-3.88,7.63-7.23,7.15-2.3-.24,2.43-4.2,3.16-6.13,3.32Z" style="fill:#db6f80; stroke-width:0px;"/><path d="m409.9,431.34c-.63.05-.66,1.02-1.53-.26-.03-.04.47-.26.51-.77,6.81-5.81,9.91-3.66,1.02,1.02Z" style="fill:#fbdcda; stroke-width:0px;"/><path d="m372.13,473.71c-.24-1.23.93-1.45,1.53-2.04-.74,1.47-.57,1.01-1.53,2.04Z" style="fill:#cf9a48; stroke-width:0px;"/><path d="m373.66,471.67c.09-.09-.08-.98,0-1.02,2.19-1.22.05.92,0,1.02Z" style="fill:#cf9a48; stroke-width:0px;"/><path d="m35.73,279.22c-3.46,14.38-1.73,24.27,14.55,27.05q3.19,4.21,6.38,8.42c-1.04,1.88-5.72-4.9-7.4-5.87-1.28-.74-18.18-2.52-17.1-20.42.22-3.63,1.4-7.27,3.57-10.21-.08.28.07.73,0,1.02Z" style="fill:#0cb5ac; stroke-width:0px;"/><path d="m59.21,239.41c-6.81,7.76-23.99,27.52-3.57,10.21-.22.31,1.49-.61-3.57,6.13-3.45,4.59-8.04,8.33-11.23,12.76l-2.04-1.02c1.39-2.29,2.85-4.64,3.83-7.15-.86-.48-10.92,7.06-10.46,14.29-1.11-.64-.12-8.55,0-9.7,5.59-9.18,18.33-19.05,27.05-25.52Z" style="fill:#ebb356; stroke-width:0px;"/><path d="m57.68,250.64c-1.76,1.76-3.75,3.44-5.62,5.1,5.07-6.74,3.35-5.81,3.57-6.13,3.7-5.22,11.96-13.52,8.68-15.31,1.3-1.36,12.5-15.73,12.76-9.95.19,4.24-15.6,22.49-19.4,26.29Z" style="fill:#ddbb59; stroke-width:0px;"/><path d="m32.16,274.63c2.02,1.16,5.73-5.64,6.64-7.15l2.04,1.02c-2.45,3.41-3.94,5.53-5.1,9.7-2.18,2.94-3.35,6.58-3.57,10.21-8.52-4.21-4.14-16.68,0-23.48-.12,1.15-1.11,9.06,0,9.7Z" style="fill:#ddbb59; stroke-width:0px;"/><path d="m55.64,249.62c-20.41,17.31-3.24-2.45,3.57-10.21,1.64-1.86,3.43-3.35,5.1-5.1,3.28,1.79-4.98,10.09-8.68,15.31Z" style="fill:#fbf8e6; stroke-width:0px;"/><path d="m35.73,279.22c.07-.29-.08-.74,0-1.02,1.16-4.17,2.65-6.29,5.1-9.7,3.19-4.43,7.78-8.17,11.23-12.76,1.86-1.67,3.85-3.34,5.62-5.1.58-.09,1.21-.08,1.02.77-.39,1.77-21.15,21.44-22.97,27.82Z" style="fill:#127881; stroke-width:0px;"/><path d="m38.8,267.48c-.91,1.5-4.62,8.31-6.64,7.15-.46-7.24,9.61-14.77,10.46-14.29-.98,2.51-2.44,4.85-3.83,7.15Z" style="fill:#fdfcfa; stroke-width:0px;"/><path d="m418.83,351.71c6.55-.55,1.33,12.28,1.28,13.02-.29,3.97,3.54,16.3-7.4,22.21-2.35-1.86,4.68-4,5.36-11.49.86-9.52-6.05-14.49-2.55-20.93.29-.54,2.86-2.77,3.32-2.81Z" style="fill:#0cb5ac; stroke-width:0px;"/><path d="m420.36,353.75c.88.05.9,5.52.77,6.38-1.13,7.19-1.74,1.23-6.13-.51,1.97-1.18,4.05-3.62,5.36-5.87Z" style="fill:#11a29e; stroke-width:0px;"/><path d="m52.07,282.28c.6,5.34-5.7,2.39-6.64,6.64-1.2-4.87,1.49-9.69,6.64-6.64Z" style="fill:#18c9c8; stroke-width:0px;"/><path d="m45.43,288.92c.93-4.25,7.23-1.29,6.64-6.64,9.73,5.77-4.05,17.1-6.64,6.64Z" style="fill:#028483; stroke-width:0px;"/><path d="m50.79,289.43c3.44-1.52.22,2.43-.51,2.04-.68-.36-.14-1.75.51-2.04Z" style="fill:#015e5f; stroke-width:0px;"/><path d="m316.49,472.69c1.06.64.74,4.7-1.28,4.59-3.33-.17-.91-5.92,1.28-4.59Z" style="fill:#da5291; stroke-width:0px;"/><path d="m159.26,386.42c1.88,1.97,13.59,11.37,17.1,14.8,11.47,7.43,23.34,14.39,34.71,21.95,16.01,10.63,22.62,23.13,44.41,17.87,1.41-.34,2.08.67,2.55.51,7.88-4.55,17.07-10.8,25.01-14.8,23.73-11.95,56.83-19.36,64.06-48.75.3-1.22-.66-3.79,1.53-4.85-.03,4.14.55,9.94.51,10.46-.08,1.15-1.49,7.77-2.55,7.15l.51,2.55c-2.05,1.49-1.73,4.22-2.55,5.62-7.45,12.56-43.44,24.69-60.49,33.44-8.81,4.52-21.39,15.01-31.14,16.33-7.03.96-17.51-.61-23.99-3.57-2.59-1.18-26.16-16.76-30.63-19.91-.53-.37.02-1.16-.51-1.53-.22-.16-1.77.39-5.1-2.04-3.02-2.2-6.06-6.97-9.7-6.64-3.19-4.4-7.85-7.47-11.49-11.49-.46-.5-1.61-3.47-2.55-4.59-1.32-1.56-10.75-11.29-10.72-12.25.01-.34.64-.27,1.02-.26Z" style="fill:#1f1e2b; stroke-width:0px;"/><path d="m167.43,140.89c-3.53,3.54-10.03,6.62-13.27,11.23.19-12.24-5.41,4.95-6.38,16.85-10.96-8.72,4.74-28.25,12-36.24,15.68-10.16,30.33-12.3,42.88-17.36.05,1.35-1.29,2.4-2.3,3.06-6.68,4.38-31.61,11.18-40.58,21.69-9.1,10.67,2.17.57,11.49-5.36l.77.77c-1.89,1.46-2.95,3.71-4.59,5.36Z" style="fill:#fdfcfa; stroke-width:0px;"/><path d="m208.27,113.32v.51c-7.04,5.4-10.38,10.59-15.31,14.8-2.84,2.42-6.16,4.34-8.68,7.15-3.09,1.52-14.31,9.24-15.82,10.72-2.01-2.65,2.71-5.9-1.02-5.62,1.65-1.65,2.7-3.9,4.59-5.36l-.77-.77c-9.32,5.93-20.59,16.03-11.49,5.36,8.97-10.51,33.91-17.31,40.58-21.69,1.01-.66,2.35-1.71,2.3-3.06,1.83-.74,3.75-1.39,5.62-2.04Z" style="fill:#ddbb59; stroke-width:0px;"/><path d="m159.77,132.72c-7.26,8-22.95,27.52-12,36.24.97-11.89,6.57-29.09,6.38-16.85-.15,9.83-2.06,13.65-5.62,21.95-.24.55-2.01,4.04-2.55,5.1-1.75,3.41-3.78,8.31-4.08,8.68-2.45-21.77-1.8-42.39,17.87-55.13Z" style="fill:#ebb356; stroke-width:0px;"/><path d="m144.97,205.21c-.06-.84.08-1.72,0-2.55,2.97,4.33,1.94-6.25,2.04-12.25,1.35-.49,1.41-1.51,0-2.04.01-2.48,1.03-3.87,1.02-4.08,3.42.34,3.82-6.46,6.64-8.68-1.62,7.66-1.87,29.69-9.7,29.61Z" style="fill:#741535; stroke-width:0px;"/><path d="m148.03,184.28c0,.22-1.01,1.6-1.02,4.08,0,.68.01,1.36,0,2.04-.1,6,.93,16.58-2.04,12.25-.43-4.42-2.46-9.48-3.06-14.8.31-.37,2.33-5.26,4.08-8.68.55,1.19,2.02,4.51,2.04,5.1Z" style="fill:#ca4a63; stroke-width:0px;"/><path d="m168.45,146.5c-2.33,2.28-6,7.43-6.64,10.72-.79,3.35-1.91,6.46-3.06,9.7-.03.09-.49-.04-1.02,1.53-2.57-.3-2.57,2.47-3.83.51-1.68,1.93-2.74,4.56-5.36,5.1,3.56-8.3,5.47-12.12,5.62-21.95,3.24-4.61,9.74-7.69,13.27-11.23,3.73-.29-.99,2.96,1.02,5.62Z" style="fill:#db6f80; stroke-width:0px;"/><path d="m157.73,168.45c-.51,1.53-1.85,2.92-2.04,4.59l-1.02,2.55c-2.82,2.21-3.22,9.01-6.64,8.68-.02-.59-1.49-3.91-2.04-5.1.55-1.07,2.32-4.55,2.55-5.1,2.62-.55,3.68-3.17,5.36-5.1,1.26,1.96,1.25-.81,3.83-.51Z" style="fill:#ed7f89; stroke-width:0px;"/><path d="m158.24,171c-.02.05-.36.7-.51,1.02-.05.11-1.08-.74-1.28,2.04l-.77-1.02c.2-1.68,1.53-3.06,2.04-4.59.53-1.57.99-1.44,1.02-1.53-.41,1.03-.27,3.4-.51,4.08Z" style="fill:#741535; stroke-width:0px;"/><path d="m147.01,190.4c.01-.68,0-1.36,0-2.04,1.41.53,1.35,1.55,0,2.04Z" style="fill:#8b2747; stroke-width:0px;"/><path d="m161.82,159.26q.26,6.13.51,12.25c-.6,1.53-1.01,3.05-1.53,4.59-2.46-2.18-.67-5.47-2.55-5.1.24-.68.1-3.06.51-4.08,1.15-3.24,2.27-6.34,3.06-9.7v2.04Z" style="fill:#d3eadf; stroke-width:0px;"/><path d="m326.18,152.63s.92-.35,1.02-.77c.02-.07-.75-.42-.51-1.28,3.82,3.72,8.53,8.72,11.23,13.27,3.36,5.66,5.68,15.12,8.42,16.85,4.95,3.11,5.64.59,5.36-3.57,2.7-.89,1.4-10.6,1.02-15.82l.77-.51c-.44,1.33,1.61,3.78,3.32,4.08.64,1.27,1.13,3.26,2.55,3.06-3.78,18.82-2.5,47.25-2.04,66.87.15,6.33,2.65,12.79,0,19.14-.54,5.71,1.03,4.82,1.02,5.1-.07,2.22-2.7,7-.51,7.66-3.39.55-.22,2.33-.51,3.06-.12.31-1.11-1.37-2.04,5.62q-3.83,8.68-7.66,17.36c-.93,26.78,1.22,53.64,1.02,80.4-2.2,1.06-1.23,3.63-1.53,4.85-7.23,29.39-40.34,36.8-64.06,48.75-7.94,4-17.13,10.26-25.01,14.8-.47.16-1.14-.85-2.55-.51-21.79,5.26-28.4-7.23-44.41-17.87-11.38-7.56-23.24-14.52-34.71-21.95-3.51-3.43-15.22-12.83-17.1-14.8-2.47-2.58-11.7-12.43-6.13-12.25,1.72,2,16.95,15.54,18.12,15.31.81-.16,1.3-2.37,2.3-2.55-.48,2.47-1.84,4.62-1.53,5.87,1.41,3.16,20.3,14.37,21.69,14.04.4-.1,4.07-3.76-.77-5.87,3.19-4.72-7.3-11.73-10.21-16.33-.51-.81-1.5-2.13,0-1.79,4.02,4.97,8.58,9.45,13.27,13.78,1.22,1.13,2.34,2,3.57,3.06,2.47,2.13,5.08,4.12,7.66,6.13,4.69,6.04,2.41,7,2.55,7.4,2.24,6.44,15.46,14.6,16.59,14.55,3.57-.16-.19-3.07-.26-3.32-1.31-4.89,1.83-4.15,1.53-5.62-.11-.52-2.94-1.44-2.55-2.55.36-1.02,3.17,1.5,1.53-6.64-11.83-2.94,16.15-19.24,17.61-18.63,1.79,7.26,4.79,12.07,8.42,18.38-3.67-1.9-5.56-2.86-9.7-3.06-9.57-.48-14.95,4.52-12.76,14.29.28,1.23,2.3,5.26,3.06,6.38,11.47,16.93,34.39,6.1,23.99-12.51,2.46.42,6.29,3.87,8.42,3.57,1.17-.16,17.49-12.21,18.12-14.8,7.8-4.16,26.32-13,30.37-15.82,6.28-4.38,9.83-9.1,14.04-15.31,10.18-15.02,19.75-32.84,12.76-51.05-4.66,2.21-5.64-3.38-9.19,3.57.14.82,2.9,1.21,3.06,5.62.08,2.26-.99,4.5-1.53,6.64l-1.02-.51c1.11-2.38,2.19-4.68,1.53-7.15-.68-2.55-1.86-2.47-2.55-3.06-3.79-3.23-3.62-2.55-8.68-2.55-.51,0-1.03-.05-1.53,0,4.59-2.2,16.93-16.44,16.85-20.67-.05-2.4-1.95-4.71-3.06-6.38-.84-1.25-.92-3.5-3.06-3.06v-3.06c3.66-.14,4.65.15,8.17-1.53,9.32-4.44,12.25-25.71,12.76-34.97.97-17.58.63-20.34-7.66-22.72-2.86-.82-6.21-1.59-9.19-1.02l-2.04-1.28c-.07-.42.1-1.02,0-1.28-.33-.81-1.53-6.16-1.53-7.15,0-.79-.21-1.57.51-1.53.9-.21,1.07.62,1.79.51,1.32-.2,2.15-2.46,2.3-2.55.41-.25,2.11-.58,2.81-.51l1.79-1.79c.98-9.39-8.78-54.53-16.59-57.43-6.73-2.5-15.22.67-15.57,8.68-.07,1.74.83,3.04,1.02,4.59.27,2.12.65,4.04,1.02,6.13l-3.06.51c-2.65-7.72-4.04-17.84-8.68-24.5v-4.08c1.77,1.48,2.21,2.92,3.06,3.06,4.42.73-1.08-5.6,7.91-4.08,1.19.46-.19,7.55,6.13,4.59,1.37,5.25,6.55,3.45,9.44.51Z" style="fill:#181d26; stroke-width:0px;"/><path d="m277.69,96.99c-.19,1.18.48.97.51,1.02.79,1.11,2.03,1.86,1.02,3.06l-1.02.51c-1.18-1.19-2.6-1.83-4.08-2.55-14.39-7.06-17.33,3.09-23.99,12.25-1.15,1.58-2.42,3.05-3.57,4.59-15.7,2.93-29.81,10.23-43.9,17.36-5.08,2.57-10.37,4.79-15.31,7.66,1.88-4.08,3.87-8.12,5.62-12.25,4.93-4.21,8.27-9.4,15.31-14.8,15.44-11.84,37.87-20.74,57.17-22.46,5.26,1.23,7.72,3.6,12.25,5.62Z" style="fill:#0cb5ac; stroke-width:0px;"/><path d="m350.18,133.74c-2.27,4.05.19,8.65-2.04,7.15-2.91-6.51-15.42-19.89-20.93-23.48-2.16-1.41-4.6-2.58-7.15-3.06-4.8-4.13-18.93-5.7-22.72-7.15-3.48-1.33-2.66-1.95-2.81-2.04,32.09,3.09,38.1,12.13,55.64,28.59Z" style="fill:#24bba1; stroke-width:0px;"/><path d="m265.44,91.37c-19.3,1.72-41.74,10.62-57.17,22.46v-.51c14.92-10.72,38.12-26.4,57.17-21.95Z" style="fill:#e1f9fb; stroke-width:0px;"/><path d="m157.73,172.03c-1.35,7.12-2.28,14.69-1.53,21.95-.08.59-.69.86-1.02,1.28,2.61,1.18,1.59,4.02,3.57,5.87-2.2,4.22-4.75,8.95-6.64,13.27-2.48,5.66-5.11,8.97-5.1,15.82,0,4.98,2.07,9.08,3.06,13.78,2.17,10.22,5.08,20.28,6.64,30.63-3.1,8.48-5.74,17.38-4.08,26.54l-1.02-.26c-.28,5.39,10.46,8.48,5.62,12.25,1.93,1.66,1.04,2.51,3.32,1.79,1.88,5.54,7.55,9,9.95,14.8.4.96,2.39,2.73,0,4.08-.64-1.29-12.76-11.34-15.31-13.27-.06-.14.06-.37,0-.51-.97-2.22-4.07-10.69-5.62-12-1.58-1.33-2.17-.46-3.06-.77-.42-.14-1.26.27-1.53-.26-.07-29.08,1.86-74.75,0-101.84,7.83.09,8.08-21.95,9.7-29.61l1.02-2.55.77,1.02c.2-2.79,1.22-1.93,1.28-2.04Z" style="fill:#181d26; stroke-width:0px;"/><path d="m155.18,320.06c-2.03-2.05-2.8-1.33-3.57-1.53-2.16-.57-4.36-1.23-6.64-1.02-.06-.37-.05-.57-.51-.51.43-1.7.66-5.8,2.04-9.7.89.3,1.48-.57,3.06.77,1.54,1.3,4.65,9.78,5.62,12Z" style="fill:#816638; stroke-width:0px;"/><path d="m307.3,179.68c-.64.11-1.75-.16-2.04.77-.34,1.07,7.84,18.09,9.19,20.42,1.09,2.42,1.4,5.41,2.04,7.4,1.7,5.27,3,10.66,4.08,16.08,1.29,1.22,4.31-1.03,5.62-1.79,1.32-.76,1.44-1.48,1.53-1.53,5.19-3,3.4-1.64,5.1-2.04-.72-.03-.51.75-.51,1.53-11.83,11.84-21.89,49.18-16.85,63.81-4.65,1.64-9-8.94-14.8-12.25,1.69-4.44,2.56-6.18.51-11.23-.29-4.05,3.71-9.29,0-6.64.18-.39.33-1.62.51-2.04.08-.19,2.8-2.6,2.55-3.32l-.77-.77c-2.83-.12-6.77-1.97-9.44-1.53.04-.36-.07-.84,0-1.02,14.52,3.43,10.15,2.62,18.38-13.02.03-1.54-2.47-4.94-3.06-6.38-4.51-10.95-10.14-21.51-14.8-32.41-2.37-5.54-4.06-12.91-6.64-18.12-1.86-3.77-2.37-6-7.15-6.13-3.64-.09-4.39.93-7.15,3.06-2.08,1.61-2.82,3.5-4.59,3.57,4.29-4.98,1.06-9.16,1.02-9.7-.52-7.06-1.25-7.47,3.57-13.27,23.39-5.56,28.1,7.18,33.69,26.54Z" style="fill:url(#f); stroke-width:0px;"/><path d="m270.03,395.1c3.82-.16,12.03-3.66,15.82-5.62-2.58,1.54-11.08,12.94-11.23,14.04-.24,1.83,2.05,4.34,2.3,4.34.41,0,1.27-1.6,6.89-4.59-.63,2.6-16.95,14.64-18.12,14.8-2.14.29-5.97-3.16-8.42-3.57-.7-1.25-3.67-3.5-4.59-5.1-3.64-6.3-6.63-11.11-8.42-18.38-1.46-.61-29.44,15.69-17.61,18.63,1.64,8.14-1.18,5.62-1.53,6.64-.39,1.11,2.44,2.03,2.55,2.55.3,1.46-2.85.72-1.53,5.62.07.25,3.82,3.16.26,3.32-1.13.05-14.35-8.11-16.59-14.55-.14-.4,2.14-1.36-2.55-7.4,4.61,3.58,5.83,3.86,6.13,4.08.63.65,2.94,5.71,5.1,4.85.2-.41-4.44-4.33-5.1-4.85-2.53-2.6-4.83-4.43-7.66-6.64,2.75-1.04.8-1.7,1.53-3.57,2.53,2.15,3.25,3.71,4.08.51.26.26,1.25.76,1.53,1.02,2.12,2.03,3.72,4.65,6.38,6.13q3.19-3.19,6.38-6.38c-1.39-.66-2.22-3.16-3.06-4.85,1.1,0-.51-2.69-1.53-4.59,3.26-6.36,11.02-7.54,15.31-12.76-.02,2.91.54,6.13,3.32,7.66,8.15,4.47,6.48-5,13.53-9.95,3.06-10.74,11.83-21.1,17.36-30.88,2.83-2.41,6.03-3.22,6.64-3.57.12-.07.39.3,2.55-1.02-3.61,6.45-1.09,11.07-2.04,13.53-.4,1.04-12.61,12.04-14.8,14.8-4.01,5.04-15,21.22-11.74,27.05,4.59,8.21,13.76,2.06,18.89-1.28Z" style="fill:#0e212d; stroke-width:0px;"/><path d="m172.03,364.47c-2.31,1.46,3.7,7.88,4.59,9.19.57.83.98.96,1.02,1.02.75,1.07,2.84,5.37,5.1,8.17-1.5-.35-.51.98,0,1.79,2.91,4.61,13.4,11.62,10.21,16.33,4.83,2.11,1.17,5.77.77,5.87-1.4.33-20.29-10.87-21.69-14.04-.31-1.25,1.05-3.4,1.53-5.87.3-1.53,1.39-2.63,1.02-4.34-4.75-6.64-6.72-14.68-9.7-22.21.92-4.5,3.84,4.43,7.15,4.08Z" style="fill:#0e212d; stroke-width:0px;"/><path d="m285.35,102.6c.96.8,1.59,1.71,2.55,2.55,3.58,6.98,10.58,14.46,13.78,21.44.32.69,1.37,3.12,1.53,3.57,2.67,7.58,2.28,13.95-.51,21.44-.85-.14-1.29-1.58-3.06-3.06-.38-.32-.48-.49-.51-.51.91-1.67-2.66-9.05-4.59-14.29-2.82-7.65-5.47-15.37-7.66-23.23l-7.66-9.44c1.01-1.2-.23-1.95-1.02-3.06,2.79.91,4.95,2.76,7.15,4.59Z" style="fill:#11a29e; stroke-width:0px;"/><path d="m315.98,145.99c2.45,1,7.84,4.74,10.21,6.64-2.9,2.94-8.07,4.74-9.44-.51-6.32,2.95-4.93-4.13-6.13-4.59-8.99-1.51-3.49,4.82-7.91,4.08,2.79-7.48,3.18-13.86.51-21.44,5.66-8.26,10.69,4.2,9.7,16.08.17.32,2.92-.31,3.06-.26Z" style="fill:#0e212d; stroke-width:0px;"/><path d="m299.64,152.63c4.64,6.66,6.03,16.78,8.68,24.5.17.51-.18,1.55,0,2.04.03.73-.55.43-1.02.51-5.59-19.36-10.3-32.1-33.69-26.54,7.97-9.59,18.3-11.61,26.03-.51Z" style="fill:#0cb5ac; stroke-width:0px;"/><path d="m333.33,336.9c-.86,3.39-2.2,6.51-3.57,9.7-.45,1.04-1.03,2.05-1.53,3.06-2.38,1.89-9.32,17.17-12.76,14.55-.82-.63.22-2.64.51-3.32,2.9-2.39,2.04-1.65,4.08-4.59.88-1.27,7.02-11.55,7.15-12.25.03-.15,0-.35,0-.51,1.2-.88,1.78-2.36,2.55-3.57.87-1.36,2.46-3.37,2.55-3.57l1.02.51Z" style="fill:#053d46; stroke-width:0px;"/><path d="m324.65,148.54c.71.63,1.36,1.38,2.04,2.04-.24.86.53,1.21.51,1.28-.1.42-.98.72-1.02.77-2.37-1.89-7.76-5.64-10.21-6.64-.15-.58,1-.95,1.02-1.02l7.66,3.57Z" style="fill:#014d53; stroke-width:0px;"/><path d="m359.36,143.44c.1.42-.05,1.04,0,1.53.05.53.6,2.34.26,2.55-3.94-.84-7.19.94-10.97,1.53-1.78-3.92-3.87-3.36-.51-8.17,2.23,1.51-.23-3.1,2.04-7.15.17.16,1.6-.17,1.79,0,2.31,2.09,6.69,6.83,7.4,9.7Z" style="fill:#015e5f; stroke-width:0px;"/><path d="m361.92,158.75c-.41,2.98-2.09,6.87-2.55,9.19-1.42.2-1.91-1.8-2.55-3.06-.64-1.27-1.36-3.6-2.04-4.85-.28-.52-1.06.81-5.62-9.95-.02-.05-.28-.5-.51-1.02,3.78-.59,7.04-2.37,10.97-1.53.35-.22-.2-2.02-.26-2.55,2.63,4.18,1.7,9.19,2.55,13.78Z" style="fill:#014d53; stroke-width:0px;"/><path d="m356.81,164.88c-1.71-.3-3.76-2.75-3.32-4.08l-.77.51q-1.79-5.62-3.57-11.23c4.56,10.77,5.33,9.43,5.62,9.95.68,1.25,1.4,3.58,2.04,4.85Z" style="fill:#053d46; stroke-width:0px;"/><path d="m328.23,372.13c-4.21,6.22-7.76,10.94-14.04,15.31-4.05,2.82-22.57,11.67-30.37,15.82-5.63,3-6.48,4.6-6.89,4.59-.25,0-2.54-2.51-2.3-4.34.15-1.1,8.65-12.49,11.23-14.04,2.63-1.35,10.05-6.24,12.76-8.17,1.16,1.48-3.18,4.49,1.28,3.57.5-.1,7.46-4.9,8.42-5.62-.68,5.76,9.38-5.51,19.91-7.15Z" style="fill:#053d46; stroke-width:0px;"/><path d="m328.23,372.13c-10.53,1.63-20.59,12.91-19.91,7.15,4.93-3.68,6.29-6.32,6.64-6.64,3.76-3.34,8.91-6.47,11.74-10.72,13.79-11.89,14.33-23.76,14.29-40.84,6.99,18.21-2.59,36.02-12.76,51.05Z" style="fill:#053d46; stroke-width:0px;"/><path d="m340.99,321.08c.03,17.08-.5,28.94-14.29,40.84,3.93-5.91,3.34-8.97,4.08-15.31.04-.38.07-.57.51-.51-.27,9.86,6.68-6.27,2.55-8.17.47-2.27,1.14-2.93,1.53-7.66.22-2.61.09-5.3.51-7.91-1.04-1.72-1.76.88-4.08,2.3,3.55-6.95,4.53-1.37,9.19-3.57Z" style="fill:#0e212d; stroke-width:0px;"/><path d="m335.37,330.27h-.51c-.16-4.4-2.93-4.79-3.06-5.62,2.33-1.42,3.05-4.02,4.08-2.3-.42,2.61-.29,5.3-.51,7.91Z" style="fill:#11a29e; stroke-width:0px;"/><path d="m333.84,337.92c-.64,3.11-2.49,5.92-2.55,8.17-.44-.05-.47.13-.51.51h-1.02c1.38-3.19,2.71-6.31,3.57-9.7.54-2.14,1.61-4.37,1.53-6.64h.51c-.39,4.73-1.06,5.39-1.53,7.66Z" style="fill:#026e6a; stroke-width:0px;"/><path d="m287.9,127.62c1.15,3.06,1.04,6.32,6.64,6.13,1.93,5.24,5.51,12.62,4.59,14.29-5.21-4.49-10.21-9.53-17.1-11.23-12.31-3.03-16.27.78-23.23,3.06-3.51,1.15-8.79,4.44-11.74,2.55-.06-.04-.61-.67-1.02-1.02-.34-.29-5.78-6.19-6.13-6.64-.19-.25.54-.73.51-.77-1.04-1.43-2.65-2.69-3.57-4.34,3.82-4.15,6.37-9.32,9.7-13.78,1.15-1.55,2.42-3.01,3.57-4.59,5.67,4.29,19.83,17.61,21.18,23.48,6.55,1.04,10.51-5.68,16.59-7.15Z" style="fill:#0cb5ac; stroke-width:0px;"/><path d="m274.12,99.03c1.41,3.18-5.52-.77-9.44,1.53-3.81,2.23-1.29,7.61-.51,8.17,2.85,2.03,2.82-4.06,10.72-2.55,3.53.67,6.76,7.57,4.34-2.55,4.98,7.01,5.72,16.13,8.68,23.99-6.08,1.47-10.04,8.18-16.59,7.15-1.35-5.87-15.51-19.19-21.18-23.48,6.66-9.16,9.6-19.31,23.99-12.25Z" style="fill:#63c8bc; stroke-width:0px;"/><path d="m294.54,133.74c-5.6.2-5.48-3.06-6.64-6.13-2.96-7.86-3.69-16.98-8.68-23.99-.97-1.36-.94-1.96-1.02-2.04l1.02-.51,7.66,9.44c2.18,7.86,4.84,15.58,7.66,23.23Z" style="fill:#63c8bc; stroke-width:0px;"/><path d="m278.2,101.58c.08.08.05.68,1.02,2.04,2.42,10.13-.81,3.22-4.34,2.55-7.9-1.5-7.87,4.58-10.72,2.55-.78-.56-3.3-5.93.51-8.17,3.92-2.3,10.85,1.64,9.44-1.53,1.48.73,2.9,1.36,4.08,2.55Z" style="fill:#fdfcfa; stroke-width:0px;"/><path d="m187.34,140.89c-.7,1.53-1.96,2.96-2.55,4.59-.4-.06-3.06-2.42-7.66-.77l7.15-8.93c2.52-2.81,5.84-4.72,8.68-7.15-1.75,4.13-3.74,8.17-5.62,12.25Z" style="fill:#fdfcfa; stroke-width:0px;"/><path d="m246.55,115.87c-3.33,4.46-5.87,9.64-9.7,13.78-.62.25-1.08.49-1.53,1.02-9.12.29-17.58,2.15-25.01,7.66.05-.8-.89-.4-1.02-.51-.82-.7-2.55-1.45-3.57-2.04-1.78-1.03-2.55.12-3.06-2.55,14.09-7.13,28.2-14.43,43.9-17.36Z" style="fill:#595462; stroke-width:0px;"/><path d="m202.65,133.23c.52,2.68,1.28,1.52,3.06,2.55-1.64.91-3.08,1.96-4.59,3.06-.63.46-1.9.98-3.57,2.55-2.3-3.73-8.67,3.3-9.19,3.57-.14.08-2.07.44-3.06,1.02-.64.05-.47-.51-.51-.51.59-1.63,1.85-3.06,2.55-4.59,4.95-2.87,10.23-5.08,15.31-7.66Z" style="fill:#2a5f6e; stroke-width:0px;"/><path d="m184.28,135.78l-7.15,8.93c4.6-1.65,7.26.71,7.66.77.04,0-.12.57.51.51-.53,1.98-.85,5.13-1.02,5.62-.67,1.87-2.04,3.43-3.06,5.1-2.5-.08-5.5.55-8.17.51-3.67-.06-4.53-3.18-11.23,2.04v-2.04c.64-3.29,4.3-8.44,6.64-10.72,1.52-1.48,12.74-9.2,15.82-10.72Z" style="fill:#a1d8cf; stroke-width:0px;"/><path d="m297.09,113.32c2.49,2.37,4.76,5.17,7.15,7.66.98,2.26-.62,4.21-2.55,5.62-3.21-6.98-10.2-14.46-13.78-21.44,3.04,2.66,6.28,5.39,9.19,8.17Z" style="fill:#014d53; stroke-width:0px;"/><path d="m172.54,329.25c2.67,4.03,13.11,9.24,17.36,12.51,5.17,11.39,12.13,21.77,19.4,31.9l.51,6.89c-4.44,7,8.11,20.41,3.06,20.67-.28-.27-1.27-.76-1.53-1.02-2.15-2.14-5.02-5.7-7.15-8.17,3.26-1.89-4.33-9.09,2.04-13.27.43.07.87.78,2.3.51-8.34-7.43-19.29-28.64-23.23-33.44-.83-1.01-12.49-10.15-13.27-10.46-.18-.07-.66.04-1.02,0-.58-.75-.45-1.42-.51-1.53,2.39-1.36.4-3.12,0-4.08l2.04-.51Z" style="fill:#014d53; stroke-width:0px;"/><path d="m165.39,301.17c1.5,4.09-1.16,6.85,9.7,16.08.18,1.31-.26,3.57,0,4.34.74,2.19,1.02,5.09,3.06,6.64-3.89,1.07-1.62-1.08-2.04-1.79-.3-.51-1.11.85-1.53,0-.09-.18.54-2.69-.51-4.08-.19-.26-2.19-.39-5.1-3.83-5.13-6.04-9.64-12.83-16.33-17.36-1.66-9.17.98-18.06,4.08-26.54,2.49,9.02,5.45,17.76,8.68,26.54Z" style="fill:#0cb5ac; stroke-width:0px;"/><path d="m144.97,317.51c.42,2.5,2.02,6.53,2.04,6.89.28,4.58-3.56,4.64,0,14.8,1.47,4.18,12.8,21.52,17.87,21.18,2.98,7.52,4.95,15.56,9.7,22.21.37,1.71-.72,2.81-1.02,4.34-.99.18-1.49,2.4-2.3,2.55-1.17.23-16.4-13.31-18.12-15.31-.74-.86-1.9-2.19-2.55-3.06-2.53-3.39-8.62-14.93-9.7-18.89-4.15-15.16.1-21.55,3.57-35.22.46-.06.45.14.51.51Z" style="fill:url(#g); stroke-width:0px;"/><path d="m151.61,318.53c.91,8.96,4.11,17.96,7.66,26.29,1.16,2.51,3.52-1.19,2.55,1.28,3.59,5.92,7.01,12.37,11.23,17.87-.45-.03-.51.46-1.02.51-3.3.34-6.22-8.58-7.15-4.08-5.07.34-16.4-17.01-17.87-21.18-3.56-10.16.28-10.22,0-14.8-.02-.36-1.62-4.39-2.04-6.89,2.28-.21,4.48.45,6.64,1.02Z" style="fill:#0cb5ac; stroke-width:0px;"/><path d="m155.18,320.06c.06.14-.06.37,0,.51.06.15-.03.74,1.02,3.06,3.43,7.6,6.91,15.09,11.74,21.95.19,1.39-.53.86-1.02,1.02l-5.1-.51c.97-2.46-1.39,1.23-2.55-1.28-3.54-8.33-6.74-17.33-7.66-26.29.77.2,1.54-.52,3.57,1.53Z" style="fill:#11a29e; stroke-width:0px;"/><path d="m152.63,301.17c6.69,4.53,11.21,11.32,16.33,17.36-.52.7,3.25,10.23,3.57,10.72l-2.04.51c-2.4-5.8-8.08-9.27-9.95-14.8-2.28.73-1.39-.12-3.32-1.79,4.85-3.77-5.9-6.86-5.62-12.25l1.02.26Z" style="fill:#015e5f; stroke-width:0px;"/><path d="m180.19,179.17c-3.18,1.65-3.93-.05-4.59,3.57-.52-.09-6.09.38-6.38.51-.89.4.41,1.25.26,1.53-5.82,10.79-11.02,21.88-16.85,32.67.08-.47.23-2.92-.51-3.06,1.89-4.32,4.43-9.05,6.64-13.27,5.02-9.63,8.76-19.08,17.61-26.03.42,0,3.23,3.56,3.83,4.08Z" style="fill:#aeebec; stroke-width:0px;"/><path d="m152.63,217.46c-.41,2.47-1.58,3.92-1.53,8.17.03,2.57.97,4.86,1.02,7.4.31.53,1.41.12,1.53.26.12.14.36.36.51.51-1.46,1.97,2.53,7.44,4.59,9.7-1-.09.31,1.14,1.53,2.55h-.51c-1.5,1.92-8.97-8.2-9.7-9.44-1.12-1.91-1.58-6.57-3.06-6.38,0-6.86,2.63-10.16,5.1-15.82.74.14.59,2.59.51,3.06Z" style="fill:#14ebf1; stroke-width:0px;"/><path d="m160.8,176.11c-.09.26.09.76,0,1.02-1.73,5.21-3.82,11.45-4.59,16.85-.75-7.26.18-14.83,1.53-21.95.15-.32.49-.97.51-1.02,1.88-.37.09,2.92,2.55,5.1Z" style="fill:#0cb5ac; stroke-width:0px;"/><path d="m309.34,226.13c-3.56,4.9-8.28,15.57-10.72,13.27.77-1.54-.38-.97-.51-2.3,3.34-3.52,4.33-8.5,6.13-12.76l-.51-1.79c-.73-4.44-13.61-32.81-16.33-40.84-.78-2.31-2.53-2.66-.51-5.1.29-.35.62-.91,1.02-1.02,2.58,5.21,4.27,12.58,6.64,18.12,4.66,10.9,10.3,21.46,14.8,32.41Z" style="fill:#18c9c8; stroke-width:0px;"/><path d="m298.62,239.41c-1.1,2.2-4.07,4.84-4.59,6.13-.07.18.04.66,0,1.02-1.02.17-4.15,2.18-4.08,3.57-1.14.02-19.04,5.26-21.95,6.13.13-2,6.56-3.53,9.44-5.1,6.53-3.56,19.63-14.34,20.67-21.95,1.91-.05,5.09-4.38,5.62-6.64l.51,1.79c-1.8,4.26-2.79,9.24-6.13,12.76.13,1.32,1.28.75.51,2.3Z" style="fill:#0cb5ac; stroke-width:0px;"/><path d="m294.03,245.53c.52-1.29,3.5-3.93,4.59-6.13,2.44,2.3,7.16-8.38,10.72-13.27.6,1.45,3.09,4.84,3.06,6.38-8.22,15.64-3.85,16.45-18.38,13.02Z" style="fill:#026e6a; stroke-width:0px;"/><path d="m314.44,190.4c.59,2.87,1.55,5.83,2.04,8.68.24,1.38,1.02,6.11,1.02,6.64,0,1.52-.29,1.44-1.02,2.55-.64-1.99-.95-4.98-2.04-7.4-1.35-2.33-9.52-19.35-9.19-20.42.29-.92,1.4-.66,2.04-.77.47-.08,1.05.22,1.02-.51,3.13,8.71,4.37,7,4.59,7.4.42.76-.08,4.29,1.53,3.83Z" style="fill:#36332d; stroke-width:0px;"/><path d="m270.54,345.58c-5.53,9.78-14.3,20.15-17.36,30.88-7.05,4.95-5.38,14.42-13.53,9.95-2.78-1.52-3.34-4.74-3.32-7.66,0-.66-.09-1.42,0-2.04,1.22,4.21.49.33,3.57-4.85,1.2-2.01,13.9-20.02,14.8-20.93,2.23-2.25,9.11-6.03,12-8.93,1-1.01,10.68-16.37,9.95-8.42-.2,2.15-4.74,9.55-6.13,12Z" style="fill:#411428; stroke-width:0px;"/><path d="m166.92,346.6c-5.26,1.74-1,1.62,1.79,4.08,6.25,5.53,11.11,13.64,12.51,10.21,7.73,10.43,14.48,21.27,22.97,31.14,2.12,2.47,5,6.03,7.15,8.17-.84,3.2-1.55,1.64-4.08-.51-.38-.32-1.73-1.95-4.08-4.08-6.82-6.17-19.8-19.97-20.93-20.93-2.25-4.13-6.4-7.09-9.19-10.72-4.22-5.49-7.64-11.94-11.23-17.87l5.1.51Z" style="fill:#181d26; stroke-width:0px;"/><path d="m328.23,349.67c-6.48,13.11-10.21,14.28-11.74,17.36-5.91,2.27-9.82,9.15-14.55,12.76-.87.66-2.32.82-3.32,1.53-2.71,1.93-10.13,6.81-12.76,8.17-3.79,1.95-12.01,5.45-15.82,5.62,8.24-5.36,18.05-14.6,29.86-18.89,3.14-2.73,5.37-6.39,8.42-9.19,1.89-1.73,3.7-3.4,5.62-5.1,1.3-1.15,1.95-.95,2.04-1.02-.29.68-1.33,2.69-.51,3.32,3.44,2.62,10.38-12.66,12.76-14.55Z" style="fill:#181d26; stroke-width:0px;"/><path d="m212.35,377.74c1.92,3.12,8.56,15.07,10.21,18.38.84,1.68,1.67,4.19,3.06,4.85q-3.19,3.19-6.38,6.38c-2.66-1.47-4.27-4.1-6.38-6.13,5.04-.27-7.5-13.68-3.06-20.67l-.51-6.89c1.29,1.08,2.2,2.68,3.06,4.08Z" style="fill:#053d46; stroke-width:0px;"/><path d="m236.34,376.72c-.09.62,0,1.38,0,2.04-4.29,5.23-12.05,6.41-15.31,12.76-2.12-3.95-4.46-7.8-6.64-11.74,2.93-2.71,7.29-.71,13.02-2.55,2.99-.96,8.92-5.96,11.74-8.17.95.51-2.58,6.09-2.81,7.66Z" style="fill:#053d46; stroke-width:0px;"/><path d="m214.39,379.78c2.18,3.94,4.51,7.79,6.64,11.74,1.02,1.9,2.63,4.59,1.53,4.59-1.65-3.3-8.29-15.25-10.21-18.38h.51c.29.51,1.25,1.53,1.53,2.04Z" style="fill:#026e6a; stroke-width:0px;"/><path d="m213.37,409.9c.67.52,5.3,4.44,5.1,4.85-2.16.86-4.47-4.2-5.1-4.85Z" style="fill:#053d46; stroke-width:0px;"/><path d="m252.68,409.39c.92,1.6,3.9,3.86,4.59,5.1,10.4,18.6-12.52,29.44-23.99,12.51-.76-1.13-2.79-5.15-3.06-6.38,1.24-.94,2.32-.03,3.57-1.02.32-.25.79-7.17,2.04-7.91,1.03-.6,1.91,1.71,2.3,1.79.39.08.2-1.01.26-1.02.97-.28,1.1.78,1.53.26.23-.27.41-2.84,3.06-6.38,4.14.21,6.03,1.17,9.7,3.06Z" style="fill:url(#h); stroke-width:0px;"/><path d="m242.98,406.33c-2.66,3.54-2.84,6.11-3.06,6.38-.43.52-.56-.53-1.53-.26l2.81-5.1c-6.43.2-10.72,6.8-7.4,12.25-1.26.99-2.33.08-3.57,1.02-2.19-9.78,3.19-14.77,12.76-14.29Z" style="fill:#ba8a48; stroke-width:0px;"/><path d="m238.39,412.45c-.05.01.14,1.1-.26,1.02-.39-.08-1.27-2.39-2.3-1.79-1.25.74-1.72,7.66-2.04,7.91-3.32-5.45.97-12.05,7.4-12.25l-2.81,5.1Z" style="fill:#fdfcfa; stroke-width:0px;"/><path d="m316.49,367.02c-.86,1.72-1.26,3.72-1.53,5.62-.35.31-1.71,2.96-6.64,6.64-.96.72-7.93,5.51-8.42,5.62-4.45.92-.11-2.09-1.28-3.57,1-.71,2.45-.87,3.32-1.53,4.73-3.61,8.64-10.5,14.55-12.76Z" style="fill:#741535; stroke-width:0px;"/><path d="m316.49,324.65c-2.17,1.09-6.23,5.82-8.17,7.66-1.97,1.88-3.78,3.59-5.62,5.62-.56.62-1.22,1.17-1.53,1.53-1.94-.84-5.8-4.12-7.66-4.59,5.72-4.67,12.45-7.9,18.38-12.25l4.59,2.04Z" style="fill:#0d2c35; stroke-width:0px;"/><path d="m314.95,302.19c.73,1.31,3.47,7.42,4.34,7.66,6.04,1.63,14.2-9.83,11.49-19.4.34,0,.68.01,1.02,0v3.06c0,1.02,0,2.04,0,3.06-.02,9.44-2.16,11.81-12.25,20.42-2.31,1.97-5.18,3.8-7.66,5.62-5.93,4.35-12.65,7.58-18.38,12.25-1.35-.34-3.86.6-4.08-.51,10.73-10.57,15.32-20.54,14.29-35.73-.42-6.24-3.04-13.56-3.06-14.29,8.28,11.07,4.65,30.65,7.4,11.23,6.49,16.49-3.55,18.12,5.1,13.78,1.95-.98,4.24,3.37,1.79-7.15Z" style="fill:#11a29e; stroke-width:0px;"/><path d="m321.08,323.63c-2.52.23-2.03-.28-4.59,1.02l-4.59-2.04c2.47-1.81,5.34-3.64,7.66-5.62,5.71,2.9,14.04-10.45,14.8-13.02.44-1.5-1.04-2.9-1.02-3.06.02-.17,1.53-.53,1.53-1.02s-1.54-.87-1.53-1.02c0-.14,2.03-1.89,1.53-2.3,1.12,1.67,3.02,3.98,3.06,6.38.08,4.24-12.26,18.47-16.85,20.67Z" style="fill:#014d53; stroke-width:0px;"/><path d="m334.86,296.58c-.19-.16-2.21.11-3.06,0,0-1.02,0-2.04,0-3.06,2.14-.44,2.22,1.81,3.06,3.06Z" style="fill:#0e212d; stroke-width:0px;"/><path d="m303.72,298.62c1.03,15.19-3.57,25.16-14.29,35.73l-1.28,1.53c-4.22-.95-7.52,4.55-8.42,5.1-2.16,1.32-2.43.95-2.55,1.02,10.92-14.46,18.16-18.65,22.97-37.26.55-2.13,1.19-8.11,1.53-8.93,1.17-2.83.54,3.58,2.04,2.81Z" style="fill:#053d46; stroke-width:0px;"/><path d="m314.95,302.19c2.45,10.52.17,6.17-1.79,7.15-8.66,4.34,1.38,2.71-5.1-13.78-2.75,19.42.88-.16-7.4-11.23-.04-1.42,1.09-5.98,2.55-6.64,1.02.9,7.01,16.03,11.74,24.5Z" style="fill:#053d46; stroke-width:0px;"/><path d="m334.86,296.58c.5.41-1.52,2.16-1.53,2.3-.01.15,1.53.53,1.53,1.02s-1.51.85-1.53,1.02c-.02.16,1.46,1.57,1.02,3.06-.76,2.57-9.1,15.92-14.8,13.02,10.09-8.61,12.23-10.98,12.25-20.42.86.11,2.87-.16,3.06,0Z" style="fill:#015e5f; stroke-width:0px;"/><path d="m303.21,277.69c-1.46.66-2.59,5.21-2.55,6.64.02.73,2.64,8.05,3.06,14.29-1.5.77-.87-5.64-2.04-2.81-.34.82-.98,6.81-1.53,8.93-1.66-3.84.4-8.34.51-13.02-4.11-3.42,1.44-6.15-2.04-9.19.99-1.51,1.74-7.37,4.59-4.85Z" style="fill:#0e212d; stroke-width:0px;"/><path d="m180.19,373.15c.7.36,1.44,1.02,2.04,1.53,1.13.96,14.1,14.76,20.93,20.93-1.32,5.21-3.59.83-7.15,1.02-4.7-4.33-9.26-8.81-13.27-13.78-2.26-2.8-4.36-7.1-5.1-8.17l2.55-1.53Z" style="fill:#411428; stroke-width:0px;"/><path d="m207.25,399.69c-.73,1.88,1.22,2.53-1.53,3.57-2.11-1.65-4.51-4.47-6.13-3.57-1.23-1.06-2.35-1.94-3.57-3.06,3.55-.19,5.83,4.19,7.15-1.02,2.36,2.13,3.7,3.76,4.08,4.08Z" style="fill:#2a1b27; stroke-width:0px;"/><path d="m205.72,403.26c2.83,2.21,5.13,4.04,7.66,6.64-.29-.23-1.52-.5-6.13-4.08-2.57-2-5.18-4-7.66-6.13,1.61-.89,4.01,1.93,6.13,3.57Z" style="fill:#028483; stroke-width:0px;"/><path d="m182.23,374.68c-.6-.51-1.34-1.17-2.04-1.53-1.28-.66-5.87-2.59-3.57.51-.89-1.31-6.91-7.73-4.59-9.19.51-.05.57-.54,1.02-.51,2.79,3.63,6.94,6.59,9.19,10.72Z" style="fill:#371e36; stroke-width:0px;"/><path d="m180.19,373.15l-2.55,1.53c-.04-.06-.46-.19-1.02-1.02-2.3-3.1,2.3-1.17,3.57-.51Z" style="fill:#f3d0e6; stroke-width:0px;"/><path d="m294.54,105.15c.15.09-.67.71,2.81,2.04,3.79,1.45,17.91,3.01,22.72,7.15,1.42,1.22,3.9,5.58,4.59,7.66-1.86,1-2.34.1-4.08,0-.68-.04-1.36.02-2.04,0-2.81-.09-3.25-1.59-5.62-.51-1.15-3.19-12.37-8.22-15.82-8.17-2.91-2.78-6.15-5.51-9.19-8.17-.97-.85-1.59-1.75-2.55-2.55l-1.02-6.13c3.18,1.02,4.27,5.22,10.21,8.68Z" style="fill:#ca4a63; stroke-width:0px;"/><path d="m284.33,96.48l1.02,6.13c-2.2-1.83-4.36-3.69-7.15-4.59-.03-.05-.7.16-.51-1.02,2.49-.66,3.95-1.37,6.64-.51Z" style="fill:#d68592; stroke-width:0px;"/><path d="m312.91,121.49c-1.74.8-2,2.33-2.04,4.08-.02.68.01,1.36,0,2.04-2.06-2.4-4.47-4.38-6.64-6.64-2.38-2.49-4.66-5.28-7.15-7.66,3.45-.05,14.67,4.98,15.82,8.17Z" style="fill:#8b2747; stroke-width:0px;"/><path d="m327.21,117.41c-1.26.75-1.52,4.04-2.55,4.59-.69-2.08-3.17-6.43-4.59-7.66,2.55.48,4.99,1.65,7.15,3.06Z" style="fill:#3c100f; stroke-width:0px;"/><path d="m348.13,140.89c-3.36,4.81-1.27,4.25.51,8.17.24.52.49.97.51,1.02q1.79,5.62,3.57,11.23c.38,5.22,1.68,14.93-1.02,15.82-.05-.7-.36-2.09-.51-3.06-3.85-24.21-22.32-32.5-27.05-38.28-3.36-4.1-2.51-4.76-3.06-6.13,2.23-2.69-1.14-4.37-.51-7.66,1.74.1,2.23,1,4.08,0,1.03-.55,1.29-3.85,2.55-4.59,5.51,3.59,18.02,16.97,20.93,23.48Z" style="fill:#cb6075; stroke-width:0px;"/><path d="m324.14,135.78c4.73,5.78,23.21,14.08,27.05,38.28-4.76-2.95-7.74-8.94-13.27-10.21-2.7-4.55-7.41-9.56-11.23-13.27-.68-.66-1.33-1.41-2.04-2.04-.1-.08.23-.71-1.53-2.04.57-1.28-1.37-5.94-2.04-7.15-.07-.81.9-.39,1.02-.51,1.64-1.58-2.23-5.33,2.04-3.06Z" style="fill:#8b2747; stroke-width:0px;"/><path d="m351.2,174.07c.15.97.46,2.37.51,3.06.28,4.16-.41,6.69-5.36,3.57-2.74-1.73-5.06-11.18-8.42-16.85,5.54,1.27,8.51,7.26,13.27,10.21Z" style="fill:#5c163a; stroke-width:0px;"/><path d="m318.53,122c.36,2.75,1.52,5.13,2.55,7.66.56,1.37-.29,2.02,3.06,6.13-4.27-2.26-.4,1.49-2.04,3.06-5.08-8.53-6.8-18.72-11.23-13.27.04-1.75.3-3.29,2.04-4.08,2.37-1.08,2.81.42,5.62.51Z" style="fill:#fbdcda; stroke-width:0px;"/><path d="m320.57,122c-.63,3.28,2.74,4.97.51,7.66-1.03-2.53-2.2-4.91-2.55-7.66.68.02,1.37-.04,2.04,0Z" style="fill:#e7bec3; stroke-width:0px;"/><path d="m322.1,138.85c-.12.12-1.09-.3-1.02.51-.77-1.39-2.84-4.26-4.59-4.59-.81-2.91-3.51-4.7-5.62-7.15.01-.68-.02-1.36,0-2.04,4.43-5.45,6.15,4.74,11.23,13.27Z" style="fill:#b53d5c; stroke-width:0px;"/><path d="m321.08,139.36c.67,1.2,2.62,5.87,2.04,7.15-1.37-1.03-4.06-1.65-5.62-3.06.05-.7-.74-7.65-1.02-8.68,1.75.34,3.82,3.2,4.59,4.59Z" style="fill:#ead7e9; stroke-width:0px;"/><path d="m317.51,143.44c1.55,1.42,4.25,2.04,5.62,3.06,1.77,1.33,1.44,1.96,1.53,2.04l-7.66-3.57c.23-.91-.53-1.21-.51-1.28.1-.44,1.02-.2,1.02-.26Z" style="fill:#1f1e2b; stroke-width:0px;"/><path d="m310.87,127.62c2.1,2.45,4.81,4.23,5.62,7.15.28,1.03,1.07,7.98,1.02,8.68,0,.05-.92-.18-1.02.26-.02.07.74.37.51,1.28-.02.07-1.17.45-1.02,1.02-.14-.06-2.9.58-3.06.26.99-11.88-4.04-24.34-9.7-16.08-.16-.46-1.21-2.88-1.53-3.57,1.94-1.41,3.53-3.36,2.55-5.62,2.16,2.26,4.58,4.24,6.64,6.64Z" style="fill:#053d46; stroke-width:0px;"/><path d="m330.78,346.6c-.74,6.35-.15,9.41-4.08,15.31-2.83,4.25-7.98,7.38-11.74,10.72.27-1.89.67-3.89,1.53-5.62,1.53-3.08,5.26-4.25,11.74-17.36.5-1.02,1.08-2.02,1.53-3.06h1.02Z" style="fill:#806f37; stroke-width:0px;"/><path d="m331.29,346.09c.06-2.25,1.91-5.06,2.55-8.17,4.12,1.9-2.82,18.03-2.55,8.17Z" style="fill:#0e212d; stroke-width:0px;"/><path d="m332.31,220.52c0,.98,1.2,6.33,1.53,7.15-3.67,3.53-7.98,13.81-9.19,18.63-.7,2.8-3.4,12.92,1.02,7.91-.16,1.24-.52,2.3-.51,3.57.04,7.57,4.84,15.3,13.27,11.74.88,6.49.84,12.91,1.53,19.4-3.52,1.68-4.5,1.39-8.17,1.53-.34.01-.68,0-1.02,0-6.1,0-13.11.28-15.31-6.13-5.04-14.63,5.01-51.96,16.85-63.81Z" style="fill:#63462c; stroke-width:0px;"/><path d="m335.88,230.22c-1.69,2.23-3.33,4.65-4.59,7.15-.32.64-.7,2.32-1.02,3.06-2.05,4.73-3.91,8.51-4.59,13.78-4.42,5.01-1.72-5.11-1.02-7.91,1.2-4.82,5.52-15.1,9.19-18.63.1.26-.07.85,0,1.28l2.04,1.28Z" style="fill:#36332d; stroke-width:0px;"/><path d="m339.97,288.92c-.7-6.48-.65-12.91-1.53-19.4-.03-.19.84-3.35-1.02-3.06,3.8-7.5,11.85-28.55,7.66-35.22,8.29,2.38,8.63,5.14,7.66,22.72-.51,9.26-3.44,30.53-12.76,34.97Z" style="fill:#ebb356; stroke-width:0px;"/><path d="m345.07,231.24c4.2,6.67-3.86,27.72-7.66,35.22-4.24,1.71.12-11.12,1.53-17.36,2.18-9.65,7.39-23.06-4.08-7.15-.07-1.54-1.9-4.23-3.57-4.59,1.27-2.49,2.9-4.91,4.59-7.15,2.98-.57,6.32.2,9.19,1.02Z" style="fill:#fdfcfa; stroke-width:0px;"/><path d="m338.95,249.1c-3.85,3.31-.72,15.41-8.42,8.17l-5.36.51c0-1.27.35-2.33.51-3.57.68-5.28,2.54-9.05,4.59-13.78,4.91,5.66,3.86,2.55,4.59,1.53,11.48-15.91,6.26-2.5,4.08,7.15Z" style="fill:#ebb356; stroke-width:0px;"/><path d="m338.95,249.1c-1.41,6.24-5.77,19.07-1.53,17.36,1.86-.29,1,2.87,1.02,3.06-8.44,3.56-13.24-4.17-13.27-11.74l5.36-.51c7.7,7.25,4.58-4.86,8.42-8.17Z" style="fill:#ba8a48; stroke-width:0px;"/><path d="m334.86,241.96c-.73,1.02.32,4.13-4.59-1.53.32-.74.7-2.42,1.02-3.06,1.67.37,3.5,3.05,3.57,4.59Z" style="fill:#e4e7d0; stroke-width:0px;"/><path d="m314.95,173.56c.37.53.22,3.94,6.13,9.19.43,5.98,3.19,12.66,4.59,18.89-3.74,2.37-5.58-4.31-9.19-2.55-.5-2.84-1.45-5.81-2.04-8.68-.95-4.6-2.25-9.15-3.06-13.78-.37-2.09-.76-4.01-1.02-6.13.76-.12,4.44,2.84,4.59,3.06Z" style="fill:#ba8a48; stroke-width:0px;"/><path d="m336.9,216.95c-.15.09-.98,2.35-2.3,2.55-.71.11-.88-.72-1.79-.51-1.71.4.09-.95-5.1,2.04-.11-3.3,3.28-2.63,3.57-6.13,0-.04-.46.17-.51-.51-.44-5.86-2.19-12.33-4.08-17.87,8.88,2.82,7.49,13.41,10.21,20.42Z" style="fill:#cf9a48; stroke-width:0px;"/><path d="m314.95,173.56c-.16-.23-3.83-3.19-4.59-3.06-.19-1.55-1.1-2.85-1.02-4.59,5.86-2.33,9.58,6.72,5.62,7.66Z" style="fill:#e5f1f6; stroke-width:0px;"/><path d="m311.38,176.62c.82,4.64,2.11,9.18,3.06,13.78-1.61.46-1.11-3.07-1.53-3.83-.22-.4-1.47,1.31-4.59-7.4-.18-.49.17-1.53,0-2.04l3.06-.51Z" style="fill:#36332d; stroke-width:0px;"/><path d="m327.21,208.27c.4,2.2,1.51,5.81,1.53,6.13.02.47-3.84,8.04,2.55.51-.29,3.49-3.69,2.82-3.57,6.13-.09.05-.21.77-1.53,1.53l-7.66-16.33c3.54.98,6.13,3.41,8.68,2.04Z" style="fill:#755834; stroke-width:0px;"/><path d="m318.53,206.23l7.66,16.33c-1.3.75-4.32,3.01-5.62,1.79-1.09-5.42-2.39-10.81-4.08-16.08.73-1.11,1.03-1.03,1.02-2.55.43.01.53.37,1.02.51Z" style="fill:#504131; stroke-width:0px;"/><path d="m336.9,216.95c-2.72-7.01-1.33-17.59-10.21-20.42-1.6-4.67-4.22-9.03-5.62-13.78-5.91-5.25-5.75-8.65-6.13-9.19,3.96-.93.25-9.98-5.62-7.66.34-8,8.84-11.18,15.57-8.68,7.81,2.9,17.57,48.04,16.59,57.43l-1.79,1.79c-.7-.07-2.4.26-2.81.51Z" style="fill:#ebb356; stroke-width:0px;"/><path d="m316.23,158.24c10.38-1.88,19.03,25.76,17.36,33.69-1.56,1.19-4.13-15.57-8.42-22.72-5.75-9.56-11.24-6.74-11.74-8.17-.25-.71,2.23-2.7,2.81-2.81Z" style="fill:#fbf8e6; stroke-width:0px;"/><path d="m326.69,196.53c1.89,5.54,3.64,12.01,4.08,17.87h-2.04c-.02-.32-1.13-3.92-1.53-6.13-.4-2.18-1.04-4.46-1.53-6.64-1.41-6.22-4.17-12.91-4.59-18.89,1.4,4.76,4.02,9.12,5.62,13.78Z" style="fill:#413329; stroke-width:0px;"/><path d="m325.67,201.63c.49,2.18,1.13,4.46,1.53,6.64-2.55,1.37-5.14-1.06-8.68-2.04-.49-.14-.59-.5-1.02-.51,0-.53-.78-5.26-1.02-6.64,3.6-1.76,5.45,4.92,9.19,2.55Z" style="fill:#966f3b; stroke-width:0px;"/><path d="m330.78,214.39c.05.68.51.47.51.51-6.39,7.53-2.53-.04-2.55-.51h2.04Z" style="fill:#f8e0ad; stroke-width:0px;"/><path d="m239.92,134.76c-5.73,5.06-3.11,5.55,6.13,6.64.41.36.96.98,1.02,1.02-2.39.78-8.05-1.07-10.46-2.55-11.04,16.88-18.2,51.85-12,70.44-4.61-3.59-.96-17.94-4.59-14.04-.84.9-7.02,12.31-9.19,15.31-5.68,7.87-12.61,13.84-12.76,14.8-.35,2.14,2.03.31,2.04,3.06,0,.74-3.61,11.43-3.06,14.55-1.76-1.53-4.43-3.45-5.62-4.59-1.81-1.76-4.49-4.35-6.13-6.13-.82-.89-1.28-2.46-2.55-3.06,1.59-3.43,3.67-.96,3.57-7.91-.1-7.37-5.11-36.08-15.31-37.52-.49-.07-1.03.04-1.53,0,.15-.28-1.15-1.14-.26-1.53.29-.13,5.86-.6,6.38-.51,1.95.33,10.98,9.71,12,9.7q9.06-6,18.12-12c-11.06-10.31-9.87-5.46-20.42-.26,2.66-8.1,4.05-16.27,8.68-23.74,2.14-3.46,13-15.65,16.33-18.12-1.07,1.96-2.4,3.71-3.57,5.62-1.8,2.92-2.8,4.5-5.1,7.15-.68.79-5.88-.33-10.21,17.1.79,1.52,4.9-2.82,5.62-3.32,2.45-1.71,4.98-3.35,7.4-5.1-4.99,16.87,6.49-1.76,6.38-5.62,2.7,1.66,20.66-18.95,24.5-23.48.45-.53.91-.78,1.53-1.02.92,1.65,2.54,2.91,3.57,4.34.03.04-.7.52-.51.77Z" style="fill:#0cb5ac; stroke-width:0px;"/><path d="m246.04,141.4c-9.24-1.09-11.86-1.57-6.13-6.64.34.44,5.78,6.34,6.13,6.64Z" style="fill:#11a29e; stroke-width:0px;"/><path d="m210.31,138.33c-3.33,2.47-14.19,14.66-16.33,18.12-4.63,7.47-6.02,15.63-8.68,23.74-.36,1.1-.52,2.9-.77,3.06-1.35-1.48-2.84-2.77-4.34-4.08-.6-.53-3.4-4.08-3.83-4.08-8.85,6.96-12.59,16.4-17.61,26.03-1.98-1.85-.97-4.69-3.57-5.87.33-.41.94-.69,1.02-1.28.78-5.4,2.87-11.63,4.59-16.85,1.84.88,8.1-3.2,9.95-4.59,5.24-3.95,9.26-9.9,13.53-14.8,4.33-4.98,8.82-12.15,13.27-16.33,1.67-1.57,2.94-2.09,3.57-2.55,3.47,6.07,3.68,3.85,8.17-1.02.13.11,1.07-.29,1.02.51Z" style="fill:#0d2c35; stroke-width:0px;"/><path d="m209.29,137.82c-4.49,4.87-4.7,7.09-8.17,1.02,1.52-1.1,2.95-2.16,4.59-3.06,1.02.59,2.75,1.34,3.57,2.04Z" style="fill:#1f414f; stroke-width:0px;"/><path d="m197.55,141.4c-4.45,4.18-8.94,11.35-13.27,16.33-1.25.22-2.84-1.01-3.06-1.02,1.02-1.67,2.39-3.23,3.06-5.1,2.27-1.68,5.86-5.29,4.08-6.64.52-.28,6.89-7.31,9.19-3.57Z" style="fill:#015e5f; stroke-width:0px;"/><path d="m188.36,144.97c1.78,1.34-1.82,4.95-4.08,6.64.17-.49.49-3.64,1.02-5.62.99-.58,2.92-.95,3.06-1.02Z" style="fill:#058375; stroke-width:0px;"/><path d="m184.28,157.73c-4.26,4.9-8.29,10.85-13.53,14.8-1.85,1.4-8.11,5.47-9.95,4.59.09-.26-.09-.76,0-1.02.52-1.54.93-3.06,1.53-4.59,2-5.05,4.91-12.8,10.72-14.29,2.66.04,5.67-.59,8.17-.51.22,0,1.81,1.24,3.06,1.02Z" style="fill:#053d46; stroke-width:0px;"/><path d="m173.05,157.22c-5.81,1.49-8.72,9.24-10.72,14.29q-.26-6.13-.51-12.25c6.7-5.22,7.56-2.1,11.23-2.04Z" style="fill:#0cb5ac; stroke-width:0px;"/><path d="m175.6,182.74c.67-3.62,1.42-1.92,4.59-3.57,1.5,1.32,2.99,2.6,4.34,4.08.25-.17.4-1.96.77-3.06,10.55-5.2,9.36-10.06,20.42.26q-9.06,6-18.12,12c-1.02.01-10.05-9.36-12-9.7Z" style="fill:#63c8bc; stroke-width:0px;"/><path d="m201.63,375.7c.33,2.37,2.71,2.75,4.59,3.06-6.37,4.18,1.22,11.39-2.04,13.27-8.49-9.86-15.24-20.71-22.97-31.14-2.41-3.25-4.28-8.09-7.66-10.72-2.06-2.96-2.39-4.87-2.55-5.1.63-.02.76-.61,1.02-1.02,1.66-2.62,3.54.82,2.04,1.28,4.15,4.44,8.88,8.6,12.76,13.27,4.24,5.1,9.87,15.95,14.8,17.1Z" style="fill:#127881; stroke-width:0px;"/><path d="m178.15,328.23c1.88,1.43,5.84,2.55,7.4.51,6.72,7.21,8.8,15.51,12.51,22.21,4.94,8.92,9.85,17.89,14.8,26.8h-.51c-.86-1.4-1.77-3-3.06-4.08-7.26-10.14-14.23-20.51-19.4-31.9-4.25-3.26-14.69-8.48-17.36-12.51-.32-.49-4.09-10.02-3.57-10.72,2.92,3.44,4.91,3.57,5.1,3.83,1.05,1.39.42,3.9.51,4.08.43.85,1.23-.51,1.53,0,.42.71-1.85,2.85,2.04,1.79Z" style="fill:#11a29e; stroke-width:0px;"/><path d="m206.23,378.76c-1.88-.31-4.27-.69-4.59-3.06-2.11-4.67-5.65-8.47-8.68-12.51-.83-1.11.05-1.47,0-1.53-4.24-5.61-9.16-11.53-13.78-16.85-4.33-4.98-9.3-7.2-7.15-9.44.78.32,12.44,9.45,13.27,10.46,3.94,4.79,14.88,26,23.23,33.44-1.43.27-1.87-.44-2.3-.51Z" style="fill:#0cb5ac; stroke-width:0px;"/><path d="m172.03,335.37c-2.16,2.24,2.82,4.47,7.15,9.44,4.62,5.31,9.54,11.23,13.78,16.85.05.06-.83.42,0,1.53,3.03,4.04,6.56,7.84,8.68,12.51-4.94-1.15-10.56-12-14.8-17.1-3.88-4.67-8.61-8.83-12.76-13.27,1.5-.46-.38-3.9-2.04-1.28.3-3.83-.48-3.4-.51-3.57-.29-1.66-.56-3.41-.51-5.1.36.04.84-.07,1.02,0Z" style="fill:#028483; stroke-width:0px;"/><path d="m173.56,350.18c3.38,2.63,5.25,7.47,7.66,10.72-1.39,3.43-6.26-4.68-12.51-10.21-2.78-2.46-7.05-2.34-1.79-4.08.49-.16,1.21.37,1.02-1.02l5.62,4.59Z" style="fill:#313b4b; stroke-width:0px;"/><path d="m171,184.79c-.32,1.37,1.19.69,1.02,1.79-.31,2.03-18.11,32.95-18.89,36.5l-1.02-.26c-.07,1.71.47,3.11-1.02,2.81-.05-4.25,1.12-5.7,1.53-8.17,5.82-10.79,11.02-21.88,16.85-32.67.5.04,1.04-.07,1.53,0Z" style="fill:#015e5f; stroke-width:0px;"/><path d="m182.74,230.22c-.06.14.07.37,0,.51-2.52,1.69-5.05,5.54-6.64,8.17-.07.11-.79.05-1.53,2.04-.09.25-2.03,1.47-.51,4.85.93,2.07,18.3,13.27,20.93,17.1-.03.05-.7-.17-.51,1.02-3.48-1.22-8.58-3.38-11.74-5.1-6.42-3.51-12.52-6.73-18.38-11.23,6.06-.13-5.8-9.44-10.21-13.78-.15-.15-.39-.38-.51-.51-.95-3.98-1.41-6.08-.51-10.21.77-3.55,18.58-34.47,18.89-36.5.17-1.1-1.35-.41-1.02-1.79,10.2,1.44,15.22,30.15,15.31,37.52.09,6.95-1.98,4.48-3.57,7.91Z" style="fill:#1f1e2b; stroke-width:0px;"/><path d="m164.37,247.57c-1.82-1.4-4-2.31-5.62-4.08-2.06-2.26-6.05-7.72-4.59-9.7,4.4,4.34,16.27,13.66,10.21,13.78Z" style="fill:#0d2c35; stroke-width:0px;"/><path d="m153.14,223.07c-.9,4.13-.44,6.23.51,10.21-.12-.14-1.23.27-1.53-.26-.05-2.54-.99-4.83-1.02-7.4,1.49.3.95-1.1,1.02-2.81l1.02.26Z" style="fill:#439d8e; stroke-width:0px;"/><path d="m170.49,333.84c.06.12-.07.78.51,1.53-.05,1.7.22,3.44.51,5.1-2.41-4.78-5.96-6.17-10.21-9.7-1.54-2.53-3.27-4.84-5.1-7.15-1.05-2.32-.96-2.91-1.02-3.06,2.55,1.94,14.68,11.98,15.31,13.27Z" style="fill:#db6f80; stroke-width:0px;"/><path d="m161.31,330.78c.24.39.56,2.33,1.53,3.83,1.78,2.75,6.22,5.59,4.08,5.62,1.26,1.97,3.84,4.49,4.08,4.85.16.24.49,2.15,2.55,5.1l-5.62-4.59c-4.83-6.86-8.31-14.35-11.74-21.95,1.84,2.31,3.57,4.61,5.1,7.15Z" style="fill:#50222d; stroke-width:0px;"/><path d="m171.51,340.48c.03.18.81-.25.51,3.57-.26.41-.39,1.01-1.02,1.02-.24-.36-2.82-2.88-4.08-4.85,2.14-.03-2.31-2.86-4.08-5.62-.97-1.5-1.29-3.44-1.53-3.83,4.25,3.53,7.79,4.91,10.21,9.7Z" style="fill:#8b2747; stroke-width:0px;"/><path d="m298.11,229.2c-1.04,7.61-14.14,18.39-20.67,21.95-2.88,1.57-9.32,3.11-9.44,5.1-1.87.56-4.85,1.79-7.15,2.55-.71-2.02-5.85,1.49-7.66,2.55-3.38,1.19-10.29,3.17-12.25,4.08-.98.46-1.93.56-2.55,1.02-2.6-1.03-1.94-1.89-2.04-2.04l-1.02-16.85c3.51-.07,6.15-3.47,9.19-5.1-.26,2.97-.06,6.25.51,9.19.22,1.16.97,6.18,2.81,5.62,1.17-.36,13.84-16.77,14.55-19.4,1.04-.65,2.66-1.77,1.79-3.06-12.86,3.44-6.28-1.66-5.62-9.7-2.28,1.81-8.19,5.8-9.44,7.15-5.66-1.27,5.48-12.47,10.72-20.67,2.41-3.77,9.51-15.4,8.17-16.59,4.51-5.65,8.79-13.6,14.8-14.29.38,1.25-1.02.96-1.02,1.28-.02,3.63,17.88,35.92,16.33,47.22Z" style="fill:#181d26; stroke-width:0px;"/><path d="m224.6,210.31c.56,1.68,1.15,4.35,3.57,4.08-2.92,6.34-7.32,13.13-4.08,20.67,5.89,13.75,18.11-8.7,20.93-6.38-.22.33-1.3,3.27-4.08,6.89-4.3,5.59-10.47,7.01-4.08,8.42-.56,1.09-1.1,1.74-1.53,3.57l1.02,16.85c-3.1-4.34-5.2-9.96-7.4-14.8-.49-.2-5.12,3.01-5.87,3.57-.4.3-.03-1.26-3.06,2.55-.12.15-1.15-.86-1.28,3.06-4.9-2.74-9.96-4.86-14.55-8.17-3.58-2.58-5.05-4.81-7.15-6.64-.55-3.12,3.07-13.8,3.06-14.55,0-2.76-2.39-.92-2.04-3.06.16-.96,7.08-6.93,12.76-14.8,2.17-3.01,8.35-14.42,9.19-15.31,3.63-3.91-.01,10.45,4.59,14.04Z" style="fill:#029089; stroke-width:0px;"/><path d="m220.01,255.74c.64,8.66-.85,36.63,0,40.58.16.74,5.7,9.01,7.15,9.19-.5.49-.73,1.17-1.02,1.79-.82,1.69-2.68,3.21-3.32,5.1-2.97-.64-5.93-1.07-8.93-1.53-.16-.02-2.45-.93-3.06-1.02-1.36-.21-6.16-1.57-6.64-.26l1.53,14.8c.55.78,6.71-.32,7.66-.77.14-.07.39.07.51,0-.3,2.05,1.34,2.92,2.55,4.08-7.26,2.03-10.78.37-12.25,9.19-.09.51-.53.57-.51,1.02-.55-.17-1.09-.78-2.81-.51-2.05-1.38-1.82-25.19-2.3-29.35.59-.8,1.01-.7,1.02-.77,2.46,2.89,7.99-1.67,9.19-3.83,3.8-6.83-.41-18.5-1.02-26.03-.55-6.77,1.34-15.03-1.53-14.04.03-4.38-2.09-8.39-2.04-12.76,4.59,3.31,9.65,5.43,14.55,8.17.12-3.92,1.16-2.91,1.28-3.06Z" style="fill:#0cb5ac; stroke-width:0px;"/><path d="m223.07,253.19c3.56,18.52,5.94,37.17,8.17,55.9.04,2.64-3.16,4.12-3.57,6.64-1.33,8.17,9.95,8.47,4.08,12.51-1.68-1.8-4.92-2.83-5.1-3.06-3.5-4.24,2.89-12.44-.51-17.87.29-.61.52-1.3,1.02-1.79-1.45-.18-6.99-8.44-7.15-9.19-.85-3.95.64-31.92,0-40.58,3.03-3.82,2.66-2.25,3.06-2.55Z" style="fill:#053d46; stroke-width:0px;"/><path d="m199.59,307.3c.28-2.68,1.01-2.42,1.02-2.55,10.28-5.08,3.47-16.61,3.06-25.01.57-4.55,2.54-14.17,2.55-16.33,2.87-.99.98,7.27,1.53,14.04.61,7.54,4.82,19.2,1.02,26.03-1.2,2.16-6.72,6.72-9.19,3.83Z" style="fill:#e1f9fb; stroke-width:0px;"/><path d="m200.61,304.74c.02-.2-.76-.78-.51-2.81.9-7.36,2.65-14.81,3.57-22.21.41,8.4,7.22,19.94-3.06,25.01Z" style="fill:#11a29e; stroke-width:0px;"/><path d="m232.26,333.84c3.46,4.88-1.53.79-2.55,3.57-2.93.12-4.33.51-4.59.51.63-2.81-2.82-2.96-3.06-3.32-.83-1.21,1.02-3.21-1.02-3.83.17-.2,1-3.48,3.83-3.06.48.07,7.12,5.73,7.4,6.13Z" style="fill:#053d46; stroke-width:0px;"/><path d="m226.64,325.16c.19.23,3.42,1.26,5.1,3.06,2.27,2.43,2.13,2.75.51,5.62-.28-.39-6.93-6.06-7.4-6.13-2.83-.41-3.65,2.86-3.83,3.06-1.11,1.3-2.04,2.56-2.81,4.08l-.77-6.64c4.74,3.54-.53-.28,9.19-3.06Z" style="fill:#11a29e; stroke-width:0px;"/><path d="m191.42,239.41c1.18,1.15,3.86,3.06,5.62,4.59,2.09,1.83,3.57,4.06,7.15,6.64-.05,4.38,2.07,8.38,2.04,12.76-.01,2.17-1.99,11.79-2.55,16.33-.92,7.4-2.68,14.84-3.57,22.21-.25,2.03.53,2.6.51,2.81-.02.14-.74-.13-1.02,2.55,0,.06-.43-.04-1.02.77.48,4.16.24,27.97,2.3,29.35,1.72-.26,2.26.34,2.81.51,4.33,1.38,17.32,1.84,22.21,1.53,5.03-.32,16.11-2.53,3.83-2.04,1.02-2.78,6.01,1.3,2.55-3.57,1.62-2.87,1.76-3.19-.51-5.62,5.86-4.04-5.42-4.33-4.08-12.51.41-2.52,3.61-4,3.57-6.64-2.23-18.73-4.61-37.38-8.17-55.9.75-.57,5.38-3.78,5.87-3.57,2.2,4.85,4.3,10.46,7.4,14.8.11.15-.56,1.01,2.04,2.04-7.77,5.67-1.9,35.41-1.53,44.67,7.51,12.42,11.96,9.11,16.33,27.56,14.59,9.81,21.87-13.81,27.05-24.25,3.06-6.17,19.58-40.17,20.42-42.37,5.8,3.31,10.15,13.89,14.8,12.25,2.21,6.41,9.22,6.13,15.31,6.13,2.71,9.57-5.44,21.03-11.49,19.4-.87-.24-3.61-6.34-4.34-7.66-4.73-8.47-10.72-23.6-11.74-24.5-2.85-2.52-3.6,3.34-4.59,4.85,3.48,3.04-2.07,5.77,2.04,9.19-.11,4.68-2.17,9.18-.51,13.02-4.81,18.61-12.05,22.8-22.97,37.26-.61.36-3.81,1.16-6.64,3.57,1.38-2.45,5.93-9.85,6.13-12,.73-7.94-8.95,7.42-9.95,8.42-2.89,2.91-9.77,6.69-12,8.93-.9.91-13.6,18.92-14.8,20.93-3.09,5.18-2.35,9.06-3.57,4.85.23-1.57,3.76-7.14,2.81-7.66-2.82,2.21-8.75,7.21-11.74,8.17-5.73,1.84-10.08-.16-13.02,2.55-.28-.51-1.24-1.53-1.53-2.04-4.96-8.91-9.86-17.88-14.8-26.8-3.71-6.69-5.79-15-12.51-22.21-1.56,2.04-5.52.92-7.4-.51-2.04-1.55-2.33-4.45-3.06-6.64,2.97.33,3.86-5.71,7.66-6.64.71,1.24,1.96,2.41,2.04,2.55.73,1.25,1.25,2.75,2.04,4.08,1.7,2.87,3.3,5.85,4.59,8.93h1.02v-17.87c6.66-12.15,7.63-29.77,4.59-43.13-.3-1.32-.33-3.69-1.02-4.08l-1.53-1.53c-.19-1.19.48-.97.51-1.02,1.35-2.27-4.05-14.74-5.1-17.36-.7-1.74-1.43-4.37-1.53-4.59l3.06-1.53Z" style="fill:#181d26; stroke-width:0px;"/><path d="m225.11,337.92c.26,0,1.67-.39,4.59-.51,12.28-.49,1.2,1.72-3.83,2.04-4.88.31-17.88-.15-22.21-1.53-.02-.45.43-.51.51-1.02,7.03.27,13.86,1.16,20.93,1.02Z" style="fill:#015e5f; stroke-width:0px;"/><path d="m211.33,360.39c1.39-1.66,3.46-1.52,3.57-4.08,3.3-1.31,14.67-9,6.13-2.3,4.05,4.6-5.97,3.97-6.13,6.64-.11,1.88,5.43.64,7.15.26,4.58-1.02,10.09-2.72,11.23-7.66.42-.28,1.57-1.46,2.55-2.04.56-.33.43,1.46,1.02.77-.28-.92.07-5.1,0-5.36-.13.55.02,1.29.77,1.02.64-.23,3.38-4.36,10.21-7.66,3.69.5-12.86,28.35-19.4,29.61-5.37,1.03-11.44-2.67-15.31-6.13-.35-.31-.92-2.17-1.79-3.06Z" style="fill:#053d46; stroke-width:0px;"/><path d="m214.9,356.3c-.11,2.56-2.19,2.42-3.57,4.08-16.16-16.73-9.46-20.52-8.68-19.14-2.02,5.68,4.5,14.13,9.44,16.59.4.02,2.27-1.32,2.81-1.53Z" style="fill:#0cb5ac; stroke-width:0px;"/><path d="m222.05,360.9c3.59-2.76,7.47-5.14,11.23-7.66-1.14,4.93-6.65,6.63-11.23,7.66Z" style="fill:#18c9c8; stroke-width:0px;"/><path d="m236.85,346.6c.07.26-.28,4.44,0,5.36-.6.69-.46-1.1-1.02-.77-.83-5.41-.15-9.21,1.02-4.59Z" style="fill:#028483; stroke-width:0px;"/><path d="m283.82,181.21c1.15.38,2.34.65,3.57.51,2.72,8.03,15.6,36.39,16.33,40.84-.53,2.26-3.71,6.58-5.62,6.64,1.54-11.3-16.35-43.58-16.33-47.22,0-.32,1.4-.02,1.02-1.28.46-.05.56.57,1.02.51Z" style="fill:#014d53; stroke-width:0px;"/><path d="m287.9,175.6c-.4.11-.73.67-1.02,1.02.74-6.16-6.93,3.29-6.38,3.57,4.33-.44,3.12.96,3.32,1.02-.46.06-.56-.56-1.02-.51-6.01.7-10.29,8.64-14.8,14.29-8.59,10.76-15.32,22.33-22.97,33.69-2.82-2.32-15.04,20.13-20.93,6.38-3.23-7.55,1.17-14.33,4.08-20.67.47-1.03,2.25-2.35,3.06-3.32-.93-6.52,11.63-19.53,14.8-28.33,3.16.45,4.64-.62,7.15-2.04,3.28,7.97-3.14,11.1,9.19,5.87-.52-7.41.93-6.53,1.02-6.89,1.64-.86,4.48-2.26,5.62-3.57,1.77-.07,2.51-1.97,4.59-3.57-1.91,11.29,2.82-1.53,7.15-3.06,4.77.12,5.28,2.36,7.15,6.13Z" style="fill:#0cb5ac; stroke-width:0px;"/><path d="m280.75,169.47c-4.32,1.54-9.05,14.35-7.15,3.06,2.76-2.13,3.51-3.16,7.15-3.06Z" style="fill:#93f7f8; stroke-width:0px;"/><path d="m237.11,213.88c12.42-2.57,1.58,22.49-5.62,20.93-6.96-1.51.68-19.91,5.62-20.93Z" style="fill:#028483; stroke-width:0px;"/><path d="m249.1,232.26c-.72.77-2.84,3.12-3.06,3.57-2.78.39-8.02,5.89-9.19,8.17-6.38-1.42-.22-2.83,4.08-8.42,2.79-3.62,3.86-6.56,4.08-6.89,7.65-11.36,14.38-22.93,22.97-33.69,1.34,1.19-5.76,12.82-8.17,16.59-5.24,8.2-16.38,19.4-10.72,20.67Z" style="fill:#015e5f; stroke-width:0px;"/><path d="m263.4,179.68c-.09.36-1.54-.52-1.02,6.89-12.33,5.23-5.91,2.1-9.19-5.87,1.19-.67,10.13-7.89,12.25-9.7-2.6,6.52-1.93,8.23-2.04,8.68Z" style="fill:#392f3c; stroke-width:0px;"/><path d="m286.88,176.62c-2.02,2.45-.27,2.8.51,5.1-1.23.14-2.42-.13-3.57-.51-.2-.06,1.01-1.46-3.32-1.02-.54-.29,7.12-9.73,6.38-3.57Z" style="fill:#0cb5ac; stroke-width:0px;"/><path d="m333.84,329.25c.66,2.47-.42,4.77-1.53,7.15-.09.2-1.69,2.22-2.55,3.57-1.21.19-.96-.51-1.02-.51,1.62-2.39-1.69-1.31-3.57-1.53-.97-.12-1.16-.24-1.79-1.02l-.77,1.02c-4.13,8.92-6.07,3.55-6.89,3.57-.62.02-8.36,7.45-9.7,7.66-.19.03-.61-1.19-1.79-1.02-.16.02-.34,0-.51,0-2.39.14-5.55,4.8-10.72,2.04,2.44-3.64,5.29-7.42,8.17-10.72.31-.36.97-.91,1.53-1.53,6.3,2.02,11.49-2.86,17.1-4.59,2.17-.67,6.4,0,8.17-.51,3.04-.88,2.71-4.34,5.87-3.57Z" style="fill:#ca4a63; stroke-width:0px;"/><path d="m331.29,326.18c.69.59,1.87.51,2.55,3.06-3.16-.76-2.83,2.7-5.87,3.57-1.77.51-6-.16-8.17.51-5.61,1.73-10.8,6.62-17.1,4.59,1.84-2.03,3.64-3.74,5.62-5.62,1.12-.03,2.05-1.19,3.06-1.53,4.02-1.35,6.15.09,10.21-2.55,1.85,2.06,1.86,2.74,4.59,2.04,5.03-1.29,1.46-4.77,5.1-4.08Z" style="fill:#dc5a65; stroke-width:0px;"/><path d="m331.29,326.18c-3.65-.68-.08,2.79-5.1,4.08.38-.88.73-4.58-1.28-5.1-1.25-.33-3.13,2.94-3.32,3.06-4.06,2.64-6.19,1.21-10.21,2.55q5.62-3.57,11.23-7.15c5.06,0,4.89-.68,8.68,2.55Z" style="fill:#d68592; stroke-width:0px;"/><path d="m321.08,323.63c.5-.05,1.03,0,1.53,0q-5.62,3.57-11.23,7.15c-1.01.34-1.94,1.5-3.06,1.53,1.93-1.84,6-6.56,8.17-7.66,2.57-1.3,2.07-.79,4.59-1.02Z" style="fill:#e1f9fb; stroke-width:0px;"/><path d="m303.72,348.13c-1.89,2.12-3.6,3.7-4.08,6.64-13.37-.15-8.07-2.46-6.64-4.59,5.17,2.75,8.33-1.9,10.72-2.04Z" style="fill:#9e364a; stroke-width:0px;"/><path d="m299.64,354.77c.48-2.94,2.19-4.51,4.08-6.64.17,0,.35.02.51,0l-3.06,14.04c-2.07,1.38-1.78-5.91-1.53-7.4Z" style="fill:#fbdcda; stroke-width:0px;"/><path d="m325.16,337.92c.99,2.78,2.07,1.42,3.57,1.53.06,0-.19.7,1.02.51-.77,1.21-1.35,2.7-2.55,3.57-.1-1.62-.68-.81-1.02-1.02-3.58-2.18-4.07,1.06-3.57-4.59l.77-1.02c.63.78.81.9,1.79,1.02Z" style="fill:#9e364a; stroke-width:0px;"/><path d="m328.74,339.46c-1.5-.11-2.58,1.25-3.57-1.53,1.89.23,5.2-.86,3.57,1.53Z" style="fill:#b53d5c; stroke-width:0px;"/><path d="m326.18,330.27c-2.73.7-2.74.02-4.59-2.04.19-.12,2.07-3.39,3.32-3.06,2,.53,1.65,4.23,1.28,5.1Z" style="fill:#ebbbb2; stroke-width:0px;"/><path d="m293.51,334.86c1.86.47,5.72,3.76,7.66,4.59-2.87,3.3-5.72,7.08-8.17,10.72-1.43,2.13-6.73,4.45,6.64,4.59-.24,1.49-.54,8.78,1.53,7.4l3.06-14.04c1.17-.17,1.6,1.05,1.79,1.02,1.34-.21,9.08-7.64,9.7-7.66.82-.02,2.76,5.35,6.89-3.57-.5,5.65-.01,2.41,3.57,4.59-7.2-1.26-5.49,2.23,1.02,1.53-.13.7-6.27,10.98-7.15,12.25-1.04.68-3.74,3.78-4.08,4.59-.09.07-.74-.13-2.04,1.02-2.05-2.05.48-1.93,2.04-4.34-1.04-1.68-7.75,5.7-7.66,9.44-3.06,2.8-5.28,6.46-8.42,9.19-11.82,4.29-21.62,13.52-29.86,18.89-5.13,3.34-14.3,9.49-18.89,1.28-3.26-5.83,7.73-22.02,11.74-27.05,2.2-2.76,14.4-13.77,14.8-14.8.96-2.45-1.57-7.07,2.04-13.53.9-.55,4.2-6.06,8.42-5.1l1.28-1.53c.22,1.11,2.73.17,4.08.51Z" style="fill:#741535; stroke-width:0px;"/><path d="m326.18,342.52c.34.21.92-.6,1.02,1.02,0,.16.03.36,0,.51-6.51.7-8.23-2.79-1.02-1.53Z" style="fill:#8b2747; stroke-width:0px;"/><path d="m315.98,360.9c.35-.82,3.05-3.91,4.08-4.59-2.05,2.95-1.18,2.2-4.08,4.59Z" style="fill:#0e212d; stroke-width:0px;"/><path d="m313.93,361.92c-1.92,1.71-3.73,3.38-5.62,5.1-.1-3.74,6.62-11.13,7.66-9.44-1.56,2.41-4.1,2.29-2.04,4.34Z" style="fill:#e6cdc5; stroke-width:0px;"/><path d="m294.79,366c4.08-.05-4.96,4.45-6.13,4.59-5.53.68,5.53-4.59,6.13-4.59Z" style="fill:#11a29e; stroke-width:0px;"/><path d="m247.06,142.42c2.95,1.89,8.23-1.4,11.74-2.55-.5,1.48-6.04,2.94-6.13,3.83-.04.37,3.59,3.26,4.08,3.83.12.14-.16.76,2.04,3.06-.9,1-4.25,6.5-4.59,7.66-6.02,8.11-6.71,20.45-8.17,24.5-3.17,8.8-15.74,21.81-14.8,28.33-.81.97-2.59,2.29-3.06,3.32-2.43.27-3.01-2.4-3.57-4.08-6.21-18.59.96-53.56,12-70.44,2.41,1.48,8.07,3.33,10.46,2.55Z" style="fill:#56404c; stroke-width:0px;"/><path d="m299.13,148.03s.13.19.51.51v4.08c-7.73-11.1-18.07-9.08-26.03.51-4.82,5.8-4.1,6.22-3.57,13.27.06.62-.49.48-.51.51-4.14-8.74,3.57-13.75,8.17-19.91,12.81-2.11-8.54-9.17-20.93.51-.49-.56-4.12-3.46-4.08-3.83.09-.89,5.63-2.35,6.13-3.83,6.96-2.29,10.92-6.09,23.23-3.06,6.89,1.7,11.9,6.74,17.1,11.23Z" style="fill:#ca4a63; stroke-width:0px;"/><path d="m277.69,147.01c-5.24-1.31-7.47-2.19-12.76-.51-2.82.9-4.19,1.91-6.13,4.08-2.21-2.3-1.92-2.92-2.04-3.06,12.38-9.68,33.74-2.62,20.93-.51Z" style="fill:#b53d5c; stroke-width:0px;"/><path d="m269.01,176.11c-1.13,1.32-3.97,2.71-5.62,3.57.11-.45-.55-2.16,2.04-8.68,1.51-1.28,2.75-2.63,4.08-4.08.02-.03.57.11.51-.51.04.53,3.27,4.72-1.02,9.7Z" style="fill:#ae3d44; stroke-width:0px;"/><path d="m277.69,147.01c-4.6,6.16-12.31,11.17-8.17,19.91-1.34,1.46-2.57,2.8-4.08,4.08-2.12,1.81-11.06,9.03-12.25,9.7-2.51,1.42-3.99,2.49-7.15,2.04,1.46-4.05,2.14-16.4,8.17-24.5-1.26,4.19-.68,9.72-1.53,14.04,1.65,2.81,9.4-21.96,12.25-25.78,5.29-1.68,7.52-.8,12.76.51Z" style="fill:#db6f80; stroke-width:0px;"/><path d="m264.93,146.5c-2.85,3.81-10.6,28.59-12.25,25.78.85-4.32.27-9.85,1.53-14.04.35-1.15,3.7-6.65,4.59-7.66,1.94-2.17,3.3-3.19,6.13-4.08Z" style="fill:#fdfcfa; stroke-width:0px;"/><path d="m235.32,130.68c-3.85,4.53-21.81,25.14-24.5,23.48-.02-.56-3.14-9.94-4.08-10.21,1.18-1.91,2.5-3.66,3.57-5.62,7.43-5.51,15.89-7.37,25.01-7.66Z" style="fill:#fdfcfa; stroke-width:0px;"/><path d="m210.82,154.16c.1,3.86-11.37,22.49-6.38,5.62-2.42,1.76-4.95,3.4-7.4,5.1-.86-2.1,2.23-4.16,4.08-4.85-.49-6.33,3.9-8.08.51-8.93,2.3-2.64,3.3-4.22,5.1-7.15.94.27,4.07,9.65,4.08,10.21Z" style="fill:#c4e8e9; stroke-width:0px;"/><path d="m197.04,164.88c-.71.5-4.83,4.84-5.62,3.32,4.33-17.43,9.53-16.32,10.21-17.1,3.39.85-1,2.6-.51,8.93-1.85.69-4.94,2.74-4.08,4.85Z" style="fill:#fdfcfa; stroke-width:0px;"/><path d="m156.2,253.7c.06.18-1.1.59,0,3.83,3.2,9.44,6.06,18.87,9.19,28.33,0,5.36,2.62,16.36,0,15.31-3.22-8.78-6.19-17.53-8.68-26.54-1.56-10.35-4.47-20.41-6.64-30.63,2.75,2.51,4.97,6.35,6.13,9.7Z" style="fill:#ca4a63; stroke-width:0px;"/><path d="m159.77,246.04c1.52,3.89,13.92,29.25,12.76,31.14-4.93-7.65-10.05-17.3-16.33-23.48-1.15-3.35-3.38-7.19-6.13-9.7-1-4.7-3.06-8.8-3.06-13.78,1.48-.18,1.94,4.47,3.06,6.38.73,1.25,8.2,11.36,9.7,9.44Z" style="fill:#11a29e; stroke-width:0px;"/><path d="m175.09,301.68c-2.22,1.47-1.91,4.33,1.53,2.55,1.95,3.62,4.09,7.15,6.13,10.72-3.8.93-4.69,6.96-7.66,6.64-.26-.76.18-3.03,0-4.34-10.86-9.23-8.2-11.99-9.7-16.08,2.62,1.04,0-9.96,0-15.31,2.23-4.12,7.24,11.17,9.7,15.82Z" style="fill:#741535; stroke-width:0px;"/><path d="m172.54,277.18c-.47.77-1.45-.53-1.53.26-.05.45,2.56,1.58,5.62,7.15,3.18,5.78,14.87,29.63,8.17,32.92-.08-.14-1.34-1.31-2.04-2.55-2.04-3.57-4.17-7.1-6.13-10.72-.05-.1.65-1.08,0-2.3-.27-.51-1.47-.14-1.53-.26-2.46-4.65-7.47-19.94-9.7-15.82-3.13-9.46-5.98-18.89-9.19-28.33-1.1-3.24.06-3.65,0-3.83,6.29,6.18,11.4,15.83,16.33,23.48Z" style="fill:#8b2747; stroke-width:0px;"/><path d="m182.74,259.31c4.32,2.09,8.36,5.36,13.27,6.13.69.39.72,2.77,1.02,4.08-4.61.12-1.66,11.95-6.89,10.72-2.6-.61-15.43-22.71-13.02-8.42.05.27,3.13.71,1.02,4.59,2.26,3.66,2.55,7.91,4.08,12.25,1.92,5.43,6.21,11.2,7.15,16.85.55,3.29.67,17.08-2.55,16.08-.79-1.34-1.31-2.83-2.04-4.08,6.71-3.3-4.99-27.15-8.17-32.92-3.06-5.56-5.66-6.69-5.62-7.15.08-.79,1.06.51,1.53-.26,1.16-1.88-11.24-27.25-12.76-31.14h.51c5.94,6.87,14.64,9.48,22.46,13.27Z" style="fill:#741535; stroke-width:0px;"/><path d="m164.37,247.57c5.85,4.5,11.95,7.72,18.38,11.23v.51c-7.82-3.79-16.52-6.4-22.46-13.27-1.22-1.41-2.54-2.64-1.53-2.55,1.62,1.78,3.79,2.68,5.62,4.08Z" style="fill:#d5d4d8; stroke-width:0px;"/><path d="m197.04,269.52c3.04,13.37,2.07,30.98-4.59,43.13v17.87h-1.02c-1.3-3.08-2.9-6.06-4.59-8.93,3.23,1,3.1-12.78,2.55-16.08-.94-5.64-5.23-11.41-7.15-16.85-1.53-4.34-1.82-8.59-4.08-12.25,2.1-3.89-.97-4.32-1.02-4.59-2.42-14.29,10.41,7.81,13.02,8.42,5.23,1.23,2.28-10.6,6.89-10.72Z" style="fill:#411428; stroke-width:0px;"/><path d="m194.49,263.91l1.53,1.53c-4.91-.76-8.96-4.03-13.27-6.13v-.51c3.16,1.73,8.26,3.88,11.74,5.1Z" style="fill:#b17086; stroke-width:0px;"/><path d="m176.62,304.23c-3.44,1.78-3.75-1.08-1.53-2.55.06.11,1.26-.26,1.53.26.65,1.22-.05,2.2,0,2.3Z" style="fill:#fdab6b; stroke-width:0px;"/><path d="m189.89,245.53c1.05,2.62,6.46,15.08,5.1,17.36-2.62-3.83-20-15.03-20.93-17.1-1.52-3.38.42-4.6.51-4.85,1.9,1.12,4.92.92,6.89,1.53,3.64,1.13,9.18,5.2,8.42,3.06Z" style="fill:#026e6a; stroke-width:0px;"/><path d="m185.3,233.28c-1.27,1.57,2.19,5.78,3.06,7.66.1.22.83,2.85,1.53,4.59.76,2.13-4.79-1.93-8.42-3.06-1.97-.61-4.99-.41-6.89-1.53.74-1.99,1.47-1.93,1.53-2.04.53,3.53,6.65-4.99,7.15-5.87.41-.74-.82-1.65-.51-2.3.07-.14-.06-.37,0-.51,1.27.61,1.73,2.17,2.55,3.06Z" style="fill:#0cb5ac; stroke-width:0px;"/><path d="m191.42,239.41l-3.06,1.53c-.87-1.88-4.33-6.09-3.06-7.66,1.63,1.77,4.32,4.37,6.13,6.13Z" style="fill:#053d46; stroke-width:0px;"/><path d="m182.74,230.73c-.31.65.92,1.56.51,2.3-.49.88-6.62,9.4-7.15,5.87,1.58-2.63,4.11-6.48,6.64-8.17Z" style="fill:#e1f9fb; stroke-width:0px;"/><path d="m289.94,250.13c1.44-.02,7.2,2.63,11.74,2.04-.18.42-.33,1.65-.51,2.04-.52,1.12-1,1.99-1.53,3.06.53-1.85-9-3.34-9.44-3.06-1.6,3.46.14,9.94-3.83,11.74-.75-5.18-19.98,4.22-27.82,5.62q-6.38,13.02-12.76,26.03l-4.85-32.16c1.96-.91,8.87-2.9,12.25-4.08,2.45-.86,5.17-1.73,7.66-2.55,2.3-.76,5.27-1.99,7.15-2.55,2.91-.87,20.81-6.11,21.95-6.13Z" style="fill:#741535; stroke-width:0px;"/><path d="m301.17,260.85c2.05,5.06,1.18,6.79-.51,11.23-.84,2.2-17.35,36.2-20.42,42.37-.26-5.16,7.08-18.56,7.66-20.67.98-3.59.97-12.06,3.57-20.16,3.53-1.33,6.09-11.95,9.7-12.76Z" style="fill:#7e7528; stroke-width:0px;"/><path d="m294.03,246.55c2.68-.43,6.62,1.41,9.44,1.53l.77.77c.24.72-2.47,3.13-2.55,3.32-4.54.59-10.3-2.06-11.74-2.04-.07-1.4,3.06-3.41,4.08-3.57Z" style="fill:#b53d5c; stroke-width:0px;"/><path d="m301.17,260.85c-3.61.81-6.16,11.43-9.7,12.76.18-.57.31-1.49.51-2.04.68-1.82,5.66-10.26,7.66-14.29.53-1.07,1.01-1.94,1.53-3.06,3.71-2.65-.29,2.59,0,6.64Z" style="fill:#058375; stroke-width:0px;"/><path d="m299.64,257.27c-2,4.03-6.97,12.47-7.66,14.29-3.7,4.34-13.52,2.89-19.65,5.1l-.77-.77c1.71-10.94,8.32-7.01,14.8-9.95,3.97-1.8,2.23-8.28,3.83-11.74.45-.28,9.97,1.21,9.44,3.06Z" style="fill:#8b2747; stroke-width:0px;"/><path d="m260.85,258.8c-2.49.82-5.2,1.69-7.66,2.55,1.81-1.06,6.95-4.57,7.66-2.55Z" style="fill:#2c2f43; stroke-width:0px;"/><path d="m286.37,265.95c-6.48,2.94-13.09-.99-14.8,9.95l.77.77c6.13-2.22,15.95-.77,19.65-5.1-.2.55-.33,1.47-.51,2.04-2.6,8.11-2.59,16.58-3.57,20.16-.58,2.12-7.92,15.51-7.66,20.67-5.19,10.44-12.47,34.05-27.05,24.25-4.38-18.45-8.82-15.15-16.33-27.56-.36-9.26-6.24-38.99,1.53-44.67.63-.46,1.57-.57,2.55-1.02l4.85,32.16q6.38-13.02,12.76-26.03c7.84-1.4,27.07-10.79,27.82-5.62Z" style="fill:#741535; stroke-width:0px;"/><path d="m249.87,318.53c7.75,4.02,10.56,13.79,8.93,18.63-2.28,6.79-6.62-13.66-8.93-18.63Z" style="fill:#2a1b27; stroke-width:0px;"/><path d="m272.33,310.87c-.93,7.15-4.52,14.34-6.64,21.44-1.39-.21,3.35-17.22,6.64-21.44Z" style="fill:#ebbbb2; stroke-width:0px;"/><path d="m246.04,235.83c-.61,1.24-1.4,5.1-1.53,6.64-3.04,1.64-5.68,5.04-9.19,5.1.43-1.83.97-2.48,1.53-3.57,1.17-2.28,6.41-7.78,9.19-8.17Z" style="fill:#0d2c35; stroke-width:0px;"/><path d="m226.64,325.16c-9.72,2.78-4.45,6.6-9.19,3.06-.16-.12-.94-.43-1.02-.51-1.21-1.17-2.85-2.03-2.55-4.08.09-.05,1-.85,1.53-1.28l-1.53-11.49c3,.46,5.96.89,8.93,1.53.64-1.9,2.5-3.41,3.32-5.1,3.4,5.42-2.99,13.63.51,17.87Z" style="fill:#015e5f; stroke-width:0px;"/><path d="m217.46,328.23l.77,6.64c.77-1.53,1.69-2.78,2.81-4.08,2.04.61.19,2.61,1.02,3.83.25.36,3.69.51,3.06,3.32-7.07.14-13.9-.75-20.93-1.02,1.47-8.81,4.99-7.16,12.25-9.19.08.08.86.39,1.02.51Z" style="fill:#181d26; stroke-width:0px;"/><path d="m210.82,309.85c-1.25,2.39-.7,13.83,2.55,13.78-.95.44-7.1,1.55-7.66.77l-1.53-14.8c.47-1.32,5.28.05,6.64.26Z" style="fill:#053d46; stroke-width:0px;"/><path d="m213.88,310.87l1.53,11.49c-.53.43-1.44,1.23-1.53,1.28-.12.07-.37-.07-.51,0-3.25.05-3.8-11.4-2.55-13.78.61.09,2.9,1,3.06,1.02Z" style="fill:#053d46; stroke-width:0px;"/><path d="m262.38,237.87c-.45.28-3.55.82-6.64,2.55-6.13,3.44-5.97,3.55-9.19,9.7-.17.33-1.04,1.47-1.53,1.53-.57-2.94-.77-6.22-.51-9.19.14-1.53.92-5.4,1.53-6.64.22-.45,2.35-2.81,3.06-3.57,1.25-1.34,7.17-5.34,9.44-7.15-.66,8.04-7.24,13.14,5.62,9.7.87,1.29-.74,2.42-1.79,3.06Z" style="fill:#0cb5ac; stroke-width:0px;"/><path d="m262.38,237.87c-.71,2.62-13.38,19.04-14.55,19.4-1.83.57-2.58-4.46-2.81-5.62.49-.06,1.36-1.2,1.53-1.53,2.49,1.56,5.73-5.48,10.72-8.42l-1.53-1.28c3.08-1.73,6.19-2.28,6.64-2.55Z" style="fill:#053d46; stroke-width:0px;"/><path d="m255.74,240.43l1.53,1.28c-4.99,2.94-8.23,9.99-10.72,8.42,3.22-6.15,3.06-6.26,9.19-9.7Z" style="fill:#014d53; stroke-width:0px;"/></g></svg>