<?xml version="1.0" encoding="UTF-8"?><svg id="b" xmlns="http://www.w3.org/2000/svg" xmlns:xlink="http://www.w3.org/1999/xlink" viewBox="0 0 511.99 512"><defs><linearGradient id="e" x1="-636.55" y1="689.12" x2="-641.71" y2="712.56" gradientTransform="translate(744.39 81.05) scale(.5)" gradientUnits="userSpaceOnUse"><stop offset="0" stop-color="#0e5b66"/><stop offset="1" stop-color="#094249"/></linearGradient><linearGradient id="f" x1="-736.45" y1="154.1" x2="-711.13" y2="209.6" gradientTransform="translate(744.39 81.05) scale(.5)" gradientUnits="userSpaceOnUse"><stop offset="0" stop-color="#8e4634"/><stop offset="1" stop-color="#52281f"/></linearGradient><linearGradient id="g" x1="-1218.48" y1="193.82" x2="-1244" y2="228.42" gradientTransform="translate(744.39 81.05) scale(.5)" gradientUnits="userSpaceOnUse"><stop offset="0" stop-color="#783b2a"/><stop offset="1" stop-color="#432520"/></linearGradient><linearGradient id="h" x1="-1090.52" y1="447.76" x2="-1020.93" y2="570.39" gradientTransform="translate(744.39 81.05) scale(.5)" gradientUnits="userSpaceOnUse"><stop offset="0" stop-color="#a93632"/><stop offset="1" stop-color="#cd4744"/></linearGradient></defs><g id="c"><g id="d"><rect y="0" width="511.99" height="512" style="fill:#08121b; stroke-width:0px;"/><path d="m88.01.01l-24.25,25c-.79.21-1.14-.26-1.75-.5-.79-.32-6.57-6.27-8-4.25-1.69,2.39,5.6,5.89,7,7.75-1.98,4.91-11.34,13.7-15.75,17.5H13.27c-1.17.52-1.3,5.81.5,6.5h31.5C62.71,35.22,80.31,18.46,96.01.01c20.33-.03,40.66.01,61,0-1.13,5.95,2.75,6.19,3,6.5,5.36,6.81,8.34,13.21,13,19.75,6.1,8.56,13.51,10.82,13.5,22.25,0,2.6-.48,6.93-2,9-8.51,11.63-17.56-24.81-29.25-31.5-12.73-7.29-29.87-.3-25.75,16.25.51,2.06,13.87,23.72,20.5,37.25,7.71,15.73,13.86,37.06,26.25,49.5.94.94,4.29,3.06,4.75,3.5,1.05,1.01,3.09,2.36,3,3.25-.02.23-3.02,3.24-3.25,3.25-1.49.09-12.12-11.86-17-9-6.28,3.68-3.26,15.7-4.75,21.5-12.74-13.96-25.44-27.93-37.5-42.5-.53-.64-1.17-1.1-1.5-1.5-2.91-3.54-6.35-6.74-9-10.5-1.24-1.75-9.38-15.32-9.5-16.25-.35-2.62,3.19-5.7,3-6.5-.14-.58-9.02-5.11-9.5-7.25,13.62,2.43,18.85-15.77,8.75-21.5-11.27-6.39-22.76,7.49-14.75,17.5-7.2,22.34-18.81,2.21-28.25-6-3.54,3.91-7.78,7.28-11.25,11.25-7.26,8.31-9.17,7.19-1,17-4.33,15.16,9.27,31.23,16.75,29.25,1.46-.39,18.17-20.45,19.5-21,7.91-3.28,13.06,7.08,18.25,11.5-.25,1.08-2.62,2.12-2.5,3.25.07.64,8.03,9.36,8.75,9.25.18-.03,2.71-2.32,2.75-2.5.34.17,1.44.93,1.5,1,9.09,11.68,20.6,24.15,30.5,35.5-1.05.76-2.71,1.67-4,1.5-1.4-.18-20.74-14.03-23.25-16-6.51-5.1-14.29-17.03-12.75-4.25.14,1.18,4.94,10.18,6,11.25-11.39-7.3-15.9-23-16,3.5-5.6-5.24-26.31-20.11-34-24.5-13.26-11.11-29.63-34.39-45.75-40-2.65-.92-9.57-3.44-10.25.75-.76,4.66,8.9,6.8,13.25,10.25,5.65,4.48,9.38,12.06,14.25,17.25,5.38,5.73,11.54,10.7,17,16.25.66.68,1.34,1.33,2,2,14.01,14.25,27.6,29.06,43.5,41.25,2.01,2.82,8.18,26.56,6.5,31.5.73,1.83,2.45,2.02,3.5,3.25,5.85,6.83,13.04,12.28,19,19-9.25,9.42-18.3,19.07-28.5,27.5-5.64-5.04-11.67-9.06-17.75-13.5-6.12-6.3-12.48-12.36-18.75-18.5-8.04-7.88-9.28-14.05-10,2l-.25,1-4.25-2c.3-.86.24-3.26,2.5-7.5,1.2-2.25,2.75-3.51,4.5-5.25l-.5-1c-6.19-7.73-12.45-15.31-19-22.75-10.88-12.36-13.48-18.13-31-26C.05,105.67-.01,52.84.02.01,29.35-.02,58.68.05,88.01.01Z" style="fill:#08121b; stroke-width:0px;"/><path d="m511.98,288.49c0,15.33,0,30.66,0,46-7.5.83-15.22,6.53-19,3.5-1.29-2.84,4.79-20.85,3.25-22-4.69,4.74-9.39,9.44-14.25,14-6.54-5.3-3.57-1.83-3,2.5.34,2.6,1.17,6.94.5,9.25-.72,2.45-16.33,23.62-20.5,26.5,1.21,3.17-2.59,5.9-3,9.25-1.73-5.81-3.61-5.32-.5,3.25l1-.25c14.01-10.98,28.49-23.98,35-41,5.08,4.33,18.24,19.94,8.5,4.25q6-2.62,12-5.25c-.01,21.67.03,43.33,0,65-3.44.95-.67,5.01-1.5,10.25-1.71,10.74-40.1,42.77-38,51,.04.17,2.11,2.35,2.75,2.25,1.17-.17,8.22-12.59,13.75-19.25,5.72-6.89,16.33-16.55,23-23.25,0,5.83.01,11.67,0,17.5-15.78,16.51-29.29,35.96-46.5,51-20.79-2.74-27.01-12.42-28.25-11.5-.29.22-.9,3.66-.75,4.25.26,1.02,11.55,8.44,13.25,9.25,4.21,2,9.06,2.18,8.75,3.5-4.14,3.13-16.06,12.28-20.5,12.5q-9.5-1.75-19-3.5c7.34-7.42,19.66-22.62,18-33.5-.5-3.29-2.05-4.73-5.75-4-5.19,1.02-13.36,21.15-2.25,14.5-4.41,5.95-17.28,20.05-24.25,21.5-14.96,3.11-14.78-12.92-25.75-13,1.87-2.08.5-4.67-1-7,2.05-.18,11.54-7.6,12.25-7.5,1.7.24,3.87,8.81,5.25,6.25,3.63-11.96,1.17-10.59-10-12.75-.47-.86-2.32-4.32-2.5-4.5-.08-1.59.98-1.34,1.5-1.5.14-.05.96,2.92,1-.75,0-.23-.73-4.01-1.5-4.25-.06-.35.76-.7.5-1.75-14.09-9.55-6.42.56-7.75,1.25-13.34-4.28-14.13,11.3-13.25,20.5.06.67-1.27,1.63,2,8-1.43,10.41,7.05,14.06,16.25,12.5l12.75,10.5c-34.33.03-68.66-.02-102.99,0-2.03-6.93,5.79-7.13,12.25-12,4.21-3.18,14.45-15.63,15.5-16,1.05-.37,4.74.37,6,0,1.51-.44,21.87-20.44,22.75-21.75,1.98-2.95,9.78-22.55,8-26.75,3.93-4.77,10.7-9.43,15.5-13.5,2.65,2.85,17.17-7.57,20.75-10.5,7.79-6.37,17.48-18.23,24.5-26,14.53,10.21,2.25-4.37,2.25-5.25,0-.34,2.69-2.12,3.25-3.75,4.01.31,9.96-4.62,3.75-7,.06-.06-.34-.11,1-1.5l8.5,2.25c-7.69,12.57-13.53,7.99-3.75,16.75,2.04-3.04,4.13-6.01,6.25-9,8.28-.13,4.26-5.63,7.5-7,.12.85.25,4.49.75,4.5l9.75-9.75-8-1.5,6-16.5,5.25,3.25,2.5-9c7.81,12.24,1.22-2.06,1.25-2.75.11-2.76,10.2-12.58,6.5-15.25,13.24-13.33,24.64-30.93,42.5-35.5Z" style="fill:#08121b; stroke-width:0px;"/><path d="m41.51,322.99c-3.23,2.35,4.27,11.14,8,17.75,4.89,8.67,1.77,12.42,10,7.5-1.36,4.82,2.01,12.28,4.5,16.5l-8,1c3.76,2.27,5.43,6.4,8.5,9.25,1.55,1.44.8,2.46,8.5,3,3.33,4.8,10.31,13.78,9.25,6,4.15.1,6.46-5.76,8.5-4.5,1.04,1.4-5.66,4.31-2,8,4.75,4.79,7.51-1.43,8-1.5,1.14-.16,8.96,11.82,14.75,17.75,6.21,6.37,22.25,20.43,30.5,18.75.53.62,7.32,5.58,12,11-.31,6.24,8.17,25.74,11.5,30.25.84,1.14,18.94,19.21,20.25,19.75,2.34.97,6.38.21,8,1,.94.46,7.87,10.8,14,15.5,5.28,4.05,13.84,5.17,13.75,12-34.83-.02-69.66.03-104.49,0,2.04-1.76,13.39-10.3,14.25-10.5,11.26-2.63,10.8,4.08,15.75-11,.7-2.14,1.58-4.28,2-6.5.12-.63-.1-1.36,0-2,1.94-12,1.9-20.42-13.5-15.25-.42-.72,4.82-11.55,3.25-12.75-1.88.5-7.44,7.93-8,8-.74.09-5.14-3.87-5.75-2.75,4.83,23.49,2.82,9.98-16.25,2.25l-10.75,17.25c6.97,1.66,8.3-1.07,13.25,5.25l-1-4c3.01.43,9.19-3.05,11.5-2.5.74.17,11.03,9.52,11.25,10.25.02.06-.4.04-.5,1.25-.03.33.01.67,0,1-2.28,1.28-1.87,2.4-2,2.5-9.46,7.03-11.08,14.67-22.25,13.5-7.97-.84-17.23-13.14-22.25-19,6.38-3.99,2.84-6.76,2.5-7.5-1.88-4.14-6.02-12.2-11.25-9.5-2.56,1.32-1.74,4.98-1.75,5.5,0,.7.42,5.65.5,6-11.15,7.55-16.52,8.64-29.5,11-14.67-13.08-31.87-35.45-46.5-50-.01-6.17,0-12.33,0-18.5,8.54,8.55,17.8,16.65,25.5,26,3.26,3.96,11.24,17.16,12.25,17.5,1.05.35,2.21-.38,2.75-1.25,4.12-6.7-22.79-31.22-27.5-36.75-1.44-1.69-8.66-10.14-9-10.75-5.05-9.13.5-12.95-4-15.25-.04-38.5.02-76.99,0-115.49,3.2,1.9,11.63,4.47,13.25,5.5,3.31,2.11,22.86,24.1,28.25,29.5Z" style="fill:#08121b; stroke-width:0px;"/><path d="m293.5.01c-2.65,20.32-7.17,40.26-11.5,60.25-.1.46-1.48.18-1.5.25-1.24-.81-2.71-1.26-4-2-1.1-.63-4.88-3.77-5.75-3.5-.31.09-3.77,4.93-3.75,5.25.02.38,3.46,3.84,4.5,6.25,5.25,12.1-.74,10.97-3,15.25-1.44,2.73-3.65,14.22-4,18.25-2.6,1.35-4.5,1.17-7.75,3.5-13.02,9.34-5.9,27.52-7.25,41.25-.43,4.39-5.09,25.25-8.5,27.25-7.38,4.33-13.97-6.12-19-10-.73-1.61-2.08-4.57-3-5.75.15-8.75-2.72-17.53-3.5-26.25-.29-3.26-.35-6.71-.5-10-.62-13.61-2.37-18.09,7.75-28.5,8.23,7.45,6.72,17.29,20,15,10.05-13.8-4.43-1.24-11.25-16.25-1.24-2.73-2.04-8.74-3-11.5-1.29-3.69-2.41-4.74-2.5-5-.19-.54.84-1.06.5-2-4.17-11.73-12.8-30.79-15.5-41.5-2.29-9.06-3.11-20.34-4.5-30.25C235.5,0,264.5,0,293.5.01Z" style="fill:#eee2c8; stroke-width:0px;"/><path d="m48.01,500.48c4.04,14.2-14.93,5.25-14,11.5-11.33-.05-22.67.04-34,0-.03-20.5.04-41,0-61.5,11.85,10.66,38.76,42.95,48,50Z" style="fill:#08121b; stroke-width:0px;"/><path d="m511.98,449.98c-.04,20.67.03,41.33,0,62-10.33.04-20.67-.06-31,0-1.01-7.81-17.83,3.87-16-12,9.84-7.82,35.31-39.29,47-50Z" style="fill:#08121b; stroke-width:0px;"/><path d="m32.51,204.5c0,.1.76-.29.5,2,.76,22.98-26.05,31.49-12,39.25q-5.5,5.37-11,10.75c-2.93-2.94-3.11-3.02-4.5-2.5-1.2.45-1.65,1.76-2.5,2.5-.29.25-1.72.8-3,2,0-22.67-.01-45.33,0-68,7.26-1.53,20.05,5.55,17,14.25-.63,1.8-6.81,6.84-7,7.5-1.03,3.64,2.38,8.03,6.75,6.75,1.03-.3,13.25-12.95,15.75-14.5Z" style="fill:#08121b; stroke-width:0px;"/><path d="m499.98,258.49c1.06,1.01,1.82,2.03,3,3,.58.48,2.13,2.85,2.75,3,2.75.66,4.15-2.32,6.25-3.5,0,5.83,0,11.67,0,17.5-2.31.64-7.11,5.84-9.25,5.5-.83-.13-11.11-9.55-12.75-11-2.71-2.39-5.22-4.94-7.75-7.5-6.12,4.29-38.35,38.9-41,40-2.91,1.21-6.14.44-8.75-1,13.6-21.54,32.79-32.68,42.5-43.75,4.65-5.3,8.08-11.92,12.75-17.25,2.73,5.9,7.62,10.56,12.25,15Z" style="fill:#08121b; stroke-width:0px;"/><path d="m511.98,190c.01,22.67,0,45.33,0,68-1.86-.66-3.87-3.58-5-4-1.96-.72-2.95.53-4.5,2l-10-9.75c11.71-11.04-11.11-11.88-13-37.75-.36-4.9.47-3.78.5-4,4.75,2.67,16.88,20.43,22,12.25,3.7-5.91-5.97-9.33-7-12.5-2.73-8.43,10.02-14.86,17-14.25Z" style="fill:#08121b; stroke-width:0px;"/><path d="m85.01,485.98c.34.41.72.68,1,1,5.02,5.86,14.28,18.16,22.25,19,11.16,1.18,12.79-6.47,22.25-13.5,2.46-.29,9.53,3.91,11,3.5,4.83-1.36.03-8.09,5.5-5.5-4.95,15.08-4.49,8.37-15.75,11-.86.2-12.21,8.73-14.25,10.5-6.67,0-13.33,0-20,0-6.14-8.2-15.85-16.75-19.5-26.5-.43-1.15-1.28-2.98-1.5-4-.08-.35-.51-5.3-.5-6,3.28,2.24,6.69,7.15,9.5,10.5Z" style="fill:#f0c255; stroke-width:0px;"/><path d="m418.99,507.48c-1.56,1.58-3.61,2.74-5,4.5-6.5,0-13,0-19.5,0l-12.75-10.5c-9.2,1.56-17.68-2.09-16.25-12.5,1.08-.31.71-1.26,2-2,.35,2.67-.61,5.32,0,8,1.08,4.8,10.09,3.78,10.5-2,.33-.03.67,0,1,0,10.97.08,10.79,16.11,25.75,13,6.97-1.45,19.83-15.55,24.25-21.5,2.64-3.57,4.47-8.03,8-10.5,1.66,10.88-10.66,26.08-18,33.5Z" style="fill:#f0c255; stroke-width:0px;"/><path d="m97.01,511.98c-1.67,0-3.33,0-5,0,1.81-5.58-14.23-1.84-17-.5-3.91.03-18.69-10.97-22.5-14,9.37-1.71,16.97-7.25,25-12,3.65,9.74,13.36,18.3,19.5,26.5Z" style="fill:#08121b; stroke-width:0px;"/><path d="m46.51,492.48c2,1.79,3.9,3.33,6,5,3.81,3.03,18.59,14.03,22.5,14v.5c-3.17,0-6.33,0-9.5,0-4.71-5.27-12.09-7.38-17.5-11.5-9.24-7.04-36.15-39.34-48-50,0-2.67,0-5.33,0-8,14.62,14.55,31.83,36.92,46.5,50Z" style="fill:#f0c255; stroke-width:0px;"/><path d="m511.98,449.98c-11.68,10.71-37.15,42.18-47,50-5.39,4.28-12.74,6.7-17.5,12-3.17,0-6.33,0-9.5,0v-1c4.44-.22,16.35-9.37,20.5-12.5,2.73-2.06,4.3-3.14,7-5.5,17.2-15.04,30.72-34.49,46.5-51,0,2.67,0,5.33,0,8Z" style="fill:#f0c255; stroke-width:0px;"/><path d="m511.98,424.48c-6.67,6.7-17.28,16.36-23,23.25-5.53,6.66-12.58,19.07-13.75,19.25-.64.1-2.71-2.08-2.75-2.25-2.1-8.23,36.29-40.26,38-51,.83-5.23-1.94-9.3,1.5-10.25,0,7,0,14,0,21Z" style="fill:#f0c255; stroke-width:0px;"/><path d="m13.02,429.48c.05,2.75,12.42,13.3,12.5,14.25.02.18-2.02,2.82-2,3,.02.23,3.42,2.23,2,3.25-7.7-9.35-16.96-17.45-25.5-26,0-6.83,0-13.67,0-20.5,4.5,2.3-1.05,6.12,4,15.25.34.61,7.56,9.06,9,10.75Z" style="fill:#f0c255; stroke-width:0px;"/><path d="m480.98,511.98c-11.16.06-22.33-.02-33.5,0,4.76-5.3,12.11-7.72,17.5-12-1.83,15.87,14.99,4.19,16,12Z" style="fill:#51271e; stroke-width:0px;"/><path d="m65.51,511.98c-10.5-.02-21,.05-31.5,0-.93-6.25,18.04,2.7,14-11.5,5.41,4.12,12.79,6.23,17.5,11.5Z" style="fill:#51271e; stroke-width:0px;"/><path d="m511.98,334.49c0,1.33,0,2.67,0,4q-6,2.62-12,5.25c9.74,15.69-3.42.08-8.5-4.25.25-.65.84-1.26,1.5-1.5,3.78,3.03,11.49-2.67,19-3.5Z" style="fill:#7b392a; stroke-width:0px;"/><path d="m437.99,510.98v1c-8,.02-16-.01-24,0,1.39-1.76,3.44-2.92,5-4.5q9.5,1.75,19,3.5Z" style="fill:#7b392a; stroke-width:0px;"/><path d="m92.01,511.98c-5.67,0-11.33.01-17,0v-.5c2.77-1.34,18.81-5.08,17,.5Z" style="fill:#7b392a; stroke-width:0px;"/><path d="m469.23,159c11.8-2.13,14.74,15.62,4.5,17.5-13.14,2.41-14.6-15.68-4.5-17.5Z" style="fill:#0cd1d3; stroke-width:0px;"/><path d="m502.23,141c5.8-.51,3.64,9.37-5,11.5-4.67,1.15-21.36-2.94-16.5-5,3.95-1.68,13.55,4.15,12.5-5.5,5.53,3.49,7.48-.87,9-1Z" style="fill:#51271e; stroke-width:0px;"/><path d="m489.98,60.51c-3.72,5.34,6.07,7.03,3.75,9.5-2.01,2.14-9.09-5.67-9.25-6.25-.81-2.99,3.31-6.3,5-8.75l.5,5.5Z" style="fill:#51271e; stroke-width:0px;"/><path d="m496.98,52.51h-5c1.65-2.33.41-4.1,1.75-5,.5-.33,9.11-.78,9.5-.5,3.33,2.36-3.74,3.38-6.25,5.5Z" style="fill:#7b392a; stroke-width:0px;"/><path d="m496.98,52.51c-.41.34-6.7,7.56-7,8l-.5-5.5c1.02-1.48,2.4-2.36,2.5-2.5h5Z" style="fill:#51271e; stroke-width:0px;"/><path d="m11.27,140.5c.49-.18,7.7,4.95,8.75,5.75-3.37,1.44.82,15.03-1.75,15.75-17.38-9.47-5.03-10-5.25-13.75-.02-.31-3.45-3.15-3.5-3.5-.03-.23,1.53-4.17,1.75-4.25Z" style="fill:#51271e; stroke-width:0px;"/><path d="m21.77,121c.56,2.08,6.75,11.55,6.75,12.25,0,3.34-12-7.04-6.75-12.25Z" style="fill:#914732; stroke-width:0px;"/><path d="m24.26,66.51c2.33.25-.32,3.5-1,3.5-1.91,0-1.11-3.73,1-3.5Z" style="fill:#b13527; stroke-width:0px;"/><path d="m54.26,27.51c.61.03,1.96,2.09.5,2.5-1.72.48-2.48-2.6-.5-2.5Z" style="fill:#cd532b; stroke-width:0px;"/><path d="m383.99,460.98c.28,1.63.55,3.34.5,5-.52.16-1.58-.09-1.5,1.5-4.1-4.13-1.28,4.13,1.75,5.5,1.08.2.69-1.01.75-1,11.17,2.16,13.63.79,10,12.75-1.38,2.56-3.54-6.01-5.25-6.25-.71-.1-10.2,7.32-12.25,7.5-5.02-7.79-7.85.06-7.25-15.5l-7.25,10.5c-.88-9.2-.09-24.78,13.25-20.5,1.33-.69-6.34-10.8,7.75-1.25.26,1.05-.56,1.4-.5,1.75Z" style="fill:#292329; stroke-width:0px;"/><path d="m502.48,377.99c1.77,14.87-24.01,18.63-21.5-1,8.7-13.3,20.76-5.21,21.5,1Z" style="fill:#533330; stroke-width:0px;"/><path d="m502.48,377.99c5.46,2.64,4.34,14.03-1.25,19-11.57,10.28-32.6-1.12-20.25-20-2.51,19.63,23.27,15.87,21.5,1Z" style="fill:#1f1219; stroke-width:0px;"/><path d="m426.49,415.98c0,.75,0,1.5,0,2.25,5.63,1.9,5.75,10.09,7.5,15.25-.96.79-.69.29-1.5,1.5-1.1,1.65-.79,4.28-2.75,5.5-1.26.78-13.14,4.92-15.25-1.25-2.13-6.24,5.98-9.46,6.5-10.5.29-.58,1.33-9.96,2.5-12.75.63.2,2.05-.13,3,0Z" style="fill:url(#e); stroke-width:0px;"/><path d="m440.99,449.48c5.07,4.09,10.66,9.65,17,11-2.6,9.75-20.52,2.43-24-4.25q1.12-5.62,2.25-11.25c1.48,2.08,2.89,3,4.75,4.5Z" style="fill:#0a5459; stroke-width:0px;"/><path d="m465.49,492.98c-2.7,2.36-4.27,3.44-7,5.5.31-1.32-4.54-1.5-8.75-3.5-1.7-.81-12.99-8.23-13.25-9.25-.15-.59.46-4.03.75-4.25,1.24-.92,7.46,8.76,28.25,11.5Z" style="fill:#7b392a; stroke-width:0px;"/><path d="m377.99,485.98c1.5,2.33,2.87,4.92,1,7-.33,0-.67-.03-1,0-.65.07-1.49-.13-2,0,1.22-1.34-1.83-1.21-2.75-2-2.28-1.96-1.41-6.5-5.75-4-1.29.74-.92,1.69-2,2-3.27-6.37-1.94-7.33-2-8l7.25-10.5c-.6,15.56,2.23,7.71,7.25,15.5Z" style="fill:#7b392a; stroke-width:0px;"/><path d="m436.99,473.98c-3.53,2.47-5.35,6.93-8,10.5-11.11,6.65-2.94-13.47,2.25-14.5,3.7-.73,5.25.71,5.75,4Z" style="fill:#7b392a; stroke-width:0px;"/><path d="m457.99,460.48c-6.34-1.35-11.93-6.91-17-11,2.21-2.27,18.97,3.6,17,11Z" style="fill:#1e2b32; stroke-width:0px;"/><path d="m426.49,415.98c-.95-.13-2.37.2-3,0-5.47-1.69-4.75-10.15-.25-13,7.63,8.94,3.29,9.73,3.25,13Z" style="fill:#0a5459; stroke-width:0px;"/><path d="m432.49,434.98c.81-1.21.54-.71,1.5-1.5,8.25-6.8-1.41,6.75-2,5.25l.5-3.75Z" style="fill:#5f3828; stroke-width:0px;"/><path d="m382.99,467.48c.18.18,2.03,3.64,2.5,4.5-.06-.01.33,1.2-.75,1-3.03-1.37-5.85-9.63-1.75-5.5Z" style="fill:#a37e41; stroke-width:0px;"/><path d="m380.24,429.98l-4.5,8c-.99-3.9,2.05-5.29,4.5-8Z" style="fill:#51271e; stroke-width:0px;"/><path d="m384.49,465.98c.05-1.66-.22-3.37-.5-5,.77.24,1.5,4.02,1.5,4.25-.04,3.67-.86.7-1,.75Z" style="fill:#414342; stroke-width:0px;"/><path d="m149.01,481.98l-7.25-5.5c-.36.04-3.12,4.68-3.75,5.5-1.8,2.36-3.32,4.94-5.5,7,.1-1.21.52-1.19.5-1.25-.22-.73-10.51-10.07-11.25-10.25-2.31-.55-8.49,2.93-11.5,2.5l1,4c-4.95-6.32-6.28-3.59-13.25-5.25l10.75-17.25c19.07,7.73,21.08,21.24,16.25-2.25.61-1.12,5.01,2.84,5.75,2.75.56-.07,6.12-7.5,8-8,1.57,1.2-3.67,12.03-3.25,12.75,15.4-5.17,15.44,3.25,13.5,15.25Z" style="fill:#292329; stroke-width:0px;"/><path d="m31.01,331.49s-.16.68,1,.5c-.27,1.71-.69,5.77-.5,7.25.77,5.96,18.29,23.6,21,28,1.36,2.22,2.06,9.37,4,7.75-.06.24.18,3.96,0,5-3.05.07-15.82-12.32-18.5-15.25-5.77-6.3-10.52-13.49-15-20.75-.29-.48-1.64-6.13-3.5-6.5,1.26-1.82-4.5-21.07-2.25-21,3.49,4,10.1,12.29,13.75,15Z" style="fill:#12737a; stroke-width:0px;"/><path d="m33.51,378.49c2.18,17.94-28.58,14.63-21-3,3.8-8.83,19.89-6.1,21,3Z" style="fill:#533330; stroke-width:0px;"/><path d="m12.52,375.49c-7.58,17.63,23.18,20.94,21,3,4.5,3.26,3.38,11.12.5,15.75-8.16,13.13-31.07,5.99-26-13,.21-.78,3.3-6.58,4.5-5.75Z" style="fill:#1f1219; stroke-width:0px;"/><path d="m77.51,451.48c-1.64-.25-6.47,5.35-8.5,7.75-1.11,1.32-.84,5.79-8,5.75-13.72-3.12-1.27-16.74,15.25-19.5.44.23,1.13,5.05,1.25,6Z" style="fill:#133f42; stroke-width:0px;"/><path d="m25.51,449.98c1.42-1.02-1.98-3.02-2-3.25-.02-.18,2.02-2.82,2-3-.08-.95-12.45-11.5-12.5-14.25,4.71,5.53,31.62,30.05,27.5,36.75-.54.87-1.7,1.6-2.75,1.25-1.01-.34-8.99-13.54-12.25-17.5Z" style="fill:#f0c255; stroke-width:0px;"/><path d="m77.51,485.48c-8.03,4.75-15.63,10.29-25,12-2.1-1.67-4-3.21-6-5,12.97-2.36,18.35-3.45,29.5-11,.22,1.02,1.07,2.85,1.5,4Z" style="fill:#7b392a; stroke-width:0px;"/><path d="m149.01,483.98c-.42,2.22-1.3,4.36-2,6.5-5.47-2.59-.67,4.14-5.5,5.5,1.99-6.66-3.7-5.56-9-6,.01-.33-.03-.67,0-1,2.18-2.06,3.7-4.64,5.5-7,3.82.19,10.16-.47,11,2Z" style="fill:#7b392a; stroke-width:0px;"/><path d="m88.51,479.48l-3.5,6.5c-2.81-3.35-6.22-8.26-9.5-10.5,0-.52-.81-4.18,1.75-5.5,5.23-2.7,9.37,5.36,11.25,9.5Z" style="fill:#7b392a; stroke-width:0px;"/><path d="m88.01,416.48c.87.67,1.03,3.37,2-.5.16-.06.38.06.5,0-.73,3.52-.47,11.09,1.5,14-1.46,1.48-4.21,1.21-5.5,3-9.1-3.5-3.25-9.76,0-17.5.05.07.17-.03,1.5,1Z" style="fill:#0a5459; stroke-width:0px;"/><path d="m86.51,432.98c1.29-1.79,4.04-1.52,5.5-3,.54.8,5.15,3.53,6.5,5.25-1.3.85-4.84,6.07-5.75,6.25-.52.1-7.57-2.38-7.75-2.75-.21-.44,1.14-5.25,1.5-5.75Z" style="fill:#133f42; stroke-width:0px;"/><path d="m19.52,337.49c1.86.37,3.21,6.02,3.5,6.5-3.41.39-7.49-1.31-9.25,2-2.1-1.05-8.66-10.73-7-12,10.83,7.76,10.73,3.1,12.75,3.5Z" style="fill:#7b392a; stroke-width:0px;"/><path d="m90.51,415.98c-.12.06-.34-.06-.5,0-.59.21-.92.72-2,.5-1.33-1.03-1.45-.93-1.5-1-.63-.89-2.73-1.39-2-5.75.07-.43,3.87-7.31,4.75-7.25,2.35.15,6.66,10.63,1.25,13.5Z" style="fill:#0a5459; stroke-width:0px;"/><path d="m77.51,451.48c.54,4.18,1.53,6.26-5.75,11-3.71,2.42-5.98,3.58-10.75,2.5,7.16.04,6.89-4.43,8-5.75,2.03-2.4,6.86-8,8.5-7.75Z" style="fill:#0a5459; stroke-width:0px;"/><path d="m10.02,304.99c1.81.36.83,8.42.5,8.75-.73.74-2.86-.52-2.5,1.25-5.55-1.11-5.8-11.27,2-10Z" style="fill:#df7a2c; stroke-width:0px;"/><path d="m141.51,495.98c-1.47.41-8.54-3.79-11-3.5.13-.1-.28-1.22,2-2.5,5.3.44,10.98-.66,9,6Z" style="fill:#a0582e; stroke-width:0px;"/><path d="m149.01,481.98c-.1.64.12,1.37,0,2-.84-2.47-7.17-1.81-11-2,.63-.82,3.39-5.46,3.75-5.5l7.25,5.5Z" style="fill:#51271e; stroke-width:0px;"/><path d="m8.02,314.99c-.36-1.76,1.77-.51,2.5-1.25.33-.33,1.31-8.39-.5-8.75,7.83,1.28,5.38,11.47-2,10Z" style="fill:#ca662c; stroke-width:0px;"/><path d="m86.01,486.98c-.28-.32-.66-.59-1-1l3.5-6.5c.34.74,3.88,3.5-2.5,7.5Z" style="fill:#51271e; stroke-width:0px;"/><path d="m129.76,426.98c.67.75,9,9.53,7,10.5l-7-10.5Z" style="fill:#5f3828; stroke-width:0px;"/><path d="m56.51,379.99c.18-1.04-.06-4.76,0-5,.06-.23.65-1.81,1-1.25l-1,6.25Z" style="fill:#158187; stroke-width:0px;"/><path d="m32.01,331.99c-1.16.18-.96-.47-1-.5,3.18-5.44,1.13-.34,1,.5Z" style="fill:#673244; stroke-width:0px;"/><path d="m78.76,429.98c.34.24.36.94.25,1.25-.48,1.39-2.89.82-.25-1.25Z" style="fill:#60787d; stroke-width:0px;"/><path d="m375.99,492.98c-1.48.38-5.06,5.09-8.5,2-.61-2.68.35-5.33,0-8,4.34-2.5,3.47,2.04,5.75,4,.92.79,3.97.66,2.75,2Z" style="fill:#a0582e; stroke-width:0px;"/><path d="m377.99,492.98c-.41,5.78-9.41,6.8-10.5,2,3.44,3.09,7.02-1.62,8.5-2,.51-.13,1.35.07,2,0Z" style="fill:#d8ae3f; stroke-width:0px;"/><path d="m88.01,416.48c1.08.22,1.41-.29,2-.5-.97,3.87-1.13,1.17-2,.5Z" style="fill:#081d1e; stroke-width:0px;"/></g><path d="m451.99,27.51c4.47,4.39,6.24,7.09,10,11.5,4.62,5.43,8.49,11.56,14,16.25.14.92-2.31,3.85-3.25,3.75-2.19-.23-26.9-27.59-30.75-31.5,2.44-.43,4.55-.84,5-3.5,4.63,4.61,4.76,3.26,5,3.5Z" style="fill:#51271e; stroke-width:0px;"/><path d="m273,459.98q18,.5,36,1c-2.48,3.17-4.46,7.16-6.75,10.5l-29.25.5c-2.37-4.43-7.53-9.07,0-12Z" style="fill:#51271e; stroke-width:0px;"/><path d="m332.99,430.48c-1.88-5.99-4.33-8.97-9.5-13l8.25-15c1.42,2.8,14.95,15.66,15.25,16.75,1.17,4.27-10.01,12.85-12.75,16.25-.95-1.59-.71-3.26-1.25-5Z" style="fill:#12737a; stroke-width:0px;"/><path d="m185.5,164c.85,1.06,1.58,2.36,2.5,3.5,1.43,1.77,2.51,4.4,4,6.25,3.42,4.24,21.17,24.5,22,26.5,1.17,2.8.38,5.18.5,7.25-11.76-10.81-22.52-22.48-33-34.5-2.08-2.38-3.89-5.32-6-7.75-1.57-1.81-11.29-10.71-11.5-11.5-1.05-3.91,3.43-7.38,7.25-6.25,1.05.31,12.58,14.42,14.25,16.5Z" style="fill:#08121b; stroke-width:0px;"/><path d="m428.99,301.99c-2.96,4.06-9.16,10.5-8,13.75-2.2,3.1-20.17,20.53-20.5,22-1.02,4.52,12.04,6.6,6.5,23.5-3.14,9.6-12.2,17.59-20.5,22.75-.88.55-5.05,2.03-8,5,.57-11.89-5.97-7.96-8.75-10.5-3.05-2.78,1.1-10.26-10.75-9.5-.23.01-.69-.96-3.25,1l-.75-.75-.25-7.75q-8.12,8.87-16.25,17.75c-.12,1.18,2.56,2.76,3.5,3.25-.05.48.21,1.19-.25,1.5-2.37,1.6-6.26-1.23,3.75,9-2.15,6.69,2.33,4.36,3.5,5,3.7,2.02,7.53,7.46,11.5,10-2.52,5.05-6.92,10.89-7.5,16.5-21.1,21.66-43.4,42.22-63.5,64.75-.27,1.59,1.06,3.64,2.5,4.25-.83,1.62-7.37,7.14-7.5,7.75-.87,4.01,5.94.7,0,10.75-19.17,0-38.33,0-57.5,0,.22-3.47-1.68-7.22.5-10.25l-6-8.75c.14-.16,1.44-3.05.5-4.25-20.13-22.04-41.61-42.85-62.5-64.25,1.02-3.94-3-13.26-5-18,2.47-4.28,13.66-10.41,14-11.25.32-.79-.23-5.11,0-7,9.96,1.36,1.19-8.45,2.75-12.25,1.92,2.53,12.75,12.79,13.25,13.75,1.43,2.76-.24,8.31,12.5,22.75-2.89,2.48-5.11,3.23-7.5,5q-4.37-7.25-8.75-14.5c-1.81,2.3-14.99,15.65-15.25,16.75-1.01,4.31,11.05,18.07,16.5,16.25,2.4,5.34,15.81,19.53,21,24.5-.26,3.69,3.89,7.56,5.75,11l30.25.5c-1.31,2.23-8.89,14.89-9,16-.48,4.77,5.67,8.76,10.25,6,2.33-1.4,2.61-4.71,3.25-6,1.12-2.26,2.29-6.46,2.5-6.75,1.43-1.99,8.82-5.02,11.25-4.75,6.68.74,7.54,6.88,10.25,11.5.97,1.65,2.09,4.97,3.75,6,4.26,2.63,12.79,1.42,8.75-9.5-1.27-3.43-5.03-8.82-7-12.5l29.25-.5c2.29-3.34,4.26-7.33,6.75-10.5,8.3-10.6,21.4-21.33,24-30.5.54,1.74.3,3.41,1.25,5,2.74-3.4,13.91-11.98,12.75-16.25-.3-1.09-13.83-13.95-15.25-16.75l-8.25,15c-1-.78-5.79-2.77-8.5-5,1.52-2.02,11.31-14.79,11.5-15.75.11-.56-1.06-3.64-.5-5.5.72-2.41,30.37-31.57,33.5-37.5l11.25-11.25c28.1-18.74,48.9-45.56,70.25-71.25,14.05-12.82,26.75-26.94,39.25-41.25l6.75,7.25c-10.85,13.52-21.45,29.08-37,37.5-7.22,8.94-14.22,17.96-21,27.25Z" style="fill:#08121b; stroke-width:0px;"/><path d="m79.51,303.49c-8.54,7.63-11.83-3.58-26.25-17-7.58-7.05-16.27-13.01-23.5-20.5-2.45,2.19-4.79,4.86-7.25,7-13.33,11.61-11.75,13.03-22.5,5.5,0-6,0-12,0-18,7.81,7.94,8.98,1.43,12-1.5,4.96-4.82,9.35-10.16,14.75-14.5,14.76,24.68,36.5,35.86,52.75,59Z" style="fill:#08121b; stroke-width:0px;"/><path d="m96.01.01c-15.7,18.45-33.3,35.21-50.75,52H13.77c-1.8-.69-1.67-5.98-.5-6.5h32c4.41-3.8,13.77-12.59,15.75-17.5.43-1.08.66-2.38,1-3.5.61.24.96.71,1.75.5L88.01.01c2.67,0,5.33,0,8,0Z" style="fill:#51271e; stroke-width:0px;"/><path d="m437.49,168.5c6.74-9.85,21.54-25.63,30-35.5l5.5,8.25c-10.77,8.32-23.05,23.56-35.5,27.25Z" style="fill:#2c1717; stroke-width:0px;"/><path d="m189.5,417.48c-8.25,6.13-12.58,7.21-7.5,18.5-5.45,1.83-17.51-11.94-16.5-16.25.26-1.1,13.44-14.45,15.25-16.75q4.37,7.25,8.75,14.5Z" style="fill:#0c656e; stroke-width:0px;"/><path d="m426.49,356.99l-12.5-20.25c1.91-3.31,4.73-5.72,7.5-8.25l6.5,6.5c-7.22,8.17-9.76,8.51-3.75,13l67-65,2.75,2.75c-23,23.28-45.12,47.38-67.5,71.25Z" style="fill:#08121b; stroke-width:0px;"/><path d="m438.99,323.49c-3.68,3.74-7.53,7.58-11,11.5l-6.5-6.5c1.56-1.42,4.65-5.55,6.75-6,3.09-.66,7.5,1.22,10.75,1Z" style="fill:#51271e; stroke-width:0px;"/><path d="m72.01,331.99c5.88,5.36,15.04,16.59,18.75,14.5,4.24-2.39-4.54-9.65-6.75-12l6.5-6.5c3.07,2.7,5.43,6.04,8.5,8.75q-6.75,9.87-13.5,19.75c-22.42-23.83-44.7-47.78-67.5-71.25-.09-.84,1.61-2.61,3.25-2.25,16.94,16.34,33.35,33.12,50.75,49Z" style="fill:#08121b; stroke-width:0px;"/><path d="m411.99,249.99c-20.57.05-19.99,12.8-35,29.75l6,7.75c-3.6,3.73-7.45,7.27-11,11-2.73-1.16-6.8-6.25-9.75-5.5-1.33.34-16.88,17.63-18.75,20-1.77,2.24-10.17,7.04,1,15.5-.17.17-.34.33-.5.5h-.5l-12.25-8.5c-1.24-.04-3.35,3.21-4.25,4-.85.74-2.99,2.36-3.5,3-11.98-1.94-2.78-4.21-1-10.75-.67-2.1-.45-3.2,0-5.25.35-1.61,1.07-6.55,1.5-7.25.8-1.3,6.18-2.61,7.5-4.5-.87-3.51-.75-7.23-1.5-10.75,3.57-.99,5.69-5.31,9.5-4.25.61-1.74,6.34-13.13,7-13.5.85-.48,1.65,2.5,3,.5q6.12-9.12,12.25-18.25c10.47,6.37,3.12-2.27,3.75-4.75,1.58-6.21,30.79-9.55,36.75-10.25l9.75,11.5Z" style="fill:#08121b; stroke-width:0px;"/><path d="m331.49,346.49c-.86,2.91-9.72,9.77-12.5,12-1.12-.36-3.06-.5-5-1.5-.33-.17-1.91-.22-2-1,2.95,1.6,9.24-11.79,8.5-14.5,2.44,4.06,3.12,1.23,3.75,10l7.25-5Z" style="fill:#08121b; stroke-width:0px;"/><path d="m332.99,169.5c-5.39,6.06-10.44,12.63-16,18.5-6.33,6.68-13.4,13.13-20.5,19,.14-2.64-.6-5.04,1-7.25,3.16-4.97,24.26-27.71,25-29.5.39-.94.72-1.29,0-2.25,3.31-2.67,15.77-20.56,18.25-21,2.95-.53,7.89,3.75,7.75,5.75-.08,1.14-13.52,14.52-15.5,16.75Z" style="fill:#08121b; stroke-width:0px;"/><path d="m417.49,149c-3.04,9.01-8.49,18-13.5,26.25-10.81,17.81-20.2,29.45-32.5,45.5-1.54,2.01-.43,2.16-.5,2.25-5.19,6.78-11.27,12.77-16.5,19.5l.25-16.5c-3.96,4.31-26.32,24.54-27.25,26.25-1.87,3.43-1.52,7.23-1.5,11q-8,8.12-16,16.25c-.33-.49-4.47-3.98-4.5-5.25,15.73-34.93,45.28-59.97,69.5-88.74,2.52,1.07-2.62,8.43-4.5,11.25-5.21,7.8-12.43,14.41-18.5,21.5q7.12.12,14.25.25c20.62-20.11,30.13-49.88,51.25-69.5Z" style="fill:#08121b; stroke-width:0px;"/><path d="m414.99.01c8.49,9.67,17.99,18.35,27,27.5,3.84,3.9,28.56,31.27,30.75,31.5.94.1,3.39-2.83,3.25-3.75-5.51-4.69-9.38-10.82-14-16.25l11.75,3.5c7.59-9.65,6.98-10.1-2.5-2.5-8.26-5.98-21.45-25.09-19.25-12.5-.24-.24-.37,1.11-5-3.5Q435.24,12.01,423.49.01c29.5.04,59-.03,88.49,0,.03,52.83-.04,105.66,0,158.49-16.5,8.22-19.74,13.55-30.5,26-2.64,3.06-18.54,21.68-18.5,23.75.79,1.44,1.79,2.77,2.5,4.25,1.5,3.15,3.74,5.98,4.5,9.5-4.17.18-3.44.3-8.75,5-1.95,1.73-28.56,29.04-35.25,35.75-3.02,3.03-5.47,6.98-8.5,10-14.89,14.84-30.83,28.44-45.5,43.5-12.77,15.61-27.57,29.55-40.5,45-10.27,12.28-19.19,26.18-28,36.5-7.35,8.61-17.88,17.19-24.5,25-5.97,7.05-13.44,20.3-17,24.25-.84.94-5.72,5.73-6.75,5.5-1.77-2.14-3.55-4.3-5.25-6.5-4.33-5.6-8.58-13.76-13-19.25-8.5-10.57-20.42-20.23-29.5-31-9.71-11.52-18.73-25.36-29-37.5-14.03-16.58-35.49-38.47-51-54.75,9.35,3.76-6.12-8.12-9.5-11.5-1.04-1.05-2.05-2.35-3-3.5,12.96,7.94,67.01,68.36,74.49,70.5-.3-.06-1,.67-1,.75.11,2.51,18.23,22.98,21.75,26.25.74.11,2.01-1.09,2.75-1.5,1.83,1.9,14.25,18.06,14.5,19.25.15.7-2.8,4.09,5.25,12.25,12.27,12.44,17.27,1.75,19,2q4.5,4.75,9,9.5c19.67-11.17,30-22.01,37.75-43.5,1.03.48,3.3,1.7,4.25,1.5,1.3-.27,14.88-17.91,17.25-20.25,4.15-5.55,2.3-5.48,2.5-5.75.6-.79,11.67-9.03,15.25-12.5,21.24-20.58,39.92-43.8,63-62.5,14.71-17.73,47.66-44.99,58.25-57.5,5.14-6.07,8.36-5.92,3.25-15-3.19,3.22-6.44,6.4-9.75,9.5-9.5,8.92-18.15,18.77-29.5,25.5-2.09-4.89-1.28-13.71-1.5-19.75l-9.5-9c6.95-8.87,22.92-19.01,16.5-26.75,1.9-11.23,2.84-13.99,9-23,12.45-3.69,24.73-18.93,35.5-27.25l-5.5-8.25c6.19-7.23,12.46-14.39,18.5-21.75l-.75-.75c-20.78,20.38-40.8,41.57-60.25,63.25-.37,5.63-3.95,22.26-5.5,26.75-.11.33.33.53.5.75-8.62,9.02-16.89,18.64-27.25,25.75l-.75-.25c5.28-7.54,11.41-14.44,17-21.75.89-.67,1.74-1.43,2.5-2.25-1.73-10.19,4.21-21.58,7-31.5,21.1-19.52,42.73-39.09,62.5-60,3.39-3.58,9.32-13.3,13.75-16.75,3.75-2.92,15.78-6.22,13.75-11.25-1.61-3.99-17.2,2.45-20.25,4.25-8.57,5.05-21.52,22.58-30,30-1.02.74-3.12,1.97-3.75,2.5-10.36,8.71-25.95,19.02-35.5,27.5-1.52-23.4-4.41-13.51-15.25-4.5-.98.82-1.2-.04-1.25,0,1.12-2.1,7.97-16.08,3.75-16.5-.76-.07-5.89,6.47-11,10.5-5.3,4.17-19.3,12.63-21.25,14.5l-4-2.5c9.32-10.75,18.8-21.34,28.5-31.75.41-2.44-5.87-6.16-7.25-8.25-12.61,15.11-26.05,29.41-39.25,44-.61-1.96-.12-4.01,0-6,.06-.99-.03-2,0-3,26.85-36.3,16.97-32.77,15.5-53-.39-5.36.95-8.05.5-11.25-.12-.84-4.64-10.99-5-16.25-1.19-17.23,16.99-32.11,17.5-49.25L393.99.01c7,0,14-.01,21,0Z" style="fill:#08121b; stroke-width:0px;"/><path d="m423.49.01q11.75,12,23.5,24c-.45,2.66-2.56,3.07-5,3.5-9.01-9.15-18.51-17.83-27-27.5,2.83,0,5.67,0,8.5,0Z" style="fill:#51271e; stroke-width:0px;"/><path d="m461.99,39.01c-3.76-4.41-5.53-7.11-10-11.5-2.2-12.59,10.98,6.52,19.25,12.5,9.48-7.6,10.09-7.15,2.5,2.5l-11.75-3.5Z" style="fill:#51271e; stroke-width:0px;"/><path d="m453.74,176c12.68-1.09,12.4,19.94-.5,18-9.26-1.39-9.4-17.15.5-18Z" style="fill:#ca662c; stroke-width:0px;"/><path d="m408.49,105.5c-.08.09.08.41,0,.5-2.87,3.13-5.9,6.12-8.5,9.5-1.2-.81-8.1-6.72-8-7.75,2.88-3.23,5.67-6.6,8-10.25l8.5,8Z" style="fill:#f0c255; stroke-width:0px;"/><path d="m399.99,115.5c2.6-3.38,5.63-6.37,8.5-9.5.69.33,2.08,1.48,2,2.25-.06.55-6.51,8.25-7,8.5-2.47,1.23-3.33-1.13-3.5-1.25Z" style="fill:#51271e; stroke-width:0px;"/><path d="m127.51,303.49c-1.94-2.04-4.04-3.93-6-6-1.84-1.95-2.94-3.9-3.5-4.5v-1c3.38,3.38,18.85,15.26,9.5,11.5Z" style="fill:#032b35; stroke-width:0px;"/><path d="m424.49,63.01c-1.41,1.77-4.68,3.74-7,4-13.13,1.49-16.61-16.19-7.25-21.5,11.04-6.26,22.02,7.71,14.25,17.5Z" style="fill:#f0c255; stroke-width:0px;"/><path d="m408.49,105.5l-8.5-8c1.34-2.1,10.52-16.72,10.5-17.75,0-.29-3.34-3.72-3-5,.28-1.05,9.79-5.35,10-7.75,2.32-.26,5.59-2.23,7-4,.04,6.27,4.78,11.38,11.25,9.5,1.09-.32,14.16-13.54,16.5-15.5,2.71,2.79,5.56,5.45,8.25,8.25,16.23,16.91,4.69,13.16,3,20,2.46,11.45-7.21,30.5-16.25,28.75-2.64-.51-18.31-20.51-20-21-6.57-1.91-14.49,7.9-18.75,12.5Z" style="fill:#12737a; stroke-width:0px;"/><path d="m446.24,81.51c12.75-2.86,15.77,13.55,6.5,16.5-13.28,4.22-15.58-14.46-6.5-16.5Z" style="fill:#08121b; stroke-width:0px;"/><path d="m366.49,176.5c-16.65,16.16-31.49,34.01-49.5,48.75-3.26,21.58-31.76,52.57-17,66.25v1.5c-.5-.62-2.21-1.14-2.5-1.5-.66-.83-1.34-1.29-2-2-.17-.18-1.98-3.44-2.5-4.25l-3-2.25c-1.27-1.12-3.02-.86-4.5-1.5.51-12.67,8.94-22.37,15-33,5.43-9.53,10.47-19.3,17-28.25,12.59-12.02,39.43-44.71,48-53,8.42-8.13-1.2,7.38,1,9.25Z" style="fill:#08121b; stroke-width:0px;"/><path d="m300.5,248.49c-6.06,10.63-14.49,20.33-15,33-.14-.06-.36.06-.5,0-1.41-.57-3.06-1.9-4.5-2.5l2.5-29c5.88-.54,11.68.53,17.5-1.5Z" style="fill:#0a5459; stroke-width:0px;"/><path d="m283,249.99l-2.5,29c-.4-.16-2.43.08-3-1.5.89-9.05,1.03-18.2,2-27.25,1.19.14,2.31-.14,3.5-.25Z" style="fill:#08121b; stroke-width:0px;"/><path d="m411.99,249.99c1.71,0,4.72.62,6.5,1-5.78,5.22-27.34,28.05-35.5,36.5l-6-7.75c15.01-16.95,14.43-29.69,35-29.75Z" style="fill:#0a5459; stroke-width:0px;"/><path d="m247,370.99c-.06,1.16.09,2.35,0,3.5-.24,3.07-1.32,6.11-1,9.25l-1,.75-9.25,6c-3.28-2.61-6.2-5.64-9.25-8.5,1.93-1.56,10.81-14.82,11.75-15,.74-.14,6.63,3.56,8.75,4Z" style="fill:#08121b; stroke-width:0px;"/><path d="m100.51,154.5c8.13,9.65,37.58,62.07,43.75,64.5,3.77,1.49,14.12-.9,14.25-2.25-4.91-5.99-11.04-11.14-15.5-17.5-2.14-3.05-8.1-11.66-5.5-12.75,24.17,29.1,52.19,50.86,69,87.74-1.32,2.2-3.59,3.65-5,5.75-12.23-10.73-16.27-25.45-18.5-28.75-1.44-2.14-21.11-20.93-25.75-26.25q-.12,8.75-.25,17.5c-6.53-8.41-13.5-16.48-20.5-24.5.64-.77-.13-1.69-.5-2.25-2.39-3.6-10.23-12.12-15-19-6.95-10.02-23.99-37.08-26-47.75,1.45,1.42,4.4,4.19,5.5,5.5Z" style="fill:#08121b; stroke-width:0px;"/><path d="m205.5,236.99c-1.33.31,1.03,4.46,2,6.25,4.03,7.42,18.01,26.53,18,33.25l.5,1.25c-3.02,3.25-1.89,11.49-2.5,16.75-.06-.05-.81.01-1.5-.5-.59-.44-2.33-3.32-3.25-3q-2.87,5-5.75,10c-.75-3.28-.57-6.68-1-10,13.59-12.88-13.53-47.2-17.5-66.25-17.74-14.95-33.06-32.4-49.5-48.75.69-3.22-4.34-13.96-3.25-14.5,16.42,20.28,34.75,38.89,52.25,58.25,3.25,6.2,7.29,11.69,11.5,17.25Z" style="fill:#08121b; stroke-width:0px;"/><path d="m229,249.99q.5,10.75,1,21.5c-1.05,1.81-2.13,4.94-4.5,5,.01-6.72-13.97-25.83-18-33.25-.97-1.79-3.33-5.94-2-6.25,1.84,2.43,8.74,12.49,10.75,13,4.24-.09,8.51.12,12.75,0Z" style="fill:#0a5459; stroke-width:0px;"/><path d="m232,269.49c-.51,1.79-1.93,1.88-2,2q-.5-10.75-1-21.5c.18,0,2.64-.96,3.5-.75.88,1.58.17,17.93-.5,20.25Z" style="fill:#081d1e; stroke-width:0px;"/><path d="m174.5,283.99c1.14,1.84,3,3.02,4.5,4.5.32.32.73,1.43,1.5,1.5-1.61,15.36,2.33,10.28,6,14.25.57.62,2.33,5.49,2.5,5.75-4.32,5.07-2.44,5.8-2,7,.7,1.9,1.94,3.32,3,5-.08.13.21,1.18-1,3-1.34,2.01-5.11,5.57-6,7.5l-8-12.5c.34-.77,1.16-2.16,1-2.75-4.49-3.63-8.11-4.44-8.5-4.75-.92-.73-3.36-3.75-4.5-5,9.09-11.06-5.31-18.63-11.25-27.5-.39,0-3.66,3.92-4.25,4.5-3.48,3.41-7.09,7.07-10,11-7.96-7.88-15.55-16.15-23.5-24,7.75-10.23,6.34-10.91,19.25-8.5,3.43-2.57,5.63-7.23,9.25-9.5.91-.57,2.45-1.35,3.5-1.5.48-.07.75-.74,1.75-.5,2.44,4.35,22.17,27.01,22.75,28.75,1.37,4.11-3.01,10.16,4,3.75Z" style="fill:#08121b; stroke-width:0px;"/><path d="m147.76,259.49c2.14-.61,4.44,3.51,4.25,3.75-1.59,2.03-9.02-2.39-4.25-3.75Z" style="fill:#5a1226; stroke-width:0px;"/><path d="m176.5,282.49c1.23,2.24,3.57,3.18,2.5,6-1.5-1.48-3.36-2.66-4.5-4.5.54-.49.8-1.77,2-1.5Z" style="fill:#51271e; stroke-width:0px;"/><path d="m154.01,365.99c-.75,1.23-19.34,19.7-20.75,20-8.91,1.88-25.87-14.17-28.25-29.25-1.77-11.21,1.84-9.73,6.5-18.5-11.56-11.37-19.33-25.12-29-37.75-6.67-8.71-13.81-17.05-20.5-25.75-9.04-3.04-36.44-35.87-36-38.5.07-.42,5.88-5.49,6.75-5.25,24.43,28.51,51.2,54.83,75.24,83.74,11.11,15.95,55.06,36.51,46,51.25Z" style="fill:#08121b; stroke-width:0px;"/><path d="m135.26,346.99c16.39-2.67,18.01,21.93,3.5,24-15.92,2.27-17.42-21.73-3.5-24Z" style="fill:#133f42; stroke-width:0px;"/><path d="m489.98,272.99c1.64,1.45,11.92,10.87,12.75,11,2.14.34,6.94-4.86,9.25-5.5,0,3.33,0,6.67,0,10-17.85,4.56-29.25,22.17-42.5,35.5-14.42,14.51-28.31,29.29-42.5,44-1.34,1.39-.94,1.43-1,1.5-11.9,12.35-29.66,32.83-43.75,38.5-3.72,9.85-9.96,2.19-10.75,14-4.8,4.07-11.57,8.73-15.5,13.5-5.33,6.47-10.48,20.41-13.25,23-7.65,4.53-15.49,9-22.5,14.5-10.87,8.54-21.13,23.53-28.25,20.5-1.44-.61-2.77-2.66-2.5-4.25,20.09-22.53,42.4-43.08,63.5-64.75,3.3-3.39,6.24-7.08,9.5-10.5,5.28-5.54,10.6-11.07,16-16.5,16.49-.8,34.83-26.46,48-40.5,22.38-23.87,44.49-47.97,67.5-71.25l-2.75-2.75-67,65c-6.01-4.49-3.47-4.83,3.75-13,3.47-3.92,7.32-7.76,11-11.5,16.74-17.03,34.5-33.2,51-50.5Z" style="fill:#f0c255; stroke-width:0px;"/><path d="m74.01,324.49c1.21,1.22,2.3,2.76,3.5,4-3.08,3.39,1.68,8.03-5.5,3.5-17.4-15.88-33.81-32.65-50.75-49-1.63-.36-3.34,1.41-3.25,2.25,22.8,23.47,45.08,47.42,67.5,71.25,7.68,8.16,33.45,38.95,41.75,41,7.51,1.85,2.88-4.19,17.25,10.5,5.15,5.26,9.82,11.19,15,16.5,20.88,21.39,42.37,42.21,62.5,64.25.94,1.2-.36,4.09-.5,4.25-6.18,6.77-19.33-11.56-30.75-20.5-6.72-5.27-14.17-9.65-21.5-14-5.66-9.18-7.93-16.51-15.25-25-4.68-5.42-11.47-10.38-12-11-4.43-5.18-1.5-6.47-3.25-7.5-4.53.52-7.95-5.27-10.5-8.5-3.49.3-10.66-5.66-14-8.5-8.88-7.54-26.42-28.68-36.25-38.75-11.97-12.27-24.39-24.11-36.5-36.25-5.38-5.4-24.94-27.39-28.25-29.5-1.62-1.03-10.05-3.6-13.25-5.5,0-3.17,0-6.33,0-9.5,10.75,7.53,9.17,6.11,22.5-5.5,16.67,17.66,34.4,34.27,51.5,51.5Z" style="fill:#f0c255; stroke-width:0px;"/><path d="m31.01,184.5c-2.5-.34-13.86-11.58-15-8.75-2.27,5.66,15.22,15.22,16.5,28.75-2.5,1.55-14.72,14.2-15.75,14.5-4.37,1.28-7.78-3.11-6.75-6.75.19-.66,6.37-5.7,7-7.5,3.05-8.7-9.74-15.78-17-14.25,0-10.67,0-21.33,0-32,17.52,7.87,20.12,13.64,31,26Z" style="fill:#f0c255; stroke-width:0px;"/><path d="m221.5,492.98l6,8.75c-2.18,3.03-.28,6.78-.5,10.25-1.83,0-3.67,0-5.5,0,.1-6.83-8.47-7.95-13.75-12-6.13-4.7-13.06-15.04-14-15.5-1.62-.79-5.66-.03-8-1-1.31-.54-19.41-18.61-20.25-19.75-3.33-4.51-11.81-24.01-11.5-30.25,7.32,8.49,9.59,15.81,15.25,25,7.33,4.35,14.77,8.73,21.5,14,11.42,8.94,24.57,27.27,30.75,20.5Z" style="fill:#51271e; stroke-width:0px;"/><path d="m291.5,511.98c-2.33,0-4.67,0-7,0,5.94-10.05-.87-6.74,0-10.75.13-.61,6.67-6.12,7.5-7.75,7.12,3.03,17.37-11.96,28.25-20.5,7-5.5,14.85-9.97,22.5-14.5,2.77-2.58,7.92-16.53,13.25-23,1.78,4.2-6.02,23.79-8,26.75-.88,1.31-21.24,21.31-22.75,21.75-1.26.37-4.95-.37-6,0-1.05.37-11.29,12.82-15.5,16-6.46,4.87-14.28,5.07-12.25,12Z" style="fill:#51271e; stroke-width:0px;"/><path d="m322.49,311.49c-.45,2.05-.67,3.15,0,5.25-1.78,6.54-10.98,8.81,1,10.75-.83,1.04-1.87,1.92-2,2.75,1.71,2.92,8.64,11.1,9,11.75.98,1.73,1.53,2.71,1,4.5l-7.25,5c-.63-8.77-1.31-5.94-3.75-10-2.06-3.44-3.95-6.38-6.5-9.5-1.14-1.4-2.9-5.51-4.75-5-7.85,9.72-3.86,5.22,2.75,15-.23,2-.7,12.76,0,14,.09.78,1.67.83,2,1-6.05,9.12-15.46,14.84-15.5,27-7.75,21.48-18.08,32.33-37.75,43.5q-4.5-4.75-9-9.5c-1.73-.25-6.73,10.44-19-2-8.05-8.16-5.1-11.54-5.25-12.25-.25-1.19-12.67-17.35-14.5-19.25,2.19-1.2,4.66-4.61,7.75-3.5.8.29,9.22,11.89,10.25,13.5,2.45,3.82,4.98,10.86,7,13.75,6.76,9.68,21.27,2.56,31.25,7.25,3.74-.47,13.06-9.14,14.25-11.75,3.48-7.66-3.11-8.32-3.5-8.75-6.02-6.73-19.24-25.51-30-38,1.28-.69-1.25-4.41-.5-7.25.26-.99,11.32-13.78,13-15.75,3.73-4.36,7.95-8.42,12-12.5,2.7.09,7.29-.5,9.5-4,6.25,1.06,1.38,2.95-1.5,6.5-7.24,8.92-16.36,18.9-12,31.25,6.21,17.57,35.91,5.69,19-14.75.86-.56,4.31-5.62,5.5-7,3.5-4.06,17.65-20.65,12-21,2.9-2.8,1.83-2.75,2-3,.91.5,3.93-2.28,4-2.5l9.5,4.5Z" style="fill:#0a5459; stroke-width:0px;"/><path d="m479.48,208.5c1.89,25.87,24.7,26.7,13,37.75l10,9.75c-.82.78-1.32,2.06-2.5,2.5-4.63-4.44-9.52-9.1-12.25-15-4.67,5.33-8.1,11.94-12.75,17.25-9.71,11.07-28.9,22.21-42.5,43.75-1.56-.86-2.17-2.63-3.5-2.5,6.78-9.29,13.78-18.3,21-27.25,15.55-8.41,26.15-23.98,37-37.5l-6.75-7.25c-12.5,14.31-25.2,28.43-39.25,41.25-21.34,25.69-42.15,52.5-70.25,71.25l-11.25,11.25c-3.13,5.93-32.78,35.09-33.5,37.5-.56,1.86.61,4.94.5,5.5-.19.96-9.98,13.73-11.5,15.75-9.32-7.66,3.96-11.75,6-17.25,2.07-5.59-3.58-3.31,3-12.5,13.57-18.94,72.29-79.99,94.24-95.24,8-7.86,14.48-17.2,22.25-25.25,4.51-4.67,36.02-33.96,36.5-36.5.68-3.61-4.76-3.85-7-3.75-.76-3.52-3-6.35-4.5-9.5,3.75-2.07,10.07-4.43,14-4Z" style="fill:#51271e; stroke-width:0px;"/><path d="m408.99,205c-.77.58-10.46,4.5-14.25,7.5-2.83,2.24-43.87,45.04-50.25,51.75-3.09,3.25-6.46,8.17-9.5,11.25-.77.78-2.47,2.55-3,3-.21.18-3.15,1.85-4.5,3-.11-.56-.7.06-.5-3,2.86-4.08,6.48-7.56,9.5-11.5,6.18-8.06,11.73-16.44,18-24.5,5.23-6.73,11.3-12.72,16.5-19.5,15.77-16.05,31.46-32.24,43-51.75,10.38-12.89,22.87-24.24,32.5-37.75.25,2.95,3.61-.01,5-1,13.16-9.33,34.23-36.4,50.5-46.25-19.23,4.47-34.51,30.71-49.5,43.75,1.21-2.56,3.67-3.86-1.5-3,.99-1.58,2.52-5.08,3.5-7,.63-.53,2.73-1.76,3.75-2.5,8.47-7.42,21.43-24.94,30-30,3.05-1.8,18.64-8.24,20.25-4.25,2.03,5.03-10,8.33-13.75,11.25-4.42,3.45-10.36,13.16-13.75,16.75-19.77,20.91-41.4,40.47-62.5,60-2.79,9.92-8.72,21.31-7,31.5-.76.82-1.6,1.58-2.5,2.25Z" style="fill:#f0c255; stroke-width:0px;"/><path d="m398.99,145.5l-1,1.5c-9.75,10.59-21.21,19.52-31.5,29.5-2.2-1.87,7.42-17.38-1-9.25-8.57,8.28-35.41,40.98-48,53-6.52,8.95-11.57,18.72-17,28.25-5.82,2.03-11.62.96-17.5,1.5-1.19.11-2.31.39-3.5.25-.97,9.05-1.11,18.2-2,27.25,0,.08-1.46-.2-1.5.25-.29,2.97-.04,8.31,0,11.75.28,1.96-4.12,1.77-6,2.5q.75-28.5,1.5-57c7.62,17.66,21.51-4.76,30.25-9,23.46-24.96,45.79-51.09,68.25-76.99l4,2.5c-5.25,5.03-.23,7.63,2.25,7.5,1.58-.08,18.86-12.16,22.75-13.5Z" style="fill:#51271e; stroke-width:0px;"/><path d="m58.01,220c6.27,6.14,12.63,12.2,18.75,18.5,6.08,4.44,12.11,8.46,17.75,13.5,4.14,3.7,14.02,14.09,19.5,19.5,7.95,7.84,15.54,16.11,23.5,24,6.02,5.96,11.6,12.43,18,18,3.47,5.05,8.41,9.01,12.5,13.5,4.93,5.42,9.6,11.13,14,17,1.16,7.84,5.22,8.97,10.5,14-.25,1.22-2.22,1.22-3,1-7.49-2.13-61.53-62.56-74.49-70.5-13.99-16.27-30.02-30.3-45.5-45-3.24-3.08-15.65-14.11-16.5-17-1.28-4.35.51-6.98,5-6.5Z" style="fill:#f0c255; stroke-width:0px;"/><path d="m458.99,227c-10.59,12.51-43.54,39.76-58.25,57.5-23.08,18.69-41.76,41.92-63,62.5-3.58,3.47-14.65,11.71-15.25,12.5-2.75.36-3.33-.94-3.5-1,2.78-2.23,11.64-9.09,12.5-12,.53-1.79-.02-2.77-1-4.5,5.18-3.63,9.11-8.55,13.5-13,.16-.17.33-.33.5-.5,2.32-2.37,4.71-4.56,7-7,7.02-7.48,13.44-15.58,20.5-23,3.55-3.73,7.4-7.27,11-11,8.16-8.45,29.72-31.28,35.5-36.5,1.48-1.34,3.11-2.56,4.5-4,11.35-6.72,20-16.58,29.5-25.5,8.76-.35,7.24-7.32,6.5,5.5Z" style="fill:#f0c255; stroke-width:0px;"/><path d="m418.99,147.5c-.53.47-.98,1.02-1.5,1.5-21.12,19.61-30.62,49.38-51.25,69.5q-7.12-.12-14.25-.25c6.07-7.09,13.29-13.7,18.5-21.5,1.88-2.82,7.02-10.18,4.5-11.25,6.26-7.44,11.85-15.56,19-22.25-.08-5.34,4.46-11.55,4-16.25l1-1.5c.96-1.07,2.43-1.59,3.5-2.5.05-.04.27.82,1.25,0,10.84-9.01,13.73-18.9,15.25,4.5Z" style="fill:url(#f); stroke-width:0px;"/><path d="m450.99,127c-1.31,2.1-3.05,4.46-4.5,6.5-9.63,13.51-22.12,24.86-32.5,37.75-11.54,19.5-27.22,35.7-43,51.75.07-.09-1.04-.24.5-2.25,12.3-16.05,21.69-27.69,32.5-45.5,5.01-8.25,10.46-17.24,13.5-26.25.52-.48.97-1.03,1.5-1.5,9.55-8.48,25.14-18.79,35.5-27.5-.98,1.92-2.51,5.41-3.5,7Z" style="fill:#12737a; stroke-width:0px;"/><path d="m351.99,144c-.03,1,.06,2.01,0,3-2.03-.36-.45,3.87-1,5.75-.33,1.14-15.09,16.99-16.25,17.25-.09.02-.36-.76-1.75-.5,1.98-2.23,15.42-15.61,15.5-16.75.14-2-4.8-6.28-7.75-5.75-2.48.44-14.94,18.33-18.25,21l-6-7.5c5.22-5.68,19.46-23.07,24-26.5,12.24-9.26,11.81.7,11.5,10Z" style="fill:#12737a; stroke-width:0px;"/><path d="m467.49,133c-8.46,9.87-23.26,25.65-30,35.5-6.16,9.01-7.1,11.77-9,23l-9,9c1.55-4.49,5.13-21.12,5.5-26.75,19.44-21.68,39.47-42.87,60.25-63.25l.75.75c-6.04,7.36-12.3,14.52-18.5,21.75Z" style="fill:#f3d35b; stroke-width:0px;"/><path d="m511.98,190c-6.98-.61-19.73,5.82-17,14.25,1.03,3.17,10.7,6.59,7,12.5-5.12,8.18-17.25-9.58-22-12.25.04-.34-1.59-1.15,1.5-6.25,10.72-16.13,27.7-32.97,0-13.75,10.76-12.45,14-17.78,30.5-26,0,10.5,0,21,0,31.5Z" style="fill:#f0c255; stroke-width:0px;"/><path d="m479.98,204.5c-.03.22-.86-.9-.5,4-3.93-.43-10.25,1.93-14,4-.71-1.48-1.71-2.81-2.5-4.25-.04-2.07,15.86-20.69,18.5-23.75,27.7-19.22,10.72-2.38,0,13.75-3.09,5.1-1.46,5.91-1.5,6.25Z" style="fill:#7b392a; stroke-width:0px;"/><path d="m402.49,143c-1.07.91-2.54,1.43-3.5,2.5-3.89,1.34-21.16,13.42-22.75,13.5-2.48.13-7.5-2.47-2.25-7.5,1.95-1.87,15.95-10.33,21.25-14.5,5.11-4.03,10.24-10.57,11-10.5,4.22.42-2.63,14.4-3.75,16.5Z" style="fill:#f0c255; stroke-width:0px;"/><path d="m319,358.49c.17.06.75,1.36,3.5,1-.2.27,1.65.2-2.5,5.75-2.37,2.34-15.95,19.98-17.25,20.25-.95.2-3.22-1.02-4.25-1.5.04-12.15,9.45-17.88,15.5-27,1.94,1,3.88,1.14,5,1.5Z" style="fill:#12737a; stroke-width:0px;"/><path d="m69.51,243.49c15.48,14.7,31.51,28.72,45.5,45,.95,1.15,1.96,2.45,3,3.5v1c-4.72-5.07-8.75-11.49-12.5-9.5-10.09-10.24-19.46-21.18-29.5-31.5-3.3-3.39-18.55-17.6-6.5-8.5Z" style="fill:#043f58; stroke-width:0px;"/><path d="m369.99,149c-22.46,25.9-44.78,52.04-68.25,76.99-8.74,4.24-22.63,26.66-30.25,9-1.84-4.25-1.91-6.9-1-11.5.5-2.53,2.52-5.95,3.5-8.5,2.02-5.28,4.26-10.56,7.5-15.25,4.74-6.86,27.43-31.02,35-39.25l6,7.5c.72.96.39,1.31,0,2.25-.73,1.79-21.84,24.53-25,29.5-1.6,2.21-.86,4.61-1,7.25-.06,1.18-.42,8.34.75,8.5,5.46-6.4,11.46-12.56,16.25-19.5,12.03-15.08,25.59-28.73,38.5-43,13.19-14.58,26.64-28.89,39.25-44,1.38,2.09,7.66,5.81,7.25,8.25-9.7,10.41-19.18,21-28.5,31.75Z" style="fill:#f0c255; stroke-width:0px;"/><path d="m351.99,147c-.12,1.99-.61,4.04,0,6-12.91,14.27-26.47,27.92-38.5,43,2.07-2.99,6.54-8.83,3.5-8,5.56-5.87,10.61-12.44,16-18.5,1.39-.26,1.66.52,1.75.5,1.16-.26,15.92-16.11,16.25-17.25.55-1.88-1.03-6.11,1-5.75Z" style="fill:#09966a; stroke-width:0px;"/><path d="m458.99,227c.74-12.82,2.26-5.85-6.5-5.5,3.3-3.1,6.56-6.28,9.75-9.5,5.11,9.08,1.89,8.93-3.25,15Z" style="fill:#12737a; stroke-width:0px;"/><path d="m46.01,213.5c-2.26,4.24-2.2,6.64-2.5,7.5-.02.05-.69-.17-.5,1-3.31-.3-9.52.07-7.5,4.75,20.55,19.5,39.88,40.15,58.75,61.25,36.2,28.58,66.69,63.38,97.24,97.74-1.98,20.2,17.75,16.21,5.5,26.75-12.74-14.44-11.07-19.98-12.5-22.75-.5-.96-11.33-11.22-13.25-13.75-1.56,3.79,7.21,13.61-2.75,12.25-.23,1.89.32,6.21,0,7-.34.83-11.53,6.97-14,11.25-1.43-3.38-5.87-9.42-4.5-12,1.59-.42,7.12-2.64,9-3.5,7.71-3.53,4.79-1.87,7.5-10.75-3.25-3.69-4.04-1.07-6.5.75-.55.4-1.6.61-2,1,2.2-8.84,1.79-8.81-4-16,9.06-14.74-34.89-35.3-46-51.25-24.05-28.92-50.82-55.23-75.24-83.74-.87-.24-6.68,4.83-6.75,5.25-.44,2.62,26.96,35.46,36,38.5,6.69,8.7,13.82,17.03,20.5,25.75-1.48.65-1.78,1.91-3,3-16.25-23.14-37.99-34.31-52.75-59-5.4,4.34-9.79,9.68-14.75,14.5-.61-.8-1.3-1.8-2-2.5q5.5-5.37,11-10.75c-14.05-7.76,12.76-16.27,12-39.25l13,7Z" style="fill:#51271e; stroke-width:0px;"/><path d="m159.01,151.5c8.98,9.84,18.4,19.29,27,29.5,8.72,11.91,19.71,21.94,28.25,34,1.52.04.28-7.05.25-7.5-.12-2.07.67-4.45-.5-7.25-.83-2-18.58-22.25-22-26.5-1.49-1.85-2.57-4.48-4-6.25l7.5-8.5c3.69,2.83,17.21,21.41,23,26.5,7.31,10.25,17.33,18.6,23.5,29.5-.38.78-.61.89-1,2-1.62,4.68,1.98,11.64-1.5,19-.29.61-2.12,3.22-2.5,3.5-2.12,1.58-6.23,2.63-8.75,2-1.48-.37-20.57-17.58-23-20-10.35-10.33-47.71-54.47-61.25-70-9.9-11.35-21.4-23.82-30.5-35.5l8-7c12.05,14.57,24.76,28.53,37.5,42.5Z" style="fill:#f0c255; stroke-width:0px;"/><path d="m140.01,153c1.29.17,2.95-.74,4-1.5,13.53,15.52,50.9,59.66,61.25,70,2.42,2.42,21.52,19.63,23,20,2.52.63,6.63-.42,8.75-2q1,6.37,2,12.75c-.41,4.65-2.68,12.56-3,15.5-.36,3.33,2.81,5.19-1,4.75-1.11-1.21-2.15-2.85-3-3,.67-2.32,1.38-18.66.5-20.25-.86-.21-3.32.74-3.5.75-4.24.12-8.5-.09-12.75,0-2.01-.51-8.91-10.57-10.75-13-4.21-5.56-8.25-11.05-11.5-17.25-17.5-19.36-35.83-37.96-52.25-58.25-1.09.54,3.94,11.28,3.25,14.5-4.19-4.17-24.5-24.94-26-26l.5-.5c2.13,1.3,16.25,9.95,17.25,10,3.36.17,4.65-3.7,3.25-6.5Z" style="fill:#51271e; stroke-width:0px;"/><path d="m94.01,147.5c.07.06.29.8,1,1.5,2.01,10.67,19.05,37.73,26,47.75,4.77,6.88,12.61,15.4,15,19,.37.56,1.14,1.48.5,2.25-13.61-15.58-26.08-24.87-39-48.25-13.56-14.67-27.08-29.58-37.5-46.75,7.69,4.39,28.4,19.26,34,24.5Z" style="fill:#12737a; stroke-width:0px;"/><path d="m31.01,184.5c6.54,7.44,12.81,15.02,19,22.75l.5,1c-1.75,1.74-3.3,3-4.5,5.25l-13-7c.26-2.29-.49-1.9-.5-2-1.28-13.53-18.77-23.09-16.5-28.75,1.14-2.83,12.5,8.41,15,8.75Z" style="fill:#914732; stroke-width:0px;"/><path d="m140.01,153c1.4,2.8.11,6.67-3.25,6.5-1-.05-15.12-8.7-17.25-10-2.84-1.73-7.24-3.23-9.5-5.5-1.06-1.07-5.86-10.07-6-11.25-1.55-12.78,6.24-.85,12.75,4.25,2.51,1.97,21.85,15.82,23.25,16Z" style="fill:#f0c255; stroke-width:0px;"/><path d="m126.01,221c-.12,1.68-2.02,2.5-3,3.5-5.96-6.72-13.15-12.17-19-19,9.31,2.6,15.31,9.09,22,15.5Z" style="fill:#51271e; stroke-width:0px;"/><path d="m58.01,220c-4.49-.48-6.28,2.15-5,6.5l-5-4.5c.72-16.05,1.96-9.88,10-2Z" style="fill:#12737a; stroke-width:0px;"/><path d="m120.01,107.5l-8,7c-.15-.62-8.33-7.23-8.5-9.5l7.5-8c2.65,3.76,6.08,6.96,9,10.5Z" style="fill:#f0c255; stroke-width:0px;"/><path d="m112.01,114.5c.03.12.03.38,0,.5-.04.18-2.57,2.47-2.75,2.5-.72.11-8.68-8.61-8.75-9.25-.12-1.13,2.25-2.17,2.5-3.25h.5c.17,2.27,8.35,8.88,8.5,9.5Z" style="fill:#51271e; stroke-width:0px;"/><path d="m121.51,109l-8,7c-.06-.07-1.16-.83-1.5-1,.03-.12.03-.38,0-.5l8-7c.33.4.97.86,1.5,1.5Z" style="fill:#0f4828; stroke-width:0px;"/><path d="m92.51,199.5c-.64,1.06-7.76-6.01-8-6.5-.82-1.67-1-12.03-7-21.75-1.92-3.1-5.99-6.7-8-9.25-10.09-12.77-21.67-24.05-32-36.5-4.26-5.13-8.35-10.74-11.75-16.5l61.25,63.75,5.5,26.75Z" style="fill:#f0c255; stroke-width:0px;"/><path d="m69.51,162c-1.95,1.69-5.1,10.1-6.5,8.75,1.53-8.96-30.93-39.85-31-42.5-.08-2.94,5.36.52,5.5-2.75,10.33,12.44,21.91,23.73,32,36.5Z" style="fill:#2c1717; stroke-width:0px;"/><path d="m56.26,176.5c12.69-2.21,14.05,15.55,4.5,17.5-13.08,2.67-13.81-15.87-4.5-17.5Z" style="fill:#ca662c; stroke-width:0px;"/><path d="m92.51,199.5c.11,5.39,16.45,19.19,16.5,20.75.02.6-3.44,5.28-4.75,4.25-2.4-4.04-21.8-25.82-21.75-27.75,0-.21,1.81-2.95,2-3.75.24.49,7.36,7.56,8,6.5Z" style="fill:#51271e; stroke-width:0px;"/><path d="m62.01,24.51c-.34,1.12-.57,2.42-1,3.5-1.4-1.86-8.69-5.36-7-7.75,1.43-2.02,7.21,3.93,8,4.25Z" style="fill:#914732; stroke-width:0px;"/><path d="m102.01,227.5l-1,1c-11.12-11.76-4.79-9.15,1-1Z" style="fill:#300f16; stroke-width:0px;"/><path d="m101.01,228.5l1-1c.49.69,3.53,3.26,1.25,4-2.02.66-2.1-2.84-2.25-3Z" style="fill:#1f1219; stroke-width:0px;"/><path d="m492.98,337.99c-.66.24-1.25.85-1.5,1.5-6.5,17.02-20.99,30.02-35,41-.88-1.1-.29-2.28-.5-3,.41-3.35,4.21-6.08,3-9.25,4.17-2.88,19.78-24.05,20.5-26.5.67-2.31-.16-6.65-.5-9.25,1.87-.53,2.4-1.94,3-2.5,4.86-4.56,9.56-9.26,14.25-14,1.54,1.14-4.54,19.16-3.25,22Z" style="fill:#12737a; stroke-width:0px;"/><path d="m371.49,421.98c.79-11.8,7.03-4.15,10.75-14,14.08-5.67,31.85-26.15,43.75-38.5,6.21,2.38.26,7.31-3.75,7-.56,1.63-3.25,3.41-3.25,3.75,0,.88,12.28,15.46-2.25,5.25-7.02,7.77-16.7,19.63-24.5,26-3.58,2.93-18.1,13.35-20.75,10.5Z" style="fill:#51271e; stroke-width:0px;"/><path d="m445.49,370.99c-.81-5.68-1.38-1.62-7.5,7-2.12,2.98-4.21,5.96-6.25,9-9.78-8.76-3.94-4.18,3.75-16.75l-8.5-2.25c14.18-14.71,28.08-29.48,42.5-44,3.7,2.67-6.39,12.49-6.5,15.25-.03.69,6.56,14.99-1.25,2.75l-2.5,9-5.25-3.25-6,16.5,8,1.5-9.75,9.75c-.5,0-.63-3.65-.75-4.5Z" style="fill:#51271e; stroke-width:0px;"/><path d="m445.49,370.99c-3.24,1.37.78,6.87-7.5,7,6.12-8.62,6.69-12.68,7.5-7Z" style="fill:#292329; stroke-width:0px;"/><path d="m502.73,304.49c4.01-.46,9.59,8.85,2.5,10.5-9.15,2.13-8.27-9.84-2.5-10.5Z" style="fill:#df7a2c; stroke-width:0px;"/><path d="m481.98,329.99c-.6.56-1.13,1.97-3,2.5-.57-4.33-3.54-7.8,3-2.5Z" style="fill:#300f16; stroke-width:0px;"/><path d="m455.99,377.49c.21.72-.38,1.9.5,3l-1,.25c-3.11-8.57-1.23-9.06.5-3.25Z" style="fill:#1c9294; stroke-width:0px;"/><path d="m247.5,210c.44,2.4,1.75,4.91,2.5,7.25,2.84,16.98,3.06,33.21,1,50.25q-5-.75-10-1.5c1.48-8.77-.49-15.98,3.5-20.5,4.06-9.01.01-19.74-3.5-28.5.39-1.11.62-1.22,1-2,.04-.08.69.32,1.5-.75.51-.67-1.08-.86-1-1,.72-1.33,5.11-1.91,5-3.25Z" style="fill:#0db8ba; stroke-width:0px;"/><path d="m489.98,272.99c-16.49,17.3-34.26,33.47-51,50.5-3.25.22-7.66-1.66-10.75-1-2.1.45-5.19,4.58-6.75,6-2.77,2.53-5.59,4.94-7.5,8.25l12.5,20.25c-13.17,14.04-31.51,39.69-48,40.5.25-9.73,1.07-8.14,8-13.5,8.29-5.16,17.35-13.15,20.5-22.75,5.54-16.9-7.52-18.97-6.5-23.5.33-1.47,18.29-18.9,20.5-22-1.16-3.25,5.04-9.69,8-13.75,1.33-.13,1.94,1.64,3.5,2.5,2.61,1.44,5.84,2.21,8.75,1,2.65-1.09,34.88-35.71,41-40,2.53,2.56,5.04,5.11,7.75,7.5Z" style="fill:#cc4745; stroke-width:0px;"/><path d="m239,471.98l-30.25-.5c-1.86-3.44-6.01-7.31-5.75-11h35.25c.49-.64,1.12-1.03,1.75-1.5,6.19,9.35.76,10.01-1,13Z" style="fill:#51271e; stroke-width:0px;"/><path d="m150.01,394.48c-1.37,2.58,3.07,8.62,4.5,12,2,4.74,6.02,14.06,5,18-5.18-5.31-9.85-11.24-15-16.5,1.47,1.73.7-5.4,1.5-10.75,1.48-2.9,2.87-3.07,3-3.25-.02.61.56.61,1,.5Z" style="fill:#a0582e; stroke-width:0px;"/><path d="m262,446.98q5.5,6.5,11,13c-7.53,2.93-2.37,7.57,0,12,1.97,3.68,5.73,9.07,7,12.5-.46,2.04-6.24.1-12.5,3.5-2.71-4.62-3.57-10.76-10.25-11.5-2.42-.27-9.82,2.76-11.25,4.75-.21.29-1.38,4.49-2.5,6.75-3.66-7.7-4.58-1.45-13.5,0,.11-1.11,7.69-13.77,9-16,1.76-2.99,7.19-3.65,1-13,.65-.49,8.82-10.81,10-13,1.7,2.2,3.48,4.36,5.25,6.5,1.03.23,5.91-4.56,6.75-5.5Z" style="fill:#12737a; stroke-width:0px;"/><path d="m267.5,487.98c6.26-3.4,12.04-1.46,12.5-3.5,4.04,10.92-4.49,12.13-8.75,9.5-1.66-1.03-2.78-4.35-3.75-6Z" style="fill:#0a5459; stroke-width:0px;"/><path d="m243.5,487.98c-.64,1.29-.92,4.6-3.25,6-4.58,2.76-10.73-1.23-10.25-6,8.92-1.45,9.84-7.7,13.5,0Z" style="fill:#0a5459; stroke-width:0px;"/><path d="m360.49,407.98c-3.97-2.54-7.8-7.98-11.5-10l2-3.5,12,9.75c-1.06,1.09-1.83,2.4-2.5,3.75Z" style="fill:#2c1717; stroke-width:0px;"/><path d="m350.99,394.48l-2,3.5c-1.17-.64-5.65,1.69-3.5-5,.04-.13.33.15,1-2.5.04-.14,1.01-.05,1.5-2.5,5.98-1.22,2.21-3.29,3,6.5Z" style="fill:#2c1717; stroke-width:0px;"/><path d="m344.49,383.98c-1.13.71-3.27-.98,2,6.5-.67,2.65-.96,2.37-1,2.5-10.01-10.23-6.12-7.4-3.75-9,.46-.31.2-1.02.25-1.5.39.2,2.14.21,2.5,1.5Z" style="fill:#2c1717; stroke-width:0px;"/><path d="m84.01,334.49c2.21,2.35,10.99,9.61,6.75,12-3.71,2.09-12.87-9.14-18.75-14.5,7.18,4.53,2.42-.11,5.5-3.5,2.02,2.07,4.52,3.9,6.5,6Z" style="fill:#f3d35b; stroke-width:0px;"/><path d="m10.02,256.49c.7.7,1.39,1.7,2,2.5-3.01,2.93-4.19,9.44-12,1.5,0-.67,0-1.33,0-2,1.28-1.2,2.71-1.75,3-2l1,4.75h1c-.52-3.18,2.34-4.51.5-7.25,1.39-.52,1.57-.44,4.5,2.5Z" style="fill:#df7a2c; stroke-width:0px;"/><path d="m3.02,256.49c.85-.74,1.3-2.05,2.5-2.5,1.84,2.74-1.02,4.07-.5,7.25h-1l-1-4.75Z" style="fill:#fc8a2e; stroke-width:0px;"/><path d="m511.98,257.99c0,1,0,2,0,3-2.1,1.18-3.5,4.16-6.25,3.5-.62-.15-2.17-2.52-2.75-3,6.76,1.72,4.97-2.53,4-7.5,1.13.42,3.14,3.34,5,4Z" style="fill:#fc8a2e; stroke-width:0px;"/><path d="m506.98,253.99c.97,4.97,2.76,9.22-4,7.5-1.18-.97-1.94-1.99-3-3,1.18-.44,1.68-1.72,2.5-2.5,1.55-1.46,2.54-2.72,4.5-2Z" style="fill:#df7a2c; stroke-width:0px;"/><path d="m43.01,222c1.27.12,1.95-.07,3.25.5,3.03,1.33,23.31,26.27,29.75,29.5,10.04,10.32,19.41,21.26,29.5,31.5,4.15,4.22,11.46,12.18,16,14,1.96,2.07,4.06,3.96,6,6,15.51,16.28,36.97,38.17,51,54.75,10.27,12.14,19.28,25.98,29,37.5,9.08,10.77,21,20.43,29.5,31,4.42,5.49,8.67,13.65,13,19.25-1.18,2.19-9.35,12.5-10,13-.63.47-1.26.86-1.75,1.5h-35.25c-5.19-4.97-18.6-19.16-21-24.5-5.08-11.29-.75-12.37,7.5-18.5,2.39-1.77,4.61-2.52,7.5-5,12.25-10.53-7.48-6.55-5.5-26.75-30.55-34.36-61.04-69.16-97.24-97.74-18.87-21.1-38.2-41.75-58.75-61.25-2.02-4.68,4.19-5.05,7.5-4.75Z" style="fill:#f0c255; stroke-width:0px;"/><path d="m48.01,222l5,4.5c.85,2.89,13.25,13.92,16.5,17-12.05-9.1,3.2,5.1,6.5,8.5-6.44-3.23-26.72-28.17-29.75-29.5-1.3-.57-1.98-.38-3.25-.5-.19-1.17.48-.95.5-1l4.25,2,.25-1Z" style="fill:#081d1e; stroke-width:0px;"/><path d="m209.25,418.98c9.92-2.5,26.29,19.39,26.75,22.25,2.33,14.65-17.75,9.3-26.25,10.25-5.39-1.67-16.92-14.31-14.25-19.75.41-.84,12.84-12.52,13.75-12.75Z" style="fill:#08121b; stroke-width:0px;"/><path d="m118.01,292.99c.56.6,1.66,2.55,3.5,4.5-4.54-1.82-11.84-9.78-16-14,3.75-1.99,7.78,4.43,12.5,9.5Z" style="fill:#1a9fac; stroke-width:0px;"/><path d="m469.98,222c2.24-.1,7.68.14,7,3.75-.48,2.54-31.98,31.82-36.5,36.5-7.77,8.04-14.25,17.39-22.25,25.25-21.95,15.26-80.68,76.3-94.24,95.24-6.58,9.19-.93,6.9-3,12.5-2.04,5.49-15.32,9.59-6,17.25,2.71,2.23,7.5,4.22,8.5,5,5.17,4.03,7.62,7,9.5,13-2.6,9.17-15.7,19.9-24,30.5q-18-.5-36-1-5.5-6.5-11-13c3.56-3.95,11.02-17.2,17-24.25,6.61-7.8,17.15-16.39,24.5-25,8.81-10.32,17.72-24.22,28-36.5,12.92-15.45,27.73-29.39,40.5-45,14.66-15.06,30.61-28.66,45.5-43.5,3.03-3.02,5.48-6.97,8.5-10,6.68-6.71,33.29-34.02,35.25-35.75,5.31-4.7,4.58-4.82,8.75-5Z" style="fill:#f0c255; stroke-width:0px;"/><path d="m298.25,418.98c.8-.11,5.06-.13,5.5,0,.97.28,12.07,12.59,14.25,14.25.54,2.74-10.47,17.01-14.25,18.25-8-1.1-32.51,4.81-27.25-10.75.5-1.48,14.77-20.76,21.75-21.75Z" style="fill:#08121b; stroke-width:0px;"/><path d="m354.49,242.49c-6.27,8.06-11.82,16.44-18,24.5-7.87.7-9,3.73-9.5,11.5-.2,3.06.39,2.44.5,3,.57,2.85.97,2.37,1,2.5.68,3.02.97,2.85,1,3,.15.69.35,1.31.5,2,.75,3.52.63,7.24,1.5,10.75-1.32,1.89-6.7,3.2-7.5,4.5-.43.7-1.15,5.64-1.5,7.25l-9.5-4.5c.32-1.01-.23-4.61,0-6.5,5.56-3.85.75-15.5-3-21q8-8.12,16-16.25c-.02-3.77-.37-7.57,1.5-11,.93-1.71,23.29-21.94,27.25-26.25l-.25,16.5Z" style="fill:#12737a; stroke-width:0px;"/><path d="m289.5,340.49c16.91,20.44-12.79,32.32-19,14.75-4.37-12.35,4.76-22.33,12-31.25,2.46,2.74-2.28,22.54,7,16.5Z" style="fill:#1c9294; stroke-width:0px;"/><path d="m297.5,291.49c.29.36,2,.88,2.5,1.5,1.15,1.43,2.2,3.1,3,4.75l-.5,17.25c-.85.7-8.9,15.33-9,16.25-.11,1.03,1.13.28,1.5,2.25-1.19,1.38-4.64,6.44-5.5,7-9.28,6.04-4.54-13.76-7-16.5,2.88-3.55,7.75-5.44,1.5-6.5-3.16-.53-4.57.54-3.5-1,.07-.06.58.36,1.5-1,1.49,1.55,4.16,1.21,6,1.5,1.74.28,6.08,1.87,7.5.75.44-.34,3.96-11.37,2-10.25,3.93-3.27-8.76-3.5,0-16Z" style="fill:#1c9294; stroke-width:0px;"/><path d="m262.5,333.99c-1.68,1.97-12.74,14.76-13,15.75-.75,2.84,1.78,6.56.5,7.25-.91-1.06-1.72-2.31-3-3-.47-3.24-4.81-10.08-7.5-12q3.5-2,7-4c1.95,5.39,5.55,2.93,8.5.5,1.55-1.27,3.45-2.75,3.5-5,.2-.03,1.16.85,4,.5Z" style="fill:#08121b; stroke-width:0px;"/><path d="m320.49,341.49c.74,2.71-5.55,16.1-8.5,14.5-.7-1.24-.23-12,0-14,.06-.51,1.6-4.75,2-10,2.55,3.12,4.44,6.06,6.5,9.5Z" style="fill:#51271e; stroke-width:0px;"/><path d="m306.5,295.99c-3.39.46,1.47,4.43,5.5,8.25v2c-1.04,1.07-2.16,1.99-3,3.25-.17.25.9.2-2,3-1.35,1.31-2.34,2.59-4.5,2.5l.5-17.25c-.8-1.65-1.85-3.32-3-4.75v-1.5c.29.27,5.41,3.74,6.5,4.5Z" style="fill:#914732; stroke-width:0px;"/><path d="m295,333.49c-.37-1.97-1.61-1.22-1.5-2.25.1-.92,8.15-15.55,9-16.25,2.16.09,3.15-1.19,4.5-2.5,5.65.35-8.5,16.94-12,21Z" style="fill:#11a7a3; stroke-width:0px;"/><path d="m314,331.99c-.4,5.25-1.94,9.49-2,10-6.61-9.77-10.6-5.28-2.75-15,1.85-.51,3.61,3.6,4.75,5Z" style="fill:#08121b; stroke-width:0px;"/><path d="m313,300.49c-.23,1.88.32,5.49,0,6.5-.07.22-3.09,3-4,2.5.84-1.26,1.96-2.18,3-3.25v-2c-4.03-3.81-8.89-7.79-5.5-8.25,2.09,1.45,4.88,2.3,6.5,4.5Z" style="fill:#8e332d; stroke-width:0px;"/><path d="m280.5,316.49c-1.07,1.54.34.47,3.5,1-2.21,3.5-6.79,4.09-9.5,4,1.61-1.63,3.05-3.43,4.75-5,.16-.15,1.1.13,1.25,0Z" style="fill:#133f42; stroke-width:0px;"/><path d="m362.99.01c-1.18,2.56-18.19,19.32-19.25,18.5q1.62-9.25,3.25-18.5c5.33,0,10.67,0,16,0Z" style="fill:#88535d; stroke-width:0px;"/><path d="m331.99.01c-1.09,4.16-1.96,8.22-2.5,12.5-.34,2.67-.99,7.21-1,9.75-.02,8.95,4.21,27.01-1.5,12-4.46-11.73-5.11-22.92,1-34.25,1.33,0,2.67,0,4,0Z" style="fill:#f7d5a5; stroke-width:0px;"/><path d="m362.99,63.51c.36,5.26,4.88,15.41,5,16.25.45,3.2-.89,5.89-.5,11.25-1.02-.38-2.2,1.18-3,2.25-6.13,8.18-16.31,27.14-24.5,37-.15,1.79-1.37,2.54.5,3.75-4.54,3.43-18.78,20.82-24,26.5-7.57,8.23-30.26,32.39-35,39.25-3.24,4.69-5.48,9.97-7.5,15.25-6.64-16.07,10.87-23.25,0-35.5,2.9-6.45,5.52-9.71,10-15.25.14-1.21-.93-.57-1.5-.75,8.94-7.29,11.63-23.57,25-28,13.87-28.01,28.85-28.15,48-59.75,2.64-4.35,5.33-12.55,7.5-12.25Z" style="fill:#594046; stroke-width:0px;"/><path d="m367.49,91c1.47,20.23,11.35,16.7-15.5,53,.31-9.3.74-19.26-11.5-10-1.87-1.21-.65-1.96-.5-3.75,8.19-9.86,18.37-28.82,24.5-37,.8-1.07,1.98-2.63,3-2.25Z" style="fill:#594046; stroke-width:0px;"/><path d="m306.5,118c.28-.11,1,.07,1.5,0-.02.1,1.43-.6,1,1.75-.96,5.27-2.08,10.32-1.5,15.75-13.37,4.43-16.06,20.71-25,28-.57-.19-1.85.2-2.25,0-2.48-1.21-7.39-12.52-10.75-13.5-5.1-10.58-2.26-22.77,2.5-33,9.32-10.87,14.02,8.67,24.25,7,1.93-.31,8.26-5.21,10.25-6Z" style="fill:#cb6475; stroke-width:0px;"/><path d="m270,176c-2.87,7.91-2.14,15.26-1.5,23.5-.9,8.27-.2,16.06,1,24.25l1-.25c-.91,4.6-.84,7.24,1,11.5q-.75,28.5-1.5,57c-2.84,1.1-6.19,2.72-7.5,5.75-3.01,6.95.13,26.87-11,23.75-.18-.41-4.65-7.21-5-7.5,3.24-2.94,4.63-15.48,6.5-19.25.34-.68,4.64-5.58,6.5-8.25.58-.83,3.02-3.1,4-4.25.62-1.66,1.66-28.56,1.5-32.5-.34-8.52-2.19-14.8-2.5-18.75-1.19-15.36-3.89-33.31-2-48.5.45-.06,1.23.22,1.5-.25.27-.47-.91-3.73,8-6.25Z" style="fill:#88535d; stroke-width:0px;"/><path d="m282.5,163.5c-3.77,3.07-9,2.85-12.5,12.5-8.91,2.52-7.73,5.78-8,6.25-.27.47-1.05.19-1.5.25,1.35-10.86,5.93-17.41,8-25.5.81-3.15,1.56-3.56,1-7,3.36.98,8.27,12.29,10.75,13.5.4.2,1.67-.19,2.25,0Z" style="fill:#88535d; stroke-width:0px;"/><path d="m259.5,286.49l.5-26.75c3.03-9.44,1.21-19.98,2.5-28.75.31,3.95,2.16,10.23,2.5,18.75.16,3.94-.88,30.84-1.5,32.5-.98,1.15-3.42,3.42-4,4.25Z" style="fill:#b05c6a; stroke-width:0px;"/><path d="m272,117c-4.76,10.23-7.6,22.42-2.5,33,.56,3.44-.19,3.84-1,7-4.89-12.24-11.44-33.26,3.5-40Z" style="fill:#f5c49a; stroke-width:0px;"/><path d="m327.99.01c-6.11,11.32-5.46,22.52-1,34.25,5.71,15.02,1.48-3.05,1.5-12,0-2.54.66-7.07,1-9.75,2.31-.01,1.17,2.14,1.5,3.25,2.7,9.12,5.6,11.37,8.5,15.75-1.16,1.42,4.31,6.96,6,8.5.69,35.06-9.12,38.68-26.5,62.5-3.65,1.43-6.54,5.83-9,9-1.53,1.97-4.45,4.35-3.5,6.5-1.99.79-8.32,5.68-10.25,6-10.23,1.67-14.93-17.87-24.25-7-14.94,6.74-8.39,27.76-3.5,40-2.07,8.09-6.65,14.64-8,25.5-1.89,15.19.81,33.13,2,48.5-1.29,8.77.53,19.31-2.5,28.75l-.5,26.75c-1.86,2.66-6.16,7.57-6.5,8.25-1.87,3.76-3.26,16.3-6.5,19.25-1.48-1.2-2.13-1.1-4-1,.04-.12-.75.8.5-2.5.2-.52-.2-1.75,0-2.25,1.71-4.34,8.96-12.8,1.5-12.75.78-2.53,1.79-4.91,2.5-7.5.54-1.96,1.64-3.86,1.5-6,1.21-2.96,1.06-7.16,1.5-10,.04-.23.36.76,1-4.5,2.06-17.04,1.84-33.27-1-50.25-.75-2.34-2.06-4.85-2.5-7.25-.59-3.21-.49-6.73-1-9.25-1.94-9.58-5.73-18.79-5.5-28.75,3.41-2,8.07-22.85,8.5-27.25,1.35-13.73-5.77-31.9,7.25-41.25,3.25-2.33,5.15-2.15,7.75-3.5.17-.09,2.77-.72,3.25-1,10.75-6.33,10.54-23.83,11.75-29.75.4-1.97,2.77-4.57,1-8.75.02-.07,1.4.21,1.5-.25,4.33-19.98,8.85-39.93,11.5-60.25,11.5,0,23,0,34.5,0Z" style="fill:#cb6475; stroke-width:0px;"/><path d="m314.75,45.01c6.34-.11-2.03,3.71-3.75,12.25-1.43,7.12.58,18.67-1.25,18.75-6.32-5.66-4.65-30.84,5-31Z" style="fill:#f5c49a; stroke-width:0px;"/><path d="m304.25,43.51c3.54,5.4.05,10.69-.75,16.25,3.9,21.68-13.27-1.25.75-16.25Z" style="fill:#dc8381; stroke-width:0px;"/><path d="m319,102.5c-2.49,3.41-5.24,6.97-7.5,10.5l-1.5-1.5c2.46-3.17,5.35-7.56,9-9Z" style="fill:#faab9d; stroke-width:0px;"/><path d="m311.5,113c-.96,1.5-3.17,3.71-3.5,5-.5.07-1.22-.11-1.5,0-.95-2.15,1.97-4.53,3.5-6.5l1.5,1.5Z" style="fill:#faab9d; stroke-width:0px;"/><path d="m346.99.01q-1.62,9.25-3.25,18.5c1.06.82,18.07-15.94,19.25-18.5,10.33,0,20.67-.01,31,0l-13.5,14.25c-.51,17.14-18.69,32.02-17.5,49.25-2.17-.3-4.86,7.9-7.5,12.25-19.15,31.6-34.13,31.73-48,59.75-.58-5.43.54-10.48,1.5-15.75.43-2.35-1.02-1.65-1-1.75.33-1.29,2.54-3.5,3.5-5,2.26-3.53,5.01-7.09,7.5-10.5,17.38-23.81,27.19-27.44,26.5-62.5-.46-2.92-4.37-6.04-6-8.5-2.9-4.38-5.8-6.63-8.5-15.75-.33-1.11.81-3.26-1.5-3.25.54-4.28,1.41-8.34,2.5-12.5,5,0,10,0,15,0Z" style="fill:#88535d; stroke-width:0px;"/><path d="m345.49,40.01c-1.69-1.54-7.16-7.08-6-8.5,1.63,2.46,5.54,5.58,6,8.5Z" style="fill:#e49794; stroke-width:0px;"/><path d="m364.99,36.51c-2.93-1.39.6-9.56.5-14.5,1.03-1.75,7.64-2.5,9.5-1.25-3.95,4.85-6.54,10.61-10,15.75Z" style="fill:#88535d; stroke-width:0px;"/><path d="m363.99,21.01c-2.14,6.11-2.83,10.33-2.5,17-.96-1.28-1.67-11.31-1.5-13.25.56-6.21,6.59-12.06,6.5-8.5,0,.27-2.13,3.69-2.5,4.75Z" style="fill:#f5c49a; stroke-width:0px;"/><path d="m365.49,22.01c.1,4.94-3.43,13.11-.5,14.5-1.11,1.65-1.56,4.08-3.5,1.5-.33-6.66.36-10.88,2.5-17l1.5,1Z" style="fill:#88535d; stroke-width:0px;"/><path d="m274,215c-.97,2.55-3,5.97-3.5,8.5l-1,.25c-1.2-8.19-1.9-15.97-1-24.25.75-6.91,2.67-13.71,5.5-20,10.87,12.24-6.64,19.43,0,35.5Z" style="fill:#88535d; stroke-width:0px;"/><path d="m274,179.5c-2.83,6.29-4.75,13.08-5.5,20-.64-8.24-1.37-15.59,1.5-23.5,3.5-9.65,8.73-9.42,12.5-12.5.57.18,1.64-.46,1.5.75-4.48,5.54-7.1,8.8-10,15.25Z" style="fill:#f7d5a5; stroke-width:0px;"/><path d="m313.5,196c-4.79,6.93-10.79,13.1-16.25,19.5-1.17-.16-.81-7.32-.75-8.5,7.1-5.87,14.17-12.31,20.5-19,3.04-.83-1.43,5.01-3.5,8Z" style="fill:#04a291; stroke-width:0px;"/><path d="m451.49,132.5c.18-.84.64-1.73,1-2.5,14.98-13.04,30.26-39.28,49.5-43.75-16.27,9.84-37.34,36.92-50.5,46.25Z" style="fill:#08121b; stroke-width:0px;"/><path d="m336.49,266.99c-3.02,3.94-6.64,7.42-9.5,11.5.5-7.77,1.63-10.8,9.5-11.5Z" style="fill:#2c1717; stroke-width:0px;"/><path d="m329.49,286.99c-.03-.15-.31.02-1-3l3.5-5.5c.53-.45,2.23-2.22,3-3,.58,4.03-2.16,9.07-5.5,11.5Z" style="fill:#72462d; stroke-width:0px;"/><path d="m452.49,130c-.36.77-.82,1.66-1,2.5-1.39.99-4.75,3.95-5,1,1.45-2.04,3.19-4.4,4.5-6.5,5.17-.86,2.71.44,1.5,3Z" style="fill:#f6b654; stroke-width:0px;"/><path d="m331.99,278.49l-3.5,5.5c-.03-.13-.43.36-1-2.5,1.35-1.15,4.29-2.82,4.5-3Z" style="fill:#081d1e; stroke-width:0px;"/><path d="m374.99,185.5c-24.21,28.78-53.77,53.81-69.5,88.74.03,1.27,4.17,4.76,4.5,5.25,3.75,5.5,8.56,17.15,3,21-1.62-2.2-4.41-3.05-6.5-4.5-1.09-.75-6.21-4.23-6.5-4.5-14.76-13.68,13.74-44.66,17-66.25,18.01-14.74,32.84-32.59,49.5-48.75,10.28-9.98,21.75-18.91,31.5-29.5.46,4.7-4.08,10.9-4,16.25-7.15,6.69-12.74,14.8-19,22.25Z" style="fill:#f0c255; stroke-width:0px;"/><path d="m276.5,294.49c-2.01,3.89-.6,4.59,3,4.5,4.85-.12,12.58-6.17,16-9.5.66.71,1.33,1.17,2,2-8.76,12.5,3.93,12.73,0,16-.31.26-3.7,1.46-4.5,2-5.58-7.6-2.97-8.8-10.5-5.75.95.96,1,1.99,1,3.25-3.24-3.31-3.06-4.45-8.75-3-8.26,2.1-7.4,11.12-9.75,14.25-1.4,1.86-6.93,3.8-9,5.25-1.16-1.14-3.09-1.15-4.5-1-.04-.37.07-.84,0-1,11.13,3.13,7.99-16.8,11-23.75,1.31-3.03,4.66-4.65,7.5-5.75,1.88-.73,6.28-.54,6-2.5.02,1.55-.26,3.61.5,5Z" style="fill:#12737a; stroke-width:0px;"/><path d="m277.5,277.49c.57,1.58,2.6,1.34,3,1.5,1.44.6,3.09,1.93,4.5,2.5-.01,3.32-7.55,11.17-8.5,13-.76-1.39-.48-3.45-.5-5-.04-3.44-.29-8.78,0-11.75.04-.45,1.49-.17,1.5-.25Z" style="fill:#1c9294; stroke-width:0px;"/><path d="m183,332.49c-.42.92-1.38,1.17-1,3.5.39,1.77-.06,7.6,0,8-4.4-5.87-9.07-11.58-14-17,1.94-.55,6.37-5.57,7-7l8,12.5Z" style="fill:#cc4745; stroke-width:0px;"/><path d="m183.5,340.99c2.04,4.61,3.25,3.35,4,4,4.48,3.88,9.83,7.21,13,12.5-2.83.27-5.93,1.26-8,.5-5.27-5.02-9.34-6.16-10.5-14-.06-.4.39-6.22,0-8,.7,1.47.34,2.37,1.5,5Z" style="fill:#032b35; stroke-width:0px;"/><path d="m422.99,246.99c-1.39,1.44-3.02,2.66-4.5,4-1.78-.38-4.79-1-6.5-1l-9.75-11.5c-5.96.7-35.16,4.03-36.75,10.25-.63,2.48,6.72,11.12-3.75,4.75q-6.12,9.12-12.25,18.25c-1.35,2-2.15-.98-3-.5-.66.37-6.39,11.76-7,13.5-3.81-1.06-5.93,3.26-9.5,4.25-.15-.69-.35-1.31-.5-2,3.34-2.43,6.08-7.47,5.5-11.5,3.04-3.08,6.41-7.99,9.5-11.25,6.37-6.7,47.42-49.5,50.25-51.75,3.79-3,13.47-6.92,14.25-7.5-5.59,7.31-11.72,14.21-17,21.75l.75.25c10.36-7.1,18.62-16.73,27.25-25.75-.17-.22-.61-.42-.5-.75l9-9c6.42,7.74-9.55,17.88-16.5,26.75l9.5,9c.22,6.04-.59,14.86,1.5,19.75Z" style="fill:#51271e; stroke-width:0px;"/><path d="m407.74,222.5l.75.75c-10.67,9.06-14.51,7.95-.75-.75Z" style="fill:#100f11; stroke-width:0px;"/><path d="m250,356.99c10.76,12.49,23.98,31.27,30,38-11.46,11.96-19.15,12.25-34.25,6.5-7.43-2.83-11.99-7.79-14.75-7-1.03-1.61-9.45-13.21-10.25-13.5-3.09-1.11-5.56,2.3-7.75,3.5-.74.41-2.01,1.61-2.75,1.5-3.52-3.27-21.64-23.74-21.75-26.25,0-.08.7-.81,1-.75.78.22,2.75.22,3-1,2.07.76,5.17-.23,8-.5,2.61-.24,14.18-1.75,15.5-3l8,12c-.17.24.18,1.52,0,1.75-1.92,2.46-5.17,3.42-6,6.5,2.89,2.34,5.79,4.71,8.5,7.25,3.05,2.86,5.97,5.89,9.25,8.5l9.25-6c.77,6.7,8.66,12.82,13.5,17.75-1.37-12.25,4.48-34.9-7.25-32.25-1.66.38-3.29,3.2-4.25,4.5.09-1.15-.06-2.34,0-3.5.28-5.64-.21-11.35,0-17,1.28.69,2.09,1.94,3,3Z" style="fill:#158187; stroke-width:0px;"/><path d="m280,394.98c.39.43,6.98,1.09,3.5,8.75-1.18,2.61-10.51,11.28-14.25,11.75-9.98-4.69-24.49,2.43-31.25-7.25-2.02-2.89-4.55-9.93-7-13.75,2.76-.79,7.32,4.17,14.75,7,15.1,5.75,22.79,5.46,34.25-6.5Z" style="fill:#12737a; stroke-width:0px;"/><path d="m245,384.48l1-.75c-.32-3.14.76-6.18,1-9.25.96-1.3,2.59-4.12,4.25-4.5,11.72-2.65,5.88,20,7.25,32.25-4.84-4.93-12.73-11.05-13.5-17.75Z" style="fill:#f0c255; stroke-width:0px;"/><path d="m224,366.49l-8-12c1.08-1.02.02-2.63,3-4.5,8.95-5.61,17.31,1.21,5,5.25,6.28,10.99,1.29,9.45,0,11.25Z" style="fill:#f0c255; stroke-width:0px;"/><path d="m159.01,390.98c-1.88.86-7.41,3.08-9,3.5-.44.11-1.02.11-1-.5,2.3-3.2,6.75-9.83,9-12,.4-.39,1.45-.6,2-1,3.26,4.86-2.22,7.82-1,10Z" style="fill:#c88144; stroke-width:0px;"/><path d="m159.01,390.98c-1.22-2.18,4.26-5.14,1-10,2.46-1.82,3.25-4.44,6.5-.75-2.71,8.88.21,7.22-7.5,10.75Z" style="fill:#7b392a; stroke-width:0px;"/><path d="m181.5,173c10.47,12.02,21.24,23.69,33,34.5.03.45,1.27,7.54-.25,7.5-8.54-12.06-19.53-22.08-28.25-34-2.02-2.76-6.9-8.76-4.5-8Z" style="fill:#1c9294; stroke-width:0px;"/><path d="m244.5,245.49c-3.99,4.52-2.02,11.73-3.5,20.5-.5,2.95-1.66,6.28-3,9-3.48-.98-2.87-2.36-3-2.5,3.81.44.64-1.42,1-4.75.32-2.94,2.59-10.85,3-15.5q-1-6.37-2-12.75c.38-.28,2.21-2.89,2.5-3.5,1.77,3.25,2.41,10.45,5,9.5Z" style="fill:#7b392a; stroke-width:0px;"/><path d="m244.5,245.49c-2.59.95-3.23-6.25-5-9.5,3.48-7.36-.12-14.32,1.5-19,3.51,8.75,7.56,19.49,3.5,28.5Z" style="fill:#8e332d; stroke-width:0px;"/><path d="m206.5.01c1.39,9.91,2.21,21.19,4.5,30.25,2.7,10.71,11.33,29.77,15.5,41.5.34.94-.69,1.46-.5,2,.09.26,1.21,1.31,2.5,5,.96,2.76,1.76,8.77,3,11.5,6.82,15.01,21.3,2.45,11.25,16.25-13.28,2.29-11.77-7.55-20-15-10.12,10.41-8.37,14.89-7.75,28.5l-1,2.75c-1.52-3.68-3.15-10.08-6-12.25.75-3.33.2-9.46,1-13.5,4.24-.66,3.98,1.61,7.5-2.25,7.68-8.42-.83-28.26-4.5-38-1.64-4.35-8.88-21.61-11.5-22.75-.58-3.13-.91-6.38-1.5-9.5,3.5-6.36,2.9-17.12,3-24.5,1.5,0,3,0,4.5,0Z" style="fill:#0db8ba; stroke-width:0px;"/><path d="m184,.01c-.68,5.45-16.6-2.41-24,6.5-.25-.31-4.13-.55-3-6.5,9,0,18,0,27,0Z" style="fill:#0db8ba; stroke-width:0px;"/><path d="m181,132.5c-.04-.45.5-.52.5-1,34.36,10.74,26.85,35.15,30.5,45.25,2.41,2.74,4.39,5.79,6.5,8.75-5.79-5.08-19.3-23.67-23-26.5-.29-.22-.5-1.41-.75-1.5-.74-.26-5.27.06-7-.5l-2.25,7c-1.67-2.08-13.2-16.19-14.25-16.5-3.82-1.13-8.3,2.34-7.25,6.25.21.79,9.93,9.69,11.5,11.5,2.11,2.43,3.92,5.36,6,7.75-2.4-.76,2.48,5.24,4.5,8-8.6-10.21-18.02-19.65-27-29.5,1.49-5.8-1.53-17.82,4.75-21.5,4.88-2.86,15.51,9.09,17,9,.23-.01,3.23-3.02,3.25-3.25.09-.89-1.95-2.24-3-3.25Z" style="fill:#12737a; stroke-width:0px;"/><path d="m181.5,131.5c0,.48-.54.55-.5,1-.46-.44-3.81-2.56-4.75-3.5-12.38-12.44-18.54-33.77-26.25-49.5,4.72,5.5,19.77,22.64,22,26.75.64,1.19,9.5,23.9,9.5,25.25Z" style="fill:#0a5459; stroke-width:0px;"/><path d="m193,54.01c-.34,1.84-.5,4.24-1,6-2.77,9.76-4.13,3.83-7.5-2.5,1.52-2.07,2-6.4,2-9,3.61-.76,4.75,3.23,6.5,5.5Z" style="fill:#1c9294; stroke-width:0px;"/><path d="m215.5,130c.78,8.72,3.65,17.5,3.5,26.25.92,1.18,2.27,4.14,3,5.75.92,2.03,2,2.58,2,2.75-.02.7-6.34,4.05-8,1-.97-1.78-3.59-29.26-8-39.75.55-1.57,3.24,2.74,7.5,4Z" style="fill:#0db8ba; stroke-width:0px;"/><path d="m215,120c.15,3.29.21,6.73.5,10-4.26-1.26-6.95-5.57-7.5-4-.74-1.75-3.12-5.62-4.5-6,.73-2.41,4.15-7.97,4.5-9.5,2.85,2.17,4.48,8.57,6,12.25l1-2.75Z" style="fill:#1c9294; stroke-width:0px;"/><path d="m280.5,60.51c1.77,4.18-.6,6.78-1,8.75-1.21,5.91-1,23.42-11.75,29.75-.48.28-3.08.91-3.25,1,.35-4.03,2.56-15.52,4-18.25,2.26-4.28,8.25-3.15,3-15.25l5-8c1.29.74,2.76,1.19,4,2Z" style="fill:#1c9294; stroke-width:0px;"/><path d="m276.5,58.51l-5,8c-1.04-2.41-4.48-5.87-4.5-6.25-.02-.32,3.44-5.15,3.75-5.25.87-.27,4.65,2.87,5.75,3.5Z" style="fill:#133f42; stroke-width:0px;"/><path d="m202,.01c-.1,7.38.5,18.14-3,24.5-1.1-5.83-6.35-26.8-3.5-7.75.87,5.82,2.53,11.94,5,17.25,2.62,1.14,9.86,18.4,11.5,22.75,3.67,9.73,12.18,29.58,4.5,38-3.52,3.86-3.26,1.59-7.5,2.25-.47.07-.76-.87-1-.25.74,15.22-7.21,22.48-6.5,23.5.7,1,1.9-.28,2-.25,1.38.38,3.76,4.25,4.5,6,4.41,10.49,7.03,37.96,8,39.75,1.66,3.05,7.98-.3,8-1,0-.17-1.08-.72-2-2.75,5.02,3.88,11.62,14.33,19,10-.23,9.96,3.56,19.17,5.5,28.75.51,2.52.41,6.04,1,9.25.11,1.34-4.28,1.92-5,3.25-.08.14,1.51.33,1,1-.81,1.07-1.46.67-1.5.75-6.16-10.9-16.19-19.25-23.5-29.5-2.11-2.96-4.09-6.01-6.5-8.75-3.65-10.1,3.86-34.51-30.5-45.25,0-1.35-8.86-24.06-9.5-25.25-2.22-4.11-17.28-21.24-22-26.75-6.63-13.52-19.98-35.18-20.5-37.25-4.12-16.54,13.02-23.54,25.75-16.25,11.68,6.69,20.73,43.12,29.25,31.5,3.37,6.33,4.73,12.26,7.5,2.5h3.75c5.22,6.35,1.98.14-2.75-6-1.75-2.27-2.89-6.26-6.5-5.5,0-11.43-7.4-13.69-13.5-22.25-4.66-6.54-7.64-12.94-13-19.75,7.4-8.91,23.32-1.05,24-6.5,6,0,12,0,18,0Z" style="fill:#1c9294; stroke-width:0px;"/><path d="m199,24.51c.59,3.12.92,6.37,1.5,9.5-2.47-5.31-4.13-11.43-5-17.25-2.85-19.05,2.4,1.92,3.5,7.75Z" style="fill:#ccf7e8; stroke-width:0px;"/><path d="m191,87c1.15,1.8,4.09,14.21,4.5,17.75-1.8-4.07-4.41-9.56-5.5-13.75-.47-1.82-2.57-4.53,1-4Z" style="fill:#86f2db; stroke-width:0px;"/><path d="m209,97c-.8,4.04-.25,10.17-1,13.5-.35,1.53-3.77,7.09-4.5,9.5-.1-.03-1.3,1.25-2,.25-.71-1.02,7.24-8.28,6.5-23.5.24-.62.53.32,1,.25Z" style="fill:#ccf7e8; stroke-width:0px;"/><path d="m191,87c-3.57-.53-1.47,2.18-1,4-2.01-.75-7.65-8.28-2.25-6.5,1.1.36,2.57,1.44,3.25,2.5Z" style="fill:#0db8ba; stroke-width:0px;"/><path d="m192,60.01c.5-1.76.66-4.16,1-6,4.73,6.14,7.97,12.35,2.75,6h-3.75Z" style="fill:#a4e7cf; stroke-width:0px;"/><path d="m199.75,72.51l-4.5,12.5c-.2-4.38,2.55-8.7,4.5-12.5Z" style="fill:#58c5b7; stroke-width:0px;"/><path d="m189.25,69.51c1.41,16.72-2.14,16.53-.25.25l.25-.25Z" style="fill:#0db8ba; stroke-width:0px;"/><path d="m195.5,159l-7.5,8.5c-.92-1.14-1.65-2.44-2.5-3.5l2.25-7c1.73.56,6.26.24,7,.5.25.09.46,1.28.75,1.5Z" style="fill:#1c9294; stroke-width:0px;"/><path d="m150.51,247.49c8.09,8.79,15.97,17.66,24,26.5-3.48-.44.78,6.27,2,8.5-1.2-.27-1.46,1.01-2,1.5-7.01,6.41-2.63.36-4-3.75-.58-1.74-20.31-24.4-22.75-28.75-1-.24-1.27.43-1.75.5.45-2.35,2.13-4.17,4.5-4.5Z" style="fill:#51271e; stroke-width:0px;"/><path d="m60.01,123c10.41,17.16,23.94,32.08,37.5,46.75,12.92,23.37,25.39,32.67,39,48.25,7,8.02,13.96,16.09,20.5,24.5,5.26,8.38,10.55,16.57,16.5,24.5,3,4,6.39,7.71,9,12-.11,2.57-.46,2.6-.5,3-2.44-2.71-5.05-5.31-7.5-8-8.03-8.83-15.91-17.71-24-26.5-3.85-4.18-7.55-8.4-11.5-12.5-4.42-4.59-8.38-9.57-13-14-6.68-6.41-12.69-12.9-22-15.5-1.05-1.22-2.77-1.42-3.5-3.25,1.68-4.93-4.49-28.68-6.5-31.5-15.9-12.19-29.49-27-43.5-41.25,10.73,6.37-.99-6.71-3-3.75-.09.13,2.24,1.64,1,1.75-5.46-5.55-11.62-10.52-17-16.25-4.87-5.18-8.6-12.77-14.25-17.25-4.35-3.45-14.01-5.59-13.25-10.25.68-4.19,7.6-1.67,10.25-.75,16.12,5.61,32.49,28.89,45.75,40Z" style="fill:#f0c255; stroke-width:0px;"/><path d="m50.51,129.5c-.66-.67-1.34-1.32-2-2,1.24-.11-1.09-1.62-1-1.75,2.01-2.96,13.73,10.12,3,3.75Z" style="fill:#f0c255; stroke-width:0px;"/><path d="m12.27,86c16.16,6.36,37.52,33,49.75,47.25L12.27,86Z" style="fill:#08121b; stroke-width:0px;"/><path d="m79.51,303.49c1.22-1.09,1.52-2.34,3-3,9.67,12.62,17.44,26.37,29,37.75-4.66,8.77-8.27,7.29-6.5,18.5,2.38,15.08,19.33,31.12,28.25,29.25,1.41-.3,19.99-18.77,20.75-20,5.79,7.19,6.2,7.16,4,16-2.25,2.17-6.69,8.8-9,12-.13.18-1.52.35-3,3.25-.8,5.35-.03,12.48-1.5,10.75-14.37-14.69-9.73-8.65-17.25-10.5-8.3-2.05-34.07-32.84-41.75-41q6.75-9.87,13.5-19.75c-3.07-2.7-5.43-6.05-8.5-8.75-6.05-5.31-7.5-7.88-16.5-3.5-17.09-17.22-34.83-33.84-51.5-51.5,2.46-2.14,4.8-4.81,7.25-7,7.22,7.48,15.92,13.45,23.5,20.5,14.42,13.42,17.71,24.63,26.25,17Z" style="fill:#cc4745; stroke-width:0px;"/><path d="m90.51,327.99l-6.5,6.5c-1.98-2.1-4.48-3.93-6.5-6-1.2-1.24-2.28-2.78-3.5-4,9-4.38,10.45-1.82,16.5,3.5Z" style="fill:#51271e; stroke-width:0px;"/><path d="m139.01,234.99c-.05,8.03.37,11.06,3.5,18.5-3.62,2.26-5.81,6.93-9.25,9.5-12.91-2.41-11.49-1.73-19.25,8.5-5.48-5.41-15.36-15.8-19.5-19.5,10.2-8.43,19.25-18.08,28.5-27.5.98-1,2.88-1.82,3-3.5,4.62,4.43,8.58,9.41,13,14Z" style="fill:#cc4745; stroke-width:0px;"/><path d="m150.51,247.49c-2.36.33-4.05,2.15-4.5,4.5-1.05.15-2.59.93-3.5,1.5-3.13-7.44-3.55-10.47-3.5-18.5,3.95,4.1,7.65,8.32,11.5,12.5Z" style="fill:#7b392a; stroke-width:0px;"/><path d="m174.5,273.99c2.45,2.69,5.06,5.29,7.5,8-.45,4.07-1.37,6.73-1.5,8-.77-.07-1.18-1.18-1.5-1.5,1.07-2.82-1.27-3.76-2.5-6-1.22-2.23-5.48-8.94-2-8.5Z" style="fill:#72462d; stroke-width:0px;"/><path d="m182.5,278.99c-2.61-4.28-6-8-9-12,3.64-5.15,8.77,3.38,9.5,6.75.39,1.81-.43,3.58-.5,5.25Z" style="fill:#7b392a; stroke-width:0px;"/><path d="m95.01,67.01c-1.32-.23-5.12-2.9-6-4-8.01-10.01,3.48-23.89,14.75-17.5,10.1,5.73,4.87,23.93-8.75,21.5Z" style="fill:#f0c255; stroke-width:0px;"/><path d="m89.01,63.01c.88,1.1,4.68,3.76,6,4,.48,2.14,9.36,6.67,9.5,7.25.19.8-3.35,3.88-3,6.5.12.93,8.26,14.5,9.5,16.25l-7.5,8h-.5c-5.19-4.42-10.34-14.78-18.25-11.5-1.32.55-18.03,20.61-19.5,21-7.48,1.98-21.08-14.09-16.75-29.25-8.17-9.81-6.26-8.69,1-17,3.47-3.97,7.71-7.34,11.25-11.25,9.44,8.21,21.05,28.34,28.25,6Z" style="fill:#12737a; stroke-width:0px;"/><path d="m59.76,81.51c13.93-2.52,14.61,16.07,4,17.5-11.94,1.6-13.2-15.83-4-17.5Z" style="fill:#08121b; stroke-width:0px;"/><path d="m119.01,150c1.5,1.06,21.81,21.83,26,26,16.44,16.35,31.76,33.8,49.5,48.75,3.97,19.05,31.09,53.36,17.5,66.25-.57.54-10.49,6.22-13,9-7.79-3.69-.9-14.92,2.5-20,1.41-2.1,3.68-3.55,5-5.75-16.8-36.88-44.83-58.64-69-87.74-2.58-3.1-18.13-23.03-18.5-24.75-.21-.98.84-1.75.5-2.75-.03-.1.48.64-.5-2-.76-2.03-4.5-6.92-6-9.25l.75-.75c1.65,1.11,3.62,1.85,5.25,3Z" style="fill:#f0c255; stroke-width:0px;"/><path d="m235,272.49c.13.14-.48,1.52,3,2.5-.13.26.17,1.06-.5,2-1.07,1.5-2.89,1.91-4,3-4.28,4.2-8.14,4.04-7,14,.11.97.2,2.63.5,3.5-1.55-.51-2.41-2.09-3.5-3,.61-5.26-.53-13.5,2.5-16.75l-.5-1.25c2.37-.06,3.45-3.19,4.5-5,.07-.12,1.49-.21,2-2,.84.15,1.89,1.79,3,3Z" style="fill:#873d3f; stroke-width:0px;"/><path d="m110.01,144c2.26,2.27,6.66,3.77,9.5,5.5l-.5.5c-1.63-1.15-3.6-1.89-5.25-3l-.75.75c1.5,2.33,5.24,7.22,6,9.25h-8.5c-4.95-1.11-7.94-2.68-10-2.5-1.1-1.31-4.05-4.08-5.5-5.5-.71-.7-.93-1.44-1-1.5.1-26.5,4.61-10.8,16-3.5Z" style="fill:#7b392a; stroke-width:0px;"/><path d="m110.51,157c2.97.66,6.18.62,9,2,.34,1-.71,1.77-.5,2.75.36,1.72,15.92,21.65,18.5,24.75-2.6,1.09,3.36,9.7,5.5,12.75,4.46,6.36,10.59,11.51,15.5,17.5-.13,1.35-10.48,3.74-14.25,2.25-6.16-2.43-35.62-54.85-43.75-64.5,2.06-.18,5.05,1.39,10,2.5Z" style="fill:url(#g); stroke-width:0px;"/><path d="m119.01,157c.98,2.64.47,1.9.5,2-2.82-1.38-6.03-1.34-9-2h8.5Z" style="fill:#51271e; stroke-width:0px;"/><path d="m142.01,422.48c-8.25,1.68-24.28-12.38-30.5-18.75-5.79-5.93-13.61-17.91-14.75-17.75-.49.07-3.24,6.29-8,1.5-3.66-3.69,3.04-6.6,2-8-2.04-1.26-4.35,4.6-8.5,4.5,1.06,7.78-5.92-1.2-9.25-6-4.82-6.95-4.68-16.06-8.5-3-3.07-2.85-4.74-6.98-8.5-9.25l8-1c-2.49-4.22-5.86-11.68-4.5-16.5-8.23,4.92-5.11,1.18-10-7.5-3.72-6.61-11.23-15.39-8-17.75,12.1,12.14,24.52,23.98,36.5,36.25,9.83,10.07,27.37,31.21,36.25,38.75,3.34,2.84,10.51,8.8,14,8.5,2.55,3.23,5.97,9.02,10.5,8.5,1.75,1.03-1.18,2.32,3.25,7.5Z" style="fill:#51271e; stroke-width:0px;"/><path d="m73.01,377.99c-7.69-.54-6.94-1.56-8.5-3,3.82-13.06,3.67-3.95,8.5,3Z" style="fill:#292329; stroke-width:0px;"/><path d="m78.26,368.49c5.67-1.66,7.08,7.56,3,8.5-5.44,1.26-6.73-7.4-3-8.5Z" style="fill:#100f11; stroke-width:0px;"/><path d="m222,293.99c-4.79,8.56,3.56,13.17,6.5,6.5.06.09.98.63,1.5.5-.03,1.36-1.51,2.59-1.5,2.75.03.38,4.63,4.81,5,5.75,1.63,4.18-3.49,10.05,6.5,13.5,6.26,2.16,6.5.02,11.5-.5,1.4-.15,3.34-.14,4.5,1-5.12,3.6-12.29,6.81-9.5,14.5q-3.5,2-7,4c-.33-.08-.73-.32-1-.5-6.86-6.64-12.87-14.16-19.5-21-.19-2.48-.78-5.13-1.5-7.5-1.14-3.79-3.7-8.5-4.5-12q2.87-5,5.75-10c.92-.32,2.66,2.56,3.25,3Z" style="fill:#0a5459; stroke-width:0px;"/><path d="m248.5,281.99c.14,2.14-.96,4.04-1.5,6-4.88,1.84-8.67,16.04-13.5,21.5-.37-.94-4.97-5.37-5-5.75-.01-.16,1.47-1.39,1.5-2.75.07-2.93-1.61-4.76-3.5-7-1.14-9.96,2.72-9.8,7-14-2.18,29.72,5.33,3.86,8.75,2,2.38-1.3,5.23,2.2,6.25,0Z" style="fill:#0db8ba; stroke-width:0px;"/><path d="m247,287.99c-.71,2.59-1.72,4.97-2.5,7.5-1.21,3.92-6.54,13.85-1.5,15-1.25,3.3-.46,2.38-.5,2.5-.19.52-5.37,4.38-2.5,10-9.99-3.45-4.87-9.32-6.5-13.5,4.83-5.46,8.62-19.66,13.5-21.5Z" style="fill:#1c9294; stroke-width:0px;"/><path d="m250,271.99c-.44,2.84-.29,7.04-1.5,10-1.02,2.2-3.87-1.3-6.25,0-3.42,1.86-10.93,27.72-8.75-2,1.11-1.09,2.93-1.5,4-3,3.28,1.38,11.56-4.24,12.25-6.5l.25,1.5Z" style="fill:#1c9294; stroke-width:0px;"/><path d="m246.5,313.99c.35.28,4.82,7.09,5,7.5.07.16-.04.63,0,1-5,.52-5.24,2.66-11.5.5-2.87-5.62,2.31-9.48,2.5-10,1.87-.1,2.52-.2,4,1Z" style="fill:#0db8ba; stroke-width:0px;"/><path d="m251,267.49c-.64,5.26-.96,4.27-1,4.5l-.25-1.5c-.69,2.26-8.97,7.88-12.25,6.5.67-.94.37-1.74.5-2,1.34-2.72,2.5-6.05,3-9q5,.75,10,1.5Z" style="fill:#11a7a3; stroke-width:0px;"/><path d="m243,310.49c-5.04-1.15.29-11.08,1.5-15,7.46-.05.21,8.41-1.5,12.75-.2.5.2,1.73,0,2.25Z" style="fill:#11a7a3; stroke-width:0px;"/><path d="m230,300.99c-.52.13-1.44-.41-1.5-.5-.1-.13-1.45-2.84-1.5-3-.3-.87-.39-2.53-.5-3.5,1.89,2.24,3.57,4.07,3.5,7Z" style="fill:#292329; stroke-width:0px;"/><path d="m358.99,368.99c-1.63,4.18-1.99,8.86-1,13.25-10.22-1.76-6.63.15-10,1.25-.22.07-.81-.79-2.25-.5-.49,2.67-1.14.93-1.25,1-.36-1.29-2.11-1.3-2.5-1.5-.94-.49-3.62-2.07-3.5-3.25q8.12-8.87,16.25-17.75l.25,7.75.75.75c2.56-1.96,3.02-.99,3.25-1Z" style="fill:#0a5459; stroke-width:0px;"/><path d="m386.49,383.98c-6.93,5.36-7.75,3.77-8,13.5-5.4,5.43-10.72,10.96-16,16.5-1.2-.31,4.12-7.43,6-9.75,6.28-7.74,9.63-7.67,10-15.25,2.95-2.97,7.12-4.45,8-5Z" style="fill:#032b35; stroke-width:0px;"/><path d="m378.49,388.98c-.36,7.58-3.72,7.51-10,15.25-1.88,2.32-7.2,9.44-6,9.75-3.26,3.42-6.2,7.11-9.5,10.5.58-5.61,4.98-11.45,7.5-16.5.67-1.35,1.44-2.66,2.5-3.75l-12-9.75c-.79-9.78,2.98-7.72-3-6.5.04-.22-.92-2.5,0-4.5,3.37-1.09-.22-3.01,10-1.25-.99-4.39-.63-9.07,1-13.25,11.85-.76,7.7,6.72,10.75,9.5,2.78,2.54,9.32-1.4,8.75,10.5Z" style="fill:#12737a; stroke-width:0px;"/><path d="m370.24,387.48c3.97-.41,6.91,7.91-1.5,10-1.28-.13-2.46-9.59,1.5-10Z" style="fill:#158187; stroke-width:0px;"/><path d="m347.99,383.48c-.92,2,.04,4.28,0,4.5-.49,2.45-1.46,2.36-1.5,2.5-5.27-7.48-3.13-5.79-2-6.5.11-.07.76,1.67,1.25-1,1.44-.29,2.03.57,2.25.5Z" style="fill:#0a5459; stroke-width:0px;"/><path d="m343.49,328.99h.5c-4.39,4.45-8.32,9.37-13.5,13-.36-.64-7.29-8.83-9-11.75.13-.83,1.17-1.71,2-2.75.51-.64,2.65-2.26,3.5-3l9.25,11,7.25-6.5Z" style="fill:#12737a; stroke-width:0px;"/><path d="m343.49,328.99l-7.25,6.5-9.25-11c.9-.79,3.01-4.04,4.25-4l12.25,8.5Z" style="fill:#1c9294; stroke-width:0px;"/><path d="m288.5,312.99c-.13.3-.37,2.97-.5,4-1.84-.29-4.51.05-6-1.5,2.03-2.43,1.49-5.54,1.5-8.5,1.13,1.15,3.1,4.36,5,6Z" style="fill:#0a5459; stroke-width:0px;"/><path d="m283.5,306.99c-.01,2.96.53,6.07-1.5,8.5-.92,1.36-1.43.94-1.5,1-.15.13-1.09-.15-1.25,0-1.7,1.57-3.14,3.37-4.75,5-4.05,4.08-8.27,8.14-12,12.5-2.84.35-3.8-.53-4-.5-1.63.27-4.65,3.83-3.5,5-2.95,2.43-6.54,4.89-8.5-.5-2.79-7.69,4.38-10.9,9.5-14.5,2.07-1.45,7.6-3.39,9-5.25,2.35-3.12,1.49-12.15,9.75-14.25,5.69-1.45,5.51-.31,8.75,3Z" style="fill:#d8ae3f; stroke-width:0px;"/><path d="m258.5,333.49c-.05,2.25-1.95,3.73-3.5,5-1.15-1.17,1.87-4.73,3.5-5Z" style="fill:#a0582e; stroke-width:0px;"/><path d="m297.5,307.49c1.96-1.12-1.56,9.91-2,10.25-1.42,1.12-5.76-.47-7.5-.75.13-1.03.37-3.7.5-4,.87-2.04,2.85-2.38,4.5-3.5.8-.54,4.19-1.74,4.5-2Z" style="fill:#0db8ba; stroke-width:0px;"/><path d="m295.5,289.49c-3.42,3.33-11.15,9.38-16,9.5q5.25-8,10.5-16l3,2.25c.52.81,2.33,4.07,2.5,4.25Z" style="fill:#1c9294; stroke-width:0px;"/><path d="m290,282.99q-5.25,8-10.5,16c-3.6.09-5.01-.61-3-4.5.94-1.83,8.49-9.68,8.5-13,.14.06.36-.06.5,0,1.48.64,3.23.38,4.5,1.5Z" style="fill:#12737a; stroke-width:0px;"/><path d="m293,309.49c-1.65,1.12-3.63,1.46-4.5,3.5-1.9-1.64-3.87-4.85-5-6,0-1.26-.05-2.29-1-3.25,7.53-3.05,4.92-1.85,10.5,5.75Z" style="fill:#1c9294; stroke-width:0px;"/><path d="m163.01,307.49c1.14,1.25,3.58,4.27,4.5,5l-6.75,6c-1.67-1.76-3.41-3.4-5.25-5-6.4-5.57-11.98-12.04-18-18,2.9-3.93,6.52-7.59,10-11,5.04,7.74,9.24,16.12,15.5,23Z" style="fill:#1c9294; stroke-width:0px;"/><path d="m175,319.99c-.63,1.43-5.06,6.45-7,7-4.09-4.49-9.02-8.45-12.5-13.5,1.84,1.6,3.58,3.24,5.25,5l6.75-6c.39.31,4.01,1.12,8.5,4.75.16.59-.66,1.98-1,2.75Z" style="fill:#0a5459; stroke-width:0px;"/><path d="m163.01,307.49c-6.26-6.88-10.46-15.26-15.5-23,.59-.58,3.86-4.5,4.25-4.5,5.94,8.87,20.33,16.44,11.25,27.5Z" style="fill:#0a5459; stroke-width:0px;"/><path d="m190,321.99c-1.06-1.68-2.3-3.1-3-5,2.8-3.77.56,4.29,4.5-3.5.67,1.25,2.34,2.1,2.5,3.75-1.91,4.25-3.83,4.49-4,4.75Z" style="fill:#914732; stroke-width:0px;"/><path d="m191.5,313.49c-3.94,7.79-1.7-.27-4.5,3.5-.44-1.2-2.32-1.93,2-7,.12.18.84.41,2.5,3.5Z" style="fill:#7b392a; stroke-width:0px;"/><path d="m371.99,298.49c-7.06,7.42-13.47,15.52-20.5,23-1.31-2.51-1.91-1.89-2-2-.11-.14-.42-1.74-1.75-3-.26.54-1.48.7-1.75.5-1.9-1.4-2.35-1.79-2.5-4,1.87-2.37,17.42-19.66,18.75-20,2.95-.75,7.02,4.34,9.75,5.5Z" style="fill:#cc4745; stroke-width:0px;"/><path d="m345.99,316.99c-2.16.07-1.53,5.02-.75,5,.83-.02-.38-4.23,4.25-2.5.09.11.69-.51,2,2-2.29,2.44-4.68,4.63-7,7-11.17-8.46-2.77-13.26-1-15.5.15,2.21.6,2.6,2.5,4Z" style="fill:#b13527; stroke-width:0px;"/><path d="m349.49,319.49c-4.63-1.73-3.42,2.48-4.25,2.5-.78.02-1.41-4.93.75-5,.27.2,1.49.04,1.75-.5,1.33,1.26,1.64,2.86,1.75,3Z" style="fill:#21231c; stroke-width:0px;"/><path d="m213,300.99c.8,3.5,3.36,8.21,4.5,12,.21,2.21-3.67-.22-4.5,2-1.87-1.85-3.51-4.03-5.25-6-.56,6.49,6.35,10.65,7.75,12.5,3.36,4.43,6.48,9.01,9.75,13.5,2.63,1.43,12.64,6.08,13.25,6.5.27.18.67.42,1,.5,2.69,1.92,7.03,8.76,7.5,12-.21,5.65.28,11.36,0,17-2.12-.44-8.01-4.14-8.75-4-.94.18-9.82,13.44-11.75,15-2.71-2.54-5.61-4.91-8.5-7.25.83-3.08,4.08-4.04,6-6.5.18-.22-.17-1.51,0-1.75,1.29-1.8,6.28-.26,0-11.25,12.31-4.04,3.95-10.86-5-5.25-.13-17.51.21-13.59-7.5-25-4.75-7.03-9.99-13.79-15.5-20.25-.06-.39,2.61-4.32,3-4.75,2.51-2.78,12.43-8.46,13-9,.43,3.32.25,6.72,1,10Z" style="fill:url(#h); stroke-width:0px;"/><path d="m219,320.49c6.63,6.84,12.64,14.35,19.5,21-.61-.42-10.62-5.07-13.25-6.5-3.27-4.49-6.39-9.07-9.75-13.5l2-2c.23.23,1.28.77,1.5,1Z" style="fill:#cb6475; stroke-width:0px;"/><path d="m213,314.99c1.53,1.51,3,2.97,4.5,4.5l-2,2c-1.4-1.84-8.3-6.01-7.75-12.5,1.74,1.97,3.38,4.15,5.25,6Z" style="fill:#c9595c; stroke-width:0px;"/><path d="m219,320.49c-.22-.23-1.27-.77-1.5-1-1.5-1.53-2.97-2.99-4.5-4.5.83-2.22,4.71.21,4.5-2,.72,2.37,1.31,5.02,1.5,7.5Z" style="fill:#660e0c; stroke-width:0px;"/><path d="m201.5,279.99c-3.4,5.08-10.29,16.3-2.5,20-.39.43-3.06,4.36-3,4.75,5.51,6.46,10.75,13.22,15.5,20.25-2.23.66-4.21.39-6.5,1-6.81,1.82-6.05,4.91-6,11.5q-5.75,3.75-11.5,7.5c-.75-.65-1.96.61-4-4,1.55-3.09,9.35-16.95,5.5-16,1.21-1.82.92-2.87,1-3,.17-.26,2.09-.5,4-4.75-.16-1.65-1.83-2.5-2.5-3.75-1.66-3.09-2.38-3.32-2.5-3.5-.17-.26-1.93-5.13-2.5-5.75-3.67-3.97-7.61,1.11-6-14.25.13-1.27,1.05-3.93,1.5-8,.04-.4.39-.43.5-3,.07-1.67.89-3.44.5-5.25-.73-3.36-5.86-11.9-9.5-6.75-5.94-7.93-11.24-16.12-16.5-24.5q.12-8.75.25-17.5c4.64,5.32,24.31,24.11,25.75,26.25,2.23,3.3,6.27,18.02,18.5,28.75Z" style="fill:#12737a; stroke-width:0px;"/><path d="m183.5,340.99c-1.16-2.63-.8-3.53-1.5-5-.38-2.33.58-2.58,1-3.5.89-1.93,4.66-5.49,6-7.5,3.85-.95-3.95,12.91-5.5,16Z" style="fill:#1c9294; stroke-width:0px;"/><path d="m211.5,324.99c7.71,11.41,7.37,7.49,7.5,25-2.98,1.87-1.92,3.48-3,4.5-1.32,1.25-12.89,2.76-15.5,3-3.17-5.29-8.51-8.62-13-12.5q5.75-3.75,11.5-7.5c8.69,6.75,16.68-8.03,6-11.5,2.29-.61,4.27-.34,6.5-1Z" style="fill:#0a5459; stroke-width:0px;"/><path d="m205,325.99c10.68,3.47,2.69,18.25-6,11.5-.05-6.59-.81-9.68,6-11.5Z" style="fill:#08121b; stroke-width:0px;"/><path d="m223.5,294.49c1.09.91,1.95,2.49,3.5,3,.05.16,1.4,2.87,1.5,3-2.94,6.67-11.29,2.06-6.5-6.5.69.51,1.44.45,1.5.5Z" style="fill:#f3d35b; stroke-width:0px;"/></g></svg>