<?xml version="1.0" encoding="UTF-8"?><svg id="b" xmlns="http://www.w3.org/2000/svg" xmlns:xlink="http://www.w3.org/1999/xlink" viewBox="0 0 512 511.55"><defs><linearGradient id="e" x1="262.62" y1="176.44" x2="218.06" y2="187.65" gradientUnits="userSpaceOnUse"><stop offset="0" stop-color="#dbaf73"/><stop offset="1" stop-color="#a97f53"/></linearGradient></defs><g id="c"><g id="d"><rect x="0" width="512" height="511.55" style="fill:#1b1e2b; stroke-width:0px;"/><path d="m332.57,0C392.34.04,452.12-.02,511.89,0c-.14,137.03.18,274.06,0,411.09-4.1,13.38-2.87,27.56-4,41.21-.66,7.98-2.35,16.02-3,23.98-.4,4.88.19,17.72-1,12.49-1.46-6.42-3.13-29.74-4.5-38.96-3.1-2.62-5.38-11.59-6.99-13.74.92-3.93.33-34.65-1.25-35.46-3.62,10.32-2.94,22.05-3.75,32.97-.44,5.91-1.21,11.81-1.5,17.73h-1c-.32-7.91-.68-15.82-1-23.73-.28-7.06.33-14.18-.5-21.23-.77-6.55-9.56-46.18-12.99-32.97,2.76,10.82,4.51,21.83,6.99,32.72l-1.5,1.5c-1.13-6.04-3.72-21.54-4.99-25.72-4.17-13.64-3.71-2.51-15.73-3.75-11.56-1.19-16.32-19.56-2-17.48-2.16-5.7,12.06-5.35,15.48,3,7.21,1.75,13.2-29.67-16.23-38.21,9.98-8.13,19.13-21.63,16.48-34.96.17-.62,6.33-1.78,4.75-10.74-6.23,6.58.43-2.23-5.74,1.5.05-.55-.24-.43-.5-.5-1.14-.3-16.41,4.38-18.48-9.24-1.81-11.9,8.12-14.12,8.49-14.98.35-.8-.33-5.03,0-5.49.64-.91,12.66,3.18,10.49-15.48-1.18-10.11-11.54-17.52-10.99-22.48.1-.9,5.73-15.81,6.49-16.98.44-.68,10.44-11.62,11.24-11.74.42-.06,4.05,2.28,4.99,2,.55-.16,5.5-7.98,6.74-9.24,3.69-3.73,13.97-9.83,14.49-15.48.94-10.39-14.81,2.06-19.23,4.25-20.36,10.06-2.04-2.92,1.75-8.74,2.68-4.13,6.5-14.26,5.49-18.98-1.06-4.97-.53,2.04-11.49-.75l.5-.5c8.74,2.7,10.48-1.78,11.49-9.74-19.5,11.43-.83-3.68-14.49-8.49,2.96-7.99-17.32-22.91-24.97-22.48,5.13-.77,4.96-1.35,7.99-4.25,2.07-1.97,5.69-7.04,5.99-9.74.61-5.48-15.22-42.9-18.98-49.45-1.06-1.85-7.56-11.61-8.49-12.49-5.72-5.39,7.75,15.17,9.49,18.98,1.15,2.5,7.27,18.53,5.74,19.73-17.3-10.31-20.93-28.62-41.46-39.96-15.04-8.3-11.33-2.47-11.99-2-.22.16-4.27-1.89-4.99-2-11.03-1.67-4.59,1.13-6.74,4-2.7-.8-7.1-1.39-9.99-1.5,2.2-2.51,4.24-5.27,6.49-7.74-.25-1.58-16.38-6.61-17.48-1.5-1.77,8.2,8.73,3.09,12.49,5.99-2.34,3.29-5.24-1.65-15.98,5.24-.99.63-4.83,2.55-4.99,3.75-.1.74,2.68,2.04,2,14.24-.05.84-.86,2.92-.5,5.99-.03-.05-.7.03-1,0-.01-1.75-.16-3.34-.75-4.99-.41-.3-3.82,2.89-4.25,4.5-.93-.54-2.58-1.84-3.5-2-.71-.12-1.69.04-2.5,0-5.99-.31-8.75.33-8.49,6.99.46,11.99,7.46-1.48,12.49,3.5.17.64.91,1.35,1.5,3.5.19,1.19-.5.94-.5,1-7.33-4.69-9.83,1.03-10.49,7.99-.52-.37-2.25-.48-4.5-2.5.09-.91,2.52-4,2.5-4.25-.03-.44-5.8-6.2-6.24-6.24-3.32-.34.93,7.87,1.75,8.99-2.65.34-8.87-3.03-13.74-4.5-6.13-1.85-12.65-2.68-18.73-4.75,5.75-9.25,10.26-21.68,16.98-30.22.77-.98,3.07-4.76,3.75-4.99l11.49,1c5.83-8.84,9.69-11.5-1.75-16.48Z" style="fill:#1b1e2b; stroke-width:0px;"/><path d="m170.73,0c-2.05,3.4-18.04,2.87-18.48,7.24-.28,2.78,7.88,3.06,9.49,3.25l.5,2c-8.93-1.32-21.5,1.35-29.97,4.5-1.63-1.66,2.98-2.61,4.99-3.75.09-1.95-25.53,1.23-37.71,7.74-7.7,4.12-27.51,21.96-32.72,28.97-3.09.26,2.24-12.29,3.5-14.74,3.5-6.8,9.69-12.36,13.99-18.48-20.94,12.41-42.7,44.34-45.45,68.43-1.02,8.9.59,13.68,1,21.73-6.23-3.51-5.88-14.3-8.49-20.98-5.69-14.56-12.22-.79-22.23,11.99L.4,92.91C.44,61.94.37,30.98.4,0,57.18-.02,113.95.04,170.73,0Z" style="fill:#1b1e2b; stroke-width:0px;"/></g><path d="m216.19,0c-5.22,12.21-12.97,23.02-19.98,34.22.12.61,6.96,4.28,7.99,5.49,5.59,6.61,1.92,19.36,8.99,7.99,3.08-4.95,6.92-15.6,9.49-21.48l.75-.75c1.35.25,8.54,2.6,8.99,2.5,1.65-.37,15.31-24.55,17.23-27.97,9.66,0,19.31,0,28.97,0-2.98,1.69-42.74,25.52-31.22,29.47,8.07,2.77,24.5-18.58,42.96-10.49,6.88-6.63,6.66-10.05,4.25-18.98,8.33,0,16.65,0,24.97,0-.59,1.51-7.9,5.24-7.99,5.74-.43,2.24,8.34,3.31-.5,11.74-7.54-1.15-5.15,2.92-1.5,6.74-8.14-2.66-7.1,11.6-9.74,17.23-3.88-2.34-10.03-3.71-14.49-2.5.88-13.99-21-7.11-20.48,5.99-2.24.07-4.5-.09-6.74,0-9.21.38-18.37,1.2-27.47,3-7.07,1.4-13.67,3.72-20.48,5.99-3.64,1.21-9.6,3.68-10.49,2.5,4.88-5.87-1.58-14.47-8.49-13.49-.38-1.15-4.39-4.62-4.99-6.74l5.49-9.49c-2.54-4.96,1.99-10.12,2-15.48-.83-1.02-9.28.5-10.99.75l-1-1.5c4.12-.49,7.97-2.42,12.24-2,5.2-12.5-17.39,3.63-33.22-1.25,6.31-1.41,7.99-.46,14.49-3.25,1.9-.81,4.99-1.76,5.49-4C192.54,0,204.36.01,216.19,0Z" style="fill:#1b1e2b; stroke-width:0px;"/><path d="m249.65,0c-1.92,3.42-15.59,27.61-17.23,27.97-.46.1-7.64-2.25-8.99-2.5l-.75.75c-2.57,5.87-6.41,16.53-9.49,21.48-7.07,11.36-3.4-1.38-8.99-7.99-1.03-1.21-7.88-4.89-7.99-5.49C203.22,23.02,210.96,12.22,216.19,0c11.16,0,22.31,0,33.47,0Z" style="fill:#953757; stroke-width:0px;"/><path d="m294.61,0c2.41,8.93,2.64,12.35-4.25,18.98-18.46-8.09-34.89,13.26-42.96,10.49C235.88,25.52,275.64,1.69,278.62,0c5.33,0,10.66,0,15.98,0Z" style="fill:#953757; stroke-width:0px;"/><path d="m354.3,12.49c-6.7,12.68-5.1,23.96-23.23,15.73-.8-2.05,10.34-15.22,19.73-10.24-2.92-8.45-.86-1.94,3.5-5.49Z" style="fill:#953757; stroke-width:0px;"/><path d="m336.57,61.45c-.09-.08-.55.49-2-1.5-.81-1.12-5.07-9.33-1.75-8.99.44.05,6.21,5.8,6.24,6.24.02.25-2.4,3.34-2.5,4.25Z" style="fill:#f6d88c; stroke-width:0px;"/><path d="m332.82,39.97c.56,2.81-3.23,5.71-3.5,5.49-2.28-1.79,2.15-4.66,3.5-5.49Z" style="fill:#ac3f60; stroke-width:0px;"/><path d="m467.93,281.23c-1.18.71-1.12.64-.5-.5.26.07.55-.05.5.5Z" style="fill:#85683e; stroke-width:0px;"/><path d="m365.54,449.56l.5-.5c2.4,2.23,3.18,6.58,6.24,8.49,1.93-2.16-2.65-12.9-.25-10.24,3.56,3.93,19.77,29.66,24.73,37.21-.88-3.26-7.93-25.38-6.49-26.47,11.95,10.53,23.89,21.27,35.21,32.47,2.67,2.64,5.06,5.63,7.49,8.49-.41,1.12.03,5.55-1.25,5.49-11.03-21.27-9.98-8.41-25.22,6.99-12.49.02-24.98-.01-37.46,0l-26.72-44.95c6.66,15.99,16.72,30.25,25.72,44.95-3.16,0-6.33,0-9.49,0-3.77-7.78-4.75-10.37-4.5,0-1,0-2,0-3,0-3.66-10.22-11.53-15.96-5.49,0-2,0-4,0-5.99,0-3.85-16.06-9.74-31.69-11.49-48.2,4.45-12.15,8.67-17.84,11.49-31.22h.5c.52,7.36,1.04,14.99,2.5,22.23,4.35,21.6,5.84,13.08,9.74,13.24.72.03,9.59,4.18,12.24,7.24,1.98,2.28,11.06,18.57-.5-6.99-4.58-10.14-10.47-14.24-8.74-32.22.66,1.86,6.31,19.33,9.49,16.98.21-.15.46-1.99.75-3Z" style="fill:#f1bb83; stroke-width:0px;"/><path d="m162.24,511.49c-10.99,0-21.98,0-32.97,0-.41-4.08-2.45-2.39-4.5,0-4.66,0-9.32,0-13.99,0q16.98-17.23,33.97-34.47c1.63,1.81-6.69,16.28-5.24,16.98,6.74-8.54,12.16-17.99,18.23-26.97.88-1.31,6.15-9.88,6.74-9.99.42-.08,3.73,3.18,4.5,3,.78-.18,8.21-11.31,10.24-12.24-3.9,17.18-10.04,14.52-19.48,26.47.39,3.03,16.26-14.18,16.48-9.49.06,1.27-8.69,17.22-5.24,17.23,1.56,0,12.89-24.43,14.24-27.72,1.6,2.78,4.07-2.22,6.49-3-3.63,10.2-7.85,16.75-.25,10.24.46.41.72.56.75,1.25.07,1.63-12.91,25.3-13.99,29.47-7.22,1.02-11.12-10.86-10.99.5.01,1.03.72,4.98,1,6.49-7.3-.72-6.35-4.7-13.99,3.5l7.99,8.74Z" style="fill:#f1bb83; stroke-width:0px;"/><path d="m281.12,511.49c-8.99,0-17.98,0-26.97,0,.8-6.08-1.67-25.12,8.49-15.23,4.82,4.69,2.18,10.62,11.24,11.24,1.56-.44-2.51-19.62,4-16.98,1.03.42,2.31,18.39,3.25,20.98Z" style="fill:#f1bb83; stroke-width:0px;"/><path d="m239.66,477.53c-.05,11.3-1,23.36-4.99,33.97-4,0-7.99,0-11.99,0,3.22-6.67,13.69-31.18,16.48-34.47l.5.5Z" style="fill:#f1bb83; stroke-width:0px;"/><path d="m303.1,511.49c-2,0-4,0-5.99,0-1.89-15.72-6.42-31.47-.75-46.95q3.37,23.48,6.74,46.95Z" style="fill:#f1bb83; stroke-width:0px;"/><path d="m312.59,511.49c-1.66,0-3.33,0-4.99,0-1.15-11.68-3.03-23.49-3.5-35.21-1.06-26.71.59-25.69,4.5-.5,1.83,11.81,2.49,23.86,4,35.71Z" style="fill:#f1bb83; stroke-width:0px;"/><path d="m249.65,511.49c-2.5,0-4.99,0-7.49,0,2.33-13.09,3.84-26.52,8.74-38.96l-1.25,38.96Z" style="fill:#f1bb83; stroke-width:0px;"/><path d="m100.8,511.49c-3,0-5.99,0-8.99,0,.37-1.93,1.34-3.66,2-5.49,6.69-18.59,21.35-11.28,6.99,5.49Z" style="fill:#1b1e2b; stroke-width:0px;"/><path d="m292.11,511.49c-2.16,0-4.33,0-6.49,0,.67-3.96-1.48-21.56-1-22.73.27-.64,4.51-1.85,4.75-1.75,1.13.48,2.33,21.53,2.75,24.48Z" style="fill:#f1bb83; stroke-width:0px;"/><path d="m144.76,477.03q-16.98,17.23-33.97,34.47c-.5,0-1,0-1.5,0,5.43-6.51,11.39-12.59,17.48-18.48,2.24-2.17,16.87-16.48,17.98-15.98Z" style="fill:#151a15; stroke-width:0px;"/><path d="m369.03,511.49c-.33,0-.67,0-1,0-9.01-14.7-19.07-28.97-25.72-44.95l26.72,44.95Z" style="fill:#292915; stroke-width:0px;"/><path d="m351.05,511.49c-1.83,0-3.66,0-5.49,0-6.04-15.96,1.83-10.22,5.49,0Z" style="fill:#0e1c28; stroke-width:0px;"/><path d="m358.54,511.49c-1.5,0-3,0-4.5,0-.25-10.37.73-7.78,4.5,0Z" style="fill:#0e1c28; stroke-width:0px;"/><path d="m129.27,511.49c-1.5,0-3,0-4.5,0,2.04-2.39,4.08-4.08,4.5,0Z" style="fill:#281c2a; stroke-width:0px;"/><path d="m112.29,173.83c4.79-5.11,1.02,8.07,15.73,5.49,7.5,17.6,14.76,26.67,32.72,34.22-4.78,3.2-8.33,7.1-11.49,11.74-8.44,12.41-10.38,28.53-6.49,42.96,2.06,12.15-6.12,31.83-19.23,18.48l-.75.75c6.67,17.06,20.91,24.3,38.46,26.22-2.11,8.62-20.09.84-26.47-1-11.34-6.74-17.98-21.4-17.48-34.22.24-6.32,7.8,15.13,16.23,8.24,3.65-2.98-2.79-7.33-7.24-14.74-13.32-22.18-23.41-48.34-24.48-74.43-.53-13.05,3.21-35.01,2.5-36.71l1-.25c1.91-6.96,3.83-14.01,6.49-20.73,2.71.48-.29,9.07-.5,13.74-.19,4.17,1.01,10.33.5,13.99-.17,1.23-4.26,10.52-2.25,10.74,2.49-2.68,2.57-4.3,2.75-4.5Z" style="fill:#0e1c28; stroke-width:0px;"/><path d="m39.36,379.63c-7.32-3.81-12.84-11.46-14.98-19.48.1-7.65,1.77-15.47,3.5-22.98.49-2.13,2.77-6.81,3.5-10.24,2.75-12.92,5.09-46.06,5.49-60.19,2.28,5.68,5.92,10.25,9.99,14.74-13.08,15.05-1.98,32.38,8.99,44.95-27.5,1.75-25.83,38.34-16.73,43.21,9.55,5.11,24.01-13.19,20.98-1,10.9-12.49,17.35-9.74,9.24,2.25,6.52,7.4-4.37,15.17-11.74,14.74-5.94-.35-12.67-8.59-18.23-5.99Z" style="fill:#1b1e2b; stroke-width:0px;"/><path d="m157.74,467.04c-6.07,8.99-11.49,18.43-18.23,26.97-1.45-.7,6.87-15.17,5.24-16.98-1.11-.5-15.74,13.82-17.98,15.98l23.98-30.22c-1.41-4.65-.91-3.99.5-7.74,4.99,3.02,1.29-5.48,12.49,1.25.23.6-6.36,8.49-5.99,10.74Z" style="fill:#1b1e2b; stroke-width:0px;"/><path d="m93.81,63.94c.98-.86,1.98-1.68,3-2.5,4.57,17.49,22.05,8.19,28.47,19.73,6.02,10.82-8.38,16.82-12.99,6.49-.21-15.27-16.51-3.6-18.48-23.73Z" style="fill:#1b1e2b; stroke-width:0px;"/><path d="m72.33,89.42c2.91,3.48,5.2,7.5,7.99,10.99l-1.5,2c-1.23-1.42-4.31-4.03-5.49-5.49-2.71-3.35-5.71-7.34-7.99-10.99-1.39-2.23-3.96-6.85-3-7.49,3.35,2.82,7.08,7.5,9.99,10.99Z" style="fill:#441931; stroke-width:0px;"/><path d="m45.36,235.77c0-3.17,2.55-7.4,4-10.49,1.61-3.43,2.78-7.17,5.49-9.99-.08,1.36-1.71,11.69-2,12.24-.7,1.32-4.08.15-7.49,8.24Z" style="fill:#1b1e2b; stroke-width:0px;"/><path d="m44.36,253.75c.7,1.95,2.5,3.04,2.5,3.25-1.95,2.17-4.3,3.86-6.49,5.74,1.18-4.5.3-8.99,0-13.49,3.02-.63,1.33,3.98,4,4.5Z" style="fill:#1b1e2b; stroke-width:0px;"/><path d="m199.7,56.45c-.95,1.14-8.15,3.83-10.49,4.99-7.65,3.81-11.27,5.31-18.98,9.99-14.6,8.87-26.68,18.69-37.46,31.97-9.32,11.47-15.54,22.73-20.98,36.46-2.66,6.72-4.58,13.77-6.49,20.73l-1,.25c-3.33-3.36-27.33-21.04-27.97-22.73-.34-.9.65-4.34-.75-4.75-8.38,2.24-20.89-6.02-30.22-.25l.25.75c3.63-4.12,21.74,1.11,25.47,3,1.83.93,25.83,20.85,33.22,23.98.71,1.71-3.03,23.66-2.5,36.71,1.07,26.08,11.15,52.25,24.48,74.43,4.45,7.41,10.89,11.75,7.24,14.74-8.43,6.89-15.99-14.56-16.23-8.24-.49,12.81,6.14,27.48,17.48,34.22,11.13,6.62,22.78,5.11,23.48,6.24-2.94,3.81,2.9,14.11,4.99,22.23,1.71,6.6,3.78,15.33,4.99,21.98,3.16,17.37,4.11,35.12,5.49,52.7-22.49,21.16-46.48,40.73-68.43,62.44,10.38-3.25,18.02-11.73,26.72-17.73,7.9-5.45,16.34-10.12,23.98-15.98l.75.75c-1.73,2.98-4.31,6.58-5.49,9.74-1.41,3.76-1.91,3.09-.5,7.74l-23.98,30.22c-6.09,5.89-12.05,11.97-17.48,18.48-2.83,0-5.66,0-8.49,0,14.36-16.77-.3-24.09-6.99-5.49-19.97-.02-3.51-19.14-5.74-20.48-8.68,6.04-21.49,10.18-30.97,3.5-7.46-5.26-1.51-9.81.75-16.73-3.47-2.67-7.75-3.93-10.49-7.49-.07-.56.86-1.27,1.5-2.75,2.96-6.81,13.52-14.55,7.74-14.49-2.45.03-2.53,4.59-3.25,5.74-1.04,1.68-4.6,6.01-4.99,7.24-7.98,2.7-3.84-5.99-5.24-6.99-.95-.67-22.99,1.03-23.23-.75,8.36-8.55,13.01-14.43,17.98-25.47.36-1.74-3.56-2.3-5.49-4.5,3.85-23.27,1.4-16.93-2.5,3.5-.57.95-19.07,7.5-19.48,5.99.3-2,6.59-12.27,6.49-12.99-.08-.6-5.85-4.03-5.99-4.99-.48-3.14,16.3-24.16,16.48-29.47,1.25-1.31,5.58,2.11,6.74,1.75.42-.13,3.49-6.17,5.24-6.99,5.56-2.6,12.29,5.64,18.23,5.99,7.37.44,18.26-7.33,11.74-14.74,8.11-11.98,1.66-14.74-9.24-2.25,3.03-12.19-11.43,6.11-20.98,1-9.1-4.87-10.77-41.45,16.73-43.21-10.97-12.58-22.07-29.9-8.99-44.95-4.07-4.48-7.71-9.05-9.99-14.74,0-.17,0-.33,0-.5.87-1.46,2.24-2.42,3.5-3.5,2.2-1.88,4.55-3.58,6.49-5.74,0-.2-1.8-1.3-2.5-3.25-2.1-5.85-1.65-8.82,0-14.98.28-1.05.57-1.99,1-3,3.41-8.09,6.79-6.92,7.49-8.24.29-.55,1.92-10.88,2-12.24.86-14.67-2.4-13.49-12.99-20.73.79-28.75-1.74-20.96-8.99-26.72,3.95,2.3,24.14,7.72,25.22,8.49,1.48,1.05,2.06,7.5,6.49,8.49,10.39,2.32,11.66-12.4-1-10.99-1.23.86-2.41,1.57-4,1.5-1.48-.07-25.25-7.86-28.22-8.99-17.07-6.5-4.59-4.3,3.75,0,1.43-.26,3.98-14.34,4.25-16.48.02-.16-.02-.34,0-.5.19-1.65-.6-3.78,1-4.99,7.68,3.4,15.74,6.1,23.23,9.99,3.75,3,1.7,7.78,7.99,13.49.68.62,13.18,8.66,13.99,8.49,6.8-1.4-10.04-7.09-13.49-9.99-6.56-5.52-4.1-12.27-10.49-16.48-1.22-.81-23.08-8.83-24.73-8.99,4.09-8.41,12.59-19.75,19.48-25.97,2.81,4.51,1.13,11.63,3.25,10.99.75-1.83,3.25-7.76,3.25-8.74,0-2.04-1.58-3.22-2.5-4.75-1.24-2.07-8.09-9.82-7.99-10.74q6.49-7.87,12.99-15.73c2.28,3.65,5.28,7.64,7.99,10.99l-.5.5c-2.33-2.56-6.49-7.26-7.49-6.74,3.24,3.33,6.37,6.79,9.49,10.24,2.99,3.31,21.47,22.94,14.49,12.99l6.74,5.99.25-.75c-5.36-6.19-10.87-12.34-15.98-18.73-2.79-3.49-5.09-7.51-7.99-10.99,5.66-10.02,12.92-17.95,21.48-25.47,1.97,20.13,18.27,8.46,18.48,23.73,4.61,10.33,19.01,4.33,12.99-6.49-6.42-11.55-23.9-2.24-28.47-19.73,12.79-10.3,40.24-27.75,53.2-9.99,14.71-9.16,31.96,2.3,36.96,1,2.9-.75,5.11-6.88,4.25-9.49,6.91-.98,13.37,7.61,8.49,13.49Z" style="fill:#f1bb83; stroke-width:0px;"/><path d="m126.03,471.53c5.53-1.83,5.22,5.55,1.5,5.99-3.75.45-4.3-5.07-1.5-5.99Z" style="fill:#0e1c28; stroke-width:0px;"/><path d="m51.6,255.75c15.87-2.71,18.95,20.33,5.99,22.48-15.3,2.53-17.99-20.43-5.99-22.48Z" style="fill:#1b1e2b; stroke-width:0px;"/><path d="m59.09,305.2c8.65,9.32,22.78.65,24.73,8.24,1.86,7.26-6.8,9.74-12.24,7.24-2.78-9.49-16.75.66-12.49-15.48Z" style="fill:#072630; stroke-width:0px;"/><path d="m148,60.95c13.48-2.83,11.85,14.49,3,15.48-10.48,1.18-12.17-13.56-3-15.48Z" style="fill:#953757; stroke-width:0px;"/><path d="m32.87,167.84c-.08-.07-.59-.92-1.5-1.5,2.97,1.13,26.74,8.92,28.22,8.99,1.58.07,2.77-.64,4-1.5,12.65-1.41,11.39,13.31,1,10.99-4.43-.99-5.02-7.44-6.49-8.49-1.08-.77-21.28-6.19-25.22-8.49Z" style="fill:#0e1c28; stroke-width:0px;"/><path d="m63.09,202.8c7.06-1.71,3.18,7.99,12.74,4.25-.62,5.92-2.05,10.82-9.24,9.24-5.7-1.25-8.19-12.35-3.5-13.49Z" style="fill:#0e1c28; stroke-width:0px;"/><path d="m36.87,140.87c1.64.16,23.5,8.19,24.73,8.99,6.39,4.22,3.93,10.96,10.49,16.48,3.44,2.9,20.28,8.59,13.49,9.99-.8.17-13.31-7.88-13.99-8.49-6.29-5.71-4.24-10.49-7.99-13.49-7.48-3.89-15.55-6.59-23.23-9.99-1.91-.85-3.43-2.07-5.74-2-.49-.34-.14-1.01-.25-1.5.82.05,1.68-.08,2.5,0Z" style="fill:#0c452f; stroke-width:0px;"/><path d="m104.3,160.85c-7.39-3.13-31.39-23.05-33.22-23.98-3.73-1.89-21.84-7.11-25.47-3l-.25-.75c9.33-5.77,21.84,2.49,30.22.25,1.4.41.41,3.84.75,4.75.64,1.69,24.65,19.37,27.97,22.73Z" style="fill:#173732; stroke-width:0px;"/><path d="m60.34,112.39c.91,1.53,2.49,2.71,2.5,4.75,0,.98-2.5,6.91-3.25,8.74-2.12.64-.44-6.48-3.25-10.99.36-.32,1.72-2.54,4-2.5Z" style="fill:#802d4f; stroke-width:0px;"/><path d="m89.31,113.89c-1.29-1.85-7.49-8.03-10.49-11.49l1.5-2c5.11,6.39,10.63,12.54,15.98,18.73l-.25.75-6.74-5.99Z" style="fill:#441931; stroke-width:0px;"/><path d="m78.82,102.4c2.99,3.46,9.19,9.64,10.49,11.49,6.98,9.95-11.49-9.68-14.49-12.99.91.2-.8-2.18-2-3.5l.5-.5c1.19,1.47,4.27,4.08,5.49,5.49Z" style="fill:#928d58; stroke-width:0px;"/><path d="m59.09,334.17c1.43.08,2.82,4.94,2.75,5.24-.57,2.26-9.5,3.21-7.99-2,.16-.55,4.94-3.26,5.24-3.25Z" style="fill:#1b1e2b; stroke-width:0px;"/><path d="m71.08,330.18c3.03-.86,6.29,5.12,7.74,7.24-.36.65-9.48-3.29-9.74-3.75-.3-.51,1.38-3.32,2-3.5Z" style="fill:#173732; stroke-width:0px;"/><path d="m85.07,265.74c4.8-1.31,5.77,6.01,2,6.49-3.79.49-5.12-5.64-2-6.49Z" style="fill:#a62e6c; stroke-width:0px;"/><path d="m41.11,430.58c8.53-.56-9.37,14.34-3.75,3.75.22-.42,3.48-3.73,3.75-3.75Z" style="fill:#0e1c28; stroke-width:0px;"/><path d="m48.85,462.04c-.66.04-.63-1.1-.5-1.5.39-1.23,3.95-5.56,4.99-7.24.72-1.16.8-5.72,3.25-5.74,5.78-.06-4.78,7.67-7.74,14.49Z" style="fill:#072630; stroke-width:0px;"/><path d="m69.58,226.28c3.01-1.04,3.94,3.32,3,4-2.57,1.83-6.58-2.76-3-4Z" style="fill:#074138; stroke-width:0px;"/><path d="m117.03,56.95c2.74-.86,4.77,2.78,2.5,3.5-3.42,1.08-4.74-2.79-2.5-3.5Z" style="fill:#690632; stroke-width:0px;"/><path d="m99.3,369.14c.34,1.84,5.11,2.4,6.99,3-9.31,12.62,16.05,16.83,21.73,6.99,1.63.89-5.82,6.2-6.74,7.24l6.99,3.5c-6.87-2.75-13.73,2.06-18.73.25-5.59-2.02-2.36-6.97-13.24,2.5-.72.63-1.68.44-1.75.5-4.78,4.33-2.22,3.81-1.75,5.99-1.68-2.04-10.83,3.6-12.49,6.49.23-2.36.88-4.83-.5-6.49-.13-.16,0-.18-.5-.5-1.51-.97-3.22.79-3.5-1.25,2.94-2.11,7.75-2.68,4.99-5.24,2.91-1.77,3.94-3.56,5.49-6.49,1.09,3.21,7.7-7.7,4-10.99-3.46,2.81-2.68,3.72-7.49,1.75,11.92-14.65-1.77-23.11,13.99-35.46-.74-7.07,1.17-11.75,3-18.23h.5c-1.46,7.04-3.7,13.95-2,21.23-12.13,5.96-8.77,23.07,1,25.22Z" style="fill:#2f4738; stroke-width:0px;"/><path d="m80.32,405.6c-.05.51-1.51,4.95-1.5,10.24-1.23,3.82-4.03,5.63-6.74,8.24-2.63-3.57-10.67,9.39-12.74,13.74-23.05,21.44-2.46,1.57-1.5-1,1.83-4.9-1.08-5.67-1-5.99,18.23-10.39,14.09-26.16,22.98-31.72,1.38,1.66.73,4.13.5,6.49Z" style="fill:#173732; stroke-width:0px;"/><path d="m94.31,405.6c-3.94,6.52-1.61,5.76-3,9.74-2.14,6.12-5.28,11.89-7.49,17.98-6.17-.13-9.34,5.85-14.49,8.24l-.5-.5c25.05-18.03,10.67-25.09,19.48-36.71.69-.92,3.57-3.5,4.5-3.75,3.6-.96,3.62,3.45,3.5,3.75-.21.49-1.04-.34-2,1.25Z" style="fill:#173732; stroke-width:0px;"/><path d="m106.3,372.13c-1.89-.6-6.66-1.16-6.99-3,9.85,2.17,10.08-12.09,14.98-17.23,4.55-4.77,12.2-3.41,13.99-13.74h.5c-2.39,20.39-16.7,4.83-17.98,29.72-1,1.39-3.97,3.54-4.5,4.25Z" style="fill:#2f4738; stroke-width:0px;"/><path d="m94.31,405.6c.96-1.58,1.79-.76,2-1.25.13-.29.1-4.7-3.5-3.75-.06-.48.1-1.05,0-1.5-.47-2.18-3.04-1.66,1.75-5.99.07-.06,1.02.13,1.75-.5,3.66,5,5.8,6.41,4.99,13.24l-6.99-.25Z" style="fill:#2f4738; stroke-width:0px;"/><path d="m79.32,398.61c-9.87.39-6.17,1.99-9.99,6.24-8,8.91,3.06-6.35.75-11.24,3.84,1.74,7.27.61,10.74-1.5,2.76,2.56-2.06,3.13-4.99,5.24.28,2.04,1.98.28,3.5,1.25Z" style="fill:#2f4738; stroke-width:0px;"/><path d="m86.32,385.62c1.06-2,3.05-8.4,4-10.99,3.7,3.28-2.9,14.2-4,10.99Z" style="fill:#2f4738; stroke-width:0px;"/><path d="m128.77,338.17h-.5c1-5.79-.62-14.49.25-14.49,1.28,4.85.82,9.59.25,14.49Z" style="fill:#503c1d; stroke-width:0px;"/><path d="m72.83,97.41c1.2,1.32,2.9,3.7,2,3.5-3.12-3.45-6.25-6.91-9.49-10.24,1-.52,5.16,4.18,7.49,6.74Z" style="fill:#664b31; stroke-width:0px;"/><path d="m27.62,402.6c.91.14,2.42-.2,3,0,3.01,1.07-1.02,4-3,0Z" style="fill:#0e1c28; stroke-width:0px;"/><path d="m83.57,222.28c.72-.24,2.54.14,2.25,1.25-.53,2.04-4.29-.58-2.25-1.25Z" style="fill:#102622; stroke-width:0px;"/><path d="m100.3,322.68h-.5c.52-1.84,1.11-3.56,1.25-5.49,1.05,3.21-.69,5.21-.75,5.49Z" style="fill:#9c7344; stroke-width:0px;"/><path d="m69.33,441.56c-.51,1.31-1.72-.19-.5-.5l.5.5Z" style="fill:#503c1d; stroke-width:0px;"/><path d="m483.92,427.58c-3.5-3.93-5.06-15.19-6.49-21.48-2.48-10.89-4.23-21.9-6.99-32.72,3.43-13.21,12.22,26.42,12.99,32.97.83,7.05.22,14.17.5,21.23Z" style="fill:#f1bb83; stroke-width:0px;"/><path d="m376.53,17.49s-.96.46-1,.5c-.13.15-1.11-.84-3,2.25-1.24,2.2-2.42,5.9-3.5,7.74q-3.5-4.25-6.99-8.49c10.74-6.89,13.64-1.95,15.98-5.24-3.76-2.9-14.25,2.21-12.49-5.99,1.1-5.11,17.23-.08,17.48,1.5-2.25,2.48-4.29,5.24-6.49,7.74Z" style="fill:#802d4f; stroke-width:0px;"/><path d="m475.93,407.6l1.5-1.5c1.43,6.29,3,17.55,6.49,21.48.32,7.91.68,15.82,1,23.73h1c.29-5.92,1.06-11.82,1.5-17.73,1.59-.9,3.96,1.12,4.99,2.5,1.62,2.14,3.9,11.11,6.99,13.74,1.36,9.22,3.04,32.54,4.5,38.96,1.19,5.23.6-7.61,1-12.49.65-7.95,2.34-15.99,3-23.98,1.13-13.65-.1-27.83,4-41.21-.04,27.3.27,54.62,0,81.92l-30.97,18.48c-24.81.14-49.62-.03-74.43,0,15.25-15.4,14.19-28.26,25.22-6.99,1.28.06.84-4.37,1.25-5.49.02-.05.07.26.5-1,.09-.27,1.57-1.05,2.5-5.24,3.93-25.47,2.56-21.63,4,3,4.51,3.82,9.09-.2,9.49-3,.48-3.34-5.69-4.92-1.5-13.49,2.76-5.63,13.34-9.04,13.99-10.49.46-18.16,7.26-15.77,7.99-17.98.9-2.73-3.4-49.7-2.5-57.44,2.9,7.23,4.82,40.59,11.74,43.21.8.3,1.13.67,1.75-.25-1.37-9.62-3.21-19.17-4.99-28.72Z" style="fill:#953757; stroke-width:0px;"/><path d="m511.89,494.51c-.07,5.66.05,11.32,0,16.98-9.32.05-18.65-.06-27.97,0,8.19-6.43,18.75-11.38,27.97-16.98Z" style="fill:#953757; stroke-width:0px;"/><path d="m511.89,494.51c-9.22,5.6-19.78,10.56-27.97,16.98-1,0-2,0-3,0l30.97-18.48c0,.5,0,1,0,1.5Z" style="fill:#441931; stroke-width:0px;"/><path d="m492.41,436.07c-1.04-1.38-3.4-3.39-4.99-2.5.81-10.92.13-22.64,3.75-32.97,1.58.81,2.16,31.54,1.25,35.46Z" style="fill:#802d4f; stroke-width:0px;"/><path d="m349.05,40.97c-.62,5.9.8,7.79,1.5,10.49-5.03-4.98-12.02,8.49-12.49-3.5,6.62,1.54,7.75-1,8.49-6.99.81.04,1.79-.12,2.5,0Z" style="fill:#f1bb83; stroke-width:0px;"/><path d="m346.56,40.97c-.74,6-1.87,8.53-8.49,6.99-.26-6.66,2.5-7.3,8.49-6.99Z" style="fill:#a62e6c; stroke-width:0px;"/><path d="m357.54,43.46c.03,5.21-4.14,13.33-4.5,3,.04-2.24-.58-3.2-.5-3.5.43-1.61,3.84-4.8,4.25-4.5.59,1.65.74,3.25.75,4.99Z" style="fill:#d9a66c; stroke-width:0px;"/><path d="m354.05,55.95c-1.09-3.07-1.06-6.29-1-9.49.36,10.33,4.53,2.22,4.5-3,.3.03.97-.05,1,0,.23.37-.46,1.63.5,1.25.64-.25,6.12-10.22,6.99-11.74.29-.18.66-.42,1-.5-1,2.41-1.73,4.93-3,7.24-1.02,1.87-8.68,14.27-9.99,16.23Z" style="fill:#282626; stroke-width:0px;"/><path d="m352.55,42.96c-.08.3.54,1.25.5,3.5-.06,3.2-.09,6.42,1,9.49-.51.76-.76.51-1.5.5-.2-2-.48-1.42-.5-1.5-.59-2.15-1.33-2.86-1.5-3.5-.7-2.69-2.12-4.59-1.5-10.49.91.16,2.57,1.46,3.5,2Z" style="fill:#c65c6c; stroke-width:0px;"/><path d="m358.54,43.46c-.37-3.07.45-5.15.5-5.99,2.47-1.28,4.65-3.02,6.99-4.5-.87,1.52-6.36,11.49-6.99,11.74-.96.38-.27-.87-.5-1.25Z" style="fill:#ee907b; stroke-width:0px;"/><path d="m27.87,511.49c-9.16-.06-18.32.05-27.47,0-.05-5.83.07-11.66,0-17.48q13.74,8.74,27.47,17.48Z" style="fill:#953757; stroke-width:0px;"/><path d="m36.87,266.24c0,.17,0,.33,0,.5-.4,14.13-2.75,47.27-5.49,60.19-.73,3.43-3.01,8.11-3.5,10.24.38-4.34-.33-11.7,0-15.48.04-.52,1.44-3.74,2-10.24,1.94-22.72,3.06-45.49,5.49-68.18,2.62-.88.66,15.78.5,22.73,0,.4,1,.2,1,.25Z" style="fill:#441931; stroke-width:0px;"/><path d="m40.36,249.26c.3,4.49,1.18,8.99,0,13.49-1.26,1.08-2.63,2.04-3.5,3.5,0-.05-1.01.15-1-.25.16-6.95,2.12-23.61-.5-22.73.64-5.94,1.22-17.12,2.5-21.98,1.88.43.26,3.34.5,8.24.32,6.53,1.56,13.15,2,19.73Z" style="fill:#611d40; stroke-width:0px;"/><path d="m42.36,226.28c.36,3.91-.68,12.5,2,12.49-1.65,6.17-2.1,9.14,0,14.98-2.66-.51-.98-5.12-4-4.5-.44-6.58-1.68-13.2-2-19.73-.24-4.9,1.38-7.81-.5-8.24.16-.6.95-3.38,1.25-3.5,3.15-1.2,2.82,3.92,3.25,8.49Z" style="fill:#281c2a; stroke-width:0px;"/><path d="m49.35,225.28c-1.45,3.09-3.99,7.32-4,10.49-.43,1.01-.72,1.94-1,3-2.68,0-1.64-8.58-2-12.49,2.49.83,4.56-.39,6.99-1Z" style="fill:#953757; stroke-width:0px;"/><path d="m27.87,321.68c-.33,3.79.38,11.14,0,15.48-1.72,7.51-3.39,15.32-3.5,22.98-.03-.1-.79-1.41-1-1.75.75-10.32-2.27-29.06-1-37.96,1.5-10.54,2.59,3.86,5.49,1.25Z" style="fill:#611d40; stroke-width:0px;"/><path d="m27.37,89.42c1.64,9.07,2.09,18.78,3,27.97h-1.5c-1.24-5.86-2.74-12.79-3-18.73-.26-5.85.34-15.65,1.5-9.24Z" style="fill:#441931; stroke-width:0px;"/><path d="m31.37,85.92c-1.19,1.66-1.45,4.09-4,3.5-1.16-6.41-1.75,3.39-1.5,9.24.26,5.94,1.75,12.88,3,18.73.4,1.86,1.3,9.29,1.5,9.74.25.57,2.3,1.38,2.5,1.75,2.89,5.56.58,7.76,1.5,11.99.11.49-.24,1.16.25,1.5,2.31-.07,3.84,1.15,5.74,2-1.6,1.21-.81,3.35-1,4.99-23.48-7.2-23.41-3.93,0,.5-.27,2.14-2.82,16.22-4.25,16.48-8.34-4.3-20.82-6.5-3.75,0,.91.58,1.42,1.43,1.5,1.5,7.25,5.77,9.78-2.03,8.99,26.72,10.58,7.24,13.85,6.06,12.99,20.73-2.72,2.82-3.88,6.56-5.49,9.99-2.43.6-4.51,1.83-6.99,1-.42-4.57-.09-9.7-3.25-8.49-.3.11-1.09,2.89-1.25,3.5-1.28,4.86-1.86,16.04-2.5,21.98-2.44,22.69-3.55,45.46-5.49,68.18-.56,6.5-1.95,9.72-2,10.24-2.9,2.62-3.99-11.79-5.49-1.25-1.27,8.9,1.74,27.64,1,37.96.21.34.97,1.65,1,1.75,2.14,8.02,7.67,15.67,14.98,19.48-1.76.82-4.83,6.86-5.24,6.99-1.16.36-5.49-3.06-6.74-1.75-.19,5.32-16.96,26.33-16.48,29.47.15.96,5.91,4.4,5.99,4.99.1.72-6.19,10.99-6.49,12.99.41,1.51,18.91-5.05,19.48-5.99,3.89-20.43,6.35-26.76,2.5-3.5,1.94,2.19,5.85,2.76,5.49,4.5-4.97,11.05-9.62,16.93-17.98,25.47.24,1.78,22.28.08,23.23.75,1.41,1-2.74,9.7,5.24,6.99-.13.4-.16,1.54.5,1.5-.64,1.48-1.57,2.19-1.5,2.75,2.74,3.56,7.02,4.82,10.49,7.49-2.26,6.92-8.21,11.47-.75,16.73,9.48,6.69,22.29,2.54,30.97-3.5,2.24,1.34-14.22,20.46,5.74,20.48-.66,1.83-1.62,3.56-2,5.49-20.81-.03-41.63.13-62.44,0-8.72-7.72-19.13-12.94-28.97-18.98-.88-94.53-.05-189.17,0-283.72,3.39-6.77,3.16-19.21,0-25.97.02-29.97-.04-59.94,0-89.91l8.74,4.99c10.01-12.78,16.54-26.55,22.23-11.99Z" style="fill:#953757; stroke-width:0px;"/><path d="m.4,208.8c0-8.66,0-17.32,0-25.97,3.16,6.77,3.39,19.21,0,25.97Z" style="fill:#953757; stroke-width:0px;"/><path d="m29.37,511.49c-.5,0-1,0-1.5,0q-13.74-8.74-27.47-17.48c0-.5,0-1,0-1.5,9.84,6.04,20.26,11.26,28.97,18.98Z" style="fill:#441931; stroke-width:0px;"/><path d="m39.36,149.36c-.02.16.02.34,0,.5-23.41-4.43-23.48-7.7,0-.5Z" style="fill:#802d4f; stroke-width:0px;"/><path d="m8.14,346.66c4.2,16.07,8.18,32.7,5.49,49.45-.49.27-1.21-1.08-1.25-1.25-.61-2.38-1.29-22.81-2-29.47-.19-1.74-3.84-18.89-2.25-18.73Z" style="fill:#802d4f; stroke-width:0px;"/><path d="m13.64,265.74c2.87-2.22,3.06,17.6,2.5,19.98-.84-2.31-3.29-19.36-2.5-19.98Z" style="fill:#441931; stroke-width:0px;"/><path d="m30.37,117.39c1.84,3.63,4.76,11.73,2.5,11.49-.19-.37-2.25-1.18-2.5-1.75-.2-.45-1.1-7.88-1.5-9.74h1.5Z" style="fill:#441931; stroke-width:0px;"/><path d="m219.68,435.07c.66-.16,1.71.11,2.5,0,.74,6.06,2.45,13.86,5.99,18.98.03.22.84,1.5.5,4.5-4.01-1.34-10.62-8.5-14.98-12.49-7.21-6.58-14.6-12.63-21.98-18.98-1.15-.99-2.37-2.52-3.5-3.5q-3.62-13.24-7.24-26.47c-1.42,3.66.23,3.02.25,3.25.46,6.71,1.91,13.38,3,20.23-2.09-1.89-4.36-3.43-6.49-5.24-1.07-14.17-.64-28.93-4.5-42.71l1-2c2.22,7.15,3.76,14.75,6.49,21.73,4.68,11.95,12.62,23.23,17.98,34.47.38-2.02-2.9-15.97-1.75-15.73q6.62,10.11,13.24,20.23c-1.18-6.39-3.68-13.01-4.25-18.73,2.08,2.56,12.14,23.29,13.49,23.48.39.05.2-.99.25-1Z" style="fill:#422836; stroke-width:0px;"/><path d="m259.64,439.57c-.26,5.22.19,10.51,0,15.73-8.51,2.49-13.75,11.55-16.98,13.24-1.94-11.91,4.43-23.32,3.5-35.21.43-.76,1.54,1.69,3-4.25.71-2.89.69-10.36.75-13.99,3.16,5.63,5.53,11.64,8.24,17.48.16.52-.35,1.32.75,2,.77-.7-.7-1.9-.75-2-.96-3.08-8.32-23.73-7.49-24.73l10.49,1c-.05,10.26-1,20.48-1.5,30.72Z" style="fill:#f1bb83; stroke-width:0px;"/><path d="m248.15,406.6q.5,11.24,1,22.48c-1.46,5.94-2.56,3.48-3,4.25.93,11.9-5.44,23.31-3.5,35.21-.52.27-.88.55-1.25,1-.48-.46-1.22-1.19-1.75-1.5-.4-4.66-.33-9.34-1-13.99-.09-6.62,3.28-25.54,2.5-29.47l1.5-1.5c1.9,6.82,1.37-15.84,2-16.73.4-.57,2.8-.31,3.5.25Z" style="fill:#d9a66c; stroke-width:0px;"/><path d="m230.67,433.57c.42,5.99.82,12.02,1.5,17.98.25,2.2.64,4.32,1,6.49.28,1.68.82,3.22.5,4.99-.73-.69-4.16-2.1-4.99-4.5.34-2.99-.47-4.27-.5-4.5-.51-3.63-.96-18.06-1-22.98,4.23-.71,1.29,2.47,3.5,2.5Z" style="fill:#915a48; stroke-width:0px;"/><path d="m237.16,447.06c.77,5.95,1.45,6.64,1.5,6.99.67,4.64.59,9.32,1,13.99-2.4-1.4-4.02-3.15-5.99-4.99.32-1.78-.22-3.31-.5-4.99.63-2.14-.37-4.43-.5-6.49-.09-1.49.08-3.01,0-4.5,2.44-.03,2.19-1.72,4.5,0Z" style="fill:#c58a5c; stroke-width:0px;"/><path d="m188.21,423.58c-1.17-1.01-2.77-1.89-4-3-1.09-6.85-2.54-13.52-3-20.23-.02-.23-1.67.41-.25-3.25q3.62,13.24,7.24,26.47Z" style="fill:#1b1e2b; stroke-width:0px;"/><path d="m208.19,511.49c-2.66,0-5.33,0-7.99,0,3.37-12.18,7.13-24.22,13.49-35.21.53,6.41-.57,12.99-2,19.23-.05.2-1.62,3.3-.75,3.5.52-.95.88-1.99,1.25-3,3.09-8.42,4.7-17.52,7.74-25.97.52,19.05-5.37,25.7-11.74,41.46Z" style="fill:#f1bb83; stroke-width:0px;"/><path d="m212.19,496.01c-.37,1.01-.73,2.05-1.25,3-.87-.2.7-3.29.75-3.5l.5.5Z" style="fill:#503c1d; stroke-width:0px;"/><path d="m353.05,348.16c-1.35,8.3-7.22,57.47-5.99,61.69,32.95,29.77,50.23,43.53,78.42,78.67v2c-11.32-11.2-23.26-21.94-35.21-32.47-1.44,1.09,5.62,23.21,6.49,26.47-4.96-7.55-21.17-33.28-24.73-37.21-2.4-2.66,2.18,8.08.25,10.24-3.07-1.91-3.84-6.26-6.24-8.49-.09-.08.21-.79-.25-1-.51.36-.12,1.06-.25,1.5-.29,1.01-.54,2.84-.75,3-3.18,2.34-8.83-15.13-9.49-16.98-1.73,17.98,4.16,22.07,8.74,32.22,11.55,25.57,2.48,9.28.5,6.99-2.65-3.06-11.52-7.21-12.24-7.24-3.9-.16-5.39,8.37-9.74-13.24-1.46-7.24-1.98-14.87-2.5-22.23-.06-.81.21-1.63-.25-2-.47,0-.14,1.46-.25,2-2.82,13.38-7.04,19.07-11.49,31.22,1.75,16.51,7.63,32.14,11.49,48.2-3.16,0-6.33,0-9.49,0-6.27-19.27-9.87-39.28-14.74-58.94.6,19.85,5.38,39.27,7.74,58.94-1,0-2,0-3,0q-1.87-5.99-3.75-11.99-.12,5.99-.25,11.99c-1.17,0-2.33,0-3.5,0-1.51-11.85-2.16-23.91-4-35.71-3.91-25.19-5.56-26.21-4.5.5.47,11.73,2.35,23.54,3.5,35.21-1.5,0-3,0-4.5,0q-3.37-23.48-6.74-46.95c-5.67,15.48-1.15,31.24.75,46.95-1.66,0-3.33,0-4.99,0-.42-2.95-1.61-23.99-2.75-24.48-.23-.1-4.48,1.11-4.75,1.75-.49,1.16,1.66,18.77,1,22.73-1.5,0-3,0-4.5,0-.94-2.59-2.21-20.56-3.25-20.98-6.5-2.64-2.43,16.54-4,16.98-9.06-.62-6.42-6.55-11.24-11.24-10.16-9.89-7.69,9.15-8.49,15.23-1.5,0-3,0-4.5,0l1.25-38.96c-4.9,12.44-6.41,25.87-8.74,38.96-.5,0-1,0-1.5,0-1.21-3.79-2.45-3.53-4,0-.67,0-1.33,0-2,0,3.99-10.61,4.95-22.67,4.99-33.97,0-.13,1.36-2.69-.5-.5-2.79,3.29-13.27,27.8-16.48,34.47-2,0-4,0-5.99,0l4.75-16.48q-5.62,8.24-11.24,16.48c-.67,0-1.33,0-2,0,6.37-15.76,12.26-22.4,11.74-41.46-3.04,8.46-4.66,17.55-7.74,25.97l-.5-.5c1.43-6.24,2.53-12.82,2-19.23-6.36,10.99-10.11,23.03-13.49,35.21-1.67,0-3.33,0-4.99,0,.65-4.74,7.02-28.67,6.99-30.22-.04-1.97-2.66-2.89-2.75-5.24q-4.12,17.73-8.24,35.46c-1.5,0-3,0-4.5,0l.25-7.99-4.99,6.99c-2.87-9.44-3.7-5.91-7.74,1-4,0-7.99,0-11.99,0l-7.99-8.74c7.63-8.19,6.69-4.22,13.99-3.5-.28-1.52-.99-5.47-1-6.49-.13-11.35,3.77.52,10.99-.5,1.08-4.17,14.05-27.84,13.99-29.47-.03-.69-.29-.83-.75-1.25-7.6,6.51-3.38-.04.25-10.24-2.42.78-4.9,5.78-6.49,3-1.35,3.29-12.68,27.73-14.24,27.72-3.45-.01,5.3-15.97,5.24-17.23-.22-4.69-16.1,12.52-16.48,9.49,9.44-11.95,15.58-9.29,19.48-26.47-2.03.93-9.46,12.05-10.24,12.24-.76.18-4.07-3.07-4.5-3-.59.11-5.86,8.68-6.74,9.99-.37-2.25,6.22-10.14,5.99-10.74-11.19-6.73-7.5,1.77-12.49-1.25,1.19-3.16,3.76-6.76,5.49-9.74l-.75-.75c-7.63,5.86-16.07,10.53-23.98,15.98-8.7,6-16.34,14.48-26.72,17.73,21.95-21.71,45.94-41.27,68.43-62.44-1.39-17.58-2.33-35.33-5.49-52.7,1.47-2.04,4.08,6.2,4.99,9.49,3.86,13.78,3.42,28.54,4.5,42.71,2.14,1.81,4.41,3.36,6.49,5.24,1.23,1.11,2.82,1.98,4,3,1.12.97,2.34,2.5,3.5,3.5-1.45-.24-.98.88-.5,1.75.87,1.57,15.59,15.24,17.23,16.23.05.03.48-.77,1-.5,1.7.88,2.99,3.14,4.25,1.5,4.36,3.98,10.97,11.15,14.98,12.49.84,2.4,4.26,3.81,4.99,4.5,1.97,1.85,3.59,3.6,5.99,4.99.53.31,1.27,1.04,1.75,1.5.37-.45.73-.73,1.25-1,3.24-1.68,8.48-10.75,16.98-13.24.19-5.23-.26-10.51,0-15.73,2.58,1.36,1.1,10.74,1.5,16.23l1,.25c3.49-.25,15.17,13.49,16.23,13.49,21.46-19.33,43.36-38.13,66.68-55.19-.63-23.47,3.62-46.57,6.99-69.68l1,3.5Z" style="fill:#1b1e2b; stroke-width:0px;"/><path d="m330.07,511.49c-2.33,0-4.66,0-6.99,0-2.36-19.67-7.14-39.09-7.74-58.94,4.87,19.66,8.46,39.67,14.74,58.94Z" style="fill:#f1bb83; stroke-width:0px;"/><path d="m195.21,511.49c-1.33,0-2.66,0-4,0q4.12-17.73,8.24-35.46c.08,2.35,2.71,3.28,2.75,5.24.03,1.55-6.35,25.48-6.99,30.22Z" style="fill:#f1bb83; stroke-width:0px;"/><path d="m216.69,511.49c-2.16,0-4.33,0-6.49,0q5.62-8.24,11.24-16.48l-4.75,16.48Z" style="fill:#f1bb83; stroke-width:0px;"/><path d="m186.72,511.49c-4.16,0-8.33,0-12.49,0,4.04-6.91,4.87-10.43,7.74-1l4.99-6.99-.25,7.99Z" style="fill:#f1bb83; stroke-width:0px;"/><path d="m320.08,511.49c-1.33,0-2.66,0-4,0q.12-5.99.25-11.99,1.87,5.99,3.75,11.99Z" style="fill:#f1bb83; stroke-width:0px;"/><path d="m240.66,511.49c-1.33,0-2.66,0-4,0,1.55-3.53,2.78-3.79,4,0Z" style="fill:#cabe85; stroke-width:0px;"/><path d="m191.71,427.08c7.38,6.35,14.76,12.4,21.98,18.98-1.25,1.64-2.54-.62-4.25-1.5-.52-.27-.95.53-1,.5-1.64-1-16.36-14.66-17.23-16.23-.48-.87-.95-1.99.5-1.75Z" style="fill:#1b1e2b; stroke-width:0px;"/><path d="m266.88,472.03c1.65,6.43,3.13,12.86-4,15.98q2-7.99,4-15.98Z" style="fill:#f1bb83; stroke-width:0px;"/><path d="m190.46,473.03c.31.19-.12,6.78-.25,7.24-1.96,7.16-5.56-1.86.25-7.24Z" style="fill:#f1bb83; stroke-width:0px;"/><path d="m239.66,477.53l-.5-.5c1.86-2.19.5.37.5.5Z" style="fill:#84796a; stroke-width:0px;"/><path d="m340.06,432.07h-.5c.11-.54-.22-2,.25-2,.46.37.19,1.19.25,2Z" style="fill:#5a575b; stroke-width:0px;"/><path d="m366.04,449.06l-.5.5c.13-.44-.26-1.14.25-1.5.46.21.16.91.25,1Z" style="fill:#84796a; stroke-width:0px;"/><path d="m332.57,0c11.44,4.98,7.58,7.64,1.75,16.48l-11.49-1c-.67.24-2.97,4.01-3.75,4.99-2.64.48-6.61-2.78-7.99-3,8.84-8.43.07-9.49.5-11.74.1-.5,7.4-4.23,7.99-5.74,4.33,0,8.66,0,12.99,0Z" style="fill:#802d4f; stroke-width:0px;"/><path d="m321.33,4.5c18.57.16,17.14,3.41,0,1v-1Z" style="fill:#441931; stroke-width:0px;"/><path d="m145.76,266.24c.2,1-.62,2.03,0,4.5l.5,1.5c.74,13,15.92,30.77,22.98,41.46-.4-.05-4.29.41-7.99,0-17.55-1.93-31.79-9.16-38.46-26.22l.75-.75c13.11,13.35,21.29-6.34,19.23-18.48l3-2Z" style="fill:#422836; stroke-width:0px;"/><path d="m173.23,0c.78,2.12-.22,3.18,2,4-6.5,2.78-8.17,1.84-14.49,3.25,15.82,4.88,38.42-11.25,33.22,1.25-4.27-.42-8.12,1.51-12.24,2-6.59.78-13.4.76-19.98,0-1.61-.19-9.77-.46-9.49-3.25.44-4.38,16.43-3.84,18.48-7.24.83,0,1.67,0,2.5,0Z" style="fill:#802d4f; stroke-width:0px;"/><path d="m180.72,0c-.51,2.23-3.6,3.18-5.49,4-2.22-.81-1.22-1.87-2-4,2.5,0,4.99,0,7.49,0Z" style="fill:#953757; stroke-width:0px;"/><path d="m59.84,75.93c1.92.3,1.73,1.85,2.5,2.5-.96.64,1.6,5.26,3,7.49q-6.49,7.87-12.99,15.73c-.1.92,6.76,8.67,7.99,10.74-2.28-.05-3.64,2.18-4,2.5-6.89,6.22-15.39,17.56-19.48,25.97-.82-.08-1.67.05-2.5,0-.92-4.23,1.39-6.43-1.5-11.99,2.26.24-.66-7.86-2.5-11.49-.91-9.19-1.36-18.9-3-27.97,2.55.6,2.81-1.83,4-3.5,2.61,6.68,2.26,17.47,8.49,20.98,11.23,6.33,10.38-10.86,13.49-22.23,1.22-4.46,2.88-7.34,3-7.74.81-.31,3.01-1.07,3.5-1Z" style="fill:#802d4f; stroke-width:0px;"/><path d="m66.84,49.96c-4.89,6.58-8.07,15.91-10.49,23.73-.48,1.55.04,3.09,0,3.25-.11.4-1.78,3.28-3,7.74-3.11,11.37-2.26,28.56-13.49,22.23-.41-8.05-2.02-12.83-1-21.73,2.75-24.09,24.51-56.02,45.45-68.43-4.29,6.12-10.49,11.69-13.99,18.48-1.26,2.44-6.59,15-3.5,14.74Z" style="fill:#281c2a; stroke-width:0px;"/><path d="m181.72,10.5l1,1.5c-10.15,1.48-26.06,5.6-36.46,8.24,7.4.37,14.86.24,22.23,1.25,6.93.95,26.86,5.88,5.99,3.5-13.74-1.57-24.92-6.73-42.46-1.5-21.67,6.47-56.89,34.74-72.18,52.45-.49-.07-2.68.69-3.5,1,.04-.16-.48-1.7,0-3.25,2.42-7.82,5.59-17.14,10.49-23.73,5.21-7.01,25.02-24.85,32.72-28.97,12.18-6.52,37.8-9.69,37.71-7.74-2.02,1.13-6.63,2.09-4.99,3.75-1.53.57-15.07,6.54-10.24,5.99,8.47-.95,31.71-8.76,42.96-9.99.7-.91-1.18-.27-2.75-.5l-.5-2c6.58.76,13.39.78,19.98,0Z" style="fill:#441931; stroke-width:0px;"/><path d="m162.24,12.49c1.57.23,3.45-.41,2.75.5-11.25,1.23-34.49,9.04-42.96,9.99-4.84.54,8.71-5.43,10.24-5.99,8.47-3.15,21.04-5.82,29.97-4.5Z" style="fill:#802d4f; stroke-width:0px;"/><path d="m191.21,42.96c.86,2.61-1.35,8.74-4.25,9.49-5.01,1.3-22.25-10.16-36.96-1-12.96-17.76-40.4-.31-53.2,9.99-1.01.82-2.02,1.64-3,2.5-8.56,7.53-15.82,15.46-21.48,25.47-2.91-3.49-6.64-8.17-9.99-10.99-.77-.65-.57-2.2-2.5-2.5,15.28-17.7,50.5-45.98,72.18-52.45,17.54-5.23,28.72-.07,42.46,1.5,20.86,2.38.94-2.55-5.99-3.5-7.37-1.01-14.82-.88-22.23-1.25,10.4-2.64,26.31-6.76,36.46-8.24,1.71-.25,10.16-1.77,10.99-.75-.01,5.36-4.54,10.52-2,15.48l-5.49,9.49c.61,2.12,4.61,5.59,4.99,6.74Z" style="fill:#ac3f60; stroke-width:0px;"/><path d="m157.49,28.98c13.95-.33-13.38,3.69-14.49,4-2.2.6-28.54,11.63-29.22,10.24,8.14-5.94,34.4-14.02,43.71-14.24Z" style="fill:#802d4f; stroke-width:0px;"/><path d="m152,24.48c3.51-.09,15.55,1.86,12.49,3.5-19.08-6.48-37.42,6.39-55.19,11.74,8.89-6.25,32.84-14.99,42.71-15.23Z" style="fill:#802d4f; stroke-width:0px;"/><path d="m161.24,313.69c3.71.41,7.6-.05,7.99,0,5.23.64,10.33,1.98,15.48,2.5-2.01,5.1,6.9,7.67,11.49,19.73,5.89,15.46,2.94,29.97,3.5,31.47.38,1.03,2.63.85,2.5,3.75-.61-.93-10.22-13.47-11.49-14.98-.09-.11-.77-2.22-1.25-2.5-5.04-2.93-12.48,8.32-17.73,8.49-2.61-8.9-6.79-28.42-8.49-20.98-2.1-8.12-7.93-18.42-4.99-22.23-.69-1.13-12.34.37-23.48-6.24,6.38,1.84,24.37,9.62,26.47,1Z" style="fill:#0b0b18; stroke-width:0px;"/><path d="m171.73,362.14c.83,2.84,1.62,5.66,2.5,8.49l-1,2c-.92-3.29-3.53-11.53-4.99-9.49-1.21-6.65-3.29-15.37-4.99-21.98,1.7-7.44,5.88,12.08,8.49,20.98Z" style="fill:#1b1e2b; stroke-width:0px;"/><path d="m202.2,371.14c4.51,6.84,6.42,11.3,1.25,6.49-9.42,4.63-11.68-14.67-12.74-21.48,1.27,1.51,10.88,14.06,11.49,14.98Z" style="fill:#f1bb83; stroke-width:0px;"/><path d="m258.64,283.22c.48-.02,1.02-.05,1.5,0,7.07.81,13.99,13.85,17.48,19.98l-.5,1c.52,2.99,6.23,7.63,8.49,8.49l1,2c-2.24-1.25-4.34-2.78-6.24-4.5l-.75.25c.79,1.07,1.63,2.98,2,4.25,3.48,12.02,8.49,34.81,1.5,45.7-9.34,14.57-18.06-1.02-20.73-10.74-1.94,7.81-7.16,22.67-17.73,15.98-2.26-1.43-3.07-3.66-4-5.99-4.61-11.59-2.91-22.27-1-33.97,1.06-6.52,3.12-13.18,3.5-16.48.15-1.31.59-.76,0-3.5,2.03.26,1.33-.66,1.5-1,.86-1.69,1.35-3.72,2-5.49.05-.13,1.21-1.62,1.5-2.25-1.14-1.59-9.4,4.27-11.49,4.25.49-.65.51-.94,1.5-2,.66-.7,3.48-3.92,3.75-4,5.25-1.58,5.95,3.89,10.24-6.99.07-.18,1.67-1.63,1.5-3.5,1.42.35,2.84-1.46,3-1.5.42-.11,1.28.03,2,0Z" style="fill:#1b1e2b; stroke-width:0px;"/><path d="m362.54,287.72c-20.64,28.46-61.35,25.81-75.92-6.24-1.02-1.25-5.07-3.62-10.49-9.24,9.44-3.93,18.38,15.85,30.72,22.48,6.29,3.38,15.93,4.55,22.98,4,12.87-1.01,18.24-5.88,25.47-8.49,1.05-.38,4.5.58,7.24-2.5Z" style="fill:#1b1e2b; stroke-width:0px;"/><path d="m381.52,105.9c5.68,5.49,11.18,9.66,15.48,16.48,2.37,3.76,3.91,12.33,6.99,10.49.39.89.76,1.42,1,2,14.58,35.91,10.45,85.22-4.99,120.38.38-3.95-4.31-7.96-8.24-7.99-3.97-.03-8.44,6.66-11.24,8.99-.31-8.21-1.39-15.81-4.5-23.48-6.21-15.3-17-17.99-17.48-19.23-3.32-8.45,9.06-7.83,13.99-15.48,3.3-5.14,2.38-8.77,2.5-9.24.74-3.1.67-6.3,2-9.24,27.77-16.19,13.22-8.9,11.99-11.99-1.32-3.32,17.8-18.24-8.99-61.19l1.5-.5Z" style="fill:#1b1e2b; stroke-width:0px;"/><path d="m400,255.25c-9.47,21.55-16.09,25.67-16.48,27.22-.86,3.38,4.12,7.23,8.49,6.24v.5c-16.72,4.77-11.14-23.86-11.49-32.97,2.8-2.33,7.27-9.02,11.24-8.99,3.94.03,8.62,4.04,8.24,7.99Z" style="fill:#1b1e2b; stroke-width:0px;"/><path d="m418.48,59.45c-.31,13.31-10.88,15.35-11.49,17.23,1.29,19.08-22.04,16.17-17.98,1.5,3.1-11.2,22.49-3.84,23.48-17.73,2.09.07,3.9-.98,5.99-1Z" style="fill:#1b1e2b; stroke-width:0px;"/><path d="m458.94,132.87c-5.18,1.61-31.81,17.85-39.46,19.98l-.5-.5c2.5-2.33,23.33-12.85,28.72-20.98,1.62,3.08,9.8-.34,10.74-2,.77,2,1.97,1.31.5,3.5Z" style="fill:#185436; stroke-width:0px;"/><path d="m405,134.87c-.24-.58-.61-1.11-1-2-.06-.14.06-.36,0-.5,32.86-25.49,36.7-18.28,1,2.5Z" style="fill:#ac3f60; stroke-width:0px;"/><path d="m386.52,18.99c7.56,2.25,34.33,19.38,40.71,24.97,3.1,2.72,19.14,21.05,21.23,24.23,3.63,5.52,4.67,9.1,6.49,15.23-.63.82-1.14,1.37-2,2-1.95,1.43-2.25,1.92-4.5,0-.6-.52-7.19-10.26-9.49-12.74-5.69-6.15-9.46-8.44-12.49-11.24-10.76-9.92-19.73-21.4-37.21-18.98-1.33-2.71-1.28-5.6-4.25-6.99.63-4.67-8.7-7.01-12.99-8.99,1.15-2.84,2.22-5.7,3.5-8.49.04-.04.96-.46,1-.5,2.89.11,7.29.7,9.99,1.5Z" style="fill:#611d40; stroke-width:0px;"/><path d="m457.94,91.91c-1.91-2.6-2.13-5.58-3-8.49-1.82-6.13-2.86-9.71-6.49-15.23-2.09-3.17-18.13-21.51-21.23-24.23-6.38-5.59-33.15-22.73-40.71-24.97,2.15-2.86-4.28-5.67,6.74-4,.73.11,4.78,2.15,4.99,2,.66-.47-3.05-6.31,11.99,2,20.53,11.34,24.16,29.65,41.46,39.96,1.53-1.2-4.6-17.23-5.74-19.73-1.74-3.81-15.21-24.37-9.49-18.98.94.88,7.43,10.64,8.49,12.49,3.76,6.55,19.59,43.97,18.98,49.45-.3,2.7-3.93,7.77-5.99,9.74Z" style="fill:#441931; stroke-width:0px;"/><path d="m362.04,19.49q3.5,4.25,6.99,8.49c-.68,1.16-1.33,2.34-2,3.5-.05.08-.03-.2-1,1.5-2.34,1.48-4.53,3.21-6.99,4.5.68-12.2-2.1-13.5-2-14.24.17-1.2,4.01-3.11,4.99-3.75Z" style="fill:#953757; stroke-width:0px;"/><path d="m385.02,35.47c2.96,1.4,2.91,4.28,4.25,6.99,17.48-2.42,26.46,9.06,37.21,18.98-2.79-1-4.89-2.03-7.99-2-2.09.02-3.9,1.07-5.99,1,.97-13.71-22.56-22.47-24.73-13.49-13.94-11.82-22.78,3.01-21.23-7.74.17-1.15,1.81-3.16,2-3.75,5.4.21,11.22-2.48,16.48,0Z" style="fill:#953757; stroke-width:0px;"/><path d="m385.02,35.47c-5.26-2.48-11.08.21-16.48,0,1.01-3.07,2.29-6,3.5-8.99,4.29,1.98,13.62,4.32,12.99,8.99Z" style="fill:#802d4f; stroke-width:0px;"/><path d="m375.53,17.99c-1.27,2.8-2.35,5.65-3.5,8.49-1.21,3-2.48,5.92-3.5,8.99-.19.58-1.83,2.6-2,3.75-1.55,10.75,7.29-4.07,21.23,7.74,2.17-8.98,25.7-.22,24.73,13.49-.99,13.89-20.38,6.53-23.48,17.73-4.06,14.67,19.27,17.58,17.98-1.5.61-1.88,11.18-3.92,11.49-17.23,3.1-.03,5.21,1,7.99,2,3.03,2.8,6.79,5.09,12.49,11.24,2.3,2.48,8.89,12.22,9.49,12.74q-17.11,16.98-34.22,33.97c13.06-11.09,27.29-21.11,38.71-33.97.86-.63,1.36-1.17,2-2,.87,2.91,1.09,5.9,3,8.49-3.04,2.89-2.86,3.48-7.99,4.25,7.65-.43,27.94,14.48,24.97,22.48,13.66,4.81-5.01,19.92,14.49,8.49-1.01,7.96-2.75,12.44-11.49,9.74-1.12-.35-14.1-6.96-14.74-7.49-5.14-4.28.91-3.98-15.73-12.49-8.74-4.47-7.71-4.31,0,.5,3.14,1.96,13.53,7.48,10.99,11.99-.94,1.66-9.12,5.08-10.74,2-5.39,8.13-26.22,18.65-28.72,20.98-1.56,1.45-1,.92.5.5,7.65-2.13,34.28-18.37,39.46-19.98,7.45-2.32,11.58,2.74,18.48,4.5,10.96,2.79,10.43-4.22,11.49.75,1,4.72-2.81,14.86-5.49,18.98-3.78,5.82-22.11,18.8-1.75,8.74,4.42-2.18,20.17-14.63,19.23-4.25-.51,5.66-10.79,11.75-14.49,15.48-1.25,1.26-6.2,9.08-6.74,9.24-.95.29-4.57-2.06-4.99-2-.8.12-10.79,11.06-11.24,11.74-.77,1.17-6.39,16.08-6.49,16.98-.55,4.96,9.81,12.37,10.99,22.48,2.17,18.66-9.85,14.57-10.49,15.48-.33.47.35,4.69,0,5.49-.37.86-10.3,3.09-8.49,14.98,2.07,13.62,17.34,8.94,18.48,9.24-.62,1.14-.68,1.21.5.5,6.18-3.72-.48,5.09,5.74-1.5,1.58,8.96-4.57,10.12-4.75,10.74,2.64,13.33-6.5,26.83-16.48,34.96,29.43,8.54,23.44,39.96,16.23,38.21-3.42-8.35-17.64-8.7-15.48-3-14.32-2.08-9.56,16.29,2,17.48,12.02,1.24,11.57-9.89,15.73,3.75,1.28,4.18,3.86,19.68,4.99,25.72,1.79,9.55,3.62,19.1,4.99,28.72-.61.92-.95.55-1.75.25-6.92-2.62-8.84-35.98-11.74-43.21-.9,7.75,3.4,54.71,2.5,57.44-.73,2.21-7.53-.18-7.99,17.98-.65,1.45-11.23,4.86-13.99,10.49-4.19,8.56,1.98,10.14,1.5,13.49-.4,2.79-4.98,6.82-9.49,3-1.44-24.63-.07-28.46-4-3-.93,4.2-2.4,4.97-2.5,5.24-2.47-3.3-5.42-6.29-7.99-9.49-28.19-35.15-45.47-48.91-78.42-78.67-1.23-4.22,4.64-53.39,5.99-61.69.56-3.44,1.14-11.04,2-13.24,1.87-4.78,8.86-4.09.5-15.48,25.39-2.32,47.86-11.38,46.2-40.71-2.48,23.54-21.81,32.29-42.96,35.46-2.78.42-33.21,3.02-34.96,3-30.9-.37-43.39-28.65-49.45-30.97-3.63-1.39,2.53,7.82,5.24,10.99l-2.25-.5c-.58.57.75.94.75,1,.03.5-.27.09,0,1,2.4,7.95,5.14,7.28,11.99,10.74-19.02-5.06-1.75,4.42,5.49,4-3.4.54-6.8.47-9.99-.75-2.26-.86-7.97-5.5-8.49-8.49l1-.25c.15-.88-.48-.71-.5-.75-3.49-6.13-10.41-19.17-17.48-19.98q.12-18.73.25-37.46c4.93,12.46,6.45,16.85,15.73,26.47,5.42,5.62,9.47,7.99,10.49,9.24,14.58,32.05,55.28,34.7,75.92,6.24,9.6-13.24,17.84-39.07,11.49-54.94h2c3.11,7.66,4.19,15.27,4.5,23.48.34,9.11-5.23,37.74,11.49,32.97,1.78-.51,3.27-1.92,4.5-3.25-1.34-.43-3.27,2.47-4.5,2.75-4.37.98-9.35-2.86-8.49-6.24.39-1.55,7.02-5.68,16.48-27.22,15.44-35.15,19.58-84.47,4.99-120.38,35.7-20.78,31.86-27.98-1-2.5-.76-1.73-4.61-8.57-5.99-10.99-14.54-25.46-33.49-40.74-56.94-57.44.66-6.97,3.16-12.68,10.49-7.99.05,3,1.5,5.43,1,.5.74,0,.99.26,1.5-.5,1.31-1.96,8.97-14.37,9.99-16.23,1.26-2.31,2-4.83,3-7.24.02-.05,1.33-.45,0-1,.67-1.16,1.32-2.34,2-3.5,1.08-1.84,2.26-5.55,3.5-7.74,1.88-3.08,2.86-2.09,3-2.25Z" style="fill:#f1bb83; stroke-width:0px;"/><path d="m352.55,56.45c.5,4.93-.95,2.51-1-.5,0-.06.69.19.5-1,.02.08.3-.5.5,1.5Z" style="fill:#7c3c30; stroke-width:0px;"/><path d="m433.47,498.01c-.43,1.26-.48.95-.5,1-2.43-2.86-4.82-5.85-7.49-8.49v-2c2.57,3.21,5.52,6.19,7.99,9.49Z" style="fill:#3c2424; stroke-width:0px;"/><path d="m452.95,85.42c-11.42,12.86-25.65,22.88-38.71,33.97q17.11-16.98,34.22-33.97c2.25,1.92,2.54,1.43,4.5,0Z" style="fill:#441931; stroke-width:0px;"/><path d="m449.2,308.2c12.95-.02-.79,4.8-8.49,11.99-15.04.84-12.74-9.76-8.49-10.99.82-.24,15.14-1,16.98-1Z" style="fill:#072630; stroke-width:0px;"/><path d="m440.21,327.68c9.1-2.11,11.66,7.72,2.5,8.99-8.63,1.2-8.11-7.69-2.5-8.99Z" style="fill:#022d33; stroke-width:0px;"/><path d="m463.69,169.34q-11.24,13.99-22.48,27.97c4.26-10.74,13.47-20.23,22.48-27.97Z" style="fill:#ac3f60; stroke-width:0px;"/><path d="m440.71,224.28c2.04-.29,4.76,4.38,4.75,4.75-.02.48-3.73,5.69-7.74,1.75-3.86-3.79,2.54-6.43,3-6.49Z" style="fill:#173732; stroke-width:0px;"/><path d="m433.72,252.75c1.77.2,2.87,5.91,2.75,6.24-.17.48-5.46,2.36-5.74,2.25-.31-.12-2.36-5.93-2.25-6.24.1-.27,4.96-2.28,5.24-2.25Z" style="fill:#a62e6c; stroke-width:0px;"/><path d="m448.2,104.4c5.85-1.42,6.11,6.85,2,7.49-4.79.75-6.33-6.44-2-7.49Z" style="fill:#0e1c28; stroke-width:0px;"/><path d="m456.2,203.3c1.65-.12-.57,10.08-10.99,12.49l10.99-12.49Z" style="fill:#072630; stroke-width:0px;"/><path d="m438.71,267.24c.86.17,2.36,4.98,2.25,5.24-.98,2.4-8.66,1.82-6.99-3,.09-.26,4.49-2.3,4.75-2.25Z" style="fill:#a62e6c; stroke-width:0px;"/><path d="m463.19,141.86c5.52-.95,9.94,3.67,12.24,8.24-11.07-11.16-14.13-9.02-21.73,3.75-1.37-.34,5.18-11.25,9.49-11.99Z" style="fill:#2b3c25; stroke-width:0px;"/><path d="m421.73,274.23c5.67-.89,2.78,6.6-1,5.49-1.74-.51-2.15-5,1-5.49Z" style="fill:#a62e6c; stroke-width:0px;"/><path d="m432.72,218.29c2.84-.25,4.15,4.72,1,5.49-4.41,1.08-4.01-5.23-1-5.49Z" style="fill:#8d2563; stroke-width:0px;"/><path d="m404,132.37c.06.14-.06.36,0,.5-3.09,1.84-4.62-6.73-6.99-10.49l1-1c1.38,2.42,5.23,9.26,5.99,10.99Z" style="fill:#611d40; stroke-width:0px;"/><path d="m441.21,174.33c3.05.78-5.14,7.32-5.99,8.49-1.39-.65,5.48-8.62,5.99-8.49Z" style="fill:#0c452f; stroke-width:0px;"/><path d="m421.73,237.77c2.97.07,2.73,4.99-.5,4.5-2.05-.31-2.37-4.57.5-4.5Z" style="fill:#4e093a; stroke-width:0px;"/><path d="m370.28,401.6c2.36-.37,2.96,2.9,1,3.5-2.83.86-3.52-3.1-1-3.5Z" style="fill:#331933; stroke-width:0px;"/><path d="m477.92,136.87l-.5.5c-6.9-1.76-11.03-6.81-18.48-4.5,1.47-2.19.27-1.5-.5-3.5,2.54-4.51-7.85-10.03-10.99-11.99v-.5c16.64,8.51,10.59,8.21,15.73,12.49.64.53,13.62,7.15,14.74,7.49Z" style="fill:#0c452f; stroke-width:0px;"/><path d="m447.45,116.89v.5c-7.71-4.81-8.74-4.97,0-.5Z" style="fill:#6d5530; stroke-width:0px;"/><path d="m392.01,289.22v-.5c1.23-.28,3.15-3.18,4.5-2.75-1.22,1.33-2.71,2.74-4.5,3.25Z" style="fill:#9c7344; stroke-width:0px;"/><path d="m446.7,448.06c4.58,1.68,4.56,4.12,1,1-.07-.06-1.58-.25-1-1Z" style="fill:#9c7344; stroke-width:0px;"/><path d="m279.62,297.21c.27.31.67.62,1,1l-2.5-.5c0-.06-1.33-.43-.75-1l2.25.5Z" style="fill:#5f403e; stroke-width:0px;"/><path d="m367.03,31.48c1.33.55.02.95,0,1-.34.08-.71.32-1,.5.97-1.7.95-1.42,1-1.5Z" style="fill:#ee907b; stroke-width:0px;"/><path d="m419.48,152.85c-1.5.42-2.05.95-.5-.5l.5.5Z" style="fill:#9c7344; stroke-width:0px;"/><path d="m417.98,368.14c-1.07,1.06-1.94,1.97-3.5,2.25,5.46,2.3,10.88-11.78,9.99.25-.16.82.12,1.33.5,2-9.52,9.5-5.42,7.99-1,12.99,10.27,11.6,9.56,5.17,14.74,7.49,2.39,1.07-.78,4.46-.75,4.75.08.81,11.75,9.91,7.24,7.74-.98-.47-6.38-5.45-8.49-6.99l-12.24-3.25c2.01,6.97,5.31,4.74,9.49,8.99,1.29,8.94,8.23,12.83,6.49,17.48,13.55,12.9,2.1,17.34,17.98,25.97-11.67-3.62-10.06-9.56-13.99-15.48-6.15-9.28-14.28-5.46-15.23-25.72-5.93,1.63-6.97-1.85-10.99-5.49-3.41,7.2-2.09,5.28,1.25,7.99-4,.95-1.46,2.83-1,4.5-3.83-4.59-8.8-2.83-9.49-4.25.05-3.37,1.49-8.15,1.5-11.24,4.36,1.27,1.81-5.2.25-7.49-.04-.05-.51.96-1.25.25-.18-.17.22-4.17-2.5-1.25-5.23-2.01-11.05.83-15.73,3,2.14-3.21,8.02-4.09-2.5-7.99-4.38-1.62-8.33.53-2.75-1.5.32-.12,2.24.15,1-.5-11.83-15.78-.1-.17,8.24.5,4.05.32,8.87-1.44,12.24-3.75-11.4-5.77-6.23-14.22-14.24-19.73-5.7-3.92-6.2.67-9.99-5.99-8.76-2.49-1.1-1.25-.25-3.25,1-2.36-4.71-45.87,1.5-.5,14.37,7.81,18.98,26.16,23.73,18.23,2.19-.75,5.13,2.49,9.74,0Z" style="fill:#2f4738; stroke-width:0px;"/><path d="m419.48,409.1c.23.18,3.44,1.29,4.5,3.75,1.4,3.23.54,11.85,2,14.98.59,1.26,17.14,17.36,19.98,19.48-7.97-2.7-9.79-10.62-18.98-12.49-3.8-6.43-6.51-14.02-8.49-21.23-.46-1.67-3-3.54,1-4.5Z" style="fill:#173732; stroke-width:0px;"/><path d="m424.48,370.64c.89-12.03-4.53,2.05-9.99-.25,1.56-.28,2.43-1.19,3.5-2.25,11.02-10.87,3.49-20.42,3-24.23-1.39-10.8,3.43-28.55.5-1,3.56,7.15,7.24,21.16,3,27.72Z" style="fill:#2f4738; stroke-width:0px;"/><path d="m423.98,385.62c-4.42-4.99-8.52-3.48,1-12.99.13.22,3,2.5,3.5,3.75-.42.55-9.18-1.51-4.5,9.24Z" style="fill:#2f4738; stroke-width:0px;"/><path d="m410.49,398.11c.01-3.09,0-7.15-3.5-8.49,2.72-2.92,2.32,1.08,2.5,1.25.74.72,1.21-.3,1.25-.25,1.56,2.29,4.11,8.76-.25,7.49Z" style="fill:#2f4738; stroke-width:0px;"/><path d="m387.01,382.62c1.24.65-.68.38-1,.5l1-.5Z" style="fill:#88957d; stroke-width:0px;"/><path d="m277.12,304.2l.5-1s.65-.13.5.75l-1,.25Z" style="fill:#664b31; stroke-width:0px;"/><path d="m282.62,316.19c.83,1.41,2.53,4.1,3.75,4.99,2.7-.06,4.31,2.32,6.99,3,9.96,2.52,20.76-.71,21.23.25-6.81,3.09-11.86,6.36-17.48,11.24-8.16,7.08-4.65,4.05,1.5.5,4.94-2.85,10.1-5.79,15.48-7.74q-5.74,5.49-11.49,10.99l10.99-5.99-11.99,18.98.25.75c4.66-5.17,7.96-11.54,13.24-16.23-.97,6.71-7.36,19.22-7.99,24.48-1.12,9.34,2.4-8.07,6.49-11.99-1.09,3.35-3.62,28.05-2.25,28.72,4.71-6.74,9.58-14.55,15.73-19.73-2.47,8.12-1.3,23.74-14.24,20.23-1.67,3.47-.11,5.84-.25,6.99-2.95,4.38-4.89,7.77-10.24,9.49-7.95-20.02-1.35-1.68-1.75,6.49-.83.3-5.33,2.84-5.99,1.75.75-4.98,1.09-7.32-1.5-11.74-4.39-7.51-3.85-1.55-5.74-1-5.31,1.54-6.69-3.42-7.99-7.49-1.2.22,1.71,5.91,1.25,7.24-1.45,4.22-12.68-2.87-11.24-8.24-2.55,7.84,8.89,8.71,6.24,21.98-.14.7.3,1.33-.75,2l-10.24-.25v-11.49c13.31-5.69.31-1.66-.5-3.5-.52-11.92.36-24.33-1.5-35.96l-.5,35.46h-11.99c.21-5.8-.02-10.85-2.5-16.23-.57-1.23-1.35-2.7-2.5-3.5-.78-2.98,1.45-1.48-.5-4.99,10.58,6.69,15.79-8.17,17.73-15.98,2.66,9.72,11.39,25.31,20.73,10.74,6.99-10.9,1.98-33.69-1.5-45.7.63.21.71,1.01,1,1.5Z" style="fill:#f1bb83; stroke-width:0px;"/><path d="m353.05,348.16l-1-3.5c.17-1.17,1.72-9.4,1.25-9.49-5.42,16.14-10.62,71.22-32.72,66.18-.31.69,4.76,5.42-2.75,13.74-1.43-.52,4.71-7.97,2.25-12.24-2.63-4.56-9.5,10.88-7.24-8.24-.87,2.62-2.85,3.45-4.75,4.99l.5-2c2.79-2.45,6.66-6.87,3.5-9.99.31-1.08.35-.8.5-2,.14-1.15-1.42-3.53.25-6.99,12.93,3.51,11.77-12.11,14.24-20.23-6.16,5.18-11.02,12.99-15.73,19.73-1.37-.68,1.16-25.37,2.25-28.72-4.09,3.92-7.61,21.33-6.49,11.99.63-5.26,7.02-17.76,7.99-24.48-5.28,4.69-8.58,11.06-13.24,16.23l-.25-.75,11.99-18.98-10.99,5.99q5.74-5.49,11.49-10.99c-5.38,1.95-10.54,4.89-15.48,7.74l-1.5-.5c5.63-4.88,10.67-8.15,17.48-11.24-.47-.96-11.27,2.27-21.23-.25-2.68-.68-4.3-3.06-6.99-3-1.21-.89-2.91-3.59-3.75-4.99l4.75,4c.8-1.4-1.19-2.18,1-2,3.38,4.21,22.02,3.26,12.49.5-5.74-1.66-5.55.84-14.24-4l-1-2c3.19,1.22,6.59,1.29,9.99.75-7.25.42-24.51-9.06-5.49-4-6.85-3.46-9.59-2.79-11.99-10.74,6.53,2.87,5.35,2.79,2.5-.5-.33-.38-.73-.69-1-1-2.71-3.17-8.88-12.38-5.24-10.99,6.06,2.32,18.55,30.6,49.45,30.97,1.75.02,32.19-2.58,34.96-3,21.15-3.18,40.48-11.92,42.96-35.46,1.66,29.33-20.82,38.39-46.2,40.71,8.36,11.4,1.37,10.71-.5,15.48-.86,2.19-1.44,9.79-2,13.24Z" style="fill:#0e1c28; stroke-width:0px;"/><path d="m280.62,298.21c2.86,3.29,4.03,3.37-2.5.5-.27-.91.03-.5,0-1l2.5.5Z" style="fill:#ba958d; stroke-width:0px;"/><path d="m286.62,314.69c8.69,4.83,8.49,2.33,14.24,4,9.53,2.76-9.11,3.71-12.49-.5-2.19-.18-.2.6-1,2l-4.75-4c-.29-.49-.37-1.29-1-1.5-.37-1.26-1.21-3.17-2-4.25l.75-.25c1.9,1.71,4.01,3.25,6.24,4.5Z" style="fill:#5f403e; stroke-width:0px;"/><path d="m308.59,397.61c-.26.23-5.31,3.18-5.99,3.5-4.79-6.81,6.47-2.99,9.49-13.49,3.16,3.12-.71,7.54-3.5,9.99Z" style="fill:#f1bb83; stroke-width:0px;"/><path d="m312.59,385.62c-.15,1.19-.19.92-.5,2-3.02,10.49-14.28,6.67-9.49,13.49-1.2.56-1.57.34-2,.5.4-8.17-6.21-26.51,1.75-6.49,5.35-1.72,7.29-5.11,10.24-9.49Z" style="fill:#151a15; stroke-width:0px;"/><path d="m298.6,336.17c-6.15,3.55-9.66,6.58-1.5-.5l1.5.5Z" style="fill:#271e0e; stroke-width:0px;"/><path d="m352.05,344.66c-3.37,23.11-7.62,46.21-6.99,69.68-23.33,17.07-45.23,35.86-66.68,55.19-1.06,0-12.74-13.73-16.23-13.49-1.87-15.69,1.96-31.14,2-46.7l9.99-1c-3.61,17.62-2.36,15.24,2,0,11.09-4.05,5.51,4.01,7.24,10.74,2.83-8.61-1.38-13.75,9.24-12.24-3.55,12.91-.39,6.9,1.75-1.25,6.83-.59,8.87-2.03,13.74-5.99,1.9-1.55,3.88-2.38,4.75-4.99-2.26,19.12,4.62,3.68,7.24,8.24,2.46,4.27-3.67,11.72-2.25,12.24,7.51-8.32,2.43-13.05,2.75-13.74,22.1,5.04,27.3-50.04,32.72-66.18.47.09-1.08,8.32-1.25,9.49Z" style="fill:#f1bb83; stroke-width:0px;"/><path d="m308.34,402.6c3.57-.74,7.33,10.44-.5,3-1.31,2.21.2,5.26-2.5,6.49-7.86.17,4.04-1.61-2-3-6.55-1.5-5.24,12.49-9.99,15.48,8.09-25.61,10.3-14.33,11.99-15.48.3-.2,1.25-6.13,3-6.49Z" style="fill:#101c20; stroke-width:0px;"/><path d="m286.37,439.07c1.43-.61,3.09,2.21,2,3-1.79,1.28-4.19-2.07-2-3Z" style="fill:#072630; stroke-width:0px;"/><path d="m264.39,422.58c0,2.49,1.89,10.27,1.25,11.74-.41.94-2.28-11.74-1.25-11.74Z" style="fill:#664b31; stroke-width:0px;"/><path d="m240.66,359.65c.93,2.33,1.73,4.56,4,5.99,1.95,3.52-.28,2.02.5,4.99.63,2.4,1.96,3.3,2,3.5.42,2.03.94,14.75.5,15.73-.48,1.09-4.3,1.18-4.99,0-.71-1.2-2.18-15.74-5.49-27.22-.35-1.2-.43-2.26-.5-2.5,3.22,1.28,2.57-.32,4-.5Z" style="fill:#d9a66c; stroke-width:0px;"/><path d="m233.17,365.64c.47,7.56,1.09,15.19,1.5,22.73.1,1.79.28,3.09-1,2.75-3.16-.18-2.37-.49-2.5-.5-2.19-13.55-2.77-38.73,0-51.45.8-3.67,1.54-8.06,4.5-10.74-6.59,13.56-3.32,23.81-2.5,37.21Z" style="fill:#9b6545; stroke-width:0px;"/><path d="m275.63,404.1c.88.65.32,1.24,2,1.5,1.29.2,5.16.32,5.99-.75.42-.95-.43-9.97-1-11.24h1.5c2.35,7.94-2.19,15.93,8.99,8.74-.04-2.65.33-8.74-1-10.74h1c2.59,4.42,2.25,6.76,1.5,11.74.67,1.1,5.17-1.45,5.99-1.75.42-.16.8.06,2-.5.69-.32,5.73-3.27,5.99-3.5l-.5,2c-4.86,3.96-6.9,5.41-13.74,5.99-2.14,8.15-5.3,14.16-1.75,1.25-10.62-1.51-6.41,3.63-9.24,12.24-1.73-6.73,3.85-14.79-7.24-10.74-4.36,15.24-5.61,17.62-2,0l-9.99,1c-.04,15.56-3.87,31.02-2,46.7l-1-.25c-.4-5.49,1.08-14.87-1.5-16.23.5-10.24,1.45-20.46,1.5-30.72l-10.49-1c-.83,1,6.53,21.65,7.49,24.73-2.71-5.84-5.08-11.86-8.24-17.48-.06,3.63-.04,11.1-.75,13.99q-.5-11.24-1-22.48c-3.71-2.09-1.7-2.12-2-2.5,2.69,1.8,1.08-5.4,1.5-11.99.28-1.59-5-1.67-5.24.5-2.01-1.3-6-1.35-8.74-1.5,1.27.34,1.09-.96,1-2.75-.4-7.54-1.03-15.17-1.5-22.73h1c.23,3.15,1.89,23.64,2.5,24.73.67,1.2,3.14.38,3.25.25,1.02-1.24-2.44-24.21-3.25-27.47l.5-.5c3.31,11.48,4.79,26.03,5.49,27.22.69,1.18,4.51,1.09,4.99,0,.44-.99-.08-13.71-.5-15.73h.5c2.47,5.38,2.71,10.43,2.5,16.23h11.99l.5-35.46c1.86,11.64.98,24.05,1.5,35.96.81,1.84,13.81-2.19.5,3.5v11.49l10.24.25c1.05-.67.61-1.3.75-2Z" style="fill:#0e1c28; stroke-width:0px;"/><path d="m250.9,392.61l10.74.75-.25,12.24-11.24-1.25q.37-5.87.75-11.74Z" style="fill:#f1bb83; stroke-width:0px;"/><path d="m236.67,363.14c.8,3.26,4.27,26.23,3.25,27.47-.1.13-2.57.95-3.25-.25-.61-1.08-2.27-21.58-2.5-24.73-.27-3.71-.41-7.27-.5-10.99.84,2.79,2.31,5.7,3,8.49Z" style="fill:#c58a5c; stroke-width:0px;"/><path d="m292.11,391.61c1.33,2,.96,8.09,1,10.74-11.18,7.19-6.64-.8-8.99-8.74l.25-1.5c4.43.56,5.79-3.43,7.74-.5Z" style="fill:#f1bb83; stroke-width:0px;"/><path d="m282.62,393.61c.57,1.27,1.42,10.29,1,11.24-.83,1.06-4.7.95-5.99.75l-2-12.24c5.33-.51,5.78-2.46,6.99.25Z" style="fill:#f1bb83; stroke-width:0px;"/><path d="m236.67,328.18c-3.39,10.64-2.97,14.47-3,23.98,0,.88-.02,1.59,0,2.5.09,3.72.23,7.28.5,10.99h-1c-.82-13.4-4.1-23.65,2.5-37.21-2.95,2.68-3.69,7.07-4.5,10.74-1.48-2.15-.82-4.74,0-6.99.84-2.33,3.79-4.72,4.99-6.99.1.15,1.95.53.5,3Z" style="fill:#281c2a; stroke-width:0px;"/><path d="m293.11,391.61h-1c-1.95-2.93-3.31,1.06-7.74.5l-.25,1.5h-1.5c-1.21-2.71-1.67-.76-6.99-.25l2,12.24c-1.67-.26-1.12-.85-2-1.5,2.65-13.26-8.79-14.13-6.24-21.98-1.44,5.37,9.79,12.46,11.24,8.24.46-1.34-2.45-7.02-1.25-7.24,1.3,4.07,2.68,9.03,7.99,7.49,1.9-.55,1.35-6.51,5.74,1Z" style="fill:#102622; stroke-width:0px;"/><path d="m247.65,392.11c-.41,6.59,1.19,13.79-1.5,11.99-.1-.13-1.3.26-1.5-.25-.21-.54-1.87-11.04-1.5-11.49.5-.6,3.5-.08,4.5-.25Z" style="fill:#c58a5c; stroke-width:0px;"/><path d="m236.67,360.15c.07.23.15,1.29.5,2.5l-.5.5c-.69-2.8-2.16-5.7-3-8.49-.02-.91,0-1.61,0-2.5.8,2.68,2.18,5.34,3,7.99Z" style="fill:#573422; stroke-width:0px;"/><path d="m247.65,374.13h-.5c-.04-.2-1.37-1.1-2-3.5,1.15.8,1.93,2.27,2.5,3.5Z" style="fill:#633b1c; stroke-width:0px;"/><path d="m258.14,432.57c.04.1,1.52,1.3.75,2-1.1-.68-.59-1.48-.75-2Z" style="fill:#4a2f13; stroke-width:0px;"/><path d="m233.17,458.05c-.36-2.18-.75-4.3-1-6.49h.5c.13,2.06,1.13,4.35.5,6.49Z" style="fill:#6a4331; stroke-width:0px;"/><path d="m252.15,287.72v.5c-4.29,10.88-4.99,5.42-10.24,6.99-.26.08-3.08,3.29-3.75,4,1.66-3.64,4.58-5.36-.5-7.99.57-1.12,1.47-2.11,1.5-3.5,2.35.43,1.85-.92,2.5-1,2.21-.28,8.2,2.39,10.49,1Z" style="fill:#9c7344; stroke-width:0px;"/><path d="m245.16,280.23l-1.25,2c9.53-1.71,6.01-.54,8.24,5.49-2.29,1.39-8.28-1.28-10.49-1,.16-1.77.76-5,1.5-6.49.64-.08,1.39.13,2,0Z" style="fill:#865e47; stroke-width:0px;"/><path d="m250.15,274.23c-1.85-.22,0,.87-.5,2-1.81-.02-5.38,2.67-5.49-.25-.06-1.44,8.66-22.1,5.99-1.75Z" style="fill:#1b1e2b; stroke-width:0px;"/><path d="m253.65,284.72c.17,1.87-1.43,3.32-1.5,3.5v-.5c-2.24-6.04,1.28-7.21-8.24-5.49l1.25-2c1.17-.25,3.93-1.54,4.99-2.5.43,2.06,3.32,5.06,3.5,6.99Z" style="fill:#6d4f45; stroke-width:0px;"/><path d="m145.76,266.24l-3,2c-3.89-14.42-1.95-30.54,6.49-42.96-8.85,12.12-6.14,27.5-3.5,40.96Z" style="fill:#f1bb83; stroke-width:0px;"/><path d="m233.17,284.22l-2.75,7.49,4.25-5.99c-.5,1.77-1.11,3.29-1.75,4.99,2.54,1.16,6.46-14.39,6.24-3-.03,1.39-.93,2.37-1.5,3.5-1.5,2.95-11.44,13.83-14.24,15.98-11.44,8.83-24.72,10.4-38.71,8.99-5.16-.52-10.26-1.86-15.48-2.5-7.06-10.69-22.24-28.46-22.98-41.46,9.01,22.87,24.36,38.7,50.7,35.46,15.83-1.94,26.46-11.89,36.21-23.48Z" style="fill:#f1bb83; stroke-width:0px;"/><path d="m258.64,129.38c.18,16.73-.14,33.47,0,50.2,23.3,2.78,23.66,28.96,1.5,33.97v15.98c9.01,7.94,15.83,18.12,24.23,26.72,2.38-9.67,8.48-19.93,15.23-27.22,25.63-27.68,66.97-14.89,74.43,3.75,6.35,15.87-1.89,41.7-11.49,54.94-2.74,3.08-6.2,2.12-7.24,2.5-7.24,2.61-12.6,7.49-25.47,8.49-7.04.55-16.69-.62-22.98-4-12.34-6.63-21.28-26.41-30.72-22.48-9.28-9.62-10.8-14.02-15.73-26.47q-.12,18.73-.25,37.46c-.48-.05-1.01-.02-1.5,0l-.25-35.46c-5.94,10.71-5.32,24.63-1.75,35.46-.16.04-1.57,1.85-3,1.5-.18-1.93-3.07-4.93-3.5-6.99-.04-.17.98.05,0-3.5,2.67-20.35-6.05.31-5.99,1.75.12,2.92,3.68.23,5.49.25-1.1,2.53-4.67.28-6.49,4-.73,1.5-1.33,4.72-1.5,6.49-.65.08-.14,1.42-2.5,1,.21-11.39-3.7,4.16-6.24,3,.64-1.7,1.25-3.22,1.75-4.99,1.54-5.48,2.59-6.35-1.5-1.5-9.75,11.59-20.39,21.53-36.21,23.48-26.34,3.24-41.69-12.6-50.7-35.46-.04-.78.24-1.53-.5-1.5-.62-2.47.2-3.5,0-4.5-2.65-13.46-5.35-28.84,3.5-40.96,7.05-9.65,21.85-12.53,32.97-11.49,19.63,1.85,34.2,17.78,37.96,18.98.05.02-.17.69,1,.5,6.36,5.98,11.01,13.19,15.73,20.48q10.61-12.11,21.23-24.23v-15.98c-21.9-3.15-21.88-28.8-1-33.47.04-16.9-.06-33.8,0-50.7.5,0,1,0,1.5,0Z" style="fill:#1b1e2b; stroke-width:0px;"/><path d="m325.33,239.77c5.01,22.86,6.87,13.25,20.73,4.25-1.35,1.93-14.91,13.41-13.24,15.23q14.36,2.12,28.72,4.25c-10.19,2.37-44.77-2.38-26.22,3.75l.75,1.25c-3.62,11.86-8.72,6.13-9.99,8.49.19,18.36-.24,16.39-3,0-6.8-5.41-13.76-7.39-2.5-11.49.14-.44-.44-1.13-.75-1.25-1.39-.53-25.26.17-29.72-.75l27.72-3.25c1.36-1.49-8.61-12.37-9.74-14.24,10.55,9.28,8.19,13.95,17.23-6.24Z" style="fill:#f1bb83; stroke-width:0px;"/><path d="m258.64,283.22c-.72.03-1.58-.11-2,0-3.57-10.84-4.2-24.75,1.75-35.46l.25,35.46Z" style="fill:#d9a66c; stroke-width:0px;"/><path d="m250.15,274.23c.98,3.55-.04,3.33,0,3.5-1.06.96-3.82,2.25-4.99,2.5-.6.13-1.36-.08-2,0,1.82-3.72,5.39-1.46,6.49-4,.49-1.13-1.35-2.21.5-2Z" style="fill:#3a3038; stroke-width:0px;"/><path d="m234.67,285.72l-4.25,5.99,2.75-7.49c4.09-4.86,3.04-3.98,1.5,1.5Z" style="fill:#664b31; stroke-width:0px;"/><path d="m225.18,263.24l-.5,1c-3.51-.15-27.36-.97-28.72-.5-4.48,1.55,6.39,2.99,6.24,5.24-.03.5-5.26,8.11-5.74,8.24-4.17,1.17-4.88-7.15-4.99,12.99-2.74-11.27-1.45-12.25-11.24-19.73l5.24-6.24-27.22-.25c26.15-6.06,29.96,3.46,15.48-15.73l.5-.5c1.1,1.07,6.81,7.69,7.74,7.49q4.75-6.74,9.49-13.49l4.5,13.49c17.62-15.42,13.86-11.58.25,3.25.18,2.05,25.95,4.34,28.97,4.75Z" style="fill:#f1bb83; stroke-width:0px;"/><path d="m224.68,264.24l.5-1c1.19.16,2.35.41,3.5.75,0,.39-3.42.27-4,.25Z" style="fill:#878389; stroke-width:0px;"/><path d="m174.23,247.76l-.5.5c-2.47-3.28-2.54-3.44.5-.5Z" style="fill:#5a575b; stroke-width:0px;"/><path d="m146.26,272.23l-.5-1.5c.74-.03.45.71.5,1.5Z" style="fill:#f1bb83; stroke-width:0px;"/><path d="m170.23,71.44c.04,3.1-11.24,12.87-11.49,13.74-.31,1.09,3.93,3.48,4,4.99-4.81,2.9.93,5.65-4.99,7.49,3.14,6.91-3.47,7.16,2.5,16.98v19.98l2,2.5c.55,15.25,2.2,29.89,4,44.95,3.76,3.74,3.96,9.3,5.99,13.99.85,1.95,5.46,8.23,6.49,10.99.6,1.6-1.46,4.05,1.25,5.74.79.5,2.57-1.86,2.25,1-11.12-1.04-25.92,1.84-32.97,11.49,3.16-4.64,6.71-8.54,11.49-11.74-17.95-7.54-25.22-16.61-32.72-34.22-14.72,2.57-10.94-10.6-15.73-5.49-1.6.47-.32-6.17,1-7.24.13-2.09-.5-6.35,1-7.99,2.13-2.33.56,3.88,3.5,5.24.16.07,3.33.56,3.5.25,1.4-2.54-1.53-29.61,19.48-53.45-.15-2.15-4.71,1.08-5.49,1.75.42-2.03-2.07.36-2.5-1.25-.39-1.48,5.01-8.79,0-7.74,10.79-13.27,22.87-23.1,37.46-31.97Z" style="fill:#331933; stroke-width:0px;"/><path d="m210.19,53.95c-.33.75,1.37,3.03,2.5,6.24.13,2.57-2.98,1.77,0,9.99-4.12,8.67-.53,20.52-3,29.47,3.14,6.35.68,21.6,4.5,23.23-6.16,6.56.8,10.9,4.5,17.73l-9.24,1.75c-3.64,7.89,11.67,17.68,15.23,24.48h-.5c-12.5-5.37-16.54-9.54-24.48-19.98,1.59-.12-.66-3.23-1-5.74-.46-3.42-1.94-25.85-1.5-27.47.51-1.9,3.99-2.56,1.5-2.75,4.07-2.67,11.27-18.6,10.24-18.98-1.52,1.63-3.81,1.5-5.74,2-3.18-1.82-4.89,1.49-7.74.5-.81-9.29-2.72-15.72,2.25-24.48.92-.33,13.06-2.22,10.99-4.75-1.72-2.1-15.92,4.27-18.48,5.74-.24-.84.54-1.19.5-1.25-.25-.38-2.84.54-1.5-8.24,2.34-1.16,9.54-3.85,10.49-4.99.89,1.18,6.84-1.28,10.49-2.5Z" style="fill:#611d40; stroke-width:0px;"/><path d="m135.27,112.39c-3.25,2.77-13.5,19.59-14.98,23.73-3.28,9.11-2.74,18.28-2.5,27.72-2.94-1.37-1.36-7.57-3.5-5.24-1.5,1.64-.87,5.9-1,7.99-1.32,1.07-2.6,7.71-1,7.24-.18.19-.26,1.81-2.75,4.5-2.01-.22,2.08-9.51,2.25-10.74.51-3.65-.69-9.81-.5-13.99.21-4.66,3.21-13.26.5-13.74,5.44-13.73,11.66-24.99,20.98-36.46,5.01-1.05-.39,6.26,0,7.74.43,1.61,2.92-.78,2.5,1.25Z" style="fill:#281c2a; stroke-width:0px;"/><path d="m230.67,47.96c.71,1.88-2.32,1.51-2.5,2.75-.12.84,1.01,1.29,1,1.5-.17,2.62-.66,17.31,1.75,17.23.17,0,2.09-1.63,2.75-2-12.61,11.73-16.68,30.72-5.49,44.95-3.75-.55-4.27,2.8-4.5,3-2.29,2.08-9.08,7.05-9.49,7.49-3.82-1.63-1.36-16.88-4.5-23.23,2.47-8.95-1.12-20.8,3-29.47-2.98-8.22.13-7.42,0-9.99-1.12-3.22-2.83-5.5-2.5-6.24,6.81-2.27,13.41-4.6,20.48-5.99Z" style="fill:#802d4f; stroke-width:0px;"/><path d="m258.14,44.96l.5,12.49c-.17,0-.33,0-.5,0-1.33.04-.94.5-1,.5-11.82.95-14.68,4.53-23.48,9.49-.65.37-2.58,1.99-2.75,2-2.41.08-1.92-14.61-1.75-17.23.01-.21-1.12-.65-1-1.5.18-1.24,3.21-.86,2.5-2.75,9.1-1.8,18.27-2.61,27.47-3Z" style="fill:#953757; stroke-width:0px;"/><path d="m117.78,163.84c-.24-9.45-.78-18.61,2.5-27.72,1.49-4.13,11.73-20.96,14.98-23.73.79-.67,5.35-3.89,5.49-1.75-21.01,23.84-18.08,50.91-19.48,53.45-.17.31-3.34-.18-3.5-.25Z" style="fill:#1b1e2b; stroke-width:0px;"/><path d="m197.7,69.94c-4.96,8.75-3.06,15.19-2.25,24.48,2.85.99,4.56-2.32,7.74-.5-11.47,2.94-15.59,9.02-19.98,19.73.46.64,12.96-1.09,15.48-2.75,2.49.19-.98.84-1.5,2.75-.44,1.62,1.03,24.05,1.5,27.47.34,2.52,2.59,5.62,1,5.74-5.32-7,2.8,7.83,6.49,12.24,5.53,6.62,13.23,10.79,19.98,15.98-27.95-13.53-12.23,3.79-8.24,18.23-1.51-2.03-13.08-13.14-13.99-13.49-.29-.11-4.94-.41-6.24-.5-.08,0-.1-1.07-1.5-.25.52.71.95.71,1,.75.42.35,4.9,2.32,6.24,3.5,11.3,9.86,15.03,29.03,33.22,44.21-.1,2.29-13.12,5.52-15.48,5.74-1.17.19-.95-.48-1-.5.23-3.81-5.32-6.41-4.5-8.24.94-2.08,4.4,1.51,5.49-2.25.4-1.37-1.74-7.26-2.75-7.99-1.59-1.16-13.63-2.87-16.73-4-.8-1.57-3.66,2.56-4.75,2.5-1.52-.09-7.73-13.09-8.24-15.23-2.94-12.2,1.12-6.43,3.5-8.74,2.43-2.37-5.97-12.58-8.49-14.98,2.62.08-3.85-7.64,1-5.99,1.15,1.79,4.9,3.56,4.75,7.99,7.49-4.97-1.94-6.21-8.24-15.98-.55-.85-1.06-1.57-1.5-2.5-2.29-4.79-3.27-11.72-6.49-17.23,2.62-11.79-3.26-23.37-3.5-34.96-.15-7.51,3.49-13.57,4.99-20.98.94-1.91,2.38-1.65,2.5-1.75.04-.03.17.95.75.5,6.76-5.29,7.85-8.69,19.73-12.99Z" style="fill:#441931; stroke-width:0px;"/><path d="m221.18,222.28c-5.37-2.62-19.04-4.74-19.73-5.49-.24-.26-1.17-6.61.25-6.49,3.11,1.13,15.15,2.83,16.73,4,1.01.74,3.15,6.62,2.75,7.99Z" style="fill:#1b1e2b; stroke-width:0px;"/><path d="m197.7,69.94c-11.88,4.29-12.97,7.7-19.73,12.99-.58.45-.71-.53-.75-.5,3.6-4.58,7.89-8.55,12.99-11.49,2.56-1.47,16.76-7.84,18.48-5.74,2.08,2.52-10.07,4.41-10.99,4.75Z" style="fill:#c8b265; stroke-width:0px;"/><path d="m184.72,167.84c-1.61-2.51-2.6-5.45-4-7.99h.5c6.31,9.78,15.74,11.02,8.24,15.98.15-4.43-3.6-6.2-4.75-7.99Z" style="fill:#b19f58; stroke-width:0px;"/><path d="m189.21,61.45c-1.34,8.78,1.24,7.87,1.5,8.24.04.06-.74.41-.5,1.25-5.1,2.94-9.38,6.91-12.99,11.49-.12.09-1.56-.16-2.5,1.75-1.51,7.41-5.15,13.46-4.99,20.98.23,11.59,6.12,23.17,3.5,34.96,3.22,5.51,4.2,12.45,6.49,17.23-1.42.71.93,2.38,1,2.5,1.39,2.55,2.38,5.48,4,7.99-4.85-1.65,1.62,6.08-1,5.99-16.19-15.42-6.56,3.57,8.49,14.98-2.37,2.31-6.44-3.45-3.5,8.74.52,2.14,6.72,15.14,8.24,15.23,1.08.07,3.95-4.07,4.75-2.5-1.42-.12-.49,6.23-.25,6.49.69.75,14.36,2.87,19.73,5.49-1.1,3.75-4.55.16-5.49,2.25-.82,1.83,4.73,4.44,4.5,8.24-3.76-1.2-18.33-17.14-37.96-18.98.32-2.86-1.45-.5-2.25-1-2.71-1.7-.65-4.15-1.25-5.74-1.03-2.76-5.65-9.04-6.49-10.99-2.03-4.68-2.24-10.25-5.99-13.99-1.8-15.06-3.44-29.7-4-44.95l-2-2.5v-19.98c-5.97-9.82.64-10.07-2.5-16.98,5.92-1.84.18-4.59,4.99-7.49-.07-1.52-4.31-3.91-4-4.99.25-.87,11.53-10.64,11.49-13.74,7.71-4.68,11.34-6.18,18.98-9.99Z" style="fill:#441931; stroke-width:0px;"/><path d="m183.72,173.83c2.53,2.41,10.92,12.62,8.49,14.98-15.05-11.41-24.68-30.41-8.49-14.98Z" style="fill:#1b1e2b; stroke-width:0px;"/><path d="m165.49,92.91l.75.75c-7.61,8.51-9.67,6.47-.75-.75Z" style="fill:#c58a5c; stroke-width:0px;"/><path d="m181.22,159.85h-.5c-.06-.12-2.42-1.78-1-2.5.44.93.95,1.65,1.5,2.5Z" style="fill:#74475a; stroke-width:0px;"/><path d="m198.7,110.9c-2.53,1.65-15.02,3.39-15.48,2.75,4.39-10.71,8.51-16.79,19.98-19.73,1.93-.49,4.23-.37,5.74-2,1.03.39-6.17,16.31-10.24,18.98Z" style="fill:#b8915f; stroke-width:0px;"/><path d="m311.09,17.49c1.39.21,5.36,3.48,7.99,3-6.72,8.54-11.23,20.97-16.98,30.22,6.08,2.07,12.61,2.9,18.73,4.75,4.87,1.47,11.08,4.83,13.74,4.5,1.45,1.99,1.91,1.42,2,1.5,2.24,2.02,3.98,2.13,4.5,2.5,23.45,16.7,42.4,31.99,56.94,57.44l-1,1c-4.3-6.82-9.81-10.99-15.48-16.48-5.67-5.49-7.9-9.76-1.5.5,26.79,42.95,7.67,57.87,8.99,61.19,1.23,3.09,15.78-4.2-11.99,11.99-1.33,2.94-1.26,6.14-2,9.24-9.75,2.02-18.79,6.52-28.72,8.49,3.41-3.11,8.06-4.92,11.49-7.99,7.62-6.84-1.62.19-4,1.5-8.59,4.73-18.86,6.15-26.97,11.99l14.24-17.23q-9.37,7.87-18.73,15.73c-1.6.15,3.23-12.67,2-13.49q-7.24,7.99-14.49,15.98l4.75-12.74-9.49,5.49c4.72-8.06,10.18-15.57,16.48-22.48-18.19,3.29-12.3-3.87-15.23-4.75-1.41-.42-13.33,5.11-13.74,4.25,11.59-9.76,20.17-16.01,23.98-31.47-4.13,4.05-7.71,9.11-12.24,12.74-1.08.86-22.1,14.41-23.48,14.49-.64.04-.86-.07-.75-.75,4.15-3.56,29.83-26.22,30.97-27.97,1.19-1.84,2.56-5.7,2.5-7.99l-14.24,8.24c5.14-7.3,12.29-16.1,2.5-22.98-10.67-7.49-9.95,2.45-24.48,7.99-5.44,2.08-12.96,3.39-18.73,3.5,0-.25-.48-2.96-.5-4.99,11,1.93,24.66-5.88,30.47-15.23,14.36-23.1-4.46-51.76-29.97-51.7l-.5-12.49c2.24-.09,4.5.07,6.74,0-.52-13.1,21.36-19.99,20.48-5.99,4.45-1.21,10.6.16,14.49,2.5,2.64-5.63,1.6-19.89,9.74-17.23-3.65-3.82-6.04-7.9,1.5-6.74Z" style="fill:#c64872; stroke-width:0px;"/><path d="m301.85,85.92c12.13-.19,24.45,6.81,31.22,16.73,11.57,16.96-6.83-2.45-24.73,19.23,4.65-18.86,2.18-20.41-6.49-35.96Z" style="fill:#f1bb83; stroke-width:0px;"/><path d="m364.79,107.9c3.77-.5,37.82,34.1,10.49,58.94l-.75-.75c17.49-35.77-11.59-49.11-12.49-51.95-.91-2.88,1.69-6.1,2.75-6.24Z" style="fill:#1b1e2b; stroke-width:0px;"/><path d="m335.82,155.85c2.31,3.3-8.86,17.73-9.99,17.98-2.81.63-5.58-5.79-6.24-8.24q8.12-4.87,16.23-9.74Z" style="fill:#e7c37c; stroke-width:0px;"/><path d="m304.85,57.95c3.79-1.3,26.22,8.41,27.22,15.73,1.3,9.52-3.65-2.27-12.24-7.24-7.23-4.18-14.34-4.53-14.98-4.99-1.26-.92-.92-3.18,0-3.5Z" style="fill:#e7c37c; stroke-width:0px;"/><path d="m340.31,167.34c3.61,7.86-3.87,8.99-11.49,12.49q5.74-6.24,11.49-12.49Z" style="fill:#281c2a; stroke-width:0px;"/><path d="m348.8,82.42c.79-.08,9.49,10.69,6.99,11.49-.59.19-9.63-7.13-9.74-7.74-.22-1.2,2.52-3.72,2.75-3.75Z" style="fill:#f6d88c; stroke-width:0px;"/><path d="m381.52,105.9l-1.5.5c-6.4-10.26-4.18-5.99,1.5-.5Z" style="fill:#441931; stroke-width:0px;"/><path d="m340.81,127.38c1.47.1,1.62,2.01,1,2.5-1.69,1.31-3.95-2.7-1-2.5Z" style="fill:#e99db3; stroke-width:0px;"/><path d="m285.37,42.46c.64-.43,10.21,3.09,10.24,5.74-1.51-.55-9.31-1.02-9.74-1.25-.81-.42-.98-4.17-.5-4.5Z" style="fill:#281c2a; stroke-width:0px;"/><path d="m276.38,40.47l2.5,5.49-6.74-1.25,4.25-4.25Z" style="fill:#281c2a; stroke-width:0px;"/><path d="m299.35,45.46l.75.25c-3.56,6.19-5.54,3.9-.75-.25Z" style="fill:#441931; stroke-width:0px;"/><path d="m258.14,124.38c-.21-22.31.16-44.63,0-66.93.17,0,.33,0,.5,0,25.51-.06,44.33,28.6,29.97,51.7-5.81,9.35-19.47,17.16-30.47,15.23Z" style="fill:#f1bb83; stroke-width:0px;"/><path d="m258.14,57.45c.16,22.31-.21,44.63,0,66.93.02,2.03.5,4.74.5,4.99-.5,0-1,0-1.5,0,0-1.67,0-3.33,0-4.99.07-22.14-.05-44.29,0-66.43.06,0-.33-.46,1-.5Z" style="fill:#551b2c; stroke-width:0px;"/><path d="m257.14,57.95c-.05,22.14.07,44.29,0,66.43-10.48,1.61-22.44-3.68-28.97-11.99-11.19-14.24-7.12-33.22,5.49-44.95,8.8-4.96,11.66-8.54,23.48-9.49Z" style="fill:#d9a66c; stroke-width:0px;"/><path d="m228.17,112.39c6.53,8.31,18.49,13.6,28.97,11.99,0,1.67,0,3.33,0,4.99-12.31-.1-25.72-3.77-33.47-13.99.22-.2.74-3.54,4.5-3Z" style="fill:#953757; stroke-width:0px;"/><path d="m197.7,179.33l-.5.5s-.48-.04-1-.75c1.4-.82,1.42.24,1.5.25Z" style="fill:#8f5c61; stroke-width:0px;"/><path d="m231.17,332.17c-.82,2.26-1.48,4.85,0,6.99-2.77,12.72-2.19,37.89,0,51.45-.41-.03-.81.09-2,0-.84-5.81-3.03-11.31-4.5-16.98,1.04-.87.82-2.38,1-3.5,1.01-6.43.23-12.8.5-19.23.16-3.87,3.14-6.95.5-10.24-.23-.29.57-1.83-1-1.5,1.37-2.47,2.9-6.79,5.49-6.99Z" style="fill:#201d34; stroke-width:0px;"/><path d="m219.18,364.64c2.76,7.92,3.64,17.85,6.99,25.97-2.58-.27-4.94-.63-7.49-1-.66-7.78-.19-20.9-1-27.47,1.2.37,1.18,1.58,1.5,2.5Z" style="fill:#422836; stroke-width:0px;"/><path d="m235.17,432.57c-1.27,1.97.74,4.46-3,4-.22-4.12-2.4-30.88-1.5-32.22,2.04-3.03,3.83,9.98,4,11.49.54,4.89-.04,11.88.5,16.73Z" style="fill:#7c3c30; stroke-width:0px;"/><path d="m222.18,364.64c.82,2.99,1.72,5.99,2.5,8.99,1.46,5.67,3.66,11.17,4.5,16.98-.99-.08-2.02.1-3,0-3.35-8.13-4.23-18.05-6.99-25.97l1.5-1c.05.07,1.26.23,1.5,1Z" style="fill:#7f4d3d; stroke-width:0px;"/><path d="m225.68,370.14c-1.23-3.03-1.5-6.3-2-9.49-.57-8.75-.98-11.7,3-19.98,2.64,3.29-.34,6.37-.5,10.24-.27,6.44.51,12.8-.5,19.23Z" style="fill:#422836; stroke-width:0px;"/><path d="m236.17,325.18c-1.21,2.27-4.15,4.67-4.99,6.99-2.6.21-4.13,4.52-5.49,6.99-1.97-.31-2.84.52-3,.5l-2-4c6.73-1.43,10.16-2.49,4.5-2.25l-1.25-4.75c4.71,3.6,4.08,1.43,5.74.5,1.89-1.06,2.15-1.3,3.5-3,.1-.13-.21-1.26,2-2.5.24.56.67.98,1,1.5Z" style="fill:#915a48; stroke-width:0px;"/><path d="m246.66,299.21c-.32-1.28-1.48.27-2.5,1-2.62,1.89-4.03,1.8-3.5,5.99-.6.52-1.79.44-2,1.5-1.09.03-5.92.48-6.49-.25,1.66-1.96,2.96-4.21,4.5-6.24,2.09.03,10.35-5.83,11.49-4.25-.29.62-1.45,2.12-1.5,2.25Z" style="fill:#3a3038; stroke-width:0px;"/><path d="m233.17,326.18c-1.35,1.7-1.6,1.93-3.5,3-2.25.25-1.9-.46-2-.5,2.6-2.71-.27-5.31,2.5-7.49,4.85-3.83,2.59,2.67,3,4.99Z" style="fill:#9b6545; stroke-width:0px;"/><path d="m243.16,305.7c.59,2.74.15,2.18,0,3.5-.8-.07-.13-.74-1-1.5-1.54-1.35-.98-.08-3.5,0,.21-1.06,1.4-.97,2-1.5,2.7-2.36,1.51-5.12,2.5-.5Z" style="fill:#f1bb83; stroke-width:0px;"/><path d="m220.68,335.67l2,4c-.81-.08-1.7.11-2.5,0l-1.5-3.5c.52-.1,1.24-.34,2-.5Z" style="fill:#e18054; stroke-width:0px;"/><path d="m238.16,299.21c-.99,1.06-1.01,1.35-1.5,2-1.54,2.04-2.83,4.29-4.5,6.24.57.73,5.4.28,6.49.25,2.52-.08,1.96-1.35,3.5,0l-1.25,6.99c-.8-.63-2.11-6.89-3.75-3.75-.08.16,3.5,1.42-.5,1,3.79,3.7,1.63,16,1,5.99-5.76-5.23,1.56,2.63-3,.5-.49,1.68,3.23,2.29.5,5.24-2.21,1.24-1.9,2.37-2,2.5-.4-2.33,1.86-8.83-3-4.99-2.47.34-3.04-1.96-3.25-2-1.49-.25,1.1,2.86-4.75-.25.12,3.85,1.59,8.1,5.49,9.74.09.04-.25.75,2,.5-1.66.93-1.04,3.1-5.74-.5l1.25,4.75c5.67-.25,2.23.81-4.5,2.25-.76.16-1.47.4-2,.5-.15.03-2.58-.77-3,.25-.11.27,1.35,2.81,4.5,3.25.8.11,1.69-.08,2.5,0,.16.02,1.03-.81,3-.5-.2.37.32,1.56-.25,2-2.54-.69-4.61,1.93-10.24-.75-.32.79,3.49,7.37,4.75,7.74,2.21.65.48-5.34,2.25-.75.24.62.72,8.22,1.5,13.24.5,3.19.77,6.46,2,9.49-.18,1.12.04,2.62-1,3.5-.78-3.01-1.68-6-2.5-8.99-.41-1.48-.59-5.58-1-7.74-1.95-6.38-15.03-23.7-8.99-10.24l-1-.25c-.84,13.99-2.8,27.91-2.5,41.96.46.77,8.54,1.04,9.99,1.25,2.55.37,4.92.72,7.49,1,.98.1,2.01-.08,3,0,1.18.09,1.59-.03,2,0,.13,0-.66.32,2.5.5,2.74.15,6.73.2,8.74,1.5.24-2.17,5.53-2.09,5.24-.5-1,.17-4-.35-4.5.25-.37.45,1.28,10.95,1.5,11.49.2.51,1.39.12,1.5.25.3.38-1.72.41,2,2.5-.7-.56-3.09-.82-3.5-.25-.63.89-.09,23.55-2,16.73-.93-3.34-1.11-6.92-2-10.24-4.66-17.48-3.53,5.12-3,6.99.15.52,3.02,2.35,3.5,4.75.78,3.93-2.59,22.85-2.5,29.47-.05-.35-.73-1.04-1.5-6.99-.63-4.84-1.46-9.63-2-14.49-.54-4.85.04-11.85-.5-16.73-.17-1.51-1.96-14.52-4-11.49-.9,1.34,1.28,28.1,1.5,32.22.18,3.49.31,7,.5,10.49.08,1.49-.09,3.01,0,4.5h-.5c-.68-5.96-1.08-12-1.5-17.98-.55-7.84-.45-15.66-1.25-23.48-3.27,3.12-2.3,14.56-2.25,20.98.04,4.92.49,19.35,1,22.98-3.54-5.12-5.25-12.92-5.99-18.98-.68-5.56-.7-11.15-.5-16.73-18.09-23.93-3.08,7.24-2,16.73-.05.01.14,1.05-.25,1-1.34-.19-11.41-20.91-13.49-23.48.56,5.72,3.06,12.34,4.25,18.73q-6.62-10.11-13.24-20.23c-1.15-.23,2.13,13.72,1.75,15.73-5.37-11.24-13.3-22.52-17.98-34.47-2.73-6.98-4.27-14.58-6.49-21.73-.88-2.83-1.66-5.65-2.5-8.49,5.26-.18,12.7-11.42,17.73-8.49.48.28,1.16,2.39,1.25,2.5,1.06,6.81,3.31,26.11,12.74,21.48,5.17,4.8,3.26.35-1.25-6.49.13-2.9-2.12-2.71-2.5-3.75-.56-1.5,2.39-16.01-3.5-31.47-4.59-12.06-13.5-14.63-11.49-19.73,13.99,1.41,27.27-.16,38.71-8.99,2.79-2.16,12.74-13.03,14.24-15.98,5.08,2.63,2.16,4.35.5,7.99Z" style="fill:#1b1e2b; stroke-width:0px;"/><path d="m222.18,435.07c-.79.11-1.83-.16-2.5,0-1.08-9.49-16.09-40.66,2-16.73-.2,5.59-.18,11.18.5,16.73Z" style="fill:#281c2a; stroke-width:0px;"/><path d="m242.66,423.08l-1.5,1.5c-.48-2.4-3.35-4.22-3.5-4.75-.53-1.87-1.66-24.47,3-6.99.88,3.32,1.07,6.9,2,10.24Z" style="fill:#c58a5c; stroke-width:0px;"/><path d="m230.67,433.57c-2.21-.03.73-3.21-3.5-2.5-.05-6.42-1.03-17.86,2.25-20.98.8,7.82.7,15.64,1.25,23.48Z" style="fill:#7c3c30; stroke-width:0px;"/><path d="m237.16,447.06c-2.31-1.72-2.06-.03-4.5,0-.19-3.49-.32-6.99-.5-10.49,3.74.46,1.73-2.03,3-4,.54,4.86,1.37,9.65,2,14.49Z" style="fill:#9b6545; stroke-width:0px;"/><path d="m220.68,324.68c-2.65-.29-.44,5.38-.5,8.99-6.52-2.35-23.49-4.34-11.99-6.24.85-1.12-13.96-5.24-7.24-4.75.13,0-.65.66,2.5,1,.84.09-.3-3.35,5.49,3.5.27-10.81,2.75.85,3.5.5l2.5-9.49q-.12,3.87-.25,7.74c4.69-1.48,2.74-5.19,5.99-1.25Z" style="fill:#453335; stroke-width:0px;"/><path d="m222.18,364.64c-.24-.77-1.45-.92-1.5-1-.3-.43-.82-4.13-3.5-4.5-.96-5.63-2.98-7.99-4.99-12.49-6.04-13.46,7.04,3.86,8.99,10.24.41,2.16.59,6.26,1,7.74Z" style="fill:#5f403e; stroke-width:0px;"/><path d="m223.68,393.11c.25.09-1.25.68,4.5,1.75,1.65,1.73-3.97-1.03-2.5,4,.07.23,2.42,1.19,3.5,3.25-3.58.1-10.74-3.12-10.99-3.75-.14-.36-.34-6.01.25-6.24,3.07-1.19,4.96.9,5.24,1Z" style="fill:#281c2a; stroke-width:0px;"/><path d="m243.16,309.2c-.38,3.3-2.43,9.96-3.5,16.48-1.88-.25.08,2.87-3,2.5,1.45-2.47-.4-2.85-.5-3-.33-.52-.76-.94-1-1.5,2.73-2.95-.99-3.56-.5-5.24,4.55,2.13-2.77-5.73,3-.5.63,10,2.79-2.3-1-5.99,4,.42.42-.84.5-1,1.63-3.14,2.95,3.12,3.75,3.75l1.25-6.99c.87.76.19,1.42,1,1.5Z" style="fill:#af7867; stroke-width:0px;"/><path d="m226.68,340.67c-3.97,8.28-3.56,11.23-3,19.98-.78-5.01-1.26-12.62-1.5-13.24-1.76-4.59-.03,1.4-2.25.75-1.26-.37-5.07-6.96-4.75-7.74,5.63,2.68,7.7.06,10.24.75.57-.44.04-1.63.25-2,1.56-.33.76,1.21,1,1.5Z" style="fill:#915a48; stroke-width:0px;"/><path d="m230.17,321.19c-2.77,2.18.1,4.78-2.5,7.49-3.9-1.64-5.37-5.89-5.49-9.74,5.85,3.11,3.26,0,4.75.25.2.03.78,2.34,3.25,2Z" style="fill:#915a48; stroke-width:0px;"/><path d="m237.91,392.61c.54-.26,2.39-.06,2.75.75,1,2.28,1.01,28.93,0,10.49-3.98,1.39-4.23-10.52-2.75-11.24Z" style="fill:#c58a5c; stroke-width:0px;"/><path d="m229.17,402.1c-1.07-2.06-3.43-3.02-3.5-3.25-1.47-5.03,4.14-2.27,2.5-4-5.75-1.07-4.24-1.66-4.5-1.75,10.24-.21,4.63,1.95,9.49,8.74-.38.49-3.22.23-4,.25Z" style="fill:#583034; stroke-width:0px;"/><path d="m221.43,402.6c.43-.24,4.32,1.29,4.75,1.75,1.42,1.54,2.08,16.13-4.75-1.75Z" style="fill:#422836; stroke-width:0px;"/><path d="m220.68,324.68c2.1,2.53,4.73,10.56-.5,8.99.06-3.61-2.15-9.28.5-8.99Z" style="fill:#5f403e; stroke-width:0px;"/><path d="m202.95,384.12c3.86,6.35,1.02,16.33-.25,11.24-.46-1.85.15-8.67.25-11.24Z" style="fill:#e7c37c; stroke-width:0px;"/><path d="m231.42,393.61c4.99-2.07,3.65,5.51,4,8.99-.66.46-4.46-8.8-4-8.99Z" style="fill:#9b6545; stroke-width:0px;"/><path d="m218.68,336.17l1.5,3.5c-3.15-.44-4.61-2.98-4.5-3.25.41-1.02,2.85-.22,3-.25Z" style="fill:#6d4f45; stroke-width:0px;"/><path d="m228.42,317.19c.53-.32,2.89-.1,2.75,1.25-.24,2.37-4.63-.12-2.75-1.25Z" style="fill:#6d4f45; stroke-width:0px;"/><path d="m223.43,314.69c1.81.5,4.32,2.31,2.5,3.5l-2.5-3.5Z" style="fill:#5a4149; stroke-width:0px;"/><path d="m232.42,315.69c1.2-.36,2.06,4.04.5,3-.15-.1-.84-2.89-.5-3Z" style="fill:#92716b; stroke-width:0px;"/><path d="m257.14,129.38c-.06,16.9.04,33.8,0,50.7-20.88,4.66-20.9,30.31,1,33.47v15.98q-10.61,12.11-21.23,24.23c-4.72-7.29-9.37-14.5-15.73-20.48,2.36-.22,15.38-3.45,15.48-5.74-18.19-15.17-21.92-34.35-33.22-44.21-1.35-1.18-5.82-3.15-6.24-3.5l.5-.5c1.3.09,5.95.39,6.24.5.91.35,12.48,11.45,13.99,13.49-3.99-14.44-19.71-31.76,8.24-18.23-6.75-5.2-14.45-9.37-19.98-15.98-3.69-4.41-11.81-19.24-6.49-12.24,7.93,10.44,11.97,14.61,24.48,19.98.09.04.75,1.75,1.5.75-.55-.75-.97-.69-1-.75-3.57-6.79-18.87-16.58-15.23-24.48l9.24-1.75c-3.7-6.83-10.65-11.17-4.5-17.73.41-.44,7.2-5.41,9.49-7.49,7.75,10.22,21.16,13.89,33.47,13.99Z" style="fill:url(#e); stroke-width:0px;"/><path d="m224.18,166.84h.5c.03.06.45,0,1,.75-.75,1-1.4-.71-1.5-.75Z" style="fill:#7d5031; stroke-width:0px;"/><path d="m228.42,191.81c1.21,1.53,9.09,11.49,9.24,12.24.78,3.81-6.78,4.76-9.24-12.24Z" style="fill:#611d40; stroke-width:0px;"/><path d="m230.42,179.83q.5,6.49,1,12.99c-.96-4.23-1.68-8.66-1-12.99Z" style="fill:#583034; stroke-width:0px;"/><path d="m375.03,188.82c-.11.48.8,4.11-2.5,9.24-4.92,7.66-17.31,7.03-13.99,15.48.49,1.24,11.28,3.94,17.48,19.23h-2c-7.46-18.63-48.8-31.42-74.43-3.75-6.75,7.29-12.86,17.56-15.23,27.22-8.39-8.6-15.21-18.78-24.23-26.72v-15.98c22.16-5,21.8-31.19-1.5-33.97-.14-16.73.18-33.47,0-50.2,5.77-.1,13.29-1.42,18.73-3.5,14.53-5.54,13.8-15.48,24.48-7.99,9.8,6.87,2.64,15.68-2.5,22.98l14.24-8.24c.07,2.29-1.3,6.15-2.5,7.99-1.13,1.75-26.82,24.41-30.97,27.97-.11.68.11.79.75.75,1.38-.08,22.4-13.62,23.48-14.49,4.53-3.63,8.11-8.69,12.24-12.74-3.81,15.46-12.38,21.71-23.98,31.47.4.86,12.33-4.67,13.74-4.25,2.93.88-2.96,8.04,15.23,4.75-6.3,6.91-11.77,14.42-16.48,22.48l9.49-5.49-4.75,12.74q7.24-7.99,14.49-15.98c1.24.82-3.59,13.64-2,13.49q9.37-7.87,18.73-15.73l-14.24,17.23c8.11-5.83,18.38-7.25,26.97-11.99,2.38-1.31,11.62-8.34,4-1.5-3.42,3.07-8.08,4.88-11.49,7.99,9.93-1.98,18.97-6.47,28.72-8.49Z" style="fill:#f1bb83; stroke-width:0px;"/><path d="m298.1,222.28l-1-2.5c4.78-1.49,10-4.76,15.48-5.24-1.38-4.44-9.14-2.87-12.99-2.75,11.3-5.96,26.54-3.82,19.73,1.5-.91.71-11.12,3.5-21.23,8.99Z" style="fill:#ac3f60; stroke-width:0px;"/><path d="m297.1,219.79c-3.4,1.06-4.28,2.4-5.99-1.5,2.04-1.79,6.36-5.37,8.49-6.49,3.84-.13,11.6-1.7,12.99,2.75-5.48.48-10.7,3.75-15.48,5.24Z" style="fill:#802d4f; stroke-width:0px;"/><path d="m297.1,219.79l1,2.5c-2.33,1.27-11.87,8.97-13.74,8.49-.39-.1-2.42-2.71-2.25-3.75.11-.62,7.83-7.72,8.99-8.74,1.72,3.9,2.59,2.56,5.99,1.5Z" style="fill:#953757; stroke-width:0px;"/><path d="m239.66,325.68c-1.91,11.69-3.61,22.38,1,33.97-1.43.18-.78,1.78-4,.5-.82-2.65-2.2-5.31-3-7.99.02-9.5-.39-13.33,3-23.98,3.08.37,1.12-2.74,3-2.5Z" style="fill:#c58a5c; stroke-width:0px;"/><path d="m244.66,304.7c-.17.34.54,1.26-1.5,1-.99-4.62.2-1.86-2.5.5-.53-4.19.88-4.11,3.5-5.99.18,1.69-1.29,3.29.5,4.5Z" style="fill:#915a48; stroke-width:0px;"/><path d="m246.66,299.21c-.65,1.78-1.14,3.81-2,5.49-1.79-1.21-.32-2.8-.5-4.5,1.01-.73,2.18-2.28,2.5-1Z" style="fill:#af7867; stroke-width:0px;"/><path d="m220.68,363.64l-1.5,1c-.32-.92-.3-2.12-1.5-2.5-.12-1.01-.33-1.99-.5-3,2.68.37,3.2,4.07,3.5,4.5Z" style="fill:#5f403e; stroke-width:0px;"/><path d="m212.19,346.66c2.02,4.5,4.03,6.86,4.99,12.49.17,1.01.37,1.98.5,3,.81,6.57.34,19.69,1,27.47-1.45-.21-9.53-.48-9.99-1.25-.31-14.05,1.66-27.97,2.5-41.96l1,.25Z" style="fill:#281c2a; stroke-width:0px;"/><path d="m215.94,383.62h.5l.25.25-.25.25-.25.25-.25.25-.25-.25v-.5l.25-.25Z" style="fill:#281c2a; stroke-width:0px;"/></g></svg>