<?xml version="1.0" encoding="UTF-8"?><svg id="b" xmlns="http://www.w3.org/2000/svg" viewBox="0 0 508.06 508.01"><g id="c"><g id="d"><rect y="0" width="508.06" height="508.01" style="fill:#152d38; stroke-width:0px;"/><path d="m418.96.04q.25,83.79.5,167.58c-2.99,1.1-.97,7.92,1.49,8.92,2.85,1.16,2.8-1.2,3.47-1.49,4.88-2.11,4.41,3.09,1.98,6.94-1.86,2.16-.17,7.52,1.98,8.68v49.33c-4.27,2.65,2.54,1.9,3.72,2.48,2.97,1.46,1.25,2.76,6.69,3.47,11.56,1.51,7.46-4.35,7.44-4.96.85.02,2.04.21,2.48-.74.8-1.72-.06-32.83,0-37.93.17-13.46,2.88-27.25-.99-40.41-.01-3.06.01-6.12,0-9.17-.24-50.88,1.32-101.82.99-152.71,19.67.05,39.33-.03,59,0-.82,160.14,1.09,320.31,0,480.44-6.36-10.46-11.13-22.03-18.35-31.98-6.11-8.42-3.22-3.75-5.95-2.23,2.6-6.01-3.14-5.19-3.47-5.45-2.29-1.78-7.44-10.26-8.92-13.14-13.33-25.89-14.22-62.92-25.78-91.23-18.86-46.17-49.07-50.66-77.84-86.52,2.51-14.57,4.82-39.68,6.45-55.53l9.92-3.22c-.03-3.88.04-7.77,0-11.65,9.35-8.32,11.07-.01,9.67-12.89-2.48,2.62-7.23,8.03-9.67,8.43-.08-3.06-.99-6.36-.99-6.69-.24-12.9.32-25.78.5-38.67-1-2.69-1.57-8.75-4.46-7.69-.47-28-3.81-36.05-8.43-59.99,1.92-4.59.77-15.29,1.49-22.06.58-5.45,5.72-16.68,1.49-15.62,1.32-8.19,1.66-16.46-1.49-24.29,15.7.01,31.4-.02,47.1,0Z" style="fill:#152d38; stroke-width:0px;"/><path d="m20.33.04c9.11,17.93,17.19,40.27,37.68,47.85.25.65-1.68,11.96.5,13.63-9.5,30.71-5.8,56.97-3.47,88.25.46,6.22,2.23,12.86,2.48,19.09,1.58,39.3-22.23,56.06,1.98,97.43.05,1.52,1.37,4.13.99,10.16-.21,3.38-1.88,7.41-2.48,10.66-1.72,9.31-5.84,24.35-5.45,33.22-.19.43-1.46,1.15-1.49,1.24-1.79,5.49-3.6,18.85-5.45,25.29-6.87,23.81-11.62,24.89-21.82,38.92-6.7,9.22-9.27,16.12-6.45,28.01.97,4.07,3.21,6.9,5.95,9.17.19.79.26,1.67.5,2.48,3.52,12.01,28.09,53.53,35.2,68.17l.5-10.66c.24,2.02-.66,3.79.99,3.47.46,6.38,1.47,15.48,6.45,19.83.01.49.73.67.5,1.49-19.95-.04-40.06.59-59.99,0L7.93.04c4.12-.11,8.27.04,12.4,0Z" style="fill:#152d38; stroke-width:0px;"/><path d="m266.25.04c1.57,16.19-5.26,29.18,7.44,25.04-3.03-6.03-.81-17.28-1.49-25.04.33,0,.66,0,.99,0v22.31c.04.82,1.47,2.03,1.49,2.48.57,13.7.04,29.66,0,43.63-.03,11.65-.28,23.32.5,34.95-.66,2.72-1.35,5.45-1.98,8.18-.8,3.46-2.75,6.74-3.47,10.16-.89,4.27-.07,12.18-2.48,16.11,1.27-4.24.72-10.44,1.49-14.63.39-2.09,4.59-12.62,3.72-13.63-21.05.25-14.5,30.46-16.36,31.24-1.08-1.04-2.4-2.17-2.73-3.72-1.05-4.93.78-66.33,0-79.58,1.68-10.43,11.01-21.82,11.4-23.06.18-.58-.09-2.17,0-3.22,1.13-12.76-14.47-16.71-20.33-7.19-4.74,7.71-.14,17-.5,17.85-.18.44-5.24,2.01-5.7,2.73-.89,1.37-.86,28.39-.74,32.48,0,.17.93,1.9.99,3.22-5.62,1.39-1.97,7.44-1.98,7.93-.04,1.33-.97,5.09-.99,6.2-.24,10.46,1.23,21.02,0,31.48-5.6.78-3.95,7.07.99,4.96.03.6.98,1.02.99,1.24.14,2.42-.7,10.38-.5,12.89.47,5.74,4.58,38.77,5.95,41.65,3.14,6.6,12.22,6.34,17.35,2.23,6.01,3.31,21.56-4.02,25.29-9.17,5.61-7.77,2.14-16.35.99-24.54-2-14.33-5.45-28.41-5.95-42.89.13-.45,1.49-1.14,1.49-1.24,1.19-.95,1.83-.21,2.48.99.12,3.52,1.11,9.15,4.96,9.42,4.5.32,4.71-.08,5.45-3.47,2.26-10.3-.27-23.3,0-33.96.01-.45,1.48-1.86,1.49-1.98.62-27.32-.46-54.72,0-82.06,4.63,0,9.26,0,13.88,0-.1,52.56.48,105.11.5,157.67-1.81,1.08-9.19,18.98-9.42,20.08-.57,2.78-.94,39.61-.5,41.65.46,2.1,7.56,11.16,9.92,8.68-.06,41.01-.3,81.94,0,122.96-2.6.66-11.6,16.3-10.66,16.86l7.69.5c-1.23,2.26-3.84,2.37-6.45,2.97-.17.04-1.46-1.1-3.47-.25-1.99,5.38-9.59,14.07-7.44,14.63-1.24,1.59-1.99,3.92-3.97,4.96,1.07-2.97,1.84-7.01,1.49-9.92-.14-1.12-.37-2.53-.99-3.47,7.68-19.84,14.44-28.97,9.92-51.07-1.63-7.97-5.41-15.62-7.93-23.3-.22-.66.7-5.5-4.21-12.89-1.14.04-.81,10.23-.74,11.4-1.39-5.59.13-11.26,0-16.86-.04-1.55.2-3.75,0-4.96h.5c9.45,8.47,2.86,1.2,6.45-.5,1.34,3.91.77,7.58,6.45,8.18.5-.91-2.5-17.84-2.97-20.58-.99-5.69-1.9-11.35-2.48-17.11-20.75-21.66-21.1-33.05-16.36-61.98-7.49,1.91-7.23,1.89-8.92,8.68-5.62,10.83-6.78,26.81-2.97,38.18-.68,3.15-11.36-1.39-12.4,5.95-2.65-.09-4.33,4.14-4.46,6.45-4.37,7.45-10.37,17.07-9.92,25.78-2.92,1.9-2.25,12.39-6.94,14.87-14.21-16.99.86-28.57-1.98-43.38-1.2-6.27-9.6-12.82-11.9-23.3-4.37-19.89,1.44-37.44.5-39.17-.58-1.07-2.33,2.49-3.47-2.23.58.29,1.3.79,1.98.5,1.44-.62,4.07-11.43,3.97-13.39-.06-1.08-.35-1.99-.74-2.97-.56.79-1.66,1.4-1.74,1.49-5.14-33.93,11.71-57.97,7.44-89-2.94-21.37-14.09-26.86-1.49-76.11,14.54,0,29.09,0,43.63,0Z" style="fill:#152d38; stroke-width:0px;"/><path d="m357.98.04c.34,2.77,2,5.27,2.48,7.93-2.66,3.91-2.57,7.67-4.96,12.15-13.59,25.5-34.34,24.88-5.45,63.46,3.34,4.46,13.24,17.43,15.37,15.62,3.94,27.58,1.76,55.74-1.49,83.3-6.12,1.39-6.36,8.59-4.96,13.63-3.3,4.85-2.37,11.74-3.47,17.35-1.27,6.48-2.81,13.44-4.46,19.83-6.12,23.67-24.99,53.51-3.97,65.69.41,5.68,1.28,11.68,1.98,17.35-1.07.47-2.06,2.22-2.48,3.22-2.76,6.64-8.23,39.47-8.43,48.84-4.66,11.16-27.24,78.58-29.25,88.75-1.27-3.03-10.64,10.04-11.4,13.14-1.51,6.12,1.94,19.19,4.46,25.04-3.09-1.84-3.13,4.89-4.21,9.42-3.46,0-10.25-.34-11.16,2.97-.33,0-.66,0-.99,0-1.54-7.51.4-41.3-.5-43.88-.13-.38-.65-.25-.99-.25-.44-3.85-1.16-7.76-2.48-11.4,2.78-1.37,4.41-14.28,5.45-15.62,1.21-1.55,3.84-.34,3.97,0,.5,1.32-8.9,25.82-5.21,25.04,1.08-.23,9.11-17.26,10.16-19.58,2.28-5.05,19.66-48.4,20.33-51.07.79-3.14,4.29-18.07-.99-16.11L315.83.04c14.05,0,28.1-.01,42.14,0Z" style="fill:#152d38; stroke-width:0px;"/><path d="m433.83,412.56c-6.02.23-4.67,7.27-2.97,16.61,1.77,9.77,10.56,26.62,3.97,35.2-1.43,1.85-10.56,6.26-3.97,6.2-3.67,1.4-7.46,4.44-9.92,7.44.03-3.03-1.98-1.76-3.72-.5-5.13,3.72-12.5,23.29-13.14,30.24-5.12,0-10.25,0-15.37,0,18.86-22.05-20.91-33.41-14.87,0-19.01.02-38.01-.01-57.02,0-.03-.6-.57-.75-.99-.99.38-2.95-2.67-5.13-3.97-7.69-1.44-2.83-9.26-21.05-4.46-20.08,3.77,19.24,22.77,29.36,30.24,16.61,5.6-9.56-7.71-16.83-11.4-22.81-4.65-7.52-2.85-12.3-1.98-20.08,4.39,3.56,4.08-3.27,7.93-10.66,14.84-28.45,29.66-30.63,46.11-46.36,1.16,1.23,1.35,3.22-.5,3.72,1.98,1.66-1.49,4.78,4.46,9.92-9.92,13.11-30.37,33.78-16.86,50.57,1.94,2.41,9.1,6.33,9.67,6.2.16-.04-.18-1.23,2.23-2.48,10.68,4.71,19.17-4.44,21.82-14.13,2.76-10.11,1.3-55.56,1.49-70.65.07-5.45,1.83-12.53,1.49-22.81-.43-12.72-3.01-27.1-15.37-33.72-.63-1.36-11.23-14.56-13.88-18.1-1.18-1.57-1.91-1.15-1.98-1.24-.93-1.26-2.83-2.78-3.97-5.7-1.88-7.46-2.76-15.33-2.97-23.06-.04-1.38-.03-4,0-5.45,3.99,4.52,6.04,11.06,9.92,15.62,7.76,9.12,27.71,15.09,41.15,30.74,28.35,33.01,14.02,60.8,18.84,97.43Z" style="fill:#152d38; stroke-width:0px;"/><path d="m122.96,330.25c.03.93-1.9,3.23,1.98,7.69-2.48,4.11-.04,5.87,0,6.2.11,1.02.8,2.16.5,3.97-.24,33.97.19,67.92.5,101.89.63,3.95,1.44,3.52,1.49,3.72,2.6,10.17,14.03,23.89,22.06,30.74,1.69,1.44,7.82,7.58,7.19,1.24-.12-1.18-12.7-11.71-11.4-15.62,3.01,3.11,8.23,6.91,11.9,9.42-1.48,8.65,5.16,15.67,13.88,14.87q.5,6.69.99,13.39c-31.73-.02-63.46.06-95.2,0,.35-1.69-4.63-4.46-5.95-8.18-3.76-10.6,8.85-44.36,9.92-57.76,1.2-2.08,1.82-7.84,5.95-12.89q4.46-7.93,8.92-15.87l6.45-15.62c1.41-7.55,3.71-14.97,4.96-22.56,2.9,2.36,8.79-16.23,11.9-22.06-.01-3.07-6.3-7.63-9.42-8.18-.08-1.32-.33-3.11-.5-4.46,4.19-2.14,9.48-10.09,13.88-9.92Z" style="fill:#152d38; stroke-width:0px;"/><path d="m7.93.04l-.5,507.71c-2.47-.07-4.96.05-7.44,0V.04C2.64,0,5.29.11,7.93.04Z" style="fill:#7a634a; stroke-width:0px;"/><path d="m438.79.04c.5,50.57-.45,101.15-.5,151.72-.02,19.02.32,38,.5,57.02.1,10.91-.08,21.82,0,32.72-3.82-1.69-6.67-.01-7.93-2.97V.04c2.64,0,5.29,0,7.93,0Z" style="fill:#2e2c2f; stroke-width:0px;"/><path d="m445.24.04c-.29,50.91.17,101.8.5,152.71,0,.04.49-.15.5.5.1,15.86-.01,31.73,0,47.6,0,13.32-.57,26.87,0,40.16.03.61,4.13,6.47-7.44,4.96v-4.46c-.08-10.91.1-21.82,0-32.72l1.98-1.74c-.16-8.08,1.46-50.81.5-53.55-.06-.16-2.45-1.86-2.97-1.74.05-50.57.99-101.15.5-151.72,2.15,0,4.3,0,6.45,0Z" style="fill:#5b5a5c; stroke-width:0px;"/><path d="m37.68.04c10.5,19.49,36.8,20.91,46.61,0,2.15,0,4.3,0,6.45,0-.11,7.09-4.63,16.8-4.96,19.83-4.06,7.72-9.94,19.07-18.84,21.82C45.7,48.24,30.64,17.31,29.25.04c2.81-.02,5.62.01,8.43,0Z" style="fill:#cf4756; stroke-width:0px;"/><path d="m313.35.04v354.75q-.5,10.78-.99,21.57c-1.06-.25-3.73-2.95-3.97-3.47-1.09-2.46.02-3.3,0-3.47,3.64,2.7,2.54-9.58,2.48-18.35-.3-41.02-.06-81.95,0-122.96.04-23.46,0-46.94,0-70.41-.02-52.56-.59-105.11-.5-157.67.99,0,1.98,0,2.97,0Z" style="fill:#e1c362; stroke-width:0px;"/><path d="m453.17,483.46c15.26-.46,37.93,9.01,43.14,24.29-4.62.1-9.26-.04-13.88,0-.83-2.04-7.72-5.95-7.93-6.69-.77-2.65,5.44-1.41,3.47-5.21-4.65-8.97-32.46-12.17-33.22-8.92-.5,2.14,5.79,2.95,8.68,4.46,7.78,4.08,17.88,10.6,24.54,16.36-16.53.09-33.06-.03-49.58,0-2.19-16.31,10.11-23.85,24.79-24.29Z" style="fill:#152d38; stroke-width:0px;"/><path d="m315.83.04l-.5,374.83c-1.68.62-.95,1.96-2.97,1.49q.5-10.78.99-21.57V.04c.83,0,1.65,0,2.48,0Z" style="fill:#c0a14c; stroke-width:0px;"/><path d="m424.41.04v175.02c-.67.29-.62,2.65-3.47,1.49.95-2.54.31-7.16-1.49-8.92q-.25-83.79-.5-167.58c1.82,0,3.64,0,5.45,0Z" style="fill:#972945; stroke-width:0px;"/><path d="m428.88.04v180.72l-2.48,1.24c2.43-3.85,2.9-9.05-1.98-6.94V.04c1.49,0,2.97,0,4.46,0Z" style="fill:#0a393a; stroke-width:0px;"/><path d="m294.02.04c-.13,27.67-1.07,55.38-.5,83.05,0,.19.99.8.99.99.25,11.31-.6,22.68.5,33.96-.75,3.39-.96,3.79-5.45,3.47.01-.57-.94-.98-.99-1.24-1.2-6.65.18-101.92-.5-120.23,1.98,0,3.97,0,5.95,0Z" style="fill:#574e53; stroke-width:0px;"/><path d="m430.86.04v238.49c.07,2.15-2.12,1.27-2.48,1.49v-49.33c-2.16-1.15-3.84-6.52-1.98-8.68l2.48-1.24V.04c.66,0,1.32,0,1.98,0Z" style="fill:#3ca399; stroke-width:0px;"/><path d="m84.29.04C74.49,20.96,48.18,19.53,37.68.04c15.53-.06,31.07.02,46.61,0Z" style="fill:#107a79; stroke-width:0px;"/><path d="m288.07.04c.67,18.31-.7,113.58.5,120.23.05.26,1,.67.99,1.24-3.84-.27-4.84-5.9-4.96-9.42,0-.08,1-.99.99-1.24-.59-26.61.35-53.41-3.47-79.83h-.99c-.04,4.05.05,8.1,0,12.15l-.5-17.85c7.06-1.46,1.77-19.08,3.47-25.29,1.32,0,2.64,0,3.97,0Z" style="fill:#152d38; stroke-width:0px;"/><path d="m448.71.04c.33,50.89-1.23,101.83-.99,152.71l-1.49.5c0-.65-.5-.46-.5-.5V.04c.99,0,1.98,0,2.97,0Z" style="fill:#1c9899; stroke-width:0px;"/><path d="m388.72,507.75c-4.96,0-9.92,0-14.87,0-6.03-33.41,33.73-22.05,14.87,0Z" style="fill:#be3d54; stroke-width:0px;"/><path d="m29.25.04c1.39,17.27,16.45,48.2,37.68,41.65-4.01,6-6.31,13-8.43,19.83-2.18-1.68-.25-12.99-.5-13.63C37.51,40.32,29.44,17.97,20.33.04c2.97-.03,5.95.02,8.92,0Z" style="fill:#14212b; stroke-width:0px;"/><path d="m296.5.04c-.46,27.33.62,54.73,0,82.06,0,.12-1.48,1.54-1.49,1.98-.27,10.67,2.26,23.66,0,33.96-1.09-11.29-.25-22.66-.5-33.96,0-.19-.99-.8-.99-.99-.57-27.67.36-55.38.5-83.05.83,0,1.65,0,2.48,0Z" style="fill:#1c9899; stroke-width:0px;"/><path d="m254.35,497.34c.46,5.07,4.98,7.56,8.43,10.41-9.59,0-19.17,0-28.76,0,.46-12.96,9.57-14.25,20.33-10.41Z" style="fill:#152d38; stroke-width:0px;"/><path d="m148.74.04v13.39c-3.62,2.66-8.34,4.22-11.9,6.94q.25-10.16.5-20.33c3.8,0,7.6,0,11.4,0Z" style="fill:#152d38; stroke-width:0px;"/><path d="m420.94,478c-6.15,7.51-9.75,20.16-9.92,29.75-2.31,0-4.63,0-6.94,0,.64-6.96,8.01-26.52,13.14-30.24,1.74-1.26,3.75-2.54,3.72.5Z" style="fill:#152d38; stroke-width:0px;"/><path d="m272.2.04c.67,7.76-1.54,19.01,1.49,25.04-12.7,4.15-5.86-8.85-7.44-25.04,1.98,0,3.97,0,5.95,0Z" style="fill:#161923; stroke-width:0px;"/><path d="m222.12,507.75c-4.3,0-8.59,0-12.89,0,1.76-3.51,4.56-6.51,6.45-9.92,8.38-.38,8.65,2.46,6.45,9.92Z" style="fill:#67574b; stroke-width:0px;"/><path d="m445.73,152.75c-.33-50.91-.79-101.8-.5-152.71.17,0,.33,0,.5,0v152.71Z" style="fill:#295a60; stroke-width:0px;"/><path d="m383.76,175.06c.04,1.49-.02,2.98,0,4.46.04,3.88-.03,7.77,0,11.65l-9.92,3.22c2.46-24.04,5.36-48.17,4.96-72.39,2.89-1.06,3.46,4.99,4.46,7.69-.17,12.89-.73,25.77-.5,38.67,0,.34.92,3.63.99,6.69Z" style="fill:#0a393a; stroke-width:0px;"/><path d="m489.37,387.77c3.92,7.3,1.96,14.96,4.46,15.37,1.55,5.13,5.4,9.09,8.43,13.39-1.38,1.19-.76,1.21-2.97,1.98-18.21,6.34-20.07-22.4-16.36-33.72.1-.02.27-1.33,1.74-.99,1.42.33,3.24,3.23,4.71,3.97Z" style="fill:#c0a14c; stroke-width:0px;"/><path d="m492.34,266.29c1.4,39.65-1.05,79.57,0,119.24,2.71-.07.49,6.96,1.98,11.16,0,.5.01.99,0,1.49-.07,2.48-2.14-.51-.5,4.96-2.5-.41-.54-8.07-4.46-15.37q.25-72.39.5-144.78c.66,3.01.1,5.39.5,8.18.03.2,1.42.45,1.49.99.57,4.61.33,9.44.5,14.13Z" style="fill:#b1a480; stroke-width:0px;"/><path d="m471.02,142.34c.73.09,2.44-3.5,2.48-3.72.95-5.45-.89-37.62.5-48.84,1.38-.08,3.53.77,3.97,2.23,1.05,3.49-1.79,63.1-.5,72.88-8.86,6.16-6.29-8.16-6.45-22.56Z" style="fill:#c0a14c; stroke-width:0px;"/><path d="m477.47,314.39c0,12.35-.96,52.57.5,60.98-4.9.09-2.39-3.11-4.96-1.98-2-10.19-.97-46.15-.99-59.99,1.17-2.19,1.83,1.54,5.45.99Z" style="fill:#7e796e; stroke-width:0px;"/><path d="m494.32,396.69c-1.49-4.2.73-11.23-1.98-11.16-1.05-39.68,1.4-79.59,0-119.24.31.03.96-.58.99-.74.76-3.43-.37-20.64-.5-26.03.38,1.49,1.36,4.08,1.49,5.21.87,7.55.34,133.37,0,151.97Z" style="fill:#958a6c; stroke-width:0px;"/><path d="m408.3,195.39c6.69,2.7,9.19,10.32,8.68,17.11-.16,2.14-8.99,27.55-9.92,28.76-4.24,5.54,1.11-15.82,1.49-21.32.61-9-1.43-24.17-.25-24.54Z" style="fill:#3ca399; stroke-width:0px;"/><path d="m477.47,274.72c0,.08.99.98.99,1.24.08,12.35,0,24.82,0,37.19,0,.21-.99.66-.99,1.24-3.62.55-4.28-3.18-5.45-.99-.02-12.45-.59-25.02-.5-37.43,0-.36.99-.68.99-.74,1.91-.66,2.94-1.35,4.96-.5Z" style="fill:#524a43; stroke-width:0px;"/><path d="m489.12,82.84c.19-.14,4.47-.09,4.71.25-.82,5.28,1.38,45.42-.74,46.36-.37.17-3.99.06-4.21-.25,1.18-5.46-1.64-45.02.25-46.36Z" style="fill:#b1a480; stroke-width:0px;"/><path d="m482.92,384.79c-3.71,11.31-1.85,40.06,16.36,33.72-1.9,3.53-4.18,4.98-8.18,4.46-12.1-1.57-16.36-15.62-15.12-26.03.43-3.66,2.31-7.22,3.47-10.66.16-.48,1.03-1.56,1.49-1.98,1.25-.27,1.68.55,1.98.5Z" style="fill:#161923; stroke-width:0px;"/><path d="m477.47,274.72c-2.01-.85-3.05-.17-4.96.5.12-14.67.49-29.48-.74-44.13,9.85,4.43,5.58,29.24,5.7,43.63Z" style="fill:#7e796e; stroke-width:0px;"/><path d="m502.26,416.52c-3.03-4.29-6.88-8.26-8.43-13.39-1.65-5.47.43-2.48.5-4.96,9.82-1.59,7.26,4.82,10.91,8.18,1.15,5.08.85,6.88-2.97,10.16Z" style="fill:#cdd4ba; stroke-width:0px;"/><path d="m447.72,152.75c.01,3.06-.01,6.12,0,9.17,3.87,13.16,1.16,26.95.99,40.41l-2.48-1.49c-.01-15.86.1-31.73,0-47.6l1.49-.5Z" style="fill:#0b5958; stroke-width:0px;"/><path d="m471.02,142.34c-.18-17.1.13-34.21,0-51.32.34-.56,2.65-1.22,2.97-1.24-1.39,11.22.45,43.39-.5,48.84-.04.22-1.75,3.81-2.48,3.72Z" style="fill:#e1c362; stroke-width:0px;"/><path d="m426.4,289.1c-2.83-2.51-5.32-5.21-7.93-7.93v-.5c.35-5.14,1.59-12.99.5-17.85,5.1.8,7.96,22.65,7.44,26.28Z" style="fill:#0b5958; stroke-width:0px;"/><path d="m447.72,307.45c.41,6.48-.89,13.03.5,19.34-2.81,1.18-4.49.29-6.45-1.74.89-7.27-3.25-20.7,5.95-17.6Z" style="fill:#62cdbe; stroke-width:0px;"/><path d="m492.84,239.52c.13,5.39,1.25,22.6.5,26.03-.04.16-.68.77-.99.74-.17-4.69.07-9.52-.5-14.13-.07-.54-1.46-.8-1.49-.99-.4-2.79.16-5.17-.5-8.18-1.45-6.64-1.54-9.21-5.95-14.87-.79-1.02-1.64-2-2.48-2.97.87.12,2.38-2.41,2.48-2.97,3.99,4.62,7.43,11.41,8.92,17.35Z" style="fill:#b1a480; stroke-width:0px;"/><path d="m484.41,214.23q1.49-5.95,2.97-11.9c13.47-.99,8.61,21.46-2.97,11.9Z" style="fill:#67574b; stroke-width:0px;"/><path d="m370.37,62.02c-.92-4.8-2.21-9.54-2.97-14.38,1.3-7.35,4.14-14.49,5.45-21.82.18-1.01.45-1.19.5-1.49,4.23-1.07-.91,10.17-1.49,15.62-.71,6.77.43,17.48-1.49,22.06Z" style="fill:#153d45; stroke-width:0px;"/><path d="m448.71,202.33c-.06,5.1.8,36.21,0,37.93-.44.95-1.63.77-2.48.74-.57-13.29,0-26.84,0-40.16l2.48,1.49Z" style="fill:#1e96a4; stroke-width:0px;"/><path d="m394.67,228.61c-.03.49.02.99,0,1.49h-1.49c-.26-3.31-.74-32.02.74-32.72,6.1-2.88.92,28.4.74,31.24Z" style="fill:#02b2b9; stroke-width:0px;"/><path d="m488.62,57.06c6.02-1.63,11.52,7.92,6.94,10.41-7,3.81-12.84-8.82-6.94-10.41Z" style="fill:#3abeb3; stroke-width:0px;"/><path d="m483.91,221.67c-1.16-.71-8.51-10.71-9.92-7.19-1.96,4.92,5.13,7.97,7.44,10.66.84.98,1.69,1.96,2.48,2.97-20.6-2.57-13.31-14.65-10.66-15.37,3.32-.9,10.57,6.23,10.66,8.92Z" style="fill:#152d38; stroke-width:0px;"/><path d="m500.52,419.99c3.26.2,4.3,18.96-1.98,16.36-1.41-.59-3.3-16.69,1.98-16.36Z" style="fill:#cf4756; stroke-width:0px;"/><path d="m462.84,104.66c5.55-1.06,5.28,11.32.99,11.4-4.64.09-4.98-10.64-.99-11.4Z" style="fill:#eb6277; stroke-width:0px;"/><path d="m385,246.46c5.88-.58,4.96,13.12-1.49,9.92-3.78-1.88-1.86-9.58,1.49-9.92Z" style="fill:#eb6277; stroke-width:0px;"/><path d="m483.91,221.67c0,.16.03.35,0,.5-.1.56-1.61,3.09-2.48,2.97-2.3-2.69-9.4-5.74-7.44-10.66,1.41-3.52,8.76,6.47,9.92,7.19Z" style="fill:#f6d851; stroke-width:0px;"/><path d="m467.05,154.74l2.97-.5c.29,4.22-.93,9.98,1.49,12.15l-.74,1.24c-7.11-1.9-5.01-6.35-4.71-12.64.02-.41.99-.2.99-.25Z" style="fill:#152d38; stroke-width:0px;"/><path d="m383.76,179.53c-.02-1.49.04-2.98,0-4.46,2.44-.39,7.19-5.81,9.67-8.43,1.41,12.88-.32,4.57-9.67,12.89Z" style="fill:#152d38; stroke-width:0px;"/><path d="m403.59,240.51c-.96-1.19-1.99-2.3-2.97-3.47-1.45-1.73-3.95-4.8-5.95-5.45,0-.49-.02-.99,0-1.49.02-.49-.03-.99,0-1.49,3.53-.89,4.64,2.38,6.69,4.46,1.23,1.25,6.19,1.13,2.23,7.44Z" style="fill:#152d38; stroke-width:0px;"/><path d="m477.96,375.37c.89,5.14,3.41,7.37,2.97,8.92-.46.42-1.32,1.5-1.49,1.98-2.52.48-5.63-8.73-6.45-12.89,2.57-1.13.06,2.08,4.96,1.98Z" style="fill:#7e796e; stroke-width:0px;"/><path d="m448.21,326.78c-1.38-6.31-.08-12.86-.5-19.34.9.3,1.86.35,2.48,1.24-.89,4.33,2.04,16.41-1.98,18.1Z" style="fill:#62cdbe; stroke-width:0px;"/><path d="m484.41,214.23c-5.7-4.7-2.44-11.5,2.97-11.9q-1.49,5.95-2.97,11.9Z" style="fill:#7a634a; stroke-width:0px;"/><path d="m438.79,241.5v4.46c-5.44-.71-3.73-2.01-6.69-3.47-1.18-.58-7.99.17-3.72-2.48.36-.22,2.55.66,2.48-1.49,1.26,2.96,4.12,1.29,7.93,2.97Z" style="fill:#161923; stroke-width:0px;"/><path d="m455.9,282.16c2.02,1.44,13.81,7.82,14.38,8.43,4.8,5.17-13-2.38-14.38-8.43Z" style="fill:#0b5958; stroke-width:0px;"/><path d="m498.79,149.28l.5,11.4c-3.47.33-3.16-8.28-2.48-10.66.26-.9,1.4-.63,1.98-.74Z" style="fill:#62cdbe; stroke-width:0px;"/><path d="m500.77,324.8c-.89-1.84-.83-4.02.5-5.45.33.01,4.96-.99,4.46,3.22-.4,3.36-4.66,2.16-4.96,2.23Z" style="fill:#3abeb3; stroke-width:0px;"/><path d="m480.19,45.16c3.72-.64,4.17,4.57,1.98,5.45-4.41,1.78-5.83-4.79-1.98-5.45Z" style="fill:#3c2d37; stroke-width:0px;"/><path d="m470.03,154.24l-2.97.5c.02-.38-3.73-5.48.25-6.45,3.59-.87,2.6,4.05,2.73,5.95Z" style="fill:#972945; stroke-width:0px;"/><path d="m501.27,319.34c-1.33,1.44-1.38,3.62-.5,5.45-2.34.54-3.18,1.9-4.46,1.24,2.25-4.81-3.29-7,4.96-6.69Z" style="fill:#152d38; stroke-width:0px;"/><path d="m499.28,160.69l-.5-11.4c3.54-.71,3.79,11.09.5,11.4Z" style="fill:#22ab94; stroke-width:0px;"/><path d="m433.59,304.47c3.93-1.49,5.61,4.28,2.48,4.96-2.62.57-5.34-3.87-2.48-4.96Z" style="fill:#107a79; stroke-width:0px;"/><path d="m420.94,176.55c-2.45-1-4.47-7.83-1.49-8.92,1.8,1.76,2.44,6.38,1.49,8.92Z" style="fill:#cf4756; stroke-width:0px;"/><path d="m438.05,274.72c2.8-.57,4.51,3.5,1.98,4.46-3.66,1.39-5.32-3.79-1.98-4.46Z" style="fill:#3abeb3; stroke-width:0px;"/><path d="m477.22,188.95c3.02-3.5,2.97,10.74-.25,6.2-.18-.25-.08-5.81.25-6.2Z" style="fill:#62cdbe; stroke-width:0px;"/><path d="m455.9,267.78c3.25-.53,3.9,5.55,0,4.46-1.54-.43-2.44-4.06,0-4.46Z" style="fill:#0b5958; stroke-width:0px;"/><path d="m496.31,187.95c-3.22,3.3-1.43,5.22,1.49,1.49.44,1.09.04,3.06-1.24,3.47-4.03,1.29-4.7-5.77-.25-4.96Z" style="fill:#7e2341; stroke-width:0px;"/><path d="m503.99,352.56c2.32.56,1.12,5.92-1.98,3.47-2.04-1.61,1.08-3.69,1.98-3.47Z" style="fill:#1e96a4; stroke-width:0px;"/><path d="m469.29,79.87c2.26-.47,2.3,2.82.5,2.97-1.75.15-2.17-2.63-.5-2.97Z" style="fill:#972945; stroke-width:0px;"/><path d="m497.79,189.44c-2.92,3.73-4.71,1.81-1.49-1.49.59.11,1.26.93,1.49,1.49Z" style="fill:#aa365c; stroke-width:0px;"/><path d="m42.64,183.99c.06,3.66.49,2.82.5,2.97.25,6.13,1.97,17.85-7.93,10.91.12-9.46-6-14.72,2.48-25.29,7.27.35,3.13,6.42,4.96,11.4Z" style="fill:#9f4548; stroke-width:0px;"/><path d="m35.7,229.11h-2.97c1.68-17.81,16.8-30.22,10.41-42.14,0-.15-.43.69-.5-2.97-.03-1.9.02-3.8,0-5.7.73-1.4,6.54,10.76,5.95,17.35-.57,6.4-11.73,22.63-12.89,33.47Z" style="fill:#0b5958; stroke-width:0px;"/><path d="m30.24,385.78c-10.61,8.51-9.78,25.23-6.94,37.19-2.74-2.27-4.98-5.1-5.95-9.17-2.83-11.89-.25-18.8,6.45-28.01h6.45Z" style="fill:#152d38; stroke-width:0px;"/><path d="m39.42,147.3c6.66-1.72,7.02,23.27-.5,20.82-2.84-.93-2.71-20,.5-20.82Z" style="fill:#62cdbe; stroke-width:0px;"/><path d="m37.68,172.58c-8.48,10.56-2.35,15.82-2.48,25.29-8.63-6.05-7.26-25.76,2.48-25.29Z" style="fill:#b95351; stroke-width:0px;"/><path d="m40.9,122.51c3.31-.9,3.54,17.13,0,15.87-1.82-.65-1.96-15.33,0-15.87Z" style="fill:#8f4958; stroke-width:0px;"/><path d="m45.86,79.87c.83.03,1.61,1.22,1.74,1.74,1.56,6.46-9.78,7.6-5.95.99.13-.22,3.96-2.74,4.21-2.73Z" style="fill:#be3d54; stroke-width:0px;"/><path d="m23.55,321.82c3.62-.7,4.62,5.98.99,6.45-4.22.54-3.84-5.89-.99-6.45Z" style="fill:#3d2033; stroke-width:0px;"/><path d="m33.22,278.69h-.5l-2.48-.5c.35-2.65-.71-7.43.74-7.93,4.16-1.43,2.44,6.29,2.23,8.43Z" style="fill:#f9fdfd; stroke-width:0px;"/><path d="m25.29,336.2c-3.55,1.59-.64,5.1.99,7.44-2.51,7.54-7.47-4.76-1.49-9.17.29.63.44,1.63.5,1.74Z" style="fill:#84e0d5; stroke-width:0px;"/><path d="m35.7,229.11c-.05.49,1.3,9.03.25,9.92-2.36,1.99-.77-5.69-3.72-7.69l.5-2.23h2.97Z" style="fill:#13cbd3; stroke-width:0px;"/><path d="m20.58,66.48c4.07-1.38,1.89,15.2-.74,9.17-.18-.42-.33-8.81.74-9.17Z" style="fill:#9f4548; stroke-width:0px;"/><path d="m42.39,55.08c1.26-.13,9.23,7.93,3.97,7.93-.54,0-8-7.52-3.97-7.93Z" style="fill:#cf4756; stroke-width:0px;"/><path d="m26.03,129.45c.42,0,1.44,1.79,1.24,2.23-.18.41-6.78,4.56-7.19,4.21-2.35-1.96,4.82-6.42,5.95-6.45Z" style="fill:#cf4756; stroke-width:0px;"/><path d="m26.77,169.11c-.48-.43-1.36-.69-1.49-1.49,2.34-.53-.67-5.45,2.48-2.23.96.98,5.56,8.67,2.23,8.18-.53-.08-1-2.47-3.22-4.46Z" style="fill:#0a393a; stroke-width:0px;"/><path d="m24.29,167.63c-1.31.89.56,4.09,2.97,3.47,3.41,8.31-10.64-4.63-4.71-4.96.64-.04,1.62,1.47,1.74,1.49Z" style="fill:#be3d54; stroke-width:0px;"/><path d="m30.99,155.73c3.09-.6,1.84,5.69.5,5.95-2.28.44-2.96-5.47-.5-5.95Z" style="fill:#84e0d5; stroke-width:0px;"/><path d="m28.51,91.77c.39,0,5.98,5.17,1.98,5.45-1.66.12-5.46-5.46-1.98-5.45Z" style="fill:#be3d54; stroke-width:0px;"/><path d="m26.28,343.64c-1.64-2.34-4.54-5.85-.99-7.44,1.33,2.58,1.94,4.59.99,7.44Z" style="fill:#ebfefd; stroke-width:0px;"/><path d="m29.25,280.67c1.43,2.6,4.82.63,3.47-1.98h.5c-.01.14.91.46.5,2.73-.79,4.36-5.05,4.31-4.46-.74Z" style="fill:#3d2033; stroke-width:0px;"/><path d="m37.93,313.4c2.79.16,1.67,5.47-1.49,3.97-2.12-1.01.42-4.03,1.49-3.97Z" style="fill:#13cbd3; stroke-width:0px;"/><path d="m32.72,278.69c1.35,2.62-2.04,4.58-3.47,1.98.02-.13.71-.36.99-2.48l2.48.5Z" style="fill:#7e2341; stroke-width:0px;"/><path d="m25.29,167.63c.13.8,1.01,1.06,1.49,1.49.1.55.31,1.52.5,1.98-2.41.61-4.28-2.58-2.97-3.47.29.04.73.06.99,0Z" style="fill:#fdc5ca; stroke-width:0px;"/><path d="m237,272.74c.41,7.84,7.02,20.03,15.37,21.32,3.33.51,2.41-4.13,15.37,7.93.72.67,1.1,2.12,2.48,1.98.72,3.34,2.7,8.44,3.47,12.15,3.66,19.62,4.16,46.18,1.49,65.94-3.47,5.9-5.63,12.39-8.43,18.59.03-.16-.03-.34,0-.5.41-2.19,1.07-4.26,1.49-6.45,12.42-24.88-1.05-31.24-2.48-43.63-.04-2.31.06-4.63,0-6.94q4.21,6.82,8.43,13.63c-.23-9.03-3.12-17.86-3.97-26.77-1.29-13.63,2.79-10.16-4.46-3.22-.74-6.32-3.06-16.52-9.92-19.34,1.6-3.83.28-3.72,0-4.46-.89-2.33-3.1-4.57-4.71-6.45-8.68.49-15.6-2.39-21.07-8.92,4.69-2.48,4.03-12.97,6.94-14.87Z" style="fill:#152d38; stroke-width:0px;"/><path d="m294.51,266.79c-1.08,1.67-5.06,4.91-6.45,5.45-.19.07-.65-.04-.99,0,.17-1.81.65-17.2.5-18.1-.03-.18-.72-.95-.99-1.24-1.29-1.35-3.2-1.11-4.46,0-2.34,2.06-1.63,8.84-1.49,12.4l-1.49.99c-.32-1.41-.76-2.72-1.49-3.97-1.79-4.12-5.22-11-6.45-14.87-4.11-13-7.23-33.47-5.45-46.85h.99c.17-1.26-.25-3.22,0-4.21,1.69-6.79,1.43-6.77,8.92-8.68-4.74,28.92-4.39,40.31,16.36,61.98.58,5.75,1.49,11.41,2.48,17.11Z" style="fill:#0b5958; stroke-width:0px;"/><path d="m261.79,281.66q-5.21,5.58-10.41,11.16l.99,1.24c-8.35-1.29-14.96-13.48-15.37-21.32-.45-8.71,5.55-18.34,9.92-25.78-.39,6.87,8,22.5,13.39,27.52.65,2.38.85,4.8,1.49,7.19Z" style="fill:#67574b; stroke-width:0px;"/><path d="m310.87,157.71c0,23.46.04,46.95,0,70.41-2.35,2.48-9.46-6.57-9.92-8.68-.45-2.04-.07-38.87.5-41.65.23-1.11,7.61-19,9.42-20.08Z" style="fill:#0b5958; stroke-width:0px;"/><path d="m267.24,137.88c-.63,2.11-2.48,5.43-4.96,5.95-4.4.92-9.36-3.28-9.92-7.69-.75-5.99,1.89-64.35.5-74.37-.01-.08-.68-1.24-.99-1.24.73-1.1.85-2.58,1.49-2.97.78,13.25-1.05,74.65,0,79.58.33,1.55,1.65,2.68,2.73,3.72,1.86-.77-4.69-30.99,16.36-31.24.87,1.01-3.33,11.54-3.72,13.63-.77,4.19-.22,10.39-1.49,14.63Z" style="fill:#161923; stroke-width:0px;"/><path d="m284.6,112.1c-.65-1.21-1.29-1.94-2.48-.99-.09-6.44-.53-12.86-.5-19.34.06-12.04.36-24.17-.5-36.19.02-4.13-.05-8.27,0-12.4.05-4.05-.04-8.1,0-12.15h.99c3.82,26.41,2.88,53.22,3.47,79.83,0,.25-.99,1.16-.99,1.24Z" style="fill:#295a60; stroke-width:0px;"/><path d="m308.39,261.83h-.5c-.69-10.6-4.46-3.21-4.96-2.97-1.41.67-3.22-.27-4.46.74-.14-4.74.77-9.42.99-14.13l.99.25c-.59-3.72,1.72-6.86,3.97-9.67,1.38,4.25,3.5,1.59,5.45,4.71-1.38,6.12.27,15.57-.5,20.82-.06.42-.98.2-.99.25Z" style="fill:#153d45; stroke-width:0px;"/><path d="m310.87,351.08c.06,8.76,1.16,21.04-2.48,18.35-.06-.56,1.32-1.03-.5-.99l-7.69-.5c-.94-.56,8.06-16.2,10.66-16.86Z" style="fill:#0b5958; stroke-width:0px;"/><path d="m291.04,279.18c-.85-2.46-.93-5.11-2.97-6.94,1.38-.54,5.37-3.79,6.45-5.45.48,2.74,3.47,19.66,2.97,20.58-5.68-.6-5.1-4.27-6.45-8.18Z" style="fill:#0a393a; stroke-width:0px;"/><path d="m287.57,210.76l-.5,11.4c-10.26.65-9.25-12.77.5-11.4Z" style="fill:#cf4756; stroke-width:0px;"/><path d="m304.43,236.05c-2.24,2.81-4.56,5.95-3.97,9.67l-.99-.25c.37-8.02.57-16.02.5-24.05.47-1.07,3.37,5.58,3.47,5.95.71,2.53.49,7.12.99,8.68Z" style="fill:#0a393a; stroke-width:0px;"/><path d="m287.07,222.17l.5-11.4c6.6.93,7.97,10.87-.5,11.4Z" style="fill:#cd5e67; stroke-width:0px;"/><path d="m288.07,272.24c2.05,1.83,2.13,4.48,2.97,6.94-3.59,1.69,3,8.97-6.45.5,1.96-2.82,2.17-4.17,2.48-7.44.34-.04.81.07.99,0Z" style="fill:#152d38; stroke-width:0px;"/><path d="m307.9,261.83h.5c-.07.34.79.73.5,1.74-.19.64-2.16,2.16-2.73,5.7-3.58-3.55-1.7-6.53-1.74-6.94l3.47-.5Z" style="fill:#0b6a6d; stroke-width:0px;"/><path d="m307.9,261.83l-3.47.5c-.11-1.31-.45-2.57-1.49-3.47.49-.23,4.27-7.62,4.96,2.97Z" style="fill:#6f4d35; stroke-width:0px;"/><path d="m308.39,372.89c.23.52,2.9,3.22,3.97,3.47,2.03.47,1.3-.86,2.97-1.49,5.28-1.96,1.78,12.97.99,16.11-.67,2.67-18.05,46.02-20.33,51.07-1.05,2.33-9.08,19.36-10.16,19.58-3.7.78,5.7-23.72,5.21-25.04-.13-.34-2.76-1.55-3.97,0-1.04,1.34-2.67,14.25-5.45,15.62-4.51-12.51-13.32-14.98-11.9-30.49.31-3.35,3.2-10.87,3.47-13.14h.5c2.02.32,1.36-.85,1.49-.99,1.37-1.54,8.16-10.53,8.92-11.9,1.88,2.22,3.4.06,3.47.25.35.93.5,5.21.99,6.45,2.5,6.24,8.89,6.68,9.92,2.23,1.03-4.49-.94-8.04-2.48-11.9-.52-1.32-.88-1.83-1.98-2.73l.5-.99c5.22-4.8,8.42-11.82,13.88-16.11Z" style="fill:#0b5958; stroke-width:0px;"/><path d="m363.93,182.5c-1.57,13.34-3.57,26.55-6.45,39.66-6.46,29.51-13.17,38.66-10.41,76.85-21.03-12.19-2.16-42.02,3.97-65.69,1.65-6.39,3.19-13.35,4.46-19.83,1.1-5.62.18-12.5,3.47-17.35-1.4-5.05-1.16-12.24,4.96-13.63Z" style="fill:#161923; stroke-width:0px;"/><path d="m336.66,190.93c-3.9,2.43,1.41,10.62-3.97,11.4-9.16-2.38-5.85-16.87,3.97-11.4Z" style="fill:#7a634a; stroke-width:0px;"/><path d="m356.24,139.86c4.54-.6,8.23,17.9,1.24,12.64-1.45-1.09-5.44-12.09-1.24-12.64Z" style="fill:#ddad42; stroke-width:0px;"/><path d="m353.27,176.06c2.69.15,3.14,13.39-.99,12.4-2.17-.53-3.54-12.64.99-12.4Z" style="fill:#eb6277; stroke-width:0px;"/><path d="m336.66,190.93c6.44,3.58,3.95,13.46-3.97,11.4,5.37-.78.07-8.97,3.97-11.4Z" style="fill:#7a634a; stroke-width:0px;"/><path d="m341.37,109.12c2.66-.04,2.57,11.4,0,11.4s-2.62-11.36,0-11.4Z" style="fill:#84e0d5; stroke-width:0px;"/><path d="m342.85,161.18c.06,0,1,.72.5.99-1.28.68-1.43-.88-.5-.99Z" style="fill:#60959b; stroke-width:0px;"/><path d="m162.63,387.27c-.98,2.04-4.53,1.62-5.7,1.98-.47.15-.17,1.47-.25,1.49-.61.15-5.23-.56-8.43.5-.43-1.53-2.06-4.91-2.97-6.45,1.28-5.62.78-13.53,1.98-18.84,1.06-4.67,4.42-10.1,8.43-12.89,1.42,8.12-.39,25.84.5,30.49.66,3.46,3.16,5.2,6.45,3.72Z" style="fill:#152d38; stroke-width:0px;"/><path d="m383.26,448.26c-.41-.72-.99-1.33-1.49-1.98,3.34-3.68,1.9-21.27,2.73-29.75-1.15-.95-13.72,16.86-15.62,21.32-3.44,8.07-3.5,12.52,1.98,19.83,1.79,2.39,3.65,4.72,6.45,5.95-2.41,1.25-2.07,2.44-2.23,2.48-.57.13-7.73-3.78-9.67-6.2-13.52-16.79,6.94-37.46,16.86-50.57-5.96-5.13-2.49-8.26-4.46-9.92,1.84-.5,1.66-2.49.5-3.72.85-.81,1.67-1.63,2.48-2.48,2.33,1.49-.05,9,1.49,12.15,1.29,2.65,3.81,2.66,4.46-2.23.15-1.11.16-7.63,0-8.43-.2-.99-.95-1.41-.99-1.49-.43-.96-1.5-2-1.98-2.97,2.32-2.72,4.01-6.27,6.45-8.92-.06,12.15.65,50.49,0,55.78-.65,5.29-2.24,8.56-6.94,11.16Z" style="fill:#161923; stroke-width:0px;"/><path d="m433.83,412.56c4.01,30.47,16.88,39.87,2.48,56.52-1.83.1-3.75.84-5.45,1.49-6.6.06,2.54-4.34,3.97-6.2,6.59-8.58-2.19-25.43-3.97-35.2-1.7-9.34-3.05-16.38,2.97-16.61Z" style="fill:#161923; stroke-width:0px;"/><path d="m409.04,471.56c1.1,1.32,3.47,1.92,4.96.99,3.4,3.6-8.18,5.08-11.9-.25-2.57-3.68-.96-11.28-1.49-15.87,13.07-3.56,4.44,10.34,8.43,15.12Z" style="fill:#152d38; stroke-width:0px;"/><path d="m408.55,356.03c-.06,2.31.03,4.62,0,6.94-5.42,3.58-9.26-4.71,0-6.94Z" style="fill:#616b6d; stroke-width:0px;"/><path d="m352.27,432.89c2.68-.34,1.82,3.19.5,3.47-2.59.55-2.23-3.25-.5-3.47Z" style="fill:#0daec5; stroke-width:0px;"/><path d="m124.7,472.55c1.41-.1,4.8,1.35,5.21,2.73.23.78.24,15.58,0,16.36-.94,3.12-7.9,3.75-8.92.5-.25-.8-.22-16.04,0-16.86.33-1.24,2.74-2.66,3.72-2.73Z" style="fill:#84e0d5; stroke-width:0px;"/><path d="m93.71,478.5q.74-8.68,1.49-17.35c.09-.02-.34-.41,1.49-.99.84-.27,1.29-1.63,2.48-.74l-.5,17.35c-1.88-.44-3.44.5-4.96,1.74Z" style="fill:#152d38; stroke-width:0px;"/><path d="m97.43,496.85c1.84-.88,4.68,1.67,2.48,3.47-2.24,1.83-4.73-2.39-2.48-3.47Z" style="fill:#1c9899; stroke-width:0px;"/><path d="m94.7,113.09c2.42,14.46,14.29,21.39,24.79,28.76.98.69,2.47,2.2,3.47,2.97-1.54,1.71.28,5.31.5,7.69.73,7.86.86,15.91,1.49,23.8,1.84.24-.9,3.71,1.49,3.72-.22,2.33.64,4.17.5,6.45-.21,3.32-.9,7.18-2.97,9.92-7.88-16.08-11.22,21.16-15.12,20.82-.32-.03-3.48-3.2-3.22-5.21.12-.96,7.62-11.31,8.43-17.35-5.14.48-8.75-2.7-13.39-4.21-.07-.7-.35-1.32-.5-2.48,6.51-4.42,8.53-12.06,6.94-19.58-.81-3.85-14.85-31.38-21.32-29.5-1.56-4.74-4.45-11.53-5.45-15.37,2.22-2.11,13.55-9.22,13.88-10.91.44-.06.44.13.5.5Z" style="fill:#152d38; stroke-width:0px;"/><path d="m438.79,208.78c-.18-19.02-.51-37.99-.5-57.02.52-.12,2.92,1.57,2.97,1.74.97,2.73-.66,45.47-.5,53.55l-1.98,1.74Z" style="fill:#574e53; stroke-width:0px;"/><path d="m91.23,334.22c-3.3.18-.53,3.23,0,9.17.27,2.97-.27,10.07.99,13.88-.72,7.33-.9,14.84-2.48,22.06-1.92-12.26-5.89-24.88-12.4-35.2,1.95-10.81,1.89-21.14,3.47-30.24.19-1.07-.23-2.07.5-2.48,4.55,7.2,7.26,14.81,9.92,22.81Z" style="fill:#152d38; stroke-width:0px;"/><path d="m97.18,360.5c.24,7.98-.73,15.77-3.47,23.3l-4.46-1.49c.41-1.51.38-2.46.5-2.97,1.58-7.23,1.76-14.74,2.48-22.06-1.26-3.82-.73-10.91-.99-13.88-.53-5.94-3.3-9,0-9.17,2.96,8.92,5.66,16.77,5.95,26.28Z" style="fill:#161923; stroke-width:0px;"/><path d="m24.05,324.3c1.11-.02.92,1.3.5,1.49-.09.04-.86-1.48-.5-1.49Z" style="fill:#d06389; stroke-width:0px;"/><path d="m265.75,343.14c-.14-5.57.67-10.63,0-16.36,7.25-6.93,3.17-10.41,4.46,3.22.84,8.92,3.74,17.74,3.97,26.77q-4.21-6.82-8.43-13.63Z" style="fill:#295a60; stroke-width:0px;"/><path d="m348.8,54.58c1.28,2.27,11.4,28.08,9.92,28.76-4.15-9.17-10.75-18.19-9.92-28.76Z" style="fill:#0b5958; stroke-width:0px;"/><path d="m343.35,275.22c.47-.02,1-.14,1.24.25-.62,16.97-4.52-.09-1.24-.25Z" style="fill:#152d38; stroke-width:0px;"/><path d="m381.77,446.27c-1.9-2.5-3.72-5.23-5.95-7.44-1.63-1.62-.42-4.04-5.45-1.49-.1.05-.74-.07-1.49.5,1.9-4.46,14.47-22.27,15.62-21.32-.82,8.48.62,26.07-2.73,29.75Z" style="fill:#152d38; stroke-width:0px;"/></g><path d="m481.43,477.01c-.47,1.32-3.95,2.85-4.96,2.97-2.59.33-19.41-2.29-23.06.5-.31.24-1.79,2.64-.25,2.97-14.68.45-26.98,7.99-24.79,24.29-3.14,0-6.28,0-9.42,0,.19-14.3,5.47-33.29,21.32-37.19,12.7-3.13,29.71.19,41.15,6.45Z" style="fill:#1c9899; stroke-width:0px;"/><path d="m476.47,479.99c2.78,1.51,6.73,3.59,9.17,5.45,13.34,10.21,6.69,10.85,6.69,11.65,0,.7,6.53,4.2,8.92,10.66-1.65.06-3.31-.04-4.96,0-5.2-15.28-27.88-24.76-43.14-24.29-1.54-.33-.06-2.74.25-2.97,3.64-2.79,20.47-.16,23.06-.5Z" style="fill:#1c9899; stroke-width:0px;"/><path d="m436.31,469.08c2.86-.16,4.49-.37,3.97,1.49-15.85,3.9-21.13,22.89-21.32,37.19-2.64,0-5.29,0-7.93,0,.17-9.58,3.76-22.24,9.92-29.75,2.46-3,6.24-6.04,9.92-7.44,1.71-.65,3.62-1.38,5.45-1.49Z" style="fill:#0b6a6d; stroke-width:0px;"/><path d="m505.23,507.75c-1.14.16-2.7-.05-3.97,0-2.39-6.46-8.92-9.96-8.92-10.66,0-.8,6.65-1.45-6.69-11.65-2.44-1.87-6.39-3.95-9.17-5.45,1.01-.13,4.49-1.65,4.96-2.97,11.88,6.5,21.67,16.92,23.8,30.74Z" style="fill:#bfefed; stroke-width:0px;"/><path d="m415.99,353.06c1.28,39.01-1.74,78.23-.5,117.26-.47.47-1.16,2.03-1.49,2.23-1.49.93-3.86.32-4.96-.99-.5-36.17-1.04-72.42-.5-108.58.03-2.32-.06-4.63,0-6.94.01-.5-.01-.99,0-1.49.52.08,1.73-.24,1.98.25,1.39,2.69,0,29.06.99,31.73,2.94,7.92,1.86-30.99,1.98-32.97.95-.11,1.49-.67,2.48-.5Z" style="fill:#a9e2d5; stroke-width:0px;"/><path d="m415.99,353.06c-.99-.18-1.53.39-2.48.5-1.63.19-3.32.21-4.96.5.11-3.34-1.35-13.17,3.22-13.88,5.85-.91,4.1,9.38,4.21,12.89Z" style="fill:#13cbd3; stroke-width:0px;"/><path d="m413.51,353.56c-.12,1.98.96,40.89-1.98,32.97-.99-2.68.4-29.04-.99-31.73-.25-.49-1.47-.17-1.98-.25,0-.17,0-.33,0-.5,1.63-.29,3.33-.31,4.96-.5Z" style="fill:#a9e2d5; stroke-width:0px;"/><path d="m398.63,28.8c.96,0,2.2.26,2.97.99-.06,21.29-.74,44.16.99,64.46l-2.48.99c-.35-1.28-4.26-3.7-5.45-4.96-1.82-17.43-.47-42.21-.5-60.49,1.45-.81,2.83-.98,4.46-.99Z" style="fill:#bfefed; stroke-width:0px;"/><path d="m400.12,95.24c.61,2.21.75,43.7,0,45.86-.13.38-.65.25-.99.25-.14-.25-.37-2.51-1.98-2.97-.13-.04-.36-.01-.5,0q.25-18.22.5-36.44c-.6-3.1-.97-5.81-2.97-8.43-.26-1.78.57-2.51.5-3.22,1.2,1.26,5.1,3.68,5.45,4.96Z" style="fill:#13cbd3; stroke-width:0px;"/><path d="m399.13,141.35c.99,1.81.79,4.33,2.97,5.45-.1,5.53.41,29.47,0,30.99-.35,1.29-2.73,2.75-3.97,2.73-.83-14.08.28-28.13-.99-42.14,1.61.46,1.85,2.72,1.98,2.97Z" style="fill:#a9e2d5; stroke-width:0px;"/><path d="m396.65,138.37c.14-.01.37-.04.5,0,1.27,14.01.16,28.06.99,42.14-1.45-.03-3.64-1.95-3.97-3.22-.45-1.78-.43-34.91,0-36.69.22-.92,1.32-2.13,2.48-2.23Z" style="fill:#bfefed; stroke-width:0px;"/><path d="m402.6,94.25c.29,17.53-.16,35.03-.5,52.56-2.18-1.13-1.99-3.65-2.97-5.45.34,0,.86.13.99-.25.75-2.17.61-43.65,0-45.86l2.48-.99Z" style="fill:#02b2b9; stroke-width:0px;"/><path d="m399.13,7.98l-.5,20.82c-1.63,0-3.02.18-4.46.99,0-4.26-3.57-24.53,4.96-21.82Z" style="fill:#13cbd3; stroke-width:0px;"/><path d="m401.61,29.79c-.77-.73-2.02-1-2.97-.99l.5-20.82c5.27,1.68,2.5,13.3,2.48,21.82Z" style="fill:#02b2b9; stroke-width:0px;"/><path d="m395.16,238.03c4.08,8.48,12.22,12.01,19.83,34.71.18.54,1.71,7.09,2.48,5.21-1.5-3.08-.48-3.06-.5-3.22l1.49,5.95v.5c-.06-.06-.84-.38-.99-.5-.09-.06-.31-2.33-.5.5.22,1.71-.27,1.53-1.49,1.98-6.73-11.64-13.01-29.31-20.82-41.9.02-1.2-1.52-3.32.5-3.22Z" style="fill:#5a564b; stroke-width:0px;"/><path d="m394.67,230.1c-.02.49,0,.99,0,1.49,0,.16-.83.24-.5,3.22.78,1.27,1.73,2.44,2.48,3.72,3.53,5.98,12.3,13.4,14.38,16.36,1.56,2.22,2.73,4.78,3.97,7.19-.06,3.15,1.1,6.78,1.49,9.67l-1.49.99c-7.61-22.69-15.76-26.23-19.83-34.71-.4-.82-.71-1.66-1.49-2.23.02-1.91-.35-3.8-.5-5.7h1.49Z" style="fill:#107a79; stroke-width:0px;"/><path d="m403.59,240.51c.65.8.78,2.34,1.49,3.22,1.36,1.7,6.37,6.46,9.42,11.16h-3.47c-2.08-2.96-10.85-10.38-14.38-16.36,2.7,1.17,1.74-.69,3.97-1.49.98,1.17,2.02,2.28,2.97,3.47Z" style="fill:#3b3d42; stroke-width:0px;"/><path d="m414.5,254.89c1.53,2.36,3.82,5.06,4.46,7.93,1.1,4.86-.15,12.71-.5,17.85l-1.49-5.95c-.11-1.06-.36-2-.5-2.97-.39-2.89-1.55-6.51-1.49-9.67-1.23-2.41-2.41-4.97-3.97-7.19h3.47Z" style="fill:#5a564b; stroke-width:0px;"/><path d="m418.46,281.17c2.61,2.72,5.11,5.42,7.93,7.93-1.62,11.11-9.36-3.27-10.91-5.95,1.22-.45,1.7-.27,1.49-1.98l.5-.5c.16.11.93.43.99.5Z" style="fill:#e1c362; stroke-width:0px;"/><path d="m416.98,274.72c.02.16-1,.14.5,3.22-.77,1.88-2.3-4.67-2.48-5.21l1.49-.99c.13.97.39,1.91.5,2.97Z" style="fill:#386463; stroke-width:0px;"/><path d="m417.47,280.67l-.5.5c.18-2.83.41-.56.5-.5Z" style="fill:#92968c; stroke-width:0px;"/><path d="m400.62,237.04c-2.22.8-1.26,2.66-3.97,1.49-.75-1.28-1.7-2.45-2.48-3.72-.33-2.98.5-3.06.5-3.22,2,.66,4.5,3.72,5.95,5.45Z" style="fill:#153d45; stroke-width:0px;"/><path d="m286.58,252.91c.28.29.96,1.06.99,1.24.15.89-.32,16.28-.5,18.1-.31,3.27-.52,4.61-2.48,7.44h-.5c-.67-4.04-2.98-1.97-3.47-14.38-.14-3.55-.85-10.34,1.49-12.4,1.45,4.98-.04,13.89,2.73,11.9.95-.68-.62-10,1.74-11.9Z" style="fill:#bfefed; stroke-width:0px;"/><path d="m286.58,252.91c-2.35,1.9-.78,11.22-1.74,11.9-2.77,1.99-1.28-6.92-2.73-11.9,1.26-1.11,3.17-1.35,4.46,0Z" style="fill:#bfefed; stroke-width:0px;"/><path d="m264.76,31.28c.56-10.68-14.61-16.26-19.83-6.2-2.47,4.77-2.17,13.93,1.49,18.35.17,6.43-.23,12.91,0,19.34.01.37.99.68.99.74.58,18.05-2.61,54.77,0,70.41,2.18,13.05,19.49,23.98,21.32,39.66-.95,1.4-1.62,10.26-1.98,10.66-.41.45-13.84.64-6.45,4.71-5.13,4.11-14.21,4.37-17.35-2.23-1.37-2.88-5.48-35.9-5.95-41.65-.21-2.51.64-10.47.5-12.89-.01-.22-.96-.63-.99-1.24-.02-.28,1.79-3.03-.99-4.96,1.23-10.46-.24-21.03,0-31.48.03-1.11.95-4.87.99-6.2,3.05-.19,2.11-5.31,1.98-7.93-.06-1.32-.99-3.05-.99-3.22-.11-4.08-.14-31.11.74-32.48.47-.72,5.52-2.29,5.7-2.73.35-.85-4.24-10.14.5-17.85,5.85-9.52,21.46-5.57,20.33,7.19Z" style="fill:#161923; stroke-width:0px;"/><path d="m244.93,173.08c5.44.68,2.14-6.4,2.97-10.41,6.91,4.65,14.48,28.25,3.72,25.78-2.81-.64-6.29-7.48-6.69-10.16-.12-.83,1.49.83,1.49-.5,0-.25-1.09-.93-1.49-4.71Z" style="fill:#3abeb3; stroke-width:0px;"/><path d="m247.91,162.67c-.84,4.01,2.46,11.09-2.97,10.41-.41-3.88-1.36-7.7-.99-11.65.29-.5,3.67,1.04,3.97,1.24Z" style="fill:#f9fdfd; stroke-width:0px;"/><path d="m264.76,31.28c-.09,1.06.18,2.64,0,3.22-.39,1.23-9.72,12.63-11.4,23.06-.63.4-.75,1.88-1.49,2.97-.28.43-1.31,1.85-1.49,1.98-.2.15-2.37,1.15-2.97.99,0-.06-.98-.38-.99-.74-.23-6.43.17-12.9,0-19.34-3.65-4.41-3.96-13.58-1.49-18.35,5.22-10.07,20.39-4.49,19.83,6.2Z" style="fill:#c0a14c; stroke-width:0px;"/><path d="m280.63,25.33l.5,17.85c-.05,4.13.02,8.26,0,12.4-.05,12.04-.37,24.17.5,36.19-.03,6.48.41,12.89.5,19.34,0,.1-1.36.78-1.49,1.24.5,14.48,3.95,28.56,5.95,42.89l-.5,1.49c-.73-2.93-1.95-5.6-3.97-7.93-5.56-6.45-1.57,5.4-1.49,6.69.74,11.49,1.32,21-11.9,18.1-1.83-15.69-19.14-26.61-21.32-39.66.91-2.08,2.9-2.54,2.97-2.73,1.2-3.22-2.02-59.4,0-68.67.18-.14,1.2-1.56,1.49-1.98.31,0,.98,1.16.99,1.24,1.4,10.02-1.25,68.38-.5,74.37.56,4.41,5.51,8.61,9.92,7.69,2.53-.5,1.06,2.02,1.49,2.73.88,1.44,1.9.68,1.98.74.23.17.71.35.99.5-1.17,4.63,8.64,4.4,4.46.5,3.93-4.73,8.01-26.18,6.94-31.48-.08-.41-.96-.69-.99-.74-.06-.11.04-.6,0-.99,3.36-.41.51-10.28.5-12.64,0-.18.99-.81.99-.99-.03-7.33.08-22.48-.5-28.76-.02-.22-.95-.75-.99-.99-.06-.34,3.5-1.73-2.48-3.22.04-13.98.57-29.93,0-43.63,2.57.08,2.97,1.11,5.95.5Z" style="fill:#cf4756; stroke-width:0px;"/><path d="m282.12,148.79c-4.41-3.12-.64,5.35-.5,7.69,1.57,24.86-13.9,25.85-12.89,27.77,16.31-2.37,21.27-11.82,17.35-27.52l.5-1.49c1.14,8.19,4.62,16.77-.99,24.54-3.72,5.15-19.28,12.48-25.29,9.17-7.39-4.07,6.03-4.26,6.45-4.71.37-.4,1.03-9.26,1.98-10.66,13.22,2.9,12.64-6.61,11.9-18.1-.08-1.3-4.07-13.14,1.49-6.69Z" style="fill:#be3d54; stroke-width:0px;"/><path d="m277.16,115.07c-4.38.53-2.11-1.3-3.97-3.47.63-2.73,1.32-5.46,1.98-8.18-.78-11.64-.53-23.31-.5-34.95,5.98,1.49,2.42,2.88,2.48,3.22.04.24.97.78.99.99.57,6.28.47,21.43.5,28.76,0,.18-.99.81-.99.99.01,2.36,2.87,12.23-.5,12.64Z" style="fill:#cf4756; stroke-width:0px;"/><path d="m277.16,115.07c.04.4-.06.88,0,.99-5.37-2.65-4.14,12.8-6.45,20.58-1.15,3.87-4.09,7.62-4.96,10.66-.09-.06-1.11.7-1.98-.74-.43-.71,1.04-3.22-1.49-2.73,2.48-.52,4.33-3.84,4.96-5.95,2.41-3.94,1.59-11.85,2.48-16.11.72-3.43,2.67-6.7,3.47-10.16,1.86,2.17-.41,4,3.97,3.47Z" style="fill:#be3d54; stroke-width:0px;"/><path d="m250.38,62.51c-2.02,9.27,1.2,65.45,0,68.67-.07.19-2.06.65-2.97,2.73-2.61-15.64.58-52.35,0-70.41.61.15,2.78-.84,2.97-.99Z" style="fill:#eb6277; stroke-width:0px;"/><path d="m282.12,148.79c2.02,2.34,3.23,5,3.97,7.93,3.92,15.7-1.05,25.15-17.35,27.52-1.01-1.92,14.46-2.9,12.89-27.77-.15-2.33-3.92-10.8.5-7.69Z" style="fill:#f9fdfd; stroke-width:0px;"/><path d="m277.16,116.06c.03.05.91.34.99.74,1.06,5.31-3.01,26.76-6.94,31.48-2.15,2.58-1.28,1.14-4.46-.5-.28-.14-.76-.33-.99-.5.87-3.04,3.81-6.79,4.96-10.66,2.31-7.78,1.08-23.23,6.45-20.58Z" style="fill:#fae9df; stroke-width:0px;"/><path d="m281.62,91.77c-.87-12.02-.55-24.15-.5-36.19.86,12.02.56,24.15.5,36.19Z" style="fill:#3b3d42; stroke-width:0px;"/><path d="m271.21,148.29c4.17,3.91-5.64,4.13-4.46-.5,3.18,1.63,2.32,3.08,4.46.5Z" style="fill:#be3d54; stroke-width:0px;"/><path d="m284.1.04c-1.7,6.21,3.59,23.82-3.47,25.29-2.98.62-3.38-.42-5.95-.5-.02-.44-1.45-1.65-1.49-2.48,1.59-1.77,1.28-17.88.99-19.09-.09-.37-.66-.25-.99-.25V.04c3.64,0,7.27,0,10.91,0Z" style="fill:#c0a14c; stroke-width:0px;"/><path d="m273.19,22.35V3.02c.33,0,.9-.12.99.25.29,1.21.6,17.32-.99,19.09Z" style="fill:#c0a14c; stroke-width:0px;"/><path d="m234.27,198.37c4.1-1.08,3.78,4.34,1.49,4.46-1.11.06-4.17-3.75-1.49-4.46Z" style="fill:#67293f; stroke-width:0px;"/><path d="m235.26,198.86c1.89-.27.75,2.73-.5,2.48-1.38-.28-.25-2.37.5-2.48Z" style="fill:#aa365c; stroke-width:0px;"/><path d="m370.87,302.98c-.91.58-1.4,1.43-1.49,1.49-.12.08-.38-.08-.5,0-6.21-5.07-8.62-18.52-7.44-25.78.29-1.75.76-3.55,2.48-4.46.21,7.72,1.09,15.59,2.97,23.06,1.14,2.92,3.03,4.44,3.97,5.7Z" style="fill:#a19687; stroke-width:0px;"/><path d="m371.86.04c3.15,7.83,2.81,16.11,1.49,24.29-.05.3-.32.48-.5,1.49l-1.98-1.49c.36-3.13.1-4.02-.99-7.19h-.99c-.43,6.78-5.94,21.32-6.45,25.29-.45,3.49-.55,4.61,2.97,4.71.97.03,1.15.58,1.98.5.76,4.84,2.05,9.58,2.97,14.38,4.62,23.94,7.96,31.99,8.43,59.99.4,24.22-2.5,48.34-4.96,72.39-1.62,15.85-3.94,40.96-6.45,55.53-.07.4-1.67.89-2.48,5.21-.64,4.56-.9,9.03-.99,13.63-.03,1.45-.04,4.07,0,5.45-1.72.91-2.19,2.71-2.48,4.46-2.01-.34-.2,3.37-1.49,3.22-5.31-17.2-.28-55.66-.99-58.51-.05-.19-1.09-1.17-1.49-1.24,2.87-13.12,4.88-26.33,6.45-39.66,3.24-27.55,5.43-55.72,1.49-83.3-2.63-18.41-8.79-36.32-16.36-53.3,4.06-15.1,14.35-21.58,11.4-37.93-.48-2.66-2.14-5.17-2.48-7.93,4.63,0,9.26,0,13.88,0Z" style="fill:#67574b; stroke-width:0px;"/><path d="m368.64,203.82c.84-.52,2.21,3.96,2.23,4.21.1,1.3-2.97,24.58-3.47,25.78-.92,2.21-3.71,2.8-3.97-.99-.1-1.48,3.84-25.54,5.21-29Z" style="fill:#a19687; stroke-width:0px;"/><path d="m370.87,24.34c-.46,4.01-5.09,15.92-5.45,22.81-3.52-.1-3.42-1.22-2.97-4.71.51-3.97,6.01-18.5,6.45-25.29h.99c1.1,3.17,1.35,4.06.99,7.19Z" style="fill:#a9a598; stroke-width:0px;"/><path d="m372.85,25.82c-1.31,7.33-4.15,14.46-5.45,21.82-.83.09-1.01-.47-1.98-.5.37-6.89,4.99-18.8,5.45-22.81l1.98,1.49Z" style="fill:#67574b; stroke-width:0px;"/><path d="m361.45,278.69c-1.18,7.26,1.23,20.71,7.44,25.78-3.31,2.29-2.32,2.41-2.48,2.48-3.23,1.35-9.51-5.86-11.4-8.68-2.29-3.4-5.52-13.49-4.96-7.44.04.39.97.11.99.5.48,7.46.8,14.91,1.98,22.31,4.66,2.27,10.52,3.74,14.38,7.19-1.22,3.07.37,2.33.5,2.73,1.96,5.93,1.03,11.15,1.98,17.11-3.57,17.63-12.6,21.57-18.35,30.99-9.6,15.74-25.18,62.29-27.27,81.07-.87,7.78-2.66,12.56,1.98,20.08,3.69,5.97,17.01,13.25,11.4,22.81-7.47,12.75-26.47,2.63-30.24-16.61-1.42-7.24.08-14.72,1.49-21.82,2.02-10.17,24.6-77.59,29.25-88.75,1.17-2.8,2.36-5.6,3.47-8.43,2.15-2.77,5.13-7.53,6.45-10.66,6.81-16.14,3.21-18.92,1.98-28.51-.31-2.45-.95-4.13-.99-4.46-.7-5.67-1.57-11.68-1.98-17.35-2.76-38.2,3.95-47.34,10.41-76.85.4.07,1.44,1.05,1.49,1.24.72,2.85-4.31,41.3.99,58.51,1.28.15-.52-3.56,1.49-3.22Z" style="fill:#67574b; stroke-width:0px;"/><path d="m350.04,320.83c1.23,9.59,4.82,12.37-1.98,28.51-1.32,3.13-4.3,7.89-6.45,10.66-.66-1.74,1.36-4.79,1.98-7.19,2.8-10.69,4.92-30.21,5.45-31.73.14-.39.66-.25.99-.25Z" style="fill:#2e2c2f; stroke-width:0px;"/><path d="m271.21,247.45c1.23,3.88,4.66,10.76,6.45,14.87-1.48.64,1.59,4.51,1.49,5.21-.11.75-4.34,3.04-5.95,5.95-2.18,3.95-2.63,12.98-5.95,16.61-1.16-4.76-2.13-10.6-3.47-15.12-1.44-4.84-6.05-6.28,2.48-6.45-2.21-3.3-10.08-11.39-10.91-12.89-1.18-2.14-4.24-13.16-3.97-15.12,1.03-7.34,11.72-2.8,12.4-5.95,1.02,3.06,5.11,10.14,7.44,12.89Z" style="fill:#2e2c2f; stroke-width:0px;"/><path d="m251.38,240.51c-.28,1.96,2.79,12.98,3.97,15.12.83,1.51,8.7,9.59,10.91,12.89-8.53.16-3.92,1.6-2.48,6.45,1.34,4.52,2.31,10.37,3.47,15.12,1.13,4.63,1.97,9.23,2.97,13.88-1.38.14-1.75-1.31-2.48-1.98-2.8-6.91-4.1-13.37-5.95-20.33-.64-2.39-.84-4.81-1.49-7.19-5.39-5.01-13.78-20.64-13.39-27.52.13-2.3,1.82-6.54,4.46-6.45Z" style="fill:#152d38; stroke-width:0px;"/><path d="m284.1,301.5c.08,1.31-.37,4.3.74,4.46.26.04,3.01-3.34,4.21-2.97,2.53,7.68,6.3,15.34,7.93,23.3l-5.21-.5-.25,1.49c-.11-.72-.35-1.71-.5-2.48-1.18-6.19-3.27-12.49-6.69-17.85-1.13.12-.9,9.78-.74,10.91-2.02,3.94-3.63-4.08-3.97-7.19-.73-6.71.31-15.31-.5-22.31.2-.37.99-1.64.99-1.74.76,1.4,2.65-1.2,3.97-1.98.13,5.6-1.39,11.27,0,16.86Z" style="fill:#0b5958; stroke-width:0px;"/><path d="m296.99,326.29c4.53,22.1-2.24,31.22-9.92,51.07-.07-.1-1.57-1.23-1.98-1.49.49-1.65,1-3.31,1.49-4.96,2.02-6.86,4.75-12.32,5.95-19.34,1.3-7.6,1.98-17.12-.99-24.29l.25-1.49,5.21.5Z" style="fill:#107a79; stroke-width:0px;"/><path d="m287.07,377.35c.62.94.86,2.35.99,3.47-3.77,6.01-4.82,13.74-9.92,18.84,2.55-7.74,4.59-15.95,6.94-23.8.42.26,1.91,1.38,1.98,1.49Z" style="fill:#a9e2d5; stroke-width:0px;"/><path d="m286.58,390.74c-.42,1.15-1.8,3.73-2.48,4.96-.76,1.37-7.56,10.36-8.92,11.9.23-.35,2.63-6.89,2.97-7.93,5.1-5.1,6.14-12.84,9.92-18.84.35,2.91-.42,6.95-1.49,9.92Z" style="fill:#107a79; stroke-width:0px;"/><path d="m289.06,302.98c-1.2-.36-3.96,3.01-4.21,2.97-1.11-.16-.66-3.15-.74-4.46-.07-1.18-.4-11.36.74-11.4,4.92,7.39,4,12.23,4.21,12.89Z" style="fill:#cd5e67; stroke-width:0px;"/><path d="m284.1,279.68c.2,1.21-.04,3.4,0,4.96-1.32.79-3.2,3.39-3.97,1.98-.08-5.97.27-14.78-.99-20.33l1.49-.99c.49,12.41,2.8,10.34,3.47,14.38Z" style="fill:#3ca399; stroke-width:0px;"/><path d="m279.14,266.29c1.26,5.55.91,14.36.99,20.33,0,.1-.79,1.37-.99,1.74.81,7-.24,15.6.5,22.31.34,3.11,1.94,11.13,3.97,7.19.1.71-.07,1.51,0,2.23,1,.74,1.99,1.48,2.97,2.23-1.96-.18,1.21,6.91,1.49,11.16.51,7.65-2.45,26.19-3.97,34.71-.34,1.93-3.64,11-2.48,11.9,2.49,1.92,2.35-7.87,4.96-9.17-.49,1.65-.99,3.31-1.49,4.96-2.35,7.85-4.39,16.06-6.94,23.8-.34,1.04-2.74,7.58-2.97,7.93-.19.29-1.55.41-1.49.99h-.5c.64-5.4-.66-2.67-2.48.99-.02-1.03,1.78-9.7.74-9.92-1.59,3.54-3.46,6.95-5.21,10.41l-1.98.5c.76-2.23,1.96-7.37,2.48-9.92,2.8-6.2,4.96-12.69,8.43-18.59,2.67-19.76,2.18-46.32-1.49-65.94-.77-3.71-2.75-8.8-3.47-12.15-1.01-4.65-1.85-9.25-2.97-13.88,3.32-3.63,3.77-12.66,5.95-16.61,1.61-2.91,5.83-5.19,5.95-5.95.11-.69-2.97-4.56-1.49-5.21.73,1.25,1.17,2.56,1.49,3.97Z" style="fill:#67574b; stroke-width:0px;"/><path d="m261.79,281.66c1.85,6.96,3.15,13.41,5.95,20.33-12.96-12.06-12.04-7.42-15.37-7.93l-.99-1.24q5.21-5.58,10.41-11.16Z" style="fill:#524a43; stroke-width:0px;"/><path d="m286.58,322.32c1.07.81,3.16,1.27,4.46,2.48.15.77.39,1.76.5,2.48,1.22,8.12.84,16.14.99,24.29-1.2,7.02-3.93,12.47-5.95,19.34-2.61,1.31-2.47,11.09-4.96,9.17-1.16-.9,2.13-9.97,2.48-11.9,1.52-8.51,4.48-27.05,3.97-34.71-.28-4.25-3.45-11.34-1.49-11.16Z" style="fill:#7a634a; stroke-width:0px;"/><path d="m291.04,324.8c-1.3-1.2-3.39-1.67-4.46-2.48-.99-.75-1.98-1.49-2.97-2.23-.07-.73.1-1.52,0-2.23-.16-1.13-.39-10.78.74-10.91,3.43,5.36,5.51,11.66,6.69,17.85Z" style="fill:#2e2c2f; stroke-width:0px;"/><path d="m292.53,351.57c-.15-8.15.23-16.17-.99-24.29,2.98,7.17,2.29,16.7.99,24.29Z" style="fill:#0a393a; stroke-width:0px;"/><path d="m273.19,408.59c-.27,2.27-3.16,9.79-3.47,13.14-1.42,15.51,7.39,17.98,11.9,30.49,1.32,3.65,2.04,7.55,2.48,11.4.35,3.13,1.84,41.87-.25,42.14-7.91-6.29-3.43-18.99-4.71-27.52-.34-2.29-7.06-18.99-8.92-22.06-4.68-7.69-12.99-12.6-15.37-19.83.03-3.89.08-4.83,2.23-8.43.93,2.54.8,2.77,2.23,4.46.87,1.03,7.29,6.28,7.93,5.21-4.52-6.43.11-21.23,3.47-28.01,1.82-3.66,3.12-6.39,2.48-.99Z" style="fill:#cf4756; stroke-width:0px;"/><path d="m266.25,410.08c-3.04,6.04-9.81,17.5-6.94,22.31-1.43-1.69-1.3-1.92-2.23-4.46-2.15,3.6-2.2,4.53-2.23,8.43-.06,7.77,7.73,11.63,11.9,17.85-2.83,2.5,1.58,4.82,0,7.93-8.49,3.57-15.36-7.36-15.87-15.12-.9-13.64,9.22-24.25,13.39-36.44l1.98-.5Z" style="fill:#be3d54; stroke-width:0px;"/><path d="m270.22,456.19l-1.49.5c-.53-1.76-1.86-2.29-1.98-2.48-4.17-6.22-11.96-10.08-11.9-17.85,2.38,7.23,10.69,12.14,15.37,19.83Z" style="fill:#7e2341; stroke-width:0px;"/><path d="m268.73,456.68c.72,2.41.68,4.34-1.98,5.45,1.58-3.11-2.83-5.43,0-7.93.13.19,1.45.72,1.98,2.48Z" style="fill:#972945; stroke-width:0px;"/><path d="m270.71,409.58c-3.37,6.78-8,21.58-3.47,28.01-.64,1.07-7.07-4.18-7.93-5.21-2.87-4.81,3.9-16.27,6.94-22.31,1.74-3.46,3.61-6.88,5.21-10.41,1.04.22-.77,8.89-.74,9.92Z" style="fill:#fae9df; stroke-width:0px;"/><path d="m390.2,381.32c-2.44,2.66-4.13,6.21-6.45,8.92-.14.16-2.23,2.2-2.97,2.97-.81.85-1.63,1.67-2.48,2.48-16.45,15.73-31.27,17.91-46.11,46.36-3.86,7.39-3.55,14.22-7.93,10.66,2.09-18.78,17.67-65.33,27.27-81.07,5.75-9.42,14.77-13.36,18.35-30.99.74-.22,1.13-.87,1.49-1.49,2.4-4.17,6.74-8.68,8.92-13.39,1.47,1.84,5.41,5.21,7.44,10.16,5.89,14.42,2.55,30.49,2.48,45.37Z" style="fill:#0b5958; stroke-width:0px;"/><path d="m369.38,304.47c1.13,5.07,16.36,23.74,18.1,24.29.08.03.44-.66.74-.5.36.2.6-1.26,1.98.25,4.2,4.56,7.93,20.96,8.43,27.52.61,8-1.38,16.02,1.98,22.81-.18,15.09,1.28,60.54-1.49,70.65-2.65,9.69-11.13,18.84-21.82,14.13-2.79-1.23-4.66-3.56-6.45-5.95,2.72-7.65,11.1-8.71,12.4-9.42,4.7-2.59,6.29-5.87,6.94-11.16.65-5.29-.06-43.63,0-55.78.07-14.87,3.41-30.95-2.48-45.37-2.03-4.96-5.97-8.32-7.44-10.16-4.7-5.9-8.96-9.09-13.88-18.84.16-.07-.83-.19,2.48-2.48.11-.08.38.08.5,0Z" style="fill:#1c9899; stroke-width:0px;"/><path d="m402.1,356.03h-3.47c-.5-6.55-4.23-22.96-8.43-27.52-1.38-1.5-1.62-.05-1.98-.25-.05-1.36-1.01-4.92-1.49-5.95,12.36,6.62,14.94,20.99,15.37,33.72Z" style="fill:#107a79; stroke-width:0px;"/><path d="m386.73,322.32c.47,1.03,1.43,4.59,1.49,5.95-.3-.17-.66.52-.74.5-1.74-.56-16.96-19.23-18.1-24.29.09-.06.58-.91,1.49-1.49.07.09.8-.33,1.98,1.24,2.65,3.53,13.26,16.74,13.88,18.1Z" style="fill:#bfefed; stroke-width:0px;"/><path d="m402.1,356.03c.34,10.28-1.42,17.36-1.49,22.81-3.37-6.79-1.37-14.81-1.98-22.81h3.47Z" style="fill:#1c9899; stroke-width:0px;"/><path d="m370.37,437.35l.25,5.45c1.74-5.14,2.73-2.61,5.21-3.97,2.23,2.21,4.05,4.94,5.95,7.44.5.66,1.08,1.27,1.49,1.98-1.29.71-9.68,1.77-12.4,9.42-5.48-7.32-5.42-11.76-1.98-19.83.75-.57,1.39-.45,1.49-.5Z" style="fill:#107a79; stroke-width:0px;"/><path d="m375.82,438.84c-2.48,1.36-3.47-1.17-5.21,3.97l-.25-5.45c5.04-2.56,3.82-.13,5.45,1.49Z" style="fill:#ebfefd; stroke-width:0px;"/><path d="m192.37,5.99c-22.32,45.46-5.9,83.19-1.98,120.23,2.56,24.17,2.01,60.93,3.97,88.75,2.38,33.96,11.92,118.07,18.84,149.73,5.11,23.38,15.02,45.72,15.87,69.91.7,19.89-3.64,45.64-13.39,63.22-1.89,3.41-4.69,6.4-6.45,9.92-1.49,0-2.97,0-4.46,0,11.72-25.2,15.45-45.97,11.9-73.63-3.33-25.95-12.65-41.71-19.83-65.45-2.94-22.28-7.1-44.2-10.91-66.44.3-5.51,2.14-3.07,3.97-6.45-2.03-6.13.02-7.98,0-8.43-.02-.34-1.97,1.26-.5-5.95-2.37-4.68-4.82-34.41-8.68-35.45-1.12-.3-3.13,2.32-5.7-1.24-4.16-5.76-.62-18.95,0-6.45h.99c.21-3.2-.75-5.83,1.49-8.18-.38,3.64-2.73,16.49,3.97,14.38,4.14-1.3,2.39-10.87,1.98-14.38,5.68.98.55-8.9,0-17.6-.77-12.15,2.06-26.74,0-44.62-2.73-11.96-4.58-23.97-5.45-36.19l-12.4-53.55c.26-28.2-2.24-45.23,18.35-66.93,4.06-4.28,8.07-8.42,8.43-5.21Z" style="fill:#161923; stroke-width:0px;"/><path d="m479.95,440.82c-2.92,2.49-.24,7.52,3.47,5.45,2.73-1.52-.16-6.19,5.95,2.23,7.21,9.95,11.99,21.52,18.35,31.98-.06,9.09.05,18.18,0,27.27-.81.08-1.69-.11-2.48,0-2.13-13.82-11.92-24.24-23.8-30.74-11.44-6.26-28.45-9.57-41.15-6.45.52-1.86-1.1-1.65-3.97-1.49,14.4-16.65,1.53-26.05-2.48-56.52-4.82-36.63,9.51-64.42-18.84-97.43-13.44-15.65-33.39-21.62-41.15-30.74-3.88-4.56-5.92-11.1-9.92-15.62.09-4.61.35-9.07.99-13.63.81-4.31,2.41-4.8,2.48-5.21,28.77,35.86,58.98,40.35,77.84,86.52,11.57,28.31,12.46,65.34,25.78,91.23,1.48,2.88,6.63,11.36,8.92,13.14Z" style="fill:#0b5958; stroke-width:0px;"/><path d="m137.34.04q-.25,10.16-.5,20.33c-11.8,9.03-14.83,22.47-21.82,34.46-8.62,14.79-20.62,23.9-21.82,42.39-.34,5.19.16,10.26.99,15.37-.33,1.68-11.66,8.79-13.88,10.91-11.03-42,24.72-83.3,26.77-108.09,2.73-.66,3.85-11.29,4.96-15.37,8.43,0,16.86,0,25.29,0Z" style="fill:#0b5958; stroke-width:0px;"/><path d="m104.62.04c-3.52,15.02-4.37,19.67-12.4,32.72-.15.25-2.32,1.43-3.97,4.21-11.27,19.08-22.02,43.87-18.84,66.44,1.33,9.47,2.22,1.15,2.97-.99.14-.39.66-.25.99-.25-1.78,8.97-2.02,13.81.5,22.81-1.54-1.48-.33-2.56-2.23-2.48-4.12.18,1.13,9.4,3.22,15.37-2.59-.54-3.8-1.54-5.95.99-4.4-18.19-5.58-33.58-3.47-52.31,2.57-22.77,8.72-31.25,16.86-50.82,4.8-11.54,10.3-22.8,10.41-35.7,3.97,0,7.93,0,11.9,0Z" style="fill:#1c9899; stroke-width:0px;"/><path d="m188.41.04c-8.12,9.32-16.69,10.85-25.29,21.32-2.56,3.12-13.62,23.46-12.89,26.03.15.52,1.48-.14,1.49.74-1.64.75-4.21,3.73-4.96,5.45-.66-3.62,4.64-26.97,2.73-27.77-1.24-.3-1.89.58-2.73.5-3.31-.33-4.83.62-3.47-1.49,7.91-5.79,11.71-6.49,17.35-9.42,2.53-1.32,5.35-2.14,7.93-3.47,5.47-2.81,13.33-6.63,15.87-11.9,1.32,0,2.64,0,3.97,0Z" style="fill:#152d38; stroke-width:0px;"/><path d="m174.03.04c-3.25,3.6-11.17,9.47-15.37,11.4-2.59,1.2-9.79,3.97-9.92,1.98V.04c8.43,0,16.86,0,25.29,0Z" style="fill:#ddad42; stroke-width:0px;"/><path d="m274.68,507.75c-3.97,0-7.93,0-11.9,0-3.45-2.85-7.97-5.34-8.43-10.41-.77-8.59,6.71-12.07,12.89-15.87,2.95,1.11-5.24,6.25-2.97,16.11,1.38,6.02,6.11,7.13,10.41,10.16Z" style="fill:#1c9899; stroke-width:0px;"/><path d="m301.95,495.36c4.29,9.94,9.26,8.77,13.88,11.4.42.24.96.39.99.99-10.08,0-20.16,0-30.24,0,.9-3.32,7.7-2.98,11.16-2.97,1.08-4.53,1.13-11.27,4.21-9.42Z" style="fill:#1c9899; stroke-width:0px;"/><path d="m92.72.04c-.11,12.89-5.61,24.16-10.41,35.7q2.23-5.83,4.46-11.65c-.13-2.27-1.47.2-.99-4.21.33-3.04,4.85-12.74,4.96-19.83.66,0,1.32,0,1.98,0Z" style="fill:#152d38; stroke-width:0px;"/><path d="m178.99.04c-3,3.73-7.6,7.28-11.9,9.42-3.71,1.85-8.07,2.05-7.93,3.47-.58-.51-.6-.54-.5-1.49,4.2-1.94,12.12-7.81,15.37-11.4,1.65,0,3.31,0,4.96,0Z" style="fill:#161923; stroke-width:0px;"/><path d="m109.08.04c-1.19,3.59-2.01,7.26-2.97,10.91-2.22,8.35-3.42,21.31-13.88,21.82C100.25,19.71,101.09,15.06,104.62.04c1.49,0,2.97,0,4.46,0Z" style="fill:#ebfefd; stroke-width:0px;"/><path d="m112.05.04c-1.11,4.08-2.23,14.71-4.96,15.37.13-1.59.36-4.19-.99-4.46.97-3.65,1.79-7.32,2.97-10.91.99,0,1.98,0,2.97,0Z" style="fill:#84e0d5; stroke-width:0px;"/><path d="m483.42,446.27c-3.72,2.07-6.39-2.97-3.47-5.45.33.26,6.07-.55,3.47,5.45Z" style="fill:#be3d54; stroke-width:0px;"/><path d="m89.74,379.34c-.11.51-.08,1.47-.5,2.97-3.14,11.48-10.56,13.89-19.83,18.84-5.46,2.91-14.07,4.08-18.35,13.88-18.49,17.41-4.64,32.88,2.48,50.57,1.69,4.19,5.47,13.35,5.95,17.35l-.5,10.66c-7.11-14.64-31.69-56.16-35.2-68.17-1.48-28.54,16.86-26.59,34.46-41.15,12.73-10.53,16.26-24.52,19.09-40.16,6.51,10.32,10.48,22.94,12.4,35.2Z" style="fill:#0b5958; stroke-width:0px;"/><path d="m53.05,323.31c.54,3.9,2.45,9.87,4.46,13.14-10.11,8.05-2.48,27.63-2.97,29.75-.14.61-3.38,2.39-3.47,4.71-7.63,7.31-17.65,12.33-20.82,14.87h-6.45c10.2-14.03,14.95-15.11,21.82-38.92,1.86-6.44,3.66-19.79,5.45-25.29.03-.09,1.3-.81,1.49-1.24.07,1.57.37,2.1.5,2.97Z" style="fill:#161923; stroke-width:0px;"/><path d="m56.52,450.24c.93,1.42,1.05,1.42,1.98,2.48,1.31,1.49,2.55,3.07,3.97,4.46-1.14,9.76-2.69,19.46-1.98,29.25-1.65.32-.75-1.45-.99-3.47-.48-4-4.26-13.16-5.95-17.35,2.09-4.54-1.55-11.77,1.98-15.87.03.05.96.45.99.5Z" style="fill:#161923; stroke-width:0px;"/><path d="m271.21,247.45c-2.33-2.76-6.41-9.83-7.44-12.89-3.81-11.36-2.64-27.34,2.97-38.18-.25.99.17,2.95,0,4.21h-.99c-1.78,13.38,1.34,33.86,5.45,46.85Z" style="fill:#67574b; stroke-width:0px;"/><path d="m308.39,369.42c.02.17-1.09,1.01,0,3.47-5.46,4.3-8.67,11.31-13.88,16.11l-.5.99c1.1.9,1.46,1.41,1.98,2.73-.91-.28-1.93-1.96-2.23-1.98-.3-.03-1.08,1.35-1.24,1.49-5.15,4.46-1.21,18.93,4.96,12.89.04-.04.73-.42.99-.5-1.02,4.45-7.42,4.01-9.92-2.23-.5-1.24-.64-5.52-.99-6.45-.07-.19-1.6,1.97-3.47-.25.68-1.22,2.06-3.81,2.48-4.96,1.97-1.04,2.72-3.36,3.97-4.96,3.7-4.74,7.89-9.12,10.91-14.38,2.61-.6,5.22-.72,6.45-2.97,1.82-.04.44.43.5.99Z" style="fill:#152d38; stroke-width:0px;"/><path d="m301.45,371.41c-3.02,5.26-7.21,9.64-10.91,14.38-2.15-.55,5.45-9.24,7.44-14.63,2.01-.85,3.3.29,3.47.25Z" style="fill:#0a4c53; stroke-width:0px;"/><path d="m238.49,80.36c.13,2.63,1.07,7.75-1.98,7.93.02-.49-3.64-6.54,1.98-7.93Z" style="fill:#30cee7; stroke-width:0px;"/><path d="m219.15,166.64c-2,2.74-4.59,10.14-3.97,13.39-.68.29-1.4-.21-1.98-.5-.87-3.61,1.12-11.65,3.47-14.38.07-.09,1.18-.7,1.74-1.49.39.99.68,1.9.74,2.97Z" style="fill:#ebfefd; stroke-width:0px;"/><path d="m215.18,180.02c-.62-3.25,1.96-10.64,3.97-13.39.11,1.96-2.53,12.77-3.97,13.39Z" style="fill:#3abeb3; stroke-width:0px;"/><path d="m365.41,99.2c-2.13,1.81-12.03-11.16-15.37-15.62-28.89-38.58-8.13-37.97,5.45-63.46,2.39-4.48,2.3-8.23,4.96-12.15,2.95,16.35-7.35,22.83-11.4,37.93,7.57,16.98,13.73,34.89,16.36,53.3Z" style="fill:#161923; stroke-width:0px;"/><path d="m308.89,457.18c-1.41,7.09-2.91,14.58-1.49,21.82-4.79-.97,3.03,17.25,4.46,20.08,1.3,2.56,4.34,4.74,3.97,7.69-4.62-2.64-9.59-1.47-13.88-11.4-2.53-5.85-5.98-18.92-4.46-25.04.77-3.09,10.14-16.17,11.4-13.14Z" style="fill:#161923; stroke-width:0px;"/><path d="m350.04,320.83c-.33,0-.86-.14-.99.25-.53,1.52-2.66,21.04-5.45,31.73-.63,2.4-2.65,5.45-1.98,7.19-1.11,2.82-2.3,5.63-3.47,8.43.2-9.37,5.67-42.19,8.43-48.84.42-1,1.41-2.76,2.48-3.22.04.33.68,2.01.99,4.46Z" style="fill:#161923; stroke-width:0px;"/><path d="m249.89,365.46c1.49,11.03,11.16,18.02,4.46,23.3-3.18-2.81-7.07-5.26-9.92-8.43v-29.25c.07-.5.52-.55.5-.99,6.56-1.88,4.03,8.55,4.96,15.37Z" style="fill:#cf4756; stroke-width:0px;"/><path d="m231.05,320.34c7.9,15.84,6.89,38.23,8.68,39.17,5.3,2.77,3.3-5.25,3.72-7.69.57-.78.98-.68.99-.74v29.25c-6.55-7.29-15.47-22.72-17.85-32.23,2.58-.4.71-8.49.99-11.65.33-3.74,2.04-8.3,2.48-11.9.21-1.76-2.04-4.63.99-4.21Z" style="fill:#161923; stroke-width:0px;"/><path d="m265.26,397.19c-1.69,1.85-5.91-4-10.91-8.43,6.7-5.28-2.97-12.27-4.46-23.3,6.55,8.17,12.18,21.75,15.37,31.73Z" style="fill:#153d45; stroke-width:0px;"/><path d="m231.05,320.34c-3.03-.42-.78,2.46-.99,4.21-.44,3.6-2.15,8.16-2.48,11.9-.28,3.16,1.59,11.25-.99,11.65-2.49-9.95-3.67-21.3,3.22-29.75.86-.26.57.63,1.24,1.98Z" style="fill:#152d38; stroke-width:0px;"/><path d="m255.84,302.98c.28.74,1.6.64,0,4.46-5.65-2.32-14.63-.95-16.36,5.95-5.64-2.63,4.53-10.27,8.18-10.91,4.03-.71,7.06,1.34,8.18.5Z" style="fill:#0a393a; stroke-width:0px;"/><path d="m222.62.04c-12.61,49.24-1.46,54.74,1.49,76.11,4.27,31.03-12.57,55.07-7.44,89-2.35,2.73-4.34,10.77-3.47,14.38,1.14,4.72,2.89,1.16,3.47,2.23.94,1.73-4.87,19.28-.5,39.17,2.3,10.48,10.7,17.03,11.9,23.3,2.84,14.81-12.23,26.4,1.98,43.38,5.47,6.54,12.39,9.42,21.07,8.92,1.61,1.88,3.82,4.11,4.71,6.45-1.12.85-4.15-1.2-8.18-.5-3.65.64-13.83,8.28-8.18,10.91-1.11,4.44,4.08,12.58,4.96,18.59.87,5.96.34,12.1.5,18.1.02.44-.43.5-.5.99,0,.06-.42-.03-.99.74-.42,2.43,1.58,10.46-3.72,7.69-1.79-.94-.78-23.33-8.68-39.17-.67-1.35-.38-2.24-1.24-1.98-6.89,8.45-5.71,19.8-3.22,29.75,2.38,9.51,11.3,24.94,17.85,32.23,2.85,3.17,6.74,5.62,9.92,8.43,5,4.43,9.22,10.28,10.91,8.43.38,1.19.08,3.34,1.49,2.97-.03.16.03.34,0,.5-1.29,2.85-2.36,5.61-2.97,8.68-12.01,9.13-19.36,17.98-21.82,33.22-4.01,24.85,3.73,29.88,25.29,38.92-6.18,3.8-13.66,7.27-12.89,15.87-10.75-3.84-19.87-2.55-20.33,10.41-3.97,0-7.93,0-11.9,0,2.2-7.45,1.94-10.29-6.45-9.92,9.74-17.58,14.08-43.33,13.39-63.22-.85-24.19-10.76-46.53-15.87-69.91-6.92-31.66-16.46-115.77-18.84-149.73-1.95-27.82-1.41-64.58-3.97-88.75-3.92-37.05-20.33-74.78,1.98-120.23.98-2,2.02-3.95,2.97-5.95,9.09,0,18.18,0,27.27,0Z" style="fill:#0b5958; stroke-width:0px;"/><path d="m220.88,309.92c4.76-2.19,6.44,10.08.99,8.43-2.15-.65-2.36-7.8-.99-8.43Z" style="fill:#fdea34; stroke-width:0px;"/><path d="m207.74,74.91c-.59,5.83,5.46.36.5-.5,1.23-.71,3.3,0,3.97,1.24,2,3.73-7.53,4.22-4.46-.74Z" style="fill:#3d2033; stroke-width:0px;"/><path d="m207.74,74.91s.47-.48.5-.5c4.97.85-1.09,6.32-.5.5Z" style="fill:#cc306e; stroke-width:0px;"/><path d="m171.05,494.37c-8.72.79-15.36-6.23-13.88-14.87.53-3.1,2.53-7.37,5.45-8.92,5.6-2.98,16.27-.9,18.35,5.7,2.3,7.33-1.47,17.33-9.92,18.1Z" style="fill:#1c9899; stroke-width:0px;"/><path d="m135.36,199.36c-.42,8.68.29,17.36.5,26.03,2.15-.33,5.42-9.61,5.95-11.65,2.01,2.3,2.03,23.66,1.49,24.79-4.31,1.11-4.78,15.79.74,14.38.77-.2.69-1.38.74-1.49l.99.5c-1.09,1.65-1.92,1.86-1.98,1.98-7.89-3.7-5.51,10.9-10.91,14.87.13-15.92-.75-31.9-.5-47.85.12-7.2,1.05-14.29.99-21.57h1.98Z" style="fill:#0a393a; stroke-width:0px;"/><path d="m143.29,24.83c-1.36,2.11.16,1.16,3.47,1.49-11.06,16.44-6.86,45.5-7.93,65.2,3.05,3.94.85,27.45,1.49,28.76.27.56,1.2.76,1.98,1.24-.21-.08-2.62-.09-2.97,0-4.72,1.19-1.57,13.29-2.48,17.35-1.71-2.89,1.1-19.4-1.98-15.12.18-4.03.74-23.1.5-24.29-.97-4.77-4.85,1.03-6.45-1.74,2.96,0,5.26-1.38,6.94-3.72-1.62-.93-.02-1.81,0-4.96,0-.21-.97-.52-.99-1.49,0-.14,1.04-.26.99-2.48,0-.39-.98.02-.99-.74-.16-8.76.37-39.07,1.98-46.36.64-2.9,5.81-9.91,1.98-9.67,2.17-2.19,2.4-1.97,4.46-3.47Z" style="fill:#0a393a; stroke-width:0px;"/><path d="m126.93,86.31c-1.56,1.43-2.05,9.42,0,10.91.01.57-.94.98-.99,1.24-.33,1.81.83,31.67.99,36.69,0,.26-1.01,4.92-.99,5.21l-4.46-3.47c-.1-.34-.31-.7-.5-.99.25-19.65,1.81-44.42.99-63.71,0-.16-.98-2.82-.99-2.97-.23-3.8,1.14-9.73-.99-9.67,1.04-1.6.93-1.89.99-1.98,1.65-2.63,3.33-5.29,4.96-7.93.57,6.72-.73,33.47,0,35.95.12.41,1.06.02.99.74Z" style="fill:#153d45; stroke-width:0px;"/><path d="m138.33,160.19c-.8,11.6.59,26.18,0,38.18-.07-.03-.82.72-1.49-.25-.22-.32-1.06-7.48-1.49,1.24h-1.98c-.05-5.2,2.14-10.59-5.95-5.95.39-1.06.31-2.01.5-2.97,2.55-.09,4.07,1.55,4.96-1.74.26-.98-.01-19.43-.5-20.33-.13-.24-2.41-.81-2.97-.74-.03-2.18-.33-4.28-.5-6.45-.35-4.74-.33-9.88-2.48-14.38v-3.47c3.69,5.46,7.32,12.58,11.9,16.86Z" style="fill:#152d38; stroke-width:0px;"/><path d="m141.8,155.73c.4.11,1.91,1.46,1.98,1.74.73,2.6-.55,33.4,0,40.9-.31-.05-.56.68-1.98.5-1.35-.17-1.77.13-3.47-.5.59-12-.8-26.57,0-38.18.25-3.66,1.9-3.68,1.98-4.46.47.07,1.1-.11,1.49,0Z" style="fill:#13cbd3; stroke-width:0px;"/><path d="m145.77,251.91l-.99-.5c.86-1.92,1.28-11.72-1.49-12.89.54-1.13.52-22.49-1.49-24.79.07-.26-.07-3.67,0-4.21.41-3.28,1.88-3.19,0-10.66,1.43.18,1.67-.55,1.98-.5,1.1.18,1.27.42,1.98,1.24-.46,9.78,3.91,44.41,2.48,50.08-.21.82-2.39,2.09-2.48,2.23Z" style="fill:#0a393a; stroke-width:0px;"/><path d="m171.05,431.89c-4.19.03-6.42-6.62-5.45-9.92,2.12-7.22,14-5.65,12.4,4.71-.69,4.47-3.27,5.02-6.94,5.21Z" style="fill:#6d6553; stroke-width:0px;"/><path d="m143.79,253.9c-1.38,2.51-3.8,12.04-5.95,15.87-1.58-.84-3.21,4.07-5.21,4.96-.93-2.12.25-5.65.25-5.95,5.4-3.98,3.02-18.57,10.91-14.87Z" style="fill:#152d38; stroke-width:0px;"/><path d="m177,366.94c5.58.75,6.76,14.54-1.98,17.35l1.49-11.65c-.57-1.06-8.05,3.7-8.68,3.72-4.45.15,4.73-10.02,9.17-9.42Z" style="fill:#cf4756; stroke-width:0px;"/><path d="m163.12,351.08c-.84,7.63,2.12,30.5-.5,35.7-.07.13.07.38,0,.5-3.29,1.49-5.79-.26-6.45-3.72-.89-4.65.92-22.38-.5-30.49,2.05-1.43,3.57-3.81,7.44-1.98Z" style="fill:#ebe6b7; stroke-width:0px;"/><path d="m162.63,386.78c2.62-5.2-.35-28.07.5-35.7,1.17.55,2.28,2.62,2.48,3.72.26,1.41.27,27.34,0,28.76-.09.47-1.78,3.58-2.97,3.22Z" style="fill:#bdb271; stroke-width:0px;"/><path d="m131.39,85.32c.28,3-.81,12.32-3.47,12.4-.29-.06-.77-.33-.99-.5-2.05-1.49-1.56-9.48,0-10.91,1.09-1,3.24-.75,4.46-.99Z" style="fill:#7a6c5d; stroke-width:0px;"/><path d="m128.91,97.72c-.32,0-.71.06-.99,0,2.66-.07,3.75-9.39,3.47-12.4,1.08-.21,2.41-.6,3.47-.99.01.76.98.36.99.74.05,2.22-.99,2.34-.99,2.48.02.97.99,1.28.99,1.49-.02,3.15-1.62,4.03,0,4.96-1.69,2.34-3.98,3.72-6.94,3.72Z" style="fill:#5a564b; stroke-width:0px;"/><path d="m142.3,121.52c3.91,1.51,2.08,12.31,2.48,15.87-.09.23-2.21,2.81-3.97,2.97-1.35-5.44-1.22-12.81-1.49-18.84.35-.09,2.77-.08,2.97,0Z" style="fill:#ddad42; stroke-width:0px;"/><path d="m140.81,140.36c-1.2.11-3.43-.57-3.97-1.49.91-4.07-2.24-16.16,2.48-17.35.26,6.03.13,13.4,1.49,18.84Z" style="fill:#e1c362; stroke-width:0px;"/><path d="m181.96,228.61c.13.06.55-.1.5.5.03.97-1.32-.57-1.49.25-.16.74.2,12.62.5,15.12-6.7,2.11-4.35-10.74-3.97-14.38,1.53-1.61,2.04-2.63,4.46-1.49Z" style="fill:#bfefed; stroke-width:0px;"/><path d="m182.46,229.11h.5c.08.48.44.53.5.99.41,3.51,2.15,13.07-1.98,14.38-.3-2.5-.65-14.38-.5-15.12.17-.82,1.52.72,1.49-.25Z" style="fill:#84e0d5; stroke-width:0px;"/><path d="m146.76,53.59c-1.49,3.43-1.52,5.27-1.49,8.92.04,4.39,1,3.5.99,3.72-.19,9.76-2.01,19.22-.99,29,.19,1.81-.58,3.39.99,4.96-2.18,1.68-.41,18.51-.99,22.56-.24.47-2.66-1.05-2.97-1.24-.78-.48-1.71-.68-1.98-1.24-.64-1.3,1.57-24.82-1.49-28.76,1.08-19.7-3.13-48.76,7.93-65.2.84.08,1.49-.8,2.73-.5,1.91.79-3.39,24.15-2.73,27.77Z" style="fill:#0b5958; stroke-width:0px;"/><path d="m155.19,47.64c10.79,3.26-4.52,26.94-9.92,14.87-.03-3.65,0-5.49,1.49-8.92.75-1.73,3.32-4.71,4.96-5.45.56-.25,3.09-.61,3.47-.5Z" style="fill:#67574b; stroke-width:0px;"/><path d="m191.38.04c-5.13,7.26-21.15,17.81-25.29,22.81-.59-1.85-1.14-1.56-2.97-1.49,8.6-10.47,17.16-12,25.29-21.32.99,0,1.98,0,2.97,0Z" style="fill:#153d45; stroke-width:0px;"/><path d="m166.1,22.85c-5.54,6.68-8.39,16.64-10.91,24.79-.38-.12-2.91.24-3.47.5-.01-.88-1.34-.22-1.49-.74-.72-2.57,10.33-22.91,12.89-26.03,1.83-.07,2.39-.36,2.97,1.49Z" style="fill:#0b5958; stroke-width:0px;"/><path d="m195.35.04c-.96,2-1.99,3.95-2.97,5.95-.36-3.21-4.37.92-8.43,5.21-20.59,21.71-18.09,38.73-18.35,66.93l12.4,53.55c.87,12.22,2.72,24.23,5.45,36.19,2.06,17.88-.77,32.48,0,44.62.55,8.71,5.68,18.58,0,17.6-.05-.46-.42-.51-.5-.99-.09-.56.82-7.8-5.45-7.93-.03-.16.03-.34,0-.5-1.23-5.54-5.34-3.99-5.45-.5-.11,3.38,2.15,4.17,4.96,2.48,1.5,6.23,2.65,2.42,4.96,5.95-2.42-1.14-2.93-.12-4.46,1.49-2.24,2.35-1.27,4.98-1.49,8.18h-.99c-.62-12.5-4.16.69,0,6.45,2.57,3.56,4.58.94,5.7,1.24,3.86,1.04,6.31,30.77,8.68,35.45-1.48,7.21.48,5.61.5,5.95.02.44-2.03,2.3,0,8.43-1.82,3.38-3.66.94-3.97,6.45,3.81,22.24,7.97,44.16,10.91,66.44,7.18,23.74,16.5,39.5,19.83,65.45,3.55,27.66-.18,48.43-11.9,73.63-4.13,0-8.26,0-12.4,0,32.15-29.73,21.23-107.64-10.16-136.35.72,10.26-6.17,14.97-7.19,12.89,8.74-2.81,7.57-16.6,1.98-17.35-2-21.67-4.37-37.36,1.49-59,1.75-2.72,4.45-6.43,5.45-9.42.91-2.7,2.63-7.16-2.48-6.94-3.44-31.47-19.78-38.01-27.27-47.85-12.95-17.02,20.32-10.72,23.3-49.58,2.43-31.71-12.54-45.43-31.98-66.69-.76.59.34,7.3-.74,9.92-.4-3.55,1.43-14.35-2.48-15.87.32.19,2.73,1.71,2.97,1.24.58-4.05-1.19-20.88.99-22.56,5.53.09,4-7.17-.99-4.96-1.02-9.78.81-19.25.99-29,0-.22-.95.67-.99-3.72,5.4,12.06,20.7-11.61,9.92-14.87,2.52-8.15,5.37-18.11,10.91-24.79,4.14-4.99,20.16-15.54,25.29-22.81,1.32,0,2.64,0,3.97,0Z" style="fill:#152d38; stroke-width:0px;"/><path d="m180.72,342.15c1.36,1.37,3.62,1.16,4.71,2.23.76.75,10.35,18.18,3.72,19.09-2.48.34-10.03-21.03-8.43-21.32Z" style="fill:#cf4756; stroke-width:0px;"/><path d="m182.95,229.11h-.5c.05-.6-.37-.44-.5-.5-2.3-3.53-3.46.28-4.96-5.95-.22-.9.57-1.09.5-1.49,6.27.13,5.36,7.37,5.45,7.93Z" style="fill:#161923; stroke-width:0px;"/><path d="m146.26,100.2c-1.57-1.56-.8-3.14-.99-4.96,4.99-2.21,6.53,5.05.99,4.96Z" style="fill:#13cbd3; stroke-width:0px;"/><path d="m171.3,140.85c.93.04.93,4.09.74,4.71-.73,2.38-9.97,8.6-.74-4.71Z" style="fill:#ebfefd; stroke-width:0px;"/><path d="m177.5,220.68c-2.66,1-1.86,2.64-5.45-.5.11-3.49,4.22-5.05,5.45.5Z" style="fill:#bfefed; stroke-width:0px;"/><path d="m169.57,233.57c-1.79,3.48-6.28-1.47-3.47-3.47l3.47,3.47Z" style="fill:#22ab94; stroke-width:0px;"/><path d="m177.5,220.68c.03.16-.03.34,0,.5.07.39-.71.59-.5,1.49-2.81,1.69-5.06.9-4.96-2.48,3.6,3.14,2.8,1.5,5.45.5Z" style="fill:#2fbd9d; stroke-width:0px;"/><path d="m169.57,233.57l-3.47-3.47c2.27-1.61,4.72,1.04,3.47,3.47Z" style="fill:#62cdbe; stroke-width:0px;"/><path d="m138.83,354.05c-2.74,6.14-3.84,12.93-4.46,19.58-.57,6.09-1.38,61.54-.99,67.43.83,12.72,2.81,18.75,11.4,28.01.08.09.42.91.5.99-1.29,3.91,11.29,14.44,11.4,15.62.63,6.34-5.5.2-7.19-1.24-8.03-6.85-19.46-20.57-22.06-30.74v-7.44c3.23.8,1.06-2.64,1.49-6.2.14-1.17,1.4-4.07,1.49-4.96.13-1.34-.67-3.18-.5-6.45.04-.73,3.92-7.94-2.48-13.14-.13-13.67-1.65-60.05-.99-66.44.21-2,2.45-2.38.99-6.94h.5c1.17,5.33,3.55,10.36,4.96,15.62,3.81,14.24-1.38,2.34,5.95-3.72Z" style="fill:#152d38; stroke-width:0px;"/><path d="m76.85,507.75c-3.14,0-6.28,0-9.42,0,.23-.82-.48-1-.5-1.49-.22-7.21-2.12-12.7-1.49-21.07.52-6.87,7-32.31,9.92-38.67,4.05-8.83,2.49.41,5.45-4.71-1.06,13.4-13.68,47.16-9.92,57.76,1.32,3.73,6.3,6.49,5.95,8.18Z" style="fill:#1c9899; stroke-width:0px;"/><path d="m86.77,428.92c-4.13,5.05-4.75,10.81-5.95,12.89-2.97,5.12-1.41-4.12-5.45,4.71-2.92,6.37-9.4,31.8-9.92,38.67-.63,8.37,1.27,13.86,1.49,21.07-4.98-4.35-5.99-13.46-6.45-19.83-.7-9.8.85-19.5,1.98-29.25.52-4.44,2.14-8.8,1.98-13.39.57-2.96,1.53-5.59,2.48-8.43l19.83-6.45Z" style="fill:#107a79; stroke-width:0px;"/><path d="m95.69,413.05q-4.46,7.93-8.92,15.87l-19.83,6.45c.17-.51-.28-4.75,5.21-8.92,5.09-3.88,13.7-2.19,23.55-13.39Z" style="fill:#1c9899; stroke-width:0px;"/><path d="m107.1,374.88c1.37-8.33,2.99-22.13,2.48-30.24,3.12.55,9.41,5.11,9.42,8.18-3.11,5.83-9,24.42-11.9,22.06Z" style="fill:#0a4c53; stroke-width:0px;"/><path d="m126.43,349.09c-.66,6.39.86,52.77.99,66.44.1,10.24-.07,20.49,0,30.74v7.44c-.05-.19-.86.23-1.49-3.72-.31-33.96-.73-67.92-.5-101.89l.99.99Z" style="fill:#958a6c; stroke-width:0px;"/><path d="m111.31,453.71c4.71-1.45,7.38,7.27,7.69,10.66,1.07,11.99-13.92,18-15.37,13.88-.19-.54.1-10.99.5-11.4.61-.65,2.66.04,3.22-.25,5.08-2.57-.31-11.58,3.97-12.89Z" style="fill:#0b5958; stroke-width:0px;"/><path d="m93.21,461.15c.65-.06,1.46.13,1.98,0q-.74,8.68-1.49,17.35c-.57.46-8.41,9.83-9.42,11.16-3.43,4.5-6.11,11.27-7.44,9.92,1.78-7.24,5.16-13.74,7.93-20.58,2.38-5.86,5.29-11.43,6.45-17.85.57.07,1.4.06,1.98,0Z" style="fill:#0b5958; stroke-width:0px;"/><path d="m105.86,441.81c4.68-1.11,3.58,20.94,3.22,22.06-.49,1.56-4.16,3.08-4.96.99-.42-1.1-.67-22.48,1.74-23.06Z" style="fill:#cf4756; stroke-width:0px;"/><path d="m91.23,461.15c-1.15,6.42-4.07,11.99-6.45,17.85-.62.05-.46-.49-.5-.5,1.82-3.21,4.99-7.54,0-7.44,1.38-3.05,3.82-8.67,5.95-10.41.44-.02.5.43.99.5Z" style="fill:#7e2341; stroke-width:0px;"/><path d="m84.29,478.5c-4.7-1.25-2.47-1.99,0-7.44,4.99-.1,1.82,4.23,0,7.44Z" style="fill:#7f3846; stroke-width:0px;"/><path d="m96.68,460.16c-1.83.58-1.4.97-1.49.99-.52.13-1.34-.06-1.98,0,3.18-3.67.33-9.13,1.98-13.63-4.53-.81,1.3-16.69-3.47-14.13,1.09-2.19,8.14-10.24,10.41-17.11,12.2-.55-3.02,11.18-4.96,16.36q-.25,13.76-.5,27.52Z" style="fill:#c0a14c; stroke-width:0px;"/><path d="m93.21,461.15c-.58.06-1.41.07-1.98,0-.5-.06-.55-.52-.99-.5v-25.04c.43-.77,1.1-1.45,1.49-2.23,4.77-2.56-1.06,13.32,3.47,14.13-1.65,4.51,1.2,9.97-1.98,13.63Z" style="fill:#e1c362; stroke-width:0px;"/><path d="m94.7,483.46c4.95,2.33,2.87-2.36,4.46-4.46,6.25,6.09-3.57,11.23-4.46,4.46Z" style="fill:#a09935; stroke-width:0px;"/><path d="m99.16,479c-1.59,2.1.49,6.8-4.46,4.46-.46-3.49.77-8.06,4.46-4.46Z" style="fill:#f6d851; stroke-width:0px;"/><path d="m126.43,331.74c2.6,3.51.76,7.13,1.49,10.41h-.5l-2.48,1.98c-.04-.33-2.48-2.08,0-6.2-3.88-4.46-1.95-6.75-1.98-7.69.21,0,1.76-.82,3.47,1.49Z" style="fill:#be3d54; stroke-width:0px;"/><path d="m127.42,342.15c1.46,4.57-.79,4.94-.99,6.94l-.99-.99c.3-1.81-.38-2.94-.5-3.97l2.48-1.98Z" style="fill:#e9e0d1; stroke-width:0px;"/><path d="m107.1,15.41c-2.06,24.79-37.8,66.09-26.77,108.09,1.01,3.84,3.89,10.63,5.45,15.37,5.62,17.08,11.97,30.06,14.38,49.09.15,1.16.43,1.78.5,2.48.33,3.45.75,8.06.5,11.4-.64,8.24-4.09,9.62-4.96,10.91-1.38-5.95-13.67,15.24-15.37,19.83-.06.17.09.55-.5.5l-.5-13.39c6.9-43.47,11.82-33.79-4.96-81.81-2.09-5.97-7.34-15.19-3.22-15.37,1.91-.09.69,1,2.23,2.48,2.33,2.24,2.88,3.45,2.97-3.22.02-1.48-1.66-19.56-1.98-21.32-1-5.4-1.02-.65-1.49,1.74-.33,0-.86-.14-.99.25-.75,2.15-1.64,10.46-2.97.99-3.18-22.57,7.58-47.36,18.84-66.44,1.64-2.78,3.81-3.97,3.97-4.21,10.46-.51,11.67-13.46,13.88-21.82,1.35.27,1.12,2.87.99,4.46Z" style="fill:#1c9899; stroke-width:0px;"/><path d="m264.27,410.57c-4.17,12.2-14.28,22.8-13.39,36.44.51,7.76,7.38,18.69,15.87,15.12,2.66-1.12,2.71-3.05,1.98-5.45l1.49-.5c1.87,3.07,8.58,19.77,8.92,22.06,1.28,8.53-3.2,21.23,4.71,27.52,2.09-.28.6-39.01.25-42.14.34,0,.86-.13.99.25.9,2.58-1.04,36.37.5,43.88-3.64,0-7.27,0-10.91,0-4.3-3.03-9.03-4.15-10.41-10.16-2.27-9.86,5.92-15,2.97-16.11-21.56-9.04-29.29-14.07-25.29-38.92,2.46-15.24,9.81-24.09,21.82-33.22.61-3.07,1.69-5.83,2.97-8.68-.52,2.54-1.72,7.69-2.48,9.92Z" style="fill:#14212b; stroke-width:0px;"/><path d="m261.04,467.1c6.78-.66,11.24,2.83,10.66,4.71-.67,2.16-16.52-.28-19.09-.74-3.37-1.55,7.82-3.91,8.43-3.97Z" style="fill:#152d38; stroke-width:0px;"/><path d="m477.96,495.85c1.97,3.79-4.24,2.56-3.47,5.21.22.75,7.1,4.65,7.93,6.69-1.49.01-2.97,0-4.46,0-6.66-5.76-16.76-12.28-24.54-16.36-2.89-1.51-9.18-2.33-8.68-4.46,10.82-1.39,23.08,6.38,31.98,9.42.39.13,1.28.13,1.24-.5Z" style="fill:#153d45; stroke-width:0px;"/><path d="m477.96,495.85c.04.63-.85.63-1.24.5-8.9-3.04-21.16-10.81-31.98-9.42.76-3.25,28.57-.05,33.22,8.92Z" style="fill:#0b5958; stroke-width:0px;"/><path d="m74.87,137.88c16.78,48.02,11.85,38.34,4.96,81.81-.27,1.67-4.18,6.19.5,13.39l-.99,1.24c.74,3.02.74,6.1.99,9.17-5.11,1.71.12,13.07-4.71,13.39-1.44.09-2.33-2.34-3.72-.99-1.31-5.48-5.95-17.92-6.45-22.56-2.66-24.91,13.61-35.12,12.4-59-.62-12.28-6.09-23.73-8.92-35.45,2.15-2.53,3.36-1.53,5.95-.99Z" style="fill:#107a79; stroke-width:0px;"/><path d="m73.88,124.99c-2.52-9-2.27-13.84-.5-22.81.47-2.38.49-7.13,1.49-1.74.33,1.76,2,19.84,1.98,21.32-.09,6.67-.65,5.46-2.97,3.22Z" style="fill:#bfefed; stroke-width:0px;"/><path d="m80.32,243.49c.54,6.48,2.53,13.57,2.48,20.08-.07,8.45-4.91,20.1-.99,22.56-1.33,3.4-3.3,6.15-3.97,9.92-1.9.41.1,7.67-3.97,1.24-.08-.12-.25-1.87-.74-2.73-.39.05.16,7.7-2.73,3.97,3.52-20.13,6.75-20.62,1.49-42.64,1.39-1.35,2.28,1.09,3.72.99,4.83-.32-.4-11.67,4.71-13.39Z" style="fill:#107a79; stroke-width:0px;"/><path d="m80.82,313.89c-1.58,9.11-1.52,19.44-3.47,30.24-2.83,15.64-6.36,29.63-19.09,40.16-17.6,14.56-35.94,12.61-34.46,41.15-.24-.81-.31-1.69-.5-2.48-2.84-11.96-3.67-28.68,6.94-37.19,3.18-2.55,13.19-7.56,20.82-14.87.7-.67,1.82-1.28,2.48-1.98-.67,9.55,6.66-.16,5.7-7.93-.68.58-1.16,1.31-1.74,1.98.35-4.78,2.26-10.29,3.47-15.37,1.86-.22,6.67-11.44,7.93-14.63,2.54-6.41,4.3-13.05,6.45-19.58,1.45.66,3.9.18,5.45.5Z" style="fill:#1c9899; stroke-width:0px;"/><path d="m75.36,313.4c-2.15,6.54-3.91,13.17-6.45,19.58-1.26,3.18-6.08,14.4-7.93,14.63,3.3-13.79,5.46-27.71,7.93-41.65,1.55.96,5.18,6.86,6.45,7.44Z" style="fill:#1c9899; stroke-width:0px;"/><path d="m53.55,368.93c1.76-1.86,2.58-4.31,3.97-5.95.57-.67,1.05-1.41,1.74-1.98.95,7.77-6.37,17.49-5.7,7.93Z" style="fill:#bfefed; stroke-width:0px;"/><path d="m51.07,415.04c-4.01,9.2.08,27.07,4.46,34.71-3.54,4.09.1,11.32-1.98,15.87-7.12-17.7-20.97-33.16-2.48-50.57Z" style="fill:#152d38; stroke-width:0px;"/><path d="m255.84,307.45c6.85,2.81,9.18,13.02,9.92,19.34.67,5.73-.14,10.79,0,16.36.06,2.31-.04,4.63,0,6.94-.31-.03-.97.6-.99.74-1.01,5.95,3.92,33.34,3.47,42.89-.41,2.18-1.07,4.25-1.49,6.45-1.41.36-1.11-1.78-1.49-2.97-3.19-9.98-8.82-23.56-15.37-31.73-.92-6.82,1.6-17.25-4.96-15.37-.16-5.99.37-12.14-.5-18.1-.87-6.01-6.07-14.15-4.96-18.59,1.73-6.9,10.71-8.27,16.36-5.95Z" style="fill:#1c9899; stroke-width:0px;"/><path d="m268.23,393.72c.45-9.55-4.48-36.93-3.47-42.89.02-.14.68-.78.99-.74,1.43,12.39,14.9,18.75,2.48,43.63Z" style="fill:#107a79; stroke-width:0px;"/><path d="m296,392.72c1.53,3.86,3.51,7.4,2.48,11.9-.26.08-.95.46-.99.5-.14-2.47-.7,2.17-2.97-.25-1.2-4.2.83-9.14-1.98-12.64.16-.14.94-1.51,1.24-1.49.3.03,1.32,1.71,2.23,1.98Z" style="fill:#f0be3b; stroke-width:0px;"/><path d="m297.49,405.12c-6.17,6.04-10.1-8.43-4.96-12.89,2.81,3.5.79,8.44,1.98,12.64,2.27,2.42,2.83-2.22,2.97.25Z" style="fill:#c0a14c; stroke-width:0px;"/><path d="m236.5,130.94c-4.94,2.12-6.59-4.18-.99-4.96,2.78,1.93.98,4.68.99,4.96Z" style="fill:#3c2d37; stroke-width:0px;"/><path d="m235.26,128.46c1.17-.1.5.43.5.5-.12,2.19-2.03-.36-.5-.5Z" style="fill:#e58092; stroke-width:0px;"/><path d="m366.4,306.95c4.92,9.75,9.19,12.94,13.88,18.84-2.19,4.71-6.53,9.22-8.92,13.39-.39-7.13,3.79-11.42-3.97-18.35-3.86-3.44-9.72-4.92-14.38-7.19-1.19-7.4-1.5-14.85-1.98-22.31-.02-.38-.96-.11-.99-.5-.56-6.05,2.67,4.04,4.96,7.44,1.89,2.81,8.18,10.03,11.4,8.68Z" style="fill:#152d38; stroke-width:0px;"/><path d="m371.36,339.18c-.36.62-.75,1.27-1.49,1.49-.96-5.96-.03-11.17-1.98-17.11-.13-.4-1.71.35-.5-2.73,7.76,6.92,3.57,11.22,3.97,18.35Z" style="fill:#153d45; stroke-width:0px;"/><path d="m293.27,420.99c5-1.17,4.09,7.96-.5,6.45-1.94-.64-2.48-5.75.5-6.45Z" style="fill:#be556d; stroke-width:0px;"/><path d="m273.69,408.59c-.06-.58,1.3-.7,1.49-.99-.13.14.53,1.31-1.49.99Z" style="fill:#107a79; stroke-width:0px;"/><path d="m134.86,300.5c2.83,5.56,3.82,12.85,3.97,19.09,0,.33.62.27.99.25-.04,1.54-4.11,7.48-4.96,9.42h-6.94c.65-3.45-1.12-31.19.5-39.17,3.27,6.43,6.05,9.63,6.45,10.41Z" style="fill:#0b5958; stroke-width:0px;"/><path d="m108.09,222.17c-.52,4.36,5.99,8.94,6.94,12.64.38,1.47.39,26.08-.5,30-6.5-13.32-10.67-27.86-11.16-42.64,1.56-.09,3.16.13,4.71,0Z" style="fill:#152d38; stroke-width:0px;"/><path d="m143.29,305.46c8.38,12.87,5.65,21.19,4.46,35.7-1.04,1.14-2.03,2.25-2.97,3.47-2.71-3.29-2.58-11.84-5.95-13.88,1.44-1.53,2.65-3.26,3.47-5.21.41-3.73-.5-5.89-.5-6.2.01-.46.99-1.64.99-1.74.04-2.13-3.05-12.3.5-12.15Z" style="fill:#0b5958; stroke-width:0px;"/><path d="m128.42,290.09c-1.62,7.98.16,35.72-.5,39.17-.27,1.44-.91,1.39-1.49,2.48-1.71-2.31-3.26-1.48-3.47-1.49-.47-13.24.02-26.88,0-40.16,2.27.13,3.45,1.66,4.46-.99.59.04.77.55.99.99Z" style="fill:#153d45; stroke-width:0px;"/><path d="m127.42,289.1c-1.01,2.65-2.19,1.13-4.46.99,0-4.22.33-19.18,0-20.58-.09-.37-.66-.25-.99-.25.76-4.55.22-10.41.74-10.41.02,12.97,2.3,2.54,4.21,7.19,2.84,6.89,1.33,15.93.5,23.06Z" style="fill:#3b3d42; stroke-width:0px;"/><path d="m143.29,305.46c-3.54-.15-.46,10.01-.5,12.15,0,.1-.98,1.27-.99,1.74l-1.98.5c-.37.02-.98.08-.99-.25-.15-6.24-1.13-13.53-3.97-19.09,4.36-4.13,6.37,1.79,8.43,4.96Z" style="fill:#153d45; stroke-width:0px;"/><path d="m150.73,268.77c-1.21,1.47,5.19,8.29,5.7,8.43.29.08,1.15-2.37,2.73-1.98,6.37,10.64-.13,20.94-7.93,20.33-12.84-1-13.95-24.61-3.47-26.77.57-.12,2.31-.09,2.97,0Z" style="fill:#62cdbe; stroke-width:0px;"/><path d="m159.16,275.22c-1.58-.39-2.44,2.06-2.73,1.98-.51-.14-6.92-6.96-5.7-8.43,3.27.42,6.78,3.69,8.43,6.45Z" style="fill:#84e0d5; stroke-width:0px;"/><path d="m183.95,298.52c-1.01,2.99-3.71,6.7-5.45,9.42-.97.14-4.91,3.58-5.21,3.47-.9-.34-3.12-11.58,4.21-17.35l6.45,4.46Z" style="fill:#3abeb3; stroke-width:0px;"/><path d="m181.47,291.58c5.11-.22,3.39,4.24,2.48,6.94l-6.45-4.46c1.35-1.07,1.94-2.39,3.97-2.48Z" style="fill:#f9fdfd; stroke-width:0px;"/><path d="m168.58,319.34s.36.68.5.99c-5.62,9.54-13.25,17.49-19.34,26.77-8.67,13.21-9.45,17.94-9.92,34.21-.21,7.48-.04,66.22.5,69.66.66,4.26,3.66,12.19,6.94,15.12l-2.48,2.97c-8.6-9.27-10.57-15.3-11.4-28.01-.39-5.89.42-61.34.99-67.43.62-6.65,1.72-13.45,4.46-19.58.04-.08.2.1.99-1.49.78-1.56,3.95-6.63,4.96-7.93.95-1.22,1.93-2.33,2.97-3.47,1.78-1.95,4.09-3.53,5.95-5.45,3.4-3.52,5.64-2.75,10.41-11.4,1.09-1.98,2.34-3.73,2.97-5.95,1.22-.19,1.4.9,1.49.99Z" style="fill:#3b3d42; stroke-width:0px;"/><path d="m147.75,268.77c-10.48,2.16-9.37,25.77,3.47,26.77,6.55,4.25,14.01,7.45,18.1,14.38,3.31-7.88,4.01,10.49-.74,9.42-.09-.09-.27-1.18-1.49-.99.61-2.16.67-4.59,1.49-6.69-.42-2.43-27.03-12.22-31.24-20.82-2.79-5.71-1.97-14.88,1.98-20.08,1.82-2.39,8.75-8.08,8.43-1.98Z" style="fill:#47494a; stroke-width:0px;"/><path d="m143.29,376.86c-.26,2.69-.42,5.23-.5,7.93-.21,7.72.4,62.57.99,66.19,1.11,6.82,5.54,17,12.89,19.09-.09-.01-.39.81-1.74.5-.43-.1-7.35-4.17-7.69-4.46-3.28-2.93-6.28-10.86-6.94-15.12-.53-3.44-.71-62.18-.5-69.66,4.48.18,1.04-4.35,3.47-4.46Z" style="fill:#839e99; stroke-width:0px;"/><path d="m152.21,349.59c-2.64,4.49-5.58,10.37-6.94,15.37-1.07,3.94-1.59,7.84-1.98,11.9-2.43.11,1.01,4.64-3.47,4.46.46-16.27,1.25-21,9.92-34.21,2.06-.56,1.14,1.63,2.48,2.48Z" style="fill:#7e8884; stroke-width:0px;"/><path d="m152.21,349.59c-1.34-.85-.42-3.04-2.48-2.48,6.09-9.28,13.71-17.23,19.34-26.77.05.11,1.07-.64.99,1.24-.23,5.37-14.42,22.18-17.85,28.01Z" style="fill:#92968c; stroke-width:0px;"/><path d="m147.26,466.1c.33.3,7.25,4.36,7.69,4.46,1.34.31,1.65-.51,1.74-.5,2.16.29,3.87-.29,5.95.5-2.93,1.56-4.92,5.82-5.45,8.92-3.66-2.51-8.89-6.31-11.9-9.42-.08-.08-.41-.9-.5-.99l2.48-2.97Z" style="fill:#5b5a5c; stroke-width:0px;"/><path d="m147.26,365.95c-1.2,5.31-.71,13.22-1.98,18.84h-2.48c.08-2.7.23-5.25.5-7.93.4-4.06.91-7.96,1.98-11.9l1.98.99Z" style="fill:#153d45; stroke-width:0px;"/><path d="m164.11,324.3c-4.77,8.65-7.01,7.88-10.41,11.4-5.4,1.52,9.97-15.02,10.41-14.13.52,1.04-2.07,3.01,0,2.73Z" style="fill:#153d45; stroke-width:0px;"/><path d="m133.37,199.36c.06,7.27-.88,14.37-.99,21.57-.26,15.95.63,31.93.5,47.85,0,.3-1.18,3.83-.25,5.95,2-.89,3.63-5.8,5.21-4.96.26.14-.91,1.98,1.49.99-3.95,5.2-4.78,14.37-1.98,20.08,4.21,8.61,30.81,18.4,31.24,20.82-.82,2.1-.87,4.54-1.49,6.69-.63,2.22-1.88,3.97-2.97,5.95-2.07.29.52-1.68,0-2.73-.44-.89-15.81,15.65-10.41,14.13-1.86,1.92-4.17,3.51-5.95,5.45,1.18-14.51,3.91-22.82-4.46-35.7-2.06-3.17-4.07-9.09-8.43-4.96-.4-.78-3.18-3.99-6.45-10.41-.22-.44-.4-.95-.99-.99.83-7.13,2.34-16.17-.5-23.06-1.91-4.65-4.19,5.78-4.21-7.19-.52,0,.02,5.86-.74,10.41-2.13,12.76-5.34-.17-7.44-4.46.88-3.92.87-28.53.5-30-.95-3.71-7.46-8.29-6.94-12.64,1.34-.11,4.1.62,4.96-.25.95-.97,6.02-18.18,7.44-21.32,1.23-2.72,1.92-2.1,1.98-2.23,2.52-.08,4.25-3.02,4.96-4.96,8.09-4.64,5.9.75,5.95,5.95Z" style="fill:#152d38; stroke-width:0px;"/><path d="m126.93,243.98l-2.97-.5c.09-2.98-.75-7.96-.5-8.68.08-.22,3.98-2.25,4.21-2.23,2.78.21,2.37,7.74,2.23,8.18-.29.92-2.6,1.77-2.97,3.22Z" style="fill:#cf4756; stroke-width:0px;"/><path d="m123.7,214.23c.68.03.83.28,1.24.74-.98,1.24-4.63,10.5-5.21,10.66-.19.05-3.09-1.76-3.22-2.23-.61-2.12,4.35-9.31,7.19-9.17Z" style="fill:#eb6277; stroke-width:0px;"/><path d="m123.7,219.19c2.38,8.27-1.01,15.28-.99,23.3.06-7.72-2.51-16.14.99-23.3Z" style="fill:#152d38; stroke-width:0px;"/><path d="m123.95,243.49l2.97.5c-.72,2.75,1.8,9.96-2.73,8.43-1.94-.66-1.3-6.5-1.24-8.68.01-.41.99-.2.99-.25Z" style="fill:#13cbd3; stroke-width:0px;"/><path d="m134.86,329.26c-.69,1.57-1.28,3.15-1.98,4.71.39.75,3.52-.94,3.97-1.24,3.33,1.25-.03,15.87,2.97,19.83-.8,1.59-.96,1.41-.99,1.49-7.33,6.06-2.14,17.96-5.95,3.72-1.4-5.25-3.78-10.28-4.96-15.62-.72-3.28,1.11-6.9-1.49-10.41.57-1.09,1.21-1.04,1.49-2.48h6.94Z" style="fill:#0a393a; stroke-width:0px;"/><path d="m144.78,344.63c-1.01,1.3-4.18,6.38-4.96,7.93-3-3.96.35-18.59-2.97-19.83.12-.08,1.69-1.67,1.98-1.98,3.37,2.04,3.24,10.59,5.95,13.88Z" style="fill:#0a393a; stroke-width:0px;"/><path d="m138.33,198.37c1.7.62,2.12.32,3.47.5,1.88,7.47.41,7.38,0,10.66-.07.54.07,3.95,0,4.21-.53,2.04-3.8,11.32-5.95,11.65-.21-8.67-.92-17.35-.5-26.03.42-8.72,1.27-1.56,1.49-1.24.67.97,1.42.22,1.49.25Z" style="fill:#152d38; stroke-width:0px;"/><path d="m143.29,238.53c2.77,1.17,2.34,10.97,1.49,12.89-.05.11.02,1.29-.74,1.49-5.52,1.41-5.05-13.27-.74-14.38Z" style="fill:#02b2b9; stroke-width:0px;"/><path d="m134.86,84.33c-1.06.39-2.39.78-3.47.99-1.22.24-3.37,0-4.46.99.07-.73-.87-.33-.99-.74-.73-2.48.57-29.23,0-35.95,2.92-4.75,4.88-13.23,12.89-21.32,3.82-.24-1.34,6.77-1.98,9.67-1.62,7.28-2.15,37.6-1.98,46.36Z" style="fill:#0b5958; stroke-width:0px;"/><path d="m120.98,135.89c-.32-.52-8.53-5.49-10.16-6.94-7.9-7-9.76-12.83-11.16-14.38-9.32-25.72,8.75-37.27,20.33-55.04,2.13-.07.77,5.87.99,9.67,0,.16.98,2.82.99,2.97.82,19.29-.75,44.06-.99,63.71Z" style="fill:#0b5958; stroke-width:0px;"/><path d="m125.94,140.36c.01.25.79,1,.5,2.97v3.47c-1.41.27-2.18-.98-3.47-1.98-1-.77-2.49-2.29-3.47-2.97,2.01,1.61,2.38-3.61,1.98-4.96l4.46,3.47Z" style="fill:#47494a; stroke-width:0px;"/><path d="m184.44.04c-2.54,5.27-10.39,9.09-15.87,11.9l-1.49-2.48c4.3-2.14,8.9-5.69,11.9-9.42,1.82,0,3.64,0,5.45,0Z" style="fill:#3c2d37; stroke-width:0px;"/><path d="m159.16,12.93c.61.53,1.61.17,1.49,2.48-5.65,2.93-9.44,3.63-17.35,9.42-2.06,1.51-2.3,1.28-4.46,3.47-8.01,8.09-9.97,16.57-12.89,21.32-1.62,2.64-3.3,5.31-4.96,7.93-7.48,9.27-19.67,22.58-23.3,33.47-1.08,3.24-1.47,15.05-4.46,6.2,1.2-18.49,13.2-27.6,21.82-42.39,6.99-11.99,10.02-25.43,21.82-34.46,3.56-2.72,8.28-4.28,11.9-6.94.13,1.99,7.33-.79,9.92-1.98-.1.95-.09.98.5,1.49Z" style="fill:#cf4756; stroke-width:0px;"/><path d="m120.98,57.56c-.06.09.05.38-.99,1.98-11.58,17.77-29.64,29.31-20.33,55.04-2.31-2.56-1.54-1.61-4.96-1.49-.06-.36-.05-.55-.5-.5-.83-5.11-1.33-10.18-.99-15.37,2.99,8.85,3.38-2.95,4.46-6.2,3.63-10.89,15.82-24.19,23.3-33.47Z" style="fill:#9f4548; stroke-width:0px;"/><path d="m168.58,11.94c-2.58,1.33-5.4,2.15-7.93,3.47.13-2.3-.88-1.95-1.49-2.48-.13-1.42,4.22-1.62,7.93-3.47l1.49,2.48Z" style="fill:#4e2a39; stroke-width:0px;"/><path d="m99.66,114.57c1.4,1.55,3.26,7.38,11.16,14.38,1.64,1.45,9.84,6.42,10.16,6.94.18.3.4.65.5.99.39,1.35.03,6.57-1.98,4.96-10.5-7.37-22.37-14.29-24.79-28.76,3.42-.12,2.65-1.07,4.96,1.49Z" style="fill:#67574b; stroke-width:0px;"/><path d="m126.43,146.8c2.14,4.5,2.13,9.63,2.48,14.38-.84,6.3-1.87,12.51-2.48,18.84-2.39-.01.36-3.48-1.49-3.72-.63-7.89-.76-15.94-1.49-23.8-.22-2.37-2.04-5.98-.5-7.69,1.29,1,2.06,2.25,3.47,1.98Z" style="fill:#29343d; stroke-width:0px;"/><path d="m127.92,190.43c.15-.77.41-1.86.5-2.48.48-3.44,1.05-16.31.99-20.33.56-.07,2.85.51,2.97.74.48.89.76,19.35.5,20.33-.88,3.28-2.41,1.65-4.96,1.74Z" style="fill:#153d45; stroke-width:0px;"/><path d="m128.42,187.95c-.09.62-.35,1.71-.5,2.48-.18.96-.11,1.92-.5,2.97-.71,1.94-2.44,4.88-4.96,4.96.38-.81,1.16-1.17,1.49-1.98,2.08-2.73,2.76-6.6,2.97-9.92l1.49,1.49Z" style="fill:#3ca399; stroke-width:0px;"/><path d="m129.41,167.63c.06,4.02-.51,16.88-.99,20.33l-1.49-1.49c.15-2.27-.72-4.12-.5-6.45.61-6.33,1.64-12.54,2.48-18.84.16,2.17.46,4.27.5,6.45Z" style="fill:#95e5c0; stroke-width:0px;"/><path d="m156.68,390.74c.61,9.37,2.42,24.63,8.92,31.24-.97,3.3,1.26,9.94,5.45,9.92-6.03.3-16.42-11.69-13.88-14.63-3.52-8.45-6.45-17.31-8.92-26.03,3.2-1.06,7.82-.34,8.43-.5Z" style="fill:#0a393a; stroke-width:0px;"/><path d="m127.92,97.72c.29.06.67,0,.99,0,1.59,2.76,5.47-3.04,6.45,1.74.24,1.19-.31,20.26-.5,24.29,3.09-4.27.27,12.23,1.98,15.12.54.91,2.77,1.6,3.97,1.49,1.75-.16,3.87-2.75,3.97-2.97,1.08-2.62-.02-9.33.74-9.92,19.44,21.25,34.41,34.98,31.98,66.69-2.98,38.86-36.26,32.57-23.3,49.58,7.49,9.83,23.83,16.38,27.27,47.85-2.03.09-2.61,1.41-3.97,2.48-7.34,5.77-5.12,17.02-4.21,17.35.29.11,4.24-3.33,5.21-3.47-5.86,21.64-3.49,37.34-1.49,59-4.44-.6-13.63,9.57-9.17,9.42.62-.02,8.11-4.77,8.68-3.72l-1.49,11.65c1.02,2.07,7.9-2.63,7.19-12.89,31.4,28.71,42.31,106.62,10.16,136.35-6.78,0-13.55,0-20.33,0q-.5-6.69-.99-13.39c8.45-.77,12.22-10.76,9.92-18.1-2.07-6.6-12.75-8.68-18.35-5.7-2.08-.78-3.79-.2-5.95-.5-7.35-2.09-11.78-12.27-12.89-19.09-.59-3.62-1.21-58.47-.99-66.19h2.48c.92,1.54,2.54,4.91,2.97,6.45,2.48,8.72,5.4,17.58,8.92,26.03-2.54,2.93,7.85,14.93,13.88,14.63,3.67-.18,6.25-.73,6.94-5.21,1.6-10.36-10.27-11.93-12.4-4.71-6.51-6.61-8.32-21.86-8.92-31.24.08-.02-.22-1.34.25-1.49,1.17-.37,4.72.06,5.7-1.98.07-.12-.07-.36,0-.5,1.19.36,2.89-2.75,2.97-3.22.27-1.41.26-27.34,0-28.76-.2-1.1-1.31-3.16-2.48-3.72-3.87-1.83-5.39.55-7.44,1.98-4.01,2.8-7.37,8.22-8.43,12.89l-1.98-.99c1.36-5,4.3-10.88,6.94-15.37,3.43-5.83,17.62-22.64,17.85-28.01.08-1.88-.94-1.13-.99-1.24-.14-.31-.46-.95-.5-.99,4.75,1.07,4.05-17.3.74-9.42-4.08-6.93-11.54-10.13-18.1-14.38,7.8.61,14.31-9.69,7.93-20.33-1.65-2.75-5.16-6.02-8.43-6.45-.67-.09-2.41-.12-2.97,0,.32-6.1-6.61-.4-8.43,1.98-2.4.99-1.22-.85-1.49-.99,2.15-3.83,4.57-13.36,5.95-15.87.07-.12.89-.33,1.98-1.98.09-.14,2.27-1.41,2.48-2.23,1.43-5.67-2.94-40.29-2.48-50.08-.71-.82-.88-1.06-1.98-1.24-.55-7.5.73-38.31,0-40.9-.08-.27-1.58-1.62-1.98-1.74,2.86-16.87-2.77-23.35-1.49,0-.08.78-1.73.8-1.98,4.46-4.58-4.28-8.21-11.4-11.9-16.86.3-1.98-.48-2.73-.5-2.97-.02-.29,1-4.94.99-5.21-.16-5.02-1.32-34.88-.99-36.69.05-.26,1-.67.99-1.24.22.16.71.43.99.5Z" style="fill:#0b5958; stroke-width:0px;"/><path d="m198.08,441.81c9.28-1.64,8.69,14.72.99,15.37-8.59.72-8.3-14.08-.99-15.37Z" style="fill:#67574b; stroke-width:0px;"/><path d="m152.21,200.85c.43-4.25-1.34-10.21,1.98-12.4,1.69-.46,2.79-.98,3.47.74,1.87,5.95-1.77,19.79-5.45,11.65Z" style="fill:#cf4756; stroke-width:0px;"/><path d="m179.48,431.89c2,1.58,3.08-.31,4.96-1.98,3.77,5.16-4.61,5.99-4.96,1.98Z" style="fill:#300d1d; stroke-width:0px;"/><path d="m184.44,429.91c-1.88,1.68-2.96,3.56-4.96,1.98-.18-2.09,2.55-5.28,4.96-1.98Z" style="fill:#7e2341; stroke-width:0px;"/><path d="m141.8,155.73c-.39-.11-1.02.07-1.49,0-1.28-23.35,4.34-16.87,1.49,0Z" style="fill:#0a393a; stroke-width:0px;"/><path d="m154.2,188.45c-3.33,2.19-1.55,8.14-1.98,12.4-1.33-2.95-.04-7.94-.5-11.16,1.18-1.63,1.95-1.1,2.48-1.24Z" style="fill:#0a393a; stroke-width:0px;"/><path d="m164.36,443.79c-.6,3.48,2.77,13.29,2.23,14.63-.88,2.2-5.91,2.08-4.96-2.97.11-.6,2.08-1.35,2.73-11.65Z" style="fill:#47132a; stroke-width:0px;"/><path d="m163.87,454.21c1.05-.47,1.05,1.96,0,1.49-.4-.18-.4-1.31,0-1.49Z" style="fill:#aa365c; stroke-width:0px;"/><path d="m383.76,390.25c.48.98,1.55,2.02,1.98,2.97-3.55.26-.97,3-.99,3.22-.03.3-1.31-.32-.99,2.23.25,2.01.41,4.77,2.97,4.46-.66,4.89-3.17,4.88-4.46,2.23-1.53-3.14.84-10.66-1.49-12.15.75-.78,2.84-2.81,2.97-2.97Z" style="fill:#cf4756; stroke-width:0px;"/><path d="m386.73,394.71c.16.8.15,7.32,0,8.43-2.57.31-2.72-2.45-2.97-4.46,3.91.36-.02-4.5,2.97-3.97Z" style="fill:#f57a7c; stroke-width:0px;"/><path d="m385.74,393.22c.04.08.79.5.99,1.49-3-.54.94,4.32-2.97,3.97-.32-2.55.96-1.93.99-2.23.02-.23-2.56-2.97.99-3.22Z" style="fill:#fea19e; stroke-width:0px;"/><path d="m99.66,217.21c-1.14-.47-2.86-2.94-3.22-2.97-1.14-.12-1.83,2.21-3.22,1.98.44-1.16,2.19-2.3,2.97-3.47.87-1.29,4.32-2.67,4.96-10.91,11.08,1.2,2.77,10.29-1.49,15.37Z" style="fill:#0a393a; stroke-width:0px;"/><path d="m123.95,196.38c-.33.82-1.1,1.18-1.49,1.98-.06.13-.76-.49-1.98,2.23-1.42,3.14-6.48,20.35-7.44,21.32-.86.87-3.62.14-4.96.25-1.55.13-3.15-.09-4.71,0,.48,14.78,4.65,29.32,11.16,42.64,2.1,4.29,5.31,17.22,7.44,4.46.33,0,.9-.12.99.25.33,1.4,0,16.35,0,20.58.02,13.28-.47,26.92,0,40.16-4.4-.17-9.69,7.78-13.88,9.92-1.79-14.38-9.35-23.95-23.3-27.77-1.3-.36-3.18-2.11-4.46-.99-.73.4-.31,1.41-.5,2.48-1.55-.31-4,.16-5.45-.5-1.26-.57-4.9-6.47-6.45-7.44.44-2.49,1.05-4.96,1.49-7.44,2.88,3.73,2.34-3.91,2.73-3.97.49.85.67,2.61.74,2.73,4.07,6.43,2.07-.83,3.97-1.24-.17.94-1.14,2.58,0,4.96-4.2,2.99,4.33,8.3,5.95,6.45,1.04-14.46,20.09-20.18,18.84-35.2.64.21,1.86-.85,1.98-1.24.32-1.02.64-20.26.5-21.32-1.03-7.57-5.22-7.48-5.45-7.93-.56-1.09.43-21.05,0-24.54,4.26-5.08,12.57-14.17,1.49-15.37.26-3.35-.17-7.96-.5-11.4,4.64,1.52,8.25,4.69,13.39,4.21-.81,6.05-8.31,16.39-8.43,17.35-.26,2.01,2.9,5.18,3.22,5.21,3.9.33,7.24-36.9,15.12-20.82Z" style="fill:#0b5958; stroke-width:0px;"/><path d="m108.58,266.79c.12.08,1.9,1.4,1.98,1.49,3.33,2.66.7,17.02-3.22,15.37-.86-.36-2.08-19.93,1.24-16.86Z" style="fill:#ddad42; stroke-width:0px;"/><path d="m108.58,266.79c-3.32-3.07-2.1,16.5-1.24,16.86,3.92,1.65,6.55-12.71,3.22-15.37.08.08.82-.3,1.98,1.24.26,3.39.87,18.97-6.2,14.63-1.58-.97-1.67-18.89.99-18.84.35,0,1.16,1.44,1.24,1.49Z" style="fill:#10392a; stroke-width:0px;"/><path d="m82.3,35.74c-8.14,19.57-14.29,28.05-16.86,50.82-2.11,18.73-.92,34.12,3.47,52.31,2.83,11.72,8.3,23.17,8.92,35.45,1.21,23.88-15.06,34.09-12.4,59,.5,4.64,5.14,17.08,6.45,22.56,5.26,22.02,2.04,22.51-1.49,42.64-.43,2.47-1.05,4.95-1.49,7.44-2.48,13.94-4.63,27.86-7.93,41.65-1.21,5.08-3.12,10.59-3.47,15.37-1.39,1.64-2.21,4.09-3.97,5.95-.66.7-1.78,1.31-2.48,1.98.09-2.32,3.33-4.1,3.47-4.71.5-2.12-7.14-21.7,2.97-29.75-2.01-3.27-3.92-9.24-4.46-13.14,4.5-10.11,6.75-21.08,10.41-31.48,2.22-6.31,7.42-9.58,4.96-20.33-.5-2.19-14.62-29.84-15.37-42.14-.94-15.39,10.45-33.08,11.4-48.59.35-5.61-3.24-32.71-3.97-34.71-.08-.21-.95.1-2.73-3.22-1.63,2.88-.14,7.62-2.73,6.94-2.33-31.28-6.03-57.54,3.47-88.25,2.11-6.84,4.42-13.84,8.43-19.83,8.9-2.75,14.78-14.1,18.84-21.82-.47,4.42.86,1.95.99,4.21q-2.23,5.83-4.46,11.65Z" style="fill:#413939; stroke-width:0px;"/><path d="m53.05,323.31c-.12-.88-.43-1.4-.5-2.97-.38-8.87,3.73-23.91,5.45-33.22,1.77-.48,1.56,1.37,2.23,1.49,2.76.47,6.29-10.15,3.72-18.59-.68-2.25-4.68-10.1-4.46-3.72-24.22-41.37-.4-58.13-1.98-97.43-.25-6.22-2.02-12.87-2.48-19.09,2.59.68,1.1-4.06,2.73-6.94,1.78,3.33,2.65,3.01,2.73,3.22.72,2,4.31,29.1,3.97,34.71-.96,15.51-12.35,33.2-11.4,48.59.75,12.3,14.87,39.95,15.37,42.14,2.46,10.75-2.74,14.02-4.96,20.33-3.66,10.41-5.91,21.37-10.41,31.48Z" style="fill:#524a43; stroke-width:0px;"/><path d="m58.01,287.12c.6-3.25,2.27-7.28,2.48-10.66.38-6.03-.94-8.65-.99-10.16-.22-6.38,3.78,1.47,4.46,3.72,2.57,8.45-.96,19.06-3.72,18.59-.67-.11-.46-1.97-2.23-1.49Z" style="fill:#7e796e; stroke-width:0px;"/><path d="m93.71,383.8c-4.33,11.89-11.8,16.45-24.29,17.35,9.27-4.95,16.7-7.37,19.83-18.84l4.46,1.49Z" style="fill:#413939; stroke-width:0px;"/><path d="m64.46,443.79c.16,4.59-1.47,8.95-1.98,13.39-1.42-1.39-2.65-2.97-3.97-4.46.69-4.1,1.11-8.26,1.49-12.4,4.08,1.88,4.27-2.16,4.46,3.47Z" style="fill:#5b5a5c; stroke-width:0px;"/><path d="m59.99,440.32c-.38,4.14-.79,8.3-1.49,12.4-.93-1.06-1.06-1.06-1.98-2.48,1.35-2.85.39-22.54,3.22-22.31,2.41.19.44,10.35.25,12.4Z" style="fill:#7e796e; stroke-width:0px;"/><path d="m85.78,312.4c5.1,8.4,9.53,10.66,11.9,21.57.96,4.41,3.36,26.63-.5,26.53-.29-9.51-2.99-17.36-5.95-26.28-2.65-8-5.37-15.61-9.92-22.81,1.28-1.12,3.16.64,4.46.99Z" style="fill:#524a43; stroke-width:0px;"/><path d="m109.08,340.17c.17,1.36.41,3.14.5,4.46.51,8.12-1.11,21.91-2.48,30.24-1.24,7.59-3.54,15.01-4.96,22.56l-6.45,15.62c-9.85,11.19-18.46,9.51-23.55,13.39-5.49,4.18-5.03,8.41-5.21,8.92-.95,2.84-1.91,5.47-2.48,8.43-.19-5.63-.38-1.59-4.46-3.47.19-2.04,2.16-12.2-.25-12.4-2.83-.22-1.87,19.47-3.22,22.31-.03-.05-.96-.45-.99-.5-4.38-7.64-8.47-25.5-4.46-34.71,4.27-9.8,12.89-10.97,18.35-13.88,12.5-.9,19.97-5.46,24.29-17.35,2.74-7.53,3.71-15.32,3.47-23.3,3.86.11,1.45-22.12.5-26.53-2.37-10.91-6.8-13.17-11.9-21.57,13.95,3.82,21.52,13.38,23.3,27.77Z" style="fill:#67574b; stroke-width:0px;"/><path d="m102.88,375.37c2.46,10.33-6.39,34.15-16.36,39.17,8.24-12.47,14-24.21,16.36-39.17Z" style="fill:#a9a598; stroke-width:0px;"/><path d="m127.42,446.27c-.07-10.25.1-20.5,0-30.74,6.4,5.2,2.52,12.41,2.48,13.14-.17,3.27.62,5.1.5,6.45-.08.88-1.35,3.78-1.49,4.96-.43,3.56,1.74,7-1.49,6.2Z" style="fill:#2e2c2f; stroke-width:0px;"/><path d="m100.15,187.95c-2.41-19.03-8.76-32-14.38-49.09,6.47-1.88,20.51,25.65,21.32,29.5,1.59,7.52-.43,15.16-6.94,19.58Z" style="fill:#0b5958; stroke-width:0px;"/><path d="m91.23,252.41c-.17,2.46-.8,4.96-.99,7.44-.24,3.17-1.37,6.13-.99,9.42-2.66,5.11-5.34,11.48-7.44,16.86-3.92-2.46.92-14.11.99-22.56.05-6.51-1.94-13.6-2.48-20.08-.26-3.07-.25-6.16-.99-9.17l.99-1.24c.58.05.43-.32.5-.5.57-.14,1.28.26,1.49.74,1.41,3.3,5.5,17.74,6.94,22.81,2.19.92-.22-3.99,1.98-3.72Z" style="fill:#0b5958; stroke-width:0px;"/><path d="m96.19,212.75c-.79,1.18-2.53,2.31-2.97,3.47-.64,1.69-1.6,30.77-1.98,36.19-2.21-.27.21,4.64-1.98,3.72-1.44-5.07-5.53-19.51-6.94-22.81-.21-.48-.91-.88-1.49-.74,1.7-4.6,13.99-25.78,15.37-19.83Z" style="fill:#107a79; stroke-width:0px;"/><path d="m80.32,233.07c-4.67-7.19-.76-11.71-.5-13.39l.5,13.39Z" style="fill:#107a79; stroke-width:0px;"/><path d="m141.8,319.34c0,.31.9,2.47.5,6.2-.83,1.95-2.03,3.67-3.47,5.21-.29.31-1.87,1.91-1.98,1.98-.45.3-3.58,1.99-3.97,1.24.7-1.56,1.3-3.14,1.98-4.71.85-1.94,4.92-7.88,4.96-9.42l1.98-.5Z" style="fill:#84e0d5; stroke-width:0px;"/><path d="m95.2,279.18c5.28,2.9,4.96-1.41,3.72-1.49-.41-.02-1.19,2.16-1.49,1.98-3.49-2.15,2.59-2.49,2.73-2.73.77-1.28-3.59-6.95,2.48-4.71,1.25,15.02-17.8,20.75-18.84,35.2-2.75-13.07-3.66-1.66-5.95-6.45-1.14-2.38-.17-4.02,0-4.96.67-3.77,2.64-6.51,3.97-9.92,2.09-5.38,4.78-11.75,7.44-16.86.32,2.84,3.35,8.49,5.95,9.92Z" style="fill:#1c9899; stroke-width:0px;"/><path d="m83.79,307.45c-1.62,1.85-10.15-3.46-5.95-6.45,2.29,4.79,3.2-6.62,5.95,6.45Z" style="fill:#0b6a6d; stroke-width:0px;"/><path d="m95.2,279.18c-2.6-1.43-5.63-7.08-5.95-9.92-.38-3.29.75-6.25.99-9.42,2.32,2.13,1.73,10.39,2.48,13.63.07.3,2.11,2.73,2.48,5.7Z" style="fill:#bfefed; stroke-width:0px;"/><path d="m99.66,217.21c.43,3.5-.56,23.45,0,24.54.24.46,4.42.36,5.45,7.93.14,1.06-.17,20.3-.5,21.32-.12.39-1.34,1.45-1.98,1.24-6.07-2.24-1.71,3.43-2.48,4.71-.14.23-6.22.58-2.73,2.73.3.18,1.08-2.01,1.49-1.98,1.24.07,1.56,4.39-3.72,1.49-.37-2.98-2.41-5.4-2.48-5.7-.75-3.25-.16-11.51-2.48-13.63.19-2.48.82-4.98.99-7.44.38-5.42,1.34-34.5,1.98-36.19,1.39.23,2.08-2.11,3.22-1.98.36.04,2.09,2.51,3.22,2.97Z" style="fill:#bfefed; stroke-width:0px;"/><path d="m96.93,264.81c-.04.71,1.9,3.49.99,3.97-.93.49-1.69-3.86-.99-3.97Z" style="fill:#62cdbe; stroke-width:0px;"/></g></svg>