<?xml version="1.0" encoding="UTF-8"?><svg id="b" xmlns="http://www.w3.org/2000/svg" xmlns:xlink="http://www.w3.org/1999/xlink" viewBox="0 0 1092.74 624.77"><defs><linearGradient id="e" x1="-200.99" y1="-2650.92" x2="68.99" y2="-2647.37" gradientTransform="translate(221.79 3422.28) scale(1.07)" gradientUnits="userSpaceOnUse"><stop offset="0" stop-color="#265e5b"/><stop offset="1" stop-color="#143941"/></linearGradient><linearGradient id="f" x1="744.97" y1="-2799.19" x2="770.45" y2="-2722.3" gradientTransform="translate(221.79 3422.28) scale(1.07)" gradientUnits="userSpaceOnUse"><stop offset="0" stop-color="#725a73"/><stop offset="1" stop-color="#645f6e"/></linearGradient><linearGradient id="g" x1="-162.49" y1="-2799.99" x2="-181.49" y2="-2719.2" gradientTransform="translate(221.79 3422.28) scale(1.07)" gradientUnits="userSpaceOnUse"><stop offset="0" stop-color="#6d556f"/><stop offset="1" stop-color="#5f5b6a"/></linearGradient><linearGradient id="h" x1="-157.71" y1="-2985.46" x2="-100.05" y2="-2777.29" gradientTransform="translate(221.79 3422.28) scale(1.07)" gradientUnits="userSpaceOnUse"><stop offset="0" stop-color="#ad868f"/><stop offset="1" stop-color="#906a80"/></linearGradient></defs><g id="c"><g id="d"><rect y="0" width="1092.74" height="624.77" style="fill:#e3c78b; stroke-width:0px;"/><path d="m988.15.63c2.47,33.57-4.58,65.99-19.2,96.02-2.68,5.49-19.01,33.46-22.94,35.21-5.3,2.37-8.68-8.43-16.54,1.6-8.84,11.3-12.85,53.69-35.21,32.54,30.52-38.44,15.47-27.27-6.4,0-33.53,5.52-10.99-8.69-22.94-27.74-13.52,53.46-34.99,75.1-77.88,106.69-21.02-21.15-33.48,17.58-50.68,14.94-.8-8.47-9.93-7.71-10.67-9.07-.56-1.04.88-11.54-3.2-23.47-9.24-17.22-9.07-32.28-20.27-53.34-7.53-14.15-19.44-27.85-29.87-40.01C579.81,26.15,416.03-2.85,286.68,49.7c-46.18,18.76-74.46,42.4-107.22,78.95-10.69,11.93-21.74,22.14-29.87,36.27-4.45-8.45-5.01-20.57-8.54-30.41-13.21-36.84-35.99-47.93-27.74-125.36.23-2.18,1.72-4.63,1.07-8.54C405.6-.14,696.92-.28,988.15.63Z" style="fill:#e3c78b; stroke-width:0px;"/><path d="m868.66,530.87c3.97,1.57,13.11,8.94,14.4,13.87,12.08-15.29,31.64-15.53,49.61-14.94,9,3.49,25.17.98,34.67,17.07,3.48,1.05,7.31-6.38,9.07-7.47,21.75-13.43,40.51-3.04,49.08-2.13,12.62,1.34,30.58-1.16,41.07,5.33,10.84,6.71,1.92,14.95,26.14,2.13-.11,26.67.08,53.34,0,80.02-153.99.05-307.97-.07-461.96,0,7.12-10.02,13.04-21.12,16-33.07l33.07,4.8q-16.54-3.47-33.07-6.93c1.7-6.89,2.18-14.78,2.13-21.87,10.64-9.41,19.98-20.42,28.81-31.47,2.96.49,9.62,1.44,11.74,2.13,5.26,1.72,6.24,4.43,9.07,4.27,9.31-8.2,41.24-16.45,40.01.53,1.25,2.11,14.3-11.05,46.94-9.07,2.75.17,5.95-.35,8.54,0,.64.09,1,.69,3.2,1.07.54.09,5.64,4.91,10.14,4.27,13.71-12.86,45.03-15,61.35-8.54Z" style="fill:#96bc8d; stroke-width:0px;"/><path d="m1059.63.63c9.19,38.42,7.86,80.9-3.2,118.96-7.86,27.03-43.52,88.46-61.88,110.42-16.69,19.96-38.77,35.21-57.08,53.34-6.66,6.6-4.49,7.15-4.8,7.47-.24.24-.13-1.2-5.33,4.27-6.76,7.09-9.68,9.2-17.07,18.14-7.08,8.57-12.74,17.73-19.2,26.67-3.73,5.16-10.09,10.35-11.74,17.07-9.36-2.24-27.01,14.65-34.67,21.34-41.78,36.45-75.34,89.62-81.08,91.75-1.24.46-7.47.34-8-1.6-.84-3.05,31.71-46.99,34.14-53.34,12.11-31.63-21.41-29.83-42.14,24-6.35-14.29,6.67-37.03-14.4-34.14,3.66-16.79,9.96-33.14,12.8-50.14,5.56,1.15,7.72,17.44,16.54,12.8,1.69-.89,8.75-46.02,10.14-29.34.16,1.94-8.39,31.85-6.4,38.41l-9.6,13.87,1.6,1.6c38.69-13.83,16.82-11.52,30.41-37.87,8.39-16.29,57.04-71.62,70.41-96.02,5.29-6.53,12.97.25,20.27-4.27,6.09-3.77,70.49-103,84.28-115.76,19.93-.22,11.17,12.63,8.54,38.94-2.21,4.48-17.19,11.23-22.4,16-4.36,3.99-31.36,40.4-27.21,43.21,5.66,3.82,18.23-15.27,30.41-29.87l18.14,2.13c-.62,2.78.12,8.03-1.07,11.2-6.95,18.59-48.95,44.17-33.61,41.07,9.35-1.88,49.01-44.04,56.01-65.61,4.33-13.35-6.12-14.59-4.27-36.27.65-7.64,18.13-71.36,20.27-106.15,4.72,2.47,14.14-17.91,16.54-16q3.47,11.74,6.93,23.47c-1.24,5.44-1.88,18.49-5.33,31.47-3.07,11.55-18.13,46.78,2.13,10.67,13.22-23.56,15.37-52,12.8-78.42,1.7-9.24,3.95-12.95,0-23.47,6.04.05,12.09-.08,18.14,0Z" style="fill:#c89d9a; stroke-width:0px;"/><path d="m279.74,591.68c1.25.3,18.3,10.7,22.4,12.8.36.19,1.1,2.93,1.6,3.2,9.78,5.28,20.16,8.56,30.41,12.8-2.1.91-5.25,2.01-6.4,4.27-29.16-.02-58.32.03-87.48,0,3.64-5.22-11.75-2.48-13.87,0-13.16-.02-26.32.02-39.47,0,4.66-8.84-9.8-3.99-15.47-5.33-3.52-.83-5.88-4.32-11.74-5.33-37.91-6.55-118.59-6.12-159.5-2.13-.54-13.09.11-26.36,0-39.47,53.26-7.5,108.09-6.77,161.63-2.13,15.3,1.32,31.94,1.23,45.88,7.47,54.25-.44,53.64,13.03,56.54,13.87,2.99.87,11.94-.85,15.47,0Z" style="fill:url(#e); stroke-width:0px;"/><path d="m1092.7,496.73c-8.24,2.47-37.92,10.71-42.14,13.87-6.75,5.05-14.13,29.09-25.07,26.67-8.57-.91-27.32-11.29-49.08,2.13-.99.12-1.4-.76-1.07-1.6,1.9-4.87,37.87-49.06,25.07-76.28-16.39,16.71-30.76,35.33-46.94,52.28-.73-.38-.74-2.01-.53-2.67,1.22-3.83,45.43-55.78,51.74-61.35,21.48-18.92,61.62-40.48,88.02-53.34-.04,33.43.07,66.86,0,100.29Z" style="fill:url(#f); stroke-width:0px;"/><path d="m1082.03.63q5.33,26.14,10.67,52.28c.06,7.47-.03,14.94,0,22.4-13.25,34.15-18.66,77.34-30.94,110.42-4.25,11.46-40.62,72.09-21.34,78.42-12.67,15.12-25.95,29.93-39.47,44.28-3.86,4.09-6.84,7.94-8.54,5.87,6.1-9.88,19.53-35.35,6.4-43.74,4.88-14.56,2.63-27.17-4.27-40.54,18.36-21.96,54.02-83.39,61.88-110.42,11.06-38.06,12.39-80.54,3.2-118.96,7.43.1,15-.4,22.4,0Z" style="fill:#9f7b89; stroke-width:0px;"/><path d="m110.11,533c4.54.71,8.57,2.83,13.34,2.13,1.43-.97,5.33-2.04,6.93-2.13,6.13-.35,14.27-3.82,28.81-1.07,1.16,1.12,6.91,2.16,14.4,12.8,16.07-7.36,29.68-4.71,46.41-4.27,6.77,7.46,49.66,43.55,57.61,48.01.25.14,1.31-.08,2.13,0v3.2c-3.53-.85-12.47.87-15.47,0-2.9-.84-2.3-14.31-56.54-13.87-13.94-6.24-30.58-6.14-45.88-7.47-53.54-4.63-108.37-5.36-161.63,2.13-.09-10.67.04-21.34,0-32.01,8.35-1.95,17.27-1.41,25.61-3.2,5.73-1.23,15.28-6.48,32.01-8.54,31.08-3.81,37.71,1.98,52.28,4.27Z" style="fill:#96bc8d; stroke-width:0px;"/><path d="m39.69.63c-6.24,16.9-3.49,34.41,13.87,42.68-3.77,19.47-1.68,42.87,8.54,60.28,5.13,8.74,9.89,10.17,11.74,12.27,2.13,2.42,6.39,1.78,13.87,17.6,7.21,15.26,12.17,46.18,13.87,48.01,1.58,1.7,12.72-4.02,14.94-2.13,1.79,1.52,11.97,34.13,11.74,45.34-.09,4.46-5.05,14.01-2.13,19.74-2.53,2.57-11.47,6.95-12.8,9.07-9.18-9.2-12.05-35.71-18.14-37.34-.21-4.6,1.3-13.79-1.6-17.07-7.29-8.24-10.23,14.94-20.8,5.33-.57-.52-7.47-11.03-8.54-12.8C31.38,137.03,21.8,62.1,36.49.63c1.07-.01,2.13.01,3.2,0Z" style="fill:#c89d9a; stroke-width:0px;"/><path d="m36.49.63c-14.69,61.47-5.11,136.4,27.74,190.97-43.95,6.23,9.58,71.16,16,91.75l-5.33,4.27c-4.49-5.24-49.89-94.63-62.95-113.62C4.12,134.58,28.71,134.13.22,84.91c.07-20.61-.36-41.27,0-61.88Q5.55,11.83,10.89.63c8.46-.45,17.12.1,25.61,0Z" style="fill:#916f81; stroke-width:0px;"/><path d="m63.16,447.65c8.53,14.96,17.89,29.49,26.67,44.28.06.1-1.43.99-1.07,1.6-9.08-3.73-28.82-21.37-34.67-9.6-32.36-4.3-4.48,31.69,3.73,44.81-16.73,2.05-26.28,7.3-32.01,8.54-5.09-11.56-14.37-20.04-25.61-25.61-.1-34.85.05-69.7,0-104.55q31.47,20.27,62.95,40.54Z" style="fill:url(#g); stroke-width:0px;"/><path d="m1092.7,396.44c-26.4,12.87-66.54,34.42-88.02,53.34-6.32,5.57-50.53,57.52-51.74,61.35-.21.66-.2,2.28.53,2.67,16.19-16.95,30.55-35.57,46.94-52.28,12.8,27.22-23.17,71.42-25.07,76.28-.33.84.07,1.72,1.07,1.6-1.76,1.08-5.58,8.52-9.07,7.47-9.51-16.09-25.68-13.58-34.67-17.07-.18-.07.51-1.58-3.73-1.07-.84-.54-.57-1.6-.53-2.67.15-4.22,26.85-33.05,48.01-69.35,8.66-14.86,22.89-41.82,27.74-57.08.29-.17,1.76-2.78,6.4-2.13-2.47,5.68-15.97,40.36-8,39.47,9.51-1.06,22.13-38.4,76.28-54.41,4.62-1.37,9.21-3,13.87-4.27,0,6.05,0,12.09,0,18.14Z" style="fill:#916f81; stroke-width:0px;"/><path d="m1092.7,362.3c-4.9,5.77-14.86,13.45-13.87,20.27-54.15,16.01-66.77,53.35-76.28,54.41-7.97.89,5.53-33.8,8-39.47,7.45-17.11,22.48-37.1,32.01-53.88,6.31-11.11,11.75-28.14,12.8-29.34,7.35-8.37,17.39,9.04,37.34-14.94.02,20.98.02,41.96,0,62.95Z" style="fill:#795f78; stroke-width:0px;"/><path d="m1006.29.63c1.72,17.28,3.2,34.92,2.13,52.28-2.14,34.8-19.62,98.52-20.27,106.15-1.85,21.68,8.6,22.93,4.27,36.27-7.01,21.58-46.67,63.73-56.01,65.61-15.34,3.09,26.65-22.48,33.61-41.07,1.19-3.18.45-8.42,1.07-11.2.03-.13,1.98-.72,2.13-1.6.05-.32-1.09-6.08-1.07-6.4.03-.32,2.13-5.05,2.13-5.33.02-23.56-11.97-.03-21.34,11.2-12.18,14.6-24.74,33.7-30.41,29.87-4.16-2.81,22.85-39.22,27.21-43.21,5.22-4.78,20.2-11.53,22.4-16,2.63-26.31,11.39-39.16-8.54-38.94,4.13-6.77,41.68-60.31,30.41-64.01-8.49-2.79-17.49,19.41-25.07,22.4,14.63-30.03,21.67-62.45,19.2-96.02,6.05.02,12.09-.03,18.14,0Z" style="fill:#b68b96; stroke-width:0px;"/><path d="m74.9,287.62c.68.79-4.13,1.37,5.33,3.2-.96,13.74-6.23,22.12-6.4,24.54C21.59,259.41,16.67,263.56.22,186.26c.05-33.78-.12-67.57,0-101.35,28.49,49.22,3.9,49.67,11.74,89.08,13.06,19,58.46,108.39,62.95,113.62Z" style="fill:#b68b96; stroke-width:0px;"/><path d="m68.5,420.98c-6.28.3-3.22,14.41-8.54,14.94-11.83-18.26-36.9-48.44-59.75-50.14-.03-24.54,0-49.08,0-73.61,5.69.6,14.38-.82,19.2,0,8.02,35.92,32.46,64.17,45.34,98.15,7.08-16.66,12.31-34.09,13.34-52.28,1.07-19.03-4.74-36.12-4.27-42.68.18-2.42,5.44-10.79,6.4-24.54,0-.13,2.83.55,2.13-1.6-.3-.93-2.13-.42-2.13-.53,9.45-6.32-2.01,20.64-2.13,25.07-.05,1.72,4.46,14.37,4.27,34.14-.07,7.49-6.32,48.83-5.33,51.21,1.9,4.61,5.97-2.47,9.6,1.07,1.02.99,6.36,14.64,8.54,18.14-2.15,3.24-23.56-15.04-25.07-14.4-2.99,7.86-3.68,10.06-1.6,17.07Z" style="fill:#795f78; stroke-width:0px;"/><path d="m90.9.63c-1.93,21.04-1.19,41.89,0,62.95.64,11.4.23,17.05,2.13,29.87-15.12,3.22-14.53,10.02-19.2,22.4-1.85-2.1-6.6-3.53-11.74-12.27-10.22-17.41-12.31-40.81-8.54-60.28C60.48,7.61,75.85,16.47,73.83.63c5.69-.03,11.38.02,17.07,0Z" style="fill:#9f7b89; stroke-width:0px;"/><path d="m1092.7,152.12c-4.61,18.04-15.37,34.45-21.34,51.74-4.03,11.68-11.4,50.59-17.07,56.01-3.03,2.9-9.96,5.55-13.87,4.27-19.29-6.33,17.08-66.96,21.34-78.42,12.28-33.09,17.69-76.27,30.94-110.42.11,25.6-.05,51.21,0,76.82Z" style="fill:#b68b96; stroke-width:0px;"/><path d="m186.92,624.75c-62.23-.09-124.47.07-186.7,0-.13-4.26.18-8.55,0-12.8,40.91-3.99,121.59-4.42,159.5,2.13,5.86,1.01,8.22,4.5,11.74,5.33,5.67,1.34,20.13-3.51,15.47,5.33Z" style="fill:#96bc8d; stroke-width:0px;"/><path d="m73.83,315.36c-.48,6.56,5.34,23.64,4.27,42.68-6.09-5.57-13.05-11.66-18.14-18.14C33.2,305.81,16.69,257.94.22,218.27c.01-10.67-.02-21.34,0-32.01,16.46,77.3,21.37,73.14,73.61,129.09Z" style="fill:#9f7b89; stroke-width:0px;"/><path d="m617.94,586.34c-21.51,9.92-28.8,8.95-48.54,14.94-42.86,13-14.9,7.49,10.67,11.74,11.09,1.84,30.02,7.69,41.07,11.74-43.03.02-86.06.02-129.09,0,6.15-4.84,13.23-8.43,20.27-11.74,3.05-1.43,5.58-2.77,8.54-4.27,1.75-.89,16.59-.11,14.94-14.94,2.3.47,3.01-.61,4.27-1.07-.19,1.36,2.31,1.32,4.27,1.07,28.13-3.59,43.68,2.6,72.55-10.67l1.07,3.2Z" style="fill:#194b4e; stroke-width:0px;"/><path d="m1092.7,264.15c-3.82,1.77-3.26,10.65-4.8,12.8-2.54,3.56-36.43,12.83-34.67,36.27-30.14,18.67-32.29,27.71-13.87-5.33,20.1-36.07,41.42-70.98,53.34-110.96.03,22.4-.02,44.81,0,67.21Z" style="fill:#795f78; stroke-width:0px;"/><path d="m1092.7,496.73c-.01,4.62.01,9.25,0,13.87q-14.4,7.73-28.81,15.47l.53,1.6q14.14-5.87,28.27-11.74c-.03,9.6.04,19.2,0,28.81-24.22,12.82-15.3,4.58-26.14-2.13-10.5-6.5-28.46-3.99-41.07-5.33,10.94,2.42,18.32-21.62,25.07-26.67,4.22-3.16,33.9-11.4,42.14-13.87Z" style="fill:#916f81; stroke-width:0px;"/><path d="m623.28,584.21q8.54,2.67,17.07,5.33c-3.41,14.96-8.38,22.68-17.07,35.21-.71,0-1.42,0-2.13,0-11.05-4.04-29.99-9.9-41.07-11.74-25.57-4.24-53.53,1.27-10.67-11.74,19.74-5.99,27.04-5.02,48.54-14.94,2.62-1.21,5.08-2,5.33-2.13Z" style="fill:#96bc8d; stroke-width:0px;"/><path d="m59.96,339.89c.05.86.14,2.17-.53,2.13-2.96-.16-35.15-29.13-37.87-29.87,5.55-15.89-10.47-22.14-21.34-29.87.02-21.34-.03-42.68,0-64.01,16.47,39.67,32.99,87.54,59.75,121.62Z" style="fill:#795f78; stroke-width:0px;"/><path d="m1092.7,196.93c-11.93,39.97-33.24,74.89-53.34,110.96l-3.2-2.13c3.41-6.03,20.33-42,20.27-45.34-.01-.71-1.33-.57-2.13-.53,5.67-5.42,13.04-44.33,17.07-56.01,5.96-17.29,16.72-33.7,21.34-51.74.03,14.94-.02,29.87,0,44.81Z" style="fill:#9f7b89; stroke-width:0px;"/><path d="m1041.49.63c3.95,10.53,1.7,14.23,0,23.47-1.45,7.86-6.75,23.74-9.6,36.27q-3.47-11.74-6.93-23.47c-2.39-1.9-11.82,18.47-16.54,16,1.07-17.36-.42-35-2.13-52.28,11.73.05,23.47-.1,35.21,0Z" style="fill:#deb69c; stroke-width:0px;"/><path d="m59.96,435.91c2.68,4.14,6.97,11.48,3.2,11.74Q31.69,427.38.22,407.11c0-7.11,0-14.23,0-21.34,22.84,1.7,47.91,31.88,59.75,50.14Z" style="fill:#916f81; stroke-width:0px;"/><path d="m73.83.63c2.02,15.84-13.36,6.99-20.27,42.68-17.36-8.27-20.11-25.78-13.87-42.68,11.38-.11,22.76.05,34.14,0Z" style="fill:#deb69c; stroke-width:0px;"/><path d="m1092.7,299.35c-19.95,23.98-29.99,6.57-37.34,14.94l-2.13-1.07c-1.75-23.44,32.14-32.71,34.67-36.27,1.54-2.16.98-11.03,4.8-12.8.01,11.74,0,23.47,0,35.21Z" style="fill:#c89d9a; stroke-width:0px;"/><path d="m114.37.63c.65,3.9-.83,6.35-1.07,8.54-3.87.74-4.78,15.93-7.47,24-1.83,5.51-13.41,33.53-14.94,30.41-1.19-21.05-1.93-41.91,0-62.95,7.82-.03,15.65.02,23.47,0Z" style="fill:#deb69c; stroke-width:0px;"/><path d="m21.56,312.16c-.57-.15-1.47.11-2.13,0-4.83-.82-13.51.6-19.2,0,0-9.96,0-19.92,0-29.87,10.87,7.74,26.88,13.98,21.34,29.87Z" style="fill:#b68b96; stroke-width:0px;"/><path d="m25.82,537.27c-8.33,1.79-17.26,1.25-25.61,3.2-.03-9.6.03-19.2,0-28.81,11.23,5.56,20.51,14.04,25.61,25.61Z" style="fill:#795f78; stroke-width:0px;"/><path d="m1082.03.63c3.54.19,7.13-.14,10.67,0,.11,17.42-.15,34.85,0,52.28q-5.33-26.14-10.67-52.28Z" style="fill:#c89d9a; stroke-width:0px;"/><path d="m1092.7,378.3c-4.66,1.27-9.25,2.9-13.87,4.27-.99-6.82,8.97-14.5,13.87-20.27,0,5.33,0,10.67,0,16Z" style="fill:#636074; stroke-width:0px;"/><path d="m10.89.63Q5.55,11.83.22,23.03C.35,15.57.12,8.09.22.63c3.54-.14,7.13.19,10.67,0Z" style="fill:#c89d9a; stroke-width:0px;"/><path d="m1092.7,515.93q-14.14,5.87-28.27,11.74l-.53-1.6q14.4-7.73,28.81-15.47c0,1.78,0,3.56,0,5.33Z" style="fill:#795f78; stroke-width:0px;"/><path d="m240.27,624.75c-4.62,0-9.25,0-13.87,0,2.12-2.48,17.51-5.22,13.87,0Z" style="fill:#96bc8d; stroke-width:0px;"/><path d="m963.61,138.25c-13.8,12.76-78.2,111.98-84.28,115.76-7.3,4.52-14.98-2.27-20.27,4.27-13.38,24.4-62.02,79.73-70.41,96.02-13.58,26.36,8.29,24.04-30.41,37.87l-1.6-1.6,9.6-13.87c-1.99-6.55,6.56-36.47,6.4-38.41-1.38-16.68-8.44,28.45-10.14,29.34-8.81,4.64-10.98-11.65-16.54-12.8,2.01-12.01,3.97-23.03,2.13-35.21-1.65-10.89-7.38-22.37-16-29.34.33-7.39,4.5-27.93,4.27-30.41,17.19,2.65,29.66-36.09,50.68-14.94,42.89-31.59,64.36-53.22,77.88-106.69,11.95,19.05-10.59,33.26,22.94,27.74-7.73,9.64-44.75,64.96-42.68,74.15.96,4.26,10.06,9.52,16,1.07,3.19-4.54,12.72-54.86,33.07-75.22,22.36,21.15,26.37-21.24,35.21-32.54,7.85-10.03,11.23.76,16.54-1.6,3.92-1.75,20.26-29.71,22.94-35.21,7.58-3,16.58-25.19,25.07-22.4,11.27,3.7-26.27,57.25-30.41,64.01Z" style="fill:#deb69c; stroke-width:0px;"/><path d="m113.31,9.16c-8.25,77.43,14.53,88.52,27.74,125.36,3.53,9.84,4.08,21.95,8.54,30.41-4.27,7.42-8.94,18.51-11.74,26.67-12.1-21.05-12.59.24-16-12.8,3.33-12.44-3.52-27.67-7.47-11.74-.06-.14-1.74.43-2.13-.53-5.26-12.93-17.04-58.56-19.2-73.08-1.91-12.82-1.49-18.47-2.13-29.87,1.52,3.13,13.1-24.9,14.94-30.41,2.68-8.07,3.59-23.26,7.47-24Z" style="fill:#c89d9a; stroke-width:0px;"/><path d="m894.26,165.99c-20.35,20.35-29.88,70.67-33.07,75.22-5.94,8.45-15.04,3.2-16-1.07-2.07-9.19,34.94-64.51,42.68-74.15,21.88-27.27,36.92-38.44,6.4,0Z" style="fill:#c89d9a; stroke-width:0px;"/><path d="m893.73,94.51c5.74-3.54,13.27,20.4-1.07,32.01-22.37,18.12-43.07-8.89-33.07-9.6,1.64-.12,9.12,19.33,27.74,8.54,18.4-10.67,4.9-30.02,6.4-30.94Z" style="fill:#1a171c; stroke-width:0px;"/><path d="m728.9,53.97h1.07c15.75,34.7-30.49,38.99-33.07,27.21-2.74-12.51,7.16.97,10.14,1.6,11.74,2.5,28.45-10.83,21.87-28.81Z" style="fill:#1a171c; stroke-width:0px;"/><path d="m782.78,125.45c22.78,26.92-4.76,53.65,6.93,32.54,4.04-21.95-2.86-.46-5.33,2.13-6.99,7.3,2.79-7.45,3.2-9.6,1.73-8.94-1.01-17.18-4.8-25.07Z" style="fill:#26211e; stroke-width:0px;"/><path d="m755.04,92.38c-.01,17.07,27.08,25.35,23.47,9.6,11.01,15.77-26.75,14.98-23.47-9.6Z" style="fill:#26211e; stroke-width:0px;"/><path d="m677.15,40.1c1.56,1.83,4.46,6.11,4.8,8,2.7,14.77-6.56,3.69-4.8-8Z" style="fill:#26211e; stroke-width:0px;"/><path d="m774.24,34.77c2.88,3.55,5.92,8.96,6.93,13.34,5.46,23.61-4.57-6.21-6.93-13.34Z" style="fill:#755c36; stroke-width:0px;"/><path d="m680.35,62.51c3.94,1.51-9,13.42-11.74,12.8l11.74-12.8Z" style="fill:#2b2913; stroke-width:0px;"/><path d="m639.81,74.24c6.71,6.71,15.47,5.02,15.47,5.87-6.85,2.16-16.75-1.42-15.47-5.87Z" style="fill:#483b20; stroke-width:0px;"/><path d="m149.05,116.92l-7.47,13.87c-2.36-.99,6.25-11.8,7.47-13.87Z" style="fill:#c4ab73; stroke-width:0px;"/><path d="m691.02,132.92c3.69-.92,1.99,5.99,1.07,6.4-3.78,1.7-3.4-5.82-1.07-6.4Z" style="fill:#1a171c; stroke-width:0px;"/><path d="m154.38,106.25l1.6,1.6c-6.19,10.76-6.48,7.45-1.6-1.6Z" style="fill:#c4ab73; stroke-width:0px;"/><path d="m749.7,161.73c2.19,1.35,2.88,6.71,1.07,6.4-1.76-.31-2.24-4.99-1.07-6.4Z" style="fill:#1a171c; stroke-width:0px;"/><path d="m756.1,73.17c3.67-2.36,2,7.35-.53,2.67-.26-.49-.17-2.22.53-2.67Z" style="fill:#131413; stroke-width:0px;"/><path d="m817.98,147.86c.62,0,2.78,2.39.53,3.73-2.31,1.37-2.62-3.73-.53-3.73Z" style="fill:#110702; stroke-width:0px;"/><path d="m729.96,53.97h-1.07c-.17-.46-4.64-6.11,1.07,0Z" style="fill:#8a7448; stroke-width:0px;"/><path d="m794.51,89.18c1.36.96.57,4.69-1.07,2.13-.68-1.05.94-2.22,1.07-2.13Z" style="fill:#2e1a02; stroke-width:0px;"/><path d="m998.82,270.55c13.13,8.39-.3,33.86-6.4,43.74-7.74,12.55-40.45,48.02-52.28,57.61-27.08,21.97-58.47,31.47-91.75,77.88-17.95,25.02-33.16,59.4-54.41,84.28-2.58-.35-5.78.17-8.54,0-5.93-9.39-6.06-13.19-6.4-13.87,15.52,1.69,27.96-30.9,38.41-44.28-16.02,5.78-40.09,35.65-42.68,36.81-1.11.5-19.55,2.52-24,4.27-26.86-19.82-38.69,7.57-61.35,21.34-2.11-.69-8.78-1.64-11.74-2.13,52.24-65.4,40.98-64.75,55.48-131.23,21.08-2.89,8.06,19.85,14.4,34.14,20.73-53.83,54.26-55.63,42.14-24-2.43,6.36-34.98,50.29-34.14,53.34.54,1.95,6.76,2.06,8,1.6,5.75-2.14,39.31-55.3,81.08-91.75,7.66-6.68,25.31-23.58,34.67-21.34,16.06,3.85,5.26,28.6-2.13,36.81l1.6.53c13.02-15.95,28.12-30.44,41.07-46.41,19.95-24.59,57.89-90.82,78.95-77.35Z" style="fill:#d2a99a; stroke-width:0px;"/><path d="m1039.36,307.89c-18.42,33.04-16.27,24,13.87,5.33l2.13,1.07c-1.06,1.2-6.49,18.23-12.8,29.34-9.53,16.78-24.56,36.77-32.01,53.88-4.64-.65-6.11,1.96-6.4,2.13-24.71,14.59-107,104.38-135.49,131.23-16.31-6.46-47.63-4.33-61.35,8.54-4.49.64-9.59-4.18-10.14-4.27,5.22-7.09,48.21-50.32,51.74-51.21,9.09-2.29,11.27,1.88,16.54,7.47-2.56,2.63-25.58,23.65-17.6,23.47,1.72-.04,27.04-23.62,19.74-24.54,40.94-42.7,32.18-43.81,54.41-75.22,6.06-8.56,25.27-34.78,35.74-32.54,18.2,3.89-12.02,43.53-8.54,44.81,11.56-13.34,19.07-29.97,29.34-44.28,18.73-26.1,41.7-49.17,57.61-77.35l3.2,2.13Z" style="fill:#9f7b89; stroke-width:0px;"/><path d="m1036.16,305.75c-15.91,28.18-38.88,51.24-57.61,77.35-10.27,14.31-17.78,30.93-29.34,44.28-3.49-1.27,26.74-40.92,8.54-44.81-10.47-2.24-29.68,23.98-35.74,32.54-22.23,31.41-13.47,32.52-54.41,75.22-.12.13-2.01.93-2.13,1.07-5.27-5.59-7.45-9.76-16.54-7.47-3.53.89-46.53,44.12-51.74,51.21-2.2-.38-2.57-.98-3.2-1.07,21.25-24.89,36.47-59.26,54.41-84.28,6.21,42.46,22.09,25.62,39.47,2.67l52.28-80.55c11.82-9.59,44.53-45.07,52.28-57.61,1.7,2.07,4.68-1.78,8.54-5.87,13.53-14.34,26.81-29.15,39.47-44.28,3.91,1.28,10.84-1.37,13.87-4.27.8-.04,2.12-.18,2.13.53.06,3.34-16.86,39.31-20.27,45.34Z" style="fill:#916f81; stroke-width:0px;"/><path d="m932.67,529.8c-17.97-.6-37.53-.35-49.61,14.94-1.3-4.93-10.43-12.3-14.4-13.87,28.49-26.84,110.78-116.64,135.49-131.23-4.85,15.26-19.08,42.22-27.74,57.08-21.16,36.3-47.86,65.13-48.01,69.35-.04,1.07-.31,2.13.53,2.67,4.24-.51,3.55,1,3.73,1.07Z" style="fill:#795f78; stroke-width:0px;"/><path d="m774.77,512.73c2.25,9.02,4.08,7.08,4.27,7.47.34.68.48,4.48,6.4,13.87-32.64-1.98-45.69,11.18-46.94,9.07,1.23-16.98-30.7-8.73-40.01-.53-2.83.16-3.8-2.55-9.07-4.27,22.65-13.77,34.49-41.16,61.35-21.34,4.46-1.75,22.89-3.77,24-4.27Z" style="fill:#b68b96; stroke-width:0px;"/><path d="m646.75,591.68c.15-.61-.15-1.52,0-2.13q16.54,3.47,33.07,6.93l-33.07-4.8Z" style="fill:#447d5e; stroke-width:0px;"/><path d="m998.82,270.55c-21.06-13.47-59,52.76-78.95,77.35-12.96,15.97-28.05,30.46-41.07,46.41l-1.6-.53c7.39-8.2,18.2-32.96,2.13-36.81,1.65-6.72,8-11.91,11.74-17.07,8.54,7.22,23-25.58,19.2-26.67,7.39-8.94,10.31-11.05,17.07-18.14q5.6-1.07,11.2-2.13l-5.87-2.13c.31-.32-1.86-.87,4.8-7.47,18.31-18.13,40.39-33.38,57.08-53.34,6.9,13.38,9.14,25.99,4.27,40.54Z" style="fill:#b68b96; stroke-width:0px;"/><path d="m1031.89,60.37c2.86-12.54,8.16-28.42,9.6-36.27,2.57,26.42.42,54.86-12.8,78.42-20.26,36.11-5.2.88-2.13-10.67,3.45-12.98,4.1-26.03,5.33-31.47Z" style="fill:#9f7b89; stroke-width:0px;"/><path d="m971.08,208.67l-18.14-2.13c9.37-11.23,21.36-34.77,21.34-11.2,0,.29-2.11,5.01-2.13,5.33-.03.32,1.12,6.08,1.07,6.4-.15.88-2.1,1.47-2.13,1.6Z" style="fill:#c89d9a; stroke-width:0px;"/><path d="m891.06,339.89c6.47-8.94,12.12-18.11,19.2-26.67,3.79,1.09-10.67,33.89-19.2,26.67Z" style="fill:#9f7b89; stroke-width:0px;"/><path d="m862.79,285.48c-.35,14.23,6.05,21.72.53,17.6-3.5-2.61-4.31-14.02-.53-17.6Z" style="fill:#4b3438; stroke-width:0px;"/><path d="m846.79,316.42c6.76-1.8,5.37,7.18,2.13,7.47-7.56.67-4.84-6.75-2.13-7.47Z" style="fill:#b68b96; stroke-width:0px;"/><path d="m854.26,328.16q2.13,7.47,4.27,14.94c-4.25-3.82-6.02-9.47-4.27-14.94Z" style="fill:#654949; stroke-width:0px;"/><path d="m932.67,290.82l5.87,2.13q-5.6,1.07-11.2,2.13c5.21-5.46,5.09-4.02,5.33-4.27Z" style="fill:#755162; stroke-width:0px;"/><path d="m845.72,342.03c.52,6.85,15.33,13.69.53,6.93l-.53-6.93Z" style="fill:#785857; stroke-width:0px;"/><path d="m471.78,98.78c126.47,17.79,145.41,74.99,155.23,80.02,13.89,7.1,17.38-4.71,20.27-4.27,9.17,1.39,43.62,73.69,42.14,101.35-.06,1.06.04,2.14,0,3.2-.07,2.09-.23,3.52,1.07,5.33-4.34-.86-4.05,1.02-4.27,1.07-6.11,1.25.44-3.46,1.07,21.34q-6.93,9.07-13.87,18.14c2.23-10.6,11.93-45.48-6.4-45.88-4.52-.1-4.05,2.03-4.27,2.13-4.33,2.12-6.38,5.31-9.6,8.54-5.22-8.64-9.85-11.04-20.27-9.6-.37.05-2.08.71-3.2,1.07-21.89,6.99-34.87,78.01-34.14,89.62l-2.13,1.07c-.28-35.39-1.11-58.29-4.27-93.89h2.13c-.44,28.52,2.92-9.38,3.2-18.67.68-22.51-.12-40.89-11.74-60.81-23.24-39.86-86.34-67.58-130.16-74.15-5.32-.8-11.76-1.72-17.07-2.13-34.95-2.75-64.72.41-97.09,13.87-45.82,16.95-77.96,41.89-91.75,89.62-.45,1.56-.68,2.78-1.07,4.27-14.41,55.37-4.4,61.64-3.2,87.48.26,5.68-1.11,10.16-3.2,16-1.58-13.41-8.81-44.88-20.27-52.28-7.29-4.71-7.27-3.95-14.94,0-9.54,4.92-6.04,4.85-9.6,13.87-.37.93-1.05,5.11-1.6,5.33-.87.35-4.33-6.08-5.87-6.4-1-4.88-2.69-15.09-8.54-16-1.73-.27-1.95.69-3.2,1.07-16.66,5.02-7.08,44.71-5.33,58.68-2.09-2.81-3.33-6.3-4.27-9.6-.36-1.29-.74-2.93-1.07-4.27-3.13-12.9-3.38-25.2-3.2-38.41-2.4-1.5-5.82-1.28-8.54-1.07l5.33-17.07c-.48-1.53.81-2.02,1.07-3.2.9-4.11.96-14.23,2.13-18.67,5.45-20.6,21.9-59.33,36.27-74.68,12.29-13.12,7.91-2.23,15.47-.53,22.68,5.09,25.14-30.37,81.62-53.34,55.21-22.46,118.67-26.36,177.1-18.14Z" style="fill:#e3c78b; stroke-width:0px;"/><path d="m644.61,540.47c0,25.34-4.67,32.07-27.74,42.68-28.87,13.27-44.42,7.08-72.55,10.67l-2.13-2.13c1.48-.71,5.87-2.27,6.4-3.73,1.37-3.81-4.51-21.14-5.33-42.14,14.37,3.13,34.73-24.29,59.21-9.6,21.49-3.12,22.35-1.99,42.14,4.27Z" style="fill:#96bc8d; stroke-width:0px;"/><path d="m644.61,540.47c-19.79-6.26-20.65-7.39-42.14-4.27-24.49-14.69-44.84,12.73-59.21,9.6-.53-13.4.26-29.17,1.07-42.68,15.61,2.39,20.53-3.47,26.14,12.8,27.84-1.74,2.63-20.57,40.54-8.54q10.4-13.87,20.8-27.74c1.57.42,6.08,1.19,6.4,1.6,2.3,2.91.59,36.55,1.07,38.41.8,3.12,5.33-3.1,5.33,20.8Z" style="fill:#b68b96; stroke-width:0px;"/><path d="m567.8,467.92c15.78,23.44,55.69,9.52,64.01,11.74q-10.4,13.87-20.8,27.74c-37.91-12.04-12.7,6.8-40.54,8.54-5.61-16.27-10.53-10.41-26.14-12.8.51-8.43,1.13-17.24,2.13-25.61,8.51.28,15.62-12.22,21.34-9.6Z" style="fill:#deb69c; stroke-width:0px;"/><path d="m670.22,536.2h-12.8c7.12-17.91,14.81-33.94,16-53.88,26.11-3,38.22-34.76,50.68-54.94-3.04,46.83-24.93,75.14-53.88,108.82Z" style="fill:#c89d9a; stroke-width:0px;"/><path d="m567.8,467.92c-5.71-2.61-12.83,9.88-21.34,9.6,2.58-21.42.68-32.45,16-32.54-.49,8.59.4,15.6,5.33,22.94Z" style="fill:#e3c78b; stroke-width:0px;"/><path d="m641.41,585.28c-.44,2.79-.88,3.45-1.07,4.27q-8.54-2.67-17.07-5.33c.34-.17,3-2.41,6.4-4.27q5.87,2.67,11.74,5.33Z" style="fill:#5e9d8d; stroke-width:0px;"/><path d="m64.23,191.6c1.06,1.77,7.97,12.29,8.54,12.8-16.76,14.85.87,15.27,6.4,24,4.93,7.78,17.33,56.47,26.67,67.75-3.44,6.27-8.57,21.79-9.6,28.81-5.63,38.37,19.69,104.92,40.54,138.69-11.56-6.88-26.37-3.31-21.34,12.27,1.09,3.38,39.09,51.52,43.74,56.01-14.54-2.75-22.67.72-28.81,1.07-9.38-17.8-59.71-104.7-61.88-112.02-2.08-7.01-1.39-9.21,1.6-17.07,1.51-.63,22.92,17.64,25.07,14.4-2.17-3.49-7.52-17.14-8.54-18.14-3.63-3.54-7.7,3.54-9.6-1.07-.98-2.38,5.26-43.72,5.33-51.21.19-19.77-4.32-32.42-4.27-34.14.12-4.43,11.59-31.39,2.13-25.07,0-.13-1.97-.69-2.13-1.6-.06-.36,2.78-1.66,2.13-3.73-6.43-20.59-59.95-85.52-16-91.75Z" style="fill:url(#h); stroke-width:0px;"/><path d="m136.78,463.65c4.02,2.39,10.85,13.54,16,16-12.04,6.42-9.15,26.24,3.73,22.4,11.81-3.52,2.71-11.91,2.67-20.27,1.89.21,2.99-1.68,5.33-1.07.36,0,.71,0,1.07,0,7.33,7.89,43.04,55.9,47.48,57.61,1.47.57,3.41-.44,3.73-2.13.05.06.42.31,1.07,1.07.72.85,1.39,2.38,2.13,3.2-16.73-.44-30.34-3.09-46.41,4.27-7.5-10.64-13.24-11.68-14.4-12.8-4.65-4.5-42.65-52.63-43.74-56.01-5.03-15.58,9.78-19.15,21.34-12.27Z" style="fill:#9f7b89; stroke-width:0px;"/><path d="m88.77,493.53c1.62,2.73,17.46,13.57,21.34,39.47-14.57-2.29-21.19-8.08-52.28-4.27-8.22-13.12-36.1-49.1-3.73-44.81,5.85-11.77,25.6,5.87,34.67,9.6Z" style="fill:#795f78; stroke-width:0px;"/><path d="m68.5,420.98c2.17,7.32,52.5,94.22,61.88,112.02-1.6.09-5.51,1.16-6.93,2.13-4.77.7-8.8-1.42-13.34-2.13-3.88-25.9-19.71-36.74-21.34-39.47-.36-.61,1.13-1.5,1.07-1.6-8.78-14.79-18.14-29.32-26.67-44.28,3.77-.26-.52-7.6-3.2-11.74,5.31-.53,2.26-14.64,8.54-14.94Z" style="fill:#795f78; stroke-width:0px;"/><path d="m114.37,167.06c1.1,2.55,1.94,15.36,7.47,11.74,3.42,13.04,3.9-8.25,16,12.8-3.77,11-4.82,22.5-9.6,33.07.23-11.21-9.94-43.82-11.74-45.34-2.21-1.89-13.36,3.83-14.94,2.13-1.7-1.83-6.66-32.75-13.87-48.01-7.48-15.83-11.74-15.18-13.87-17.6,4.68-12.39,4.08-19.18,19.2-22.4,2.16,14.52,13.95,60.15,19.2,73.08.39.96,2.07.4,2.13.53Z" style="fill:#9f7b89; stroke-width:0px;"/><path d="m95.17,216.14c1.27,27.22,1.27,47.24,16,72.55-1.76,2.01-4.06,5.14-5.33,7.47-9.34-11.28-21.74-59.97-26.67-67.75-5.53-8.73-23.16-9.16-6.4-24,10.57,9.6,13.52-13.57,20.8-5.33,2.9,3.28,1.39,12.47,1.6,17.07Z" style="fill:#9f7b89; stroke-width:0px;"/><path d="m113.31,253.48c-.77,1.22-.99,2.75-2.13,3.73,2.93,7.8,2.68,18.55,4.27,26.14.35,2.98-2.9,3.77-4.27,5.33-14.74-25.31-14.74-45.33-16-72.55,6.09,1.63,8.96,28.15,18.14,37.34Z" style="fill:#c89d9a; stroke-width:0px;"/><path d="m25.29,155.32c30.39-7.5-3.2,24.75-5.33,24.54-4.68-.46-5.99-21.74,5.33-24.54Z" style="fill:#34313f; stroke-width:0px;"/><path d="m80.23,288.68c0,.11,1.83-.4,2.13.53.69,2.15-2.12,1.47-2.13,1.6-9.47-1.83-4.65-2.41-5.33-3.2l5.33-4.27c.65,2.08-2.2,3.37-2.13,3.73.16.91,2.13,1.47,2.13,1.6Z" style="fill:#4b3438; stroke-width:0px;"/><path d="m21.56,312.16c2.72.74,34.91,29.71,37.87,29.87.68.04.59-1.28.53-2.13,5.08,6.47,12.05,12.56,18.14,18.14-1.02,18.19-6.26,35.62-13.34,52.28-12.88-33.98-37.33-62.24-45.34-98.15.66.11,1.56-.15,2.13,0Z" style="fill:#916f81; stroke-width:0px;"/><path d="m318.15,505.26c15.26,8.42,4,28.56,6.4,51.21q-4.27-3.2-8.54-6.4c-.78-2.83-.49-6.44-3.2-8.54l-2.13-9.6c3.03-6-.43-16.76,1.07-22.4.62-2.33,6.26-3.91,6.4-4.27Z" style="fill:#c89d9a; stroke-width:0px;"/><path d="m121.84,178.8c-5.53,3.63-6.37-9.19-7.47-11.74,3.95-15.93,10.79-.7,7.47,11.74Z" style="fill:#9f7b89; stroke-width:0px;"/><path d="m848.39,449.78c33.28-46.41,64.67-55.92,91.75-77.88l-52.28,80.55c-17.39,22.95-33.27,39.79-39.47-2.67Z" style="fill:#9f7b89; stroke-width:0px;"/><path d="m779.04,520.2c-.19-.38-2.02,1.55-4.27-7.47,2.59-1.15,26.65-31.03,42.68-36.81-10.45,13.37-22.89,45.97-38.41,44.28Z" style="fill:#9f7b89; stroke-width:0px;"/><path d="m835.05,404.97c7.05,8.17,2.79,36.25-7.47,41.61-11.4,5.95,2.5-4.51,4.8-9.07,5.98-11.84,1.29-20.54,2.67-32.54Z" style="fill:#1a171c; stroke-width:0px;"/><path d="m810.51,440.18c2.11-.82,5.87,5.07,2.13,6.4-5.75,2.04-3.54-5.86-2.13-6.4Z" style="fill:#110d1d; stroke-width:0px;"/><path d="m842.52,407.11c3.68,2.95,4.68,13.84,3.2,13.87l-3.2-13.87Z" style="fill:#493029; stroke-width:0px;"/><path d="m865.46,491.39c.13-.13,2.01-.94,2.13-1.07,7.3.91-18.02,24.5-19.74,24.54-7.97.18,15.05-20.84,17.6-23.47Z" style="fill:#d2a99a; stroke-width:0px;"/><path d="m923.6,425.24c10.92-1.88,2.03,13.83-2.13,12.8-4.33-1.07-3.4-11.85,2.13-12.8Z" style="fill:#34313f; stroke-width:0px;"/><path d="m206.13,479.66c-4.07,28.96,2.35,16.1,12.27,19.2,2.86.89,13.09,24.42,34.14,13.87,1.87-.94,23.98-24.58,30.41-28.81,1.63,17.34.96,34.89,0,52.28-9.23,6.86-31.42-7.46-57.61,3.2-.42-.32-1.55-.79-2.13-1.07-8.17-9.32-41.56-57.55-17.07-58.68Z" style="fill:#b68b96; stroke-width:0px;"/><path d="m282.94,483.92c-6.43,4.23-28.53,27.87-30.41,28.81-21.05,10.55-31.28-12.98-34.14-13.87-9.92-3.1-16.34,9.75-12.27-19.2,15.65-.72,54,14.76,58.14-35.21,2.61,3.73,11.49,3.25,13.34,5.87.98,1.39,4.95,29.56,5.33,33.61Z" style="fill:#deb69c; stroke-width:0px;"/><path d="m282.94,536.2c-1.38,24.99-5.33,40-5.33,50.14-16.16-9.06-49.47-44.82-52.28-46.94,26.19-10.66,48.38,3.66,57.61-3.2Z" style="fill:#96bc8d; stroke-width:0px;"/><path d="m191.19,481.79c1.81,20.67,12.57,38.77,25.61,54.41-.33,1.69-2.27,2.7-3.73,2.13-4.44-1.71-40.14-49.72-47.48-57.61.61,0,.89-1.04,4.27-1.07,7.18-.05,14.8-1.17,21.34,2.13Z" style="fill:#b68b96; stroke-width:0px;"/><path d="m159.18,481.79c.05,8.36,9.14,16.75-2.67,20.27-12.89,3.84-15.78-15.99-3.73-22.4.64.31,6.07,2.1,6.4,2.13Z" style="fill:#9f7b89; stroke-width:0px;"/></g><path d="m223.2,538.33c.59.28,1.72.75,2.13,1.07,2.81,2.13,36.12,37.88,52.28,46.94v2.13c-7.95-4.46-50.84-40.55-57.61-48.01-.74-.82-1.41-2.35-2.13-3.2,4.75,2.56,5.09.95,5.33,1.07Z" style="fill:#222925; stroke-width:0px;"/><path d="m452.58,124.38l-1.07,2.13c-5.68-.7-10.22-1.11-16-1.07v-3.2c5.31.42,11.75,1.34,17.07,2.13Z" style="fill:#447d5e; stroke-width:0px;"/><path d="m668.09,480.72c-.9,4.34-.78,13.56-2.13,18.67-4.43,16.69-12.21,32.17-17.6,48.54,1.49-6.39,1.08-21.02,1.6-22.94.27-.99,2.11-1.47,2.13-1.6.05-.28,2.29-.59,3.2-4.8,3.45-15.91-3.89-47.77,12.8-37.87Z" style="fill:#c89d9a; stroke-width:0px;"/><path d="m471.78,98.78c-58.43-8.22-121.9-4.32-177.1,18.14,8.32-8.02,29.64-10.6,41.07-13.87,3.54-1.01,2.43-4.06,3.2-4.27,19.28-5.27,70.56-10.2,90.68-9.6,7.54.23,68.3,7.91,71.48,9.6,1.1,8.14-22.34-4.31-29.34,0Z" style="fill:#110d1d; stroke-width:0px;"/><path d="m713.96,250.28c-.49-.3-1.8-.81-2.13-1.07-4.1-13.68-2.95-32.21-3.2-34.14-.11-.9,1.58-1.4,1.07-3.2h1.07c2.33,11.96,3.74,26.21,3.2,38.41Z" style="fill:#b0beb6; stroke-width:0px;"/><path d="m708.63,215.07c.25,1.93-.9,20.46,3.2,34.14-.09-.07-.46,2.11-2.13-.53.82-5.26-3.01-8.63-3.2-9.07-1.3-3.1-1.96-15.49-6.4-11.74-.34-3.6-1.37-7.02-1.07-10.67,4.8,12.16,7.97,7.57,6.4-1.07l3.2-1.07Z" style="fill:#30263d; stroke-width:0px;"/><path d="m706.49,239.61c-2.62,2.84-3.67,6.31-5.33,9.6l-2.13-1.07c1.74-6.8,1.73-13.26,1.07-20.27,4.44-3.75,5.1,8.63,6.4,11.74Z" style="fill:#44948e; stroke-width:0px;"/><path d="m672.35,133.99c-3.83.26-14.75,3.17-7.47,8.54,3.15,2.32,6.38,1.5,9.6,4.27,12.72,10.92,30.13,47.94,35.21,65.08.51,1.8-1.18,2.3-1.07,3.2l-3.2,1.07c-3.71-20.41-17.5-43.98-32.01-58.68-2.24-2.28-6.07-8.95-8.54-5.33-1.93,8.71-6.57,14.45,0,21.87,10.3,11.63-1.78-19.68,16,.53,6.87,7.8,11.39,22.36,14.94,32.01,1.36,3.69,2.36,6.16,1.07,10.14.34.95,2.08.41,2.13.53-.31,3.65.73,7.07,1.07,10.67.66,7.01.67,13.47-1.07,20.27-1.17,4.56-4.75,9.87-6.4,14.4,3.23-12.57-1.2-36.79-3.2-32.01,3.36,14.63.81,30.32,0,45.34,1.48-27.66-32.97-99.96-42.14-101.35-2.89-.44-6.38,11.37-20.27,4.27-9.83-5.02-28.76-62.23-155.23-80.02,7-4.31,30.44,8.14,29.34,0-3.19-1.69-63.94-9.38-71.48-9.6-20.12-.6-71.4,4.34-90.68,9.6-.78.21.34,3.26-3.2,4.27-11.44,3.27-32.75,5.85-41.07,13.87-56.47,22.97-58.93,58.43-81.62,53.34-7.56-1.7-3.18-12.59-15.47.53-14.38,15.36-30.82,54.08-36.27,74.68-1.17,4.44-1.24,14.56-2.13,18.67-8.17-10.21-10.65-39.33-8.54-53.34.27-1.77,6.32-20.67,7.47-23.47,1.63-3.59,3.69-6.92,5.33-10.67,7.17-9.16,14.53-17.53,22.94-25.61,1.26-1.21,13.74-7.3,5.87-9.6-2.51-.73-8.91,6.79-10.67,8.54-8.03,5.96-15.99,14.63-21.34,22.94-4.39,6.82-8.31,17.14-4.27,11.74.55-.73,2.49-6.22,9.6-15.47,2.32.34-.74,4.29-2.13,7.47-4.18,2.65-4.79,9.34-5.33,10.67-3.97,8.75-5.41,13.89-8.54,22.4-1.85,5.02-4.87,9.81-6.4,14.94-5.79,19.36-2.26,9.71,4.27,20.27,4.06,6.56,6.01,16.01,10.67,22.4l-5.33,17.07c-.35.03-.71-.02-1.07,0-5.4-5.11-5.49-33.5-11.2-29.87-1.37.87,4.74,28.14,4.8,32.01-6.85-3.99-2.36-31.47-10.67-33.07-.1-23.79,11.08-38.97,10.67-41.07-.26-1.34-7.84-6.55-7.47-1.6.05-.14-2.01-.12-1.07-2.67,4.43-11.97,13.57-31.29,20.27-42.14,20.94-33.92,51.16-42.97,23.47-37.34h-1.07c32.77-36.55,61.04-60.19,107.22-78.95,129.35-52.56,293.14-23.55,385.68,84.28Z" style="fill:#110d1d; stroke-width:0px;"/><path d="m673.42,157.46c14.5,14.7,28.3,38.27,32.01,58.68,1.57,8.63-1.6,13.22-6.4,1.07-.05-.13-1.8.42-2.13-.53,1.29-3.97.29-6.45-1.07-10.14,1.01-10.47-9.12-24.76-14.4-34.14l-.53,2.13c-17.79-20.22-5.7,11.1-16-.53-6.57-7.42-1.93-13.16,0-21.87l8.54,5.33Z" style="fill:#173348; stroke-width:0px;"/><path d="m699.03,248.14l2.13,1.07c-5.02,9.93-7.22,19.88-11.74,29.87.04-1.06-.06-2.14,0-3.2.81-15.02,3.36-30.71,0-45.34,2.01-4.79,6.43,19.43,3.2,32.01,1.65-4.53,5.24-9.84,6.4-14.4Z" style="fill:#1d4350; stroke-width:0px;"/><path d="m287.21,113.72c-18.14,7.46-35.53,15.55-51.74,26.67-6.47,4.44-13.53,13.25-15.47,10.14,17.02-15.64,40.02-26.12,58.14-35.74,2.42-.22,7.04-.49,9.07-1.07Z" style="fill:#1c1a32; stroke-width:0px;"/><path d="m576.33,122.25c1.72.65,9.66,1.93,10.14,2.13,5.44,2.31,51.4,31.65,49.61,35.74-9.91-4.77-17.65-14.59-27.21-20.8-10-6.5-21.77-11.92-32.54-17.07Z" style="fill:#30263d; stroke-width:0px;"/><path d="m576.33,122.25c-11.36-4.28-23.61-8.03-35.21-11.74,2.8.69,3.55-1.11,3.73-1.07.26.07.15,2.08,4.27,3.2,2.3.62,3.04-1.11,3.2-1.07.26.07,4.01,3.12,4.27,3.2,1.57.51,14.24,2.89,14.94,3.2.29.13,1.5,2.69,4.8,4.27Z" style="fill:#30263d; stroke-width:0px;"/><path d="m695.82,206.53c-3.55-9.64-8.07-24.2-14.94-32.01l.53-2.13c5.28,9.38,15.41,23.67,14.4,34.14Z" style="fill:#47415c; stroke-width:0px;"/><path d="m287.21,113.72c4.25-1.75,7.43-5.71,12.8-3.73.11.66-11.47,3.36-12.8,3.73Z" style="fill:#1c1a32; stroke-width:0px;"/><path d="m673.42,157.46l-8.54-5.33c2.46-3.62,6.29,3.06,8.54,5.33Z" style="fill:#97a7bc; stroke-width:0px;"/><path d="m541.13,110.52c-8.98-2.87-17.62-5.94-3.73-3.2.24.05.59,2.42,3.73,3.2Z" style="fill:#30263d; stroke-width:0px;"/><path d="m150.65,210.8c-2.11,14.02.36,43.13,8.54,53.34-.26,1.18-1.55,1.67-1.07,3.2-4.66-6.39-6.61-15.84-10.67-22.4,1.4-.6.13-4.52,0-6.4-.01-.16.26-.51,0-3.2-1.05-10.77.64-13.11-4.27-10.67,1.53-5.13,4.56-9.92,6.4-14.94l1.07,1.07Z" style="fill:#838f7e; stroke-width:0px;"/><path d="m151.72,284.42c-.34.02-3.88,4.19-6.4,2.13-.06-3.86-6.17-31.14-4.8-32.01,5.71-3.63,5.8,24.76,11.2,29.87Z" style="fill:#c4ab73; stroke-width:0px;"/><path d="m163.45,176.66c1.39-3.18,4.45-7.13,2.13-7.47,3.77-4.89,12.19-15.43,16-19.2,3.05-2.27,9.12-4.61,10.67-8.54,7.87,2.3-4.61,8.39-5.87,9.6-8.4,8.07-15.77,16.44-22.94,25.61Z" style="fill:#373f57; stroke-width:0px;"/><path d="m147.45,235.34v3.2c.13,1.88,1.4,5.8,0,6.4-6.52-10.56-10.06-.91-4.27-20.27,4.91-2.44,3.22-.1,4.27,10.67Z" style="fill:#a7b491; stroke-width:0px;"/><path d="m181.59,149.99c-3.82,3.77-12.24,14.31-16,19.2-7.11,9.25-9.06,14.74-9.6,15.47-4.05,5.4-.12-4.92,4.27-11.74,5.35-8.31,13.31-16.98,21.34-22.94Z" style="fill:#74788b; stroke-width:0px;"/><path d="m193.86,154.26l-13.87,16c.09-5.95,8.91-12.83,13.87-16Z" style="fill:#3c5567; stroke-width:0px;"/><path d="m150.65,210.8l-1.07-1.07c3.13-8.51,4.57-13.65,8.54-22.4-1.15,2.8-7.2,21.7-7.47,23.47Z" style="fill:#636074; stroke-width:0px;"/><path d="m192.26,141.45c-1.54,3.92-7.61,6.27-10.67,8.54,1.76-1.74,8.16-9.27,10.67-8.54Z" style="fill:#acb7cd; stroke-width:0px;"/><path d="m158.12,187.33c.55-1.33,1.15-8.02,5.33-10.67-1.64,3.75-3.71,7.08-5.33,10.67Z" style="fill:#373f57; stroke-width:0px;"/><path d="m711.83,249.21c.33.26,1.65.77,2.13,1.07,1.55.95,2.78.94,4.27,1.6-1.9,1.42-2.85,4.93-3.2,6.93,1.48-8.2-6.37-3.1-7.47,1.07-8.51-5.85-4.73,17.41-9.6,27.74-3.42-.93-6.21-2.95-7.47-3.2-1.29-1.81-1.14-3.25-1.07-5.33,4.51-9.99,6.72-19.95,11.74-29.87,1.66-3.29,2.71-6.76,5.33-9.6.19.44,4.02,3.81,3.2,9.07,1.67,2.64,2.05.47,2.13.53Z" style="fill:#110d1d; stroke-width:0px;"/><path d="m736.37,259.88c.23,2.48-3.93,23.02-4.27,30.41,8.62,6.97,14.36,18.45,16,29.34-3.99-1.23-4.52-18.38-6.4-11.74-3.42-9.88-14.15-21.66-23.47-26.67,1.79-4.12,7.44-25.78,2.67-27.74-4.82-1.98-4.05,12.03-6.93,25.61-.22,1.03-1.59,1.74-1.07,4.27-.08-.07-1.88,2.99-2.13-.53,2.31-3.41,1.69-7.45,2.13-11.2.51-4.26,1.4-8.57,2.13-12.8.35-2.01,1.3-5.51,3.2-6.93-1.49-.66-2.72-.65-4.27-1.6.54-12.2-.87-26.45-3.2-38.41-4.81-24.67-17.74-47.45-33.07-67.21-3.83-4.94-11.83-16.27-12.8-2.13-7.28-5.36,3.63-8.27,7.47-8.54,10.43,12.16,22.34,25.85,29.87,40.01,11.21,21.06,11.03,36.12,20.27,53.34,4.08,11.93,2.64,22.43,3.2,23.47.73,1.36,9.87.6,10.67,9.07Z" style="fill:#2b1622; stroke-width:0px;"/><path d="m710.76,211.87h-1.07c-5.08-17.14-22.49-54.16-35.21-65.08l3.2-2.13c15.33,19.77,28.27,42.54,33.07,67.21Z" style="fill:#b68b96; stroke-width:0px;"/><path d="m677.69,144.66l-3.2,2.13c-3.22-2.77-6.45-1.94-9.6-4.27.98-14.13,8.98-2.8,12.8,2.13Z" style="fill:#e8dfb8; stroke-width:0px;"/><path d="m714.49,221.47c17.07,16.46,5.66,38.92,1.6,25.07-.35-1.21-1.74-20.38-1.6-25.07Z" style="fill:#d5c0b9; stroke-width:0px;"/><path d="m726.23,254.54c14.81-2.05,3.27,12.88,3.2,33.07-11.9-6.68-2.53-10.97-3.2-33.07Z" style="fill:#dcc7b5; stroke-width:0px;"/><path d="m718.23,281.22c-1.4-.75-2.85-1.42-4.27-2.13,2.88-13.58,2.11-27.59,6.93-25.61,4.77,1.96-.88,23.62-2.67,27.74Z" style="fill:#d3b9c3; stroke-width:0px;"/><path d="m715.03,258.81c-.73,4.24-1.63,8.54-2.13,12.8l-7.47,11.74c1.1-8.79,1.83-22.33,2.13-23.47,1.09-4.16,8.94-9.26,7.47-1.07Z" style="fill:#cac1ba; stroke-width:0px;"/><path d="m707.56,259.88c-.3,1.14-1.04,14.68-2.13,23.47-.33,2.64-1.07,3.83,0,5.33-.38-.16-.33.87-7.47-1.07,4.87-10.33,1.09-33.59,9.6-27.74Z" style="fill:#895e89; stroke-width:0px;"/><path d="m690.49,284.42c1.26.25,4.05,2.27,7.47,3.2,7.14,1.94,7.08.91,7.47,1.07,39.45,16.46,24.24,59.04,19.2,82.15-.33,1.49-1.6.98,0,3.2-2.58,1.64-2.94,3.97-4.27,6.4-9.33-7.32-18.89-13.73-30.94-16,1.43-5.69,3.95-10.9,5.33-17.07,1.16-5.17-.47-5.96,0-8.54.85-4.62,2.82-8.9,4.27-13.34,2.1-40.26.58-4.74-6.4,12.27-2.91.43-7.38,7.3-8.54,9.6.34-5.81,2.21-11.38,3.2-17.07,2.5-14.36,6.47-31.95-1.07-44.81.22-.04-.07-1.93,4.27-1.07Z" style="fill:#f2dcb8; stroke-width:0px;"/><path d="m720.36,380.44c-4.92,8.99-6.1,23.45-18.14,19.74,11.87,5.9,2.08,12.79,1.07,15.47q-14.94,3.2-29.87,6.4c5.45-17.39,9.32-35.68,13.87-53.34.06-.23,1.34-1.12,2.13-4.27,12.05,2.27,21.61,8.68,30.94,16Z" style="fill:#50ae91; stroke-width:0px;"/><path d="m703.29,415.64c-3.34,8.84-6.45,16.09-10.67,24.54l-24.54-1.07c1.84-5.51,3.58-11.48,5.33-17.07q14.94-3.2,29.87-6.4Z" style="fill:#194b4e; stroke-width:0px;"/><path d="m718.23,281.22c9.32,5.01,20.05,16.79,23.47,26.67,1.64,4.73,1.71,10.02,2.13,14.94-.92,5.61-3.83,10.68-5.33,16-4.98,17.59-5.26,17.91-11.74,34.14-.73.17-1.53.68-2.13,1.07-1.6-2.22-.33-1.71,0-3.2,12.74-16.8,14.33-54.28,4.27-72.01-3.84-6.76-10.52-10.53-16-15.47-.52-2.53.85-3.24,1.07-4.27,1.42.71,2.87,1.38,4.27,2.13Z" style="fill:#f2dcb8; stroke-width:0px;"/><path d="m681.95,460.45c-4.2,6.61-7.58,13.43-14.94,17.6,4.35,1.64,1.1,2.53,1.07,2.67-16.7-9.9-9.35,21.97-12.8,37.87-.91,4.22-3.15,4.52-3.2,4.8.07-1.48-1.04-.95-2.13-1.07,1.78-2.67,4.08-15.14,0-14.94,4.89-10.82,5.75-16.5,7.47-28.27-9.29-3.8,1.27-14.87,4.27-22.94,3.81,6.15,14.08,3.79,20.27,4.27Z" style="fill:#110d1d; stroke-width:0px;"/><path d="m692.62,440.18c-4.16,8.33-4.61,10.75-10.67,20.27-6.19-.48-16.46,1.88-20.27-4.27,2.08-5.59,4.54-11.47,6.4-17.07l24.54,1.07Z" style="fill:#0f2630; stroke-width:0px;"/><path d="m735.3,371.9c2.39-.35,2.35.71,2.13,2.67-.44,4.08-13.62,49.49-9.07,26.14-5.66,1.64-12.55,1.41-11.2-5.87,6-.53,3.24-1.64,5.33-5.87.9-1.81,2.09-5.37,2.13-7.47.03-.07.47.43,1.07-1.07.93-2.32.95-5.05,1.07-5.33.2-.49-.2-1.64,0-2.13,6.48-16.23,6.76-16.55,11.74-34.14,1.25,13.28-8.67,36.64-9.6,48.54-.74,9.46,2.95-4.03,6.4-15.47Z" style="fill:#1c1a32; stroke-width:0px;"/><path d="m735.3,371.9c-3.46,11.44-7.14,24.93-6.4,15.47.93-11.9,10.85-35.27,9.6-48.54,1.51-5.32,4.41-10.39,5.33-16,1.59,18.33-3.25,31.58-8.54,49.08Z" style="fill:#b6a4ac; stroke-width:0px;"/><path d="m712.89,283.35c5.48,4.94,12.17,8.7,16,15.47,10.06,17.74,8.47,55.22-4.27,72.01,5.04-23.11,20.24-65.69-19.2-82.15-1.07-1.51-.33-2.7,0-5.33l7.47-11.74c-.45,3.75.18,7.8-2.13,11.2.26,3.52,2.05.46,2.13.53Z" style="fill:#110d1d; stroke-width:0px;"/><path d="m662.75,281.22c-2.1,11.88-.44,23.75-2.13,35.74-3.29,23.32-14.63,47.89-16,70.95-2.04,7.45-7.01,32.91-8.54,13.34-.27-3.44,3.35-25.13,4.27-32.54,1.55-12.46,2.96-25.58,5.33-37.87.64-3.3,9.88-18.14,7.47-41.07,3.22-3.23,5.27-6.42,9.6-8.54Z" style="fill:#110d1d; stroke-width:0px;"/><path d="m653.15,289.75c2.42,22.94-6.83,37.78-7.47,41.07-2.37,12.3-3.79,25.42-5.33,37.87-2.13-7.3,10.76-86.14-.53-84.28-3.16,9.05-2.49,20.96-4.8,30.94-5.28-3.28,0-24.12-2.13-35.21,10.42-1.43,15.05.96,20.27,9.6Z" style="fill:#9a9b7b; stroke-width:0px;"/><path d="m684.09,335.63c-2.24,12.61-4.98,21.12-8.54,33.07-15.12,4.03-2.03.9-12.8-3.2,2.9-11.65,9.1-30.18,10.67-37.34l10.67,7.47Z" style="fill:#50ae91; stroke-width:0px;"/><path d="m692.62,337.76l2.13,1.07c-.47,2.57,1.16,3.37,0,8.54-4.01,6.56-5.4,14.39-8.54,21.34-3.93,8.71-9.48,16.2-13.87,24.54l-1.07-1.07c4.86-12.52,7.35-33.88,12.8-44.81,1.15-2.31,5.62-9.17,8.54-9.6Z" style="fill:#50ae91; stroke-width:0px;"/><path d="m665.95,400.71c1.04,1.17.34,4.34,5.33-8.54l1.07,1.07c-5.78,10.98-3.01,24.12-20.8,22.4-2.22-1.65,4.92-23.81,5.87-27.74,10.52-.39,5.51-7.4,10.67-13.34-.35,8.06-6.62,21.12-2.13,26.14Z" style="fill:#1d4350; stroke-width:0px;"/><path d="m667.02,279.08v1.07l-2.13.53c7.31,23.79-11.9,76.65-20.27,107.22,1.37-23.06,12.71-47.63,16-70.95,1.69-11.99.04-23.86,2.13-35.74.21-.1-.25-2.23,4.27-2.13Z" style="fill:#aba288; stroke-width:0px;"/><path d="m635.01,315.36c-2.54,10.94-1.6,12.38-11.74,20.8l6.4-54.94c1.12-.36,2.83-1.02,3.2-1.07,2.14,11.08-3.14,31.93,2.13,35.21Z" style="fill:#8c8977; stroke-width:0px;"/><path d="m675.55,368.7c-3.18,10.68-7.3,21.06-9.6,32.01-4.49-5.02,1.79-18.08,2.13-26.14-5.16,5.93-.15,12.94-10.67,13.34,1.79-7.44,3.49-14.99,5.33-22.4,10.77,4.1-2.31,7.23,12.8,3.2Z" style="fill:#5e9d8d; stroke-width:0px;"/><path d="m687.29,306.82c.19,7.48-.12,14.99-1.07,22.4-.04.33-1.09.54-2.13,6.4l-10.67-7.47c.21-.97-.21-2.22,0-3.2q6.93-9.07,13.87-18.14Z" style="fill:#f2dcb8; stroke-width:0px;"/><path d="m689.42,364.43c-.79,3.15-2.07,4.04-2.13,4.27h-1.07c3.13-6.94,4.52-14.78,8.54-21.34-1.39,6.17-3.9,11.38-5.33,17.07Z" style="fill:#336652; stroke-width:0px;"/><path d="m673.42,324.96c-.21.98.21,2.23,0,3.2-1.57,7.16-7.77,25.7-10.67,37.34-1.85,7.41-3.54,14.96-5.33,22.4-.95,3.93-8.08,26.09-5.87,27.74,17.79,1.72,15.02-11.42,20.8-22.4,4.39-8.34,9.94-15.83,13.87-24.54h1.07c-4.55,17.67-8.42,35.96-13.87,53.34-1.75,5.59-3.5,11.56-5.33,17.07-1.87,5.6-4.32,11.48-6.4,17.07-3,8.07-13.55,19.14-4.27,22.94-1.72,11.77-2.58,17.46-7.47,28.27-3.08,6.81-14.36,13.37,0,14.94,1.09.12,2.2-.41,2.13,1.07-.03.13-1.86.61-2.13,1.6-.52,1.92-.11,16.55-1.6,22.94,5.4-16.37,13.18-31.85,17.6-48.54,1.36-5.11,1.23-14.33,2.13-18.67.03-.14,3.28-1.03-1.07-2.67,7.35-4.17,10.73-11,14.94-17.6,6.06-9.52,6.51-11.94,10.67-20.27,4.22-8.45,7.33-15.7,10.67-24.54,1.01-2.68,10.8-9.57-1.07-15.47,12.03,3.71,13.22-10.75,18.14-19.74,1.33-2.43,1.69-4.76,4.27-6.4.61-.39,1.41-.9,2.13-1.07-.2.49.2,1.65,0,2.13-2.51.51-3.15,4.68-1.07,5.33-.6,1.5-1.04,1-1.07,1.07-.76,1.7-5.27,5.76-2.13,7.47-2.1,4.23.66,5.34-5.33,5.87-1.35,7.28,5.54,7.51,11.2,5.87-4.55,23.35,8.62-22.06,9.07-26.14.21-1.96.26-3.02-2.13-2.67,5.28-17.5,10.12-30.74,8.54-49.08-.43-4.92-.5-10.21-2.13-14.94,1.88-6.65,2.41,10.5,6.4,11.74,1.84,12.17-.13,23.2-2.13,35.21-2.84,17.01-9.14,33.36-12.8,50.14-14.5,66.47-3.24,65.82-55.48,131.23-8.83,11.05-18.17,22.06-28.81,31.47.05,7.09-.44,14.98-2.13,21.87-.15.61.15,1.52,0,2.13-2.96,11.95-8.89,23.05-16,33.07-2.49,0-4.98,0-7.47,0,8.69-12.53,13.66-20.25,17.07-35.21.19-.82.63-1.48,1.07-4.27.66-4.18,1.93-8.53,1.6-12.8-1.36-.85-8.82,4.99-13.34,7.47-3.4,1.86-6.06,4.09-6.4,4.27-.26.13-2.71.92-5.33,2.13l-1.07-3.2c23.07-10.6,27.74-17.34,27.74-42.68,0-23.9-4.53-17.69-5.33-20.8-.48-1.86,1.23-35.5-1.07-38.41-.33-.41-4.84-1.18-6.4-1.6-8.33-2.21-48.24,11.71-64.01-11.74-4.94-7.34-5.82-14.35-5.33-22.94-15.32.09-13.42,11.12-16,32.54-1.01,8.37-1.63,17.18-2.13,25.61-.81,13.5-1.6,29.27-1.07,42.68.83,21,6.7,38.33,5.33,42.14-.53,1.47-4.92,3.02-6.4,3.73-.75.36-1.34.78-2.13,1.07-1.26.45-1.97,1.54-4.27,1.07-.76-6.78-3.82-8.43-3.2-14.4,7.37-14.41,9.79-61.87,8.54-77.35-.53-6.57-3.12-13.62-3.73-20.27-12.17,49.76-10.66,37.93-11.74-6.4-2.19,0-1.58,40.22-1.6,43.74-9.8,21.9-6.71,23.45-27.74,34.14l-2.13-2.13c1.76-2.78,1.51-12.7,0-16-1.23-2.69-2.99-1.72-3.2-3.2.29-.11,2.51-3.03,5.33-3.2.44,4.42.98,8.89,1.07,13.34l2.13-.53c11.32-3.25,17.27-47.11,18.14-57.61.81-9.78-.29-20.06,1.6-29.87-7.72,3.88-8.31,15.09-10.14,18.67-1.1,2.16-5.75,2.09-6.4,4.8-1.73,7.24,15.01,26.45-2.13,34.14-.16-.46-.95-2.13-1.07-2.13,11.6-8.93-1.22-18.41-3.2-28.27-1.63-8.11-1.19-43,1.07-51.21.43-1.57,4.21-5.59,5.33-8,30.4-15.97-13.41,15.51,18.67-3.2,17.08-3.04,30.25,10.21,42.68,7.47,8.27-7.41,17.41-6.64,26.14-13.87.83-.69,4.06-1.49,6.4-4.8-2.2-10.42,10.25-8.83,7.47-19.2-.42-1.58-7.71-4.6-8.54-17.6-.73-11.6,12.25-82.62,34.14-89.62l-6.4,54.94c10.13-8.43,9.2-9.87,11.74-20.8,2.31-9.98,1.64-21.89,4.8-30.94,11.29-1.86-1.6,76.98.53,84.28-.92,7.41-4.53,29.1-4.27,32.54,1.52,19.58,6.49-5.88,8.54-13.34,8.37-30.57,27.58-83.43,20.27-107.22l2.13-.53,2.67,6.4-2.67-6.4v-1.07c18.33.4,8.63,35.28,6.4,45.88Z" style="fill:#110d1d; stroke-width:0px;"/><path d="m670.22,536.2c-21.64,25.19-29,40.74-12.8,0h12.8Z" style="fill:#96bc8d; stroke-width:0px;"/><path d="m641.41,585.28q-5.87-2.67-11.74-5.33c4.52-2.48,11.97-8.32,13.34-7.47.32,4.27-.94,8.62-1.6,12.8Z" style="fill:#96bc8d; stroke-width:0px;"/><path d="m544.33,593.81c-1.96.25-4.46.3-4.27-1.07.79-.29,1.38-.7,2.13-1.07l2.13,2.13Z" style="fill:#7c9885; stroke-width:0px;"/><path d="m593.94,415.64q-4.27,5.87-8.54,11.74h-7.47c-14.33,18.46-51.7-9.19-69.88,24-4.76,8.69-5.75,20.3-6.4,21.34-3.96,6.32-1.87-15.58,1.07-23.47,11.79-31.67,47.13-16.58,62.41-19.74,5.03-6.52,15.84-1.82,28.81-13.87Z" style="fill:#1d7777; stroke-width:0px;"/><path d="m541.13,502.06c-3.3,4.05-8.8,14.07-10.67,18.67-9.28,22.88-6.62,34.31-6.4-1.6.02-3.52-.59-43.74,1.6-43.74,1.08,44.33-.44,56.16,11.74,6.4.61,6.65,3.2,13.7,3.73,20.27Z" style="fill:#388c77; stroke-width:0px;"/><path d="m544.86,570.34c2.26,3.39,2.31,22.82-5.33,18.14-1.86-1.14,5.48-12.18,5.33-18.14Z" style="fill:#c5baa7; stroke-width:0px;"/><path d="m649.95,522.33c-14.36-1.57-3.08-8.13,0-14.94,4.08-.2,1.78,12.26,0,14.94Z" style="fill:#1d4350; stroke-width:0px;"/><path d="m722.5,388.97c-3.14-1.71,1.38-5.77,2.13-7.47-.04,2.1-1.24,5.66-2.13,7.47Z" style="fill:#30263d; stroke-width:0px;"/><path d="m725.7,380.44c-2.09-.65-1.44-4.83,1.07-5.33-.12.29-.14,3.02-1.07,5.33Z" style="fill:#47415c; stroke-width:0px;"/><path d="m625.41,363.37c3.05,1.5,3.03,1.51,2.13,10.14-.27,2.6-7.33,44.19-8.54,50.14-5.54,27.45-4.79,4.16,1.07-17.07-.95-12.63,4.57-31.92,1.07-43.74.58-.82,1.25-1.16,2.13-1.6-.45,3.01,1.49,1.81,2.13,2.13Z" style="fill:#30263d; stroke-width:0px;"/><path d="m632.35,331.36c-.49,4.64-1.81,22.53-2.67,24-6.61,11.36-12.18-16.7,2.67-24Z" style="fill:#6c6768; stroke-width:0px;"/><path d="m669.69,287.62c1.13,0,1.08,17.22-.53,21.87-2.48,7.15.3-6.92.53-21.87Z" style="fill:#7b7670; stroke-width:0px;"/><path d="m625.41,363.37c-.65-.32-2.58.87-2.13-2.13,3.04-1.51,9.1-.35,2.13,2.13Z" style="fill:#c2b9c1; stroke-width:0px;"/><path d="m665.42,321.76c2.64-2.19-.51,6.52-1.07,6.4-1.27-.27.59-6.01,1.07-6.4Z" style="fill:#6c6768; stroke-width:0px;"/><path d="m667.02,280.15l2.67,6.4-2.67-6.4Z" style="fill:#aba288; stroke-width:0px;"/><path d="m666.49,317.49c1.99-2.19.77,3.54,0,3.2-1.04-.45-.66-2.48,0-3.2Z" style="fill:#6c6768; stroke-width:0px;"/><path d="m686.22,285.48c7.54,12.86,3.56,30.45,1.07,44.81l-1.07-1.07c.95-7.42,1.25-14.92,1.07-22.4-.62-24.8-7.18-20.09-1.07-21.34Z" style="fill:#0e161d; stroke-width:0px;"/><path d="m687.29,330.29c-.99,5.69-2.86,11.26-3.2,17.07-5.45,10.93-7.94,32.29-12.8,44.81-5,12.88-4.29,9.7-5.33,8.54,2.31-10.94,6.43-21.33,9.6-32.01,3.55-11.95,6.29-20.47,8.54-33.07,1.04-5.86,2.09-6.07,2.13-6.4l1.07,1.07Z" style="fill:#112925; stroke-width:0px;"/><path d="m694.76,338.83l-2.13-1.07c6.99-17,8.5-52.53,6.4-12.27-1.45,4.44-3.42,8.72-4.27,13.34Z" style="fill:#222925; stroke-width:0px;"/><path d="m180.52,128.65c-6.46,12.82-16.68,22.93-24.54,35.21-5.06,7.91-12.63,19.82-16,28.27-3.01,7.53-7.88,23.19-4.27,21.87-3.99,11.83-12.84,19.97-4.27,39.47-8.34,3.64,6.76,22.84,6.4,29.34-1.29,7.11-30.95,1.35-18.14,72.01,1.04,5.72,1.68,8.33,3.2,13.87-1.26.09-3.03-.16-3.2,0-7.22-21.18-5.89-40.52-3.2-62.41-6.62,11.93-7.05,26.95-5.33,40.01h-1.07c-2.1-20.94-.9-49.35,17.07-63.48-.43-.76-2.13-3.52-2.13-3.73-.33-9.04-2.62-18.12-1.07-27.21-15.98-2.97-5.36,20.09-5.33,30.41-.15.13.79.26-2.13,3.2.4-2.52-1.04-2.02-1.07-2.13-1.59-7.59-1.33-18.34-4.27-26.14,1.14-.98,1.37-2.51,2.13-3.73,1.33-2.12,10.27-6.49,12.8-9.07-2.92-5.72,2.04-15.28,2.13-19.74,4.79-10.57,5.83-22.08,9.6-33.07,2.8-8.16,7.47-19.25,11.74-26.67,8.13-14.14,19.18-24.35,29.87-36.27h1.07Z" style="fill:#1a171c; stroke-width:0px;"/><path d="m134.65,253.48c8.31,1.61,3.82,29.08,10.67,33.07,2.52,2.05,6.06-2.11,6.4-2.13.35-.02.71.03,1.07,0,2.72-.21,6.13-.43,8.54,1.07-3.66,14.05-2.72,24.99,2.13,38.41.46,1.26,1.54,1.97,1.07,4.27-5.53,4.89-6.22,6.1-12.8,1.07-2.47-17.16-6.06-24.45,1.6-42.68-9.06,13.06-5.75,29.94-4.8,44.81l-3.2-3.73c-.33,4.12-.01,8.18,3.2,11.2.04.35-.04.72,0,1.07-7.46,8.51-20.85-.08-28.81,14.94-12.81-70.66,16.85-64.9,18.14-72.01.36-6.5-14.74-25.69-6.4-29.34.33-.15,2.52-.13,3.2,0Z" style="fill:#f2dcb8; stroke-width:0px;"/><path d="m134.65,253.48c-.68-.13-2.87-.15-3.2,0-8.57-19.5.28-27.64,4.27-39.47.06-.18,1.07-.23,2.13-3.2-.37-4.95,7.21.26,7.47,1.6.41,2.1-10.77,17.28-10.67,41.07Z" style="fill:#c5baa7; stroke-width:0px;"/><path d="m157.05,165.99l-1.07-2.13c7.86-12.28,18.07-22.39,24.54-35.21,27.69-5.63-2.53,3.42-23.47,37.34Z" style="fill:#f2dcb8; stroke-width:0px;"/><path d="m157.05,165.99c-6.7,10.85-15.84,30.18-20.27,42.14-.95,2.55,1.12,2.53,1.07,2.67-1.06,2.97-2.07,3.02-2.13,3.2-3.61,1.32,1.26-14.34,4.27-21.87,3.38-8.45,10.94-20.37,16-28.27l1.07,2.13Z" style="fill:#c89d9a; stroke-width:0px;"/><path d="m133.58,397.51c-1.12-1.05-9.67-25.18-10.67-28.81-1.52-5.54-2.16-8.15-3.2-13.87,7.95-15.02,21.35-6.43,28.81-14.94,3.78,35.92,24.1,69.08-14.94,57.61Z" style="fill:#50ae91; stroke-width:0px;"/><path d="m110.11,346.3c.89,8.87,4.74,17.19,3.2,26.67-2.27-6.95-7.6-24.97-8.54-30.94-3.54-22.67-5.45-39.26,11.74-56.54,2.93-2.94,1.99-3.08,2.13-3.2.27-.23,2.12,1,6.4-3.2,0,.21,1.7,2.97,2.13,3.73-17.97,14.12-19.17,42.54-17.07,63.48Z" style="fill:#e8dfb8; stroke-width:0px;"/><path d="m119.71,368.7c.17-.16,1.94.09,3.2,0,1,3.63,9.55,27.76,10.67,28.81-12.57,5.08-12.88-1.92-20.27-24.54,1.54-9.48-2.31-17.81-3.2-26.67h1.07c.32,2.47,3.42,15.34,4.27,17.6,4.72,12.64,3.22,5.77,4.27,4.8Z" style="fill:#142536; stroke-width:0px;"/><path d="m116.51,285.48c-17.19,17.28-15.27,33.88-11.74,56.54-4.21-.42-1.61,8.57-1.07,13.87-7.19-5.83-3.62-21.71-7.47-30.94,1.03-7.02,6.16-22.53,9.6-28.81,1.28-2.33,3.57-5.45,5.33-7.47,1.37-1.56,4.62-2.36,4.27-5.33.02.12,1.47-.38,1.07,2.13Z" style="fill:#194b4e; stroke-width:0px;"/><path d="m125.04,279.08c-4.28,4.2-6.13,2.97-6.4,3.2-.03-10.31-10.64-33.38,5.33-30.41-1.55,9.09.74,18.16,1.07,27.21Z" style="fill:#5fc0a3; stroke-width:0px;"/><path d="m119.71,368.7c-1.05.97.46,7.84-4.27-4.8-.85-2.26-3.94-15.14-4.27-17.6-1.72-13.06-1.29-28.08,5.33-40.01-2.69,21.89-4.02,41.23,3.2,62.41Z" style="fill:#dcc7b5; stroke-width:0px;"/><path d="m165.59,328.16c.93,3.3,2.18,6.79,4.27,9.6,1.48,11.81,10.4,38.79,2.67,43.74-3.65-28.17-5.26-11.86-2.67,4.27-.29.31.56,2.76-.53,3.2-.66.27-.06-2.19-1.6-2.13-7.43-24.17-12.22-31.34-16-57.61,6.58,5.03,7.28,3.82,12.8-1.07h1.07Z" style="fill:#50ae91; stroke-width:0px;"/><path d="m218.93,281.22c-5.84,20.88-1.75,44.1-2.13,46.41-2.31,13.81-17.27-15.62-12.8-46.41,7.66-3.95,7.65-4.71,14.94,0Z" style="fill:#8c8977; stroke-width:0px;"/><path d="m164.52,323.89h-1.07c-4.86-13.41-5.79-24.35-2.13-38.41-.18,13.21.07,25.5,3.2,38.41Z" style="fill:#26211e; stroke-width:0px;"/><path d="m165.59,328.16h-1.07c.47-2.3-.61-3.01-1.07-4.27h1.07c.32,1.34.7,2.98,1.07,4.27Z" style="fill:#6f6c5b; stroke-width:0px;"/><path d="m103.71,355.9c3.55,34.6,26.32,109.18,60.81,124.82-2.34-.61-3.45,1.28-5.33,1.07-.34-.04-5.76-1.83-6.4-2.13-5.15-2.46-11.99-13.61-16-16-20.85-33.77-46.17-100.32-40.54-138.69,3.85,9.23.28,25.11,7.47,30.94Z" style="fill:#142536; stroke-width:0px;"/><path d="m191.19,481.79c-6.53-3.3-14.15-2.18-21.34-2.13q-9.07-13.6-18.14-27.21c6.13.93,18.17.39,21.87-4.8,5.22,11.71,7.84,25.48,17.6,34.14Z" style="fill:#110d1d; stroke-width:0px;"/><path d="m186.92,294.02c.63,3.06-.62,8.12,0,11.2,3.24,16.19,7.66,32.18,10.14,48.54,1.55-19.64-1.65-39.07-2.67-58.68,3.56-9.02.06-8.95,9.6-13.87-4.47,30.79,10.49,60.22,12.8,46.41.39-2.3-3.71-25.53,2.13-46.41,11.46,7.4,18.7,38.87,20.27,52.28.35,3.02-.19,6.48,0,9.6.43,7.25,1.92,14.54,1.07,21.87-.36,3.09-3.49,9.35-4.27,12.27-2.86,10.81-6.32,11.06-5.33,18.67l19.74,21.87c17.04,2.45,16.04,13,35.21,10.67,3.05-.37,35.44-19.08,47.48,21.34,8.81,29.59-3.56,31.22-4.27,33.61-1.72,5.8,3.82,15.23,2.13,21.34,6.72-5.29,9.82-2.65,13.34-11.2-.6,15.44,1.31,9.15,2.67,10.67,2.26,2.52,1.81,4.86,5.33,0,1.51-2.07,2.39-4.35,2.13-6.93,2.67-3.19,4.97,10.82-2.13,12.8.13,5.99-1.49,11.95-3.2,17.6-.35-32.75-17.54-16.1-18.14-14.4-.42,1.2-.43,11.19,1.6,11.2,6.53-20.6,4-12.44,3.73,2.67l2.13,1.6c.87.07,1.94-.13,2.13,0,2.21,1.49,4.73.58,5.33,3.2,2.23,2.81,2.47,2.63-1.07,5.33-.41.32-2.02-2.88-3.73,2.13-4.33-12.71-12.79-2.38-3.2,8.54,6.24-10.62,2.46-.68,4.8,1.6,1.07,1.05,2.45-1.81,2.67-1.6,1.05.98-.11,4.75,2.13,5.33,2.75.71,2.78-4.39,3.2-4.27.69.21.08,14.09,5.33,1.07-.26,7.04,5.29,13.45,5.87,3.2h2.13c.13.87.18,13.46,4.8,9.6,2.49-2.08-2.4-33.08,3.73,0-.88,2.75-2.69,3.27-3.2,4.27-1.33,2.58-4.11,3.56-4.27,5.87l7.47,23.47-1.6.53c-19.52-8.82-31.3-66.28-21.34-12.8-15.64-9.03-5.01-29.74-15.47-29.34,1.18,31.78,1.25,27.15-9.6,1.6-2.4-22.65,8.85-42.79-6.4-51.21,1.36-3.49,3.58-19.54,7.47-28.27-15.93,7.8-8.56-16.89-16.54-25.07,1.03,18.78-.39,37.81.53,56.54.39,7.84,1.32,15.61,1.07,23.47l2.13,9.6c-2.92-.39-1.99,1.22-2.13,3.2-11.91-12.91-9.08-43.41-11.74-61.35-5.02,10.97-5.31,23.89-4.8,35.74-14.32-44.07-8.51-36.32-6.93-2.67,1.27,27.21-6.17,62.32,1.6,63.48,8.03-5.69,10.01,1.45,14.4,2.13,2.06.32,1.61-2.93,4.27-2.13,1.87,9.14,2.98,13.58,1.07,23.47-.16-.02-3.04-.03-3.2,0-6.07-8.79-16.3-11.18-25.61-14.94-.83-.08-1.88.14-2.13,0v-2.13c0-10.14,3.96-25.15,5.33-50.14.96-17.39,1.63-34.93,0-52.28-.38-4.04-4.35-32.22-5.33-33.61-1.85-2.62-10.73-2.14-13.34-5.87-4.15,49.97-42.5,34.49-58.14,35.21-24.49,1.13,8.9,49.36,17.07,58.68-.25-.12-.59,1.49-5.33-1.07-.65-.76-1.02-1.01-1.07-1.07-13.04-15.64-23.8-33.75-25.61-54.41-9.76-8.66-12.38-22.43-17.6-34.14-3.71,5.19-15.74,5.73-21.87,4.8q9.07,13.6,18.14,27.21c-3.37.02-3.66,1.07-4.27,1.07-.36,0-.71,0-1.07,0-34.49-15.65-57.27-90.23-60.81-124.82-.54-5.3-3.15-14.29,1.07-13.87.93,5.97,6.26,23.99,8.54,30.94,7.4,22.62,7.7,29.62,20.27,24.54,39.04,11.46,18.72-21.7,14.94-57.61-.04-.35.04-.72,0-1.07-.16-1.52,1.68-.74,2.13-1.6-.6-.88-2.11-5.56-2.13-5.87-.95-14.87-4.26-31.75,4.8-44.81-7.66,18.23-4.07,25.52-1.6,42.68,3.79,26.27,8.58,33.44,16,57.61-.7.02-1.45-.1-2.13,0-10.69-33.26-13.93-33.09-3.2,1.07,1.09,3.48,7.07,25.22,11.2,24.54,9.45-4.61,6.61-37.66-3.73-26.67-2.59-16.13-.99-32.44,2.67-4.27,7.73-4.96-1.19-31.93-2.67-43.74-1.75-13.96-11.32-53.66,5.33-58.68-11.79,24.83,6.7,58.55,13.34,84.28-.5-17.46-6.58-34.45-8-51.74-1.24-15.09,3.42-28.15-2.13-33.61,5.84.91,7.54,11.13,8.54,16Z" style="fill:#110d1d; stroke-width:0px;"/><path d="m305.35,603.41c-.17.03.47,1.57-3.2,1.07-4.1-2.11-21.15-12.5-22.4-12.8v-3.2c9.3,3.76,19.53,6.15,25.61,14.94Z" style="fill:#388c77; stroke-width:0px;"/><path d="m261.6,428.45c2.72,1.53,4.99,4.12,8,5.33,28.99-2.74,52.69-6.72,60.81,27.74-25.15-50.9-61.04-4.29-79.48-35.21,2.88,1.05,7.55,1.26,10.67,2.13Z" style="fill:#175c5e; stroke-width:0px;"/><path d="m344.82,537.27c14.79,1.65,10.27,6.28,11.2,6.4.98.13,7.11-12.4,5.87,9.6-.58,10.25-6.13,3.84-5.87-3.2-5.25,13.03-4.65-.86-5.33-1.07-.42-.13-.45,4.98-3.2,4.27-2.24-.58-1.09-4.35-2.13-5.33-.22-.21-1.59,2.65-2.67,1.6-2.34-2.28,1.44-12.22-4.8-1.6-9.59-10.91-1.13-21.25,3.2-8.54,1.71-5.01,3.32-1.82,3.73-2.13Z" style="fill:#175c5e; stroke-width:0px;"/><path d="m349.09,527.67c-.61,2.02-.82,2.54-2.13,4.27h-1.07c-.61-2.62-3.12-1.71-5.33-3.2l.53-16-2.67,16-2.13-1.6c.27-15.11,2.8-23.26-3.73-2.67-2.03,0-2.02-10-1.6-11.2.6-1.7,17.78-18.35,18.14,14.4Z" style="fill:#1d7777; stroke-width:0px;"/><path d="m372.56,562.87c-6.13-33.08-1.24-2.08-3.73,0-4.62,3.85-4.67-8.73-4.8-9.6-2.53-17.26,8.12-7.82,8.54-6.93.74,1.58.71,14.33,0,16.54Z" style="fill:#1d7777; stroke-width:0px;"/><path d="m261.6,428.45c-3.12-.87-7.79-1.08-10.67-2.13-15.77-5.77-18.92-20.71-17.6-21.34,11.29,16.64,16.1,14.21,24.54,19.2,1.56.92,3.49,4.13,3.73,4.27Z" style="fill:#5e9d8d; stroke-width:0px;"/><path d="m311.75,509.53c-1.5,5.65,1.96,16.4-1.07,22.4.26-7.86-.68-15.64-1.07-23.47l2.13,1.07Z" style="fill:#b0beb6; stroke-width:0px;"/><path d="m325.08,493.53c6.8,15.7,1.92,19.69-.53.53l.53-.53Z" style="fill:#305b69; stroke-width:0px;"/><path d="m178.39,278.02c5.55,5.45.89,18.51,2.13,33.61,1.42,17.29,7.5,34.28,8,51.74-6.63-25.73-25.12-59.45-13.34-84.28,1.25-.38,1.47-1.34,3.2-1.07Z" style="fill:#aba288; stroke-width:0px;"/><path d="m194.39,295.09c1.01,19.61,4.22,39.04,2.67,58.68-2.47-16.36-6.89-32.35-10.14-48.54-.62-3.08.63-8.15,0-11.2,1.54.32,4.99,6.75,5.87,6.4.56-.22,1.23-4.4,1.6-5.33Z" style="fill:#aba288; stroke-width:0px;"/><path d="m139.98,420.98q11.2-2.67,22.4-5.33c11.94,32.06,15.04,35.54-12.8,33.61-3.56-9.39-6.93-18.57-9.6-28.27Z" style="fill:#1d4350; stroke-width:0px;"/><path d="m162.38,415.64q-11.2,2.67-22.4,5.33c-1.44-5.22-3.89-10.55-4.27-16q11.2-.53,22.4-1.07c1.65,1.82,2.72,7.57,4.27,11.74Z" style="fill:#388c77; stroke-width:0px;"/><path d="m162.38,387.9c1.61.51,2.04-.89,3.2-1.07.68-.1,1.43.02,2.13,0,1.54-.05.94,2.4,1.6,2.13,1.09-.44.24-2.89.53-3.2,10.34-10.99,13.18,22.06,3.73,26.67-4.13.68-10.11-21.06-11.2-24.54Z" style="fill:#1d4350; stroke-width:0px;"/><path d="m165.59,386.84c-1.16.18-1.59,1.58-3.2,1.07-10.73-34.15-7.49-34.32,3.2-1.07Z" style="fill:#44948e; stroke-width:0px;"/><path d="m158.12,403.91q-11.2.53-22.4,1.07c-.08-1.15-2.12-1.82-.53-3.2h22.4c.99.41.34,1.92.53,2.13Z" style="fill:#b0beb6; stroke-width:0px;"/><path d="m214.13,356.96l1.07,29.87c-.99-2.68-3.88-29.83-1.07-29.87Z" style="fill:#1c1a32; stroke-width:0px;"/><path d="m148.52,331.36c.02.31,1.53,4.99,2.13,5.87-.46.86-2.29.08-2.13,1.6-3.21-3.02-3.54-7.08-3.2-11.2l3.2,3.73Z" style="fill:#5e8c82; stroke-width:0px;"/><path d="m208.79,328.16c3.56,4.64,4.74,6.06,1.07,10.67l-1.07-10.67Z" style="fill:#c5baa7; stroke-width:0px;"/><path d="m213.06,336.69l1.6.53c-3.99,9.54-6.46,8.52-1.6-.53Z" style="fill:#9f9a9c; stroke-width:0px;"/><path d="m147.45,238.54v-3.2c.26,2.69-.01,3.04,0,3.2Z" style="fill:#364739; stroke-width:0px;"/><path d="m535.79,593.81c1.66,14.83-13.18,14.05-14.94,14.94-9.3-2.78-4.75-18.28-8-18.14-4.37,9.29-7.38,13.48-.53,22.4-7.04,3.3-14.12,6.89-20.27,11.74-2.85,0-5.69,0-8.54,0,.63-2.59-3.14-4.01-3.2-4.27-1.43-5.98,1.06-40.07,0-52.28.58-.29,4.27-8.06,8.54,3.2,1.97,5.19,1.15,23.48,5.33,20.8,1.14-4.59,15.01-27.19,14.94-28.81-.07-1.57-8.94-9.05-9.6-9.07-4.35-.13-3.12.51-3.2,6.4-2.65,4.29-3.22,7.49-5.33,5.33-.72-9.01-2.95-1.22-4.8-1.07-1.49.12.92-7.54-17.6,9.07l.53,1.6c2-2.94,5.22-3.65,8-5.33l-5.33,54.41c-8.89,0-17.78,0-26.67,0,1.55-13.34-.65-34.98,6.4-43.74,3.48,3.65-2.04,22.59,4.27,7.47.09,1.51,1.98,13.73,2.67,13.87,3.62-6.82,4.57-13.89,5.87-21.34.89-5.11-1.76-13.07,1.6-16,.98-1.3,17.37-5.11,30.41-11.74,21.03-10.69,17.94-12.24,27.74-34.14-.22,35.91-2.88,24.48,6.4,1.6,1.86-4.6,7.37-14.62,10.67-18.67,1.25,15.48-1.16,62.94-8.54,77.35-.62,5.97,2.44,7.62,3.2,14.4Z" style="fill:#f2dcb8; stroke-width:0px;"/><path d="m324.55,556.47c10.85,25.55,10.79,30.18,9.6-1.6,10.46-.4-.17,20.31,15.47,29.34-9.96-53.48,1.82,3.98,21.34,12.8l1.6-.53-7.47-23.47c.16-2.3,2.93-3.29,4.27-5.87,4.12,14.3,3.58,26.46,14.4,38.41,3.42-5.53-12.79-34.13-2.13-32.01,4.93.98,4.71,41.59,9.6,49.08,2.18.03,1.67-23.73,1.6-26.14-.92-33.29-7.09-26.18,13.34,9.07,2.03-15.37-3.7-21.9,8.54-34.14,2.47-.26,2.76,5.16,3.73,7.47-2.12-.82-3.4,6.19-4.27,9.6-2.86,11.19-2.29,18.72-2.13,30.41l-1.6,1.6-14.94-10.67,2.67,14.94c-7.82,0-15.65,0-23.47,0,4.63-18.43,7.3-20.11-10.14-26.67-.07,11.32-13.8,14.73-8,26.67-3.91,0-7.82,0-11.74,0,.33-2.21-3.16-4.52-3.2-6.4-.06-2.69,7.69-11.27-6.93-27.74-3.7-1.1-14.07,13.95-18.14,14.94-6.89,1.67-7.55-2.08-8-2.13,1.92-9.89.8-14.33-1.07-23.47-1.27-6.21-4.29-12.19-6.4-18.14,4.01-4.53,5.43-4.2,10.67-1.07,20.35,31.26,8.14,3.44,4.27-10.67q4.27,3.2,8.54,6.4Z" style="fill:#388c77; stroke-width:0px;"/><path d="m442.97,589.54c-1.06,5.41-2.86,10.67-4.27,16-1.67,6.34-3.29,12.71-4.27,19.2-3.56,0-7.11,0-10.67,0q-4.8-18.14-9.6-36.27c.87-3.41,2.15-10.42,4.27-9.6,3.38,8,5.65,16.54,9.07,24.54,2.22.76,1.06-5.41,3.73-13.87.65-2.06,2.4-11.36,4.8-11.74,3.85-.6,4.19,10.48,6.93,11.74Z" style="fill:#50ae91; stroke-width:0px;"/><path d="m374.69,624.75c-6.05,0-12.09,0-18.14,0-5.8-11.95,7.94-15.35,8-26.67,17.44,6.56,14.77,8.25,10.14,26.67Z" style="fill:#0f2630; stroke-width:0px;"/><path d="m423.77,624.75c-8.54,0-17.07,0-25.61,0l-2.67-14.94,14.94,10.67,1.6-1.6c-.16-11.68-.72-19.21,2.13-30.41q4.8,18.14,9.6,36.27Z" style="fill:#e8dfb8; stroke-width:0px;"/><path d="m480.31,620.48l-7.47,4.27c-.36,0-.71,0-1.07,0l5.33-54.41c.16-.1-.08-.46,3.2-2.13,1.06,12.21-1.43,46.3,0,52.28Z" style="fill:#50ae91; stroke-width:0px;"/><path d="m451.51,581.01c-7.05,8.76-4.85,30.41-6.4,43.74-1.78,0-3.56,0-5.33,0l-1.07-19.2c1.41-5.34,3.21-10.59,4.27-16,.56-2.84,5.09-4.61-1.07-8,2.77-.18,7-3.27,9.6-.53Z" style="fill:#88c4a0; stroke-width:0px;"/><path d="m341.62,618.35c.05,1.88,3.53,4.19,3.2,6.4-5.69,0-11.38,0-17.07,0,1.16-2.26,4.3-3.35,6.4-4.27,2.22-.97,4.98-2.05,7.47-2.13Z" style="fill:#0e161d; stroke-width:0px;"/><path d="m439.77,624.75c-1.78,0-3.56,0-5.33,0,.97-6.49,2.59-12.87,4.27-19.2l1.07,19.2Z" style="fill:#dce3b9; stroke-width:0px;"/><path d="m483.52,624.75c-3.56,0-7.11,0-10.67,0l7.47-4.27c.06.26,3.84,1.68,3.2,4.27Z" style="fill:#033e31; stroke-width:0px;"/><path d="m499.52,377.24c16.31,5.27,31.72,8.55,49.08,7.47.16,2.46-.24,5.02,0,7.47-19.45,4.15-6.62,3.15,8,18.14,16.48-4.67-4.11-8.43-6.93-13.87,1.1-1.87,3.41-2.19,5.33-2.13,17.23.52,19.63,14.62,35.21,18.14-8.73,7.23-17.87,6.46-26.14,13.87-12.43,2.75-25.6-10.51-42.68-7.47-32.08,18.71,11.73-12.77-18.67,3.2,8.29-17.75,9.17-17.25,29.87-24-2.7-3.88-9.21-5.53-13.87-5.87-1.79-.13-.44-.82-4.27,0,.57-3.24-3.92-2.45-6.4-2.13-.35.04-.73-.07-1.07,0-.15-3.99-15.37-4.61-16.54-5.33-2.64-1.65-2.07-7.22-3.73-10.67,4.23.57,8.77,1.9,12.8,3.2Z" style="fill:#50ae91; stroke-width:0px;"/><path d="m593.4,371.9l2.13-1.07c.82,13.01,8.11,16.02,8.54,17.6,2.78,10.38-9.67,8.78-7.47,19.2-2.34,3.32-5.57,4.11-6.4,4.8-15.58-3.51-17.97-17.61-35.21-18.14-.09-1.41.14-2.87,0-4.27l22.4-10.14c-.6-1.64-24.15,4.62-26.67,4.8-.71.05-1.43-.04-2.13,0-17.36,1.08-32.77-2.2-49.08-7.47,4.82.54,4.06-1,4.27-1.07,7.96-2.51,4.52,2.02,7.47,3.2,10.85,4.34,21.53,2.62,32.01-2.13,1.24-.56,2.01-1.45,3.2-2.13,6.15,3.64-6.99,3.35,4.27,5.33,14.26,2.51,26.2-20.51,30.94-32.01,2.88-6.97,4.56-14.38,7.47-21.34,5.7,26.46,1.08,31.03,2.13,42.14.47,4.96,2.22,12.91,2.13,2.67Z" style="fill:#f2dcb8; stroke-width:0px;"/><path d="m517.66,483.92c-.86,10.5-6.81,54.36-18.14,57.61-1.38-8.01-3.09-23.6,1.07-29.87,17.14-7.69.41-26.9,2.13-34.14l14.94,6.4Z" style="fill:#b68b96; stroke-width:0px;"/><path d="m517.66,483.92l-14.94-6.4c.65-2.71,5.3-2.65,6.4-4.8,1.82-3.58,2.42-14.79,10.14-18.67-1.89,9.81-.79,20.09-1.6,29.87Z" style="fill:#e3c78b; stroke-width:0px;"/><path d="m496.32,528.73c-2.82.17-5.04,3.09-5.33,3.2-2.18.85-4.26,1.66-6.4,0,1.31-2.31,1-14.76,1.07-19.2.54.18,5.69-2.69,10.67,1.6.34,4.72-.47,9.73,0,14.4Z" style="fill:#e3c78b; stroke-width:0px;"/><path d="m494.18,535.13c1.51,3.31,1.76,13.23,0,16-.27.42-8.6,4.44-9.07,4.27-2.25-.83-4.31-24.45,9.07-20.27Z" style="fill:#cdc599; stroke-width:0px;"/><path d="m341.62,618.35c-2.49.09-5.25,1.17-7.47,2.13-10.24-4.24-20.63-7.52-30.41-12.8-.5-.27-1.24-3.01-1.6-3.2,3.67.51,3.03-1.04,3.2-1.07.16-.03,3.04-.02,3.2,0,.45.06,1.11,3.81,8,2.13,4.07-.99,14.44-16.04,18.14-14.94,14.63,16.47,6.87,25.05,6.93,27.74Z" style="fill:#194b4e; stroke-width:0px;"/><path d="m464.31,581.01c-1.3,7.45-2.25,14.52-5.87,21.34-.69-.14-2.58-12.36-2.67-13.87-.51-8.62-1.55-13.19,8.54-7.47Z" style="fill:#88c4a0; stroke-width:0px;"/><path d="m520.86,608.75c-2.96,1.5-5.49,2.84-8.54,4.27-6.85-8.92-3.83-13.11.53-22.4,3.25-.14-1.29,15.36,8,18.14Z" style="fill:#0e161d; stroke-width:0px;"/><path d="m490.98,566.07c.15,1.87-.34,4.3-2.13,5.33-4.27-11.26-7.96-3.49-8.54-3.2-3.28,1.67-3.04,2.03-3.2,2.13-2.78,1.69-6,2.4-8,5.33l-.53-1.6c18.52-16.61,16.11-8.94,17.6-9.07,1.85-.15,4.08-7.94,4.8,1.07Z" style="fill:#122115; stroke-width:0px;"/><path d="m488.85,571.41c1.79-1.03,2.28-3.47,2.13-5.33,2.11,2.15,2.69-1.04,5.33-5.33,1.23-1.99,3.23-3.77,3.2-6.4.66.02,9.53,7.5,9.6,9.07.07,1.62-13.8,24.21-14.94,28.81-4.18,2.67-3.37-15.62-5.33-20.8Z" style="fill:#50ae91; stroke-width:0px;"/><path d="m499.52,554.34c.03,2.63-1.97,4.41-3.2,6.4.08-5.89-1.15-6.53,3.2-6.4Z" style="fill:#122115; stroke-width:0px;"/><path d="m310.68,544.74c-.38,5.41.31,10.67,1.07,16-5.24-3.14-6.66-3.46-10.67,1.07-1.39-3.93-1.76-9.13-4.27-12.27.48,13.61-2.87,21.39,6.4,32.54-4.39-.69-6.37-7.82-14.4-2.13-7.77-1.16-.33-36.27-1.6-63.48-1.57-33.65-7.39-41.4,6.93,2.67-.51-11.85-.22-24.77,4.8-35.74,2.66,17.94-.17,48.44,11.74,61.35Z" style="fill:#50ae91; stroke-width:0px;"/><path d="m312.81,541.53c2.71,2.1,2.42,5.71,3.2,8.54,3.87,14.11,16.08,41.93-4.27,10.67-.76-5.33-1.45-10.59-1.07-16,.14-1.98-.79-3.59,2.13-3.2Z" style="fill:#0e161d; stroke-width:0px;"/><path d="m301.08,561.81c2.11,5.94,5.13,11.92,6.4,18.14-2.65-.8-2.21,2.46-4.27,2.13-9.27-11.15-5.92-18.93-6.4-32.54,2.51,3.14,2.87,8.34,4.27,12.27Z" style="fill:#0e161d; stroke-width:0px;"/><path d="m561.4,239.61c.83,5.39,3.88,43.74,9.07,43.74,7.83-11.81,14.24-24.4,16.54-38.41,2.01,10.89,1.17,22.16,2.13,33.07,3.16,35.6,3.99,58.5,4.27,93.89.08,10.24-1.66,2.29-2.13-2.67-1.05-11.11,3.56-15.68-2.13-42.14-.35-1.63-.67-3.86-1.07-5.33-1.74-6.39-6.38-18.26-9.6-24-17.17-30.64-28.37-19.76-21.34-78.95-5.7-32.96,2.69,10.52,4.27,20.8Z" style="fill:#110d1d; stroke-width:0px;"/><path d="m261.6,281.22c-3.38,5.91-7.36,11.06-10.67,17.07-3.52,6.38-6.6,12.11-8.54,19.2-1.2-25.84-11.21-32.12,3.2-87.48-.11,19.66,4.41,35.21,16,51.21Z" style="fill:#110d1d; stroke-width:0px;"/><path d="m367.23,504.19c-2.34,6.4-4.32,4.69-7.47,0,13.15-30.69.2-15.07-1.07,0-1.07,12.68,8.84,27.06-11.74,27.74,1.31-1.73,1.52-2.25,2.13-4.27,1.71-5.65,3.33-11.61,3.2-17.6,7.1-1.98,4.8-15.99,2.13-12.8.25,2.58-.63,4.86-2.13,6.93-6.09-2.29,1.62-23.66,2.13-27.74l10.14,8.54,4.8-18.14,1.07,16.54c-2.01,5.02-1.56,16.31-3.2,20.8Z" style="fill:#388c77; stroke-width:0px;"/><path d="m365.09,439.11c.66,6.4.71,10.58,0,17.07-.27,2.46-.47,5.07-1.07,7.47-.48,1.91-.48,4.56-1.6,6.4-.37.15-4.52-5.32-4.8-6.4-.4-1.56.03-7.31,0-10.67-.05-5.88,1.45-18.51,2.13-25.61,3.77,2.63,1.24,11.99,5.33,11.74Z" style="fill:#2b1622; stroke-width:0px;"/><path d="m364.02,463.65l5.33,3.2-4.8,18.14-10.14-8.54c.47-3.74.78-7.94,1.07-11.74l2.13-1.07c.28,1.08,4.43,6.55,4.8,6.4,1.12-1.84,1.12-4.5,1.6-6.4Z" style="fill:#e8dfb8; stroke-width:0px;"/><path d="m518.72,392.17q-13.07,11.74-26.14,23.47c-1.72-2.65.39-5.16.53-7.47,3.57-1.7,7.35-7.85,9.6-9.6,1.54-1.2,10.27-6.09,11.74-6.4,3.82-.82,2.47-.13,4.27,0Z" style="fill:#1a171c; stroke-width:0px;"/><path d="m506.99,390.04c.34-.07.72.04,1.07,0-2.03,3.81-8.7,7.07-5.33,8.54-2.25,1.76-6.03,7.91-9.6,9.6.04-.61-1.86-2.17-1.07-4.8.29-.98,7.28-11.69,14.94-13.34Z" style="fill:#0e161d; stroke-width:0px;"/><path d="m416.3,295.09q-1.07,15.47-2.13,30.94h-1.07v-30.94c2.43-1.08.76-1.1,3.2,0Z" style="fill:#aba288; stroke-width:0px;"/><path d="m430.17,311.09c1.39,1.8,1.12,3.78,1.07,5.87,2.06,2.1,6.84,3.56,8.54,5.87,1.77,2.42,1.76,3.62,2.13,4.27,3.93,6.76,4.01,11.81,8.54,19.2,1.91,3.13,1.63,2.81,4.27,5.33,2.78,2.66,4.69,6.51,9.6,5.33l13.87,9.6c1.27,4.78,4.94.04,8.54,7.47,1.67,3.44,1.09,9.02,3.73,10.67,1.16.73,16.39,1.34,16.54,5.33-7.65,1.64-14.64,12.36-14.94,13.34-.79,2.63,1.1,4.19,1.07,4.8-.14,2.31-2.26,4.82-.53,7.47q13.07-11.74,26.14-23.47c4.66.33,11.17,1.99,13.87,5.87-20.71,6.75-21.58,6.26-29.87,24-1.13,2.41-4.9,6.43-5.33,8-2.26,8.21-2.7,43.1-1.07,51.21,1.98,9.86,14.81,19.34,3.2,28.27-9.74-.2-1.63-1.88-2.13-8-.81-9.87-8.1-21.99-6.4-46.41.73-10.5,9.12-29.83-.53-25.61-2,.87-5.79,17.45-5.87,20.27-.32,11.17,13.62,58.62,4.8,59.75-5.6.71-4.15-15.05-8-27.74-.37-1.22-1.26-2.63-1.6-4.27-1.81,5.07.5,5.07.53,5.33,1.63,14.85,6.45,33.92-2.67,19.2.38,5.59-12.13-.45-12.8,0-3.23,2.15,5.7,14.36-10.67-1.07-10.98,18.05-4.93,1.12-22.94,2.13l-8-20.27,3.73,21.34c-6.36,2.89-7.43,19.43-15.47-8.54-.65,11.24-19.15,10.5-14.94-4.27q-3.47,8.27-6.93,16.54c-2.15,1.83-3.46-1.99-4.27-2.67-1.83-15.64-3.12-27.78-5.33-14.4-.24,1.45-.26,6.64,0,8,.48,6.31-3.58,1.92-9.6,4.27-1.15.45-1.75,1.43-3.2,1.07,1.64-4.49,1.19-15.78,3.2-20.8l-1.07-16.54-5.33-3.2c.6-2.4.8-5.01,1.07-7.47,38.41,15.34.53-7.62,3.2-27.74,10.8,9.75,11.68,30.83,29.87,21.34,2.19-1.14,9.49-6.93,10.67-8.54,1.33-.03,1.26,1.15,1.07,2.13-1.66,8.4.95,15.1,7.47,5.33.49.35,7.05,1.31,9.6,1.07,4.74,7.05,8.11,4.89,16,2.13,8.55-2.98,8.46-5.66,13.87-11.74-.11.33,2.33.03-1.07,6.93-14.68,14.92-4.96,10.91,0,3.2,5.01-7.78,12.38-36.04,5.33-42.14-.84-11.3-3.36-18.56-10.67-27.74-2.34-7.34-6.68-13.79-10.67-20.27-3.9-6.34-8.68-12.03-12.8-18.14-.13-.2.26-.78-2.13-4.27-3.02-4.4-7.67-7.33-10.67-11.74q1.07-15.47,2.13-30.94c5.06,2.28,10.44,11.58,13.87,16Z" style="fill:#f2dcb8; stroke-width:0px;"/><path d="m490.98,455.12c-1.7,24.42,5.59,36.54,6.4,46.41.5,6.12-7.6,7.8,2.13,8,.12,0,.91,1.67,1.07,2.13-4.16,6.27-2.44,21.86-1.07,29.87l-2.13.53c-.09-4.44-.62-8.92-1.07-13.34-.47-4.67.34-9.69,0-14.4-4.98-4.29-10.13-1.42-10.67-1.6-.32-.1-.75.11-1.07,0-19.78-6.74-19.3-21.05-15.47,22.4-2.5-28.47-17.18-36.1-19.74-24-.42,1.97,1.35,11.27,1.07,21.87h-1.07c3.62-22.41-27.91-48.7-27.74-4.27l-2.13,1.07c-1.33-9.53-1.79-19.32-10.14-25.61-21.86-.85-16.12,3.85-20.8,30.94-.21,1.19-.36,3.27,1.07,3.2-.12,0,.75.9-2.13,1.07-2.08-7.02-.38-14.31-1.07-21.34-.75-7.59-4.69-17.91-14.94-13.87l-1.07-1.07c6.02-2.35,10.08,2.04,9.6-4.27.54,2.84,3.28,4.68,5.33,6.4.8.67,2.11,4.5,4.27,2.67q3.47-8.27,6.93-16.54c-4.21,14.77,14.28,15.51,14.94,4.27,8.04,27.97,9.11,11.42,15.47,8.54.72-.33,3.34-1.01,4.27-1.07,18.01-1.01,11.95,15.92,22.94-2.13,16.37,15.43,7.44,3.22,10.67,1.07.67-.45,13.18,5.59,12.8,0,9.12,14.72,4.3-4.36,2.67-19.2l1.07-1.07c3.85,12.69,2.4,28.45,8,27.74,8.82-1.12-5.12-48.57-4.8-59.75,3.93-1.22,1.07,7.19,2.67,7.47,1.08.18-1.24-4.38,3.73-2.13Z" style="fill:#1a171c; stroke-width:0px;"/><path d="m471.25,369.77c14.38-3.28,15.71,12.05,4.27,13.87-11.13,1.77-13.15-11.84-4.27-13.87Z" style="fill:#420e2c; stroke-width:0px;"/><path d="m490.98,455.12c-4.98-2.25-2.66,2.32-3.73,2.13-1.6-.27,1.27-8.69-2.67-7.47.08-2.82,3.87-19.4,5.87-20.27,9.65-4.22,1.27,15.1.53,25.61Z" style="fill:#420e2c; stroke-width:0px;"/><path d="m456.84,440.18c3.88-12.33,5.25-18.89,4.27-32.01,7.04,6.1-.33,34.36-5.33,42.14-4.96,7.71-14.68,11.72,0-3.2,3.4-6.91.96-6.6,1.07-6.93Z" style="fill:#e3c78b; stroke-width:0px;"/><path d="m475.51,395.37c6.85-.1,5.75,12.41-1.07,11.74-6.49-.64-5.43-11.64,1.07-11.74Z" style="fill:#420e2c; stroke-width:0px;"/><path d="m439.77,360.17c3.99,6.48,8.33,12.93,10.67,20.27-4.6-6.78-11.55-9.21-17.07-24l6.4,3.73Z" style="fill:#2b1622; stroke-width:0px;"/><path d="m417.37,448.72c-6.52,9.76-9.13,3.07-7.47-5.33,5.15-7.41,6.59,4.71,7.47,5.33Z" style="fill:#0e1b1e; stroke-width:0px;"/><path d="m431.24,503.13c-.93.05-3.54.74-4.27,1.07l-3.73-21.34,8,20.27Z" style="fill:#50ae91; stroke-width:0px;"/><path d="m471.25,420.98c5.47-1.41,1.87,16.55,0,20.27-1.41-3.12-2.87-19.53,0-20.27Z" style="fill:#1a171c; stroke-width:0px;"/><path d="m385.36,505.26c-2.05-1.72-4.8-3.56-5.33-6.4-.26-1.36-.24-6.55,0-8,2.21-13.37,3.5-1.23,5.33,14.4Z" style="fill:#96bc8d; stroke-width:0px;"/><path d="m479.78,452.98c2.07-.95,2.13,7.76,1.6,11.2-2.43,15.84-4.76-1.19-1.6-11.2Z" style="fill:#26211e; stroke-width:0px;"/><path d="m481.91,413.51c3.01.62-.52,9.53-3.2,11.74-1.66-3.06-1.3-12.67,3.2-11.74Z" style="fill:#340e1b; stroke-width:0px;"/><path d="m491.52,395.37c2.77,1.3-3.55,11.08-4.8,5.87-.12-.5,4.45-6.03,4.8-5.87Z" style="fill:#2b1312; stroke-width:0px;"/><path d="m454.71,351.63c-2.63-2.52-2.35-2.21-4.27-5.33,5.74-6.03,11.76,3.33,4.27,5.33Z" style="fill:#611f30; stroke-width:0px;"/><path d="m441.91,327.09c-.38-.65-.36-1.85-2.13-4.27.28-1.17,1.25-1.25,1.07-3.2h1.07c.36,2.46,2.56,6.37,0,7.47Z" style="fill:#5b6445; stroke-width:0px;"/><path d="m450.98,487.12c.32-.03,1.6,4.21,1.6,5.87,0,7.33-3.59-5.66-1.6-5.87Z" style="fill:#d2ba96; stroke-width:0px;"/><path d="m481.38,481.79l-1.07,1.07c-.03-.27-2.34-.27-.53-5.33.34,1.64,1.23,3.04,1.6,4.27Z" style="fill:#827156; stroke-width:0px;"/><path d="m548.59,392.17c.22,2.23-.07,2.08,1.07,4.27,2.83,5.44,23.42,9.2,6.93,13.87-14.62-14.98-27.45-13.98-8-18.14Z" style="fill:#e8dfb8; stroke-width:0px;"/><path d="m550.73,384.7c5.4.84,3.93,1.96,4.27,5.33.14,1.4-.09,2.86,0,4.27-1.93-.06-4.23.26-5.33,2.13-1.14-2.19-.85-2.04-1.07-4.27-.24-2.45.16-5.01,0-7.47.71-.04,1.43.05,2.13,0Z" style="fill:#2b1622; stroke-width:0px;"/><path d="m514.45,392.17c-1.46.32-10.2,5.2-11.74,6.4-3.37-1.47,3.3-4.72,5.33-8.54,2.48-.32,6.97-1.11,6.4,2.13Z" style="fill:#c3e4d2; stroke-width:0px;"/><path d="m588.07,321.76c.4,1.47.72,3.7,1.07,5.33-2.91,6.96-4.59,14.36-7.47,21.34-1.67.13-1.05-4.53-1.07-9.6-.03-10.5.28-17.82-4.27-27.74l11.74,10.67Z" style="fill:#88c4a0; stroke-width:0px;"/><path d="m555,390.04c-.34-3.38,1.13-4.49-4.27-5.33,2.52-.18,26.07-6.44,26.67-4.8l-22.4,10.14Z" style="fill:#50ae91; stroke-width:0px;"/><path d="m484.58,512.73l-1.07,20.27c-2.68,2.01-14.17-.01-13.87,5.33-3.67-7.37-9.49-3.83-13.87,0-1.92,1.68-2.52,1.93-4.27,4.27-5.04-4-1.17-5.8-1.07-9.6.29-10.6-1.48-19.9-1.07-21.87,2.56-12.1,17.24-4.47,19.74,24-3.83-43.46-4.31-29.15,15.47-22.4Z" style="fill:#f2dcb8; stroke-width:0px;"/><path d="m449.38,533c-.3,1.89-7.19,9.87-8.54,10.67-6.33.87-8.23-10-19.2-3.2-.01-3.91.01-7.82,0-11.74-.17-44.43,31.36-18.14,27.74,4.27Z" style="fill:#f2dcb8; stroke-width:0px;"/><path d="m433.37,544.74c4.37,6.52,3.55,20.04,0,26.67-.17.32-3.93,4.1-4.8,5.33-7.49-6.68-7.04-49.67,4.8-32.01Z" style="fill:#50ae91; stroke-width:0px;"/><path d="m490.98,531.93c.21,1.48,1.98.51,3.2,3.2-13.38-4.18-11.32,19.44-9.07,20.27.47.17,8.8-3.84,9.07-4.27l2.13,2.13c-13.04,6.63-29.43,10.43-30.41,11.74-3.36,2.94-.71,10.89-1.6,16-10.08-5.73-9.05-1.15-8.54,7.47-6.31,15.12-.79-3.81-4.27-7.47-2.61-2.74-6.83.35-9.6.53,6.16,3.39,1.62,5.16,1.07,8-2.74-1.25-3.09-12.34-6.93-11.74-2.4.37-4.15,9.68-4.8,11.74-3.13-2.51,1.29-10.89,5.33-13.87,15.84,7.32,1.63-17.67-1.07-1.07-1.6-1.34-.37-2.46-2.13-3.2,3.55-6.64,4.37-20.15,0-26.67,2.93-1.4,3.65,1.19,7.47-1.07,1.35-.8,8.23-8.78,8.54-10.67h1.07c-.1,3.81-3.98,5.6,1.07,9.6-.3.41.56,2.78-.53,3.2-.83.32-7.58-11.54-8,6.4-.26,11.22,4.44,15.14,5.33,17.07.98,2.09-.39,6.64,1.6,6.4,1.74-.2,3.85-9.64,3.2,1.07,12.14-14.98,1.25-11.16.53-11.74-4.01-3.22-2.3-6.85-4.27-10.67.62.4,2.71-3.68,2.13,3.73h2.13c.31-6.72-1.22-13.65,2.13-19.74,4.38-3.83,10.2-7.37,13.87,0,5.56,11.17-11.11,29.77,12.8,17.6,3.65-31.75-6.04-12.47-12.8-17.6-.3-5.35,11.19-3.33,13.87-5.33.43-.32.44.04,1.07-1.07,2.15,1.66,4.23.85,6.4,0Z" style="fill:#0e161d; stroke-width:0px;"/><path d="m469.65,538.33c6.77,5.13,16.45-14.15,12.8,17.6-23.92,12.17-7.24-6.44-12.8-17.6Z" style="fill:#cdc599; stroke-width:0px;"/><path d="m465.38,546.87c2.01,20.1-14.59,20.36-7.47-3.2l7.47,3.2Z" style="fill:#50ae91; stroke-width:0px;"/><path d="m455.78,538.33c-3.36,6.08-1.83,13.01-2.13,19.74h-2.13c.58-7.41-1.51-3.33-2.13-3.73-1.09-.71-4.89-2.37-6.4-2.13.42-17.94,7.17-6.08,8-6.4,1.1-.42.23-2.79.53-3.2,1.75-2.34,2.35-2.59,4.27-4.27Z" style="fill:#b5cfb3; stroke-width:0px;"/><path d="m449.38,554.34c1.96,3.82.26,7.45,4.27,10.67l-5.33,4.27c-.9-1.93-5.6-5.85-5.33-17.07,1.52-.23,5.31,1.43,6.4,2.13Z" style="fill:#50ae91; stroke-width:0px;"/><path d="m448.31,569.27l5.33-4.27c.71.57,11.61-3.25-.53,11.74.65-10.71-1.46-1.27-3.2-1.07-1.99.23-.62-4.31-1.6-6.4Z" style="fill:#b5cfb3; stroke-width:0px;"/><path d="m436.57,575.67c-.07-.03-.17-.31-1.07-1.07,2.69-16.6,16.91,8.38,1.07,1.07Z" style="fill:#b0beb6; stroke-width:0px;"/><path d="m465.38,546.87l-7.47-3.2c3.09-10.24,6.85-2.96,7.47,3.2Z" style="fill:#c3e4d2; stroke-width:0px;"/><path d="m484.58,531.93c-.63,1.11-.63.74-1.07,1.07l1.07-20.27c.32.11.74-.1,1.07,0-.06,4.44.24,16.9-1.07,19.2Z" style="fill:#755c36; stroke-width:0px;"/><path d="m419.5,529.8c.49,3.55,1.76,6.91,1.07,10.67-2.42-.05-4.24-3.86-6.4-4.27-4.44-18.2-9.78-11.51-10.67-11.74-.96-.25-2.77.36-6.93-3.2l-8,13.87c4.68-27.09-1.05-31.79,20.8-30.94,8.35,6.29,8.81,16.07,10.14,25.61Z" style="fill:#f2dcb8; stroke-width:0px;"/><path d="m386.43,518.06c.69,7.03-1.02,14.31,1.07,21.34-6.66.38-3.89-8.42-5.87-9.6-9.15,18.69-22.17,13.71-14.4-17.07,12.22-6.2,11.1,1.92,19.2,5.33Z" style="fill:#50ae91; stroke-width:0px;"/><path d="m386.43,518.06c-8.1-3.41-6.99-11.53-19.2-5.33.13-.52-2.43-5.9,4.27-8.54,10.24-4.04,14.19,6.28,14.94,13.87Z" style="fill:#e8dfb8; stroke-width:0px;"/><path d="m403.5,524.46l-4.27,12.8c-3.12.25-6.37.82-9.6,1.07-1.43.07-1.27-2.01-1.07-3.2l8-13.87c4.16,3.56,5.98,2.95,6.93,3.2Z" style="fill:#50ae91; stroke-width:0px;"/><path d="m421.64,540.47h-1.07c.69-3.75-.57-7.12-1.07-10.67l2.13-1.07c.01,3.91-.01,7.82,0,11.74Z" style="fill:#73614c; stroke-width:0px;"/><path d="m340.55,482.86c0,.28-2.91,5.75,1.07,1.07,9.66-11.37,7.09-19.02,5.33-32.01l4.27-1.07c1.93,21.05-.32,32.86-4.27,53.34-1.36-1.51-3.27,4.77-2.67-10.67-3.52,8.55-6.62,5.91-13.34,11.2,1.69-6.1-3.86-15.54-2.13-21.34.71-2.38,13.07-4.02,4.27-33.61l3.2-2.13c5.33,15.93,4.34,18.65,4.27,35.21Z" style="fill:#44948e; stroke-width:0px;"/><path d="m318.15,505.26c-.14.36-5.78,1.94-6.4,4.27l-2.13-1.07c-.92-18.74.5-37.77-.53-56.54,7.98,8.18.61,32.88,16.54,25.07-3.89,8.73-6.11,24.78-7.47,28.27Z" style="fill:#c89d9a; stroke-width:0px;"/><path d="m236,377.24c.77-2.92,3.91-9.18,4.27-12.27.85-7.33-.64-14.62-1.07-21.87,2.87.67,10.13,26.82,9.6,28.27-.35.97-10.64,5.22-12.8,5.87Z" style="fill:#f2dcb8; stroke-width:0px;"/><path d="m340.55,528.73c-.19-.13-1.26.07-2.13,0l2.67-16-.53,16Z" style="fill:#033e31; stroke-width:0px;"/><path d="m371.49,504.19c-6.7,2.64-4.14,8.01-4.27,8.54-7.77,30.78,5.25,35.76,14.4,17.07,1.97,1.18-.79,9.99,5.87,9.6,2.88-.17,2.01-1.06,2.13-1.07,3.23-.25,6.49-.82,9.6-1.07,4.55-.36,11.82-1.66,14.94-1.07,2.17.41,3.98,4.21,6.4,4.27h1.07c10.97-6.8,12.88,4.07,19.2,3.2-3.82,2.25-4.54-.33-7.47,1.07-11.84-17.66-12.29,25.33-4.8,32.01.87-1.24,4.63-5.02,4.8-5.33,1.76.75.53,1.86,2.13,3.2.9.75,1,1.04,1.07,1.07-4.05,2.98-8.46,11.36-5.33,13.87-2.67,8.46-1.51,14.63-3.73,13.87-3.41-8-5.69-16.54-9.07-24.54-.97-2.31-1.26-7.73-3.73-7.47-12.24,12.25-6.5,18.77-8.54,34.14-20.43-35.25-14.26-42.36-13.34-9.07.07,2.41.58,26.17-1.6,26.14-4.89-7.48-4.67-48.09-9.6-49.08-10.66-2.12,5.55,26.48,2.13,32.01-10.82-11.95-10.29-24.11-14.4-38.41.51-.99,2.32-1.52,3.2-4.27.71-2.21.74-14.95,0-16.54-.41-.88-11.06-10.32-8.54,6.93h-2.13c1.25-22.01-4.89-9.47-5.87-9.6-.93-.12,3.59-4.76-11.2-6.4,3.53-2.7,3.29-2.52,1.07-5.33h1.07c20.57-.68,10.67-15.06,11.74-27.74h1.07c3.15,4.69,5.13,6.4,7.47,0,1.45.36,2.05-.62,3.2-1.07l1.07,1.07Z" style="fill:#0e161d; stroke-width:0px;"/><path d="m406.17,539.4c14.02-5.94,8.06,31.45,2.13,32.01-8.89.84-6.48-30.16-2.13-32.01Z" style="fill:#50ae91; stroke-width:0px;"/><path d="m392.3,540.47c8.76-1.4,4.52,23.09,2.67,26.14-9.67,15.9-10.18-24.94-2.67-26.14Z" style="fill:#50ae91; stroke-width:0px;"/><path d="m379.49,539.4c.44.01,3.66,7.57,3.73,8,5.61,31.85-19.94,26.23-3.73-8Z" style="fill:#50ae91; stroke-width:0px;"/><path d="m414.17,536.2c-3.12-.59-10.39.7-14.94,1.07l4.27-12.8c.89.23,6.23-6.47,10.67,11.74Z" style="fill:#50ae91; stroke-width:0px;"/><path d="m359.76,504.19h-1.07c1.27-15.07,14.21-30.69,1.07,0Z" style="fill:#336652; stroke-width:0px;"/><path d="m328.82,265.21c-18.87,9.14-56.21,16.8-70.41,34.14q-3.73-.53-7.47-1.07c3.31-6.01,7.29-11.16,10.67-17.07.07-.13,1.04-.16,2.13-2.13,4.65-8.38,9.36-15.38,8.54-25.61,11.63,12.87,26.97,12.13,43.21,10.67,5.17-.46,31.49-7.73,13.34,1.07Z" style="fill:#f2dcb8; stroke-width:0px;"/><path d="m272.27,253.48c.83,10.23-3.89,17.22-8.54,25.61-6.09-22.89-7.64-46.07,0-68.81-.46,20.18,8.24,39.58,8.54,43.21Z" style="fill:#0e161d; stroke-width:0px;"/><path d="m435.51,122.25v3.2c-62.15.46-72.82,41.91-41.07,62.95,12.08,8,58.54,19.04,91.22,50.68-.03,1.83-29.81-1.57-20.27,20.8-4.39.36-9.68,3.81-12.8,6.93,26.41,2.55-.01,2.07,3.2,18.14-3.96,3.62-8.11,7.87-7.47,13.87-7.99,3.4-16.69,9.65-7.47,8-.08.06,2.08.43,1.07,1.6-.54.62-5.42,2.05-5.33,4.27.01.41,3.88,2.88,4.27,6.93.18,1.95-.78,2.03-1.07,3.2-1.69-2.31-6.48-3.76-8.54-5.87.05-2.09.33-4.07-1.07-5.87,13.55-3.53-5.33-15.8-12.8-23.47-4.22-5.59-.76-18.19-3.73-29.87q-.27,13.34-.53,26.67c-5.93,5.56-14.54,9.72-16.54,18.14-22.6-8.15-13.23-9.16-26.14-27.21-.17-3.15,4.47-8.64,4.27-9.6-.3-1.44-21.22-11.44-26.67-12.27-.11-.02-.21-2.21-2.13-.53,1.18,2.22,2.08,2.51,2.13,2.67,5.91,17.67-.57,3.23-12.27,9.6-6.47,3.53-7.26,11.82-6.93,18.14h-1.07c-.82-8.83.48-10.26,1.07-18.14,18.16-8.8-8.17-1.53-13.34-1.07-16.24,1.46-31.58,2.2-43.21-10.67-.29-3.62-9-23.03-8.54-43.21-7.64,22.74-6.09,45.93,0,68.81-1.1,1.98-2.06,2-2.13,2.13-11.59-16-16.11-31.55-16-51.21.39-1.48.61-2.7,1.07-4.27,13.47-43.18,51.29-72.79,91.75-89.62,32.37-13.46,62.14-16.61,97.09-13.87Z" style="fill:#5fc0a3; stroke-width:0px;"/><path d="m446.17,310.02c-6.5-1.14-5.01,4.58-4.27,9.6h-1.07c-.38-4.05-4.25-6.53-4.27-6.93-.08-2.21,4.8-3.65,5.33-4.27,1.02-1.18-1.14-1.54-1.07-1.6,9.89-7.91,5.02-.77,5.33,3.2Z" style="fill:#2d282e; stroke-width:0px;"/><path d="m254.67,223.6l-2.13,30.94c-4.9-5.36.58-31.27,2.13-30.94Z" style="fill:#24544a; stroke-width:0px;"/><path d="m338.42,136.12c-40.46,16.83-78.28,46.44-91.75,89.62,13.8-47.73,45.93-72.66,91.75-89.62Z" style="fill:#233225; stroke-width:0px;"/><path d="m417.37,287.62c-.48-.49-4.18-1.17-4.27-3.2q.27-13.34.53-26.67c2.97,11.68-.48,24.28,3.73,29.87Z" style="fill:#24544a; stroke-width:0px;"/><path d="m292.01,257.74c.96-.55,4.79.34,4.8,1.6.02,3.45-8.15.3-4.8-1.6Z" style="fill:#c3e5b9; stroke-width:0px;"/><path d="m348.02,253.48v2.13c-.05-.16-.95-.45-2.13-2.67,1.93-1.68,2.03.52,2.13.53Z" style="fill:#112925; stroke-width:0px;"/><path d="m587,244.94c-2.3,14.01-8.7,26.59-16.54,38.41-5.19,0-8.24-38.35-9.07-43.74,10.2-30.07,6.86-56.48,13.87-11.2,2.25,5.43,10.5,6.11,11.74,16.54Z" style="fill:#50ae91; stroke-width:0px;"/><path d="m435.51,125.45c5.79-.04,10.32.36,16,1.07,46.11,5.72,114.23,41.26,133.36,85.88,12.65,29.51,6.81,39.05,6.4,65.61h-2.13c-.97-10.92-.12-22.18-2.13-33.07-1.24-10.43-9.49-11.11-11.74-16.54-7.01-45.27-3.67-18.87-13.87,11.2-1.58-10.28-9.97-53.76-4.27-20.8-7.04,59.19,4.17,48.31,21.34,78.95,3.22,5.75,7.86,17.62,9.6,24l-11.74-10.67c-9.74-21.24-46.81-35.2-67.75-41.61-5.11-1.56-6.6.09-6.93,0-1.89-.53-1.67.16-2.13,0-12.51-4.4,5.5-9.29-9.07-6.4-3.83-8.01-17.07-.25-18.67,8.54-.09-.06-1.43,2.74-2.13.53-2.01-6.32,12.33-13.63-4.27-12.27-9.54-22.37,20.24-18.97,20.27-20.8-32.68-31.64-79.14-42.67-91.22-50.68-31.75-21.03-21.07-62.49,41.07-62.95Z" style="fill:#f2dcb8; stroke-width:0px;"/><path d="m591.27,278.02c.41-26.56,6.25-36.1-6.4-65.61-19.13-44.63-87.25-80.17-133.36-85.88l1.07-2.13c43.82,6.57,106.92,34.28,130.16,74.15,11.61,19.92,12.42,38.31,11.74,60.81-.28,9.29-3.64,47.19-3.2,18.67Z" style="fill:#1a171c; stroke-width:0px;"/><path d="m501.12,253.48c1.55.53-.64,5.24-1.07,5.33-2.42.54-.08-5.73,1.07-5.33Z" style="fill:#96bc8d; stroke-width:0px;"/><path d="m502.19,246.01c.26-.03,1.51,4.25,1.07,4.27-2.65.13-1.71-4.2-1.07-4.27Z" style="fill:#b5cfb3; stroke-width:0px;"/><path d="m346.95,451.92c1.75,12.99,4.33,20.64-5.33,32.01l-1.07-1.07c.07-16.56,1.06-19.28-4.27-35.21-3.99-11.91-10.68-23.77-22.94-28.81-4.73-1.94-26.61-5.13-2.67-6.4,1.77-.09,3.56.06,5.33,0,22.91,13.16-8.34-6.42,9.07-3.2,15.46,2.86,20.17,30.09,21.87,42.68Z" style="fill:#110d1d; stroke-width:0px;"/><path d="m413.1,326.03c-4.35,1.59-13.34,11.12-16,14.94-3.06.22-5.27,2.5-7.47,4.27-.45-2.53-1.45,1.15-3.73,1.07-.54-.02-.07-1.05-1.6-2.13,7.7-9.78,11.12-22.62,17.07-33.07,2.51-4.41,7.14-13.95,11.74-16v30.94Z" style="fill:#f2dcb8; stroke-width:0px;"/><path d="m313.88,395.37c-6.23,5.79-12.96,19.52,0,7.47,3.41-.85,1.82,3.91,2.13,9.6-1.77.06-3.57-.09-5.33,0-5.05-9.04-19.67,9.94-22.94,10.67-8.54,1.9-13.53-10.27-13.34-11.2,1.15-5.58,33.46-14.75,39.47-16.54Z" style="fill:#f2dcb8; stroke-width:0px;"/><path d="m384.3,344.16c1.53,1.08,1.06,2.11,1.6,2.13,2.29.08,3.28-3.6,3.73-1.07-15.38,12.38-4.66.73-10.14,0-1.67-.22-9.74,16.77-22.94,24.54-1.35.79-2.85,1.46-4.27,2.13l-1.07-3.2c2.4-.72,6.46-4.88,8.54-6.4,1.01-.74,1.42-1.55,2.13-2.13,5.77-4.74,16.08-14.88,19.2-21.34,2,2.54-.08,3.02,3.2,5.33Z" style="fill:#e8dfb8; stroke-width:0px;"/><path d="m319.22,394.31v2.13c-2.11.91-3.47,4.66-5.33,6.4-12.96,12.06-6.23-1.67,0-7.47,2.93-.87,4.45-.83,5.33-1.07Z" style="fill:#2b1622; stroke-width:0px;"/><path d="m258.4,299.35c-5.5,6.72-5.88,13.16-7.47,21.34-.77,3.98-.72,6.79-1.07,10.67-.52,5.78-1.5,8.6-1.07,14.94,1.99,29.11,17.55,23.95,1.6,30.94,14.04,3.35,25.4,6.24,40.01,6.4,15.93.17,45.04-4.43,59.75-10.67-5.66,16.76,28.55,9.61,6.4-3.2,13.2-7.77,21.26-24.76,22.94-24.54,5.48.73-5.24,12.38,10.14,0,2.2-1.77,4.41-4.05,7.47-4.27-2.37,3.41-7.39,15.34-9.6,20.27-4.73,10.56-4.02,11.14-4.27,11.74-2.29-.33-3.11,1.72-4.27,3.2-3.49,4.47-19.22,34.46-15.47,36.27.77-3.01,3.36-5.01,4.8-7.47v4.27l1.07,16c-.17.42-1.04,2.97-1.07,3.2-2.67,20.12,35.21,43.08-3.2,27.74.71-6.49.66-10.67,0-17.07-.91-8.76-3.36-32.32-5.33-11.74-.68,7.09-2.18,19.73-2.13,25.61h-1.07c-.31-16.86-4.18-38.57-18.67-49.08,8.12,12.2,12,32.33,13.34,46.94l-4.27,1.07c-1.7-12.58-6.41-39.82-21.87-42.68-17.41-3.22,13.84,16.36-9.07,3.2-.31-5.69,1.27-10.45-2.13-9.6,1.87-1.74,3.23-5.49,5.33-6.4,3.87-1.67,19.76-2.03,25.61-2.13.93,2.33,6.88,16.01,9.07,16,9.26-.01-4.13-17.26-10.14-20.27-10.64-5.33-15.19,1.71-24.54,4.27-.88.24-2.41.2-5.33,1.07-6.01,1.79-38.32,10.96-39.47,16.54-.19.94,4.79,13.11,13.34,11.2,3.27-.73,17.89-19.71,22.94-10.67-23.94,1.27-2.07,4.46,2.67,6.4,12.26,5.04,18.95,16.9,22.94,28.81l-3.2,2.13c-12.03-40.42-44.42-21.71-47.48-21.34-19.16,2.33-18.16-8.22-35.21-10.67l-19.74-21.87c-.99-7.61,2.47-7.86,5.33-18.67,2.16-.65,12.45-4.89,12.8-5.87.53-1.45-6.74-27.6-9.6-28.27-.19-3.12.35-6.58,0-9.6,2.09-5.84,3.47-10.32,3.2-16,1.94-7.1,5.02-12.82,8.54-19.2q3.73.53,7.47,1.07Z" style="fill:#50ae91; stroke-width:0px;"/><path d="m356.56,452.98c.07,3.55-.77,7.78-1.07,11.74-.28,3.79-.59,8-1.07,11.74-.52,4.08-8.22,25.45-2.13,27.74-3.53,4.86-3.07,2.52-5.33,0,3.95-20.49,6.2-32.29,4.27-53.34-1.34-14.61-5.22-34.74-13.34-46.94,14.49,10.5,18.36,32.21,18.67,49.08Z" style="fill:#0e161d; stroke-width:0px;"/><path d="m278.67,380.44c3.94,1.24,8.14,1.02,11.74,3.2-14.61-.16-25.97-3.05-40.01-6.4,15.95-6.99.39-1.82-1.6-30.94.75,0,1.66-.34,2.13.53,2.5,4.63,3.75,26.09,27.74,33.61Z" style="fill:#f2dcb8; stroke-width:0px;"/><path d="m277.61,397.51c-.38-.98.25-3.69,0-5.33,5.6-2.12,8.54-5.32,9.07-5.33.45-.01,6.85,3.92,6.93,5.87.08,1.89-11.48,16.33-16,4.8Z" style="fill:#420e2c; stroke-width:0px;"/><path d="m350.16,372.97c.76-.32,1.39-.71,2.13-1.07,1.42-.67,2.92-1.34,4.27-2.13,22.15,12.81-12.06,19.96-6.4,3.2Z" style="fill:#2b1622; stroke-width:0px;"/><path d="m343.75,390.04c.21,1.2.66,3.24,1.07,4.27-5.84.1-21.73.46-25.61,2.13v-2.13c9.35-2.55,13.9-9.6,24.54-4.27Z" style="fill:#dce3b9; stroke-width:0px;"/><path d="m368.29,404.97c-1.44,2.46-4.04,4.45-4.8,7.47-3.75-1.81,11.98-31.8,15.47-36.27-.67,7.5-6.84,22.25-10.67,28.81Z" style="fill:#112925; stroke-width:0px;"/><path d="m344.82,394.31c-.41-1.03-.86-3.07-1.07-4.27,6,3.01,19.4,20.26,10.14,20.27-2.18,0-8.14-13.68-9.07-16Z" style="fill:#0e1b1e; stroke-width:0px;"/><path d="m277.61,392.17c.25,1.65-.38,4.36,0,5.33-17.72,10.67-25.59,4.34,0-5.33Z" style="fill:#dce3b9; stroke-width:0px;"/><path d="m365.09,439.11c-4.1.26-1.57-9.11-5.33-11.74,1.98-20.58,4.42,2.97,5.33,11.74Z" style="fill:#0e161d; stroke-width:0px;"/><path d="m357.09,393.24c4.83-2.86,8.46,10.66,4.27,10.67-.57,0-5.29-10.07-4.27-10.67Z" style="fill:#1a171c; stroke-width:0px;"/><path d="m357.62,463.65l-2.13,1.07c.3-3.96,1.13-8.19,1.07-11.74h1.07c.03,3.36-.4,9.11,0,10.67Z" style="fill:#5f5f67; stroke-width:0px;"/><path d="m401.37,311.09c-5.95,10.45-9.37,23.3-17.07,33.07-3.28-2.32-1.2-2.79-3.2-5.33,4.95-10.25,3.31-12.56,4.27-22.4h1.07c.25,1.15-.17,2.54,0,3.73h2.13c1.59-11.83-.55-12.08-8-19.74q10.4,5.33,20.8,10.67Z" style="fill:#50ae91; stroke-width:0px;"/><path d="m439.77,360.17l-6.4-3.73c5.52,14.8,12.47,17.22,17.07,24,7.31,9.17,9.83,16.44,10.67,27.74.98,13.12-.39,19.68-4.27,32.01-5.41,6.08-5.32,8.75-13.87,11.74-3.59-.91-6.6-4.65-8.54-7.47l-2.13-9.6c.19-.4,3.26-.39,5.33-6.93,2.35-7.39.55-16.02,3.2-23.47-8.44-5.08-8.92-18.97-6.4-27.74-8.42-16.61-12.33-16.11-7.47-34.67,4.12,6.11,8.9,11.8,12.8,18.14Z" style="fill:#420e2c; stroke-width:0px;"/><path d="m391.76,428.45c-1.57,2.02-.84,3.73-1.07,4.27-1.6,3.87-4.72,7.37-3.2,12.27,2.95,9.53,5.59-16.69,10.67,4.8-18.2,9.5-19.07-11.59-29.87-21.34.03-.23.89-2.78,1.07-3.2,1.74-4.14,14.69-13,19.2-16-.43,4.36,1.64,15.02,3.2,19.2Z" style="fill:#c4ab73; stroke-width:0px;"/><path d="m413.1,326.03h1.07c3,4.41,7.64,7.34,10.67,11.74-1.35,12.68-3.17-4.59-9.6-1.6,1.1,6.77-2.94,4.44-3.2,4.8-3.03-18.22-22.41,32.07-24.54,20.27,2.21-4.93,7.23-16.86,9.6-20.27,2.66-3.82,11.65-13.35,16-14.94Z" style="fill:#110d1d; stroke-width:0px;"/><path d="m431.24,439.11c.53,2.73,1.8,3.3,3.2,5.33,1.94,2.82,4.95,6.56,8.54,7.47-7.89,2.75-11.26,4.91-16-2.13-.42-.62.67-3.29-.53-4.27-.76-.62-2.67,1.69-5.87-2.13l10.67-4.27Z" style="fill:#7f1d51; stroke-width:0px;"/><path d="m398.16,440.18c.85,0,5.47-4.38,11.74-1.07-.31.56-.74,1.69-1.07,2.13-1.18,1.6-8.48,7.39-10.67,8.54-5.07-21.49-7.72,4.73-10.67-4.8-1.51-4.9,1.6-8.4,3.2-12.27,4.09,1.93,3.29,8.73,7.47,7.47Z" style="fill:#7f1d51; stroke-width:0px;"/><path d="m412.03,340.96c-.38.52.45,4.79-6.4,11.2,5.3,23.89-8.97,29.08-9.6,30.94-.39,1.16.39,3.58,0,4.8-11.96,3.64-18.49,28.9-27.74,21.34v-2.13c6.33-10.83,10.18-22.63,14.94-34.14.25-.6-.46-1.18,4.27-11.74,2.12,11.8,21.51-38.49,24.54-20.27Z" style="fill:#420e2c; stroke-width:0px;"/><path d="m396.03,387.9c-.81,2.57,1.13,3.55,1.07,3.73-2.24,6.13-7.84,10.57-8.54,17.6-4.52,3.01-17.47,11.86-19.2,16l-1.07-16c9.25,7.56,15.78-17.7,27.74-21.34Z" style="fill:#7f1d51; stroke-width:0px;"/><path d="m383.23,372.97c-4.75,11.51-8.6,23.31-14.94,34.14v-2.13c3.83-6.56,10-21.31,10.67-28.81,1.15-1.48,1.98-3.53,4.27-3.2Z" style="fill:#aaaaaf; stroke-width:0px;"/><path d="m424.84,337.76c2.4,3.49,2,4.07,2.13,4.27-4.87,18.57-.95,18.07,7.47,34.67-2.52,8.76-2.04,22.66,6.4,27.74-2.65,7.45-.86,16.08-3.2,23.47-2.08,6.54-5.15,6.54-5.33,6.93-.8,1.71-1.47,2.2-1.07,4.27l-10.67,4.27c-11.23-13.43-.77-42.12-4.8-59.75-4.54,17.17,2.37,40.35-5.87,55.48-6.26-3.31-10.88,1.07-11.74,1.07-.64-3.53-5.41-9.07-6.4-11.74-1.56-4.19-3.63-14.84-3.2-19.2.7-7.03,6.29-11.47,8.54-17.6.07-.18-1.88-1.17-1.07-3.73.39-1.22-.39-3.64,0-4.8.63-1.86,14.9-7.05,9.6-30.94,6.85-6.41,6.03-10.68,6.4-11.2.26-.37,4.31,1.97,3.2-4.8,6.43-2.98,8.25,14.28,9.6,1.6Z" style="fill:#110d1d; stroke-width:0px;"/><path d="m420.57,443.38c3.2,3.83,5.1,1.52,5.87,2.13,1.21.97.12,3.65.53,4.27-2.55.25-9.11-.72-9.6-1.07-.88-.62-2.32-12.75-7.47-5.33.19-.98.26-2.17-1.07-2.13.33-.45.76-1.57,1.07-2.13,8.24-15.13,1.32-38.31,5.87-55.48,4.03,17.62-6.43,46.32,4.8,59.75Z" style="fill:#e3c78b; stroke-width:0px;"/><path d="m398.16,440.18c-4.18,1.26-3.38-5.54-7.47-7.47.22-.54-.5-2.24,1.07-4.27.99,2.67,5.76,8.21,6.4,11.74Z" style="fill:#618d75; stroke-width:0px;"/><path d="m432.31,434.85l2.13,9.6c-1.4-2.04-2.67-2.6-3.2-5.33-.4-2.07.27-2.56,1.07-4.27Z" style="fill:#b6936d; stroke-width:0px;"/><path d="m341.62,483.92c-3.98,4.68-1.07-.79-1.07-1.07l1.07,1.07Z" style="fill:#194b4e; stroke-width:0px;"/><path d="m413.1,284.42c.09,2.03,3.79,2.71,4.27,3.2,7.48,7.67,26.35,19.94,12.8,23.47-3.43-4.43-8.81-13.73-13.87-16-2.44-1.1-.77-1.08-3.2,0-4.6,2.05-9.22,11.59-11.74,16q-10.4-5.33-20.8-10.67c7.45,7.65,9.6,7.91,8,19.74h-2.13c-.17-1.19.25-2.58,0-3.73-.23-1.05.42-3.2-.53-3.2-.96.63-.41,1.93-.53,3.2-.96,9.85.68,12.15-4.27,22.4-3.12,6.46-13.44,16.6-19.2,21.34-6.12-15.56-12.23-30.64-19.2-45.88-4.78-10.45-13.25-18.92-13.87-30.94-.32-6.31.46-14.61,6.93-18.14,11.7-6.37,18.18,8.07,12.27-9.6v-2.13c5.46.83,26.37,10.83,26.67,12.27.2.96-4.44,6.46-4.27,9.6,12.91,18.05,3.54,19.06,26.14,27.21,2-8.42,10.6-12.58,16.54-18.14Z" style="fill:#420e2c; stroke-width:0px;"/><path d="m342.69,314.29l-1.07,1.07c-5.58-12.45-12.31-15.13-13.87-32.01h1.07c.62,12.02,9.09,20.49,13.87,30.94Z" style="fill:#b6a4ac; stroke-width:0px;"/><path d="m361.89,360.17c-.72.59-1.12,1.39-2.13,2.13-4.23-16.44-11.24-31.56-18.14-46.94l1.07-1.07c6.97,15.24,13.09,30.31,19.2,45.88Z" style="fill:#74788b; stroke-width:0px;"/><path d="m365.63,291.88c1.49-.06,4.52,9.83,1.07,10.67-5.07,1.23-2.14-10.62-1.07-10.67Z" style="fill:#f6f6de; stroke-width:0px;"/><path d="m386.43,316.42h-1.07c.12-1.27-.43-2.57.53-3.2.96,0,.3,2.15.53,3.2Z" style="fill:#8c8fa3; stroke-width:0px;"/><path d="m328.82,265.21c-.59,7.88-1.88,9.3-1.07,18.14,1.56,16.88,8.29,19.56,13.87,32.01,6.9,15.39,13.9,30.51,18.14,46.94-2.08,1.53-6.13,5.68-8.54,6.4-6.74,2.77-13.62-1.65-17.6,4.27v-4.27c-5.27,6.66-3.33,7.74-13.34,8.54h-1.07c7.61-6.47,12.83-16.41,3.2-24,4.24,16.97-3.35,16.65-5.33,18.67-15.82-14.26-17.1-5.79-18.14-5.33-3.81,1.7-3.27,3.91-9.07,0-15.06,9.73-15.5-.72-6.4-11.74,3.07-.03.04,1.06.53,3.2,3.45,14.99,5.06,1.6,9.07,3.2.58.23,2.02,5.38,3.2,5.33,2.34-.1.88-10.07,10.14-16.54-11.99-5.02-18.82.15-21.87-15.47-1.58,3.16-3.57,4.95-5.87,7.47-11.4-7.98-10.2-42.26-12.8-16.54-.97,9.59-.76,22.75,11.74,18.67v1.07c-.24.12-2.37,2.28-4.27,3.2.02-4.62-5.14,1.55-11.74-6.93-4.97-6.4-5.63-24.37-10.67-20.8,1.59-8.18,1.97-14.62,7.47-21.34,14.2-17.34,51.54-25,70.41-34.14Z" style="fill:#420e2c; stroke-width:0px;"/><path d="m273.34,348.43c1.9-.92,4.03-3.08,4.27-3.2,11.66-5.67-3.59,10.28-8.54,12.27,4.79,1.38,13.5-10.27,15.47-10.14,2.11.14,7.61,10.63-.53,10.67-.49-2.15,2.53-3.23-.53-3.2-9.1,11.01-8.66,21.46,6.4,11.74,5.8,3.91,5.25,1.7,9.07,0-.22,1.68.32,3.83,0,5.33-7.76,3.93-16.89,1.97-20.27,8.54-23.99-7.52-25.24-28.98-27.74-33.61-.47-.87-1.38-.53-2.13-.53-.43-6.33.54-9.16,1.07-14.94,7.63,24.58,8.77,24.24,23.47,17.07Z" style="fill:#d9af6e; stroke-width:0px;"/><path d="m319.22,377.24h1.07c10.01-.79,8.06-1.88,13.34-8.54v4.27c3.99-5.91,10.87-1.5,17.6-4.27l1.07,3.2c-.75.35-1.37.74-2.13,1.07-14.71,6.24-43.82,10.84-59.75,10.67-3.6-2.18-7.79-1.96-11.74-3.2,3.39-6.57,12.51-4.6,20.27-8.54-.88,4.1-5.42,5.92-7.47,9.07,11.41,2.24,17.76-1.11,25.61-9.07,1.99-2.02,9.57-1.7,5.33-18.67,9.63,7.59,4.41,17.54-3.2,24Z" style="fill:#e3c78b; stroke-width:0px;"/><path d="m273.34,348.43c-14.71,7.17-15.85,7.51-23.47-17.07.35-3.88.3-6.69,1.07-10.67,5.04-3.56,5.69,14.41,10.67,20.8,6.59,8.48,11.76,2.31,11.74,6.93Z" style="fill:#7f1d51; stroke-width:0px;"/><path d="m284.01,358.03c8.14-.04,2.64-10.53.53-10.67-1.96-.13-10.68,11.52-15.47,10.14,4.95-1.99,20.19-17.94,8.54-12.27v-1.07c.19-.61.97-2.03,1.07-2.13,2.3-2.52,4.28-4.31,5.87-7.47,3.05,15.62,9.88,10.45,21.87,15.47-9.26,6.47-7.79,16.44-10.14,16.54-1.18.05-2.62-5.1-3.2-5.33-4.01-1.6-5.62,11.79-9.07-3.2Z" style="fill:#d9af6e; stroke-width:0px;"/><path d="m317.08,371.9c-7.84,7.96-14.19,11.31-25.61,9.07,2.05-3.15,6.59-4.97,7.47-9.07.32-1.5-.22-3.66,0-5.33,1.03-.46,2.31-8.93,18.14,5.33Z" style="fill:#681340; stroke-width:0px;"/><path d="m278.67,342.03c-.09.1-.88,1.53-1.07,2.13-12.5,4.08-12.71-9.08-11.74-18.67,2.6-25.72,1.4,8.56,12.8,16.54Z" style="fill:#e3c78b; stroke-width:0px;"/><path d="m446.17,310.02c.55,7.02,12.16,34.7,16,41.61.58,1.04,1.34,1.86,1.07,3.2l1.07,2.13c-4.91,1.17-6.82-2.68-9.6-5.33,7.49-2,1.47-11.37-4.27-5.33-4.52-7.39-4.61-12.44-8.54-19.2,2.56-1.1.36-5.01,0-7.47-.74-5.02-2.23-10.74,4.27-9.6Z" style="fill:#e3c78b; stroke-width:0px;"/><path d="m580.6,338.83c.01,5.07-.6,9.73,1.07,9.6-4.74,11.49-16.68,34.51-30.94,32.01,2.59-3.21,7.8-12.39,0-9.6-1.35-17.53.5.79,15.47-8.54,14.4-8.97,4.01-29.38,14.4-23.47Z" style="fill:#e3c78b; stroke-width:0px;"/><path d="m543.26,377.24c-10.48,4.75-21.16,6.47-32.01,2.13-.67-6.77,9.21-5.6,13.87-6.4,18.63-3.22,2.96-1.37,2.13-8-.69-5.49,6.09-7.55,6.4-8,7.28,2.08,9.81,13.36,9.6,20.27Z" style="fill:#681340; stroke-width:0px;"/><path d="m550.73,380.44c-11.26-1.98,1.88-1.7-4.27-5.33.41-.23,3.98-4.17,4.27-4.27,7.8-2.79,2.59,6.39,0,9.6Z" style="fill:#8b4649; stroke-width:0px;"/><path d="m465.38,259.88c16.6-1.36,2.26,5.95,4.27,12.27.7,2.21,2.04-.59,2.13-.53,3.44,2.08,5.13,1.93,5.33,2.13,10.31,10.27-5.51,34.46-3.2,45.88-.11.77-1.97,2.89-1.07,4.8.26.55,4.75-.52,5.33,1.6-4.49,7.94-9.61,19.56-16,25.61-3.84-6.91-15.45-34.58-16-41.61-.31-3.97,4.55-11.11-5.33-3.2-9.23,1.65-.53-4.6,7.47-8-.64-6,3.51-10.25,7.47-13.87-3.21-16.07,23.21-15.59-3.2-18.14,3.12-3.13,8.41-6.57,12.8-6.93Z" style="fill:#420e2c; stroke-width:0px;"/><path d="m499.52,269.48l1.07,10.14c-10-12.37-14.57,11.07-2.13,8-5.24,13.51-13.18,25.85-20.27,38.41-.58-2.12-5.07-1.05-5.33-1.6-.9-1.91.96-4.04,1.07-4.8,1.77-12.66,12.12-32.02,7.47-44.28-1.28-3.38-4.48-5.69-4.27-1.6-.2-.2-1.9-.05-5.33-2.13,1.6-8.78,14.84-16.54,18.67-8.54,14.57-2.88-3.44,2,9.07,6.4Z" style="fill:#420e2c; stroke-width:0px;"/><path d="m501.65,269.48c3.36,12.01-1.49,17.24-2.13,19.2-.45-3.42.2-1.38-1.07-1.07-12.43,3.07-7.87-20.37,2.13-8l-1.07-10.14c.47.16.25-.53,2.13,0Z" style="fill:#f6f6de; stroke-width:0px;"/><path d="m533.66,356.96c-.31.45-7.09,2.52-6.4,8,.83,6.63,16.49,4.78-2.13,8-6.65-19.57,5.07-19.46,12.27-34.14,2.14,10.03,1.4,10.66-3.73,18.14Z" style="fill:#e3c78b; stroke-width:0px;"/><path d="m576.33,311.09c4.55,9.92,4.24,17.24,4.27,27.74-10.39-5.91,0,14.5-14.4,23.47-14.97,9.33-16.82-8.99-15.47,8.54-.28.1-3.86,4.04-4.27,4.27-1.19.68-1.96,1.57-3.2,2.13.2-6.91-2.32-18.19-9.6-20.27,5.13-7.47,5.87-8.11,3.73-18.14-7.2,14.68-18.92,14.57-12.27,34.14-4.66.8-14.54-.37-13.87,6.4-2.95-1.18.49-5.71-7.47-3.2-5.15-8.07-5.55-10.71-5.87-20.27-1.05,1.46-3.69,11.5-4.27,11.74-.85.35-3.41-5.15-4.27-5.33-2.71-.58-2.39,6.11-11.2,4.27l-13.87-9.6-1.07-2.13c9.81-17.01,30.75-49.35,36.27-66.15.65-1.97,5.49-7.19,2.13-19.2.33.09,1.83-1.56,6.93,0,20.94,6.41,58.01,20.37,67.75,41.61Z" style="fill:#420e2c; stroke-width:0px;"/><path d="m503.79,376.17c-.21.07.56,1.6-4.27,1.07-4.03-1.3-8.57-2.63-12.8-3.2-3.59-7.43-7.26-2.69-8.54-7.47,8.81,1.84,8.5-4.84,11.2-4.27.85.18,3.42,5.68,4.27,5.33.58-.24,3.22-10.28,4.27-11.74.32,9.56.72,12.2,5.87,20.27Z" style="fill:#e3c78b; stroke-width:0px;"/><path d="m499.52,288.68c-5.52,16.8-26.46,49.13-36.27,66.15.27-1.34-.49-2.16-1.07-3.2,6.39-6.05,11.52-17.66,16-25.61,7.09-12.56,15.03-24.9,20.27-38.41,1.27-.31.62-2.35,1.07,1.07Z" style="fill:#74788b; stroke-width:0px;"/><path d="m486.18,351.63c3.33.22.38,4.88-.53,5.87-11.14,12.01-5.29-6.26.53-5.87Z" style="fill:#e3c78b; stroke-width:0px;"/><path d="m473.91,319.62c-2.31-11.42,13.51-35.61,3.2-45.88-.22-4.09,2.99-1.78,4.27,1.6,4.65,12.26-5.7,31.62-7.47,44.28Z" style="fill:#d5c0b9; stroke-width:0px;"/></g></svg>