<?xml version="1.0" encoding="UTF-8"?><svg id="b" xmlns="http://www.w3.org/2000/svg" viewBox="0 0 1801.53 1030.42"><g id="c"><g id="d"><rect x="0" width="1801.53" height="1030.42" style="fill:#94ae8a; stroke-width:0px;"/><path d="m1622.06.47c2.09,34.16,4.95,47.12,29.03,72.13,6.98-2.35-33.32-47.6-25.51-72.13,17.59.05,35.18-.07,52.78,0-.24,25.8.32,51.61,0,77.4-.26,20.93-.4,40.59,0,61.57,1.22,64.82,6.13,129.52,5.28,194.39,10.15,34.41,12.79,69.45,17.59,104.67-2.86,63.73,10.77,223.5-3.52,275.31-3.63,13.16-5.31-13.05-8.8-29.03-8.18-37.43-17.12-71.24-19.35-109.95-1.05-18.1,2-86.2-3.52-61.57-1.18,5.27-1.47,90.3,5.28,107.31-4.68,8.41-9.24-25.8-10.56-10.56-.36,4.14,8.8,64.28,8.8,82.68-.01,28.85-12.31,68.1-1.76,64.21-2.18,8.06-2.9,16.22-7.04,23.75-20.62,23.01-31.88,73.76-40.46,106.43-5.77-12.26-9.8-78.08-12.31-83.56-8.58-18.7-6.22,36.61-10.56,56.29h-3.52l-5.28-31.67c-3.33,28.31-9.31,84.93-22.87,107.31-7.67,12.66-19.02,15.28-26.39,32.55-.63.21-12.03,5.03-10.56,7.04-4.56-.42-9.47,0-14.07,0-6.44,0-12.91.19-19.35,0,6.24-23.4,16.44-71.8,1.76-92.36-14.79-20.71-22.79,3.86-25.51,18.47-7.58-28.83-31.68,6.29-20.23,25.51,14.82,24.88,16.34-14.57,20.23-14.95,1.98-.2,8.68,12.04,10.56,12.31,4.39.65,23.37-33.64,6.16,46.62-1.96,2.15-29.13-8.96-38.7,7.92-.5.27-4.75,3.08-5.28,3.52-9.42-.72-68.88-55.65-73.89-46.62,20.3,45.8-4.13,3.99-15.83-8.8-38.69-42.25-16.65-11.04-15.83-3.52.89,8.18-5.63,1.09-15.83-8.8-18.29-60.73-15.75-25.95-8.8,11.43l-1.76,1.76c-3.32-6.73-9.89-12.11-12.31-19.35q21.99-146.45,43.98-292.91c7.99-108.62,41.18-266.35,29.91-369.43-3.03-27.73-14.82-68.34-22.87-95.88-4.26-14.56-8.78-28.01-14.07-42.22-6.93-18.61-11.94-31.43-21.11-49.26-10.37-20.16-22.7-39.16-35.18-58.05,113.76.09,227.53-.32,341.28,0Z" style="fill:#94ae8a; stroke-width:0px;"/><path d="m513.77.47c-8.07,11.99-15.9,24.28-22.87,36.94-4.21,7.65-6.93,15.13-10.56,22.87-10.18,21.74-12.01,26.15-19.35,49.26-1.39,4.36-2.29,8.01-3.52,12.31-8.18,28.67-15.42,56.48-19.35,86.2-3.87,29.28-4.59,48.29-5.28,77.4-2.42,102.07,12.8,163.15,21.11,258.6,8.31,95.46,16.68,191.12,22.87,286.75-2.14-.2-1.67,1.67-1.76,1.76-17.22,15.9-26.65,55.21-22.87,78.28-9.75-2.89,1.99-14.06-14.07-20.23-4.16-1.6-7.94-2.75-12.31-1.76-10.61-26.6-15.59-11.79-19.35-10.56-6.68,2.19-11.31,3.68-17.59,7.04-11.47,6.13-25.73,11.53-30.79,24.63-6.26,3.22,12.7-34.78-7.04-22.87-15.4,9.3-19.21,26.19-20.23,42.22-11.83-5.86-38.16-58.47-20.23-59.81,12.43-.93,31.88,38.04,34.3,20.23.43-3.19-34.82-50.35-36.94-52.78-8.15-9.31-3.55.84-6.16,2.64-8.06,5.57-4.92-65.86-18.47-16.71-4.81,17.44-2.83,47.98-10.56,57.17-1.84-5.28-8.37-17.46-8.8-20.23-2.21-14.59,1.64-49.44,0-68.61-13.43,47.09-9.84-.78-17.59-17.59-6.76-54.16,8.11-129.51-8.8-72.13-1,3.41-8.28,50.21-14.07,40.46.96-34.65-7.23-68.99-14.07-102.91-5.97-29.58-16.44-57.75-20.23-87.96-15.67,43.69,8.67,57.41,14.95,87.96-.37,39.29,18.44,85.4,0,113.47q1.76,29.03,3.52,58.05h-3.52c-4.79-13.49-1.65-44.5-6.16-44.86-3.04-.24-4.15,14.82-9.68,7.92-1.89-2.37-22.51-49.49-24.63-55.41-17.5-48.96-15.59-82.57-22.87-131.06-8.59-57.22-22.62-114.21-19.35-172.4-17.45-79.92-9.16-11.86-3.52,21.11-5.15,48.41,7.22,94.46,14.07,141.62-15.83-10.65,5.41,42.8-10.56,66.85-3.17-9.15-15.31-28.79-17.59-35.18-4.57-12.8-9.27-27.84-10.56-41.34-1.48-15.48.51-146.66,0-194.39-.44-41.21-5.94-170.69-5.28-180.32,1.45-21.1,12.38-42.03,14.07-63.33-3.4-8.59-12.16,22.81-14.07,26.39q-2.64-26.39-5.28-52.78c-6.23,33.31,2.39,153.54,0,163.61-.31,1.31-2.33.9-3.52.88-3.06-89.07-10.48-178.23-5.28-267.4,146.57-1.13,293.22.12,439.8,0Z" style="fill:#94ae8a; stroke-width:0px;"/><path d="m10.64.47q11.87,17.59,23.75,35.18,2.2-17.59,4.4-35.18c11.71-.28,23.47.09,35.18,0-5.21,89.17,2.22,178.32,5.28,267.4,1.63,47.62,3.27,94.99,7.04,142.5,1.84,48.39-2.14,151.46,1.76,185.6,3.53,30.9,33.39,94.55,15.83,13.19,2.28,6.39,14.42,26.03,17.59,35.18,8.7,25.14,14.03,51.63,22.87,76.53,10.82,30.47,21.35,53.92,17.59,24.63,10.85.54,4.77-5.65-1.76-25.51l3.52-1.76c2.12,5.93,22.73,53.05,24.63,55.41,5.53,6.9,6.64-8.16,9.68-7.92,4.51.36,1.37,31.37,6.16,44.86h3.52q-1.76-29.03-3.52-58.05c18.44-28.06-.37-74.18,0-113.47h5.28c6.85,33.92,15.04,68.26,14.07,102.91,5.79,9.75,13.07-37.05,14.07-40.46,16.91-57.39,2.04,17.97,8.8,72.13,7.75,16.81,4.16,64.68,17.59,17.59,1.64,19.16-2.21,54.01,0,68.61.42,2.78,6.96,14.95,8.8,20.23,3.1,8.89,12.83,24.89,17.59,53.66,1.34,8.13-3.22,5.47-7.04,11.43-.96,1.49-6.85-2.63-3.52,15.83.03,1.17-.06,2.35,0,3.52-3.56-6.56-5.34,1.85-16.71,0-1.98-.32-11.89-5.11-20.23-7.04-4.83-1.11-10.97-6.44-14.95-7.04-32.41-4.85-63.54,18.96-64.21,45.74-27.38-15.32-45.44-32.61-21.99-19.35.96-17.46-17.16-6.18-21.11-7.04-6.2-1.34-21.32-35.49-15.83-8.8q-40.46-30.79-80.92-61.57c-9.55-.52,26.91,45.25,35.18,35.18,1.84,1.08.36,4.63.88,5.28-.01,7.22,6.27,11.91,8.8,17.59,6.46,14.55,9.44,31.09,15.83,45.74-29.16,19.28-50.94,33.83-84.44,12.31V.47c3.48-.24,7.1.36,10.56,0Z" style="fill:#648b86; stroke-width:0px;"/><path d="m1725.86,665.45c-.81,15.26-3.67,30.42-2.64,45.74,14.98-20.83,26.66-45.14,25.51-71.25h3.52v36.94h3.52c13.76-53.11,34.08-64.61,35.18-125.78h10.56c-.15,159.5.11,319,0,478.5-52.19.15-104.38-.2-156.57,0,5.42-5.45,21.55-14.59,25.51-19.35,9.75-11.74-21.18,4.51-57.17-1.76,4.75-6.46-1.3-11.66-3.52-17.59q11.43-10.99,22.87-21.99c-1.05-2.26-14.25,3.47-15.83,4.4q-11.43.88-22.87,1.76c9.67-7.97,76.17-66.84,79.16-71.25.45-.66,2.85-5.25-.88-4.4-9.23,9.55-21.5,14.4-32.55,21.11-8.1-5.68-21.55,12.05-20.23-3.52-13.65,4.5-2.9-15.5.88-29.91,8.58-32.67,19.84-83.42,40.46-106.43,4.14-7.53,4.86-15.69,7.04-23.75,2.54-9.4,6.83-32.13,8.8-43.1,2.3-12.83-7.08-28.12,12.31-29.03,3.49,15.97,5.17,42.18,8.8,29.03,14.29-51.81.65-211.58,3.52-275.31,4.37,32.01,15.5,78.06,17.59,108.19,2.69,38.89-6.63,92.23,7.04,118.75Z" style="fill:#648b86; stroke-width:0px;"/><path d="m1739.93.47c3.88,35.2.54,70.4-1.76,105.55-.98,14.96-5.41,30.36-3.52,40.46.5,2.67-5.88,8.16,10.56,8.8l-1.76,45.74c-7.01,54.51-18.94,45.79-7.04,114.35-2.67-.3-3.6-.32-3.52,2.64,3.93,145,.45,206.32-7.04,347.44-13.67-26.51-4.34-79.86-7.04-118.75-2.09-30.13-13.23-76.18-17.59-108.19-4.8-35.22-7.44-70.26-17.59-104.67.85-64.87-4.06-129.57-5.28-194.39l3.52-.88c2.28,33.95,4.35,67.97,5.28,102.03,5.25-16.1,5.65-49.38,5.28-68.61-.34-17.58-8.29-82.3,0-29.91,9.19-44.65-4.3-94.83,0-141.62,15.83.09,31.67-.17,47.5,0Z" style="fill:#5a7677; stroke-width:0px;"/><path d="m1692.43.47c-4.3,46.79,9.19,96.96,0,141.62-8.29-52.39-.34,12.33,0,29.91.37,19.23-.02,52.51-5.28,68.61-.93-34.07-2.99-68.09-5.28-102.03l-3.52.88c-.4-20.98-.26-40.64,0-61.57,12.12-6.18,1.29-52.4,3.52-77.4,3.52.02,7.04-.02,10.56,0Z" style="fill:#94ae8a; stroke-width:0px;"/><path d="m1755.76.47q-.88,53.66-1.76,107.31c-1.68,15.94-5.12,31.6-7.04,47.5h-1.76c-16.44-.63-10.06-6.12-10.56-8.8,4.25-13,5.02-27.01,7.04-40.46,5.29-35.32,11.55-69.58,8.8-105.55,1.76.03,3.52-.03,5.28,0Z" style="fill:#648b86; stroke-width:0px;"/><path d="m376.55,987.38c1.36,3.95,3.72,8.3,5.28,12.31,3.84,9.91,10.39,19.24,12.31,29.91-11.73-.01-23.46.02-35.18,0-2.84-9.72-4.33-20.22-7.04-29.91q12.31-6.16,24.63-12.31Z" style="fill:#5f8069; stroke-width:0px;"/><path d="m1750.48.47c2.76,35.97-3.51,70.23-8.8,105.55h-3.52c2.3-35.15,5.64-70.35,1.76-105.55,3.52.04,7.04-.05,10.56,0Z" style="fill:#c0bf8e; stroke-width:0px;"/><path d="m1762.8.47c-1.33,36.15-5.04,71.57-8.8,107.31q.88-53.66,1.76-107.31c2.34.04,4.69-.04,7.04,0Z" style="fill:#8e9e83; stroke-width:0px;"/><path d="m38.78.47q-2.2,17.59-4.4,35.18Q22.51,18.07,10.64.47c8.29-.86,19.2.21,28.15,0Z" style="fill:#94ae8a; stroke-width:0px;"/><path d="m1801.5,515.92c0,11.73.01,23.46,0,35.18h-10.56c.21-11.78-.61-23.49-1.76-35.18h12.31Z" style="fill:#5a7677; stroke-width:0px;"/><path d="m1681.88.47c-2.22,25,8.61,71.22-3.52,77.4.32-25.79-.24-51.61,0-77.4,1.17,0,2.35,0,3.52,0Z" style="fill:#7a9574; stroke-width:0px;"/><path d="m1625.58.47c-7.81,24.53,32.49,69.78,25.51,72.13-24.07-25.01-26.93-37.97-29.03-72.13,1.17,0,2.35,0,3.52,0Z" style="fill:#648b86; stroke-width:0px;"/><path d="m1620.3,887.11c-3.78,14.4-14.53,34.41-.88,29.91-1.32,15.57,12.13-2.16,20.23,3.52-14.09,8.56-28.2,17.64-42.22,26.39-1.84,1.15-3.44,2.37-5.28,3.52-17.12,7.48-35.12,11.85-52.78,17.59,7.36-17.26,18.72-19.88,26.39-32.55,13.56-22.38,19.54-79,22.87-107.31l5.28,31.67h3.52c4.33-19.69,1.98-74.99,10.56-56.29,2.52,5.48,6.54,71.3,12.31,83.56Z" style="fill:#648b86; stroke-width:0px;"/><path d="m1688.91,684.8c-19.39.91-10.01,16.19-12.31,29.03-1.97,10.97-6.25,33.71-8.8,43.1-10.55,3.89,1.75-35.36,1.76-64.21,0-18.4-9.15-78.54-8.8-82.68,1.31-15.25,5.88,18.96,10.56,10.56-6.75-17.01-6.46-102.04-5.28-107.31,5.52-24.63,2.47,43.47,3.52,61.57,2.24,38.71,11.17,72.52,19.35,109.95Z" style="fill:#648b86; stroke-width:0px;"/><path d="m1665.16,118.34q3.96,87.52,7.92,175.04c-5.53,29.74-7.32,76.54-15.83,103.79-4.67,14.94-10.36,23.54-8.8,0,1-14.96,16.19-68.23,17.59-95,2.29-43.9-4.59-131.85-.88-183.84Z" style="fill:#7a9574; stroke-width:0px;"/><path d="m1600.07,640.82c-3.43,36.6,15.58,72.68,16.71,108.19,1.1,34.52-17.42,84.47-3.52,15.83-1.81-41.92-20.46-81.7-13.19-124.02Z" style="fill:#7a9574; stroke-width:0px;"/><path d="m1610.63,635.55c2.02,4.7,16.19,12.27,16.71,13.19.95,1.68,6.34,32.16,7.92,37.82-15.91-19.9-25.36-17.84-24.63-51.02Z" style="fill:#648b86; stroke-width:0px;"/><path d="m330.81,929.33c-.18,2.86-.13,5.93,0,8.8-4.16,3.92-4.37-7-18.47-5.28-.47.06-3.81,4.12-7.92,5.28-7.14,2.01-14.26,4.16-21.11,7.04,3.82-5.96,8.38-3.31,7.04-11.43-4.77-28.77-14.49-44.76-17.59-53.66,7.72-9.19,5.75-39.74,10.56-57.17,13.55-49.14,10.41,22.28,18.47,16.71,2.61-1.8-1.99-11.95,6.16-2.64,2.12,2.42,37.38,49.58,36.94,52.78-2.42,17.81-21.88-21.16-34.3-20.23-17.93,1.34,8.4,53.95,20.23,59.81Z" style="fill:#648b86; stroke-width:0px;"/><path d="m93.32,373.42c-12.28-11.67,3.72,27.58-7.04,36.94-3.76-47.51-5.4-94.88-7.04-142.5,1.19.02,3.21.43,3.52-.88,2.39-10.07-6.23-130.29,0-163.61q2.64,26.39,5.28,52.78c1.91-3.58,10.67-34.98,14.07-26.39-1.7,21.3-12.63,42.24-14.07,63.33-.66,9.63,4.84,139.11,5.28,180.32Z" style="fill:#769588; stroke-width:0px;"/><path d="m132.02,577.49c7.72,53.13,11.16,90.81,28.15,142.5,6.53,19.85,12.6,26.05,1.76,25.51,3.76,29.29-6.77,5.84-17.59-24.63-8.84-24.89-14.17-51.39-22.87-76.53,15.96-24.05-5.27-77.5,10.56-66.85Z" style="fill:#94ae8a; stroke-width:0px;"/><path d="m93.32,373.42c.51,47.73-1.48,178.91,0,194.39,1.29,13.5,5.99,28.54,10.56,41.34,17.56,81.35-12.3,17.71-15.83-13.19-3.9-34.14.08-137.2-1.76-185.6,10.76-9.36-5.24-48.61,7.04-36.94Z" style="fill:#8e9e83; stroke-width:0px;"/><path d="m163.69,718.23l-3.52,1.76c-16.99-51.69-20.43-89.36-28.15-142.5-6.85-47.16-19.22-93.21-14.07-141.62-5.64-32.97-13.93-101.03,3.52-21.11-3.27,58.2,10.76,115.18,19.35,172.4,7.28,48.49,5.37,82.1,22.87,131.06Z" style="fill:#769588; stroke-width:0px;"/><path d="m206.79,366.39c8.59,41.38-5.41,84.25-27.27,118.75-8.45,36.16,1.21,73.28-4.4,109.95-7.32-46.13-2.87-92.02.88-138.1,24.26-43.45,32.91-30.65,30.79-90.6Z" style="fill:#648b86; stroke-width:0px;"/><path d="m110.03,257.32c11.38,31.77,15.96,81.18,21.99,102.91,1.86,6.73,10.33,18.89,12.31,24.63,17.39,50.29-9.21,3.89-19.35-31.67-7.42-26.02-13.25-68.28-14.95-95.88Z" style="fill:#769588; stroke-width:0px;"/><path d="m209.43,639.06h-5.28c-6.28-30.55-30.63-44.27-14.95-87.96,3.79,30.21,14.26,58.38,20.23,87.96Z" style="fill:#769588; stroke-width:0px;"/><path d="m236.69,174.64c-4.88,34.52-15.07,69.54-11.43,104.67,2.35,22.76,19.58,57.8-3.52,7.04,2.87-41.21-8.16-74.85,14.95-111.71Z" style="fill:#648b86; stroke-width:0px;"/><path d="m148.73,417.4c1.5-1.17,4.14,3.53,4.4,4.4,2.15,7.21,7.73,84.69,9.68,104.67-9.93-35.44-13.61-72.41-14.07-109.07Z" style="fill:#7a9574; stroke-width:0px;"/><path d="m268.36,668.97c1.77,14.87,31.35,98.68,24.63,103.79-6.12,2.67-1.79-9.17-6.16-23.75-2.33-7.8-10.23-21.65-10.56-22.87-2.25-8.3-11.32-56.42-7.92-57.17Z" style="fill:#7a9574; stroke-width:0px;"/><path d="m58.14,306.58q-2.64-76.09-5.28-152.17c-7.77,18.55,1.82,53.85-7.04,83.56-6.48,1.5-7.62,36.74-7.04,43.1.53,5.72,11.99,36.48,14.07,65.09,1.23,16.95,2.59,88.42-5.28,90.6-3.11-14.68-5.2-33.3-8.8-46.62-2.57-9.51-10.27-21.84-12.31-29.03,5.84-12.98-1.13-101.96,1.76-106.43,2.86-4.43,7.5-1.54,8.8-3.52.72-1.1-6.03-.23,3.52-19.35-9.93-8.7,8.51-3.07-1.76-14.07,11.95-2.3,1.07-9.3,1.76-10.56.56-1.02,9.84-5.33,7.04-19.35-3.93-19.7-14.32,5.89-17.59.88,7.4-16.51,15.68-31.03,24.63-46.62,4.32-38.6-.52-78.21,8.8-116.11,2.53,22.4-2.89,44.72-3.52,66.85-1.6,56.43,7.51,167.93-1.76,213.74Z" style="fill:#8e9e83; stroke-width:0px;"/><path d="m45.82,237.97c-4.82,26.77,3.54,50.37,8.8,75.65,2.44,11.73,8.53,23.1,10.56,34.3,5.29,29.29,6.62,138.9,3.52,170.64-.78,7.97-1.34,18.48-5.28,7.04-9.24-26.85-12.38-72.54-15.83-88.84,7.87-2.18,6.51-73.65,5.28-90.6-2.08-28.61-13.55-59.37-14.07-65.09-.59-6.36.55-41.6,7.04-43.1Z" style="fill:#94ae8a; stroke-width:0px;"/><path d="m26.47,361.11c-13.98-49.16-17.45-66.78-15.83-122.26,3.74-17.85,11.98-33.69,19.35-50.14,3.27,5.01,13.66-20.58,17.59-.88,2.8,14.03-6.48,18.33-7.04,19.35-.69,1.25,10.19,8.25-1.76,10.56,10.27,11-8.17,5.38,1.76,14.07-9.55,19.12-2.8,18.25-3.52,19.35-1.3,1.98-5.93-.91-8.8,3.52-2.89,4.47,4.08,93.45-1.76,106.43Z" style="fill:#94ae8a; stroke-width:0px;"/><path d="m58.14,306.58c-.5,2.49,1.18,5.68-3.52,7.04-5.26-25.27-13.61-48.87-8.8-75.65,8.85-29.71-.73-65.01,7.04-83.56q2.64,76.09,5.28,152.17Z" style="fill:#648b86; stroke-width:0px;"/><path d="m1736.41,315.37c12.52,72.06,47.03,141.98,52.78,200.55,1.15,11.7,1.97,23.4,1.76,35.18-1.11,61.17-21.43,72.67-35.18,125.78h-3.52v-36.94h-3.52c1.15,26.1-10.53,50.42-25.51,71.25-1.04-15.32,1.83-30.48,2.64-45.74,7.48-141.12,10.97-202.45,7.04-347.44-.08-2.96.85-2.93,3.52-2.64Z" style="fill:#94ae8a; stroke-width:0px;"/><path d="m1743.45,201.02l1.76-45.74h1.76c-1.08,9.01-.93,25.63-3.52,45.74Z" style="fill:#9eb09b; stroke-width:0px;"/><path d="m1741.69,106.03c-2.01,13.45-2.79,27.46-7.04,40.46-1.89-10.1,2.54-25.5,3.52-40.46h3.52Z" style="fill:#89a597; stroke-width:0px;"/></g><path d="m1762.8.47c12.89.23,25.81-.17,38.7,0v515.45h-12.31c-5.74-58.57-40.26-128.49-52.78-200.55-11.91-68.56.02-59.84,7.04-114.35,2.59-20.11,2.43-36.73,3.52-45.74,1.91-15.9,5.36-31.55,7.04-47.5,3.76-35.74,7.46-71.16,8.8-107.31Z" style="fill:#596164; stroke-width:0px;"/><path d="m307.94,976.83c4.68,17.83,12.92,35.49,19.35,52.78-11.73-.02-23.46.02-35.18,0-1-6.73-5.77-11.91-8.8-17.59,6.53-9.21-2.82-34.42-3.52-47.5-.06-1.17.03-2.35,0-3.52,3.63,20.08,10,31.82,28.15,15.83Z" style="fill:#5f8069; stroke-width:0px;"/><path d="m68.69,955.72v1.76c-2.53-5.68-8.81-10.37-8.8-17.59,6.76,8.39,7.17,13.42,8.8,15.83Z" style="fill:#4d5047; stroke-width:0px;"/><path d="m425.81,888.87c-6.27,1.43-8.37,8.46-14.07,8.8-.14-.57-3.9-8.61-5.28-10.56.37-2.85-.25-5.92,0-8.8,3.76-1.24,8.74-16.04,19.35,10.56Z" style="fill:#769588; stroke-width:0px;"/><path d="m330.81,938.13c.16,3.4-.51,7.63,0,10.56l-1.76,1.76c-10.14-4.94-15.86,3.63-22.87,10.56-1.68-8.22-8.14-13.84-1.76-22.87,4.11-1.16,7.44-5.22,7.92-5.28,14.1-1.72,14.31,9.19,18.47,5.28Z" style="fill:#94ae8a; stroke-width:0px;"/><path d="m1293.09,83.16c11.22,18.6,24.14,36.57,31.67,57.17,1.94,2.72,2.49-5.38,1.76-9.68l3.52-3.52c.14,15.93,30.31,123.82,26.39,171.52,11.17-45.97-7.22-101.72-5.28-148.65,8.05,27.54,19.84,68.15,22.87,95.88,11.28,103.08-21.91,260.81-29.91,369.43q-21.99,146.45-43.98,292.91l-5.28,6.16q-18.47,57.61-36.94,115.23c-48.08.04-96.17-.03-144.25,0,5.37-20.31,53.71-104.82,54.54-112.59,8.17-5.1,18.04-8.28,26.39-13.19-2.61-8.4-7.23-15.49-10.56-23.75q34.3-100.27,68.61-200.55c45.09-38.83,56.87-74.38,84.44-124.02-3.19-2.98-7.7,5.55-15.83,11.43-1.69-3.07-2.87-2.94-3.52-7.04-.23-1.44,9.58-1.63-5.28-5.28,8.83-51.76,14.94-104.04,16.71-156.57-12.19,49.96-36.41,94.33-64.21,137.22-6.83-10.82-6.59-23.3-8.8-35.18,30.06-58.23,25.16-158.97,28.15-171.52.31-1.31,2.33-.9,3.52-.88,5.93,21.76,5.94,9.03,3.52-21.99-.25-3.23-1.59-15.76-5.28-16.71-.98-10.36-1.79-17.82-3.52-28.15l3.52-3.52c8.94,20.41,21.67,83.11,19.35,24.63h5.28c8.35,28.13,20.25,42.94,21.99,79.16,2.18.34,9.45-40.3,9.68-43.1,1.23-15.54-.42-55.53-5.28-48.38-2.19-.32-5.03.5-7.04,0,10.4-14.76,8.78-43,3.52-36.94,2.72-10.84-9.12-69.21-14.07-81.8-.68-1.55-3.43-.66-3.52-.88-8.66-21.53-21.22-41.76-29.91-63.33,2.14-1.52,4.09-3.86,7.04-3.52Z" style="fill:#5d0932; stroke-width:0px;"/><path d="m1111.9.47c28.62,21.11,55.48,43.76,79.16,70.37,5.65,6.35,25.49,29.51,28.15,33.42,14.49,21.34,34.82,66.51,43.98,91.48,7.51,20.47,15.76,43.63,19.35,65.09,1.73,10.33,2.54,17.79,3.52,28.15,1.48,15.66-3.16,20.65,1.76,38.7-1.19-.02-3.21-.43-3.52.88-2.99,12.55,1.92,113.29-28.15,171.52-6.23-33.51-6.44-61.82-8.8-95-.49-6.96.62-14.18,0-21.11-.24-2.68-.75-6.07,1.76-7.92-8.02-13.84-20.25-26.44-26.39-41.34q14.95-16.27,29.91-32.55c-8.9-92.36-44.25-190.77-124.9-243.65-2.81-3.72-5.87-5.63-8.8-8.8-19.54-21.12-42.57-34.48-66.85-49.26,19.94,0,39.88-.01,59.81,0Z" style="fill:#150914; stroke-width:0px;"/><path d="m1113.65,1029.61c-29.91.02-59.81-.01-89.72,0-.72-2.49,1.22-3.33,1.76-5.28,7.01-3.33,17.69-13.4,22.87-19.35,37.17-33.1,77.4-61.61,119.63-87.96-.83,7.77-49.17,92.27-54.54,112.59Z" style="fill:#150914; stroke-width:0px;"/><path d="m700.24.47c-51.09,34.54-100.33,76.64-131.94,130.18-3.38.82-8.02-15.3-10.56-24.63,7.96-10.66,14.52-23.12,22.87-33.42,21.7-26.8,49.8-49.49,75.65-72.13,14.66,0,29.32,0,43.98,0Z" style="fill:#edda9f; stroke-width:0px;"/><path d="m406.46,878.31c-.25,2.88.37,5.95,0,8.8-.83,6.34-.67,7.99,0,14.07,1.65,14.93,4.95,28.8,12.31,42.22-1.05-.22-3.53,2.35-3.52,2.64.23,4.49,31.75,70.21,33.42,83.56-18.18-.02-36.36.02-54.54,0-1.92-10.66-8.47-19.99-12.31-29.91q18.47-10.12,36.94-20.23c-21.25-27.14-26.85-60.64-29.91-94.12,6.28-3.36,10.92-4.85,17.59-7.04Z" style="fill:#150914; stroke-width:0px;"/><path d="m1231.52.47q12.31,18.03,24.63,36.06-18.47,16.27-36.94,32.55c-3.02-3.73-12.21-9.98-15.83-14.07-16.64-18.76-32.01-37.95-51.02-54.54,26.39.02,52.78-.02,79.16,0Z" style="fill:#5d0932; stroke-width:0px;"/><path d="m1240.32.47c6.56,11.07,15.95,20.97,22.87,31.67,10.51,16.24,19.85,34.34,29.91,51.02-2.94-.34-4.9,2-7.04,3.52-11.54,8.18-33.21,22.96-33.42,28.15-3.31-6.41-27.29-38.18-33.42-45.74q18.47-16.27,36.94-32.55-12.31-18.03-24.63-36.06c2.93,0,5.86,0,8.8,0Z" style="fill:#150914; stroke-width:0px;"/><path d="m163.69,996.18c-.6,23.95,14.62,18.58,19.35,33.42-4.69-.01-9.38.02-14.07,0q-25.95-29.91-51.9-59.81c-1.94,1.48.08,22.91.88,26.39-17.47-5.65-7.03-1.83-8.8,4.4-.43,1.53-3.52.7-3.52.88-2.04-1.49-5.45-3.49-7.04-5.28-10.51-11.89-20.99-27.25-29.91-40.46-1.63-2.41-2.03-7.45-8.8-15.83-.52-.64.96-4.2-.88-5.28-8.27,10.07-44.73-35.71-35.18-35.18q40.46,30.79,80.92,61.57c-5.49-26.69,9.63,7.46,15.83,8.8,3.95.85,22.07-10.42,21.11,7.04-23.45-13.26-5.39,4.03,21.99,19.35Z" style="fill:#edda9f; stroke-width:0px;"/><path d="m441.64,945.16c.81.95,1.75-4.03,17.59,15.83,7.71,9.67,15.18,17.89,19.35,29.91,4.25,12.26,3.61,25.03,3.52,38.7-11.14-.01-22.28,0-33.42,0-1.68-13.35-33.19-79.07-33.42-83.56-.01-.29,2.47-2.86,3.52-2.64,2.46,4.48,32.53,43.67,26.39,25.51-1.09-3.22-10.28-5.03-3.52-23.75Z" style="fill:#450d2c; stroke-width:0px;"/><path d="m1152.36.47c19.01,16.58,34.38,35.78,51.02,54.54q-6.16,7.92-12.31,15.83c-23.68-26.61-50.54-49.26-79.16-70.37,13.49,0,26.97,0,40.46,0Z" style="fill:#edda9f; stroke-width:0px;"/><path d="m559.51.47c-10.39,12.32-19.05,25.44-28.15,38.7-14.89,21.71-17.08,24.9-28.15,49.26-2.33-19.04,2.15-40.15,8.8-58.05,3.91-10.55,11.76-19.44,15.83-29.91,10.56,0,21.11,0,31.67,0Z" style="fill:#edda9f; stroke-width:0px;"/><path d="m494.42,1029.61c-2.35,0-4.69,0-7.04,0-1.25-21.11-2.43-42.21-3.52-63.33-1.64-31.69-3.4-63.32-5.28-95,2.48-1.62,6.15,12.73,7.04,16.71,10.3,46.22,11.55,94.49,8.8,141.62Z" style="fill:#150914; stroke-width:0px;"/><path d="m1280.78.47c12.48,18.89,24.81,37.89,35.18,58.05-9.01,4.06,1.51,17.01-7.04,17.59-10.36-12.95-18.33-27.82-26.39-42.22-6.12-10.93-11.88-22.26-17.59-33.42,5.28,0,10.56,0,15.83,0Z" style="fill:#450d2c; stroke-width:0px;"/><path d="m168.97,1029.61c-11.14-.04-22.28.04-33.42,0-2.13-7.85-9.23-14.03-12.31-21.11-1.17-2.69-5.13-11.66-5.28-12.31-.8-3.48-2.82-24.9-.88-26.39q25.95,29.91,51.9,59.81Z" style="fill:#450d2c; stroke-width:0px;"/><path d="m527.84.47c-4.07,10.47-11.92,19.36-15.83,29.91q-10.56,3.52-21.11,7.04c6.97-12.66,14.8-24.95,22.87-36.94,4.69,0,9.38,0,14.07,0Z" style="fill:#5d0932; stroke-width:0px;"/><path d="m123.23,1008.5c3.08,7.08,10.19,13.26,12.31,21.11-3.52-.01-7.04.02-10.56,0q-9.68-13.19-19.35-26.39l17.59,5.28Z" style="fill:#55756c; stroke-width:0px;"/><path d="m487.38,1029.61c-1.76,0-3.52,0-5.28,0,.09-13.67.74-26.45-3.52-38.7,4.75,2.45,4.02-10.63,3.52-24.63h1.76c1.09,21.12,2.27,42.22,3.52,63.33Z" style="fill:#45334b; stroke-width:0px;"/><path d="m457.47,544.07c9.41,14.71,13.77,34.15,21.11,49.26,1.71,24.97,10.54,50,12.31,74.77,1.65,22.99-2.41,104.18,0,112.59,4.56,15.89,14.57-24.74,22.87-8.8,3.81,7.32,33.02,135.34,40.46,160.09,9.88,32.85,24.34,64.48,33.42,97.64-1.76,0-3.52,0-5.28,0-1.54-7.38-25.4-4.85-24.63,0-21.11-.01-42.22.02-63.33,0,2.75-47.13,1.5-95.39-8.8-141.62-.89-3.98-4.56-18.34-7.04-16.71-.8-13.41-.89-27.07-1.76-40.46-6.19-95.63-14.56-191.29-22.87-286.75,1.13-.11,2.5.23,3.52,0Z" style="fill:#450d2c; stroke-width:0px;"/><path d="m582.38,1029.61c-8.21,0-16.42,0-24.63,0-.77-4.85,23.09-7.38,24.63,0Z" style="fill:#2f0b1d; stroke-width:0px;"/><path d="m1337.07,107.79c5.3,14.21,9.81,27.66,14.07,42.22-1.94,46.94,16.45,102.68,5.28,148.65,3.92-47.7-26.25-155.59-26.39-171.52-.06-6.32-1.18-18.34,7.04-19.35Z" style="fill:#364046; stroke-width:0px;"/><path d="m1337.07,107.79c-8.22,1.01-7.09,13.03-7.04,19.35l-3.52,3.52c-.31-1.83-8.44-23.22-8.8-36.06q-4.4-9.24-8.8-18.47c8.55-.58-1.97-13.53,7.04-17.59,9.17,17.82,14.18,30.65,21.11,49.26Z" style="fill:#332b39; stroke-width:0px;"/><path d="m1312.44,927.57c1.8,3.64,1.66,5.02,1.76,5.28,3.43,8.61,9.62,30.38,10.56,38.7.54,4.79,2.02,20.5,1.76,22.87-.24,2.19-10.19,21.88-10.56,35.18-19.35.02-38.7-.01-58.05,0q18.47-57.61,36.94-115.23l5.28-6.16c2.43,7.24,8.99,12.62,12.31,19.35Z" style="fill:#150914; stroke-width:0px;"/><path d="m1314.2,932.85c-.1-.26.04-1.63-1.76-5.28l1.76-1.76c.06.35,4.88,3.31,0,7.04Z" style="fill:#877c80; stroke-width:0px;"/><path d="m459.23,202.78c-1.19,17.7,3.85,46.62,5.28,66.85.46,6.49,1.42,12.72,1.76,19.35.78,15.17-1.3,30.6.88,45.74,3.07,2.21,29-46.24,16.71-40.46,10.54-3.45,11.85-15.63,15.83-24.63,1.36-.29,2.32,2.62,5.28,1.76-2.91,60.07-.46,19.05,7.04-15.83,6.39,5.76,2.84-.91,12.31,1.76-1.41,9.34-3.97,18.58-3.52,28.15-3.14,16.15-11.88,50.14,3.52,56.29.86,33.08-.31,68.41,3.52,101.15,1.14,9.72,22.12,84.18,14.95,85.32-32.87-41.53-48.7-85.36-58.05-137.22-8.2,56.01,2.78,111.71,9.68,167.12-23-3.67-29.29-15.81-36.94-14.07-1.02.23-2.39-.11-3.52,0-8.31-95.45-23.53-156.53-21.11-258.6l3.52-11.43c.43,15.75,4.66,55.67,10.56,45.74-.2-37.45,2.76-74.53,7.04-111.71.2-1.72-.21-3.56,0-5.28h5.28Z" style="fill:#5d0932; stroke-width:0px;"/><path d="m388.86,885.35c3.06,33.48,8.66,66.98,29.91,94.12q-18.47,10.12-36.94,20.23c-1.56-4.01-3.92-8.37-5.28-12.31-6.89-20.01-14.72-69.64-18.47-47.5.55-13.92-16.44,17.71-18.47,24.63-.19-.6-3.82.95-7.04-10.56-1.22-4.38-1.71-5-1.76-5.28-.51-2.92.16-7.16,0-10.56-.13-2.86-.18-5.94,0-8.8,1.02-16.04,4.83-32.93,20.23-42.22,19.73-11.91.78,26.09,7.04,22.87,5.06-13.1,19.32-18.5,30.79-24.63Z" style="fill:#450d2c; stroke-width:0px;"/><path d="m512.01,30.38c-6.64,17.91-11.12,39.01-8.8,58.05-8.89,19.57-18.32,38.55-22.87,59.81-4,18.68-7.16,37.05-5.28,56.29-6,4.55-.89,53.6,0,56.29-7.88-1.12-7.93,1.26-7.04,8.8h-3.52c-1.42-20.23-6.47-49.15-5.28-66.85,1.15-17.08,19.43-75.15,19.35-90.6-.11-21.88-11.42,18.61-12.31,21.99-5.47-3.26-.96-12.78-8.8-12.31,1.23-4.3,2.13-7.95,3.52-12.31,15.2-8.96,22.61-32.57,19.35-49.26,3.62-7.73,6.35-15.22,10.56-22.87q10.56-3.52,21.11-7.04Z" style="fill:#333440; stroke-width:0px;"/><path d="m480.34,948.68c-7.26.34-16.98,6.34-21.11,12.31-15.84-19.86-16.78-14.88-17.59-15.83-10.65-12.4-16.6-42.77-3.52-54.54,16.06,6.17,4.32,17.34,14.07,20.23-3.78-23.07,5.65-62.38,22.87-78.28-1.74,38.9,2.8,77.41,5.28,116.11Z" style="fill:#450d2c; stroke-width:0px;"/><path d="m453.96,208.06c-4.27,37.18-7.24,74.26-7.04,111.71-5.9,9.93-10.12-29.99-10.56-45.74l-3.52,11.43c.69-29.11,1.41-48.13,5.28-77.4h15.83Z" style="fill:#364046; stroke-width:0px;"/><path d="m438.12,890.63c-13.08,11.77-7.13,42.14,3.52,54.54-6.76,18.72,2.43,20.53,3.52,23.75,6.14,18.16-23.93-21.03-26.39-25.51-7.36-13.42-10.66-27.29-12.31-42.22,8.15,9.6,8.27,8.46,5.28-3.52,5.7-.33,7.8-7.37,14.07-8.8,4.38-.99,8.15.16,12.31,1.76Z" style="fill:#edda9f; stroke-width:0px;"/><path d="m466.27,134.17c-5.96,22.56-9.47,45.49-12.31,68.61-.21,1.72.2,3.55,0,5.28h-15.83c3.93-29.72,11.17-57.53,19.35-86.2,7.84-.46,3.32,9.05,8.8,12.31Z" style="fill:#394c4d; stroke-width:0px;"/><path d="m478.58,871.28c1.88,31.68,3.64,63.3,5.28,95h-1.76c-.1-2.69-1.27-9.9-1.76-17.59-2.47-38.7-7.02-77.21-5.28-116.11.09-.08-.38-1.96,1.76-1.76.87,13.39.96,27.05,1.76,40.46Z" style="fill:#877c80; stroke-width:0px;"/><path d="m460.99,109.54c7.34-23.1,9.17-27.51,19.35-49.26,3.26,16.69-4.15,40.29-19.35,49.26Z" style="fill:#332b39; stroke-width:0px;"/><path d="m304.42,938.13c-6.39,9.03.08,14.65,1.76,22.87.86,4.22.61,11.47,1.76,15.83-18.15,15.98-24.52,4.25-28.15-15.83-3.34-18.46,2.56-14.34,3.52-15.83,6.85-2.88,13.97-5.02,21.11-7.04Z" style="fill:#edda9f; stroke-width:0px;"/><path d="m279.79,964.52c.69,13.07,10.05,38.29,3.52,47.5-4.74-8.9-8.57-17.85-14.07-26.39-3.15-4.89-5.35-11.32-12.31-12.31-4.04-5.86-10.15-9.89-14.07-15.83,8.35,1.93,18.25,6.71,20.23,7.04,11.37,1.85,13.15-6.56,16.71,0Z" style="fill:#edda9f; stroke-width:0px;"/><path d="m98.6,996.18c1.58,1.79,5,3.78,7.04,5.28,0,.59,0,1.17,0,1.76q9.68,13.19,19.35,26.39c-28.79-.13-101.12,1.9-116.11,0L.08,1020.81c-.24-1.7.14-3.55,0-5.28,33.5,21.52,55.28,6.97,84.44-12.31,3.98-2.63,9.09-6.79,14.07-7.04Z" style="fill:#150914; stroke-width:0px;"/><path d="m8.88,1029.61c-2.85-.36-5.91.24-8.8,0-.27-2.86.4-6,0-8.8l8.8,8.8Z" style="fill:#74a09b; stroke-width:0px;"/><path d="m98.6,996.18c-4.98.24-10.1,4.41-14.07,7.04-6.39-14.64-9.37-31.19-15.83-45.74v-1.76c8.92,13.21,19.39,28.57,29.91,40.46Z" style="fill:#5d0932; stroke-width:0px;"/><path d="m1127.73,58.53c41.05,54.4,29.38,133.6,47.5,174.16q2.2,29.91,4.4,59.81c-58.6-31.58-134.31-27.95-189.99,8.8-18.06-17.72-69.39-5.38-65.97,10.56-3.92-1.79-20.29-9.38-21.11-11.43-1.9-4.72,3.43-47.07,27.27-41.34,1.49-.86-1.51-3.91-2.64-7.04l5.28-1.76c2.56,4.86,1.52,7.59,1.76,7.92,1.29,1.81,3.79.36,5.28.88,10.79,3.77,16.05-20.43-9.68-35.18,9.49-12.43,46.32,10.78,96.76-1.76,72.43-18,114.42-103.14,92.36-172.4,2.93,3.17,5.99,5.08,8.8,8.8Z" style="fill:#7a9574; stroke-width:0px;"/><path d="m865.61,252.04c-7.32,17.26,4.81,7.72,11.43,10.56,3.96,1.7,29.45,38.13-.88,51.02-4.54-2.8-15.43-48.14-94.12-24.63-56.39-22.08-97.15-17.74-152.17,1.76,25.09-72.39,21.12-150.09,40.46-223.42,5.14-4.51,8.38-7.76,14.07-12.31-28.21,122.44,62.61,193.67,180.32,163.61-8.48,10.53-24.08,18.54-21.99,34.3,20.64,27.76-7.15-15.03,14.95-18.47,19.58-3.05-.49,13.57,7.92,17.59Z" style="fill:#7a9574; stroke-width:0px;"/><path d="m883.2,252.04c3.77,3.51,6.85,6.59,12.31,7.04.95,15.6-1.2,31.89,0,47.5-4.76.93-14.18,10.22-19.35,7.04,30.33-12.88,4.84-49.32.88-51.02-6.62-2.84-18.76,6.71-11.43-10.56,7.84-18.48,10.39-6.7,17.59,0Z" style="fill:#364046; stroke-width:0px;"/><path d="m920.14,237.97c1.86,2.85,5.89,10.89,7.04,14.07,1.13,3.13,4.13,6.18,2.64,7.04-23.84-5.73-29.16,36.63-27.27,41.34.82,2.05,17.19,9.65,21.11,11.43,1.41,7.67-9.09-3.2-22.87-7.04.43-14.63-.59-29.37,0-43.98q9.68-11.43,19.35-22.87Z" style="fill:#273e3e; stroke-width:0px;"/><path d="m900.79,260.84c-.59,14.61.43,29.35,0,43.98.19,2.19-1.75,1.64-1.76,1.76s-3.43-1.66-1.76,1.76c-1.49.18-1.66-.42-1.76-1.76-1.2-15.61.95-31.9,0-47.5-.37-6.08.77-14.33,0-17.59l5.28-1.76c-.85,4.49.27,14.41,0,21.11Z" style="fill:#94ae8a; stroke-width:0px;"/><path d="m1252.63,679.53q-34.3,100.27-68.61,200.55c-4.68-11.62-9.82-20.77-12.31-33.42-10.14-51.43,4.56-96.52,14.07-146.89-10.37,21.59-41.66,70.78-45.74,90.6-4.75-4.29-2.57-10.88-3.52-15.83,4.57-11.79,6.76-83-.88-86.2-17.71-7.43-10.03,24.36-11.43,58.05-1.8,43.07-2.61,80.16-31.67,116.11-16.34,20.22-71.78,51.56-89.72,54.54,14.75-9.67,8.57-12.85,8.8-14.07,5.44-10.31,12.56-14.92,12.31-28.15,2.11.76,3.25,2.45,5.28,3.52.16.08-.49,3.69.88,3.52,3.38-.42,6.45-17.39,7.92-21.11,5.03-2.87-1.79-2.23-1.76-7.04-.19-2.18,1.73-1.64,1.76-1.76l8.8-.88c-6.71,13.36.02,13.82,1.76-4.4,5.77-10.77,6.42-24.84,7.04-36.94.31-6.15-5.35-5.45-3.52-14.07,9.1-27.9-8.92-49.9,15.83-93.24,13.34-23.35,35.98-34.29,24.63-35.18,49.49-16.3,92.66-2.41,122.26,40.46,12.06-9.88,26.03-17.99,37.82-28.15Z" style="fill:#150914; stroke-width:0px;"/><path d="m1312.44,554.62c-8.18-2.01-35.15.21-47.5-19.35,27.8-42.89,52.02-87.25,64.21-137.22-1.77,52.52-7.89,104.81-16.71,156.57Z" style="fill:#150914; stroke-width:0px;"/><path d="m1315.96,150.01c.09.22,2.83-.67,3.52.88,4.95,12.59,16.79,70.96,14.07,81.8-8.71,34.78-50.16-52.81-52.78-58.05-1.84-3.7-1.63-5.03-1.76-5.28q18.47-9.68,36.94-19.35Z" style="fill:#150914; stroke-width:0px;"/><path d="m1315.96,150.01q-18.47,9.68-36.94,19.35c-3.59-7.05-10.31-19.42-15.83-24.63-.1-.57.11-1.19,0-1.76-1.17-6.27-7.58-22.39-10.56-28.15.21-5.19,21.88-19.96,33.42-28.15,8.69,21.57,21.25,41.8,29.91,63.33Z" style="fill:#450d2c; stroke-width:0px;"/><path d="m1333.55,232.69c5.26-6.06,6.88,22.18-3.52,36.94-12.33-3.07-21.84-22.76-32.55-33.42-2.22.69,6.85,18.79,7.92,45.74,2.32,58.48-10.41-4.21-19.35-24.63,6.58-28-2.71-55.09-5.28-82.68,2.61,5.24,44.07,92.83,52.78,58.05Z" style="fill:#394c4d; stroke-width:0px;"/><path d="m1264.95.47c5.71,11.16,11.47,22.49,17.59,33.42q-9.68-.88-19.35-1.76c-6.92-10.7-16.31-20.59-22.87-31.67,8.21,0,16.42,0,24.63,0Z" style="fill:#46625d; stroke-width:0px;"/><path d="m1282.54,33.9c8.06,14.4,16.03,29.27,26.39,42.22q4.4,9.24,8.8,18.47c.35,12.85,8.48,34.23,8.8,36.06.73,4.29.18,12.4-1.76,9.68-7.53-20.61-20.45-38.58-31.67-57.17-10.06-16.68-19.4-34.78-29.91-51.02q9.68.88,19.35,1.76Z" style="fill:#394c4d; stroke-width:0px;"/><path d="m1337.07,269.63c4.86-7.16,6.51,32.84,5.28,48.38-.22,2.8-7.49,43.44-9.68,43.1-1.74-36.23-13.64-51.03-21.99-79.16-14.08-47.41,20.54,32.99,26.39-12.31Z" style="fill:#394c4d; stroke-width:0px;"/><path d="m1279.02,169.36c.13.25-.08,1.58,1.76,5.28,2.57,27.59,11.86,54.68,5.28,82.68l-3.52,3.52c-3.59-21.46-11.84-44.62-19.35-65.09,3.04-15.61,2.61-35.4,0-51.02,5.52,5.21,12.25,17.58,15.83,24.63Z" style="fill:#332b39; stroke-width:0px;"/><path d="m1330.04,269.63c2,.5,4.84-.32,7.04,0-5.85,45.3-40.47-35.1-26.39,12.31h-5.28c-1.07-26.95-10.13-45.05-7.92-45.74,10.71,10.66,20.21,30.36,32.55,33.42Z" style="fill:#450d2c; stroke-width:0px;"/><path d="m1287.82,327.69c-4.92-18.06-.28-23.04-1.76-38.7,3.69.96,5.03,13.48,5.28,16.71,2.42,31.02,2.41,43.75-3.52,21.99Z" style="fill:#455159; stroke-width:0px;"/><path d="m788.2,702.39c5.05,3.02,12.82,16.26,14.07,21.11,10.23,39.68-21.55,76.46-8.8,109.07-.09.3-2.69-1.27-3.52,1.76-2.06,7.53-2.3,12.36-3.52,19.35h-5.28c-.23-33.94,7.83-51.52-5.28-89.72-.59-1.71-1.6-4.53-3.52-5.28-1.34-8.61-7.37-24.02-10.56-33.42l.88-29.91q12.31,21.11,24.63,42.22c-.24-8.35,1.2-31.2.88-35.18Z" style="fill:#5d0932; stroke-width:0px;"/><path d="m684.41,609.16c5.44.48,11.92,2.77,17.59,3.52,6.9.91,19.64-1.19,23.75,0,7.25,2.11,1.38,15.62,25.51,4.4-5.78,10.86-23.74,29.19-26.39,39.58-.91,3.58-.57,13.15,0,17.59-54.85-26.16-103.5-14.73-138.1,35.18-15.23-8.86-27.98-20.37-41.34-31.67,6.75-5.32,45.98-55.44,47.5-58.93.11-.26-2.13-1.33-1.76-2.64.52.18,1.23-.17,1.76,0,27.42,8.83,53.96,14.8,77.4-7.04,4.63.39,9.45-.41,14.07,0Z" style="fill:#5f8069; stroke-width:0px;"/><path d="m749.5,651.38c3.98,6.33,3.16,10.96,3.52,11.43,3.13,4.13,10.12,5.72,10.56,6.16,6.74,6.77,6.68,5.02,7.04,5.28.76.56,2.5,14.32,12.31,3.52,1.04,7.52,4.72,17.63,5.28,24.63.32,3.98-1.12,26.83-.88,35.18q-12.31-21.11-24.63-42.22l-.88,29.91c-8.69-25.64-7.65-37.91-33.42-51.02-.68-.34-2.8.34-3.52,0-.57-4.44-.91-14.01,0-17.59,3.76,3.25,4.09-.89,10.56-5.28h14.07Z" style="fill:#5f8069; stroke-width:0px;"/><path d="m761.81,725.26c3.19,9.4,9.21,24.82,10.56,33.42.35,2.26-.27,4.75,0,7.04.94,7.8,1.41,15.02,1.76,22.87-14.98-14.76-12.58-54.75-26.39-66.85-13.19-36.34-31.64-29.9-19.35-47.5,25.77,13.11,24.74,25.37,33.42,51.02Z" style="fill:#450d2c; stroke-width:0px;"/><path d="m774.13,788.6c.23,5.24-.02,10.58,0,15.83-4.91-.57-5.01,5.52-5.28,8.8q-4.4-2.64-8.8-5.28c-.19-1.67-1.57-1.85-1.76-3.52-1.23-11.14-2.12-22.29-3.52-33.42-1.09-8.7.79-19.91,0-29.03-1.44-7.17-4.58-13.47-7.04-20.23,13.81,12.1,11.41,52.09,26.39,66.85Z" style="fill:#526b5b; stroke-width:0px;"/><path d="m781.17,853.69c.06,8.93,6.56,15.79-5.28,7.04-.54-.4-3.68,1.02-3.52-1.76,1.46-18.21,1.82-36.27,1.76-54.54-.02-5.26.23-10.59,0-15.83-.35-7.85-.82-15.07-1.76-22.87l3.52-1.76c13.11,38.2,5.05,55.78,5.28,89.72Z" style="fill:#6a7c5c; stroke-width:0px;"/><path d="m545.43,677.77c13.36,11.3,26.12,22.81,41.34,31.67,34.59-49.91,83.25-61.35,138.1-35.18.72.34,2.84-.34,3.52,0-12.29,17.6,6.16,11.16,19.35,47.5,2.45,6.76,5.6,13.06,7.04,20.23.79,9.12-1.09,20.33,0,29.03-8.1,2.74-9.01,37.07,3.52,33.42.19,1.67,1.57,1.84,1.76,3.52,2.2,19.33,1.58,39.59,7.92,58.05,6.95-12.54.78,15.51,14.07,36.94q-3.08-21.11-6.16-42.22c11.84,8.76,5.34,1.89,5.28-7.04h5.28c-1.06,6.11-1.49,9.52-1.76,15.83-.89,20.45-1.18,24.74,3.52,45.74.39,1.73,1.77,2.01,1.76,3.52-83.5-39.44-105.05-72.03-110.83-163.61-.75-11.89,1.35-57.2,0-60.69-1.66-4.29-10.5-6.09-12.31-3.52-2.74,3.88,2.23,69.19,1.76,80.04-.3,6.88-2,14.4-3.52,21.11-14.48-32.98-32.18-64.25-49.26-95.88h-3.52c8.06,34.2,23.24,97.07,22.87,129.3-.07,6.05-1.51,7.81-1.76,10.56-.26,2.86.41,6.01,0,8.8-1.34,9.2-7.49,30.7-10.56,40.46-1.14,3.63-10.3,18.32-12.31,25.51,4.04,5.38,6.7,4.16,7.04,4.4,11.32,8.1,29.86,13.54,42.22,21.11,8.17,5,16.73,10.44,24.63,15.83,9.23,6.3,43.43,34.44,54.54,43.98,12.02,10.33,23.79,22.32,35.18,33.42-62.16-.03-124.32.04-186.48,0-9.08-33.15-23.55-64.78-33.42-97.64-7.44-24.75-36.65-152.76-40.46-160.09-8.3-15.94-18.31,24.69-22.87,8.8-2.41-8.41,1.65-89.6,0-112.59-1.78-24.77-10.61-49.8-12.31-74.77,18.36,37.76,35.15,57.64,66.85,84.44Z" style="fill:#150914; stroke-width:0px;"/><path d="m679.13,755.17l-10.56,15.83c.47-10.85-4.5-76.16-1.76-80.04,1.82-2.57,10.65-.78,12.31,3.52,1.35,3.5-.75,48.8,0,60.69Z" style="fill:#2f1b32; stroke-width:0px;"/><path d="m748.62,807.95c16.25,7.29,7.77,36.17,11.43,51.9.43,1.84,16.06,19.28,7.92,20.23-27.99-31.34-9.63-21.99-9.68-25.51-.03-2.46-15.37-14.49-9.68-46.62Z" style="fill:#332b39; stroke-width:0px;"/><path d="m768.85,813.22c-1.22,14.76.9,30.05,0,44.86l3.52.88c-.17,2.78,2.97,1.36,3.52,1.76q3.08,21.11,6.16,42.22c-13.29-21.43-7.13-49.48-14.07-36.94-6.34-18.47-5.72-38.72-7.92-58.05q4.4,2.64,8.8,5.28Z" style="fill:#484243; stroke-width:0px;"/><path d="m665.06,792.11c-.95,4.21-2.73,8.09-3.52,12.31-21.86-62.26-18.08-25.33-17.59,19.35l-8.8,1.76c.37-32.24-14.81-95.1-22.87-129.3h3.52c17.07,31.63,34.78,62.89,49.26,95.88Z" style="fill:#364046; stroke-width:0px;"/><path d="m694.97,950.44c3.04,1.72,13.61,17.21,18.47,21.11,13.73,11.01,20.69-.56,25.51,24.63-11.11-9.54-45.3-37.68-54.54-43.98,3.46-4.09,6.09-4.29,10.56-1.76Z" style="fill:#c0bf8e; stroke-width:0px;"/><path d="m754.78,771c1.39,11.14,2.28,22.29,3.52,33.42-12.53,3.65-11.62-30.68-3.52-33.42Z" style="fill:#27121d; stroke-width:0px;"/><path d="m784.68,869.52c.27-6.31.7-9.73,1.76-15.83,1.22-6.99,1.46-11.82,3.52-19.35,6.59-.22,4.47,39.6-5.28,35.18Z" style="fill:#8c955f; stroke-width:0px;"/><path d="m768.85.47c-36.78,15.12-55,30.98-84.44,54.54-5.7,4.56-8.93,7.81-14.07,12.31-82.93,72.72-109.62,132.09-117.87,243.65q17.59,12.75,35.18,25.51c-5.19,16.25-20.23,28.3-28.15,43.1-1.11,7.69,1.82,10.86,1.76,11.43-1.8,17.44-.89,33.74-1.76,51.02-1.69,33.73,1.75,63.42-14.07,96.76-17.82,19.2-23.39,23.76-51.02,19.35-6.9-55.41-17.88-111.11-9.68-167.12,9.36,51.85,25.18,95.69,58.05,137.22,7.17-1.15-13.82-75.6-14.95-85.32-3.83-32.74-2.66-68.07-3.52-101.15-.49-18.89-3.79-37.39-3.52-56.29-.46-9.57,2.11-18.8,3.52-28.15,2.59-17.2,7.47-34.35,12.31-51.02,3.83-13.16,7.19-27.83,12.31-40.46,2.44-6.03,14.78-27.45,19.35-35.18,31.61-53.54,80.85-95.64,131.94-130.18,22.87-.01,45.74.01,68.61,0Z" style="fill:#150914; stroke-width:0px;"/><path d="m670.34,67.32c-19.34,73.32-15.37,151.03-40.46,223.42-6.11,2.17-9.69,7.38-12.31,2.64l-.88-23.75q-7.04,7.04-14.07,14.07c-38.46-29.67-.23,6.69-14.95,52.78q-17.59-12.75-35.18-25.51c8.25-111.55,34.94-170.93,117.87-243.65Z" style="fill:#5d0932; stroke-width:0px;"/><path d="m548.95,165.84c-5.12,12.64-8.48,27.3-12.31,40.46-10.87-14.64-18.9,22.61-24.63,49.26-7.5,34.88-9.95,75.91-7.04,15.83,1.47-30.4,6.74-39.6-8.8-21.11-3.53,2.93-3.84-.77-7.04,0,11.12-19.39,51.48-63.64,35.18-77.4.58-1.1,1.18-5.94,1.76-7.04,4.34-8.17,11.06-17.93,15.83-26.39,12.24-1.52-1.54,14.5,7.04,26.39Z" style="fill:#394c4d; stroke-width:0px;"/><path d="m587.65,424.44c-.7,11.79-.23,25.03,0,36.94-33.35,4.83-17.71,39.07-28.15,62.45-3.03,6.78-9.44,9.96-14.07,14.95,15.83-33.34,12.39-63.03,14.07-96.76q14.07-8.8,28.15-17.59Z" style="fill:#5f8069; stroke-width:0px;"/><path d="m589.41,406.85c1.18,6.13-1.41,11.75-1.76,17.59q-14.07,8.8-28.15,17.59c.86-17.28-.04-33.58,1.76-51.02h1.76c6.64,13.48,10.36,30.98,26.39,15.83Z" style="fill:#332b39; stroke-width:0px;"/><path d="m568.3,130.66c-4.57,7.74-16.91,29.15-19.35,35.18-8.58-11.89,5.2-27.9-7.04-26.39,5.84-10.34,8.97-23.44,15.83-33.42,2.54,9.33,7.17,25.45,10.56,24.63Z" style="fill:#333440; stroke-width:0px;"/><path d="m536.64,206.3c-4.85,16.66-9.72,33.82-12.31,51.02-9.48-2.67-5.92,4-12.31-1.76,5.73-26.65,13.76-63.9,24.63-49.26Z" style="fill:#333440; stroke-width:0px;"/><path d="m524.32,341.76c-15.4-6.15-6.66-40.14-3.52-56.29-.27,18.91,3.03,37.41,3.52,56.29Z" style="fill:#364046; stroke-width:0px;"/><path d="m1222.72,334.72c-9.58-23.26-7.98-37.73-5.28-62.45-9.19,15.38-38.39-31-42.22-39.58-18.12-40.56-6.45-119.76-47.5-174.16,80.65,52.88,116,151.29,124.9,243.65q-14.95,16.27-29.91,32.55Z" style="fill:#5d0932; stroke-width:0px;"/><path d="m1219.21,69.08c6.13,7.56,30.11,39.33,33.42,45.74,2.98,5.76,9.38,21.88,10.56,28.15q-21.99-19.35-43.98-38.7c-2.66-3.91-22.49-27.07-28.15-33.42q6.16-7.92,12.31-15.83c3.63,4.09,12.81,10.35,15.83,14.07Z" style="fill:#332b39; stroke-width:0px;"/><path d="m1263.19,142.97c.11.57-.1,1.19,0,1.76,2.61,15.62,3.04,35.41,0,51.02-9.16-24.97-29.49-70.14-43.98-91.48q21.99,19.35,43.98,38.7Z" style="fill:#364046; stroke-width:0px;"/><path d="m1247.35,405.09c-5.12,5.06-5.13,13.11-7.04,19.35-13.82,2.36-13.61-19.61-14.07-21.11,5.92-3.38,9.43-9.45,14.07-14.07,1.84-1.83,4.83-3.77,7.04-5.28.62,6.93-.49,14.15,0,21.11Z" style="fill:#2f1b32; stroke-width:0px;"/><path d="m1495.4,975.07c-.48,1.79-13.6,30.34-14.07,34.3-2.87,23.94,13.42-10.53,33.42-34.3,4.61,0,9.51-.42,14.07,0,11,1.02,8.33,3.44,8.8,3.52-55.05,55.95-5.82,9.13-2.64,10.56,3.21,1.43-2.16,7.46-.88,9.68,2.13,3.7,65.91-47.01,63.33-51.9,14.02-8.74,28.13-17.83,42.22-26.39,11.05-6.71,23.32-11.56,32.55-21.11,3.73-.85,1.33,3.74.88,4.4-2.99,4.41-69.5,63.27-79.16,71.25-5.82,4.8-11.66,9.41-17.59,14.07-.63.49.05-5.89-13.19,5.28q-17.15,17.59-34.3,35.18c-39.87.07-79.75-.05-119.63,0,.92-13.21,6.79-47.52-10.56-35.18-5.35-42.9-5.08-15.57-8.8-.88-2.22,8.76-9.39,25.83-14.07,34.3-29.54-27.41-30.64-32.1-47.5,1.76-4.1,0-8.21,0-12.31,0,.37-13.3,10.31-32.99,10.56-35.18,12.1,11.72,1.41,2.13,12.31,2.64-2.37-5.62-10.47-13.2-10.56-14.07-.39-3.9,21.12-32.98-3.52-11.43-.93-8.32-7.12-30.1-10.56-38.7,4.88-3.73.06-6.69,0-7.04-6.96-37.39-9.5-72.16,8.8-11.43,10.21,9.89,16.73,16.97,15.83,8.8-.82-7.52-22.86-38.73,15.83,3.52,11.71,12.78,36.13,54.59,15.83,8.8,5-9.03,64.47,45.9,73.89,46.62-5.92,4.94-17.36,28.8-15.83,30.79q14.51,5.72,29.03,11.43c6.06-9.22,30.41-38.45,27.27-48.38-2.66-8.4-29.7-.29-35.18,2.64,9.58-16.88,36.74-5.76,38.7-7.92,17.21-80.26-1.76-45.97-6.16-46.62-1.88-.28-8.58-12.51-10.56-12.31-3.89.39-5.41,39.84-20.23,14.95-11.45-19.22,12.65-54.34,20.23-25.51,2.71-14.61,10.72-39.19,25.51-18.47,14.68,20.56,4.48,68.96-1.76,92.36Z" style="fill:#450d2c; stroke-width:0px;"/><path d="m1576.32,989.14c3.88,5.74,20.95,15.86,26.39,17.59q-6.16,11.43-12.31,22.87c-20.52.05-41.05-.04-61.57,0q17.15-17.59,34.3-35.18c13.24-11.17,12.56-4.78,13.19-5.28Z" style="fill:#150914; stroke-width:0px;"/><path d="m1644.93,1029.61c-18.18.07-36.36-.04-54.54,0q6.16-11.43,12.31-22.87c2.39.76,7.65,1.25,10.56,1.76,36,6.27,66.92-9.98,57.17,1.76-3.96,4.77-20.09,13.9-25.51,19.35Z" style="fill:#2f0b1d; stroke-width:0px;"/><path d="m1375.78,1027.85v1.76c-15.83.02-31.67-.01-47.5,0,16.86-33.86,17.96-29.17,47.5-1.76Z" style="fill:#150914; stroke-width:0px;"/><path d="m1398.64,994.42c1.79,14.32,1.34,21.75-5.28,35.18-5.86,0-11.73,0-17.59,0v-1.76c4.68-8.47,11.86-25.54,14.07-34.3,3.71-14.69,3.44-42.02,8.8.88Z" style="fill:#7a9574; stroke-width:0px;"/><path d="m1409.2,1029.61c-5.28,0-10.56,0-15.83,0,6.62-13.44,7.06-20.87,5.28-35.18,17.35-12.34,11.47,21.98,10.56,35.18Z" style="fill:#2f0b1d; stroke-width:0px;"/><path d="m1444.38,982.11c.52-.44,4.78-3.25,5.28-3.52,5.49-2.93,32.53-11.04,35.18-2.64,3.14,9.93-21.21,39.16-27.27,48.38q-14.51-5.72-29.03-11.43c-1.53-1.99,9.91-25.85,15.83-30.79Z" style="fill:#edda9f; stroke-width:0px;"/><path d="m1514.75,975.07c-20.01,23.77-36.29,58.25-33.42,34.3.48-3.97,13.6-32.51,14.07-34.3,6.44.19,12.91,0,19.35,0Z" style="fill:#2f0b1d; stroke-width:0px;"/><path d="m1592.16,950.44c-9.36,5.84-34.66,27.24-43.1,29.91-6.14,3.62-8.3-1.25-11.43-1.76-.47-.08,2.2-2.5-8.8-3.52-1.48-2,9.92-6.83,10.56-7.04,17.66-5.74,35.65-10.11,52.78-17.59Z" style="fill:#edda9f; stroke-width:0px;"/><path d="m1616.79,973.31c-19.14,11.28-7.5,16.35-7.04,17.59,2.22,5.93,8.27,11.13,3.52,17.59-2.9-.51-8.17-1-10.56-1.76-5.44-1.73-22.51-11.86-26.39-17.59,5.93-4.66,11.77-9.27,17.59-14.07q11.43-.88,22.87-1.76Z" style="fill:#585d6e; stroke-width:0px;"/><path d="m1609.75,990.9c-.47-1.24-12.11-6.31,7.04-17.59,1.58-.93,14.78-6.66,15.83-4.4q-11.43,10.99-22.87,21.99Z" style="fill:#450d2c; stroke-width:0px;"/><path d="m1537.62,978.59c3.14.51,5.3,5.37,11.43,1.76,8.45-2.67,33.74-24.07,43.1-29.91,1.84-1.15,3.44-2.37,5.28-3.52,2.58,4.88-61.2,55.59-63.33,51.9-1.28-2.21,4.09-8.24.88-9.68-3.18-1.42-52.42,45.39,2.64-10.56Z" style="fill:#333440; stroke-width:0px;"/><path d="m1326.52,994.42c.26-2.37-1.22-18.08-1.76-22.87,24.64-21.55,3.12,7.54,3.52,11.43.09.88,8.18,8.45,10.56,14.07-10.9-.51-.21,9.09-12.31-2.64Z" style="fill:#edda9f; stroke-width:0px;"/><path d="m283.31,1012.01c3.03,5.68,7.8,10.86,8.8,17.59-4.69,0-9.38,0-14.07,0l-8.8-43.98c5.5,8.54,9.34,17.49,14.07,26.39Z" style="fill:#2f0b1d; stroke-width:0px;"/><path d="m242.85,957.48c3.93,5.94,10.03,9.97,14.07,15.83,11.68,16.92,16.31,35.74,14.07,56.29-29.32-.06-58.64.08-87.96,0-4.73-14.84-19.95-9.47-19.35-33.42.67-26.78,31.8-50.59,64.21-45.74,3.98.6,10.12,5.92,14.95,7.04Z" style="fill:#5d0932; stroke-width:0px;"/><path d="m269.24,985.63l8.8,43.98c-2.35,0-4.69,0-7.04,0,2.24-20.55-2.39-39.37-14.07-56.29,6.96.99,9.17,7.43,12.31,12.31Z" style="fill:#8e817b; stroke-width:0px;"/><path d="m213.82,983.87c15.73,4.45,36.86,6.93,44.86,23.75,18.99,39.89-56.8-17.52-44.86-23.75Z" style="fill:#edda9f; stroke-width:0px;"/><path d="m210.31,1017.29c6.12.8,16.64-1.12,21.11,0,12.09,3.03,12.42,17.38-21.11,0Z" style="fill:#769588; stroke-width:0px;"/><path d="m946.53,922.29c1.94,6.2,9.33,9.53,14.07,3.52-.05,1.76.03,3.52,0,5.28-2.49,2.43-12.14,10.33-12.31,11.43-.04.28,2.42,1.91,3.52,4.4q-7.04-1.76-14.07-3.52c.61-1.41.11-11.95,1.76-15.83.26-.36-1.45-4.37,7.04-5.28Z" style="fill:#2f0b1d; stroke-width:0px;"/><path d="m411.73,897.67c3,11.97,2.87,13.12-5.28,3.52-.67-6.09-.83-7.73,0-14.07,1.38,1.95,5.13,9.98,5.28,10.56Z" style="fill:#6f4f54; stroke-width:0px;"/><path d="m117.95,996.18c.15.65,4.11,9.63,5.28,12.31l-17.59-5.28c0-.59,0-1.17,0-1.76,0-.18,3.08.65,3.52-.88,1.77-6.23-8.67-10.05,8.8-4.4Z" style="fill:#a9a46b; stroke-width:0px;"/><path d="m480.34,948.68c.49,7.69,1.66,14.9,1.76,17.59.51,14,1.23,27.08-3.52,24.63-4.17-12.02-11.64-20.24-19.35-29.91,4.13-5.97,13.86-11.97,21.11-12.31Z" style="fill:#150914; stroke-width:0px;"/><path d="m376.55,987.38q-12.31,6.16-24.63,12.31c-3.36-12.01-8.51-23.4-12.31-35.18,2.03-6.92,19.02-38.55,18.47-24.63,3.75-22.14,11.58,27.49,18.47,47.5Z" style="fill:#edda9f; stroke-width:0px;"/><path d="m329.05,950.44c.22.11.7,3.17,3.52,3.52,3.22,11.5,6.84,9.95,7.04,10.56,3.8,11.79,8.95,23.18,12.31,35.18,2.71,9.68,4.19,20.19,7.04,29.91-10.56-.01-21.11.01-31.67,0-6.43-17.28-14.67-34.95-19.35-52.78-1.15-4.37-.9-11.61-1.76-15.83,7.01-6.93,12.73-15.5,22.87-10.56Z" style="fill:#450d2c; stroke-width:0px;"/><path d="m332.57,953.96c-2.82-.35-3.29-3.41-3.52-3.52l1.76-1.76c.05.27.53.9,1.76,5.28Z" style="fill:#735e6a; stroke-width:0px;"/><path d="m504.97,271.39c-2.96.86-3.92-2.05-5.28-1.76-2.69.58-11.21,17.34-21.99,14.07-1.38-.42-9.58-13.23-9.68-14.07-.89-7.53-.84-9.92,7.04-8.8,6.86,20.72,14.7-2.93,21.11-10.56,15.54-18.49,10.27-9.29,8.8,21.11Z" style="fill:#2f1b32; stroke-width:0px;"/><path d="m459.23,202.78h-5.28c2.84-23.11,6.35-46.05,12.31-68.61.89-3.38,12.21-43.87,12.31-21.99.08,15.45-18.2,73.51-19.35,90.6Z" style="fill:#332b39; stroke-width:0px;"/><path d="m483.86,294.26c12.28-5.78-13.65,42.67-16.71,40.46-2.18-15.14-.1-30.57-.88-45.74,8.37,5.16,8.03,8.41,17.59,5.28Z" style="fill:#332b39; stroke-width:0px;"/><path d="m468.03,269.63c.1.85,8.3,13.66,9.68,14.07,10.78,3.27,19.3-13.49,21.99-14.07-3.98,9-5.29,21.18-15.83,24.63-9.56,3.13-9.22-.11-17.59-5.28-.34-6.63-1.3-12.86-1.76-19.35h3.52Z" style="fill:#394c4d; stroke-width:0px;"/><path d="m656.26.47c-25.85,22.64-53.95,45.33-75.65,72.13q-24.63-16.71-49.26-33.42c9.1-13.26,17.75-26.38,28.15-38.7,32.25-.02,64.5.02,96.76,0Z" style="fill:#5d0932; stroke-width:0px;"/><path d="m580.62,72.6c-8.35,10.31-14.91,22.77-22.87,33.42-6.86,9.98-9.99,23.08-15.83,33.42-4.78,8.46-11.49,18.22-15.83,26.39-14.78-7.21-29.17-15.49-45.74-17.59,4.55-21.27,13.98-40.25,22.87-59.81,11.07-24.36,13.25-27.55,28.15-49.26q24.63,16.71,49.26,33.42Z" style="fill:#450d2c; stroke-width:0px;"/><path d="m526.08,165.84c-.58,1.1-1.18,5.94-1.76,7.04-11.98,22.56-24.89,47.42-40.46,66.85-2.76-11.34-7.83-25.33-8.8-35.18-1.89-19.24,1.28-37.62,5.28-56.29,16.57,2.1,30.96,10.38,45.74,17.59Z" style="fill:#150914; stroke-width:0px;"/><path d="m483.86,239.73c.41,1.7,2.24,4.72,3.52,6.16-5.56,13.48-1.39,5.16,1.76,4.4,3.19-.77,3.5,2.93,7.04,0-6.41,7.62-14.25,31.28-21.11,10.56-.89-2.69-6-51.74,0-56.29.97,9.85,6.03,23.84,8.8,35.18Z" style="fill:#364046; stroke-width:0px;"/><path d="m920.14,237.97q-9.68,11.43-19.35,22.87c.27-6.7-.85-16.62,0-21.11,3.41-17.9,12.07-12.91,19.35-1.76Z" style="fill:#5f8069; stroke-width:0px;"/><path d="m1052.08.47c24.28,14.77,47.31,28.14,66.85,49.26,22.07,69.26-19.93,154.4-92.36,172.4-50.44,12.54-87.26-10.67-96.76,1.76,25.72,14.75,20.46,38.95,9.68,35.18,9.6-15.8,4.25-21.13-13.19-24.63-.75.4,5.46,14.5,6.16,15.83l-5.28,1.76c-1.15-3.18-5.17-11.22-7.04-14.07-7.28-11.15-15.94-16.14-19.35,1.76l-5.28,1.76c-3.43-14.52-24.45-24.9-12.31,10.56-7.2-6.7-9.75-18.48-17.59,0-8.41-4.02,11.66-20.64-7.92-17.59-22.11,3.44,5.69,46.23-14.95,18.47-2.09-15.77,13.51-23.78,21.99-34.3-117.7,30.06-208.53-41.16-180.32-163.61,29.44-23.55,47.66-39.41,84.44-54.54,94.41-.04,188.82-.04,283.23,0Z" style="fill:#edda9f; stroke-width:0px;"/><path d="m871.76,176.39c13.35-4.24,26.04,9.18,21.11,22.87-10.46-2.79-4.56-8.8-6.16-11.43-11.32-18.73-17.95,6.92-15.83,14.07,2.27,7.65,14.49,3.31,25.51,18.47,8.02-11.06,23.92-12.47,25.51-18.47,1.63-6.18-7.06-23.26-12.31-17.59-10.05,35.82-14.53-8.05,2.64-7.92,14.37.11,25.99,25.12-15.83,54.54-14.85-9.95-49.14-46.75-24.63-54.54Z" style="fill:#38734e; stroke-width:0px;"/><path d="m911.35,55.01v-1.76c2.42-.3,33.94-10.39,38.7,16.71,6.26,35.66-43.6,32.23-38.7,61.57.56,3.33,7.38,8.35,7.04,8.8-1.46,1.89-15.44,7.06-12.31-14.07,3.78-25.57,52.93-27.73,38.7-61.57-6.05-14.39-22.14-12.02-33.42-9.68Z" style="fill:#4b693b; stroke-width:0px;"/><path d="m911.35,53.25v1.76c-2.87.6-13.01,7.1-16.71,7.04-2.37-.04-33.14-18.43-39.58,7.92-3.52,14.39,2.83,19.55,10.56,29.03-33.1-22.74-2.14-62.12,25.51-42.22,11.26,1.68,15.68-2.95,20.23-3.52Z" style="fill:#2f552d; stroke-width:0px;"/><path d="m895.51,241.48c.77,3.26-.37,11.51,0,17.59-5.47-.44-8.55-3.53-12.31-7.04-12.14-35.46,8.89-25.07,12.31-10.56Z" style="fill:#5f8069; stroke-width:0px;"/><path d="m939.49,259.08c-1.49-.52-3.99.93-5.28-.88-.24-.33.8-3.06-1.76-7.92-.7-1.33-6.91-15.43-6.16-15.83,17.45,3.5,22.79,8.83,13.19,24.63Z" style="fill:#46625d; stroke-width:0px;"/><path d="m865.61,98.99c36.26,24.9,30.57,47.56,10.56,39.58,22.43-17.24-1.33-28.27-10.56-39.58Z" style="fill:#2f552d; stroke-width:0px;"/><path d="m833.06,192.23c-5.93,37.43,20.86-21.54,11.43,14.95-6.77,11.73-32.62,4.14-11.43-14.95Z" style="fill:#4f7e4b; stroke-width:0px;"/><path d="m951.81,193.99c-2.3,3.74,2.56,17.54,17.59,7.04.3-.21,2.07.12,3.52,0-.99,17.92-41.69,13.49-21.11-7.04Z" style="fill:#38734e; stroke-width:0px;"/><path d="m919.26,146.49c13.46-1.92,23.3,9.62,1.76,1.76-8.34,4.28-15.85,10.05-19.35,19.35-3.03-8.69,10.59-20.11,17.59-21.11Z" style="fill:#728453; stroke-width:0px;"/><path d="m859.45,139.45q10.56,4.4,21.11,8.8c17.93,20.82-.31,1.66-8.8-1.76-2.1-.85-5.64,11.69-12.31-7.04Z" style="fill:#8c955f; stroke-width:0px;"/><path d="m928.06,172.88c5.61-1.62,11.6,26.4-1.76,33.42,6.7-14.5,8.44-17.64,1.76-33.42Z" style="fill:#8c955f; stroke-width:0px;"/><path d="m972.92,201.02c-1.45.12-3.22-.21-3.52,0,2.53-9.24-15.12-11.06-17.59-7.04,10.74-10.71,21.49.21,21.11,7.04Z" style="fill:#a9a46b; stroke-width:0px;"/><path d="m969.4,201.02c-15.03,10.5-19.9-3.29-17.59-7.04,2.47-4.02,20.12-2.21,17.59,7.04Z" style="fill:#edda9f; stroke-width:0px;"/><path d="m1067.92,702.39c-24.75,43.34-6.73,65.34-15.83,93.24h-3.52c-1.33-45.79,8.71-56.35-5.28-31.67-4.07,7.19-9.06,13.95-13.19,21.11-3.73.09-2.88-18.33-2.64-21.11.16-1.81,5.59-21.84,7.04-26.39,3.56-11.15,14.05-32.43,21.11-42.22l12.31,7.04Z" style="fill:#450d2c; stroke-width:0px;"/><path d="m1092.54,667.21c11.35.9-11.29,11.83-24.63,35.18l-12.31-7.04c10.86-15.04,18.85-22.19,36.94-28.15Z" style="fill:#2f0b1d; stroke-width:0px;"/><path d="m899.03,521.2c-4.27,15.19-30.35-.37-58.05,64.21-56.21,131.04,61.86,180.21,62.45,57.17-8.83,96.28,69.62,86.01,73.01,16.71,2.04-41.77-19.2-77.13-40.46-110.83-1.13-1.79,2.88-3.48,1.76-5.28-6.96-11.2-33.06-8.46-36.94-21.99-.67-2.32-.9-46.13,0-48.38,3.05-7.59,23.51.05,19.35-12.31-1.75-5.2-9.95,2.5-14.95.88-5.2-1.68-10.04-57.09,3.52-56.29,6.78.4,7.17,14.23,14.95,5.28,9.48,13.19,16.54,48.1,14.07,53.66-2.69,6.04-14.97-1.59-17.59,7.04,6.48,67.5,2.37-3.01,12.31,21.11,2.18,5.28,4.77,43.34,7.04,56.29,17.93,20.09,25.29,45.95,36.94,69.49.62,1.26,6.46,8.2,12.31,21.99-.12-9.5-10.18-25.85-10.56-27.27-3.72-14.18-6.45-31.45,1.76-21.11,4.44,5.59,13.2,24.65,14.07,31.67,3.15,25.15-8.88,47.56-8.8,50.14.34,10.61,7.5-19.84,10.56-10.56-1.48,65.24-15.69,55.45-19.35,65.09-6.31,16.61,4.62,43.42,10.56,59.81v-52.78c14.91-12.3,19.62-33.26,21.11-51.9l3.52-1.76c1.73,2.08,3.02,5.55,5.28,7.04-1.97,5.68-3.46,13.3-5.28,19.35-6.94,23.05-14.89,28.3-12.31,78.28,3.35,64.98,6.37,8.45,15.83-19.35-1.75,13.2,3.35,26.68,3.52,39.58.28,21.17-4.23,13.37-7.92-3.52-3.49,34.2-26.92,33.17-22.87-3.52-2.64-.01,3.4,21.69-11.43,29.91l-9.68-95c-10.79,36.28,9.38,63.82,4.4,95-.22.03-1.53,4.68-3.52,2.64-11.56-17.08-9.83-21.55-10.56-23.75-7.25-21.95-7.25-19.57-1.76,1.76-.66,8.36-12.15,16.8-18.47,24.63-19.68-34.24-28.25-14.88-29.03-16.71-.24-6.83-1.33-13.39-1.76-20.23h5.28c9.01,25.24,28.24-5.92-7.04-44.86q-1.32-32.98-2.64-65.97c-4.73,33.01,2.67,119.46.88,136.34-.06.53-2.58,8.6-4.4,9.68-2.63-6.09-9.47-13.39-11.43-19.35-.22-.67-1.36-11.42-1.76-14.07-1.02-6.73-1.26-13.74-3.52-20.23,20.45-57.57-4.03-13.06-5.28-3.52-.79,6.03,2.09,28.44,8.8,25.51v12.31c-14.82-2.07-19.55,14.5-24.63,25.51-19.68-16.26-8.49-41.92-11.43-64.21-6.02,38.01,4.56,35.77-24.63,58.05-4.07-3.1,2.1-20.31,2.64-24.63,5.93-47.7,8.64-51.73-13.19-102.03,3.89,14.06-1.38,45.34.88,50.14,1.97,4.19,7.65,1.63,8.8,3.52,1.26,2.08,3.17,34.64,0,48.38-2.8,12.12-7.29,20.41-21.11,17.59-1.15-38.69-4.64-6.59-8.8,7.04-12.76-32.61,19.02-69.39,8.8-109.07l3.52-1.76c9.18,14.52,6.77-18.41,0-29.03,6.1-17.47,0-26.69,0-28.15-.07-11.56,3.4-22.88,3.52-34.3,5.24.2,5.66-7.56,7.04-10.56,3.57-7.76,11.62-30.57,14.07-9.68,9.78-45.84,40.36-58.52,35.18-114.35,4.53-4.73,14.08-36.37,7.92-36.06-.62.03-4.12,9.26-8.8,8.8-16.29-1.62,2.61-45.56,4.4-54.54,18.54-.38,8.55-7.5,11.43-8.8,23.76-10.68,15.45,38.92,16.71,50.14-3.4,12.54-40.39,8.48,1.76,17.59v48.38Z" style="fill:#edda9f; stroke-width:0px;"/><path d="m1213.93,570.45c-4.96,6.31-26.12,22.25-33.42,24.63-1.93.63-6.78-.08-9.68,3.52-10.72-9.99-24.21-1.45-36.94-1.76-72.33-1.77-98.44-22.77-103.79-22.87-22.64-.41-25.36,29.32-11.43,42.22-20-16.95-29.86-28.32-5.28-51.9-1.19-2.49-7.97,2.13-17.59-4.4-4.67-3.17-15.9-22.07-17.59-28.15-1.27-4.55-1.07-9.53-1.76-14.07-1.87-12.27-1.09-23.19-1.76-35.18l1.76-1.76c.98,2.08,2.83,5.28,3.52,7.04,8.38,21.43,12.65,41.86,37.82,63.33,16.85,14.37,54.79,30.5,76.53,29.91,2.4-.07,4.32-4.86,7.04-5.28,10.35,9.21,1.75-3.71,1.76-4.4.43-23.13,13.12,8.52,15.83,0,.91-11.69-2.17-27.54-10.56-36.06l3.52-3.52c19.79,26.09,5.92,44.37,10.56,47.5h1.76c-.21,7.8,31.55,1.65,44.86-3.52,14.36-5.58,27.53-17.33,36.06-29.91,18.1-26.69,18.25-56.43,17.59-87.96,19.15,28.53,11.62,86.64-8.8,112.59Z" style="fill:#edda9f; stroke-width:0px;"/><path d="m1034.49,737.58c-1.45,4.54-6.88,24.58-7.04,26.39-6.9,9.03-3.04,33.65-1.76,47.5-7.9,2.6.92-4.32-7.04-5.28-.17-12.9-5.27-26.38-3.52-39.58-9.46,27.8-12.48,84.33-15.83,19.35-2.58-49.98,5.38-55.23,12.31-78.28q2.2,13.19,4.4,26.39c20.67-38.37,29.97-53.64,18.47,3.52Z" style="fill:#5d0932; stroke-width:0px;"/><path d="m1222.72,391.02c-4.6,5.69,3.31,11.63,3.52,12.31.46,1.5.25,23.47,14.07,21.11-4.39,14.34,1.27,24.08-17.59,10.56-1.06-10.64-4.78-29.52-10.56-38.7,3.23-2.13,7.23-3.52,10.56-5.28Z" style="fill:#333440; stroke-width:0px;"/><path d="m1256.15,500.09c2.21,11.89,1.97,24.37,8.8,35.18,12.35,19.57,39.32,17.35,47.5,19.35,14.86,3.64,5.05,3.83,5.28,5.28-35.74,18.15-61.31,49.37-87.96,78.28,28.72-26.72,59.87-48.37,91.48-71.25,8.13-5.89,12.64-14.42,15.83-11.43-27.57,49.65-39.35,85.19-84.44,124.02-11.79,10.16-25.77,18.26-37.82,28.15-29.61-42.87-72.77-56.77-122.26-40.46-18.09,5.96-26.09,13.1-36.94,28.15-7.06,9.79-17.55,31.07-21.11,42.22,11.5-57.16,2.2-41.89-18.47-3.52q-2.2-13.19-4.4-26.39c1.82-6.05,3.31-13.67,5.28-19.35,2.92-8.43,6.81-20.29,10.56-28.15.21-.44-.37-1.94,1.76-1.76,34.02,26.47,22.07-8.54,27.27-12.31q8.36,4.84,16.71,9.68c6.12-27.51-44.04-33.62,14.07-40.46-33.83-33.87-11.1-7.26,27.27-14.95,6.97,6.45,22.62,5.43,32.55,5.28,1.86,8.3,8.34,10.04,8.8,10.56,1.38,1.55,1.86,2.15,3.52,3.52,1.95,1.6,1.24,5.2,2.64,7.04,7.11,2.89,59.62-18.88,71.25-43.98,6.56-14.15,9.41-15.26-19.35-12.31,20.42-25.95,27.95-84.06,8.8-112.59-.15-7.36.7-15.82,0-22.87,18.86,13.53,13.2,3.79,17.59-10.56,1.91-6.24,1.92-14.29,7.04-19.35,2.35,33.17,2.57,61.49,8.8,95Z" style="fill:#5f8069; stroke-width:0px;"/><path d="m1321.24,566.94c-31.61,22.88-62.75,44.53-91.48,71.25,26.65-28.91,52.22-60.13,87.96-78.28.65,4.09,1.82,3.96,3.52,7.04Z" style="fill:#332b39; stroke-width:0px;"/><path d="m1278.14,563.42l2.64,2.64c-2.87,5.29-63.06,59.53-65.09,52.78q31.23-27.71,62.45-55.41Z" style="fill:#36242d; stroke-width:0px;"/><path d="m1233.28,582.77c-19.73,20.65-46.06,31.89-73.89,36.94-1.66-1.37-2.14-1.97-3.52-3.52,6.35-7.73,15.55-8.78,22.87-15.83,2.78-2.68,7.75-5.97,1.76-5.28,7.31-2.38,28.46-18.32,33.42-24.63,28.76-2.95,25.91-1.84,19.35,12.31Z" style="fill:#5d0932; stroke-width:0px;"/><path d="m1159.39,619.71c27.83-5.05,54.16-16.3,73.89-36.94-11.63,25.1-64.14,46.87-71.25,43.98-1.4-1.84-.69-5.43-2.64-7.04Z" style="fill:#edda9f; stroke-width:0px;"/><path d="m1178.74,600.36c-7.32,7.05-16.52,8.1-22.87,15.83-.46-.51-6.93-2.25-8.8-10.56,12.75-.19,19.24-.37,31.67-5.28Z" style="fill:#c0bf8e; stroke-width:0px;"/><path d="m1180.5,595.08c5.99-.7,1.02,2.6-1.76,5.28-12.43,4.91-18.91,5.09-31.67,5.28-9.92.15-25.57,1.18-32.55-5.28-38.36,7.7-61.09-18.91-27.27,14.95-58.11,6.84-7.95,12.95-14.07,40.46q-8.36-4.84-16.71-9.68c-5.2,3.78,6.75,38.78-27.27,12.31-9.8-7.63-10.15-13.57-17.59-20.23l15.83,21.99c-3.75,7.85-7.64,19.72-10.56,28.15-2.25-1.49-3.54-4.96-5.28-7.04-1.18-1.41-2.15-5.52-2.64-5.28-1.64,1.3-.65,4.2-.88,7.04-1.49,18.64-6.2,39.6-21.11,51.9v52.78c-5.94-16.4-16.86-43.21-10.56-59.81,3.66-9.64,17.88.15,19.35-65.09-3.05-9.29-10.22,21.17-10.56,10.56-.08-2.58,11.95-24.98,8.8-50.14,10.12,3.63,17.76,13.4,29.03,12.31,22.16-2.13,2.73-13.31-4.4-19.35-13.92-12.9-11.21-42.63,11.43-42.22,5.36.1,31.47,21.1,103.79,22.87,12.73.31,26.22-8.23,36.94,1.76,2.89-3.59,7.75-2.89,9.68-3.52Z" style="fill:#5d0932; stroke-width:0px;"/><path d="m1029.21,658.41c-2.13-.18-1.55,1.32-1.76,1.76l-15.83-21.99c7.44,6.66,7.79,12.6,17.59,20.23Z" style="fill:#84576a; stroke-width:0px;"/><path d="m777.65,582.77c7.1,2.33,14.75,5.14,15.83,14.07,1.75,14.43-19.87,33.41-26.39,46.62,43.72-16.86,42.47-36.97,42.22-13.19-.12,11.42-3.59,22.74-3.52,34.3,0,1.45,6.1,10.68,0,28.15,6.77,10.62,9.18,43.55,0,29.03-18.78-29.71-7.8-67.98-22.87-43.98-9.81,10.8-11.55-2.96-12.31-3.52q3.96-11.43,7.92-22.87-7.48,8.8-14.95,17.59c-.43-.43-7.42-2.02-10.56-6.16-.36-.48.46-5.1-3.52-11.43-7.97-12.69-6.09-5.42-14.07,0-6.47,4.39-6.8,8.53-10.56,5.28,2.65-10.39,20.6-28.72,26.39-39.58-24.13,11.22-18.26-2.29-25.51-4.4-4.11-1.19-16.85.91-23.75,0,11.22-3.72,24.39-5.18,31.67-15.83.16-.23,2.56.67,1.76-5.28,17.8-5.68,20.58-15.89,42.22-8.8Z" style="fill:#450d2c; stroke-width:0px;"/><path d="m642.19,542.31c-2.39,8.39,14.68,26.55,21.11,42.22-9.31-2.18-43.7-14.51-50.14-19.35-11.88-8.94-15-21.42-18.47-35.18,33.84-24.11,40.74,3.51,47.5,12.31Z" style="fill:#450d2c; stroke-width:0px;"/><path d="m800.52,566.94c-.4,13.63,13.22,26.94-7.04,29.91-1.09-8.94-8.73-11.75-15.83-14.07,10.51-5.99,11.23-16.98,15.83-22.87,3.35,1.24,5.01,4.45,7.04,7.04Z" style="fill:#ccae6e; stroke-width:0px;"/><path d="m587.65,461.38c.44,22.89,1.44,46.41,7.04,68.61,3.47,13.76,6.59,26.24,18.47,35.18,6.43,4.84,40.83,17.17,50.14,19.35,8.8,2.06,5.88,2.72,15.83,1.76,6.47-.63,11.97.94,17.59-5.28,12.85,3.63-2.35,9.89,10.56,5.28,13.73-4.91,26.68-10.52,41.34-12.31,39.33-16.07,65.96-52.5,73.01-93.24,7.94-.35-1.47,22.42,0,35.18-1.76,3.64-6.18,14.3-3.52,17.59-4.41,9.39-5.22,19.94-10.56,29.03-6.12,7.07-13.97-12.13-14.07-2.64-4.6,5.89-5.32,16.88-15.83,22.87-21.64-7.09-24.42,3.12-42.22,8.8-10.45,3.33-19.14,9.2-30.79,10.56-57.21,6.65-99.12-19.1-64.21,7.92-1.89,2.37-3.04-.79-7.04-.88-33.89-20.3-55.57-47.2-57.17-87.96-10.07,45.49,2.96,70.13,44.86,87.96,5.08,2.16,28.41,12.18,31.67,7.92-20.36-15.97-13.86-10.59,17.59-7.92-23.44,21.84-49.99,15.87-77.4,7.04-20.57-9.52-34.66-26.42-51.9-40.46,9.66,20.39,29.45,33.33,50.14,40.46-.37,1.31,1.87,2.38,1.76,2.64-1.51,3.5-40.75,53.62-47.5,58.93-31.7-26.8-48.49-46.68-66.85-84.44-7.34-15.1-11.71-34.55-21.11-49.26,7.65-1.74,13.94,10.4,36.94,14.07,27.63,4.41,33.2-.16,51.02-19.35,4.63-4.99,11.05-8.18,14.07-14.95,10.44-23.38-5.21-57.62,28.15-62.45Z" style="fill:#edda9f; stroke-width:0px;"/><path d="m633.39,609.16c-4.12-.09-8.63-1.38-12.31,0-41.89-17.83-54.93-42.47-44.86-87.96,1.6,40.76,23.29,67.66,57.17,87.96Z" style="fill:#5d0932; stroke-width:0px;"/><path d="m733.67,596.84c-20.14,8.04-26.37,11.17-49.26,12.31-4.63-.41-9.44.39-14.07,0-31.45-2.67-37.95-8.05-17.59,7.92-3.26,4.26-26.58-5.75-31.67-7.92,3.69-1.38,8.19-.09,12.31,0,4,.09,5.15,3.25,7.04.88-34.91-27.02,7-1.26,64.21-7.92,11.65-1.35,20.33-7.22,30.79-10.56.8,5.95-1.6,5.05-1.76,5.28Z" style="fill:#401014; stroke-width:0px;"/><path d="m492.66,573.97v-1.76c29.82,18.37,60.26,34.62,86.2,58.93-1.52,4.98-78.57-55.89-86.2-57.17Z" style="fill:#422108; stroke-width:0px;"/><path d="m592.93,616.19c-.53-.17-1.24.18-1.76,0-20.68-7.13-40.48-20.07-50.14-40.46,17.23,14.04,31.33,30.94,51.9,40.46Z" style="fill:#422108; stroke-width:0px;"/><path d="m492.66,572.21v1.76c4.98,11.12,20.54,15.35,21.99,28.15q-23.31-23.31-46.62-46.62c4.95-.18,16.16,11.49,24.63,16.71Z" style="fill:#ad945c; stroke-width:0px;"/><path d="m826.91,807.95h-3.52c3.17-13.74,1.26-46.3,0-48.38-1.15-1.89-6.82.68-8.8-3.52-2.25-4.79,3.01-36.08-.88-50.14,21.83,50.3,19.12,54.33,13.19,102.03Z" style="fill:#5d0932; stroke-width:0px;"/><path d="m960.6,925.81c-4.75,6.02-12.14,2.68-14.07-3.52-1.23-3.94.88-18.32,0-25.51,30.73-12.82,14.66,9.28,14.07,29.03Z" style="fill:#c0bf8e; stroke-width:0px;"/><path d="m1043.29,763.97c2.4,6.96-1.34,12.84-1.76,22.87-1.66,5.69-11.17,23.09-15.83,24.63-1.29-13.85-5.14-38.47,1.76-47.5-.25,2.78-1.09,21.2,2.64,21.11,4.13-7.16,9.12-13.92,13.19-21.11Z" style="fill:#696c57; stroke-width:0px;"/><path d="m976.44,829.06c-.66.37-3.34-.28-5.28,0,4.98-31.18-15.19-58.72-4.4-95l9.68,95Z" style="fill:#401014; stroke-width:0px;"/><path d="m1048.56,795.63c-9.32,20.45-7.49,2.03-7.04-8.8.42-10.03,4.15-15.91,1.76-22.87,13.99-24.68,3.95-14.12,5.28,31.67Z" style="fill:#4d5047; stroke-width:0px;"/><path d="m957.09,807.95c-1.49-.18-1.65.42-1.76,1.76-5.49-21.33-5.49-23.71,1.76-1.76Z" style="fill:#c7a97f; stroke-width:0px;"/><path d="m886.72,813.22h-1.76v-14.07c.4,2.66,1.54,13.4,1.76,14.07Z" style="fill:#745d40; stroke-width:0px;"/><path d="m911.35,797.39c-1.33-3.72-2.93-8.41-.88-12.31,1.67-.26,2.29,20.45,9.68,16.71-6.66-44.55-17.79-63.65-14.07-4.4.43,6.84,1.52,13.4,1.76,20.23.77,1.83,9.34-17.52,29.03,16.71,6.32-7.83,17.81-16.27,18.47-24.63.11-1.34.27-1.94,1.76-1.76.73,2.2-1,6.67,10.56,23.75,1.99,2.04,3.3-2.61,3.52-2.64,1.94-.28,4.62.37,5.28,0,14.83-8.22,8.79-29.92,11.43-29.91-4.05,36.69,19.38,37.72,22.87,3.52,3.68,16.89,8.19,24.69,7.92,3.52,7.95.95-.87,7.88,7.04,5.28,4.67-1.53,14.17-18.94,15.83-24.63-.46,10.83-2.29,29.24,7.04,8.8h3.52c-1.83,8.63,3.83,7.92,3.52,14.07-11.38,1.17-5.7,22.98-7.04,36.94-1.74,18.22-8.47,17.76-1.76,4.4l-8.8.88c3.88-14.86.44-43.05-3.52-30.79-2.94,9.12,1.81,23.26,1.76,32.55-.03,4.81,6.79,4.17,1.76,7.04-6.07-.93-3.66,12.05-8.8,17.59-2.02-1.06-3.17-2.76-5.28-3.52-.05-2.77.74-8.62-3.52-8.8-5.61-.23-5.86,15.39-5.28,19.35-2.17,6.53-2.33,11.17-3.52,17.59-.23,1.23,5.96,4.41-8.8,14.07-2.9.48-8.64,2.04-8.8-.88,6.21-5.71,10.23-39.69,4.4-36.06-3.76,13.8.84,45-21.99,42.22,19.69-37.36-.11-55.1-1.76-1.76-4.66,8.02-12,8.54-14.07,10.56.03-1.76-.05-3.52,0-5.28.58-19.75,16.65-41.84-14.07-29.03.88,7.19-1.23,21.57,0,25.51-8.48.91-6.78,4.92-7.04,5.28-7.52,10.42-11.58,26.25-28.15,22.87-8.32-1.7-10.27-12.52-13.19-19.35-9.47,30.58-30.77,29.41-41.34,5.28-.95-2.16-2.36-12.67-3.52-17.59-2.61-11.07-1.31-20.98-1.76-21.99-7.14-16.09-17.63,9.1-12.31,28.15,1.59,5.69,7.63,5.46,8.8,6.16.21.13.74,3.19,3.52,3.52-3.53,17.65-6.71,12.99-22.87-8.8-3.13-5.84.72-42.31-9.68-38.7-9.22,3.2,2.46,36.72,2.64,38.7.17,1.86.53,6.05-.88,7.04-10.65-4.03-20.54-9.23-30.79-14.07,0-1.51-1.37-1.79-1.76-3.52,5.51-19.83-14.28-42.42,14.07-49.26.59,8.12.28,14.31,11.43,12.31,14.68-2.63,6.68-65.66-7.92-44.86-.89,1.27-3.55,28.04-3.52,30.79-8.51.52-8.08-28.26,1.76-29.03-7.63-2.74-1.74-9.07-1.76-9.68,13.82,2.82,18.31-5.47,21.11-17.59h3.52c-.54,4.32-6.71,21.53-2.64,24.63,29.19-22.29,18.61-20.04,24.63-58.05,2.94,22.29-8.24,47.95,11.43,64.21,5.08-11.01,9.81-27.58,24.63-25.51h1.76c1.96,5.96,8.81,13.26,11.43,19.35,1.82-1.08,4.34-9.15,4.4-9.68,1.79-16.87-5.61-103.33-.88-136.34q1.32,32.98,2.64,65.97c35.28,38.94,16.05,70.1,7.04,44.86Z" style="fill:#27121d; stroke-width:0px;"/><path d="m802.28,825.54c.02.6-5.87,6.94,1.76,9.68-9.84.77-10.27,29.55-1.76,29.03,0,.58-.04,1.18,0,1.76-28.35,6.83-8.57,29.43-14.07,49.26-4.7-21-4.4-25.29-3.52-45.74,9.75,4.42,11.86-35.4,5.28-35.18.83-3.03,3.43-1.46,3.52-1.76,4.16-13.63,7.64-45.73,8.8-7.04Z" style="fill:#5e564b; stroke-width:0px;"/><path d="m911.35,950.44l-3.52,5.28c-13.14-20.44-12.23-21.52-12.31,15.83-.01,5.56-.57,12.31,0,17.59h-3.52c-.23-7.8-2.31-46.48-7.04-32.55-1.95,5.77,4.58,10.86-1.76,9.68q-14.07-11.43-28.15-22.87c.2-1.64.33-6.7,1.76-7.04,10.57,24.13,31.87,25.3,41.34-5.28,2.92,6.83,4.88,17.65,13.19,19.35Z" style="fill:#7f775c; stroke-width:0px;"/><path d="m1023.94,874.8c.24,13.23-6.88,17.84-12.31,28.15,1.19-6.42,1.34-11.07,3.52-17.59.32-.95,5.29-6.34,5.28-19.35,4.26.18,3.47,6.03,3.52,8.8Z" style="fill:#271e23; stroke-width:0px;"/><path d="m1038.01,851.93c-.03.12-1.95-.42-1.76,1.76.05-9.29-4.7-23.43-1.76-32.55,3.96-12.26,7.4,15.93,3.52,30.79Z" style="fill:#6a7c5c; stroke-width:0px;"/><path d="m1055.6,809.71c-.61,12.11-1.27,26.18-7.04,36.94,1.34-13.96-4.34-35.78,7.04-36.94Z" style="fill:#595153; stroke-width:0px;"/><path d="m1038.01,860.72c-1.47,3.72-4.53,20.69-7.92,21.11-1.36.17-.72-3.43-.88-3.52,5.14-5.54,2.72-18.52,8.8-17.59Z" style="fill:#484243; stroke-width:0px;"/><path d="m880.56,816.74c6.01-.19,43.37,87.73-14.07,72.13-19.7-5.35-1.48-64.22,14.07-72.13Z" style="fill:#edda9f; stroke-width:0px;"/><path d="m913.99,818.5c17.76-4.1,52.96,102.34-11.43,64.21-1.35-10-.4-61.48,11.43-64.21Z" style="fill:#edda9f; stroke-width:0px;"/><path d="m954.45,822.02c3.37,0,26.57,49.54,7.04,61.57-29.15,17.96-19.29-61.54-7.04-61.57Z" style="fill:#c0bf8e; stroke-width:0px;"/><path d="m862.97,895.91l30.79.88c2.67,64.53-34.94,53.79-30.79-.88Z" style="fill:#c0bf8e; stroke-width:0px;"/><path d="m906.95,895.91q15.39,1.32,30.79,2.64c-20.49,97.93-40.25.76-30.79-2.64Z" style="fill:#c0bf8e; stroke-width:0px;"/><path d="m837.46,883.59c3.87-12.27,6.55-25.99,4.4-38.7q-3.96,18.47-7.92,36.94c-17.59-12.13-.07-58.59,7.92-56.29,5.14,1.48,20.55,61.64,3.52,61.57-.43,0-6.33-2.9-7.92-3.52Z" style="fill:#edda9f; stroke-width:0px;"/><path d="m802.28,866c-.04-.58,0-1.18,0-1.76-.03-2.74,2.63-29.52,3.52-30.79,14.59-20.8,22.6,42.23,7.92,44.86-11.15,2-10.84-4.2-11.43-12.31Z" style="fill:#c0bf8e; stroke-width:0px;"/><path d="m984.35,829.06c6.84-.11,6.84,49.57,0,51.02-14.13,2.99-7.28-50.9,0-51.02Z" style="fill:#a9a46b; stroke-width:0px;"/><path d="m853.29,918.78c-2.27,1.7-2.7,7.52-3.52,10.56-.24.89.17,1.94-1.76,1.76-1.16-.7-7.21-.47-8.8-6.16-5.31-19.04,5.18-44.24,12.31-28.15.45,1.01-.85,10.92,1.76,21.99Z" style="fill:#adbd80; stroke-width:0px;"/><path d="m911.35,797.39h-5.28c-3.72-59.25,7.41-40.15,14.07,4.4-7.38,3.74-8-16.98-9.68-16.71-2.05,3.9-.45,8.59.88,12.31Z" style="fill:#ebcdac; stroke-width:0px;"/><path d="m828.66,925.81h-7.04c-.18-1.98-11.86-35.5-2.64-38.7,10.4-3.61,6.54,32.86,9.68,38.7Z" style="fill:#92ad71; stroke-width:0px;"/><path d="m1007.22,829.06c1.49,1.17,1.68,36.11.88,37.82-8.44,18.11-16.51-32.24-.88-37.82Z" style="fill:#8c955f; stroke-width:0px;"/><path d="m1021.3,823.78c6.15-1.5,6.76,35.46,3.52,36.94-10.78,4.92-6.53-36.21-3.52-36.94Z" style="fill:#8c955f; stroke-width:0px;"/><path d="m799.64,885.35c11.93-9.27,5.59,62.02-.88,21.99-.47-2.9-.4-21,.88-21.99Z" style="fill:#8c955f; stroke-width:0px;"/><path d="m976.44,922.29c-1.32-.16-1.95-.24-1.76-1.76,1.65-53.34,21.45-35.6,1.76,1.76Z" style="fill:#a9a46b; stroke-width:0px;"/><path d="m837.46,883.59c-2.01-.79-1.59-.43-3.52-1.76q3.96-18.47,7.92-36.94c2.16,12.71-.53,26.44-4.4,38.7Z" style="fill:#693b3f; stroke-width:0px;"/><path d="m1015.14,885.35c-.58-3.96-.33-19.58,5.28-19.35.01,13.02-4.96,18.4-5.28,19.35Z" style="fill:#9eb09b; stroke-width:0px;"/><path d="m851.53,934.61c-2.78-.33-3.3-3.39-3.52-3.52,1.93.19,1.52-.87,1.76-1.76,2.37-.1,2.12,3.46,1.76,5.28Z" style="fill:#261612; stroke-width:0px;"/><path d="m733.67,596.84c-7.28,10.66-20.44,12.11-31.67,15.83-5.67-.75-12.16-3.04-17.59-3.52,22.88-1.14,29.12-4.28,49.26-12.31Z" style="fill:#c7a97f; stroke-width:0px;"/><path d="m805.79,721.75l-3.52,1.76c-1.25-4.85-9.03-18.09-14.07-21.11-.56-7-4.24-17.11-5.28-24.63,15.07-24,4.09,14.27,22.87,43.98Z" style="fill:#c0bf8e; stroke-width:0px;"/><path d="m775.89,763.97l-3.52,1.76c-.27-2.28.35-4.78,0-7.04,1.92.75,2.93,3.57,3.52,5.28Z" style="fill:#735e6a; stroke-width:0px;"/><path d="m770.61,674.25c-.35-.26-.3,1.49-7.04-5.28q7.48-8.8,14.95-17.59-3.96,11.43-7.92,22.87Z" style="fill:#adbd80; stroke-width:0px;"/><path d="m749.5,651.38h-14.07c7.98-5.42,6.1-12.69,14.07,0Z" style="fill:#94ae8a; stroke-width:0px;"/><path d="m774.13,804.43c.06,18.26-.3,36.33-1.76,54.54l-3.52-.88c.9-14.81-1.22-30.1,0-44.86.27-3.28.36-9.37,5.28-8.8Z" style="fill:#27121d; stroke-width:0px;"/><path d="m923.66,408.61c.29.34-.28,1.37,0,1.76-7.78,8.95-8.17-4.88-14.95-5.28-13.56-.8-8.72,54.61-3.52,56.29,5,1.62,13.2-6.08,14.95-.88,4.16,12.36-16.3,4.73-19.35,12.31-.9,2.24-.67,46.05,0,48.38h-1.76v-48.38c-42.15-9.11-5.15-5.06-1.76-17.59-1.26-11.21,7.05-60.81-16.71-50.14-2.89,1.3,7.1,8.42-11.43,8.8,1.15-5.78-1.77-5-1.76-5.28.14-2.89-.69-5.78.88-7.04,32.13,2.5,25.41-27.14,29.03-68.61h1.76q.88,30.35,1.76,60.69c1.51,4.17,14.19,4.79,22.87,14.95Z" style="fill:#2f0b1d; stroke-width:0px;"/><path d="m833.94,368.15c.61,16.52-3.16,33.58-8.8,49.26-3.1-25.22-17.9-45.82-38.7-59.81,6.05,1.41,23.14-3.08,47.5,10.56Z" style="fill:#5f8069; stroke-width:0px;"/><path d="m591.17,403.33c-.25.26-1.55,3.32-1.76,3.52-16.03,15.15-19.75-2.35-26.39-15.83q14.07,6.16,28.15,12.31Z" style="fill:#46625d; stroke-width:0px;"/><path d="m629.88,290.74c55.02-19.5,95.78-23.84,152.17-1.76,78.68-23.51,89.58,21.83,94.12,24.63,5.17,3.19,14.59-6.11,19.35-7.04.1,1.34.27,1.94,1.76,1.76-.51,8.13.71,16.54,0,24.63-3.62,41.47,3.1,71.11-29.03,68.61-1.57,1.25-.74,4.14-.88,7.04-17.26,2.79-11.26-45.81-38.7-73.01-12.42-12.31,4.35,7.43,5.28,32.55-24.36-13.63-41.45-9.14-47.5-10.56-38.35-8.96-67.78-27.16-136.34-1.76-42.43,15.72-51.86,40.28-58.93,47.5q-14.07-6.16-28.15-12.31h-1.76c.06-.58-2.87-3.74-1.76-11.43,7.91-14.8,22.96-26.85,28.15-43.1,14.72-46.08-23.5-82.45,14.95-52.78q7.04-7.04,14.07-14.07l.88,23.75c2.63,4.74,6.2-.47,12.31-2.64Z" style="fill:#edda9f; stroke-width:0px;"/><path d="m899.03,306.58v26.39h-1.76c.71-8.09-.51-16.5,0-24.63-1.67-3.42,1.75-1.64,1.76-1.76Z" style="fill:#574f2c; stroke-width:0px;"/><path d="m851.53,322.41c-10.55-10.84-18.02-9.38-5.28-22.87,12.34-.46,29.69,24.04,5.28,22.87Z" style="fill:#edda9f; stroke-width:0px;"/><path d="m851.53,322.41c-16.38-.78-20.95-22.29-5.28-22.87-12.75,13.49-5.28,12.03,5.28,22.87Z" style="fill:#705925; stroke-width:0px;"/><path d="m489.14,250.28c-3.15.76-7.32,9.08-1.76-4.4-1.28-1.43-3.1-4.46-3.52-6.16,15.57-19.43,28.48-44.29,40.46-66.85,16.3,13.77-24.07,58.01-35.18,77.4Z" style="fill:#333440; stroke-width:0px;"/><path d="m1029.21,352.31c-49.55,25.76-55.49,50.95-51.02,103.79-6.8-1.79-5.4-31.68-7.04-37.82-3.7-13.88-16.31-26.45-17.59-41.34,23.72-16.79,48.81-19.12,75.65-24.63Z" style="fill:#5f8069; stroke-width:0px;"/><path d="m1240.32,389.26c-4.64,4.62-8.15,10.7-14.07,14.07-.21-.68-8.12-6.62-3.52-12.31,3.7-1.96,3.11-7.54,17.59-1.76Z" style="fill:#46625d; stroke-width:0px;"/><path d="m1222.72,334.72c6.14,14.9,18.37,27.5,26.39,41.34-2.51,1.84-2,5.23-1.76,7.92-2.21,1.51-5.2,3.45-7.04,5.28-14.48-5.78-13.89-.2-17.59,1.76-3.32,1.75-7.32,3.15-10.56,5.28-13.87-22.06-59.72-46.19-85.32-51.02-41.8-7.89-59.69-.75-97.64,7.04-26.83,5.51-51.93,7.84-75.65,24.63-1.56-18.05,10.12-38.67,19.35-53.66l-.88-2.64c-31.68,32.15-30.68,72.16-48.38,87.96-8.68-10.17-21.36-10.78-22.87-14.95q-.88-30.35-1.76-60.69v-26.39c0-.12,1.95.43,1.76-1.76,13.78,3.84,24.28,14.7,22.87,7.04-3.42-15.94,47.91-28.28,65.97-10.56,55.68-36.75,131.4-40.38,189.99-8.8q-2.2-29.91-4.4-59.81c3.83,8.58,33.03,54.96,42.22,39.58-2.71,24.72-4.31,39.19,5.28,62.45Z" style="fill:#edda9f; stroke-width:0px;"/><path d="m958.85,306.58c-2.56-1.7-8.45,11.34-7.04,14.07-8.14,8.97-15.58,1.8-15.83.88-.51-1.86,16.81-18.58,18.47-21.99.72,6.67,4.17,4.74,4.4,7.04Z" style="fill:#e2c594; stroke-width:0px;"/><path d="m958.85,306.58c.09.94-3.63,10.32-7.04,14.07-1.41-2.74,4.47-15.78,7.04-14.07Z" style="fill:#927b3d; stroke-width:0px;"/><path d="m899.03,521.2h1.76c3.89,13.53,29.98,10.79,36.94,21.99,1.12,1.8-2.89,3.49-1.76,5.28,21.27,33.7,42.5,69.06,40.46,110.83-3.39,69.3-81.83,79.56-73.01-16.71-.59,123.03-118.66,73.86-62.45-57.17,27.7-64.58,53.78-49.02,58.05-64.21Z" style="fill:#150914; stroke-width:0px;"/><path d="m1018.66,616.19c7.12,6.04,26.56,17.22,4.4,19.35-11.26,1.08-18.91-8.68-29.03-12.31-.88-7.01-9.64-26.07-14.07-31.67,5.7.89,4.47-7.13,5.28-8.8.11-.22,1.89-.08,3.52-3.52,2.81-5.94,5.91-12.77,7.04-19.35,9.62,6.53,16.4,1.91,17.59,4.4-24.58,23.58-14.72,34.95,5.28,51.9Z" style="fill:#7a9574; stroke-width:0px;"/><path d="m819.87,563.42c-7.18,18.07-12.93,25.14-3.52,56.29-1.38,2.99-1.8,10.76-7.04,10.56.25-23.78,1.5-3.67-42.22,13.19,6.52-13.21,28.14-32.19,26.39-46.62,20.26-2.97,6.63-16.28,7.04-29.91,3.11,3.96,6.16,7.48,7.92,12.31,1.74.16,7.97-15.01,9.68-17.59l1.76,1.76Z" style="fill:#d4c381; stroke-width:0px;"/><path d="m884.96,799.15v1.76c-6.71,2.93-9.58-19.48-8.8-25.51,1.25-9.54,25.73-54.05,5.28,3.52,2.26,6.49,2.5,13.5,3.52,20.23Z" style="fill:#2f0b1d; stroke-width:0px;"/><path d="m976.44,617.95l1.76-5.28c.37,1.41,10.44,17.77,10.56,27.27-5.85-13.79-11.69-20.73-12.31-21.99Z" style="fill:#a0956d; stroke-width:0px;"/><path d="m1011.62,681.28l-3.52,1.76c.23-2.83-.76-5.73.88-7.04.49-.24,1.46,3.86,2.64,5.28Z" style="fill:#a3797a; stroke-width:0px;"/><path d="m661.54,804.43c7.37,20.98,9.38,47.06,15.83,67.73,2.04,6.52,25.21,62.08,22.87,45.74-1.55-10.84-23.43-55.72-21.99-78.28,28.72,34,39.48,79.59,70.37,110.83-22.2-49.6-21.81-54.86,16.71-9.68,3.91,4.59,8.51,10.9,10.56,16.71-5.08,2.26-4.75,9.03-8.8,12.31-4.83,3.92-21.3,1.85-12.31,13.19.95,1.2,8.24,2.14,8.8,2.64,10.27,9.21,11.63,29.74,17.59,43.98-2.35,0-4.69,0-7.04,0-11.4-11.1-23.16-23.09-35.18-33.42-4.82-25.19-11.78-13.62-25.51-24.63-4.87-3.9-15.43-19.39-18.47-21.11,16.39-23.41-8.26-31.72-30.79-28.15,6.09,13.32,3.6,7.89.88,10.56-46.28-29.4,2.84-33.09-38.7-53.66,16.91,7.9,26.61,6.61,33.42-13.19,11.84-34.39-14.2-36.86-15.83-42.22-.49-44.68-4.27-81.61,17.59-19.35Z" style="fill:#5d0932; stroke-width:0px;"/><path d="m1161.15,844.89l10.56,1.76c2.5,12.66,7.64,21.8,12.31,33.42,3.32,8.26,7.94,15.35,10.56,23.75-8.35,4.92-18.21,8.09-26.39,13.19.23-2.17-1.75-1.64-1.76-1.76-.89-8.02-5.9-11.13-7.04-15.83-.52-2.17-1.09-4.05-1.76-6.16,41.67-37.31-.97-2.21-6.16-4.4-4.96-26.06-32.39-38.88-1.76-61.57,3.83,2.2-10.55,22.69-6.16,30.79.59,1.09,15.6-1.15,17.59-13.19Z" style="fill:#394c4d; stroke-width:0px;"/><path d="m789.96,918.78c10.25,4.84,20.14,10.05,30.79,14.07,1.41-.98,1.05-5.18.88-7.04h7.04c16.16,21.78,19.34,26.45,22.87,8.8.36-1.82.61-5.37-1.76-5.28.81-3.03,1.24-8.86,3.52-10.56,1.16,4.92,2.57,15.43,3.52,17.59-1.43.34-1.56,5.39-1.76,7.04-.87,7.04-1.84,14.06-2.64,21.11-13.24-28.4-22.21-27.35-24.63,5.28q-8.8-13.19-17.59-26.39c-3.04,1.85,2.41,27.19,2.64,31.67l-3.52,1.76c-11.47-27.83-36.3-50.87-21.11-19.35-4.3.44-10.81-.67-12.31,0-2.04-5.82-6.64-12.12-10.56-16.71-38.53-45.18-38.91-39.92-16.71,9.68-30.88-31.24-41.65-76.83-70.37-110.83-1.44,22.57,20.44,67.45,21.99,78.28,2.34,16.34-20.83-39.22-22.87-45.74-6.46-20.67-8.47-46.75-15.83-67.73.79-4.23,2.57-8.11,3.52-12.31,1.52-6.71,3.22-14.23,3.52-21.11l10.56-15.83c5.78,91.57,27.33,124.16,110.83,163.61Z" style="fill:#55756c; stroke-width:0px;"/><path d="m656.26,862.48l3.52,3.52c-6.82,19.8-16.52,21.09-33.42,13.19,41.54,20.57-7.57,24.25,38.7,53.66-1.35,1.33-5.03,1.22-5.28,3.52-12.36-7.57-30.9-13.01-42.22-21.11,21.24-12.7,26.56-15.56,5.28-29.91,3.07-9.76,9.21-31.26,10.56-40.46,16.4,16.3,15.74,28.19,22.87,17.59Z" style="fill:#394c4d; stroke-width:0px;"/><path d="m656.26,862.48c-7.13,10.6-6.47-1.29-22.87-17.59.41-2.79-.26-5.94,0-8.8,13.48,1.75,33.34,10.82,22.87,26.39Z" style="fill:#2f1b32; stroke-width:0px;"/><path d="m617.56,915.26c-.34-.24-3,.98-7.04-4.4,2.01-7.19,11.17-21.88,12.31-25.51,21.28,14.34,15.97,17.21-5.28,29.91Z" style="fill:#2f1b32; stroke-width:0px;"/><path d="m643.95,823.78c1.63,5.36,27.68,7.83,15.83,42.22l-3.52-3.52c10.47-15.56-9.39-24.64-22.87-26.39.25-2.74,1.69-4.5,1.76-10.56l8.8-1.76Z" style="fill:#333440; stroke-width:0px;"/><path d="m763.57,985.63c-.55-.5-7.84-1.44-8.8-2.64-8.99-11.34,7.49-9.28,12.31-13.19,3.02,7.08,3.94,13.28-3.52,15.83Z" style="fill:#6a7c5c; stroke-width:0px;"/><path d="m1099.58,867.76c-16.48,26.15-20.71,50.5-28.15,64.21-4.28,7.89-20.31,24.06-21.11,25.51h-1.76c4.79-7.44,17.45-29.98,21.11-37.82,32.11-68.7-29.37,24-40.46,32.55-2.53,1.95-14.94,6.44-19.35,7.04.85-1.6,7.52-22.43,6.16-22.87-24.61,27.19-21.81,23.44-7.92-7.92l-2.64-.88c-10.01,11.08-14.54,19.91-20.23,33.42h-7.04q-1.32-9.68-2.64-19.35c-9.65,15.4-13.39,28.69-23.75,5.28-1.1-2.49-3.56-4.12-3.52-4.4.17-1.1,9.82-9,12.31-11.43,2.07-2.02,9.41-2.54,14.07-10.56-.19,1.52.44,1.6,1.76,1.76,22.83,2.78,18.23-28.42,21.99-42.22,5.83-3.63,1.81,30.36-4.4,36.06.15,2.91,5.9,1.36,8.8.88,17.93-2.98,73.38-34.32,89.72-54.54q3.52,2.64,7.04,5.28Z" style="fill:#5f8069; stroke-width:0px;"/><path d="m1118.93,869.52c-1.89,7.05-19.86,37.99-21.11,44.86-2.07,11.34,2.63,24.57-1.76,36.06-.4,1.05-12.48,15.94-14.07,17.59-10.92,11.37-10.04,2.5-12.31,4.4-2.08,7.28-16.51,27.26-21.11,32.55-5.18,5.95-15.86,16.02-22.87,19.35,2.02-7.26,9.61-38.51,10.56-43.98l19.35,4.4c-1.46-6.65-9.55-15.55-8.8-21.99.04-.32.67-.11,3.52-5.28.8-1.45,16.83-17.62,21.11-25.51,7.43-13.71,11.66-38.06,28.15-64.21,1.67-2.64,20.42-29,21.99-28.15-.87,10.06.02,19.99-2.64,29.91Z" style="fill:#5d0932; stroke-width:0px;"/><path d="m1166.43,915.26c.01.12,1.99-.41,1.76,1.76-42.23,26.35-82.46,54.86-119.63,87.96,4.6-5.28,19.03-25.26,21.11-32.55,2.28-1.9,1.4,6.97,12.31-4.4-.62,7.39,5.03-.64,10.56-7.04,4.24.85,5-3.27,7.04-5.28,2.37-2.33,4.69-4.68,7.04-7.04q7.04-6.16,14.07-12.31c3.48-2.12,5.03-1.62,5.28-1.76,6.16-3.45,13.06-7.54,19.35-10.56,6.63-3.18,14.74-4.53,21.11-8.8Z" style="fill:#a0956d; stroke-width:0px;"/><path d="m1048.56,957.48c-.17.27-4.25.93-3.52,5.28h-5.28c-.53-7.09-4.87-7.75-10.56-10.56,11.1-8.54,72.57-101.25,40.46-32.55-3.66,7.84-16.32,30.38-21.11,37.82Z" style="fill:#5d0932; stroke-width:0px;"/><path d="m1045.05,962.76h1.76c-.75,6.44,7.34,15.34,8.8,21.99l-19.35-4.4c.59-3.42,3.59-16.7,3.52-17.59h5.28Z" style="fill:#6a7c5c; stroke-width:0px;"/><path d="m1136.52,774.52c.95,4.96-1.23,11.55,3.52,15.83-1.11,5.41-4.31,9.31,1.76,8.8-5.12,15.09-11.04,50.99-15.83,72.13l-7.04-1.76c2.66-9.91,1.77-19.84,2.64-29.91-1.57-.85-20.32,25.5-21.99,28.15q-3.52-2.64-7.04-5.28c29.06-35.95,29.87-73.03,31.67-116.11,5.54,1.95,10.67,19.56,12.31,28.15Z" style="fill:#46625d; stroke-width:0px;"/><path d="m1171.71,846.65l-10.56-1.76c1.66-10.05-6.73-54.64-3.52-76.53-4.36,6.12-13.84,24.91-15.83,30.79-6.07.51-2.87-3.39-1.76-8.8,4.08-19.82,35.37-69.01,45.74-90.6-9.51,50.38-24.21,95.46-14.07,146.89Z" style="fill:#364046; stroke-width:0px;"/><path d="m1136.52,774.52c-1.64-8.59-6.78-26.2-12.31-28.15,1.41-33.7-6.28-65.49,11.43-58.05,7.64,3.2,5.45,74.41.88,86.2Z" style="fill:#332b39; stroke-width:0px;"/><path d="m1161.15,844.89c-1.99,12.05-17,14.29-17.59,13.19-4.39-8.09,9.99-28.59,6.16-30.79-30.63,22.69-3.2,35.51,1.76,61.57,5.18,2.19,47.82-32.91,6.16,4.4.67,2.1,1.24,3.99,1.76,6.16-5.69,9.98-9.86,1.77-10.56,1.76l2.64-5.28c-12.94,2.65-7.4,1.88-9.68,8.8-3.4,10.33-.18,10.38,3.52,19.35-6.29,3.02-13.19,7.11-19.35,10.56,1.24-23.6-16.52,10.06-15.83-2.64.17-3.13,13.58-50.74,15.83-60.69,4.79-21.13,10.72-57.04,15.83-72.13,1.99-5.88,11.48-24.66,15.83-30.79-3.22,21.88,5.18,66.47,3.52,76.53Z" style="fill:#5d0932; stroke-width:0px;"/><path d="m1166.43,915.26c-6.37,4.26-14.48,5.61-21.11,8.8-3.69-8.97-6.92-9.02-3.52-19.35,3.69,1,4.8-3.56,7.04-3.52.7.01,4.86,8.22,10.56-1.76,1.14,4.71,6.14,7.81,7.04,15.83Z" style="fill:#5d0932; stroke-width:0px;"/><path d="m694.97,950.44c-4.46-2.53-7.09-2.33-10.56,1.76-7.9-5.39-16.46-10.83-24.63-15.83.25-2.3,3.92-2.19,5.28-3.52,2.72-2.67,5.21,2.76-.88-10.56,22.53-3.58,47.17,4.74,30.79,28.15Z" style="fill:#5f8069; stroke-width:0px;"/><path d="m693.21,934.61c5.28,23.64-23.48,7.37-10.56-3.52q5.28,1.76,10.56,3.52Z" style="fill:#5d3050; stroke-width:0px;"/><path d="m693.21,934.61q-5.28-1.76-10.56-3.52c5.96-5.02,8.71-4.72,10.56,3.52Z" style="fill:#5d0932; stroke-width:0px;"/><path d="m1050.32,957.48c-2.84,5.17-3.48,4.96-3.52,5.28h-1.76c-.73-4.35,3.35-5.01,3.52-5.28h1.76Z" style="fill:#735e6a; stroke-width:0px;"/><path d="m1125.97,871.28c-2.26,9.95-15.66,57.56-15.83,60.69-.69,12.7,17.08-20.96,15.83,2.64-.24.14-1.8-.36-5.28,1.76-13.39,5.13-13.41,11.65-14.07,12.31-2.34,2.36-4.66,4.7-7.04,7.04.89-1.79-5.31-1.48-3.52-5.28,4.39-11.5-.31-24.72,1.76-36.06,1.26-6.87,19.22-37.81,21.11-44.86l7.04,1.76Z" style="fill:#5f8069; stroke-width:0px;"/><path d="m1009.86,959.24c-2.34,4.4-14.27,15.46-19.35,23.75-14.44,23.52-43.65,73.68-1.76,17.59,6.66-8.91,24.06-44.08,36.06-41.34,13.02,2.97-1.92,63.02-14.95,70.37-2.93,0-5.86,0-8.8,0,7.44-14.75,16.34-30.27,14.95-47.5-6.91,19.3-17.12,35.77-34.3,47.5-7.04,0-14.07,0-21.11,0,18.34-73.58-54.78-72-36.94,0-1.17,0-2.35,0-3.52,0-5.54-35.38,5.81-48.14-13.19-33.42-2.03-37.51-6.52,38.87-11.43-7.04-.57-5.28-.01-12.03,0-17.59,20.8-19.9,11.05,1.69,21.11-3.52,1.44-.75,20.47-23.14,21.11-24.63q7.04,1.76,14.07,3.52c10.36,23.42,14.1,10.13,23.75-5.28q1.32,9.68,2.64,19.35c-17.14,81.06-9.89,40.21,7.04,0,5.69-13.51,10.22-22.34,20.23-33.42l2.64.88c-13.89,31.36-16.7,35.1,7.92,7.92,1.37.44-5.31,21.27-6.16,22.87Z" style="fill:#5d0932; stroke-width:0px;"/><path d="m809.31,976.83c.98,2.38,1.93,4.52,2.64,7.04,1.38-.24.97-6.97.88-8.8-.23-4.48-5.68-29.81-2.64-31.67q8.8,13.19,17.59,26.39c2.42-32.62,11.38-33.68,24.63-5.28.8-7.05,1.76-14.07,2.64-21.11q14.07,11.43,28.15,22.87c9.06,3.71,6.09,18.32-3.52,21.11-20.11-24.8-52.03-3.94-38.7,42.22-11.73,0-23.46,0-35.18,0q-9.24-18.47-18.47-36.94,4.84,18.47,9.68,36.94c-2.35,0-4.69,0-7.04,0-7.71-16.45-23.28-39.13-15.83-56.29q5.28,6.6,10.56,13.19l-7.04-18.47c19.89-18.73,28.09,43.3,54.54,48.38-9.56-15.71-37.66-45.82-43.98-58.93-15.19-31.52,9.64-8.48,21.11,19.35Z" style="fill:#5d0932; stroke-width:0px;"/><path d="m1039.77,962.76c.07.89-2.93,14.17-3.52,17.59-.95,5.47-8.53,36.72-10.56,43.98-.54,1.94-2.48,2.78-1.76,5.28-4.69,0-9.38,0-14.07,0,13.04-7.35,27.97-67.4,14.95-70.37-12-2.73-29.4,32.43-36.06,41.34-41.89,56.09-12.68,5.92,1.76-17.59,5.09-8.28,17.01-19.35,19.35-23.75,4.41-.59,16.82-5.09,19.35-7.04,5.68,2.8,10.02,3.47,10.56,10.56Z" style="fill:#c7a97f; stroke-width:0px;"/><path d="m950.05,1029.61c-4.69,0-9.38,0-14.07,0-25.15-73.37,45.34-59.21,14.07,0Z" style="fill:#5d0932; stroke-width:0px;"/><path d="m960.6,1029.61c-3.52,0-7.04,0-10.56,0,31.27-59.21-39.22-73.37-14.07,0-4.1,0-8.21,0-12.31,0-17.84-72,55.28-73.58,36.94,0Z" style="fill:#e2c594; stroke-width:0px;"/><path d="m788.2,957.48c6.32,13.11,34.42,43.22,43.98,58.93-26.45-5.07-34.65-67.11-54.54-48.38-1.79,1.69-2.58,3.11-3.52,5.28-7.45,17.17,8.12,39.84,15.83,56.29-2.93,0-5.86,0-8.8,0-5.97-14.24-7.32-34.77-17.59-43.98,7.46-2.56,6.54-8.75,3.52-15.83,4.04-3.28,3.71-10.06,8.8-12.31,1.51-.67,8.01.44,12.31,0Z" style="fill:#a0956d; stroke-width:0px;"/><path d="m1001.07,1029.61c-6.45,0-12.9,0-19.35,0,17.18-11.73,27.4-28.2,34.3-47.5,1.39,17.23-7.51,32.75-14.95,47.5Z" style="fill:#e2c594; stroke-width:0px;"/><path d="m805.79,1029.61c-2.93,0-5.86,0-8.8,0q-4.84-18.47-9.68-36.94,9.24,18.47,18.47,36.94Z" style="fill:#c7a97f; stroke-width:0px;"/><path d="m879.68,987.38c7.9,9.74,9.12,28.24,11.43,40.46,1.94-.02.99-34.95.88-38.7h3.52c4.92,45.91,9.4-30.47,11.43,7.04,19.01-14.71,7.65-1.95,13.19,33.42-17.01,0-34.01,0-51.02,0,.21-14.24,19.3-45.66-6.16-47.5-25.42-1.84-17.78,32.58-14.95,47.5-2.35,0-4.69,0-7.04,0-13.32-46.16,18.59-67.02,38.7-42.22Z" style="fill:#edda9f; stroke-width:0px;"/><path d="m869.13,1029.61c-1.76,0-3.52,0-5.28,0q-2.2-12.31-4.4-24.63l-2.64,24.63c-2.93,0-5.86,0-8.8,0-2.83-14.92-10.47-49.34,14.95-47.5,25.46,1.84,6.37,33.26,6.16,47.5Z" style="fill:#5d0932; stroke-width:0px;"/><path d="m863.85,1029.61c-2.35,0-4.69,0-7.04,0l2.64-24.63q2.2,12.31,4.4,24.63Z" style="fill:#e2c594; stroke-width:0px;"/><path d="m937.73,943.41c-.64,1.49-19.67,23.88-21.11,24.63-2.7-4.22-6.11-8.13-8.8-12.31l3.52-5.28c16.56,3.39,20.63-12.45,28.15-22.87-1.65,3.88-1.15,14.42-1.76,15.83Z" style="fill:#a9a46b; stroke-width:0px;"/><path d="m907.83,955.72c2.69,4.18,6.09,8.09,8.8,12.31-10.06,5.21-.31-16.39-21.11,3.52.08-37.35-.82-36.28,12.31-15.83Z" style="fill:#450d2c; stroke-width:0px;"/><path d="m985.23,961c-16.92,40.21-24.18,81.06-7.04,0h7.04Z" style="fill:#9f7b6d; stroke-width:0px;"/><path d="m892,989.14c.11,3.75,1.06,38.69-.88,38.7-2.31-12.22-3.54-30.73-11.43-40.46,9.61-2.79,12.58-17.4,3.52-21.11,6.34,1.19-.2-3.91,1.76-9.68,4.72-13.94,6.8,24.75,7.04,32.55Z" style="fill:#401014; stroke-width:0px;"/><path d="m774.13,973.31c.94-2.16,1.73-3.59,3.52-5.28l7.04,18.47q-5.28-6.6-10.56-13.19Z" style="fill:#7e3f55; stroke-width:0px;"/><path d="m809.31,976.83l3.52-1.76c.09,1.83.5,8.55-.88,8.8-.71-2.52-1.66-4.65-2.64-7.04Z" style="fill:#61414e; stroke-width:0px;"/><path d="m1099.58,955.72c-.2.39-.7-2.06-7.04,5.28-5.53,6.4-11.18,14.42-10.56,7.04,1.59-1.65,13.67-16.54,14.07-17.59-1.79,3.8,4.41,3.49,3.52,5.28Z" style="fill:#856162; stroke-width:0px;"/><path d="m1120.69,936.37q-7.04,6.16-14.07,12.31c.66-.66.69-7.19,14.07-12.31Z" style="fill:#2e2d19; stroke-width:0px;"/><path d="m1099.58,955.72c-2.04,2-2.8,6.13-7.04,5.28,6.33-7.33,6.84-4.88,7.04-5.28Z" style="fill:#2a0f02; stroke-width:0px;"/><path d="m1148.84,901.18c-2.24-.04-3.35,4.51-7.04,3.52,2.28-6.91-3.27-6.15,9.68-8.8l-2.64,5.28Z" style="fill:#737555; stroke-width:0px;"/><path d="m707.28,586.29c-12.9,4.61,2.29-1.64-10.56-5.28.85-.94,5.16-5.92,2.64-7.04-33.16,16.95,18.44-22.8,1.76-45.74-7.25,14.66-29.11,58.82-21.99,58.05-9.95.96-7.03.3-15.83-1.76-6.43-15.67-23.5-33.83-21.11-42.22,2.48,3.23,17.68,27.14,20.23,26.39,2.83-39.37,10.05-59.41,7.92-3.52-.1,2.66-.53,5.73.88,7.04.46.22,1.5-3.85,2.64-5.28,7.93-9.91,24.15-39.6,8.8-46.62,4.51-3.73,10.85,5.23,13.19,4.4,2.72-.97,18.54-47.17,37.82-29.03-27.72,5.07-20.68,24.45-24.63,45.74,11.68,4.97,2.52,33.38-1.76,44.86Z" style="fill:#ccae6e; stroke-width:0px;"/><path d="m696.72,581.01c-5.62,6.22-11.12,4.65-17.59,5.28-7.12.76,14.74-43.39,21.99-58.05,16.69,22.94-34.92,62.69-1.76,45.74,2.52,1.12-1.79,6.1-2.64,7.04Z" style="fill:#150914; stroke-width:0px;"/><path d="m786.44,357.59c20.8,13.99,35.6,34.59,38.7,59.81,1.82,14.76-.8,47.61-3.52,63.33-7.05,40.74-33.67,77.17-73.01,93.24-14.67,1.8-27.61,7.4-41.34,12.31,4.28-11.48,13.44-39.89,1.76-44.86,3.95-21.29-3.1-40.67,24.63-45.74-19.28-18.14-35.11,28.06-37.82,29.03-2.35.83-8.69-8.13-13.19-4.4,15.35,7.02-.87,36.71-8.8,46.62l-3.52-1.76c2.14-55.89-5.08-35.85-7.92,3.52-2.56.75-17.75-23.16-20.23-26.39-6.76-8.8-13.65-36.43-47.5-12.31-5.6-22.2-6.6-45.72-7.04-68.61-.23-11.91-.7-25.15,0-36.94.34-5.85,2.94-11.46,1.76-17.59.21-.19,1.51-3.26,1.76-3.52,7.07-7.22,16.5-31.78,58.93-47.5,68.55-25.4,97.98-7.2,136.34,1.76Z" style="fill:#150914; stroke-width:0px;"/><path d="m760.94,519.44q1.32,7.48,2.64,14.95c-20.25,3.99-27.84,30.82-25.51,9.68-44.17,51.01-2.94-9.03,22.87-24.63Z" style="fill:#ccae6e; stroke-width:0px;"/><path d="m673.86,566.94c-1.14,1.42-2.18,5.5-2.64,5.28-1.41-1.31-.98-4.38-.88-7.04l3.52,1.76Z" style="fill:#4f3509; stroke-width:0px;"/><path d="m867.37,408.61c-.01.28,2.91-.5,1.76,5.28-1.79,8.97-20.68,52.92-4.4,54.54,4.67.46,8.17-8.76,8.8-8.8,6.17-.31-3.38,31.33-7.92,36.06,5.18,55.83-25.4,68.5-35.18,114.35-2.46-20.89-10.5,1.92-14.07,9.68-9.41-31.15-3.66-38.23,3.52-56.29,3.55-8.94,5.42-12.61-1.76-1.76-1.71,2.58-7.94,17.76-9.68,17.59-1.75-4.83-4.81-8.36-7.92-12.31-2.03-2.59-3.69-5.8-7.04-7.04.1-9.49,7.95,9.71,14.07,2.64,5.34-9.09,6.14-19.64,10.56-29.03,1.53-3.25,24.74-45.2,19.35-43.1-1.4.55-14.46,22.67-15.83,25.51-1.47-12.76,7.94-35.54,0-35.18,2.72-15.72,5.34-48.57,3.52-63.33,5.63-15.68,9.4-32.73,8.8-49.26-.93-25.12-17.7-44.85-5.28-32.55,27.44,27.2,21.45,75.8,38.7,73.01Z" style="fill:#5d0932; stroke-width:0px;"/><path d="m818.11,533.51c-2.66-3.29,1.76-13.96,3.52-17.59,1.37-2.84,14.43-24.96,15.83-25.51,5.39-2.1-17.82,39.85-19.35,43.1Z" style="fill:#596164; stroke-width:0px;"/><path d="m840.1,442.03c3.29-.85,16.35,9.29,14.95,11.43-2.78,4.26-13.96-7.22-14.95-11.43Z" style="fill:#c0bf8e; stroke-width:0px;"/><path d="m819.87,563.42l-1.76-1.76c7.18-10.85,5.31-7.18,1.76,1.76Z" style="fill:#735e6a; stroke-width:0px;"/><path d="m953.57,376.94c1.28,14.89,13.89,27.46,17.59,41.34,1.64,6.15.24,36.03,7.04,37.82.92,10.89,4.18,23.82,1.76,31.67-.69-1.76-2.54-4.95-3.52-7.04-1.44-3.08-2.26-7.1-2.64-7.04-2.99,8.39.86,8.35.88,8.8.67,11.99-.11,22.91,1.76,35.18-5.15,4.3-14.94-24.87-19.35-30.79-1.94-2.59-3.43-3.93-3.52,0-.06,2.56,18.84,41,24.63,44.86,1.7,6.08,12.92,24.98,17.59,28.15-1.13,6.58-4.23,13.41-7.04,19.35q-10.12-13.19-20.23-26.39,8.36,14.95,16.71,29.91c-.8,1.67.42,9.68-5.28,8.8-8.21-10.34-5.48,6.93-1.76,21.11l-1.76,5.28c-11.66-23.54-19.02-49.39-36.94-69.49-2.27-12.96-4.86-51.02-7.04-56.29-9.94-24.12-5.83,46.39-12.31-21.11,2.62-8.63,14.91-.99,17.59-7.04,2.47-5.56-4.6-40.47-14.07-53.66-.28-.39.29-1.42,0-1.76,17.7-15.8,16.69-55.81,48.38-87.96l.88,2.64c-9.23,14.98-20.91,35.61-19.35,53.66Z" style="fill:#5d0932; stroke-width:0px;"/><path d="m976.44,517.68c.69,4.55.49,9.53,1.76,14.07-5.78-3.86-24.69-42.3-24.63-44.86.09-3.93,1.58-2.59,3.52,0,4.42,5.92,14.21,35.09,19.35,30.79Z" style="fill:#5e5e58; stroke-width:0px;"/><path d="m976.44,480.74l-1.76,1.76c-.02-.44-3.87-.41-.88-8.8.38-.06,1.2,3.96,2.64,7.04Z" style="fill:#596164; stroke-width:0px;"/><path d="m988.75,579.25c-1.62,3.43-3.41,3.29-3.52,3.52q-8.36-14.95-16.71-29.91,10.12,13.19,20.23,26.39Z" style="fill:#857170; stroke-width:0px;"/><path d="m957.97,443.79c11.22,1.62-8.74,16.18-13.19,7.92,1.63-1.59,12.43-8.03,13.19-7.92Z" style="fill:#c0bf8e; stroke-width:0px;"/><path d="m1212.17,396.29c5.78,9.19,9.5,28.07,10.56,38.7.7,7.05-.15,15.51,0,22.87.66,31.53.51,61.27-17.59,87.96-7.98,4.06-20.71,2.94-28.15,5.28l-.88-21.11c.67,10.97-44.69,46.02-48.38,47.5-.05-4.44,14.07-19.71,12.31-36.06,28.84,9.05,27.03-3.96,0-8.8-.3-7.8,39.12,3.42,23.75-41.34-32.51,53.73-23.86,9.41-19.35-22.87-27.49,70.44,2.45,38.05-36.94,10.56-35.42-24.72.48,7.51,4.4,13.19,18.36,26.62,21.72,57.13,10.56,87.08-4.64-3.13,9.24-21.41-10.56-47.5-19.52-25.73-35.56-.58-34.3-45.74-11.73,14.44,1.04,41.76-10.56,40.46-2.61-.29-30.32-47.02-13.19,2.64l-2.64,2.64c-19.54-28.12-32.21-31.83-18.47-9.68,1.59,2.56,38.11,44.17,44.86,37.82q8.36,10.56,16.71,21.11c-21.73.6-59.67-15.54-76.53-29.91-25.18-21.47-29.44-41.9-37.82-63.33,2.42-7.84-.84-20.77-1.76-31.67-4.47-52.84,1.47-78.03,51.02-103.79,37.95-7.79,55.84-14.92,97.64-7.04,25.6,4.83,71.45,28.96,85.32,51.02Z" style="fill:#150914; stroke-width:0px;"/><path d="m1205.13,545.83c-8.53,12.58-21.7,24.32-36.06,29.91-13.31,5.17-45.07,11.32-44.86,3.52,1.09.13,1.79-1.07,3.52-1.76l.88,3.52c17.78-11.51,27.6-23.39,48.38-29.91,7.44-2.34,20.16-1.22,28.15-5.28Z" style="fill:#450d2c; stroke-width:0px;"/><path d="m1127.73,577.49c-1.73.69-2.43,1.89-3.52,1.76h-1.76c11.17-29.95,7.81-60.46-10.56-87.08-3.92-5.69-39.82-37.91-4.4-13.19,39.39,27.49,9.45,59.89,36.94-10.56-4.51,32.28-13.16,76.6,19.35,22.87,15.37,44.76-24.05,33.54-23.75,41.34,27.03,4.83,28.84,17.85,0,8.8,1.75,16.35-12.37,31.62-12.31,36.06Z" style="fill:#ccae6e; stroke-width:0px;"/><path d="m1176.99,551.1c-20.78,6.52-30.6,18.39-48.38,29.91l-.88-3.52c3.68-1.47,49.04-36.53,48.38-47.5l.88,21.11Z" style="fill:#ad945c; stroke-width:0px;"/><path d="m1111.9,531.75l-3.52,3.52c-11.74-11.93-29.7-11.8-26.39,4.4,3.88,18.97,22.34-16.36,30.79,25.51-12.58-19.91-28.88-10.28-11.43,10.56-2.71.41-4.63,5.21-7.04,5.28q-8.36-10.56-16.71-21.11c-6.75,6.35-43.27-35.27-44.86-37.82-13.73-22.15-1.07-18.44,18.47,9.68l2.64-2.64c-17.13-49.66,10.59-2.93,13.19-2.64,11.6,1.3-1.17-26.03,10.56-40.46-1.26,45.16,14.78,20.01,34.3,45.74Z" style="fill:#c7a97f; stroke-width:0px;"/><path d="m1108.38,535.27c8.39,8.53,11.47,24.37,10.56,36.06-2.71,8.52-15.4-23.13-15.83,0-.01.69,8.59,13.61-1.76,4.4-17.45-20.83-1.14-30.46,11.43-10.56-8.45-41.86-26.91-6.54-30.79-25.51-3.31-16.2,14.64-16.33,26.39-4.4Z" style="fill:#0e0e11; stroke-width:0px;"/><path d="m1074.07,533.51c7.73-.88,16.3,28.34-5.28,22.87-10.56-2.68.96-22.38,5.28-22.87Z" style="fill:#0e0e11; stroke-width:0px;"/></g></svg>