<?xml version="1.0" encoding="UTF-8"?><svg id="b" xmlns="http://www.w3.org/2000/svg" xmlns:xlink="http://www.w3.org/1999/xlink" viewBox="0 0 1248.47 713.27"><defs><linearGradient id="e" x1="1111.2" y1="13.5" x2="1090.57" y2="260.13" gradientUnits="userSpaceOnUse"><stop offset="0" stop-color="#333030"/><stop offset="1" stop-color="#5f6070"/></linearGradient><linearGradient id="f" x1="886.75" y1="13.92" x2="902.57" y2="97.78" gradientUnits="userSpaceOnUse"><stop offset="0" stop-color="#2e2a29"/><stop offset="1" stop-color="#3d3e3d"/></linearGradient><linearGradient id="g" x1="839.36" y1="8.1" x2="851.06" y2="150.26" gradientUnits="userSpaceOnUse"><stop offset="0" stop-color="#282323"/><stop offset="1" stop-color="#38383b"/></linearGradient><linearGradient id="h" x1="654.35" y1="8.01" x2="636.71" y2="660.02" gradientUnits="userSpaceOnUse"><stop offset="0" stop-color="#0b0914"/><stop offset="1" stop-color="#1b110d"/></linearGradient><linearGradient id="i" x1="6.32" y1="143.37" x2="308.48" y2="544.61" gradientUnits="userSpaceOnUse"><stop offset="0" stop-color="#090913"/><stop offset="1" stop-color="#1e1516"/></linearGradient></defs><g id="c"><g id="d"><path d="m1076.55.06c5.87,11.1,15.01,19.95,23.16,29.26,24.4,27.87,50.12,56.05,81.68,75.59,3.74,3.24,6.98,4.59,7.31,4.88,6.85,5.9,13.33,12.35,18.9,19.51,1.07-.82.66-5.63.61-7.31h3.66c-.05,3.79-1.41,12.46-2.44,16.46l2.44,9.14c.48,1.52,1.77,2.17,2.44,3.66-1,14.31,7.96,20.88,8.53,21.94,8.7,16.25,14.99,33.66,25.6,48.77.06,40.64-.04,81.28,0,121.92q-3.66-4.57-7.31-9.14c1.65,15.5,2.76,32.79,7.31,46.94,0,2.44,0,4.88,0,7.31-10.59-9.91-10.32-45.99-26.82-40.23-3.49-15.4-6.11-30.93-9.75-46.33-6.93-29.26-14.44-58.39-26.82-85.95-5.71-7.3-14.64-12.84-20.73-18.9-22.67-19.12-32.06-51.45-34.75-49.99-1.14.62.86,14.81-12.8-6.1,16.02,14.19,3.01,5.56,15.85,0,5.91.06-16.42-29.1-18.29-29.26-1.13-.09-1.34,1.35-2.44,1.22-7.53-14.87-34.96-37.54-50.59-42.67-31.67-10.39-69.91,3.66-93.27,25.6-8.46,7.95-15.45,16.99-23.16,25.6l-1.22-1.22c8.66-45.3,15.56-51.82,28.65-91.44-1.31-.48-4.29,11.98-16.46,21.94-14.05,11.5-11.38,7.03-3.66-11.58q-4.27-19.81-8.53-39.62c44.3.04,88.59-.09,132.89,0Z" style="fill:url(#e); stroke-width:0px;"/><path d="m1144.83,231.7c2.95,1.21-.44-1.31,2.44-2.44,5.18,5.15,24.57,22.91,26.82,21.94,8.27,10.77,32.89,51.63,35.97,52.42.25.06.89-1.48,1.83-1.22,3.65,15.39,6.26,30.93,9.75,46.33,6.11,26.98,7.67,57.2,26.82,79.25-.03,27.63.04,55.27,0,82.9-2.28.04-.76,4.31-1.22,8.53-19.78-2.33-15.35-7.53-29.87,7.31-1.86-.65-4.65-14.29-5.49-17.07,13.98-1.1,1-32.35,2.44-44.5-3.56-18.93-12.2-36.37-17.07-54.86-3.33-12.66-3.4-34.9-8.53-35.36,5.21-4.33-.77-2.31-1.22-3.66-2.75-8.2.55-19.08-6.71-24.99-11.73,17.3-8.47-10.21-14.63-13.41-1.31-.68-10.5-.28-10.97,0-6.9,4.1,6.07,25.4-.61,28.04-2.38-11.77-4.96-22.62-9.75-33.53l-4.88,9.75c5.63,4.54,6.45,24.94,9.75,39.62-1.85.66-3.27-1.89-3.66-3.05-5.04-14.89-9.2-30.32-14.63-45.11,6.78-9.69-2.16-57.36-16.46-51.81-1.42-.72,1.27-1.96.61-2.44,10.1-23.42,1.4-26.41,2.44-29.87.41-1.36,4.33-2.08,6.1-4.88,1.63-2.57,9.03-16.26,10.36-16.46,2.46-.37,7.37,7.31,10.36,8.53Z" style="fill:#6d6f7e; stroke-width:0px;"/><path d="m1171.65.06q9.14,16.15,18.29,32.31c-2.58,10.78,5.72,15.27,7.31,19.51,1.9,5.04,15.54,46.22,15.85,48.77.36,2.96-1.1,11.68-1.22,21.34h-3.66c-.26-9.35-6.98-17.65-11.58-25.6q1.52,8.84,3.05,17.68c-4.87,1.26-9.98-11.75-10.97-4.27-.33-.29-3.57-1.64-7.31-4.88-29.16-25.21-51.36-53.04-81.68-75.59-8.15-9.31-17.29-18.16-23.16-29.26,31.7.06,63.4-.15,95.09,0Z" style="fill:#353234; stroke-width:0px;"/><path d="m1248.45,388.97c-.01,13,.01,26.01,0,39.01-19.15-22.04-20.71-52.26-26.82-79.25,16.5-5.76,16.23,30.32,26.82,40.23Z" style="fill:#474655; stroke-width:0px;"/><path d="m313.36,713.26c-1.63,0-3.25,0-4.88,0,12.3-14.33.32-15.27,5.49-19.51,1.46-1.2,21.71.88,35.36-10.97,5.26,10.8,17.85,1.05,15.85,7.31-23.78,14.9-21.91,8.06-23.16,8.53-6.76,2.53-28.65,10.1-28.65,14.63Z" style="fill:#cb8753; stroke-width:0px;"/><path d="m1248.45,343.86c.01,12.6.01,25.2,0,37.79-4.55-14.14-5.66-31.44-7.31-46.94q3.66,4.57,7.31,9.14Z" style="fill:#474655; stroke-width:0px;"/><path d="m247.53,713.26c-3.66,0-7.31,0-10.97,0q-4.88-3.96-9.75-7.92c1.8-2.33,27.12.39,20.73,7.92Z" style="fill:#bb6c3b; stroke-width:0px;"/><path d="m303.61,713.26c-7.72,0-15.44,0-23.16,0,1.53-3.37,27.23-6.68,23.16,0Z" style="fill:#c07b38; stroke-width:0px;"/><path d="m232.9,713.26c-5.28,0-10.57,0-15.85,0-3.46-7.53,8.46-6.24,15.85,0Z" style="fill:#cb8753; stroke-width:0px;"/><path d="m1248.45,591.35c-7.93,1.46-3.39-9.57,0-12.19-.01,4.06.01,8.13,0,12.19Z" style="fill:#843c1d; stroke-width:0px;"/><path d="m114.64,713.26c-2.84-.01-5.69.01-8.53,0,4.33-4.07,14.99-9.82,8.53,0Z" style="fill:#843c1d; stroke-width:0px;"/><path d="m4.92,615.73l-4.88,3.66c0-1.22,0-2.44,0-3.66,2.22-1.15,2.39-2.21,4.88,0Z" style="fill:#dc996a; stroke-width:0px;"/><path d="m.04,626.7c0-1.63,0-3.25,0-4.88,3.38,1.18,3.67,5.48,0,4.88Z" style="fill:#af604a; stroke-width:0px;"/><path d="m410.9,204.87c2.89,10.56,11.31,59.84,14.63,64.01,1.11,1.4,1.69-1.45,3.66-1.83,1.79,8.32,1.77,16.86,4.88,24.99,3.74,8.37,5.94,6.28,6.1,6.71,6.35,17.91,11,36.26,17.07,54.25,3.05,2.23,3.04-16.28,2.44-18.9l2.44-1.22c3.99,20.66,7.14,22.3,2.44,50.59,6.52,12.79,14.43,42.93,12.19,56.08-.16.92-9.11,7.13-7.31,10.36-7,5.02-5.94-11.59-9.75-24.99-5.39-18.95-12.64-40.28-19.51-57.3,3.31,25.2,8.8,115.12,10.97,125.57.06.28,1.84.03,3.66,4.27-3.92,13.02-11.16,24.75-15.24,37.79-8.39,2.18-7.85-21.92-7.92-26.82-.11-7.32.13-7.95-2.44-1.22-4.19,10.97-4.39,19.78-4.88,20.73-.61,1.19-16.31,15.99-19.51,17.07.51-.51-1.59-13.1-4.88-1.22-26.8.7-53.66-.75-80.46,0-6.1-4.87-12.97-8.62-19.51-12.8,1.74-27.97-15.18-15.63,2.44,6.1l-2.44.61c-17.23-10.05-17.2-26.68-18.9-26.82-3.63-.31-1.94,14.23-1.83,17.07-9.34-16.8-2.34-17.33-2.44-18.9-1.26-19.41-.82-53.76-3.05-55.47-10.56,8.03,7.25-20.56,1.83-35.36,1.89.63,3.21-1.82,3.66-3.05,5.16-14.08,10.75-28.02,15.85-42.06,4.42-12.16,13.4-33.01,13.41-43.89,3.12,1.77,6.02-10.5,6.1-12.19l2.44,1.83c8.36-24.75,23.18-48.7,23.16-73.76l3.66-11.58c16.63-11.28,41.06-37.66,45.11-56.69,1.05-1.34,5-8.38,5.49-8.53,6.74-2.12,14.91,30.9,16.46,36.57Z" style="fill:#6d6f7e; stroke-width:0px;"/><path d="m819.31,302.41c10.72,39.53,18.38,77.76,41.45,117.65v6.71c5.77,30.32-.41,85.87,3.66,109.11,3.22,18.4,4.73-3.27,8.53,4.27-7.73,13.83-9.39,8.86-13.41,9.75l-5.49-12.19c-4.1,2.73,4.6,7.75-.61,10.97-4.24.49-11.8-13.53-12.8-13.41-1.46.18-1.64,6.8-2.44,7.31-1.03.67-13.11-13.59-15.24-18.9-5.61-13.99-20.46-111.3-20.73-129.23-.02-1.42,8.83-11.78,0-26.82,4.46-14.19,5.21-29.19,4.88-43.89,1.65-4.62,5.24-12.18,6.1-16.46.47-2.36.71-4.88,1.22-7.31,1.42.98,3.63,1.34,4.88,2.44Z" style="fill:#6d6f7e; stroke-width:0px;"/><path d="m407.24,108.56c-.46,2.81,3.93,34.89,4.88,37.18,2.99,7.2,2.29-11.01,2.44-12.8,7.85-2.28,2.4,2.13,7.92,3.66,7.99-8.39,1.48-22.34,6.1-24.38h32.31c3.82,7.76,7.33,24.08,12.19,24.38,3,10.26,7.68,20.19,7.31,31.09,6.19,8.54,8.05,23.09,9.75,33.53-11.89,5.97-19.53-19.66-26.21-24.38-.44-.31-1.94,4.57-8.53-3.66-5.08,0,.32,24.14-14.02-5.49-25.61-12.88-15.45,42.7-9.75,56.69,7.54,27.91,19.27,56.16,17.07,85.34-1.69-3.71-7.23-17.2-8.53-10.97-.15-.43-2.35,1.67-6.1-6.71-3.11-8.13-3.08-16.67-4.88-24.99-2.6-12.06-8.75-57-16.46-63.4-.08-.07-1.08,1.55-1.83,1.22-1.55-5.67-9.72-38.69-16.46-36.57-.48.15-4.44,7.19-5.49,8.53-4.37,5.57-7.29,12.86-13.41,17.07.07-.24.59-4.99-.61-4.88-3.82,4.44-15.17.23-18.29-2.44-10.61-9.08,3.45-18.32-7.92-10.97,3.92-14.4,12.43-34.35,9.75-47.55.31-2.02,3.5-3.45,3.66-3.66.11-.15,1.2,3.12,3.66-.61.39-4.41,2.26-8.66,3.66-12.8,4.11,5.97,19.17,6.65,23.16,9.75,5.29,4.12,6.09,13.35,7.92,13.41,5.1-6.15.36-9.74,4.27-25.6h2.44Z" style="fill:#474655; stroke-width:0px;"/><path d="m545,388.97c2.21,10.6.44,23.67,1.22,26.21.63,2.03,5.91,3.95,6.1,4.27,1.08,1.85,2.84,2.95,3.66,4.88,1.86,4.37,9.75,60.99,9.75,67.66.02,22.03-9.72,46.85-9.75,49.38-10.59-5.17-10.42-25.91-9.75-37.18-8.94-3.31-1.13-40.07-10.36-20.12-5.21.47-2.21-27.94-15.24-14.02,4.52,17.25-.24,39.55,6.1,51.2-13.42-.36-10.95-20.27-11.58-31.09-12.38,40.99-11.78-9.86,4.27-35.97,2.88-25.34-3.54-67.43-7.31-35.36-6.77-38.73,9.98-41.45,9.75-70.71.88-2.16,4.62-.77,7.31-5.49,5.17,10.29,13.62,35.64,15.85,46.33Z" style="fill:#6d6f7e; stroke-width:0px;"/><path d="m490.14,201.22c.42,2.55,1.13,2.93,1.22,3.66-1.68,12.44-6.02,33.53-2.44,45.11-6.81-4.8-2.63,9.13-2.44,21.94-2.77,14.91-4.66,2.46-6.71,2.44-1.92-.02-3.09,7.28-7.92,4.27-3.23-2.02-4.91-26.1-6.1-30.48-.29-1.07-7.91-6.45-4.88-20.73-11.44-16.54-12.3-17.48-29.26-3.05-5.7-13.99-15.86-69.57,9.75-56.69,14.34,29.62,8.94,5.49,14.02,5.49,6.6,8.23,8.09,3.35,8.53,3.66,6.69,4.72,14.33,30.35,26.21,24.38Z" style="fill:#60626c; stroke-width:0px;"/><path d="m486.48,271.93c.46,30.38-2.14,15.45-3.66,18.9-1.43,3.25-2.23,52.26-3.66,63.4-7.78-16.29,2.97,25.35-6.1-7.31l-6.1-3.66c-3.64-20.93-13.56-55.35-4.88-10.36l-2.44,1.22c-.3-1.3-9.37-20.86-10.97-24.38,2.2-29.18-9.53-57.43-17.07-85.34,16.96-14.43,17.82-13.49,29.26,3.05-3.03,14.28,4.59,19.65,4.88,20.73,1.19,4.38,2.86,28.46,6.1,30.48,4.83,3.01,6-4.29,7.92-4.27,2.05.02,3.94,12.48,6.71-2.44Z" style="fill:#6d6f7e; stroke-width:0px;"/><path d="m469.41,449.92c7.7,4.68-4.47,43.08-6.71,42.67-7.03-21.4-5.43-3.41-7.92,4.88-1.81-4.23-3.6-3.99-3.66-4.27-2.17-10.45-7.66-100.37-10.97-125.57,6.86,17.02,14.11,38.35,19.51,57.3,3.82,13.41,2.75,30.01,9.75,24.99Z" style="fill:#6d6f7e; stroke-width:0px;"/><path d="m591.33,636.45c1.15,1.69,2.2,4.01,2.44,6.1,2.81,24.06-18.14-14.71-2.44-6.1Z" style="fill:#bb6c3b; stroke-width:0px;"/><path d="m738.85,635.24c-3.4,9.93-3.97,12.08-11.58,20.73-22.11-13.06,8.03,2.8,9.14-21.94l2.44,1.22Z" style="fill:#7f6e29; stroke-width:0px;"/><path d="m663.26,627.92c-.27,16.15-15.98,11.09-8.53,3.66.33-.33,7.16-2.92,8.53-3.66Z" style="fill:#843c1d; stroke-width:0px;"/><path d="m699.83,626.7c-5.97,11.44-6.78,3.03-8.53,1.22,4.19-.31,1.58-5.95,8.53-1.22Z" style="fill:#843c1d; stroke-width:0px;"/><path d="m793.71,676.69c-.72,2.29-2.23,4.19-3.66,6.1-3.41-6.39-3.31-10.64,3.66-6.1Z" style="fill:#843c1d; stroke-width:0px;"/><path d="m379.2,627.92c-1.2,2.38-2.05,5.04-4.88,6.1-1.84-2.96,1.3-5.39,4.88-6.1Z" style="fill:#b6c0b1; stroke-width:0px;"/><path d="m691.3,627.92c-1.74-1.79-4.85-2.03-2.44-4.88,3.27-2.33,4.96,1.19,2.44,4.88Z" style="fill:#903e27; stroke-width:0px;"/><path d="m332.87,243.89c2.46-.38,5.13-.21,7.31,1.22.02,25.05-14.81,49-23.16,73.76l-2.44-1.83c.13-2.95-.14-4.83-1.83-7.31-1.41,2.86-2.82,5.7-4.27,8.53-4.19,8.19-19.33,51.99-13.41,54.86-5.1,14.05-10.69,27.98-15.85,42.06-.45,1.23-1.76,3.68-3.66,3.05-1.31-3.57-13.74-2.86,4.88-34.75-1.37-37.59-11.95-3.68-20.12,6.71-4.41-1.25,28.38-76.54,24.99-84.73,7.26-12,20.07-32.85,19.51-45.72l1.22-2.44,7.92-8.53c9.84,2.12,12.01-3.83,18.9-4.88Z" style="fill:#6d6f7e; stroke-width:0px;"/><path d="m170.72,643.77c-13.24,13.4-17.9,10.44-18.9,10.97-2.28,1.23-2.81,6.53-4.88,7.31-5.07,1.92-34.06-5.25-43.28,1.22-4.47-1.48-31.43,0-35.97,1.22-1.45.39-7.37,5.36-11.58,7.31-2.31,1.08-10.97,6.46-10.97-.61,0-6,43.92-20.9,48.16-28.65,8.46,1.59,16.45,1.25,24.99,1.22,4.96-.02,12.11,5.76,29.26-6.1,4.98.9,14.32,1.04,21.34,2.44,2.54,1.71,1.63,3.61,1.83,3.66Z" style="fill:#050302; stroke-width:0px;"/><path d="m132.93,635.24c6.69.7,8.92,1.4,14.63,2.44-17.15,11.85-24.3,6.08-29.26,6.1l12.19-9.75,2.44,1.22Z" style="fill:#110b09; stroke-width:0px;"/><path d="m20.77,652.3c1.8,10.93-2.11-1.86-6.1-3.66,3.6-6.7,5.21-1.7,6.1,3.66Z" style="fill:#836e3d; stroke-width:0px;"/><path d="m14.67,644.99c-6.22.26-1.36-6.38,1.22-8.53,1.03-.86,2.01-1.62,3.05-2.44l.61,1.83c-3.64,2.96-4.24,4.68-4.88,9.14Z" style="fill:#903e27; stroke-width:0px;"/><path d="m1115.57,274.37c.66.48-2.03,1.72-.61,2.44,14.3-5.54,23.23,42.12,16.46,51.81,5.43,14.79,9.59,30.22,14.63,45.11.39,1.16,1.8,3.7,3.66,3.05,9.34,41.47,23.62,82.61,31.7,124.35,4.21,21.74,6.96,40.19,6.1,62.18l-7.31,7.92c-3.5-11.03-8.33-12.64-8.53-13.41-2-7.35.5-34.02-2.44,0-9.1,3.14-9.59,6.53-10.36,6.71-.43.1-5.49-5.24-7.31-4.88-.68.14-6.78,7.83-10.97,8.53-5.56.93-17.68-7.11-55.47,6.1-32.74-4.82-104.4-8.13-142.03-10.97v2.44c27.64.47,59.45,2.12,82.29,15.85-16.31.58-31.71,3.37-47.55,7.31l-8.53-1.22c-85.52-12.52-58.7.05-62.18-28.65-1.21-9.99-9.09-13.86-12.19-18.29-2.9-4.14-1.06-18.95-8.53-1.83-2.69.81-3.42-9.55-3.66-12.8-2.27-30.9,4.14-58.86-3.66-89.61-.83-6.24.62-12.18,1.22-18.29,17.77.45,13.67,7.43,17.07,14.02.75,1.45,3.82,1.79,4.88,4.88,5.02,14.66,11.92,96.83,14.63,101.19,4.62,7.46,4.61-9.15,9.75-7.31,3.03-31.21,6.66-62.43,7.31-93.87,6.69-12.41,15.26-31.24,19.51-45.11,14.78-48.23,7.43-48.76,35.36-102.41,5.15-9.89,3.5-28.34,19.51-12.8,9.94-1.17,15.65,3.36,17.68,3.66,24.16,3.5,14.75-3.92,18.29-3.66.77.06,9.18,5.4,14.63,4.88.76-.46-3.86-11.15-7.92-11.58,16.33-5.65,25.25.87,4.88,1.22,28.33,30.37,22.94-14.81,42.06-26.21,5.99,5.79,12.17,3.22,12.8,6.71.96,5.34-16.69,6.74,4.88,22.55Z" style="fill:#6d6f7e; stroke-width:0px;"/><path d="m1154.58,360.93c6.48,9.75,11.87,25.02,14.63,39.62,2.67-6.43,2.09-15.09,4.88-6.1,7.56,24.43,14.92,90.89,30.48,109.72,5.36,6.49,2.89-9.2,7.31,5.49.84,2.77,3.62,16.42,5.49,17.07,14.51-14.84,10.09-9.64,29.87-7.31-3.53,32.38-12.82,29.15-14.02,30.48-22.73,25.17-8.09,4.27-12.8-10.36-2.31-7.19-2.5,11.49-3.66,23.77h-5.49c-2.57-11.42-.18,3.54-10.36,1.22,2.48-24.84,6.19-44.34-2.44-4.27h-2.44c-.25-10.49-1.24-21.5-3.66-31.7-.53-2.23-8.89-26.56-10.97-27.43-8.08-41.74-22.36-82.88-31.7-124.35-3.31-14.68-4.12-35.08-9.75-39.62l4.88-9.75c4.79,10.9,7.37,21.76,9.75,33.53Z" style="fill:#6d6f7e; stroke-width:0px;"/><path d="m278.01,669.37c-4.08,7.95-13.43-2.1-33.53,10.97-3.88-1.37-18.88,6.39-20.12,1.83,4.74-28.65,30.22-9.37,48.77-17.68,2.68,1.72-2.55,7.22,4.88,4.88Z" style="fill:#bb6c3b; stroke-width:0px;"/><path d="m278.01,669.37c-7.42,2.35-2.2-3.15-4.88-4.88-.39-.25-6.9-1.35-9.14-1.22v-2.44c20.64-2.56,36.82-24.92,58.52-15.85-6.49,3.53-12.61,9.29-19.51,4.88-7.23,19.07-11.12,11.67-14.63,13.41-3.61,1.79-6.49,4.87-10.36,6.1Z" style="fill:#cb8753; stroke-width:0px;"/><path d="m445.64,662.06c1.81.04,3.35-.58,3.05,1.83-17.19,20.42-38.86,9.3-60.35.61-3.12-.17-13.16,9.33-32.31.61,22.52-3.9,39.72.47,56.69.61.44,0,4.74-2.41,8.53-2.44.92,0,4.99,3.85,18.29,2.44.35-.04,4.16-3.7,6.1-3.66Z" style="fill:#cb8753; stroke-width:0px;"/><path d="m1133.24,646.21c11.18-3.26,8.04,18.62-10.97,17.07,6.36-4.35,7.22-15.97,10.97-17.07Z" style="fill:#df9460; stroke-width:0px;"/><path d="m309.1,676.69c2.32,1.4-3.93,8.63-5.49,10.36-15.14,16.77-22.95,6.61,5.49-10.36Z" style="fill:#cb8753; stroke-width:0px;"/><path d="m308.49,626.7c-6.57.29-11.48-3.23-26.82,3.66-13.52-8.43,23.91-10.29,26.82-3.66Z" style="fill:#bb6c3b; stroke-width:0px;"/><path d="m100.62,698.63c.88-.35,16.61.65,18.9,1.83-12.42,3.01-20.44,8.62-21.34,7.92-2.21-1.72,1.97-9.57,2.44-9.75Z" style="fill:#25160a; stroke-width:0px;"/><path d="m204.25,685.22c21.1-2.58,2.88,8.56-12.8,6.71,2.8-1.23,10.95-6.48,12.8-6.71Z" style="fill:#23150e; stroke-width:0px;"/><path d="m338.36,641.33c1.87-.28,3.42-.26,3.05,1.83-8.85,3.36-8.45,9.91-10.36,10.36-.41.1-7.76-2.66-7.92-3.05-.46-1.07,14.34-9.01,15.24-9.14Z" style="fill:#cb8753; stroke-width:0px;"/><path d="m1149.09,646.21c10.24-.75,1.4,14.26-4.88,9.75-2.89-2.08,1.24-9.49,4.88-9.75Z" style="fill:#cb8753; stroke-width:0px;"/><path d="m1122.27,668.15c11.59-4.43-3.36,9.4-4.88,13.41-2.03-.76,3-12.69,4.88-13.41Z" style="fill:#f3a872; stroke-width:0px;"/><path d="m917.45,703.51c1.29-.39,5.41-.82,5.49,1.83.16,5.75-13.2.51-5.49-1.83Z" style="fill:#f3a872; stroke-width:0px;"/><path d="m1099.11,640.11c.94-.13,2.54-.31,3.05.61-15.91,13.41-8.22.1-3.05-.61Z" style="fill:#c3775d; stroke-width:0px;"/><path d="m352.99,634.02l-6.1,7.31c-2.6-4.64,3.53-5.01,6.1-7.31Z" style="fill:#aa6144; stroke-width:0px;"/><path d="m819.92,675.47l10.36,1.83c.61,2.14-10.83,1.65-10.36-1.83Z" style="fill:#843c1d; stroke-width:0px;"/><path d="m1233.21,582.81c.2-.12,2.61,1.63,1.22,3.66-2.23,3.26-2.57-2.87-1.22-3.66Z" style="fill:#c7b7a2; stroke-width:0px;"/><path d="m1111.91,113.44c1.43,2.82,4.94,12.12,4.88,12.8-.23,2.3-7.66-7.84,0,15.24,13.66,20.9,11.66,6.72,12.8,6.1,2.69-1.47,12.08,30.87,34.75,49.99-16.53-16.45-25.23-27.12-29.87-31.7-.75-.74-5,3.8-14.63-13.41.43,12.48,32.06,54.42,29.26,56.08-18.26-18.07-4.84,8.11.61,16.46,7.37,11.29,17.92,17.79,24.38,26.21-2.25.96-21.64-16.8-26.82-21.94-16.92-16.8-21.01-26.85-2.44,2.44-2.99-1.22-7.9-8.91-10.36-8.53-1.34.2-8.73,13.88-10.36,16.46-1.77,2.79-5.69,3.51-6.1,4.88-1.04,3.46,7.67,6.45-2.44,29.87-21.57-15.82-3.91-17.22-4.88-22.55-.63-3.48-6.81-.92-12.8-6.71-19.13,11.4-13.73,56.58-42.06,26.21,20.38-.34,11.45-6.87-4.88-1.22,4.07.43,8.69,11.13,7.92,11.58-5.45.53-13.86-4.82-14.63-4.88-3.54-.26,5.88,7.16-18.29,3.66-2.03-.29-7.74-4.83-17.68-3.66-15.1-22.57,5.44-2.12,6.71-2.44,2.04-.52-1.88-3.87,0-4.88.7-.38,8.22,2.46,15.85,1.22,27.15-4.43-10.85-7.26-26.21-19.51-18.23-14.53-35.34-57.11-21.94-21.34,14.03,9.4,10.09,15.15,18.29,24.99-1.5.19-6.78-3.81-18.9-1.22-9.97-15-17.35-12.7-18.29-13.41-2.72-2.07-4.56-9.91-6.1-9.75-.63.06-1.71,4.64-2.44,4.88-3.76,1.25-9.12-14.65-15.24-8.53-2.42-9.55-6.24-23.64-17.07-25.6,2.19-5.55,4.53-9.66,4.88-15.85,9.08-7.89,10.92-29.85,13.41-43.89,2.45-6.29,32.26-39.49,31.7-42.06-.49-2.26-4.44-1.05-4.88-3.05,23.35-21.95,61.59-35.99,93.27-25.6,15.63,5.13,43.06,27.8,50.59,42.67Z" style="fill:#ddd883; stroke-width:0px;"/><path d="m1164.33,197.56c6.09,6.06,15.01,11.6,20.73,18.9,12.38,27.56,19.89,56.69,26.82,85.95-.94-.26-1.58,1.28-1.83,1.22-3.08-.8-27.7-41.65-35.97-52.42-6.46-8.42-17.01-14.92-24.38-26.21-5.45-8.35-18.87-34.53-.61-16.46,2.8-1.67-28.83-43.6-29.26-56.08,9.63,17.21,13.88,12.67,14.63,13.41,4.64,4.57,13.34,15.25,29.87,31.7Z" style="fill:#6d6f7e; stroke-width:0px;"/><path d="m941.23,141.48c.08-.47-1.7-7.87-2.44-9.14,1.08-2.64,3.13-5.18,3.66-7.92,1.83-.17,2.32-2.31,2.44-2.44,7.72-8.61,14.7-17.65,23.16-25.6.44,2,4.39.79,4.88,3.05.56,2.57-29.25,35.77-31.7,42.06Z" style="fill:#ffba8b; stroke-width:0px;"/><path d="m1132.63,141.48c-12.84,5.56.17,14.19-15.85,0-7.66-23.08-.23-12.94,0-15.24.07-.68-3.45-9.98-4.88-12.8,1.1.13,1.31-1.31,2.44-1.22l18.29,29.26Z" style="fill:#5d5c63; stroke-width:0px;"/><path d="m1132.63,141.48l-18.29-29.26c1.87.16,24.2,29.31,18.29,29.26Z" style="fill:#c0b577; stroke-width:0px;"/><path d="m418.21,56.14c-3.39,12.32-5.83,15.01-9.75,24.99-1.05,2.66,1.63,5.14,1.22,6.1-5.34,12.5-19.26,24.76-17.07,33.53-3.99-3.11-19.06-3.78-23.16-9.75,6.85-20.3.39-9.54,1.22-15.24.67-4.64,33.16-50.84,36.57-67.66,20.32,16.22,16.67,7.36,10.97,28.04Z" style="fill:#353234; stroke-width:0px;"/><path d="m456,101.25c1.76,3.56,3.1,7.36,4.88,10.97h-32.31c-4.62,2.05,1.89,15.99-6.1,24.38-5.52-1.53-.07-5.93-7.92-3.66,2.41-28.83,8.2-35.18,0-32.92,22.95-61.61,9.83-57.04,36.57-3.05,2.26,4.55,4.73,3.98,4.88,4.27Z" style="fill:#3e3e47; stroke-width:0px;"/><path d="m414.55,132.94c-.15,1.8.55,20-2.44,12.8-.95-2.29-5.34-34.38-4.88-37.18.53-3.2,3.8-7.57,7.31-8.53,8.2-2.26,2.41,4.09,0,32.92Z" style="fill:#f3a872; stroke-width:0px;"/><path d="m1211.88,509.66c-4.43-14.69-1.95,1-7.31-5.49-15.56-18.84-22.92-85.29-30.48-109.72-2.78-9-2.2-.33-4.88,6.1-2.76-14.61-8.15-29.87-14.63-39.62,6.68-2.64-6.29-23.94.61-28.04.48-.28,9.66-.68,10.97,0,6.16,3.2,2.9,30.71,14.63,13.41,7.26,5.91,3.96,16.79,6.71,24.99.45,1.35,6.43-.67,1.22,3.66,5.13.46,5.2,22.7,8.53,35.36,4.86,18.49,13.51,35.93,17.07,54.86-1.44,12.15,11.54,43.4-2.44,44.5Z" style="fill:#6d6f7e; stroke-width:0px;"/><path d="m1168.6,260.96c-.16,5.47,14.1,43.76,12.19,45.11-5.32,3.74-14.11-39.51-12.19-45.11Z" style="fill:#6d6f7e; stroke-width:0px;"/><path d="m1147.26,229.26c-2.88,1.13.51,3.65-2.44,2.44-18.57-29.29-14.48-19.24,2.44-2.44Z" style="fill:#8a8463; stroke-width:0px;"/><path d="m429.18,267.05c-1.97.37-2.54,3.22-3.66,1.83-3.32-4.16-11.74-53.45-14.63-64.01.75.33,1.74-1.29,1.83-1.22,7.71,6.4,13.86,51.33,16.46,63.4Z" style="fill:#60626c; stroke-width:0px;"/><path d="m308.49,329.23c-.01,10.88-8.99,31.73-13.41,43.89-5.92-2.88,9.23-46.67,13.41-54.86-2.24,9.93,0,10.42,0,10.97Z" style="fill:#6d6f7e; stroke-width:0px;"/><path d="m314.58,317.04c-.07,1.69-2.97,13.96-6.1,12.19,0-.55-2.24-1.04,0-10.97,1.45-2.84,2.86-5.68,4.27-8.53,1.69,2.48,1.96,4.37,1.83,7.31Z" style="fill:#c0b577; stroke-width:0px;"/><path d="m375.54,193.9c-1.51,5.45-22.93,33.12-27.43,31.7-5.19-1.64,4.03-21.05-15.24,18.29-6.88,1.05-9.06,6.99-18.9,4.88l-7.92,8.53c15.62-28.29,10.68-35.97,12.19-44.5.17-.96,6.08-10.44,6.1-11.58,10.55,1.37,4.81,4.07,9.75,6.1-.35,6.95,7.81-10.06,14.63-18.9.49-3.84-.7-10.24,0-12.8,11.37-7.35-2.69,1.89,7.92,10.97,3.12,2.67,14.47,6.88,18.29,2.44,1.2-.12.68,4.64.61,4.88Z" style="fill:#60626c; stroke-width:0px;"/><path d="m95.74,648.65c12.81-2.13,7.55,6.52-10.36,5.49,3.59-1.37,9.78-5.39,10.36-5.49Z" style="fill:#23150e; stroke-width:0px;"/><path d="m140.85,651.08c17.65-3.23-1.55,9.5-10.36,6.71,7.8-3.19,9.76-6.59,10.36-6.71Z" style="fill:#25160a; stroke-width:0px;"/><path d="m1000.97,254.86c2.32-.29-.19-4.45,3.66-3.66,15.36,12.25,53.36,15.08,26.21,19.51-7.63,1.25-15.15-1.6-15.85-1.22-1.88,1.01,2.04,4.36,0,4.88-1.26.32-21.81-20.13-6.71,2.44-16-15.54-14.36,2.91-19.51,12.8-27.92,53.65-20.57,54.17-35.36,102.41-4.25,13.87-12.82,32.7-19.51,45.11-.65,31.44-4.28,62.67-7.31,93.87-5.15-1.84-5.13,14.77-9.75,7.31-2.71-4.36-9.61-86.53-14.63-101.19-1.06-3.09-4.13-3.43-4.88-4.88-3.4-6.59.7-13.57-17.07-14.02.43-4.33.44-7.77,1.22-12.19,2.02-11.51,13.56-61.31,17.07-74.98,1.88-7.31,8.17-15.11,3.66-17.07,3.31-1.07,7.7-13.92,11.58.61,29.27-12.32,22.03-54.74,29.87-82.29.16-2.42-3.1-3.28-3.66-5.49,6.12-6.12,11.47,9.79,15.24,8.53.72-.24,1.8-4.81,2.44-4.88,1.54-.15,3.38,7.68,6.1,9.75.94.71,8.32-1.59,18.29,13.41,12.12-2.59,17.4,1.41,18.9,1.22Z" style="fill:#6d6f7e; stroke-width:0px;"/><path d="m922.94,201.22c10.83,1.96,14.65,16.05,17.07,25.6.56,2.2,3.81,3.07,3.66,5.49-7.84,27.55-.6,69.98-29.87,82.29-3.89-14.53-8.27-1.68-11.58-.61,4.51,1.96-1.78,9.76-3.66,17.07-3.51,13.67-15.05,63.47-17.07,74.98-5.9-25.86.84-55.01-6.1-81.68-.74-10.68,4.12-20.37,6.1-30.48,1.05-5.37,2.7-10.49,3.66-15.85,4.32-1.13,11.29-11.28,17.07-14.02-1.14-12.22,2.24-10.97,2.44-11.58,3.78-3.34,8.66-10.44,4.88-13.41-.45-.35-1.77-1.05-2.44-1.22,2.54-8.5-.33-17.85,1.22-24.99.67-3.11,6.21-7.95,7.31-11.58,2.31.27,5.15-.39,7.31,0Z" style="fill:#6d6f7e; stroke-width:0px;"/><path d="m1004.62,251.2c-3.85-.79-1.34,3.36-3.66,3.66-8.19-9.84-4.26-15.6-18.29-24.99-13.4-35.77,3.72,6.81,21.94,21.34Z" style="fill:#787660; stroke-width:0px;"/><path d="m943.06,175.61c3.88,3.09-8.63,20.51-8.53,25.6-.11-9.08-.45-20.59,8.53-25.6Z" style="fill:#4e4e53; stroke-width:0px;"/><path d="m1103.98,231.7c1.22-.68,3.01,2.83,3.05,3.05,1.3,8.38-5.15,20.71-3.05-3.05Z" style="fill:#676447; stroke-width:0px;"/></g><path d="m1228.95,585.25c5.18,16.91-4.13-5.08-6.1,12.8-.78,7.07,3.64,10.75,1.83,15.24-9.37-10.09-15.65-32.35-14.63-12.19-15.14-10.64-6.78-13.95,7.31-12.19,2.64.33,1.15,7.98,4.27-1.22,1.18-.1,4.89-2.47,7.31-2.44Z" style="fill:#f3a872; stroke-width:0px;"/><path d="m1220.41,160.98c-.23-.52-3.44-3.88-6.1-9.75-.67-1.48-1.96-2.14-2.44-3.66l4.88-38.4c8.86,23.71,10.41,26.23,3.66,51.81Z" style="fill:#302a28; stroke-width:0px;"/><path d="m1220.41,160.98c1.7,3.8,2.98,7.91,2.44,12.19-.57-1.07-9.53-7.64-8.53-21.94,2.65,5.88,5.86,9.23,6.1,9.75Z" style="fill:#c3775d; stroke-width:0px;"/><path d="m1181.4,104.9c-31.56-19.54-57.28-47.72-81.68-75.59,30.33,22.54,52.53,50.38,81.68,75.59Z" style="fill:#f3a872; stroke-width:0px;"/><path d="m1208.22,121.97c.05,1.69.47,6.49-.61,7.31-5.57-7.16-12.05-13.6-18.9-19.51.99-7.48,6.1,5.53,10.97,4.27q-1.52-8.84-3.05-17.68c4.61,7.95,11.32,16.26,11.58,25.6Z" style="stroke-width:0px;"/><path d="m1171.04,78.08c21.3,33.32-1.7,7.86-1.83,4.27,0-.23,1.76-2.65,1.83-4.27Z" style="fill:#c3775d; stroke-width:0px;"/><path d="m1229.56,146.35c-3.97,22.97,12.55,40.87,14.63,63.4-8.69-32.28-25.08-37.69-14.63-63.4Z" style="fill:#c3775d; stroke-width:0px;"/><path d="m786.39.06c-2.78,25.46,2.25,50.04,1.83,75.59,5.08-24.88,2.4-50.34,3.05-75.59,2.84,0,5.69,0,8.53,0,2.28,18.08,7.42,90.28,9.75,96.92.33.95,1.63.61,2.44.61-.24,4.29.11,8.92,0,13.41-11.43-13.4-6.57,19.42-1.22,21.94-.11,7.56-1.23,18,2.44,20.73-7.23,13.64,3.84-5.35,3.66,4.27-.22,11.27-15.74,51.18-17.07,57.3-.56,2.57,1.62,3.42,1.22,5.49l-4.88-1.22c1.81-9.55,5.74-20.11-2.44-22.55.16-64.59-13.19,10.16-8.53,29.26.26,1.06,9.6-.65.61,9.14.34-11.68-3.49-7.79-5.49,1.22-5.9-3.37-3.3-13.41-4.88-20.73,5.54-5.82,7.05,8.33,8.53-12.8,1.2-16.99-.35-49.11,0-69.49,0-.56,2.23-1.11,2.44-10.97,0-.44-2.45-2-2.44-2.44.63-28.07,8.43-41.63-3.66-39.01.66,20.63,6.72,42.39-4.88,42.67,1.11-53.37-5.85-12.29-1.22,7.31,1.17,4.96,15.14,6.9,4.27,38.4-2.89-34-7.04,2.33-12.8-14.02-2.57-7.28-3.9-41.91-4.88-43.89-1.06-2.14-4.87,1.97-6.1-1.22-.71-1.84,1.87-32.68-1.22-38.4,2.31-17.98.6-44.51,8.53-71.93,8.13,0,16.26,0,24.38,0Z" style="fill:#302a28; stroke-width:0px;"/><path d="m942.45.06c11.08,35.05-6.86,67.54-17.07,107.29-2.04,7.95-4.62,15.44-7.31,23.16-14.24-8.21-6.41-41.16-18.29-10.36-10.94,28.37-11.85,87.85-23.16,122.52-4,12.26-2.57,5.02-4.88,3.66,5.1-20.98,19.28-99.95,18.29-112.77-.03-.33-2.71-4.98-3.66-5.49,11.1-36.3-12.57,8.39-13.41,11.58-.37,1.4-1.33,8.88-1.22,10.36h-1.22l-12.19-3.66c8.98-77.43,30.29-73.74,48.77-146.3,11.79.01,23.57-.01,35.36,0Z" style="fill:url(#f); stroke-width:0px;"/><path d="m586.45.06c.03,18.78-.58,37.32,1.22,56.08,1.85,19.19,8.13,37.46,9.75,56.69,3.56,5.34,8.26,8.58,8.53,9.14,2.6,5.29,4.82,10.54,7.31,15.85l-9.14,6.1c-17.17-18.62-11.47,15.12-11.58,24.38,0,.09-1.21-.37-1.22,1.22-11.85-1.74-3.25-49.95-17.07-47.55-.36-15.22.27-30.49,0-45.72-.33-1.22-2.23.58-2.44,1.22-1.22,3.78-1.58,48.19-1.22,56.69-.79-3.54-8.63-3.34-17.07-6.1,12.19-35.96-8.92,3.47-8.53,14.63-.04.08-.33-.43-1.22,1.22-10.76,20-12.2,38.4,0-17.68.69-3.18.05-8.94-1.22-12.19,25.98-37.27,31.01-69.74,35.36-113.99,2.84,0,5.69,0,8.53,0Z" style="fill:#302a28; stroke-width:0px;"/><path d="m238.99.06c-2.29,2.08-3.93,17.08-1.83,17.07q3.35-8.53,6.71-17.07c8.13-.01,16.26,0,24.38,0-3.71,16.96-3.02,68.08-4.88,74.98-.26.97-10.08,11.63-12.19,15.85,4.6,12.94,1.93,34.12,2.44,50.59h-3.66c-6.79-46.86-18.91-94.08-15.85-141.42,1.63,0,3.25,0,4.88,0Z" style="fill:#302a28; stroke-width:0px;"/><path d="m52.46.06c-2.73,33.18-32.52,94.69-34.14,103.02-.4,2.06-.2,3.51,2.44,3.05-5.19,9-3.59,13.54-8.53,7.31.39-4.17,1.54-7-.61-6.1L.04,119.53c.02-6.5-.03-13,0-19.51,10.69-19.39,19.31-50.13,32.92-65.22.19-.21.58-5.2,1.83-5.49,2.44-.57,2.67,4.64,3.66,4.88,2.66.63,11.36-30.4,9.14-34.14,1.63-.02,3.25.01,4.88,0Z" style="fill:#170c10; stroke-width:0px;"/><path d="m1248.45,558.43q-3.66,10.67-7.31,21.34c-5.25,5.27-4.79-12.91-12.19,5.49-2.42-.04-6.13,2.34-7.31,2.44-1.98.17-12.83-.59-21.34,1.22l.61-2.44,18.29-18.9c.53-1.77-2.46-4.02-2.44-4.27,1.16-12.29,1.34-30.96,3.66-23.77,4.71,14.64-9.93,35.54,12.8,10.36,1.2-1.33,10.49,1.9,14.02-30.48.46-4.23-1.07-8.5,1.22-8.53-.02,15.85.03,31.7,0,47.55Z" style="fill:#170c10; stroke-width:0px;"/><path d="m64.66.06c-13.21,20.86-14.88,46.98-24.38,70.1-3.27,7.95-14.33,26.99-19.51,35.97-2.64.46-2.84-.99-2.44-3.05C19.95,94.74,49.74,33.24,52.46.06c4.06-.03,8.13.03,12.19,0Z" style="stroke-width:0px;"/><path d="m21.99,402.38c-.27,7.52-.63,13.28,7.31,9.75-2.29,8.94-5.32,17.85-7.31,26.82-17.95-18.99-16.02,15.96-21.94,26.82,0-6.1,0-12.19,0-18.29,9.4-13.9,11.78-31.97,18.29-47.55,1.2.46,3.13,1.07,3.66,2.44Z" style="fill:#27252c; stroke-width:0px;"/><path d="m18.33,399.94c-6.51,15.58-8.89,33.65-18.29,47.55-.01-11.38.01-22.76,0-34.14,5.05,11.52,13.36-13.44,17.07-15.24,2.07-1.01.97,1.73,1.22,1.83Z" style="stroke-width:0px;"/><path d="m.04,332.89c.01-10.97-.01-21.94,0-32.92l10.36-13.41c4.18.59-3.54,42.79-10.36,46.33Z" style="stroke-width:0px;"/><path d="m791.27.06c-.65,25.25,2.04,50.71-3.05,75.59.42-25.55-4.61-50.13-1.83-75.59,1.63,0,3.25,0,4.88,0Z" style="stroke-width:0px;"/><path d="m12.23,113.44c-.02.24-2.36,3.69-2.44,4.27-.5,3.52,1.97,12.73-9.75,29.87.02-9.35-.03-18.69,0-28.04l11.58-12.19c2.15-.9,1,1.92.61,6.1Z" style="stroke-width:0px;"/><path d="m590.11.06c1.72,10.72,1.6,48.78,0,55.47-.22.91-1.62.62-2.44.61-1.8-18.76-1.19-37.31-1.22-56.08,1.22,0,2.44,0,3.66,0Z" style="fill:#170c10; stroke-width:0px;"/><path d="m243.87.06q-3.35,8.53-6.71,17.07c-2.1,0-.46-14.98,1.83-17.07,1.63,0,3.25,0,4.88,0Z" style="stroke-width:0px;"/><path d="m618.15,207.31c4.46,8.32,9.02,31.1,13.41,43.28,2.89,8,13.65,34.87,17.07,33.53,1.05,17.59,2.8,65.74,12.19,63.4-.26,22.68-5.09,35.25,6.1,57.91-12.51,44.23-15.73,90.6-7.31,135.94-1.71,1.71-13.08,12.25-14.02,12.19-3.92-.23-6.93-17.15-10.97,4.88-4.69.36-8.73-12.84-10.97-12.19-1.09.31-1.26,5.17-3.66,7.31-.2.18-4.38-2-5.49,0,.13-3.06.45-22.36-.61-23.16-9.77-7.34-2.52,23.06-7.31,34.14-1.99-25.26-9.78-.58-13.41,0-11.91,1.9-3.61-48.71-10.97-9.75-2.2.98-18.67-14.67-10.97,8.53-6.83-5.4-15.38-12.22-15.24-21.94.04-2.53,9.77-27.35,9.75-49.38,0-6.67-7.89-63.29-9.75-67.66,23.72,13.32,23.98-4.14,26.21-4.88,3.19-1.06,1.4,3.99,9.14,0,1.68,9.28,4.76,19.27,9.75,27.43.01,4.28,6.88,65.46,12.8,60.35,1.36-1.17.26-5.38.61-7.31,8.3,3.37,3.26-3,3.66-4.27,3.81-12.18,6.75-21.93,8.53-34.75,1.6-11.45,3.31-22.54,3.66-34.14,1.17-39.48-7.02-88.68-20.12-125.57-7.12,9.29,9.05,70.16,7.92,73.76-.15.47-2.23.91-3.66,1.83-4.31-17.18-11.66-43.54-14.63-59.13-3.78-19.87-.21-42.58-9.75-40.84.32-29.32,2.41-58.47,2.44-87.78,10.58-2.16,4.22,7.49,6.1,12.8,3.3,9.35,10.64-11.07,19.51,5.49Z" style="fill:#474655; stroke-width:0px;"/><path d="m770.55,193.9c-1.17.17-2.81-.28-3.66,0-3.82,1.26.58,77.89-3.05,80.46-13.6,9.66-14.88-54.71-18.9-62.79-6.99,9.14,6.55,46.82,10.97,65.83.15.64-3.88,2.97,3.66,11.58-5.14,4.86-1.22,22.31-2.44,30.48-11.86-.18-11.36-20.08-12.19-21.34-1.31-1.97-2.67.79-3.66.61-.25-.05,1.39-.53-4.88-1.22l-6.1-18.29c-.43-2.1.12-1.72,0-2.44-1.12-6.92-5.25-20.31-4.88-21.34.87-2.4,4.67-1.48,4.88-2.44.4-1.85,2.1-36.12,1.22-37.79-1.56-2.97-5.29-1.1-6.1-2.44-.92-1.52,3.19-33.46,2.44-35.36-2.19-5.51-6.16,6.14-7.31-18.9,3.74-7.97,2.18-16.07,1.22-24.38-.09-.79.09-1.64,0-2.44-.04-.4.04-.82,0-1.22,1.56-.5,1.7-2.47,2.44-3.66,6.67-10.69,7.61-22.5,14.63-32.92,1.35,2.52,3.33-1.75,3.66-3.66,2.83-.39,5.56,8.33,6.1,10.36,9.52,35.88.7,53.4,2.44,89,1.01,20.73,8.71,70.43,7.31,41.45-1.42-29.51-8.48-59.23-3.66-89,2.31,10.89,15.16,39.84,15.85,42.67.59,2.42-.58,6.67,0,9.14Z" style="fill:#353234; stroke-width:0px;"/><path d="m560.85,295.09l3.66,2.44c1.23,10.86,8.25,38.18,9.75,9.75l14.63,6.1c-.22,27.56-1.9,82.18,2.44,106.07-7.75,3.99-5.95-1.06-9.14,0-2.23.74-2.49,18.2-26.21,4.88-.82-1.93-2.58-3.03-3.66-4.88q-1.22-14.63-2.44-29.26c3.21,1.26,3.32,3.82,1.22-18.9-1.79-19.35-3.95-39.19-6.1-58.52-.02-.19-1.67-3.05-2.44-3.05,1.39-7.69,1.28-14.19,1.22-21.94,3.17-2.69,4.49.8,5.49,0,1.64-1.31-.7-5.84,1.83-6.1,4.33,58.32,14.51,61.14,9.75,13.41Z" style="fill:#3e3e47; stroke-width:0px;"/><path d="m563.29,197.56c12.85-1.3,7.7,18.58,8.53,41.45.4,10.93.95,22,1.22,32.92-12.39,7.1-5.82,10.76-6.1,20.12-.16,5.4-2.57,4.35-2.44,5.49l-3.66-2.44c-.45-4.56-6.02-40.37-7.31-42.06-6.53-8.54-2.59,26.55-2.44,28.65-2.53.26-.19,4.79-1.83,6.1-1,.8-2.31-2.69-5.49,0-.15-18.66,1.52-26.45-7.31-19.51-.06-.78-5.05-.6-4.88-13.41.03-2.22,6.96-25.04,7.31-43.89.19-9.72,2.93-10.17-6.1-10.97q5.49-19.51,10.97-39.01c3.99-.18,16.22,4.05,17.07,7.92-1.59,10.29-1.86,22.57-1.22,32.92,2.05,32.98,3.31,23.25,3.66-4.27Z" style="fill:#474655; stroke-width:0px;"/><path d="m659.6,541.36c-8.41-45.33-5.2-91.71,7.31-135.94-11.18-22.66-6.35-35.23-6.1-57.91.13-11.51.77-22.67,1.22-34.14l4.88-4.27c3.03,29.1-10.15,85.32,7.31,97.53q3.05,23.16,6.1,46.33c-13.18-10.7-5.76,38.95-6.1,58.52-13.78-10.85-1.75,14.11-7.31,25.6-1.07,2.2-7.02,3.97-7.31,4.27Z" style="fill:#6d6f7e; stroke-width:0px;"/><path d="m969.27,587.69c3.55,7.31-2.32,4.82-17.07,10.97-4.11,1.71-6.81,3.49-7.31,3.66-2.37-8.03-24.61-5.44-44.5-14.63-2.63-1.21-36.71-23.55-39.01-25.6-8.86-7.92-6.27-9.25-6.71-9.75,4.25.98,3.14-2.05,4.88-2.44,4.02-.89,5.68,4.08,13.41-9.75,9.79,19.39-2.79,4.96-3.66,11.58,19.2,14.72,7.48,9.15,17.07-12.8,7.47-17.12,5.63-2.31,8.53,1.83,3.1,4.43,10.98,8.3,12.19,18.29,3.48,28.71-23.35,16.13,62.18,28.65Z" style="fill:#26142a; stroke-width:0px;"/><path d="m618.15,148.79c2.04,4.69,6.48,12.43,7.31,14.63.28.74-1.13,3.16,3.66,6.71-.42.59-2.5,2.24-2.44,2.44,6.5,21.83,4.55,9.74,7.92,11.58,2.71,1.48-2.28,20.58,12.8,41.45-.31,19.54.05,39.01,1.22,58.52-3.42,1.34-14.18-25.52-17.07-33.53-4.39-12.18-8.96-34.96-13.41-43.28,7.01-1.32,1.71-11.29,0-19.51-2.37-11.38-11.74-39.93,0-39.01Z" style="fill:#474655; stroke-width:0px;"/><path d="m770.55,193.9c.41,1.75-1.95,3.33-1.22,6.71.19.85,2.88.36,6.1,15.24,1.58,7.31-1.02,17.36,4.88,20.73-2.16,9.75,1.83,19.54,1.22,29.26,1.73,16.8-3.55,16.72-3.66,17.68-.83,7.53,1.28,8.11,1.22,8.53-1.52,11.5-7.28,27.13-7.31,40.23h-2.44l-3.66-10.97h-2.44q3.05,13.41,6.1,26.82h-2.44c-1.49-21.24-2.31,4.46-4.88,0-2.93-15.71-.21-23.53,0-28.65.45-10.9.68-22.08,1.22-32.92,1.53-30.75,6.21-61.55,3.66-92.66.85-.28,2.49.17,3.66,0Z" style="fill:#3e3e47; stroke-width:0px;"/><path d="m570.6,134.16c.48,11.31,3.37,22.69,2.44,34.14-12.97-7.49-9.53,11.67-9.75,29.26-.35,27.51-1.61,37.25-3.66,4.27-.64-10.35-.37-22.63,1.22-32.92-.85-3.88-13.08-8.11-17.07-7.92-.24-6.65,7.64-13.14,0-17.07.89-1.65,1.18-1.14,1.22-1.22.2-.38,2.14,2.47,3.66-.61,1-2.02,3.67-10.45,4.88-14.02,8.44,2.75,16.28,2.56,17.07,6.1Z" style="fill:#27252c; stroke-width:0px;"/><path d="m654.73,234.13l1.22,70.1,1.83-5.49c1.73,4.69-1.67,8.19,4.27,9.75-.07,1.72.06,3.46,0,4.88-.45,11.47-1.09,22.63-1.22,34.14-9.39,2.34-11.14-45.8-12.19-63.4-1.17-19.51-1.53-38.98-1.22-58.52,1.9,2.63,5.23,5.88,7.31,8.53Z" style="fill:#3e3e47; stroke-width:0px;"/><path d="m549.88,390.19c-2.54-1-2.12-3.34-4.88-1.22-2.23-10.69-10.68-36.04-15.85-46.33,7.22-12.62,10.77-18.29,13.41-32.92.77,0,2.42,2.85,2.44,3.05,2.15,19.32,4.3,39.17,6.1,58.52,2.1,22.72,1.99,20.16-1.22,18.9Z" style="fill:#60626c; stroke-width:0px;"/><path d="m796.15,219.5c-2.61,13.74-10.09,30.27-9.75,46.33-1.06.38-3.38-.24-4.88,0,.61-9.72-3.38-19.51-1.22-29.26,2-9.01,5.82-12.9,5.49-1.22,8.99-9.8-.35-8.09-.61-9.14-4.66-19.1,8.7-93.85,8.53-29.26,8.18,2.45,4.25,13,2.44,22.55Z" style="stroke-width:0px;"/><path d="m662.04,308.5c-5.94-1.56-2.54-5.06-4.27-9.75l-1.83,5.49-1.22-70.1c1.04,1.33,6.47,4.05,8.53,5.49,6.11,30.63-.42,50.15-1.22,68.88Z" style="fill:#60626c; stroke-width:0px;"/><path d="m802.24,224.38h-1.22c.22-1.15-.22-2.51,0-3.66.4-2.07-1.78-2.92-1.22-5.49,1.33-6.12,16.85-46.03,17.07-57.3.18-9.61-10.89,9.38-3.66-4.27.92-1.74,7.53-9.61,7.31-10.36-11.13-6.52,3.28-26.02,4.88-10.97,1.03,9.66-17.18,76.4-23.16,92.05Z" style="fill:#170c10; stroke-width:0px;"/><path d="m730.31,276.8c.12.72-.43.34,0,2.44.68,3.26,2.4,20.03,5.49,20.73.93.21.48-2.45.61-2.44,6.27.69,4.63,1.17,4.88,1.22-5.94,3.09,3.43,11.06-3.05,10.97-5.04-.06-10.49-16.6-14.63-9.75-3.86-11.91-2.36-24.38.61-36.57,3.32,4.75,2.81,9.08,6.1,13.41Z" style="fill:#3e3e47; stroke-width:0px;"/><path d="m538.91,210.97c-.36,18.85-7.28,41.67-7.31,43.89h-3.66c.43-20.04,1.35-33.66,4.88-53.64,5.34,1.14,3.42,6.23,6.1,9.75Z" style="fill:#3e3e47; stroke-width:0px;"/><path d="m801.02,220.72c-.22,1.15.22,2.5,0,3.66-.59,3.1-4.29,8.91-4.88,12.8-1.08,7.11,5.51,23.19-9.75,28.65-.33-16.05,7.14-32.59,9.75-46.33l4.88,1.22Z" style="fill:#3e3e47; stroke-width:0px;"/><path d="m762.01,319.47c-1.63-.02-3.25.02-4.88,0,1.22-8.16-2.7-25.62,2.44-30.48.16-.15,1.41.89,3.66-2.44-.54,10.84-.77,22.02-1.22,32.92Z" style="stroke-width:0px;"/><path d="m859.54,549.89c-1.74.39-.63,3.42-4.88,2.44-.4-.46.96-3.64-1.22-3.66,5.21-3.23-3.49-8.24.61-10.97l5.49,12.19Z" style="fill:#3b3e47; stroke-width:0px;"/><path d="m401.14,564.52c-2.22,2.15-7.06,7.43-8.53,8.53-.97-7.41,1.07-11.76,8.53-8.53Z" style="fill:#29a16f; stroke-width:0px;"/><path d="m538.91,210.97c-2.68-3.52-.75-8.61-6.1-9.75.07-.39-.07-.83,0-1.22,9.03.8,6.28,1.26,6.1,10.97Z" style="fill:#3e3e47; stroke-width:0px;"/><path d="m128.05,200c7.02,16.23,12.5,32.97,21.94,48.16,1.64,1.68,1.12-1.87,1.22-1.83,2.06.87,1.91,2.28,4.88,2.44,3.51,5.63,11.02,13.8,15.85,18.29-3.79-.68-3.58,20.73-4.88,22.55-.72,1.01-21.58,7.9-23.16,4.88-9.82-65.24-16.36,59.34-23.16,74.37-2.96,6.54-15.2,9.53-20.12,7.92-4.37-1.42,1.15-9.07-5.49-7.31-.83-8.52,2.39-24.51-8.53-27.43l5.49,127.4-4.27,1.83c-6.4-7.09-2.46-105.91-3.66-121.92-.42-5.61-4.92-15.39-1.22-17.07-3.34,1.01-4.15-11.12-7.31-2.44-2.68,7.36-8.32,67.12-13.41,85.34-6.19-20.48,7.9-58.25-.61-60.35-4.76,18.09-11.81,35.34-17.68,53.03-1.36,4.11-2.3,13.48-2.44,18.29-4.99,7.17-12.04,9.67-19.51,14.02.09-.39-.09-.83,0-1.22,1.99-8.97,5.03-17.88,7.31-26.82,3.81-14.9,6.64-30.37,10.97-45.11,5.84-19.87,15.27-39.46,21.94-59.13,5.09-14.82,6.95-30.71,10.97-45.72,3.44.6,7.12-6.9,8.53-.61.72,3.22-16.73,73.34-4.88,62.18,3.37-3.17,7.03-55.83,14.63-91.44.28-1.32-.63-20.62,7.31-15.85.35.21,3.58,6.91,3.66,7.31.84,4.17-2.75,79.05-1.22,82.9.3.75,2.29,1.98,3.05,3.05l1.83-1.83c1.26-13.51-.17-88.23,1.22-92.66.51-1.62,3.93-.96,4.27-5.49,6.09-2.88,6.32,58.87,7.92,61.57.48.81,2.62.9,3.05.61,2.34-1.6.33-49.43.61-56.69,0-.22,2.43-3.44,2.44-3.66.04-.69-4.63-11.34,2.44-11.58Z" style="fill:#3e3e47; stroke-width:0px;"/><path d="m152.43,401.16c-3.38-5.71-11.9,19.73-14.63,29.87-7.83,29.03-9.64,60.55-18.29,89.61-2.95,3.66-6.55,11.27-10.97,15.24.8,19.15-4.03-15.27-5.49-15.24q-.3,9.45-.61,18.9c-13.18-1.55-1.65-29.1-12.19-42.06,10.37-35.16,8.49-90.91,4.88-128.01,6.64-1.75,1.12,5.89,5.49,7.31,4.92,1.6,17.15-1.38,20.12-7.92,6.81-15.03,13.35-139.61,23.16-74.37,1.59,3.02,22.45-3.87,23.16-4.88,1.3-1.82,1.09-23.23,4.88-22.55,1.81,1.68,10.79,11.07,11.58,10.97,8.32-.97-23.36-25.21-12.19-23.16,1.27.23,16.14,15.56,18.9,17.68-2.71,23.66-3.64,46.98-9.14,70.1,2.74-43.58-6.34-8.34-1.83,12.8-22.08,74.5-1.72,2.01-3.66-6.1-.96-4.03-3.29,1.41-3.66,0-.86-3.34,3.79-12.14-.61-14.02-8.61-3.67-9.13,23.43-10.36,27.43-2.02,6.56-10.76,25.6-10.97,28.04-.49,5.64,2.13,7.07,2.44,10.36Z" style="fill:#474655; stroke-width:0px;"/><path d="m95.13,369.46c3.61,37.1,5.49,92.85-4.88,128.01-7.72.06-5.62,35.79-13.41,49.38-2.71,4.72-11.31,10.07-15.24,15.24,2-3.15-5.94-20.58-7.31-20.73-.98-.1-7.96,11.1-5.49-3.05.3-1.71,6.3-3.96,6.1-32.92-2.91-7.05-8.39,36.87-15.85,28.04-.22-.27.1-5.56-1.83-6.71-.37-.22-2.42,4.61-6.71-.61-2.7-3.29-.59-21.99-4.88-3.66-23.95-20.93-9.72-54.73-3.66-82.29,7.47-4.35,14.51-6.85,19.51-14.02.14-4.8,1.07-14.18,2.44-18.29,5.87-17.69,12.92-34.95,17.68-53.03,8.51,2.1-5.58,39.87.61,60.35,5.09-18.22,10.73-77.98,13.41-85.34,3.17-8.68,3.98,3.45,7.31,2.44-3.7,1.68.8,11.46,1.22,17.07,1.2,16-2.74,114.82,3.66,121.92l4.27-1.83-5.49-127.4c10.93,2.92,7.7,18.91,8.53,27.43Z" style="fill:#474655; stroke-width:0px;"/><path d="m113.42,170.74c-9.33-3.98-.39,28.04-7.92,28.04s2.08-37.12-7.92-22.55c-9.31,13.55-15.18,48.42-19.51,65.22-1.38-.89-4.2-1.46-4.88-3.05-1.55-3.66,9.2-71.68,6.1-79.25-2.82-6.89-5.66,7.78-7.31,2.44,4.49-23.89,1.15-48.65,3.66-72.54,9.13-25.19,15.27-15.08,24.38,17.68,4.69,16.86,6.8,44.89,13.41,64.01Z" style="fill:#27252c; stroke-width:0px;"/><path d="m113.42,170.74c7.53,8.11,10.28,16.57,14.63,26.82.23.54-.23,1.91,0,2.44-7.07.24-2.4,10.89-2.44,11.58-.01.22-2.43,3.44-2.44,3.66-.28,7.26,1.73,55.09-.61,56.69-.43.29-2.57.2-3.05-.61-1.61-2.7-1.84-64.45-7.92-61.57-.33,4.52-3.76,3.87-4.27,5.49-1.39,4.42.04,79.14-1.22,92.66l-1.83,1.83c-.76-1.06-2.75-2.3-3.05-3.05-1.53-3.85,2.06-78.73,1.22-82.9-.08-.4-3.31-7.1-3.66-7.31-7.94-4.77-7.03,14.53-7.31,15.85-7.6,35.6-11.26,88.26-14.63,91.44-11.85,11.17,5.6-58.96,4.88-62.18-1.42-6.29-5.1,1.21-8.53.61,1.84-6.89,3.11-13.87,4.88-20.73,4.32-16.81,10.2-51.68,19.51-65.22,10.01-14.57.25,22.55,7.92,22.55s-1.4-32.02,7.92-28.04Z" style="fill:#27252c; stroke-width:0px;"/><path d="m152.43,401.16c.04.41,3.49-.12,2.44,7.92-4.95,20.04,6.12,16.82,0,57.91-8-14.94-16.8,29.94-18.29,45.72-.48,5.06-1.18,14.52,1.22,14.02-.83,2.19-6.79,21-7.92,20.73-7.76-22.83,9.26-51.14-10.36-26.82,8.65-29.05,10.46-60.58,18.29-89.61,2.73-10.14,11.25-35.58,14.63-29.87Z" style="fill:#474655; stroke-width:0px;"/><path d="m334.09,160.98c-1.48,5.49-4.77,12.13-4.88,12.8-.13.77,2.45,1.68,2.44,1.83-.13,1.24-4.07,8.13,0,17.07-.37,5.06.43,9.97,2.44,14.63-4.94-2.02.79-4.73-9.75-6.1.08-5.07-5.37-9.59-7.31-2.44l-4.88-2.44c2.59-7.35,3.5-15.67,6.1-23.16,10.53-30.33,7.14-18.11,15.85-12.19Z" style="fill:#6b665f; stroke-width:0px;"/><path d="m154.87,466.99c-2.95,19.77-9.99,41.09-17.07,59.74-2.4.5-1.7-8.96-1.22-14.02,1.49-15.78,10.29-60.66,18.29-45.72Z" style="fill:#60626c; stroke-width:0px;"/><path d="m70.75.06c-1.15,6.95,3.5,36.84,4.88,39.62,1.57,3.16,21.12,2.29-2.44,47.55,1.43,1.95,2.45,1.68,2.44,1.83-2.5,23.89.83,48.65-3.66,72.54,1.65,5.34,4.49-9.32,7.31-2.44,3.1,7.57-7.65,75.58-6.1,79.25.67,1.59,3.5,2.16,4.88,3.05-1.76,6.85-3.03,13.84-4.88,20.73-4.02,15.01-5.89,30.9-10.97,45.72-6.68,19.66-16.1,39.26-21.94,59.13-9.81-7.33-2.1-21.53-3.05-31.7-3.46-.64-15.05,61.6-15.24,67.05-.53-1.37-2.46-1.98-3.66-2.44-.25-.1.85-2.84-1.22-1.83-3.7,1.8-12.02,26.76-17.07,15.24,0-1.63,0-3.25,0-4.88,12.17-19.56,16.05-77.42,0-20.73-.01-18.29-.02-36.57,0-54.86,6.82-3.54,14.54-45.73,10.36-46.33L.04,299.97c.02-24.79-.03-49.58,0-74.37,23.5-34.96,19.39-64.38,0-14.63.03-21.13-.05-42.26,0-63.4,11.72-17.14,9.26-26.35,9.75-29.87.08-.58,2.42-4.02,2.44-4.27,4.95,6.23,3.35,1.69,8.53-7.31,5.17-8.98,16.24-28.01,19.51-35.97C49.78,47.04,51.44,20.92,64.66.06c2.03-.02,4.06.01,6.1,0Z" style="fill:#27252c; stroke-width:0px;"/><path d="m.04,225.6c0-4.88,0-9.75,0-14.63,19.39-49.75,23.5-20.34,0,14.63Z" style="stroke-width:0px;"/><path d="m.04,408.47c0-6.91,0-13.82,0-20.73,16.05-56.69,12.17,1.17,0,20.73Z" style="stroke-width:0px;"/><path d="m56.73,46.38l1.83.61q-5.49,18.9-10.97,37.79c7.4,7.77-1.85,48.21-8.53,53.64-14.95,12.15,2.84-17.43-2.44-35.36,7.55-18.68,10.25-39.07,20.12-56.69Z" style="stroke-width:0px;"/><path d="m40.27,367.02c-4.33,14.74-7.16,30.21-10.97,45.11-7.94,3.53-7.58-2.24-7.31-9.75.19-5.45,11.78-67.69,15.24-67.05.94,10.17-6.77,24.37,3.05,31.7Z" style="fill:#27252c; stroke-width:0px;"/><path d="m317.02,121.97c-1.72,5.72-2.89,11.36-4.88,17.07-2.33-8.32-8.75-22.62,4.88-17.07Z" style="fill:#f3a872; stroke-width:0px;"/><path d="m852.23,320.69c2.3,29.94,8.38,60.05,5.49,90.22-8.02-13.92-32.29-103.1-38.4-108.5-1.25-1.1-3.46-1.46-4.88-2.44,6.02-28.68,13.72-56.62,21.94-84.73.27-.92-2.03-3.04-1.22-7.31,6.7.64,7.12-17.14,12.8-12.8,2.21,1.68-1.99,48.43-1.83,55.47.53,23.53,4.31,46.75,6.1,70.1Z" style="fill:#6d6f7e; stroke-width:0px;"/><path d="m865.64,295.09c.12,11.61-2.04,23.1-1.22,34.75l10.97-5.49c6.94,26.67.19,55.82,6.1,81.68-.78,4.42-.79,7.86-1.22,12.19-.6,6.11-2.05,12.05-1.22,18.29-.83-3.27-1.37-10.65-1.83-10.97-3.06-2.16-11.87,4.17-16.46,1.22v-6.71c-23.07-39.89-30.73-78.11-41.45-117.65,6.11,5.4,30.38,94.58,38.4,108.5,2.9-30.16-3.19-60.28-5.49-90.22,1.83.25,3.62-6.29,3.66-6.71.93-11.48-2.29-81.24-1.22-112.77,2.4.69,7.23-6.68,9.75-1.83,2.21,4.25,1.08,82.52,1.22,95.7Z" style="fill:#474655; stroke-width:0px;"/><path d="m870.52,150.01c-.28,32.12-1.73,64.17-1.22,96.31.25,15.85,1.8,31.63.61,47.55,9.9-1.57,12.66-22.82,17.68-32.92-.48,8.18-1.11,9.63-2.44,17.07-.96,5.36-2.61,10.48-3.66,15.85-10.67-5.14-7.95,9.44-15.85,1.22-.14-13.18.99-91.46-1.22-95.7-2.53-4.85-7.36,2.51-9.75,1.83.55-16.25,1.84-39.18,3.66-54.86l12.19,3.66Z" style="fill:#474655; stroke-width:0px;"/><path d="m812,111c-.17,7.36-1.11,14.52-1.22,21.94-5.36-2.53-10.21-35.35,1.22-21.94Z" style="stroke-width:0px;"/><path d="m907.09.06c-18.48,72.56-39.78,68.87-48.77,146.3-1.82,15.68-3.11,38.61-3.66,54.86-1.07,31.53,2.15,101.29,1.22,112.77-.03.41-1.83,6.96-3.66,6.71-1.79-23.35-5.56-46.57-6.1-70.1-.16-7.05,4.03-53.79,1.83-55.47-5.68-4.33-6.1,13.44-12.8,12.8-.82,4.27,1.49,6.39,1.22,7.31-8.22,28.11-15.93,56.05-21.94,84.73-.51,2.44-.75,4.95-1.22,7.31-9.89-20.34-9.58,2.37-12.8,2.44-3.61-4.39.83-9.94-5.49-10.36q3.66-37.49,7.31-74.98c5.99-15.65,24.19-82.38,23.16-92.05-1.6-15.05-16,4.45-4.88,10.97.21.76-6.39,8.63-7.31,10.36-3.67-2.73-2.55-13.17-2.44-20.73.11-7.42,1.05-14.58,1.22-21.94.11-4.49-.24-9.12,0-13.41.4-7.07-.29-14.25,0-21.34q5.49-38.1,10.97-76.2c28.04.02,56.08-.03,84.12,0Z" style="fill:url(#g); stroke-width:0px;"/><path d="m852.84,107.34q-2.44,29.26-4.88,58.52c-7.08,5.42,3.72-55.39,4.88-58.52Z" style="fill:#a49661; stroke-width:0px;"/><path d="m854.06,39.07c-1.68,8.5-4.72,22.22-7.92,29.87-13.22,31.58-7.51,1.44,7.92-29.87Z" style="fill:#170c10; stroke-width:0px;"/><path d="m827.24,95.15q-.61,15.85-1.22,31.7c-9.18-4.49-.6-20.04,1.22-31.7Z" style="stroke-width:0px;"/><path d="m753.48,71.99c3.09,5.72.51,36.56,1.22,38.4,1.23,3.19,5.04-.92,6.1,1.22.97,1.98,2.31,36.61,4.88,43.89,5.76,16.35,9.91-19.98,12.8,14.02,10.87-31.5-3.1-33.45-4.27-38.4-4.63-19.61,2.32-60.68,1.22-7.31,11.6-.28,5.54-22.04,4.88-42.67,12.09-2.62,4.29,10.94,3.66,39.01,0,.44,2.45,2,2.44,2.44-.21,9.87-2.43,10.41-2.44,10.97-.35,20.39,1.2,52.5,0,69.49-1.49,21.14-3,6.98-8.53,12.8-3.21-14.88-5.91-14.39-6.1-15.24-.73-3.38,1.63-4.95,1.22-6.71-.58-2.48.59-6.72,0-9.14-.69-2.83-13.54-31.78-15.85-42.67-4.83,29.77,2.23,59.49,3.66,89,1.4,28.98-6.3-20.72-7.31-41.45-1.74-35.6,7.08-53.12-2.44-89-.54-2.04-3.26-10.75-6.1-10.36,1.59-9.41.81-29.08,4.88-42.06-.34,21.96-1.98,58.31,4.88,35.36.17-.56.84-8.63,1.22-11.58Z" style="stroke-width:0px;"/><path d="m918.06,130.51c-4.53,45.16-7.17,44.99,12.19,17.68-6.57,12.06-1.75,25.01-2.44,37.18-.35,6.19-2.69,10.3-4.88,15.85-2.16-.39-5,.27-7.31,0,.38-1.26,1.6-11.58.61-12.19-16.62,15.75-9.95,32.04-9.75,52.42,1.17-.15.29-2.58.61-3.66.66.17,1.99.87,2.44,1.22-5.17,8.11-4.65,12.73-4.88,13.41-.2.61-3.57-.64-2.44,11.58-5.78,2.74-12.75,12.89-17.07,14.02,1.33-7.44,1.96-8.89,2.44-17.07.46-7.85-.95-21.11,0-29.87-7.82-5.43-4.88,12.13-10.97,11.58,11.32-34.68,12.23-94.15,23.16-122.52,11.87-30.8,4.05,2.15,18.29,10.36Z" style="fill:#5d5c63; stroke-width:0px;"/><path d="m871.74,246.33c-.26-.16-1.46.09-2.44,0-.51-32.14.94-64.19,1.22-96.31h1.22c.08,1.05,2.4,5.88,2.44,9.14h2.44c.71-11.19,6.56-20.66,9.75-31.09.94.51,3.63,5.16,3.66,5.49,1,12.82-13.19,91.79-18.29,112.77Z" style="fill:#60626c; stroke-width:0px;"/><path d="m887.58,260.96c-5.02,10.09-7.78,31.34-17.68,32.92,1.19-15.91-.36-31.7-.61-47.55.98.09,2.18-.16,2.44,0,2.31,1.36.88,8.6,4.88-3.66,6.1.55,3.15-17.02,10.97-11.58-.95,8.76.46,22.02,0,29.87Z" style="fill:#6d6f7e; stroke-width:0px;"/><path d="m886.37,128.07c-3.19,10.43-9.04,19.9-9.75,31.09h-2.44c-.04-3.26-2.36-8.09-2.44-9.14-.11-1.49.85-8.96,1.22-10.36.84-3.2,24.51-47.88,13.41-11.58Z" style="fill:#f3a872; stroke-width:0px;"/><path d="m601.08.06l6.71,52.42c6.46,4.92-.68-42.91,6.71-37.18,1.89,1.46,4.23,21.37,9.75,6.71,4.44,16.41.22,15.68,15.85,27.43-1.44,13.05,8.34,22.97,13.41,34.14-4.39,19.97,7.2,52.89-2.44,63.4-.78,12.2,13.58,5.38,3.05,22.55-12.81-14.57-9.06-4.48-10.97-3.66-6.46,2.78-20.7-44.1-22.55-49.38-2.36-6.71-16.53-23.14-6.1-35.36-12.28-3.96-7.96,16.81-6.1,26.21-2.67,3.71-1.55,8.13-1.22,12.19.09,1.13-1.35,1.33-1.22,2.44-.28-.56-4.97-3.81-8.53-9.14-1.62-19.23-7.91-37.5-9.75-56.69.82.01,2.22.3,2.44-.61,1.6-6.69,1.72-44.76,0-55.47,3.66,0,7.31,0,10.97,0Z" style="fill:#302a28; stroke-width:0px;"/><path d="m618.15.06c2.68,7.15,4.11,14.61,6.1,21.94-5.52,14.67-7.87-5.24-9.75-6.71-7.38-5.73-.25,42.11-6.71,37.18L601.08.06c5.69,0,11.38,0,17.07,0Z" style="stroke-width:0px;"/><path d="m638.27,109.78c11.2-5.75,14.56,9.49,10.97,12.19-.31.23-4-3.54-6.1-4.88-.18-.12-2.64,2.86-4.27.61-.23-.32-.96-7.74-.61-7.92Z" style="stroke-width:0px;"/><path d="m591.33,169.52c-.05,6.57,1.37,12.94,1.22,19.51-.03,29.31-2.11,58.46-2.44,87.78-.14,12.2-1.12,24.46-1.22,36.57l-14.63-6.1c.63-11.88-.93-23.53-1.22-35.36-.27-10.92-.82-21.99-1.22-32.92,6.09-.87,6.47-26.23,7.31-27.43,2.98-4.24,6.38.8,7.31-1.22.8-1.74,3.11-33.75-4.27-35.97-2.58.15-4.48,21.55-6.71-4.88-1.09-12.97-.88-33.42-1.22-47.55,13.82-2.4,5.22,45.81,17.07,47.55Z" style="fill:#27252c; stroke-width:0px;"/><path d="m613.27,137.82c1.68,3.57,3.3,7.35,4.88,10.97-11.74-.91-2.37,27.63,0,39.01-7.75,5.57-12.75-11.27-20.73-14.02,1.99-4.47.44-6.13-4.88-5.49.11-9.27-5.59-43.01,11.58-24.38l9.14-6.1Z" style="fill:#27252c; stroke-width:0px;"/><path d="m618.15,187.81c1.71,8.21,7.01,18.19,0,19.51-8.87-16.55-16.2,3.86-19.51-5.49-1.88-5.31,4.48-14.96-6.1-12.8.16-6.57-1.27-12.94-1.22-19.51.01-1.59,1.22-1.13,1.22-1.22,5.31-.64,6.87,1.02,4.88,5.49,7.98,2.75,12.97,19.59,20.73,14.02Z" style="fill:#3e3e47; stroke-width:0px;"/><path d="m574.26,121.97c.34,14.13.13,34.57,1.22,47.55-2.84.45-2.32-1.15-2.44-1.22.94-11.44-1.95-22.83-2.44-34.14-.36-8.5,0-52.91,1.22-56.69.21-.64,2.11-2.44,2.44-1.22.27,15.23-.36,30.5,0,45.72Z" style="fill:#302a28; stroke-width:0px;"/><path d="m555.97.06c-1.38,20.82,3.36,59.32-14.63,69.49,4.41-23.88,3.2-45.49,2.44-69.49,4.06,0,8.13,0,12.19,0Z" style="stroke-width:0px;"/><path d="m568.17.06c.19,2.4-.28,4.94,0,7.31l-9.75,30.48c-2.31-11.51,1.68-25.95,0-37.79,3.25,0,6.5,0,9.75,0Z" style="stroke-width:0px;"/><path d="m558.41,37.85l9.75-30.48c2.78,23.52-6.19,48.2-9.75,30.48Z" style="fill:#170c10; stroke-width:0px;"/><path d="m553.54,128.07c-1.21,3.57-3.88,12-4.88,14.02-1.52,3.08-3.46.23-3.66.61-.39-11.16,20.72-50.59,8.53-14.63Z" style="stroke-width:0px;"/><path d="m299.95,537.7l20.73,28.04c-2.04.95-4.08,1.59-6.1,2.44-15.22,2.95-8.39-.49-14.63-6.71-9.36-9.32-19.83-18.77-23.16-31.7-.5-2.63,2.44-1.68,2.44-1.83-.11-2.84-1.8-17.38,1.83-17.07,1.7.14,1.67,16.77,18.9,26.82Z" style="fill:#170c10; stroke-width:0px;"/><path d="m319.46,543.8c5.1,4.07,10.67,9.78,15.85,14.02,0,1.32-12.41,6.89-14.63,7.92l-20.73-28.04,2.44-.61c-17.62-21.72-.7-34.07-2.44-6.1,6.54,4.18,13.41,7.93,19.51,12.8Z" style="fill:#170c10; stroke-width:0px;"/><path d="m340.18,245.11c-2.19-1.43-4.85-1.59-7.31-1.22,19.27-39.34,10.05-19.92,15.24-18.29,4.5,1.42,25.92-26.25,27.43-31.7,6.13-4.21,9.04-11.5,13.41-17.07-4.05,19.03-28.48,45.41-45.11,56.69l-3.66,11.58Z" style="fill:#cbc774; stroke-width:0px;"/><path d="m431.62,508.44l-2.44-1.22c2.57-6.73,2.33-6.1,2.44,1.22Z" style="fill:#24262e; stroke-width:0px;"/><path d="m448.69,309.72c1.6,3.52,10.67,23.08,10.97,24.38.6,2.62.61,21.12-2.44,18.9-6.07-17.99-10.72-36.34-17.07-54.25,1.31-6.23,6.85,7.27,8.53,10.97Z" style="fill:#170c10; stroke-width:0px;"/><path d="m292.03,499.91c.17,1.43,3.88,9.19,2.44,9.75-2.56,1-4.85-5.43-2.44-9.75Z" style="fill:#4e515c; stroke-width:0px;"/><path d="m404.8,545.02c-.75.75-2.62-1.28-4.88-1.22,3.29-11.88,5.38.71,4.88,1.22Z" style="fill:#14131e; stroke-width:0px;"/><path d="m614.49,376.77c3.33,13.29,7.62,26.37,10.97,39.62,2.07,8.2-2.69,11.59,4.88,10.36-.34,11.59-2.06,22.69-3.66,34.14-12.14-11.52-10.41,28.99-12.19,39.01-.35,1.94.75,6.14-.61,7.31-5.92,5.11-12.79-56.07-12.8-60.35-5-8.16-8.07-18.15-9.75-27.43-4.34-23.89-2.66-78.5-2.44-106.07.1-12.11,1.08-24.37,1.22-36.57,9.55-1.74,5.97,20.97,9.75,40.84,2.97,15.59,10.32,41.94,14.63,59.13Z" style="fill:#6d6f7e; stroke-width:0px;"/><path d="m630.34,426.76c-7.56,1.23-2.8-2.16-4.88-10.36-3.35-13.25-7.64-26.33-10.97-39.62,1.43-.91,3.51-1.36,3.66-1.83,1.13-3.6-15.04-64.47-7.92-73.76,13.09,36.9,21.28,86.09,20.12,125.57Z" style="fill:#60626c; stroke-width:0px;"/><path d="m626.69,460.9c-1.79,12.82-4.72,22.56-8.53,34.75-.4,1.27,4.64,7.64-3.66,4.27,1.79-10.02.05-50.53,12.19-39.01Z" style="fill:#60626c; stroke-width:0px;"/><path d="m879.05,436.51c7.8,30.75,1.39,58.7,3.66,89.61.24,3.25.97,13.61,3.66,12.8-9.58,21.95,2.14,27.52-17.07,12.8.87-6.62,13.45,7.81,3.66-11.58-3.81-7.54-5.31,14.14-8.53-4.27-4.07-23.25,2.12-78.79-3.66-109.11,4.59,2.95,13.4-3.38,16.46-1.22.45.32,1,7.7,1.83,10.97Z" style="fill:#60626c; stroke-width:0px;"/><path d="m766.89,193.9c2.55,31.11-2.13,61.91-3.66,92.66-2.25,3.33-3.5,2.29-3.66,2.44-7.54-8.61-3.51-10.94-3.66-11.58-4.42-19.01-17.97-56.69-10.97-65.83,4.01,8.08,5.3,72.45,18.9,62.79,3.63-2.58-.77-79.2,3.05-80.46Z" style="fill:#27252c; stroke-width:0px;"/><path d="m736.41,297.53c-.12-.01.32,2.65-.61,2.44-3.09-.69-4.81-17.47-5.49-20.73l6.1,18.29Z" style="fill:#27252c; stroke-width:0px;"/><path d="m549.88,390.19q1.22,14.63,2.44,29.26c-.19-.32-5.47-2.24-6.1-4.27-.78-2.54.99-15.61-1.22-26.21,2.76-2.12,2.34.22,4.88,1.22Z" style="fill:#27252c; stroke-width:0px;"/><path d="m560.85,295.09c4.75,47.73-5.42,44.91-9.75-13.41-.16-2.1-4.09-37.19,2.44-28.65,1.3,1.7,6.86,37.5,7.31,42.06Z" style="fill:#474655; stroke-width:0px;"/><path d="m574.26,307.28c-1.5,28.42-8.52,1.1-9.75-9.75-.13-1.14,2.28-.09,2.44-5.49.28-9.35-6.3-13.01,6.1-20.12.29,11.82,1.85,23.48,1.22,35.36Z" style="fill:#474655; stroke-width:0px;"/><path d="m573.04,168.3c.12.07-.4,1.67,2.44,1.22,2.22,26.42,4.13,5.02,6.71,4.88,7.37,2.21,5.07,34.23,4.27,35.97-.93,2.02-4.33-3.02-7.31,1.22-.85,1.2-1.22,26.56-7.31,27.43-.84-22.87,4.32-42.75-8.53-41.45.22-17.59-3.22-36.75,9.75-29.26Z" style="fill:#3e3e47; stroke-width:0px;"/><path d="m612.06,125.63c5.7,11.51,9.44,24.13,15.85,35.36-.96.38-2.92-.95-2.44,2.44-.84-2.2-5.27-9.94-7.31-14.63-1.58-3.63-3.2-7.4-4.88-10.97-2.49-5.31-4.71-10.56-7.31-15.85-.13-1.1,1.31-1.31,1.22-2.44,2.81,1.06,3.69,3.71,4.88,6.1Z" style="fill:#110b09; stroke-width:0px;"/><path d="m468.2.06c2.46,8.72,6,16.87,8.53,25.6,1.33,4.6,4.27,22.72,4.88,23.77,2.7,4.7,7.62-9.73,10.97-6.71.32,6.26,6.58,31.73,12.19,35.97-.71,7.82.23,11.82,5.49,17.68q-1.52-18.59-3.05-37.18c-2.88-3.05-5-6.24-6.1-10.36,11.57,8.72.1-30.51-2.44-48.77,3.66,0,7.31,0,10.97,0-1.98,11.32,5.05,21.75,3.66,33.53,10.75,3.58,10.94,4.72,18.9,11.58,16.73-21.13,8.3-1.06,7.92,23.77-4.95,1.27-.67,3.69-1.22,9.14-.04.15-1.05-.06-2.44,1.83l.61,10.36c.74-4.05,1.41-8.09,1.83-12.19.54-2.22,2.97-5.71,2.44-8.53,17.99-10.17,13.25-48.67,14.63-69.49.81,0,1.63,0,2.44,0,1.68,11.84-2.31,26.28,0,37.79,3.56,17.72,12.54-6.96,9.75-30.48-.28-2.38.19-4.91,0-7.31,3.25,0,6.5,0,9.75,0-4.34,44.25-9.38,76.72-35.36,113.99,1.27,3.25,1.91,9.01,1.22,12.19-12.2,56.08-10.76,37.68,0,17.68,7.64,3.93-.24,10.41,0,17.07q-5.49,19.51-10.97,39.01c-.07.39.07.83,0,1.22-3.52,19.99-4.45,33.6-4.88,53.64-.14,6.43,1.07,23.93,3.66,29.87-12.01,29.42,2,8.92,3.66,2.44.23-.92,1.35-17.26,1.22-18.9,8.84-6.94,7.16.85,7.31,19.51.06,7.76.17,14.25-1.22,21.94-2.64,14.62-6.19,20.29-13.41,32.92-2.7,4.71-6.43,3.33-7.31,5.49.23,29.26-16.52,31.98-9.75,70.71,3.78-32.08,10.2,10.02,7.31,35.36-16.05,26.1-16.65,76.95-4.27,35.97.64,10.82-1.84,30.73,11.58,31.09-6.34-11.66-1.57-33.95-6.1-51.2,13.03-13.92,10.03,14.49,15.24,14.02,9.23-19.95,1.42,16.8,10.36,20.12-.66,11.27-.84,32.02,9.75,37.18-.15,9.73,8.41,16.55,15.24,21.94-7.7-23.2,8.78-7.55,10.97-8.53,7.36-38.96-.94,11.65,10.97,9.75,3.63-.58,11.42-25.26,13.41,0,4.79-11.08-2.45-41.48,7.31-34.14,1.06.8.74,20.11.61,23.16-.02.44-2.68,8.17-1.83,8.53,5.75,2.46.74-6.57,1.83-8.53,1.11-2,5.28.18,5.49,0,2.4-2.14,2.57-7,3.66-7.31,2.24-.64,6.28,12.55,10.97,12.19,4.05-22.03,7.05-5.11,10.97-4.88.94.06,12.31-10.48,14.02-12.19.3-.3,6.25-2.06,7.31-4.27,5.56-11.49-6.46-36.45,7.31-25.6.33-19.57-7.08-69.22,6.1-58.52q-3.05-23.16-6.1-46.33c-17.46-12.21-4.28-68.44-7.31-97.53l-4.88,4.27c.06-1.42-.07-3.16,0-4.88.8-18.73,7.33-38.25,1.22-68.88-2.07-1.43-7.49-4.16-8.53-5.49-2.08-2.65-5.42-5.91-7.31-8.53-15.08-20.88-10.09-39.97-12.8-41.45-3.37-1.84-1.43,10.25-7.92-11.58-.06-.2,2.02-1.85,2.44-2.44-4.79-3.55-3.37-5.96-3.66-6.71-.48-3.39,1.48-2.06,2.44-2.44.12-.05,2.68,1.55,2.44-.61-.22-1.95-10.1-19.22-15.85-35.97-1.96-5.72-4.9-11.02-6.1-17.07-1.86-9.4-6.18-30.17,6.1-26.21-10.43,12.21,3.73,28.64,6.1,35.36,1.86,5.28,16.09,52.16,22.55,49.38,1.92-.82-1.84-10.92,10.97,3.66,10.53-17.18-3.82-10.36-3.05-22.55,9.64-10.5-1.96-43.43,2.44-63.4-5.07-11.17-14.85-21.09-13.41-34.14-15.63-11.75-11.41-11.02-15.85-27.43-1.98-7.33-3.42-14.79-6.1-21.94,13.82,0,27.63,0,41.45,0q2.74,9.75,5.49,19.51.3-9.75.61-19.51c15.85,0,31.7,0,47.55,0q.3,10.36.61,20.73,2.74-10.36,5.49-20.73c5.28,0,10.57,0,15.85,0-.37,2.08-.58,4.07-1.22,6.1-4.14,13.25-14.02,40.28-20.73,26.21-.91,6.21-11.61,31.48.61,32.31,6.11.41,4.69-20.92,9.14-3.66,3.01,11.67-6.85,37.38-4.88,61.57.04.43,3.39,5.19,3.66,7.92.04.4-.04.82,0,1.22l-6.1,1.22c-2.84-19.02-4.7-8.52-5.49-8.53-2.92-.04-12.98-37.8-.61-9.14,3.79-30.77-9.23-38.25-9.75-41.45-.75-4.6,6.44-35.09-2.44-28.04-2.21,1.76,2.83,48.58,2.44,56.08-.1,1.87-7.05,30.23-4.88,36.57.75,2.19,5.96,4.51,6.1,4.88.74,2.07.49,24.52,7.31,42.06.08.63-.37.88,0,3.66,2.39,17.98,5.92,24.88,6.1,26.21,1.56,11.67.91,32.88,2.44,41.45,1.92,10.75,3.2,4.24,3.66,4.27,5.32.34,2.09.2,3.66,2.44-2.97,12.19-4.47,24.67-.61,36.57,4.14-6.85,9.59,9.69,14.63,9.75,6.48.08-2.9-7.89,3.05-10.97.99.18,2.34-2.58,3.66-.61.83,1.25.33,21.16,12.19,21.34,1.62.02,3.25-.02,4.88,0-.21,5.12-2.93,12.94,0,28.65,2.56,4.46,3.39-21.24,4.88,0h2.44q-3.05-13.41-6.1-26.82h2.44l3.66,10.97h2.44c.04-13.1,5.79-28.73,7.31-40.23.06-.43-2.05-1-1.22-8.53.1-.95,5.39-.88,3.66-17.68,1.49-.24,3.81.38,4.88,0,15.26-5.46,8.68-21.54,9.75-28.65.59-3.89,4.29-9.7,4.88-12.8h1.22q-3.66,37.49-7.31,74.98c6.32.42,1.88,5.97,5.49,10.36,3.22-.07,2.91-22.78,12.8-2.44-.85,4.28-4.45,11.84-6.1,16.46.33,14.7-.42,29.7-4.88,43.89,8.83,15.04-.02,25.4,0,26.82.26,17.93,15.12,115.25,20.73,129.23,2.13,5.31,14.21,19.56,15.24,18.9.8-.52.98-7.13,2.44-7.31,1-.12,8.56,13.9,12.8,13.41,2.17.01.82,3.2,1.22,3.66.44.51-2.16,1.84,6.71,9.75,2.3,2.06,36.38,24.39,39.01,25.6,19.89,9.19,42.13,6.6,44.5,14.63-24.02,7.77-31.31,3.77-54.86,9.75.2-1.9-7.37-.35,7.31-4.27-28.3,2.8-56.91,11.03-85.34,15.85-.06,2.59,47.33,1.4,51.81,1.83,4.84.46,5.23,6.32,10.36,4.88,1.18,6.37-5.32,1.33-4.88,6.1-5.91,1.07-17.14,6.99-17.07,7.92,9.3.9,39.39,8.94,11.58,11.58-6.12.58-11.52-1.59-18.9-1.22-9.66.49-6.55,8.84-11.58,9.75-.71.13-13.96-3.27-7.92-7.92-2.67-5.24-10.79,12.6-12.8,12.8-3.46.35-4.38-9.9-9.75,0-17.71-9.66-6.51.77-6.71,3.05-.02.24-1.25.5-2.44,4.27-6.97-4.55-7.07-.3-3.66,6.1-13,17.37-15.4-6.09-20.12-2.44-1.57,1.22,3.19,13.01-3.66,10.97-2.03-.6-2-20.71-3.05-22.55-1.68-2.96-5.71,3.11-7.92,1.83-1.8-1.04,2.32-4.87,0-6.1-1.6-.85-4.24,3.68-4.88,3.66-.66-.02-2.85-5.32-10.97-1.22-1.89-.91,2.44-7.59,3.05-8.53l46.33-11.58c-12.1,1.55-37.66-7.63-45.72-4.27-1.84.77-3.07,6.39-3.05,8.53l-2.44-1.83c12.78-11.62,5.64-56.95,3.66-14.63-.34,1.07-2.39.48-2.44.61l-2.44-1.22c.78-17.48-5.32-30.54-9.14,2.44-1.99,1.64-20.07-13.68-17.07-25.6-1.7,26.32-5.18,3.58-7.31,4.88-1.26,3.61-1.24,7.5-3.05,10.97-6.95-4.73-4.35.91-8.53,1.22,2.53-3.68.84-7.21-2.44-4.88,3.26.03.18-31.37-4.88-22.55-4.31,7.52,11.75,16.88-14.02,24.99l-8.53-21.94c-2.97,8.35,1.98,14.98,1.83,24.38-1.38.74-8.21,3.33-8.53,3.66-4.72-9.69-17.53,12.07-3.66-18.9l-1.83-.61c-2.96.57-7.14,14.95-12.19,18.29-.7.46,2.12-4.13-13.41,3.66-5.95,4.3-13.54,16.78-14.63,17.07-11.48,3.07,6.89-19.09-7.31-7.31-3.44-10.8-.22.96-7.92-1.22-.24-2.08-1.29-4.41-2.44-6.1-3.32-4.87-9.69-4.64-8.53-12.19,2.3-.9,5.75-1.49,4.88-3.05-4.46-.45-9.69-5.16-12.19-5.49-10.9-1.44-21.96,4.69-23.16,4.88-18.08,2.76-62.5,6.86-60.35,15.85-19.79-.16-52.06,11.18-70.1,12.19-4.99.28-21.56-.18-24.99-1.22-1.26-.38-21.86-12.3-22.55-13.41,2.82-1.05,3.68-3.71,4.88-6.1.42-.84,1.04-1.53,1.22-2.44,27.05-9.04,37.95-10.94-.61-13.41-7.54-.48-15.41,1.45-22.55,1.22-1.94-.06-12.27-1.19-12.19-3.05,5.01-2.21,10.35-6,15.85-6.71,3.35-.43,29.69,2.73,35.36,3.66,8.37,1.36,38.8,6.98,39.62,12.19,7.89-3.76,22.87-6.46,4.88-6.1-8.69-10.1-17.76.76-25.6-10.97-5.96-.52-13.19.72-18.9,0-2.02-.25-7.34-2.07-9.14-3.66-8.68,2.21-17.51.59-26.21,1.22-9.32.68-27.22,7.11-29.26,2.44,7.55-2.97,14.48-7.9,22.55-9.75-7.95-4.03-16.31-1.77-3.05-6.1,14.79-4.82,27.94-3.33,41.45-13.41,1.48-1.1,6.31-6.38,8.53-8.53,4.72,2.04.96,5.39,4.27,4.88,1.04-.16,10.16-15.39,11.58-17.68,5.12-8.26,14.05-22.64,7.31-23.77.49-.95.69-9.76,4.88-20.73l2.44,1.22c.07,4.91-.46,29,7.92,26.82,4.08-13.05,11.32-24.78,15.24-37.79,2.49-8.28.89-26.28,7.92-4.88,2.23.41,14.41-38,6.71-42.67-1.8-3.23,7.16-9.44,7.31-10.36,2.24-13.15-5.67-43.29-12.19-56.08,4.7-28.3,1.55-29.93-2.44-50.59-8.69-44.98,1.24-10.57,4.88,10.36l6.1,3.66c9.07,32.67-1.68-8.98,6.1,7.31,1.42-11.14,2.23-60.15,3.66-63.4,1.52-3.45,4.12,11.49,3.66-18.9-.19-12.81-4.38-26.75,2.44-21.94,4.34,14.05.04-25.03,4.88-39.62.81-5.28-2.4-5.19-2.44-5.49-.09-.72-.8-1.11-1.22-3.66-1.7-10.44-3.56-24.99-9.75-33.53.37-10.9-4.32-20.83-7.31-31.09-3.88-13.27-10.89-25.08-14.63-39.01-1.93-7.18-9.68-49.96-8.53-54.25,31.4,4.44,5.85-19.84,2.44-43.28,5.28,0,10.57,0,15.85,0Z" style="fill:url(#h); stroke-width:0px;"/><path d="m742.51,658.4c5.85-9.07,18.74-14.52-2.44-7.31-.02-2.15,1.2-7.77,3.05-8.53,8.06-3.36,33.62,5.82,45.72,4.27l-46.33,11.58Z" style="fill:#bb6c3b; stroke-width:0px;"/><path d="m396.27,607.2v-4.88c5.71.72,12.94-.52,18.9,0,7.84,11.73,16.91.87,25.6,10.97,17.99-.37,3.02,2.34-4.88,6.1-.82-5.21-31.26-10.83-39.62-12.19Z" style="fill:#cbc774; stroke-width:0px;"/><path d="m396.27,602.32v4.88c-5.66-.92-32.01-4.08-35.36-3.66v-3.66c8.7-.63,17.53.99,26.21-1.22,1.81,1.59,7.13,3.4,9.14,3.66Z" style="fill:#ddd883; stroke-width:0px;"/><path d="m619.98,627.92c1.46-.63,7.92.86,7.92,1.83,0,.57-6.39,5.57-7.92-1.83Z" style="fill:#c3775d; stroke-width:0px;"/><path d="m723.61,321.91c10.4,20.7,11.29,6.99,14.63,7.31.78.08,8.99,12.03,9.14,12.8.69,3.57-6.74,16.57,14.63,45.11-1.63,26.36-5.32,62.84-9.14,26.21-4.5-1.1-3.91,22.28-6.71,14.02-2.57-7.59-7.95-60.59-10.97-70.71-.96-3.22-14.41-18.19-11.58-34.75Z" style="fill:#60626c; stroke-width:0px;"/><path d="m790.05,516.98c-2.35,4.16-.79,11.72,1.22,17.07-10.55,10.99-4.89-1.42-7.31-7.92-1.27-3.39-6.99-9.17-9.75-19.51-4.74-17.74-4.42-48.06-6.1-67.05q3.35-7.62,6.71-15.24c14.33,32.57,4.2,35.15,4.27,42.06.02,1.55,5.6,29.01,6.1,30.48,2.69,7.93,2.69-18.4,6.1-8.53,1.25,3.62,7.69,42.4-.61,24.99-1.25.37-.24,3-.61,3.66Z" style="fill:#74747d; stroke-width:0px;"/><path d="m791.27,534.05c-2-5.35-3.57-12.9-1.22-17.07,35.32,54.09,10.54,41.94,1.22,17.07Z" style="fill:#86878e; stroke-width:0px;"/><path d="m629.73,579.15c-.1,19.55-8.64,21.68-.61.61l.61-.61Z" style="fill:#807a79; stroke-width:0px;"/><path d="m470.63.06c2.7,14.27,12.48,21.08,6.1,25.6-2.53-8.73-6.08-16.88-8.53-25.6.81,0,1.63,0,2.44,0Z" style="fill:#c3775d; stroke-width:0px;"/><path d="m475.51,80.52c4.01-5.43,7.4-4.44,6.1-12.19,3.93,7.55,7.68,21.54,7.31,29.87,11.19,6.71,13.04,33.13,14.02,46.94-14.61-49.97-11.07-28.69-3.05,6.71h-2.44c-3.86-24.44-12.1-48.6-21.94-71.32Z" style="fill:#df9460; stroke-width:0px;"/><path d="m501.11,48.82c1.1,4.13,3.22,7.32,6.1,10.36q1.52,18.59,3.05,37.18c-5.26-5.85-6.2-9.86-5.49-17.68-5.61-4.24-11.88-29.7-12.19-35.97-.38-7.47,1.81-15.78,3.05-23.16,1.44,9.96,2.89,19.49,5.49,29.26Z" style="fill:#cb8753; stroke-width:0px;"/><path d="m481.61,68.33c1.31,7.75-2.09,6.76-6.1,12.19-9.44-21.78-25.93-31.48-7.92-40.23,2.02.9,1.21,20,14.02,28.04Z" style="fill:#cb8753; stroke-width:0px;"/><path d="m531.59,254.86c-.18,12.81,4.81,12.63,4.88,13.41.13,1.63-.98,17.98-1.22,18.9-1.66,6.49-15.67,26.98-3.66-2.44-2.58-5.94-3.79-23.44-3.66-29.87h3.66Z" style="fill:#5d5c63; stroke-width:0px;"/><path d="m454.18,50.04c22.18,25.6,18.08,56.2,11.58,27.43-7.46,0-13.01-26.75-11.58-27.43Z" style="fill:#cb8753; stroke-width:0px;"/><path d="m488.92,249.98c-3.58-11.58.76-32.67,2.44-45.11.04.3,3.25.21,2.44,5.49-4.84,14.59-.54,53.67-4.88,39.62Z" style="fill:#a49661; stroke-width:0px;"/><path d="m473.07,136.6c-4.86-.3-8.38-16.62-12.19-24.38-1.77-3.61-3.12-7.41-4.88-10.97l2.44-3.66c3.74,13.93,10.75,25.75,14.63,39.01Z" style="fill:#a49661; stroke-width:0px;"/><path d="m538.91,78.08c-.42,4.1-1.09,8.15-1.83,12.19l-.61-10.36c1.39-1.89,2.4-1.68,2.44-1.83Z" style="fill:#8b7d47; stroke-width:0px;"/><path d="m665.7.06q-.3,9.75-.61,19.51-2.74-9.75-5.49-19.51c2.03,0,4.06,0,6.1,0Z" style="stroke-width:0px;"/><path d="m627.9,160.98c-6.41-11.22-10.15-23.84-15.85-35.36l2.44-1.22c5.75,16.75,15.63,34.01,15.85,35.97.24,2.16-2.32.56-2.44.61Z" style="fill:#5d4f44; stroke-width:0px;"/><path d="m614.49,124.41l-2.44,1.22c-1.18-2.39-2.07-5.04-4.88-6.1-.33-4.06-1.45-8.48,1.22-12.19,1.2,6.05,4.13,11.35,6.1,17.07Z" style="fill:#af604a; stroke-width:0px;"/><path d="m715.68,132.94c4.58,30.65-4.17-.49-14.02-21.94-2.85-.03-3.77,27.4,3.05,31.09,1.85,13.92,1.89,29.63,3.66,43.28-6.83-17.54-6.57-39.99-7.31-42.06-.13-.37-5.35-2.69-6.1-4.88-2.17-6.34,4.78-34.71,4.88-36.57.39-7.5-4.65-54.32-2.44-56.08,8.88-7.05,1.69,23.44,2.44,28.04.52,3.2,13.54,10.68,9.75,41.45-12.37-28.66-2.31,9.1.61,9.14.78.01,2.64-10.49,5.49,8.53Z" style="fill:#cb8753; stroke-width:0px;"/><path d="m710.2,68.33c.33.02,3.1,5.71,2.44,6.1-4.11,2.38-5.65-6.26-2.44-6.1Z" style="fill:#bb6c3b; stroke-width:0px;"/><path d="m614.49,553.55c-1.09,1.96,3.92,10.99-1.83,8.53-.85-.36,1.81-8.1,1.83-8.53Z" style="fill:#5b5757; stroke-width:0px;"/><path d="m762.01.06c-7.93,27.42-6.23,53.95-8.53,71.93-.38,2.96-1.05,11.02-1.22,11.58-6.86,22.95-5.21-13.4-4.88-35.36-4.07,12.99-3.28,32.66-4.88,42.06-.32,1.91-2.31,6.18-3.66,3.66,1.01-9.38-1.05-34.67,0-39.01.64-2.67,10.1-13.9,10.97-16.46.87-2.53,2.68-25.65,7.31-38.4,1.63,0,3.25,0,4.88,0Z" style="fill:#cb8753; stroke-width:0px;"/><path d="m737.63,54.92c-.24,3.83.17,7.74,0,11.58-1.39,1.89-2.4,1.68-2.44,1.83-6.27,6.35-6.8-4.55-12.19-7.31-4.45-17.26-3.04,4.07-9.14,3.66-12.22-.82-1.52-26.1-.61-32.31,6.71,14.07,16.58-12.96,20.73-26.21,3.1,12.62,4.47,35.59,3.66,48.77Z" style="fill:#bb6c3b; stroke-width:0px;"/><path d="m735.19,68.33c-.78,2.84-5.54,13.05-7.31,17.68,4.61,13.92-1.66,26.85-3.66,40.84-.74,1.19-.88,3.15-2.44,3.66-.26-2.73-3.62-7.49-3.66-7.92-1.97-24.19,7.89-49.9,4.88-61.57,5.4,2.77,5.92,13.66,12.19,7.31Z" style="fill:#cb8753; stroke-width:0px;"/><path d="m738.85,93.93c-7.02,10.42-7.96,22.23-14.63,32.92,2-14,8.27-26.92,3.66-40.84,1.77-4.63,6.54-14.84,7.31-17.68.04-.15,1.05.06,2.44-1.83.17-3.84-.24-7.75,0-11.58h1.22c-1.05,4.34,1.01,29.63,0,39.01Z" style="fill:#110b09; stroke-width:0px;"/><path d="m715.68,132.94l6.1-1.22c.09.8-.09,1.64,0,2.44-1.29,8.07-1.59,16.24-1.22,24.38,1.15,25.03,5.13,13.38,7.31,18.9.75,1.89-3.35,33.84-2.44,35.36.81,1.34,4.54-.53,6.1,2.44.88,1.67-.82,35.94-1.22,37.79-.2.96-4,.04-4.88,2.44-.37,1.03,3.75,14.42,4.88,21.34-3.29-4.33-2.78-8.66-6.1-13.41-1.57-2.24,1.66-2.09-3.66-2.44,1.15-13.21-4.27-35.08-3.66-45.72.03-.44,3.53-1.14,3.66-2.44,2.47-24.55-3.16-13.63-4.88-17.07-1.92-3.85-.68-23.75-7.31-6.71-.37-2.78.08-3.03,0-3.66-1.76-13.65-1.81-29.36-3.66-43.28-6.81-3.69-5.9-31.12-3.05-31.09,9.85,21.45,18.6,52.59,14.02,21.94Z" style="stroke-width:0px;"/><path d="m720.56,260.96c-.46-.03-1.74,6.49-3.66-4.27-1.53-8.57-.88-29.78-2.44-41.45-.18-1.33-3.7-8.23-6.1-26.21,6.64-17.04,5.39,2.86,7.31,6.71,1.72,3.44,7.34-7.48,4.88,17.07-.13,1.3-3.63,2-3.66,2.44-.61,10.64,4.81,32.51,3.66,45.72Z" style="fill:#353234; stroke-width:0px;"/><path d="m720.56,158.55c-.38-8.15-.08-16.31,1.22-24.38.96,8.32,2.52,16.41-1.22,24.38Z" style="fill:#c3775d; stroke-width:0px;"/><path d="m716.29,168.3c.66-.32,4.47,5.49,1.22,13.41-.04-1.97-3.03-12.54-1.22-13.41Z" style="fill:#d19683; stroke-width:0px;"/><path d="m282.27,331.67c8.19-1.23-8.84,35.73-6.71,16.46.1-.88,5.83-16.33,6.71-16.46Z" style="stroke-width:0px;"/><path d="m287.76,157.33c-.49,3.92-1.76,8.25-2.44,12.19l-7.31-7.92-9.75,35.97c-.68-4.91-2.59-9.76-2.44-11.58,8.74-16.18,10.09-34.58,14.63-51.81,13.51-51.34,9.46,6.08,7.31,23.16Z" style="fill:#f3a872; stroke-width:0px;"/><path d="m285.32,169.52c-.67,3.94-3.38,8.45-3.66,9.75-1.01,4.82-2.57,9.23,1.22,13.41-.03.4.03.81,0,1.22-4.36.37-6.16,13.04-9.75,20.73-1.87-5.75-4.04-11-4.88-17.07l9.75-35.97,7.31,7.92Z" style="fill:#6b665f; stroke-width:0px;"/><path d="m130.49,193.9c2.04,6.09,17.59,28.36,20.73,52.42-.1-.04.42,3.51-1.22,1.83-9.45-15.18-14.93-31.93-21.94-48.16-.23-.53.23-1.9,0-2.44l2.44-3.66Z" style="stroke-width:0px;"/><path d="m279.23,134.16c-4.35-6.18-9.15-5.16-15.85-7.92,3.46-2.43,8.43,2.07,11.58.61.56-.26,3.21-6.93,4.27-8.53,1.92-2.9,4.35-7.7,6.1-10.97,8.32-15.61,16.81-41.39,14.63-28.65-2.29,13.38-19.2,38.59-20.73,55.47Z" style="fill:#aa6144; stroke-width:0px;"/><path d="m285.32,107.34c-1.75,3.27-4.18,8.07-6.1,10.97-1.87-.5-2.87,1.37-3.66,2.44-1.04-7.35.89-14.8,1.22-21.94l8.53,8.53Z" style="fill:#302a28; stroke-width:0px;"/><path d="m157.31.06c2.38,19.09,7.38,38.41,17.68,54.86,9.11-15.77,8.45,25.28,15.24,15.85.87,8.71,0,50.4,1.22,53.03,1.22,2.65,7.86,1.01,10.97,6.1,6.11,9.98,5.13,71.19,7.31,87.78-13.58-5.43-18.54-20.11-21.94-25.6-7.21-11.63,6.97,20.67,7.31,21.94.54,1.98-3.32,2.81-2.44,6.1,4.09,15.24,16.95,25.67,1.83,32.31-7.1-10.83-13.37-20.78-16.46-34.75-29.14-12.67-11.96-40.4-26.21-29.87-18.19-24.35-3.72-19.4-3.05-24.99.16-1.32-11.05-30.42-9.14-11.58-9.53-4.16-7.16-8.1-7.92-9.75,8.19-6.78,1.64-28.3,2.44-37.18,1.27-14.07,21.93-66.79,14.63-104.24,2.84,0,5.69,0,8.53,0Z" style="fill:#302a28; stroke-width:0px;"/><path d="m168.28.06c6.26,26.67,17.93,30.4,21.94,70.71-6.79,9.43-6.13-31.62-15.24-15.85-10.3-16.45-15.3-35.77-17.68-54.86,3.66,0,7.31,0,10.97,0Z" style="fill:#170c10; stroke-width:0px;"/><path d="m108.54.06l1.83,31.7L115.86.06c10.97-.04,21.94.02,32.92,0,7.3,37.45-13.36,90.17-14.63,104.24-.8,8.88,5.76,30.41-2.44,37.18-3.35-7.27-5.46-15.15-8.53-22.55-2.8-4.82-5.03,3.38-7.31,0-.77-1.14-4.67-25.52-6.1-26.82-6.1-5.55-3.14,18.69-8.53,2.44C93.89,72.44,84.8,23.86,86.6.06c7.31-.03,14.63.03,21.94,0Z" style="fill:#170c10; stroke-width:0px;"/><path d="m104.28,20.78c12.61,62.98-11.2,26.47-7.92,18.9,1.64-3.8,5.65,5.2,7.92-18.9Z" style="stroke-width:0px;"/><path d="m340.18,62.23c-3.27,22.56-8.22,44.21-13.41,66.44h2.44c2.53-21.15,1.22,10.09,8.53-15.24,5.71-2.34,16.74-24.25,15.85-7.31-.19,3.64-13.5,32.53-19.51,54.86-8.71-5.92-5.32-18.14-15.85,12.19-15.7,13.95-14.49,35.26-20.73,53.64-1.72-.46-1.23-3.35-3.66-3.66,3.68-30.63-6.21-22.09-9.75-7.92-2.68,10.7,2.25,22.81-6.1,21.34.6-3.22,3.59-9.82,3.66-10.36,1.3-10.12.57-21.82,1.22-32.31.03-.4-.03-.81,0-1.22.13-1.83,4.38-.26-1.22-13.41.28-1.31,2.98-5.81,3.66-9.75.67-3.94,1.95-8.28,2.44-12.19,6.33,3.29,9,5.06,14.63,0-7.4,16.13-13.72,24.77-13.41,26.21,2.82,13.31,19.8-34.7,20.73-37.18.94-2.54,1.58-4.85,2.44-7.31,1.99-5.71,3.16-11.35,4.88-17.07,5.18-17.21,18.85-62.19,19.51-77.42.04-.93-4.89-4.87-3.66-8.53,17.09-13.78,12.91-12.39,7.31,26.21Z" style="fill:#110b09; stroke-width:0px;"/><path d="m324.34,201.22c-.02,1.14-5.93,10.63-6.1,11.58-1.51,8.53,3.43,16.21-12.19,44.5l-1.22,2.44c-6.89,8.76-18.3,32.57-15.85,17.68,1.28-7.82,27.09-28.9,14.63-46.33,17.8-13.27,10.7-22.31,13.41-32.31,1.94-7.15,7.39-2.63,7.31,2.44Z" style="fill:#f3a872; stroke-width:0px;"/><path d="m293.86,223.16c-1.35,11.21-8.01,22.25-18.29,28.04,3.56-10.55,2.3-13.9,2.44-14.63,8.34,1.48,3.42-10.64,6.1-21.34,3.55-14.16,13.43-22.71,9.75,7.92Z" style="fill:#6b665f; stroke-width:0px;"/><path d="m312.14,196.34c-1.32,3.74-11.03,31.45-14.63,30.48,6.24-18.38,5.03-39.7,20.73-53.64-2.6,7.49-3.51,15.82-6.1,23.16Z" style="fill:#f3a872; stroke-width:0px;"/><path d="m282.88,193.9c-.65,10.48.09,22.19-1.22,32.31-.07.54-3.06,7.14-3.66,10.36-.14.73,1.13,4.08-2.44,14.63-4.41,13.04-.03-5.47,0-6.71.02-.73-2.17-5.68-1.22-14.63.06-.6,3.21-4.41,3.66-11.58.08-1.21.33-8.51-.61-8.53-.91,2.07-.88,5.23-1.83,7.31-3.55,7.8-1.56.25-2.44-2.44,3.6-7.69,5.39-20.35,9.75-20.73Z" style="fill:#f3a872; stroke-width:0px;"/><path d="m278.01,218.28l-2.44-1.22c.95-2.09.92-5.25,1.83-7.31.94.02.68,7.32.61,8.53Z" style="fill:#6a581f; stroke-width:0px;"/><path d="m86.6.06c-1.8,23.81,7.29,72.38,14.63,94.48,5.4,16.25,2.43-7.99,8.53-2.44,1.43,1.3,5.33,25.68,6.1,26.82,2.29,3.38,4.51-4.82,7.31,0,3.07,7.4,5.18,15.28,8.53,22.55.76,1.66-1.61,5.6,7.92,9.75-1.91-18.84,9.3,10.26,9.14,11.58-.67,5.59-15.15.64,3.05,24.99,14.25-10.53-2.92,17.2,26.21,29.87,3.08,13.96,9.35,23.91,16.46,34.75,15.12-6.64,2.26-17.06-1.83-32.31-.88-3.29,2.98-4.11,2.44-6.1-.35-1.28-14.53-33.58-7.31-21.94,3.41,5.5,8.37,20.17,21.94,25.6-2.19-16.59-1.2-77.8-7.31-87.78-3.11-5.08-9.75-3.44-10.97-6.1-1.22-2.64-.35-44.32-1.22-53.03C186.22,30.45,174.54,26.73,168.28.06c21.94-.05,43.89.03,65.83,0-3.06,47.34,9.05,94.56,15.85,141.42,6.48,44.67,4.84,38.49,3.66,0-.51-16.47,2.16-37.65-2.44-50.59,2.11-4.22,11.93-14.88,12.19-15.85,1.86-6.9,1.16-58.02,4.88-74.98,2.03,0,4.06,0,6.1,0q-2.44,32.61-4.88,65.22,4.88-4.88,9.75-9.75c-1.17,7.11-2.37,14.24-3.66,21.34-.91,5.02-11.21,49.72-3.05,48.77,1.19-.14,1.6-2.9,3.05-4.88.79-1.07,1.79-2.93,3.66-2.44-1.06,1.6-3.7,8.27-4.27,8.53-3.15,1.46-8.13-3.04-11.58-.61,6.69,2.76,11.5,1.75,15.85,7.92h1.22c-4.54,17.24-5.89,35.63-14.63,51.81-.15,1.82,1.76,6.68,2.44,11.58.84,6.06,3.01,11.32,4.88,17.07.88,2.69-1.11,10.23,2.44,2.44l2.44,1.22c-.45,7.17-3.59,10.98-3.66,11.58-.95,8.95,1.24,13.9,1.22,14.63-.03,1.24-4.41,19.75,0,6.71,10.27-5.79,16.94-16.83,18.29-28.04,2.43.31,1.94,3.19,3.66,3.66,3.6.97,13.31-26.74,14.63-30.48l4.88,2.44c-2.71,10,4.39,19.04-13.41,32.31,12.46,17.43-13.35,38.51-14.63,46.33-2.45,14.89,8.96-8.92,15.85-17.68.57,12.86-12.24,33.72-19.51,45.72,3.39,8.19-29.4,83.48-24.99,84.73,8.16-10.39,18.74-44.3,20.12-6.71-18.62,31.89-6.19,31.17-4.88,34.75,5.42,14.8-12.39,43.38-1.83,35.36,2.23,1.72,1.78,36.06,3.05,55.47.1,1.57-6.91,2.09,2.44,18.9,0,.15-2.94-.8-2.44,1.83,3.33,12.93,13.8,22.38,23.16,31.7,6.24,6.22-.59,9.65,14.63,6.71-7.1,2.98-12.36,3.08-18.29,6.1-2.79,1.42-7.14,5.65-7.31,6.1-11.1-1.83-45.35-2.44-17.07,1.83-20.87,6.74-42.92,9-64.62,12.19,7.88,4.87,24.09-2.19,27.43,9.14,17.17-.19,32.1-3.83,48.77-8.53,11.57-.74,11.66,2.25,12.8,2.44,4.79.79,9.06,1.94,14.02,1.22,3.93,7.25,10.5,4.4,17.68,4.88,3.81,5.66-16.03.83-17.68,1.22-3.93.93,6.08,7.56-32.31,14.63-2.55,5.37-22.59.65-35.36,0-.13,0,2.24-1.04-.61-2.44-25.59,3.45-17.23,5.77-18.29,6.1-9.13,2.79-18.56-1.94-9.75,4.88l-21.94,1.22c1.98,12.29,20.1,7.7,29.87,8.53-5.26,6.36-33.2,7.99-42.06,8.53-2.55-2.44-6.15-1.78-9.14-2.44-.2-.04.71-1.95-1.83-3.66-7.02-1.4-16.36-1.53-21.34-2.44-5.71-1.04-7.94-1.74-14.63-2.44-.23-.02-.76-5.73-2.44-1.22l-12.19,9.75c-8.54.03-16.53.37-24.99-1.22-4.24,7.75-48.16,22.65-48.16,28.65,0,7.07,8.66,1.69,10.97.61-.08,1.76,1.75,1.17,3.66,1.22l-1.22,6.1c-38.14,2.05-17.25,6.95-23.16-16.46l15.85-23.16-1.83-1.83c-30.68,35.12-17.24,4.97-23.16,3.66-1.61-.36-1.88,12.5-5.49,10.97-.88-5.36-2.49-10.36-6.1-3.66-2.87-.76-.2-2.29,0-3.66.64-4.46,1.23-6.18,4.88-9.14l-.61-1.83c-1.04.82-2.02,1.58-3.05,2.44-5.93-.66-6.38-16.64-10.97-20.73-2.48-2.21-2.66-1.15-4.88,0-.03-8.53.03-17.07,0-25.6,2.96-1.09,2.96-2.57,0-3.66-.11-40.23.05-80.46,0-120.7,5.92-10.86,4-45.81,21.94-26.82-.09.39.09.83,0,1.22-6.06,27.56-20.29,61.37,3.66,82.29,4.29-18.34,2.17.36,4.88,3.66,4.28,5.22,6.33.39,6.71.61,1.93,1.14,1.6,6.44,1.83,6.71,7.46,8.83,12.94-35.09,15.85-28.04.2,28.96-5.8,31.21-6.1,32.92-2.47,14.14,4.51,2.95,5.49,3.05,1.37.14,9.31,17.57,7.31,20.73,3.93-5.17,12.53-10.52,15.24-15.24,7.8-13.58,5.69-49.32,13.41-49.38,10.54,12.96-.99,40.51,12.19,42.06q.3-9.45.61-18.9c1.46-.03,6.29,34.39,5.49,15.24,4.43-3.97,8.02-11.58,10.97-15.24,19.62-24.32,2.61,3.99,10.36,26.82,1.14.27,7.09-18.53,7.92-20.73,7.07-18.64,14.12-39.97,17.07-59.74,6.12-41.09-4.95-37.87,0-57.91,1.05-8.05-2.4-7.51-2.44-7.92-.31-3.29-2.93-4.72-2.44-10.36.21-2.44,8.95-21.48,10.97-28.04,1.23-4,1.76-31.1,10.36-27.43,4.4,1.88-.25,10.68.61,14.02.36,1.41,2.7-4.03,3.66,0,1.93,8.11-18.42,80.59,3.66,6.1-4.51-21.14,4.57-56.38,1.83-12.8,5.51-23.12,6.44-46.45,9.14-70.1-2.76-2.12-17.62-17.44-18.9-17.68-11.17-2.05,20.51,22.19,12.19,23.16-.79.09-9.78-9.29-11.58-10.97-4.83-4.49-12.34-12.66-15.85-18.29,1.22.07,9.45-.22,9.75-.61-11.16-20.62-22.2-41.36-35.97-60.35-1.42.45.25,5.03.61,6.1l-2.44,3.66c-4.35-10.26-7.1-18.71-14.63-26.82-6.61-19.12-8.72-47.14-13.41-64.01-9.12-32.75-15.25-42.87-24.38-17.68.02-.15-1.01.12-2.44-1.83,23.56-45.26,4.01-44.39,2.44-47.55-1.38-2.78-6.03-32.67-4.88-39.62,5.28-.03,10.57.02,15.85,0Z" style="fill:url(#i); stroke-width:0px;"/><path d="m157.92,605.98c23.71,7.86,18.18,4.4-17.68,5.49l17.68-5.49Z" style="fill:#c3775d; stroke-width:0px;"/><path d="m.04,590.13c0-1.22,0-2.44,0-3.66,2.96,1.09,2.96,2.57,0,3.66Z" style="fill:#9e929e; stroke-width:0px;"/><path d="m250.58,520.64c7.2,4.62,3.88,18.85,3.66,28.04l-3.66-28.04Z" style="fill:#9e929e; stroke-width:0px;"/><path d="m156.09,248.76c-2.97-.16-2.81-1.57-4.88-2.44-3.13-24.06-18.68-46.34-20.73-52.42-.36-1.07-2.03-5.64-.61-6.1,13.77,18.99,24.81,39.73,35.97,60.35-.3.39-8.54.68-9.75.61Z" style="fill:#353234; stroke-width:0px;"/><path d="m276.79,98.81c-.33,7.14-2.26,14.6-1.22,21.94-1.45,1.97-1.85,4.74-3.05,4.88-8.17.95,2.13-43.75,3.05-48.77,2.29-.39,1.62,13.28,1.22,21.94Z" style="fill:#df9460; stroke-width:0px;"/><path d="m249.97,256.08c-4.57-2.35-5.58-23.06-6.1-30.48-.3-4.39-1.87-10.62-2.44-15.24h2.44q.3-5.79.61-11.58c6.82,14.86-4.01,66.33,17.68,54.25,5.34-27.9,2.07,29.87,4.88,53.64-27.87,37.8,14.32-42.76-17.07-50.59Z" style="fill:#f3a872; stroke-width:0px;"/><path d="m249.97,256.08c-7.7,5.9,5.79,10.29-9.75,16.46-7.97,31.62-1.8-20.77,3.66-46.94.51,7.42,1.53,28.13,6.1,30.48Z" style="fill:#302a28; stroke-width:0px;"/><path d="m253.62,141.48c1.19,38.49,2.82,44.67-3.66,0h3.66Z" style="fill:#75674d; stroke-width:0px;"/><path d="m261.55,89.05c2.65-.12,4.16,10.07-2.44,8.53-2.83-.66,1.91-8.51,2.44-8.53Z" style="fill:#302421; stroke-width:0px;"/><path d="m267.64,414.57c.27-.12,1.89,2.53,1.22,4.88-1.89,6.63-2.76-4.2-1.22-4.88Z" style="fill:#807a79; stroke-width:0px;"/><path d="m132.93,635.24l-2.44-1.22c1.68-4.51,2.2,1.19,2.44,1.22Z" style="fill:#d1c4b8; stroke-width:0px;"/><path d="m337.75,113.44c-7.32,25.33-6-5.91-8.53,15.24h-2.44c5.19-22.23,10.14-43.88,13.41-66.44,3.93,17.01-2.2,34.15-2.44,51.2Z" style="fill:#f3a872; stroke-width:0px;"/><path d="m309.71,146.35c-.92,2.49-17.91,50.49-20.73,37.18-.3-1.44,6.01-10.08,13.41-26.21,2.35-5.12,5.96-14.2,7.31-10.97Z" style="fill:#c3775d; stroke-width:0px;"/><path d="m282.88,192.68c-3.79-4.18-2.23-8.59-1.22-13.41,5.6,13.15,1.35,11.58,1.22,13.41Z" style="fill:#f3a872; stroke-width:0px;"/><path d="m955.86,51.26c-.17,1.09,1.4,1.36,1.22,2.44-14.11,6.95-14.14,18.73-17.07,32.92-.9,4.34-.44,7.7-1.22,12.19-.79-3.49-5.69,8.43-7.31,13.41-5.48,1.13-2.03-3.39-6.1-4.88,10.21-39.75,28.15-72.24,17.07-107.29.41,0,.81,0,1.22,0q4.27,19.81,8.53,39.62c-7.72,18.62-10.39,23.09,3.66,11.58Z" style="fill:#f3a872; stroke-width:0px;"/><path d="m943.67,120.75c-.04.19-.31-1.1-1.22,3.66-.52,2.75-2.58,5.28-3.66,7.92.74,1.27,2.52,8.68,2.44,9.14-2.49,14.03-4.33,35.99-13.41,43.89.69-12.17-4.13-25.12,2.44-37.18-19.36,27.31-16.72,27.48-12.19-17.68,2.69-7.72,5.27-15.21,7.31-23.16,4.06,1.49.62,6,6.1,4.88-1.88,5.77-2.64,8.59-3.66,14.63-.19,1.13-.07,11.22-1.83,21.94,14.38-17.77,7.24-21.84,7.92-25.6,1.49-8.19,3.45-16.17,4.88-24.38.78-4.5.32-7.85,1.22-12.19,4.35-7.47,15.75-25.22,17.07-32.92.18-1.08-1.39-1.35-1.22-2.44,12.17-9.97,15.15-22.43,16.46-21.94-13.09,39.62-19.99,46.13-28.65,91.44Z" style="fill:#f3a872; stroke-width:0px;"/><path d="m944.88,121.97c-.12.13-.61,2.27-2.44,2.44.91-4.75,1.18-3.47,1.22-3.66l1.22,1.22Z" style="fill:#887f2f; stroke-width:0px;"/><path d="m957.08,53.7c-1.32,7.7-12.72,25.44-17.07,32.92,2.93-14.19,2.96-25.96,17.07-32.92Z" style="fill:#302a28; stroke-width:0px;"/><path d="m938.79,98.81c-1.42,8.21-3.39,16.2-4.88,24.38l-6.1,3.66c1.02-6.04,1.78-8.86,3.66-14.63,1.62-4.98,6.53-16.9,7.31-13.41Z" style="fill:#353234; stroke-width:0px;"/><path d="m927.82,126.85l6.1-3.66c-.68,3.76,6.46,7.84-7.92,25.6,1.76-10.73,1.64-20.81,1.83-21.94Z" style="fill:#3e3e47; stroke-width:0px;"/><path d="m407.24,28.1c-3.42,16.82-35.9,63.02-36.57,67.66-.82,5.7,5.63-5.06-1.22,15.24-1.4,4.14-3.27,8.39-3.66,12.8-2.46,3.73-3.54.46-3.66.61,11.55-29.14-21.3,26.46-3.66,3.66,2.68,13.2-5.84,33.15-9.75,47.55-.7,2.56.49,8.96,0,12.8-6.82,8.84-14.98,25.84-14.63,18.9-2.01-4.66-2.81-9.57-2.44-14.63.34-4.7,7.41-20.56,0-17.07.02-.15-2.56-1.06-2.44-1.83.11-.68,3.4-7.31,4.88-12.8,6.01-22.34,19.32-51.23,19.51-54.86,11.14-12.26,4.78-24.88,12.8-23.16,1.98.42,1.24,5.12,4.27,3.05,1.87-1.28,15.04-31.24,20.73-40.23,8.75-13.84,17.84-27.5,15.85-17.68Z" style="fill:#f3a872; stroke-width:0px;"/><path d="m362.13,124.41c-.16.2-3.35,1.64-3.66,3.66-17.65,22.8,15.21-32.8,3.66-3.66Z" style="fill:#5d4f44; stroke-width:0px;"/><path d="m331.65,192.68c-4.07-8.94-.13-15.82,0-17.07,7.41-3.5.34,12.37,0,17.07Z" style="fill:#170c10; stroke-width:0px;"/><path d="m354.2,141.48c-8.7,33.92-18.39,41.2-1.22,1.22l.61-.61.61-.61Z" style="fill:#75674d; stroke-width:0px;"/><path d="m881.49,293.87c-1.98,10.11-6.84,19.8-6.1,30.48l-10.97,5.49c-.82-11.65,1.34-23.13,1.22-34.75,7.89,8.22,5.17-6.36,15.85-1.22Z" style="fill:#474655; stroke-width:0px;"/><path d="m915.63,201.22c-1.1,3.63-6.64,8.47-7.31,11.58-1.55,7.14,1.32,16.49-1.22,24.99-.32,1.08.56,3.51-.61,3.66-.2-20.38-6.87-36.68,9.75-52.42.99.61-.23,10.93-.61,12.19Z" style="fill:#cbc774; stroke-width:0px;"/><path d="m404.8,108.56c-3.91,15.86.83,19.45-4.27,25.6-1.84-.06-2.64-9.29-7.92-13.41-2.19-8.76,11.73-21.02,17.07-33.53.41-.95-2.27-3.44-1.22-6.1,3.93-9.98,6.36-12.67,9.75-24.99,7.9-10.7,10.16-28.32,14.02-41.45-.33,30.31-23.16,76.52-27.43,93.87Z" style="fill:#f3a872; stroke-width:0px;"/><path d="m904.65,252.42c.22-.68-.29-5.31,4.88-13.41,3.78,2.97-1.1,10.07-4.88,13.41Z" style="fill:#c0b577; stroke-width:0px;"/><path d="m952.2,615.73c15.97,7.85-19.99,1.28-46.33,14.02,23.42,9.08,35.12-5.43,68.88,9.14,2.76,2.93-17.93,9.8-9.14,17.07-3.63,1.38-9.82,5.1-13.41,7.31-5.48-.17-15.46,5.87-24.38,7.31-51.49-3.92-50.2,8.96-34.14-20.73,1.33-.62,33.38-8.51,21.34-13.41-2.12-.86-41.22-.82-45.72,0-.44-4.76,6.06.27,4.88-6.1,4.01.51,19.79-1.41,22.55-3.66,8.24-6.7-13.38-2.83-11.58-7.31,19.87-3.84,46.32-4.35,67.05-3.66Z" style="fill:#23150e; stroke-width:0px;"/><path d="m424.31,527.95c6.73,1.14-2.19,15.51-7.31,23.77-1.42,2.29-10.54,17.52-11.58,17.68-3.31.51.45-2.83-4.27-4.88-7.46-3.23-9.51,1.13-8.53,8.53-13.51,10.08-26.66,8.59-41.45,13.41-6.36-3.65,1.37-7.1-8.53-6.1,24.9-11.02,23.28-.09,6.1-14.02.78-4.68,29.9-5.46,34.75-7.92,3.13-1.59,8.36-11.7,9.75-12.19,2.48-.87,6.64.45,11.58-1.22,3.2-1.08,18.9-15.88,19.51-17.07Z" style="fill:#27252c; stroke-width:0px;"/><path d="m893.68,649.87c-9.85,4.57-14.38,9.1-18.9,10.97-3.96,1.64-14.87,1.06-23.16,7.31,4.96-29.5-13.96,6.84-19.51,7.31-.61.05-11.56-3.65-11.58-4.27-.02-.63,8.12-.55,2.44-4.88,22.22,3.08,10.04-5.56,21.94-11.58,7.38-.38,12.78,1.8,18.9,1.22,27.81-2.64-2.28-10.68-11.58-11.58-.07-.94,11.16-6.85,17.07-7.92,4.5-.82,43.6-.86,45.72,0,12.04,4.9-20,12.79-21.34,13.41Z" style="fill:#bb6c3b; stroke-width:0px;"/><path d="m890.02,612.07c-.76,7.1-3.03,2.7-4.88,7.31-1.8,4.49,19.82.61,11.58,7.31-2.76,2.25-18.54,4.16-22.55,3.66-5.14,1.44-5.52-4.41-10.36-4.88-4.49-.43-51.88.76-51.81-1.83,28.43-4.82,57.04-13.05,85.34-15.85-14.69,3.92-7.11,2.37-7.31,4.27Z" style="fill:#cb8753; stroke-width:0px;"/><path d="m360.91,603.54c-5.5.7-10.84,4.5-15.85,6.71-.08,1.86,10.26,2.99,12.19,3.05,1.09,5.31,1.97,8.76-4.88,9.75-.3-.27.32-3.28,0-3.66-4.14-4.95-18.75.53-24.99,0,22.45-29.34-8.22,1.3-15.85,2.44l-33.53-2.44c38.39-7.07,28.37-13.7,32.31-14.63,1.65-.39,21.49,4.44,17.68-1.22,1.66.41,2.34-.7,3.66-1.22,2.04,4.67,19.94-1.76,29.26-2.44v3.66Z" style="fill:#f3a872; stroke-width:0px;"/><path d="m380.42,625.48c-2.37.79-7.43,1.5-10.97,2.44-4.5-3.74-12.83-1.03-17.07-4.88,6.85-.99,5.97-4.44,4.88-9.75,7.14.23,15.02-1.7,22.55-1.22,38.56,2.47,27.66,4.37.61,13.41Z" style="fill:#302421; stroke-width:0px;"/><path d="m180.48,675.47c-.19.1-.78,3.11-4.27,0,.74,7.83-15.81,22.87-21.94,23.16-8.33.4,7.21-5.87,2.44-8.53-26.36,14.38-54.17-10.68-71.93,9.75-.94-.05-16.53-11.02-4.27-9.14-17.6-6.79-1.63-5.61-9.14-14.02-3.24.67-10.52,2.32-12.8,2.44l1.22-6.1c12.1.28,16.84-.69,28.04-2.44,22.72,8.08,44.06-3.51,65.22-3.66,2.52-.02,25.62,1.83,26.82,2.44,2.01,1.02-1.38,4.36.61,6.1Z" style="fill:#23150e; stroke-width:0px;"/><path d="m242.65,619.39l-3.05,2.44c9.67.12,24.55-.06,33.53,2.44-2,25.88-14.15,21.93-35.36,24.38,1.3-6.04,10.83.66,8.53-10.97,8.32,1.15,18.26-2.84,23.77-9.75l-48.77,3.66c-2.24,2.99,1.88,2.29,1.83,2.44-.25.77-1.1,3.51-1.22,3.66-9.77-.84-27.89,3.76-29.87-8.53l21.94-1.22c-8.81-6.82.63-2.08,9.75-4.88,1.06-.32-7.3-2.65,18.29-6.1,2.85,1.4.48,2.43.61,2.44Z" style="fill:#cb8753; stroke-width:0px;"/><path d="m352.38,619.39c-5.34,2.53-19.19,6.2-18.29,12.19-4.99-2.8-.74-3.11-.61-6.1-8.33.56-16.65.85-24.99,1.22-2.91-6.63-40.34-4.77-26.82,3.66-5.04-.34-3.28-4.64-8.53-6.1-8.97-2.5-23.86-2.32-33.53-2.44l3.05-2.44c12.76.65,32.8,5.37,35.36,0l33.53,2.44c7.62-1.14,38.3-31.78,15.85-2.44,6.24.53,20.85-4.95,24.99,0Z" style="fill:#23150e; stroke-width:0px;"/><path d="m103.67,663.28c13.3,4.4.95,4.7-15.85,7.31-11.2,1.75-15.94,2.72-28.04,2.44-1.91-.04-3.74.54-3.66-1.22,4.21-1.96,10.13-6.93,11.58-7.31,4.54-1.22,31.49-2.7,35.97-1.22Z" style="fill:#23150e; stroke-width:0px;"/><path d="m1147.26,614.51q-9.75,2.74-19.51,5.49c17.72,7.65,18.09-6,30.48,17.07-21.98,5.03-14.46-6.36-17.68-6.71-15.89,5.14-47.63,27.05-17.68-1.83-17.88.53-30.46,16.55-32.31,16.46-1.15-.05-.04-3.34-1.22-3.66-1.14-.3-7.22,17.93-10.97,20.73-2.41.34-5.11-22.47-3.05,3.05-.41,1.49-7.29,6.45-7.92,16.46-9.27-3.17-14.01-4.64-12.19-15.85l-7.31,19.51c-15.46-4.53-49.31-5.57-55.47-7.31-2.11-11.27,38.09-8.66,52.42-21.34-1.06-.77-2.41-2.85-3.05-3.05-6.58-2.05-56.71-4.98-76.2,2.44-8.78-7.27,11.91-14.14,9.14-17.07-33.76-14.57-45.46-.07-68.88-9.14,26.34-12.74,62.29-6.17,46.33-14.02,1.13.04,3.71-2.6,5.49-2.44,10.81,5.09,20.7,12.01,32.31,14.63v1.22c-8.21,1.72-13.62,9.4,16.46,4.88l-1.83-2.44c1.99-6.04,3.35-2.36,3.66-2.44-3.04,1.86,3.88,2.12,6.1,2.44-3.41,6.24,17.1,8.93,14.63,1.22,5.15,1.19,13.49,6,23.77,7.31,5.08,17.55,6.25,3.15,10.97,1.22,8.14-3.33,21.05,5.25,49.38-31.7,10.94.57,24.69-.4,34.14,4.88Z" style="fill:#cb8753; stroke-width:0px;"/><path d="m952.2,663.28c.13,0-.39,2.41.61,2.44,4.51.14,19.44-.55,20.73,0,1.81.78-6.27,6.04,4.27,6.1q-5.79,7.92-11.58,15.85c-19.64.29-63.72,28.48-23.77.61-37.83-17.6-45.65-1.25-48.16-.61-3.49.89-17.46.18-32.31,6.71,8.29-20.17,25.17-11.29,28.65-16.46,2.01-2.98-3.33-2.83-3.05-4.27.59-3.05,27.44-.98,40.23-3.05,8.92-1.44,18.9-7.49,24.38-7.31Z" style="fill:#cb8753; stroke-width:0px;"/><path d="m1187.5,563.31c-.3,7.56,1.23,21.52-1.83,21.94-3.96-3.35-7.12-8.23-11.58-10.97-12.91-7.94-29.56,2.15-40.23,10.97-16.4-2.2-32.46-8.57-48.77-10.97,37.8-13.2,49.91-5.16,55.47-6.1,4.19-.7,10.29-8.4,10.97-8.53,1.83-.37,6.89,4.97,7.31,4.88.77-.17,1.26-3.57,10.36-6.71,2.93-34.02.44-7.35,2.44,0,.21.77,5.04,2.38,8.53,13.41l7.31-7.92Z" style="fill:#26142a; stroke-width:0px;"/><path d="m992.43,677.91c-7.17-2.03,3.95-9.14,7.31-9.14-3.61-7.98-17.04,3.07-21.94,3.05-10.53-.05-2.46-5.32-4.27-6.1-1.29-.55-16.22.14-20.73,0-1-.03-.48-2.43-.61-2.44,3.59-2.22,9.78-5.93,13.41-7.31,19.49-7.42,69.62-4.49,76.2-2.44.64.2,1.98,2.28,3.05,3.05-14.33,12.67-54.54,10.06-52.42,21.34Z" style="fill:#110b09; stroke-width:0px;"/><path d="m1180.18,601.1c2.77,11.84,6.13,16.59-9.75,16.46,0,1.38,10.34-1.16,7.92,4.27-8.21-4.64-14.47-1.97-21.94-4.88,4.52,15.18-2.89,1.06-9.14-2.44-9.45-5.28-23.2-4.31-34.14-4.88-4.13-.21-8.06,0-12.19,0,3.48.67,2.33-2.32,2.44-6.1,9.1.61,18.35.59,27.43,0,1.78-.12,1.62-3.64,1.83-3.66,11.95-.79,38.01-1.26,47.55,1.22Z" style="fill:#f3a872; stroke-width:0px;"/><path d="m1174.09,574.28c-2.7,2.23,1.08,12.51,2.44,17.07-3.71-3.12-7.97,7.38-10.36,7.31-2.37-.06-.15-11.79-44.5-8.53-29.54-2.86-4.83-.8,12.19-4.88,10.67-8.82,27.32-18.91,40.23-10.97Z" style="fill:#170c10; stroke-width:0px;"/><path d="m1176.52,591.35c1.43,4.79,3.42,8.73,3.66,9.75-9.54-2.48-35.6-2.01-47.55-1.22-4.35-1.74-6.27-7.4-10.97-8.53v-1.22c44.35-3.26,42.13,8.47,44.5,8.53,2.4.06,6.65-10.43,10.36-7.31Z" style="fill:#cbc774; stroke-width:0px;"/><path d="m1216.76,563.31c-.02.24,2.97,2.5,2.44,4.27l-18.29,18.9c-2.94-7.25-.72-14.69,0-21.94,10.18,2.32,7.79-12.64,10.36-1.22h5.49Z" style="fill:#302a28; stroke-width:0px;"/><path d="m352.38,619.39c.32.38-.3,3.38,0,3.66,4.24,3.85,12.57,1.14,17.07,4.88-4.14,1.1-7.61,2.68-10.36,6.1-6.68-3.13-19.35.73-24.99-2.44-.91-5.99,12.95-9.67,18.29-12.19Z" style="fill:#df9460; stroke-width:0px;"/><path d="m582.8,624.26c-1.25.49-4.74-.5-5.49,0-1.4.93-1.64,3.84-4.27,8.53-15.67,11.95-15.93.57-20.12-1.22-6.22-2.65-19.48,2.65,1.83-6.1.17.36,1.37-.66,3.05,6.1,7.05-6.61,20.22-12.84,17.68-15.85,2.5.33,7.73,5.04,12.19,5.49.88,1.55-2.58,2.15-4.88,3.05Z" style="fill:#110b09; stroke-width:0px;"/><path d="m554.76,625.48c-.12-.25.17-1.96-2.44-4.88,1.2-.18,12.26-6.31,23.16-4.88,2.54,3-10.63,9.24-17.68,15.85-1.67-6.75-2.87-5.73-3.05-6.1Z" style="fill:#cb8753; stroke-width:0px;"/><path d="m552.32,620.61c2.61,2.92,2.32,4.63,2.44,4.88-21.31,8.75-8.05,3.44-1.83,6.1,4.19,1.79,4.45,13.17,20.12,1.22-.46.83-2.26,12.74-9.14,15.85-8.71,3.93-4-4.86-7.31-4.88-1.49,0-12.29,25.07-19.51,12.19-.07,2.03-6.46,16.03-7.31,15.85-1.01-.21-.49-7.54-2.44,0-1.36-21.09-2.97-5.14-9.75-14.63-36.14,29.86,10.32-21.02-20.73-1.22-3.51-10.52-35.64,22.4-15.24-.61l-1.83-1.83c-12.1,8.8-33.54,19.93-17.68,3.05l-1.83-1.83-38.4-6.1c18.04-1.01,50.31-12.35,70.1-12.19-2.15-8.99,42.27-13.09,60.35-15.85Z" style="fill:#bb6c3b; stroke-width:0px;"/><path d="m504.16,634.02c6.68-1.68,6.68,5.33,0,3.66-1.93-.48-1.93-3.17,0-3.66Z" style="stroke-width:0px;"/><path d="m977.8,588.91c-.54,8.25,21.28,5.68,30.48,4.88,11.67,9.58,1.65,8.48,1.22,10.36-.09.39,1.44,6.58,1.22,7.92-.03.2-3.55,1.43-3.66,1.83-1.93,6.86,19.3,10.21,7.92,15.24-1.19.53-4.89-.49-6.71,0-.3.08-1.66-3.6-3.66,2.44-4.16-1.6-10.27-3.35-14.63-2.44v-1.22c-10.16-12.92-25.57-20.07-37.79-29.26,14.75-6.15,20.62-3.66,17.07-10.97l8.53,1.22Z" style="fill:#f3a872; stroke-width:0px;"/><path d="m989.99,627.92c-11.61-2.62-21.5-9.54-32.31-14.63-1.77-.16-4.36,2.48-5.49,2.44-20.73-.7-47.18-.19-67.05,3.66,1.85-4.61,4.12-.22,4.88-7.31,23.55-5.98,30.84-1.98,54.86-9.75.51-.16,3.21-1.94,7.31-3.66,12.23,9.19,27.63,16.34,37.79,29.26Z" style="fill:#f3a872; stroke-width:0px;"/><path d="m951.59,607.2c12.69-1.51-8.3,9.48-31.09,5.49,13.89-.45,29.5-5.3,31.09-5.49Z" style="fill:#523d17; stroke-width:0px;"/><path d="m246.31,637.67c-1.23-.17,1.14-5.5-23.16-3.66.05-.15-4.07.55-1.83-2.44l48.77-3.66c-5.51,6.91-15.45,10.9-23.77,9.75Z" style="fill:#110b09; stroke-width:0px;"/><path d="m246.31,637.67c2.3,11.63-7.23,4.93-8.53,10.97-12.02,13.56-42.91,19.14-57.3,26.82-1.99-1.73,1.4-5.07-.61-6.1-1.2-.61-24.31-2.46-26.82-2.44-21.16.15-42.5,11.74-65.22,3.66,16.8-2.62,29.15-2.91,15.85-7.31,9.22-6.47,38.21.7,43.28-1.22,2.07-.78,2.59-6.09,4.88-7.31.99-.53,5.66,2.43,18.9-10.97,3,.66,6.59,0,9.14,2.44,8.86-.55,36.81-2.18,42.06-8.53.12-.15.97-2.89,1.22-3.66,24.31-1.84,21.93,3.49,23.16,3.66Z" style="fill:#bb6c3b; stroke-width:0px;"/><path d="m173.77,648.65c44.38.76,15.6,5.39-10.97,10.97l10.97-10.97Z" style="fill:#110b09; stroke-width:0px;"/><path d="m351.16,586.47c-13.26,4.32-4.9,2.07,3.05,6.1-8.08,1.86-15,6.78-22.55,9.75-1.31.52-2,1.63-3.66,1.22-6.11-6.22,5.6-14.31,6.1-15.24.13-.24.05-5.22,0-5.49,9.11,4.13,8.04-2.22,8.53-2.44,9.9-1,2.18,2.45,8.53,6.1Z" style="fill:#ddd883; stroke-width:0px;"/><path d="m334.09,582.81c.05.27.13,5.24,0,5.49-.49.93-12.2,9.02-6.1,15.24-7.18-.48-13.75,2.37-17.68-4.88-4.96.72-9.23-.43-14.02-1.22.72-4.82-13.85-1.02-7.31-17.07.18-.44,4.53-4.68,7.31-6.1,10.52,3.94,35.1-7.2,37.79,8.53Z" style="fill:#f3a872; stroke-width:0px;"/><path d="m399.92,543.8c2.26-.06,4.12,1.97,4.88,1.22-4.94,1.67-9.11.35-11.58,1.22-1.39.49-6.62,10.6-9.75,12.19-4.84,2.46-33.96,3.25-34.75,7.92,17.19,13.93,18.8,3-6.1,14.02-.5.22.57,6.57-8.53,2.44-2.7-15.73-27.27-4.59-37.79-8.53,5.92-3.01,11.19-3.11,18.29-6.1,2.02-.85,4.05-1.49,6.1-2.44,2.22-1.03,14.63-6.61,14.63-7.92-5.18-4.24-10.75-9.95-15.85-14.02,26.8-.75,53.67.7,80.46,0Z" style="fill:#e8e48e; stroke-width:0px;"/><path d="m345.67,551.11c23.34-3.27,28.41,2.94-7.31,3.66v-2.44c6.22.74,6.95-1.17,7.31-1.22Z" style="fill:#4a5846; stroke-width:0px;"/><path d="m288.98,580.37c-6.54,16.05,8.03,12.25,7.31,17.07-1.14-.19-1.23-3.18-12.8-2.44-16.66,4.71-31.6,8.34-48.77,8.53-3.34-11.34-19.55-4.28-27.43-9.14,21.7-3.19,43.75-5.45,64.62-12.19-28.28-4.27,5.97-3.66,17.07-1.83Z" style="fill:#df9460; stroke-width:0px;"/><path d="m244.48,590.13c6.6-.88,13.53,1.5,20.12,1.83-19.24,2.15-38.51,7.94-27.43.61.36-.24,6.93-2.39,7.31-2.44Z" style="fill:#25160a; stroke-width:0px;"/><path d="m1085.09,574.28c16.3,2.4,32.36,8.77,48.77,10.97-17.02,4.08-41.73,2.02-12.19,4.88v1.22c-.98-.24-19.17-1.55-20.12-1.22-3.37,1.18,3.84,6.69-15.24,11.58,5.51,2.84,11.31,1.44,17.07,1.83-.11,3.78,1.04,6.76-2.44,6.1-8.93,0-17.9-.19-26.82,0-34.26-19.35-38.15-3.35-40.23-2.44-6.04,2.66-17.97,8.06-23.16,4.88.22-1.34-1.31-7.53-1.22-7.92.43-1.89,10.45-.78-1.22-10.36,19.1-1.68,39.64-8.35,59.13-9.75-13.92-1.33-28.05-2.93-42.06-2.44-22.84-13.72-54.65-15.38-82.29-15.85v-2.44c37.63,2.84,109.29,6.15,142.03,10.97Z" style="fill:#ddd883; stroke-width:0px;"/><path d="m1008.28,593.78c-9.2.81-31.02,3.37-30.48-4.88,15.83-3.94,31.24-6.74,47.55-7.31,14.01-.49,28.15,1.11,42.06,2.44-19.49,1.4-40.03,8.08-59.13,9.75Z" style="fill:#27252c; stroke-width:0px;"/><path d="m1004.62,631.58l1.83,2.44c-30.08,4.52-24.66-3.15-16.46-4.88,4.36-.92,10.47.83,14.63,2.44Z" style="fill:#23150e; stroke-width:0px;"/><path d="m1029.01,632.8c2.47,7.72-18.04,5.02-14.63-1.22,9.47,1.37,13.91,1.05,14.63,1.22Z" style="fill:#f3a872; stroke-width:0px;"/><path d="m1033.88,607.2c12.46,9.83,28.21,2.69,40.23,2.44,8.92-.19,17.89,0,26.82,0,4.13,0,8.06-.21,12.19,0-28.33,36.95-41.24,28.37-49.38,31.7-4.73,1.93-5.89,16.33-10.97-1.22-10.28-1.32-18.62-6.12-23.77-7.31-.72-.17-5.16.15-14.63-1.22-2.22-.32-9.14-.58-6.1-2.44,1.82-.49,5.51.53,6.71,0,11.37-5.03-9.86-8.38-7.92-15.24.11-.4,3.62-1.63,3.66-1.83,5.2,3.18,17.12-2.22,23.16-4.88Z" style="fill:#110b09; stroke-width:0px;"/><path d="m1121.66,591.35c4.7,1.13,6.62,6.79,10.97,8.53-.2.01-.04,3.54-1.83,3.66-9.08.59-18.34.61-27.43,0-5.75-.39-11.55,1.01-17.07-1.83,19.08-4.9,11.87-10.4,15.24-11.58.95-.33,19.14.98,20.12,1.22Z" style="fill:#302a28; stroke-width:0px;"/><path d="m1074.12,609.63c-12.02.25-27.77,7.4-40.23-2.44,2.08-.92,5.97-16.91,40.23,2.44Z" style="fill:#f3a872; stroke-width:0px;"/></g></svg>