<?xml version="1.0" encoding="UTF-8"?><svg id="b" xmlns="http://www.w3.org/2000/svg" xmlns:xlink="http://www.w3.org/1999/xlink" viewBox="0 0 501.53 505.32"><defs><clipPath id="e"><rect width="501.53" height="505.32" style="fill:none; stroke-width:0px;"/></clipPath><clipPath id="f"><rect width="501.53" height="505.32" style="fill:none; stroke-width:0px;"/></clipPath></defs><g id="c"><g id="d"><g style="clip-path:url(#e);"><g style="clip-path:url(#f);"><path d="m88.33,122.47h.53q.13.13.26.26-.13.13-.26.26t-.26.26-.26.26l-.26-.26v-.53l.26-.26" style="fill:#180736; stroke-width:0px;"/><path d="m480.06,99.15c1.54.47.6,5.33-1.06,3.71-1.6-1.56.65-3.84,1.06-3.71" style="fill:#7e629a; stroke-width:0px;"/><path d="m484.3,118.23c2.19-.15.18,4.38-.79,1.33-.02-.07.72-1.32.79-1.33" style="fill:#351c58; stroke-width:0px;"/><path d="m354.69,393.87c-.44.48-3.83,2.25-4.77,2.65,2-17.4,14.69-32.96,18.02-40.02.24-.5-.24-2.14,0-2.65,2.88-6.22,5.04-12.74,8.22-18.82,1.24.33-4.73,15-2.92,18.82-8.46,10.85-12.08,24.34-19.08,36.05,2.56,1.02,2.26,2.06.53,3.98" style="fill:#180736; stroke-width:0px;"/><path d="m433.41,286.27c-10.14,13.79-26.56,23.83-29.95,41.61-19.25,28.82-18.82,23.18,0-1.59.43-2.11-1.41-4.25,0-7.95.78-2.05,25.29-28.62,29.95-32.07" style="fill:#180736; stroke-width:0px;"/><path d="m396.83,354.12c.62-.17.94.17.79.79-13.44,17.53-27.71,34.42-42.14,51.15l5.04-7.69q18.16-22.13,36.31-44.26" style="fill:#180736; stroke-width:0px;"/><path d="m394.18,308.53c.25,2.38-.58,4.96-1.33,7.16-7.03,20.79-6.6,5.16,1.33-7.16" style="fill:#180736; stroke-width:0px;"/><path d="m378.55,329.2c-.02-7.33,2.15-14.52,4.77-21.2q-2.39,10.6-4.77,21.2" style="fill:#240c3c; stroke-width:0px;"/><path d="m302.22,481.34c-.85,1.6-6.18,3.59-6.36.53,2.09-.49,4.28-.29,6.36-.53" style="fill:#0e042a; stroke-width:0px;"/><path d="m433.94,239.62c.2.6.89,1.31.79,1.86-.17.97-14.09,14.39-.79-1.86" style="fill:#7e629a; stroke-width:0px;"/><path d="m391.8,293.16c-2,3.13-3.06,7.16-5.83,9.54,1.68-3.26,3.77-6.53,4.77-10.07.04.04.77.44,1.06.53" style="fill:#180736; stroke-width:0px;"/><path d="m414.33,322.84q1.72.13,3.45.26c-1.22,1.74-2.96,1.92-3.45-.26" style="fill:#130626; stroke-width:0px;"/><path d="m.34,99.68c3.58,10.59,10.02,32.77,19.35,37.9.47,2.22,7.1,13.14,3.45,14.05-1.68.42-5.62-8.01-.79,10.34,3.78-4.69,3.22,1.71,3.18,7.95-1.83,3.4-5.09-1.06-4.51,5.57q-2.92-4.77-5.83-9.54c-.68,10.94,9.97,24.57,16.96,32.86.43-4.29-8.25-24.36-8.22-25.71.03-1.18.48-.79,1.06,0,5.25,7.11,21.04,42.36,24.12,52.74-4.41-1.9,4.49,23.41-2.39,9.81-1.46-2.89-9.81-29.1-5.3-9.01,2.49,11.09,12.04,26.62,16.17,37.9-8.35-10.75-11.61-24.74-16.17-34.72-4.31-9.45-9.53-18.6-13.78-28.09-5.68-12.68-10.61-25.49-17.49-37.64-6.81-26.41-8.43-15.24,3.98-8.22q4.11,4.11,8.22,8.22c-4.13-10.58-7.83-21.55-12.72-31.8-2.67-5.59-11.42-9.44-9.28-32.6" style="fill:#180736; stroke-width:0px;"/><path d="m133.65,405.01c-1.77,7.79-5.82,10.64-3.18,19.08-3.9-1.35-1.5-7.86-1.59-8.75-.58-5.98-3.87-23.16-7.95-27.56,1.1,4.72,2.73,10.05,1.59,14.84-3.77-24.21-12.66-47.07-18.55-70.77,4.88,10.8,12.99,34.24,16.96,46.38.52,2.26-2.07.79-2.65,1.59-.87,1.2,13.31,22.38,15.37,25.18" style="fill:#180736; stroke-width:0px;"/><path d="m20.48,282.03c8.87,15.19,18,30.69,25.18,46.91,6.56,6.44,9.92,15.48,14.05,23.59q-8.35-9.94-16.7-19.88-11.26-25.31-22.53-50.62" style="fill:#180736; stroke-width:0px;"/><path d="m61.82,342.46c6.86,15.76,17.06,30.13,29.95,41.61-.81,6.18-.6,11.27,1.33,17.23-9.81-20.02-25.25-37.01-31.27-58.84" style="fill:#180736; stroke-width:0px;"/><path d="m81.7,245.98c-1.01-2.3-2.08-4.63-3.18-6.89,1.31-1.04-.17-3.18-.53-4.24-.54-1.61-2.44-8.09-2.65-8.48-1.88-3.52-1.77,8.12-5.04-3.71-.56.09,1.35,5.27-2.39,3.18-3.17-6.33-2.4-11.84-3.18-18.55,4.72,5.36,2.81,6.89,3.18,7.69.29.62,2.79-1.13,3.18.53.19.79-4.57,2.71-4.77,3.71-.05.25,2.2,2.92,2.39,2.92,1.15,0,2.03-7.63,4.77-1.59.31-.03,1-5.69,2.92-1.86.62,1.24,4.64,23.63,5.3,27.3" style="fill:#1a0840; stroke-width:0px;"/><path d="m82.23,176.54c.13,1.02-1.69,5.54.79,10.6,4.72-2.83,1.4,7.21.8,10.6-1.19-2.39-.46-6.67-3.18-7.69,2.3-.21-3.03-22.5.53-16.96.1.15,1.04,3.27,1.06,3.45" style="fill:#180736; stroke-width:0px;"/><path d="m174.73,482.93c2.88-.43,9.44.6,7.42,1.59-5.87-2.54-10.57,3.83-16.17,2.39,0-.48,8.27-3.91,8.75-3.98" style="fill:#3a2448; stroke-width:0px;"/><path d="m34.79,168.59c11.33,10.87,5.77,12.42,4.51,9.81-.34-.71.63-3.51-.79-3.98-.12-.04-1.93,1.66-2.39.8-.25-.48,2.22-.26-1.33-6.63" style="fill:#7e629a; stroke-width:0px;"/><path d="m121.99,26c1.02,2.38,1.42,7.65,3.71,10.07-1.28,4.36-5.8-4.54-6.36-6.63-1.23-4.55-.57-10.97,2.65-3.45" style="fill:#4b2e49; stroke-width:0px;"/><path d="m79.85,361.54c1.15,1.57,5.51,9.25,5.57,9.81.56,5.21-7.24-9.25-5.57-9.81" style="fill:#240c3c; stroke-width:0px;"/><path d="m101.58,389.63c1.5,2.99,6.51,7.7,6.63,8.22.73,3.17-5.65,8.52-1.06.53q-2.78-4.37-5.57-8.75" style="fill:#7e629a; stroke-width:0px;"/><path d="m87,170.71c.56,3.91,2.02,16.11,0,5.3-1.67-8.93-2.05-19.67,0-5.3" style="fill:#180736; stroke-width:0px;"/><path d="m251.59,488.76c.7-.15,9.27-.2,9.28.26-1.32.34-11.46,2.24-11.13.53.72-.05,1.74-.77,1.86-.79" style="fill:#1a083b; stroke-width:0px;"/><path d="m69.25,327.61c1.12,1.1,6.47,10.68,5.3,11.13q-2.65-5.57-5.3-11.13" style="fill:#9e85b4; stroke-width:0px;"/><path d="m60.23,185.02c.59-.18,2.78,10.46,2.39,11.4-.65,1.54-2.31-9.97-2.65-11.13q.13-.13.26-.26" style="fill:#180736; stroke-width:0px;"/><path d="m40.62,190.85c4.87,12.16,2.59,13.72-.26.26q.13-.13.26-.26" style="fill:#180736; stroke-width:0px;"/><path d="m52.28,171.77c.11.02,1.32,1.74,1.33,1.86,0,2.79-4.25.29-4.24,0,0-.17,2.75-1.89,2.92-1.86" style="fill:#180736; stroke-width:0px;"/><path d="m340.65,478.16c.93,7.62-3.15,1.68-2.92,1.33.37-.55,1.94.26,2.92-1.33" style="fill:#180736; stroke-width:0px;"/><path d="m36.91,178.66c.35-.12,2.35,4.13,2.39,4.51.48,5.28-3.42-4.15-2.39-4.51" style="fill:#7e629a; stroke-width:0px;"/><path d="m75.61,260.82c.4.52,2.47,3.67,1.59,4.24-1.5.98-2.53-2.07-1.59-4.24" style="fill:#7e629a; stroke-width:0px;"/><path d="m39.03,165.41c1.13-.5,1.54,1.68.53,1.59-.33-.03-1.27-1.26-.53-1.59" style="fill:#180736; stroke-width:0px;"/><path d="m111.65,410.84c.65.28.32,3.11-.53,1.59-.22-.4.44-1.63.53-1.59" style="fill:#240c3c; stroke-width:0px;"/><path d="m467.87,302.17q.13.13.26.26v.53q-.13.13-.26.26h-.53q-.13-.13-.26-.26.13-.13.26-.26l.26-.26q.13-.13.26-.26" style="fill:#180736; stroke-width:0px;"/><path d="m119.87,457.48v.53q-.13,3.18-.26,6.36c-2.12,1.73-25.61-44.04-26.77-47.44q2.52,2.52,5.04,5.04c-3.45-17.67,2.78.73,3.98,6.1,7.13,3.68,3.81,8.28,11.66,9.54,6.92,14.98,17.48,27.3,26.5,40.82,4.42,6.63,9.83,17.81,10.6,18.55,3.37,3.26-2.72-11.61-.26-11.93,1.85-.24,4.62,10.72,5.57,12.46,4.88,8.93-3.8-14.16-2.92-14.58,5.62,6.39,9.66,13.99,12.46,22-1.53,1.81-13.65-3.2-18.55-3.18-10.01-14.23-18.7-29.01-27.03-44.26" style="fill:#e8dffb; stroke-width:0px;"/><path d="m39.56,168.06l.26.26q.13.13.26.26t.26.26q-.13.13-.26.26h-.53q-.13-.13-.26-.26v-.53q.13-.13.26-.26" style="fill:#180736; stroke-width:0px;"/><path d="m77.73,270.9l.26.26.26.26q.13.13.26.26-.13.13-.26.26h-.53q-.13-.13-.26-.26v-.53q.13-.13.26-.26" style="fill:#240c3c; stroke-width:0px;"/><path d="m501.53,137.85c0,9.89,0,19.79,0,29.68-11.56,4.69-21.31,19.79-30.21,28.89-13.88,14.18-27.03,24.49-39.23,42.41-.19.28.19,1.31,0,1.59-3.46,5.17-5.57,9.35-9.54,13.78-.5,3.99,11.21-12.98,12.72-10.6.2,1.79-20.48,27.33-21.73,28.62-6.84,7.06-13.21,7.58-21.73,20.94-.29-.09-1.02-.49-1.06-.53-2.53-2.41-4.12,7.1-5.83,9.01-.95-11.84,9.94-20.52,16.96-28.89-.85-6.44,7.11-10.71,11.66-14.31.69-8.4,9.84-18.99,12.72-29.15,14.71-14.2,20.67-29.12,32.6-44.26,15.53-4.44,12.89-13.11,14.58-16.7.51-1.09,9.81-11.06,11.93-15.64-3.54,7.75-14.05,40.3-.26,17.23,3.83-6.41,6.95-15.35,7.42-22.79.88-13.92-6.26-18.49,1.33-17.23,3.11.52,5.45,5.97,7.69,7.95" style="fill:#180736; stroke-width:0px;"/><path d="m421.48,363.66c-.95,1.39-4.14,3.39.53.53,3.94-2.41,7.62-5.29,11.4-7.95q.13.4.26.79c-33.41,35.51-36.52,62.39-76.6,96.74-2.75,2.36-14.16,11.78-12.99,7.42.31-.79.72-1.93,1.06-2.65,2.82-5.97,6.84-10.02-3.45-.53-5.57,5.14-11.52,13.35-17.23,19.08-3.18,3.19-6.66,6.06-9.54,9.54-2.66,1.58-3.62.44-4.24.53,4.63-4.28,8.06-9.64,12.19-14.31,28.52-32.23,67.59-55.96,80.84-87.46-14.07,4.08-11.84,3.68-21.2,14.84-4.69-1.4,39.22-43.1,42.67-47.97,3.04-4.29-.86-1.31-1.06-3.71-.05-.64,6.38-9.03,6.36-11.13,2.67-2.51-1.93,8.02-1.33,8.22,9.35-7.72,33.17-38.52,35.78-40.55.32-.25,1.8-1.25,1.59,0-6.15,7.52-10.5,16.58-16.96,23.85-4.88,5.49-11.87,10.06-15.37,14.31-2.6,3.16-8.96,14.95-12.72,20.41" style="fill:#180736; stroke-width:0px;"/><path d="m295.85,481.87c.18,3.06,5.51,1.07,6.36-.53,5.31-.6,10.12-4.4,15.37-6.89q-7.16,6.63-14.31,13.25c-4.3.27-8.68-.2-12.99,0-19.04,14.43-2.58-.55,3.45-7.42,3.06-3.49,6.42-6.7,9.01-10.6,15.53-15.84,26.72-35.14,39.23-53.27,3.12-4.52,9.54-11.75,11.66-15.11-10.5,16.11-20.97,32.46-32.33,47.97-3.06,4.18-25.56,30.54-25.44,32.6" style="fill:#180736; stroke-width:0px;"/><path d="m322.89,472.86c-4.14,4.67-7.56,10.04-12.19,14.31-2.63.37-4.82.37-7.42.53q7.16-6.63,14.31-13.25c1.67-.79,3.68-2.51,5.3-1.59" style="fill:#e8dffb; stroke-width:0px;"/><path d="m422.01,364.19c-4.67,2.86-1.48.86-.53-.53l.53.53Z" style="fill:#0a0420; stroke-width:0px;"/><path d="m345.15,458.54c-6.32,6.8-11.77,14.73-20.67,18.55,5.71-5.73,11.65-13.94,17.23-19.08,10.28-9.49,6.26-5.44,3.45.53" style="fill:#1c1235; stroke-width:0px;"/><path d="m344.09,461.19c-2.13,5.44-3.12,12.19-4.51,12.72-6.84-1.62-8,6.46-12.46,9.81,8.95.61-2.52,3.2,5.83,1.59-6.26,9.18-4.23-.4-18.02,1.32,2.88-3.48,6.36-6.35,9.54-9.54,8.9-3.82,14.35-11.75,20.67-18.55-.34.72-.75,1.86-1.06,2.65" style="fill:#e8dffb; stroke-width:0px;"/><path d="m330.04,486.64h.53l.26.26q-.13.13-.26.26l-.26.26-.26.26-.26-.26v-.53l.26-.26Z" style="fill:#c3bfd7; stroke-width:0px;"/><path d="m247.62,152.16c-4.49-.62-2.48,1.79-2.12-9.01.45.78,3,.91,2.12,9.01" style="fill:#100427; stroke-width:0px;"/><path d="m265.64,388.04c-4.01-2.35-5.3-21.04-5.3-27.3-1.64-1.02-2.31.6-3.18,1.86,2.85-11.17,2.87-22.71,3.18-34.19.72,4.82.75,16.35,1.59,3.71,1.03-15.43-2.63-31.17-.53-46.65,3.36,34.07,3,68.34,4.24,102.57" style="fill:#100427; stroke-width:0px;"/><path d="m192.75,242.8c4.03,2.76-.03,14.84-2.39,17.23-5.01,5.07.64-9.47,1.06-11.13.35-1.37-.86-3.44,1.33-6.1" style="fill:#0e042a; stroke-width:0px;"/><path d="m294.79,273.55c.24,2.45.82,4.96.53,7.42-2.97-3.08-6.67-18.48-.53-7.42" style="fill:#4b2e49; stroke-width:0px;"/><path d="m316,.02c.32,16.89,2.17,35.96-1.59,51.68-3.8,15.9-1.87.56-3.71-7.95-.85-3.95-6.4-13.62-4.51-20.94q3.05,5.17,6.1,10.34-.26-12.46-.53-24.91c-4.32.69-9.54-5.11-13.25-8.22,5.83,0,11.66,0,17.49,0" style="fill:#1c1235; stroke-width:0px;"/><path d="m197.79,350.41c.57,2.27-.38,7.21-.53,9.81,3.53,6.85.52,24.18-.53,32.86,3.2,4.3,8.01,38.23,7.95,40.29-.09,3.32-2.3,2.15-2.12,3.71.08.73,4.61,4.27,5.3,13.52,1.7,22.75-17.32,17.22-18.55,20.94-.53,1.61,5.58,3.26,4.51,5.04-11.19,8.07-12.52-2.97-21.2,3.18-6.29.97-8.81-4.25-13.78-1.59-2.47-.65-13.54-27.27-15.64-31.54-2.5-5.08-11.59-18.9-12.72-22.53-2.64-8.44,1.41-11.29,3.18-19.08-2.75-10.47-4.94-21.42-7.16-31.8,8.16,12.16,11.63,26.61,17.23,40.02,12.25,29.39,10.27,24.71,7.42,0-3.92-6.68-6.19-14.11-8.48-21.47,1.77-6.65.94-14.24,4.51-20.14-.81,13.24,3.81,23.79,4.77,36.57.32.1,1.63-3.93,5.3-3.18,2.02-18.78,4.94-10.17,7.95-10.07,3.01.1,4.39-18.43,6.36-21.73.29,24.72.3,33.51,3.98,3.45,5.53-.57,2.84-11.46,5.3-24.38.56-2.94,4.13-14.68,5.3-17.49,6.63-15.99-.22,13.52-.53,18.55-.12,1.98,1.21,30.22,3.18,29.15,9.31-11.59,4.51-27.07,6.36-29.68.82-1.15,1.92,1.9,2.65-2.39" style="fill:#e8dffb; stroke-width:0px;"/><path d="m89.12,200.39c.12,5.16-.03,10.22,0,15.37.03,4.89.52,9.69-1.06,14.58,1.75,2.51,9.56,21.05,9.54,22.26-.01.99-1.71,1.84-1.59,3.71.09,1.49,9,16.94,9.54,28.09-5.63-13.2-9.94-26.79-16.7-39.49-1.4,4.74-.92,12.61.26,17.23-3.64,2.24-.86,5.29-3.18,6.63-4.26-29.21-17.53-27.65-18.02-29.42,2.12-4.23-1.13-7.37-2.12-12.19-1.69-8.2-3.49-27.03-1.06-22.26.06.78-.09,1.61,0,2.39.78,6.71.01,12.22,3.18,18.55,3.54,7.09,2.68.34,6.36,3.98.36.36,3.52,7.8,4.24,9.28,1.1,2.26,2.17,4.6,3.18,6.89.13.29,2.46,7.61,2.65,4.51.1-1.71-7.13-25.99-6.89-31.8-6.04-5.1-2.9-8.73-3.18-13.78-1.13-1.5-1.59-11.1-.79-10.87,2.1,1.82,3.34,13.95,4.51,6.89,7.15.56,1.85,24.49,8.22,36.05-1.07-10.88,1.19-21.31,1.86-32.07.74-11.9.46-29.64,1.06-4.51" style="fill:#180736; stroke-width:0px;"/><path d="m102.91,119.29c2.61-.18.14-3.01.26-3.18,1.64-2.23,3.97,4.12,3.45-6.89,2.29,10.97.76,19.34,1.06,29.95,0,.15,1.59,2.5,1.59,2.65.06,2.88-1.06,6.54-1.06,6.89.07,9.7,1,19.44.53,29.15-1.55,31.95-4.16,19.75-4.77-5.83,7.41-4.7-.83-4.85-1.59-7.95-1-12.11,1.14-36.49.53-44.79" style="fill:#1a0840; stroke-width:0px;"/><path d="m89.12,200.39c-.6-25.14-.32-7.4-1.06,4.51-.67,10.76-2.93,21.19-1.86,32.07-6.37-11.56-1.06-35.48-8.22-36.05.28-1.7-1.25-8.13,5.83-3.18.6-3.39,3.93-13.43-.79-10.6-2.48-5.06-.67-9.58-.8-10.6q2.39-.26,4.77-.53c2.02,10.81.56-1.39,0-5.3l2.92-1.59c-.06,8.76,3.56,30.93-.79,31.27" style="fill:#1a0840; stroke-width:0px;"/><path d="m89.65,286.27c1.22,1.98,8.86,13.73,9.01,14.58.62,3.5-3.75,4.03,3.18,13.25q-.79,6.49-1.59,12.99c-1.63-4.22-3.05-16.6-4.77-22.53-.08-.27-1.38-.36-1.59-1.06-1.94-6.56-4.27-13.42-5.57-19.88.99.67.66,1.58,1.33,2.65" style="fill:#180736; stroke-width:0px;"/><path d="m207.33,134.66c.26.96.67,1.89.53,2.92-4.58,1.54-12.99,13.07-10.6,17.49q-1.86,5.43-3.71,10.87c-2.59-5.7-4.2-13.46-1.59-19.88-3.73-11.78-7.66-23.86-10.07-36.05-6.75-34.13-4.96-34.54,5.83-2.12,20.15,35.66,11.75,26.17,5.04-5.04,2.51,9.51,14.08,29.97,14.58,31.8" style="fill:#100427; stroke-width:0px;"/><path d="m370.6,266.12c.65,5.37-1.07,1.7-1.59,2.92-1.1,2.58-1.44,7.67-2.65,10.6-1.52,3.67-5.08,9.92-7.42,15.11-2.8-29.51-4.75-59.14-4.77-88.79,2.67,8.37,4.22,24.42,5.83,30.74,1,3.91,1.24-3.24,2.65-2.12,2.08,1.55,7.44,27.34,7.95,31.54" style="fill:#100427; stroke-width:0px;"/><path d="m356.81,56.21c-1.55,4.84.3,28.07-.53,29.95-.52,1.17-3.72,1.17-4.24,0-.7-1.59.53-29.79,0-34.72,1.7.46,3.3,3.27,4.77,4.77" style="fill:#473062; stroke-width:0px;"/><path d="m350.98,49.32c-.17-.3-4.1-3.91-4.77-5.04,1.64-11.15-2.44-21.39,4.24-31.54,1.57,8.23-.1,26.76.53,36.58" style="fill:#473062; stroke-width:0px;"/><path d="m338.26,53.03c-.03,4.67.7,33.13,0,34.72-.37.84-2.52,1.1-2.92.79-1.42-1.07.53-31.27-.26-35.52,1.03.13,2.14-.09,3.18,0" style="fill:#473062; stroke-width:0px;"/><path d="m384.91,301.64c1.71-1.91,3.3-11.42,5.83-9.01-1,3.55-3.09,6.81-4.77,10.07-.52,1-1.89,1.77-.53,2.92-1.42,1.12-1.43.63-2.12,2.39-2.62,6.69-4.79,13.87-4.77,21.2-4.95,7.05-7.48,15.2-11.13,23.06-.62,1.33.06,2.53,0,2.65-4.45,9.62-15.74,23.05-19.08,42.41,2.01,1,1.48-.75,1.59-.8.94-.4,4.33-2.17,4.77-2.65,1.39,5.83.92,4.29-1.06,7.42-2.12,3.36-8.54,10.59-11.66,15.11-12.51,18.13-23.69,37.43-39.23,53.27q12.99-23.46,25.97-46.91c.8-2.46,1.23-5.27,2.12-7.69,4.31-11.69,6.77-24.04,7.42-25.18,1.31-2.31,3.22-1.62,4.24-2.92.67-.86.49-1.01.53-1.06,3.74-4.97,8.43-12.99,11.66-18.55,2.52-4.33,4.68-8.76,6.89-13.25,3.52-7.16,7.57-8.33,5.04-21.73-.89.8-2.24,2-3.45,2.12-7.66.74-.89-7.88-13.25,6.89-2.78-.81-1.25-2.88-3.45-4.77-.24-.2-2.41.49-2.92-.79-.92-2.32,4.36-4.59-3.18-1.86,1.55-1.73,3.18-3.13,4.77-4.77,6.65-6.86,12.68-14.13,19.08-21.2,4.24-4.69,14.92-15.84.79-5.3-2.16,1.61-1.72,2.56-1.86,2.65-17.28,12.05-8.62-.91-4.24-10.6,2.35-5.19,5.9-11.43,7.42-15.11,1.21-2.93,1.55-8.02,2.65-10.6.52-1.22,2.24,2.45,1.59-2.92l1.59-1.59c.34,8.81,1.38,5.52,6.1,12.72-.23-5.54,3.63-9.43,5.04-14.58-.02-1.1-1-1.77-1.06-1.85-.29-3.76,5.33-11.21-2.12-9.01-.32-5.95.39-11.59.53-17.49,2.97.9.45,1.86,1.33,2.65.43.39,9.44.84,2.92,7.16,1.12,2.96,2.31,3.4,1.06,6.89,4.79,6.01-2.64,27.15-4.24,34.99-.22,1.07.7,1.5.53,2.65-.13.84-4.38,3.97.79,5.04,5.11-6.17-2.76,13.12,1.86,7.95" style="fill:#1a0840; stroke-width:0px;"/><path d="m349.92,341.4c-1.56,1.86-3.41,3.84-4.77,5.83-1.53,2.25-3.09,4.49-4.77,6.63q1.33,16.04,2.65,32.07s.14.2-.53,1.06l-3.71-29.95q-2.12,4.24-4.24,8.48c-1.06,4.48,7.89,1.95,1.86,13.52-1.38.44-10.73-19.25-10.87-20.41-.58-4.79,4.57-8.52,6.89-12.46,1.35-2.29,3.76-6.04,4.24-8.48,1.04.23,1.13-.4,1.59-1.06.94-1.35,1.08-1.48,2.12-2.65,7.54-2.73,2.27-.47,3.18,1.86.51,1.29,2.68.59,2.92.79,2.19,1.89.67,3.96,3.45,4.77" style="fill:#1a0840; stroke-width:0px;"/><path d="m364.24,308q-.53-1.33-1.06-2.65c.13-.09-.3-1.04,1.85-2.65,14.13-10.54,3.44.62-.79,5.3" style="fill:#4b2e49; stroke-width:0px;"/><path d="m298.51.02c3.71,3.11,8.93,8.9,13.25,8.22q.26,12.46.53,24.91-3.05-5.17-6.1-10.34c-1.89,7.32,3.65,16.99,4.51,20.94,1.84,8.52-.09,23.85,3.71,7.95,3.76-15.72,1.91-34.79,1.59-51.68,1.24,0,2.47,0,3.71,0q1.99,9.01,3.98,18.02.4-9.01.79-18.02c1.94,0,3.89,0,5.83,0q.53,25.84,1.06,51.68c.26.61,3.03,1.24,3.71,1.32.8,4.25-1.15,34.44.26,35.52.4.3,2.54.05,2.92-.8.7-1.59-.03-30.05,0-34.72.07-12.99-.06-25.97,0-38.96.84-2.18,5.6,3.54,6.36,2.12q.4-5.43.79-10.87c3.6,3.55,3.73.6,5.04,7.42-6.68,10.15-2.6,20.39-4.24,31.54.67,1.13,4.61,4.73,4.77,5.04.41.75,1.2,1.15,1.06,2.12.53,4.93-.7,33.13,0,34.72.52,1.17,3.72,1.17,4.24,0,.83-1.88-1.02-25.1.53-29.95,6.18,6.32,1.49,1.19,3.71-13.52.12,7.39,2.64,23.89,1.59,29.68-.47,2.57-3.79,5.15-3.18,7.95.49,2.23,3.14,1.72,3.71,2.65,1.56,2.54.5,24.23,1.06,26.5.39,1.58,3.7,3.56,4.24,5.3.41,1.31-.08,5.76,0,7.69.09,2.02-.68,4.78-.53,7.16.6,9.33,2.29,18.73,2.65,28.09,1.29,33.07-.53,29.66-5.3,0,.65,17.32,3.25,35,4.24,52.48.71,12.48-.44,30.78,0,32.33.09.31,4.07,4.12,4.24,4.77.74,2.8-1.28,11.39-1.06,17.23q-.8.79-1.59,1.59c-.51-4.2-5.87-29.99-7.95-31.54-1.41-1.12-1.65,6.03-2.65,2.12-1.62-6.33-3.16-22.38-5.83-30.74.02,29.65,1.97,59.27,4.77,88.79-4.38,9.7-13.04,22.66,4.24,10.6q.53,1.33,1.06,2.65c-6.4,7.08-12.44,14.34-19.08,21.2-9.45-75.62-29.84-149.19-41.35-224.49h-1.06q12.46,68.38,24.91,136.76c2.93,31.81,6.4,63.49,10.6,95.15-.46.66-.55,1.29-1.59,1.06q-.79-8.88-1.59-17.76l-3.71,25.18c-1.26-1.86-5.5-35.53-7.95-41.08-2.69-16.72-4.19-40.88-7.42-56.19-2.47-11.68-8.14-22.26-10.6-33.93-15.27-12.22-16.11-21.62-16.96-22.79-.98-1.35-4.57-1.75-5.3-2.65-.91-1.13-7.79-23.39-12.19-25.97,1.01,4.61.17,10.06,1.06,14.58-7.14-6.66-14.07-14.31-17.49-23.59-1.29-1.3-5.07-1.08-6.89-1.33.88-8.1-1.67-8.23-2.12-9.01-.63-1.08-1.15-2.62-1.86-3.71-10.08-2.27-1.27-16.18-22.53-20.14-.17-1.08-7.56-17.31-9.01-19.88-.68,4.36,3.23,22.15,3.18,23.32-.04,1.11-.5.88-1.06,0-1.24-1.94-3.27-7.68-5.3-10.07q1.59,10.47,3.18,20.94c-.19.15-4.03,1.26-4.77,1.06-.49-1.84-12.07-22.29-14.58-31.8,6.72,31.21,15.11,40.7-5.04,5.04-10.79-32.42-12.59-32.01-5.83,2.12,2.41,12.18,6.34,24.27,10.07,36.05-2.61,6.42-1,14.18,1.59,19.88-6.59,4.46-11.91,9.77-16.96,15.9-5.66-22.12-9.19-48.67-15.37-70.24-3.92-13.67-10.41-26.32-14.84-39.76-3.26-9.89-5.04-20.36-8.48-30.21,1.96,28.02,10.23,39.29,16.43,57.78,9.94,29.62,15.35,60.64,20.14,91.44-3.11,14.12-1.88,12.79-3.18,7.69-.1-.4-.7-.27-1.06-.26-.38-3.37-.9-8.88-1.59-11.93-2.92-12.95-1.56.84-3.18,13.78-.79,6.33-2.61,12.66-3.18,19.08-.58,6.51.02,18.01-1.06,13.25-1.5-6.63,4.14-32.23,2.65-42.41h-1.06c-2.56,18.14.29,10.28-4.77-4.24-3.86-11.07-15.6-30.02-19.08-49.3-11.72-15.17-15.11-34.24-20.14-52.21.23-4-1.22-8.99,4.77-7.95,3.08,9.49,14.08,33.43,19.08,46.38,7.15,18.52,10.2,39.18,23.85,54.6-13.11-21.8-20.34-67.7-25.97-81.1-1.33-3.17-5.55-8.11-6.36-10.07-.67-1.61-2.42-9.99-3.71-14.31-1.25-4.19-5-6.44-4.77-20.41,9.09-16.24,13.77-13.84,0-15.37-2.29-2.42-2.69-7.69-3.71-10.07l4.51-21.73c4.45,7.67,5.1,16.78,7.69,25.18V.02C188.96-.01,243.73,0,298.51.02" style="fill:#29225d; stroke-width:0px;"/><path d="m324.48.02q-.4,9.01-.79,18.02-1.99-9.01-3.98-18.02c1.59,0,3.18,0,4.77,0" style="fill:#1c1235; stroke-width:0px;"/><path d="m123.58,76.36c-2.03-6.23-4.28-11.7-2.12-18.29.76-2.32,3.11-4.61,4.24-6.63-.23,13.97,3.52,16.22,4.77,20.41,1.29,4.32,3.04,12.7,3.71,14.31.82,1.96,5.03,6.9,6.36,10.07,5.64,13.4,12.87,59.31,25.97,81.1-13.66-15.42-16.7-36.07-23.85-54.6-5-12.95-16-36.9-19.08-46.38" style="fill:#100427; stroke-width:0px;"/><path d="m345.15,329.2c-1.59,1.64-3.22,3.04-4.77,4.77-1.04,1.17-1.18,1.3-2.12,2.65-4.2-31.66-7.67-63.34-10.6-95.15q-12.46-68.38-24.91-136.76h1.06c11.5,75.3,31.89,148.87,41.35,224.49" style="fill:#100427; stroke-width:0px;"/><path d="m176.59,181.84c-.06,3.16-1.45,5.98-2.12,9.01-4.79-30.8-10.2-61.82-20.14-91.44-6.2-18.48-14.48-29.76-16.43-57.78,3.44,9.85,5.22,20.32,8.48,30.22,4.43,13.44,10.92,26.09,14.84,39.76,6.18,21.57,9.71,48.12,15.37,70.24" style="fill:#4b2e49; stroke-width:0px;"/><path d="m221.11,119.29c.21,1.34-.72,2.72-1.59,3.71-.12.14-1.27-.64-3.18,1.85-1.78,2.33-3.01,7.75-4.24,8.75q-1.59-10.47-3.18-20.94c2.04,2.4,4.07,8.13,5.3,10.07.56.88,1.02,1.11,1.06,0,.05-1.18-3.86-18.96-3.18-23.32,1.45,2.57,8.84,18.8,9.01,19.88" style="fill:#4b2e49; stroke-width:0px;"/><path d="m335.88,196.15c.44-.22,1.13.47,1.33.79,1.17,2,6.56,40.01,7.16,45.85-1.62-6.49-4.87-8.26-5.04-8.75-.59-1.81-2.58-32.08-3.45-37.9" style="fill:#4b2e49; stroke-width:0px;"/><path d="m336.67,337.69c-.48,2.44-2.89,6.19-4.24,8.48-.32-.07-.89-.82-1.06-1.06q1.86-12.59,3.71-25.18.8,8.88,1.59,17.76" style="fill:#100427; stroke-width:0px;"/><path d="m313.08,65.75c.27,3.85,1.62,28.7.79,29.95-.23.35-1.68.4-1.85.26-1.2-.93.1-26.72,1.06-30.21" style="fill:#473062; stroke-width:0px;"/><path d="m198.06,73.71c.43-.33,1.45.18,1.86.79.74,1.13,5.6,22.65,6.1,26.24-1.31-3.02-9.08-26.16-7.95-27.03" style="fill:#100427; stroke-width:0px;"/><path d="m178.44,70q2.92,9.54,5.83,19.08c-2.63-5.66-5.32-12.86-5.83-19.08" style="fill:#180630; stroke-width:0px;"/><path d="m462.03,135.72c2.5,6.29-.95,14.81,5.04,19.35-4.13,21.31-5.4-11.56-5.04-19.35" style="fill:#180736; stroke-width:0px;"/><path d="m405.32,240.15c2.71.29-7.19,12.29-9.01,13.25.65-1.81,8.21-13.34,9.01-13.25" style="fill:#240c3c; stroke-width:0px;"/><path d="m177.12,326.55c5.04-1.19.65,13.84-2.65,14.31-1.62-5.76-8.36-20.23-1.33-22.79.08,4.35,1.69,15.92,3.98,8.48" style="fill:#100427; stroke-width:0px;"/><path d="m170.23,198.27c.71,6.23,1.84,29.3-.53,33.66-.5.91-4.42-2.26-6.89,17.49-.16,1.3,2.65,10.32-1.59,12.19,2.17,5.69,1.6,16.17-1.59,21.2,5.84,8.26-2.07,7.7,1.59,14.31-3.34,3.6,2.07,8.12-.53,14.84,4.16,5.61-2.49,12.94,9.54,25.97,1.01,1.09,2.53,3.16,4.24,2.92,3.3-.47,7.69-15.5,2.65-14.31,2.19-7.11-2.91-20.41-2.65-21.47,4.86-5.38,1.37-29.37,10.07-31.27,5.31-14.03,4.68-8.76,1.59,2.65.04,9.2-4.88,21.48,2.12,11.13q-1.06,6.1-2.12,12.19c6.32,8.57-1.51,20.51,6.36,24.38.04,23.04,4.97,24.91,5.3,26.24-.73,4.29-1.84,1.24-2.65,2.39-1.85,2.61,2.95,18.09-6.36,29.68-1.97,1.06-3.3-27.17-3.18-29.15.31-5.04,7.16-34.54.53-18.55-1.17,2.82-4.74,14.55-5.3,17.49-2.47,12.92.23,23.81-5.3,24.38-3.68,30.06-3.68,21.27-3.98-3.45-1.97,3.3-3.35,21.83-6.36,21.73-3.01-.1-5.93-8.71-7.95,10.07-3.68-.75-4.99,3.28-5.3,3.18-.96-12.79-5.58-23.34-4.77-36.58-3.57,5.9-2.74,13.49-4.51,20.14-7.29-23.37-14.62-46.36-22.79-69.44-2.06-5.82-2.65-12.07-7.42-16.17.12-1.7-.15-3.4-.53-5.04-4.25-18.28-5.79-37.11-10.07-55.39-.47-19.19-.2-11.89,10.07,4.24,2.35,5.65-5.83-4.3-4.24,4.24.31,1.66,15.17,24.35,15.9,29.68,6.27-4.51-3.45-21.58-4.77-30.22-7.78-8.38-16.6-34.66-19.08-37.64-.28-.34-1.65-1.98-2.12-1.06q.53,13.78,1.06,27.56c-.1-1.09-1.24-2.12-1.59-2.92-2.75-12.6-7.03-25.23-6.89-38.43,0-.52,1.59-.89,1.59-1.06-.05-13.08-.79-26.16-.53-39.23.12-6.13,1.97-12.92,2.12-19.08.13-5.49-1.78-7.91-1.59-10.6.41-5.67,2.2-2.72,2.39-2.92,5.91-6.17,1.11-9.22,6.1-10.87.09-9.83,2.28-3.14,2.65,1.86.61,8.31-1.53,32.68-.53,44.79.76,3.1,9,3.25,1.59,7.95.61,25.58,3.22,37.78,4.77,5.83.47-9.72-.46-19.45-.53-29.15,0-.35,1.12-4.01,1.06-6.89,0-.15-1.59-2.5-1.59-2.65-.3-10.61,1.23-18.98-1.06-29.95-1.5-7.18,1.53,1.15,6.1,8.48,2.34-4.43,5.96-6.71,6.1-7.16.52-1.68-.3-21,0-26.24,5.03,17.97,8.43,37.04,20.14,52.21,3.48,19.28,15.22,38.23,19.08,49.3,5.06,14.52,2.21,22.38,4.77,4.24h1.06c1.49,10.18-4.15,35.77-2.65,42.41,1.08,4.76.48-6.75,1.06-13.25.58-6.42,2.39-12.75,3.18-19.08,1.62-12.95.26-26.73,3.18-13.78.69,3.05,1.21,8.55,1.59,11.93" style="fill:#100427; stroke-width:0px;"/><path d="m127.55,285.74c6.15,8.49,2.88,20.83.26,5.04-.26-1.56-.66-3.45-.26-5.04" style="fill:#473062; stroke-width:0px;"/><path d="m167.31,190.85c1.21-.61.88,18.66.79,20.94-.38,10.25-1.05-10.1-1.06-20.67l.26-.26Z" style="fill:#1c0a39; stroke-width:0px;"/><path d="m137.63,197.21c.92,13.85-2.03,14.3-.26.26l.26-.26Z" style="fill:#190633; stroke-width:0px;"/><path d="m118.01,203.58c6.2-.76-3.49,4.57-2.39,1.33.04-.13,2.25-1.31,2.39-1.33" style="fill:#120428; stroke-width:0px;"/><path d="m152.47,302.7c.65-.04,1.56.84,1.86,1.33,3.02,4.93-5.8-1.08-1.86-1.33" style="fill:#180938; stroke-width:0px;"/><path d="m135.51,214.71c1.74-.05.61,4.58-.53,3.71-.86-.65.21-3.7.53-3.71" style="fill:#231e21; stroke-width:0px;"/><path d="m131.27,233.26c.72-.19,2.95.9,2.92,1.33-.17,1.81-5.61-.61-2.92-1.33" style="fill:#3b1941; stroke-width:0px;"/><path d="m127.02,309.06c5.82.73.42,2.39,0,2.12-.44-.28-.43-1.8,0-2.12" style="fill:#130436; stroke-width:0px;"/><path d="m134.98,181.84c3.6-1.19,1.07,2.95-.53,2.12-.69-.36-.14-1.9.53-2.12" style="fill:#3b1941; stroke-width:0px;"/><path d="m114.3,191.38c.52-.13,1.29.57,1.33.79.76,4.51-4.67.04-1.33-.79" style="fill:#180736; stroke-width:0px;"/><path d="m138.16,164.35c3.63-1.59.29,3.18-.53,2.65-.64-.42-.32-2.28.53-2.65" style="fill:#1c0836; stroke-width:0px;"/><path d="m127.02,178.13q2.25.66,4.51,1.33c-.29,1.1-4.27.06-4.51-1.33" style="fill:#1c0836; stroke-width:0px;"/><path d="m133.92,199.86c.48,0,.13.94.26,1.33,1.73,4.98-1.64,4.84-.26-1.33" style="fill:#1c0a39; stroke-width:0px;"/><path d="m135.51,207.82c.13,0,.53,1.92.53,2.12-.02,3.5-1.63-2.12-.53-2.12" style="fill:#1c0a39; stroke-width:0px;"/><path d="m138.16,158.52c.28,0,.46,3,.26,3.45-.55,1.25-.84-3.45-.26-3.45" style="fill:#16063a; stroke-width:0px;"/><path d="m133.39,194.03c.41,0,.41,2.12,0,2.12s-.41-2.12,0-2.12" style="fill:#1c0836; stroke-width:0px;"/><path d="m265.64,388.04c.25,6.77-.97,14.88,1.33,14.84.47,0,6.49-6.18,6.63-6.63.34-1.13-.5-19.66-.53-23.59q4.11,6.63,8.22,13.25c2.13-4.79,5.62-11.98,7.16-16.7.97-2.96.95-6.56,1.06-6.89,1.35-4.15,1.39,17.09,1.06,18.02-.6,1.67-2.52-.42-3.18.53-1.2,1.73,3.44,32.45,5.04,32.07.73-1.68,5.04-12.11,5.83-12.19,1.22-.13,2.03,5.88,3.18-3.18,10.57,11.88,5.07,7.88,6.89-6.36,8.82,8.2,4.52,4.76,5.57-9.81,1.44-20,3.09,10.11,4.77,19.08,4.57,24.48,6.75,10.4,9.81,10.87,1.09.17,1.02,3.46,2.39,3.71-.89,2.42-1.32,5.22-2.12,7.69q-12.99,23.46-25.97,46.91c-2.59,3.9-5.95,7.11-9.01,10.6q-5.7-1.86-11.4-3.71c-13.28,3.66-25.48-4.64-38.17-7.42,1.46-10.78-1.41-19.56,3.45-29.68,8.21-5.09,3.95-3.31.53-10.34,2.14-9.62,3.09-19.47,4.77-29.15.58-3.33,4.79-5.51,2.12-14.31,3.75-4.24-3.76-14.57,2.12-23.06.87-1.25,1.54-2.87,3.18-1.86,0,6.26,1.29,24.95,5.3,27.3" style="fill:#e8dffb; stroke-width:0px;"/><path d="m304.87,440.52c1.41-.65,3.06-1.09,4.24-2.12,0,.05.69-.15.53.79-9.58,11.09-12.51,19.56-26.24,27.3-2.11-1.08,12.88-16.52,14.05-22.53,2.5-1.09,4.95-2.31,7.42-3.45" style="fill:#1c1235; stroke-width:0px;"/><path d="m309.11,438.4c-1.18,1.03-2.83,1.47-4.24,2.12.08-3.09-3.78-26.26.26-24.38,1.03.48,3.91,21.13,3.98,22.26" style="fill:#100427; stroke-width:0px;"/><path d="m111.92,301.11c-7.42-25.12-2.1,6.92-1.06,8.75.72,1.27,3.7,1.2,4.24,2.65.6,1.61-.68,4.73-.53,5.3.17.65,5.19,9.84,5.83,11.66l-.53-7.16c8.17,23.08,15.5,46.07,22.79,69.44,2.29,7.35,4.56,14.79,8.48,21.47,2.85,24.71,4.83,29.38-7.42,0-5.59-13.41-9.06-27.86-17.23-40.02,2.22,10.38,4.41,21.33,7.16,31.8-2.07-2.8-16.24-23.98-15.37-25.18.58-.8,3.17.67,2.65-1.59-3.98-12.14-12.08-35.58-16.96-46.38-.12-.28-2.86-2.56-3.71-4.77q.8-6.49,1.59-12.99c-6.93-9.22-2.56-9.76-3.18-13.25-.15-.84-7.79-12.6-9.01-14.58,5.97-1.29,3.33.99,6.89,2.65,4.44,6.62-4.83-11.62-7.42-19.08-1.04.9-2.59.19-3.18-1.06,2.32-1.33-.46-4.39,3.18-6.63-1.18-4.62-1.66-12.49-.26-17.23,6.76,12.7,11.06,26.29,16.7,39.49-.54-11.15-9.45-26.61-9.54-28.09-.12-1.87,1.58-2.72,1.59-3.71.02-1.21-7.79-19.75-9.54-22.26,1.58-4.88,1.09-9.68,1.06-14.58,3.06-.41,1.19,2.88,1.59,4.51.36,1.48,5.93,18.37,6.36,19.35.35.79,1.49,1.83,1.59,2.92q-.53-13.78-1.06-27.56c.47-.92,1.84.72,2.12,1.06,2.48,2.98,11.3,29.25,19.08,37.64,1.32,8.64,11.04,25.7,4.77,30.21-.73-5.34-15.59-28.03-15.9-29.68-1.59-8.54,6.59,1.41,4.24-4.24-10.27-16.13-10.54-23.43-10.07-4.24,4.28,18.28,5.82,37.11,10.07,55.39" style="fill:#1a0840; stroke-width:0px;"/><path d="m96.54,288.92c-2.95-4.4-7.63-14.03-7.42-19.08,2.59,7.46,11.86,25.7,7.42,19.08" style="fill:#7e629a; stroke-width:0px;"/><path d="m111.92,301.11c.38,1.64.66,3.34.53,5.04,4.77,4.09,5.36,10.35,7.42,16.17l.53,7.16c-.65-1.82-5.66-11.01-5.83-11.66-.15-.57,1.13-3.69.53-5.3-.54-1.45-3.52-1.38-4.24-2.65-1.04-1.83-6.36-33.86,1.06-8.75" style="fill:#7e629a; stroke-width:0px;"/><path d="m120.13,345.11c.76,1.08,3.14,12.71,2.12,12.72q-1.06-6.36-2.12-12.72" style="fill:#9e85b4; stroke-width:0px;"/><path d="m363.17,334.5q-.79,9.81-1.59,19.61c-2.21,4.49-4.37,8.92-6.89,13.25-8.38-1.3-5.87-13.36-9.54-20.14,1.36-1.99,3.21-3.97,4.77-5.83,12.36-14.77,5.59-6.15,13.25-6.89" style="fill:#11062a; stroke-width:0px;"/><path d="m354.69,367.37c-3.24,5.56-7.92,13.58-11.66,18.55q-1.32-16.03-2.65-32.07c1.68-2.14,3.24-4.38,4.77-6.63,3.68,6.78,1.16,18.84,9.54,20.14" style="fill:#100427; stroke-width:0px;"/><path d="m361.58,354.12q.79-9.81,1.59-19.61c1.2-.12,2.56-1.32,3.45-2.12,2.54,13.41-1.52,14.57-5.04,21.73" style="fill:#19073a; stroke-width:0px;"/><path d="m382.26,260.82c-.07-.1-1.75.46-2.12-1.33-.08-.38.28-2.47,0-7.69,7.45-2.2,1.83,5.25,2.12,9.01" style="fill:#1c1235; stroke-width:0px;"/><path d="m233.31,456.42c-2.46,2.55.68,6.41-3.18,10.34,4.08,10.99-2.19,2.75-2.92,2.39-2.01-1.03-4.55.7-5.57-.79-1.91-2.81-3.16-23.23-1.59-27.83,2.49-6.82-.98-7.78-1.06-8.75-.9-10.39,4.37-42.15,4.24-51.42,0-.13-1.57-1.63-1.59-2.12-.53-13.27,2.59-10.83,3.18-14.31.99-5.85-3.44-7.94,2.65-7.95,2.18,8.73-.1,10.99,0,14.31,1.99,2.4,2.73,8.76,0,10.07,5.39.38,1.94,6.19,2.12,9.54.39,7.34,5.72,34.17,3.71,38.7q-2.39,3.18-4.77,6.36c5.55.81-.23,2.23.53,3.18.57.71,3.08-.39,3.71,1.06.68,1.56.57,14.46.53,17.23" style="fill:#e8dffb; stroke-width:0px;"/><path d="m225.62,380.09q.66.4,1.33.79c-1.53,6.09-.84,15.13-1.59,20.67-1.81,13.37-3.44-20.76.26-21.47" style="fill:#1a0840; stroke-width:0px;"/><path d="m75.34,226.37c-2.56,1.28,1.23,7.04,2.65,8.48.36,1.06,1.84,3.2.53,4.24-.72-1.48-3.88-8.92-4.24-9.28-3.68-3.64-2.82,3.11-6.36-3.98,3.73,2.09,1.82-3.09,2.39-3.18,3.27,11.83,3.16.19,5.04,3.71" style="fill:#1a0840; stroke-width:0px;"/><path d="m75.34,226.37c.21.39,2.11,6.87,2.65,8.48-1.42-1.45-5.21-7.2-2.65-8.48" style="fill:#180736; stroke-width:0px;"/><path d="m331.37,345.11c.17.24.74.99,1.06,1.06-2.32,3.94-7.47,7.67-6.89,12.46.14,1.16,9.48,20.85,10.87,20.41,6.04-11.56-2.92-9.03-1.86-13.52q2.12-4.24,4.24-8.48l3.71,29.95c-1.02,1.3-2.93.6-4.24,2.92-.65,1.14-3.11,13.49-7.42,25.18-1.37-.25-1.3-3.54-2.39-3.71-3.05-.47-5.23,13.61-9.81-10.87-1.68-8.98-3.33-39.08-4.77-19.08-1.05,14.57,3.25,18-5.57,9.81-1.83,14.24,3.68,18.24-6.89,6.36-1.15,9.06-1.97,3.05-3.18,3.18-.79.08-5.1,10.51-5.83,12.19-1.59.38-6.24-30.33-5.04-32.07.66-.95,2.58,1.14,3.18-.53.33-.93.29-22.17-1.06-18.02-.11.33-.09,3.93-1.06,6.89-1.54,4.72-5.03,11.9-7.16,16.7q-4.11-6.63-8.22-13.25c-.18-23.72-4.26-97-9.01-116.88-1.59-6.64-5.48-2.55-1.06-15.9,1.15-1.65,2.45,10,5.3,12.19-1.28,15.71,3.78,14.19,4.77,15.9.44.76,2.02,10.22,4.24,16.96,2.25,6.83,6.2,8.5,6.36,22.79-2.66,2.43-3.95,16.75-1.33,17.76,5.26,2.02,1.37-2.11,1.33-2.39-1.23-7.96,4.12-9.73,4.51,9.28,6.91-10.05,4.25-23.75,4.51-25.71.07-.53,2.13-.57,2.65-10.07.91-1.69,1.83.79,2.12,0,.41-1.1-1.92-12.69-2.12-15.64.29-2.46-.29-4.97-.53-7.42-.01-.12.89-.43.53-2.39-.21-1.15-1.92-4.05-2.12-5.04.69,1.21.58-7.76.53-8.22-.54-4.74-3.39-12.55-3.18-18.02-.88-2.59-1.56-5.16-2.65-7.69-.37-.87-1.53-2-1.59-2.12-1.47-2.85-3.18-5.69-4.77-8.48.7-1.35,2.06-1.56,1.59-3.71-.07-2.7-1.26-5.31-1.59-7.95-.14-1.12-.47-1.21-.53-1.59-.02-.12.89-.41.53-2.39-2.71-14.93-9.16-26.93-9.54-28.89-.89-4.52-.05-9.97-1.06-14.58,4.4,2.58,11.28,24.85,12.19,25.97.73.9,4.32,1.3,5.3,2.65.85,1.17,1.7,10.58,16.96,22.79,2.47,11.66,8.13,22.24,10.6,33.93,3.24,15.31,4.74,39.47,7.42,56.19,2.45,5.55,6.69,39.22,7.95,41.08" style="fill:#100427; stroke-width:0px;"/><path d="m321.03,341.93l1.86,8.22c.26,22.23-2.08-1.22-1.86-8.22" style="fill:#180737; stroke-width:0px;"/><path d="m286.58,330.79c3.33.46-3.23,7.26-3.71,6.89-2.01-1.53,3.3-6.95,3.71-6.89" style="fill:#473062; stroke-width:0px;"/><path d="m380.67,234.32c-.14,5.9-.85,11.54-.53,17.49.28,5.21-.08,7.31,0,7.69.37,1.79,2.05,1.22,2.12,1.33.06.09,1.04.75,1.06,1.85-1.4,5.14-5.27,9.04-5.04,14.58-4.72-7.2-5.76-3.91-6.1-12.72-.22-5.83,1.8-14.43,1.06-17.23-.17-.65-4.15-4.46-4.24-4.77-.44-1.55.71-19.86,0-32.33-.99-17.48-3.59-35.16-4.24-52.48,4.77,29.66,6.59,33.07,5.3,0-.37-9.37-2.05-18.77-2.65-28.09-.15-2.38.62-5.14.53-7.16,1.23,5.92,7.8,17.09,8.48,19.35,2.06,6.85,5.02,31.67,2.65,39.23.02,12.57,1.31,23.47-1.06,36.05,4.99,5.3,2.81,10.67,2.65,17.23" style="fill:#100427; stroke-width:0px;"/><path d="m372.45,192.44c.06,4.46,2.55,9.3,2.12,9.54-3.07,1.72-2.66-8.04-2.12-9.54" style="fill:#19073a; stroke-width:0px;"/></g></g></g></g></svg>