<?xml version="1.0" encoding="UTF-8"?><svg id="b" xmlns="http://www.w3.org/2000/svg" xmlns:xlink="http://www.w3.org/1999/xlink" viewBox="0 0 352.25 481.58"><defs><clipPath id="e"><rect x="0" y="0" width="352.25" height="481.58" style="fill:none; stroke-width:0px;"/></clipPath><clipPath id="f"><rect x="0" y="0" width="352.25" height="481.58" style="fill:none; stroke-width:0px;"/></clipPath></defs><g id="c"><g id="d"><g style="clip-path:url(#e);"><g style="clip-path:url(#f);"><path d="m62.01,111.93c.37,5.61-1.08,11.2-2.72,16.46-1.09.23,2.78-14.21,2.72-16.46" style="fill:#966d7c; stroke-width:0px;"/><path d="m30.75,218.69c2.99,9.31-.95.37-.91,9.88.25-3.29-2.6-3.89-2.04-4.94,3.26-.59,2.64-4.92,2.94-4.94" style="fill:#7f6577; stroke-width:0px;"/><path d="m143.1,24.46c-5.49,11.96-12.17,23.25-15.4,36.21,1.29-13.46,8.67-24.99,15.4-36.21" style="fill:#c08f95; stroke-width:0px;"/><path d="m107.99,115.23l-.45-.94c4.98-12.06,9.37-23.5,2.27-2.12-.25.76-1.76,2.89-1.81,3.06" style="fill:#c08f95; stroke-width:0px;"/><path d="m58.39,297.22c-3.03,8.9-8.98,16.39-13.59,24.45,2.58-9.06,8.88-16.55,13.59-24.45" style="fill:#d29cb0; stroke-width:0px;"/><path d="m86.7,197.05c-.1.18-1.69,1.8-2.49,3.29-1.96.05,1.69-7.15,2.49-8,2.35.48.72,3.32,0,4.7" style="fill:#7a2c4d; stroke-width:0px;"/><path d="m83.98,192.82c-.3.02-.61-.01-.91,0,.47-1.16.89-3.14,1.36-4.7.39-1.29.62-2.6,1.36-3.76.07.09.75-.3,1.81,1.18q-1.81,3.64-3.62,7.29" style="fill:#b93d68; stroke-width:0px;"/><path d="m100.74,155.2c1.59,1.26,2.84,3.2,4.53,4.23,1.98,2.81,3.93,5.64,5.89,8.46-4.02.59-6.97-1.39-9.97-3.76-1.47-1.16-4.88-5.24-6.34-7.05.37-.47,2.7-4.17,2.94-4.23.85.12,1.62,1.31,2.94,2.35" style="fill:#fbe8d0; stroke-width:0px;"/><path d="m96.21,300.51c-4.83,5.52-8.4,12.29-13.14,17.87-1.25,1.47-2.8,3.32-4.08,4.7-3.02,3.27-21.94,20.81-26.96,25.4-.55.51-3.61,3.21-3.85,2.35,4.01-4.69,9.03-12.84,14.5-19.75,8.53-10.76,17.4-21.21,25.37-32.45.34.51,1.73,3.28,2.04,3.29l4.98-4.23c1.22-.01,1.05,2.1,1.13,2.82" style="fill:#371938; stroke-width:0px;"/><path d="m96.21,300.51c.77,6.6-1.04,6.93-2.72,10.35-2.86,2.17-8.65,8.71-10.42,7.52,4.74-5.58,8.31-12.35,13.14-17.87" style="fill:#fedccc; stroke-width:0px;"/><path d="m93.5,310.86c-1.98,4.04-4.61,7.81-6.8,11.76l-7.7.47c1.28-1.38,2.83-3.23,4.08-4.7,1.77,1.18,7.56-5.35,10.42-7.52" style="fill:#ee9da6; stroke-width:0px;"/><path d="m97.57,281.23q2.27-6.7,4.53-13.4l-6.34,7.29c.12-7.36,18.32-39.35,19.03-33.62-4.73,6.51,1.14,3.19-.91,7.52-.52,1.09-7.08,5.15-6.34,22.1-9.21,12.32-6.56,18.6-9.97,10.11" style="fill:#fbe8d0; stroke-width:0px;"/><path d="m162.36,230.44c1.9,1.95,2.26,2.22,3.62,4.7-5.65,2.05-.57,7.49-.45,7.99.66,2.94.31,6.04,1.81,9.64,5.03,12.04,26.39,20.52,12.46,39.27-2.61-6.38-19.43-31.82-20.16-35.51-1.12-5.63,3.46-12.63-2.27-12.7,2.21-8.71-1.08-6.94-1.36-7.53-.56-1.17,1.85-2.27,3.17-4.47,2.32,1.06,1.23-1.38,3.17-1.41" style="fill:#fbe8d0; stroke-width:0px;"/><path d="m84.89,174.48c.32,1.5,6.97,9.42,3.85,9.41-.69,0-11.53-11.41-6.57-9.41.9-.03,1.81.03,2.72,0" style="fill:#7a2c4d; stroke-width:0px;"/><path d="m122.04,357.89c-.67,1.06-1.67,2.13-2.72,2.82.12-.23-.26-1.62.45-3.06l13.36-19.99c-1.91,7.62-6.99,13.75-11.1,20.22" style="fill:#fedccc; stroke-width:0px;"/><path d="m106.18,282.17c-1.07,2.23-1.88,4.67-3.17,6.82-11.02,15.85-1.22.05,3.17-6.82" style="fill:#371938; stroke-width:0px;"/><path d="m107.31,342.37c.39-.22,3.82.51,3.85.71-3.7,2.22-4.59-.28-3.85-.71" style="fill:#f2c4d1; stroke-width:0px;"/><path d="m83.53,344.25c-.07.73-1.07,1.11-1.36,1.41.15-1.09,1.55-3.35,1.36-1.41" style="fill:#b490b1; stroke-width:0px;"/><path d="m107.09,280.76c.05-.08.11-1.15.68-1.88.84,1.41-.63,1.79-.68,1.88" style="fill:#371938; stroke-width:0px;"/><path d="m110.48,273.71c.56.06-.35,1.91-.45,1.88-.64-.18.02-1.92.45-1.88" style="fill:#371938; stroke-width:0px;"/><path d="m106.18,282.17c.7-1.46.87-1.34.91-1.41-.32.54-.59.91-.91,1.41" style="fill:#371938; stroke-width:0px;"/><path d="m128.38,437.83c-1.15,1.47,1.04.87,3.17,3.29.06.06.76,1.17.91,1.41.05.08-.23,1.09.91,1.41-.1.05.23,1.17-.23,1.41-8.07-1.48-15.4,3.38-25.6-.71q3.28-3.64,6.57-7.29c6.31-.86,13.56.57,14.27.47" style="fill:#4b405f; stroke-width:0px;"/><path d="m21.46,334.37c-1.19,9.47-2.98,18.78-4.08,28.22-.29,2.46-1.16,5.31-1.36,7.52-2.22,1.61-2.39,5.16-5.44,5.64-1.57-.7-2.83-7.8-3.17-10.35-.55-4.05-2.66-30.44,1.59-30.1,3.36.27,3.95,8.06,12.46-.94" style="fill:#8e5a78; stroke-width:0px;"/><path d="m107.99,115.23c-3.44,11.37-4.84,23.3-7.7,34.8-.55,2.22-3.21.25.45,5.17-1.32-1.05-2.1-2.23-2.94-2.35-.24.07-2.58,3.76-2.94,4.23-.71.92-2.61,2.28-2.72,3.76-.56-.22-1.33.6-2.26-.94,5.59-10.11,10.35-21.02,11.78-32.68,1.88-4.32,4.09-8.59,5.89-12.93l.45.94" style="fill:#fbe8d0; stroke-width:0px;"/><path d="m112.98,123.22c2.56-6.05,4.5-12.34,7.25-18.34.71,2.6-2.65,9.59-3.17,11.99-.4,1.88-.27,6.77-.91,9.41-.49,2.02-4.46,15.79-4.98,16.46-.52.65-.81.33-.91-.47-.12-.95,3.03-15.54,2.72-19.05" style="fill:#8e5a78; stroke-width:0px;"/><path d="m274.26,74.31q-.68,6.11-1.36,12.23-7.02,24.1-14.04,48.2c-2.17.59-6.39,9.75-6.34,10.82.15,3.17,4.54-3.02,4.98-.47.23,1.31-12.55,27.6-4.76,20.93,2.38,1.68-.14,3.08-.23,3.53-3.47,19.07,10.54-4.38,13.36-9.64-.76,2.44-8.94,20.09-9.74,20.93-.49.51-5.97,3.16-6.57,2.12-4.74,4.05-20.79,35.98-22.43,37.39-1.64,1.41-4.66.24-7.25,1.18,2.02-3.38,16.63-25.48,16.31-27.04-.56-2.72-8.58,6.5-9.51,7.53-7.64,8.43-16.51,23.71-17.89,24.22-.71.26-3.77-.27-3.85-1.18-.09-1.03,11.55-13.59,12.23-16.22,1.32-.84,4.52-5.28,5.44-6.82,5.01-8.43,21.48-50.94,27.63-64.43.73-.77,3.67-.51,5.89-4.7,1.23-2.32,11.99-42.83,14.5-50.79.77-2.46,2.67-7.96,3.62-7.76" style="fill:#fbe8d0; stroke-width:0px;"/><path d="m274.71,26.81c.37,6.55-1.81,13.42-2.27,19.75-1.98-3.46-1.04-16.47,2.27-19.75" style="fill:#fedccc; stroke-width:0px;"/><path d="m331.57,385.63c.56.45-.75,8.89-1.13,10.11-3.52,11.22-3.84-5.6,1.13-10.11" style="fill:#6d5f79; stroke-width:0px;"/><path d="m319.79,6.59c3.57,18.63-3.45,31.54,6.12,53.38,1.46,11.79,1.96,45.57,3.17,51.73.67,3.42,3.9,7.21,4.08,7.99.32,1.38-.87,11.54-1.36,13.17-3.4,11.36-1.09-3.13-6.34-13.17q-1.13-18.34-2.26-36.68c-4.6-21.66-4.99-41.12-5.44-63.02-.03-1.64-3.39-2.75,2.04-13.4" style="fill:#fcaaa8; stroke-width:0px;"/><path d="m283.09,16.47q.23,15.28.45,30.57c-1.05-9.78-4-21.29-.45-30.57" style="fill:#fcaaa8; stroke-width:0px;"/><path d="m318.88,134.98c.64,5.16,2.31,11.22,0,15.99v-15.99Z" style="fill:#cd848c; stroke-width:0px;"/><path d="m291.7,65.38q.68,3.06,1.36,6.11c-1.27-1.44-1.91-4.34-1.36-6.11" style="fill:#fcaaa8; stroke-width:0px;"/><path d="m302.12,155.67c1.59.55,1.58,6.34-1.13,3.06-.1-.12.74-3.19,1.13-3.06" style="fill:#cd848c; stroke-width:0px;"/><path d="m330.66,210.22c2.15-.19.58,2.98-.91,1.88-.86-.63.36-1.83.91-1.88" style="fill:#efa78f; stroke-width:0px;"/><path d="m314.81,51.27c1.19,0,.51,3.05-.45,2.35-.62-.45-.09-2.35.45-2.35" style="fill:#8e5a78; stroke-width:0px;"/><path d="m351.95,107.7c.69.31,0,3.1-.45,2.82-.75-.45.31-2.89.45-2.82" style="fill:#7f6577; stroke-width:0px;"/><path d="m312.09,177.77l.23.24v.47l-.23.24h-.45l-.23-.24.23-.24.23-.24.23-.24" style="fill:#c3c4d6; stroke-width:0px;"/><path d="m180.48,0l-1.13,5.64L181.84,0c8.61,0,17.22,0,25.82,0-5.41,12.54-10.74,25.16-16.76,37.39-1.41,2.85-5.95,5.34-2.72,9.88-6.31,10.25-5.77,14.75-12.91,10.11-3.91,5.25-.65,7.33-.68,7.76-.08,1.11-4.21,4.08-10.42,19.28-3.48,8.52-15.68,41.39,1.36,17.4-2.26,9.23-7.95,12.18-1.58,20.93.97-5.51,3.42-13.47,9.97-12.7,3.05-10.02,6.48-4.88,9.29-8.7,2.42-3.8,11.5-29.44,12.69-30.57,1.43-1.36,3.53-.24,5.44-2.35,1.5-1.67,6.69-16.65,7.25-17.4,3.01-4.04,4.06,1.57,6.34-1.41.54-.7,5.78-13.72,7.7-15.99-2.7,8.17-5.43,16.48-8.61,24.45-3.45,8.66-8.45,13.54-6.8,19.28-2.53.39-12.08,14.97-12.23,15.99-1.04,7.13,4.81-1.69,7.93-5.41.85.32-5.81,15.75-6.57,17.17-.87,1.61-4.32,2.81-2.49,4.94,15.68-12.85.18,2.23,4.76,10.58-11.41,19.36-1.91,12.07-1.36,13.17.25.49-4.76,6.62-5.44,9.41-3.3,13.55,6.16-6.09,11.78-7.99.09-2.33,8.32-17.75,9.29-17.63,9.4,14.77-3.76,9.08-3.4,17.63,3.86.14-1.06,14.61,4.08,8.94.69-.76,9.56-17.3,9.51-18.34-.11-2.62-5,.47-4.53-3.29.15-1.2,19.86-19.23,8.61-3.76,1.29,2.18,6.23-2.63,6.8-1.41-1.06,12.65-12.41,33-1.36,26.33,7.38-18.04,8.86-17.9,3.62,1.41-5.44,20.07-18.54,41.71-25.82,60.9-2.56-.62-2.34-1.86-2.49-1.88-1.85-.27-19.04,28.81-19.71,32.92-5.14-13.85-6.97-6.36-9.06-8.7-.59-.67-6.22-16.03-6.34-16.93-1.77-13.3,7.22,3.1,1.36-11.76-.08-1.84,2.5-2.15.91-4.94,2.23.08-1.42-1.53-1.81-2.12-1.05-1.55-2.33-4.66-2.72-5.17-7.85-10.3-5.37-3.94-14.27-10.58-5.54-.81-12.43,1.16-14.04.94-1.24-.17-4.81-3.43-6.57-1.88-1.85-3.23-.97-6.42,2.94-6.11,6.76.52,5.61,6.21,2.49-15.75-.7-.77-1.15-.61-1.81-1.65-.61-.96-.34-2.28-1.81-2.82.78-6.47,7.06-1.27,4.98-5.88-.22-.48-1.24-.11-1.36-.24-1.18-1.29-4.85-4.31-6.34-4.7-4.49-1.19-25.21,8.67-17.22,19.28-1.46,1.62-.77,2.04-.45,3.76.04.24.26.65.45,1.41q-1.13,1.41-2.27,2.82c-1.99-1.94-5.09-4.61-6.8-6.58-1.08-1.25-7.19-8.65-7.25-9.41,2.36-9.64,7.99-17.87,11.78-26.81.31,3.51-2.84,18.09-2.72,19.05.1.8.39,1.12.91.47.53-.67,4.49-14.44,4.98-16.46.64-2.64.5-7.53.91-9.41.52-2.41,3.88-9.39,3.17-11.99,5.59-12.19,9.82-20.47,18.35-31.04-3.46,20.9-4.46,15.67,4.53.47q-.34,6.47-.68,12.93c4.43-10.99,7.62-27.73,15.4-35.27,6.63-17.26,10.79-35.97,19.93-51.97.91,0,1.81,0,2.72,0" style="fill:#fbe8d0; stroke-width:0px;"/><path d="m181.84,0l-2.49,5.64L180.48,0h1.36" style="fill:#535357; stroke-width:0px;"/><path d="m163.72,44.68l-.45-.47c1.52-8.9,14.64-34.57,17.67-37.86.45-.49.83-1.1,1.36-.47-4.3,15.95-10.21,31.37-16.99,46.32,4.45-21.08,4.7-14.51-1.59-7.52" style="fill:#636176; stroke-width:0px;"/><path d="m163.49,147.2c.85,0,1.95,11.66.45,12.23-4.7,1.79-1.34-12.23-.45-12.23" style="fill:#ee9da6; stroke-width:0px;"/><path d="m134.95,118.99c.16-.11.94-.08,1.13.24-.72,1.38-5.94,18.76-7.02,18.58-3.68-.62,2.74-8.68,2.94-9.17.6-1.44,2.19-9.11,2.94-9.64" style="fill:#ee9da6; stroke-width:0px;"/><path d="m156.24,122.75c8.71,6.8.32,8.7-.68,6.35-.15-.35-.29-5.99.68-6.35" style="fill:#ee9da6; stroke-width:0px;"/><path d="m199.28.95c.5.24-.43,3.44-.68,4-2.79,6.17-8.23,5.48.68-4" style="fill:#fcaaa8; stroke-width:0px;"/><path d="m186.14,21.64c3.36.02-2.83,6.39-3.17,6.11-1.2-.98,1.15-6.12,3.17-6.11" style="fill:#e98492; stroke-width:0px;"/><path d="m206.98,167.43c1.28.26-1.26,6.47-2.27,6.11-2.09-.73.59-6.1,2.27-6.11" style="fill:#e98492; stroke-width:0px;"/><path d="m187.95,203.17c-.29,5.35-5.59,11.59-4.3,6.35.09-.38,4.05-4.92,4.3-6.35" style="fill:#d86e76; stroke-width:0px;"/><path d="m176.18,180.59c4.09-1.9,2.36,3.33.45,3.29-.69-.01-1.96-2.59-.45-3.29" style="fill:#c65572; stroke-width:0px;"/><path d="m185.24,121.81c4.49-.51-2.39,4.26-1.13.71.02-.06,1.07-.7,1.13-.71" style="fill:#ea5067; stroke-width:0px;"/><path d="m209.25,160.84c.97-.44,1.32,1.49.45,1.41-.28-.03-1.08-1.12-.45-1.41" style="fill:#cd725d; stroke-width:0px;"/><path d="m178.89,167.9c.63-.33,1.63.54,1.59.71-.24.84-2.34-.32-1.59-.71" style="fill:#ab876d; stroke-width:0px;"/><path d="m124.08,103c.24-.09,1.04-.08,1.13.24.23.76-3.35.55-1.13-.24" style="fill:#d3bfa7; stroke-width:0px;"/><path d="m192.03,175.89c.89-.25.9,1.21.45,1.41-.17.07-1.14-1.22-.45-1.41" style="fill:#c49e7c; stroke-width:0px;"/><path d="m163.72,44.68c-1.47,1.63-.64.61-.45-.47l.45.47" style="fill:#999686; stroke-width:0px;"/><path d="m216.27,0q-3.28,11.99-6.57,23.98c7.24-9.96,5.96-13.37,8.38-23.98,16.01.01,32.01-.02,48.02,0-3.26,16.53-10.07,19.82-14.72,32.45,4.81-3.56,9.13-16.1,6.57-6.35-4.18,15.92-15.62,36.94-21.75,52.67.23.37.73.27,1.13.24,3.67-.29,22.63-50.26,25.14-57.14,1.83-4.99,3.62-13.22,6.34-16.69,1.83,7.25,3.44,14.56,5.89,21.63-3.3,3.28-4.25,16.29-2.27,19.75-.68,9.43-.71,18.54,1.81,27.75-.95-.2-2.85,5.3-3.62,7.76-2.5,7.96-13.27,48.47-14.5,50.79-2.22,4.19-5.16,3.93-5.89,4.7-6.15,13.49-22.62,55.99-27.64,64.43-.91,1.54-4.12,5.98-5.44,6.82-1.86,1.18-6,1.89-8.38,2.82-.33-.19,1.34-5.01,1.59-5.64,7.28-19.19,20.38-40.83,25.82-60.9,5.23-19.31,3.75-19.45-3.62-1.41-11.06,6.67.3-13.69,1.36-26.33-.56-1.22-5.51,3.59-6.8,1.41,11.25-15.46-8.46,2.56-8.61,3.76-.47,3.76,4.42.67,4.53,3.29.04,1.04-8.83,17.58-9.51,18.34-5.14,5.67-.21-8.8-4.08-8.94-.36-8.56,12.8-2.87,3.4-17.63-.97-.11-9.2,15.3-9.29,17.63-5.62,1.91-15.08,21.55-11.78,7.99.68-2.78,5.68-8.92,5.44-9.41-.55-1.09-10.06,6.19,1.36-13.17-4.58-8.35,10.93-23.43-4.76-10.58-1.82-2.13,1.63-3.33,2.49-4.94.76-1.42,7.41-16.85,6.57-17.17-3.12,3.71-8.97,12.54-7.93,5.41.15-1.02,9.71-15.6,12.23-15.99-1.66-5.74,3.35-10.62,6.8-19.28,3.18-7.98,5.91-16.28,8.61-24.45-1.92,2.27-7.16,15.29-7.7,15.99-2.29,2.98-3.33-2.63-6.34,1.41-.56.75-5.75,15.73-7.25,17.4-1.9,2.11-4.01,1-5.44,2.35-1.18,1.12-10.26,26.76-12.69,30.57-2.8,3.82-6.24-1.32-9.29,8.7-6.54-.77-9,7.19-9.97,12.7-6.36-8.75-.67-11.69,1.59-20.93-17.04,23.99-4.84-8.87-1.36-17.4,6.21-15.2,10.34-18.17,10.42-19.28.03-.43-3.23-2.51.68-7.76,7.14,4.64,6.6.14,12.91-10.11-3.24-4.54,1.31-7.02,2.72-9.88,6.02-12.23,11.35-24.85,16.76-37.39,2.87,0,5.74,0,8.61,0" style="fill:#fcaaa8; stroke-width:0px;"/><path d="m267.46,0c.14,1.8.93,3.45,1.36,5.17-2.72,3.47-4.52,11.7-6.34,16.69-2.52,6.87-21.47,56.85-25.14,57.14-.4.03-.9.13-1.13-.24,6.13-15.73,17.57-36.75,21.75-52.67,2.56-9.75-1.76,2.79-6.57,6.35,4.65-12.62,11.46-15.92,14.72-32.45.45,0,.91,0,1.36,0" style="fill:#fedccc; stroke-width:0px;"/><path d="m218.08,0c-2.42,10.61-1.14,14.03-8.38,23.98q3.28-11.99,6.57-23.98c.6,0,1.21,0,1.81,0" style="fill:#fbe8d0; stroke-width:0px;"/><path d="m249.11,61.61q-7.59,20.34-15.18,40.68c-2.13.96-13.99,21.27-15.86,14.58-.45-1.6,11.42-28.57,12.69-30.57,3.17-5.02,4.68-2.07,6.8-4.23,1.35-1.38,8.12-16.89,11.55-20.46" style="fill:#fbe8d0; stroke-width:0px;"/><path d="m183.42,72.43c.67.34-2.93,12.52-3.4,13.87-2.2,6.33-8.08,19.69-12.91,24.69l-.68-.71c5.72-12.61,10.65-25.55,16.99-37.86" style="fill:#fbe8d0; stroke-width:0px;"/><path d="m247.76,91.71c-.47,2.64-6.57,20.33-7.47,20.93-.76.5-3.73-1.49-4.76-1.65-.21-.29-.67-.58-.68-.71-.11-1.14,12.53-15.22,12.91-18.58" style="fill:#fbe8d0; stroke-width:0px;"/><path d="m226.01,89.36c1.99.33-7.78,11.52-8.61,12.23-7.07,6,2.52-7.16,8.61-12.23" style="fill:#fbe8d0; stroke-width:0px;"/><path d="m228.73,55.03c1.61.59-5.12,9.48-5.44,10.35-1.96.41,4.22-9.49,5.44-10.35" style="fill:#fedccc; stroke-width:0px;"/><path d="m78.09,387.99c-1.83,2.01-12.69,13.47-13.14,14.34-1.85,3.62,5.89-5.7,11.1-6.35v-.94c-5.71,1.27,6.5-8.84,11.1-13.17.02.63-.01,1.25,0,1.88.39,4.09-.33,8.18-.45,12.23-4.1,6.88-32.92,26.26-32.62,28.45.22,1.6,5.11-.11.45,1.88,1.15.44,4.26.29,3.4,1.65-.4-.3-2.79-.95-2.94-.94-4.32.18-5.28,2.41-3.62,6.58q-3.96.94-7.93,1.88c.62-4.18-2.53-6.99-4.76-10.35,1.76-8.95,2.77-18.13,2.94-27.28-1.26,2.84-3.42,9.31-3.85,11.99-.67,4.19.33,11.9-1.36,12.93-.64-1.21-1.75-1.4-1.36-3.29l.45-19.05q-1.59,7.64-3.17,15.28c-1.86-2.75-4.06-5.4-5.89-8.23-1.96-3.02-.8-3.36-.91-3.53.5-1.21,1.4-2.35,2.27-3.29,6.15-6.71,14.06-11.21,20.61-17.4l.23,4.23c-.64,1-4.34,6.99-3.4,7.52,6.2-4.9,12.92-8.92,19.25-13.64q1.7,3.53,3.4,7.05c3.43-.92,6.69-1.14,10.19-.47" style="fill:#ad738b; stroke-width:0px;"/><path d="m175.5,435.95c-.1.24,1.68,1.53-1.59,1.88-.39.17-.03.44.23.94,1.12,2.18,4.18-.36,7.25-.94-.02,2.27,4.83,0,8.83,0,.86,2.8,15.33,4.53,16.31,4.23.15-.04,1.56-2.1,2.04-2.35.64.2,1.23.64,2.27.94.11.03.1,1.25,2.04.94q4.87-3.76,9.74-7.53c.5.69,2.31,1.72,2.72,2.59.35.73-.55,1.43-.45,1.65q-3.96,3.06-7.93,6.11c-9.77-.39-15.29-4.79-11.1,1.41-1.06-.09-2.09.76-3.85.47-1.22-1.36-2.73-1.75-3.85-1.88-3.09-.36-6.26,1.39-9.51,2.35,1.83-1.3.41-1.33-.45-2.35-.03-.04.94-.07.23-.94-3.46.16-7.21-.08-10.65-.47-4.91-.24-8.8-2.51-12.23-6.11,3.19-15.14,14.67-25.44,19.93-35.04,4.89-8.92,2.01-15,13.59-15.52-8.56,11.87-27.12,35.75-23.56,49.61" style="fill:#fedccc; stroke-width:0px;"/><path d="m190.9,481.57c-15.4,0-30.81,0-46.21,0,.41-3.58-16.28-7.75-21.52-12.7-4.26-4.03-2.62-7.98,0-7.99,2.37,0,31.32,12.35,45.76,12.23q10.99,4.23,21.97,8.46" style="fill:#1b1e2f; stroke-width:0px;"/><path d="m198.15,444.42c.94,2.74-3.55,6.99-.45,8.46,1.02,3.61.3,6.46-3.4,7.53-2.1.6-41.39,1.05-43.49.47-9.18-2.52,5.25-2.72,5.89-2.82,6.66-1.01,18.84-5.29,13.36-7.05,8.29.13,11.69-2.2,18.57-4.23,3.25-.96,6.42-2.71,9.51-2.35" style="fill:#1b1e2f; stroke-width:0px;"/><path d="m250.7,421.85c2.05,1.14,3.71,3.2,4.98,5.17.16.24.31.67.45.94-1.58,9.52,5.07,5.1-8.38,14.11-1.99.32-1.73-.84-2.49-1.41-.06-.05.23-.85-.68-1.41-1.8-1.1-6.8-1.43-4.08-3.29-6.46.46,1.19-1.63-.45-2.35-3.1-.23-9.61,5.81-10.19.24-.29-2.74,10.22-14.11,11.1-14.34,1.69-.45,7.94,1.35,9.74,2.35" style="fill:#5e4e69; stroke-width:0px;"/><path d="m205.85,445.83c4.5.39,9.32.9,13.82.94,13.86.12,31.55-3.74,24.46,3.29-4.23,4.2-12.88.99-19.03,2.35-5.45,1.21-7.53,6.08-15.4,4.7-1.08-.19-5.08-2.6-6.8-3.29-1.4-.56-4.75-.72-5.21-.94-3.1-1.47,1.39-5.73.45-8.46,1.12.13,2.63.52,3.85,1.88,1.76.29,2.79-.56,3.85-.47" style="fill:#fbe8d0; stroke-width:0px;"/><path d="m81.72,442.07c-1.12,1.94-16.78,1.83-19.71,1.41-9.34-1.33-14.8-10.59,5.89-1.88,1.53.32,2.87-.23,4.3-.47.31-.05,4.83-1.84,6.12-1.88l2.49-1.88c1.2,1.33,1.88,3,.91,4.7" style="fill:#fbe8d0; stroke-width:0px;"/><path d="m314.13,419.49c-2.83-4.23,1.69-12.61-3.4-7.52q-1.93-.94-3.85-1.88c.12-1.67,1.88-8.04,0-5.41-.63.88-6.99,16.03-9.51,19.52-.21.03-.14,2.25-3.62-.47.37-5.46-7.73-6.97-9.06-10.11-2.35-5.55,4.14-8.41-10.42-17.4,13.2-36.61,9.94-24.38-6.8-.94-1.91,2.68-3.94,5.51-6.34,7.76.6-3.9,2.67-8.25,2.72-8.7.59-5.47-3.5-1.87-2.72-9.88.37-3.8,7.45-20.91,1.81-17.63,7.18-11.37,12.63-24.14,21.29-34.57-.58-3.22-1.83-8.21-1.36-11.29.06-.39,4.45-6.49-1.59-.71-.39-.09-.59-1.84-.68-1.88,2.55-10.31,5.67-20.74,7.25-31.27,1.83-12.21,5.8-59.92,6.34-73.6.01-.36.42-.4.45-1.41,3.26-.65,5.18-14.57,6.34-13.4,3.02,8.28,3.47,49.82,4.53,52.2.43.95,1.9.47,2.27,1.41,1.42,3.6-.32,68.23.23,77.83.59.13,1.34-.12,1.58-.71.91-2.18,2.48-42.68,3.62-45.15,3.9-8.4,5.44,23.31,9.06,16.46,1.77-3.35,2.92-50.32.45-57.84,2.95-4.82,3.49-27.84,5.89-9.88,1.9,14.25,1.46,28.98,3.17,43.27h.91c-.17-2.08.27-4.17.91-6.11,7.51-22.87,11.63-20.58,2.27,2.35-1.24,15.19-3.01,30.37-.91,45.62-12.69,11.34-18.24,29.55-15.86,46.56-10.96,11.6-4.21,37.86-4.98,54.79" style="fill:#5e4e69; stroke-width:0px;"/><path d="m306.88,410.09c-.21,2.8.18,9.52-.45,10.58-2.84,1.93-5.78,3.04-9.06,3.53,2.52-3.48,8.89-18.64,9.51-19.52,1.88-2.63.12,3.74,0,5.41" style="fill:#1b1e2f; stroke-width:0px;"/><path d="m17.39,395.98c-.11-.09-2.41.07-2.72-.71.57-8.36.6-16.82,1.36-25.16.2-2.21,1.07-5.07,1.36-7.52h.45q-.23,16.69-.45,33.39" style="fill:#1b1e2f; stroke-width:0px;"/><path d="m38.68,425.14c-.09-.14-1.55-.99-2.27-2.35,1.69-1.04.69-8.74,1.36-12.93.43-2.68,2.59-9.15,3.85-11.99-.18,9.14-1.19,18.33-2.94,27.28" style="fill:#8e5a78; stroke-width:0px;"/><path d="m17.39,395.98c1.87,1.6,4.51,4.99,7.25,6.58.36,1.15.86,1.34.91,1.41.11.17-1.05.51.91,3.53,1.83,2.83,4.03,5.48,5.89,8.23.13.19.5,3.28,2.72,3.76-.39,1.89.72,2.08,1.36,3.29.72,1.36,2.17,2.21,2.27,2.35,2.23,3.35,5.38,6.17,4.76,10.35q3.96-.94,7.93-1.88c.79.25,2.27,1.39,2.72,1.41,4.13.19,7.26-.72,8.38-.47,3.51,2.45,5.06,6.12,9.74,6.58-1.43.24-2.77.79-4.3.47-20.69-8.71-15.22.55-5.89,1.88,2.92.42,18.59.53,19.71-1.41,4.24,2.6,4.72,1.34,4.98,1.41,2.25.61,4.54,1.68,6.8,2.35l15.18,3.29c13.36,1.1,20.66-4.43,23.11.47,1.4.45,15.38-1.02,16.08-3.76,5.53.87,11.55,1.34,16.31,4.7,2.01-.12,3.88.44,5.89.47,5.47,1.76-6.7,6.04-13.36,7.05-.64.1-15.07.3-5.89,2.82,2.1.58,41.4.13,43.49-.47,3.7-1.07,4.42-3.91,3.4-7.52.45.22,3.81.38,5.21.94,1.71.69,5.71,3.1,6.8,3.29,7.87,1.38,9.96-3.5,15.4-4.7,6.15-1.36,14.79,1.85,19.03-2.35,7.09-7.04-10.6-3.17-24.46-3.29-4.49-.04-9.32-.55-13.82-.94-4.19-6.2,1.33-1.8,11.1-1.41q3.96-3.06,7.93-6.11c3.88,8.59,8.99-2.38,20.39,2.35.76.57.5,1.73,2.49,1.41,13.45-9.01,6.81-4.58,8.38-14.11.05.09-.1.52.45.47-1.82,6.32,1.94,6.07,3.62,4.23.4-.03.45.42.91.47,2.22.24,4.22-.36,6.34-.47,5.54-.28,25.79-1.67,26.28-8.94,3.48,2.72,3.41.5,3.62.47,3.28-.49,6.22-1.6,9.06-3.53.63-1.06.25-7.78.45-10.58l3.85,1.88c5.08-5.09.57,3.29,3.4,7.52l-.23,1.41c-9.31,3.45-13.99,12.03-20.84,18.34-3.53,3.25-8.88,5.37-12.23,8.94-6.09,6.48-3.66,10.98-15.86,18.34-8.48,5.12-18.38,5.14-19.71,15.05-18.12.02-36.24,0-54.36,0l-21.97-8.46c-14.44.12-43.39-12.24-45.76-12.23-2.62.01-4.26,3.96,0,8,5.24,4.95,21.93,9.12,21.52,12.7-16.31,0-32.62,0-48.93,0-1.85-3.26-19.72-17.35-21.97-18.81-6.51-4.22-14.84-5.75-20.84-10.82-2.81-2.38-40.7-50.53-45.53-58.55-17.66-1.12,1.51-1.72,3.4-2.59.3-.14.74-.89,1.13-1.17q-.68-6.94-1.36-13.87c3.04-.48,3.22-4.03,5.44-5.64-.76,8.34-.79,16.8-1.36,25.16.31.77,2.61.61,2.72.71" style="fill:#4b405f; stroke-width:0px;"/><path d="m264.97,449.12c3.84-.16.29,8.9-4.53,10.82-2.82,1.12-15.45,1.58-16.08.24-1.7-3.65,8.21-.83,13.82-4,2.7-1.53,5.07-6.98,6.8-7.05" style="fill:#1b1e2f; stroke-width:0px;"/><path d="m231.45,461.35c1.2.03,3.79,3.7,3.17,4.7-.4.65-13.99,5.89-13.36,1.65.09-.61,9.6-6.36,10.19-6.35" style="fill:#1b1e2f; stroke-width:0px;"/><path d="m188.18,444.42c.86,1.02,2.29,1.05.45,2.35-6.88,2.03-10.28,4.36-18.57,4.23-2.01-.03-3.88-.59-5.89-.47l24.01-6.11Z" style="fill:#d7c0bb; stroke-width:0px;"/><path d="m35.05,419.49c-2.22-.49-2.59-3.57-2.72-3.76q1.59-7.64,3.17-15.28-.23,9.52-.45,19.05" style="fill:#392e45; stroke-width:0px;"/><path d="m85.34,417.61c-.02.15.71.85.45,3.06-.29,2.51-3.6,15.02-4.98,16.69l-2.49,1.88c-1.29.04-5.8,1.83-6.12,1.88-4.68-.46-6.23-4.14-9.74-6.58-1.12-.25-4.26.66-8.38.47.79-2.95-.97-4.94.91-7.99.15,0,2.54.64,2.94.94.87-1.36-2.25-1.2-3.4-1.65,4.66-1.99-.23-.28-.45-1.88-.3-2.19,28.52-21.57,32.62-28.45-.2,6.64-.72,15.04-1.36,21.63" style="fill:#fcaaa8; stroke-width:0px;"/><path d="m54.99,427.02c-1.87,3.06-.11,5.05-.91,7.99-.45-.02-1.93-1.16-2.72-1.41-1.66-4.18-.69-6.4,3.62-6.58" style="fill:#ee9da6; stroke-width:0px;"/><path d="m82.62,166.02c-.12.86-1.18,3.13-.68,3.29.88-1.07,1.9-2.16,3.17-.94.95-.58,3.88-6.88,4.76-8.46.94,1.54,1.71.72,2.27.94,1.52.61,2.51,1.57,3.17,1.88q3.62,4.12,7.25,8.23c-6.77,3.02-10.74,3.3-17.67,3.53-.9.03-1.81-.03-2.72,0-1.44.05-3.24.25-3.85-.47l-.23,1.18c2.78,2.87,5.32,5.95,7.7,9.17-.74,1.16-.97,2.47-1.36,3.76-7.57-7.8-7.7-17.77-11.33-3.06-5.69,2.43,1.6-9.7-4.98-12.46,2.32-2.09,2.91-3.01,4.53-5.64l.23,13.17c.85-.41,9.92-26.25,11.1-22.81-1.04,2.78-.96,5.8-1.36,8.7" style="fill:#fbe8d0; stroke-width:0px;"/><path d="m82.62,166.02c.4-2.9.32-5.92,1.36-8.7-1.18-3.45-10.25,22.4-11.1,22.81l-.23-13.17c2.02-3.28,7.73-18.2,9.74-19.28q1.59,1.65,3.17,3.29l4.3-2.12c-2.33,5.15-4.03,13.38-7.25,17.16" style="fill:#fcaaa8; stroke-width:0px;"/><path d="m39.58,239.85c-2.13,1.51-5.01,3.24-6.8,4.7,2.43-5.63,5.75-10.81,8.15-16.46.66,3.23-1.03,8.18-1.36,11.76" style="fill:#fedccc; stroke-width:0px;"/><path d="m68.13,172.6c6.59,2.76-.71,14.89,4.98,12.46,3.63-14.71,3.75-4.75,11.33,3.06-.47,1.56-.89,3.54-1.36,4.7-2.1,5.19-6.01,9.81-6.34,15.75-8.55,14.59-24.08,22.01-37.15,31.27.32-3.58,2.02-8.53,1.36-11.76,6.46-15.21,15.37-49.99,17.22-52.91,1.28-2.02,3.62-3.24,5.21-4.94v5.64c.69.6,4.11-2.71,4.76-3.29" style="fill:#fcaaa8; stroke-width:0px;"/><path d="m73.34,193.29c2.97-.58-5.45,12.04-6.34,11.76-2.75-.86,5.34-11.56,6.34-11.76" style="fill:#fbe8d0; stroke-width:0px;"/><path d="m280.6,318.38c-.62-.28-2.42-.51-3.17.24-2.63,2.61-14.3,33.26-18.8,35.04-9.2-1.53-12.06,15.38-17.22,13.64-5.14-1.74,5.19-10.39-.23-21.4-3.36-6.82-3.54,10.31-11.55,4.47-3.01,1.87-9.9,10.47-13.14,9.41-6.59-2.15,10.4-19.33,4.3-27.28,3.37-6.01,7.09-11.81,10.42-17.87,13.77-25.04,27.14-50.35,40.77-75.48q11.1-12.82,22.2-25.63c-.55,13.68-4.51,61.39-6.34,73.6-1.58,10.53-4.7,20.96-7.25,31.27" style="fill:#ad738b; stroke-width:0px;"/><path d="m228.95,278.41c.14-2.19.21-2.39-1.13-2.35-1.99.06-23.17,28.08-25.6,31.74-9.85,14.84-7.24,18.59-8.15,8.23-.21-2.36.3-2.1-.91-.94-2,1.93-18.47,31.43-19.03,33.86-.65-1.75-2.02-3.99-2.27-5.88-1.12-8.66,4.98-19.53-4.08-51.26-.69-2.4-2.68-5.33-2.72-5.64-.35-2.69,1.97-.27,2.27-1.88.11-.61-4.15-9.82-4.08-11.76q8.49,13.75,16.99,27.51c7.69-3.87,2.93-11.99,11.1-5.41.88,3.19-11.33,10.77-2.94,9.64,3.79-.51,10.12-10.01,9.29-18.11-.06-.59-1.33-3.24-1.81-6.82,2.76-5.65,2.9-11.43,3.17-11.99.17-.36,1.6-.16,5.44-5.41.38-.52,1-.89,1.36-1.41,2.19-3.22,3.5-6.76,5.44-10.11-3.42-5.32.06-8.9,0-9.41-.02-.14-1.51-.4-1.36-2.35.04-.52,4.28-7.83,4.98-9.17,1.77.45.35,4.06,1.13,4.7,14.88-12.06-4.9,9.69-.45,16.93,6.16-7.39,14.39-4.97,11.1-14.81,3.09-2.61,18.6-42.59,23.11-38.56-.12,11.69-5.07,11.14,5.44,7.05-.96,4.36-11.15,7.68-9.97,12.23.87,3.33,6.07-2.95,5.89,0-.12,1.92-5.55,8.16-3.62,14.58-1.15,1.83-6.74,14.22-6.8,15.05-.22,3.27,1.92,4.16,1.81,4.7-.16.78-10.88,10.03-3.4,11.52,1.22,1.47-7.8,16.34-10.19,15.52" style="fill:#fbe8d0; stroke-width:0px;"/><path d="m228.95,278.41c-.1,1.67-14.22,24.93-16.31,28.92-3.23,6.19-6.01,12.76-9.06,19.05-.83,1.71-1.48,5.25-3.17,7.76-8.16,3.25-9.45,13.66-13.14,21.63-1.99,4.31-6.99,6.72-3.17,12.23-.63.87-1.08,2.03-1.36,3.06-1.76-7.63-4.4,6.72-4.76-5.17-1.06-.22-1.11,4.9-5.66.47,1.3-4.39,2.75-8.72,4.53-12.93-.58-1.48-2.33-3.41-2.72-4.47.56-2.42,17.02-31.93,19.03-33.86l.91.94c.92,10.36-1.69,6.61,8.15-8.23,2.43-3.66,23.6-31.69,25.6-31.74,1.34-.04,1.27.17,1.13,2.35" style="fill:#ea5067; stroke-width:0px;"/><path d="m231.22,314.62c-3.33,6.06-7.05,11.86-10.42,17.87-.14.24-1.71,1.8-3.17,4.47q-4.42,9.52-8.83,19.05c-1.34-4.84,2.3-11.11-2.27-9.88-3.74,1.01-17.61,30.63-11.33,5.64-8.97,9.38-4.35,7.18-4.76,10.11-.08.54-3.63,3.18-1.81,10.35-5.58,7.06-9.04,15.52-13.14,23.51.66,1.14,7.17-4.67,8.38-5.41,1.41.75-12.74,26.36-16.54,27.51-1.52,5.92-3.08,11.47-3.17,17.63-.42-.6-1.1-1.18-1.36-1.88-.26-.71-.44-1.52-.91-2.12.39-9.25,1.46-18.41,3.17-27.51l1.81,1.65c4.66-11.27,12.62-22.68,15.86-34.57.28-1.03.73-2.18,1.36-3.06-3.82-5.51,1.18-7.92,3.17-12.23,3.68-7.97,4.98-18.38,13.14-21.63,1.69-2.51,2.34-6.05,3.17-7.76,1.87,1.28,2.79-2.01,2.72-.24-.07,1.81-8.24,15.21,1.59,12.93,5.11-1.19,12.67-18.66,15.18-20.93.99-.9,6.32-3.03,8.15-3.53" style="fill:#fedccc; stroke-width:0px;"/><path d="m294.65,212.1c-.04,1.01-.44,1.05-.45,1.41q-11.1,12.82-22.2,25.63c-13.63,25.12-27,50.44-40.77,75.48-1.83.5-7.16,2.63-8.15,3.53-2.5,2.26-10.07,19.74-15.18,20.93-9.83,2.28-1.66-11.12-1.59-12.93.07-1.78-.85,1.52-2.72.24,3.05-6.29,5.83-12.86,9.06-19.05,2.08-3.99,16.2-27.25,16.31-28.92,2.39.82,11.41-14.04,10.19-15.52-7.48-1.49,3.24-10.74,3.4-11.52.11-.54-2.03-1.43-1.81-4.7.06-.83,5.64-13.22,6.8-15.05-1.92-6.42,3.5-12.66,3.62-14.58.18-2.95-5.02,3.33-5.89,0-1.18-4.54,9.01-7.87,9.97-12.23-10.51,4.09-5.55,4.64-5.44-7.05-4.51-4.03-20.01,35.95-23.11,38.56,3.29,9.84-4.94,7.43-11.1,14.81-4.45-7.24,15.34-28.99.45-16.93-.79-.64.64-4.25-1.13-4.7,1.51-2.87,3.36-5.27,4.98-7.99,2.59-.94,5.61.24,7.25-1.18,1.63-1.41,17.68-33.33,22.43-37.39.6,1.04,6.08-1.6,6.57-2.12.8-.83,8.98-18.49,9.74-20.93-2.82,5.26-16.84,28.71-13.36,9.64.08-.45,2.61-1.84.23-3.53-7.8,6.67,4.98-19.62,4.76-20.93-.44-2.55-4.83,3.64-4.98.47-.05-1.06,4.17-10.22,6.34-10.82q7.02-24.1,14.04-48.2c-.04,16.59,2.78,33.85,6.34,49.61,2.91-17.24-1.72-35.32,2.04-52.44,1.17-.23,1.38,16.94,2.04,20.46,1.07,5.68,4.78,12.39,6.34,18.34,3.46,13.2,3.89,24.77,5.44,32.45.55,2.74,3.81,8.92,4.08,11.76.66,6.93-3.99,5.65-4.98,13.17-.38,2.9.82,22.06.45,32.21" style="fill:#fcaaa8; stroke-width:0px;"/><path d="m253.19,185.77c-.7,2.13-3.18,7.08-4.3,8.7-7.35,10.6-2.17-3.82,4.3-8.7" style="fill:#fbe8d0; stroke-width:0px;"/><path d="m254.1,182.48c2.43-.52-1.27,4.53-1.59,2.12-.02-.13,1.46-2.09,1.59-2.12" style="fill:#fedccc; stroke-width:0px;"/><path d="m279.92,175.42c.99-.08,1.22,2.33.45,2.35-1.24.03-1.49-2.26-.45-2.35" style="fill:#ffe4e2; stroke-width:0px;"/><path d="m276.3,186.24c.81-.49,2.09,2.34.91,2.35-.32,0-1.78-1.82-.91-2.35" style="fill:#ffe4e2; stroke-width:0px;"/><path d="m268.14,193.29c1.56-1.04.85,3.24-.23,1.18-.11-.21-.07-.98.23-1.18" style="fill:#fedccc; stroke-width:0px;"/><path d="m79.9,362.12c-4.35-.53-2.22-3.75-4.98-5.64,1.43-1.82,4.37-4.47,3.62-6.58,1.27-1.27,2.37-2.92,3.62-4.23.29-.3,1.29-.69,1.36-1.41.99,1.62,4.81-2.55,7.25-5.17,2.9,3.32.98,5.34,1.36,9.17.27,2.73,6.17,6.03-7.25,8.46,5.72,6.79,2.78,2.75-4.98,5.41" style="fill:#6c456c; stroke-width:0px;"/><path d="m198.15,259.13c-1.25,4.03-.75,8.64-3.17,12.23-.56-3.14-1.22-6.27-1.81-9.41,2.04-.7,3.75-3.59,4.3-3.76.25-.08.62.93.68.94" style="fill:#fcc9bb; stroke-width:0px;"/><path d="m219.89,221.51c-1.63,2.73-3.47,5.12-4.98,7.99-.7,1.34-4.94,8.65-4.98,9.17-.15,1.96,1.34,2.22,1.36,2.35.06.51-3.42,4.09,0,9.41-1.93,3.35-3.24,6.89-5.44,10.11l-.68-4.23c-1.42,1.56-1.66,4.87-4.3,4.7-.46-.47-.69-1.63-2.04-2.35-.06-.03-.31.54-.68.47-.06-.01-.43-1.02-.68-.94-.56.17-2.26,3.06-4.3,3.76-1.47-7.8-5.52-16.79-4.98-24.92.67-4.11,17.85-33.19,19.71-32.92.15.02-.07,1.26,2.49,1.88-.24.64-1.91,5.45-1.59,5.64,2.39-.93,6.53-1.65,8.38-2.82-.68,2.63-12.32,15.2-12.23,16.22.08.9,3.15,1.44,3.85,1.18,1.39-.51,10.25-15.79,17.89-24.22.93-1.03,8.95-10.25,9.51-7.53.32,1.56-14.29,23.66-16.31,27.04" style="fill:#ea5067; stroke-width:0px;"/><path d="m200.87,261.01c.22.22-.78.72-.23.94,1.27.51,3.59-.87,3.85,0-3.84,5.25-5.27,5.05-5.44,5.41-.27.56-.41,6.34-3.17,11.99-.35-2.62-.45-5.43-.91-7.99,2.42-3.59,1.92-8.2,3.17-12.23.37.07.62-.5.68-.47,1.35.72,1.58,1.88,2.04,2.35" style="fill:#d86e76; stroke-width:0px;"/><path d="m205.85,260.54c-.35.52-.98.89-1.36,1.41-.26-.87-2.58.51-3.85,0-.56-.22.44-.72.23-.94,2.64.17,2.88-3.14,4.3-4.7l.68,4.23" style="fill:#fbbebf; stroke-width:0px;"/><path d="m73.11,373.88c.07,1.54-5.44,5.16-8.61,7.52-6.33,4.72-13.06,8.73-19.25,13.64-.95-.53,2.76-6.53,3.4-7.52,3.52-5.46,8.61-10.08,12.69-15.05-.86,1.92,7.3,1.66,11.78,1.41" style="fill:#8e5a78; stroke-width:0px;"/><path d="m77.64,365.41c.75,3.29-1.2,3.8,5.89,4-3.57,5.46-4.62,4.14-10.42,4.47-4.48.25-12.64.51-11.78-1.41,3.04-3.71,6.46-7.13,9.51-10.82,2.43,3.76,5.61-1.47,6.8,3.76" style="fill:#6c456c; stroke-width:0px;"/><path d="m88.06,298.63c-7.97,11.23-16.84,21.69-25.37,32.45-1.18-1.42-4.4.81-6.8,1.41,1.55-4.08,5.66-13.19,7.7-16.46,4.51-7.21,16.34-18.93,21.75-27.75.5,5.69-.88,4.98,2.72,10.35" style="fill:#fcaaa8; stroke-width:0px;"/><path d="m62.69,331.08c-5.47,6.91-10.49,15.07-14.5,19.75-1.52,1.78-2.61,1.76-2.72,1.88l-.45-3.76c4-5.21,7.78-10.6,10.87-16.46,2.39-.6,5.61-2.84,6.8-1.41" style="fill:#fedccc; stroke-width:0px;"/><path d="m79.9,362.12c-.46.16-1.52-.28-1.81.24-.29.51.52,2.84-.45,3.06-1.19-5.23-4.37,0-6.8-3.76,1.37-1.65,2.74-3.47,4.08-5.17,2.77,1.9.63,5.12,4.98,5.64" style="fill:#52355d; stroke-width:0px;"/><path d="m63.6,316.03c-2.04,3.27-6.15,12.38-7.7,16.46-3.09,5.86-6.88,11.25-10.87,16.46-.96,1.25-14.46,14.3-8.38,13.64.65-.07,7.65-8.59,8.83-9.88.11-.12,1.19-.1,2.72-1.88.24.86,3.3-1.84,3.85-2.35,5.01-4.59,23.93-22.13,26.96-25.4q3.85-.24,7.7-.47c-7.86,14.19-16.16,28.18-24.46,42.09-.06.91.34.63,1.13.24.94-.48,13.16-13.04,15.18-15.05.75,2.11-2.19,4.76-3.62,6.58-1.33,1.7-2.71,3.52-4.08,5.17-3.05,3.69-6.47,7.11-9.51,10.82-4.07,4.97-9.17,9.59-12.69,15.05l-.23-4.23c-6.55,6.19-14.46,10.69-20.61,17.4q-1.59.94-3.17,1.88c-2.74-1.59-5.37-4.98-7.25-6.58q.23-16.7.45-33.39,10.53-13.64,21.07-27.28l-13.59,26.81q19.14-23.04,38.28-46.09" style="fill:#8e5a78; stroke-width:0px;"/><path d="m27.81,400.68c-.86.94-1.76,2.08-2.27,3.29-.05-.07-.55-.26-.91-1.41l3.17-1.88" style="fill:#392e45; stroke-width:0px;"/><path d="m45.47,352.72c-1.19,1.29-8.19,9.81-8.83,9.88-6.08.66,7.42-12.39,8.38-13.64l.45,3.76" style="fill:#fcaaa8; stroke-width:0px;"/><path d="m36.64,365.88c-1.02,4.75-15.71,21.33-6.57,7.76,1.86-2.76,4.38-5.27,6.57-7.76" style="fill:#392e45; stroke-width:0px;"/><path d="m23.95,384.22c.35-.1,1.36-.1,1.59.24-10.02,11.24-3.95.45-1.59-.24" style="fill:#6c456c; stroke-width:0px;"/><path d="m87.15,381.87c-4.6,4.33-16.81,14.44-11.1,13.17v.94c-5.21.65-12.95,9.97-11.1,6.35.45-.87,11.31-12.34,13.14-14.34,2.94-3.22,5.78-6.55,9.06-9.41.08,1.09-.04,2.2,0,3.29" style="fill:#cd848c; stroke-width:0px;"/><path d="m293.74,423.73c-.48,7.26-20.74,8.66-26.28,8.94,4.02-5.33,8.63-9.51,4.76-16.46-4.14,5.31-8.98,10.27-11.1,16.93-.45-.05-.5-.5-.91-.47,1.52-1.65,2.24-11.36,3.62-14.34-1.77,1.12-6.89,8.87-7.25,10.11-.55.05-.4-.38-.45-.47-.14-.27-.3-.7-.45-.94,3.08-5.02,3.49-10.79,5.44-16.22.27-1.39-.5-1.87-.45-2.12.82-4.27.39-5.25.45-5.64,2.4-2.25,4.43-5.08,6.34-7.76,16.74-23.44,19.99-35.67,6.8.94,14.56,9,8.07,11.85,10.42,17.4,1.33,3.14,9.43,4.65,9.06,10.11" style="fill:#966d7c; stroke-width:0px;"/><path d="m267.46,432.66c-2.12.11-4.12.71-6.34.47,2.12-6.66,6.96-11.62,11.1-16.93,3.87,6.95-.73,11.13-4.76,16.46" style="fill:#ee9da6; stroke-width:0px;"/><path d="m260.21,432.66c-1.69,1.84-5.44,2.09-3.62-4.23.36-1.24,5.48-8.99,7.25-10.11-1.38,2.99-2.1,12.69-3.62,14.34" style="fill:#ee9da6; stroke-width:0px;"/><path d="m260.67,408.68c-.05.25.72.73.45,2.12-1.94,5.44-2.36,11.21-5.44,16.22-1.27-1.98-2.93-4.03-4.98-5.17,2.04-4.38,6.04-10.52,9.97-13.17" style="fill:#ee9da6; stroke-width:0px;"/><path d="m261.12,403.03c-.06.4.36,1.37-.45,5.64-3.93,2.65-7.93,8.79-9.97,13.17-1.8-1-8.05-2.8-9.74-2.35-.88.23-11.39,11.61-11.1,14.34.59,5.58,7.09-.47,10.19-.24,1.65.72-6.01,2.82.45,2.35-2.72,1.87,2.28,2.19,4.08,3.29.91.56.62,1.36.68,1.41-11.4-4.73-16.51,6.23-20.39-2.35-.1-.22.8-.92.45-1.65-.41-.86-2.21-1.9-2.72-2.59-2.62-3.56-5.71-6.79-8.61-10.11v-1.41c9.24-14.31,20.81-26.77,30.81-40.44,7.59-10.38,12.51-23.44,7.02.71,3.15-5.7,7.66-10.54,11.1-15.99,5.64-3.27-1.44,13.84-1.81,17.64-.78,8.01,3.31,4.4,2.72,9.88-.05.45-2.12,4.8-2.72,8.7" style="fill:#ad738b; stroke-width:0px;"/><path d="m226.01,415.26c10.04,4.24.77,8.95-1.81,8.46-5.92-1.12-.04-6.11,1.81-8.46" style="fill:#4b405f; stroke-width:0px;"/><path d="m196.79,434.54c-7.81.82-15.07,2.1-22.65,4.23-.25-.5-.62-.77-.23-.94,3.27-.35,1.49-1.64,1.59-1.88,4.71-11.6,8.14-23.92,16.54-33.39-1.47,5.13-4.55,9.72-6.12,14.81-4.98,16.19-4.47,18.26,7.47,15.28,10.56-15.75,9.15-16.56,3.4,1.88" style="fill:#fedccc; stroke-width:0px;"/><path d="m208.57,439.72c-.48.25-1.89,2.31-2.04,2.35-.98.3-15.45-1.44-16.31-4.23-4,0-8.85,2.27-8.83,0,11.55-2.2,15.87-1.63,27.18,1.88" style="fill:#fedccc; stroke-width:0px;"/><path d="m210.83,440.66c-1.03-.3-1.63-.74-2.27-.94-11.32-3.51-15.63-4.08-27.18-1.88-3.07.59-6.13,3.12-7.25.94,7.58-2.13,14.84-3.41,22.65-4.23,5.03.03,11.07,1.47,14.04,6.11" style="fill:#63565d; stroke-width:0px;"/><path d="m194.07,316.03l-.91-.94c1.2-1.16.7-1.42.91.94" style="fill:#cd848c; stroke-width:0px;"/><path d="m182.74,371.06c-3.23,11.88-11.2,23.3-15.86,34.57q-.91-.82-1.81-1.65c.35-1.88.97-3.77,1.36-5.64.75-3.58,5.93-20.29,5.89-21.4-.01-.37-2.28-3.76-2.27-5.17,0-.87,1.94-4.31,2.27-5.41,4.55,4.43,4.6-.69,5.66-.47.35,11.89,2.99-2.45,4.76,5.17" style="fill:#fcaaa8; stroke-width:0px;"/><path d="m280.6,318.38c.09.04.29,1.79.68,1.88,6.04-5.78,1.65.31,1.59.71-.47,3.07.78,8.06,1.36,11.29-8.67,10.43-14.11,23.2-21.29,34.57-3.44,5.45-7.95,10.29-11.1,15.99,5.49-24.15.56-11.08-7.02-.71-10,13.67-21.57,26.13-30.81,40.44v1.41c2.89,3.32,5.99,6.55,8.61,10.11q-4.87,3.76-9.74,7.52c-1.94.31-1.93-.91-2.04-.94-2.97-4.64-9.01-6.09-14.04-6.11,5.75-18.44,7.16-17.63-3.4-1.88-11.95,2.98-12.45.91-7.47-15.28,1.57-5.1,4.65-9.68,6.12-14.81-8.4,9.47-11.83,21.79-16.54,33.39-3.56-13.87,15-37.75,23.56-49.61-11.58.52-8.7,6.59-13.59,15.52-5.26,9.59-16.74,19.89-19.93,35.04-.51-.53-.89-.73-1.36-1.41.09-6.17,1.65-11.72,3.17-17.64,3.79-1.15,17.95-26.76,16.54-27.51-1.22.73-7.73,6.55-8.38,5.41,4.09-8,7.56-16.46,13.14-23.51-1.82-7.16,1.74-9.8,1.81-10.35.41-2.93-4.21-.73,4.76-10.11-6.28,24.99,7.58-4.63,11.33-5.64,4.56-1.23.92,5.03,2.27,9.88q4.42-9.52,8.83-19.05c1.46-2.67,3.04-4.23,3.17-4.47,6.09,7.94-10.89,25.12-4.3,27.28,3.24,1.06,10.13-7.54,13.14-9.41,8.02,5.85,8.19-11.29,11.55-4.47,5.42,11.01-4.91,19.66.23,21.4,5.15,1.74,8.02-15.17,17.22-13.64,4.5-1.78,16.17-32.42,18.8-35.04.75-.75,2.55-.51,3.17-.24" style="fill:#fcaaa8; stroke-width:0px;"/><path d="m204.72,401.62c1.22.61-12.76,24.45-14.04,23.98-4.11-1.5,12.15-21.92,14.04-23.98" style="fill:#fedccc; stroke-width:0px;"/><path d="m278.56,328.73c2.37.34-1.76,7-2.27,7.99-1.11-1.11,1.27-8.14,2.27-7.99" style="fill:#4e4c5f; stroke-width:0px;"/><path d="m202.45,374.35c.31.19.32.9.23,1.18-.73,2.06-8.02,3.81-.23-1.18" style="fill:#fedccc; stroke-width:0px;"/><path d="m101.65,348.48c-.24,2.44.55,6.05-.45,8.23-8.41,4.72-7.75,7.34-8.15,7.76-.37.38-3.3,1.9-7.25,7.29-.62,4.59,1.28,5.7,1.36,6.82-3.28,2.86-6.12,6.18-9.06,9.41-3.5-.67-6.76-.45-10.19.47q-1.7-3.53-3.4-7.05c3.17-2.36,8.68-5.99,8.61-7.52,5.8-.33,6.85.99,10.42-4.47-7.09-.2-5.14-.7-5.89-4,.98-.22.16-2.54.45-3.06.3-.52,1.35-.08,1.81-.24,7.76-2.66,10.7,1.38,4.98-5.41,13.42-2.44,7.52-5.74,7.25-8.46-.38-3.83,1.54-5.85-1.36-9.17,4.57-4.92,7.91-11.14,12.01-16.46,1.06.68-.84,22.93-1.13,25.87" style="fill:#8e5a78; stroke-width:0px;"/><path d="m98.25,337.2c4.19-.36-4.66,5.46-4.98,6.11-1.27-.49,4.58-6.08,4.98-6.11" style="fill:#52355d; stroke-width:0px;"/><path d="m99.16,340.02c.89-1.21.22.63.23.71.09,4.27-1.12.51-.23-.71" style="fill:#5b314b; stroke-width:0px;"/><path d="m96.67,363.06c-2.22,4.53-2.54,2.06-2.72,1.88.53-1.11,1.51-1.81,2.72-1.88" style="fill:#6c456c; stroke-width:0px;"/><path d="m137.89,350.83l2.72,1.88c-5.37,12.04-6.51,27.11-7.7,13.4-.42-.43-.68-1.06-1.36-.47-.87.75-6.47,19.16-8.61,21.63l.68.71,6.34-3.76.23.71-11.78,14.58.68.71c4.95-2.37,12.72-5.25,16.08-9.88,3.75-.7,1.35,3.63,2.94,4.23,3.96,1.49,4.77-5.21,6.8-7.52q1.25,3.53,2.49,7.05c-2.13,3.93-12.2,25.69-14.72,26.81-.23.1-3.51-2.54-1.13,2.12-2.25-1.22-6.74,16.56-4.98,5.17.1-.64,1.76-4.01,2.27-5.64-4.76,2.9-3.98,16.45-12.91,11.52-3.6,1.81-10.68,11.1-12.69,7.05-7.24,5.89-3.69-2.63-2.49-7.29,1.07-2.56,3.35-1.67,4.98-3.76.46-.59,5.48-12.28,5.66-13.87q-3.74,4.12-7.47,8.23c3.71-10.42,9.13-20.47,12.46-30.8-10,13.98-21.69,34.74-22.88,52.2-2.25-.67-4.54-1.74-6.8-2.35-1.16-7.13,3.89-4.66,4.53-5.88.29-.56.06-4.12,2.27-12.46,1.89-7.15,7.16-25.3,10.42-30.8,3.23-5.45,11.96-8.59,4.3-6.82-.78-.42.31-1.93.68-2.82,3.68,3.63,9.59-9.99,13.14-13.4-.89-5.69,2.63-10.76,4.53-15.75l6.8-5.88q-4.64,9.05-9.29,18.11c4.19-5.94,9.55-11.1,13.82-16.93" style="fill:#fcaaa8; stroke-width:0px;"/><path d="m147.41,394.1s.71-.42.91-.47c.04,1.02.65,4.56.91,8.46-5.75,9.7-10.84,19.75-15.86,29.86-.2.4.24,5.18-4.98,5.88-.71.1-7.96-1.33-14.27-.47q-3.28,3.64-6.57,7.29c10.19,4.09,17.53-.77,25.6.7.45-.24.13-1.36.23-1.41,6.11-3.03,4.39.3,5.66-.47,5.66-5.52-.53-4.14.23-9.64q2.61-4.35,5.21-8.7c1.62.25.44,11.58,3.4,11.76-.14.94-2.25,4.8,0,8.94-.7,2.74-14.68,4.22-16.08,3.76-2.44-4.9-9.75.63-23.1-.47l-15.18-3.29c1.19-17.46,12.88-38.22,22.88-52.2-3.33,10.34-8.75,20.38-12.46,30.8q3.74-4.11,7.47-8.23c-.18,1.6-5.2,13.28-5.66,13.87-1.64,2.09-3.91,1.2-4.98,3.76-1.2,4.66-4.75,13.18,2.49,7.29,2,4.04,9.08-5.25,12.69-7.05,8.93,4.93,8.15-8.62,12.91-11.52-.51,1.63-2.17,5-2.27,5.64-1.76,11.39,2.74-6.39,4.98-5.17-2.37-4.65.9-2.01,1.13-2.12,2.52-1.11,12.59-22.87,14.72-26.81" style="fill:#fedccc; stroke-width:0px;"/><path d="m148.31,340.02c2.44,6.28,6.73,13.72,4.08,19.75-.73,1.66-5.58,7.93-5.89,8.46-2.61-8.11-2.43,2.32-3.62,5.88-.43,1.29-7.18,15.5-7.7,16.22-3.37,4.62-11.13,7.51-16.08,9.88l-.68-.71,11.78-14.58-.23-.71-6.34,3.76-.68-.71c2.14-2.48,7.74-20.88,8.61-21.63.68-.59.94.04,1.36.47,1.19,13.71,2.33-1.37,7.7-13.4,1.34-2.99,5.5-9.98,7.7-12.7" style="fill:#fedccc; stroke-width:0px;"/><path d="m108.9,384.69c.97-2.36,3.92-5.67,4.08-6.35.51-2.25-.5-4.86.45-7.76.18-.55,3.22-4.76,5.89-9.88,1.04-.69,2.05-1.76,2.72-2.82l4.53-2.35c-1.9,5-5.42,10.06-4.53,15.75-3.55,3.41-9.46,17.03-13.14,13.4" style="fill:#e98492; stroke-width:0px;"/><path d="m148.31,340.02c-2.2,2.71-6.37,9.7-7.7,12.7l-2.72-1.88c1.28-1.74,8.03-14.02,8.83-14.11,1.24.33,1.21,2.33,1.59,3.29" style="fill:#e98492; stroke-width:0px;"/><path d="m146.5,368.23c-.49.85-1.15,1.43-1.81,2.12-.1,8.79-.75,14.85,3.62,22.81,0,.16,0,.31,0,.47-.19.05-.88.42-.91.47l-2.49-7.05c-2.03,2.32-2.83,9.02-6.8,7.53-1.6-.6.8-4.93-2.94-4.23.53-.72,7.27-14.93,7.7-16.22,1.19-3.56,1.02-13.99,3.62-5.88" style="fill:#e98492; stroke-width:0px;"/><path d="m148.77,433.6c-.11.71-.33,1.57-.45,2.35,0,.05-.26-.37-.45.94-2.96-.18-1.78-11.5-3.4-11.76q-2.6,4.35-5.21,8.7c-.76,5.5,5.43,4.12-.23,9.64-1.28.77.45-2.56-5.66.47-1.13-.32-.85-1.33-.91-1.41,8.42-3.51,6.14-17.3-.91-1.41-2.13-2.42-4.33-1.82-3.17-3.29,5.22-.7,4.79-5.48,4.98-5.88,5.01-10.12,10.11-20.16,15.86-29.86,1.02,15.51,2.04,14.84-.45,31.51" style="fill:#fcaaa8; stroke-width:0px;"/><path d="m132.46,442.54c-.15-.24-.85-1.35-.91-1.41,7.04-15.89,9.32-2.09.91,1.41" style="fill:#fedccc; stroke-width:0px;"/></g></g></g></g></svg>