<?xml version="1.0" encoding="UTF-8"?><svg id="b" xmlns="http://www.w3.org/2000/svg" xmlns:xlink="http://www.w3.org/1999/xlink" viewBox="0 0 301.2 480"><defs><clipPath id="e"><rect x="0" width="301.2" height="480" style="fill:none; stroke-width:0px;"/></clipPath><clipPath id="f"><rect x="0" width="301.2" height="480" style="fill:none; stroke-width:0px;"/></clipPath><clipPath id="g"><path d="m169.46,342.94c-2.16,3.07-4.24,6.14-4.8,6.06-2.61-.38,1.53-4.95-3.98-4.34-.12.01-1.49,1.46-1.81,1.45-3.48-.21-3.32-1.48-3.98-1.45q-2.9,10.67-5.79,21.35c-7.82-.26-15.83,8.48-24.61,11.22.62,6.29-.53,12.59-.72,18.82-.32,10.21-1.15,23.15-2.17,33.29,4.62-3.45,6.4.25,10.49,2.17.58.27,1.15.06,1.65-.17,1.41-.62,2.22-1.25.89,9.57,3.02-11,11.44-38.94,16.64-47.41,5.16-8.38,19.11-13.21,6.88-10.49-1.24-.65.5-2.97,1.09-4.34,1.54-3.63,6.27-8.72,6.51-9.77.81-3.47-.79-7.48.72-11.94-4.05-3.78,5.06-13.77,8.69-19.18,0-.63-.16-.9-.43-.9-.91,0-3.13,3.03-5.26,6.06" style="fill:none; stroke-width:0px;"/></clipPath><linearGradient id="h" x1="-688.55" y1="607.71" x2="-687.1" y2="607.71" gradientTransform="translate(-22334.93 25836.77) rotate(90) scale(37 -37)" gradientUnits="userSpaceOnUse"><stop offset="0" stop-color="#3109aa"/><stop offset="1" stop-color="#5624b5"/></linearGradient><clipPath id="i"><rect x="0" width="301.2" height="480" style="fill:none; stroke-width:0px;"/></clipPath></defs><g id="c"><g id="d"><g style="clip-path:url(#e);"><g style="clip-path:url(#f);"><path d="m146.92,17.52c.1,1.17,9.86,12.55,11.58,14.47-.92,2.95-2.35,1.6-5.07,0-2.7-1.59-4.69-4.57-7.24-6.51-5.84-7.58-1.6-4.55-.72-7.96h1.45Z" style="fill:#6d27b0; stroke-width:0px;"/><path d="m123.76,82.66c-1.27,1.3-7.12,12.37-3.98,12.3,1.28-2.29,3.83-4.78,3.98-5.07.27,6.91,4.17-2.02,6.51,3.98,1.09,2.81,4.65,33.18-2.9,44.87-10.18,15.78-17.75,1.3-8.69,46.68-.98,10.07-8.08,19.24-13.75,30.76.89,2.07,7.09-11.51,8.32-12.67,3.3.15-4.21,23.72,5.07,10.86v7.96l2.53-5.07c.32,4.33.33,8.72.72,13.03-8.64,13.56-27.54,31.6-34.74,42.7q-30.58,35.46-61.16,70.93,10.86-20.63,21.71-41.25-16.83,20.99-33.65,41.98h-.72c1.75-14.52,4.61-28.86,6.51-43.43,2.41-18.45,4.51-36.87,6.51-55.37,1.87-29.06-25.75-35.98-26.06-39.08,10.88-12.55,23.13-24.31,31.12-39.08,2.16-1.61,4.39-3.03,6.51-4.7,2.85-2.25,7.45-4.91,10.86-7.24,20.87-14.26,45.69-25.67,59.35-48.13.53-9.15,6.77-16.26,10.13-24.25.48-.02.97.04,1.45,0,1.43-.11,2.42-1.1,4.34-.72" style="fill:#190461; stroke-width:0px;"/><path d="m120.87,217.28l-2.53,5.07v-7.96c-9.28,12.87-1.77-10.71-5.07-10.86-1.23,1.16-7.43,14.73-8.32,12.67,5.67-11.52,12.77-20.69,13.75-30.76q.36,10.31.72,20.63c3.89.09,1.35,9.88,1.45,11.22" style="fill:#23068a; stroke-width:0px;"/><path d="m101.69,221.62q-3.44,6.33-6.88,12.67c-23.91,30.54-2.59.31,6.88-12.67" style="fill:#4a14ad; stroke-width:0px;"/><path d="m146.92,39.23l-1.45,1.45c-3.41-1.87-5.12-2.31-7.96-3.62-1.06-.49-2.63-1.96-5.07-2.9.17-2.28,3.21-4.38,4.34-5.79,2.33,2.79,7.78,9.07,10.13,10.86" style="fill:#cb1e96; stroke-width:0px;"/><path d="m200.48.15c-.12,2.63,8.12,11.97,10.13,7.24.18.19,1.82-.38,2.17.36,3.32,7.09-6.72-.91-7.96,9.05-.09.74-4.2,3.98,2.9,4.34,1.05,1.6,1.77,1.35,2.89,2.53,4.98,33.8,6.81,25.05-3.98,24.24-6.26-.46-7.66,4.44-4.7,9.41,5.3,8.92,18.91-.77,21.35,10.13,2.93,1.55,7.86,1.89,10.49,3.62,1.91,1.26,14.44,20.71,16.65,14.11.56-10.43-7.79-12.89-15.92-17.01,1.55-1.97,4.08.11-.36-5.79q6.88,2.53,13.75,5.07c7.13,5.12,9.8,14.46,17.01,18.82,2.55,4.29-1.57,4.77-1.45,7.6,9.36,22.86-5-2.38-2.17,18.09.19,1.38,9.18,25.03,10.13,26.05,3.34,3.61,6.27-7.92,14.47,13.39-.87,12.51,5.61,26.36,7.96,38.36.95,4.82,2,9.65,2.89,14.47.73,3.94.88,8.27,1.45,12.3.77,5.51,2.8,9.59,2.9,10.49,1.33,12.46-8.79,27.08-14.84,27.86-13.39,1.75,6.12-9.93,4.7-14.84-13.06-10.12-5.45,2.36-17.73,8.32q-13.57-21.17-27.14-42.34c-.11,2.98,6.7,17.15,6.51,18.09-.47,2.48-4.17-1.25-3.62,2.9.07.48,3.25,4.99,4.34,8.68,14.46,48.83,4.72,65.56,6.51,78.89.39,2.9,2.58,6.35,3.62,9.05-.91,3.79,6.02,2.98-3.98,24.61-2.87,2.42-11.17-5.73-23.88-3.62-5.06-1.33-3.35-6.74-6.88-4.34,4.23-9.28-2.62-20.73-6.51-30.4-.6-1.49-.55-4.56-2.53-5.07-1.29.14-12.07,19.03-14.11,21.71-6.82,8.97-15.39,16.92-22.07,26.06q7.42-13.93,14.84-27.87-5.43,4.52-10.86,9.05-3.62,1.81-7.24,3.62c6.56-9.96,14.68-19.39,17.73-31.12q-10.67,15.38-21.35,30.76c-1.14,2.21-.54,4.36-.72,4.7-4.26,7.88-9.12,14.35-9.41,15.2-4.06-3.79,5.06-13.77,8.68-19.18-.02-4.85-9.2,11.4-10.49,11.22-2.61-.38,1.53-4.95-3.98-4.34-4.38-.47-1.97-8.11-3.62-13.39-8.03-.93,1.39-12.78-9.41-8.32.47-4.52,3.51-38.76,1.81-39.81-6.55,8.19-11.87,17.76-19.18,25.33-3.89,4.03-9.99,10.46-11.58,7.96.31-2.98-1.94.5-2.17,2.17-2,2.02-3.75,4.56-5.79,6.51-3.22,3.1-22.74,22.43-24.24,23.16-1.26.62-1.9,1.04-1.81-.36,13.27-21.41,26.53-42.94,39.08-64.78,3.49-6.08,7.69-11.88,10.86-18.09,2.69-5.26,5.58-5.77,4.34-15.92-.14-1.11.14-4.36-1.81-4.34l-7.96,6.51c-.49-.02-2.72-4.29-3.26-5.07-5.74-8.26-3.55-7.17-4.34-15.92-.39-4.3-.41-8.7-.72-13.03-.1-1.34,2.44-11.13-1.45-11.22q-.36-10.31-.72-20.63c-9.07-45.38-1.49-30.9,8.68-46.68,7.54-11.69,3.99-42.07,2.9-44.87-2.34-6-6.25,2.93-6.51-3.98,1.15-2.12,3.75-6.49,0-7.24-1.92-.38-2.91.61-4.34.72q2.89-5.61,5.79-11.22c-1.7-2.27-2.79-1.67-2.9-1.81-3.8-4.96-7.87-9.7-12.3-14.11l.36-1.81c.97,1.12,3.85.8,6.15.72-7.92-3.08,9.39,14.47,10.49,14.47,4.98.02-5.64-12.16-6.15-14.47,11.07-.35,17.4-.78,28.23-5.43q-5.79-6.33-11.58-12.67c2.84,1.31,4.55,1.74,7.96,3.62,1.73.95,23.43,15.56,23.16,11.22-1.8-2.3-4.11-4.53-5.79-6.88-3.13-4.35-6.25-8.7-9.41-13.03,2.72,1.6,4.15,2.95,5.07,0,2.73,3.04,7.67,7.14,10.86,10.13,12.03,11.3,6.85,7.95,3.62-4.34-.31-1.17-.65-1.8-.72-2.17,2.13-1.87,9.28,4.77,10.86,2.53-2.95-3.29-7.38-4.8-10.13-8.32C160.21,13.49,193.3-1.68,200.48.15" style="fill:#190461; stroke-width:0px;"/><path d="m141.13,219.45c-.19-.47-3-3.16-2.9-9.41l10.13-11.22q-3.62,10.31-7.24,20.63" style="fill:#dc41a1; stroke-width:0px;"/><path d="m250.42,148.52c4.29,7.53,6.39,6.92-.72,12.3-.18-.77-8.31-9.15.72-12.3" style="fill:#cb1e96; stroke-width:0px;"/><path d="m244.63,141.28c-3.1.05-1.37,3.8-5.07,2.17.19-.31-.07-4.54,1.81-5.79,3.44.57,3.07,3.43,3.26,3.62" style="fill:#4107a8; stroke-width:0px;"/><path d="m169.36,42.13l3.62-4.34c3.23,12.29,8.41,15.65-3.62,4.34" style="fill:#bf0366; stroke-width:0px;"/><path d="m172.25,35.62c-.51-2.64-1.6-3.29.72-5.79,2.76,3.53,7.19,5.03,10.13,8.32-1.57,2.24-8.72-4.41-10.86-2.53" style="fill:#3b0470; stroke-width:0px;"/><path d="m151.99,137.66c-.03.09,1.52.48.72,1.81-1.12,1.86-5.28-2.3-2.53,7.6.6-5.02,4.74-8.12,5.43-5.43.22.87-6.27,3.55,3.62,1.45l-2.9,2.17v4.34c-3.97-.61-4.58,10.49-6.51,15.2-10.23,24.96-14.15,31.55-5.79.72-.24-3.28-1.28-10.3-.72-13.03.94-4.62,6.04-8.39,5.07-12.3.79-1.58,3.14-.52,3.62-2.53" style="fill:#2a0685; stroke-width:0px;"/><path d="m264.89,86.28c-7.21-4.36-9.88-13.7-17.01-18.82q-6.88-2.53-13.75-5.07c4.44,5.9,1.91,3.82.36,5.79-.82,1.04-1.83,1.49-.72,2.9-2.63-1.73-7.56-2.07-10.5-3.62-2.44-10.91-16.05-1.22-21.35-10.13,2.81-2.39,8.51,2.63,10.49,2.89,2.58.34,13.58-2.69,22.44-1.45,14.21,10.22,10.26.43,22.8,16.28.62.78,2.67,5.58,4.34,7.96.63.9,6.46,3.38,2.9,3.26" style="fill:#bf0366; stroke-width:0px;"/><path d="m233.77,71.08c-1.11-1.41-.09-1.86.72-2.9,8.14,4.12,16.48,6.58,15.92,17.01-2.21,6.59-14.74-12.86-16.65-14.11" style="fill:#c80588; stroke-width:0px;"/><path d="m162.84,45.02c1.69,2.35,4,4.58,5.79,6.88.27,4.34-21.43-10.27-23.16-11.22l1.45-1.45c4.79,3.64,9.5,6.7,15.92,5.79" style="fill:#4b09ab; stroke-width:0px;"/><path d="m161.76,60.95c.62-.43,10.49,8.21,11.94,9.05-.65,1.21-15.49-6.58-11.94-9.05" style="fill:#2a0685; stroke-width:0px;"/><path d="m156.69,206.42c.91-.73,4.13.54,3.26,2.53-1.23,2.81-5.99-.35-3.26-2.53" style="fill:#4a14ad; stroke-width:0px;"/><path d="m162.48,152.86c1.35,3.57-.36,6.23-2.9,8.68q1.45-4.34,2.9-8.68" style="fill:#4a14ad; stroke-width:0px;"/><path d="m151.99,137.66c.37-1.56-2.18-3.06-2.17-3.26.09-1.84,4.87-6.6,2.17,3.26" style="fill:#2a0685; stroke-width:0px;"/><path d="m158.86,147.07c2.3-.67,3.81,3.34,2.9,3.62-.22.07-4.09-3.25-2.9-3.62" style="fill:#3732b6; stroke-width:0px;"/><path d="m260.55,350.45c-.52,1.68-3.61,6.98-3.62,8.32-.02,2.17,3.6,7.39,3.62,7.96.06,1.71-8.22,27.42-9.41,32.93-4.98-15.19-18.65-13.33-19.9-13.75-4.27-1.45-9.48-12.04-9.05,5.79-6.99-12.26-5.96-21.58-5.79-35.1,1.06-1.06,2.11-1.94,2.89-3.26.5-.83,8.24-10.47,9.41-13.03,3.52-2.4,1.82,3.02,6.87,4.34,12.72-2.11,21.02,6.04,23.88,3.62,10-21.63,3.07-20.82,3.98-24.61.62,1.63,3.42,4.6,4.34,6.87-2.84,6.48-5.17,13.14-7.24,19.9" style="fill:#190461; stroke-width:0px;"/><path d="m251.14,399.66c-.62,2.89-1.61,5.8-2.17,8.68-2.73,14.01-4.44,28.1-5.07,42.34.75.92,1.03,2.17,1.45,3.26-5.47-1.49-21.02-3.71-22.44,0,3.98-25.65,2.35-24.62.72-48.49-.41-6-1.39-11.46-1.45-13.03,0-.24,0-.48,0-.72-.43-17.83,4.78-7.24,9.05-5.79,1.26.43,14.93-1.44,19.9,13.75" style="fill:#1b0584; stroke-width:0px;"/><path d="m245.35,453.94c.41,1.08,1.51,1.98,2.17,2.9.75,1.04,1.36,1.35,2.17,2.17,5.48,5.54,11.7,9.03,19.54,9.41-.41-.04-1.05,1.41-8.32,0-4.58-.89-15.96-7.58-28.95-9.41-3.09-.44-7.88.91-9.77-1.45.2-1.2.55-2.52.72-3.62,1.42-3.71,16.96-1.49,22.44,0" style="fill:#3813ae; stroke-width:0px;"/><path d="m210.61,7.39c-2.01,4.73-10.26-4.61-10.13-7.24,2.38.61,8.25,5.25,10.13,7.24" style="fill:#4b09ab; stroke-width:0px;"/><path d="m207.72,21.14c-7.09-.36-2.99-3.6-2.9-4.34,2.36.84,1.92,2.86,2.9,4.34" style="fill:#c80588; stroke-width:0px;"/><path d="m269.24,468.42c5.48.6,11.48.97,17.01.72,1.15,1.34-.41,1.39-.36,1.45l-38.36,9.41c-7.6-5.17-17.22-5.9-26.05-7.24-3.59-6.36-.22-12.3,0-13.75.31-2.02.71-1.37.72-1.45,1.89,2.36,6.68,1.01,9.77,1.45,12.99,1.83,24.37,8.52,28.95,9.41,7.27,1.41,7.91-.04,8.32,0" style="fill:#3813ae; stroke-width:0px;"/><path d="m134.62,440.92c-3.53,12.83-3.15,18.32-3.62,19.18-1.02,1.88-9.09-1.93-7.24,9.05-.42-.11-1.18,1.84-7.96-2.17,1.56-2.62.47-5.19-1.45-7.24,2.21-2.58,7.5-21.83,7.96-25.69.41-3.39-.75-4.47-.72-4.7,4.62-3.45,6.4.25,10.49,2.17,2.24,1.05,4.33-5.2,2.53,9.41" style="fill:#662eb5; stroke-width:0px;"/></g><g style="clip-path:url(#g);"><rect x="109.75" y="331.93" width="77.24" height="113.94" transform="translate(-90.09 47.73) rotate(-14.07)" style="fill:url(#h); stroke-width:0px;"/></g><g style="clip-path:url(#i);"><path d="m160.67,344.66c-.12.01-1.49,1.47-1.81,1.45-3.48-.21-3.32-1.48-3.98-1.45-5.64.23-5.81,1.43-6.15,1.45-6.97.4-8.59-.75-9.05-.72-1.93.11-3.49,1.19-4.34,2.9-.06-.06-1.05-.6-1.45-.72.65-.65-.4-4.68,13.03-11.94,1.6-3.35.34-8.91.72-12.67,10.8-4.45,1.38,7.39,9.41,8.32,1.65,5.28-.77,12.92,3.62,13.39" style="fill:#1b0584; stroke-width:0px;"/><path d="m154.88,344.66q-2.9,10.67-5.79,21.35c-7.82-.26-15.83,8.47-24.61,11.22-.02-.96.04-1.93,0-2.9-.06-1.68.12-3.39,0-5.07-.12-1.72-3.16-3.43-2.17-10.5,6.31-8.29,10.99-10.63,11.58-11.22.4.12,1.39.67,1.45.72.29.27.8,4.08,4.34-2.9.45-.02,2.08,1.12,9.05.72.34-.02.51-1.21,6.15-1.45" style="fill:#1b0584; stroke-width:0px;"/></g></g></g></g></svg>