<?xml version="1.0" encoding="UTF-8"?><svg id="b" xmlns="http://www.w3.org/2000/svg" viewBox="0 0 533.55 605.22"><g id="c"><g id="d"><path d="m247.38,584.33c9.49,2.99-.63,3.32-5.07,3.28l5.07-3.28Z" style="fill:#472469; stroke-width:0px;"/><path d="m256.93,586.12c10.68.68,5.43,2.73.6,1.19-.31-.1-1.2-1.03-.6-1.19" style="fill:#9e789b; stroke-width:0px;"/><path d="m101.46,551.5c-1.51,0-8.23-.42-9.55-.6-4.25-8.46,7-15.12,9.55.6" style="fill:#0d0b1f; stroke-width:0px;"/><path d="m88.92,542.55c-.89,2.26-20.21-1.49-21.48-3.28-.45-1.13-.27-2.83-.6-3.88l22.08,7.16Z" style="fill:#472469; stroke-width:0px;"/><path d="m221.42,355.75c-3.58,14.09-10.79,17.21-4.77,2.98,3.32-3.72,4.52-2.86,4.77-2.98" style="fill:#fbfcfe; stroke-width:0px;"/><path d="m104.14,559.26q3.43.45,6.86.9-3.43.15-6.86.3v-1.19Z" style="fill:#9e789b; stroke-width:0px;"/><path d="m211.27,461.38c.78-1.73.97-3.63,3.28-4.18q-1.64,2.09-3.28,4.18" style="fill:#191827; stroke-width:0px;"/><path d="m91.91,550.91c1.32.18,8.04.6,9.55.6,1.33,0,1.22.88,2.39,0l20.29-1.19h1.79c.07.36-.04.81,0,1.19-18.21,1.88,3.71,2.38,10.74.6v.6c-4.17,1.07-8.4,3.42-12.23,5.37h32.23c-5.62-1.75-11.14-3.26-16.11-6.56l-2.09.6c1.91-2.89,22.58-3.72,23.87-2.69-1.77,13.77,18.17,7.42,26.26,4.48-.25,2.74-4.15,7.97-2.09,8.36,10.99-1.84,22.5-.42,32.82-5.37,8.65.33,31.08,1.17,9.85,3.28q3.28.3,6.57.6c-5.64,6.93-14.69,8.26-23.28,9.85-4.66.86-9.27,2.17-14.03,2.39-2.57-1.48-12.27-1.25-13.13-1.79-.41-.26-1.07-4.42-1.79-4.77-1.9-.93-11.94,2.14-12.53-2.98-9.25.23-29.62-1.27-23.87,2.98,1.14.85,13.75,1.78,12.83,3.28l-17.31,1.79c16.24,17.29,12.07,15.26-3.28.9-11.19,1-25.62,1.04-15.52,3.58.75.19,14.81,1.57,9.55,3.58-1.03.39-2.16-.5-3.28-.6-3.05-.26-19.38-4.4-19.69-5.37,10.69-2.49,23.03-.66,32.23-6.86-4.32-8.05-11.46-4.94-19.1-5.67-2.66-.25-4.25-1.17-7.46,0-14-11.28-42.1-8.02-59.68-13.13-4.32-1.26-.39-1.3,1.79-1.19,9.93.49,19.86,1.93,29.84,1.79.53,3.24,1.69,2.09,3.88,2.39" style="fill:#472469; stroke-width:0px;"/><path d="m244.09,580.15l.9.6c-8.17,3.47-15.6,10.22-24.47,11.94-2.1.41-17.13,1.39-18.5,1.19-2.43-.35-4.95-3.54-7.76-2.98-6.45,4.39-16.65,5.38-18.5,14.32-4.03-1.21-16.46.09-18.5-1.19-2.5-1.58-1.01-6.58-1.79-7.16-9.85-3.41-31.88-9.03-41.18-8.36-2.72.2-18.28,5.74-18.2,2.39,4.58-.3,12.38-4.21,15.82-4.77,6.09-1,37.36-2.19,42.37-.6,1.82.58,5.34,4.02,5.97,4.18,4.95,1.22,16.71-1.74,22.08,1.19,5.52-2.82,22.63-4.49,24.47-5.37,1.32-.63,3.35-5.52,4.77-5.97,3.08-.97,25.63,1.56,32.53.6" style="fill:#472469; stroke-width:0px;"/><path d="m219.03,574.18c.69,1.81-3.33.93-4.18,2.39-2.2-1.19-6.79-.71,4.18-2.39" style="fill:#391a56; stroke-width:0px;"/><path d="m136.67,552.1c-7.03,1.79-28.96,1.28-10.74-.6,3.19-.33,11.85-.6,10.74.6" style="fill:#21092a; stroke-width:0px;"/><path d="m238.13,340.23c-5.15,6.85-6.2,7.59-10.74,8.36,1-15.88-8.76-20.88,7.46-35.21,13.24-11.69,10.08-2.28,10.74-1.79.32.24,5.37-5.08,5.67-5.67,1.17-2.29,5.83-21.2,4.48-22.38-.65-.57-5.81,2.22.9-6.86-7.69-18.53,6.34,8.11,12.53,20.29-6.56,18.33-4.81,9.9-12.83,12.23-.75.22-10.13,10.06-11.34,10.74-1.76,1-8.34-2.88-7.16,14.32,8.68-11.21,7.87-4.1.3,5.97" style="fill:#505875; stroke-width:0px;"/><path d="m272.74,451.84c.08,1,.49,1.37.6,2.39l-3.28,3.58c-5.41-7.79-20.88-23.22-23.57-26.86-7.07-9.57-4.16-9.4-2.98-20.59q3.13,4.33,6.27,8.65c4.56-21.7,3.62-14.27,5.97-13.73,1.23.28,1.19-3.45,5.37,2.98.81-13.11,2.57,2.65,10.44,11.64.32,9.7,1.93,22.04,0,31.03.69.94,1.19.82,1.19.9" style="fill:#505875; stroke-width:0px;"/><path d="m284.68,408.87c.5,10.03,2.69,20.03,2.39,30.14q1.19,1.49,2.39,2.98c-.5,5.2,1.18,10.16,1.79,15.22q-6.56,1.79-13.13,3.58c.02-.2-.02-.4,0-.6.36-3.7-1.56-6.11,2.39-6.86-.15-15.1.36-31.29,3.28-45.66l.9,1.19" style="fill:#505875; stroke-width:0px;"/><path d="m193.37.05c17.18,10.57,33.81,22.73,51.62,32.23,18.28,9.75,38.64,16.21,56.7,26.26,6.47,3.6,55.64,36.32,56.4,39.69q-.15.45-.3.9c-18.55-12.34-37.24-24.48-56.1-36.41-3.54,1.31,37.54,35.72,41.18,36.41q6.57,6.57,13.13,13.13c-18.55-10.88-39.89-26.61-58.49-36.41-15.55-8.19-32.45-13.33-47.74-22.08,29.51,26.35,69.77,36.62,100.26,62.07,2.52,2.1,6.26,5.22,4.18,4.77-14.07-9.48-28.5-18.5-43.27-26.86-.99-.56-2.87-2.87-3.58-1.49,2.75,7.6,5.27,18.94,1.19,26.26-6.05,10.86-3.83-3.89-21.78-9.85,11.89,11.11,4.46,18.2.6,18.5-.43.03-7.31-3.68-7.76-3.58-.55.13-3.01,6.76-9.55,2.39-3.03-2.02-2.59-15.71-8.36-22.68q-.75,14.17-1.49,28.35c-15.79,37.44-13.5-13.41-15.82-13.43-8.6,15.88-7.11,24.29,3.88,38.2-.1,2.74-.03,5.83,1.19,8.36-5.68,1.12-3.7,5.73-5.67,5.97-.44.05-7.47-3.85-7.76-4.18-.97-1.1-10.25-24.64-8.65-27.75-9.94,12.53,6.43,26.34,3.28,28.35-2.71,1.73-5.97-6.12-.3,12.23-12.47.75,0,5.43,1.79,9.55,2.17,4.99-3.86,16.85-13.13,5.97-.79,11.83,14.4,26.93-.9,17.01-1.51,23.22,19.63,22.51,2.69,25.96q5.67,3.58,11.34,7.16c-6.56,13.7-9.4,10.81-10.15,11.94-.57.86.45,7.99-4.18,7.76-.22,15.73-7.85,18.11-8.36,19.1-.8,1.58.05,5.96,0,6.27-4.93,1.78-4.91,8.91-3.58,13.13-.24.77-1.02,1.69-1.19,2.39-.94-21.31.72-42.83,1.79-64.16h-4.77c.32,8.95-7,76.03-11.04,77.29-.21.07-3.79-1.89-3.88-2.09-.84-1.91,2.98-34.43,2.39-38.2-.4-2.53-1.46.8-1.79,2.39-1.04,4.93-3.78,32.62-4.77,34.02-.38.53-.97.25-1.49.3-2.83-.69-.55-37.48-1.79-41.78l-10.15,8.95q-1.04-12.38-2.09-24.77-.6-.3-1.19-.6c-.38,1.26-2.91,5.07-2.98,5.37-1.6,6-4.5,76.41-5.37,91.91l7.46-10.44c.96,7.15-1.75,28.14-3.88,34.32-1.6,4.66-1.31-6.81-5.07-8.65-3.89,30.46-2.16,61.52-3.88,92.21,1.3,5.04,9.78,1.39-2.09,15.22q-2.69-5.07-5.37-10.15c-7.32,6.47.69,7.3,2.69,20.59-3.15,28.14-5.68,43.81-4.48,4.48-2.68,7.06-1.55,17.72-5.07,23.57-.87-14.92,5.95-76.42,4.18-83.55-.04-.16-1.91-2.84-2.39-2.39-3.87,14.83-3.72,30.24-5.97,45.36-12.12-9.1-4.85-11.95-5.97-26.86,3.51-14.08,1.7-27.57,8.06-16.41.4-.28.49-8.14.3-9.25-1.26-7.5-18.96-19.22-10.74-53.12q-5.37-24.47-10.74-48.94c-.24-4.36,2.87-23.3,1.19-25.66-1.04-1.47-5.73,1.7-7.16-.6-4.44-13.45-4.5-32.94-4.77-47.74-.29-15.5,1.63-41.43,1.19-43.57-.22-1.09-2.92-5-2.98-5.37-.79-4.96,7.61-44.78,6.56-49.54-.14-.61-5.85-8.6-6.56-10.74,3.26-29.2.35-67.21-9.55-94.89-.75-2.1-2.62-3.85-4.18-5.37q.9-7.46,1.79-14.92c-8.26-29.24-1.91,5.99-9.55,13.73-.19,4.9-3.99,22.11-5.37,25.07-1.81,3.88-2.48-6.76-3.88-7.46-4.28-2.12-3.53,30.64-4.48,34.32,4.92,3.81.83,18.75-.6,25.96-.91,4.58-1.63,9.24-2.98,13.73.07,2.91-3.6,5.13-6.56,10.74-1.07,2.02-3.96,7.29-4.18,8.95-8.12,2.09-7.45-5.01-7.16-11.64.44-9.98,11.48-53.68,7.46-54.01-4.78,6.78-5.72,26.69-8.06,5.67-8.89,21.27-1.77,45.15-2.98,56.1-7.05,23.99-10.74,48.73-14.32,73.41l-1.79.9q-4.77,2.39-9.55,4.77c-2.44-12.99-11.39-48.29-9.55-59.38.2-1.23,5.17-6.24,4.77-8.95-2.32-6.03-3.11-12.69-3.58-19.1C4.5,89.84,4.98,44.76,0,.05,64.45-.08,128.91.08,193.37.05" style="fill:#fbfcfe; stroke-width:0px;"/><path d="m233.65,75.85c10.15,4.2,24.54,8.58,34.02,13.13,21.82,10.47-1,3.71-19.1.6q-7.46-6.86-14.92-13.73" style="fill:#100d22; stroke-width:0px;"/><path d="m207.99,26.31c.59-.42,12.64,1.29,14.32,1.79,5.86,1.75,21.01,11.62,24.77,17.61-4.31-2.01-7.88-5.54-12.23-7.46-4.8-2.12-31.37-8.71-26.86-11.94" style="fill:#100d22; stroke-width:0px;"/><path d="m294.53,92.56c.9.16,2.65,5.23,2.39,5.37-.7.37-6.26-2.04-6.27-2.69,0-.24,3.65-2.73,3.88-2.69" style="fill:#080b1c; stroke-width:0px;"/><path d="m197.25,52.57c19.71,8.07,39.77,15.07,58.79,24.77-7.12-1.55-56.82-20.51-58.79-22.98-.41-.51-.55-1.47,0-1.79" style="fill:#191827; stroke-width:0px;"/><path d="m155.47,223.86c2.62.04,1.28,1.85.3,3.28-7.23,10.51-5.57-3.37-.3-3.28" style="fill:#0d0f19; stroke-width:0px;"/><path d="m247.38,97.93c.76.08,3.55,4.81,2.39,5.37-3.58,1.73-3.56-5.5-2.39-5.37" style="fill:#080b1c; stroke-width:0px;"/><path d="m209.78,87.19c.96-.19,2.11,1.94,2.09,2.09-.31,2.27-4.92-1.52-2.09-2.09" style="fill:#201d21; stroke-width:0px;"/><path d="m200.83,163.58c1.15.15,1.15,2.83,0,2.98-1.42.19-1.42-3.17,0-2.98" style="fill:#201d21; stroke-width:0px;"/><path d="m182.33,242.36c.45-.05,2.24,2.25.6,2.39-1.82.15-1.72-2.26-.6-2.39" style="fill:#2a1749; stroke-width:0px;"/><path d="m395.68,234.6q-5.22,3.88-10.44,7.76c-1.27-.34.07-13.85.3-16.11,5.15-1.31,9.3,3.94,10.15,8.35" style="fill:#191827; stroke-width:0px;"/><path d="m39.39,399.32c-3.42-3.42-.17,4.59-2.98,7.16-.03-.07-.53,0-1.19-.9q.3-18.8.6-37.6c-.65-.86-2.88-2.58-2.98-2.98-2.83-10.74-5.59-27.11-3.58-37.9.71,3.16,9.63,39.12,11.64,38.79,6.72-18.84,8.82-38.74,11.04-58.49.62-5.53,3-18.48,2.98-21.48.62-.1,2.08.29,2.39-.3,1.86-3.58,3.98-29.69,5.37-35.81.94-4.11,1.26,2,1.19,3.58-2.03,49.64-7.56,98.74-13.73,148.01h-1.19c-7.58-18.83-15.21-28.42-9.55-2.09" style="fill:#191827; stroke-width:0px;"/><path d="m25.66,217.29c-.89,4.52,3.09,13.14,3.58,18.2.38,3.92.37,54.3,0,57.89-.33,3.2-.68,9.66-4.18,3.88-2.06-25.08-2.36-46.42-7.16-71.92-.27-1-1.71-2.83-1.79-3.28q4.77-2.39,9.55-4.77" style="fill:#362c4d; stroke-width:0px;"/><path d="m39.39,399.32c9.34,13.67,18.15,50.74,19.69,66.54.48,4.86,1.23,19.14-.6,19.99-.89,0-2.61-.77-2.98-1.49-1.81-3.51-7.91-55.07-17.31-76.99-.48-1.11-1.75-.8-1.79-.9,2.82-2.57-.44-10.58,2.98-7.16" style="fill:#505875; stroke-width:0px;"/><path d="m64.46,140.3c-.7.14-2.28.53-2.39.6-2.86,1.72-4.67,41.08-4.77,46.55-.44-8.62-2.78-6.51-2.98-7.46-.08-.39.25-5.81,0-8.06,1.79-11.19.13-23.93,2.39-34.02,2.96-5.61,6.63-7.83,6.56-10.74,2.19,1.06-.35,5.85,1.19,13.13" style="fill:#505875; stroke-width:0px;"/><path d="m64.46,140.3c-1.54-7.28.99-12.07-1.19-13.13,1.35-4.49,2.08-9.14,2.98-13.73,2.18.59,3.45.25,2.98,2.69q-1.79,13.73-3.58,27.45c-.7.82-.87-1.73-1.19-3.28" style="fill:#362c4d; stroke-width:0px;"/><path d="m54.31,171.93c-.91-8.32-1.12-16.72-1.79-25.07.22-1.66,3.11-6.93,4.18-8.95-2.25,10.09-.59,22.83-2.39,34.02" style="fill:#100d22; stroke-width:0px;"/><path d="m62.07,140.9c-.34,24.39-.08,48.95-3.58,73.11h-1.19c.13-8.85-.17-17.71,0-26.56.11-5.47,1.92-44.84,4.77-46.55" style="fill:#191827; stroke-width:0px;"/><path d="m54.91,285.92c.02,3.01-2.36,15.96-2.98,21.48-2.63-13.94-8.21-20.87,1.49-26.86,1.67,2.21,1.48,2.83,1.49,5.37" style="fill:#fbfcfe; stroke-width:0px;"/><path d="m204.71,305.62c-.19.76-1.05,4.6-.3,4.77,3.94-12.89,4.1,7.78-1.49,18.8,1.74,17.88-13.32,21.88-3.58,40.58.64,1.23,5.41,7.25,6.56,8.06,6.3,6.32-5.85,7.42-14.92,15.22,8.48,14.32,6.63,31.61,12.53,21.48-.46,7.17,4.58,13.33,1.79,20.29-.77,1.92-5.5,6.83-6.56,8.65-2.88-1.15-19.75,10.47-19.69,11.64,6.99,6.44,9.51,27.82,10.15,29.24.69,1.55,3.32.75,5.37,2.98,1.37,1.49,17.86,28.54,21.49,34.32-.44,2.67-.45,10.71-1.19,12.83-.22.61-6.67,10.33-7.16,10.74-.93.77-14.91,5.83-17.61,6.86-.68.26-1.38,1.75-1.49,1.79-8.09,2.95-28.03,9.3-26.26-4.48-1.3-1.04-21.96-.21-23.87,2.69-.85-.25-1.13.43-1.79.6v-.6c1.11-1.2-7.55-.93-10.74-.6-.04-.39.07-.83,0-1.19-1.26-6.08,4.77-34.92,3.88-44.16q-2.83,22.08-5.67,44.16l-20.29,1.19,2.39-12.83c-7.45-19.32,10.04-27.73-8.36-42.97,6.19-13.84-6.08-10.04-6.56-8.95-.36.82-.25,7.43,1.19,8.36-7.87,3.67-12.09,13.29-9.55,21.49,1.34,4.33,3.4-4.11,4.77-.6.83,2.11.07,21.03,1.19,26.56l-22.08-7.16c-3.61-11.55-4.51-35.64-8.36-49.54,1.83-.85,1.07-15.13.6-19.99-1.55-15.8-10.35-52.88-19.69-66.54-5.66-26.34,1.97-16.74,9.55,2.09h1.19c6.16-49.27,11.69-98.37,13.73-148.01.06-1.58-.26-7.69-1.19-3.58-1.39,6.11-3.52,32.23-5.37,35.81-.3.59-1.77.2-2.39.3-.02-2.54.18-3.16-1.49-5.37-9.71,5.99-4.12,12.91-1.49,26.86-2.22,19.75-4.32,39.64-11.04,58.49-2,.33-10.93-35.63-11.64-38.79-.75-3.35-.89-6.89-2.98-9.85-.88-6.61-.65-13.38-1.19-19.99,3.5,5.78,3.85-.68,4.18-3.88.37-3.59.38-53.97,0-57.89-.49-5.06-4.47-13.68-3.58-18.2q.9-.45,1.79-.9c3.58-24.68,7.28-49.42,14.32-73.41,1.21-10.95-5.9-34.83,2.98-56.1,2.33,21.02,3.27,1.11,8.06-5.67,4.02.33-7.02,44.03-7.46,54.01-.29,6.63-.96,13.73,7.16,11.64.67,8.34.88,16.75,1.79,25.07.25,2.25-.09,7.66,0,8.06.21.95,2.55-1.16,2.98,7.46-.17,8.85.13,17.71,0,26.56h1.19c3.5-24.16,3.24-48.72,3.58-73.11.11-.06,1.69-.46,2.39-.6.33,1.55.49,4.1,1.19,3.28q1.79-13.73,3.58-27.45c.46-2.44-.81-2.09-2.98-2.69,1.42-7.22,5.52-22.16.6-25.96.95-3.67.19-36.44,4.48-34.32,1.4.7,2.07,11.34,3.88,7.46,1.38-2.95,5.18-20.16,5.37-25.07,7.63-7.74,1.29-42.96,9.55-13.73q-.9,7.46-1.79,14.92c1.56,1.52,3.43,3.27,4.18,5.37,9.9,27.68,12.81,65.69,9.55,94.89.71,2.14,6.43,10.13,6.57,10.74,1.05,4.75-7.36,44.57-6.57,49.54.06.37,2.76,4.28,2.98,5.37.43,2.14-1.48,28.07-1.19,43.57.28,14.81.33,34.29,4.77,47.74,1.43,2.3,6.12-.88,7.16.6,1.67,2.36-1.43,21.3-1.19,25.66q5.37,24.47,10.74,48.94c-8.22,33.89,9.48,45.62,10.74,53.12.19,1.11.11,8.97-.3,9.25-6.36-11.16-4.55,2.33-8.06,16.41,1.12,14.91-6.15,17.76,5.97,26.86,2.25-15.12,2.1-30.52,5.97-45.36.48-.46,2.35,2.22,2.39,2.39,1.77,7.14-5.05,68.63-4.18,83.55,3.52-5.85,2.39-16.51,5.07-23.57-1.2,39.34,1.32,23.66,4.48-4.48-2-13.29-10-14.12-2.69-20.59q2.69,5.07,5.37,10.15c11.87-13.83,3.39-10.17,2.09-15.22,1.72-30.69,0-61.75,3.88-92.21,3.77,1.85,3.47,13.32,5.07,8.65,2.13-6.18,4.84-27.17,3.88-34.32l-7.46,10.44c.87-15.5,3.77-85.91,5.37-91.91.08-.3,2.61-4.11,2.98-5.37q.6.3,1.19.6,1.04,12.38,2.09,24.77,5.07-4.48,10.15-8.95c1.24,4.29-1.04,41.08,1.79,41.78.52-.05,1.11.23,1.49-.3,1-1.4,3.73-29.09,4.77-34.02.33-1.59,1.4-4.92,1.79-2.39.59,3.77-3.22,36.29-2.39,38.2.09.2,3.67,2.15,3.88,2.09,4.04-1.25,11.36-68.33,11.04-77.29h4.77c-1.07,21.32-2.73,42.84-1.79,64.16" style="fill:#505875; stroke-width:0px;"/><path d="m91.01,382.61c-1.86,45.75-7.17,91.22-14.62,136.37-.92,10.73,15.76,34.03-1.79,10.15,1.7-15.97,2.93-32.08,6.56-47.74.61-5.76-5.95-9.67-4.77-15.52l14.62-83.25Z" style="fill:#191827; stroke-width:0px;"/><path d="m39.09,262.05c1.88,8.84,2.09,60.1.3,64.16-1.3,2.95-5.88-3.75-5.97-4.18-.97-4.73,5.43-49.56,5.67-59.98" style="fill:#191827; stroke-width:0px;"/><path d="m93.4,155.82c.31,18.9-3.68,37.51-6.56,56.1-.89-18.9,2.51-37.7,6.56-56.1" style="fill:#100d22; stroke-width:0px;"/><path d="m72.51,171.34c1.74,12.07-1.52,24.68-4.18,36.41.24-12.29.67-24.54,4.18-36.41" style="fill:#100d22; stroke-width:0px;"/><path d="m125.93,550.31h-1.79q2.83-22.08,5.67-44.16c.89,9.25-5.14,38.08-3.88,44.16" style="fill:#0d0b1f; stroke-width:0px;"/><path d="m154.87,528.82c4.4,0-7.74,11.7-6.86,6.27.07-.46,6.4-6.27,6.86-6.27" style="fill:#fbfcfe; stroke-width:0px;"/><path d="m166.81,515.1q.9,6.56,1.79,13.13c-1.35-2.91-3.85-10.81-1.79-13.13" style="fill:#ba7b78; stroke-width:0px;"/><path d="m211.27,461.38c-.58,1.29-1,2.75-1.19,4.18-3.2,1.14-3.69-4.33-8.36,1.19-9.41,11.15-1.79,25.57,0,16.11q4.48-2.98,8.95-5.97,4.77,5.22,9.55,10.44c-.9,11.53-2.3,22.89-4.18,34.32-3.63-5.78-20.12-32.82-21.48-34.32-2.05-2.24-4.68-1.44-5.37-2.98-.64-1.43-3.15-22.8-10.15-29.24-.05-1.17,16.81-12.78,19.69-11.64-1.02,1.74-2.33,1.8-1.79,5.07,2.77,19.4,2.31,11.11,9.25-5.07,4.67,16.14,1.85-2.06,2.69-8.65,2.24-17.61.63,25.17,1.19,26.86q.6-.15,1.19-.3" style="fill:#191827; stroke-width:0px;"/><path d="m273.34,454.22c.19,1.9.08,10.9.6,11.64.39.55,3.63.65,4.18-.6.23-.52-.1-3.16,0-4.48q6.57-1.79,13.13-3.58c1.75,14.42,3.83,51.29,2.98,64.75-.01.24-1.33,1.34-1.79,4.48-.3,2.03,1.65,3.01.9,4.18-3.68,2.02-7.83,3.11-11.64,4.77-4.1-25.83-7.62-28.47-1.79-.3-4.89,2.5-9.96,4.48-14.92,6.86-1.71.82-3.72,2.21-5.07,3.58-3.48-2.93-8-1.14-12.23-2.69-3.01-34.02,3.27-25.12,4.18-27.45.65-1.67-12.19-29.18-13.13-33.42,10.4-17.45-3.8-26.17,11.94-36.41.51-1.71-5.45-12.26-4.18-14.62,2.69,3.64,18.17,19.06,23.57,26.86l3.28-3.58Z" style="fill:#191827; stroke-width:0px;"/><path d="m281.69,535.39c-5.47,2.39-10.92,5.01-16.71,6.56,4.96-2.38,10.03-4.36,14.92-6.86-5.83-28.17-2.31-25.54,1.79.3" style="fill:#1f1c35; stroke-width:0px;"/><path d="m210.67,476.9q-4.48,2.98-8.95,5.97c.5-2.64-.06-12.13,0-16.11,4.66-5.53,5.15-.05,8.36-1.19-.09.64-.81.77-.6,1.49,1.29,1.53,2.45-7,4.77-7.16q-1.79,8.5-3.58,17.01" style="fill:#362c4d; stroke-width:0px;"/><path d="m201.72,482.87c-1.79,9.45-9.41-4.96,0-16.11-.06,3.99.5,13.47,0,16.11" style="fill:#5e7589; stroke-width:0px;"/><path d="m386.73,211.92c-3.49-5.27-9.02-10.11-14.92-12.53-.72-.92-.71-2.81-1.49-3.58-2.17-2.13-8.67.11-5.67-11.04-13.6-5.5-9.7-7.25-14.32-11.04,1.22.02.61-2.8-.6-1.49-.18.19.51,1.49.6,1.49-.3-.25-3.3-.47-3.58-1.49,4.69-8.41,4.04-15.57,4.77-24.77,2.99,1.64,5.75,3.8,8.36,5.97,12.92,10.78,8.89,14.26,5.37-6.57q-5.97-5.07-11.94-10.15v-.6c-.27-1.05-4.7-4.29-5.97-5.37-7.36-6.27-3.59-6.96-8.36,3.58-7.58-13.44-2.13-5.82-8.06,1.19-5.18,6.14-4.44,1.42-4.77,1.19-.58-.39-8.03,9.74-.3-4.48-9.44,8.84-5.15-2.18-5.97-10.74-.58-6.04-2.55-12.08-2.39-18.2,31.51,18.41,55.23,46.33,79.97,72.51-1.04,2.38-23.82-15.85-24.77-18.8l-.9.3c11.36,25.52,28.35,26.69,8.65,19.4,2.04,5.04,9.61,8.96,1.19,5.37-1.43,4.43-11.55-4.56-18.2-6.86,6.64,12.95,18.04,23.1,23.28,36.7" style="fill:#fbfcfe; stroke-width:0px;"/><path d="m386.73,211.92c5.24,7.91,3.34,9.07,3.58,9.55-1.23-.12-2.74-.95-3.58-1.79-.38-.38-3.89-5.22-6.86-8.36-.22-.23-1.63.37-2.09-.3-.41-.59,4.15,1.4-5.97-11.64,5.9,2.42,11.43,7.26,14.92,12.53" style="fill:#505875; stroke-width:0px;"/><path d="m533.55.05q-2.69,12.68-5.37,25.36c-.86,1.29-10.34,3.6-12.53,4.48-2.26.9-4.56,1.62-6.86,2.39-1.86,1.49-13.25,39.25-15.22,45.06-6.68,19.67-12.74,22.78-13.13,56.4-2.18,1.1-8.09,2.81-8.95,4.48-5.44,11.87-5.49,78.57-7.16,82.36-.75,1.71-4.17.33-4.77,1.19-.92,1.32-1.21,27.79-1.79,32.23-.05.42-1.05,1.23-2.39,8.06-.43,2.18.81,3.52.6,4.48-.74.69-2.2,2.21-2.39,2.98-7.8,31.53-33.59,105.03-47.15,135.48-8.19,18.39-18.88,35.68-25.96,54.61-1.59.08-4.36-28.57-4.48-31.33l18.5-17.31c-7.48-19.37,4.28-79.62,12.53-100.26q-1.79-7.16-3.58-14.32c1.59-1.31,3.63-5.38,4.18-7.16,8.37-27.3-1.67-8.83-6.86-9.85-4.29-4.25-4.79-9.54-5.07-10.15,2.58.32-1.38-12.06-2.98-13.73,1.18-4.55,2.55-5.85,2.98-11.94,4.46,2.79,7.1,13.94,8.36,11.64-1.43-12.31-8.21-22.9-13.73-33.72-.24-.48,1.66-1.64-3.58-9.55-5.23-13.61-16.63-23.76-23.28-36.7,6.65,2.31,16.77,11.3,18.2,6.86,8.41,3.59.85-.33-1.19-5.37,19.69,7.29,2.71,6.12-8.65-19.4l.9-.3c.95,2.95,23.73,21.18,24.77,18.8-24.74-26.19-48.46-54.1-79.97-72.51-2.79-3.78-7.91-7.74-6.56-9.55,14.77,8.35,29.2,17.38,43.27,26.86,2.08.44-1.66-2.67-4.18-4.77-30.5-25.45-70.75-35.72-100.26-62.07,15.29,8.75,32.19,13.89,47.74,22.08,18.6,9.79,39.94,25.53,58.49,36.41q-6.56-6.56-13.13-13.13c-3.64-.68-44.72-35.09-41.18-36.41,18.86,11.92,37.55,24.07,56.1,36.41q.15-.45.3-.9c-.76-3.37-49.93-36.09-56.4-39.69-18.05-10.05-38.41-16.51-56.7-26.26C227.18,22.78,210.55,10.62,193.37.05,306.76,0,420.15.09,533.55.05" style="fill:#191827; stroke-width:0px;"/><path d="m412.69,288.31c2.42.35-1.78,5.77-2.09,10.44h1.19c.63-9.59,3.1-6.01,1.79,0-1.37,6.27-8.53.42-.9-10.44" style="fill:#fbfcfe; stroke-width:0px;"/><path d="m408.81,123.59c-7.45-11.09-16.54-20.93-23.28-32.53-13.82-11.7-5.09,1.98,4.18,14.32,5.8,7.72,15.74,17.1,19.1,21.19,3.06,3.72,6.29,7.19,8.35,11.64q3.13,14.17,6.27,28.35c-7.72-15.3-15.27-31.15-28.05-42.97q-12.83-8.35-25.66-16.71c-14.84-18.11-30.24-35.71-46.55-52.52-16.86-10.11-34.56-19.16-50.43-30.74,17.33,5.87,56.28,22,68.93,33.12,9.68,8.51,27.56,45.11,42.97,58.49q.45-.15.9-.3c-6.3-5.42-8.75-13.62-13.13-20.29-8.44-12.84-19.57-23.7-26.26-37.6.25-.6,1.74.11,2.09.3,2.24,1.2,19.77,21.01,41.18,29.24q.3-3.28.6-6.56c18.53,23.78,29.39,51.2,38.49,79.67-7.65-14.94-10.01-21.68-19.69-36.11" style="fill:#fbfcfe; stroke-width:0px;"/><path d="m408.81,123.59v2.98c-3.35-4.08-13.3-13.46-19.1-21.19-9.26-12.34-18-26.02-4.18-14.32,6.73,11.6,15.83,21.43,23.28,32.53" style="fill:#0d0b1f; stroke-width:0px;"/><path d="m422.24,63.31c7.57,21.56,24.22,24.19,24.77,25.96.4,1.28-3.01,4.44-3.28,4.48-1.17.14-16.68-14.35-17.61-15.82-2.58-4.09-3.53-9.83-3.88-14.62" style="fill:#fbfcfe; stroke-width:0px;"/><path d="m390.31,221.47c5.52,10.82,12.3,21.41,13.73,33.72-1.26,2.3-3.9-8.85-8.36-11.64.13-1.88.23-7.73,0-8.95-.85-4.42-4.99-9.66-10.15-8.36.19-1.86.53-5.09,1.19-6.56.84.84,2.35,1.67,3.58,1.79" style="fill:#fbfcfe; stroke-width:0px;"/><path d="m394.79,139.71c8.68,11.32,20.07,21.68,23.87,35.81-7.49-12.23-17.48-22.98-23.87-35.81" style="fill:#fbfcfe; stroke-width:0px;"/><path d="m483.71,46.6c1.19,0,10.51,16.57,10.44,17.61-.49,7.76-12.76-14.93-12.53-16.11.05-.26,1.96-1.49,2.09-1.49" style="fill:#fbfcfe; stroke-width:0px;"/><path d="m391.21,193.42c12.29,7.72,12.55,18.5,8.35,19.1-1.13.16-14.01-14.26-16.41-15.82l.3-.9c17.52,17.31,26.16,20.94,7.76-2.39" style="fill:#ba7b78; stroke-width:0px;"/><path d="m403.74,241.16c7.95,7.57,5.09,15.61.9,7.46-.47-.92-2.49-7.05-.9-7.46" style="fill:#fbfcfe; stroke-width:0px;"/><path d="m331.53,36.46c19.45,11.32,15.7,13.92-.9.9l.9-.9" style="fill:#fbfcfe; stroke-width:0px;"/><path d="m371.51,61.52q6.56,8.06,13.13,16.11c-4.79-4.77-10.12-10.14-13.13-16.11" style="fill:#ba7b78; stroke-width:0px;"/><path d="m409.11,195.81l1.19,14.32c-1.75-6.77-5.41-13.85-1.19-14.32" style="fill:#fbfcfe; stroke-width:0px;"/><path d="m368.53,17.36c1.68-.19,6.86,5.8,6.86,6.27,0,4-10.5-5.86-6.86-6.27" style="fill:#fdfdfe; stroke-width:0px;"/><path d="m361.96,102.7c3.44,3.56,7.98,6.54,11.04,10.44,7.57,9.66-7.58-4.55-11.04-10.44" style="fill:#ba7b78; stroke-width:0px;"/><path d="m351.82,44.22c1.87,2.72,8.18,10.03,8.65,11.04,3.13,6.64-10.62-10.1-8.65-11.04" style="fill:#ba7b78; stroke-width:0px;"/><path d="m419.85,179.09c7.37,16.19,6.46,19.07-.9.9l.9-.9Z" style="fill:#ba7b78; stroke-width:0px;"/><path d="m347.34,130.75c-2.02.75-.89,7.28,0,8.95-1.18.86-1.71,1.12-1.79,1.19-5.63,5.05-3.95,4.53-4.18,4.77-1.14,1.23-7.93,12.3-11.34,10.44,3.74-7,5.67-14.51,8.95-21.78,4.76-10.54.99-9.85,8.36-3.58" style="fill:#362c4d; stroke-width:0px;"/><path d="m353.31,136.12c-1.77-.19-3.99,2.13-5.97,3.58-.89-1.67-2.02-8.2,0-8.95,1.27,1.08,5.7,4.32,5.97,5.37" style="fill:#362c4d; stroke-width:0px;"/><path d="m365.25,146.87q-2.69,3.28-5.37,6.56c-2.6-2.17-5.37-4.33-8.36-5.97.3-3.73.58-7.17,1.79-10.74q5.97,5.07,11.94,10.15" style="fill:#505875; stroke-width:0px;"/><path d="m359.88,153.43q2.69-3.28,5.37-6.56c3.51,20.82,7.55,17.34-5.37,6.56" style="fill:#100d22; stroke-width:0px;"/><path d="m278.11,460.19c-.02.2.02.4,0,.6-.1,1.32.23,3.96,0,4.48-.55,1.24-3.79,1.15-4.18.6-.52-.73-.4-9.74-.6-11.64-.1-1.02-.51-1.38-.6-2.39,6.62-7.52,2.42,7.13,5.37,8.36" style="fill:#21133e; stroke-width:0px;"/><path d="m209.48,290.1c-1,6.08-1.89,7.72-3.58,13.13-1.33-4.22-1.35-11.35,3.58-13.13" style="fill:#362c4d; stroke-width:0px;"/><path d="m341.37,145.67c.23-.25-1.45.28,4.18-4.77,2.45,1.8-1.77,5.22-4.18,4.77" style="fill:#fbfcfe; stroke-width:0px;"/><path d="m322.87,528.23c-.56.05-3.33,1.21-3.58-.3,4.12-6.68-2.54-10.43,1.79-12.23,2.58,1.73,1.56,8.97,1.79,12.53" style="fill:#3e2f63; stroke-width:0px;"/><path d="m316.31,521.66c-.04.32-2.39,5.83-2.69,5.97-.38.18-8.01.24-8.36,0-.68-.48-.09-2.22-.3-2.98-1.19-4.39,1.32-27.32,1.19-8.06,1.43,1.97,3.83,3.23,5.97,1.19.12-5.19-2.49-46.52-.3-47.45.67-.28,3.21.93,3.28,1.49.1.77-1.79.79-1.19,14.92.25,5.93,2.6,33.18,2.39,34.91" style="fill:#191827; stroke-width:0px;"/><path d="m395.68,269.21c-1.38-2.9-3.4-5.71-4.77-8.65-.11-1.38,1.37-3.46,1.79-5.07,1.6,1.67,5.56,14.05,2.98,13.73" style="fill:#fbfcfe; stroke-width:0px;"/><path d="m359.28,317.55c4.58-.72.65-15.07,4.18-23.87,3.76,11.04.79,17.42,1.19,28.35.32.84.98-1.49,2.69-.3,11.77,8.19,7.02,39.84,3.88,52.22-2.36,2.09-7.3-19.89-9.55-21.48-.56-5.54,3.3-18.95,2.39-22.68-.85-3.47-7.09-3.08-4.77-12.23" style="fill:#505875; stroke-width:0px;"/><path d="m363.46,293.68c-3.53,8.8.4,23.15-4.18,23.87-.19.03-.4-.02-.6,0-.79.08-4.5-5.82-3.58,7.76-.29.01-1.3,2.73-1.19-3.58.07-4.18,1.18-8.57.6-12.83l-1.19.3c.25-.75-.17-2.66,0-3.88,10.44-10.5,6.28-22.98,10.15-11.64" style="fill:#fbfcfe; stroke-width:0px;"/><path d="m353.91,321.73c-5.83-4.53-2.95-5.37-.6-12.53l1.19-.3c.59,4.26-.53,8.65-.6,12.83" style="fill:#505875; stroke-width:0px;"/><path d="m358.68,317.55c-1.8,2.94,1.47,7.52-3.58,7.76-.92-13.58,2.79-7.68,3.58-7.76" style="fill:#e8b5cf; stroke-width:0px;"/><path d="m222.61,345.01c0,2.19,0,4.38,0,6.56-2.45-5.9.02-14.98,0-6.56" style="fill:#191827; stroke-width:0px;"/><path d="m350.33,173.72c-.09,0-.77-1.3-.6-1.49,1.21-1.3,1.82,1.51.6,1.49" style="fill:#0e0e21; stroke-width:0px;"/></g></g></svg>