<?xml version="1.0" encoding="UTF-8"?><svg id="b" xmlns="http://www.w3.org/2000/svg" xmlns:xlink="http://www.w3.org/1999/xlink" viewBox="0 0 479.5 479.48"><defs><clipPath id="e"><rect width="479.5" height="479.48" style="fill:none; stroke-width:0px;"/></clipPath><clipPath id="f"><rect width="479.5" height="479.48" style="fill:none; stroke-width:0px;"/></clipPath></defs><g id="c"><g id="d"><g style="clip-path:url(#e);"><g style="clip-path:url(#f);"><path d="m254.71,132.56c-.32,9.54-2.1,7.42,1.87,7.96,1.61.22,4.95.02,6.09,1.17,3.03,8.19,9.14,14.95,15.45,20.84.34,1.73,6.03,12.33,8.43,25.52.32,1.74-.48,2-.47,2.11-11.46,3.35-2.19-2.56-8.9-.7l4.21-7.96c-5.06-13.4-5.33-6.35-7.02-7.96-.85-.81-6.8-19.3-8.43-22.01q-.35-.35-.7-.7c-1.53.97-11.05,7.75-11.47,3.51-.06-.63,8.55-6.96,9.36-8.43-3.02-1.16-6.28,1.25-9.13.7-1.2-.23-18.49-9.8-21.77-11,1.72-.7,10.53,1.45,11,1.17.64-.37-3.72-1.9,5.85-3.98-6.31-.18-15.06-1.6-7.96-2.34-8.13-2.71-3.59-1.86,1.4-1.87q-3.98-1.4-7.96-2.81c.76-3.87,1.48-2.61,5.62-1.87-2.51-3.25-4.55-7.18-8.43-9.13.77-.88,1.59-2.1,1.4-3.28,18.78,3.5,11,15.79,19.9,17.79.63.96,1.08,2.32,1.64,3.28" style="fill:#ca0088; stroke-width:0px;"/><path d="m290.77,209.35c-3.42,2.53-10.05,8.21-4.68-.23-1.74,1.83-2.04-3.97-1.87-4.68.17-.71,2.26-2.42,2.34-2.58,1.41,2.47,2.92,4.97,4.21,7.49" style="fill:#ca0088; stroke-width:0px;"/><path d="m231.77,114.76c3.88,1.95,5.92,5.88,8.43,9.13-4.14-.73-4.86-2-5.62,1.87q3.98,1.4,7.96,2.81c-5,.02-9.53-.83-1.4,1.87-7.1.74,1.65,2.16,7.96,2.34-9.57,2.08-5.21,3.61-5.85,3.98-.48.28-9.28-1.87-11-1.17,3.29,1.21,20.58,10.77,21.77,11,2.85.55,6.11-1.86,9.13-.7-.82,1.47-9.43,7.8-9.36,8.43.42,4.24,9.94-2.54,11.47-3.51q.35.35.7.7c1.63,2.71,7.57,21.2,8.43,22.01,1.69,1.61,1.97-5.44,7.02,7.96l-4.21,7.96c6.7-1.86-2.56,4.05,8.9.7.05.33.34.42.47,1.4-8.83,5.28-1.61,3.59-1.4,3.98.28.51-5.07,5.22,2.81,3.04.41,1.9-.79,2.08-1.4,3.28-.08.15-2.18,1.87-2.34,2.58-.17.71.13,6.51,1.87,4.68-5.37,8.45,1.26,2.76,4.68.23.05.1,1.07,1.1,1.4,1.87l-5.62,4.92c9.57-2.35,2.27.36,2.81,1.87.46,1.31,3.17.27,3.75.94.99,1.14-5.24,6.48-.23,3.04.63.22.79,8.25,2.58,9.6-.96,5.14.85,6.8,1.4,9.6.17.87,1.69,3.43,1.87,4.45.31,1.73-.48,2-.47,2.11-5.42-9.77-2.16,3.84.47,6.56.17,2.61,2.23,12.84,1.87,13.81-.26.7-1.07-1.49-1.87,0-.46,8.39-2.28,8.42-2.34,8.9-.23,1.73,2.13,13.83-3.98,22.71-.34-16.79-5.06-15.23-3.98-8.19.04.24,3.48,3.89-1.17,2.11-2.32-.89-1.18-13.54,1.17-15.69-.14-12.63-3.64-14.1-5.62-20.13-1.96-5.96-3.36-14.31-3.75-14.98-.87-1.51-5.34-.17-4.21-14.05-2.52-1.94-3.67-12.23-4.68-10.77-3.9,11.79-.47,8.18.94,14.05,4.2,17.56,7.8,82.29,7.96,103.25.03,3.47.77,19.84.47,20.84-.12.4-5.44,5.85-5.85,5.85-2.03.03-.95-7.13-1.17-13.11-1.1-30.24-.78-60.51-3.75-90.6-1.86,13.67,1.38,27.58.47,41.2-.74,11.16-.76.98-1.4-3.28-.27,10.14-.29,20.34-2.81,30.2-5.19,7.5,1.44,16.62-1.87,20.37,2.36,7.78-1.36,9.7-1.87,12.64-1.49,8.56-2.32,17.26-4.21,25.75,3.02,6.21,6.78,4.63-.47,9.13-.62-1.25-3.66,7.26-3.75,7.73-.37,2.1,1.67,5.81-1.4,11.71-7.8,4.19-4.9.28-5.15,0-1.99-2.17-2.43,1.48-2.34-4.45.04-2.45.13-13.84-.47-15.22-.56-1.28-2.78-.31-3.28-.94-.67-.84,4.43-2.09-.47-2.81l4.21-5.62c1.77-3.99-2.94-27.7-3.28-34.18-.16-2.96,2.89-8.1-1.87-8.43,2.41-1.16,1.76-6.78,0-8.9-.09-2.93,1.93-4.93,0-12.64-5.38.01-1.47,1.85-2.34,7.02-.52,3.08-3.28.92-2.81,12.64.02.44,1.4,1.76,1.4,1.87.11,8.18-4.54,36.24-3.75,45.42.07.86,3.14,1.7.94,7.73-.03.07-.75-.27-1.4.7.98,2.03-.54,12.14-1.64,12.88-.16.11-3.56.97-3.75.94-2.73-.44-1.79-5.97-3.98-5.62-.61-8.17-4.61-11.29-4.68-11.94-.16-1.38,1.79-.34,1.87-3.28.05-1.82-4.2-31.78-7.02-35.59.93-7.67,3.58-22.98.47-29.03.13-2.29.97-6.66.47-8.66-.29-1.18-4.64-2.83-4.68-23.18-6.96-3.42-.03-13.97-5.62-21.54q.94-5.38,1.87-10.77c-6.19,9.14-1.84-1.71-1.87-9.83,2.73-10.08,3.28-14.74-1.4-2.34-7.68,1.68-4.61,22.87-8.9,27.63-.23.94,4.28,12.68,2.34,18.96-2.02,6.57-3.44-3.65-3.51-7.49-6.22,2.27-.26,15.05,1.17,20.13-1.51.22-2.86-1.61-3.75-2.58-10.63-11.52-4.76-17.99-8.43-22.94,2.3-5.94-2.48-9.93.47-13.11-3.23-5.84,3.75-5.34-1.4-12.64,2.82-4.44,3.32-13.71,1.4-18.73,3.75-1.65,1.26-9.62,1.4-10.77,2.18-17.45,5.65-14.65,6.09-15.45,2.09-3.85,1.09-24.23.47-29.73.32,0,.85-.12.94.23,1.15,4.51.07,5.68,2.81-6.79.59-2.68,1.82-5.17,1.87-7.96,4.46-5.42,9.16-10.11,14.98-14.05q1.64-4.8,3.28-9.6c-2.11-3.91,5.32-14.09,9.36-15.45.12-.91-.24-1.73-.47-2.58.65.17,4.05-.8,4.21-.94,1.08-.88,2.17-5.66,3.75-7.73,1.68-2.21,2.7-1.52,2.81-1.64" style="fill:#3007a8; stroke-width:0px;"/><path d="m296.86,241.19c-.56-2.8-2.37-4.46-1.4-9.6-1.78-1.35-1.95-9.38-2.58-9.6-5,3.44,1.23-1.91.23-3.04-.58-.66-3.28.37-3.75-.94-.54-1.51,6.76-4.23-2.81-1.87l5.62-4.92c.96,2.23,1.56,4.5,2.34,6.79-.19,4.83,2.33,11.73,2.81,15.92.05.41.14,8.33-.47,7.26" style="fill:#80146a; stroke-width:0px;"/><path d="m262.91,162.99c.76.24.91,2.02.7,2.58-.66,1.73-15.09,4.73-17.79,1.4q4.8-.12,9.6-.23c.6-.78,7.07-3.88,7.49-3.75" style="fill:#ca0088; stroke-width:0px;"/><path d="m287.96,198.58c-7.88,2.18-2.53-2.53-2.81-3.04-.21-.39-7.43,1.3,1.4-3.98.29,2.33,1.35,4.64,1.4,7.02" style="fill:#ca0088; stroke-width:0px;"/></g></g></g></g></svg>