<?xml version="1.0" encoding="UTF-8"?><svg id="b" xmlns="http://www.w3.org/2000/svg" xmlns:xlink="http://www.w3.org/1999/xlink" viewBox="0 0 479.5 479.48"><defs><clipPath id="e"><rect x="0" y="0" width="479.5" height="479.48" style="fill:none; stroke-width:0px;"/></clipPath><clipPath id="f"><rect x="0" y="0" width="479.5" height="479.48" style="fill:none; stroke-width:0px;"/></clipPath></defs><g id="c"><g id="d"><g style="clip-path:url(#e);"><g style="clip-path:url(#f);"><path d="m154.99,0v25.99c-2.28-7.42-2.86-15.47-6.79-22.24l-3.98,19.2c-2.85-6.65-3.43-.97-2.34,3.04.5,1.84,4.49,9.7,5.62,5.85,12.17,1.35,8.03-.77,0,13.58-1,1.78-3.08,3.81-3.75,5.85-1.91,5.82.08,10.65,1.87,16.15-5.29-.92-4.01,3.49-4.21,7.02-.26,4.63.46,21.69,0,23.18-.12.4-3.32,2.4-5.39,6.32-4.04-6.48-6.71-13.84-5.38-7.49.47,9.72-1.6,4.12-3.04,6.09-.11.15,2.07,2.65-.23,2.81-.32-4.41-2.26-10.32-2.34-1.64-4.4,1.45-.16,4.15-5.38,9.6-.17.17-1.75-2.43-2.11,2.58-.17,2.38,1.52,4.52,1.4,9.36-.13,5.44-1.76,11.44-1.87,16.86-.23,11.54.42,23.1.47,34.65,0,.15-1.4.48-1.4.94-.13,11.66,3.66,22.82,6.09,33.95-.38-.86-5.3-15.78-5.62-17.09-.35-1.43,1.3-4.34-1.4-3.98-.03-4.55.11-9.02,0-13.58,3.85-.31.65-19.89.7-27.63q-1.29.7-2.58,1.4c-1.81-12.69-1.47-3.21,0,4.68q-2.11.23-4.21.47c-.02-.16-.85-2.91-.94-3.04-3.15-4.9,1.56,14.8-.47,14.98,2.41.9,1.76,4.68,2.81,6.79-6.26-4.37-4.9,1.31-5.15,2.81-1.03,6.24-2.12-4.48-3.98-6.09-.7-.21-.3,8.28.7,9.6.25,4.46-2.53,7.67,2.81,12.17-.21,5.14,6.18,26.58,6.09,28.09-.17,2.74-2.23-3.73-2.34-3.98-.59-3.24-4.13-23.02-4.68-24.11-1.69-3.38-2.31,1.62-2.58,1.64-2.42-5.33-3.2,1.4-4.21,1.4-.17,0-2.15-2.35-2.11-2.58.18-.89,4.38-2.58,4.21-3.28-.35-1.46-2.55.08-2.81-.47-.32-.7,1.36-2.06-2.81-6.79-.08-.69.05-1.41,0-2.11-2.15-4.21-.55,12.43.94,19.67.88,4.26,3.74,7.03,1.87,10.77.44,1.56,12.15.18,15.92,25.99.52,1.11,1.89,1.73,2.81.94-.19,4.46,3.95,12.97,6.56,16.86-3.15-1.47-.81-3.48-6.09-2.34-.59-.95-.3-1.75-1.17-2.34,1.15,5.7,3.2,11.76,4.92,17.56.18.62,1.34.7,1.4.94,1.52,5.23,2.77,16.17,4.21,19.9.76,1.95,3.17,3.97,3.28,4.21,5.2,20.93,13.06,41.13,16.39,62.51,1.01-4.23-.43-8.94-1.4-13.11,3.6,3.89,6.51,19.06,7.02,24.35.08.78-2.04,6.53,1.4,7.73,1,3.2,9.03,15.41,11.24,19.9,1.86,3.77,11.63,27.29,13.81,27.86,4.39-2.35,6.62,2.26,12.17,1.4,7.67-5.43,8.84,4.32,18.73-2.81.95-1.57-4.45-3.03-3.98-4.45,1.09-3.29,17.89,1.6,16.39-18.5,2.19-.35,1.25,5.18,3.98,5.62.19.03,3.59-.83,3.75-.94,1.1-.74,2.62-10.85,1.64-12.88.65-.97,1.38-.63,1.4-.7-1.39,4.06-.28,22.1,1.4,24.58.9,1.32,3.14-.2,4.92.7.64.33,6.18,7.6,2.58-2.11,3.41-3.47.63-6.88,2.81-9.13-.09,5.93.35,2.28,2.34,4.45.25.28-2.65,4.2,5.15,0,3.08-5.9,1.04-9.6,1.4-11.71.08-.47,3.12-8.97,3.75-7.73-4.29,8.94-1.75,16.7-3.04,26.22,11.21,2.46,21.98,9.79,33.71,6.56q5.03,1.64,10.07,3.28c-5.32,6.07-19.86,19.3-3.04,6.56,3.8-.17,7.68.23,11.47,0,2.3-.14,4.23-.14,6.56-.47.55-.08,1.39.93,3.75-.47,12.18-1.52,10.39,6.94,15.92-1.17-7.37,1.42,2.75-.87-5.15-1.4,3.94-2.95,4.96-10.09,11-8.66,1.22-.47,2.1-6.43,3.98-11.24-1.03,3.85,9.04-4.47,11.47-6.56,35.4-30.34,38.15-54.09,67.66-85.45l-.23-.7c-3.33,2.35-6.59,4.89-10.07,7.02q-.23-.23-.47-.47c3.32-4.83,8.94-15.23,11.24-18.03,3.09-3.76,9.27-7.8,13.58-12.64,5.71-6.42,9.55-14.43,14.98-21.07.19-1.1-1.12-.22-1.4,0-2.3,1.79-23.35,29-31.61,35.82-.54-.18,3.53-9.48,1.17-7.26.02,1.85-5.67,9.27-5.62,9.83.18,2.12,3.62-.51.94,3.28-3.05,4.31-41.83,41.14-37.69,42.38,8.27-9.86,6.3-9.51,18.73-13.11-11.7,27.82-46.21,48.79-71.41,77.26-1.43-.81-3.2.7-4.68,1.4-4.64,2.2-8.89,5.56-13.58,6.09-1.84.21-3.78.03-5.62.47-.11-1.82,19.77-25.1,22.48-28.8,10.04-13.7,19.29-28.15,28.56-42.38,1.75-2.77,2.16-1.4.94-6.56,1.52-1.7,1.79-2.61-.47-3.51,6.19-10.34,9.38-22.25,16.86-31.84-1.6-3.38,3.67-16.33,2.58-16.62-2.81,5.37-4.71,11.13-7.26,16.62-.21.45.21,1.9,0,2.34-2.94,6.24-14.16,19.99-15.92,35.35-.1.04.37,1.59-1.4.7,2.95-17.1,12.93-28.96,16.86-37.46.05-.11-.54-1.17,0-2.34,3.22-6.94,5.46-14.14,9.83-20.37q2.11-9.36,4.21-18.73c.61-1.55.62-1.12,1.87-2.11-1.2-1.01.01-1.69.47-2.58,2.45-2.11,3.38-5.66,5.15-8.43,7.53-11.8,13.16-12.26,19.2-18.5,1.11-1.14,19.38-23.71,19.2-25.29-1.33-2.1-11.68,12.89-11.24,9.37,3.51-3.91,5.38-7.61,8.43-12.17.17-.25-.17-1.16,0-1.4,10.77-15.83,22.39-24.93,34.65-37.46,7.87-8.04,16.48-21.38,26.69-25.52.08,110.5-.06,221.01,0,331.51H0V0C51.66-.02,103.33.04,154.99,0" style="fill:#232035; stroke-width:0px;"/><path d="m328.24,0C378.65.04,429.06-.02,479.48,0c.02,40.58-.03,81.16,0,121.74-1.97-1.75-4.04-6.57-6.79-7.02-6.7-1.12-.39,2.92-1.17,15.22-.42,6.58-3.17,14.47-6.55,20.13-12.18,20.38-2.9-8.37.23-15.22-1.87,4.04-10.08,12.85-10.54,13.81-1.49,3.17.84,10.83-12.88,14.75-10.54,13.37-15.8,26.55-28.8,39.1-2.54,8.98-10.63,18.33-11.24,25.75-4.02,3.18-11.05,6.95-10.3,12.64-6.21,7.39-15.82,15.06-14.98,25.52-4.08,4.56,2.87-12.47-1.64-7.02-4.57-.95-.82-3.71-.7-4.45.15-1.02-.66-1.4-.47-2.34,1.41-6.92,7.98-25.6,3.75-30.9,1.1-3.08.06-3.47-.94-6.09,5.76-5.58-2.19-5.98-2.58-6.32-.77-.69,1.45-1.55-1.17-2.34.14-5.79,2.07-10.54-2.34-15.22,2.09-11.11.95-20.74.94-31.84,2.09-6.67-.53-28.6-2.34-34.65-.6-1.99-6.4-11.86-7.49-17.09-.07-1.7.36-5.63,0-6.79-.48-1.54-3.4-3.29-3.75-4.68-.5-2.01.45-21.17-.94-23.41-.51-.82-2.85-.37-3.28-2.34-.54-2.47,2.4-4.75,2.81-7.02.93-5.11-1.3-19.69-1.4-26.22-1.96,13,2.18,17.52-3.28,11.94-1.3-1.33-2.71-3.8-4.21-4.21.12-.86-.58-1.21-.94-1.87-.55-8.67.92-25.04-.47-32.31-1.15-6.02-1.27-3.42-4.45-6.56q-.35,4.8-.7,9.6c-.68,1.25-4.88-3.8-5.62-1.87-.05,11.47.07,22.94,0,34.42-.92-.08-1.9.11-2.81,0-.6-.07-3.04-.63-3.28-1.17q-.47-22.83-.94-45.65" style="fill:#232035; stroke-width:0px;"/><path d="m254.71,132.56c-.32,9.54-2.1,7.42,1.87,7.96,1.61.22,4.95.02,6.09,1.17,3.03,8.19,9.14,14.95,15.45,20.84.34,1.73,6.03,12.33,8.43,25.52.32,1.74-.48,2-.47,2.11-11.46,3.35-2.19-2.56-8.9-.7l4.21-7.96c-5.06-13.4-5.33-6.35-7.02-7.96-.85-.81-6.8-19.3-8.43-22.01q-.35-.35-.7-.7c-1.53.97-11.05,7.75-11.47,3.51-.06-.63,8.55-6.96,9.36-8.43-3.02-1.16-6.28,1.25-9.13.7-1.2-.23-18.49-9.8-21.77-11,1.72-.7,10.53,1.45,11,1.17.64-.37-3.72-1.9,5.85-3.98-6.31-.18-15.06-1.6-7.96-2.34-8.13-2.71-3.59-1.86,1.4-1.87q-3.98-1.4-7.96-2.81c.76-3.87,1.48-2.61,5.62-1.87-2.51-3.25-4.55-7.18-8.43-9.13.77-.88,1.59-2.1,1.4-3.28,18.78,3.5,11,15.79,19.9,17.79.63.96,1.08,2.32,1.64,3.28" style="fill:#da5274; stroke-width:0px;"/><path d="m290.77,209.35c-3.42,2.53-10.05,8.21-4.68-.23-1.74,1.83-2.04-3.97-1.87-4.68.17-.71,2.26-2.42,2.34-2.58,1.41,2.47,2.92,4.97,4.21,7.49" style="fill:#da5274; stroke-width:0px;"/><path d="m231.77,114.76c3.88,1.95,5.92,5.88,8.43,9.13-4.14-.73-4.86-2-5.62,1.87q3.98,1.4,7.96,2.81c-5,.02-9.53-.83-1.4,1.87-7.1.74,1.65,2.16,7.96,2.34-9.57,2.08-5.21,3.61-5.85,3.98-.48.28-9.28-1.87-11-1.17,3.29,1.21,20.58,10.77,21.77,11,2.85.55,6.11-1.86,9.13-.7-.82,1.47-9.43,7.8-9.36,8.43.42,4.24,9.94-2.54,11.47-3.51q.35.35.7.7c1.63,2.71,7.57,21.2,8.43,22.01,1.69,1.61,1.97-5.44,7.02,7.96l-4.21,7.96c6.7-1.86-2.56,4.05,8.9.7.05.33.34.42.47,1.4-8.83,5.28-1.61,3.59-1.4,3.98.28.51-5.07,5.22,2.81,3.04.41,1.9-.79,2.08-1.4,3.28-.08.15-2.18,1.87-2.34,2.58-.17.71.13,6.51,1.87,4.68-5.37,8.45,1.26,2.76,4.68.23.05.1,1.07,1.1,1.4,1.87l-5.62,4.92c9.57-2.35,2.27.36,2.81,1.87.46,1.31,3.17.27,3.75.94.99,1.14-5.24,6.48-.23,3.04.63.22.79,8.25,2.58,9.6-.96,5.14.85,6.8,1.4,9.6.17.87,1.69,3.43,1.87,4.45.31,1.73-.48,2-.47,2.11-5.42-9.77-2.16,3.84.47,6.56.17,2.61,2.23,12.84,1.87,13.81-.26.7-1.07-1.49-1.87,0-.46,8.39-2.28,8.42-2.34,8.9-.23,1.73,2.13,13.83-3.98,22.71-.34-16.79-5.06-15.23-3.98-8.19.04.24,3.48,3.89-1.17,2.11-2.32-.89-1.18-13.54,1.17-15.69-.14-12.63-3.64-14.1-5.62-20.13-1.96-5.96-3.36-14.31-3.75-14.98-.87-1.51-5.34-.17-4.21-14.05-2.52-1.94-3.67-12.23-4.68-10.77-3.9,11.79-.47,8.18.94,14.05,4.2,17.56,7.8,82.29,7.96,103.25.03,3.47.77,19.84.47,20.84-.12.4-5.44,5.85-5.85,5.85-2.03.03-.95-7.13-1.17-13.11-1.1-30.24-.78-60.51-3.75-90.6-1.86,13.67,1.38,27.58.47,41.2-.74,11.16-.76.98-1.4-3.28-.27,10.14-.29,20.34-2.81,30.2-5.19,7.5,1.44,16.62-1.87,20.37,2.36,7.78-1.36,9.7-1.87,12.64-1.49,8.56-2.32,17.26-4.21,25.75,3.02,6.21,6.78,4.63-.47,9.13-.62-1.25-3.66,7.26-3.75,7.73-.37,2.1,1.67,5.81-1.4,11.71-7.8,4.19-4.9.28-5.15,0-1.99-2.17-2.43,1.48-2.34-4.45.04-2.45.13-13.84-.47-15.22-.56-1.28-2.78-.31-3.28-.94-.67-.84,4.43-2.09-.47-2.81l4.21-5.62c1.77-3.99-2.94-27.7-3.28-34.18-.16-2.96,2.89-8.1-1.87-8.43,2.41-1.16,1.76-6.78,0-8.9-.09-2.93,1.93-4.93,0-12.64-5.38.01-1.47,1.85-2.34,7.02-.52,3.08-3.28.92-2.81,12.64.02.44,1.4,1.76,1.4,1.87.11,8.18-4.54,36.24-3.75,45.42.07.86,3.14,1.7.94,7.73-.03.07-.75-.27-1.4.7.98,2.03-.54,12.14-1.64,12.88-.16.11-3.56.97-3.75.94-2.73-.44-1.79-5.97-3.98-5.62-.61-8.17-4.61-11.29-4.68-11.94-.16-1.38,1.79-.34,1.87-3.28.05-1.82-4.2-31.78-7.02-35.59.93-7.67,3.58-22.98.47-29.03.13-2.29.97-6.66.47-8.66-.29-1.18-4.64-2.83-4.68-23.18-6.96-3.42-.03-13.97-5.62-21.54q.94-5.38,1.87-10.77c-6.19,9.14-1.84-1.71-1.87-9.83,2.73-10.08,3.28-14.74-1.4-2.34-7.68,1.68-4.61,22.87-8.9,27.63-.23.94,4.28,12.68,2.34,18.96-2.02,6.57-3.44-3.65-3.51-7.49-6.22,2.27-.26,15.05,1.17,20.13-1.51.22-2.86-1.61-3.75-2.58-10.63-11.52-4.76-17.99-8.43-22.94,2.3-5.94-2.48-9.93.47-13.11-3.23-5.84,3.75-5.34-1.4-12.64,2.82-4.44,3.32-13.71,1.4-18.73,3.75-1.65,1.26-9.62,1.4-10.77,2.18-17.45,5.65-14.65,6.09-15.45,2.09-3.85,1.09-24.23.47-29.73.32,0,.85-.12.94.23,1.15,4.51.07,5.68,2.81-6.79.59-2.68,1.82-5.17,1.87-7.96,4.46-5.42,9.16-10.11,14.98-14.05q1.64-4.8,3.28-9.6c-2.11-3.91,5.32-14.09,9.36-15.45.12-.91-.24-1.73-.47-2.58.65.17,4.05-.8,4.21-.94,1.08-.88,2.17-5.66,3.75-7.73,1.68-2.21,2.7-1.52,2.81-1.64" style="fill:#324; stroke-width:0px;"/><path d="m296.86,241.19c-.56-2.8-2.37-4.46-1.4-9.6-1.78-1.35-1.95-9.38-2.58-9.6-5,3.44,1.23-1.91.23-3.04-.58-.66-3.28.37-3.75-.94-.54-1.51,6.76-4.23-2.81-1.87l5.62-4.92c.96,2.23,1.56,4.5,2.34,6.79-.19,4.83,2.33,11.73,2.81,15.92.05.41.14,8.33-.47,7.26" style="fill:#b64972; stroke-width:0px;"/><path d="m262.91,162.99c.76.24.91,2.02.7,2.58-.66,1.73-15.09,4.73-17.79,1.4q4.8-.12,9.6-.23c.6-.78,7.07-3.88,7.49-3.75" style="fill:#da5274; stroke-width:0px;"/><path d="m287.96,198.58c-7.88,2.18-2.53-2.53-2.81-3.04-.21-.39-7.43,1.3,1.4-3.98.29,2.33,1.35,4.64,1.4,7.02" style="fill:#da5274; stroke-width:0px;"/></g></g></g></g></svg>