<?xml version="1.0" encoding="UTF-8"?><svg id="b" xmlns="http://www.w3.org/2000/svg" xmlns:xlink="http://www.w3.org/1999/xlink" viewBox="0 0 521.84 521.83"><defs><clipPath id="e"><rect width="521.84" height="521.83" style="fill:none; stroke-width:0px;"/></clipPath><clipPath id="f"><rect width="521.84" height="521.83" style="fill:none; stroke-width:0px;"/></clipPath></defs><g id="c"><g id="d"><g style="clip-path:url(#e);"><g style="clip-path:url(#f);"><path d="m501.17,95.32c1.48.45.58,5.12-1.02,3.57-1.54-1.5.62-3.69,1.02-3.57" style="fill:#b64972; stroke-width:0px;"/><path d="m505.25,113.66c2.1-.14.17,4.21-.76,1.27-.02-.07.69-1.27.76-1.27" style="fill:#d66294; stroke-width:0px;"/><path d="m380.66,378.64c-.42.47-3.68,2.16-4.59,2.55,1.92-16.72,14.12-31.68,17.33-38.47.23-.48-.23-2.06,0-2.55,2.77-5.98,4.84-12.24,7.9-18.09,1.19.32-4.55,14.42-2.8,18.09-8.13,10.43-11.61,23.4-18.34,34.65,2.46.98,2.17,1.98.51,3.82" style="fill:#da5274; stroke-width:0px;"/><path d="m456.33,275.2c-9.75,13.26-25.53,22.91-28.79,40-18.51,27.71-18.09,22.28,0-1.53.42-2.03-1.35-4.09,0-7.64.75-1.97,24.31-27.51,28.79-30.83" style="fill:#da5274; stroke-width:0px;"/><path d="m421.17,340.42c.59-.16.9.17.76.76-12.92,16.86-26.64,33.09-40.51,49.17q2.42-3.69,4.84-7.39,17.45-21.27,34.91-42.55" style="fill:#da5274; stroke-width:0px;"/><path d="m418.62,296.6c.24,2.29-.56,4.77-1.27,6.88-6.76,19.99-6.34,4.96,1.27-6.88" style="fill:#da5274; stroke-width:0px;"/><path d="m403.59,316.47c-.02-7.05,2.06-13.96,4.59-20.38q-2.29,10.19-4.59,20.38" style="fill:#c26380; stroke-width:0px;"/><path d="m330.21,462.72c-.82,1.54-5.94,3.45-6.11.51,2-.48,4.12-.28,6.11-.51" style="fill:#f6b7b2; stroke-width:0px;"/><path d="m456.84,230.35c.2.58.85,1.26.76,1.78-.16.93-13.55,13.83-.76-1.78" style="fill:#b64972; stroke-width:0px;"/><path d="m416.33,281.82c-1.92,3.01-2.94,6.88-5.61,9.17,1.61-3.13,3.63-6.27,4.59-9.68.04.04.74.42,1.02.51" style="fill:#85435d; stroke-width:0px;"/><path d="m437.99,310.36q1.66.13,3.31.25c-1.17,1.67-2.85,1.84-3.31-.25" style="fill:#d64a83; stroke-width:0px;"/><path d="m40,95.83c3.44,10.18,9.63,31.51,18.6,36.43.46,2.14,6.83,12.63,3.31,13.5-1.62.4-5.41-7.7-.76,9.94,3.63-4.51,3.1,1.64,3.06,7.64-1.76,3.27-4.9-1.02-4.33,5.35q-2.8-4.59-5.61-9.17c-.66,10.52,9.58,23.62,16.31,31.59.41-4.12-7.93-23.42-7.9-24.71.03-1.14.46-.75,1.02,0,5.05,6.83,20.23,40.72,23.19,50.7-4.24-1.83,4.32,22.5-2.29,9.43-1.41-2.78-9.43-27.97-5.1-8.66,2.39,10.66,11.58,25.59,15.54,36.44-8.02-10.33-11.17-23.78-15.54-33.38-4.14-9.08-9.16-17.88-13.25-27.01-5.46-12.19-10.2-24.5-16.82-36.18-6.55-25.39-8.11-14.65,3.82-7.9q3.95,3.95,7.9,7.9c-3.97-10.17-7.53-20.72-12.23-30.57-2.57-5.38-10.98-9.08-8.92-31.34" style="fill:#da5274; stroke-width:0px;"/><path d="m168.16,389.34c-1.71,7.49-5.6,10.23-3.06,18.34-3.75-1.3-1.45-7.55-1.53-8.41-.56-5.75-3.72-22.27-7.64-26.5,1.06,4.54,2.62,9.66,1.53,14.27-3.62-23.27-12.17-45.25-17.84-68.03,4.69,10.39,12.48,32.91,16.31,44.59.5,2.17-1.99.76-2.55,1.53-.83,1.16,12.79,21.51,14.78,24.2" style="fill:#da5274; stroke-width:0px;"/><path d="m59.37,271.12c8.52,14.6,17.31,29.51,24.2,45.1,6.3,6.19,9.54,14.88,13.5,22.68l-16.05-19.11q-10.83-24.33-21.66-48.67" style="fill:#da5274; stroke-width:0px;"/><path d="m99.11,329.21c6.59,15.15,16.4,28.97,28.79,40-.78,5.95-.58,10.83,1.27,16.56-9.43-19.24-24.27-35.58-30.07-56.56" style="fill:#da5274; stroke-width:0px;"/><path d="m118.73,169.71c.12.98-1.62,5.33.76,10.19,4.54-2.72,1.34,6.93.76,10.19-1.14-2.3-.44-6.41-3.06-7.39,2.21-.2-2.92-21.63.51-16.31.09.15,1,3.14,1.02,3.31" style="fill:#da5274; stroke-width:0px;"/><path d="m207.65,464.25c2.77-.41,9.08.58,7.13,1.53-5.64-2.44-10.16,3.68-15.54,2.29,0-.46,7.95-3.75,8.41-3.82" style="fill:#f9ddc6; stroke-width:0px;"/><path d="m73.12,162.07c10.89,10.45,5.54,11.94,4.33,9.43-.33-.68.61-3.37-.76-3.82-.11-.04-1.86,1.6-2.29.76-.24-.46,2.13-.25-1.27-6.37" style="fill:#b64972; stroke-width:0px;"/><path d="m156.95,24.99c.98,2.29,1.37,7.36,3.57,9.68-1.23,4.19-5.57-4.37-6.11-6.37-1.18-4.37-.55-10.54,2.55-3.31" style="fill:#e68e91; stroke-width:0px;"/><path d="m116.44,347.56c1.1,1.51,5.29,8.89,5.35,9.43.54,5.01-6.96-8.89-5.35-9.43" style="fill:#c26380; stroke-width:0px;"/><path d="m137.33,374.57c1.44,2.88,6.26,7.4,6.37,7.9.71,3.05-5.43,8.19-1.02.51q-2.68-4.2-5.35-8.41" style="fill:#b64972; stroke-width:0px;"/><path d="m123.32,164.11c.54,3.76,1.94,15.48,0,5.1-1.6-8.59-1.97-18.91,0-5.1" style="fill:#85435d; stroke-width:0px;"/><path d="m281.54,469.86c.68-.15,8.92-.19,8.92.25-1.27.33-11.02,2.15-10.7.51.69-.05,1.67-.74,1.78-.76" style="fill:#f8e8c4; stroke-width:0px;"/><path d="m106.25,314.94c1.08,1.06,6.22,10.27,5.1,10.7l-5.1-10.7Z" style="fill:#a95c74; stroke-width:0px;"/><path d="m97.58,177.87c.57-.17,2.67,10.06,2.29,10.96-.62,1.48-2.22-9.58-2.55-10.7q.13-.13.25-.25" style="fill:#85435d; stroke-width:0px;"/><path d="m78.73,183.47c4.68,11.69,2.49,13.19-.25.25q.13-.13.25-.25" style="fill:#85435d; stroke-width:0px;"/><path d="m89.94,165.13c.11.02,1.27,1.67,1.27,1.78,0,2.68-4.09.28-4.08,0,0-.17,2.64-1.81,2.8-1.78" style="fill:#da5274; stroke-width:0px;"/><path d="m367.15,459.67c.9,7.32-3.03,1.61-2.8,1.27.35-.53,1.86.25,2.8-1.27" style="fill:#85435d; stroke-width:0px;"/><path d="m75.16,171.75c.33-.11,2.26,3.97,2.29,4.33.46,5.08-3.28-3.99-2.29-4.33" style="fill:#b64972; stroke-width:0px;"/><path d="m112.36,250.74c.38.5,2.37,3.53,1.53,4.08-1.44.94-2.43-1.99-1.53-4.08" style="fill:#b64972; stroke-width:0px;"/><path d="m77.2,159.01c1.09-.48,1.48,1.61.51,1.53-.32-.03-1.22-1.22-.51-1.53" style="fill:#da5274; stroke-width:0px;"/><path d="m147.01,394.95c.62.27.31,2.99-.51,1.53-.21-.38.42-1.57.51-1.53" style="fill:#c26380; stroke-width:0px;"/><path d="m489.45,290.48q.13.13.25.25v.51q-.13.13-.25.25h-.51q-.13-.13-.25-.25.13-.13.25-.25t.25-.25l.25-.25Z" style="fill:#da5274; stroke-width:0px;"/><path d="m154.91,439.79v.51q-.13,3.06-.25,6.11c-2.04,1.66-24.62-42.34-25.73-45.61l4.84,4.84c-3.32-16.99,2.67.7,3.82,5.86,6.86,3.54,3.66,7.96,11.21,9.17,6.66,14.4,16.81,26.24,25.48,39.24,4.25,6.37,9.45,17.12,10.19,17.84,3.24,3.13-2.61-11.16-.25-11.47,1.78-.23,4.44,10.3,5.35,11.98,4.69,8.58-3.65-13.61-2.8-14.01,5.4,6.15,9.28,13.45,11.98,21.15-1.47,1.74-13.12-3.07-17.84-3.06-9.62-13.68-17.97-27.89-25.99-42.55" style="fill:#fad0b9; stroke-width:0px;"/><path d="m77.71,161.56q.13.13.25.25l.25.25q.13.13.25.25l-.25.25h-.51l-.25-.25v-.51q.13-.13.25-.25" style="fill:#be9da0; stroke-width:0px;"/><path d="m114.4,260.42q.13.13.25.25l.25.25.25.25q-.13.13-.25.25h-.51q-.13-.13-.25-.25v-.51q.13-.13.25-.25" style="fill:#c26380; stroke-width:0px;"/><path d="m521.81,132.51c0,9.51,0,19.02,0,28.54-11.11,4.5-20.48,19.02-29.05,27.77-13.34,13.64-25.99,23.54-37.71,40.77-.18.26.18,1.26,0,1.53-3.32,4.97-5.36,8.99-9.17,13.25-.48,3.83,10.78-12.48,12.23-10.19.19,1.72-19.69,26.28-20.89,27.52-6.58,6.79-12.7,7.29-20.89,20.13-.28-.09-.98-.47-1.02-.51-2.44-2.32-3.96,6.83-5.61,8.66-.91-11.38,9.55-19.73,16.31-27.77-.82-6.19,6.83-10.3,11.21-13.76.66-8.08,9.46-18.25,12.23-28.03,14.15-13.65,19.87-28,31.34-42.55,14.93-4.27,12.4-12.6,14.01-16.05.49-1.05,9.44-10.64,11.47-15.03-3.41,7.45-13.5,38.74-.25,16.56,3.68-6.16,6.68-14.75,7.13-21.91.85-13.38-6.01-17.78,1.27-16.56,2.99.5,5.24,5.74,7.39,7.64" style="fill:#da5274; stroke-width:0px;"/><path d="m444.86,349.6c-.92,1.33-3.98,3.26.51.51,3.79-2.32,7.33-5.09,10.96-7.64l.25.76c-32.12,34.13-35.11,59.98-73.63,93-2.65,2.27-13.61,11.33-12.48,7.13.3-.76.69-1.86,1.02-2.55,2.71-5.74,6.57-9.63-3.31-.51-5.36,4.94-11.07,12.84-16.56,18.34-3.06,3.07-6.4,5.82-9.17,9.17-2.56,1.52-3.48.43-4.08.51,4.46-4.11,7.74-9.27,11.72-13.76,27.42-30.98,64.98-53.8,77.71-84.08-13.52,3.92-11.39,3.54-20.38,14.27-4.51-1.35,37.7-41.43,41.02-46.12,2.92-4.12-.82-1.26-1.02-3.57-.05-.61,6.13-8.68,6.11-10.7,2.57-2.42-1.86,7.71-1.27,7.9,8.99-7.42,31.89-37.03,34.4-38.98.31-.24,1.73-1.2,1.53,0-5.91,7.23-10.1,15.94-16.31,22.93-4.69,5.28-11.41,9.67-14.78,13.76-2.5,3.04-8.62,14.37-12.23,19.62" style="fill:#da5274; stroke-width:0px;"/><path d="m324.09,463.23c.17,2.94,5.29,1.03,6.11-.51,5.1-.58,9.73-4.23,14.78-6.62l-13.76,12.74c-4.13.26-8.35-.19-12.48,0-18.31,13.87-2.48-.53,3.31-7.13,2.94-3.36,6.17-6.44,8.66-10.19,14.93-15.23,25.69-33.78,37.71-51.21,3-4.34,9.17-11.3,11.21-14.52-10.09,15.49-20.16,31.21-31.08,46.12-2.95,4.02-24.58,29.36-24.46,31.34" style="fill:#da5274; stroke-width:0px;"/><path d="m350.08,454.57c-3.98,4.49-7.26,9.65-11.72,13.76-2.53.35-4.63.36-7.13.51l13.76-12.74c1.61-.76,3.54-2.41,5.1-1.53" style="fill:#fad0b9; stroke-width:0px;"/><path d="m445.37,350.11c-4.49,2.75-1.43.82-.51-.51l.51.51" style="fill:#9c314b; stroke-width:0px;"/><path d="m371.48,440.81c-6.08,6.54-11.32,14.16-19.87,17.84,5.49-5.51,11.2-13.4,16.56-18.34,9.89-9.12,6.02-5.23,3.31.51" style="fill:#232035; stroke-width:0px;"/><path d="m370.47,443.36c-2.04,5.23-3,11.72-4.33,12.23-6.57-1.56-7.69,6.21-11.98,9.43,8.6.58-2.42,3.07,5.61,1.53-6.02,8.83-4.07-.38-17.33,1.27,2.77-3.35,6.11-6.1,9.17-9.17,8.56-3.67,13.79-11.29,19.87-17.84-.33.69-.72,1.78-1.02,2.55" style="fill:#fad0b9; stroke-width:0px;"/><path d="m356.96,467.82h.51q.13.13.25.25l-.25.25q-.13.13-.25.25t-.25.25q-.13-.13-.25-.25v-.51q.13-.13.25-.25" style="fill:#554647; stroke-width:0px;"/><path d="m275.68,137.61c-.34,10.38-2.28,8.07,2.04,8.66,1.75.24,5.39.02,6.62,1.27,3.29,8.92,9.95,16.27,16.82,22.68.37,1.88,6.56,13.42,9.17,27.77.34,1.9-.53,2.18-.51,2.29-12.47,3.64-2.39-2.79-9.68-.76q2.29-4.33,4.59-8.66c-5.5-14.58-5.8-6.91-7.64-8.66-.93-.88-7.4-21-9.17-23.95l-.76-.76c-1.67,1.06-12.03,8.44-12.48,3.82-.07-.68,9.3-7.57,10.19-9.17-3.28-1.26-6.83,1.36-9.94.76-1.3-.25-20.12-10.66-23.7-11.98,1.88-.76,11.45,1.58,11.98,1.27.7-.41-4.05-2.07,6.37-4.33-6.87-.2-16.39-1.74-8.66-2.55-8.85-2.95-3.91-2.02,1.53-2.04q-4.33-1.53-8.66-3.06c.82-4.21,1.61-2.84,6.11-2.04-2.73-3.54-4.95-7.82-9.17-9.94.84-.95,1.73-2.28,1.53-3.57,20.44,3.81,11.97,17.18,21.66,19.36.68,1.05,1.18,2.53,1.78,3.57" style="fill:#da5274; stroke-width:0px;"/><path d="m277.72,146.27c-4.32-.59-2.38,1.72-2.04-8.66.44.75,2.88.87,2.04,8.66" style="fill:#f9a1a0; stroke-width:0px;"/><path d="m314.92,221.18c-3.72,2.75-10.94,8.94-5.1-.25-1.9,1.99-2.22-4.32-2.04-5.1.18-.77,2.46-2.63,2.55-2.8,1.53,2.68,3.17,5.41,4.59,8.15" style="fill:#da5274; stroke-width:0px;"/><path d="m250.71,118.25c4.22,2.12,6.44,6.4,9.17,9.94-4.5-.8-5.29-2.17-6.11,2.04q4.33,1.53,8.66,3.06c-5.44.02-10.38-.91-1.53,2.04-7.73.81,1.79,2.35,8.66,2.55-10.42,2.26-5.67,3.92-6.37,4.33-.52.3-10.1-2.04-11.98-1.27,3.58,1.31,22.39,11.72,23.7,11.98,3.1.6,6.65-2.02,9.94-.76-.89,1.6-10.26,8.49-10.19,9.17.46,4.61,10.82-2.76,12.48-3.82l.76.76c1.77,2.95,8.24,23.07,9.17,23.95,1.84,1.75,2.14-5.92,7.64,8.66q-2.29,4.33-4.59,8.66c7.3-2.02-2.79,4.41,9.68.76.05.36.37.46.51,1.53-9.61,5.75-1.75,3.91-1.53,4.33.3.56-5.52,5.69,3.06,3.31.45,2.07-.86,2.27-1.53,3.57-.09.17-2.37,2.04-2.55,2.8-.18.77.14,7.09,2.04,5.1-5.84,9.19,1.38,3,5.1.25.06.11,1.17,1.2,1.53,2.04q-3.06,2.68-6.11,5.35c10.41-2.56,2.47.39,3.06,2.04.51,1.42,3.45.3,4.08,1.02,1.08,1.24-5.7,7.05-.25,3.31.68.24.86,8.97,2.8,10.45-1.05,5.59.92,7.4,1.53,10.45.19.94,1.84,3.73,2.04,4.84.34,1.88-.52,2.18-.51,2.29-5.9-10.63-2.35,4.18.51,7.13.19,2.84,2.43,13.97,2.04,15.03-.28.76-1.16-1.62-2.04,0-.5,9.14-2.48,9.17-2.55,9.68-.25,1.88,2.32,15.05-4.33,24.71-.37-18.27-5.51-16.57-4.33-8.92.04.27,3.78,4.23-1.27,2.29-2.53-.97-1.28-14.73,1.27-17.07-.15-13.74-3.96-15.34-6.11-21.91-2.13-6.49-3.66-15.58-4.08-16.31-.95-1.64-5.81-.19-4.59-15.29-2.74-2.11-3.99-13.31-5.1-11.72-4.25,12.83-.51,8.9,1.02,15.29,4.57,19.11,8.49,89.56,8.66,112.36.03,3.77.84,21.59.51,22.68-.13.43-5.92,6.36-6.37,6.37-2.2.04-1.04-7.76-1.27-14.27-1.2-32.91-.85-65.85-4.08-98.6-2.02,14.88,1.5,30.01.51,44.84-.81,12.15-.83,1.06-1.53-3.57-.3,11.04-.32,22.13-3.06,32.87-5.65,8.16,1.57,18.09-2.04,22.17,2.56,8.47-1.48,10.56-2.04,13.76-1.62,9.31-2.53,18.78-4.59,28.03,3.29,6.76,7.38,5.04-.51,9.94-.68-1.36-3.99,7.9-4.08,8.41-.4,2.29,1.82,6.32-1.53,12.74-8.49,4.57-5.33.3-5.61,0-2.16-2.36-2.65,1.61-2.55-4.84.04-2.66.15-15.07-.51-16.56-.61-1.39-3.02-.33-3.57-1.02-.73-.92,4.82-2.28-.51-3.06q2.29-3.06,4.59-6.12c1.93-4.35-3.19-30.15-3.57-37.2-.17-3.22,3.15-8.81-2.04-9.17,2.62-1.26,1.91-7.37,0-9.68-.1-3.19,2.1-5.37,0-13.76-5.85.01-1.6,2.02-2.55,7.64-.57,3.35-3.57,1-3.06,13.76.02.47,1.53,1.91,1.53,2.04.12,8.91-4.94,39.44-4.08,49.43.08.93,3.42,1.85,1.02,8.41-.03.08-.82-.29-1.53.76,1.07,2.21-.59,13.21-1.78,14.01-.17.12-3.87,1.05-4.08,1.02-2.97-.48-1.95-6.5-4.33-6.11-.67-8.89-5.01-12.29-5.1-12.99-.17-1.5,1.95-.37,2.04-3.57.06-1.98-4.57-34.59-7.64-38.73,1.01-8.35,3.9-25.01.51-31.59.14-2.5,1.06-7.24.51-9.43-.32-1.28-5.05-3.08-5.1-25.22-7.57-3.72-.04-15.2-6.12-23.44q1.02-5.86,2.04-11.72c-6.73,9.95-2-1.86-2.04-10.7,2.97-10.97,3.57-16.04-1.53-2.55-8.36,1.83-5.01,24.89-9.68,30.07-.25,1.02,4.65,13.8,2.55,20.64-2.2,7.15-3.74-3.97-3.82-8.15-6.76,2.47-.28,16.38,1.27,21.91-1.64.23-3.11-1.75-4.08-2.8-11.57-12.53-5.18-19.58-9.17-24.97,2.5-6.46-2.7-10.81.51-14.27-3.52-6.36,4.08-5.82-1.53-13.76,3.07-4.84,3.61-14.92,1.53-20.38,4.08-1.79,1.37-10.47,1.53-11.72,2.37-18.99,6.15-15.94,6.62-16.82,2.28-4.19,1.19-26.37.51-32.36.34,0,.92-.13,1.02.25,1.25,4.91.07,6.18,3.06-7.39.64-2.92,1.98-5.63,2.04-8.66,4.85-5.9,9.97-11,16.31-15.29q1.78-5.22,3.57-10.45c-2.3-4.25,5.79-15.34,10.19-16.82.13-.99-.26-1.88-.51-2.8.71.19,4.4-.87,4.59-1.02,1.18-.95,2.37-6.16,4.08-8.41,1.83-2.4,2.94-1.65,3.06-1.78" style="fill:#324; stroke-width:0px;"/><path d="m295.05,373.04c-3.85-2.26-5.1-20.22-5.1-26.24-1.58-.98-2.22.58-3.06,1.78,2.74-10.73,2.76-21.83,3.06-32.87.7,4.63.72,15.72,1.53,3.57.99-14.83-2.53-29.97-.51-44.84,3.23,32.75,2.88,65.7,4.08,98.6" style="fill:#f9a1a0; stroke-width:0px;"/><path d="m321.55,255.83c-.61-3.05-2.58-4.86-1.53-10.45-1.94-1.47-2.12-10.21-2.8-10.45-5.45,3.74,1.34-2.07.25-3.31-.63-.72-3.57.4-4.08-1.02-.59-1.65,7.36-4.6-3.06-2.04q3.06-2.68,6.11-5.35c1.05,2.43,1.7,4.9,2.55,7.39-.2,5.26,2.54,12.77,3.06,17.33.05.44.15,9.06-.51,7.9" style="fill:#b64972; stroke-width:0px;"/><path d="m224.98,233.41c3.87,2.66-.02,14.26-2.29,16.56-4.81,4.87.61-9.1,1.02-10.7.33-1.32-.82-3.31,1.27-5.86" style="fill:#f6b7b2; stroke-width:0px;"/><path d="m284.6,170.73c.82.26.99,2.2.76,2.8-.71,1.88-16.42,5.15-19.36,1.53q5.22-.13,10.45-.25c.65-.85,7.7-4.22,8.15-4.08" style="fill:#da5274; stroke-width:0px;"/><path d="m311.86,209.46c-8.58,2.37-2.76-2.75-3.06-3.31-.23-.42-8.08,1.42,1.53-4.33.32,2.54,1.47,5.04,1.53,7.64" style="fill:#da5274; stroke-width:0px;"/><path d="m323.07,262.97c.23,2.36.79,4.77.51,7.13-2.86-2.96-6.41-17.77-.51-7.13" style="fill:#e68e91; stroke-width:0px;"/><path d="m229.82,336.86c.55,2.18-.37,6.93-.51,9.43,3.39,6.59.5,23.25-.51,31.59,3.08,4.14,7.7,36.75,7.64,38.73-.09,3.19-2.21,2.06-2.04,3.57.08.7,4.43,4.1,5.1,12.99,1.64,21.87-16.65,16.55-17.84,20.13-.51,1.55,5.36,3.14,4.33,4.84-10.76,7.76-12.03-2.85-20.38,3.06-6.05.93-8.47-4.09-13.25-1.53-2.37-.63-13.01-26.21-15.03-30.32-2.4-4.88-11.14-18.17-12.23-21.66-2.54-8.12,1.35-10.86,3.06-18.34-2.64-10.07-4.75-20.59-6.88-30.58,7.85,11.69,11.18,25.58,16.56,38.47,11.78,28.25,9.87,23.75,7.13,0-3.77-6.42-5.95-13.57-8.15-20.64,1.7-6.39.9-13.69,4.33-19.36-.77,12.73,3.66,22.87,4.59,35.16.3.1,1.56-3.78,5.1-3.06,1.94-18.05,4.75-9.78,7.64-9.68,2.9.1,4.22-17.72,6.11-20.89.28,23.76.29,32.21,3.82,3.31,5.32-.55,2.73-11.02,5.1-23.44.54-2.82,3.97-14.11,5.1-16.82,6.38-15.37-.21,13-.51,17.84-.12,1.9,1.16,29.05,3.06,28.03,8.95-11.14,4.34-26.03,6.11-28.54.78-1.11,1.85,1.83,2.55-2.29" style="fill:#fad0b9; stroke-width:0px;"/><path d="m125.36,192.65c.12,4.96-.03,9.83,0,14.78.03,4.7.5,9.32-1.02,14.01,1.69,2.42,9.19,20.24,9.17,21.4-.01.95-1.64,1.77-1.53,3.57.09,1.43,8.65,16.29,9.17,27.01-5.42-12.69-9.55-25.76-16.05-37.96-1.34,4.56-.88,12.12.25,16.56-3.5,2.15-.83,5.09-3.06,6.37-4.1-28.08-16.85-26.58-17.33-28.28,2.04-4.07-1.08-7.08-2.04-11.72-1.62-7.88-3.36-25.98-1.02-21.4.06.75-.09,1.55,0,2.29.75,6.46.01,11.75,3.06,17.84,3.41,6.81,2.58.33,6.11,3.82.35.34,3.38,7.5,4.08,8.92,1.06,2.17,2.08,4.42,3.06,6.62.12.28,2.37,7.31,2.55,4.33.1-1.65-6.85-24.99-6.62-30.57-5.81-4.9-2.78-8.39-3.06-13.25-1.09-1.44-1.53-10.67-.76-10.45,2.02,1.75,3.21,13.41,4.33,6.62,6.88.54,1.78,23.54,7.9,34.65-1.03-10.46,1.14-20.48,1.78-30.83.71-11.44.44-28.5,1.02-4.33" style="fill:#da5274; stroke-width:0px;"/><path d="m125.87,275.2c1.18,1.9,8.52,13.2,8.66,14.01.6,3.36-3.6,3.88,3.06,12.74q-.76,6.24-1.53,12.48c-1.57-4.06-2.93-15.96-4.59-21.66-.07-.26-1.33-.35-1.53-1.02-1.86-6.31-4.1-12.9-5.35-19.11.95.65.64,1.51,1.27,2.55" style="fill:#da5274; stroke-width:0px;"/><path d="m238.99,129.46c.25.92.64,1.81.51,2.8-4.4,1.48-12.49,12.56-10.19,16.82q-1.78,5.22-3.57,10.45c-2.49-5.48-4.04-12.94-1.53-19.11-3.59-11.32-7.36-22.94-9.68-34.65-6.49-32.81-4.77-33.2,5.61-2.04,19.37,34.28,11.3,25.16,4.84-4.84,2.41,9.14,13.54,28.81,14.01,30.57" style="fill:#f9a1a0; stroke-width:0px;"/><path d="m395.94,255.83c.62,5.16-1.03,1.63-1.53,2.8-1.05,2.48-1.38,7.37-2.55,10.19-1.46,3.53-4.88,9.53-7.13,14.52-2.69-28.37-4.57-56.86-4.59-85.35,2.57,8.04,4.05,23.47,5.61,29.56.96,3.76,1.19-3.11,2.55-2.04,2,1.49,7.15,26.28,7.64,30.32" style="fill:#f9a1a0; stroke-width:0px;"/><path d="m382.7,54.04c-1.49,4.66.29,26.99-.51,28.79-.5,1.13-3.58,1.13-4.08,0-.68-1.53.51-28.64,0-33.38,1.63.45,3.17,3.14,4.59,4.59" style="fill:#3a3448; stroke-width:0px;"/><path d="m377.09,47.41c-.16-.29-3.95-3.76-4.59-4.84,1.58-10.72-2.35-20.56,4.08-30.32,1.51,7.91-.09,25.72.51,35.16" style="fill:#3a3448; stroke-width:0px;"/><path d="m364.86,50.98c-.03,4.49.67,31.85,0,33.38-.36.81-2.42,1.05-2.8.76-1.36-1.03.51-30.06-.25-34.14.99.12,2.06-.08,3.06,0" style="fill:#3a3448; stroke-width:0px;"/><path d="m389.83,296.09q-.51-1.27-1.02-2.55c.13-.09-.29-1,1.78-2.55,13.58-10.14,3.31.59-.76,5.1" style="fill:#e68e91; stroke-width:0px;"/><path d="m326.64.02c3.57,2.99,8.59,8.56,12.74,7.9q.25,11.98.51,23.95-2.93-4.97-5.86-9.94c-1.82,7.04,3.51,16.34,4.33,20.13,1.77,8.19-.09,22.93,3.57,7.64,3.61-15.11,1.83-33.45,1.53-49.68,1.19,0,2.38,0,3.57,0q1.91,8.66,3.82,17.33.38-8.66.76-17.33c1.87,0,3.74,0,5.61,0q.51,24.84,1.02,49.68c.25.59,2.91,1.19,3.57,1.27.77,4.08-1.11,33.11.25,34.14.38.29,2.45.05,2.8-.76.67-1.53-.03-28.89,0-33.38.07-12.48-.05-24.97,0-37.45.81-2.09,5.38,3.4,6.11,2.04q.38-5.22.76-10.45c3.46,3.41,3.59.58,4.84,7.13-6.42,9.76-2.5,19.6-4.08,30.32.64,1.08,4.43,4.55,4.59,4.84.39.72,1.15,1.1,1.02,2.04.51,4.74-.68,31.85,0,33.38.5,1.13,3.58,1.13,4.08,0,.8-1.81-.98-24.13.51-28.79,5.94,6.07,1.43,1.15,3.57-12.99.12,7.11,2.54,22.97,1.53,28.54-.45,2.47-3.64,4.96-3.06,7.64.47,2.15,3.02,1.65,3.57,2.55,1.5,2.44.48,23.29,1.02,25.48.38,1.52,3.56,3.42,4.08,5.1.39,1.26-.08,5.53,0,7.39.08,1.94-.66,4.6-.51,6.88.58,8.97,2.2,18,2.55,27.01,1.24,31.79-.51,28.51-5.1,0,.63,16.65,3.13,33.64,4.08,50.45.68,12-.43,29.59,0,31.08.08.29,3.91,3.96,4.08,4.59.71,2.69-1.23,10.95-1.02,16.56q-.76.76-1.53,1.53c-.49-4.04-5.65-28.83-7.64-30.32-1.35-1.07-1.59,5.79-2.55,2.04-1.55-6.08-3.04-21.51-5.61-29.56.02,28.5,1.9,56.98,4.59,85.35-4.21,9.32-12.53,21.78,4.08,10.19q.51,1.27,1.02,2.55c-6.15,6.8-11.96,13.79-18.35,20.38-9.09-72.69-28.69-143.42-39.75-215.81h-1.02q11.98,65.74,23.95,131.47c2.82,30.58,6.15,61.03,10.19,91.47-.44.63-.53,1.24-1.53,1.02l-1.53-17.07q-1.78,12.1-3.57,24.2c-1.21-1.79-5.29-34.16-7.64-39.49-2.58-16.07-4.02-39.3-7.13-54.02-2.37-11.23-7.82-21.4-10.19-32.61-14.68-11.74-15.49-20.78-16.31-21.91-.94-1.3-4.39-1.68-5.1-2.55-.88-1.09-7.49-22.49-11.72-24.97.97,4.43.17,9.67,1.02,14.01-6.87-6.41-13.52-13.76-16.82-22.68-1.24-1.25-4.88-1.03-6.62-1.27.84-7.79-1.6-7.91-2.04-8.66-.61-1.04-1.1-2.52-1.78-3.57-9.69-2.18-1.22-15.55-21.66-19.36-.16-1.04-7.26-16.64-8.66-19.11-.66,4.2,3.1,21.29,3.06,22.42-.04,1.07-.48.84-1.02,0-1.19-1.87-3.14-7.38-5.1-9.68q1.53,10.06,3.06,20.13c-.18.15-3.88,1.21-4.59,1.02-.47-1.77-11.6-21.43-14.01-30.58,6.46,30,14.53,39.12-4.84,4.84-10.37-31.16-12.1-30.77-5.61,2.04,2.32,11.71,6.09,23.33,9.68,34.65-2.51,6.17-.96,13.63,1.53,19.11-6.34,4.29-11.45,9.39-16.31,15.29-5.44-21.26-8.83-46.79-14.78-67.52-3.77-13.14-10.01-25.3-14.27-38.22-3.14-9.51-4.85-19.57-8.15-29.05,1.88,26.93,9.83,37.77,15.8,55.54,9.56,28.47,14.76,58.3,19.36,87.9-2.99,13.57-1.8,12.3-3.06,7.39-.1-.38-.67-.26-1.02-.25-.37-3.24-.87-8.54-1.53-11.47-2.8-12.45-1.5.8-3.06,13.25-.76,6.08-2.5,12.17-3.06,18.34-.56,6.26.02,17.32-1.02,12.74-1.44-6.38,3.98-30.98,2.55-40.77h-1.02c-2.46,17.44.28,9.88-4.59-4.08-3.71-10.64-15-28.85-18.34-47.39-11.26-14.59-14.52-32.92-19.36-50.19.22-3.85-1.17-8.64,4.59-7.64,2.96,9.12,13.54,32.14,18.34,44.59,6.87,17.81,9.8,37.67,22.93,52.49-12.6-20.95-19.55-65.09-24.97-77.97-1.28-3.05-5.33-7.8-6.11-9.68-.64-1.55-2.33-9.6-3.57-13.76-1.2-4.02-4.81-6.19-4.59-19.62,8.74-15.62,13.24-13.3,0-14.78-2.2-2.32-2.59-7.39-3.57-9.68q2.17-10.45,4.33-20.89c4.28,7.37,4.91,16.13,7.39,24.2V.02C221.33,0,273.99,0,326.64.02" style="fill:#554d60; stroke-width:0px;"/><path d="m158.48,73.4c-1.95-5.99-4.11-11.25-2.04-17.58.73-2.23,2.99-4.43,4.08-6.37-.22,13.43,3.38,15.59,4.59,19.62,1.24,4.16,2.92,12.21,3.57,13.76.78,1.89,4.83,6.63,6.11,9.68,5.42,12.88,12.37,57.01,24.97,77.97-13.13-14.82-16.06-34.68-22.93-52.49-4.81-12.45-15.38-35.47-18.34-44.59" style="fill:#f9a1a0; stroke-width:0px;"/><path d="m371.48,316.47c-1.53,1.57-3.1,2.92-4.59,4.59-1,1.12-1.14,1.25-2.04,2.55-4.04-30.44-7.37-60.89-10.19-91.47q-11.98-65.74-23.95-131.47h1.02c11.06,72.39,30.66,143.11,39.75,215.81" style="fill:#f9a1a0; stroke-width:0px;"/><path d="m209.44,174.81c-.06,3.04-1.4,5.74-2.04,8.66-4.61-29.61-9.81-59.43-19.36-87.9-5.96-17.77-13.91-28.61-15.8-55.54,3.3,9.47,5.02,19.54,8.15,29.05,4.26,12.92,10.5,25.08,14.27,38.22,5.94,20.73,9.34,46.26,14.78,67.52" style="fill:#e68e91; stroke-width:0px;"/><path d="m252.24,114.68c.2,1.29-.69,2.61-1.53,3.57-.12.13-1.23-.62-3.06,1.78-1.71,2.24-2.9,7.45-4.08,8.41q-1.53-10.06-3.06-20.13c1.96,2.3,3.91,7.81,5.1,9.68.54.84.98,1.07,1.02,0,.04-1.13-3.71-18.23-3.06-22.42,1.4,2.47,8.5,18.07,8.66,19.11" style="fill:#e68e91; stroke-width:0px;"/><path d="m362.57,188.57c.42-.21,1.09.45,1.27.76,1.13,1.92,6.31,38.46,6.88,44.08-1.56-6.24-4.69-7.94-4.84-8.41-.57-1.74-2.48-30.84-3.31-36.43" style="fill:#e68e91; stroke-width:0px;"/><path d="m363.33,324.63c-.46,2.34-2.78,5.95-4.08,8.15-.31-.06-.86-.78-1.02-1.02q1.78-12.1,3.57-24.21l1.53,17.07Z" style="fill:#f9a1a0; stroke-width:0px;"/><path d="m340.65,63.21c.26,3.7,1.55,27.59.76,28.79-.22.34-1.62.38-1.78.25-1.15-.89.09-25.69,1.02-29.05" style="fill:#3a3448; stroke-width:0px;"/><path d="m230.08,70.86c.41-.32,1.4.17,1.78.76.71,1.08,5.39,21.78,5.86,25.22-1.26-2.9-8.73-25.15-7.64-25.99" style="fill:#f9a1a0; stroke-width:0px;"/><path d="m211.22,67.29l5.61,18.34c-2.53-5.44-5.11-12.36-5.61-18.34" style="fill:#d09597; stroke-width:0px;"/><path d="m483.85,130.48c2.4,6.04-.91,14.24,4.84,18.6-3.97,20.49-5.19-11.11-4.84-18.6" style="fill:#da5274; stroke-width:0px;"/><path d="m429.32,230.86c2.6.28-6.91,11.81-8.66,12.74.62-1.74,7.9-12.82,8.66-12.74" style="fill:#c26380; stroke-width:0px;"/><path d="m509.84,130.48c.53-.23,1.12,4.5.76,5.35-.41.98-1.67-2.34-.76-5.35" style="fill:#be626d; stroke-width:0px;"/><path d="m209.95,313.93c4.84-1.14.63,13.31-2.55,13.76-1.56-5.54-8.04-19.45-1.27-21.91.08,4.18,1.62,15.3,3.82,8.15" style="fill:#f9a1a0; stroke-width:0px;"/><path d="m203.32,190.61c.68,5.99,1.77,28.17-.51,32.36-.48.88-4.25-2.17-6.62,16.82-.16,1.25,2.55,9.93-1.53,11.72,2.09,5.47,1.54,15.55-1.53,20.38,5.61,7.94-1.99,7.4,1.53,13.76-3.21,3.46,1.99,7.81-.51,14.27,4,5.39-2.4,12.44,9.17,24.97.97,1.05,2.43,3.04,4.08,2.8,3.18-.45,7.39-14.9,2.55-13.76,2.11-6.84-2.8-19.62-2.55-20.64,4.67-5.17,1.32-28.24,9.68-30.07,5.1-13.49,4.5-8.42,1.53,2.55.04,8.84-4.7,20.65,2.04,10.7q-1.02,5.86-2.04,11.72c6.08,8.24-1.46,19.72,6.11,23.44.04,22.15,4.78,23.95,5.1,25.22-.7,4.12-1.76,1.19-2.55,2.29-1.78,2.51,2.83,17.39-6.11,28.54-1.89,1.02-3.17-26.12-3.06-28.03.3-4.84,6.89-33.2.51-17.84-1.12,2.71-4.56,13.99-5.1,16.82-2.37,12.42.23,22.89-5.1,23.44-3.53,28.9-3.54,20.45-3.82-3.31-1.89,3.17-3.22,20.99-6.11,20.89-2.9-.1-5.7-8.37-7.64,9.68-3.53-.72-4.79,3.16-5.1,3.06-.92-12.29-5.36-22.43-4.59-35.16-3.43,5.67-2.63,12.97-4.33,19.36-7.01-22.47-14.06-44.57-21.91-66.75-1.98-5.59-2.55-11.61-7.13-15.54.12-1.63-.14-3.27-.51-4.84-4.08-17.57-5.57-35.68-9.68-53.25-.45-18.45-.19-11.43,9.68,4.08,2.26,5.43-5.6-4.13-4.08,4.08.3,1.59,14.59,23.41,15.29,28.54,6.03-4.34-3.32-20.74-4.59-29.05-7.48-8.06-15.96-33.32-18.34-36.18-.27-.32-1.58-1.9-2.04-1.02q.51,13.25,1.02,26.5c-.1-1.05-1.19-2.04-1.53-2.8-2.64-12.11-6.76-24.25-6.62-36.94,0-.5,1.53-.86,1.53-1.02-.05-12.57-.76-25.15-.51-37.71.12-5.9,1.9-12.42,2.04-18.34.13-5.28-1.71-7.6-1.53-10.19.39-5.45,2.11-2.61,2.29-2.8,5.68-5.94,1.07-8.86,5.86-10.45.08-9.45,2.19-3.02,2.55,1.78.59,7.98-1.47,31.42-.51,43.06.73,2.98,8.65,3.13,1.53,7.64.59,24.59,3.1,36.32,4.59,5.61.45-9.34-.44-18.7-.51-28.03,0-.34,1.08-3.86,1.02-6.62,0-.15-1.52-2.4-1.53-2.55-.29-10.2,1.18-18.25-1.02-28.79-1.44-6.9,1.47,1.1,5.86,8.15,2.25-4.26,5.73-6.45,5.86-6.88.5-1.61-.29-20.19,0-25.22,4.84,17.28,8.1,35.61,19.36,50.19,3.34,18.54,14.63,36.75,18.35,47.39,4.87,13.96,2.13,21.52,4.59,4.08h1.02c1.43,9.79-3.99,34.39-2.55,40.77,1.04,4.58.46-6.48,1.02-12.74.55-6.17,2.3-12.26,3.06-18.34,1.55-12.45.25-25.7,3.06-13.25.66,2.93,1.16,8.22,1.53,11.47" style="fill:#f9a1a0; stroke-width:0px;"/><path d="m162.3,274.69c5.91,8.16,2.77,20.02.25,4.84-.25-1.5-.64-3.31-.25-4.84" style="fill:#3a3448; stroke-width:0px;"/><path d="m200.52,183.47c1.16-.58.85,17.93.76,20.13-.37,9.85-1.01-9.71-1.02-19.87q.13-.13.25-.25" style="fill:#854852; stroke-width:0px;"/><path d="m171.98,189.59c.88,13.31-1.95,13.74-.25.25q.13-.13.25-.25" style="fill:#653d46; stroke-width:0px;"/><path d="m153.13,195.7c5.96-.73-3.35,4.4-2.29,1.27.04-.12,2.16-1.26,2.29-1.27" style="fill:#312533; stroke-width:0px;"/><path d="m186.25,290.99c.63-.04,1.5.81,1.78,1.27,2.91,4.74-5.57-1.04-1.78-1.27" style="fill:#2e2d35; stroke-width:0px;"/><path d="m169.95,206.4c1.68-.04.59,4.4-.51,3.57-.82-.63.2-3.56.51-3.57" style="fill:#231e21; stroke-width:0px;"/><path d="m165.87,224.24c.69-.18,2.84.87,2.8,1.27-.16,1.74-5.39-.59-2.8-1.27" style="fill:#212427; stroke-width:0px;"/><path d="m161.79,297.11c5.59.7.4,2.3,0,2.04-.42-.27-.41-1.73,0-2.04" style="fill:#351c26; stroke-width:0px;"/><path d="m169.44,174.81c3.46-1.14,1.03,2.84-.51,2.04-.67-.35-.13-1.83.51-2.04" style="fill:#212427; stroke-width:0px;"/><path d="m149.56,183.98c.5-.12,1.24.55,1.27.76.73,4.34-4.49.03-1.27-.76" style="fill:#181c28; stroke-width:0px;"/><path d="m172.49,157.99c3.49-1.52.28,3.06-.51,2.55-.62-.4-.31-2.19.51-2.55" style="fill:#502e2e; stroke-width:0px;"/><path d="m161.79,171.24q2.17.64,4.33,1.27c-.28,1.06-4.1.06-4.33-1.27" style="fill:#502e2e; stroke-width:0px;"/><path d="m168.42,192.14c.46,0,.12.9.25,1.27,1.66,4.79-1.58,4.65-.25-1.27" style="fill:#854852; stroke-width:0px;"/><path d="m169.95,199.78c.12,0,.51,1.84.51,2.04-.02,3.37-1.56-2.04-.51-2.04" style="fill:#854852; stroke-width:0px;"/><path d="m172.49,152.39c.27,0,.44,2.89.25,3.31-.53,1.21-.81-3.31-.25-3.31" style="fill:#904747; stroke-width:0px;"/><path d="m167.91,186.53c.39,0,.39,2.04,0,2.04s-.39-2.04,0-2.04" style="fill:#502e2e; stroke-width:0px;"/><path d="m295.05,373.04c.24,6.51-.93,14.3,1.27,14.27.45,0,6.24-5.94,6.37-6.37.33-1.09-.48-18.9-.51-22.68q3.95,6.37,7.9,12.74c2.05-4.61,5.4-11.52,6.88-16.05.93-2.85.92-6.31,1.02-6.62,1.29-3.99,1.34,16.43,1.02,17.33-.58,1.61-2.42-.4-3.06.51-1.16,1.67,3.31,31.19,4.84,30.83.71-1.62,4.85-11.64,5.61-11.72,1.17-.12,1.95,5.65,3.06-3.06,10.16,11.42,4.87,7.58,6.62-6.11,8.48,7.88,4.34,4.58,5.35-9.43,1.38-19.23,2.97,9.72,4.59,18.34,4.4,23.53,6.49,9.99,9.43,10.45,1.04.16.98,3.32,2.29,3.57-.86,2.32-1.27,5.02-2.04,7.39l-24.97,45.1c-2.49,3.75-5.72,6.83-8.66,10.19l-10.96-3.57c-12.77,3.51-24.49-4.46-36.69-7.13,1.41-10.36-1.35-18.8,3.31-28.54,7.89-4.9,3.8-3.18.51-9.94,2.06-9.25,2.97-18.71,4.59-28.03.56-3.2,4.6-5.29,2.04-13.76,3.6-4.08-3.61-14.01,2.04-22.17.83-1.2,1.48-2.76,3.06-1.78,0,6.02,1.24,23.99,5.1,26.24" style="fill:#fad0b9; stroke-width:0px;"/><path d="m332.76,423.49c1.36-.63,2.94-1.04,4.08-2.04,0,.05.66-.14.51.76-9.21,10.66-12.02,18.8-25.22,26.24-2.03-1.04,12.39-15.88,13.5-21.66,2.4-1.05,4.75-2.22,7.13-3.31" style="fill:#232035; stroke-width:0px;"/><path d="m336.83,421.45c-1.13.99-2.72,1.41-4.08,2.04.08-2.97-3.63-25.25.25-23.44.99.46,3.76,20.31,3.82,21.4" style="fill:#f9a1a0; stroke-width:0px;"/><path d="m132.49,277.75c-2.84-4.23-7.34-13.49-7.13-18.34,2.49,7.17,11.4,24.71,7.13,18.34" style="fill:#b64972; stroke-width:0px;"/><path d="m147.27,289.47c.37,1.57.63,3.21.51,4.84,4.59,3.94,5.15,9.95,7.13,15.54l.51,6.88c-.62-1.75-5.45-10.59-5.61-11.21-.14-.55,1.08-3.54.51-5.1-.52-1.4-3.38-1.32-4.08-2.55-1-1.75-6.11-32.55,1.02-8.41" style="fill:#b64972; stroke-width:0px;"/><path d="m155.17,331.76c.73,1.03,3.02,12.22,2.04,12.23q-1.02-6.11-2.04-12.23" style="fill:#a95c74; stroke-width:0px;"/><path d="m388.81,321.57q-.76,9.43-1.53,18.85c-2.12,4.32-4.2,8.58-6.62,12.74-8.05-1.25-5.64-12.85-9.17-19.36,1.31-1.91,3.09-3.81,4.59-5.61,11.88-14.2,5.38-5.92,12.74-6.62" style="fill:#624e67; stroke-width:0px;"/><path d="m380.66,353.16c-3.11,5.34-7.61,13.05-11.21,17.84q-1.27-15.41-2.55-30.83c1.61-2.06,3.11-4.21,4.59-6.37,3.53,6.52,1.12,18.12,9.17,19.36" style="fill:#f9a1a0; stroke-width:0px;"/><path d="m387.28,340.42q.76-9.43,1.53-18.85c1.16-.11,2.46-1.27,3.31-2.04,2.44,12.89-1.46,14.01-4.84,20.89" style="fill:#ec7c8d; stroke-width:0px;"/><path d="m407.16,250.74c-.07-.1-1.68.44-2.04-1.27-.07-.36.27-2.38,0-7.39,7.17-2.11,1.76,5.05,2.04,8.66" style="fill:#232035; stroke-width:0px;"/><path d="m263.96,438.77c-2.37,2.45.65,6.16-3.06,9.94,3.92,10.56-2.11,2.65-2.8,2.29-1.93-.99-4.37.67-5.35-.76-1.84-2.7-3.04-22.33-1.53-26.75,2.4-6.56-.94-7.47-1.02-8.41-.86-9.99,4.2-40.52,4.08-49.43,0-.13-1.51-1.56-1.53-2.04-.51-12.75,2.49-10.41,3.06-13.76.95-5.63-3.3-7.63,2.55-7.64,2.1,8.39-.1,10.56,0,13.76,1.91,2.31,2.62,8.42,0,9.68,5.18.36,1.87,5.95,2.04,9.17.37,7.05,5.5,32.85,3.57,37.2q-2.29,3.06-4.59,6.11c5.33.78-.22,2.14.51,3.06.54.69,2.96-.37,3.57,1.02.66,1.5.55,13.9.51,16.56" style="fill:#fad0b9; stroke-width:0px;"/><path d="m256.57,365.39q.64.38,1.27.76c-1.47,5.86-.81,14.55-1.53,19.87-1.74,12.86-3.3-19.96.25-20.64" style="fill:#324; stroke-width:0px;"/><path d="m112.11,217.61c.2.38,2.03,6.61,2.55,8.15-1.36-1.39-5.01-6.92-2.55-8.15" style="fill:#da5274; stroke-width:0px;"/><path d="m358.24,331.76c.16.23.71.95,1.02,1.02-2.23,3.79-7.18,7.37-6.62,11.98.13,1.12,9.12,20.04,10.45,19.62,5.81-11.12-2.8-8.68-1.78-12.99q2.04-4.08,4.08-8.15l3.57,28.79c-.98,1.25-2.81.58-4.08,2.8-.62,1.1-2.99,12.96-7.13,24.21-1.32-.24-1.25-3.41-2.29-3.57-2.93-.45-5.03,13.08-9.43-10.45-1.61-8.63-3.2-37.57-4.59-18.34-1.01,14,3.13,17.31-5.35,9.43-1.76,13.69,3.54,17.53-6.62,6.11-1.1,8.71-1.89,2.94-3.06,3.06-.76.08-4.9,10.1-5.61,11.72-1.53.36-6-29.16-4.84-30.83.63-.91,2.48,1.1,3.06-.51.32-.89.27-21.31-1.02-17.33-.1.32-.09,3.78-1.02,6.62-1.48,4.53-4.83,11.44-6.88,16.05q-3.95-6.37-7.9-12.74c-.17-22.8-4.09-93.25-8.66-112.36-1.53-6.38-5.27-2.45-1.02-15.29,1.1-1.59,2.36,9.61,5.1,11.72-1.23,15.1,3.64,13.64,4.59,15.29.42.73,1.95,9.82,4.08,16.31,2.16,6.57,5.96,8.17,6.11,21.91-2.56,2.34-3.8,16.1-1.27,17.07,5.06,1.94,1.31-2.03,1.27-2.29-1.18-7.65,3.97-9.36,4.33,8.92,6.65-9.66,4.09-22.84,4.33-24.71.07-.51,2.05-.55,2.55-9.68.88-1.62,1.76.76,2.04,0,.39-1.06-1.85-12.2-2.04-15.03.28-2.36-.28-4.78-.51-7.13-.01-.12.85-.41.51-2.29-.2-1.11-1.85-3.9-2.04-4.84.66,1.16.56-7.46.51-7.9-.52-4.56-3.26-12.07-3.06-17.33-.85-2.49-1.5-4.96-2.55-7.39-.36-.84-1.47-1.92-1.53-2.04-1.41-2.74-3.05-5.47-4.59-8.15.67-1.3,1.98-1.5,1.53-3.57-.06-2.6-1.21-5.1-1.53-7.64-.14-1.07-.45-1.17-.51-1.53-.02-.12.85-.4.51-2.29-2.61-14.36-8.8-25.89-9.17-27.77-.85-4.34-.05-9.59-1.02-14.01,4.23,2.48,10.84,23.88,11.72,24.97.7.87,4.16,1.25,5.1,2.55.82,1.13,1.63,10.17,16.31,21.91,2.37,11.21,7.82,21.38,10.19,32.61,3.11,14.72,4.55,37.95,7.13,54.02,2.36,5.33,6.43,37.71,7.64,39.49" style="fill:#f9a1a0; stroke-width:0px;"/><path d="m348.3,328.7l1.78,7.9c.25,21.37-2-1.17-1.78-7.9" style="fill:#543944; stroke-width:0px;"/><path d="m315.18,318c3.2.44-3.1,6.98-3.57,6.62-1.93-1.47,3.17-6.68,3.57-6.62" style="fill:#3a3448; stroke-width:0px;"/><path d="m405.63,225.26c-.14,5.68-.82,11.1-.51,16.82.27,5.01-.07,7.03,0,7.39.35,1.72,1.97,1.17,2.04,1.27.06.09,1,.73,1.02,1.78-1.35,4.94-5.07,8.69-4.84,14.01-4.53-6.93-5.53-3.76-5.86-12.23-.22-5.61,1.73-13.87,1.02-16.56-.16-.62-3.99-4.29-4.08-4.59-.43-1.49.68-19.09,0-31.08-.95-16.81-3.45-33.8-4.08-50.45,4.59,28.51,6.34,31.79,5.1,0-.35-9.01-1.97-18.04-2.55-27.01-.15-2.28.59-4.94.51-6.88,1.19,5.69,7.5,16.43,8.15,18.6,1.98,6.59,4.82,30.45,2.55,37.71.02,12.08,1.26,22.56-1.02,34.65,4.8,5.09,2.7,10.26,2.55,16.56" style="fill:#f9a1a0; stroke-width:0px;"/><path d="m397.73,185c.05,4.29,2.45,8.94,2.04,9.17-2.95,1.66-2.55-7.73-2.04-9.17" style="fill:#ec7c8d; stroke-width:0px;"/></g></g></g></g></svg>