<?xml version="1.0" encoding="UTF-8"?><svg id="b" xmlns="http://www.w3.org/2000/svg" xmlns:xlink="http://www.w3.org/1999/xlink" viewBox="0 0 567.35 622.45"><defs><linearGradient id="e" x1="115.49" y1="515.15" x2="85.17" y2="537.76" gradientUnits="userSpaceOnUse"><stop offset="0" stop-color="#d8946e"/><stop offset="1" stop-color="#831b3c"/></linearGradient><linearGradient id="f" x1="74.58" y1="481.26" x2="55.82" y2="497.04" gradientUnits="userSpaceOnUse"><stop offset="0" stop-color="#a5464e"/><stop offset="1" stop-color="#7b1d3b"/></linearGradient></defs><g id="c"><g id="d"><path d="m538.54,260.84c.08,0,1.42,1.02.7,1.4-1.8.95-2.02-1.25-.7-1.4Z" style="fill:#82aab4; stroke-width:0px;"/><path d="m155.75,510.9q-23.46-13.83-46.93-27.67c18.84-10.63,38.18-35.97,4.2-41.68-.12-.02-1.1-1.35-2.1-1.4q9.98-7.7,19.96-15.41c13.73,5.23,20.04,2.13,32.57-3.85-5.59,21.68-3.28,49.23-4.2,60.94-.77,9.68-2.5,19.41-3.5,29.07Z" style="fill:#382a37; stroke-width:0px;"/><path d="m99.72,445.05c-.13,2.85,11.64-.21,14.01,0,24.16,2.15,6.34,24.9-11.91,36.42-3.67-4.16-8.36-7.06-12.61-10.51-4.07-3.3-8.34-4.34-9.11-7.35-1-3.92,1.63-11.45-.35-12.26-8.58-3.5-3.76,4.44-3.85,8.41h-.7c-4.69-13.78-2.99-8.21,17.86-9.11,2.35-6.07,5.58-4.93,6.65-5.6Z" style="fill:#382a37; stroke-width:0px;"/><path d="m483.21,506.69c4.41.71,6.35,12.06-3.85,26.27-13.11,18.25-25.22,14.39-26.62,8.41-1.46-6.28,28.15-35.04,30.47-34.67Z" style="fill:#382a37; stroke-width:0px;"/></g><path d="m386.2,406.53c10.49,6.88,22.33,23.13,41.33,16.11.34,1.8,1.77,2.37,2.8,3.5-14.19,8.08-30.02-2.06-30.82-.35,3.53,12.34,9,77.29,7.7,83.35-.24,1.11-2.39,2.49-3.5,3.15-2.64-19.35-5.45-38.74-7.7-58.14-1.47-12.59-1.93-25.32-4.2-37.82,4.12-3.29-2.52-4-10.51-12.61,2.16,1.1,2.82,1.44,4.9,2.8Z" style="fill:#43152f; stroke-width:0px;"/><path d="m43.68,496.19l7.7,8.06c-1.09.87-2.67.97-2.8,1.05-2.2,1.31-17.46,9.9-18.21,8.76,3.02-6.32,5.37-12.57,9.11-18.56-.37,1.9,4.42,3.45,4.2.7Z" style="fill:#382a37; stroke-width:0px;"/><path d="m7.26,512.3c4.68,5.17,11.07,8.39,18.21,7.7-1.08,5.13-2.35,10.54-.7,15.76-.67,3.31-20.96-4.69-20.31-25.92,1.25-1.28,1.44.95,2.8,2.45Z" style="fill:#382a37; stroke-width:0px;"/><path d="m396,552.92c-1.9,1.09-3.27.67-5.25.7-8.89,10.24-20.56,17.32-30.82,25.92-13.87,11.62-40.83,39.17-43.43,40.63-2,1.12-4.81,1.91-7,2.1-10.47.92-50.19-1.9-65.84-.7-23.15-25.35-51.06-45.32-76.7-67.94,7.27-1.14-.08-7.97,15.76.7,18.4,10.07,45.65,33.4,62.34,47.63,10.15-.35,20.35.78,30.47-.7.17-.03,1.55,2.03,3.5-.35-.22-5.64-1.99-44.31-.7-46.23.65-.96,2.85-.79,3.5-1.05.92-.37,1.97-1.16,2.8-1.4.36-.1.95.05,1.4,0-.79,5.01-1.56,4.14-4.9,7.35l.35,42.38h31.52c13.67-13.08,52.59-44.67,67.24-51.13,12.44-5.49,5.64,3.33,15.76,2.1Z" style="fill:#43152f; stroke-width:0px;"/><path d="m375.69,21.29c4.94,1.7,17.19,5.74,19.96,7,15.57,7.08,41.45,29.79,52.18,43.43,4.95,6.29,16.92,25.44,21.01,32.92,1.45,2.65,2.8,5.67,4.2,8.41,8.04,15.68,21.45,42.28,19.61,59.54-.11,1.06-.52,1.74-.7,2.8-.91,5.23-5.4,13.04-4.9,17.86,8.41,21.21,10.68,45.55,10.51,68.29-.02,2.1.08,4.21,0,6.3-.11,3.07-.47,6.05-.7,9.11-1.76-3.37,1.05-29.65-3.5-22.76-.48.73.85,4.73-.7,5.25-1.17-47.11-21.85-76.45-23.11-85.1-.2-1.35-.46-12.16,1.05-12.26,2.79,3.96,9.8,12.97,11.56,3.15,2.9-16.23-30.98-68.59-42.03-82.65-27.36-34.83-57.83-54.63-99.46-68.29-1.87-.61-3.64-1.51-5.6-2.1l1.4-2.1c13.03,3.15,26.57,6.84,39.22,11.21Z" style="fill:#4abaa7; stroke-width:0px;"/><path d="m58.39,258.74c.04,1.86-.11,3.75,0,5.6.7,11.6,2.59,17.99,4.9,28.72.67,3.1,1.35,6.03,2.1,9.11-2.94,2.1.15,8.59-2.8,11.91-1.29-6.1-2.83-12.13-4.2-18.21-.47-2.11-1.27-3.63-1.4-4.2-.03-.14.72.35,0-2.8-.48-2.1-.94-4.2-1.4-6.3-2.21-10.08.24-17.69-15.06-5.6-2.58,2.04-6.91,5.99-7.35,9.11-4.42-.56-5.34,3.92-5.6,4.2-.25.26-4.18,2.78-4.9,5.25-.16.56,2.54,11.33-1.75,1.75-5.07,7.59-5.68,9.51-5.95,18.21-1.41-1.12-3.33,2.96-3.5,3.85-1.61,8.56,7.09,46.37,10.51,56.04,1.48,4.2,7.43,16.52,9.81,21.01,3.6,6.82,28.99,44.58,33.27,47.28,4.45,2.81,17.02,1.88,22.06,0,5.6-2.09,8.36-4.23,7.7-10.86-.19-1.97-10.77-31.28-12.61-37.47,1.93-.98.94-2.72,4.2-2.1,1.8,5.55,14.07,41.89,17.86,42.73.25.06,2.23-1.06,3.15-2.1,3.09-3.5-.69-6.08-1.4-10.86,3.81-3.22,4.43-12.59,9.81-10.86,1.47,1.76,3.86,2.9,5.6,4.2,15.5,11.63,30.66,8.87,45.53-2.8l3.5,4.2c-4.75,31.28-11.24,62.22-12.61,93.86l-1.4.7c.07-.64-.77-.76-.7-1.4,1-9.66,2.74-19.39,3.5-29.07.93-11.71-1.39-39.26,4.2-60.94-12.53,5.98-18.84,9.08-32.57,3.85q-9.98,7.7-19.96,15.41c-8.3-.39-10.33,4.36-11.21,4.9-1.08.67-4.3-.47-6.65,5.6-20.85.89-22.56-4.68-17.86,9.11-2.88-2.53-6.14-4.59-9.11-7-4.13-3.36-7.82-7.15-11.91-10.51-1.19-.98-2.41-3.58-3.85-4.2-5.49-2.38-17.55,5.33-22.06,9.11l-2.1-1.4c.41-.34.89-.95,1.4-1.4,1.34-1.17,2.82-2.38,4.2-3.5.29-.24,4.67-1.74,6.3-4.2,1.95-2.93,1.98-6.63-.7-9.81-.09-1.14.17-2.43,0-3.5-.45-2.94-1.22-2.74-1.4-3.5-2.8-11.7-12.01-26.77-16.11-38.87-2.03-6-6.54-22.19-7.7-28.02-.02-.12,1.43-1.98,1.4-2.1-.23-1-3.92-4.87-1.4-5.6-3.8-.95-5.15-27.68-4.9-30.12.57-5.74,3.97-11.31,4.2-14.36,0-.23,0-.47,0-.7,14.65-4.42,11.34-9.49,11.91-10.16,3.25-3.78,8.27-6.08,11.21-13.66,21.39-18.85,18.29-4.15,18.21-22.41,0-.23,0-.47,0-.7,7.82-2.63,1.7,4.39,5.6,5.6Z" style="fill:#43152f; stroke-width:0px;"/><path d="m307.05,9.38c7.38,1.63,14.48,3.38,21.71,5.6,30.49,9.37,51.87,20.96,76.35,41.33l-1.4.7c-23.78-19.6-60.09-37.57-90.71-41.33-40.92-5.02-77.83-1.3-115.22,16.11-31.53,14.68-65.01,41.27-84.75,70.04-7.36,10.73-14.97,25.13-19.96,37.12-6.16-1.04,19.02-39.4,20.66-41.68,23.46-32.6,56.85-59.77,93.86-75.3,9.42-3.95,19.23-7.8,29.07-10.51,32.7-9,38.4-9.17,70.39-2.1Z" style="fill:#d3647b; stroke-width:0px;"/><path d="m54.19,166.98c3.42,2.19,4.77-1.68,5.6-4.2.08.15.96.63,1.75,2.8.58-1.85,1.24-3.74,1.75-5.6,2.94-6.86.42,9.39,1.4,15.06.82,4.75,6.85,9.43,5.6,14.71-5.44,24.65-12.5,43.47-11.91,68.99-3.9-1.21,2.22-8.23-5.6-5.6-.24-14.03-.72-28.35-5.6-41.68,1.41-2.82,2.07-5.72,2.8-8.76.06-.24,1.77-2.97,2.1-4.55-1.27-2.09-2.76-4-4.2-5.95.25.23,2.03-.4,4.55,4.9,1.47-1.96.88-3.77,1.05-4.2,1.21-3.16,2.37-6.27,3.5-9.46-.05-.58-1.38-.28-1.4-.35.97-7.81-11.32-26.93-11.91-29.77-.79-3.78,2.77,1.81,5.6,7,3.84,7.03,9.75,25.52,7.7,14.01-.07-.39-2.34-6.23-2.8-7.35Z" style="fill:#550b30; stroke-width:0px;"/><path d="m494.07,176.08c3.29,13.97,14.19,41.61,12.26,42.73-.7.41-3.21-2.26-3.85-1.05-.31.58,1.07,6.47,1.4,12.96.11,2.18.65,3.33.7,4.9.36,10.36-.71,20.81-.7,31.17,8.75,3.44,12.33,5.79,18.91,12.26.46.45-.74.99,7.7,9.81-2.82.05,1.92,2.99-4.2,1.4-4.64-4.35-9.48-9.74-14.71-13.31-16.9-11.54-6.03,9.97-12.96,7-.76-.32.62-2.69-2.45-2.1.1-1.03.51-2.3.7-4.9.23-3.06.59-6.03.7-9.11v-6.3c.18-22.74-2.1-47.09-10.51-68.29-.5-4.82,3.99-12.63,4.9-17.86l2.1.7Z" style="fill:#43152f; stroke-width:0px;"/><path d="m155.75,510.9c-.07.64.77.76.7,1.4-.05.48-1.34,4.38-1.4,4.9-15.07-10.93-21.11-16.53-35.02.35-1.5,1.83-5.44,8.93-5.6,9.46-.46-1.17-1.42-3.06-1.4-4.2.12-7.31,7.88-12.36,8.41-12.96.21-.24-.18-1.55,0-1.75,7.69-8.44,11.85-.33-16.46-20.31h-2.1c-5.59,4.02-10.94,8.51-16.46,12.61-.13.09-1.09-.14-2.8,1.4,3.55-4.57,4.51-7.12,11.21-14.01,1.2-1.24,3.48-2.01,3.5-4.2,2.53.52,3.33-1.99,3.5-2.1,18.25-11.52,36.07-34.27,11.91-36.42l-.7-3.5c33.98,5.7,14.64,31.05-4.2,41.68q23.46,13.83,46.93,27.67Z" style="fill:#4abaa7; stroke-width:0px;"/><path d="m538.19,380.61c-1.62,5.33-4.19,10.29-6.3,15.41-8.76,21.24-14.92,45.53-40.63,51.83-3.18-1.72-9.09-2.18-12.61-1.4,1.04-1.59,3.54-1.31,5.6-2.1,1.03-.39,1.61,2.03,4.2-2.1,1.98.61,1.64.59,3.5,0,11.26-3.55,20.15-21.03,25.22-30.82,6.09-11.78,8.95-21.37,13.31-33.62.5-1.4.92-2.81,1.4-4.2,1.93.68,4.67-4.4,5.6-6.3,4.51-.87-1.25,7.9-1.4,15.06.77.87.21-.84,2.1-1.75Z" style="fill:#382a37; stroke-width:0px;"/><path d="m46.48,199.2c1.66,2.55,1.64,4.98,3.5,3.5-.73,3.04-1.39,5.94-2.8,8.76,4.88,13.32,5.37,27.65,5.6,41.68,0,.23,0,.47,0,.7-3.22-1.25-4.67-6.5-7-8.41,3.01-3.71-6.07-42.26-10.51-28.37-1.47,4.6,4.43,3.86,2.45,8.76-6.12-6.73-2.34-7.08-4.55-12.26-2.12-4.96-32.14-29.76.35-3.85l12.96-10.51Z" style="fill:#d3647b; stroke-width:0px;"/><path d="m45.78,245.43c2.34,1.91,3.78,7.16,7,8.41.07,18.26,3.18,3.56-18.21,22.41-9.22-16.19,2.9-13,4.2-17.86.65-2.43-3.22-21.31,7-12.96Z" style="fill:#a04352; stroke-width:0px;"/><path d="m8.66,511.6l-1.4.7c-1.36-1.51-1.55-3.73-2.8-2.45-.65,21.23,19.64,29.22,20.31,25.92-1.65-5.22-.38-10.63.7-15.76.68-.07,1.45.13,2.1,0-5.2,17.41-2.26,20.08,14.36,14.01,7.05-2.57,13.43-8.42,19.26-12.96-1.42,5.51-15.17,13.39-19.96,15.06-54.86,19.07-42.28-73.66-14.01-67.24,5.01,1.14-3.77,1.65-4.9,2.1-11.98,4.78-21.82,32.54-13.66,40.63Z" style="fill:#a04352; stroke-width:0px;"/><path d="m530.49,288.86c19.05,16.15,25.17,24.83,18.21,50.43-4,.61-.41-2.94-2.8-6.3,3.62-16.9.24-23.66-11.21-35.72-1.79-1.89-4.54-1.74-6.3-3.5-.14-.14.14-1.4-2.1-3.5,6.12,1.59,1.38-1.35,4.2-1.4Z" style="fill:#382a37; stroke-width:0px;"/><path d="m556.41,197.1c-9.43,2.12-6.09-2.05-6.3-8.41,11.8-3.04,12.84-18.9,14.01-18.56,8.73,11.56-2.39,25.77-7.7,26.97Z" style="fill:#c76367; stroke-width:0px;"/><path d="m36.33,97.63c8.06-1.74,15.03,3.59,12.96,10.86-2.44,8.56-2.71-6.02-10.16-4.55-.6.12-3.67,2.59-3.85,3.15-2.02,6.07,5.06.7,5.6,7,.95,10.93-16.66-1.05-9.81-12.61.62-1.05,4.26-3.64,5.25-3.85Z" style="fill:#8a3e45; stroke-width:0px;"/><path d="m307.75,5.18c8.74,1.5,18.75,4.43,27.32,7,1.97.59,3.73,1.49,5.6,2.1-3.9,3.47-6.99-.64-11.91.7-7.23-2.22-14.33-3.97-21.71-5.6,1.09-1.57-12.28-3.12-6.65-5.6,1.33-.59,5.71,1.12,7.35,1.4Z" style="fill:#382a37; stroke-width:0px;"/><path d="m548.7,339.29c-.15,3.45-2.67,2.72-2.8,3.15-1.55,6.86-5.63,19.24-8.41,24.87-.94,1.9-3.67,6.98-5.6,6.3.73-2.11,1.41-4.19,2.1-6.3,2.38-7.27,4.85-14.36,7-21.71.86-2.94,2.76-6.18,3.5-9.11.99-3.91,1.36-3.32,1.4-3.5,2.39,3.37-1.2,6.91,2.8,6.3Z" style="fill:#142e3e; stroke-width:0px;"/><path d="m43.68,149.47c2.26,5.55,7.99,11.43,10.51,17.51.46,1.12,2.73,6.97,2.8,7.35,2.04,11.51-3.87-6.98-7.7-14.01-2.84-5.2-6.39-10.78-5.6-7,.59,2.83,12.88,21.96,11.91,29.77-2.5-9.26-15.59-29.62-18.21-37.82,3.94-1.68,4.51,8.37,6.3,4.2Z" style="fill:#a04352; stroke-width:0px;"/><path d="m158.55,522.8c-.08,1.57.23,3.51,0,4.9-.71,4.26-3.55,8.09-7,10.51.19-2.43,2.27-10.55,3.5-21.01.06-.52,1.35-4.42,1.4-4.9l1.4-.7c-.02.56,1.1,3.68.7,11.21Z" style="fill:#fccda2; stroke-width:0px;"/><path d="m2,230.02l18.56,47.98c.46,3.98,3.59,8.97,1.75,10.16-5.41-19.03-14.44-36.69-19.96-55.69-.13-.44-2.9-.27-.35-2.45Z" style="fill:#834956; stroke-width:0px;"/><path d="m531.89,396.02c2.11-5.12,4.69-10.08,6.3-15.41,1.51-.73,3.08-1.31,4.55-2.1.98.54-9.32,20.5-10.86,17.51Z" style="fill:#2d827d; stroke-width:0px;"/><path d="m336.47,10.08l-1.4,2.1c-8.56-2.57-18.57-5.51-27.32-7,7.47-.48,20.42,2.9,28.72,4.9Z" style="fill:#2d827d; stroke-width:0px;"/><path d="m19.17,76.62l4.9,2.1c2.96,10.76-11.66,4.65-4.9-2.1Z" style="fill:#a04352; stroke-width:0px;"/><path d="m11.46,300.06c0,.23,0,.47,0,.7-2.81-6.1-3.95-13.03-6.3-19.26-3.16-8.36-9.45-18.16-.7-4.2,1.59,6.31,7.04,16.59,7,22.76Z" style="fill:#834956; stroke-width:0px;"/><path d="m9.01,214.61l10.16,12.96c18.15,28.91-3.58-1.79-10.16-12.96Z" style="fill:#834956; stroke-width:0px;"/><path d="m24.07,78.72l-4.9-2.1c3.17-3.17,4.03-1.06,4.9,2.1Z" style="fill:#e5809f; stroke-width:0px;"/><path d="m276.93,28.29v21.71c0,6.54,0,13.07,0,19.61-14.08-15.95-26.97-12.83-27.32-6.65-.25,4.55,3.88.63,8.06,1.05,12.27,1.23,5.71,13.58-.35,17.86,16.37,8.12,7.27,29.41,18.91,19.26,0,4.25,1.44,8.94.7,13.31h-.7l-31.17-21.01c-36.54,12.64-70.1,32.04-99.81,56.74-2.3-6.11-5.78-12.2-8.41-18.21-.6-5.26,10.24-14.16-3.5-35.72,3.01-7.74,17.79-21.35,24.52-27.32,41.23-30.61,69.52-36.7,119.08-40.63Z" style="fill:#e3dfb0; stroke-width:0px;"/><path d="m289.54,28.29c27.95-.69,65.89,10.87,90.01,25.22,11.73,6.98,39.53,28.85,45.18,40.63-17.37,24.63-10.99,30.19-13.31,57.44-.36-1.78-1.64-2.39-2.8-3.5-.09-.09.57-.28-1.4-2.1-37.43-34.7-81.48-47.33-126.08-69.34.07-15.99-.05-31.99,0-47.98.49-.69,7.01-.32,8.41-.35Z" style="fill:#e3dfb0; stroke-width:0px;"/><path d="m157.85,68.92c-6.72,5.96-21.5,19.58-24.52,27.32-3.24,8.32-8.4,35.98,3.5,35.72,2.62,6.01,6.11,12.1,8.41,18.21,6.75,17.97,13.38,36.04,20.31,53.93-12.55-14.44-23.31-30.7-31.52-47.98-5.04-10.61-5.24-18.75-4.9,1.05-.55,17.91-6.39-5.89-10.51,9.81,2.25-20.43,4.81-40.73,4.2-61.29-.95,1.56-4.34,3.88-4.9,4.55-.47-4.07.91-7.52-4.9-8.41,19.74-28.78,53.22-55.36,84.75-70.04,3.26,4.04-19.06,10.04-13.66,11.91,1.98.68,2.74-2.99,4.55-.35-7.22,10.16-15.23,11.75-30.82,25.57Z" style="fill:#550b30; stroke-width:0px;"/><path d="m511.58,276.95c-1.47.28-6.96-3.61-7.35-3.5-1.31.37-2.8,11.85-3.15,14.01-.33,2.03.06,6.66,0,7-2.5,13.87-6.62,27.6-9.81,41.33-1.02,4.38-1.75,8.97-2.8,13.31-5.86,24.18-15.94,54.96-20.31,74.25-2.85,12.55-6.6,28,5.95,8.41-.94,37.45,15.11-19.54,22.06-39.22,3.86-10.92,7.51-21.94,11.21-32.92,1.26-3.74,2.94-7.43,4.2-11.21,1.42-4.25,3.53-8.38,4.9-12.61,2.94,3.22-5.28,14.85-2.1,15.41-1.18,3.49-2.34,7.01-3.5,10.51-4.97,14.93-9.95,29.82-14.71,44.83-4,12.6-7.65,25.31-11.91,37.82-2.06.79-4.56.51-5.6,2.1l-.7,1.05c13.75,6.92-9.74,1.36-21.71-3.85-3.93-4.98-2.17-4.68-2.1-5.6.65-.05,1.04,1.12,1.75.7,3.99-2.33,21.74-68.29,24.17-77.75,3.45-13.48,7.81-29.37,10.51-42.73,2.44-12.08,4.43-24.15,5.6-36.42,3.07-.58,1.69,1.78,2.45,2.1,6.92,2.96-3.94-18.54,12.96-7Z" style="fill:#242735; stroke-width:0px;"/><path d="m431.03,135.46c-4.64,2.59-8.83-10-12.61-15.06-10.47-14.03,6.65,11.95,6.3,32.92.67.62,5.74-2.38,7.7,1.05.56,7.65,4.39,15.47,0,22.76,1.01,6.75,5.3,19.47,3.5,25.57-5.96-12.31-9.6-26.74-11.91-40.28l-12.61-10.86c2.32-27.25-4.06-32.8,13.31-57.44,1.65,3.45,7.59,26.14,2.1,25.57,2.92,4.61,3.48,10.39,4.2,15.76Z" style="fill:#4abaa7; stroke-width:0px;"/><path d="m470.25,335.09c-3.36,14.9-7.19,29.69-9.46,44.83-.71.09-1.11.05-1.75-.35-1.44-.91-15.84-25.84-16.81-29.42-.45-1.65-.68-4.2-.7-5.95.13-.96,2.66-10.14,4.2-18.91,9.19.89,16.53,5.75,24.52,9.81Z" style="fill:#2d827d; stroke-width:0px;"/><path d="m428.22,193.6c-2.09,2.44-5.3,9.35-7,12.61-8.27-20.55-8.65-17.51-9.81-2.8-4.02,1.37,2.22,6.51-4.9,6.3-.25,0-.83-2.51-4.2-.7,1.25-17.81,1.85-35.88,6.3-53.23,3.67,11.5,14.76,26.44,19.61,37.82Z" style="fill:#2a9b92; stroke-width:0px;"/><path d="m480.76,269.24c.41.49.72,1.37,1.4,1.75.42,6.03-1.26,11.94-2.1,17.86q-11.91-5.95-23.82-11.91c1.49-4.9,2.43-10.01,4.55-14.71,1.53-.74,18.64,5.44,19.96,7Z" style="fill:#2a9b92; stroke-width:0px;"/><path d="m411.41,151.57l12.61,10.86c2.31,13.53,5.95,27.96,11.91,40.28.71,4.62-4.29-3.14-5.6-10.86-1.53-1.18-.96.42-2.1,1.75-4.85-11.39-15.94-26.33-19.61-37.82-.42-1.33-1.17-5.37-1.4-7l1.4-.7c1.16,1.11,2.44,1.73,2.8,3.5Z" style="fill:#351825; stroke-width:0px;"/><path d="m289.54,28.29c-1.39.03-7.92-.34-8.41.35-.05,15.99.07,31.99,0,47.98-.05,11.44.03,22.88,0,34.32-4.66-.05-2.87,2.58-4.2,3.5.74-4.37-.7-9.06-.7-13.31,0-10.44.7-21.02.7-31.52,0-6.54,0-13.07,0-19.61,4.97,1.38,2.04-12,2.8-21.71.57-.04,8.02-3.87,9.81,0Z" style="fill:#33343c; stroke-width:0px;"/><path d="m480.06,361c-2.42,9.46-20.17,75.42-24.17,77.75-.71.42-1.1-.75-1.75-.7.16-2.3,11.34-36.85,13.31-44.13,2.68-9.93,5.28-20.12,7.7-30.12,4.71.75,2.54-3.08,4.9-2.8Z" style="fill:#0d5c5e; stroke-width:0px;"/><path d="m439.43,356.1c.19,7.09.86,8.54-1.4,14.71-1.41,3.84-6.76,11.3-9.81,14.01-1.87,1.67-6,3.78-8.41,4.9-1.13-.85-2.52-1.82-3.5-2.8-.31-.31-1.11-1.83-1.4-2.1,8.75-8.67,20.09-17.2,22.41-29.77l2.1,1.05Z" style="fill:#66ceb9; stroke-width:0px;"/><path d="m496.87,276.95c-.19,2.6-.6,3.87-.7,4.9-1.17,12.27-3.17,24.34-5.6,36.42-1.98-.73.09-3.68,0-3.85-.1-.2-3.27-.93-4.2-1.75.66-3.73,1.5-7.48,2.1-11.21,2.59-16.09,4.63-24.87,4.2-42.03,1.55-.52.22-4.52.7-5.25,4.55-6.89,1.74,19.4,3.5,22.76Z" style="fill:#2a9b92; stroke-width:0px;"/><path d="m421.22,206.2c-3.9,7.46-9.82,19.04-9.81,27.32h-.7c0-4.32-.73-6.69-.7-8.41.14-7.11.84-14.6,1.4-21.71,1.16-14.71,1.54-17.75,9.81,2.8Z" style="fill:#c1e6c6; stroke-width:0px;"/><path d="m439.43,356.1l-2.1-1.05c-2.32,12.57-13.66,21.1-22.41,29.77-.13-.12-1.27-.58-1.4-.7-2.41-2.23-5.04-4.33-7-7,.29-.05,2.26-.85,4.2-1.4,7.42-2.1,14.48-6.99,19.61-12.61,3.7-4.06,6.55-8.28,8.76-13.31.65.32.32,5.14.35,6.3Z" style="fill:#c1e6c6; stroke-width:0px;"/><path d="m431.03,135.46c.68,5.09-.03,3.99,0,4.2.81-3.03-7.28.61-7,3.85.17,1.99,6.54,6.22,8.41,4.55.22,2.1-.09,5.04,0,6.3-1.97-3.43-7.04-.43-7.7-1.05.34-20.98-16.77-46.95-6.3-32.92,3.78,5.06,7.96,17.65,12.61,15.06Z" style="fill:#2f2627; stroke-width:0px;"/><path d="m480.06,288.86c-.06.45.07.95,0,1.4-.61,4.1-1.35,8.54-2.1,12.61-.68,3.68-2.04,7.48-2.8,11.21l-25.22-9.81c2.06-9.35,3.49-18.07,6.3-27.32q11.91,5.95,23.82,11.91Z" style="fill:#e3dfb0; stroke-width:0px;"/><path d="m475.15,314.07c-1.26,6.12-2.84,12.12-4.2,18.21-6.69-5.65-15.9-8.84-24.52-9.81,1.08-6.1,2.17-12.16,3.5-18.21l25.22,9.81Z" style="fill:#4abaa7; stroke-width:0px;"/><path d="m470.95,332.28c-.21.92-.48,1.84-.7,2.8-7.99-4.05-15.33-8.92-24.52-9.81.06-.31.38-1.02.7-2.8,8.61.97,17.82,4.15,24.52,9.81Z" style="fill:#9ecdae; stroke-width:0px;"/><path d="m430.33,363.1c-5.13,5.62-12.19,10.51-19.61,12.61-.58-1.57,14.79-7.5,8.06-7-.31.02-1.63,1.18-5.95,2.1,5.83-2.69,10.97-5.85,15.41-10.51-.9,2.16-1.49,2.34-1.4,2.45.55.74,2.57.2,3.5.35Z" style="fill:#382a37; stroke-width:0px;"/><path d="m279.73,28.29c-.76,9.72,2.17,23.09-2.8,21.71v-21.71c.92-.07,1.88.07,2.8,0Z" style="fill:#382a37; stroke-width:0px;"/><path d="m431.03,139.66c.33,2.76,1.12,5.68,1.4,8.41-1.87,1.67-8.23-2.56-8.41-4.55-.28-3.25,7.81-6.88,7-3.85Z" style="fill:#4abaa7; stroke-width:0px;"/><path d="m403.71,57.01c5.03,4.15,10.15,9.33,14.71,14.01,16.92,17.37,30.42,37.9,44.13,57.79-10.25-21.62-26.48-42.94-43.43-59.89-4.6-4.6-9.02-8.46-14.01-12.61-24.48-20.36-45.85-31.95-76.35-41.33,4.92-1.34,8.01,2.77,11.91-.7,41.63,13.66,72.1,33.46,99.46,68.29,11.04,14.06,44.93,66.42,42.03,82.65-1.76,9.82-8.77.81-11.56-3.15-1.51.1-1.25,10.9-1.05,12.26,1.27,8.66,21.95,37.99,23.11,85.1.42,17.16-1.62,25.93-4.2,42.03l2.8-29.77c-1.74-2.85-3.25,7.31-6.3.7-.18-.39.49-7.58-4.2-3.15-1.33-1.57-18.43-7.74-19.96-7-2.12,4.7-3.06,9.81-4.55,14.71-2.82,9.25-4.25,17.97-6.3,27.32-1.33,6.05-2.42,12.11-3.5,18.21-.32,1.78-.65,2.49-.7,2.8-1.54,8.78-4.07,17.95-4.2,18.91-2.01,15.04,20.1,35.91,25.92,49.73-1.97,7.28-13.15,41.83-13.31,44.13-.07.93-1.83.62,2.1,5.6-2.36-1.03-6.07-3.22-7.7-2.1-.46-5.11-4.64-3.52-6.3-1.4-4.87-3.9-7.77-9.46-11.91-14.01-1.03-1.14-2.46-1.7-2.8-3.5,27.57-10.19,23.84-46.39,15.41-51.13-1.82-1.02-3-.72-4.9-.7,2.26-6.17,1.59-7.62,1.4-14.71-.03-1.17.3-5.98-.35-6.3-2.21,5.02-5.05,9.25-8.76,13.31-.94-.15-2.95.39-3.5-.35-.08-.11.5-.3,1.4-2.45,2.04-4.87,7.03-10.04,9.81-26.97,3.43-20.86,3-44.84-5.6-64.44-7.16-16.3-20.99-25.69-21.01-35.37-.02-8.28,5.91-19.85,9.81-27.32,1.7-3.26,4.91-10.17,7-12.61,1.14-1.33.57-2.93,2.1-1.75,1.31,7.72,6.31,15.47,5.6,10.86,1.8-6.09-2.49-18.82-3.5-25.57,4.39-7.29.56-15.12,0-22.76-.09-1.26.22-4.21,0-6.3-.28-2.73-1.07-5.65-1.4-8.41-.03-.21.68.89,0-4.2-.72-5.37-1.28-11.15-4.2-15.76,5.49.58-.45-22.12-2.1-25.57-5.64-11.77-33.44-33.65-45.18-40.63-24.12-14.34-62.06-25.91-90.01-25.22-1.78-3.87-9.24-.04-9.81,0-.92.07-1.88-.07-2.8,0-49.56,3.93-77.85,10.02-119.08,40.63,15.59-13.82,23.6-15.4,30.82-25.57-1.81-2.64-2.58,1.03-4.55.35-5.41-1.87,16.92-7.86,13.66-11.91,37.39-17.41,74.3-21.13,115.22-16.11,30.62,3.76,66.93,21.72,90.71,41.33Z" style="fill:#43152f; stroke-width:0px;"/><path d="m461.5,180.29c10.79,16.39,21.37,47.8,22.76,66.89,1.9,26.01-.23,12.42-22.41,9.11,7.09-24.95-1.75-50.61-.35-76Z" style="fill:#2d827d; stroke-width:0px;"/><path d="m446.44,158.57l-4.2,1.4c-2.59-17.92-4.44-35.81-5.25-53.93,1.86-1.01,14.41,20.54,15.76,22.76-3.43,6.31-7.82,23.48-6.3,29.77Z" style="fill:#4abaa7; stroke-width:0px;"/><path d="m457.64,192.19c.46,2.32,2.69,7.99,2.8,10.16.74,13.94-11.87,37.66-13.66,36.77,9-22.73,2.24-36.83-1.05-57.44,10.48-.3,8.63,28.75,12.61,22.76,1.68-2.54-2.35-9.31-.7-12.26Z" style="fill:#2d827d; stroke-width:0px;"/><path d="m457.64,192.19c-1.65,2.95,2.39,9.72.7,12.26-3.98,5.99-2.13-23.07-12.61-22.76-1.16-7.29-2.44-14.39-3.5-21.71l4.2-1.4c6.09,10.29,8.9,22.05,11.21,33.62Z" style="fill:#2a9b92; stroke-width:0px;"/><path d="m418.42,71.02l.7-2.1c16.95,16.94,33.18,38.27,43.43,59.89-13.7-19.89-27.21-40.41-44.13-57.79Z" style="fill:#2d827d; stroke-width:0px;"/><path d="m439.78,218.81c1,8.41-1.48,18.55-7,25.22-8.11-9.64,1.55-4.25,7-25.22Z" style="fill:#2a6952; stroke-width:0px;"/><path d="m458.69,237.02c1.23,22.29-5.4,21.82-3.85,9.46.08-.65,2.8-7.75,3.85-9.46Z" style="fill:#216270; stroke-width:0px;"/><path d="m405.11,56.31c4.99,4.15,9.41,8.01,14.01,12.61l-.7,2.1c-4.56-4.68-9.68-9.86-14.71-14.01l1.4-.7Z" style="fill:#58a994; stroke-width:0px;"/><path d="m270.62,272.05c-.84,4.11-3.26,10.41-2.1,14.01-5.21,2.44-2.57,18.51-4.2,27.67-.78,4.39-3.68,8.26-4.9,12.26-1.3.33-1.99,2-2.1,2.1-7.72,7.12-6.99,3.89-7.35,4.2-6.58,5.57-12.24,19.15-17.86,26.62-3.36,4.47-7.4,7.98-10.51,12.61-14.37,4.31-14.7,10.34,2.45,2.8,2.37-1.04,3.99-3.04,5.95-4.2,2.62-1.55,5.12-3.25,8.06-4.2q6.83-8.06,13.66-16.11c-.07.21.07.49,0,.7-3.66,11.84-13.9,36.48-11.91,47.28.57,3.08,6.61,9.72,7.7,15.41q-1.75,28.89-3.5,57.79c-1.82-.92-1.98-2.02-2.1-2.1,2.4-4.34-2.72-60.06-5.95-59.54-.7,10.05-6.3,52.66-5.95,56.04-.7.02-1.4-.03-2.1,0,1.73-14.05-1.36-28.76-5.95-42.03l-4.55,43.43c-3.22-.11-6.65-.73-9.81-1.4,5.33-19.54,12.44-40.96,3.5-60.59-2.91-2.64,2.75,6.63-3.5-.35-6.95-7.76-9.22-7.43-18.91-10.51,9.89-1.3,19.13-9.32,27.32-14.36l-.35-1.05c-9.26,1.26-17.99,3.68-26.97,5.6-.18-2.42,3.96-.83.7-2.8,16.82-4.47,41.04-22.79,47.98-38.52-10.36,10.9-26.39,22.87-41.33,25.92-1.46.3-5.32,1.13-4.55-.7,14.3-5.59,27.74-15.84,37.82-27.32,9.7-8.42,18.68-19.35,23.11-31.52,3.64-9.97,6.01-17.95.7-28.37,4.22-.8,10.85-2.08,14.01-4.9.24-.21,1.2-5.72,3.5-3.85Z" style="fill:#bc1765; stroke-width:0px;"/><path d="m114.43,376.41c3.85,13.72,7.97,16.85,21.71,19.61.17.03,1.85,1.95,3.5,0,19.61,4.15,32.93.05,44.83.7l-2.1,3.5c-6.81.91-10.45,9.41-15.41,13.31-14.87,11.67-30.03,14.43-45.53,2.8-.97-5.3-5.72-9.41-8.41-15.06-1.92-4.04-1.26-10.08-4.9-8.76-.22-5.61,1.54-14.22,4.9-18.91.65.49,1.22,2.15,1.4,2.8Z" style="fill:#bc1765; stroke-width:0px;"/><path d="m122.13,75.92c-8.7,10.46-44.93,65.91-47.63,76-1.78,6.63-2.67,14.72,1.05,20.66,9.96-9.47,12-14.35,10.86-1.75-.33,3.67-2.48,10.4-3.5,14.36-.88-.18-1.71.32-2.1,1.05-9.41,17.42-19.24,58.56-18.21,78.1h-4.2c-.11-1.85.04-3.74,0-5.6-.59-25.53,6.46-44.35,11.91-68.99,1.25-5.28-4.78-9.96-5.6-14.71-.98-5.67,1.54-21.92-1.4-15.06.07-.24-1.68-.36.7-4.9,4.29-7.07,8.92-14.33,12.61-21.71,4.01.37,2.69,4.71,5.6,1.05,2.59-3.25,15.91-30.7,23.82-42.03,2.59-3.71,15.79-20.94,16.11-16.46Z" style="fill:#d14b76; stroke-width:0px;"/><path d="m90.61,388.32c4.63,15.53,10.03,30.81,16.81,45.53-.92,1.04-2.9,2.16-3.15,2.1-3.8-.84-16.06-37.17-17.86-42.73-6.9-21.26-14.24-55.8-21.01-74.95-.27-.75.44-2.1-.35-2.8-1.25,1.53.36,2.66.35,2.8-.03.34-.88,3.93-1.4,4.2-.6-2.72-.82-5.65-1.4-8.41,2.95-3.31-.14-9.81,2.8-11.91,3.18,13.08,6.73,26.41,11.91,38.87-3.08-16.44-6.27-32.9-9.11-49.38-.57-3.29-1.54-6.46-2.1-9.81,2.01-.28,7.81,7.07,11.21,10.86,1.31,20.51,11.74,53.04,5.6,69.34,2.45,8.8,5.1,17.52,7.7,26.27Z" style="fill:#822643; stroke-width:0px;"/><path d="m80.8,267.84c-5.22,7.82-.1,19.26,0,20.31,1.32,13.33,3.04,26.44,5.6,39.93.51,2.69,1.15,4.36,1.4,5.6,3.29,16.45,7.13,32.76,11.21,49.03-9.12-1.38-4.37,4.45-8.41,5.6-2.61-8.75-5.26-17.47-7.7-26.27,6.14-16.3-4.29-48.84-5.6-69.34-3.4-3.79-9.19-11.13-11.21-10.86-.1-.62-1.08-2.81-1.4-4.9,3.6-5.22.32-16.08.7-22.06.19-2.95,1.01-6.43,1.4-9.46,3.55,6.73,6.85,19.28,14.01,22.41Z" style="fill:#550b30; stroke-width:0px;"/><path d="m165.56,204.1c.82,2.11,2.46,3.98,2.8,6.3-3.38,1.68-6.48,3.88-9.81,5.6-.8-7.87-2.49-15.25-5.95-22.41l-1.75,23.82c-2.56-7.36-8.58-15.63-11.91-22.76-1.34-2.87-5.21-15.75-6.3-16.81-2.78-2.69-1.94,11.12,1.4,21.36-9.86,9.07-4.57-.66-4.2-14.36.25-9.29-.54-18.42-.7-27.67-.34-19.81-.14-11.66,4.9-1.05,8.21,17.28,18.97,33.54,31.52,47.98Z" style="fill:#bc1765; stroke-width:0px;"/><path d="m99.02,382.72c-4.08-16.27-7.92-32.58-11.21-49.03,6.04-.43,18.2-4.4,21.71-9.11,7.9,33.82,4.97,30.77-10.51,58.14Z" style="fill:#bc1765; stroke-width:0px;"/><path d="m190.77,20.59c-23.19,11.15-52.1,35.45-68.64,55.34-.32-4.48-13.52,12.75-16.11,16.46-7.91,11.33-21.22,38.78-23.82,42.03-2.92,3.66-1.6-.68-5.6-1.05.68-1.37,1.92-7.43,2.8-9.11.96-1.82,2.15-3.66,2.8-5.6,18.5-30.13,42.68-56.71,69.34-79.85,4.88-1.65,24.25-15.45,37.12-18.91.11.03-.3,1.03,2.1.7Z" style="fill:#d3647b; stroke-width:0px;"/><path d="m207.58,404.43c6.25,6.98.59-2.29,3.5.35,8.93,19.63,1.83,41.05-3.5,60.59-4.25-.91-8.56-1.43-12.61-3.15,5.22-12.81,6.79-26.91,12.61-39.22,1.5-14.52-11.16-24.65-25.22-22.76l2.1-3.5c8.61.47,15.48,4.28,23.11,7.7Z" style="fill:#822643; stroke-width:0px;"/><path d="m118.63,166.98c-.45,4.11.25,8.48-.7,12.61-1.26-10.96-2.51,1.85-4.2,9.11-.71-.06-1.58.28-2.1-.35-3.29-3.97,6.46-47.53-5.6-55.69l-1.4-3.15c4.64-4.94,10.02-15.3,13.31-19.26.56-.67,3.95-2.99,4.9-4.55.6,20.56-1.95,40.86-4.2,61.29Z" style="fill:#d14b76; stroke-width:0px;"/><path d="m189.37,381.31c-1.71.45-5.07,1.05-7,1.4l-4.2-1.05,3.15-1.75c-5.58-1.21-10.78-2.66-16.46-3.5l2.8-2.8c8.1-.53,16.22-2.64,23.82-5.6-.77,1.83,3.09,1,4.55.7,14.94-3.05,30.97-15.02,41.33-25.92-6.94,15.73-31.16,34.05-47.98,38.52Z" style="fill:#822643; stroke-width:0px;"/><path d="m137.54,358.2c.89,1.72,2.86,5.14,4.2,6.3l-.7,4.2c-18.27-9.64-19.98-36.91-20.31-55.34,1.4-5.12.03-9.85,2.45-14.71l5.95,6.65,2.1,38.52c2.12,3.52,1.73,13.77,6.3,14.36Z" style="fill:#e3dfb0; stroke-width:0px;"/><path d="m103.22,276.95q-11.21,5.6-22.41,11.21c-.1-1.05-5.22-12.49,0-20.31,2.93-4.39,12.57-7.52,17.86-7.7,1.41,1.1,3.8,14.12,4.55,16.81Z" style="fill:#bc1765; stroke-width:0px;"/><path d="m188.67,393.92c-8.06,1.06-28.89-1.23-37.82-2.8,2.21-.77,8.08-2.7,9.81-2.8,1.89-.11,5.19,1.26,7.35,1.4,6.92-1.62,13.72-4.12,20.66-5.6,8.98-1.92,17.71-4.34,26.97-5.6l.35,1.05c-8.19,5.04-17.43,13.06-27.32,14.36Z" style="fill:#fcbe99; stroke-width:0px;"/><path d="m191.47,368.01c-7.6,2.97-15.71,5.07-23.82,5.6-9.32.61-18.17-.45-26.62-4.9l.7-4.2c20.08,17.5,70.55-9.07,87.56-23.82-10.09,11.48-23.52,21.73-37.82,27.32Z" style="fill:#fcbe99; stroke-width:0px;"/><path d="m143.14,374.31c-4.29,3.54-9.13,5.42-11.21,11.21-11.82-7.13-15.87-20.93-10.86-33.62,2.29,7.73,15.04,20.06,22.06,22.41Z" style="fill:#e3dfb0; stroke-width:0px;"/><path d="m136.14,274.85c-.78,1.18-1.51,2.18-2.1,3.5-3.28.37-6.45-.35-9.11,2.1,5.69-22.3,7.03-20.47,17.51-37.12,6.98,4.36,2.06,6.52,2.1,7.35.03.64,2.2,2.18,2.1,4.2-.19,3.94-20.9,21.49-10.51,19.96Z" style="fill:#eab0be; stroke-width:0px;"/><path d="m134.04,278.35c-6.43,14.27-3.82,65.75,3.5,79.85-4.57-.59-4.19-10.84-6.3-14.36l-2.1-38.52-5.95-6.65c-2.42,4.86-1.06,9.59-2.45,14.71-.3-16.69.36-17.86,4.2-32.92,2.66-2.45,5.83-1.73,9.11-2.1Z" style="fill:#f4e1b5; stroke-width:0px;"/><path d="m145.25,374.31c3.44,5.89,11.7,9.09,18.21,9.81l-2.8,4.2c-1.72.1-7.6,2.03-9.81,2.8-7.18-1.26-12.38-1.67-18.91-5.6,2.08-5.78,6.92-7.67,11.21-11.21.52.18,1.5-.16,2.1,0Z" style="fill:#d14b76; stroke-width:0px;"/><path d="m113.73,188.69c-3.13,13.42-5.28,18.39-4.9,32.92.05,1.92,1.96,7.71,0,10.16-14.48-30.38,13.18-61.93-2.8-99.11,12.06,8.15,2.31,51.72,5.6,55.69.52.63,1.39.29,2.1.35Z" style="fill:#bc1765; stroke-width:0px;"/><path d="m266.42,229.32c-5.92-.83-11.27,2.41-14.01,7.7-4.99-.87-1.97,1.08-2.8,1.4-1.55.6-2.02.51-2.8.7-19.68,4.9-59.45,6.99-88.61,20.31,0-9.78-7.55-6.96-8.76-9.46-.67-1.39.77-3.4,0-5.25-.13-.31-2.86-1.48-3.5-5.6,4.14-8.18.5-10.04-2.1-17.51,2.37-.59,7.34-1.27,7.7-1.4,2.73-.97,4.54-2.93,7-4.2,3.33-1.72,6.42-3.92,9.81-5.6,11.91-5.93,23.97-11.6,36.77-15.41l-4.55,10.16c1.19,3.17,51.42,6.6,65.14,16.11.37,2.7.53,5.33.7,8.06Z" style="fill:#e3dfb0; stroke-width:0px;"/><path d="m150.85,217.41c.16.46-.32,1.5.7,2.8-.37.13-5.33.81-7.7,1.4-3.55-10.18-9.1-20.26-9.81-22.41-3.34-10.24-4.18-24.05-1.4-21.36,1.09,1.06,4.97,13.94,6.3,16.81,3.33,7.14,9.35,15.41,11.91,22.76Z" style="fill:#fccda2; stroke-width:0px;"/><path d="m82.91,185.19c-4.28,16.56-13.1,37.04-16.11,60.24-.39,3.02-1.22,6.51-1.4,9.46-.38,5.99,2.9,16.84-.7,22.06-.59-3.91-1.9-8.81-2.1-12.61-1.03-19.54,8.8-60.68,18.21-78.1.39-.73,1.22-1.23,2.1-1.05Z" style="fill:#822643; stroke-width:0px;"/><path d="m164.86,376.41c5.68.84,10.89,2.3,16.46,3.5l-3.15,1.75,4.2,1.05c-5.83,1.05-13,2.05-18.91,1.4-6.51-.71-14.77-3.92-18.21-9.81,6.63,1.73,12.94,1.11,19.61,2.1Z" style="fill:#bc1765; stroke-width:0px;"/><path d="m109.52,324.58c-3.52,4.7-15.68,8.67-21.71,9.11-.25-1.24-.89-2.91-1.4-5.6l24.52-9.81c0,.47,1.09,1.09.7,3.15-1.23.71-1.36,2.15-2.1,3.15Z" style="fill:#d14b76; stroke-width:0px;"/><path d="m149.45,244.73c-5.19,8.22-1.14,6.53.7,11.56,3.79,10.36-4.57,4.38-14.01,18.56-10.39,1.53,10.32-16.02,10.51-19.96.1-2.02-2.07-3.56-2.1-4.2-.04-.83,4.88-2.99-2.1-7.35,2.42-3.85,3.38-3.96,3.5-4.2.64,4.13,3.38,5.3,3.5,5.6Z" style="fill:#f3c3c1; stroke-width:0px;"/><path d="m117.93,179.59q-3.5,22.24-7,44.48l-2.1-2.45c-.38-14.53,1.77-19.5,4.9-32.92,1.69-7.25,2.94-20.06,4.2-9.11Z" style="fill:#822643; stroke-width:0px;"/><path d="m121.43,416.34c-1.74-1.3-4.13-2.45-5.6-4.2-4.09-4.89-7.47-13.4-7.7-19.61,3.64-1.32,2.98,4.72,4.9,8.76,2.69,5.65,7.43,9.76,8.41,15.06Z" style="fill:#bc1765; stroke-width:0px;"/><path d="m207.58,21.99c-37.01,15.53-70.4,42.7-93.86,75.3-1.64,2.28-26.82,40.64-20.66,41.68,5-12,12.6-26.39,19.96-37.12,5.81.89,4.43,4.33,4.9,8.41-3.29,3.96-8.67,14.32-13.31,19.26l1.4,3.15c15.98,37.18-11.67,68.74,2.8,99.11,1.96-2.44.05-8.24,0-10.16l2.1,2.45q3.5-22.24,7-44.48c.95-4.13.25-8.5.7-12.61,4.12-15.69,9.96,8.11,10.51-9.81.16,9.25.95,18.38.7,27.67-.37,13.7-5.66,23.43,4.2,14.36.7,2.16,6.26,12.23,9.81,22.41,2.6,7.47,6.24,9.33,2.1,17.51-.12.24-1.08.36-3.5,4.2-10.48,16.65-11.82,14.82-17.51,37.12-3.84,15.06-4.5,16.23-4.2,32.92.33,18.43,2.05,45.7,20.31,55.34,8.44,4.45,17.3,5.52,26.62,4.9l-2.8,2.8c-6.67-.99-12.99-.37-19.61-2.1-.6-.16-1.58.18-2.1,0-7.02-2.35-19.77-14.68-22.06-22.41-5.02,12.7-.97,26.49,10.86,33.62,6.53,3.94,11.73,4.34,18.91,5.6,8.94,1.57,29.76,3.86,37.82,2.8,9.69,3.08,11.96,2.74,18.91,10.51-7.63-3.43-14.5-7.24-23.11-7.7-11.9-.65-25.22,3.45-44.83-.7-.93-.2-1.89-.44-2.8-.7-13.71-3.93-15.19-9.97-21.71-20.31-.55-.87-.76-1.98-1.05-2.1l-1.05.7c-3.36,4.7-5.12,13.3-4.9,18.91.24,6.21,3.61,14.73,7.7,19.61-5.37-1.73-5.99,7.64-9.81,10.86.71,4.78,4.49,7.36,1.4,10.86-6.78-14.72-12.18-30-16.81-45.53,4.04-1.15-.71-6.99,8.41-5.6,15.48-27.37,18.41-24.32,10.51-58.14.75-1,.87-2.44,2.1-3.15.39-2.06-.7-2.68-.7-3.15-.02-5.38-3.56-29.48-4.9-35.37-1-4.4-2.71-5.64-2.8-5.95-.75-2.69-3.15-15.71-4.55-16.81-5.29.18-14.93,3.31-17.86,7.7-7.16-3.13-10.46-15.68-14.01-22.41,3.01-23.2,11.83-43.68,16.11-60.24,1.02-3.96,3.17-10.69,3.5-14.36,1.14-12.6-.9-7.72-10.86,1.75-3.72-5.94-2.83-14.03-1.05-20.66,2.7-10.09,38.93-65.54,47.63-76,16.54-19.88,45.45-44.18,68.64-55.34.89-.43,6.26-1.54,10.51-4.9,1.21,1.22-2.01,6.01,6.3,6.3Z" style="fill:#550b30; stroke-width:0px;"/><path d="m87.11,223.01c2.21,10.88,2.59,22.05,4.9,32.92-4.68,1.74-9.35,3.47-14.01,5.25-.36-16.95.06-34.25,6.65-50.08-.31,4.25,1.65,7.93,2.45,11.91Z" style="fill:#2d827d; stroke-width:0px;"/><path d="m92.01,255.94c-2.31-10.87-2.7-22.04-4.9-32.92,7.6,11.03,9.29,17.03,12.61,29.77-.49,2.1-5.95,2.5-7.7,3.15Z" style="fill:#354755; stroke-width:0px;"/><path d="m111.62,246.83l-.7.7c-6.72-14.55-19.16-29.42-14.36-46.23,2.21,15.76,9.24,30.68,15.06,45.53Z" style="fill:#37645c; stroke-width:0px;"/><path d="m116.18,214.61c4.76,16.25,16.43,20.53,7,28.72-1.61,0-9.81-28.11-7-28.72Z" style="fill:#4d5249; stroke-width:0px;"/><path d="m91.31,204.8c.21,1.53.4,3.48.7,4.9,2.63,12.33,8.85,13.56,1.75,18.91-3.84-1.28-5.52-19.36-5.25-23.46.02-.35,1.7-4.22,2.1-6.65.29,2.07.41,4.25.7,6.3Z" style="fill:#822643; stroke-width:0px;"/><path d="m136.84,395.32l-.7.7c-13.74-2.76-17.86-5.9-21.71-19.61l.7-1.4c6.52,10.34,8.01,16.38,21.71,20.31Z" style="fill:#f4e1b5; stroke-width:0px;"/><path d="m96.91,187.29c-7.53,8.85-2.24,17.16-5.6,17.51-.29-2.05-.41-4.24-.7-6.3.97-5.82-.11-8.85,5.6-21.36,1.2,2.31.77,7.18.7,10.16Z" style="fill:#bc1765; stroke-width:0px;"/><path d="m92.01,209.71c-.3-1.42-.49-3.38-.7-4.9,3.37-.35-1.93-8.66,5.6-17.51-.23,10-1.76,13-4.9,22.41Z" style="fill:#da5e97; stroke-width:0px;"/><path d="m110.92,247.53l.7-.7c1.97,5.04,5.49,9.78,5.95,15.41q-3.33-7.35-6.65-14.71Z" style="fill:#56344d; stroke-width:0px;"/><path d="m115.13,375.01l-.7,1.4c-.18-.65-.75-2.31-1.4-2.8l1.05-.7c.29.12.5,1.23,1.05,2.1Z" style="fill:#e5809f; stroke-width:0px;"/><path d="m139.64,396.02c-1.65,1.95-3.33.03-3.5,0l.7-.7c.91.26,1.87.5,2.8.7Z" style="fill:#e5809f; stroke-width:0px;"/><path d="m279.73,526.31c-.09.92.06,1.88,0,2.8-.59,4.23,1.19,5.3,2.1,8.41l-1.4-1.05c.58,5.61-1.41,13.36,1.4,17.16-.65.26-2.86.09-3.5,1.05-1.29,1.92.48,40.59.7,46.23-1.95,2.38-3.33.32-3.5.35.16-13.89-.22-27.79,0-41.68.19-12.32,5.34-16.08-2.8-33.27,2.36.15,4.64.2,7,0Z" style="fill:#822643; stroke-width:0px;"/><path d="m270.62,526.31c5.7,29.19,6.69,29.08-8.41,21.01,2.67.33.2-1.41.7-5.25,2.41-18.61-3.25-22.87,7.7-15.76Z" style="fill:#822643; stroke-width:0px;"/><path d="m225.1,506.69c7.16,2.11,13.39,12.68,14.36,12.61,3-.23-4.1-9.92,19.26,3.15,7.65,26.72-4.21,15.95-5.95,17.16-1.65,3.07,5.76,5.73,9.46,7.7,15.1,8.06,14.1,8.18,8.41-21.01,1.49-1.12,1.26-.05,2.1,0,8.14,17.19,3,20.96,2.8,33.27-.22,13.89.16,27.79,0,41.68-10.12,1.48-20.32.35-30.47.7-16.69-14.24-43.94-37.56-62.34-47.63-15.84-8.67-8.49-1.84-15.76-.7-8.67,1.36-16-7.92-15.41-15.41,3.45-2.42,6.3-6.24,7-10.51l9.81,5.25-9.81-10.16c.4-7.53-.72-10.65-.7-11.21,1.37-31.64,7.86-62.58,12.61-93.86,2.37,14.11,4.94,28.23,7,42.38,1.59,10.9,3.67,49.53,9.81,56.74,3.25,3.82-2.46-14.52-2.8-19.61-1.1-16.45,3.16-22.93,2.8-6.3,19.22,33.65,8.22,2.16,10.16,1.05q10.68,6.13,21.36,12.26l4.55,15.76c2.63-7.16-1.72-13.41,1.75-13.31Z" style="fill:#bc1765; stroke-width:0px;"/><path d="m184.12,534.01c15.39,17.32,39.3,19.11,35.02,35.72-16.91-9.18-25.68-18.9-35.02-35.72Z" style="fill:#550b30; stroke-width:0px;"/><path d="m236.65,529.11c2.3-1.25,4.97,12-.35,14.36,12.77,19.26,1.53,7.31,1.4,13.31-.03,1.39,8.86,18.74,8.06,23.46-1.34.42-7.03-17.09-9.46-21.36-2.97-5.24-16.13-14.08-1.4-11.21-8.14-18.2-1.68-5.71,3.5-7.7l-1.75-10.86Z" style="fill:#43152f; stroke-width:0px;"/><path d="m158.55,527.71c.23-1.39-.08-3.34,0-4.9l9.81,10.16-9.81-5.25Z" style="fill:#550b30; stroke-width:0px;"/><path d="m219.14,558.53c.66.11,1.55-.17,2.1,0,4.47,1.35,12.53,20.22-2.1,0Z" style="fill:#550b30; stroke-width:0px;"/><path d="m286.03,552.22c-.45.05-1.04-.1-1.4,0,1.22-13.68-2.42-13.4-2.8-14.71-.91-3.11-2.69-4.17-2.1-8.41,2.74.24,5.24-.13,7.7-1.4q-.7,12.26-1.4,24.52Z" style="fill:#242735; stroke-width:0px;"/><path d="m282.53,520c1.29.91,4.14.34,5.6,0,4.07,2.69,3.67,3.83,0,7-.04.03.24.21-.7.7-2.46,1.27-4.97,1.64-7.7,1.4.06-.93-.09-1.88,0-2.8.03-.3,1.04-.59,1.4-5.95.56-.73,1.24,1.12,1.4-.35Z" style="fill:#43152f; stroke-width:0px;"/><path d="m400.91,26.89c8.04,6.78,19.12,10.39,26.62,0,.8.32,1.2.82,1.75,1.4,2.28-2.76,4.21-5.78,6.65-8.41,4.81,5.53-.04,15.28.7,16.46,25.99-2.51,22.52,21.93,23.11,23.82,4.6,14.48,42.38,8.09,52.88,1.75,13.16,5.33,22.86,10.31,27.67,24.52-.11,8.91-1.57,26,.7,30.12-1.4,3.12-2.19,4.44-4.9,6.65.92,7.78,1.63,17.24-2.8,24.17-.22-1.49-.42-2.72-.7-4.2,6.71-2.92-4.54-20.43-4.9-22.76-1.47-9.46,3.96-6.54,4.2-7,3.67-7.02-13.38-36.92-23.11-39.22-.19,3.17-2.29,9.67-2.1,11.56-20.26-1.48-39.44-8.49-58.84-14.01-10.73-13.63-36.61-36.34-52.18-43.43-2.77-1.26-15.03-5.3-19.96-7,16.73-7.18,15.49-2.6,25.22,5.6Z" style="fill:#a04352; stroke-width:0px;"/><path d="m427.52,26.89c-7.49,10.39-18.58,6.78-26.62,0,10.48-6.1,16.93-3.84,26.62,0Z" style="fill:#d87a6e; stroke-width:0px;"/><path d="m544.5,92.73c1.22,11.5,1.18,13.37-3.5,23.82-2.27-4.12-.81-21.21-.7-30.12l4.2,6.3Z" style="fill:#c76367; stroke-width:0px;"/><path d="m506.67,85.73c.65,6.64,25.12,8.72,14.01,33.27-1.02,9.44,9.51,12.95,4.9,28.37-1.49,3.52-2.34,3.78-4.2,6.65h-1.4c.76-5.62,1.43-12.32,0-17.86-1.17-4.54-6.04-6.99-7.7-16.11,1.05-2.06,3.97-7.92,4.2-9.46,3.7-24.79-13.3-12.52-14.71-12.26-.78.15-15.05,1.05-15.76.7-.73-.35-1.57-5.49-2.8-5.6-.64-.06-5.2,7-5.25,9.11h-.7c-.53-.15-.93.74-1.05.7-1.07-.36-15.87-18.05-7.35,1.4-4.1-7.48-16.06-26.63-21.01-32.92,19.4,5.52,38.57,12.53,58.84,14.01Z" style="fill:#822643; stroke-width:0px;"/><path d="m532.59,143.16c-.64-3.33-.27-7.38-3.15-9.81-2.68,4.6-1.1,7.48-3.85,14.01,4.61-15.42-5.92-18.93-4.9-28.37,11.11-24.55-13.36-26.63-14.01-33.27-.18-1.89,1.91-8.39,2.1-11.56,9.73,2.3,26.78,32.2,23.11,39.22-.24.47-5.67-2.45-4.2,7,.36,2.33,11.61,19.84,4.9,22.76Z" style="fill:#44273b; stroke-width:0px;"/><path d="m477.26,102.54l-4.2,10.51c-1.4-2.74-2.75-5.76-4.2-8.41-8.51-19.45,6.29-1.76,7.35-1.4.12.04.52-.85,1.05-.7Z" style="fill:#6a2533; stroke-width:0px;"/><path d="m519.98,136.16c-2.82-3.13-4.67-1.39-7.7-2.8-8.13-10.67-1.12-11.11,0-13.31,1.66,9.12,6.53,11.57,7.7,16.11Z" style="fill:#5a2a3a; stroke-width:0px;"/><path d="m544.5,92.73l-4.2-6.3c-4.81-14.2-14.51-19.18-27.67-24.52-10.5,6.34-48.28,12.73-52.88-1.75-.6-1.88,2.87-26.33-23.11-23.82-.74-1.18,4.11-10.93-.7-16.46,6-6.42,8.68-9.09,17.16-1.4,47.03-35.65,119.26,24.8,88.61,66.19-.09.69,2.5,5.24,2.8,8.06Z" style="fill:#d87a6e; stroke-width:0px;"/><path d="m532.24,57.71c1.92,1.56-2.42,8.98-4.2,8.41-3.59-1.15,3.46-9.01,4.2-8.41Z" style="fill:#142e3e; stroke-width:0px;"/><path d="m81.5,76.62c-1.75,3.96-6.59,16.54-5.6,19.96,1.34,2.72,3.36,2.29,3.5,2.45.31.35.99.98,1.4,1.4-3.42-.63-.91,4.61-3.15,4.9-.89.11-11.6-12.55-11.56-13.66,4.18-9.98,14.57-23.96,15.41-15.06Z" style="fill:#382a37; stroke-width:0px;"/><path d="m281.83,537.51c.38,1.31,4.02,1.03,2.8,14.71-.83.24-1.88,1.03-2.8,1.4-2.81-3.8-.82-11.55-1.4-17.16l1.4,1.05Z" style="fill:#2d936c; stroke-width:0px;"/><path d="m497.57,267.84c.08-2.09-.02-4.21,0-6.3v6.3Z" style="fill:#13282b; stroke-width:0px;"/><path d="m33.17,286.05c-1.6,11.09,4.11,8.18,4.2,8.76.13.79-2.58-.04-2.1,5.25.02.25.9,2.66,1.4,4.9.36,1.63,2.04,4.64,2.1,4.9.19.83-.19,1.98,0,2.8,2.55,10.84,5.69,21.62,9.11,32.22,1.3,4.04,2.62,6.46,2.8,7,1.62,4.76,3.17,9.28,4.9,14.01,9.59,26.23,20.74,51.99,31.52,77.75-5.05,1.88-17.61,2.81-22.06,0-4.28-2.7-29.67-40.46-33.27-47.28-2.37-4.49-8.32-16.81-9.81-21.01-3.42-9.66-12.12-47.47-10.51-56.04.17-.89,2.09-4.97,3.5-3.85-.04,1.15-.05,2.35,0,3.5.36,7.81,2.63,15.75,5.6,23.11-.36,8.78,4.8,16.64,7.7,24.52.51,1.39.84,2.8,1.4,4.2,3.96,9.89,7.86,22.32,15.41,29.07,1.76-13.75,9.01,17.95,12.61,10.51.79-1.63-7.44-26.9-9.11-35.02-1.39-6.75-1.86-16.58-2.8-20.66-.39-1.69.15-4.79-1.4-6.3-1.92-10.83-5.96-21.05-9.11-31.52-.1-.32-.17-1.75-.7-3.5-2.34-7.7-4.87-15.35-7-23.11.26-.28,1.18-4.76,5.6-4.2Z" style="fill:#750a3b; stroke-width:0px;"/><path d="m73.8,367.31c2.48,9.33,5.65,18.74,8.41,28.02,1.84,6.2,12.41,35.51,12.61,37.47.65,6.63-2.1,8.77-7.7,10.86-10.78-25.76-21.93-51.52-31.52-77.75,1.47-3.17,9.2,12.54,11.21,17.16,3.71,8.53,10.1,30.75,12.61,35.72.17.33,1.95,1.06,4.55,5.25-1.94-9.07-2.74-18.62-4.55-27.67-.12-.58-1.28-.12-1.4-.7-.82-7.14-2.09-14.69-3.5-21.71-.61-3.03-3.42-4.76-.7-6.65Z" style="fill:#822643; stroke-width:0px;"/><path d="m86.41,393.22c-3.26-.62-2.27,1.12-4.2,2.1-2.76-9.28-5.93-18.69-8.41-28.02-2.17-8.16-4-16.4-6.3-24.52-.24-3.26-.68-6.63-1.4-9.81-.79-3.47-1.34-7.02-2.1-10.51.52-.27,1.37-3.86,1.4-4.2,6.78,19.15,14.11,53.69,21.01,74.95Z" style="fill:#550b30; stroke-width:0px;"/><path d="m55.59,282.55c-5.34-.8-8.84,4.95-12.26,4.2.94,9.13-2.82,6.86-8.06,13.31-.48-5.29,2.23-4.46,2.1-5.25-.09-.58-5.8,2.34-4.2-8.76.45-3.11,4.77-7.07,7.35-9.11,15.3-12.08,12.85-4.48,15.06,5.6Z" style="fill:#822643; stroke-width:0px;"/><path d="m27.57,290.26c2.13,7.77,4.66,15.41,7,23.11-2.42,1.49-4.66-9.91-5.25-9.81l-.7,7c-3.3-4.29-2.78,3.91-7.7-.7-2.57,17.73,2.89,9.29-5.95,9.11-.05-1.15-.04-2.35,0-3.5.27-8.71.89-10.62,5.95-18.21,4.29,9.58,1.59-1.19,1.75-1.75.72-2.47,4.66-4.99,4.9-5.25Z" style="fill:#822643; stroke-width:0px;"/><path d="m68.2,291.66c2.84,16.48,6.03,32.94,9.11,49.38-5.18-12.47-8.73-25.8-11.91-38.87-.75-3.07-1.43-6.01-2.1-9.11l4.9-1.4Z" style="fill:#f7a68a; stroke-width:0px;"/><path d="m55.59,282.55c.46,2.11.92,4.2,1.4,6.3-7.74-1.22-14.91,12.9-20.31,16.11-.5-2.24-1.38-4.65-1.4-4.9,5.24-6.45,9-4.18,8.06-13.31,3.41.75,6.92-5,12.26-4.2Z" style="fill:#bc1765; stroke-width:0px;"/><path d="m62.59,264.34c.2,3.8,1.51,8.7,2.1,12.61.32,2.1,1.3,4.28,1.4,4.9.56,3.35,1.53,6.51,2.1,9.81l-4.9,1.4c-2.31-10.73-4.21-17.12-4.9-28.72h4.2Z" style="fill:#bc1765; stroke-width:0px;"/><path d="m56.99,288.86c.72,3.15-.03,2.67,0,2.8-8.16,3.92-12.72,11.43-18.21,18.21-.06-.26-1.74-3.28-2.1-4.9,5.4-3.21,12.57-17.33,20.31-16.11Z" style="fill:#bc1765; stroke-width:0px;"/><path d="m110.92,440.15c1,.05,1.98,1.38,2.1,1.4l.7,3.5c-2.37-.21-14.14,2.85-14.01,0,.87-.54,2.9-5.29,11.21-4.9Z" style="fill:#822643; stroke-width:0px;"/><path d="m496.17,461.87c.78-.13,2.46.57,2.8,1.4-7.09,6.21-13.1,8.87-21.01,13.31-12.64-4.76-27.55-15.9-39.93-19.61l1.4-1.4c2.34.58,10.3,2.75,10.86,2.8,17.06,1.58,3.98-4.74-.35-10.51-.38-1.72,1.31-1.65,2.45-1.4,3.91.86,31.41,16.13,36.42,16.81,5.75.78,6.88-1.32,7.35-1.4Z" style="fill:#382a37; stroke-width:0px;"/><path d="m484.61,480.78c1.76-.47,28.09,14.06,32.22,16.11,1.03.51,20.53,6.33,11.21,9.81-6.05,2.26-35.31-17.55-44.83-18.21,4.1-1.44-1.06-7.05,1.4-7.7Z" style="fill:#a04352; stroke-width:0px;"/><path d="m438.03,456.96c12.38,3.71,27.29,14.86,39.93,19.61-.22.12.06.57-4.2,2.8-5.04-3.74-43.05-20.38-44.48-22.41-2.54-3.62,7.39-.41,8.76,0Z" style="fill:#822643; stroke-width:0px;"/><path d="m461.15,484.98c-.99.36-4.05,3.56-7,2.8-.07-.02.26-1.19-.35-1.4-13.02-4.53-25.21-13.81-38.52-18.21-3.67-7,44.16,16.71,45.88,16.81Z" style="fill:#822643; stroke-width:0px;"/><path d="m553.6,410.03c1.36,4.43-.92,4.95-4.9,6.3-3.41-9.85-14.96-15.15-14.71-17.16,1.03-8.31,14.98,2.39,19.61,10.86Z" style="fill:#c76367; stroke-width:0px;"/><path d="m544.5,430.35c-2.49,2.72-4.03,1.94-4.2,2.1-16.11-30.75-3.24-39.12,4.2-2.1Z" style="fill:#c76367; stroke-width:0px;"/><path d="m456.24,443.65c11.97,5.21,35.46,10.78,21.71,3.85l.7-1.05c3.52-.78,9.42-.32,12.61,1.4,4.67,2.53,7.06,9.12,4.9,14.01-.47.08-1.6,2.18-7.35,1.4-5.01-.68-32.51-15.95-36.42-16.81-1.14-.25-2.83-.32-2.45,1.4-.14-.18-1.97-1.59-2.1-2.1-.76-2.93.72-3.99.7-4.2,1.64-1.12,5.34,1.07,7.7,2.1Z" style="fill:#a04352; stroke-width:0px;"/><path d="m447.84,445.76c.13.51,1.97,1.92,2.1,2.1,4.33,5.76,17.41,12.08.35,10.51-.56-.05-8.51-2.23-10.86-2.8-.98-.24-3.51-3.17-11.91-2.45l11.91-3.15c.82.18,1.18.9,1.75,1.4,3.72-7.83,5.18-3.38,5.6-3.5,1.06-.3-1.82-3.88,1.05-2.1Z" style="fill:#822643; stroke-width:0px;"/><path d="m448.54,441.55c.02.21-1.46,1.28-.7,4.2-2.87-1.78.01,1.8-1.05,2.1-.42.12-1.88-4.33-5.6,3.5-.57-.5-.93-1.22-1.75-1.4-12.01-2.7-35.16-12.99-8.41-6.3-1.98,4.48,8.18,2.72,9.81.7.14-.18,1.25-4.01,1.4-4.2,1.66-2.12,5.85-3.71,6.3,1.4Z" style="fill:#a04352; stroke-width:0px;"/><path d="m440.83,444.35c-1.63,2.02-11.79,3.77-9.81-.7,3.39,2.8,5.86-1.01,9.81.7Z" style="fill:#c76367; stroke-width:0px;"/><path d="m482.86,494.79c-.08-.03-.63-1.87-1.4-1.05-.26,1.53,1.3.93,1.4,1.05,8.7,9.96,16.02,14,7,32.57-9.09,18.74-28.96,34.51-49.73,22.41,14.39-2.57-2.2-20.02,5.25-21.36,1.64-.29,3.91,4.27,4.2,4.2.47-.12.5-2.75,5.25-8.06,7.15-7.98,15.57-14.82,23.11-22.41-8.38-5.16-17.48-9.06-25.92-14.01l2.1-.35c2.96.76,6.02-2.45,7-2.8,6.1-2.2,6.96-2.65,12.61-5.6,4.27-2.23,3.98-2.68,4.2-2.8,7.92-4.44,13.92-7.1,21.01-13.31,1.49-1.31,3.89.24,1.05-3.5,15.07-6.05,28.39-16.4,40.28-27.32.17-.16,1.72.61,4.2-2.1,4.64-5.07,6.47-7.48,4.2-14.01,3.98-1.35,6.26-1.87,4.9-6.3,12.95,23.67-27.82,34.71-36.77,51.83-17.77,6.63-32.07,20.1-50.08,26.27,18.35,7.16,10.79,2.23,13.66,1.05,2.08-.86,32.9,15.98,37.82,18.21,4.94,2.24,20.15,4.57,17.86,9.46-3.23,6.89-43.84-18.6-53.23-22.06Z" style="fill:#c76367; stroke-width:0px;"/><path d="m482.86,494.79c-.1-.12-1.66.48-1.4-1.05.77-.82,1.32,1.02,1.4,1.05Z" style="fill:#382a37; stroke-width:0px;"/><path d="m79.4,124.25c-.89,1.68-2.12,7.74-2.8,9.11-3.69,7.39-8.32,14.65-12.61,21.71-1.26-5.07-3.85-16.21-5.6-20.31l8.76-11.91c1.16.4-4.59,14.82-1.05,13.66,14.38-30.03,6.71-19.17,9.81-12.61,1.14,2.42,1.01,1.49,3.5.35Z" style="fill:#43152f; stroke-width:0px;"/><path d="m86.41,103.94c-1.9,3.13-2.64,2-2.8,2.45-.47,1.27,1.22,5.46-2.1,10.16-.61-5.32.93-10.83-.7-16.11,3.13,3.15,2.67,6.29,5.6,3.5Z" style="fill:#491927; stroke-width:0px;"/><path d="m201.28,15.68c-4.24,3.37-9.61,4.47-10.51,4.9-2.4.33-2-.67-2.1-.7-4.03-1.28-27.28,8.49-32.57,11.91-2.14,1.91-5.26,5.47-7.35,7-1.63,1.19-3.28,2.29-4.9,3.5-1.95.37-2.33-.74-2.45-.7-1.38.48-22.13,14.24-24.52,16.11-12.67,9.95-17.09,18.1-26.27,29.42-3.4,4.2-7.14,8.32-11.21,11.91-.14-.16-2.16.27-3.5-2.45-.99-3.42,3.86-16,5.6-19.96.25-.56,5.59-7.75,7-10.16.33-.56-1.29-1.83-.7-2.8,1.39-2.3,12.1-14.06,14.36-15.76,11.6-8.73,26.63-4.55,25.57-22.76,20.83-19.15,13.09-15.67-3.5-.7,3.97,28.23-24.36-16.55-50.08,47.98-5.12-2.7-1.24-8-5.25-11.91,1.06.27,1.18.98,2.1-.35v-10.16c18.12-3.17,3.46-9.07,16.11-25.57,13.42-17.51,38.59-20.7,58.49-14.36,12.05-7.94,32.11-16.61,42.73-2.8,9.1.18,15.79,8.08,3.85,3.85,1.87,3.6,7.57,3.01,9.11,4.55Z" style="fill:#d87a6e; stroke-width:0px;"/><path d="m71,50v10.16c-.92,1.33-1.05.62-2.1.35-1.79-.46-1.95-.72-3.5-1.4.35-3.2,2.12-8.56,5.6-9.11Z" style="fill:#a04352; stroke-width:0px;"/><path d="m151.55,38.8c-26.67,23.14-50.84,49.72-69.34,79.85-.24-.26-.69-1.99-.7-2.1,3.32-4.69,1.64-8.89,2.1-10.16.17-.45.9.68,2.8-2.45.25-.41,2.71-2.29,2.8-2.45,8.8-15.87,10.9-20.76,25.57-33.97,4.61-4.15,11.98-7.88,10.16-9.81,6.19-5.29,12.4-10.54,18.91-15.41,1.62-1.21,3.28-2.31,4.9-3.5-.42.67,2.07.25,2.8,0Z" style="fill:#c15066; stroke-width:0px;"/><path d="m143.84,42.3c-6.52,4.87-12.72,10.12-18.91,15.41-11.01,9.42-22.37,18.27-31.17,30.12l-3.15-.7c9.17-11.32,13.59-19.47,26.27-29.42,2.38-1.87,23.13-15.63,24.52-16.11.12-.04.5,1.07,2.45.7Z" style="fill:#c76367; stroke-width:0px;"/><path d="m124.93,57.71c1.82,1.93-5.55,5.65-10.16,9.81-14.66,13.22-16.77,18.1-25.57,33.97-.09.16-2.55,2.04-2.8,2.45-2.93,2.79-2.47-.35-5.6-3.5-.42-.42-1.09-1.05-1.4-1.4,4.07-3.59,7.81-7.71,11.21-11.91l3.15.7c8.8-11.85,20.16-20.7,31.17-30.12Z" style="fill:#a04352; stroke-width:0px;"/><path d="m188.67,19.89c-12.87,3.46-32.25,17.26-37.12,18.91-.73.25-3.22.67-2.8,0,2.1-1.53,5.22-5.09,7.35-7,5.29-3.41,28.54-13.19,32.57-11.91Z" style="fill:#822643; stroke-width:0px;"/><path d="m81.5,76.62c-.84-8.9-11.23,5.08-15.41,15.06-.05,1.11,10.67,13.77,11.56,13.66,2.24-.29-.27-5.54,3.15-4.9,1.63,5.28.09,10.79.7,16.11.01.11.46,1.84.7,2.1-.66,1.95-1.84,3.78-2.8,5.6-2.49,1.14-2.36,2.07-3.5-.35-3.1-6.57,4.58-17.42-9.81,12.61-3.54,1.16,2.22-13.26,1.05-13.66l-8.76,11.91c-3.71-8.71-3.6-6-13.66-6.3l.35-1.4c19.18,3.15,26.28-11.66,25.92-14.36-.19-1.38-13.09-14.41-18.21-21.01-5.04-6.5-15.76-32.22-24.17-18.56.96-5.75-11.49-14.41-3.5-10.51,1.37.67,3.77,4.22,4.9,5.6,10.41-10.48,29.94,20.9,31.52,19.61.49-11.31,7.06-11.4,7.35-12.96.19-.99-4.52-6.41-3.5-15.76,1.55.69,1.71.94,3.5,1.4,4.02,3.9.13,9.2,5.25,11.91,25.72-64.53,54.05-19.75,50.08-47.98,16.59-14.96,24.33-18.44,3.5.7,1.06,18.21-13.96,14.04-25.57,22.76-2.26,1.7-12.97,13.46-14.36,15.76-.59.97,1.03,2.24.7,2.8-1.41,2.41-6.76,9.59-7,10.16Z" style="fill:#a04352; stroke-width:0px;"/><path d="m67.15,101.14c10.54,11.66,10,14.14-.35,1.05v-.7l.35-.35Z" style="fill:#6a2533; stroke-width:0px;"/><path d="m61.54,94.83c.71-.14,1.12.01,1.75.35,2.96,1.57,4.22,9.37-1.75-.35Z" style="fill:#6a2533; stroke-width:0px;"/><path d="m59.79,162.78c-.83,2.52-2.18,6.39-5.6,4.2-2.51-6.09-8.24-11.96-10.51-17.51-7.26-17.79,2.76,1.38,8.06-2.1,8.44,14.21,2.38-.46,0-11.21,5.08,7.04,5.15,21.1,8.06,26.62Z" style="fill:#382a37; stroke-width:0px;"/><path d="m511.58,276.95c5.23,3.57,10.07,8.96,14.71,13.31,2.24,2.1,1.96,3.36,2.1,3.5-1.4,5.67-3.32,11.2-4.9,16.81-6.37-8.72-13.42-16.93-22.41-23.11.36-2.16,1.84-13.64,3.15-14.01.39-.11,5.89,3.78,7.35,3.5Z" style="fill:#2d827d; stroke-width:0px;"/><path d="m427.52,422.64c-18.99,7.02-30.84-9.23-41.33-16.11,7.46-.28,21.77-5.69,17.51-7,7.53-.65,15.39-2.21,21.71-6.3,8.76-3.12,14.14-13.44,17.51-21.71,8.43,4.74,12.16,40.94-15.41,51.13Z" style="fill:#4abaa7; stroke-width:0px;"/><path d="m442.93,371.51c-3.37,8.28-8.75,18.59-17.51,21.71,3.83-2.48,13.93-11.5,2.8-8.41,3.04-2.71,8.4-10.16,9.81-14.01,1.9-.02,3.09-.32,4.9.7Z" style="fill:#382a37; stroke-width:0px;"/><path d="m403.71,399.53c4.26,1.32-10.05,6.72-17.51,7-2.08-1.37-2.74-1.7-4.9-2.8-4.74-2.42-8.92-4.59-14.71-3.5v-2.1c12.26.29,24.62,2.47,37.12,1.4Z" style="fill:#58a994; stroke-width:0px;"/><path d="m45.08,127.05l-.35,1.4c10.06.3,9.94-2.4,13.66,6.3,1.75,4.1,4.35,15.24,5.6,20.31-2.38,4.54-.63,4.66-.7,4.9-.51,1.87-1.17,3.75-1.75,5.6-.79-2.17-1.67-2.66-1.75-2.8-2.9-5.52-2.98-19.58-8.06-26.62,2.38,10.75,8.44,25.42,0,11.21-5.29,3.48-15.31-15.69-8.06,2.1-1.8,4.16-2.37-5.88-6.3-4.2-.89-2.78-.9-12.39-2.8-10.86-.26.21.43,1.99-.35,2.45-1.29.77-8.34-16.91-22.06-19.26,2.67-3.43-.94-3.05-.7-4.9.31-2.33,10.97,3.89-1.4-9.11,10.66,1.62,15.08,20.19,35.02,23.46Z" style="fill:#a04352; stroke-width:0px;"/><path d="m45.43,136.16c1.44.53,5.44,4.35,5.95,5.25,5.47,9.61-4.67-1.59-5.95-5.25Z" style="fill:#491927; stroke-width:0px;"/><path d="m44.73,131.26c.83-.28,3.2.88,3.15,1.05-.31,1.14-4.31-.66-3.15-1.05Z" style="fill:#6a2533; stroke-width:0px;"/><path d="m530.49,377.81c-4.36,12.26-7.21,21.84-13.31,33.62-6.1.61-6.69.86-4.9-5.95-3.25-1.23-6.35,16.54-12.96,24.17-2.7-1.37,12.26-27.6,4.55-29.42,1.7-7.86,4.18-16.01,3.5-24.17-3.55,10.24-6.15,20.75-9.11,31.17l-2.1-.7c4.76-15.01,9.73-29.89,14.71-44.83l19.61,16.11Z" style="fill:#2d827d; stroke-width:0px;"/><path d="m517.18,411.43c-5.06,9.79-13.96,27.27-25.22,30.82,4.27-13.99,8.8-27.68,11.91-42.03,7.7,1.82-7.25,28.05-4.55,29.42,6.61-7.62,9.71-25.4,12.96-24.17-1.79,6.82-1.2,6.56,4.9,5.95Z" style="fill:#0d5c5e; stroke-width:0px;"/><path d="m533.99,367.31c-.69,2.12-1.37,4.2-2.1,6.3-.48,1.39-.9,2.8-1.4,4.2l-19.61-16.11c1.17-3.5,2.32-7.02,3.5-10.51.07-.21-.07-.49,0-.7q9.81,8.41,19.61,16.81Z" style="fill:#4abaa7; stroke-width:0px;"/><path d="m503.87,400.23c-3.11,14.34-7.63,28.03-11.91,42.03-1.86.59-1.52.61-3.5,0,4.03-11.47,6.5-23.37,9.81-35.02,2.96-10.42,5.55-20.93,9.11-31.17.68,8.16-1.8,16.31-3.5,24.17Z" style="fill:#07373c; stroke-width:0px;"/><path d="m498.27,407.23c-3.31,11.65-5.78,23.56-9.81,35.02-2.59,4.13-3.17,1.71-4.2,2.1,4.26-12.52,7.91-25.23,11.91-37.82l2.1.7Z" style="fill:#0d5c5e; stroke-width:0px;"/><path d="m53.49,192.9c-.17.43.42,2.24-1.05,4.2-2.52-5.3-4.31-4.68-4.55-4.9-.12-.11.43-1.17-1.75-2.8-1.25,1.38,1.46,2.4,1.75,2.8,1.45,1.96,2.94,3.87,4.2,5.95-.33,1.58-2.04,4.31-2.1,4.55-1.86,1.48-1.85-.95-3.5-3.5-10.66-16.42-38.93-35.01-40.63-39.58-2.14-5.74,1.25-2.99,2.1-4.2.87-1.23-11.78-16,4.55-26.27,18.62,1.44-2.72-1.27-5.95,8.06-5.74,16.55,7.19,19.55,9.46,21.36,13.27,10.58,25.99,21.79,37.47,34.32Z" style="fill:#a04352; stroke-width:0px;"/><path d="m47.88,192.19c-.3-.4-3-1.43-1.75-2.8,2.18,1.63,1.63,2.69,1.75,2.8Z" style="fill:#550b30; stroke-width:0px;"/><path d="m534.69,297.26c11.45,12.06,14.83,18.82,11.21,35.72-.04.18-.41-.4-1.4,3.5-6.34,6.11-7.06-18.47-16.11-24.52,1.41-3.84,3.23-14.05,6.3-14.71Z" style="fill:#2d827d; stroke-width:0px;"/><path d="m534.69,297.26c-3.08.66-4.9,10.87-6.3,14.71-.09.25-.94,1.72-2.1,4.9-4.08,11.19-8.08,22.35-11.91,33.62-.07.21.07.49,0,.7-3.18-.56,5.04-12.19,2.1-15.41,1.91-5.89,3.16-12.26,4.9-18.21.69-2.35,1.43-4.63,2.1-7,1.58-5.61,3.5-11.14,4.9-16.81,1.76,1.76,4.51,1.62,6.3,3.5Z" style="fill:#07373c; stroke-width:0px;"/><path d="m541,345.59c-2.15,7.35-4.63,14.45-7,21.71q-9.81-8.41-19.61-16.81c3.83-11.27,7.83-22.44,11.91-33.62q7.35,14.36,14.71,28.72Z" style="fill:#d0ddb4; stroke-width:0px;"/><path d="m544.5,336.49c-.74,2.93-2.64,6.17-3.5,9.11q-7.35-14.36-14.71-28.72c1.16-3.19,2.01-4.65,2.1-4.9,9.05,6.05,9.77,30.62,16.11,24.52Z" style="fill:#2a9b92; stroke-width:0px;"/><path d="m121.43,508.09c-.18.2.21,1.51,0,1.75-.52.6-8.29,5.65-8.41,12.96-6.74,6.23-10.4,25.74-5.6,32.92-.14.08-.98,1.79-2.45,2.1-8.03,1.7-29.32-13.37-31.87-24.17-1.18-5.01-.58-6.88.7-11.56,1.87-6.86,7.05-13.16,11.91-18.21,15.02-15.6,16.51-12.34,25.57-5.6,3.13,2.33,7.56,6.74,10.16,9.81Z" style="fill:url(#e); stroke-width:0px;"/><path d="m78,469.57c14.95,9.06,2.22,8.03,11.21,14.71-9.91,2.43-17.9,9.5-24.52,16.81-2.15,2.37-7.39,10.53-8.06,10.51-3.18-.09-1.52-8.28-8.06-4.2v-2.1c.13-.08,1.71-.18,2.8-1.05l-7.7-8.06c2.35-8.06,24.1-25.31,30.82-26.62.94-.18,2.36.06,3.5,0Z" style="fill:url(#f); stroke-width:0px;"/><path d="m49.28,482.88c-2.55,2.46-7.77,9.34-9.81,12.61-3.74,6-6.09,12.25-9.11,18.56.75,1.15,16.01-7.45,18.21-8.76v2.1c-4.72,2.95-15.26,11.43-21.01,12.61-.65.13-1.42-.07-2.1,0-7.14.69-13.53-2.53-18.21-7.7l1.4-.7c3.2,3.17,13.85,4.97,18.56,4.2,3.95-10.97,12.21-27.4,10.16-38.87-2.82-15.76-21.57-6.46-7.7-21.36.27-.29,1.71-1.05,2.1-1.4,2.66,5.84,10.72,15.02,12.61,18.56,1.45,2.73,2,9.6,4.9,10.16Z" style="fill:#822643; stroke-width:0px;"/><path d="m73.1,496.89c1.56,3.37,1.33,9.37,6.3,9.11-3.98,5.71-5.4,8.62-8.41,14.71-.7,1.41-2.85,7.72-3.85,7.7-5.89-12.39-11-13.56-1.75-25.22,1.88-2.37,5.24-4.52,7.7-6.3Z" style="fill:#822643; stroke-width:0px;"/><path d="m54.19,442.25c-1.55-.03-2.6.6-4.2.7-11.47.71-15.01,4.45-23.11,11.91-5.4,4.96-9.28,11.72-8.41,4.55.4-3.24,7.14-10.03,9.81-12.26,4.52-3.77,16.57-11.49,22.06-9.11,1.45.63,2.66,3.23,3.85,4.2Z" style="fill:#822643; stroke-width:0px;"/><path d="m35.98,419.84c.18.76.95.56,1.4,3.5-2.28.1-5.04,1.66-7,2.8-4.64-3.74-15.64,9.54-19.96,15.41-3.01-1.84,8.16-26.01,25.57-21.71Z" style="fill:#822643; stroke-width:0px;"/><path d="m27.57,444.35c-.51.45-.99,1.06-1.4,1.4-4.29,3.52-7.82,7.19-11.91,10.86-3.53-8.06,1.05-15.78,6.3-22.06-2.04,6.09,3.37,6.08,7,9.81Z" style="fill:#822643; stroke-width:0px;"/><path d="m37.38,423.34c.17,1.07-.09,2.37,0,3.5.25,3.28-.54,6.59.7,9.81-1.63,2.46-6.01,3.96-6.3,4.2,1.17-1.53-4.44-5.63-6.3-11.21,1.54-1.25,3.19-2.5,4.9-3.5,1.96-1.15,4.72-2.7,7-2.8Z" style="fill:#d87a6e; stroke-width:0px;"/><path d="m98.32,483.58c-.02,2.19-2.3,2.97-3.5,4.2-8.16.47-15.28,4.45-21.71,9.11-2.46,1.78-5.83,3.94-7.7,6.3l-.7-2.1c6.61-7.31,14.61-14.38,24.52-16.81,3.19-.78,5.87-.87,9.11-.7Z" style="fill:#491927; stroke-width:0px;"/><path d="m120.73,535.41c-1.69,6.36-3.44,9.75,1.75,4.2,4.83.72-12.94,26.33-9.46,7.7,1.54-5.23-1.16-15.07,7.7-11.91Z" style="fill:#2a9b92; stroke-width:0px;"/><path d="m114.43,527.01c-.75,2.42-1.57,4.13.7,5.6-6.23,4.19-10.91,16.3-5.6,22.41-3.17-1.19-1.86.56-2.1.7-4.8-7.18-1.13-26.69,5.6-32.92-.02,1.14.94,3.03,1.4,4.2Z" style="fill:#43152f; stroke-width:0px;"/><path d="m120.73,535.41c-8.87-3.16-6.17,6.68-7.7,11.91-.12.41-1.53,1.27-3.5,7.7-5.31-6.12-.63-18.22,5.6-22.41,11.62-7.81,5.78,2.14,5.6,2.8Z" style="fill:#2d827d; stroke-width:0px;"/><path d="m31.77,440.85c-1.38,1.12-2.86,2.33-4.2,3.5-3.64-3.72-9.05-3.72-7-9.81,1.59-1.91,2.97-3.33,4.9-4.9,1.87,5.57,7.47,9.68,6.3,11.21Z" style="fill:#a04352; stroke-width:0px;"/><path d="m86.41,500.39l-.7,3.5c-4.86,5.05-10.03,11.35-11.91,18.21l-2.8-1.4c3-6.09,4.42-9,8.41-14.71.17-.24,2.67-2.24,4.2-4.2,1.71-1.54,2.68-1.31,2.8-1.4Z" style="fill:#43152f; stroke-width:0px;"/><path d="m49.99,442.95c-3.55,2.41-7.53,4.08-11.21,6.3-2.63,1.59-2.66,2-2.8,2.1-.21.15-1.08-.02-4.2,2.8-.39.35-1.83,1.11-2.1,1.4l-2.8-.7c8.11-7.46,11.64-11.19,23.11-11.91Z" style="fill:#43152f; stroke-width:0px;"/><path d="m35.98,451.36c2.36,1.09,4.56,6.15,7,4.2,8.95-4.62,7.6-3.04.7,2.45,3.06,2.75,5,1.72,5.95,6.65q8.23-5.95,16.46-11.91c2.97,2.41,6.22,4.47,9.11,7h.7c-.14,5.86-1.99,6.66-2.1,7-8.52,4.82-17.38,9.22-24.52,16.11-2.9-.56-3.45-7.43-4.9-10.16-1.88-3.54-9.95-12.72-12.61-18.56,3.12-2.82,4-2.66,4.2-2.8Z" style="fill:#a04352; stroke-width:0px;"/><path d="m54.19,442.25c4.09,3.36,7.78,7.15,11.91,10.51q-8.23,5.95-16.46,11.91c-.96-4.93-2.89-3.9-5.95-6.65,6.9-5.49,8.25-7.08-.7-2.45l-4.2-6.3c3.67-2.22,7.65-3.89,11.21-6.3,1.61-.1,2.65-.73,4.2-.7Z" style="fill:#dc916e; stroke-width:0px;"/><path d="m38.08,436.65c-1.24-3.22-.45-6.53-.7-9.81,2.68,3.18,2.65,6.87.7,9.81Z" style="fill:#a04352; stroke-width:0px;"/><path d="m121.43,508.09c-2.59-3.07-7.03-7.48-10.16-9.81-9.06-6.74-10.54-10-25.57,5.6l.7-3.5c5.52-4.1,10.87-8.58,16.46-12.61h2.1c28.31,19.98,24.15,11.88,16.46,20.31Z" style="fill:#2f2627; stroke-width:0px;"/><path d="m94.81,487.78c-6.7,6.88-7.65,9.44-11.21,14.01-1.53,1.97-4.03,3.96-4.2,4.2-4.97.27-4.75-5.73-6.3-9.11,6.44-4.65,13.55-8.63,21.71-9.11Z" style="fill:#a04352; stroke-width:0px;"/><path d="m89.21,470.97c4.25,3.44,8.94,6.34,12.61,10.51-.17.11-.98,2.62-3.5,2.1-3.23-.17-5.92-.08-9.11.7-8.99-6.68,3.74-5.65-11.21-14.71,4.23-.22,7.2.54,11.21,1.4Z" style="fill:#d3bb85; stroke-width:0px;"/><path d="m74.5,469.57c-6.72,1.3-28.47,18.55-30.82,26.62.22,2.74-4.57,1.2-4.2-.7,2.04-3.26,7.26-10.15,9.81-12.61,7.14-6.89,16-11.29,24.52-16.11-.43,1.35-.97,2.38.7,2.8Z" style="fill:#43152f; stroke-width:0px;"/><path d="m42.98,455.56c-2.44,1.95-4.65-3.11-7-4.2.14-.1.17-.51,2.8-2.1l4.2,6.3Z" style="fill:#a04352; stroke-width:0px;"/><path d="m276.93,69.62c0,10.5-.7,21.08-.7,31.52-11.64,10.15-2.54-11.14-18.91-19.26,6.06-4.28,12.62-16.63.35-17.86-4.17-.42-8.31,3.5-8.06-1.05.34-6.18,13.24-9.3,27.32,6.65Z" style="fill:#4abaa7; stroke-width:0px;"/><path d="m281.13,110.94c0,.23,0,.47,0,.7-.01,5.41.7,5.99.7,6.3,0,5.49-.71,11.21-.7,16.81,0,2.8,0,5.6,0,8.41.01,5.84-.01,11.67,0,17.51.02,9.34.67,18.74.7,28.02.09,27.31.16,54.64,0,81.95-.03,4.44.05,8.87,0,13.31-.11,10.25-1.22,20.62,0,30.82-4.11-.94-4.65-1.42-4.9-1.4.18-8.86-.24-17.76,0-26.62.69-25.27.84-49.66.7-74.95,5.47-31.6.85-63.74,2.8-95.61l-3.5-.35-.7-1.4h.7c1.33-.92-.46-3.55,4.2-3.5Z" style="fill:#43152f; stroke-width:0px;"/><path d="m136.84,131.96c-11.91.26-6.74-27.4-3.5-35.72,13.74,21.57,2.9,30.46,3.5,35.72Z" style="fill:#bc1765; stroke-width:0px;"/><path d="m407.21,145.97c.08.92-.13,1.9,0,2.8.23,1.64.98,5.68,1.4,7-4.45,17.35-5.06,35.42-6.3,53.23-4.44,2.39-8.2,17.11,3.5,15.41-.36,3.62.04,8.67,0,12.61-22.98-11.35-47.32-20.15-72.5-25.22l-6.3-11.91q-6.13,3.5-12.26,7c-1.78-5.79,28.06-29.82,13.66-31.52-5.15-.61-7.86,8.96-11.91,11.91-.83-.02-11.23-9.25-12.96-10.51-13.72-16.21-18.67-10.57-6.3-26.97l-16.11-6.65c0-2.8,0-5.6,0-8.41,3.41,1.67,8.83,8.65,12.96,5.6,1.78-1.32.8-3.22,1.05-3.5.58-.67,3.21-3.56,3.85-3.5,25.43,19.49,52.04,37.53,80.2,52.88-13.97-14.2-26.97-29.61-41.68-43.08-2.7-2.47-20.97-19.24-22.41-19.61-3.32-.86,9.99,17.08,10.86,18.56,1.01,1.73,3.43,6.17,3.15,7.35q-16.81-16.46-33.62-32.92-.7,8.06-1.4,16.11l-12.96-21.01c0-.23,0-.47,0-.7.03-11.44-.05-22.88,0-34.32,44.6,22.01,88.65,34.64,126.08,69.34Z" style="fill:#4abaa7; stroke-width:0px;"/><path d="m408.61,148.07l-1.4.7c-.13-.9.08-1.88,0-2.8,1.97,1.82,1.31,2.01,1.4,2.1Z" style="fill:#13282b; stroke-width:0px;"/><path d="m507.37,359.6c-3.69,10.98-7.35,22-11.21,32.92-9.12-1.12-2.97,13.3-16.46,12.61-2.56,1.25-7.65,16.97-11.56,18.21,4.37-19.29,14.45-50.07,20.31-74.25l18.91,10.51Z" style="fill:#2d827d; stroke-width:0px;"/><path d="m521.38,317.57c-1.75,5.95-2.99,12.33-4.9,18.21-1.37,4.22-3.48,8.36-4.9,12.61l-20.31-12.61c3.18-13.73,7.3-27.46,9.81-41.33,7.74,6.75,14.41,14.72,20.31,23.11Z" style="fill:#c1e6c6; stroke-width:0px;"/><path d="m496.17,392.52c-6.95,19.68-23,76.68-22.06,39.22-12.55,19.6-8.8,4.14-5.95-8.41,3.91-1.24,9-16.96,11.56-18.21,13.49.69,7.35-13.73,16.46-12.61Z" style="fill:#137369; stroke-width:0px;"/><path d="m511.58,348.39c-1.27,3.77-2.94,7.47-4.2,11.21l-18.91-10.51c1.05-4.34,1.79-8.93,2.8-13.31l20.31,12.61Z" style="fill:#4abaa7; stroke-width:0px;"/><path d="m490.56,318.27c-2.69,13.36-7.05,29.25-10.51,42.73-2.37-.28-.19,3.55-4.9,2.8,4.11-16.94,8.15-33.98,11.21-51.13.94.82,4.1,1.55,4.2,1.75.09.17-1.98,3.13,0,3.85Z" style="fill:#2d827d; stroke-width:0px;"/><path d="m523.48,310.57c-.67,2.38-1.41,4.65-2.1,7-5.91-8.4-12.58-16.36-20.31-23.11.06-.34-.33-4.98,0-7,8.99,6.18,16.04,14.4,22.41,23.11Z" style="fill:#4abaa7; stroke-width:0px;"/><path d="m425.42,393.22c-6.32,4.1-14.19,5.66-21.71,6.3-12.5,1.07-24.86-1.12-37.12-1.4-3.58-.08-6.39.44-9.81.7,5.55-3.33,30.81.35,35.02-3.5,1.79-1.64-1.55-1.6,0-3.5,8.53,2.07,19.36,2.74,27.67-.7.64-.26.26-1.36.35-1.4,2.41-1.12,6.53-3.23,8.41-4.9,11.12-3.1,1.03,5.92-2.8,8.41Z" style="fill:#43152f; stroke-width:0px;"/><path d="m405.11,369.41c.29,1.35,1.9.25,2.8,1.05.15.13-2.19.09-.7,1.75-8.82,1.37-12.46.9-21.01.7-5.68-.13-11.13-.18-16.81-.7,0-.47-.17-1.28.35-1.4,7.87-1.89,5.21,1.49-11.56-7-.22-3.42,1.54-3.26-1.4-6.3,16.13,6.79,30.2,16.44,48.33,11.91Z" style="fill:#66ceb9; stroke-width:0px;"/><path d="m410.01,225.12c-.03,1.72.71,4.09.7,8.41-.02,10.23-.56,20.63.7,30.82-.27-.21-3.67-2.01-4.9-2.45,1.04-4.55-.66-2.94-.7-3.15-.46-2.69-.05-16.37,0-21.71.04-3.94-.36-8.99,0-12.61.1-.98.96-1.97,1.4-2.8.12.19,2.32,2.05,2.8,3.5Z" style="fill:#242735; stroke-width:0px;"/><path d="m410.71,375.71c-1.94.55-3.91,1.36-4.2,1.4-2.45.39-11.55-.15-16.11,0,15.34-3.7.32-1.81-3.85-2.8-.52-.12-.36-.93-.35-1.4,8.55.2,12.19.67,21.01-.7.98-.15,3.53-.96,5.6-1.4,4.32-.92,5.64-2.08,5.95-2.1,6.74-.5-8.63,5.44-8.06,7Z" style="fill:#43152f; stroke-width:0px;"/><path d="m488.46,301.46c-.6,3.72-1.44,7.48-2.1,11.21-3.06,17.16-7.1,34.2-11.21,51.13-2.43,10-5.02,20.18-7.7,30.12-5.82-13.82-27.92-34.69-25.92-49.73.02,1.75.25,4.31.7,5.95.97,3.58,15.37,28.51,16.81,29.42.64.4,1.04.44,1.75.35,2.27-15.14,6.1-29.92,9.46-44.83.22-.96.5-1.88.7-2.8,1.36-6.09,2.94-12.09,4.2-18.21.77-3.73,2.12-7.52,2.8-11.21,6.96-3.92.28,18.15.7,19.26.05.14,2.3,1.51,2.8.7,0-8.85,5.41-27.52-1.4-32.57.07-.45-.06-.95,0-1.4.84-5.92,2.52-11.83,2.1-17.86-.68-.38-.99-1.26-1.4-1.75,4.69-4.43,4.02,2.77,4.2,3.15,3.05,6.61,4.56-3.55,6.3-.7l-2.8,29.77Z" style="fill:#242735; stroke-width:0px;"/><path d="m477.96,302.86c.75-4.07,1.49-8.51,2.1-12.61,6.81,5.05,1.39,23.72,1.4,32.57-.5.81-2.75-.57-2.8-.7-.42-1.11,6.26-23.19-.7-19.26Z" style="fill:#242735; stroke-width:0px;"/><path d="m477.61,333.68l1.05,3.85-5.25,28.37c1.01-7.02,2.07-24.98,2.45-26.97.06-.3,1.64.65,1.75-5.25Z" style="fill:#354755; stroke-width:0px;"/><path d="m406.51,209.71c1.14,2.88-4.25,4.23.7,11.91-.44.83-1.3,1.82-1.4,2.8-11.71,1.7-7.94-13.02-3.5-15.41,3.37-1.81,3.95.69,4.2.7Z" style="fill:#1f2529; stroke-width:0px;"/><path d="m411.41,203.4c-.56,7.11-1.27,14.6-1.4,21.71-.48-1.46-2.68-3.31-2.8-3.5-4.95-7.68.44-9.03-.7-11.91,7.12.21.88-4.93,4.9-6.3Z" style="fill:#2d827d; stroke-width:0px;"/><path d="m325.26,361.7c.5.37,2.02,1.3,2.1,1.4,1.34,1.75.01,1.86,0,3.5.39,4.71,10.94,7.92,11.91,5.95-16.15-9.74,14.16.8,10.86,2.45l-10.16.7c5.63,4.24,16.65,6.06,24.52,7,2.68.32,4.09,1.28,9.81,1.4,1.06.02.52-1.41,1.05-1.4,5.85.09,32.64-.36,34.32,0,2.04.44,3.99,4.62,3.85,1.4.13.12,1.27.58,1.4.7.29.27,1.09,1.79,1.4,2.1-10.56,4.87-22.39.12-33.62,1.4-2.19-.91-3.72-3.3-5.6-.7-6.4-1.37-12.12.11-17.86-.7-6.4-.9-14.26-7.29-15.06-4.2-1.44-.97-20.62-13.04-16.81-6.3-1.49-1.6-2.19-4.69-6.65-9.11-.41-.4-2.88-.6-3.85-1.4-2.18-1.8-3.64-4.92-6.3-6.3-1.32-3.15-3.65-5.64-5.6-11.91,3.31.58,9.17,7.19,14.36,11.21,1.8,1.39,5.68,2.61,5.95,2.8Z" style="fill:#d14b76; stroke-width:0px;"/><path d="m419.82,389.72c-.09.04.29,1.14-.35,1.4-8.31,3.44-19.13,2.77-27.67.7-3.4-.82-5.95-2.19-9.11-3.5,11.23-1.28,23.06,3.47,33.62-1.4.99.98,2.37,1.95,3.5,2.8Z" style="fill:#bc1765; stroke-width:0px;"/><path d="m406.51,377.11c1.96,2.67,4.6,4.77,7,7,.14,3.22-1.81-.96-3.85-1.4-1.68-.36-28.48.09-34.32,0-.54,0,0,1.42-1.05,1.4-16.67-10.11-6.19-6.25,16.11-7,4.56-.15,13.66.39,16.11,0Z" style="fill:#bc1765; stroke-width:0px;"/><path d="m263.62,253.83c-5.97.29-7.06,2.15-11.91,4.9.48-5.05-2.2-14.92-4.9-19.61.78-.2,1.25-.1,2.8-.7,7.12,5.19,13.03,5.01,14.01,15.41Z" style="fill:#bc1765; stroke-width:0px;"/><path d="m266.42,229.32c.39,6.28-.22,12.68-2.1,18.91-.86-4.27-1.77-8.21-1.75-12.61-6.54,5.86-5.07,2.29-10.16,1.4,2.74-5.3,8.09-8.54,14.01-7.7Z" style="fill:#bc1765; stroke-width:0px;"/><path d="m158.55,216.01c-2.46,1.27-4.27,3.23-7,4.2-1.02-1.3-.54-2.34-.7-2.8l1.75-23.82c3.47,7.16,5.16,14.55,5.95,22.41Z" style="fill:#d3647b; stroke-width:0px;"/><path d="m264.32,248.23c.39,1.94,1.46,3.64,0,5.6-.23,0-.47-.01-.7,0-.98-10.4-6.89-10.22-14.01-15.41.83-.32-2.19-2.27,2.8-1.4,5.09.89,3.61,4.46,10.16-1.4-.02,4.4.9,8.34,1.75,12.61Z" style="fill:#6a2533; stroke-width:0px;"/><path d="m254.51,417.74c.44.7.64,1.31,1.4,1.75-5.87,4.07-1.3,10.69,5.95,8.76.65.24.22,1.25.35,1.4-4.46-2.22-3.25,4.98-3.5,8.41-4.64,5.96-5.52,18.09-6.3,25.92-.1,4.8-4.18,9.15-8.41,7q1.75-28.89,3.5-57.79c-1.1-5.69-7.14-12.33-7.7-15.41-1.99-10.8,8.25-35.44,11.91-47.28h.7c-1.46,4.93-7.39,30.81-7.7,34.67-1.99,24.74,5.77,26.11,9.81,32.57Z" style="fill:#fccda2; stroke-width:0px;"/><path d="m241.91,468.87c-7.55-4.9-5.31-1.1-7-.7-3.2.75-4.5,1.14-4.9-2.8-.34-3.38,5.26-45.99,5.95-56.04,3.23-.52,8.36,55.2,5.95,59.54Z" style="fill:#fccda2; stroke-width:0px;"/><path d="m258.02,329.48c-2.06,6.78-4.21,13.54-6.3,20.31q-6.83,8.06-13.66,16.11c-2.93.95-5.43,2.65-8.06,4.2-2.5.7-6.64.87-8.41,1.4,3.11-4.62,7.14-8.14,10.51-12.61,10.46-8.18,17.74-20.04,25.22-30.82.11-.1.8-1.77,2.1-2.1-.44,1.45-1.09,2.47-1.4,3.5Z" style="fill:#550b30; stroke-width:0px;"/><path d="m227.9,465.37c-2.91.12-1.62,1.7-10.51,1.4l4.55-43.43c4.59,13.27,7.69,27.97,5.95,42.03Z" style="fill:#fcbe99; stroke-width:0px;"/><path d="m263.62,470.97c1.43-1.31,2.38-2.01,4.2-2.8-2.86,5.03,12.87-2.18,8.41,9.11-2.31-6.55-9.12-6.37-11.21,0-1.15.01-3-2.71-4.2-1.75-4.44,3.55,7.47,9.3-2.8,10.86,1.35-6.56.64-11.19-3.15-16.81-1.92,2.92-6.55,6.8-7.35,9.11-3.63-1.93-7.54-4.94-10.51-7.7-.13-.12.03-1.28-2.1-2.8,1.7-.4-.54-4.2,7,.7.12.08.29,1.18,2.1,2.1,4.22,2.15,8.31-2.21,8.41-7l8.06,10.51c3.34-.56,2.96-3.33,3.15-3.5Z" style="fill:#610b20; stroke-width:0px;"/><path d="m189.37,381.31c3.26,1.97-.88.39-.7,2.8-6.94,1.48-13.74,3.98-20.66,5.6-2.16-.14-5.46-1.51-7.35-1.4l2.8-4.2c5.91.65,13.08-.35,18.91-1.4,1.94-.35,5.29-.95,7-1.4Z" style="fill:#d14b76; stroke-width:0px;"/><path d="m257.32,328.08c-7.47,10.78-14.75,22.64-25.22,30.82,5.62-7.46,11.28-21.05,17.86-26.62.37-.31-.37,2.92,7.35-4.2Z" style="fill:#bc1765; stroke-width:0px;"/><path d="m230,370.11c-1.97,1.17-3.59,3.16-5.95,4.2-17.15,7.54-16.82,1.51-2.45-2.8,1.77-.53,5.9-.7,8.41-1.4Z" style="fill:#ea658f; stroke-width:0px;"/><path d="m65.39,318.27c.01-.14-1.6-1.27-.35-2.8.79.7.09,2.05.35,2.8Z" style="fill:#550b30; stroke-width:0px;"/><path d="m232.1,489.18c-.58-.13-5.67.64-11.21-2.8,2.55-26.74,11.65-17.62,11.21,2.8Z" style="fill:#c71152; stroke-width:0px;"/><path d="m237,470.97c2.96,2.77,6.88,5.77,10.51,7.7-.22.64-1.38,7.78-1.4,8.41-1.59,2.69-1.99-.64-4.9-1.4-.21-2.14-4.36-7.53-6.3-9.11-.1-1.53-4.21-7.91,2.1-5.6Z" style="fill:#bc1765; stroke-width:0px;"/><path d="m241.21,485.68c.89,9-3.3,5.4-5.6,4.9-.27-4.65-.4-9.37-.7-14.01,1.95,1.58,6.09,6.96,6.3,9.11Z" style="fill:#ffc7b4; stroke-width:0px;"/><path d="m182.37,400.23c14.05-1.89,26.71,8.25,25.22,22.76-5.82,12.31-7.39,26.42-12.61,39.22,4.05,1.72,8.35,2.25,12.61,3.15,3.16.67,6.58,1.29,9.81,1.4,8.89.3,7.6-1.28,10.51-1.4.7-.03,1.4.02,2.1,0,.4,3.94,1.7,3.55,4.9,2.8,2.13,1.52,1.97,2.68,2.1,2.8-6.31-2.31-2.2,4.07-2.1,5.6.3,4.64.43,9.36.7,14.01-1.19-.26-2.39-1.16-3.5-1.4.44-20.42-8.66-29.54-11.21-2.8-.23,2.41-.38,4.61,0,7,1.8.97,2.31,3.14,2.8,4.9.12.43-1.8,4.88,1.4,8.41-3.47-.1.88,6.14-1.75,13.31l-4.55-15.76q-10.68-6.13-21.36-12.26c-1.93,1.11,9.06,32.6-10.16-1.05.36-16.62-3.91-10.15-2.8,6.3.34,5.09,6.05,23.43,2.8,19.61-6.13-7.21-8.21-45.83-9.81-56.74-2.07-14.15-4.63-28.27-7-42.38l-3.5-4.2c4.96-3.89,8.6-12.39,15.41-13.31Z" style="fill:#550b30; stroke-width:0px;"/><path d="m186.22,435.25c3.6,4.57,4.56,11.59,3.85,17.16-2.24,17.72-9.14-2.97-3.85-17.16Z" style="fill:#bc1765; stroke-width:0px;"/><path d="m209.69,475.17c1.12.2,7.03,3.75,7.35,3.5.72-.55-.41-3.68,1.05-7,1.96,1.95-.45,10.47-.35,13.31-8.86-.09-8.29-2.49-8.06-9.81Z" style="fill:#c71152; stroke-width:0px;"/><path d="m197.78,478.68c-.44-2.92.32-7.29,0-10.51,5.64,1.15,3.14,3.82,6.3,14.36-3.69-.97-5.68.25-6.3-3.85Z" style="fill:#a60c3f; stroke-width:0px;"/><path d="m218.09,471.67c-1.46,3.32-.33,6.45-1.05,7-.32.25-6.23-3.31-7.35-3.5,0-.25-1.57-.79-.35-4.9.35-.27,8.24.88,8.76,1.4Z" style="fill:#c71152; stroke-width:0px;"/><path d="m210.74,489.18c5.25-2.88,10.98,7.97,8.41,9.81-.77.55-10.39-8.72-8.41-9.81Z" style="fill:#c71152; stroke-width:0px;"/><path d="m197.78,468.17c.32,3.22-.44,7.58,0,10.51-4.05-2.69-8.07-12.15,0-10.51Z" style="fill:#610b20; stroke-width:0px;"/><path d="m201.63,486.38c.39-.12,3.26.96,3.85,1.75,4.61,6.18-8.26-.44-3.85-1.75Z" style="fill:#822643; stroke-width:0px;"/><path d="m292.34,473.77c6.69,5.15,2.99,16.25,4.9,19.61-2.31,1.18-2.33,4.1-2.1,6.3q-7-.18-14.01-.35v-17.86c.85.07.62-.54.7-.7,5.2-10.19,8.29-6.84,10.51-7Z" style="fill:#c1e6c6; stroke-width:0px;"/><path d="m276.23,477.28c.2.56.64,1.77.7,2.1.31,1.72.08,7.19,0,9.81-.13,4.55.73,9.18-1.05,10.51-12.45-.3-12.7.64-12.96-5.6-.04-.85,1.84-16.01,2.1-16.81,2.09-6.37,8.89-6.55,11.21,0Z" style="fill:#fccda2; stroke-width:0px;"/><path d="m281.13,407.93c-.69,22.41.62,44.86.7,67.24.01,3.17-2.31,6.38,0,5.6-.08.16.15.77-.7.7-3.7,1.65,1.47,13.72-4.2,7.7.08-2.62.31-8.08,0-9.81,2.75-.93.82-5.52.7-10.51-.2-8.45,1.04-57.08,0-59.89-1.04-2.8-4.12,2.2-7,4.55,1.82-5.28,5.21-8.47,10.51-5.6Z" style="fill:#351825; stroke-width:0px;"/><path d="m296.54,503.89c-1.69,3.97,5.77,12.82-8.41,16.11-1.46.34-4.32.91-5.6,0,.09-.78-1.46-11.42-.7-15.76q7.35-.18,14.71-.35Z" style="fill:#66ceb9; stroke-width:0px;"/><path d="m258.02,486.38c-.21,1.04.28,1.63-.7,3.5-.02.04-.18.02-.7.7-.14.18-3.3,2.7-3.5,2.8-7.89,4.13-7.23.5-7-6.3.02-.62,1.18-7.77,1.4-8.41.8-2.31,5.43-6.19,7.35-9.11,3.79,5.62,4.5,10.25,3.15,16.81Z" style="fill:#ffc7b4; stroke-width:0px;"/><path d="m244.71,505.29c20.34,8.62,17.03-4.27.7-3.5,1.52-3.38,7.2-4.94,7.7-8.41.2-.1,3.37-2.62,3.5-2.8,2.87,17.92,6.05,31.73-7.35,21.71-2.38-1.78-4.29-4.02-4.55-7Z" style="fill:#c71152; stroke-width:0px;"/><path d="m265.02,477.28c-.26.81-2.14,15.96-2.1,16.81l-5.6-4.2c.98-1.88.49-2.47.7-3.5,10.27-1.56-1.64-7.31,2.8-10.86,1.2-.96,3.05,1.76,4.2,1.75Z" style="fill:#bc1765; stroke-width:0px;"/><path d="m244.71,505.29c-.15-1.69.04-2.02.7-3.5,16.33-.77,19.64,12.12-.7,3.5Z" style="fill:#c71152; stroke-width:0px;"/><path d="m297.24,503.19c-.68-1.52-1.89-1.48-2.1-3.5-.23-2.21-.21-5.12,2.1-6.3.18.32,6.25,3.14,6.3,3.85-3.81,1.93-1.35,6.88-6.3,5.95Z" style="fill:#7b6772; stroke-width:0px;"/><path d="m295.14,499.69c.21,2.02,1.42,1.98,2.1,3.5-.84-.07-.61.49-.7.7q-7.35.18-14.71.35c-.76,4.34.79,14.98.7,15.76-.16,1.47-.84-.38-1.4.35-.37,5.36-1.37,5.65-1.4,5.95-2.36.2-4.64.15-7,0-.84-.05-.61-1.12-2.1,0-10.96-7.11-5.29-2.85-7.7,15.76-.5,3.85,1.97,5.58-.7,5.25-3.69-1.97-11.1-4.63-9.46-7.7,1.74-1.21,13.6,9.56,5.95-17.16-23.37-13.07-16.26-3.38-19.26-3.15-.97.07-7.19-10.5-14.36-12.61-3.21-3.53-1.28-7.98-1.4-8.41l6.65,4.9c.44-.33.58-7.58.35-8.06-.24-.5-10.02-4.15-9.81-1.75-.38-2.39-.23-4.59,0-7,5.53,3.44,10.62,2.67,11.21,2.8,1.11.24,2.31,1.14,3.5,1.4,2.31.5,6.49,4.1,5.6-4.9,2.92.76,3.31,4.09,4.9,1.4-.23,6.81-.89,10.43,7,6.3-.51,3.47-6.19,5.03-7.7,8.41-.67,1.48-.85,1.82-.7,3.5.26,2.99,2.17,5.23,4.55,7,13.41,10.02,10.23-3.8,7.35-21.71.52-.68.68-.66.7-.7l5.6,4.2c.26,6.24.5,5.3,12.96,5.6,1.78-1.33.92-5.96,1.05-10.51,5.67,6.02.5-6.05,4.2-7.7v17.86q7,.18,14.01.35Z" style="fill:#550b30; stroke-width:0px;"/><path d="m223.69,498.29c-.49-1.76-1-3.94-2.8-4.9-.21-2.4,9.56,1.26,9.81,1.75.23.47.09,7.72-.35,8.06l-6.65-4.9Z" style="fill:#c71152; stroke-width:0px;"/><path d="m234.55,495.49c.71-.25,8.9.47,8.06,10.16-1.58,18.15-11.85-8.81-8.06-10.16Z" style="fill:#c71152; stroke-width:0px;"/><path d="m276.23,504.59c-2.3,1.42-1.08,2.71-1.4,4.9l-10.51-1.4c-.03-.39-2.04-4.87-1.75-7.7l12.61,1.4c1.55.95.82,2.15,1.05,2.8Z" style="fill:#c71152; stroke-width:0px;"/><path d="m264.32,513c13.88.35,10.02-.15,10.51-3.5.32-2.19-.9-3.49,1.4-4.9,1.55,4.4-.26,8.68,1.4,12.96l-1.05,1.05-11.91-1.4c-1.85-2.47-.17-2.92-.35-4.2Z" style="fill:#bc1765; stroke-width:0px;"/><path d="m274.83,509.5c-.48,3.35,3.37,3.86-10.51,3.5-.21-1.54.13-3.32,0-4.9l10.51,1.4Z" style="fill:#fe847d; stroke-width:0px;"/><path d="m290.24,225.82c1.34,3.15,3.57,7.37,5.6,10.16-11.89,1.18,1.9.74-4.9,7,1.74,2.99,4.67-.73,10.86,2.45,5.44,2.8,3.21,7.86,6.65,8.41.02,12.58,8.14,29.34,5.25,44.83q-1.93-9.46-3.85-18.91c-1.74-40.24-18.43-32.38-13.31-7-10.74-11.73-6.31,5.14,1.4,8.41,5.85,2.48,8.96.58,9.81,2.45-9.17,47.3,39.82,64.38,49.03,73.9,2.94,3.04,1.18,2.88,1.4,6.3-16.48-8.35-18.76-13.19-19.96-13.31-2.63-.27-3.69,6.49-7.35,3.5-7.72-6.91-9.9-9.5-15.41-18.21-3.03-4.8-2.13-3.94-.7.7.92,2.99,3.04,9.61,4.2,11.91l-1.4,2.1c-6.63-9.95-12.74-20.01-17.86-30.82-2.26,1.11,4.89,24.43,5.25,28.02,1.95,6.26,4.29,8.75,5.6,11.91,3.49,8.35,12.45,29.3,16.81,36.07,2.08,3.22,1.27-3.31,2.1-5.25.07-.17,1.61-2,2.45-2.8,4.47,17.73,5.97,36.17,10.86,53.93.82,2.97,1.71,9.32,2.8,11.56.33.67,8.8,11.2,9.46,11.56.65.35,1.2-.71,3.15,0-6,2.94-12.53,3.17-18.91,4.2-1.86-8.25-2.35-16.99-4.2-25.22-2.77-12.26-1.27-1.62-4.55-.7-1.67.46-5.25-1.57-7.35-1.4-.35-12.99-1.51-25.97-2.8-38.87h-1.4l-.7,44.48c-6.52,1.98-2.66-11.08-7.7-16.11-.16-6.26-1.32-12.6-.7-18.91,6.04-7.18,6.03-15.97,4.9-24.87-.71-5.57-15.56-53.12-18.21-58.49-2.43-12.33.34-44.56-14.71-44.83.05-4.43-.03-8.87,0-13.31.61-.07,1.82.28,2.1-.35,6.31-14.18,2.27-30.45,4.9-45.88.8.07,1.12.75,1.4,1.4Z" style="fill:#4abaa7; stroke-width:0px;"/><path d="m306.35,415.64c1.69-.05,2.67.85,2.8,1.75.38,2.55-.89,12.11-3.85,12.96-1.27.36-2.55-.64-4.55-.7-.29,0-2.86-3.08-4.2,1.05-.66,2.01-.76,39.91,0,42.38h-.7c-3.59-5.94-11.68-4.25-14.01,2.1-.08-22.39-1.39-44.83-.7-67.24,4.71,2.55,9.62,18.61,25.22,7.7Z" style="fill:#d0ddb4; stroke-width:0px;"/><path d="m300.74,429.65c2.86,13.58,4.3,27.45,4.2,41.33-8.18.78-6.48,8.35-8.41,2.1-.76-2.47-.66-40.36,0-42.38,1.35-4.13,3.92-1.06,4.2-1.05Z" style="fill:#9ad8c2; stroke-width:0px;"/><path d="m310.55,431.05c.35,13.52-.82,27.13.7,40.63-1.55.08-3.07-1.01-6.3-.7.1-13.87-1.34-27.74-4.2-41.33,2.01.06,3.28,1.06,4.55.7,2.97-.84,4.23-10.41,3.85-12.96-.13-.9-1.12-1.81-2.8-1.75.2-.14,3.22-3.17,3.5-3.5-.62,6.31.54,12.66.7,18.91Z" style="fill:#c1e6c6; stroke-width:0px;"/><path d="m335.07,443.65c-.51.05-1.98-.25-2.1.35-.26,1.29,1.51,21.92,1.4,26.27-4.01.5-7.38.38-11.21.7-.19-9.8.26-19.63,0-29.42,2.1-.17,5.69,1.87,7.35,1.4,3.28-.92,1.78-11.56,4.55.7Z" style="fill:#4abaa7; stroke-width:0px;"/><path d="m323.16,441.55c.26,9.79-.19,19.62,0,29.42-3.33.28-4.66.68-4.9.7v-24.52l.7-44.48h1.4c1.29,12.91,2.45,25.89,2.8,38.87Z" style="fill:#9ad8c2; stroke-width:0px;"/><path d="m331.56,491.28c-1.03.31,0,.78-2.1,1.4-2,.59-4.33,1.67-6.3,2.1-1.19.26-2.79-.56-2.8.7-.1-.11-2.24.4-2.8-1.05-.71-1.84-4.81-27.68,10.51-18.91q1.75,7.88,3.5,15.76Z" style="fill:#66ceb9; stroke-width:0px;"/><path d="m318.25,447.16v24.52c-2.32.15-4.68-.12-7,0-1.52-13.49-.35-27.1-.7-40.63,5.05,5.03,1.19,18.09,7.7,16.11Z" style="fill:#66ceb9; stroke-width:0px;"/><path d="m343.47,487.08c-.13.05.6,1.21-1.75,2.1-7.03,2.65-7.67,1.27-8.06,1.4-6.2-19.32,5.25-19.1,7.7-17.16.74.58,1.89,11.45,2.1,13.66Z" style="fill:#4abaa7; stroke-width:0px;"/><path d="m359.58,463.97c.06.22-.04.48,0,.7-.47-.05-1.11.1-1.4,0-1.95-.71-2.51.35-3.15,0-.66-.36-9.13-10.89-9.46-11.56-1.09-2.24-1.98-8.59-2.8-11.56,6.24,3.03,15.15,16.21,16.81,22.41Z" style="fill:#2a9b92; stroke-width:0px;"/><path d="m310.55,505.29c3.92,8.92-2.32,8.07-7,9.81-2.28-.61-1.8-12.4-1.4-12.96.35-.49,7.04-.54,7.35-.35.41.25.18,1.52,1.05,3.5Z" style="fill:#4abaa7; stroke-width:0px;"/><path d="m355.38,482.18c-2.97,1.41-5.49,2.25-8.41,3.5q-.7-6.13-1.4-12.26c9.89-6.15,8.7.21,9.81,8.76Z" style="fill:#4abaa7; stroke-width:0px;"/><path d="m335.07,443.65c1.86,8.22,2.34,16.96,4.2,25.22-.25.04-3.06,1.17-4.9,1.4.11-4.35-1.66-24.98-1.4-26.27.12-.6,1.59-.3,2.1-.35Z" style="fill:#9ad8c2; stroke-width:0px;"/><path d="m317.55,508.09c-2.55-9.78-.63-6.98,7-9.81,6.14,5.25-1.06,12.62-7,9.81Z" style="fill:#58a994; stroke-width:0px;"/><path d="m361.68,468.87c2.58,6.55-.35,9.08-.7,11.21-1.75-.07-2.84,1.41-4.2,2.1.77-4.62-2.81-16.11,4.9-13.31Z" style="fill:#2a9b92; stroke-width:0px;"/><path d="m359.58,464.67c.18.94-1.54.62-1.4,1.05.49,1.49,2.18-.21,3.5,3.15-7.71-2.8-4.13,8.69-4.9,13.31-.27.14-1.11-.14-1.4,0-1.11-8.54.09-14.91-9.81-8.76q.7,6.13,1.4,12.26c-.09.04.28,1.14-.35,1.4-.68.28-2.45-.28-3.15,0-.22-2.21-1.36-13.08-2.1-13.66-2.45-1.94-13.9-2.16-7.7,17.16-.71.23-1.34.47-2.1.7q-1.75-7.88-3.5-15.76c-15.32-8.77-11.22,17.07-10.51,18.91.56,1.45,2.7.94,2.8,1.05s.28,2.21,1.05,2.8c.59.46,1.4-1.5,3.15,0-7.63,2.83-9.55.03-7,9.81-.07-.03.12,1.33-1.4-.35-1.71-1.89,2.99-3.14-5.6-2.45-.87-1.98-.64-3.25-1.05-3.5-.32-.19-7.01-.14-7.35.35-.4.56-.88,12.35,1.4,12.96-1.21.45-1.69-1.17-2.1-.35.23,1.71-.78,3.06-1.4,4.55-2.11,5.05-6.47,20.92,1.75,20.31,3.64,2.05-6.25,8.48-8.41,15.41-1.4.29-2.07-25.61-1.75-28.37l-3.5.35c3.67-3.17,4.07-4.31,0-7,14.17-3.29,6.71-12.14,8.41-16.11.09-.21-.14-.77.7-.7,4.95.93,2.5-4.02,6.3-5.95-.06-.71-6.12-3.53-6.3-3.85-1.91-3.36,1.79-14.46-4.9-19.61,3.04-.22,1.88,1.37,3.5-.7h.7c1.93,6.25.23-1.32,8.41-2.1,3.23-.31,4.76.78,6.3.7,2.32-.12,4.69.15,7,0,.25-.02,1.57-.42,4.9-.7,3.82-.32,7.2-.2,11.21-.7,1.84-.23,4.65-1.36,4.9-1.4,6.38-1.03,12.91-1.27,18.91-4.2.29.1.93-.05,1.4,0Z" style="fill:#1f2529; stroke-width:0px;"/><path d="m312.65,477.98c.2.83-.02,2.84,0,4.2-4.51-1.73-3.75,6-9.81,13.31-12.33-11.43,6.38-31.48,9.81-17.51Z" style="fill:#8cd7cf; stroke-width:0px;"/><path d="m312.65,482.18c.05,4.33-1.43,10.91-2.1,15.41-5.34,1.16-4.61.77-7.7-2.1,6.05-7.31,5.3-15.04,9.81-13.31Z" style="fill:#9ad8c2; stroke-width:0px;"/><path d="m310.55,497.59c.67-4.5,2.15-11.08,2.1-15.41-.02-1.37.2-3.37,0-4.2,4.85,1.39,2.1,11.69,2.8,17.86-.55,1.32-3.66,1.48-4.9,1.75Z" style="fill:#7e9a9f; stroke-width:0px;"/><path d="m295.84,473.07c-1.63,2.07-.46.48-3.5.7-2.21.16-5.31-3.19-10.51,7-2.31.78.01-2.43,0-5.6,2.33-6.35,10.42-8.04,14.01-2.1Z" style="fill:#2f2627; stroke-width:0px;"/><path d="m327.36,376.41c3.12,3.35,22.06,23.86,24.52,24.52-2.63,12.28-3.05,32.21,4.9,42.03,1.33,4.75,3.88,9.06,5.6,13.66,1.07,2.86,1.6,10.33,2.8-1.05.79,5.62,4.18,5.57-5.6,8.41-1.66-6.2-10.57-19.39-16.81-22.41-4.89-17.76-6.39-36.21-10.86-53.93-.84.8-2.38,2.63-2.45,2.8-2.46.41-.93-2.3-1.4-3.85-3.18-10.51-12.92-17.63-11.21-20.66.97.8,3.45,1,3.85,1.4,4.46,4.42,5.16,7.51,6.65,9.11Z" style="fill:#2d827d; stroke-width:0px;"/><path d="m366.59,398.13v2.1c-5.21.98-7.5,1.74-8.41,7.35-.82,5.09,3.09,24.92,4.2,31.87.87,5.39,2.05,10.73,2.8,16.11-1.2,11.38-1.73,3.91-2.8,1.05-1.72-4.6-4.27-8.91-5.6-13.66-1.87-6.7-2.68-14.53-4.2-21.36q.7-10.33,1.4-20.66c.79-.14,2.52-.93,2.1-2.1.23-.02.47.02.7,0,3.42-.26,6.23-.78,9.81-.7Z" style="fill:#216270; stroke-width:0px;"/><path d="m390.4,421.24c-.77,14.64-5.9,33.94-8.41,49.38-1.36,8.37-.44,22.33-5.6,38.87-1.88-3.25,4.41-10.82-1.4-9.81.07-3.16.34-9.9,0-11.91-.25-1.44-1.85-5.42-3.15-5.6-4.78-.66-3.87,18.9-8.76,10.51-.02-.04-.34.28-.7-.7-.44-1.2.28-7.81-2.8-10.16.47-.57,1.27-.94,1.4-1.75.35-2.13,3.28-4.65.7-11.21-1.32-3.36-3.02-1.66-3.5-3.15-.14-.43,1.58-.11,1.4-1.05-.04-.22.06-.48,0-.7,9.79-2.84,6.39-2.78,5.6-8.41-.75-5.38-1.94-10.72-2.8-16.11,7.2,9.43,7.18-11.95,11.21,1.4-1.42-1.38-2.29-4.25-4.2-1.75,2.04,9.84.74,30.37,4.9,8.06.02.07,1.29-.24,1.4.35-2.16,6.58,4.56,10.07-3.5,15.41l3.85,3.15c2.3-4.82,6.5-4.32,4.9-8.41-3.11,6.62-2.6-1.62-1.75-3.15,1.37-2.48,3.97.63,4.9-.7.51-.73,3.13-15.28,3.5-17.51.71-4.27.52-17.93,2.8-19.96-.06,1.63.09,3.28,0,4.9Z" style="fill:#43152f; stroke-width:0px;"/><path d="m396,454.16c2.26,19.4,5.06,38.79,7.7,58.14,1.78,13.07,9.81,30.7-2.45,38.52-1.55.99-3.62,1.17-5.25,2.1-10.12,1.23-3.32-7.59-15.76-2.1-14.65,6.47-53.57,38.05-67.24,51.13h-31.52l-.35-42.38c3.34-3.22,4.11-2.34,4.9-7.35q.7-12.26,1.4-24.52c.94-.49.66-.67.7-.7l3.5-.35c-.32,2.76.35,28.66,1.75,28.37,2.16-6.93,12.05-13.36,8.41-15.41-8.22.61-3.86-15.27-1.75-20.31.13-1.4,5.5,3.48,5.6,3.85.6,2.21-2.92,16.94,2.1-2.1.96-1.28,5.33-1.34,8.76-6.65,5.42,3.46,13.14-.31,15.41-6.3,8.48-1.3,24.81-9.29,30.47-16.11.36.99.68.66.7.7-1.8,31.34,5.79-8.89,8.06-9.11.4-.04,3.01,3.33,3.85,4.2.34,2.01.07,8.75,0,11.91-.19,8.11-1.22,10.47-2.1,16.81-.03.18-1.72,3.92.7.7.87-1.16,2.21-5.8,2.8-7.7,5.17-16.54,4.24-30.5,5.6-38.87,2.51-15.45,7.64-34.74,8.41-49.38,1.62,7.86,2.18,23.22,2.1,31.87-.08,8.36-.78,28.53-1.4,36.42-.11,1.4-5.97,33.9-1.4,22.41,2.55-6.42,4.55-48.04,4.9-58.84l1.4,1.05Z" style="fill:#4abaa7; stroke-width:0px;"/><path d="m374.64,534.71l1.05,1.05c-5.87,7.77-12.34,17.33-19.96,23.46-1.58,1.27-16.7,11.13-17.51,10.51-2.53-1.96,5.73-14.15-10.16,1.05,7.05-18.18,32.5-22.97,46.58-36.07Z" style="fill:#07373c; stroke-width:0px;"/><path d="m391.8,416.34c2.27,12.51,2.74,25.23,4.2,37.82l-1.4-1.05c-.35,10.8-2.35,52.41-4.9,58.84-4.57,11.49,1.29-21.02,1.4-22.41.62-7.9,1.32-28.06,1.4-36.42.08-8.65-.48-24.01-2.1-31.87.09-1.63-.06-3.27,0-4.9.15-.14,1.23.14,1.4,0Z" style="fill:#2d827d; stroke-width:0px;"/><path d="m337.52,531.21c-4.12,5.1-22.24,24.8-3.85,17.16-7.84,9.22-15.38,18.42-19.96,29.77-1.59-5.94,8.04-18.14,8.06-19.26.07-4.62-3.58-.96-3.85-1.05-5.97-1.96,15.11-25.42,19.61-26.62Z" style="fill:#07373c; stroke-width:0px;"/><path d="m374.99,487.78c-.85-.87-3.45-4.24-3.85-4.2-2.26.22-9.85,40.45-8.06,9.11,4.89,8.39,3.98-11.17,8.76-10.51,1.3.18,2.91,4.16,3.15,5.6Z" style="fill:#242735; stroke-width:0px;"/><path d="m397.76,519.3c-.28,1.71-2.29,5.92-3.15,7.35-11.55,19.38-5.48-.56,3.15-7.35Z" style="fill:#03554c; stroke-width:0px;"/><path d="m376.39,509.5c-.59,1.9-1.93,6.54-2.8,7.7l-.7-.7c.89-6.34,1.91-8.7,2.1-16.81,5.82-1.02-.48,6.55,1.4,9.81Z" style="fill:#242735; stroke-width:0px;"/><path d="m326.31,527.71c1.11.29-4.09,17.65-6.3,16.81q3.15-8.41,6.3-16.81Z" style="fill:#137369; stroke-width:0px;"/><path d="m337.52,508.8c1.81.05.58,3.26.35,3.85-4.82,12.68-4.65-3.97-.35-3.85Z" style="fill:#081c27; stroke-width:0px;"/><path d="m373.59,517.2c-2.42,3.22-.73-.52-.7-.7l.7.7Z" style="fill:#03554c; stroke-width:0px;"/><path d="m381.29,403.73c7.99,8.61,14.63,9.31,10.51,12.61-.17.14-1.25-.14-1.4,0-2.28,2.03-2.09,15.69-2.8,19.96-.37,2.23-2.99,16.78-3.5,17.51-.93,1.33-3.53-1.78-4.9.7-.85,1.53-1.36,9.77,1.75,3.15,1.59,4.08-2.6,3.59-4.9,8.41l-3.85-3.15c8.06-5.34,1.34-8.83,3.5-15.41-.11-.59-1.39-.28-1.4-.35-.64-3-.6-5.98-.7-6.3-4.03-13.35-4.01,8.03-11.21-1.4-1.12-6.95-5.02-26.78-4.2-31.87.91-5.61,3.19-6.37,8.41-7.35,5.79-1.09,9.97,1.08,14.71,3.5Z" style="fill:#43152f; stroke-width:0px;"/><path d="m373.59,440.85c.1.32.06,3.3.7,6.3-4.17,22.32-2.86,1.79-4.9-8.06,1.91-2.5,2.79.37,4.2,1.75Z" style="fill:#2d827d; stroke-width:0px;"/><path d="m360.98,480.08c-.13.81-.93,1.18-1.4,1.75,3.08,2.34,2.36,8.96,2.8,10.16-5.66,6.82-21.99,14.81-30.47,16.11-2.27,5.99-9.99,9.77-15.41,6.3-3.43,5.31-7.79,5.37-8.76,6.65-5.02,19.04-1.5,4.31-2.1,2.1-.1-.37-5.48-5.25-5.6-3.85.62-1.49,1.63-2.84,1.4-4.55.41-.82.89.8,2.1.35,4.69-1.73,10.93-.89,7-9.81,8.6-.69,3.89.56,5.6,2.45,1.52,1.68,1.34.32,1.4.35,5.95,2.81,13.15-4.56,7-9.81-1.76-1.5-2.56.46-3.15,0-.77-.6-.95-2.7-1.05-2.8,0-1.26,1.61-.44,2.8-.7,1.26,2.91,7.01,1.2,6.3-2.1,2.11-.62,1.07-1.1,2.1-1.4.76-.23,1.39-.47,2.1-.7.39-.13,1.03,1.25,8.06-1.4,2.36-.89,1.62-2.05,1.75-2.1.7-.28,2.47.28,3.15,0,.63-.26.26-1.36.35-1.4,2.91-1.25,5.43-2.09,8.41-3.5.29-.14,1.13.14,1.4,0,1.36-.69,2.45-2.17,4.2-2.1Z" style="fill:#142e3e; stroke-width:0px;"/><path d="m352.23,489.18c2.58,3.29-3.55,7.95-7,8.41-7.96,1.05-6.18-4.12,7-8.41Z" style="fill:#08937d; stroke-width:0px;"/><path d="m337.52,494.79c9.17-.21-7.6,12.16-8.76,4.55-.34-2.26,8.22-4.54,8.76-4.55Z" style="fill:#58a994; stroke-width:0px;"/><path d="m323.16,494.79c1.97-.43,4.3-1.51,6.3-2.1.71,3.31-5.05,5.01-6.3,2.1Z" style="fill:#1e423d; stroke-width:0px;"/><path d="m547.3,167.68c-3.38,2.73-9.82,5.72-13.66,8.41-7.51,5.26-12.35,12.62-13.66,9.46-5.21-12.6,13.59-14.67,21.36-18.56,1.93-.97,5.56-4.66,5.95-4.9,8.99-5.5,7.69-.61,0,5.6Z" style="fill:#aa7070; stroke-width:0px;"/><path d="m487.06,125.65c8.12,4.03,13.61-2.67,22.06-4.9-4.01,3.31-.92,10.72,3.15,12.61,3.04,1.41,4.89-.32,7.7,2.8,1.43,5.54.76,12.24,0,17.86h1.4c1.86-2.87,2.71-3.13,4.2-6.65,2.76-6.53,1.17-9.41,3.85-14.01,2.88,2.42,2.51,6.48,3.15,9.81.28,1.48.48,2.71.7,4.2.31,2.1-1.04,2.41-.35,2.8,15.06-8.91,18.43-4.4,14.36,11.91-.4.24-4.03,3.94-5.95,4.9-7.77,3.89-26.57,5.96-21.36,18.56,1.31,3.17,6.15-4.2,13.66-9.46,3.83-2.68,10.28-5.67,13.66-8.41,2.25,6.84,2.56,13.96,2.8,21.01.22,6.36-3.12,10.52,6.3,8.41,9.71,8.53,14.27,23.98-.7,29.07.3.38,1.4,1.98,1.4,2.1,1.2,36.24-27.98,8.36-34.32,50.78-6.59-6.47-10.17-8.81-18.91-12.26-.01-10.36,1.06-20.81.7-31.17,19.03-11.71,20.86-18.89-.7-4.9-.33-6.49-1.71-12.38-1.4-12.96.64-1.21,3.15,1.46,3.85,1.05,1.93-1.12-8.97-28.76-12.26-42.73-.27-1.14-.39-2.71-1.4-3.5,1.84-17.26-11.57-43.85-19.61-59.54l4.2-10.51h.7c-.04,1.83,3.51,9.61,4.2,12.26.43,1.65-4.02,6.43,4.9,10.86Z" style="fill:#2d827d; stroke-width:0px;"/><path d="m504.22,176.08c2.68-1.23,9.65,3.2,6.65,11.56-2.41,6.73-10.86-9.62-6.65-11.56Z" style="fill:#ad5777; stroke-width:0px;"/><path d="m504.57,235.62c-.05-1.57-.59-2.72-.7-4.9,21.56-13.98,19.73-6.81.7,4.9Z" style="fill:#aa7070; stroke-width:0px;"/><path d="m494.07,176.08l-2.1-.7c.19-1.06.59-1.75.7-2.8,1.01.79,1.13,2.37,1.4,3.5Z" style="fill:#13282b; stroke-width:0px;"/><path d="m512.28,120.05c-1.12,2.19-8.13,2.64,0,13.31-4.07-1.89-7.17-9.3-3.15-12.61-8.46,2.23-13.94,8.93-22.06,4.9,9.97-3.36,26.03-16.8,14.71-27.32,1.41-.27,18.41-12.53,14.71,12.26-.23,1.54-3.15,7.39-4.2,9.46Z" style="fill:#2a9b92; stroke-width:0px;"/><path d="m501.77,98.34c11.32,10.52-4.74,23.96-14.71,27.32-8.93-4.43-4.47-9.21-4.9-10.86-.69-2.65-4.25-10.42-4.2-12.26.05-2.1,4.62-9.17,5.25-9.11,1.23.12,2.08,5.25,2.8,5.6.71.35,14.98-.55,15.76-.7Z" style="fill:#4abaa7; stroke-width:0px;"/><path d="m482.51,106.74c.46.27.52,1.49.35,1.75-1.91,2.94-2.04-2.72-.35-1.75Z" style="fill:#08937d; stroke-width:0px;"/><path d="m73.8,367.31c-2.72,1.9.09,3.63.7,6.65,1.42,7.03,2.68,14.58,3.5,21.71.12.58,1.29.12,1.4.7,1.82,9.05,2.61,18.6,4.55,27.67-2.6-4.19-4.39-4.92-4.55-5.25-2.51-4.97-8.9-27.19-12.61-35.72-2.01-4.62-9.74-20.33-11.21-17.16-1.73-4.73-3.28-9.25-4.9-14.01,6.64-.89,12.15-4.58,16.81-9.11,2.31,8.12,4.14,16.36,6.3,24.52Z" style="fill:#a60c3f; stroke-width:0px;"/><path d="m110.92,318.27l-24.52,9.81c-2.56-13.49-4.29-26.6-5.6-39.93q11.21-5.6,22.41-11.21c.09.32,1.8,1.55,2.8,5.95,1.34,5.89,4.89,30,4.9,35.37Z" style="fill:#e3dfb0; stroke-width:0px;"/><path d="m62.59,314.07c.58,2.75.8,5.68,1.4,8.41.76,3.49,1.31,7.04,2.1,10.51-7.03,2.49-12.96,6.81-18.21,11.91-3.41-10.6-6.56-21.38-9.11-32.22,5.61-6.65,12.57-11.77,19.61-16.81,1.37,6.08,2.91,12.11,4.2,18.21Z" style="fill:#e3dfb0; stroke-width:0px;"/><path d="m58.39,295.86c-7.04,5.05-14.01,10.16-19.61,16.81-.19-.82.19-1.97,0-2.8,5.5-6.78,10.06-14.29,18.21-18.21.13.58.93,2.09,1.4,4.2Z" style="fill:#dba784; stroke-width:0px;"/><path d="m44.38,348.39c-7.33,5.71-12.7,9.06-16.11,18.21-2.9-7.87-8.06-15.74-7.7-24.52.41-9.99,7.53-18.92,14.71-25.22,3.14,10.47,7.18,20.69,9.11,31.52Z" style="fill:#f4e1b5; stroke-width:0px;"/><path d="m29.67,370.81c6.78-4.41,7.91-13.66,16.11-16.11.94,4.08,1.41,13.92,2.8,20.66,1.67,8.12,9.89,33.39,9.11,35.02-3.59,7.45-10.85-24.26-12.61-10.51-7.55-6.75-11.45-19.18-15.41-29.07Z" style="fill:#a60c3f; stroke-width:0px;"/><path d="m34.58,313.37c.53,1.75.6,3.18.7,3.5-7.18,6.3-14.3,15.23-14.71,25.22-2.97-7.37-5.25-15.3-5.6-23.11,8.84.19,3.39,8.62,5.95-9.11,4.93,4.61,4.41-3.59,7.7.7l.7-7c.6-.1,2.83,11.3,5.25,9.81Z" style="fill:#bc1765; stroke-width:0px;"/><path d="m67.5,342.79c-4.66,4.53-10.17,8.22-16.81,9.11-.19-.55-1.5-2.97-2.8-7,5.26-5.09,11.19-9.42,18.21-11.91.72,3.18,1.17,6.55,1.4,9.81Z" style="fill:#d14b76; stroke-width:0px;"/><path d="m45.78,354.7c-8.2,2.45-9.33,11.7-16.11,16.11-.56-1.41-.89-2.82-1.4-4.2,3.41-9.15,8.78-12.5,16.11-18.21,1.55,1.51,1.01,4.62,1.4,6.3Z" style="fill:#d14b76; stroke-width:0px;"/><path d="m89.21,470.97c-4.01-.86-6.98-1.62-11.21-1.4-1.15.06-2.56-.18-3.5,0-1.67-.42-1.13-1.46-.7-2.8.11-.35,1.96-1.15,2.1-7,.1-3.96-4.73-11.91,3.85-8.41,1.98.81-.65,8.34.35,12.26.77,3.01,5.04,4.06,9.11,7.35Z" style="fill:#2a9b92; stroke-width:0px;"/><path d="m97.26,446.46c3.76-.33-.39,4.71-2.8,7-1.54-1.15,1.89-6.92,2.8-7Z" style="fill:#08937d; stroke-width:0px;"/><path d="m263.62,253.83c.23-.01.47,0,.7,0,1.78.03,4.33-.01,5.95.7,6.52,2.86,3.17,5.09,1.05,9.11-4.08,7.75-8.19,11.91-17.51,12.61-1.12.08-7.31.23-7.7-.35.69-3.45,5.52-16.26,5.6-17.16,4.85-2.76,5.94-4.62,11.91-4.9Z" style="fill:#e3dfb0; stroke-width:0px;"/><path d="m277.63,211.81c-.1-17.72-.45-35.51-.7-53.23-.03-2.1.02-4.2,0-6.3-.14-12.14.1-24.28,0-36.42l3.5.35c-1.95,31.87,2.67,64.01-2.8,95.61Z" style="fill:#550b30; stroke-width:0px;"/><path d="m260.12,330.18c-3.18,6.3-5.71,13.56-7.7,20.31h-.7c.07-.21-.07-.49,0-.7,2.09-6.77,4.25-13.53,6.3-20.31l2.1.7Z" style="fill:#f6a0ab; stroke-width:0px;"/><path d="m281.83,314.77c7.6,1.74,11.36,7.22,14.71,14.01,2.65,5.37,17.5,52.92,18.21,58.49,1.13,8.89,1.13,17.69-4.9,24.87-.28.34-3.3,3.36-3.5,3.5-15.59,10.91-20.5-5.15-25.22-7.7-5.29-2.87-8.68.32-10.51,5.6-4.24,3.46-5.36,8.4-16.11,4.2-4.04-6.46-11.8-7.83-9.81-32.57.31-3.86,6.25-29.74,7.7-34.67,1.99-6.75,4.52-14.01,7.7-20.31,2.32-4.6,5.07-10.31,9.46-13.31.34-.23,6.95-3.47,7.35-3.5.25-.02.79.46,4.9,1.4Z" style="fill:#43152f; stroke-width:0px;"/><path d="m295.14,136.86q-6.65-9.46-13.31-18.91c0-.32-.71-.9-.7-6.3l12.96,21.01q.7-8.06,1.4-16.11,16.81,16.46,33.62,32.92c.28-1.18-2.14-5.62-3.15-7.35-.86-1.48-14.18-19.42-10.86-18.56,1.44.37,19.71,17.14,22.41,19.61,14.7,13.47,27.7,28.88,41.68,43.08-28.16-15.36-54.78-33.39-80.2-52.88-.64-.05-3.27,2.83-3.85,3.5Z" style="fill:#e3dfb0; stroke-width:0px;"/><path d="m290.94,204.1c-1.69,6.43-5.07,13.84-2.1,20.31-2.64,15.43,1.41,31.7-4.9,45.88-.28.63-1.49.28-2.1.35.16-27.31.09-54.64,0-81.95,4.9,3.35,6.57,10.11,9.11,15.41Z" style="fill:#4abaa7; stroke-width:0px;"/><path d="m276.93,286.75c-.24,8.86.18,17.75,0,26.62-.41.04-7.02,3.27-7.35,3.5-4.38,3-7.13,8.71-9.46,13.31l-2.1-.7c.31-1.03.96-2.05,1.4-3.5,1.22-4,4.12-7.87,4.9-12.26,1.64-9.16-1.01-25.23,4.2-27.67,1.29-.6,7.28-1.13,8.41.7Z" style="fill:#e3dfb0; stroke-width:0px;"/><path d="m296.54,328.78c-3.35-6.79-7.11-12.27-14.71-14.01-1.22-10.2-.11-20.57,0-30.82,15.05.26,12.28,32.5,14.71,44.83Z" style="fill:#e3dfb0; stroke-width:0px;"/><path d="m303.55,176.79c-7.44-5.41-14.92-10.78-22.41-16.11-.01-5.84.01-11.67,0-17.51l16.11,6.65c-12.37,16.39-7.41,10.76,6.3,26.97Z" style="fill:#e3dfb0; stroke-width:0px;"/><path d="m276.93,152.27c.02,2.1-.03,4.2,0,6.3q-8.23-7.35-16.46-14.71c-13.46,4.58-27.54,9.74-40.98,12.96,2.24-5.02,22.69-30.96,23.11-32.92.55-2.52-1.78-7.2-.35-10.86q17.34,19.61,34.67,39.22Z" style="fill:#e3dfb0; stroke-width:0px;"/><path d="m276.23,114.45l.7,1.4c.1,12.14-.14,24.29,0,36.42q-17.34-19.61-34.67-39.22c-1.43,3.66.9,8.34.35,10.86-.43,1.97-20.87,27.9-23.11,32.92,13.44-3.22,27.51-8.38,40.98-12.96q8.23,7.35,16.46,14.71c.25,17.73.6,35.51.7,53.23.14,25.29-.01,49.68-.7,74.95-1.12-1.83-7.12-1.3-8.41-.7-1.16-3.6,1.26-9.9,2.1-14.01.46-2.25,1.37-6.3.7-8.41,2.12-4.02,5.47-6.25-1.05-9.11-1.63-.71-4.17-.67-5.95-.7,1.46-1.96.39-3.66,0-5.6,1.88-6.24,2.49-12.63,2.1-18.91-.17-2.72-.33-5.35-.7-8.06-13.72-9.51-63.95-12.94-65.14-16.11l4.55-10.16c-12.8,3.81-24.86,9.48-36.77,15.41-.35-2.32-1.98-4.2-2.8-6.3-6.94-17.89-13.56-35.97-20.31-53.93,29.71-24.7,63.27-44.09,99.81-56.74l31.17,21.01Z" style="fill:#d3647b; stroke-width:0px;"/><path d="m268.87,171.18c4.93-2.1,4.36,9.76-.7,8.41-1.31-.35-.55-7.87.7-8.41Z" style="fill:#550b30; stroke-width:0px;"/><path d="m200.93,173.28c3.27-.41,15.79,16.11-1.05,1.05.43-.32.85-1.03,1.05-1.05Z" style="fill:#fee0d0; stroke-width:0px;"/><path d="m226.85,164.18c7.14.55-.23,6.52-5.95,2.45,2.36-.85,5.63-2.48,5.95-2.45Z" style="fill:#e9b2a8; stroke-width:0px;"/><path d="m303.55,176.79c1.72,1.25,12.12,10.49,12.96,10.51,4.05-2.95,6.76-12.52,11.91-11.91,14.4,1.7-15.44,25.73-13.66,31.52-2.55,3.23-5.87,1.57-7,2.1-3.59-7.04-14.49-14.13-7.7-.35-4.72,1.1-1.4,7.36-6.3,2.45-.23-1.09.67-2.38-1.4-2.1-1.29-2.25-1.29-4.67-1.4-4.9-2.54-5.3-4.21-12.06-9.11-15.41-.03-9.28-.68-18.68-.7-28.02,7.49,5.33,14.98,10.7,22.41,16.11Z" style="fill:#d3647b; stroke-width:0px;"/><path d="m295.14,136.86c-.25.29.73,2.19-1.05,3.5-4.12,3.05-9.54-3.94-12.96-5.6,0-5.6.7-11.32.7-16.81q6.65,9.46,13.31,18.91Z" style="fill:#e5809f; stroke-width:0px;"/><path d="m405.81,237.02c-.05,5.35-.46,19.02,0,21.71.35,3.49-13.9-3.88-22.06-6.3-23.54-6.99-48.18-10.24-72.5-13.31-6.52.68-12.98-10.29-21.01-13.31-.28-.65-.6-1.33-1.4-1.4-2.97-6.47.41-13.88,2.1-20.31.11.23.11,2.65,1.4,4.9.49.85.65,1.35,1.4,2.1.23,1.1,1.51,6.33,2.45,6.3,2.11-5.02,7.18-6.35,11.56-8.41,1.13-.53,4.45,1.13,7-2.1q6.13-3.5,12.26-7l6.3,11.91c25.18,5.07,49.51,13.86,72.5,25.22Z" style="fill:#e3dfb0; stroke-width:0px;"/><path d="m344.17,382.72c13.75,9.23,7.72,10.06,8.76,10.51,1.59.68,30.03-1.04,34.67-.7,1.46.75,3.37,1.16,4.2,2.8-4.22,3.85-29.47.17-35.02,3.5-.23.02-.47-.02-.7,0-.86.07-2.3,1.63-3.15,1.4-6.63-15.55-23.57-20.28-25.57-23.82-3.81-6.74,15.37,5.34,16.81,6.3Z" style="fill:#bc1765; stroke-width:0px;"/><path d="m382.7,388.32c3.16,1.31,5.71,2.68,9.11,3.5-1.55,1.9,1.79,1.86,0,3.5-.83-1.64-2.74-2.05-4.2-2.8-3.49-1.8-6.58-4.06-10.51-4.9,1.88-2.6,3.41-.21,5.6.7Z" style="fill:#822643; stroke-width:0px;"/><path d="m428.22,360.3c-4.44,4.65-9.58,7.82-15.41,10.51-2.07.44-4.62,1.25-5.6,1.4-1.49-1.66.85-1.62.7-1.75-.9-.8-2.51.3-2.8-1.05,19.57-4.89,22.73-30.37,23.82-47.28,2.36-36.69.84-43.01-17.51-57.79-1.26-10.19-.72-20.59-.7-30.82h.7c.02,9.68,13.85,19.07,21.01,35.37,8.61,19.6,9.03,43.58,5.6,64.44-2.78,16.93-7.77,22.1-9.81,26.97Z" style="fill:#e3dfb0; stroke-width:0px;"/><path d="m405.81,258.74c.04.21,1.74-1.39.7,3.15,1.23.45,4.64,2.24,4.9,2.45,18.35,14.78,19.88,21.1,17.51,57.79-1.09,16.91-4.24,42.39-23.82,47.28-18.13,4.53-32.2-5.12-48.33-11.91-9.21-9.52-58.2-26.6-49.03-73.9-.85-1.87-3.95.03-9.81-2.45,4.85-.38,5.06,2.27,9.81-.7.65-.41,1.26-.86,2.1-.7q1.93,9.46,3.85,18.91c2.89-15.49-5.24-32.25-5.25-44.83,0-7.77,1.2-8.08,2.8-14.71,24.31,3.07,48.95,6.32,72.5,13.31,8.16,2.42,22.42,9.79,22.06,6.3Z" style="fill:#43152f; stroke-width:0px;"/><path d="m397.76,282.55c3.42,39.26,13.41,34.34,17.16,40.98,6.48,11.47-6.09,34.79-16.46,36.77-15.92,3.04-48.7-13.95-58.49-26.97-10.23-13.61-10.69-29.94-3.85-45.18,1.08.23-3.38,13.87-2.45,22.06,1.82,16.04,42.93,11.69,53.58,3.85,9.91-7.29,9.08-20.62,10.51-31.52Z" style="fill:#49494a; stroke-width:0px;"/><path d="m309.85,279.75c-.84-.16-1.45.3-2.1.7-4.5-1.24-10.11-2.27-11.21-7.7-5.12-25.37,11.57-33.24,13.31,7Z" style="fill:#c1e6c6; stroke-width:0px;"/><path d="m311.25,239.12c-1.6,6.63-2.81,6.94-2.8,14.71-3.44-.54-1.21-5.61-6.65-8.41-6.18-3.18-9.12.54-10.86-2.45,6.8-6.27-6.98-5.82,4.9-7-2.03-2.79-4.27-7.01-5.6-10.16,8.04,3.01,14.49,13.99,21.01,13.31Z" style="fill:#2d827d; stroke-width:0px;"/><path d="m296.54,272.75c1.1,5.44,6.71,6.47,11.21,7.7-4.75,2.97-4.96.32-9.81.7-7.71-3.27-12.14-20.13-1.4-8.41Z" style="fill:#1e423d; stroke-width:0px;"/><path d="m355.38,369.41c4.68.73,9.28,2.37,14.01,2.8,5.68.52,11.13.57,16.81.7,0,.47-.17,1.28.35,1.4,4.17.99,19.2-.9,3.85,2.8-22.3.75-32.78-3.1-16.11,7-5.71-.12-7.12-1.08-9.81-1.4-10.54-5.41-11.91-8.02-24.52-7l10.16-.7c3.3-1.65-27.01-12.19-10.86-2.45-.97,1.97-11.52-1.24-11.91-5.95,12.63,4.53,2.08-.74,1.4-4.2-.04-.21,0-.48,0-.7,4.49-.42,15.52,8.33,16.46,8.41.56.04-2.43-2.67,10.16-.7Z" style="fill:#550b30; stroke-width:0px;"/><path d="m358.18,363.8c16.77,8.5,19.43,5.12,11.56,7-.52.13-.36.93-.35,1.4-4.73-.43-9.33-2.07-14.01-2.8-6.72-3.38-15.84-7.29-21.71-11.91-.63-.5-2.1-2.87-2.8-3.5,3.67,2.99,4.72-3.77,7.35-3.5,1.2.12,3.49,4.96,19.96,13.31Z" style="fill:#2a9b92; stroke-width:0px;"/><path d="m317.55,350.49c2.52,3.78,4.65,7.8,7.7,11.21-.27-.2-4.16-1.41-5.95-2.8-5.19-4.01-11.05-10.63-14.36-11.21-.36-3.59-7.51-26.91-5.25-28.02,5.12,10.81,11.24,20.87,17.86,30.82Z" style="fill:#491927; stroke-width:0px;"/><path d="m377.09,387.62c3.92.84,7.02,3.11,10.51,4.9-4.64-.34-33.08,1.38-34.67.7-1.03-.44,5-1.27-8.76-10.51.8-3.09,8.66,3.3,15.06,4.2,5.74.81,11.46-.67,17.86.7Z" style="fill:#d3647b; stroke-width:0px;"/><path d="m316.85,365.9c-1.71,3.03,8.03,10.15,11.21,20.66.47,1.56-1.06,4.26,1.4,3.85-.83,1.95-.03,8.48-2.1,5.25-4.36-6.77-13.33-27.72-16.81-36.07,2.67,1.38,4.12,4.51,6.3,6.3Z" style="fill:#137369; stroke-width:0px;"/><path d="m364.48,382.72c-7.87-.94-18.88-2.76-24.52-7,12.6-1.02,13.98,1.59,24.52,7Z" style="fill:#2a9b92; stroke-width:0px;"/><path d="m328.76,361.7c0,.22-.04.49,0,.7l-1.4.7c-.08-.1-1.6-1.04-2.1-1.4-3.06-3.41-5.19-7.43-7.7-11.21l1.4-2.1c1.1,2.18,7.92,12.15,9.81,13.31Z" style="fill:#4d8c88; stroke-width:0px;"/><path d="m327.36,366.61c.01-1.64,1.34-1.75,0-3.5l1.4-.7c.68,3.46,11.23,8.74-1.4,4.2Z" style="fill:#c36185; stroke-width:0px;"/><path d="m270.62,272.05c-2.31-1.87-3.26,3.64-3.5,3.85-3.15,2.82-9.79,4.1-14.01,4.9,5.31,10.42,2.94,18.4-.7,28.37-2.49-8.7-9.21-17.27-7.7-26.97,1.41-9.07,5.96-1.53,9.11-5.95,9.32-.7,13.43-4.86,17.51-12.61.67,2.1-.24,6.16-.7,8.41Z" style="fill:#822643; stroke-width:0px;"/><path d="m246.81,239.12c2.71,4.69,5.38,14.56,4.9,19.61-.09.9-4.91,13.71-5.6,17.16.39.59,6.58.43,7.7.35-3.14,4.43-7.69-3.12-9.11,5.95-1.51,9.69,5.22,18.27,7.7,26.97-4.44,12.17-13.41,23.1-23.11,31.52-17,14.75-67.48,41.31-87.56,23.82-1.34-1.17-3.31-4.58-4.2-6.3-7.32-14.1-9.93-65.58-3.5-79.85.59-1.32,1.32-2.32,2.1-3.5,9.44-14.19,17.79-8.2,14.01-18.56-1.84-5.03-5.89-3.34-.7-11.56.77,1.85-.67,3.86,0,5.25,1.21,2.49,8.75-.32,8.76,9.46,29.15-13.32,68.93-15.41,88.61-20.31Z" style="fill:#43152f; stroke-width:0px;"/><path d="m162.41,282.55c1.92,8.82.56,18.31,5.95,26.27,10.1,14.92,54.49,16.2,59.54,4.2.95-11.47,4.33,1.76-4.2,16.11-8.84,14.86-37.21,31.08-54.28,31.87-22.62,1.05-30.36-25.85-26.97-35.37,1.69-4.73,12.31-7.5,15.41-14.01q2.28-14.53,4.55-29.07Z" style="fill:#49494a; stroke-width:0px;"/><path d="m277.63,468.87c-4.73-2.75-4.81-2.87-9.81-.7-1.82.79-2.77,1.49-4.2,2.8-3.11,1.88-1.63-.58-2.1-2.1-.41-7.77,4.67-34.58.7-39.22-.13-.15.3-1.16-.35-1.4-7.25,1.93-11.83-4.69-5.95-8.76-.76-.44-.96-1.05-1.4-1.75,10.75,4.2,11.87-.74,16.11-4.2,2.88-2.35,5.97-7.36,7-4.55,1.04,2.81-.2,51.44,0,59.89Z" style="fill:#e3dfb0; stroke-width:0px;"/><path d="m258.72,438.05c-.55,7.52.64,23.84,2.8,30.82.47,1.53-1.01,3.98,2.1,2.1-.19.18.19,2.94-3.15,3.5l-8.06-10.51c.79-7.83,1.67-19.95,6.3-25.92Z" style="fill:#fcbe99; stroke-width:0px;"/><path d="m262.22,429.65c3.97,4.64-1.11,31.45-.7,39.22-2.16-6.98-3.35-23.3-2.8-30.82.25-3.43-.95-10.62,3.5-8.41Z" style="fill:#e5809f; stroke-width:0px;"/><path d="m277.63,468.87c.12,4.99,2.05,9.57-.7,10.51-.06-.33-.5-1.54-.7-2.1,4.47-11.29-11.27-4.08-8.41-9.11,5-2.17,5.08-2.05,9.81.7Z" style="fill:#ad5777; stroke-width:0px;"/><path d="m330.86,354c.7.63,2.17,3.01,2.8,3.5-3.14-.84-4.97,1.21-4.9,4.2-1.89-1.16-8.7-11.13-9.81-13.31-1.16-2.29-3.28-8.92-4.2-11.91l.7-.7c5.51,8.71,7.69,11.3,15.41,18.21Z" style="fill:#382a37; stroke-width:0px;"/><path d="m315.45,335.79l-.7.7c-1.43-4.64-2.33-5.5.7-.7Z" style="fill:#2a6952; stroke-width:0px;"/><path d="m353.98,400.93q-.7,10.33-1.4,20.66c1.53,6.84,2.33,14.66,4.2,21.36-7.95-9.82-7.54-29.75-4.9-42.03.42.11,1.61.09,2.1,0Z" style="fill:#216270; stroke-width:0px;"/><path d="m356.08,398.83c.42,1.18-1.31,1.96-2.1,2.1-.49.09-1.68.11-2.1,0-2.46-.65-21.39-21.17-24.52-24.52,1.99,3.53,18.93,8.26,25.57,23.82.86.22,2.29-1.34,3.15-1.4Z" style="fill:#550b30; stroke-width:0px;"/><path d="m307.75,209.01c-4.38,2.06-9.45,3.38-11.56,8.41-.95.03-2.22-5.2-2.45-6.3,4.9,4.91,1.58-1.35,6.3-2.45-6.78-13.78,4.12-6.69,7.7.35Z" style="fill:#58a994; stroke-width:0px;"/><path d="m293.74,211.11c-.75-.75-.91-1.25-1.4-2.1,2.07-.28,1.17,1.01,1.4,2.1Z" style="fill:#83857f; stroke-width:0px;"/><path d="m333.66,357.5c5.87,4.62,14.99,8.53,21.71,11.91-12.59-1.97-9.6.74-10.16.7-.94-.07-11.97-8.82-16.46-8.41-.06-2.99,1.77-5.04,4.9-4.2Z" style="fill:#43152f; stroke-width:0px;"/></g></svg>