<?xml version="1.0" encoding="UTF-8"?><svg id="Layer_2" xmlns="http://www.w3.org/2000/svg" viewBox="0 0 26.5 9.04"><g id="Layer_1-2"><path d="m18.13.57c2.23.82,2.93,2.95,3.8,3.55,1.05.73.81-.09,2.54.76-1.45,1.54.79,1.79,1.01,2.03.42.46.87,1.02,1.01,1.65-.56.73-16.08.43-18.26.38-2.74-.07-5.49-.45-8.24-.25.44-.5,1.21-.65,2.16-1.27,2.62-1.63,3.58.21,5.32-1.77.37-.42.7-1.46.76-1.52C11.01.93,13.74-1.03,18.13.57Z" fill="#9ce4d9" stroke-width="0"/><path d="m7.48,5.64c-1.75,1.99-2.71.14-5.32,1.77.24-.16.05-1.56,5.32-1.77Z" fill="#575471" stroke-width="0"/><path d="m13.19,2.6c4.16-.46,9.53,3.63,9,4.69-1.27.35-10.03.82-10.52.63-.51-.19-.62-1.44-.76-1.52-.23-.14-5.27.95-1.27-2.28.49-.4,3.04-1.46,3.55-1.52Z" fill="#c0f5e4" stroke-width="0"/></g></svg>