<?xml version="1.0" encoding="UTF-8"?><svg id="Layer_2" xmlns="http://www.w3.org/2000/svg" viewBox="0 0 85.33 29.92"><g id="Layer_1-2"><path d="m1.61,26.73c1.42.12,2.91-.09,4.34,0,2.28,1.72,8.79-.18,12.57,1.24.93-.37,4.64-1.44,2.12-.18,1.98-.14,3.05,1.09,5.4.71l-.35.71c-.94-.09-2.03.04-3.01,0-.42-.02-.83.01-1.24,0-1.68-.04-3.36.03-5.04,0,.14-1.35-5.06-.17-8.05-.53-3.09-.55-9.43-.61-7.61-1.95.18.05.57-.03.89,0Z" fill="#3f3d4f" stroke-width="0"/><path d="m1.61,25.49c-.75.74.4.63,0,1.24-.32-.03-.7.05-.89,0-1.25-.33-.69-1.16.27-1.42.23-.06.31.27.62.18Z" fill="#8b75bc" stroke-width="0"/><path d="m72.76,13.81c.45.13.84.3,1.24.53,1.5.85,2.88,2.46,2.74,4.25,1.77.18,2.04,1.98,2.3,2.12.8-.43,3.45,1.53,3.63,1.95.16.37.18,1.73.18,2.3-.41,0-.83,0-1.24,0-.78-1.64-2.17-1.69-2.3-1.77-.55-.32-.67-.33-.71-.35-2.43-1.5-2.28-2.87-3.36-3.54-.11-2.14-2.12-2.33-3.89-2.3-.57-1.03-2.59-.89-3.72-.71v-.53c.43-.09.99.13,1.42-.09.15-.19-.72-.86-.89-.97l.35-.89c.69.17,1.55-.8,4.25,0Z" fill="#9ce4d9" stroke-width="0"/><path d="m70.99,12.72c-.6-.06-1.24-.15-1.86-.19.62.04,1.26.13,1.86.19Z" fill="none" stroke-width="0"/><path d="m72.23,12.75c-.18.02-.36.02-.56.02.2,0,.39,0,.56-.02-.62-.85-1.15-1.22-1.95-1.86,1.93-2.97-1.51-6.2-4.6-5.75.12-.96-.17-1.34-.18-1.42-1.73.13.76,1.68,0,0s-2.77-2.72-3.36-2.66c-.62-.34-4.41-.35-5.66-.53-.28-.04-.39-.11-1.06-.18-.79-.08-3.2-.37-3.54-.35-3.5.2-4.51,1.67-7.26,3.19-.64.35-.34,1.56-4.07-.53-2.01-.5-4.4.06-6.2,1.06-.13.08-1.86,1.33-1.95,1.42-.05.05-.19.38-.89,1.24-.58.72-2.73,4.61-3.27,4.78-3-.28-3.64.72-5.04,3.01.31.23.54.16.89.18.39-1.92,2.47-2.59,4.16-2.12,1.67-.38,4.74-12.28,15.58-7.43,3.49-3.59,8.53-4.23,13.19-2.83.97.29,3.33,1.42,3.89,2.12.43.54.33.68.35.71.3.44-.1.99.97,1.77.53.25,1.15.12,1.68.35.31.14,1.95.24,2.12,1.95.53,0,.68-1.05,1.95,1.15-3.23.03-.73-.47-.71,2.74-.17.07-.34.15-.35.35.59.06,1.24.12,1.59.71.69.17,1.55-.8,4.25,0-.1-.8-.39-.87-.53-1.06Zm-1.25-.02c-.6-.06-1.24-.15-1.86-.19.62.04,1.26.13,1.86.19Z" fill="#6e4ae1" stroke-width="0"/><path d="m83.03,22.66c.29.11.42.09.71.18.14,1.03.89,1.72,1.59,2.39-.2.26-.88-.04-1.42-.09-.39-.04-.68-.17-1.06-.18,0-.57-.02-1.93-.18-2.3.12.01.29-.03.35,0Z" fill="#6c90ee" stroke-width="0"/><path d="m83.03,22.66c-.07-.03-.23.01-.35,0-.18-.42-2.82-2.38-3.63-1.95-.26-.15-.54-1.94-2.3-2.12.14-1.79-1.25-3.4-2.74-4.25.2-2.7,4.8,5.4,6.28,6.2,1.28.68,1.79-.64,2.74,2.12Z" fill="#0e1623" stroke-width="0"/><path d="m7.98,21.42c-.41.83.1.91-1.06,2.48-.2.27-.56.22-.27.53.7.02,1.4.4,2.04.53-.08.6.16.51.18.53.02.04-.04.49.35.53.39.04,1.22-.64,1.77-.53,3.16.92,2.53-.18,4.69.89,1.65-1.25,2.56-.42,3.54-.53.24-.03.39-1.08,4.51-.35,1.34.24,2.38,1.64,4.6.53.74.05.67.68.71.71.74.46,4.53-.25,5.49-.35.12-.01.21-.38,2.48-.35.93.22,1.46.64,2.48.71,1.11.07,1.54-.16,1.77-.18,1.03.34,1.98.12,3.01,0,2.53-.29,2.35-.51,2.48-.53.54-.07.64-.02,1.15-.35,1.7.61,4.19.35,4.69,2.48-8.79.86-17.74-.04-26.55.35-2.34.39-3.42-.85-5.4-.71,2.51-1.26-1.2-.19-2.12.18-3.77-1.42-10.29.48-12.57-1.24-1.43-.09-2.92.12-4.34,0,.4-.61-.75-.5,0-1.24,4.02-1.15.59-.59,2.04-1.77.22-.18,2.02-1.09,3.1-1.77.65-.41.95-.82,1.24-.53Z" fill="#7edbdb" stroke-width="0"/><path d="m44.62,3.19c-.64.35-.34,1.56-4.07-.53.2-.8,2.8.54,4.07.53Z" fill="#322a39" stroke-width="0"/><path d="m65.33,25.84l-.97.18.27.53c-2.47.96,1.69,1.05,1.59,1.77-4.95-.87-5.36,0-10,0,5.02-1,2.94-.9-.8-1.06.95-1.31-1.36-.52-.53-1.77.06,0,.12,0,.18,0,1.22.33,9.04,2.69,6.28.18,1.34-.06,2.64.22,3.98.18Z" fill="#ff91ff" stroke-width="0"/><path d="m47.8,24.61c1.33-.17,2.43.43,3.72.71.29.06.92.53.97.53,1.55.17,2.27-.34,2.39-.35-.83,1.25,1.48.46.53,1.77-.69.95-1.88.79-2.83.89-.5-2.13-2.99-1.87-4.69-2.48-.51.33-.61.29-1.15.35.37-.9-.16-.83-.18-.89-.09-.27.14-.34.18-.53.35.01.7.08,1.06,0Z" fill="#ff91ff" stroke-width="0"/><path d="m81.26,26.91c1.78.39,2.24,1.3.53,1.59-.05,0-.99-.47-.18.18.12,1.28-2.84-.57-3.54-.71.31-1.5,1.84-1.35,3.19-1.06Z" fill="#9ce4d9" stroke-width="0"/><path d="m63.65,28.68c.97-.12,3.47.45,4.69.62-3.16.44-7.59-.27-4.69-.62Z" fill="#8b84bb" stroke-width="0"/><path d="m81.79,28.5c-.14-.02-.19.04-.18.18-.81-.65.13-.17.18-.18Z" fill="#5e5b67" stroke-width="0"/><path d="m66.92,13.1c.59.06,1.24.12,1.59.71l-.35.89c-2.19-1.44-7.06-.22-9.38.8,0,.17,3.19.46,3.36.44-1.53.84-2.77,2.36-4.43,2.83,0-.03-.49.08-.53-.09,1.87-.92-.05-1.16-2.21-.97-1.17.1-5.05,1.77-4.16.18.85-.26,3.97-2.66,5.75-3.36.85-.34,2.47-.38,2.39-.89.51-.03,1.38.37,2.04.35,1.6-.71,3.5-.73,5.13-.18.28-.22-.16-.45-.09-.53.5-.56.28-.24.89-.18Z" fill="#7edbdb" stroke-width="0"/><path d="m71.52,22.48c.5.2.8.5,1.15.89,1.47-1.27,1.76.39,2.48-.71,1.5-.29,1.03,2.89,4.16.53.13.08,1.52.13,2.3,1.77-2.32,0-4.66.2-6.99.18-1.76-.02-5.59-.91-6.28,0-.43-.06-.54.41-.89.53-.09-.4.56-.73.53-.8-.07-.16-.59.04-.71-.44,1.1-.87.65-3.4,4.25-1.95Z" fill="#c0f5e4" stroke-width="0"/><path d="m71.52,19.65c1.88.54,1.73,0,.97-.18-.35-.08-.57.28-.97.18-.03,0-.41-.49-.27-.53,1.51-.13,2.53-.72,3.98.18,1.08.67.94,2.04,3.36,3.54-1.23,1.76-2.9-1.47-3.45-1.59-.91-.21-.65,1.15-3.27.89-.14-.01-1.15-.99-2.66-.35.22-.82,1.24-.07.53-1.06-1.41-1.98-2.63-.16-2.12-2.12,1.25.58,2.51.66,3.89,1.06Z" fill="#f2c5ff" stroke-width="0"/><path d="m67.63,15.75v.53c-1.54.26-7.4,2.65-8.32,4.25-.74-.66-1.2-.48-1.42-.53-.49-.77.03-.37-.18-1.24,1.65-.47,2.89-1.99,4.43-2.83.75-.07,1.82-.79,2.57-.89,3.78-.46-2.27,1.36-2.66,1.59-.23.14-.41.33,0,.35.28.02,4.74-1.07,5.58-1.24Z" fill="#8079a4" stroke-width="0"/><path d="m75.24,19.3c-1.46-.9-2.48-.31-3.98-.18-.14.04.24.52.27.53-1.39-.4-2.64-.48-3.89-1.06-.61-.05-1.21.14-1.77.35l-1.06-.35c.13-.04.64-.61,2.57-1.06.43-.1,3.64-.53,3.98-.53,1.77-.03,3.78.16,3.89,2.3Z" fill="#8f88b4" stroke-width="0"/><path d="m68.16,14.69c.17.11,1.04.79.89.97-.43.22-.98,0-1.42.09-.83.17-5.29,1.26-5.58,1.24-.41-.03-.23-.22,0-.35.38-.23,6.43-2.05,2.66-1.59-.75.09-1.82.82-2.57.89-.17.02-3.36-.27-3.36-.44,2.32-1.02,7.19-2.23,9.38-.8Z" fill="#c0f5e4" stroke-width="0"/><path d="m71.35,16.99c-.34,0-3.56.43-3.98.53-1.93.45-2.43,1.02-2.57,1.06-.4.13-.7.4-.97.71-1.51-.08-2.87.52-4.16,1.24h-.35c.92-1.6,6.78-3.99,8.32-4.25,1.12-.19,3.15-.32,3.72.71Z" fill="#a7f6f6" stroke-width="0"/><path d="m78.6,22.84s.16.03.71.35c-3.13,2.35-2.66-.82-4.16-.53-.72,1.1-1-.56-2.48.71-.36-.39-.65-.68-1.15-.89l.35-.35c2.63.26,2.36-1.09,3.27-.89.55.12,2.22,3.35,3.45,1.59Z" fill="#3b387b" stroke-width="0"/><path d="m57.01,1.95c.97.29,3.33,1.42,3.89,2.12.43.54.33.68.35.71.3.44-.1.99.97,1.77.53.25,1.15.12,1.68.35.38.5.56,1.66.97,1.95.67.47,1.09,0,1.15,0,.53,0,.68-1.05,1.95,1.15-3.23.03-.73-.47-.71,2.74-.17.07-.34.15-.35.35-.61-.06-.38-.38-.89.18-.64-1.72-2.61-2.14-3.72-3.45-3.35-7.54-12.5-9.36-17.97-2.92-.56.11-4.2-2.67-9.38.35-4.39,2.56-4.16,6.93-8.23,8.14-.7-1.13-1.55-1.02-2.66-1.06.39-1.92,2.47-2.59,4.16-2.12,1.67-.38,4.74-12.28,15.58-7.43,3.49-3.59,8.53-4.23,13.19-2.83Z" fill="#9ce4d9" stroke-width="0"/><path d="m24.09,14.34c1.1.04,1.95-.07,2.66,1.06.14.23.23.42.18.71v.18c-1.33-.48-2.83-1.3-4.25-1.42.13-.28.37-.44.53-.71.31.23.54.16.89.18Z" fill="#4a3757" stroke-width="0"/><path d="m66.04,8.85c-.06,0-.48.47-1.15,0-.41-.29-.59-1.45-.97-1.95.31.14,1.95.24,2.12,1.95Z" fill="#563cd0" stroke-width="0"/><path d="m26.21,22.84c.82.06.1,1.43-.35,1.77-.27.2-1.71.55-2.12.89-4.12-.73-4.28.33-4.51.35-.99.11-1.89-.72-3.54.53-2.16-1.07-1.53.03-4.69-.89-.03,0,.18-.24-.44-.53-.58-.09-1.77.02-1.86,0-.63-.13-1.33-.51-2.04-.53-.29-.31.07-.26.27-.53.48.09.8-.05,1.24-.18,1.5-.44,1.64-.36,2.48-.53l1.59.71c.27.81.58-.66,2.39,0,.59-1.88,1.32-.23,1.59-.18,2.48.52,2.1-2.09,5.13-.71.78-1.41,3.01-1.89,3.36-.18.5,0,1,0,1.5,0Z" fill="#c0f5e4" stroke-width="0"/><path d="m22.67,14.87c1.42.12,2.91.94,4.25,1.42.04.01-.04.25.71.53.91,1.84-.78-.55-2.3,1.59-2.46-2.85-6.38-2.71-8.41.53-4.12-1.42-4.67,1.85-4.96,1.95-2.07-.9-3.96.59-3.81,2.83-.44.13-.76.27-1.24.18,1.16-1.57.65-1.65,1.06-2.48.56-1.13,1.42-1.34,1.77-2.12.5-.02,1.92.1,2.21,0,.16-.06.07-.34.09-.35.55-.27.85-.62,1.24-1.06.22,0,.72-.25,1.59-.35,1.02-.12,1.69.22,1.86.18,1.4-2.13,3.37-3.05,5.93-2.83Z" fill="#6e4ae1" stroke-width="0"/><path d="m38.78,24.61c.24,1.2,4.86.16,7.79.53.02.05.55-.01.18.89-.13.02.05.24-2.48.53-.96-.37-2.05-.06-3.01,0-.23.01-.66.25-1.77.18-.54-.84-1.78-.7-2.48-.71-2.27-.03-2.35.34-2.48.35l-5.49.35s.04-.66-.71-.71c.03-.01-.07-.16.53-.27-.24-.39-.51-.21-.71-.27.02-.21.19-.28.35-.35,1.5.78,4.19.38,5.49-.89,1.61-.28,3.24.33,4.78.35Z" fill="#b884ff" stroke-width="0"/><path d="m25.86,24.61c.08.3-.19.42-.18.44.11.16.26.06.35.09.76.28,1.29.11,2.12.35.19.06.47-.12.71.27-.6.1-.5.25-.53.27-2.22,1.11-3.26-.29-4.6-.53.41-.34,1.85-.68,2.12-.89Z" fill="#b3a1ff" stroke-width="0"/><path d="m34.53,26.38c-.96.1-4.75.81-5.49.35l5.49-.35Z" fill="#563cd0" stroke-width="0"/><path d="m10.99,25.49c-.55-.11-1.38.57-1.77.53.08-.68-.16-.99-.35-.53-.01-.03-.26.07-.18-.53.09.02,1.28-.09,1.86,0,.62.29.41.52.44.53Z" fill="#c3beff" stroke-width="0"/><path d="m44.26,26.55c-1.03.12-1.98.34-3.01,0,.96-.06,2.04-.37,3.01,0Z" fill="#6e4ae1" stroke-width="0"/><path d="m39.49,26.73c-1.02-.06-1.55-.49-2.48-.71.7,0,1.94-.13,2.48.71Z" fill="#563cd0" stroke-width="0"/><path d="m9.22,26.02c-.39-.04-.33-.49-.35-.53.19-.46.44-.15.35.53Z" fill="#5c78eb" stroke-width="0"/><path d="m81.61,24.96c.41,0,.83,0,1.24,0,.38,0,.67.14,1.06.18,1.19.98-2.26,1.36-2.66,1.77-1.34-.29-2.88-.44-3.19,1.06-1.48-.29-2.82.23-2.39.53.99-.57,5.52.84,3.36,1.24-.41.08-5.21.12-6.73.18-2.02-.58-4.02-1.23-6.11-1.59.09-.72-4.07-.81-1.59-1.77.55-.21,1.69.04,1.86,0,.15-.04.03-.32.18-.35,3.78-.81,6.55-.24,4.07-.89-.51-.13-1.77-.15-2.39-.18.7-.91,4.52-.02,6.28,0,2.34.02,4.67-.17,6.99-.18Z" fill="#d28fff" stroke-width="0"/><path d="m68.34,25.14c.62.02,1.88.04,2.39.18,2.48.64-.29.07-4.07.89-.15.03-.03.32-.18.35-.17.04-1.31-.21-1.86,0l-.27-.53.97-.18c.78-.02,1.35.1,2.12-.18.35-.12.45-.59.89-.53Z" fill="#744085" stroke-width="0"/><path d="m70.2,27.44c5.27.52,5.64,1.85,1.77,1.06-.19-.04-1.8-.71-1.77-1.06Z" fill="#403045" stroke-width="0"/><path d="m73.56,25.84l4.69.09c-1.52.53-3.34,1.17-4.69-.09Z" fill="#572bb4" stroke-width="0"/><path d="m42.85,18.94c.05.87,2.05,2.38,3.1,2.12,1.48,1.98,3.05,1.24,5.04,2.12,2.23,2.53,5.13,1.27,5.58,1.24,1.3-.08,1.96.19,2.12.18.67-.06,2.8-1.49,6.2-.53,1.75-.39,2.77-1.34,2.92-1.42.47-.23.83-.83,1.42-.89,1.5-.64,2.52.34,2.66.35l-.35.35c-3.59-1.45-3.15,1.07-4.25,1.95-2.07,1.65-3.87-.2-5.58,0-1.99.8-4.44.9-6.64,1.06-.06,0-.12,0-.18,0-.12,0-.84.52-2.39.35-.06,0-.68-.47-.97-.53l-2.21-1.77c-1.18-.37-.53.29-1.5.18-1.68-.19-.88-1.71-3.63-1.77-2.38-4.65-3.49-1.88-4.6-1.59-7.49,1.96-4.35-1.93-6.37-2.12-1.17.64-3.96.39-5.66.35-.13,0,.56-.72-2.21,0v-.18c1.52-2.14,3.21.25,2.3-1.59,1.95.72,3.39,1.3,5.58.71,2.56,3.42,1.16,1.38,4.6,2.12,2.5-1.3,3.33-.71,5.04-.71Z" fill="#515b94" stroke-width="0"/><path d="m67.28,24.43c.11.49.64.29.71.44.03.07-.62.4-.53.8-.78.27-1.35.15-2.12.18-1.34.04-2.64-.24-3.98-.18,2.76,2.51-5.06.15-6.28-.18,2.19-.17,4.65-.26,6.64-1.06,1.7-.2,3.51,1.65,5.58,0Z" fill="#c0f5e4" stroke-width="0"/><path d="m47.8,23.72v.89c-.36.08-.71.01-1.06,0-2.64-.11-5.32.05-7.97,0-1.54-.03-3.17-.63-4.78-.35v-.18c1.38-.17.32-.74-.18-1.06-1.02-.67-2.3-.86-2.57-1.06-.45-.33-.12-.9-.53-1.06-.47-.18-1.66.83-1.95.89-.63.12-.89-.18-.97-.18-1.88.07-3.85-.73-5.66,0-.91.38-.83-.18-.89-.18.27-1.74,2.31-2.22,3.72-2.66.47-.14.33-.17.35-.18,2.78-.72,2.08,0,2.21,0,1.7.04,4.49.29,5.66-.35,2.03.2-1.11,4.08,6.37,2.12,1.11-.29,2.22-3.06,4.6,1.59,2.75.06,1.95,1.58,3.63,1.77Z" fill="#c0f5e4" stroke-width="0"/><path d="m46.74,24.61c-.03.19-.26.26-.18.53-2.93-.37-7.55.67-7.79-.53,2.65.05,5.33-.11,7.97,0Z" fill="#8a5fd2" stroke-width="0"/><path d="m51.52,25.31c-1.29-.28-2.39-.88-3.72-.71v-.89c.98.11.33-.55,1.5-.18l2.21,1.77Z" fill="#a6f4f5" stroke-width="0"/><path d="m66.04,13.28c-.07.08.37.31.09.53-1.64-.55-3.53-.53-5.13.18-.65.02-1.52-.38-2.04-.35-9.08.53-8.67,2.57-12.04,3.36-1.2.28-2.23.51-1.24-.53.42-.44,3.86-2.6,4.51-2.83,2.72-.97,8.32-.81,6.2-1.42-5.26-1.49-12.98,4.62-13.9,4.96-3.2,1.15-5.15-1.97-6.37-1.95l-3.01.53c-.69.03-1.07-.21-1.68-.18-.23.01-1.34,1.02-4.51.53.05-.28-.03-.48-.18-.71,4.07-1.22,3.85-5.58,8.23-8.14,5.18-3.02,8.83-.24,9.38-.35,5.47-6.43,14.62-4.62,17.97,2.92,1.11,1.31,3.08,1.73,3.72,3.45Z" fill="#c0f5e4" stroke-width="0"/><path d="m58.96,13.63c.08.5-1.54.55-2.39.89-1.78.7-4.91,3.1-5.75,3.36-.02,0,.13-.08-.35,0-.07.01-.03-.34-1.5.18-.72-.6-1.14-.65-2.04-.71v-.35c3.37-.79,2.95-2.84,12.04-3.36Z" fill="#8f88b4" stroke-width="0"/><path d="m50.81,17.88c-.89,1.59,2.99-.08,4.16-.18,2.17-.19,4.09.05,2.21.97.04.17.52.06.53.09.2.87-.31.47.18,1.24-.6-.15-1.17-.22-1.77-.35-.12-.03.37-1.02-2.04-.18-.76-1.29-4.81,1.36-3.63-1.59.49-.08.34,0,.35,0Z" fill="#4767ba" stroke-width="0"/><path d="m46.92,17.35c.89.05,1.31.11,2.04.71,1.47-.51,1.43-.16,1.5-.18-1.18,2.95,2.87.3,3.63,1.59,2.4-.84,1.92.15,2.04.18-.15.86-.51-.24-.35.53.51,2.51,2.25,1.26,3.63,2.3.72-.03,1.42-3.57,4.6-.53.95-1.22,2.55-.89,3.98-1.06.58-.07,1.18-.15,1.77-.18.71.99-.31.24-.53,1.06-.59.06-.95.66-1.42.89q-6.77.71-13.54,1.42c-.93-.21-1.37-1.74-3.81-1.59-.09-4.13-2.22-2.24-5.04-2.3v-1.42l-2.12.53c-.38.07-.24-.35-.27-.35.69-1.34,2.54-1.67,3.89-1.59Z" fill="#c0f5e4" stroke-width="0"/><path d="m67.63,18.59c-.51,1.97.71.14,2.12,2.12-.59.03-1.19.11-1.77.18-3.79-.14-6.38-.62-3.1-1.06.26-.14.16-.58.97-.89.56-.21,1.16-.41,1.77-.35Z" fill="#c3beff" stroke-width="0"/><path d="m71.52,19.65c.4.1.63-.26.97-.18.75.17.9.72-.97.18Z" fill="#718be4" stroke-width="0"/><path d="m57.89,20c.22.06.68-.13,1.42.53h.35c-.16,2.3-2.82.48-3.89-.35-.16-.77.21.33.35-.53.6.14,1.17.2,1.77.35Z" fill="#7edbdb" stroke-width="0"/><path d="m65.86,18.94c-.81.31-.71.74-.97.89-3.28.44-.69.92,3.1,1.06-1.43.18-3.03-.16-3.98,1.06-3.18-3.04-3.88.5-4.6.53-1.38-1.04-3.12.21-3.63-2.3,1.07.83,3.74,2.66,3.89.35,1.29-.72,2.65-1.32,4.16-1.24.27-.31.58-.58.97-.71l1.06.35Z" fill="#4767ba" stroke-width="0"/><path d="m42.49,17.17c.9.65,2.12-.83,3.19-.71-.99,1.04.04.81,1.24.53v.35c-1.35-.08-3.2.25-3.89,1.59-.06,0-.12,0-.18,0-1.72,0-2.54-.59-5.04.71-3.45-.74-2.04,1.29-4.6-2.12-2.18.6-3.63.01-5.58-.71-.75-.28-.67-.52-.71-.53v-.18c3.18.49,4.28-.52,4.51-.53.61-.03.99.21,1.68.18,1.01-.04,2.32.68,3.01-.53,1.22-.03,3.18,3.1,6.37,1.95Z" fill="#7edbdb" stroke-width="0"/><path d="m25.32,18.41v.18s.12.03-.35.18c-2.15-.17-3.04.25-4.78,1.24-1.75-1.44-3.1.19-3.36.35-.42.26-.45.69-.8.89-.14.08-.88.12-.97.18-.4-.57-1.82.43-1.24.71-.06.03-.24.69-.97.89-.11.03-.86-.09-2.21.18-.84.17-.98.09-2.48.53-.15-2.24,1.74-3.73,3.81-2.83.29-.09.84-3.37,4.96-1.95,2.03-3.24,5.95-3.38,8.41-.53Z" fill="#9ce4d9" stroke-width="0"/><path d="m24.97,18.76c-1.4.43-3.44.92-3.72,2.66-.26,0-1.01-.34-1.68-.18-2.29.57.44.51.53.53.85.22,1.19,1.19,2.04-.18,1.82-.73,3.78.07,5.66,0-.03,1.31,3.43.81,6.02,1.42.49.32,1.55.89.18,1.06-.51.06-1.84-.95-2.74-.71-.86,1.33-1.66,1.27-2.74,1.77-.16.08-.34.15-.35.35-.83-.24-1.37-.07-2.12-.35,3.54-2.72,2.56-2.26.18-2.3-.5,0-1,0-1.5,0-.36-1.71-2.59-1.23-3.36.18-3.03-1.38-2.66,1.22-5.13.71-.28-.06-1.01-1.7-1.59.18-1.81-.66-2.12.81-2.39,0,2.92-1.52,3.95-1.15,4.16-1.24.76-.31,2.81-1.92,3.45-2.3.32-.19.33-.34.35-.35,1.73-.99,2.63-1.41,4.78-1.24Z" fill="#4767ba" stroke-width="0"/><path d="m19.84,20.36c-.65.38-2.69,1.99-3.45,2.3-.21.09-1.24-.28-4.16,1.24l-1.59-.71c1.35-.27,2.11-.15,2.21-.18.74-.19.91-.86.97-.89.07-.04,1.05-.6,1.24-.71.09-.06.83-.1.97-.18.34-.2.37-.63.8-.89.82-.18,2.56-.93,3.01,0Z" fill="#d5ceff" stroke-width="0"/><path d="m26.03,25.14c-.09-.03-.24.08-.35-.09-.01-.02.26-.14.18-.44.45-.34,1.18-1.71.35-1.77,2.39.04,3.36-.42-.18,2.3Z" fill="#99a7ff" stroke-width="0"/><path d="m34,24.07v.18c-1.3,1.26-3.99,1.66-5.49.89,1.08-.5,1.88-.44,2.74-1.77.9-.24,2.23.77,2.74.71Z" fill="#9ce4d9" stroke-width="0"/><path d="m50.46,22.48c0,.32.33.48.53.71-1.99-.89-3.56-.15-5.04-2.12-1.04.25-3.04-1.26-3.1-2.12.06,0,.12,0,.18,0,.02,0-.12.43.27.35l2.12-.53v1.42c2.82.06,4.96-1.83,5.04,2.3Z" fill="#ff91ff" stroke-width="0"/><path d="m67.81,22.66c-.15.07-1.17,1.03-2.92,1.42-3.4-.96-5.52.47-6.2.53-.16.01-.83-.26-2.12-.18-.44.03-3.35,1.29-5.58-1.24-.2-.23-.53-.38-.53-.71,2.44-.15,2.88,1.39,3.81,1.59q6.77-.71,13.54-1.42Z" fill="#c3beff" stroke-width="0"/><path d="m33.82,23.01c-2.59-.61-6.05-.11-6.02-1.42.08,0,.35.29.97.18.29-.05,1.47-1.07,1.95-.89.41.16.08.73.53,1.06.27.2,1.55.39,2.57,1.06Z" fill="#ff91ff" stroke-width="0"/><path d="m21.25,21.42c.05,0-.02.55.89.18-.84,1.37-1.19.4-2.04.18-.09-.02-2.82.04-.53-.53.67-.17,1.43.18,1.68.18Z" fill="#cdeff1" stroke-width="0"/><path d="m45.68,16.46c-1.06-.12-2.29,1.36-3.19.71.92-.33,8.63-6.45,13.9-4.96,2.13.6-3.47.45-6.2,1.42-.66.23-4.1,2.39-4.51,2.83Z" fill="#6cc3c6" stroke-width="0"/><path d="m36.12,15.22c-.69,1.21-2,.49-3.01.53l3.01-.53Z" fill="#9696b0" stroke-width="0"/><path d="m20.19,20s-.04.17-.35.35c-.45-.93-2.19-.18-3.01,0,.26-.16,1.61-1.8,3.36-.35Z" fill="#dfd4f7" stroke-width="0"/><path d="m15.06,21.42c-.19.11-1.17.67-1.24.71-.58-.28.84-1.27,1.24-.71Z" fill="#8ba1e2" stroke-width="0"/></g></svg>