<?xml version="1.0" encoding="UTF-8"?><svg id="Layer_2" xmlns="http://www.w3.org/2000/svg" viewBox="0 0 62.85 21.06"><g id="Layer_1-2"><path d="m38.77,12.7l.51.51-3.63.17c-5.14,1.57-10.64.56-15.95.84-.08,0-.28-.13-1.52-.17-.94-.03-2.52,0-3.54,0-.56,0-1.13,0-1.69,0-3.13-.02-3.17.54-3.97.51-.97-.63-2.09-.34-3.12-.51-2.11-.33-3.21-.08-2.87-1.18,3.43.05,6.86-.04,10.3,0,.99.01,2.02.16,3.04.17,4.39.02,8.78-.02,13.17,0,.28,0,.56,0,.84,0,.45,0,.98-.17,1.35-.17,2.35,0,4.73-.16,7.09-.17Z" fill="#2a292c" stroke-width="0"/><path d="m7.55,8.99c-.07.18-.23.28-.17.51-.54.31-1.19-.19-2.03.17-1.43-.42,1-.7,2.36-1.35-.01.03.02.21-.17.68Z" fill="#575471" stroke-width="0"/><path d="m10.42,11.69c-.21.46,3.71-.27,4.39-.68-.1.57.28.11,1.01,0,1.71-.26,1.42-.44.68,1.01-.04.03-.53.7-.76.68-.4-.05.19-1.49-2.45.17-3.43-.04-6.87.05-10.3,0-.22,0-.45,0-.68,0-.28,0-.56.01-.84,0-1.29-.07-1.79.2-1.27-.34.16-.16,3.61-1.85,4.22-1.52l.08-.34c.13-.37.49-.86.84-1.01.83-.36,1.49.14,2.03-.17,1.15,1.91,3.26-.26,3.46-.34,2.28-.94.74.69-1.18,1.69-5.37.21-5.21,2.3.76.84Z" fill="#9ce4d9" stroke-width="0"/><path d="m24.93,2.07c.99,1.29,1.57,2.02,2.28,3.54.91.04,1.9-.11,2.78.17.07.02,1.09.75,1.18.84.24.24.44.58.68.84.08.09-.44.46,1.52,1.6.2,2.81,1.5-1.18,4.05,2.78-1.86-.04-3.71-.33-5.57-.34.46-1.37-.96-1.49-1.52-2.11-.3-.33-.04-2.18-4.14-2.45-2.09-6.61-11.47-7.65-12.15-.17-2.93-.38-4.18.84-6.5,2.19.18-.46.16-.64.17-.68,1.31-3.34,3.06-2.63,3.46-2.87.45-.27.56-1.35,1.86-1.18.14-.13.25-.65.42-.84.53-.6.76-1.37,1.6-2.03,2.79-2.18,7.3-1.67,9.87.68Z" fill="#9ce4d9" stroke-width="0"/><path d="m22.4,10.84c1.02.11.8.17.84.17l-.17.34c-3.31.26-1.57,1.18,2.11,1.35.39-.3.94-.48,1.43-.51.58-.03,2.45.39,2.87.84-4.39-.02-8.78.02-13.17,0,1.37-1.64,3.37-1.75,5.06-2.53-.1.54.4.27,1.01.34Z" fill="#7edbdb" stroke-width="0"/><path d="m31.85,11.52c1.86,0,3.71.3,5.57.34-.13.39,1.25.67,1.69.68v.17c-.11,0-.23,0-.34,0-2.36.01-4.74.16-7.09.17-.5-.43-1.29-.37-1.86-.51-.07-.02.32-.61-1.1-.17-.41-.22-.4-.33-.42-.34,1.17-.34,2.34-.34,3.54-.34Z" fill="#225ca8" stroke-width="0"/><path d="m22.4,9.83s.35.03.08.34c-.35.05-.78.19-1.1.34-1.69.78-3.7.89-5.06,2.53-1.02,0-2.05-.16-3.04-.17,2.63-1.66,2.05-.22,2.45-.17.23.03.72-.65.76-.68.83-.5,1.73-.81,2.53-1.35,1.17-.17,2.24-.55,3.38-.84Z" fill="#327ec3" stroke-width="0"/><path d="m28.31,11.86s.01.12.42.34c1.41-.44,1.03.15,1.1.17l-.34.08.84.59c-.28,0-.56,0-.84,0-.42-.46-2.29-.87-2.87-.84l1.01-.68c.59-.14.44.29.68.34Z" fill="#5c78eb" stroke-width="0"/><path d="m29.83,12.36c.57.13,1.36.07,1.86.51-.37,0-.9.17-1.35.17l-.84-.59.34-.08Z" fill="#c3b9ff" stroke-width="0"/><path d="m14.81,11.01c-.68.41-4.6,1.14-4.39.68,2.24-.55,4-1.59,5.99-2.7l-1.6,2.03Z" fill="#a8a3e8" stroke-width="0"/><path d="m23.24,11.01s.18-.06-.84-.17c-.8-.25-.38-.39.51-.68,1.96-.64,4.29-1.65,5.57-.08-.09.59-4.52.94-5.23.93Z" fill="#7edbdb" stroke-width="0"/><path d="m23.08,11.35c1.25-.1,3.07.36,4.56.17l-1.01.68c-.49.02-1.04.2-1.43.51-3.68-.17-5.42-1.09-2.11-1.35Z" fill="#a192ff" stroke-width="0"/><path d="m31.85,11.52c-1.2,0-2.38,0-3.54.34-.24-.04-.09-.48-.68-.34-1.49.19-3.3-.27-4.56-.17l.17-.34c.71.02,5.15-.34,5.23-.93-1.28-1.57-3.61-.55-5.57.08.9-1.91,3.86-1.56,3.8-2.19-2.69.07-2.83.95-4.3,1.86-1.13.29-2.21.68-3.38.84-3.77.55.28-.7,2.28-2.53.28-.26.37-.33,0-.34-.71-.01-4.73,2.4-5.49,3.21-.73.11-1.11.57-1.01,0l1.6-2.03c-2,1.11-3.75,2.15-5.99,2.7-5.97,1.46-6.13-.63-.76-.84,1.93-1,3.46-2.63,1.18-1.69-.2.08-2.31,2.25-3.46.34-.06-.23.1-.32.17-.51,2.32-1.35,3.57-2.58,6.5-2.19.68-7.48,10.06-6.44,12.15.17,4.1.27,3.84,2.12,4.14,2.45.56.62,1.98.74,1.52,2.11Z" fill="#c0f5e4" stroke-width="0"/><path d="m19.02,10.67c-.81.54-1.7.85-2.53,1.35.74-1.45,1.03-1.27-.68-1.01.75-.81,4.78-3.22,5.49-3.21.37,0,.28.08,0,.34-2,1.83-6.05,3.08-2.28,2.53Z" fill="#7edbdb" stroke-width="0"/><path d="m22.91,10.17c-.89.29-1.31.43-.51.68-.61-.07-1.11.2-1.01-.34.32-.15.74-.29,1.1-.34.27-.31-.1-.33-.08-.34,1.47-.9,1.62-1.79,4.3-1.86.06.63-2.9.28-3.8,2.19Z" fill="#8acac5" stroke-width="0"/><path d="m16.92,7.13c1.99-.11-4.73,2.77-4.81,2.45.95-.63,3.88-2.4,4.81-2.45Z" fill="#8acac5" stroke-width="0"/><path d="m62.21,19.2l.64.51-4.61.17c-6.53,1.57-13.51.56-20.25.84-.1,0-.36-.13-1.93-.17-1.2-.03-3.19,0-4.5,0-.71,0-1.43,0-2.14,0-3.97-.02-4.03.54-5.04.51-1.24-.63-2.65-.34-3.97-.51-2.67-.33-4.08-.08-3.64-1.18,4.36.05,8.72-.04,13.07,0,1.26.01,2.57.16,3.86.17,5.57.02,11.15-.02,16.72,0,.36,0,.71,0,1.07,0,.57,0,1.24-.17,1.71-.17,2.98,0,6.01-.16,9-.17Z" fill="#2a292c" stroke-width="0"/><path d="m22.56,15.49c-.09.18-.29.28-.21.51-.68.31-1.51-.19-2.57.17-1.82-.42,1.27-.7,3-1.35-.02.03.02.21-.21.68Z" fill="#575471" stroke-width="0"/><path d="m26.2,18.19c-.27.46,4.7-.27,5.57-.68-.13.57.36.11,1.29,0,2.17-.26,1.8-.44.86,1.01-.06.03-.68.7-.96.68-.5-.05.24-1.49-3.11.17-4.36-.04-8.72.05-13.07,0-.29,0-.57,0-.86,0-.36,0-.72.01-1.07,0-1.64-.07-2.27.2-1.61-.34.2-.16,4.58-1.85,5.36-1.52l.11-.34c.17-.37.62-.86,1.07-1.01,1.06-.36,1.89.14,2.57-.17,1.46,1.91,4.14-.26,4.39-.34,2.89-.94.95.69-1.5,1.69-6.82.21-6.62,2.3.96.84Z" fill="#9ce4d9" stroke-width="0"/><path d="m44.64,8.57c1.26,1.29,1.99,2.02,2.89,3.54,1.16.04,2.41-.11,3.54.17.09.02,1.39.75,1.5.84.31.24.56.58.86.84.1.09-.56.46,1.93,1.6.25,2.81,1.91-1.18,5.14,2.78-2.36-.04-4.71-.33-7.07-.34.58-1.37-1.22-1.49-1.93-2.11-.38-.33-.05-2.18-5.25-2.45-2.66-6.61-14.57-7.65-15.43-.17-3.72-.38-5.3.84-8.25,2.19.23-.46.2-.64.21-.68,1.67-3.34,3.89-2.63,4.39-2.87.57-.27.71-1.35,2.36-1.18.18-.13.32-.65.54-.84.67-.6.97-1.37,2.04-2.03,3.55-2.18,9.27-1.67,12.54.68Z" fill="#9ce4d9" stroke-width="0"/><path d="m41.42,17.35c1.3.11,1.02.17,1.07.17l-.21.34c-4.2.26-1.99,1.18,2.68,1.35.5-.3,1.2-.48,1.82-.51.74-.03,3.11.39,3.64.84-5.57-.02-11.15.02-16.72,0,1.73-1.64,4.28-1.75,6.43-2.53-.13.54.51.27,1.29.34Z" fill="#7edbdb" stroke-width="0"/><path d="m53.42,18.02c2.36,0,4.71.3,7.07.34-.16.39,1.59.67,2.14.68v.17c-.14,0-.29,0-.43,0-2.99.01-6.02.16-9,.17-.63-.43-1.63-.37-2.36-.51-.08-.02.4-.61-1.39-.17-.52-.22-.5-.33-.54-.34,1.48-.34,2.98-.34,4.5-.34Z" fill="#225ca8" stroke-width="0"/><path d="m41.42,16.33s.45.03.11.34c-.45.05-.99.19-1.39.34-2.15.78-4.7.89-6.43,2.53-1.29,0-2.6-.16-3.86-.17,3.35-1.66,2.6-.22,3.11-.17.29.03.91-.65.96-.68,1.06-.5,2.19-.81,3.21-1.35,1.48-.17,2.85-.55,4.29-.84Z" fill="#327ec3" stroke-width="0"/><path d="m48.92,18.36s.02.12.54.34c1.79-.44,1.31.15,1.39.17l-.43.08,1.07.59c-.36,0-.71,0-1.07,0-.54-.46-2.91-.87-3.64-.84l1.29-.68c.75-.14.56.29.86.34Z" fill="#5c78eb" stroke-width="0"/><path d="m50.85,18.87c.72.13,1.73.07,2.36.51-.48,0-1.14.17-1.71.17l-1.07-.59.43-.08Z" fill="#c3b9ff" stroke-width="0"/><path d="m31.78,17.52c-.87.41-5.84,1.14-5.57.68,2.84-.55,5.07-1.59,7.61-2.7l-2.04,2.03Z" fill="#a8a3e8" stroke-width="0"/><path d="m42.49,17.52c-.05,0,.23-.06-1.07-.17-1.02-.25-.49-.39.64-.68,2.5-.64,5.44-1.65,7.07-.08-.11.59-5.74.94-6.64.93Z" fill="#7edbdb" stroke-width="0"/><path d="m42.28,17.85c1.59-.1,3.89.36,5.79.17l-1.29.68c-.62.02-1.32.2-1.82.51-4.67-.17-6.88-1.09-2.68-1.35Z" fill="#a192ff" stroke-width="0"/><path d="m53.42,18.02c-1.53,0-3.02,0-4.5.34-.3-.04-.11-.48-.86-.34-1.89.19-4.2-.27-5.79-.17l.21-.34c.9.02,6.54-.34,6.64-.93-1.63-1.57-4.58-.55-7.07.08,1.14-1.91,4.9-1.56,4.82-2.19-3.41.07-3.59.95-5.47,1.86-1.44.29-2.81.68-4.29.84-4.79.55.36-.7,2.89-2.53.35-.26.47-.33,0-.34-.9-.01-6.01,2.4-6.97,3.21-.93.11-1.41.57-1.29,0l2.04-2.03c-2.53,1.11-4.76,2.15-7.61,2.7-7.58,1.46-7.79-.63-.96-.84,2.45-1,4.39-2.63,1.5-1.69-.25.08-2.94,2.25-4.39.34-.07-.23.12-.32.21-.51,2.95-1.35,4.53-2.58,8.25-2.19.86-7.48,12.77-6.44,15.43.17,5.2.27,4.88,2.12,5.25,2.45.71.62,2.51.74,1.93,2.11Z" fill="#c0f5e4" stroke-width="0"/><path d="m37.14,17.18c-1.02.54-2.16.85-3.21,1.35.94-1.45,1.31-1.27-.86-1.01.95-.81,6.07-3.22,6.97-3.21.47,0,.35.08,0,.34-2.54,1.83-7.68,3.08-2.89,2.53Z" fill="#7edbdb" stroke-width="0"/><path d="m42.06,16.67c-1.13.29-1.66.43-.64.68-.77-.07-1.41.2-1.29-.34.4-.15.95-.29,1.39-.34.34-.31-.13-.33-.11-.34,1.87-.9,2.06-1.79,5.47-1.86.07.63-3.68.28-4.82,2.19Z" fill="#8acac5" stroke-width="0"/><path d="m34.46,13.63c2.53-.11-6,2.77-6.11,2.45,1.21-.63,4.93-2.4,6.11-2.45Z" fill="#8acac5" stroke-width="0"/></g></svg>