<?xml version="1.0" encoding="UTF-8"?><svg id="Layer_2" xmlns="http://www.w3.org/2000/svg" viewBox="0 0 69.93 25.92"><g id="Layer_1-2"><path d="m69.03,22.61l.9.9-6.46.3c-9.15,2.79-18.95,1-28.4,1.5-.14,0-.5-.24-2.7-.3-1.68-.05-4.48,0-6.31,0-1,0-2,0-3.01,0-5.57-.03-5.65.97-7.06.9-1.73-1.13-3.72-.61-5.56-.9-3.75-.59-5.72-.13-5.11-2.1,6.11.08,12.22-.07,18.33,0,1.76.02,3.6.29,5.41.3,7.81.04,15.63-.03,23.44,0,.5,0,1,0,1.5,0,.8,0,1.74-.3,2.4-.3,4.18-.02,8.43-.28,12.62-.3Z" fill="#2a292c" stroke-width="0"/><path d="m13.44,16c-.13.32-.4.49-.3.9-.95.55-2.12-.34-3.61.3-2.55-.75,1.77-1.24,4.21-2.4-.02.06.03.38-.3,1.2Z" fill="#575471" stroke-width="0"/><path d="m18.55,20.81c-.38.83,6.6-.48,7.81-1.2-.18,1.01.5.2,1.8,0,3.04-.46,2.52-.78,1.2,1.8-.08.05-.95,1.25-1.35,1.2-.7-.08.33-2.66-4.36.3-6.11-.07-12.22.08-18.33,0-.4,0-.8,0-1.2,0-.5-.01-1,.03-1.5,0-2.3-.12-3.19.36-2.25-.6.28-.29,6.42-3.3,7.51-2.7l.15-.6c.24-.66.88-1.53,1.5-1.8,1.48-.64,2.65.25,3.61-.3,2.04,3.4,5.81-.46,6.16-.6,4.05-1.67,1.33,1.23-2.1,3.01-9.57.38-9.28,4.1,1.35,1.5Z" fill="#9ce4d9" stroke-width="0"/><path d="m44.39,3.68c1.76,2.29,2.79,3.59,4.06,6.31,1.62.06,3.37-.2,4.96.3.12.04,1.94,1.34,2.1,1.5.43.43.78,1.04,1.2,1.5.14.16-.78.82,2.7,2.85.35,5,2.67-2.1,7.21,4.96-3.31-.07-6.6-.59-9.92-.6.82-2.45-1.71-2.66-2.7-3.76-.53-.58-.07-3.88-7.36-4.36-3.73-11.78-20.42-13.62-21.64-.3-5.22-.68-7.44,1.5-11.57,3.91.33-.82.28-1.14.3-1.2,2.34-5.95,5.46-4.68,6.16-5.11.8-.49,1-2.41,3.31-2.1.25-.22.44-1.15.75-1.5.94-1.07,1.35-2.43,2.85-3.61,4.97-3.89,13-2.98,17.58,1.2Z" fill="#9ce4d9" stroke-width="0"/><path d="m39.88,19.3c1.82.2,1.43.3,1.5.3l-.3.6c-5.89.47-2.79,2.1,3.76,2.4.7-.54,1.68-.86,2.55-.9,1.03-.05,4.36.69,5.11,1.5-7.81-.03-15.63.04-23.44,0,2.43-2.92,6-3.12,9.02-4.51-.18.96.72.48,1.8.6Z" fill="#7edbdb" stroke-width="0"/><path d="m56.71,20.51c3.31,0,6.61.54,9.92.6-.23.7,2.23,1.19,3.01,1.2v.3c-.2,0-.4,0-.6,0-4.19.02-8.44.28-12.62.3-.89-.77-2.29-.66-3.31-.9-.12-.03.56-1.08-1.95-.3-.73-.38-.7-.59-.75-.6,2.08-.61,4.17-.61,6.31-.6Z" fill="#225ca8" stroke-width="0"/><path d="m39.88,17.5s.63.05.15.6c-.63.09-1.39.34-1.95.6-3.01,1.39-6.58,1.59-9.02,4.51-1.81,0-3.65-.28-5.41-.3,4.69-2.96,3.65-.38,4.36-.3.4.05,1.27-1.16,1.35-1.2,1.49-.88,3.07-1.45,4.51-2.4,2.08-.3,4-.98,6.01-1.5Z" fill="#327ec3" stroke-width="0"/><path d="m50.4,21.11s.03.22.75.6c2.52-.78,1.83.27,1.95.3l-.6.15,1.5,1.05c-.5,0-1,0-1.5,0-.75-.81-4.08-1.55-5.11-1.5l1.8-1.2c1.05-.25.78.52,1.2.6Z" fill="#5c78eb" stroke-width="0"/><path d="m53.1,22.01c1.01.24,2.42.13,3.31.9-.67,0-1.6.3-2.4.3l-1.5-1.05.6-.15Z" fill="#c3b9ff" stroke-width="0"/><path d="m26.36,19.61c-1.22.73-8.2,2.03-7.81,1.2,3.99-.97,7.11-2.83,10.67-4.81q-1.43,1.8-2.85,3.61Z" fill="#a8a3e8" stroke-width="0"/><path d="m41.38,19.61c-.08,0,.32-.1-1.5-.3-1.42-.44-.68-.69.9-1.2,3.5-1.13,7.63-2.94,9.92-.15-.15,1.04-8.05,1.68-9.32,1.65Z" fill="#7edbdb" stroke-width="0"/><path d="m41.08,20.21c2.23-.18,5.46.64,8.11.3l-1.8,1.2c-.87.04-1.86.36-2.55.9-6.54-.31-9.65-1.93-3.76-2.4Z" fill="#a192ff" stroke-width="0"/><path d="m56.71,20.51c-2.14,0-4.23-.01-6.31.6-.42-.08-.16-.85-1.2-.6-2.65.34-5.88-.48-8.11-.3l.3-.6c1.26.03,9.16-.61,9.32-1.65-2.29-2.79-6.42-.98-9.92.15,1.61-3.4,6.86-2.78,6.76-3.91-4.78.13-5.04,1.7-7.66,3.31-2.01.52-3.93,1.2-6.01,1.5-6.71.97.5-1.25,4.06-4.51.5-.46.65-.59,0-.6-1.26-.03-8.43,4.26-9.77,5.71-1.3.2-1.98,1.01-1.8,0q1.43-1.8,2.85-3.61c-3.55,1.98-6.68,3.84-10.67,4.81-10.63,2.59-10.92-1.13-1.35-1.5,3.43-1.78,6.16-4.67,2.1-3.01-.35.14-4.12,4.01-6.16.6-.1-.41.17-.58.3-.9,4.13-2.41,6.35-4.59,11.57-3.91,1.21-13.32,17.91-11.47,21.64.3,7.29.48,6.84,3.78,7.36,4.36.99,1.1,3.52,1.31,2.7,3.76Z" fill="#c0f5e4" stroke-width="0"/><path d="m33.87,19c-1.43.96-3.02,1.52-4.51,2.4,1.32-2.58,1.83-2.27-1.2-1.8,1.34-1.44,8.51-5.73,9.77-5.71.65.01.5.15,0,.6-3.56,3.26-10.77,5.48-4.06,4.51Z" fill="#7edbdb" stroke-width="0"/><path d="m40.78,18.1c-1.59.51-2.32.76-.9,1.2-1.09-.12-1.98.36-1.8-.6.56-.26,1.33-.51,1.95-.6.48-.56-.18-.58-.15-.6,2.62-1.61,2.88-3.18,7.66-3.31.1,1.13-5.16.5-6.76,3.91Z" fill="#8acac5" stroke-width="0"/><path d="m30.12,12.69c3.55-.2-8.42,4.94-8.56,4.36,1.69-1.12,6.92-4.27,8.56-4.36Z" fill="#8acac5" stroke-width="0"/></g></svg>