<?xml version="1.0" encoding="UTF-8"?><svg id="Layer_2" xmlns="http://www.w3.org/2000/svg" viewBox="0 0 34.16 10.01"><g id="Layer_1-2"><path d="m18.76.02c-1.91-.11-3.33.28-4.96,1.24-.19.11-.91,1.14-1.15,1.42-3.02-.31-3.28,2.37-3.54,2.48-1.47-.33-2.96-.13-3.27,1.59.68.94,1.91-.95,2.83.71,1.62.05,3.34.33,4.96.35v-.53c-2.14,0-3.79.12-3.54-.97.14-.64,6.28-4.2,7.17-4.34,2.88-.45,4.37.84,6.28,2.66.13-.09.79-.21,1.06-.18-.89-1.76-1.62-4.17-5.84-4.43Z" fill="#9ce4d9" stroke-width="0"/><path d="m23.54,4.62s.14.45-.35.35c.02.02.34.44.35.53l.09.35-3.63-.27,2.83,1.33c.93-.85,3.38-.87,3.81-.35.16.19-.17.24-.09.35.04.06-.19.34.71,1.24,2.25.11,4.47.29,6.73.18,0-.01.2.04.18-.18-.69-.02-3.8-.74-3.89-1.59-.11,0-.75-.28-1.86,0-.16-.06-.55-.85-.62-1.06-2.37-1.4-2.61.07-3.19-1.06-.27-.03-.93.09-1.06.18Z" fill="#9ce4d9" stroke-width="0"/><path d="m5.84,6.75c.16.7-1.52.19-3.01.35-.04,0-.08-.08-.71,0-.38.05-.71.24-1.06.35,2.53.06,5.08-.07,7.61,0-.92-1.66-2.15.23-2.83-.71Z" fill="#96c5ff" stroke-width="0"/><path d="m13.63,7.28v.53c1.98.03,3.95-.04,5.93-.18v.35c-3.31.62-6.59.21-9.91.18-.07,0-.24.36-.44.35-.33-.02,0,.34.09.35,1.4.16,12.37-.45,17.44.18l.18-.35c-.73-.11-1.4-.15-2.12-.35-.4-.11-1.33-.68-1.59-1.06l-.53-.18c-3.09-.72-5.99.19-9.03.18Z" fill="#7edbdb" stroke-width="0"/><path d="m1.06,7.45c-.19.06-.4.27-1.06.18.02,0,.08.29.27.35.38.14,6.96.31,8.05.35,1.12.04.84.18.89.18.2,0,.37-.35.44-.35,3.32.03,6.61.44,9.91-.18v-.35c-1.98.13-3.94.21-5.93.18-1.62-.03-3.34-.31-4.96-.35-2.53-.07-5.08.06-7.61,0Z" fill="#4a3757" stroke-width="0"/><path d="m24.78,8.34c.72.2,1.4.24,2.12.35,1.41.22,6.3.69,7.08-.35-2.25.11-4.48-.07-6.73-.18-1.37-.07-2.77-.15-2.48.18Z" fill="#574c64" stroke-width="0"/><path d="m25.84,6.92c1.63,1.39-2.04,1.04-2.12-.18-.23.09-.45.29-.53.53.26.38,1.19.95,1.59,1.06-.29-.33,1.1-.24,2.48-.18-.9-.9-.67-1.18-.71-1.24-.48-.38-.56.03-.71,0Z" fill="#9ca5f5" stroke-width="0"/><path d="m22.83,6.92s.04.2-.18.18l.53.18c.08-.24.3-.44.53-.53,1.4-.56,1.99.15,2.12.18.14.03.23-.38.71,0-.08-.11.24-.17.09-.35-.43-.52-2.87-.49-3.81.35Z" fill="#5c78eb" stroke-width="0"/><path d="m8.32,8.34c-.4.26-2.09,1.07-1.95,1.59,1.48,0,2.95,0,4.43,0,5.74.04,11.51.4,17.17-.8,0-.19-.79-.03-1.24-.09-5.07-.62-16.03-.02-17.44-.18-.09-.01-.42-.37-.09-.35-.05,0,.24-.14-.89-.18Z" fill="#2a292c" stroke-width="0"/><path d="m13.63,7.28c3.04,0,5.94-.9,9.03-.18.22.02.17-.17.18-.18l-2.83-1.33,3.63.27-.09-.35c-6.85-1.82-2-1.9-.35-.53.5.09.33-.34.35-.35-1.92-1.81-3.4-3.1-6.28-2.66-.89.14-7.03,3.7-7.17,4.34-.25,1.1,1.4.97,3.54.97Z" fill="#c0f5e4" stroke-width="0"/><path d="m23.54,5.51c-.02-.09-.33-.51-.35-.53-1.64-1.37-6.5-1.29.35.53Z" fill="#8acac5" stroke-width="0"/><path d="m15.13,5.51c-.21-.03-2.29-.04-1.95.35,6,2.07,4.62-.02,1.95-.35Z" fill="#8acac5" stroke-width="0"/><path d="m23.72,6.75c.08,1.22,3.75,1.57,2.12.18-.13-.03-.72-.74-2.12-.18Z" fill="#d5ceff" stroke-width="0"/></g></svg>