<?xml version="1.0" encoding="UTF-8"?><svg id="Layer_2" xmlns="http://www.w3.org/2000/svg" viewBox="0 0 256.86 124.87"><g id="Layer_1-2"><path d="m146.86,122.99c1.17.07,2.31.2,3.48.27-4.07.92-8,.43-12.04,0l1.61-.54c2.26.21,4.66.13,6.96.27Z" fill="#4c4ca9" stroke-width="0"/><path d="m241.87,117.64c-1.33.41-1.89,1.78-.94,2.41,1.86,1.24,4.97-1.54,7.23,1.07,4.14-1.8,5.57.23,5.89.27,1.1.14,1.11-1.24,2.81,0,0,.45,0,.89,0,1.34-3.11-.45-6.25-.25-9.37-.27-1.9-3.31-12.94-1.04-18.33-1.61l-2.14-.54c-.24-.09-.1-.52-.13-.54,3.93.1,8.52,1.19,11.78-.27,2.14-.96,1.39-2.79,3.21-1.87Z" fill="#745de3" stroke-width="0"/><path d="m256.86,115.76c0,.8,0,1.61,0,2.41-.27-.01-.54.02-.8,0-.67-.05-1.47.49-1.74.27-.12-.09.03-.73-.67-2.14-.33-.67-1.58-.13-.27-1.87,2,.31.68,1.95,3.48,1.34Z" fill="#71fffd" stroke-width="0"/><path d="m226.88,119.78s-.11.45.13.54l2.14.54c5.4.57,16.44-1.7,18.33,1.61-7.16-.03-14.25-.27-21.41,0-1.15.04-2.24-.12-3.48,0v-.8c.54-.04,2.57-.43,1.87-1.34.13,0,2.1-.69,1.87-.8.19.09.34.19.54.27Z" fill="#a9f" stroke-width="0"/><path d="m253.38,114.43c-1.31,1.74-.06,1.2.27,1.87-.87-.46,0,3.1.13,3.21.14.1,3.52-1.13,2.27-1.34.26.02.54-.01.8,0,0,1.07,0,2.14,0,3.21-1.7-1.24-1.71.14-2.81,0-.32-.04-1.75-2.07-5.89-.27-2.26-2.61-5.37.17-7.23-1.07-.95-.63-.39-2,.94-2.41.11-.67-.52-.76-.54-.8.41-2.16.17-2.96,2.68-3.08-1.47-.92-1.38-.16-2.14-1.74-.01-.03-.37.09-.27-.54,4.56.01,4.91,1.84,7.09,1.61,1.84,1.39-1.09,3.06,1.34,4.01.23-1.86,1.47-2.97,3.35-2.68Z" fill="#6ff" stroke-width="0"/><path d="m247.62,117.1c2.1-.45,3.2,1.26,4.42,2.54-.15.5-2.22-1.46-2.81.4-.41-1.36-3.94-2.44-1.61-2.94Z" fill="#4c4ca9" stroke-width="0"/><path d="m247.09,114.96c.77.29.27,2.07,0,2.14-.11.03-.59-.88-1.07-.8-.48.07-.61,2.25-3.08.94l4.15-2.27Z" fill="#39a0f9" stroke-width="0"/><path d="m253.64,116.3c.7,1.41.55,2.05.67,2.14.27.22,1.07-.32,1.74-.27,1.25.21-2.14,1.44-2.27,1.34-.14-.11-1.01-3.67-.13-3.21Z" fill="#2a9de3" stroke-width="0"/><path d="m169.34,83.92c5.29.01-1.79,2.33-2.14,3.48-.15.49.62.45.54.67-.16.41-1.82.86-2.14,1.47-.55,1.02.07,1.6,0,1.74-6.04,2.75,1.05,1.06,3.08-.67,1.68-.36,1.4.02,1.47,0-3.84,2.66,3.28-.03-1.61,2.41-5.37,2.68-2.79,2.48-3.61,3.48-1.03,1.25-3.44-1.53-2.41.8-1.16-.03-1.01,1.35-2.14.27l-2.81,3.75c-.19-.05-.54.01-.8,0-.02-.22-.18-.3-.27-.54-1.5-4.18,1.58-4.12,2.68-5.75.19-.28,1.1-3.69,2.94-6.16.64-.92.51.36.94.4.59.06,3.19-5.36,6.29-5.35Z" fill="#252a54" stroke-width="0"/><path d="m167.2,87.39c.35-1.15,7.43-3.46,2.14-3.48.03-.32-.04-.75,0-.8,2.1-2.79,5.18.05,6.56-3.21,2.43,1.29,4.92-.35,7.76.54,3.2-2.68,6.5.93,2.68.8-.2,0-1.78-2.28-2.94.8-4.25-1.17-4.3,2.24-4.55,2.41-.26.17-2.74-.32-5.35,2.68-2.38-.76-3.79,1.28-6.29.27Z" fill="#327ccb" stroke-width="0"/><path d="m238.66,117.1c-2.29-.86-1.3,1.3-1.74,1.61-.12.08-.1-1.11-2.68,0-.98-1.35-2.14-.15-2.41-.27-.82-2.87-3.22-.68-3.48-.8-.26-.12-1.42-4-4.15-3.35-.34-.64,2.2-.72.27-3.88,6.13-1.24.36.89,1.61,2.54.31.41,2.2.58,2.27.67.18.2-1.28,2.95,3.48,2.14,3.75,5.01,8.43-3.61,6.82,1.34Z" fill="#0075c4" stroke-width="0"/><path d="m166.66,97.56c.14.04.74.47.8.54.03.04-.14.62.54.8-.21.25-.29.33-.54.54-.21.18-.54.42-.8.54-.42-.82-1.84-.44-1.61.54-.88.39-.4-.71-2.94,1.61-.25.22-.62,2.17-2.54,1.34-.19-.08-.16-.9-.94-1.34.85-2.78,5.52-5.21,8.03-4.55Z" fill="#416ff5" stroke-width="0"/><path d="m198.78,97.83c-2.72-.77-2,.93-2.27,1.07-.17.08-.73-1.36-3.08,1.34l-1.34-1.34c.54-1.04.68-1.4-.8-1.07-.19.04-.3-.08-.27-.27,1.85-.75,2.74.21,3.48-1.2,1.02-1.94-1.77-2.12,4.95-2.81,1.35,2.69-3.06.15-.67,4.28Z" fill="#3871bb" stroke-width="0"/><path d="m170.14,90.61c-.07.02.2-.36-1.47,0-2.03,1.73-9.11,3.41-3.08.67.07-.14-.55-.72,0-1.74,6.82-2.01,7.24-.2,7.63-.27.19-.03,2.64-2.85,3.08-1.2.32,1.21-5.53,2.34-6.16,2.54Z" fill="#3871bb" stroke-width="0"/><path d="m168.54,93.01c2.15,1.91.07.29-.27,1.2-.25.67,1.51.12-.8,1.07,1.48,1.36-1.88-.79-.8,2.27-2.51-.66-7.18,1.77-8.03,4.55-.51-.29-1.01-.78-1.07-.8l2.81-3.75c1.14,1.08.99-.3,2.14-.27-1.03-2.33,1.38.45,2.41-.8.82-1-1.76-.8,3.61-3.48Z" fill="#0088ec" stroke-width="0"/><path d="m184.06,97.03l-2.41,2.54c.78.89,2.15.24,2.94.13-.11,2.98,6.92-1.57,5.09,1.34-1.1.67-2.77,1.24-2.68,1.87-7.14-.73-.99-.58-2.41,2.54-.45.99-2.33,1.83-3.08.4-.1.02-.27.8-.54.8-5.55.02-1.71-5.5-8.7-7.76.03-.13.25-.52.27-.54.26-.24.2.29.54-.54.56.41.45.06.8,0,2.23-.36,3.12.34,4.28-.54l1.61,1.07c-.31.2-2.17.34-2.68,2.27,5.24-.88,2.77-1.34,5.62-3.35.48-.04.88-.13,1.34-.27Z" fill="#b984ff" stroke-width="0"/><path d="m191.28,97.83l-.27,2.41c-1.34,1.22-1.26.75-1.34.8,1.83-2.91-5.19,1.64-5.09-1.34.34-.04.61-.56.67-.54.36.15.17,1.29.8,1.34.29.02.11-.99,4.95-2.94-.03.19.08.31.27.27Z" fill="#3657b4" stroke-width="0"/><path d="m182.72,97.3c-2.85,2-.38,2.46-5.62,3.35.51-1.94,2.36-2.08,2.68-2.27.5-.32,1.71-.46,2.41-1.34-.02.32.23.29.54.27Z" fill="#5947a3" stroke-width="0"/><path d="m173.35,96.49c-.43.73-.15,1.05-.27,1.34-.34.82-.27.29-.54.54l-2.14-.8c.38-.46.87-1.31,1.07-1.87.65-.08,1.86.28,1.87.8Z" fill="#4c4ca9" stroke-width="0"/><path d="m172.55,98.37s-.24.41-.27.54c-1.37-.44-2.17-.09-2.94-.27.09-.49.89-.86,1.07-1.07l2.14.8Z" fill="#8567f2" stroke-width="0"/><path d="m180.85,77.49c3.05.69,4.92-.2,6.02,0,3.99,2.91,4.66,1.35,10.3,3.48,9.06,3.42,8.6,9.83,9.23,10.17.14.08,3.06.31,3.21.27.64-.17,3.79-6.57,10.97,1.87,3.41-.35,7.45,2.04,7.09,5.75,1.67,1.58,2.29,4.48,1.61,6.69.08.52,5.06-.69,4.95,3.08,3.59-.66,4.13,2.22,7.36,2.68-.1.63.25.51.27.54-.07,2.33-2.69,1.33-2.94,1.74,1.25.67,1.87,1.82,2.41,3.08.02.04.64.13.54.8-1.82-.91-1.07.92-3.21,1.87.29-1.19,2.14-1.61,0-2.41,1.61-4.95-3.07,3.67-6.82-1.34-4.76.81-3.3-1.94-3.48-2.14-.08-.09-1.97-.26-2.27-.67-1.25-1.65,4.52-3.78-1.61-2.54-.02-.03-.7.14-.54-.4.31-1.02,3.74.35.8-3.48-.02-.02.46-.33.27-.54-2.27-2.5-1.91.54-3.21.67,1.77-1.89-3.48.3-4.15-5.35l-2.81,3.48c-1.55-3.3-5-.27-8.16-5.35-.98,2.57-1.59-1.02-2.68-.8-.2.04-2.09,3.11-1.47-.67-2.22-.27-1.7-1.36-2.01-1.47-.79-.28-.86,1.86-1.74,1.34-2.39-4.13,2.02-1.59.67-4.28-6.72.69-3.93.87-4.95,2.81-.74,1.41-1.63.46-3.48,1.2-4.84,1.96-4.66,2.97-4.95,2.94-.63-.05-.44-1.19-.8-1.34-.06-.03-.33.49-.67.54-.8.1-2.17.75-2.94-.13l2.41-2.54c6.4-1.9.24-3.61-1.2-2.14-.24.24.03,1.26-.67,2.14-.7.87-1.91,1.02-2.41,1.34l-1.61-1.07c.89-.67,1.06-1.84.67-2.14-.11-.08-1.47,1.22-1.87,1.34-1.65.47-2.31-1.22-3.08,1.34-.35.06-.24.41-.8,0,.12-.29-.16-.61.27-1.34,1.77-3.04,3.33-2.63,3.48-2.81.35-.43-.55-2.01-1.74-1.74-.3.07-2.61,3.12-4.01,2.68-.34.25.61.51.4,1.07-.2.56-.69,1.41-1.07,1.87-.18.21-.98.58-1.07,1.07-.38-.09-.49-.16-.8-.27-.19-.07.66-1.23-1.07-.27-.06-.07-.66-.5-.8-.54-1.08-3.07,2.28-.91.8-2.27,2.31-.95.55-.4.8-1.07.34-.91,2.42.71.27-1.2,4.89-2.44-2.24.25,1.61-2.41.62-.2,6.48-1.34,6.16-2.54-.44-1.64-2.89,1.17-3.08,1.2-.39.07-.81-1.74-7.63.27.32-.61,1.98-1.06,2.14-1.47.09-.22-.68-.18-.54-.67,2.5,1.01,3.91-1.03,6.29-.27,2.62-3,5.1-2.5,5.35-2.68.25-.17.3-3.58,4.55-2.41,1.17-3.09,2.75-.81,2.94-.8,3.82.13.52-3.48-2.68-.8-2.84-.88-5.33.75-7.76-.54-1.38,3.26-4.45.42-6.56,3.21-1.55.44-.85-.95,0-1.87,2.08-2.26,4.37-.16,5.62-3.21.51-.13,1.55-.18,2.14-.27,2.53,1.67,1.29.34,3.75-.27Z" fill="#71fffd" stroke-width="0"/><path d="m241.33,116.83c-.54-1.26-1.16-2.41-2.41-3.08.25-.41,2.87.59,2.94-1.74.76,1.57.67.82,2.14,1.74-2.51.12-2.27.92-2.68,3.08Z" fill="#39a0f9" stroke-width="0"/><path d="m212.03,94.35c.78-.04,5.35.7,5.62.8,1.73.65,4.93,4.15,6.82,5.49.06,2.44,1.47,2.67,1.61,2.94.12.24-.12,1.11,0,1.34.24.46,1.37,1.02,1.34,1.61,0,.17-1.41.44-1.47.4-.49-.28-.99-4.04-4.01-2.94-1.35-6.4-4.36-4.31-5.09-4.55-.27-.09-1.17-2.2-5.09-1.34-1.3-2.48-4.22-2.02-4.55-2.14-2.78-1,3.57-.79,4.82-1.61Z" fill="#327ccb" stroke-width="0"/><path d="m193.02,82.31c1.67-.71,3.4,1.85,4.28,2.41.47.29,5.4,2.43,4.42,3.61-1.2,1.44-2.02-2.79-5.22-2.01-.02-1.92-4.36-2.17-3.88-3.61.02-.05.34-.38.4-.4Z" fill="#327ccb" stroke-width="0"/><path d="m173.35,96.49c-.01-.52-1.22-.88-1.87-.8.2-.56-.74-.83-.4-1.07,1.4.44,3.72-2.61,4.01-2.68,1.19-.27,2.09,1.31,1.74,1.74-.15.18-1.71-.23-3.48,2.81Z" fill="#327ccb" stroke-width="0"/><path d="m221.8,106.66c-2.06.2-3.06-2.12-6.96-1.87l2.81-3.48c.67,5.66,5.92,3.46,4.15,5.35Z" fill="#327ccb" stroke-width="0"/><path d="m184.06,97.03c-.45.13-.86.23-1.34.27-.3.03-.56.05-.54-.27.7-.88.43-1.9.67-2.14,1.44-1.47,7.6.24,1.2,2.14Z" fill="#4c4ca9" stroke-width="0"/><path d="m184.46,89.54c1.04-.14,5.31,1.72-1.61,3.21-.79-.18.72-3.09,1.61-3.21Z" fill="#3871bb" stroke-width="0"/><path d="m178.17,97.3c-1.16.88-2.05.17-4.28.54.77-2.55,1.43-.86,3.08-1.34.4-.11,1.77-1.42,1.87-1.34.39.3.22,1.47-.67,2.14Z" fill="#4c4ca9" stroke-width="0"/><path d="m183.12,84.72c3.83-.68,5.32,5.16-.67.4.19-.03.62-.39.67-.4Z" fill="#327ccb" stroke-width="0"/><path d="m191.15,94.62c1.93.43-2.29,3.89-1.74,1.2.05-.24,1.64-1.23,1.74-1.2Z" fill="#3871bb" stroke-width="0"/><path d="m203.73,95.16c.87-.37,1.8,1.45.8,1.87-.87.37-1.8-1.45-.8-1.87Z" fill="#0088ec" stroke-width="0"/><path d="m178.84,87.66c.94-.41,2.47.96,2.01,1.74-.27.46-2.35-.97-2.01-1.74Z" fill="#0088ec" stroke-width="0"/><path d="m208.28,100.24c2.92,1.8,2.8.44,2.94.54,1.01.68-.8,2.68-2.94-.54Z" fill="#327ccb" stroke-width="0"/><path d="m230.49,109.88c.99-.33,1.73,1.55.8,1.87-.51.18-1.73-1.56-.8-1.87Z" fill="#0088ec" stroke-width="0"/><path d="m190.08,84.99c.72-.59,2.08,1.27,1.07,1.61-1.26.41-1.52-1.24-1.07-1.61Z" fill="#327ccb" stroke-width="0"/><path d="m235.04,112.55c.38-.3,1.47.85,1.47.94.08,1.51-2.5-.13-1.47-.94Z" fill="#3871bb" stroke-width="0"/><path d="m192.22,88.73c1.61-.07.09,2.1-.54,1.61-.47-.37.18-1.59.54-1.61Z" fill="#0088ec" stroke-width="0"/><path d="m203.73,90.87c1.32-.33.47,1.95,0,1.87-.54-.09-.59-1.73,0-1.87Z" fill="#327ccb" stroke-width="0"/><path d="m187.4,83.92c.96-.57,1.67,1.42.8,1.61-.3.06-1.38-1.26-.8-1.61Z" fill="#0088ec" stroke-width="0"/><path d="m189.81,91.14c.65.09.59,1.96-.54,1.61-1.01-.32.43-1.62.54-1.61Z" fill="#327ccb" stroke-width="0"/><path d="m189.54,88.2c.83.04.18,1.69-.54,1.61-.78-.1.43-1.61.54-1.61Z" fill="#229aee" stroke-width="0"/><path d="m180.18,86.32l1.2.67c-.41.42-1.3-.14-1.2-.67Z" fill="#0088ec" stroke-width="0"/><path d="m168.54,98.37c-.41.05-.51.51-.54.54-.67-.18-.5-.77-.54-.8,1.73-.96.88.2,1.07.27Z" fill="#00ccea" stroke-width="0"/><path d="m180.71,91.41c2.08-.13-.17,2.02-.4.4,0-.03.37-.4.4-.4Z" fill="#327ccb" stroke-width="0"/><path d="m233.97,110.68c.29-.1.87,1.47.27,1.34-.11-.02-.66-1.21-.27-1.34Z" fill="#109ad5" stroke-width="0"/><path d="m208.28,97.83c.66-.25.94.54.54.8-.24.15-.94-.43-.54-.8Z" fill="#109ad5" stroke-width="0"/><path d="m213.9,101.04c.8-.04.05,1.23-.27,1.07-.37-.19,0-1.06.27-1.07Z" fill="#229aee" stroke-width="0"/><path d="m170.54,94.89l.13.13v.27l-.13.13h-.27l-.13-.13.13-.13.13-.13.13-.13Z" fill="#269baf" stroke-width="0"/><path d="m136.69,103.99c.38.14.25.26.27.27-.88,3.07,2.33.5,2.54.54.15.02.06.92,1.07.8.63-.07,2.8-1.13,5.49-1.07l-1.47,1.07c4.09-.06,3.42-.76,3.61-.8.26-.06,1.09.1,3.21-.54l5.09.27c1.9.1,4.09,1.08,6.42.54v.54c-.61-.07-5.23.02-4.82.54-1.6-.06-3.06.51-4.55,1.07-1.25-.24-2.54.21-3.75.27-2.05.09-9.05-.02-12.58,0-3.04.02-6.05-.03-9.1,0-.98.01-1.97.02-2.94,0-7.82-.15-3.07-.57.67-2.68.53-.3.36-.78.4-.8.12-.07,1.82.09,2.14-.54,1.87-.31-1.02,1.56.13,1.34.15-.03,1.38-1.37,2.54-1.61l5.62.8Z" fill="#8a5fff" stroke-width="0"/><path d="m146.59,100.51c1.95.96,2.43.98,2.54,1.07.42.33-.43.86.4,1.61-.58.73-1.32.39-2.14.8-.47.23-.69.72-1.34.54-2.68-.06-4.86,1-5.49,1.07-1.01.12-.92-.78-1.07-.8-.22-.03-3.42,2.53-2.54-.54,1.93.53,3.51.07,1.61-.4,1.85-1.52,4.21-.9,4.28-4.15,1.61-.38,1.87-.12,3.75.8Z" fill="#71fffd" stroke-width="0"/><path d="m136.95,104.26s.11-.13-.27-.27c-.37-.14-1.13-.49-1.34-.8,1.29-.23,2.6-.79,3.88-1.07.14-.21.36-.78.4-.8.68-.33,1.66-1.24,3.21-1.61-.07,3.24-2.44,2.63-4.28,4.15,1.9.47.33.93-1.61.4Z" fill="#5947a3" stroke-width="0"/><path d="m152.21,101.31l1.07,1.87c-.88.26-1.1.84-1.87,1.07-2.12.64-2.95.48-3.21.54l-.8-.8c.82-.41,1.56-.07,2.14-.8.96-.46.99-1.31,2.68-1.87Z" fill="#272f80" stroke-width="0"/><path d="m156.49,100.78c.08.23.25.32.27.54-3.07-.13-.86.99-.8,2.41-.26-.23-1.34-1.06-1.47-1.07-.07,0,.02.17-1.2.54l-1.07-1.87c.08-.03.19.02.27,0,1.33-.38,2.68-.21,4.01-.54Z" fill="#416ff5" stroke-width="0"/><path d="m136.42,116.83c-.69.85.44,1.36,1.2,1.61,1.04.33,17.69,1.74,21.68,2.68,4.87-.84,9.94-.86,14.99,0,4.36-1.85,11.81,1.15,20.34-1.07,3.79,2.36,6.58.78,9.1,2.94,1.73.21,3.48.4,5.22.27-.03.31.17.23.27.27.23.72-.71.57-2.01.54-.16,0,.66-.44-1.47,0-.72.15-1.42.39-2.14.54-1.01-.25-2.54-1.25-3.08-1.34-1.66-.27-18.39,0-22.88,0-1.34,0-2.68,0-4.01,0-3.37,0-6.82-.22-10.17.27-4.14-.84-8.89-.02-13.11-.27-1.17-.07-2.31-.2-3.48-.27,2.69-.12,1.91-1.08.13-1.61-2.15-.64-5.85.98-7.49-1.61-2.48.07-5.03-.75-7.49-1.07-1.3-.17-1.54.92-3.08-.8,1.95-.93,2.62.89,7.49-1.34v.27Z" fill="#a9f" stroke-width="0"/><path d="m135.62,121.65c1.36.17,2.82.94,4.28,1.07l-1.61.54c-.87-.09-1.98-.71-2.81-1.07-1.73-.07-3.49.1-5.22,0-1.91-.11-4.27.65-5.35-1.34.26,0,.28-.26.54-.27,2.53,1.53,5.85.55,8.43.54.32.2,1.44.5,1.74.54Z" fill="#3657b4" stroke-width="0"/><path d="m218.32,123.26c.46.29.5.52.54.54-1.06.93-4.27.48-5.62.27-1.37-.2-2.7-.63-4.01-1.07-.21-.07-.32-.19-.54-.27.12-.8-.78-.81-.8-.94-.08-.54.76-.21.54-1.2,1.28.2,3.42-.2,4.28-1.34,2.28,2.02,3.27,2.55,5.62,4.01Z" fill="#b984ff" stroke-width="0"/><path d="m213.23,124.06c.21,1.13-3.14-.22-4.01-.54-.1-.04-.29.05-.27-.27.2-.02.3-.04.27-.27,1.31.44,2.64.87,4.01,1.07Z" fill="#705dd4" stroke-width="0"/><path d="m205.74,124.06c.06.39.06.37-.27.54-.93.48-1.02.21-1.87,0,.72-.15,1.42-.39,2.14-.54Z" fill="#272f80" stroke-width="0"/><path d="m215.64,116.83c-.32,1.58,1.12,1.11,1.07,2.14-1.24,1.18.55,1.43,1.61,1.87.52.22.22.13.8.27,1.1.27,2.35.62,3.48.54v.8c-1.31.12-3.49.08-4.28.8-2.35-1.46-3.34-1.99-5.62-4.01-.21-.74-.76-.45-1.07-.54.21-.33.22-.44.27-.8.26-1.78-.8-3.08-2.14-4.01l.8-1.07c1.65,1.05,2.95,3.52,5.09,4.01Z" fill="#855cfa" stroke-width="0"/><path d="m226.34,119.51c.23.11-1.74.81-1.87.8-1.97-.04-5.01-2.67-5.35.8-.59-.14-.28-.05-.8-.27.52-2.06,1.67-1.91,3.48-2.27-4.36-1.83-3.4-.46-4.42.4-.09.08-.6-.07-.67,0,.05-1.04-1.39-.56-1.07-2.14,2.41.56.37-2.22,3.61-1.87,1.12.12,3.19,2.74,7.09,4.55Z" fill="#a166ff" stroke-width="0"/><path d="m224.47,120.31c.69.9-1.33,1.3-1.87,1.34-1.13.08-2.38-.27-3.48-.54.34-3.47,3.39-.84,5.35-.8Z" fill="#3d397f" stroke-width="0"/><path d="m210.55,112.82l-.8,1.07c-1.58-1.1-3.43-1.48-5.35-1.34-.92-.28-2.24-1.21-1.61,1.61-2.06-2.37-2.28-1.78-2.41-1.87-3.48-2.35-3.56-1.76-3.75-1.87-2.14-1.34-3.26-2.96-1.74-2.94,3.65,1.56,13.45,3.94,15.66,5.35Z" fill="#b984ff" stroke-width="0"/><path d="m182.18,110.41s.1.47-.13.54c-3.08.5-10.72,1.51-3.61-.4-1.97-.07-2.29-1.13-2.41-1.2-1.26-.74-2.63-1.29-3.48-1.87.2,0,.22-.23.8-.27.5-.03,2.03-.48,2.81-.54,4.58,4.03,5.06,2.54,5.35,2.68.24.11-.08.88.67,1.07Z" fill="#1f2139" stroke-width="0"/><path d="m196.37,111.48c2.98,1.31,5.78,3.14,7.9,5.62l.13-.54c.48.52,1.03.49,1.07.54,2.48,2.51-6.67-3.46-7.23-1.61-.16-.13-.31-.36-.54-.54-2.39-1.89-2.96-2.98-5.62-4.28-.02-.17.03-.37,0-.54,1.62.24,2.81.69,4.28,1.34Z" fill="#b984ff" stroke-width="0"/><path d="m169.07,107.2c1.25.13,1.27.33,3.48.27.85.59,2.22,1.13,3.48,1.87l-3.61-.8c-.3.16.35.47,0,.54-3.1.56-5.46,1.55-5.75,1.61,2.05-3.06-.89-1.51.54-3.48.09.02.06-.19,1.87,0Z" fill="#272f80" stroke-width="0"/><path d="m193.43,100.24c-1.64,1.88.07,1.97-6.42,2.68-.09-.63,1.57-1.2,2.68-1.87.08-.05,0,.42,1.34-.8.45-.4.8-.81,1.07-1.34l1.34,1.34Z" fill="#3657b4" stroke-width="0"/><path d="m166.39,106.66s.27.44.8.54c-1.43,1.97,1.52.41-.54,3.48-.55.1-1.01.39-1.61.27.22-1.67-.51-2.69-.54-2.94-.01-.09.28-1.43.27-1.87.17.03.49.35,1.61.54Z" fill="#8a5fff" stroke-width="0"/><path d="m200.38,112.28c.13.09.35-.5,2.41,1.87.19.83,1.04,1.78,1.61,2.41l-.13.54c-2.11-2.48-4.92-4.31-7.9-5.62.88.04.24-.2.27-.8.79.52,4.45,3.11,3.75,1.61Z" fill="#c0c8f6" stroke-width="0"/><path d="m155.96,103.72c.28.24.68.26.54.8l-5.09-.27c.77-.23,1-.81,1.87-1.07,1.22-.36,1.14-.54,1.2-.54.13.01,1.21.84,1.47,1.07Z" fill="#e2e4ed" stroke-width="0"/><path d="m200.38,112.28c.71,1.5-2.96-1.08-3.75-1.61v-.27c.18.11.27-.48,3.75,1.87Z" fill="#6b4bbe" stroke-width="0"/><path d="m214.84,104.79c3.9-.25,4.9,2.07,6.96,1.87,1.31-.13.94-3.17,3.21-.67.19.21-.29.51-.27.54,2.93,3.83-.5,2.46-.8,3.48-.16.54.52.37.54.4,1.93,3.16-.6,3.24-.27,3.88,2.72-.65,3.89,3.22,4.15,3.35.26.12,2.66-2.06,3.48.8.27.11,1.43-1.09,2.41.27,2.58-1.11,2.55.08,2.68,0,.44-.3-.55-2.47,1.74-1.61,2.14.8.29,1.22,0,2.41-3.26,1.46-7.85.37-11.78.27-.19-.08-.35-.18-.54-.27-3.9-1.81-5.97-4.43-7.09-4.55-3.25-.35-1.2,2.43-3.61,1.87-2.14-.5-3.44-2.96-5.09-4.01-2.21-1.41-12-3.8-15.66-5.35-1.52-.02-.4,1.61,1.74,2.94v.27c-.02.6.61.85-.27.8-1.47-.65-2.66-1.1-4.28-1.34-.55-2.78-3.04-1.22-3.88-1.34-1.95-.28-2.33-2.91-2.94-.54.25.24,3.33.95,3.61,1.07.77.33,1.5.8,2.68,1.34.11.05.43-.05.54,0,2.66,1.31,3.23,2.39,5.62,4.28-.27.52-3.29-.45-3.21-1.07,2.4-.69-2.18-1.77-5.49-1.07-.69-1.79-1.9-1.66-3.08-2.14-.6-.24-1.55-.67-2.14-.8-1.21-.28-1.04.34-1.61.54-.75-.19-.43-.96-.67-1.07-.29-.13-.78,1.35-5.35-2.68-.78.06-2.31.51-2.81.54-2.21-.67-2.25-1.38-4.28,0-1.81-.19-1.78.02-1.87,0-.53-.1-.76-.53-.8-.54l.4-.54-3.88-1.07c-2.33.55-4.53-.43-6.42-.54.14-.55-.25-.56-.54-.8-.06-1.42-2.27-2.54.8-2.41.26.01.62-.05.8,0,.06.02.56.51,1.07.8.77.44.74,1.25.94,1.34,1.92.83,2.3-1.11,2.54-1.34.27,1.77.95-.05,2.54-.8.18-.09.69,1.59,2.81-1.87.24-.21.33-.29.54-.54.02-.03.12-.49.54-.54.31.11.43.18.8.27.77.18,1.58-.17,2.94.27,6.99,2.26,3.15,7.78,8.7,7.76.26,0,.44-.78.54-.8.74,1.43,2.63.58,3.08-.4,1.42-3.12-4.73-3.27,2.41-2.54,6.49-.71,4.78-.79,6.42-2.68,2.35-2.7,2.91-1.25,3.08-1.34.27-.14-.45-1.84,2.27-1.07.88.52.95-1.62,1.74-1.34.31.11-.21,1.2,2.01,1.47-.61,3.78,1.27.71,1.47.67,1.09-.22,1.69,3.37,2.68.8,3.16,5.08,6.62,2.06,8.16,5.35Z" fill="#71fffd" stroke-width="0"/><path d="m191.15,104.26c.99-.32,2.28.79,2.41.8.18.02,4.34-1.17,2.81.67-.82.98-8.96-.28-5.22-1.47Z" fill="#3e4288" stroke-width="0"/><path d="m162.11,102.11c2.54-2.32,2.07-1.22,2.94-1.61.08-.03.28.07,1.61-.54.26-.12.59-.35.8-.54-2.12,3.46-2.63,1.79-2.81,1.87-1.59.76-2.27,2.57-2.54.8Z" fill="#272f80" stroke-width="0"/><path d="m192.09,110.14c.03.16-.02.36,0,.54-.1-.05-.42.05-.54,0,.09-1.43-1.63-2.11-2.68-1.34-.28-.12-3.36-.83-3.61-1.07.61-2.37.99.25,2.94.54.84.12,3.33-1.44,3.88,1.34Z" fill="#705dd4" stroke-width="0"/><path d="m206.14,108.54c.82-.34,2.42,1.44,1.34,1.87-1.76.7-2.3-1.47-1.34-1.87Z" fill="#4c4ca9" stroke-width="0"/><path d="m173.35,107.2c-.58.03-.61.26-.8.27-2.21.07-2.23-.14-3.48-.27,2.03-1.38,2.08-.67,4.28,0Z" fill="#888fff" stroke-width="0"/><path d="m166.39,106.66c-1.12-.18-1.43-.5-1.61-.54-.66-.12-.94-.43-1.87-.54v-.54l3.88,1.07-.4.54Z" fill="#5947a3" stroke-width="0"/><path d="m191.55,110.68c-1.18-.54-1.91-1.01-2.68-1.34,1.05-.78,2.76-.1,2.68,1.34Z" fill="#85a2ff" stroke-width="0"/><path d="m212.03,107.47c.81-.64,1.68,1.62.54,1.61-.34,0-1.01-1.23-.54-1.61Z" fill="#4c4ca9" stroke-width="0"/><path d="m201.59,102.38c.81-.23,1.24.81.8,1.07-1.13.67-1.95-.75-.8-1.07Z" fill="#327ccb" stroke-width="0"/><path d="m203.46,102.92c.64-.16.91.93.27,1.07-1.03.23-.73-.95-.27-1.07Z" fill="#327ccb" stroke-width="0"/><path d="m166.66,99.97c-1.32.6-1.53.5-1.61.54-.24-.98,1.18-1.36,1.61-.54Z" fill="#3657b4" stroke-width="0"/><path d="m192.09,98.9c-.27.53-.62.93-1.07,1.34l.27-2.41c1.49-.33,1.34.03.8,1.07Z" fill="#8ff" stroke-width="0"/><path d="m162.91,105.59c.93.11,1.21.42,1.87.54.02.44-.28,1.78-.27,1.87-2.43-.27-6.26.71-5.62,1.87-.35-.04-.72.04-1.07,0-.17-.02-1.5-1.45-3.21.27-1.2-.05-2.27-.33-3.48,0,.13-.13.67-1.75,2.68-2.68,2.71-1.25,6.93.16,5.62-1.2-.24-.25-.96-.12-1.34-.13-.41-.52,4.21-.61,4.82-.54Z" fill="#888fff" stroke-width="0"/><path d="m153.55,107.2l.27.27c-2.01.93-2.54,2.54-2.68,2.68-1.96,1.95-.64.16-2.27.27-.46.03-1.95,1.88-3.35,1.34,1.57-1.16,2.94-2.86,4.28-4.28,1.2-.05,2.5-.51,3.75-.27Z" fill="#2b2e46" stroke-width="0"/><path d="m158.1,106.13c.38.01,1.1-.12,1.34.13,1.31,1.36-2.91-.05-5.62,1.2l-.27-.27c1.49-.56,2.95-1.13,4.55-1.07Z" fill="#745de3" stroke-width="0"/><path d="m135.35,103.19c.21.31.96.67,1.34.8l-5.62-.8c1.06-.21,3.15.2,4.28,0Z" fill="#bbbdeb" stroke-width="0"/><path d="m148.19,104.79c-.2.04.48.75-3.61.8l1.47-1.07c.65.18.87-.3,1.34-.54l.8.8Z" fill="#888fff" stroke-width="0"/><path d="m150.6,116.57c3.37.1,3.19,1.6,3.88,1.34,1.26-.48-1.29-2.6,1.74-.54.25,1.72-10.05,1.21-8.43,2.14l9.63-.8,2.41,1.07c4.91.54,10.27-1.16,14.72.27,6.79-1.9,7.61.32,8.03.27,3.42-2.33,6.94.05,10.97-.27.23-.02,1.06-.67,4.28-1.07,2.16,1.65,3.83.57,4.82.8,1.74,1.31,4.01,2.21,6.02,2.94.21.08.32.2.54.27.03.23-.06.25-.27.27-1.74.13-3.49-.06-5.22-.27-2.52-2.16-5.31-.58-9.1-2.94-8.53,2.22-15.98-.78-20.34,1.07-5.05-.86-10.12-.84-14.99,0-3.99-.93-20.64-2.35-21.68-2.68-.76-.24-1.9-.75-1.2-1.61,2.64-.91,3.17,1,3.61.8.39-.17-.5-1.14,0-1.34.17-.07,1.57,1.25,3.21,1.87,4.64,1.76,3.55.71.13-.94-.04-.89,4.52,1.22,7.23-.67Z" fill="#212756" stroke-width="0"/><path d="m146.86,122.99c-2.3-.14-4.7-.06-6.96-.27-1.46-.14-2.92-.9-4.28-1.07.5-2.3-5.2-.5-6.82-1.87-.97.02-.11.53-2.01.54.54-.11.51-.69.8-1.34.55-.24.79-.81,1.34-1.07,1.54,1.72,1.78.63,3.08.8,2.47.32,5.01,1.14,7.49,1.07,1.64,2.59,5.34.97,7.49,1.61,1.78.53,2.55,1.49-.13,1.61Z" fill="#a9f" stroke-width="0"/><path d="m144.18,112.55c2.75,2.48-3.09.75-3.35.8-.27.06-2.36,2.27-4.42,3.21-4.87,2.23-5.55.41-7.49,1.34-.55.26-.79.83-1.34,1.07,1.05-2.29,2.86-1.31,1.87-2.94,1.63-1.78,2.66-.04,6.02-2.41,2.86,1.86,5.54-3.92,8.7-1.07Z" fill="#20222e" stroke-width="0"/><path d="m135.62,121.65c-.3-.04-1.42-.34-1.74-.54-2.59.02-5.9,1-8.43-.54.43,0,.61-.27,1.34-.27,1.9,0,1.04-.52,2.01-.54,1.62,1.38,7.33-.42,6.82,1.87Z" fill="#837cff" stroke-width="0"/><path d="m205.47,117.1c.91-.96,1.51.07,2.41.54,4.04,2.08,3,.86,3.75,1.07.31.09.86-.21,1.07.54-.86,1.14-3,1.54-4.28,1.34-3.26-1.88-6.74-2.36-10.04-4.28-.7-.43-.02-.71-.13-.8.56-1.85,9.71,4.12,7.23,1.61Z" fill="#745de3" stroke-width="0"/><path d="m211.89,117.91c-.05.36-.06.47-.27.8-.75-.21.3,1.01-3.75-1.07.92-1.32-2.96-2.6-2.94-4.82,3.18,1.19,4.57,2.89,6.96,5.09Z" fill="#a166ff" stroke-width="0"/><path d="m209.75,113.89c1.34.93,2.4,2.24,2.14,4.01-2.39-2.2-3.78-3.89-6.96-5.09-.64-.24-.51-.26-.54-.27,1.92-.14,3.77.24,5.35,1.34Z" fill="#76fff4" stroke-width="0"/><path d="m218.32,120.85c-1.06-.44-2.85-.7-1.61-1.87.07-.07.58.08.67,0,1.01-.86.06-2.23,4.42-.4-1.81.37-2.95.21-3.48,2.27Z" fill="#3a3175" stroke-width="0"/><path d="m164.52,108c.03.26.76,1.28.54,2.94-1.99-.62-4.1-.84-6.16-1.07-.64-1.16,3.19-2.15,5.62-1.87Z" fill="#2b2e46" stroke-width="0"/><path d="m176.03,109.34c.12.07.44,1.14,2.41,1.2-7.11,1.91.53.9,3.61.4.23-.07.11-.53.13-.54.08.02,1.51-.27,1.61-.54.59.13,1.54.56,2.14.8.04.35.47,1.39.54,1.47,1,1.18,6.48,2.19,8.03,1.74-.08.62,2.94,1.59,3.21,1.07.23.18.37.41.54.54.11.09-.56.37.13.8,3.3,1.92,6.77,2.4,10.04,4.28.23,1-.62.66-.54,1.2.02.13.93.14.8.94-2.01-.73-4.28-1.63-6.02-2.94-.98-.23-2.65.85-4.82-.8-3.22.4-4.05,1.05-4.28,1.07-4.04.32-7.55-2.07-10.97.27-.42.05-1.24-2.17-8.03-.27-4.45-1.43-9.81.27-14.72-.27l-2.41-1.07-9.63.8c-1.62-.93,8.68-.42,8.43-2.14,8.76.65,8.43-1.28,1.47-.54-3.18-4.39-3.47-1.74-4.55-2.14-.3-.11-3.93-4.15-2.54,1.87-2.71,1.89-7.27-.22-7.23.67,3.42,1.65,4.5,2.7-.13.94-1.64-.62-3.04-1.94-3.21-1.87-.5.2.39,1.16,0,1.34-.44.2-.98-1.71-3.61-.8v-.27c2.06-.94,4.15-3.16,4.42-3.21.25-.05,6.09,1.68,3.35-.8.45-.39,1.01-.56,1.34-.8,1.4.55,2.89-1.31,3.35-1.34,1.63-.11.31,1.68,2.27-.27,1.21-.33,2.28-.05,3.48,0,2.1.09,3.46.63,3.21-.27.35.04.72-.04,1.07,0,2.06.23,4.16.45,6.16,1.07.6.12,1.05-.17,1.61-.27.29-.05,2.66-1.05,5.75-1.61.35-.06-.3-.38,0-.54l3.61.8Z" fill="#b984ff" stroke-width="0"/><path d="m194.5,113.89c-1.55.45-7.03-.56-8.03-1.74-.07-.08-.5-1.12-.54-1.47,1.18.48,2.39.36,3.08,2.14,3.3-.7,7.88.38,5.49,1.07Z" fill="#3d397f" stroke-width="0"/><path d="m183.79,109.88c-.1.26-1.52.56-1.61.54.57-.19.39-.81,1.61-.54Z" fill="#1f2139" stroke-width="0"/><path d="m156.22,117.37c-3.03-2.06-.48.05-1.74.54-.69.26-.51-1.24-3.88-1.34-1.38-6.02,2.24-1.98,2.54-1.87,1.08.4,1.37-2.25,4.55,2.14,6.96-.75,7.29,1.18-1.47.54Z" fill="#76fff4" stroke-width="0"/><path d="m172.95,113.62c3.16-.23-1.35,2.69-3.88,1.2.83-.13,3.68-1.19,3.88-1.2Z" fill="#272f80" stroke-width="0"/><path d="m178.3,114.43c.65-.18,9.82,2.81-.4.67-.1-.21.26-.63.4-.67Z" fill="#724be6" stroke-width="0"/><path d="m157.83,109.88c.25.9-1.11.36-3.21.27,1.71-1.71,3.04-.29,3.21-.27Z" fill="#3d397f" stroke-width="0"/><path d="m174.82,114.16c.78-.45,3.79.85,0,.54-.22-.13-.22-.41,0-.54Z" fill="#4e4c8b" stroke-width="0"/><path d="m165.72,114.69l2.01.4c-.94.4-2.3-.08-2.01-.4Z" fill="#4e3495" stroke-width="0"/><path d="m204.4,112.55s-.1.03.54.27c-.01,2.22,3.87,3.49,2.94,4.82-.9-.46-1.5-1.49-2.41-.54-.04-.04-.59-.01-1.07-.54-.57-.62-1.42-1.58-1.61-2.41-.63-2.82.69-1.89,1.61-1.61Z" fill="#9572ff" stroke-width="0"/><path d="m58.65.3c-2.81,2.01-9.14.98-10.44,5.35-.41.34-1.05,1.35-1.87,1.34-1.85-1.49-1.01,2.3-3.88,3.21-.26.08-1.97-1.92-3.08,2.81-2.08.8-3.41,3.76-3.75,5.75-.22.03-.32.18-.54.27-2.91,1.11-3.05-.62-6.16,2.68-.92.98-.75,1.28-.8,1.34-2.23,2.69-2.94,2.86-2.94,3.08-.02.69.77.32.8.4.05.12.28.76.27.8-1.21-.15-2.27.63-2.41,1.87-2.6-1.38-5.32-.22-8.16-.54-2.46,1.55-5.16,3.66-4.68,6.96-.91-.59-1.54-.31-1.61-1.34.61-4.7,2.9-4.61,3.35-5.09,2.43-2.59,3.63-5.51,9.63-4.28.69-.28,1.74-9.62,10.71-7.76.75-4.84,3.12-4.9,3.35-5.22.28-.4,1.8-6.06,6.82-6.02l2.68-3.21c2.65-.21,2.84-1.47,3.21-1.61,2.85-1.08,6.47-.89,9.5-.8Z" fill="#a9f" stroke-width="0"/><path d="m9.13,34.29c-.39,1.59-2,.04-2.68,1.61-1.15.18-5.67,3.15-3.21,7.09.13.2,3.15,3.22,3.35,3.35.77.48,4.67,1.32,6.02,1.61.07.01.97.46,1.34.54,1,.2,1.76-.02,2.68,0,.09,0,.18,0,.27,0,1.84,1.68,11.5,1.26,15.26.8.09,0,.18,0,.27,0,3.41.04,3.93.8,4.15.8,1.63.05,3.75-.56,5.49-.54.52,0,1.08,0,1.61,0,2.68.01,5.45,1.12,7.76,0,.26.03.54-.04.8,0,.94.13,2.1-.09,3.08,0,1.05.25,2.61,3.14,7.36,4.01.03.23-.06.25-.27.27-3.18-.91-6.57-2.21-9.9-1.87-1.33-.04-2.68.06-4.01,0-4.31-.19-8.55-.17-12.85-.27-.45,0-.89,0-1.34,0-3.56-.07-7.14.11-10.71,0-1.51-.05-3.04.03-4.55,0l-3.61-.27c-1.1-.36-2.21-.83-3.35-1.07-.6-.13-1.55-.37-2.14-.54-2.05-.59-4.26-.68-6.16-1.87-.12-.08-.77-.5-.8-.54-2.47-2.12-5.11-9.06-.27-9.77.71-2.89,3.57-4.87,6.42-3.35Z" fill="#a9f" stroke-width="0"/><path d="m59.18,40.44c.84.19.68,1.7,1.87.8,1.39,2.41,3.75-.97,4.95,2.41,5.56-.76,2.9,7.37,8.83,2.68,1.17,1.34,4.79-3.85,7.63-.4.25.31.64,1.5.54,2.01-.04,0-.42.47-.67.54-.63.17-3.38-.7-.94,1.61-1.56.18-6.91-1-2.94.8,1.15,1.73-2.32.2-3.21,0-.08-.02-.15-.59-1.47-.8-5.23.94-6.85-1.39-7.23-1.34-1.06.15,1.31,2.45-6.29-1.34-.52-.9-.13-.62-1.34-1.87-.17-.18-1.88-1.09-1.61-1.47.2-.28,1.09.08,1.34-.54.4-1-3.12-2.25-1.61,1.2-2.66-.05-2.69-1.97-3.61-2.41-2.2-1.05-2.76,1.42-2.27-3.21,2.95,1.5,4,.44,8.03,1.34Z" fill="#71fffd" stroke-width="0"/><path d="m46.34,6.99c.07.05.87,1.33.54,1.61-.46.22-2.29,2.72-2.41,3.61-2.24,2.53-3.72,1.41-4.15,4.15-2.53-.66-1.97,4.49-2.68,5.09-.08.06-1.66.46-2.01-.13-.05-.09,0-1.85,0-2.01.02-.26,0-.51,0-.54.34-1.99,1.67-4.96,3.75-5.75,1.11-4.73,2.81-2.73,3.08-2.81,2.87-.91,2.03-4.71,3.88-3.21Z" fill="#1a161f" stroke-width="0"/><path d="m45.8,16.36v.54c-2.38,2.11,1.13,0,2.27,0,.1,0,.43.53.54.54,5.81.26,8.16,1.91,10.3-.8,0,.02.18-.1.27.27.54,2.33-1.34,2.71-3.21,2.68-.89-.01-3.75-.8-5.22-.8-1.23,0-1.3.98-2.68,0-.23,3.42-.99,1.14-2.14,1.87-.38.24-.96,2.6-2.41,1.61-.83-.57,1.5-2.55-3.21-.27-1.42-1.99,5.16-5.33,5.49-5.62Z" fill="#1a161f" stroke-width="0"/><path d="m77.65,32.41c-.41.26-1.41,1.42-3.48,2.41-.76-.05-1.13-.34-1.61-.27-.21-2.18-2.4-1.76-3.75-.8-.11-.53-.51-.76-.54-.8-.08-.15-.21-1.03-.54-1.34,3.8-.43,4.43-2.55,5.35-3.21q2.27,2.01,4.55,4.01Z" fill="#416ff5" stroke-width="0"/><path d="m6.46,35.89c1.03-.16,2.51.04,3.21.94-2.35.91-6.06,3.72-4.82,6.69,1.31,3.13,8.22,2.63,7.76,4.42-1.36-.28-5.25-1.12-6.02-1.61-.2-.13-3.22-3.14-3.35-3.35-2.46-3.94,2.06-6.91,3.21-7.09Z" fill="#1a161f" stroke-width="0"/><path d="m23.85,29.2s.26.37-.67.8c-2.18-1.53-3.64.68-6.16,0l-.4.4c3.34,3.62-1.51-.6-2.54,3.08-2.73-.06-1.91,2.97-3.08,2.14-.48-3.29,2.23-5.41,4.68-6.96,2.84.32,5.57-.85,8.16.54Z" fill="#1a161f" stroke-width="0"/><path d="m61.06,51.68c1.96,1.05,4.25,1.48,6.42,1.74-1.39.73-3.35.4-4.82.13-4.75-.87-6.31-3.76-7.36-4.01-.98-.09-2.14.13-3.08,0,4.36-3.56,6.13.7,8.83,2.14Z" fill="#1f2139" stroke-width="0"/><path d="m57.04,37.5v.27l.8,1.34c-2.72-.13-5.77-.12-8.3-1.2.39-.31.62-.75.8-1.2.28-.71.65-1.43.94-2.14,2.81,2.31,2.31,3.04,5.75,2.94Z" fill="#76fff4" stroke-width="0"/><path d="m49.01,37.23c.44-.19.87-.44,1.34-.54-.18.45-.41.89-.8,1.2,2.53,1.09,5.58,1.08,8.3,1.2,1.31.06.84-.41,2.94.27l-1.61,1.07c-4.03-.9-5.08.16-8.03-1.34-1.34-.75-2.62-.34-4.01,0,.38-.46-1.5-.82-1.61-.8,1.39-1.06-.46-2.18-1.07-3.21,3.54,1.73,1.57,3.42,4.55,2.14Z" fill="#5e54c4" stroke-width="0"/><path d="m75.24,50.88c-1.12.18-2.48.32-3.21,1.34-.57.03-.61-.3-.8-.27.72-1.31-1.26-.77-2.94-1.07-2.41-.43-4.68-1.19-7.09-1.61-1.27-.63-.85-1.72-.94-1.87,7.6,3.79,5.22,1.49,6.29,1.34.38-.05,2,2.28,7.23,1.34,1.32.21,1.39.78,1.47.8Z" fill="#272f80" stroke-width="0"/><path d="m66.14,35.36c-.68.93-.52,1.56.8,1.61l-.54.8c-3.76-3.51-5.92,1.47-9.37,0v-.27c.09,0-.47-1.08,1.2.27-.17-3.08,5.17-3.31,7.9-2.41Z" fill="#1f2139" stroke-width="0"/><path d="m50.08,5.12c.1.83-.08,1.25.8,1.87-4.85,1.01,3.89.18-1.61,1.34-.77.16-1.62-.12-2.41.27.33-.28-.47-1.55-.54-1.61.83,0,1.46-1,1.87-1.34.25-.21,1.89-1.66,2.01-1.61.47.21-.15.94-.13,1.07Z" fill="#2b2e46" stroke-width="0"/><path d="m26,26.53c-.03-.09-.82.29-.8-.4,0-.21.71-.39,2.94-3.08,5.16.65,2.84.43.94,1.87-1.35,1.02-1.08,2.12-3.08,1.61Z" fill="#1a161f" stroke-width="0"/><path d="m35.09,19.03l.27.27c-1.41,2.21-4.16,1.89-6.42,2.41,3.1-3.3,3.25-1.56,6.16-2.68Z" fill="#1a161f" stroke-width="0"/><path d="m68.82,33.75c.33,1.57.24,3.29-1.87,3.21-1.32-.05-1.49-.68-.8-1.61.23-.31,1.56-.48,2.14-2.41.02.04.42.27.54.8Z" fill="#8a5fff" stroke-width="0"/><path d="m58.91,45.53c-.92,1.05-1.16.82-1.87-.8-1.51-3.45,2-2.2,1.61-1.2-.25.62-1.14.25-1.34.54-.27.38,1.44,1.29,1.61,1.47Z" fill="#8a5fff" stroke-width="0"/><path d="m26.26,27.33c-.05.18-2.03,1.6-2.41,1.87.14-1.25,1.2-2.02,2.41-1.87Z" fill="#1a161f" stroke-width="0"/><path d="m35.63,19.3h-.27l-.27-.27c.22-.08.32-.24.54-.27,0,.03.02.28,0,.54Z" fill="#6957b3" stroke-width="0"/><path d="m98.26,37.77s-.76.52-.8.54c-2.39.65-3.01,1.6-7.76,1.07-1.35-.15-3.37-.2-3.21-.67.77-1.01,2.49-2.01,3.75-2.01,3.53,0,1.84,3.34,5.75,1.07.69-.4.03-.74.13-.8-.03-.32.2-.24.27-.27.63-.31,3.01-.43,1.87,1.07Z" fill="#1f2139" stroke-width="0"/><path d="m74.17,34.82s.19.51.4.54c1.27.16,1.65-.29,1.74-.27.92.23,1.74.76,2.68.94l-1.87,2.01c-5.47-.68-1.71-3.01-6.96-.54-1.58-1.08,1.73-2.84,2.41-2.94.48-.07.85.22,1.61.27Z" fill="#a166ff" stroke-width="0"/><path d="m82.47,36.16c.08.18-2.09,1.15,2.41,1.07-2.54.55-4.67-.6-6.96.8h-.8l1.87-2.01c-.94-.18-1.76-.7-2.68-.94,1.11-1.53,1.63-.25,1.74-.27.14-.02,1.71-1.2,2.68-.8.13.05,1.68,2.02,1.74,2.14Z" fill="#5e54c4" stroke-width="0"/><path d="m96.12,36.96c-.11.06.56.4-.13.8-3.91,2.27-2.22-1.06-5.75-1.07v-.8c.7,0,.51-.26.54-.27.33-.15.52-.34.8-.54,1.93.37,3.06.43,4.55,1.87Z" fill="#c0c8f6" stroke-width="0"/><path d="m77.65,32.41q-2.27-2.01-4.55-4.01l.94-.8c3.5.53,3.64-3.15,7.49-1.61,2.41.97-2.76,2.45-3.08,3.61-.69,2.53,1.58.87,1.34,2.14-.25.2-2.05.61-2.14.67Z" fill="#3871bb" stroke-width="0"/><path d="m55.17,3.24c.81.48,2.18.08,1.61,1.34-.21.05-1.35.32-1.34.4,5.89,1.3-1.07.08-.94,1.74-1.37.14-1.63-.89-2.41.54-.26-.35-.84-.34-1.2-.27-.88-.62-.7-1.04-.8-1.87,2.42-1.61,3.14-1.32,5.09-1.87Z" fill="#204985" stroke-width="0"/><path d="m103.88,39.37c-2.22-.23-4.65.83-6.42-1.07.05-.01.76-.52.8-.54,2.19-.67,6.72-2.62,5.62,1.61Z" fill="#272f80" stroke-width="0"/><path d="m94.78,26.79c.9.41,4.08,1.75,4.28,1.87,1.44.86,2.43,2.24,3.75,3.21.97.72,1.68,1.74,2.68,2.41,1.36.91,2.74,1.62,4.28,2.14.26.59.62,1.14,1.07,1.61,2.33,2.39,4.35.52,4.95,2.94,1.89.06,1.91-.69,3.35.8-2.4-.26-4.59-.58-6.96-1.07-2.35-.48-2.68-.22-2.81-.27-.24-.08-.1-.52-.13-.54-.09-.04-.06-.94-1.07,0-2.98-.24-2.4.28-2.54.27-.22-.02-1.64-.79-1.74-.8,1.1-4.23-3.43-2.27-5.62-1.61,1.13-1.5-1.24-1.38-1.87-1.07-.5-4.4-.18-1.26-4.68-2.41-.27.11-.07.76-.13.8-.28.19-.48.39-.8.54-5.38-3.18-3.21,1.13-8.3.54-.06-.12-1.61-2.09-1.74-2.14-.97-.4-2.54.78-2.68.8-.11.02-.63-1.26-1.74.27-.09-.02-.47.43-1.74.27-.22-.03-.37-.53-.4-.54,2.06-.99,3.06-2.15,3.48-2.41.09-.06,1.89-.47,2.14-.67.24-1.27-2.03.39-1.34-2.14.32-1.16,5.48-2.65,3.08-3.61-3.85-1.55-3.99,2.13-7.49,1.61l-.94.8c-.93.67-1.55,2.78-5.35,3.21-1.93-1.79-5.46-1.17-7.36-1.61-1.08-.25-1.65-.78-1.74-.8-.01-2.46-1-1.77-1.07-1.87-.4-.55-.19-.95-.54-1.34,3.22-1.56,2.97-.86,6.29-.27-.46-2.83-1.21-.82-2.14-1.07-.74-.2.47-2.01-1.07-1.87-.5.04-.61,2.02-4.42,2.14-7.12.22,3.91-1.62.27-5.35,1.87.03,3.75-.34,3.21-2.68l2.14-.94c-2.18-2.88-.79-1.79,1.34-2.27.23-.05.36.41.67.27,2.14-1.47,2-1.78,2.14-1.87.2-.14,5.36-2.65,1.34-2.14-.28.04-1.4,1.6-4.95,2.68-.44.13-1.81-.14-2.01,0-1.05.73,2.19,3.12-3.75,1.61-6.97,2.96,1.68-.13,2.81,2.41-2.15,2.72-4.49,1.06-10.3.8-.11,0-.43-.53-.54-.54-1.14,0-4.66,2.11-2.27,0,2.45-2.17,6.62-1.66,6.69-2.01.15-.69-1.01-1.98-1.2-2.01-.91-.11-2.44,3.07-2.81-1.61-.04-.45-1.03-1.2.8-2.94,5.49-1.16-3.24-.33,1.61-1.34.36-.07.94-.09,1.2.27.78-1.43,1.04-.39,2.41-.54-.14-1.66,6.83-.44.94-1.74-.01-.08,1.13-.35,1.34-.4,1.56-.4,3.18-.35,4.68-1.07.74.06,2.51,2.28,4.82,1.61,3.28-.95-4.99-2.71-5.35-3.21-2.05.2-3.9.81-5.75,1.34-1.95.55-2.67.26-5.09,1.87-.02-.13.6-.86.13-1.07-.12-.05-1.76,1.4-2.01,1.61,1.29-4.37,7.63-3.35,10.44-5.35.92.03,1.67-.42,2.81-.27,3.78,2.3,6.96.18,9.9,3.75,3.32-1.45,10.43,1.86,11.11,5.49.73,3.86-2.41,2.46,1.74,7.09,2.95-.21,4.9,3.27,2.81,5.49,1.12.97,1.21,2.84,1.34,2.94.26.22,1.16-.39,6.42,2.01Z" fill="#71fffd" stroke-width="0"/><path d="m45.8,16.89v-.54c2.02-1.76,2.09-2.5,2.68-5.09.37,4.68,1.9,1.49,2.81,1.61.2.02,1.35,1.31,1.2,2.01-.07.35-4.24-.16-6.69,2.01Z" fill="#44387c" stroke-width="0"/><path d="m57.04,25.99c-.4-.45-1.34-.22-1.34-1.07,3.81-.12,3.91-2.1,4.42-2.14,1.54-.13.33,1.68,1.07,1.87.93.25,1.68-1.76,2.14,1.07-3.31-.59-3.07-1.3-6.29.27Z" fill="#4c4ca9" stroke-width="0"/><path d="m56.77,4.58c.58-1.26-.8-.86-1.61-1.34,1.86-.53,3.71-1.13,5.75-1.34.36.5,8.63,2.26,5.35,3.21-2.31.67-4.07-1.54-4.82-1.61-1.5.72-3.13.67-4.68,1.07Z" fill="#327ccb" stroke-width="0"/><path d="m61.86,12.61c-.75,1.19.3.48.8,1.07-2.13.48-3.51-.6-1.34,2.27l-2.14.94c-.09-.37-.26-.25-.27-.27-1.13-2.54-9.78.55-2.81-2.41,5.94,1.51,2.7-.87,3.75-1.61.2-.14,1.57.13,2.01,0Z" fill="#4c4ca9" stroke-width="0"/><path d="m69.35,16.89c-.1.03-1.1-.83-1.47.8-.82-.3-1.69-.36-2.54-.54-.09-.02-.14.29-1.87-.4,1.43-2.2,2.76.04,4.42-2.01,2.3,1.38,6.95.28,1.47,2.14Z" fill="#4c4ca9" stroke-width="0"/><path d="m90.76,35.63s.16.26-.54.27c-.1,0-.68-.85-2.01-.54-.66.16-1.06,1.38-3.35,1.87-4.5.08-2.33-.89-2.41-1.07,5.09.6,2.91-3.72,8.3-.54Z" fill="#44387c" stroke-width="0"/><path d="m66.27,19.03c.3-.13,1.85,1.25,2.14,1.34.51.16,2.27.17,3.21.54,4.29,1.66,2.1,2.67-1.07,1.61-.3-.1-1.94-1.48-2.94-2.14-.1-.07-2.64-.78-1.34-1.34Z" fill="#9572ff" stroke-width="0"/><path d="m62.66,13.68c-.5-.59-1.55.12-.8-1.07,3.56-1.08,4.67-2.64,4.95-2.68,4.02-.51-1.14,2-1.34,2.14-.14.1,0,.4-2.14,1.87-.31.14-.44-.32-.67-.27Z" fill="#327ccb" stroke-width="0"/><path d="m55.03,8.86c3.04.41-.22,1.42-.4,2.01-.09.29,1.53,3.32-3.21.8-.19-1.13,1.27.26,3.61-2.81Z" fill="#0075c4" stroke-width="0"/><path d="m75.91,7.26c2.36.59,3.25,2.97,3.75,5.09-8.56-3.77.77.53-3.75-5.09Z" fill="#327ccb" stroke-width="0"/><path d="m96.25,31.61c4.27-.92,8.87,5.47-.54.54-.33-.1.5-.53.54-.54Z" fill="#3871bb" stroke-width="0"/><path d="m96.38,36.7c-.07.03-.29-.06-.27.27-1.49-1.44-2.62-1.5-4.55-1.87.06-.04-.13-.69.13-.8,4.51,1.15,4.18-1.99,4.68,2.41Z" fill="#4c4ca9" stroke-width="0"/><path d="m80.73,29.74c1.17-.87,1.34,1.33,1.47,1.47,1.17,1.23,2.1,1.22,2.14,1.34.02.06-.87.94-.94.94-.25-.02-3.75-2.95-2.68-3.75Z" fill="#3871bb" stroke-width="0"/><path d="m90.63,31.34c2.19-.11,1.06,2.82-1.34,1.87-1.24-.49.98-1.86,1.34-1.87Z" fill="#3871bb" stroke-width="0"/><path d="m87.15,27.33c.49-.1,2.77,1.63,1.87,2.14-1.17.67-3-1.92-1.87-2.14Z" fill="#327ccb" stroke-width="0"/><path d="m69.35,16.89c-.1,1.74-3.61,1.47-4.01.27.85.17,1.72.23,2.54.54.37-1.63,1.37-.77,1.47-.8Z" fill="#71a6ff" stroke-width="0"/><path d="m60.12,7.52c1.79-.8,1.97,2.06.27,1.61-.46-.12-1.07-1.25-.27-1.61Z" fill="#0088ec" stroke-width="0"/><path d="m71.63,18.23c1.09-.44,1.56,1.58.8,1.87-1.06.41-1.54-1.57-.8-1.87Z" fill="#4c4ca9" stroke-width="0"/><path d="m63.33,8.06c1.94-.08-.12,1.81-1.07,1.61-.8-.17.1-1.57,1.07-1.61Z" fill="#3871bb" stroke-width="0"/><path d="m93.57,30.01c.69-.54,2.24,1.15,1.07,1.61-.78.31-1.65-1.16-1.07-1.61Z" fill="#327ccb" stroke-width="0"/><path d="m105.89,36.43c2.34-.57-.64,2.47-.94.94-.01-.07.87-.92.94-.94Z" fill="#39a0f9" stroke-width="0"/><path d="m72.16,10.47c1.73-.72.22,2.75-.4,1.2-.13-.32.02-1.05.4-1.2Z" fill="#39a0f9" stroke-width="0"/><path d="m80.99,21.17c.69-.17.91,1.29.54,1.61-.7.59-1.46-1.38-.54-1.61Z" fill="#0088ec" stroke-width="0"/><path d="m51.02,9.67c.53-.08.32.25.13.67-1.25,2.82-2.43.65-.13-.67Z" fill="#698da7" stroke-width="0"/><path d="m60.65,17.96c1.78-.32,1.11,1.45-.27,1.07-.59-.16-.47-.94.27-1.07Z" fill="#3863ae" stroke-width="0"/><path d="m57.18,9.13c.39-.13,1.35.07,1.2.67-.12.49-2.91-.1-1.2-.67Z" fill="#327ccb" stroke-width="0"/><path d="m72.97,13.41c.65.13.43,1.32-.54,1.07-.93-.23.39-1.1.54-1.07Z" fill="#0088ec" stroke-width="0"/><path d="m73.23,24.65c1.12,0,.31.72,0,.8-1.3.35-1.58-.8,0-.8Z" fill="#6b4bbe" stroke-width="0"/><path d="m64.13,25.46c1.16-.4,2.54.86-.27.54-.27-.07.12-.48.27-.54Z" fill="#204985" stroke-width="0"/><path d="m105.62,38.3c1.49-.5,2.29.74-.27.54-.27-.07.12-.49.27-.54Z" fill="#229aee" stroke-width="0"/><path d="m84.74,25.19c.97-.19.4,1.09,0,1.07-.4-.02-.55-.96,0-1.07Z" fill="#39a0f9" stroke-width="0"/><path d="m71.63,5.92c1-.19.71.68.27.8-.55.15-.84-.69-.27-.8Z" fill="#229aee" stroke-width="0"/><path d="m69.22,9.93c1.46-.29.96.77-.54.54-.33-.1.5-.53.54-.54Z" fill="#3493d1" stroke-width="0"/><path d="m109.23,39.91c-1.04.65-1.02,0-1.07,0,1.01-.94.98-.04,1.07,0Z" fill="#416ff5" stroke-width="0"/><path d="m72.7,7.79c.9-.61,1.14,1.27,0,.54-.23-.15-.23-.38,0-.54Z" fill="#229aee" stroke-width="0"/><path d="m79.66,16.36c.48-.15.37.36.4.4.71.99-1.16-.16-.4-.4Z" fill="#00a9d9" stroke-width="0"/><path d="m103.34,49.54c1.19.95,2.3,1.97,3.48,2.94-3.7-.63-7.28.23-11.11,0-2.28-.14-4.6-1.13-6.96-.8-.54-.36-.36-.72-.4-.8,1.24.15,1.02-.74,1.07-.8,1.24-.16,1.76.6,1.61-.27.56-.01.59.27.8.27.59,0,.19-.34,1.47-.54.26-.04.36,1.18.94-.27.6.32.51-.6.94,1.34,2.02-1.25.17,1.15,3.61-.8.05-.03.9.76.27-.4-.54-1-2.16-1.23-1.2-1.74,3.89-.35,3.58,2.73,5.49,1.87Z" fill="#6ff" stroke-width="0"/><path d="m88.35,50.88c.04.08-.13.44.4.8,2.35-.33,4.68.67,6.96.8,3.83.23,7.4-.63,11.11,0,.59.49,1.28.13.94.54-5.59.28-11.28-.23-16.86,0-2.42.1-4.11,1.95-6.02-.54.13,0,1.84-.23,2.41-.8,1.21-1.21.34-2.92-1.07-3.48-.66-.26-1.93-.27-2.68-.27l1.07-1.34c.93.42,2.16-.29,2.41-.13.45.29,1.03,3.76,1.34,4.42Z" fill="#272f80" stroke-width="0"/><path d="m81.4,50.08c.17-.02.37.03.54,0,.1.54,1.9.76,2.41.8.24-.01.27.23.54.27.79.11,1.74-.17,2.41.54-.57.57-2.28.81-2.41.8-.57-.04-1.46-.47-1.87-.54-.15-.03-.34-1.16-2.81-.27-1.25-1.47-1.64-.76-1.74-.8-3.97-1.8,1.39-.63,2.94-.8Z" fill="#6b4bbe" stroke-width="0"/><path d="m102.27,47.14l1.34,1.34c-.26.27-.31.7-.27,1.07-1.91.85-1.6-2.22-5.49-1.87-.96.51.66.74,1.2,1.74.63,1.17-.22.37-.27.4-1.38-.71-1.92-2.01-2.68-2.68,2.05-.68,4.13-.05,6.16,0Z" fill="#1f5b9e" stroke-width="0"/><path d="m83,51.95c-3.65.56-7.31.04-10.97.27.73-1.02,2.09-1.16,3.21-1.34.89.2,4.36,1.73,3.21,0,.1.05.49-.67,1.74.8,2.47-.89,2.66.24,2.81.27Z" fill="#a46bff" stroke-width="0"/><path d="m72.56,34.56c-.68.1-3.99,1.87-2.41,2.94-.72.34-2.08.58-2.14.67,1.37,1.83,5.38,2.76,7.09,2.01,1.15,1.29,5.73,2.79,7.23,2.41,1.97,2.54-.98-.42-1.47,1.61-.75-.27-1.26-.79-2.01-1.07-6.08.32-11.72-2.31-17.8-1.87-1.19.89-1.04-.62-1.87-.8l1.61-1.07c.34.11,1.44,1.03,1.74,1.07,2.24.32,2.88-1.68,5.22-1.47-1.22-.12-1.03-.92-1.34-1.2l.54-.8c2.12.08,2.2-1.64,1.87-3.21,1.35-.96,3.53-1.38,3.75.8Z" fill="#2b275a" stroke-width="0"/><path d="m80.86,44.19c4.3,1.55,2.54,1.55,3.21,2.14.35.31.33.17.54.27l-1.07,1.34c-.14,0-.51,0-.54,0,.1-.5-.28-1.7-.54-2.01-2.84-3.45-6.46,1.74-7.63.4-5.93,4.69-3.27-3.43-8.83-2.68-1.2-3.38-3.56,0-4.95-2.41,6.07-.44,11.72,2.19,17.8,1.87.75.28,1.26.8,2.01,1.07Z" fill="#b984ff" stroke-width="0"/><path d="m83.54,47.94c.75,0,2.02,0,2.68.27-1.08.94-2.92,1.64-4.28,1.87-.17.03-.36-.02-.54,0-2.45-2.31.3-1.44.94-1.61.25-.07.63-.53.67-.54.03,0,.4,0,.54,0Z" fill="#bd92ff" stroke-width="0"/><path d="m66.41,37.77c.31.29.12,1.09,1.34,1.2-2.34-.21-2.98,1.8-5.22,1.47-.3-.04-1.4-.96-1.74-1.07-2.11-.68-1.64-.21-2.94-.27l-.8-1.34c3.45,1.47,5.61-3.51,9.37,0Z" fill="#b984ff" stroke-width="0"/><path d="m49.28,8.33c-1.83,1.75-.84,2.49-.8,2.94-.59,2.59-.66,3.33-2.68,5.09-.33.29-6.91,3.63-5.49,5.62,4.71-2.28,2.38-.31,3.21.27,1.45,1,2.03-1.36,2.41-1.61,1.15-.74,1.92,1.55,2.14-1.87,1.38.98,1.45,0,2.68,0,1.47,0,4.33.79,5.22.8,3.64,3.74-7.39,5.57-.27,5.35,0,.85.93.62,1.34,1.07.34.39.14.78.54,1.34-3.25.98-.79-4.07-3.48.94,1.57.08,3.04.56,4.55.94.09.02.66.55,1.74.8,1.9.44,5.43-.18,7.36,1.61.33.3.46,1.19.54,1.34-.58,1.93-1.91,2.1-2.14,2.41-2.73-.9-8.07-.67-7.9,2.41-1.67-1.35-1.11-.27-1.2-.27-3.45.09-2.95-.63-5.75-2.94-.29.72-.66,1.43-.94,2.14-.47.09-.9.35-1.34.54-3.15-3.87-3.94-8.62-6.56-6.96-1.86,1.18,1.22,2.71.67,4.68.23.32,1.08,0,1.34.13.61,1.03,2.46,2.15,1.07,3.21-.28.03-1.91.99-1.87,1.2,2.97,1.54,3.28-.35,3.48-.4,1.39-.34,2.67-.75,4.01,0-.49,4.63.07,2.16,2.27,3.21.93.44.96,2.36,3.61,2.41.71,1.62.95,1.85,1.87.8,1.21,1.25.82.97,1.34,1.87.09.16-.34,1.25.94,1.87,2.41.42,4.68,1.18,7.09,1.61-.59,1.3-5.12.16-7.23.8-2.7-1.44-4.47-5.7-8.83-2.14-.26-.04-.54.03-.8,0-2.64-.27-4.66-1.07-7.76,0-.53,0-1.08,0-1.61,0-3.17-.68-6.45-.2-9.63-.27-.09,0-.18,0-.27,0-4.82-.13-9.55-.54-14.32-1.34-.85-.14-.88.54-.94.54-.09,0-.18,0-.27,0-.18-.8-2.91-.83-2.68,0-.37-.07-1.27-.52-1.34-.54.46-1.78-6.45-1.29-7.76-4.42-1.25-2.97,2.47-5.78,4.82-6.69-.7-.9-2.18-1.1-3.21-.94.67-1.57,2.29-.02,2.68-1.61h.27c.07,1.02.7.75,1.61,1.34,1.16.83.35-2.21,3.08-2.14,1.04-3.68,5.88.54,2.54-3.08l.4-.4c2.51.68,3.97-1.53,6.16,0,.93-.43.63-.77.67-.8.38-.27,2.36-1.7,2.41-1.87.01-.04-.22-.68-.27-.8,2,.51,1.73-.59,3.08-1.61,1.91-1.44,4.22-1.23-.94-1.87.05-.06-.12-.36.8-1.34,2.26-.52,5.02-.19,6.42-2.41h.27c0,.16-.05,1.92,0,2.01.35.59,1.93.2,2.01.13.7-.59.15-5.74,2.68-5.09.43-2.74,1.91-1.62,4.15-4.15.12-.89,1.95-3.39,2.41-3.61.79-.39,1.64-.1,2.41-.27Z" fill="#b984ff" stroke-width="0"/><path d="m23.85,40.98c-.06-.04-.7-.09-1.34-.54,2.03-1.97,1.16-5.36,8.7-4.28-3.86,1.53.75,1.44,1.87.54,1.24.44,3,3.67,1.87,3.75-3.04-4.75-5.57-1.16-5.89-1.34-.46-.26,1.43-3.83-5.22,1.87Z" fill="#1a161f" stroke-width="0"/><path d="m49.01,37.23c-2.98,1.28-1.01-.41-4.55-2.14-.26-.13-1.11.19-1.34-.13.55-1.98-2.53-3.5-.67-4.68,2.62-1.66,3.41,3.08,6.56,6.96Z" fill="#76fff4" stroke-width="0"/><path d="m32.15,49.28c-3.75.46-13.42.88-15.26-.8.05,0,.09-.67.94-.54,4.77.8,9.49,1.2,14.32,1.34Z" fill="#212756" stroke-width="0"/><path d="m23.85,40.98c1.62,1.08,3.37,1.5,2.68,2.41-2.49-.11-2.52-.65-4.55.27-1.18-2.03-.03-.37-.27-2.41.05-.03.63-.63.8-.8.64.44,1.28.5,1.34.54Z" fill="#a166ff" stroke-width="0"/><path d="m26.53,43.39c3.6.16,8.04,1.06.94,1.34,2.61-2.23-.37-.28-.54-.27-1.28.11-2.79-.37-4.95-.27-.02-.21.03-.48,0-.54,2.03-.92,2.06-.38,4.55-.27Z" fill="#3d397f" stroke-width="0"/><path d="m17.7,43.39c.05.22-.86,1.03,1.07,0,.14.01,2.04.57,2.68.8-1.79.07-6.68,1.73-9.23-.8,1.32,0,4.6-.07,5.49,0Z" fill="#3d397f" stroke-width="0"/><path d="m42.05,36.96c-1.19-.66-1.98-1.01-3.21-.27-.34-.14-1.73-.19-1.87-.4,1.83-1.89,5.14-3.11,5.09.67Z" fill="#76fff4" stroke-width="0"/><path d="m21.98,43.66c.03.06-.02.32,0,.54-.18,0-.36,0-.54,0-.64-.23-2.54-.79-2.68-.8-.52-.04-.7.03-1.07,0-.59-2.45,1.23-.44,4.01-2.14.24,2.04-.91.38.27,2.41Z" fill="#5e54c4" stroke-width="0"/><path d="m57.58,27.33c.07.1,1.06-.58,1.07,1.87-1.51-.37-2.98-.86-4.55-.94,2.69-5.01.23.05,3.48-.94Z" fill="#5947a3" stroke-width="0"/><path d="m42.05,49.54c-1.74-.03-3.86.59-5.49.54-.22,0-.74-.76-4.15-.8,3.19.07,6.46-.41,9.63.27Z" fill="#5f40c4" stroke-width="0"/><path d="m51.42,49.54c-2.31,1.12-5.08.01-7.76,0,3.1-1.07,5.12-.27,7.76,0Z" fill="#5f40c4" stroke-width="0"/><path d="m51.55,19.3c2.06-.05-.23,2.67-2.54,2.27.4-.75,1.75-2.25,2.54-2.27Z" fill="#1f2139" stroke-width="0"/><path d="m47.14,39.11c-.2.05-.5,1.94-3.48.4-.04-.21,1.6-1.17,1.87-1.2.1-.01,1.99.34,1.61.8Z" fill="#272f80" stroke-width="0"/><path d="m42.05,36.96c0,.32.12,1.15-.13,1.34-.86-.76-2.04-1.19-3.08-1.61,1.23-.74,2.02-.39,3.21.27Z" fill="#6b4bbe" stroke-width="0"/><path d="m33.09,44.19c.57-.06,1.96.14,2.14.27,2.17,1.52-6.7.22-2.14-.27Z" fill="#3a3175" stroke-width="0"/><path d="m45.27,45.53c-3.21-.53-3.96-2.03-3.75-.54-.09-.01-.18.01-.27,0-1.63-1.96-2.76-.68-5.35-1.34-2.77-5.18,1.46-1.44,1.74-1.34,3.73,1.41,5.34-.26,7.63,3.21Z" fill="#76fff4" stroke-width="0"/><path d="m41.25,44.99c-.3-.04-4.41,1.03-5.62-.94-.21-.34.28-.38.27-.4,2.59.66,3.73-.62,5.35,1.34Z" fill="#3d397f" stroke-width="0"/><path d="m45.27,45.53v.27c-2.94-.29-3.56-.78-3.75-.8-.22-1.5.54,0,3.75.54Z" fill="#7366b9" stroke-width="0"/><path d="m45.27,45.8v-.27c.1.02.59-.46,2.01-.27,3.18.43,1.79.91-2.01.54Z" fill="#5b37a7" stroke-width="0"/><path d="m36.57,39.37c.76-.45,2.21.83,2.01,1.2-1.83.07-2.75-.77-2.01-1.2Z" fill="#5f40c4" stroke-width="0"/><path d="m16.63,48.47c-.92-.02-1.68.2-2.68,0-.23-.83,2.5-.8,2.68,0Z" fill="#212756" stroke-width="0"/><path d="m52.36,21.44c1.72,0-2.37,2.62-1.47.94.09-.18,1.09-.34,1.47-.94Z" fill="#1f2139" stroke-width="0"/><path d="m18.77,43.39c-1.93,1.03-1.02.22-1.07,0,.37.03.55-.04,1.07,0Z" fill="#a9f" stroke-width="0"/><path d="m90.23,35.89v.8c-1.26,0-2.98.99-3.75,2.01-.16.47,1.87.52,3.21.67-.42.85-.96.19-.54,1.34-.25-.18-.48-.28-.8-.27-1.31.04-1.46,1.29-1.74,1.34-.36.06-1.73-1.57-1.87-1.61-1.72-.43-1.94,2.25-6.82-2.14,2.29-1.4,4.42-.25,6.96-.8,2.28-.49,2.68-1.71,3.35-1.87,1.33-.32,1.9.54,2.01.54Z" fill="#b984ff" stroke-width="0"/><path d="m77.11,38.04h.8c4.89,4.39,5.11,1.72,6.82,2.14.15.04,1.52,1.67,1.87,1.61.28-.05.43-1.3,1.74-1.34.62,1.53-.48,1.93-.27,3.08-.66.1-1.19.05-1.87.13-.58-.26-3.12-1.74-2.14.13.16.31.31-.29.8-.13-.36.86.08,2.78-.8,2.68-.67-.59,1.09-.6-3.21-2.14.49-2.03,3.44.94,1.47-1.61-1.5.38-6.08-1.12-7.23-2.41-1.71.75-5.72-.18-7.09-2.01.06-.09,1.43-.33,2.14-.67,5.25-2.47,1.48-.14,6.96.54Z" fill="#71fffd" stroke-width="0"/><path d="m87.28,51.68c-.67-.7-1.62-.42-2.41-.54,1.21-1.08-.45-.26-.54-.27-.51-.05-2.31-.26-2.41-.8,1.36-.24,3.2-.93,4.28-1.87,1.41.56,2.28,2.27,1.07,3.48Z" fill="#efe8f0" stroke-width="0"/><path d="m84.88,51.15c-.27-.04-.3-.28-.54-.27.08,0,1.75-.81.54.27Z" fill="#8a8abb" stroke-width="0"/><path d="m89.16,40.71c.39.29.47.62.54,1.07.02.17,0,.36,0,.54.02,1.1-.78,1.08-.4,1.61,2.34-.24,5.1,1.68,6.82,3.21.76.67,1.3,1.96,2.68,2.68-3.45,1.95-1.6-.44-3.61.8-.42-1.94-.34-1.02-.94-1.34-1.03-.55-3.11-1.36-2.41.8-.22,0-.24-.28-.8-.27-.09,0-1.04-.54-1.74-.27-.57.22.15.51.13.54-.05.06.17.95-1.07.8-.31-.66-.89-4.13-1.34-4.42-.25-.16-1.48.55-2.41.13-.21-.09-.19.04-.54-.27.88.11.44-1.82.8-2.68.5.16.85.06,1.34,0,.68-.09,1.21-.03,1.87-.13-.22-1.15.89-1.55.27-3.08.33-.01.56.08.8.27Z" fill="#71fffd" stroke-width="0"/><path d="m94.24,49.28c-.57,1.45-.67.23-.94.27-1.28.19-.88.53-1.47.54-.7-2.16,1.38-1.35,2.41-.8Z" fill="#39a0f9" stroke-width="0"/><path d="m91.03,49.81c.15.87-.37.11-1.61.27.02-.02-.7-.31-.13-.54.7-.27,1.65.27,1.74.27Z" fill="#109ad5" stroke-width="0"/><path d="m89.29,46.33c.72-.3,1.81,1.29,1.34,1.87-.9,1.1-2.34-1.46-1.34-1.87Z" fill="#229aee" stroke-width="0"/><path d="m86.21,43.66c-.49.06-.83.16-1.34,0-.49-.15-.64.45-.8.13-.98-1.87,1.56-.39,2.14-.13Z" fill="#6b4bbe" stroke-width="0"/></g></svg>