<?xml version="1.0" encoding="UTF-8"?><svg id="Layer_2" xmlns="http://www.w3.org/2000/svg" viewBox="0 0 61.58 20.19"><g id="Layer_1-2"><path d="m53.54,13.75c.07.04.82-.1,1.47.27.1.06.24.74.8,1.07,1.04.61,2.2.95,4.15,2.14l-.27.54c-.27.02-.54-.02-.8,0-1.14-1.06-2.54-.66-4.28-1.34-1.13-.44-.72-.98-.94-1.07-.16-.07-2.72,1.46-.13-1.61Z" fill="#6ff" stroke-width="0"/><path d="m61.57,17.77s.1.48-.13.54c-.2.04-1.65-.54-1.74-.54l.27-.54c.33.2,1.19.59,1.61.54Z" fill="#1f5b9e" stroke-width="0"/><path d="m11.79,15.89c.96.68,3.38-.16,3.21,1.61-.13.05-.61-.13-.8.54-4.35.23-5.98.77-8.03,1.07-.29.04-.98-.22-2.14,0l-1.07-.54c1.78-.89,3.6-1.74,5.35-2.68-.28,1.64,2.08.35,3.48,0Z" fill="#888fff" stroke-width="0"/><path d="m28.38,1.71c.91,1.5-.27,1.13-1.07,2.41-.23-.04-.73-.35-.94-.54-.36.2-.3.63-.67.8-4.29,1.98-3.31,4.38-6.42,5.09-1.49-.74,2.34-1.28,1.61-4.68.99-.52,1.96-1.21,2.94-1.74,3.82-2.05,3.11-.95,4.55-1.34Z" fill="#416ff5" stroke-width="0"/><path d="m16.6,9.74c-.13.13-2.54,1.19-2.14,2.81.23.92,5.14,1.37-2.68,3.35-1.4.35-3.75,1.64-3.48,0,1.18-.63,2.42-.81,2.81-2.14,4.55.93,2.34-5.75,5.49-4.01Z" fill="#2b2e46" stroke-width="0"/><path d="m23.83,3.05c-.98.53-1.95,1.22-2.94,1.74.74,3.4-3.1,3.94-1.61,4.68v.27c-.81-.15-1.55-.42-2.41-.27.27-.29.94-.24,2.41-2.54,1.65-2.58-.44-3.31,4.55-3.88Z" fill="#17376d" stroke-width="0"/><path d="m44.17,16.7c3.84-1.65,5.81,2.13,7.9-.8.57.07.31,1.78,2.54.54,1.74.68,3.14.28,4.28,1.34-.03,0-.2.52-.4.54-5.28.36-10.65-.28-15.92-.27-.35-1.15-5.64-.48-9.23-1.34-.28,1.72-3.92-.72-3.61,1.61-2.28.02-4.62-.31-6.96-.27l-.4-1.07c2.67.39,4.93-.68,6.02-2.68,2.06.4,5.46,1.3,5.75,1.34.6.09,3.58-.38,4.55-.27.14.02.66.79.8.8,1.25.14,1.25-1.16,4.68.54Z" fill="#272f80" stroke-width="0"/><path d="m22.76,13.48c1.28.67,1.78-.02,1.87,0,1.23.29,2.5.56,3.75.8-1.09,2-3.35,3.06-6.02,2.68l.4,1.07c-2.86.05-7.3-.07-8.56,0,.19-.66.67-.49.8-.54,1.52-.57,2.72-1.37,4.28-1.47-.64-1.24-5.26.22-2.27-2.01.1-.07.7.43,2.01-1.07.76,1,3.11,1.88,3.75.54Z" fill="#2b275a" stroke-width="0"/><path d="m42.56,18.03c-4.26.01-8.57.23-12.85.27-.31-2.33,3.33.11,3.61-1.61,3.6.85,8.88.19,9.23,1.34Z" fill="#416ff5" stroke-width="0"/><path d="m46.58,12.15c.06.24-.05.09.27,1.07,1.6,4.86.05.99-2.68,3.48-3.44-1.7-3.43-.39-4.68-.54-.14-.02-.66-.79-.8-.8-.97-.11-3.95.35-4.55.27-.29-.04-3.69-.94-5.75-1.34-1.24-.24-2.52-.51-3.75-.8-.22-.78.72-1.11,1.34-1.34.19-.07,1.04.09,1.87-.27-.03.32.18.23.27.27,1.62.65,1.91-.02,2.01,0,.24.05.52,1.62,4.55.27,2.82.18,2.67.52,2.81.54,1.46.12,1.02-.38,3.48.27,1.2.32,5.21,2.89,5.62,1.47.03-.1-1.25-1.42-1.34-1.47.03-.25-.06-.57,0-.8.02-.07.46-.97.54-1.34.64-.14.69.61.8,1.07Z" fill="#efe8f0" stroke-width="0"/><path d="m29.72,10.81c.53,1.39-.78,1.1-1.61,1.34-.09-.03-.29.05-.27-.27-4.66-3.7-6.74-1.98-5.09-4.68.44-.72,1.87-1.6,2.68-2.01,0,2.09,2.4,5.22,4.28,5.62Z" fill="#b984ff" stroke-width="0"/><path d="m38.01,11.88c-.36.36-.27.66-.54,1.07-.14-.01,0-.35-2.81-.54-4.03,1.35-4.31-.22-4.55-.27-.1-.02-.39.65-2.01,0,.83-.24,2.13.05,1.61-1.34.04,0,.21-.07.8,0,.41,1.12,3.8,1.53,2.94.54-.51-1.85.83-.5.94-.54.23-.07,1.6-2.43,3.61,1.07Z" fill="#272f80" stroke-width="0"/><path d="m25.7,4.38c.13.93-.27.76-.27.8-.81.41-2.24,1.28-2.68,2.01-1.65,2.71.43.98,5.09,4.68-.83.35-1.68.2-1.87.27-.46.13-.61-.32-.8-.27.43-1.13-2.24-2.84-2.81-2.41-.88.66,1.16,1.14-2.27.54-1.03-.18-.76-.26-.8-.27v-.27c3.12-.7,2.13-3.1,6.42-5.09Z" fill="#5947a3" stroke-width="0"/><path d="m42.56,11.88c.45.05,2.24.33,2.68.54-.06.23.03.55,0,.8-.97-.59-3.53-1.12-4.28,0-2.46-.65-2.02-.14-3.48-.27.27-.41.17-.71.54-1.07.12-.12,1.3.34.54-.8.05.04.21-.04.27,0,2.14,1.55,3.3.75,3.75.8Z" fill="#745de3" stroke-width="0"/><path d="m42.3,10.81l.27,1.07c-.45-.05-1.61.75-3.75-.8.36-1.95,2.61-.03,3.48-.27Z" fill="#bbbdeb" stroke-width="0"/><path d="m31.59.64c1.53-.09.14.45.4.8.14.19,2.16-.75.27,2.41-4.04-2.48-2.72.99-2.94,1.07-.1.04-.76-.59-2.01-.8.8-1.28,1.98-.91,1.07-2.41,1.55-.41,1.83-.57,3.21-1.07Z" fill="#0075c4" stroke-width="0"/><path d="m44.17,5.19c1.54,2.44,2.19,2.89,1.61,5.89-.07.37-.52,1.27-.54,1.34-.44-.21-2.22-.49-2.68-.54l-.27-1.07c1.68-1.72,2.51.27,2.68-.13.34-.81-1.91-3.47-3.88-.94-1.97-2.12-4.84-.62-2.54,1.34.76,1.15-.42.69-.54.8-2.02-3.5-3.38-1.14-3.61-1.07-.11.03-1.44-1.32-.94.54-.93-.65-1.95-.41-2.94-.54-.59-.07-.76,0-.8,0-1.88-.4-4.27-3.53-4.28-5.62,0-.04.4.12.27-.8.37-.17.31-.61.67-.8.21.18.71.5.94.54,1.25.22,1.91.84,2.01.8.22-.08-1.1-3.55,2.94-1.07,1.89-3.16-.13-2.22-.27-2.41-.26-.35,1.13-.89-.4-.8.15-.05.23-1.57,2.54.27.97-1.78,3.79,2.54,6.16,2.14,2.1,3.28,1.7,1.22,3.88,2.14Z" fill="#71fffd" stroke-width="0"/><path d="m42.3,10.81c-.87.24-3.12-1.69-3.48.27-.06-.04-.22.04-.27,0-2.29-1.96.57-3.46,2.54-1.34,1.97-2.53,4.22.13,3.88.94-.17.41-1-1.59-2.68.13Z" fill="#0075c4" stroke-width="0"/><path d="m33.47,11.34c.86.99-2.53.58-2.94-.54,1,.12,2.02-.11,2.94.54Z" fill="#a166ff" stroke-width="0"/><path d="m35.2,7.06c1.46-.72.89,2.41-.54,1.61-.2-.11.46-1.57.54-1.61Z" fill="#0075c4" stroke-width="0"/><path d="m34.94,3.31c.95-.24,1.2.92.54,1.07-.48.11-1.27-.88-.54-1.07Z" fill="#327ccb" stroke-width="0"/><path d="m33.33,5.19c1.63-.02,1.3,1.32.8,1.34-.08,0-.87-1.07-.8-1.34Z" fill="#109ad5" stroke-width="0"/><path d="m52.2,12.41c.16.08.3.13.54.27.06.03.74,1.03.8,1.07-2.59,3.06-.03,1.53.13,1.61.21.09-.19.63.94,1.07-2.23,1.24-1.97-.47-2.54-.54-2.09,2.94-4.06-.84-7.9.8,2.72-2.49,4.28,1.38,2.68-3.48,1.32.53,1.11-.58-.27-1.07-.11-.46-.16-1.21-.8-1.07.58-3-.06-3.45-1.61-5.89,3.69,1.57.27,7.87,4.95,5.89,1.22.81.1,1.5.54,1.61,3.01-1.22-1.79,1.63,1.87,1.61.54-.25-1.65-3.12.67-1.87Z" fill="#6ff" stroke-width="0"/><path d="m46.85,13.22c-.32-.98-.21-.83-.27-1.07,1.38.49,1.58,1.6.27,1.07Z" fill="#3493d1" stroke-width="0"/><path d="m50.46,15.09c.13-.08,2.05.65-.27.54-.25-.05-.02-.36.27-.54Z" fill="#698da7" stroke-width="0"/><path d="m21.42,11.61c.1.06.76,1.57,1.34,1.87-.63,1.34-2.99.46-3.75-.54.11-.13-.45-.42-.27-.67.58-.8,1.7-1.28,2.68-.67Z" fill="#e8dbed" stroke-width="0"/><path d="m25.17,11.88s.18.23-.8.54c-.21-.04-.34-.18-.54-.27-1.64-.74-.51-1.01-2.14-.8l-1.61-1.34c3.43.6,1.39.12,2.27-.54.57-.43,3.24,1.28,2.81,2.41Z" fill="#b4d7ff" stroke-width="0"/><path d="m23.83,12.15c-.52.96.1.4.54.27.98-.3.76-.52.8-.54.2-.05.35.4.8.27-.62.22-1.56.56-1.34,1.34-.09-.02-.59.67-1.87,0-.58-.3-1.24-1.81-1.34-1.87-.03-.23.07-.24.27-.27,1.63-.2.5.07,2.14.8Z" fill="#855cfa" stroke-width="0"/><path d="m19.28,9.74s-.23.09.8.27l1.61,1.34c-.2.03-.3.04-.27.27-.97-.61-2.09-.13-2.68.67-.18.25.38.54.27.67-1.31,1.5-1.91,1-2.01,1.07-2.99,2.23,1.64.77,2.27,2.01-1.56.1-2.76.9-4.28,1.47.17-1.77-2.25-.92-3.21-1.61,7.82-1.97,2.9-2.43,2.68-3.35-.4-1.62,2.01-2.68,2.14-2.81.1-.09.17-.16.27-.27.86-.15,1.6.12,2.41.27Z" fill="#85a2ff" stroke-width="0"/><path d="m18.08,10.81c2.35-.34-2.6,3.61-1.2.94.13-.25,1.07-.92,1.2-.94Z" fill="#3d397f" stroke-width="0"/><path d="m45.24,13.22c.09.05,1.37,1.38,1.34,1.47-.41,1.42-4.42-1.16-5.62-1.47.76-1.12,3.31-.59,4.28,0Z" fill="#b984ff" stroke-width="0"/><path d="m24.37,12.41c-.43.13-1.06.69-.54-.27.2.09.33.23.54.27Z" fill="#3a3175" stroke-width="0"/><path d="m4.02,19.1c-1.01.2-2.21.77-3.21,1.07-.22.06-.6-.07-.8,0-.15-.67,1.34-.81,2.94-1.61l1.07.54Z" fill="#0080e9" stroke-width="0"/></g></svg>