<?xml version="1.0" encoding="UTF-8"?><svg id="Layer_2" xmlns="http://www.w3.org/2000/svg" viewBox="0 0 117.64 31.77"><g id="Layer_1-2"><path d="m10.45,19.02c-3.41,1.04-6.08,2.89-9.37,4.55-.59-.07-1.16.22-1.07-.4,5.34-3.66,5.7-2.17,6.02-2.27.61-.2-.76-1.41,4.15-2.14.11.26.09.18.27.27Z" fill="#0075c4" stroke-width="0"/><path d="m31.59,7.51c.28,1.24-1.36,3.15-1.2,3.21,1.38-.19,3.47.26,4.68,0-.04.62.75,1.45.8,1.87.08.65-.29,1.07-.54,1.61-.79.06-2.27-1.75-2.54-1.61-.67.36,2.06,2.73-2.41,1.61-.31.31.42.51.4.54-.46.82-1.18.47-.54,1.07.16.15,3.47,1.56,4.01,1.61l.8,1.34c-1.37,1.16-1.49,0-1.74,0-1.75.01-5.73-.23-7.23-.54-1.74-.36-3.14-2.31-2.27-.13.36.9,1.02,1.11,1.87,1.34.1.57-2.79.86-4.15-.94-4.56,1.34-4.14.95.4,2.14-1.17.28-2.56.43-3.75.54-5.68.51-5.24-.7-6.42-.8v-1.34c2.41-.34,2.03-2.27,2.54-2.68,2.55-.24,2.62-1.19,2.94-1.34.28-.13,1.28.13,1.61,0,.52-.21,1.33-1.19,2.81-1.61.3-.08.77-.21,1.07-.27.06-.01.95.64,1.2.54.89-2.1,5.37-7.53,7.63-6.16Z" fill="#b984ff" stroke-width="0"/><path d="m54.34,21.16c1.61,1.22-.24.85-.54,2.41-5.7.34-11.68-.03-17.4-.27,5.08-3.03-2.04-.71-2.54-.8-3.25-1.92,3.31-1.17,8.16-.8,2.26.17,4.41.6,6.56,1.07,1.72-1.3,3.32-.98,3.48-1.07.32-.17-.21-.31-.13-.54.65-1.86-.57-1.17-1.61-1.87.18,0,.36.02.54,0,.74-.07.87-.54.94-.54.45.07,1.33,1.87,1.87,2.41.08.08.58-.07.67,0Z" fill="#5b5cc0" stroke-width="0"/><path d="m31.59,5.37l-2.41,1.74c.11.5,1.98-1.51,2.41.4-2.26-1.37-6.74,4.06-7.63,6.16-.26.11-1.14-.55-1.2-.54-.78-2.28,6.66-8.85,7.76-9.1-.11.5.76,1.2,1.07,1.34Z" fill="#1f2139" stroke-width="0"/><path d="m44.17,13.93c.13.54,1.27.49,1.34.54.1.07-.2.55,1.74,1.61.48.26,4.04.39,3.61,3.21-.18.02-.36,0-.54,0-6.32-4.33-7.51-1.67-7.9-1.87-.29-.16.76-.25-.67-1.61-.02-.91-.42-.84.27-1.61.14,0,.82-.19,2.14-.27Z" fill="#b984ff" stroke-width="0"/><path d="m35.34,14.2c.3-.02,1.79-.63,2.14-.8,1.41.64,3.03.82,4.55.8-.69.76-.29.69-.27,1.61-2.2-2.09-1.11.09-4.28,0-1.2-.03-5.04-.8-6.69-1.07.02-.03-.71-.22-.4-.54,4.47,1.13,1.74-1.25,2.41-1.61.27-.14,1.75,1.67,2.54,1.61Z" fill="#3d397f" stroke-width="0"/><path d="m38.01,12.86c-.47-.99-1.37-.69-2.14-.27-.05-.42-.84-1.25-.8-1.87.39-.09.74-.17,1.07-.4-3.45-1.59,1.44-.07,3.35-.4,1.66-.29,1.41-2.04,2.14-1.61.1.06.99,1.91.94,2.01-.12.23-3.93,2.21-4.55,2.54Z" fill="#0075c4" stroke-width="0"/><path d="m36.94,3.49c.77.24,2.83,2.02,2.01,2.68-1.49-.34-6.54-.44-7.36-.8-.31-.14-1.18-.84-1.07-1.34h.54c2.04.55,4.43-.98,5.89-.54Z" fill="#3871bb" stroke-width="0"/><path d="m57.02,20.89c4.18.52,5.73.53,1.07,2.41-1.44-.04-2.85.18-4.28.27.3-1.56,2.14-1.18.54-2.41.68-.93,1.75-.38,2.68-.27Z" fill="#3e4288" stroke-width="0"/><path d="m36.94,2.69v.8c-1.45-.44-3.84,1.09-5.89.54-.07-1.29,1.18-1.47-.27-1.87-.19-.05-.54.01-.8,0,.39-1.55,4.39.42,4.95.54.57.12,1.45-.12,2.01,0Z" fill="#6ff" stroke-width="0"/><path d="m38.01,12.86c-.51.27-.5.52-.54.54-.35.18-1.84.78-2.14.8.25-.54.61-.95.54-1.61.77-.42,1.67-.72,2.14.27Z" fill="#efe8f0" stroke-width="0"/><path d="m38.01.01c-4.11,3.19,2.09-.54,5.75,3.48.79.15-.85-1.67.8-1.34,1.35.27,2.96,5.48,3.61,6.82,8.27,1.42,5.05,4.5,7.76,5.75.29-.06-.75,1.72-.94,1.87-.31.26-4.61.37.8.54.13,0,.63-.54.67-.54,1.31.06,2.26,1.36.54,2.14-.31-.27-.79.85-.94-.54-1.93,1.88-.98-.56-2.54.13,1.23,2.16,2.38.08,3.75,1.74-.11.09-.33.56-.27.8-.93-.11-2-.66-2.68.27-.09-.07-.59.08-.67,0-.55-.54-1.42-2.34-1.87-2.41-.07,0-.2.47-.94.54.43-2.82-3.14-2.95-3.61-3.21-1.93-1.06-1.64-1.54-1.74-1.61l1.47-.8c-.91.02-1.91.22-2.81.27-1.32.07-2,.27-2.14.27-1.52.02-3.14-.16-4.55-.8.03-.02.03-.26.54-.54.62-.33,4.43-2.31,4.55-2.54.05-.1-.84-1.95-.94-2.01-.73-.44-.48,1.32-2.14,1.61-1.91.33-6.79-1.18-3.35.4-.33.24-.68.32-1.07.4-1.22.26-3.3-.19-4.68,0-.16-.07,1.48-1.98,1.2-3.21-.43-1.91-2.3.1-2.41-.4l2.41-1.74c.82.37,5.87.47,7.36.8.82-.66-1.24-2.44-2.01-2.68v-.8c1.88.41,2.35,1.6,2.94.67-.02-1.32-7.08-.98-5.89-2.41.11-.13,3.05-.91,3.21-.94.26-.04.54.01.8,0Z" fill="#71fffd" stroke-width="0"/><path d="m57.02,14.73c-.52-.28-.58,1.34-.54,1.87-.04,0-.54.54-.67.54-5.41-.17-1.12-.28-.8-.54.18-.15,1.23-1.93.94-1.87h1.07Z" fill="#3f88d5" stroke-width="0"/><path d="m57.02,18.75c1.91,1.61.36,1.26.27,1.34-1.37-1.66-2.52.42-3.75-1.74,1.57-.69.62,1.74,2.54-.13.15,1.38.62.27.94.54Z" fill="#6273c1" stroke-width="0"/><path d="m45.51,14.47c-.06-.04-1.21,0-1.34-.54.9-.05,1.9-.24,2.81-.27l-1.47.8Z" fill="#3863ae" stroke-width="0"/><path d="m44.3,8.04c.39-.23,1,.8.54,1.07-.39.23-1-.8-.54-1.07Z" fill="#327ccb" stroke-width="0"/><path d="m46.18,11.52s.54.45.4.67c-.38.6-.84-.48-.4-.67Z" fill="#00a9d9" stroke-width="0"/><path d="m57.02,14.73c1.86.2,1.04,1.49,1.74,1.87,2.33-.54,2.34,2.43,2.94,2.68.2.08,2.93-.3,4.28.27.07,1.31.6,1.15,1.74,1.34.2.03.3.03.27.27-1.99.22-7.82-.25-5.89.8-.35.08-2.83,1.98-3.21,2.41l-.8-.54c.01-.18,0-.36,0-.54,4.66-1.87,3.11-1.89-1.07-2.41-.06-.24.16-.71.27-.8.09-.08,1.65.27-.27-1.34,1.73-.78.77-2.08-.54-2.14-.04-.54.01-2.15.54-1.87Z" fill="#71fffd" stroke-width="0"/><path d="m59.56,17.68c.41.14.58,1.64.8,2.14-.58-.33-2.67-2.8-.8-2.14Z" fill="#0080e9" stroke-width="0"/><path d="m35.07,18.75c.92-.77.38-1.22.67-1.34.1-.04.14,1.35,1.2.27-.04.14.04.39,0,.54-.01.04-.73.29-.54.67.19.31.76-.4.8-.4,3.25-.05,2.84,1.34,4.82,1.87-1.85.13-.27.61,0,1.34-4.85-.37-11.41-1.12-8.16.8.5.09,7.63-2.22,2.54.8-.03.02-.49.25-.54.27-2.78-.5-5.53-.04-8.3,0-.34-2.03,2.48-1.03,3.61-1.87-3.48.02-5.98-.21-9.23-1.07-4.54-1.2-4.96-.8-.4-2.14,1.36,1.79,4.25,1.5,4.15.94-.85-.23-1.52-.43-1.87-1.34-.86-2.18.53-.23,2.27.13,1.49.31,5.47.55,7.23.54.25,0,.37,1.16,1.74,0Z" fill="#1f2139" stroke-width="0"/><path d="m29.98,2.15c.26.01.61-.05.8,0-1.31.45-3.54.57-3.48,2.54-1.26-.53-1.14,1.56-1.61,2.14-.41.5-3.89,1.78-4.01,6.56-1.48.42-2.29,1.4-2.81,1.61-.32.13-1.32-.13-1.61,0-.32.15-.4,1.1-2.94,1.34-.52.41-.13,2.34-2.54,2.68-.26.04-1.26.04-1.34,0-.18-.09-.16,0-.27-.27-.11-.25-.14-2.13.4-2.41,1,1.29,5.06-1.4,5.49-2.01.41-.58-1.41-1.55,1.87-1.61,2.39-5.87,2.36-1.24,4.01-3.21.33-.4.9-2.26.8-2.94.9.85,2.36-.36,1.61-1.34,2.38-.72,1.61-3.25,5.62-3.08Z" fill="#2b2e46" stroke-width="0"/><path d="m27.58,23.57c-4.28.06-8.57,0-12.85,0v-.8c1.4-.07,2.46-.72,3.48-1.61,1.19-.11,2.58-.25,3.75-.54,3.25.86,5.75,1.09,9.23,1.07-1.14.84-3.95-.16-3.61,1.87Z" fill="#3657b4" stroke-width="0"/><path d="m11.78,19.02v1.34c-5.3-.48-1.2,2.62,2.94,2.41v.8c-3.6,0-11.42.26-13.65,0,3.29-1.66,5.96-3.51,9.37-4.55.08.04,1.08.04,1.34,0Z" fill="#2a9de3" stroke-width="0"/><path d="m31.05,4.03h-.54c-1.11.25-8.54,6.82-7.76,9.1-.3.06-.78.18-1.07.27.13-4.78,3.61-6.05,4.01-6.56.47-.58.35-2.67,1.61-2.14-.06-1.97,2.17-2.1,3.48-2.54,1.44.4.2.58.27,1.87Z" fill="#a9f" stroke-width="0"/><path d="m37.48,15.8c-.11.64-.34,1.25-.54,1.87-1.06,1.08-1.11-.31-1.2-.27-.29.11.25.56-.67,1.34l-.8-1.34c.29.02.45-.06.67.27.43-.31-3.8-2.3-4.68-1.87-.65-.6.08-.25.54-1.07,1.65.27,5.49,1.04,6.69,1.07Z" fill="#76fff4" stroke-width="0"/><path d="m11.78,20.35c1.19.11.74,1.31,6.42.8-1.02.88-2.08,1.53-3.48,1.61-4.14.21-8.24-2.89-2.94-2.41Z" fill="#2b275a" stroke-width="0"/><path d="m34.27,17.41c-.55-.05-3.86-1.46-4.01-1.61.89-.43,5.11,1.56,4.68,1.87-.21-.33-.38-.24-.67-.27Z" fill="#705dd4" stroke-width="0"/><path d="m41.76,15.8c1.43,1.36.38,1.45.67,1.61.39.21,1.58-2.46,7.9,1.87,1.03.71,2.25.02,1.61,1.87-4.33-.1-7.21-3.7-7.76-2.81,2.99,2.47.72,2.78-2.14,2.01-1.98-.53-1.57-1.93-4.82-1.87l-.27-.27c.04-.15-.04-.4,0-.54.19-.62.43-1.23.54-1.87,3.17.09,2.09-2.09,4.28,0Z" fill="#76fff4" stroke-width="0"/><path d="m51.93,21.16c-.08.22.45.36.13.54-.16.09-1.76-.23-3.48,1.07-2.15-.47-4.29-.9-6.56-1.07-.27-.73-1.85-1.21,0-1.34,2.86.77,5.13.46,2.14-2.01.55-.89,3.44,2.71,7.76,2.81Z" fill="#272f80" stroke-width="0"/><path d="m37.21,18.48s-.61.71-.8.4c-.2-.38.52-.63.54-.67l.27.27Z" fill="#a69fff" stroke-width="0"/><path d="m77.36,14.2c.21-.07.58.06.8,0-.64.72.69.91,1.61,1.34-7.55,6.69-.54-1.43-4.42,1.34-1.8,1.28-2.59,2.64-3.35,4.55-.02.06-.7.09-.54,1.07-.4-.02-.17-.38-.4-.54-2.69,1.15-6.02-.67-8.97,0-1.94-1.05,3.9-.59,5.89-.8,4.79-.52,1.41-3.05,6.69-5.89,1.01-.54,1.62-.72,2.68-1.07Z" fill="#a9f" stroke-width="0"/><path d="m74.68,15.27c-5.28,2.84-1.9,5.36-6.69,5.89.03-.24-.07-.24-.27-.27-.03-.38.26-2.05.4-2.14.19-.12.3.82.8.8.42-.01,1.48-2.33,1.87-2.68.3-.26.77.3.8.27.18-.15.86-2.57,3.08-1.87Z" fill="#2b2e46" stroke-width="0"/><path d="m83.51,13.13c.1.24,1.26.78,1.34.8-1.65.19-.6.87-.8,1.07-1.49-.77-2.88.09-4.28.54-.91-.43-2.24-.62-1.61-1.34,1.01-.3,2.2-.87,3.21-1.07,1.16-.22,1.85.04,2.14,0Z" fill="#8ff" stroke-width="0"/><path d="m71.47,22.5c.13,0,.54.43,1.61.27l.13.54c-2.8-.83-3.55.26-3.75.27-.84.03-2.63-1.53-4.01.27-2.76-1.49-3.03,2.37-7.9,3.48.33-1.26.44-1.93,1.34-2.94.38-.43,2.86-2.33,3.21-2.41,2.95-.67,6.27,1.15,8.97,0,.23.16,0,.52.4.54Z" fill="#1f2139" stroke-width="0"/><path d="m58.89,24.37c-.9,1.01-1.01,1.68-1.34,2.94-.58,2.25-1.22,1.91-1.34.27-.1-1.38,1.82-3.12,1.87-3.75l.8.54Z" fill="#85a2ff" stroke-width="0"/><path d="m84.05,15c-.3.31-2.61.17-2.81,2.14-1.17-1.05-2.64.75-2.54,1.87-1.79-.67-1.11.94-.8,2.14-.72.18-.77.53-1.34.54.57-.89,1.47-2-.4-2.14-.87-.07-1.34,1.4-4.15,1.87.75-1.91,1.55-3.27,3.35-4.55,3.88-2.76-3.14,5.35,4.42-1.34,1.4-.44,2.79-1.31,4.28-.54Z" fill="#2b275a" stroke-width="0"/><path d="m76.55,21.69c-.22.35-.59.6-.54,1.07-.26-.01-.18-.84-2.94,0-1.07.16-1.48-.26-1.61-.27-.16-.98.51-1.01.54-1.07,2.81-.48,3.28-1.94,4.15-1.87,1.87.14.98,1.25.4,2.14Z" fill="#c0c8f6" stroke-width="0"/><path d="m101.71,29.45c.16.03.37-.03.54,0-.3,2.4-1.78.62-1.87,1.87-9.72.09-19.45-.04-29.17,0,.34-.6-3.09-1.8-3.48-1.87l.27-.27c2.92,1.36,6.99,2.42,6.69.27v-.27c2.21.57,4.71.76,6.96.8.51,1.87,11.76,1.69,7.76-1.07.03-.02.34-.52.27-.8.45.1.91.17,1.34.27.27,1.37,3.1,1.87,4.15,1.61,2.13-.54-.06-.75-3.35-1.61,2.89-.29-2.24-.96-.67-2.41.84.52,4.27.43,1.74.94,4.04,3.42,6.64,1.38,7.36,1.47.55.21,1.13,1,1.47,1.07Z" fill="#3d397f" stroke-width="0"/><path d="m67.72,29.45c.39.08,3.82,1.27,3.48,1.87-.72,0-1.59-.28-3.21-.27-5.51-1.29-9.52.76-17.13-.27,3.61-.26,9.52-2.45,12.18-.8,1-.02.88-1.3,4.68-.54Z" fill="#3d397f" stroke-width="0"/><path d="m116.7,30.52c.43.13.51,0,.94,0v.54c-5.76.15-11.5.21-17.26.27.1-1.26,1.57.53,1.87-1.87,2.8.6,2.83-.98,4.68.54,2.85-.76,2.53,0,2.68,0,2.89.19,2.64-.82,7.09.54Z" fill="#3d397f" stroke-width="0"/><path d="m48.45,30.26c.14-.03-.79.59,2.01,0,.23.18,0,.48.4.54,7.61,1.03,11.62-1.02,17.13.27-6.79.03-13.82,1.13-20.61.54-2.83-.25-.12-1.1,1.07-1.34Z" fill="#229aee" stroke-width="0"/><path d="m89.67,28.12c.07.28-.23.78-.27.8-2.63,1.84-4.69.52-4.95.54-.34.02-.99.57-2.81.54-2.25-.05-4.75-.23-6.96-.8-6.72-1.75-.6-1.78,2.81-1.87,1.18-1.22-2.39-1.53-2.54-2.14,3.26-.03,4.17,2.05,4.42,2.14,2.91-1.21,6.18,1.39,8.56-.27.35.39,1.31.98,1.74,1.07Z" fill="#2b275a" stroke-width="0"/><path d="m78.69,24.1l-.8-1.07c3.36-1.62,3.97,1.71,4.55-.67.01-.05-.56-.5-.54-.54.09-.13.5.31,2.68-1.2.06-.04-.21-.41.27-.8,2.83,4.27-.45.55-1.74,4.82-2.07-1.78-2.51.24-2.68.27-.09.01-.44-.79-1.74-.8Z" fill="#5b5cc0" stroke-width="0"/><path d="m78.69,19.02c.2,2.31,1.87.29,2.01.27,1.25-.17,1.65.02,1.74,0,.03.31.29.43.54.54-.73,1.6-2.63.71-5.09,1.34-.31-1.2-.98-2.82.8-2.14Z" fill="#c0c8f6" stroke-width="0"/><path d="m91.81,28.38c3.29.86,5.48,1.06,3.35,1.61-1.04.27-3.88-.24-4.15-1.61.24.05.57-.06.8,0Z" fill="#888fff" stroke-width="0"/><path d="m101.71,24.64c.03.82-.36.12-.8,1.07-.43.92.26.44.27.54.03.37-.44-.11.27,1.34.18.36.22.18.27.27.41.73,1.57.96,0,1.61-.34-.07-.92-.86-1.47-1.07-.72-.09-3.32,1.95-7.36-1.47,2.53-.51-.9-.42-1.74-.94-1.57,1.45,3.55,2.12.67,2.41-.23-.06-.56.05-.8,0-.43-.1-.89-.17-1.34-.27-.43-.09-1.39-.68-1.74-1.07-2.39,1.65-5.66-.94-8.56.27-.24-.09-1.15-2.18-4.42-2.14-.34-1.36,3.07-1.08,3.75-1.07,1.3.01,1.64.82,1.74.8.16-.02.61-2.05,2.68-.27,1.29-4.27,4.57-.54,1.74-4.82.21-.17,3.89-.86,4.15-.8,1.04.23,2.87,2.92-.54-2.41-2.63,1.74-3.08,1.99-6.02,2.68-.08.02-.49-.17-1.74,0-.14.02-1.8,2.05-2.01-.27-.1-1.12,1.37-2.92,2.54-1.87.2-1.97,2.51-1.83,2.81-2.14.2-.21-.85-.88.8-1.07,3.62.94,4.91-3.75,7.36,5.35,3.62-.52,2.79,2.13,3.75,2.68.31.18,2.78.18,2.94.27.98.49-.97,1.44,2.81,2.41Z" fill="#71fffd" stroke-width="0"/><path d="m84.85,19.82c-.48.39-.21.76-.27.8-.47-.49-1.04-.56-1.61-.8-.25-.11-.51-.23-.54-.54,2.94-.68,3.39-.93,6.02-2.68,3.41,5.33,1.58,2.64.54,2.41-.25-.06-3.94.63-4.15.8Z" fill="#0075c4" stroke-width="0"/><path d="m92.48,23.03c1.28-.7,4.73,2.16,0,.54v-.54Z" fill="#8a91ad" stroke-width="0"/><path d="m90.07,23.03c.35.17.02,1.2-.13,1.47-1.06,1.89-2.44,1.95.13-1.47Z" fill="#3bc3ff" stroke-width="0"/><path d="m97.56,25.17c.07,0,.94.87.94.94,0,1.1-2.27-.78-.94-.94Z" fill="#71a6ff" stroke-width="0"/><path d="m86.59,26.24c.28-.14,1.13-.03.94.4-.22.48-1.36-.19-.94-.4Z" fill="#7e72a8" stroke-width="0"/><path d="m86.32,23.57s.54.39.27.54c-.69.36-.77-.48-.27-.54Z" fill="#a4a3a7" stroke-width="0"/><path d="m105.46,25.17c1.35,2.09,3.18.54,4.42,2.94,2.91.93,4.42-.09,6.82,2.41-4.46-1.35-4.21-.35-7.09-.54-.15,0,.17-.76-2.68,0-1.85-1.51-1.89.06-4.68-.54-.16-.03-.37.03-.54,0,1.57-.65.41-.88,0-1.61l-.27-.27c-.71-1.45-.23-.97-.27-1.34.36-.57.46-1.01-.27-.54.44-.95.84-.25.8-1.07,2.57.65,3-.65,3.75.54Z" fill="#b8e8e3" stroke-width="0"/><path d="m101.18,26.24c0-.1-.7.39-.27-.54.73-.48.62-.04.27.54Z" fill="#8a91ad" stroke-width="0"/><path d="m101.71,27.85c-.05-.09-.09.09-.27-.27l.27.27Z" fill="#8a8abb" stroke-width="0"/><path d="m104.52,25.71s.65.37.67.4c.79,1.44-2.55-.08-.67-.4Z" fill="#0075c4" stroke-width="0"/><path d="m107.2,28.12c.6-.25,1.34.24.8.54-.12.06-1.17-.38-.8-.54Z" fill="#109ad5" stroke-width="0"/><path d="m108.8,28.12c.17-.02.35-.03.4.13.23.77-1.61.03-.4-.13Z" fill="#31c1fa" stroke-width="0"/><path d="m84.58,20.62c-2.18,1.51-2.59,1.08-2.68,1.2-.02.03.55.49.54.54-.58,2.37-1.19-.95-4.55.67-.88.16-1.39-.25-1.87-.27-.06-.47.31-.72.54-1.07.57,0,.62-.35,1.34-.54,2.45-.63,4.35.26,5.09-1.34.56.25,1.13.31,1.61.8Z" fill="#76fff4" stroke-width="0"/><path d="m89.4,28.92c4,2.76-7.25,2.94-7.76,1.07,1.82.04,2.47-.52,2.81-.54.26-.01,2.32,1.3,4.95-.54Z" fill="#745de3" stroke-width="0"/><path d="m76.02,22.76c.48.02,1,.43,1.87.27l.8,1.07c-.68,0-4.09-.29-3.75,1.07.15.61,3.73.92,2.54,2.14-3.41.09-9.53.13-2.81,1.87v.27c-1.44-.21-3.9-.45-4.42-1.87-4.05.38-6.09-.17-2.27,1.61l-.27.27c-3.81-.76-3.68.52-4.68.54-2.66-1.65-8.57.54-12.18.8-.41-.06-.17-.35-.4-.54-2.8.59-1.87-.03-2.01,0,.27-1.88,5.82-2.37,7.76-2.68.12,1.64.76,1.98,1.34-.27,4.86-1.11,5.14-4.97,7.9-3.48,1.38-1.8,3.17-.23,4.01-.27.2,0,.95-1.1,3.75-.27l-.13-.54c2.77-.84,2.69-.01,2.94,0Z" fill="#b984ff" stroke-width="0"/><path d="m74.68,29.45c.3,2.15-3.77,1.09-6.69-.27-3.81-1.77-1.78-1.23,2.27-1.61.52,1.42,2.98,1.67,4.42,1.87Z" fill="#2b275a" stroke-width="0"/><path d="m52.6,28.38c3.52-.5.75,2.45-1.74.94,0-.1,1.64-.92,1.74-.94Z" fill="#888fff" stroke-width="0"/></g></svg>