<?xml version="1.0" encoding="UTF-8"?><svg id="Layer_2" xmlns="http://www.w3.org/2000/svg" viewBox="0 0 251.58 40.3"><g id="Layer_1-2"><path d="m172.09,13.75c.07.04.82-.1,1.47.27.1.06.24.74.8,1.07,1.04.61,2.2.95,4.15,2.14l-.27.54c-.27.02-.54-.02-.8,0-1.14-1.06-2.54-.66-4.28-1.34-1.13-.44-.72-.98-.94-1.07-.16-.07-2.72,1.46-.13-1.61Z" fill="#6ff" stroke-width="0"/><path d="m180.12,17.77s.1.48-.13.54c-.2.04-1.65-.54-1.74-.54l.27-.54c.33.2,1.19.59,1.61.54Z" fill="#1f5b9e" stroke-width="0"/><path d="m228.03,21.78c.33-.06.77.08,1.07,0l1.07,1.61c-2.69.02-5.35.22-8.03.27-.06-.44-1.03-1-1.07-1.07-.05-.09.03-.49,0-.8,1.08.19,2.96.33,4.15.54.82-.33,1.88-.37,2.81-.54Z" fill="#327ccb" stroke-width="0"/><path d="m251.58,14.29c0,1.7,0,3.39,0,5.09-2.16-.53-.02.74-1.47,1.34-7.48-1.09,1.67.59-1.34,1.34-.6.15-1.8-.47-2.54-.54-.21-.94-2.42-.67-.54-2.94,1.63-1.97,5.54-.2,3.48-2.01-.77-.68-3.42.6-3.75,1.74-2.19-1.3-.1-2.73.27-3.21,1.67-2.16-.68-1.71-1.61-.67l.54.13c-.28.38-.28,1.61-.8.8.36-1.23-.96-1.2-1.34-.27-.36-.08-.57.02-1.34-.27-4.24-1.62,3.57,0,1.61-4.28,1.41.59,2.2.08,2.81,1.61l3.75.27,2.27,1.87Z" fill="#71fffd" stroke-width="0"/><path d="m251.58,19.37c0,1.34,0,2.68,0,4.01h-9.63l.8-2.14c1.16.1,2.31.17,3.48.27.74.06,1.94.68,2.54.54,3.01-.75-6.14-2.42,1.34-1.34,1.45-.6-.69-1.87,1.47-1.34Z" fill="#272f80" stroke-width="0"/><path d="m241.14,14.82c-1.73.77-1.87.57-3.21,1.87-.34.33-.91.94-1.07,1.34l-2.14.27,3.48-3.08c-.58-2.1,1.9-1.77,4.55-4.68,1.96,4.28-5.84,2.67-1.61,4.28Z" fill="#3863ae" stroke-width="0"/><path d="m236.86,18.03c-.22.54-.4,2.15,0,2.68-1.48.1-3.05.68-4.55.8-.84.07-1.93.09-1.87-.27,1.65-.61,2.75-1.38,3.48-2.94.26-.04.54.02.8,0l2.14-.27Z" fill="#bd92ff" stroke-width="0"/><path d="m233.92,18.3c-.73,1.57-1.83,2.33-3.48,2.94-.48.18-.75.39-1.34.54-.3.08-.74-.06-1.07,0,1.68-1.63,1.61-2.59,1.74-2.68.18-.11,3.57-.71,4.15-.8Z" fill="#272f80" stroke-width="0"/><path d="m245.69,15.09c-.37.48-2.45,1.91-.27,3.21.05.03.3-.06.27.27-1.88,2.28.32,2,.54,2.94-1.17-.1-2.32-.17-3.48-.27-2.35-.2-3.26-1.11-3.61.27-.69-.92-1.17-.87-2.27-.8-.4-.53-.22-2.13,0-2.68.16-.39.73-1.01,1.07-1.34,2.13,1.63.37.61,1.2,2.68,1.54.25,1.78-.53,1.87-.54.75-.07,1.79,1.7,1.2-.67,2.68.63.35-.49.27-1.07-.16-1.17,1.33-.71.54-1.74.04,0-.1-.32.8,0,.53.81.53-.42.8-.8.25-.9,1.01-.29,1.07.54Z" fill="#76fff4" stroke-width="0"/><path d="m242.48,15.09s-.21.17.54.27c.8,1.03-.7.57-.54,1.74.08.58,2.41,1.7-.27,1.07.59,2.37-.45.6-1.2.67-.1,0-.33.78-1.87.54-.83-2.07.92-1.05-1.2-2.68,1.35-1.3,1.48-1.1,3.21-1.87.77.29.98.19,1.34.27Z" fill="#b984ff" stroke-width="0"/><path d="m245.69,18.57c.03-.33-.22-.24-.27-.27.33-1.14,2.97-2.42,3.75-1.74,2.06,1.8-1.84.03-3.48,2.01Z" fill="#3657b4" stroke-width="0"/><path d="m245.69,15.09c-.06-.83-.82-1.43-1.07-.54l-.54-.13c.92-1.04,3.28-1.49,1.61.67Z" fill="#3f88d5" stroke-width="0"/><path d="m243.82,15.36c-.9-.32-.76,0-.8,0-.74-.1-.51-.26-.54-.27.38-.93,1.69-.96,1.34.27Z" fill="#5b5cc0" stroke-width="0"/><path d="m242.75,21.25l-.8,2.14c-1.43,0-2.85,0-4.28,0,.09-.81-3.29-.56-5.35-1.87,1.5-.12,3.07-.71,4.55-.8,1.1-.07,1.59-.11,2.27.8.35-1.38,1.26-.47,3.61-.27Z" fill="#272f80" stroke-width="0"/><path d="m232.31,21.51c2.07,1.32,5.44,1.06,5.35,1.87-.98,0-1.96,0-2.94,0-1.52.01-3.03-.01-4.55,0l-1.07-1.61c.58-.15.86-.36,1.34-.54-.05.36,1.03.34,1.87.27Z" fill="#5b5cc0" stroke-width="0"/><path d="m192.7,19.64c.98,2.01-.07.59-1.2.8-.18.03-3.03,1.18-3.35,1.34-.08.04-1,0-1.34.4-1.08,1.3,1.66,2.81-1.61,2.27.16-.18,2.56-3.81,2.68-4.01,1.48-1.44,3.1-.84,4.82-.8Z" fill="#0075c4" stroke-width="0"/><path d="m183.33,26.33l.27,1.87c-.98.08-3.72.49-4.15,1.34-2.6-.48-2.92.5-3.08.54-1.84.46-1.28.2-1.87-1.34-.04-.1.02-.35,0-.54.24.03.33.36.94.27,1.05-.16,1.12-1.08,1.74-1.07,2.17.18,4.05-.89,6.16-1.07Z" fill="#b1a9ff" stroke-width="0"/><path d="m188.15,21.78c.83.57.3,1.07,0,1.87-.21.56-.29.46-.54,1.34-.14.52-.53.5-.54.54.36-1.96-2.51,1.13-2.68,2.68-.27.02-.54-.02-.8,0l-.27-1.87c.41-.8,1.35-1.25,1.87-1.87,3.26.54.53-.97,1.61-2.27.33-.4,1.26-.36,1.34-.4Z" fill="#338aff" stroke-width="0"/><path d="m197.25,27.94c.06.09.78.39,1.61,1.34.27.31.45.84.8,1.07-.6-.05-1.7.18-2.94-.27-.36-.13.09-2.06-6.96-1.34,1.32-1.29.48-.93,0-1.61,1.55-1.39,3.99.04,5.22-1.61,3.05,2.53-2.21,2.96,2.27,2.41Z" fill="#efe8f0" stroke-width="0"/><path d="m197.25,27.94c-4.49.55.78.12-2.27-2.41-1.23,1.65-3.67.21-5.22,1.61-.47-.67-1.45-1.64-2.14-2.14.24-.88.33-.78.54-1.34,2.41-1.64.42,2.59,3.35.54.84,1.42,3.37.52,4.82,0,.38.3-.39,1.77.94,3.75Z" fill="#5b5cc0" stroke-width="0"/><path d="m198.32,22.05c.85,1.33,1.38,2.36,2.94,3.48-.8.86-.18.8-.27,1.34h-1.2c-.39.24.63.42.67.54.48,1.65.14,2.93-1.61,1.87-.83-.95-1.55-1.25-1.61-1.34-1.33-1.98-.55-3.45-.94-3.75-1.45.52-3.98,1.42-4.82,0-2.93,2.05-.93-2.18-3.35-.54.3-.81.83-1.3,0-1.87.32-.16,3.17-1.31,3.35-1.34,1.13-.21,2.18,1.21,1.2-.8,1.52.03,2.91.11,4.42.27,1.42,1.13,1.14,2.04,1.2,2.14Z" fill="#71fffd" stroke-width="0"/><path d="m194.17,20.98c.81-.22,1.24.83.8,1.07-.06.03-1.27-.88-.8-1.07Z" fill="#109ad5" stroke-width="0"/><path d="m176.37,30.08c5.6,1.4,11.08.76,16.73.8,1.6-3.3,2.07,1.55,3.61-.8,1.24.44,2.35.22,2.94.27,3.51.29,3.16-.53,3.35-.54,1.8,0,6.8.34,7.76,1.34,1.88-1.26,2.76-.42,4.68.27.02.03.89-.11.4.54h-44.43l3.08-3.21c.59,1.54.03,1.8,1.87,1.34Z" fill="#3657b4" stroke-width="0"/><path d="m187.08,29.01c1.24.97,1.7.68,2.68-.27,7.05-.72,6.6,1.21,6.96,1.34-1.54,2.35-2.01-2.5-3.61.8-5.64-.04-11.13.59-16.73-.8.16-.04.48-1.02,3.08-.54.43-.85,3.17-1.25,4.15-1.34.26-.02.54.02.8,0,.24-.02.91.63,1.2.54.84-2.54.06-.83,1.47.27Z" fill="#2b275a" stroke-width="0"/><path d="m189.76,27.13c.48.68,1.32.32,0,1.61-.98.95-1.43,1.23-2.68.27-.06-1.13-.22-2.36,0-3.48,0-.04.39-.02.54-.54.69.5,1.67,1.47,2.14,2.14Z" fill="#bd92ff" stroke-width="0"/><path d="m187.08,25.53c-.22,1.12-.06,2.35,0,3.48-1.41-1.09-.63-2.81-1.47-.27-.3.09-.96-.55-1.2-.54.17-1.54,3.03-4.64,2.68-2.68Z" fill="#b1a9ff" stroke-width="0"/><path d="m214.91,30.61c.61.43.4.53.54.8-1.92-.68-2.81-1.53-4.68-.27-.97-1-5.96-1.35-7.76-1.34-.18,0,.17.83-3.35.54-.35-.23-.53-.76-.8-1.07,1.75,1.06,2.08-.23,1.61-1.87.26-.03.49-.28.54-.54.09-.54-.53-.48.27-1.34.06.04.21-.04.27,0,.39.26,2.14,1.57,2.27,1.61.75.17-.56-1.09,1.07-.8.31.06,2.69,2.16,5.89,1.61.31,1.31,3.02,1.89,4.15,2.68Z" fill="#71fffd" stroke-width="0"/><path d="m201,26.87c-.04.26-.27.5-.54.54-.03-.12-1.06-.3-.67-.54h1.2Z" fill="#8a91ad" stroke-width="0"/><path d="m203.27,28.2s.41.37.4.4c-.5,1.83-3.6-.95-.4-.4Z" fill="#7f7deb" stroke-width="0"/><path d="m130.34,15.89c.96.68,3.38-.16,3.21,1.61-.13.05-.61-.13-.8.54-4.35.23-5.98.77-8.03,1.07-.29.04-.98-.22-2.14,0l-1.07-.54c1.78-.89,3.6-1.74,5.35-2.68-.28,1.64,2.08.35,3.48,0Z" fill="#888fff" stroke-width="0"/><path d="m146.93,1.71c.91,1.5-.27,1.13-1.07,2.41-.23-.04-.73-.35-.94-.54-.36.2-.3.63-.67.8-4.29,1.98-3.31,4.38-6.42,5.09-1.49-.74,2.34-1.28,1.61-4.68.99-.52,1.96-1.21,2.94-1.74,3.82-2.05,3.11-.95,4.55-1.34Z" fill="#416ff5" stroke-width="0"/><path d="m135.16,9.74c-.13.13-2.54,1.19-2.14,2.81.23.92,5.14,1.37-2.68,3.35-1.4.35-3.75,1.64-3.48,0,1.18-.63,2.42-.81,2.81-2.14,4.55.93,2.34-5.75,5.49-4.01Z" fill="#2b2e46" stroke-width="0"/><path d="m142.38,3.05c-.98.53-1.95,1.22-2.94,1.74.74,3.4-3.1,3.94-1.61,4.68v.27c-.81-.15-1.55-.42-2.41-.27.27-.29.94-.24,2.41-2.54,1.65-2.58-.44-3.31,4.55-3.88Z" fill="#17376d" stroke-width="0"/><path d="m162.72,16.7c3.84-1.65,5.81,2.13,7.9-.8.57.07.31,1.78,2.54.54,1.74.68,3.14.28,4.28,1.34-.03,0-.2.52-.4.54-5.28.36-10.65-.28-15.92-.27-.35-1.15-5.64-.48-9.23-1.34-.28,1.72-3.92-.72-3.61,1.61-2.28.02-4.62-.31-6.96-.27l-.4-1.07c2.67.39,4.93-.68,6.02-2.68,2.06.4,5.46,1.3,5.75,1.34.6.09,3.58-.38,4.55-.27.14.02.66.79.8.8,1.25.14,1.25-1.16,4.68.54Z" fill="#272f80" stroke-width="0"/><path d="m141.31,13.48c1.28.67,1.78-.02,1.87,0,1.23.29,2.5.56,3.75.8-1.09,2-3.35,3.06-6.02,2.68l.4,1.07c-2.86.05-7.3-.07-8.56,0,.19-.66.67-.49.8-.54,1.52-.57,2.72-1.37,4.28-1.47-.64-1.24-5.26.22-2.27-2.01.1-.07.7.43,2.01-1.07.76,1,3.11,1.88,3.75.54Z" fill="#2b275a" stroke-width="0"/><path d="m161.12,18.03c-4.26.01-8.57.23-12.85.27-.31-2.33,3.33.11,3.61-1.61,3.6.85,8.88.19,9.23,1.34Z" fill="#416ff5" stroke-width="0"/><path d="m165.13,12.15c.06.24-.05.09.27,1.07,1.6,4.86.05.99-2.68,3.48-3.44-1.7-3.43-.39-4.68-.54-.14-.02-.66-.79-.8-.8-.97-.11-3.95.35-4.55.27-.29-.04-3.69-.94-5.75-1.34-1.24-.24-2.52-.51-3.75-.8-.22-.78.72-1.11,1.34-1.34.19-.07,1.04.09,1.87-.27-.03.32.18.23.27.27,1.62.65,1.91-.02,2.01,0,.24.05.52,1.62,4.55.27,2.82.18,2.67.52,2.81.54,1.46.12,1.02-.38,3.48.27,1.2.32,5.21,2.89,5.62,1.47.03-.1-1.25-1.42-1.34-1.47.03-.25-.06-.57,0-.8.02-.07.46-.97.54-1.34.64-.14.69.61.8,1.07Z" fill="#efe8f0" stroke-width="0"/><path d="m148.27,10.81c.53,1.39-.78,1.1-1.61,1.34-.09-.03-.29.05-.27-.27-4.66-3.7-6.74-1.98-5.09-4.68.44-.72,1.87-1.6,2.68-2.01,0,2.09,2.4,5.22,4.28,5.62Z" fill="#b984ff" stroke-width="0"/><path d="m156.57,11.88c-.36.36-.27.66-.54,1.07-.14-.01,0-.35-2.81-.54-4.03,1.35-4.31-.22-4.55-.27-.1-.02-.39.65-2.01,0,.83-.24,2.13.05,1.61-1.34.04,0,.21-.07.8,0,.41,1.12,3.8,1.53,2.94.54-.51-1.85.83-.5.94-.54.23-.07,1.6-2.43,3.61,1.07Z" fill="#272f80" stroke-width="0"/><path d="m144.26,4.38c.13.93-.27.76-.27.8-.81.41-2.24,1.28-2.68,2.01-1.65,2.71.43.98,5.09,4.68-.83.35-1.68.2-1.87.27-.46.13-.61-.32-.8-.27.43-1.13-2.24-2.84-2.81-2.41-.88.66,1.16,1.14-2.27.54-1.03-.18-.76-.26-.8-.27v-.27c3.12-.7,2.13-3.1,6.42-5.09Z" fill="#5947a3" stroke-width="0"/><path d="m161.12,11.88c.45.05,2.24.33,2.68.54-.06.23.03.55,0,.8-.97-.59-3.53-1.12-4.28,0-2.46-.65-2.02-.14-3.48-.27.27-.41.17-.71.54-1.07.12-.12,1.3.34.54-.8.05.04.21-.04.27,0,2.14,1.55,3.3.75,3.75.8Z" fill="#745de3" stroke-width="0"/><path d="m160.85,10.81l.27,1.07c-.45-.05-1.61.75-3.75-.8.36-1.95,2.61-.03,3.48-.27Z" fill="#bbbdeb" stroke-width="0"/><path d="m150.15.64c1.53-.09.14.45.4.8.14.19,2.16-.75.27,2.41-4.04-2.48-2.72.99-2.94,1.07-.1.04-.76-.59-2.01-.8.8-1.28,1.98-.91,1.07-2.41,1.55-.41,1.83-.57,3.21-1.07Z" fill="#0075c4" stroke-width="0"/><path d="m162.72,5.19c1.54,2.44,2.19,2.89,1.61,5.89-.07.37-.52,1.27-.54,1.34-.44-.21-2.22-.49-2.68-.54l-.27-1.07c1.68-1.72,2.51.27,2.68-.13.34-.81-1.91-3.47-3.88-.94-1.97-2.12-4.84-.62-2.54,1.34.76,1.15-.42.69-.54.8-2.02-3.5-3.38-1.14-3.61-1.07-.11.03-1.44-1.32-.94.54-.93-.65-1.95-.41-2.94-.54-.59-.07-.76,0-.8,0-1.88-.4-4.27-3.53-4.28-5.62,0-.04.4.12.27-.8.37-.17.31-.61.67-.8.21.18.71.5.94.54,1.25.22,1.91.84,2.01.8.22-.08-1.1-3.55,2.94-1.07,1.89-3.16-.13-2.22-.27-2.41-.26-.35,1.13-.89-.4-.8.15-.05.23-1.57,2.54.27.97-1.78,3.79,2.54,6.16,2.14,2.1,3.28,1.7,1.22,3.88,2.14Z" fill="#71fffd" stroke-width="0"/><path d="m160.85,10.81c-.87.24-3.12-1.69-3.48.27-.06-.04-.22.04-.27,0-2.29-1.96.57-3.46,2.54-1.34,1.97-2.53,4.22.13,3.88.94-.17.41-1-1.59-2.68.13Z" fill="#0075c4" stroke-width="0"/><path d="m152.02,11.34c.86.99-2.53.58-2.94-.54,1,.12,2.02-.11,2.94.54Z" fill="#a166ff" stroke-width="0"/><path d="m153.76,7.06c1.46-.72.89,2.41-.54,1.61-.2-.11.46-1.57.54-1.61Z" fill="#0075c4" stroke-width="0"/><path d="m153.49,3.31c.95-.24,1.2.92.54,1.07-.48.11-1.27-.88-.54-1.07Z" fill="#327ccb" stroke-width="0"/><path d="m151.88,5.19c1.63-.02,1.3,1.32.8,1.34-.08,0-.87-1.07-.8-1.34Z" fill="#109ad5" stroke-width="0"/><path d="m170.75,12.41c.16.08.3.13.54.27.06.03.74,1.03.8,1.07-2.59,3.06-.03,1.53.13,1.61.21.09-.19.63.94,1.07-2.23,1.24-1.97-.47-2.54-.54-2.09,2.94-4.06-.84-7.9.8,2.72-2.49,4.28,1.38,2.68-3.48,1.32.53,1.11-.58-.27-1.07-.11-.46-.16-1.21-.8-1.07.58-3-.06-3.45-1.61-5.89,3.69,1.57.27,7.87,4.95,5.89,1.22.81.1,1.5.54,1.61,3.01-1.22-1.79,1.63,1.87,1.61.54-.25-1.65-3.12.67-1.87Z" fill="#6ff" stroke-width="0"/><path d="m165.4,13.22c-.32-.98-.21-.83-.27-1.07,1.38.49,1.58,1.6.27,1.07Z" fill="#3493d1" stroke-width="0"/><path d="m169.01,15.09c.13-.08,2.05.65-.27.54-.25-.05-.02-.36.27-.54Z" fill="#698da7" stroke-width="0"/><path d="m139.97,11.61c.1.06.76,1.57,1.34,1.87-.63,1.34-2.99.46-3.75-.54.11-.13-.45-.42-.27-.67.58-.8,1.7-1.28,2.68-.67Z" fill="#e8dbed" stroke-width="0"/><path d="m143.72,11.88s.18.23-.8.54c-.21-.04-.34-.18-.54-.27-1.64-.74-.51-1.01-2.14-.8l-1.61-1.34c3.43.6,1.39.12,2.27-.54.57-.43,3.24,1.28,2.81,2.41Z" fill="#b4d7ff" stroke-width="0"/><path d="m142.38,12.15c-.52.96.1.4.54.27.98-.3.76-.52.8-.54.2-.05.35.4.8.27-.62.22-1.56.56-1.34,1.34-.09-.02-.59.67-1.87,0-.58-.3-1.24-1.81-1.34-1.87-.03-.23.07-.24.27-.27,1.63-.2.5.07,2.14.8Z" fill="#855cfa" stroke-width="0"/><path d="m137.83,9.74s-.23.09.8.27l1.61,1.34c-.2.03-.3.04-.27.27-.97-.61-2.09-.13-2.68.67-.18.25.38.54.27.67-1.31,1.5-1.91,1-2.01,1.07-2.99,2.23,1.64.77,2.27,2.01-1.56.1-2.76.9-4.28,1.47.17-1.77-2.25-.92-3.21-1.61,7.82-1.97,2.9-2.43,2.68-3.35-.4-1.62,2.01-2.68,2.14-2.81.1-.09.17-.16.27-.27.86-.15,1.6.12,2.41.27Z" fill="#85a2ff" stroke-width="0"/><path d="m136.63,10.81c2.35-.34-2.6,3.61-1.2.94.13-.25,1.07-.92,1.2-.94Z" fill="#3d397f" stroke-width="0"/><path d="m163.79,13.22c.09.05,1.37,1.38,1.34,1.47-.41,1.42-4.42-1.16-5.62-1.47.76-1.12,3.31-.59,4.28,0Z" fill="#b984ff" stroke-width="0"/><path d="m142.92,12.41c-.43.13-1.06.69-.54-.27.2.09.33.23.54.27Z" fill="#3a3175" stroke-width="0"/><path d="m47.64,38.11c-1.34.54-.05,1.05-1.47,1.61-5.08.97-11.75-4.19-7.76,0-1.24.52-2.53-.54-2.68-.54-1.61.02-2.29.52-2.41.54-2.32.2-3.11-.67-2.81.54-1.96-.02-3.93.02-5.89,0-.3-1.61,1.91-.1,1.87-1.34,4.55.89,5.01-.63,4.15-.8-2.31,1.15-5.6.03-7.63-1.34-1.96-1.32-1.58-.98,2.14-1.07.27,0,.83-.58,1.2-.54,1.02,1.57,5.82.98,6.16,1.34.33.35-.5,1.14,0,1.34.33.13,1.03-2.17,6.69,0,1.89-2.13,3.78.22,4.01.27,1.95.39,3.16-.9,4.42,0Z" fill="#272f80" stroke-width="0"/><path d="m22.21,37.04c.21.65,3.53,1.73,4.28,1.87.03,1.23-2.18-.27-1.87,1.34-7.22-.09-14.45-.39-21.68-.54q3.21-1.34,6.42-2.68c2.6.41,11.35,1.93,6.02,0v-.54c2.06,1.04,4.59.97,6.82.54Z" fill="#3d397f" stroke-width="0"/><path d="m47.64,38.11c2.24-.9,3.96,1.79,7.09.54l.8.8c2.78-.88,5.44.03,8.16.27l-.54.54c-3.11.12-6.25-.03-9.37,0-7.75.07-15.53.07-23.28,0-.3-1.2.49-.34,2.81-.54.12-.01.8-.51,2.41-.54.14,0,1.44,1.06,2.68.54-3.98-4.19,2.69.97,7.76,0,1.42-.56.13-1.07,1.47-1.61Z" fill="#3657b4" stroke-width="0"/><path d="m27.3,26.33l1.87,1.07c-1.95.24-1.67.45-2.68,1.87-1.04,1.47-.22,0-.94,0-.55,0-1.47,1.9-2.27.27.32-.59.85-1.15.8-1.87.94-.79-2-.79-2.54-.54-1.13.53-2.61,3.35-2.81,4.55-.17-.02-.4.04-.54,0,1.77-5.56,3.57-5.55,9.1-5.35Z" fill="#416ff5" stroke-width="0"/><path d="m8.3,34.63c-.62,3.32-2.74,1.81,1.07,2.41q-3.21,1.34-6.42,2.68c-.4,0-2.92.1-2.94-.13l4.42-2.01c.83-2.53,1.87-2.06,2.01-2.14.02-.01.06.48.4.27.52-.31.46-.69,1.47-1.07Z" fill="#8567f2" stroke-width="0"/><path d="m16.33,31.42l.27.8c-1.21-.07-3.31,1.03-4.55,1.34-.75-.81-3.42.64-1.87-.8,1.25-1.17,4.48-1.33,6.16-1.34Z" fill="#416ff5" stroke-width="0"/><path d="m30.78,25.26c.16,3.46.74.42,1.87,2.27-.08.16-2.45-.26-3.48-.13l-1.87-1.07c1.12-.86,2.05-1.25,3.48-1.07Z" fill="#0075c4" stroke-width="0"/><path d="m10.17,32.75c-1.54,1.44,1.12,0,1.87.8-.09.02-1.39,1.64-1.2.27-1.55-.26-2.04.62-2.54.8-1.02.38-.95.76-1.47,1.07-.34.21-.38-.28-.4-.27,1.09-1.68,3.1-4.5,3.75-2.68Z" fill="#44387c" stroke-width="0"/><path d="m26.5,29.27c-.03.33.25.25.27.27,1.04,1.12,1.54.74,1.61.8,1.18,1.22.91,1.85.27,2.81-.17.25.29.52.27.54-.3.28-1.78-.39-1.87-.4-3.27-.47-5.73,3.61-2.41,1.34l.54,1.07c-3.72.1-4.1-.25-2.14,1.07,0,.44-.44.2-.8.27-2.23.43-4.76.5-6.82-.54v.54c5.33,1.93-3.42.41-6.02,0-3.81-.6-1.69.91-1.07-2.41.5-.19.99-1.07,2.54-.8-.19,1.37,1.12-.25,1.2-.27,1.24-.31,3.34-1.41,4.55-1.34.43.02,1.51.74,1.87.8.07.01.31.56,1.34.27.93-.27,2.97-2.82,3.48-3.75.81,1.63,1.73-.27,2.27-.27.71,0-.1,1.47.94,0Z" fill="#b984ff" stroke-width="0"/><path d="m27.03,33.29c-2.44-.14-2.28,1.25-2.41,1.34-3.32,2.27-.86-1.81,2.41-1.34Z" fill="#705dd4" stroke-width="0"/><path d="m48.71,35.7c.18.12.96.57,1.07.4.2-1.24-.51-.89-.54-.94-.5-.76-1.87-1.76-.13-2.14,1.41-.31,3.26,2.23,5.09.8,1.32,1.67,2.68.03,3.21,2.68,1.6.36,2.51-.57,3.75,1.07,2.6-1.02,2.82.88,3.75,1.61.56.44,3.5.94-1.2.54-2.72-.23-5.38-1.14-8.16-.27l-.8-.8c-3.14,1.25-4.85-1.43-7.09-.54-1.26-.9-2.47.39-4.42,0-.23-.05-2.12-2.39-4.01-.27-5.66-2.17-6.36.13-6.69,0-.5-.2.33-.99,0-1.34-.33-.35-5.14.23-6.16-1.34-.38-.04-.94.53-1.2.54l-.54-1.07c.12-.09-.03-1.48,2.41-1.34.09.01,1.57.68,1.87.4.02-.02-.43-.29-.27-.54.64-.96.92-1.59-.27-2.81,2.05-1.41-.27-1.9-1.61-.8-.01-.01-.3.06-.27-.27,1.01-1.43.72-1.64,2.68-1.87,1.03-.12,3.4.3,3.48.13-1.13-1.85-1.71,1.19-1.87-2.27,4.52,1.2,5.11.73,7.76,4.42.13.18.22,2.67,2.54,3.08.23.04,2.08-1.75,3.75,1.07,1.54-1.83,3.06,1.32,3.88,1.87Z" fill="#71fffd" stroke-width="0"/><path d="m48.71,35.7l.54-.54s.74-.3.54.94c-.11.17-.89-.28-1.07-.4Z" fill="#3863ae" stroke-width="0"/><path d="m34.66,30.61c.41-.02,1.15-.06,1.34,0,2.92.97-2.4.63-1.61,1.87-2.15-1.7-2.48,3.34-3.88.67-.06-.12-.11-1.72.94-2.27,2.61.69,3.04-.26,3.21-.27Z" fill="#0075c4" stroke-width="0"/><path d="m41.22,34.36c.98.19,2.89-.57,2.27,3.21-1.39-1.2.62-1.48-2.27-3.21Z" fill="#71a6ff" stroke-width="0"/><path d="m28.37,30.34c-.06-.06-.57.32-1.61-.8,1.34-1.1,3.65-.6,1.61.8Z" fill="#3657b4" stroke-width="0"/><path d="m52.59,35.97c.24-.1,1.18.29,1.2.4.1.44-1.74.33-1.2-.4Z" fill="#3f88d5" stroke-width="0"/><path d="m56.07,37.04c1.19-.42.2,1.01-.27.8-.37-.16.07-.73.27-.8Z" fill="#698da7" stroke-width="0"/><path d="m41.22,34.36c-.28-.17-1.76-.9-.13-.54.23.05.11.53.13.54Z" fill="#71a6ff" stroke-width="0"/><path d="m34.12,26.87c.22-.14.69.37.67.4-.2.44-1.27-.04-.67-.4Z" fill="#269baf" stroke-width="0"/><path d="m26.5,38.91c-.75-.15-4.07-1.22-4.28-1.87.37-.07.81.17.8-.27,2.03,1.37,5.32,2.49,7.63,1.34.86.17.4,1.7-4.15.8Z" fill="#8567f2" stroke-width="0"/><path d="m24.09,27.67c-2.14.9-4.89,3.19-4.28,5.62-1.03.29-1.27-.26-1.34-.27.49,0,.16-.73.27-1.34.2-1.2,1.68-4.02,2.81-4.55.54-.25,3.49-.26,2.54.54Z" fill="#888fff" stroke-width="0"/><path d="m23.28,29.54c-.51.93-2.55,3.48-3.48,3.75-.61-2.43,2.14-4.72,4.28-5.62.05.72-.48,1.29-.8,1.87Z" fill="#20222e" stroke-width="0"/><path d="m51.65,24.99c-3.41,1.04-6.08,2.89-9.37,4.55-.59-.07-1.16.22-1.07-.4,5.34-3.66,5.7-2.17,6.02-2.27.61-.2-.76-1.41,4.15-2.14.11.26.09.18.27.27Z" fill="#0075c4" stroke-width="0"/><path d="m18.2,31.68c.13.04.36-.02.54,0-.1.61.23,1.33-.27,1.34-.36-.07-1.44-.78-1.87-.8l-.27-.8c1.06,0,.77-.06,1.87.27Z" fill="#2b2e46" stroke-width="0"/><path d="m31.58,14.29c4.58,2.73,5.06.36,5.35.27,1.29-.41,2.66-.92,4.01-1.07-6.07,4.36,2.07.81,8.56,2.68h-26.63c-.59-.35,2.35-1.72,3.08-2.14.11,1.88,1.51.18,2.14-.54.26.41.79.62.8.67.03.1-.73.46-.4.67l3.08-.54Z" fill="#0075c4" stroke-width="0"/><path d="m49.51,16.16c-6.5-1.87-14.64,1.68-8.56-2.68.87-.1,1.39.54,1.47.54.4,0,3.57-1.85,7.09,2.14Z" fill="#6ff" stroke-width="0"/><path d="m36.93,14.55c-.29.09-.78,2.46-5.35-.27-.04-.02-.15-.52-.54-.8-.03-.02-.02-.3-.54-.54-.43-.2-1.12-.3-1.61-.27v-.27c.82-.33,1.18-.87,1.47-.8,1.17,1.93,4.42,2.98,6.56,2.94Z" fill="#e7fdfb" stroke-width="0"/><path d="m28.9,12.41v.27c-.43.07-.57.54-.8.8-.63.71-2.03,2.42-2.14.54,1-.58,1.85-1.17,2.94-1.61Z" fill="#44387c" stroke-width="0"/><path d="m30.51,12.95l.13,1.07.4-.54c.38.29.49.78.54.8l-3.08.54c-.33-.2.43-.56.4-.67-.01-.05-.55-.26-.8-.67.23-.26.37-.73.8-.8.48-.03,1.18.07,1.61.27Z" fill="#888fff" stroke-width="0"/><path d="m31.05,13.48l-.4.54-.13-1.07c.51.24.5.51.54.54Z" fill="#5947a3" stroke-width="0"/><path d="m72.8,13.48c.28,1.24-1.36,3.15-1.2,3.21,1.38-.19,3.47.26,4.68,0-.04.62.75,1.45.8,1.87.08.65-.29,1.07-.54,1.61-.79.06-2.27-1.75-2.54-1.61-.67.36,2.06,2.73-2.41,1.61-.31.31.42.51.4.54-.46.82-1.18.47-.54,1.07.16.15,3.47,1.56,4.01,1.61l.8,1.34c-1.37,1.16-1.49,0-1.74,0-1.75.01-5.73-.23-7.23-.54-1.74-.36-3.14-2.31-2.27-.13.36.9,1.02,1.11,1.87,1.34.1.57-2.79.86-4.15-.94-4.56,1.34-4.14.95.4,2.14-1.17.28-2.56.43-3.75.54-5.68.51-5.24-.7-6.42-.8v-1.34c2.41-.34,2.03-2.27,2.54-2.68,2.55-.24,2.62-1.19,2.94-1.34.28-.13,1.28.13,1.61,0,.52-.21,1.33-1.19,2.81-1.61.3-.08.77-.21,1.07-.27.06-.01.95.64,1.2.54.89-2.1,5.37-7.53,7.63-6.16Z" fill="#b984ff" stroke-width="0"/><path d="m95.55,27.13c1.61,1.22-.24.85-.54,2.41-5.7.34-11.68-.03-17.4-.27,5.08-3.03-2.04-.71-2.54-.8-3.25-1.92,3.31-1.17,8.16-.8,2.26.17,4.41.6,6.56,1.07,1.72-1.3,3.32-.98,3.48-1.07.32-.17-.21-.31-.13-.54.65-1.86-.57-1.17-1.61-1.87.18,0,.36.02.54,0,.74-.07.87-.54.94-.54.45.07,1.33,1.87,1.87,2.41.08.08.58-.07.67,0Z" fill="#5b5cc0" stroke-width="0"/><path d="m72.8,11.34l-2.41,1.74c.11.5,1.98-1.51,2.41.4-2.26-1.37-6.74,4.06-7.63,6.16-.26.11-1.14-.55-1.2-.54-.78-2.28,6.66-8.85,7.76-9.1-.11.5.76,1.2,1.07,1.34Z" fill="#1f2139" stroke-width="0"/><path d="m85.38,19.91c.13.54,1.27.49,1.34.54.1.07-.2.55,1.74,1.61.48.26,4.04.39,3.61,3.21-.18.02-.36,0-.54,0-6.32-4.33-7.51-1.67-7.9-1.87-.29-.16.76-.25-.67-1.61-.02-.91-.42-.84.27-1.61.14,0,.82-.19,2.14-.27Z" fill="#b984ff" stroke-width="0"/><path d="m76.54,20.17c.3-.02,1.79-.63,2.14-.8,1.41.64,3.03.82,4.55.8-.69.76-.29.69-.27,1.61-2.2-2.09-1.11.09-4.28,0-1.2-.03-5.04-.8-6.69-1.07.02-.03-.71-.22-.4-.54,4.47,1.13,1.74-1.25,2.41-1.61.27-.14,1.75,1.67,2.54,1.61Z" fill="#3d397f" stroke-width="0"/><path d="m79.22,18.84c-.47-.99-1.37-.69-2.14-.27-.05-.42-.84-1.25-.8-1.87.39-.09.74-.17,1.07-.4-3.45-1.59,1.44-.07,3.35-.4,1.66-.29,1.41-2.04,2.14-1.61.1.06.99,1.91.94,2.01-.12.23-3.93,2.21-4.55,2.54Z" fill="#0075c4" stroke-width="0"/><path d="m78.15,9.47c.77.24,2.83,2.02,2.01,2.68-1.49-.34-6.54-.44-7.36-.8-.31-.14-1.18-.84-1.07-1.34h.54c2.04.55,4.43-.98,5.89-.54Z" fill="#3871bb" stroke-width="0"/><path d="m98.22,26.87c4.18.52,5.73.53,1.07,2.41-1.44-.04-2.85.18-4.28.27.3-1.56,2.14-1.18.54-2.41.68-.93,1.75-.38,2.68-.27Z" fill="#3e4288" stroke-width="0"/><path d="m78.15,8.67v.8c-1.45-.44-3.84,1.09-5.89.54-.07-1.29,1.18-1.47-.27-1.87-.19-.05-.54.01-.8,0,.39-1.55,4.39.42,4.95.54.57.12,1.45-.12,2.01,0Z" fill="#6ff" stroke-width="0"/><path d="m79.22,18.84c-.51.27-.5.52-.54.54-.35.18-1.84.78-2.14.8.25-.54.61-.95.54-1.61.77-.42,1.67-.72,2.14.27Z" fill="#efe8f0" stroke-width="0"/><path d="m79.22,5.99c-4.11,3.19,2.09-.54,5.75,3.48.79.15-.85-1.67.8-1.34,1.35.27,2.96,5.48,3.61,6.82,8.27,1.42,5.05,4.5,7.76,5.75.29-.06-.75,1.72-.94,1.87-.31.26-4.61.37.8.54.13,0,.63-.54.67-.54,1.31.06,2.26,1.36.54,2.14-.31-.27-.79.85-.94-.54-1.93,1.88-.98-.56-2.54.13,1.23,2.16,2.38.08,3.75,1.74-.11.09-.33.56-.27.8-.93-.11-2-.66-2.68.27-.09-.07-.59.08-.67,0-.55-.54-1.42-2.34-1.87-2.41-.07,0-.2.47-.94.54.43-2.82-3.14-2.95-3.61-3.21-1.93-1.06-1.64-1.54-1.74-1.61l1.47-.8c-.91.02-1.91.22-2.81.27-1.32.07-2,.27-2.14.27-1.52.02-3.14-.16-4.55-.8.03-.02.03-.26.54-.54.62-.33,4.43-2.31,4.55-2.54.05-.1-.84-1.95-.94-2.01-.73-.44-.48,1.32-2.14,1.61-1.91.33-6.79-1.18-3.35.4-.33.24-.68.32-1.07.4-1.22.26-3.3-.19-4.68,0-.16-.07,1.48-1.98,1.2-3.21-.43-1.91-2.3.1-2.41-.4l2.41-1.74c.82.37,5.87.47,7.36.8.82-.66-1.24-2.44-2.01-2.68v-.8c1.88.41,2.35,1.6,2.94.67-.02-1.32-7.08-.98-5.89-2.41.11-.13,3.05-.91,3.21-.94.26-.04.54.01.8,0Z" fill="#71fffd" stroke-width="0"/><path d="m98.22,20.71c-.52-.28-.58,1.34-.54,1.87-.04,0-.54.54-.67.54-5.41-.17-1.12-.28-.8-.54.18-.15,1.23-1.93.94-1.87h1.07Z" fill="#3f88d5" stroke-width="0"/><path d="m98.22,24.72c1.91,1.61.36,1.26.27,1.34-1.37-1.66-2.52.42-3.75-1.74,1.57-.69.62,1.74,2.54-.13.15,1.38.62.27.94.54Z" fill="#6273c1" stroke-width="0"/><path d="m86.71,20.44c-.06-.04-1.21,0-1.34-.54.9-.05,1.9-.24,2.81-.27l-1.47.8Z" fill="#3863ae" stroke-width="0"/><path d="m85.51,14.02c.39-.23,1,.8.54,1.07-.39.23-1-.8-.54-1.07Z" fill="#327ccb" stroke-width="0"/><path d="m87.38,17.5s.54.45.4.67c-.38.6-.84-.48-.4-.67Z" fill="#00a9d9" stroke-width="0"/><path d="m98.22,20.71c1.86.2,1.04,1.49,1.74,1.87,2.33-.54,2.34,2.43,2.94,2.68.2.08,2.93-.3,4.28.27.07,1.31.6,1.15,1.74,1.34.2.03.3.03.27.27-1.99.22-7.82-.25-5.89.8-.35.08-2.83,1.98-3.21,2.41l-.8-.54c.01-.18,0-.36,0-.54,4.66-1.87,3.11-1.89-1.07-2.41-.06-.24.16-.71.27-.8.09-.08,1.65.27-.27-1.34,1.73-.78.77-2.08-.54-2.14-.04-.54.01-2.15.54-1.87Z" fill="#71fffd" stroke-width="0"/><path d="m100.77,23.65c.41.14.58,1.64.8,2.14-.58-.33-2.67-2.8-.8-2.14Z" fill="#0080e9" stroke-width="0"/><path d="m76.28,24.72c.92-.77.38-1.22.67-1.34.1-.04.14,1.35,1.2.27-.04.14.04.39,0,.54-.01.04-.73.29-.54.67.19.31.76-.4.8-.4,3.25-.05,2.84,1.34,4.82,1.87-1.85.13-.27.61,0,1.34-4.85-.37-11.41-1.12-8.16.8.5.09,7.63-2.22,2.54.8-.03.02-.49.25-.54.27-2.78-.5-5.53-.04-8.3,0-.34-2.03,2.48-1.03,3.61-1.87-3.48.02-5.98-.21-9.23-1.07-4.54-1.2-4.96-.8-.4-2.14,1.36,1.79,4.25,1.5,4.15.94-.85-.23-1.52-.43-1.87-1.34-.86-2.18.53-.23,2.27.13,1.49.31,5.47.55,7.23.54.25,0,.37,1.16,1.74,0Z" fill="#1f2139" stroke-width="0"/><path d="m71.19,8.13c.26.01.61-.05.8,0-1.31.45-3.54.57-3.48,2.54-1.26-.53-1.14,1.56-1.61,2.14-.41.5-3.89,1.78-4.01,6.56-1.48.42-2.29,1.4-2.81,1.61-.32.13-1.32-.13-1.61,0-.32.15-.4,1.1-2.94,1.34-.52.41-.13,2.34-2.54,2.68-.26.04-1.26.04-1.34,0-.18-.09-.16,0-.27-.27-.11-.25-.14-2.13.4-2.41,1,1.29,5.06-1.4,5.49-2.01.41-.58-1.41-1.55,1.87-1.61,2.39-5.87,2.36-1.24,4.01-3.21.33-.4.9-2.26.8-2.94.9.85,2.36-.36,1.61-1.34,2.38-.72,1.61-3.25,5.62-3.08Z" fill="#2b2e46" stroke-width="0"/><path d="m68.78,29.54c-4.28.06-8.57,0-12.85,0v-.8c1.4-.07,2.46-.72,3.48-1.61,1.19-.11,2.58-.25,3.75-.54,3.25.86,5.75,1.09,9.23,1.07-1.14.84-3.95-.16-3.61,1.87Z" fill="#3657b4" stroke-width="0"/><path d="m52.99,24.99v1.34c-5.3-.48-1.2,2.62,2.94,2.41v.8c-3.6,0-11.42.26-13.65,0,3.29-1.66,5.96-3.51,9.37-4.55.08.04,1.08.04,1.34,0Z" fill="#2a9de3" stroke-width="0"/><path d="m72.26,10h-.54c-1.11.25-8.54,6.82-7.76,9.1-.3.06-.78.18-1.07.27.13-4.78,3.61-6.05,4.01-6.56.47-.58.35-2.67,1.61-2.14-.06-1.97,2.17-2.1,3.48-2.54,1.44.4.2.58.27,1.87Z" fill="#a9f" stroke-width="0"/><path d="m78.69,21.78c-.11.64-.34,1.25-.54,1.87-1.06,1.08-1.11-.31-1.2-.27-.29.11.25.56-.67,1.34l-.8-1.34c.29.02.45-.06.67.27.43-.31-3.8-2.3-4.68-1.87-.65-.6.08-.25.54-1.07,1.65.27,5.49,1.04,6.69,1.07Z" fill="#76fff4" stroke-width="0"/><path d="m52.99,26.33c1.19.11.74,1.31,6.42.8-1.02.88-2.08,1.53-3.48,1.61-4.14.21-8.24-2.89-2.94-2.41Z" fill="#2b275a" stroke-width="0"/><path d="m75.47,23.39c-.55-.05-3.86-1.46-4.01-1.61.89-.43,5.11,1.56,4.68,1.87-.21-.33-.38-.24-.67-.27Z" fill="#705dd4" stroke-width="0"/><path d="m82.97,21.78c1.43,1.36.38,1.45.67,1.61.39.21,1.58-2.46,7.9,1.87,1.03.71,2.25.02,1.61,1.87-4.33-.1-7.21-3.7-7.76-2.81,2.99,2.47.72,2.78-2.14,2.01-1.98-.53-1.57-1.93-4.82-1.87l-.27-.27c.04-.15-.04-.4,0-.54.19-.62.43-1.23.54-1.87,3.17.09,2.09-2.09,4.28,0Z" fill="#76fff4" stroke-width="0"/><path d="m93.14,27.13c-.08.22.45.36.13.54-.16.09-1.76-.23-3.48,1.07-2.15-.47-4.29-.9-6.56-1.07-.27-.73-1.85-1.21,0-1.34,2.86.77,5.13.46,2.14-2.01.55-.89,3.44,2.71,7.76,2.81Z" fill="#272f80" stroke-width="0"/><path d="m78.42,24.46s-.61.71-.8.4c-.2-.38.52-.63.54-.67l.27.27Z" fill="#a69fff" stroke-width="0"/><path d="m118.56,20.17c.21-.07.58.06.8,0-.64.72.69.91,1.61,1.34-7.55,6.69-.54-1.43-4.42,1.34-1.8,1.28-2.59,2.64-3.35,4.55-.02.06-.7.09-.54,1.07-.4-.02-.17-.38-.4-.54-2.69,1.15-6.02-.67-8.97,0-1.94-1.05,3.9-.59,5.89-.8,4.79-.52,1.41-3.05,6.69-5.89,1.01-.54,1.62-.72,2.68-1.07Z" fill="#a9f" stroke-width="0"/><path d="m115.89,21.25c-5.28,2.84-1.9,5.36-6.69,5.89.03-.24-.07-.24-.27-.27-.03-.38.26-2.05.4-2.14.19-.12.3.82.8.8.42-.01,1.48-2.33,1.87-2.68.3-.26.77.3.8.27.18-.15.86-2.57,3.08-1.87Z" fill="#2b2e46" stroke-width="0"/><path d="m122.58,19.1c-1.01.2-2.21.77-3.21,1.07-.22.06-.6-.07-.8,0-.15-.67,1.34-.81,2.94-1.61l1.07.54Z" fill="#0080e9" stroke-width="0"/><path d="m124.72,19.1c.1.24,1.26.78,1.34.8-1.65.19-.6.87-.8,1.07-1.49-.77-2.88.09-4.28.54-.91-.43-2.24-.62-1.61-1.34,1.01-.3,2.2-.87,3.21-1.07,1.16-.22,1.85.04,2.14,0Z" fill="#8ff" stroke-width="0"/><path d="m112.68,28.47c.13,0,.54.43,1.61.27l.13.54c-2.8-.83-3.55.26-3.75.27-.84.03-2.63-1.53-4.01.27-2.76-1.49-3.03,2.37-7.9,3.48.33-1.26.44-1.93,1.34-2.94.38-.43,2.86-2.33,3.21-2.41,2.95-.67,6.27,1.15,8.97,0,.23.16,0,.52.4.54Z" fill="#1f2139" stroke-width="0"/><path d="m100.1,30.34c-.9,1.01-1.01,1.68-1.34,2.94-.58,2.25-1.22,1.91-1.34.27-.1-1.38,1.82-3.12,1.87-3.75l.8.54Z" fill="#85a2ff" stroke-width="0"/><path d="m125.25,20.98c-.3.31-2.61.17-2.81,2.14-1.17-1.05-2.64.75-2.54,1.87-1.79-.67-1.11.94-.8,2.14-.72.18-.77.53-1.34.54.57-.89,1.47-2-.4-2.14-.87-.07-1.34,1.4-4.15,1.87.75-1.91,1.55-3.27,3.35-4.55,3.88-2.76-3.14,5.35,4.42-1.34,1.4-.44,2.79-1.31,4.28-.54Z" fill="#2b275a" stroke-width="0"/><path d="m117.76,27.67c-.22.35-.59.6-.54,1.07-.26-.01-.18-.84-2.94,0-1.07.16-1.48-.26-1.61-.27-.16-.98.51-1.01.54-1.07,2.81-.48,3.28-1.94,4.15-1.87,1.87.14.98,1.25.4,2.14Z" fill="#c0c8f6" stroke-width="0"/><path d="m142.92,35.43c.16.03.37-.03.54,0-.3,2.4-1.78.62-1.87,1.87-9.72.09-19.45-.04-29.17,0,.34-.6-3.09-1.8-3.48-1.87l.27-.27c2.92,1.36,6.99,2.42,6.69.27v-.27c2.21.57,4.71.76,6.96.8.51,1.87,11.76,1.69,7.76-1.07.03-.02.34-.52.27-.8.45.1.91.17,1.34.27.27,1.37,3.1,1.87,4.15,1.61,2.13-.54-.06-.75-3.35-1.61,2.89-.29-2.24-.96-.67-2.41.84.52,4.27.43,1.74.94,4.04,3.42,6.64,1.38,7.36,1.47.55.21,1.13,1,1.47,1.07Z" fill="#3d397f" stroke-width="0"/><path d="m108.93,35.43c.39.08,3.82,1.27,3.48,1.87-.72,0-1.59-.28-3.21-.27-5.51-1.29-9.52.76-17.13-.27,3.61-.26,9.52-2.45,12.18-.8,1-.02.88-1.3,4.68-.54Z" fill="#3d397f" stroke-width="0"/><path d="m157.91,36.5c.43.13.51,0,.94,0v.54c-5.76.15-11.5.21-17.26.27.1-1.26,1.57.53,1.87-1.87,2.8.6,2.83-.98,4.68.54,2.85-.76,2.53,0,2.68,0,2.89.19,2.64-.82,7.09.54Z" fill="#3d397f" stroke-width="0"/><path d="m89.66,36.23c.14-.03-.79.59,2.01,0,.23.18,0,.48.4.54,7.61,1.03,11.62-1.02,17.13.27-6.79.03-13.82,1.13-20.61.54-2.83-.25-.12-1.1,1.07-1.34Z" fill="#229aee" stroke-width="0"/><path d="m130.88,34.09c.07.28-.23.78-.27.8-2.63,1.84-4.69.52-4.95.54-.34.02-.99.57-2.81.54-2.25-.05-4.75-.23-6.96-.8-6.72-1.75-.6-1.78,2.81-1.87,1.18-1.22-2.39-1.53-2.54-2.14,3.26-.03,4.17,2.05,4.42,2.14,2.91-1.21,6.18,1.39,8.56-.27.35.39,1.31.98,1.74,1.07Z" fill="#2b275a" stroke-width="0"/><path d="m119.9,30.08l-.8-1.07c3.36-1.62,3.97,1.71,4.55-.67.01-.05-.56-.5-.54-.54.09-.13.5.31,2.68-1.2.06-.04-.21-.41.27-.8,2.83,4.27-.45.55-1.74,4.82-2.07-1.78-2.51.24-2.68.27-.09.01-.44-.79-1.74-.8Z" fill="#5b5cc0" stroke-width="0"/><path d="m119.9,24.99c.2,2.31,1.87.29,2.01.27,1.25-.17,1.65.02,1.74,0,.03.31.29.43.54.54-.73,1.6-2.63.71-5.09,1.34-.31-1.2-.98-2.82.8-2.14Z" fill="#c0c8f6" stroke-width="0"/><path d="m133.02,34.36c3.29.86,5.48,1.06,3.35,1.61-1.04.27-3.88-.24-4.15-1.61.24.05.57-.06.8,0Z" fill="#888fff" stroke-width="0"/><path d="m142.92,30.61c.03.82-.36.12-.8,1.07-.43.92.26.44.27.54.03.37-.44-.11.27,1.34.18.36.22.18.27.27.41.73,1.57.96,0,1.61-.34-.07-.92-.86-1.47-1.07-.72-.09-3.32,1.95-7.36-1.47,2.53-.51-.9-.42-1.74-.94-1.57,1.45,3.55,2.12.67,2.41-.23-.06-.56.05-.8,0-.43-.1-.89-.17-1.34-.27-.43-.09-1.39-.68-1.74-1.07-2.39,1.65-5.66-.94-8.56.27-.24-.09-1.15-2.18-4.42-2.14-.34-1.36,3.07-1.08,3.75-1.07,1.3.01,1.64.82,1.74.8.16-.02.61-2.05,2.68-.27,1.29-4.27,4.57-.54,1.74-4.82.21-.17,3.89-.86,4.15-.8,1.04.23,2.87,2.92-.54-2.41-2.63,1.74-3.08,1.99-6.02,2.68-.08.02-.49-.17-1.74,0-.14.02-1.8,2.05-2.01-.27-.1-1.12,1.37-2.92,2.54-1.87.2-1.97,2.51-1.83,2.81-2.14.2-.21-.85-.88.8-1.07,3.62.94,4.91-3.75,7.36,5.35,3.62-.52,2.79,2.13,3.75,2.68.31.18,2.78.18,2.94.27.98.49-.97,1.44,2.81,2.41Z" fill="#71fffd" stroke-width="0"/><path d="m126.06,25.8c-.48.39-.21.76-.27.8-.47-.49-1.04-.56-1.61-.8-.25-.11-.51-.23-.54-.54,2.94-.68,3.39-.93,6.02-2.68,3.41,5.33,1.58,2.64.54,2.41-.25-.06-3.94.63-4.15.8Z" fill="#0075c4" stroke-width="0"/><path d="m133.69,29.01c1.28-.7,4.73,2.16,0,.54v-.54Z" fill="#8a91ad" stroke-width="0"/><path d="m131.28,29.01c.35.17.02,1.2-.13,1.47-1.06,1.89-2.44,1.95.13-1.47Z" fill="#3bc3ff" stroke-width="0"/><path d="m138.77,31.15c.07,0,.94.87.94.94,0,1.1-2.27-.78-.94-.94Z" fill="#71a6ff" stroke-width="0"/><path d="m127.8,32.22c.28-.14,1.13-.03.94.4-.22.48-1.36-.19-.94-.4Z" fill="#7e72a8" stroke-width="0"/><path d="m127.53,29.54s.54.39.27.54c-.69.36-.77-.48-.27-.54Z" fill="#a4a3a7" stroke-width="0"/><path d="m146.67,31.15c1.35,2.09,3.18.54,4.42,2.94,2.91.93,4.42-.09,6.82,2.41-4.46-1.35-4.21-.35-7.09-.54-.15,0,.17-.76-2.68,0-1.85-1.51-1.89.06-4.68-.54-.16-.03-.37.03-.54,0,1.57-.65.41-.88,0-1.61l-.27-.27c-.71-1.45-.23-.97-.27-1.34.36-.57.46-1.01-.27-.54.44-.95.84-.25.8-1.07,2.57.65,3-.65,3.75.54Z" fill="#b8e8e3" stroke-width="0"/><path d="m142.38,32.22c0-.1-.7.39-.27-.54.73-.48.62-.04.27.54Z" fill="#8a91ad" stroke-width="0"/><path d="m142.92,33.82c-.05-.09-.09.09-.27-.27l.27.27Z" fill="#8a8abb" stroke-width="0"/><path d="m145.73,31.68s.65.37.67.4c.79,1.44-2.55-.08-.67-.4Z" fill="#0075c4" stroke-width="0"/><path d="m148.41,34.09c.6-.25,1.34.24.8.54-.12.06-1.17-.38-.8-.54Z" fill="#109ad5" stroke-width="0"/><path d="m150.01,34.09c.17-.02.35-.03.4.13.23.77-1.61.03-.4-.13Z" fill="#31c1fa" stroke-width="0"/><path d="m125.79,26.6c-2.18,1.51-2.59,1.08-2.68,1.2-.02.03.55.49.54.54-.58,2.37-1.19-.95-4.55.67-.88.16-1.39-.25-1.87-.27-.06-.47.31-.72.54-1.07.57,0,.62-.35,1.34-.54,2.45-.63,4.35.26,5.09-1.34.56.25,1.13.31,1.61.8Z" fill="#76fff4" stroke-width="0"/><path d="m130.61,34.89c4,2.76-7.25,2.94-7.76,1.07,1.82.04,2.47-.52,2.81-.54.26-.01,2.32,1.3,4.95-.54Z" fill="#745de3" stroke-width="0"/><path d="m117.23,28.74c.48.02,1,.43,1.87.27l.8,1.07c-.68,0-4.09-.29-3.75,1.07.15.61,3.73.92,2.54,2.14-3.41.09-9.53.13-2.81,1.87v.27c-1.44-.21-3.9-.45-4.42-1.87-4.05.38-6.09-.17-2.27,1.61l-.27.27c-3.81-.76-3.68.52-4.68.54-2.66-1.65-8.57.54-12.18.8-.41-.06-.17-.35-.4-.54-2.8.59-1.87-.03-2.01,0,.27-1.88,5.82-2.37,7.76-2.68.12,1.64.76,1.98,1.34-.27,4.86-1.11,5.14-4.97,7.9-3.48,1.38-1.8,3.17-.23,4.01-.27.2,0,.95-1.1,3.75-.27l-.13-.54c2.77-.84,2.69-.01,2.94,0Z" fill="#b984ff" stroke-width="0"/><path d="m115.89,35.43c.3,2.15-3.77,1.09-6.69-.27-3.81-1.77-1.78-1.23,2.27-1.61.52,1.42,2.98,1.67,4.42,1.87Z" fill="#2b275a" stroke-width="0"/><path d="m93.81,34.36c3.52-.5.75,2.45-1.74.94,0-.1,1.64-.92,1.74-.94Z" fill="#888fff" stroke-width="0"/></g></svg>