<?xml version="1.0" encoding="UTF-8"?><svg id="Layer_2" xmlns="http://www.w3.org/2000/svg" viewBox="0 0 135.9 47.4"><g id="Layer_1-2"><path d="m25.9,45.53c1.17.07,2.31.2,3.48.27-4.07.92-8,.43-12.04,0l1.61-.54c2.26.21,4.66.13,6.96.27Z" fill="#4c4ca9" stroke-width="0"/><path d="m120.91,40.18c-1.33.41-1.89,1.78-.94,2.41,1.86,1.24,4.97-1.54,7.23,1.07,4.14-1.8,5.57.23,5.89.27,1.1.14,1.11-1.24,2.81,0,0,.45,0,.89,0,1.34-3.11-.45-6.25-.25-9.37-.27-1.9-3.31-12.94-1.04-18.33-1.61l-2.14-.54c-.24-.09-.1-.52-.13-.54,3.93.1,8.52,1.19,11.78-.27,2.14-.96,1.39-2.79,3.21-1.87Z" fill="#745de3" stroke-width="0"/><path d="m135.9,38.3c0,.8,0,1.61,0,2.41-.27-.01-.54.02-.8,0-.67-.05-1.47.49-1.74.27-.12-.09.03-.73-.67-2.14-.33-.67-1.58-.13-.27-1.87,2,.31.68,1.95,3.48,1.34Z" fill="#71fffd" stroke-width="0"/><path d="m105.92,42.32s-.11.45.13.54l2.14.54c5.4.57,16.44-1.7,18.33,1.61-7.16-.03-14.25-.27-21.41,0-1.15.04-2.24-.12-3.48,0v-.8c.54-.04,2.57-.43,1.87-1.34.13,0,2.1-.69,1.87-.8.19.09.34.19.54.27Z" fill="#a9f" stroke-width="0"/><path d="m132.42,36.96c-1.31,1.74-.06,1.2.27,1.87-.87-.46,0,3.1.13,3.21.14.1,3.52-1.13,2.27-1.34.26.02.54-.01.8,0,0,1.07,0,2.14,0,3.21-1.7-1.24-1.71.14-2.81,0-.32-.04-1.75-2.07-5.89-.27-2.26-2.61-5.37.17-7.23-1.07-.95-.63-.39-2,.94-2.41.11-.67-.52-.76-.54-.8.41-2.16.17-2.96,2.68-3.08-1.47-.92-1.38-.16-2.14-1.74-.01-.03-.37.09-.27-.54,4.56.01,4.91,1.84,7.09,1.61,1.84,1.39-1.09,3.06,1.34,4.01.23-1.86,1.47-2.97,3.35-2.68Z" fill="#6ff" stroke-width="0"/><path d="m126.66,39.64c2.1-.45,3.2,1.26,4.42,2.54-.15.5-2.22-1.46-2.81.4-.41-1.36-3.94-2.44-1.61-2.94Z" fill="#4c4ca9" stroke-width="0"/><path d="m126.13,37.5c.77.29.27,2.07,0,2.14-.11.03-.59-.88-1.07-.8-.48.07-.61,2.25-3.08.94l4.15-2.27Z" fill="#39a0f9" stroke-width="0"/><path d="m132.69,38.84c.7,1.41.55,2.05.67,2.14.27.22,1.07-.32,1.74-.27,1.25.21-2.14,1.44-2.27,1.34-.14-.11-1.01-3.67-.13-3.21Z" fill="#2a9de3" stroke-width="0"/><path d="m48.38,6.45c5.29.01-1.79,2.33-2.14,3.48-.15.49.62.45.54.67-.16.41-1.82.86-2.14,1.47-.55,1.02.07,1.6,0,1.74-6.04,2.75,1.05,1.06,3.08-.67,1.68-.36,1.4.02,1.47,0-3.84,2.66,3.28-.03-1.61,2.41-5.37,2.68-2.79,2.48-3.61,3.48-1.03,1.25-3.44-1.53-2.41.8-1.16-.03-1.01,1.35-2.14.27l-2.81,3.75c-.19-.05-.54.01-.8,0-.02-.22-.18-.3-.27-.54-1.5-4.18,1.58-4.12,2.68-5.75.19-.28,1.1-3.69,2.94-6.16.64-.92.51.36.94.4.59.06,3.19-5.36,6.29-5.35Z" fill="#252a54" stroke-width="0"/><path d="m46.24,9.93c.35-1.15,7.43-3.46,2.14-3.48.03-.32-.04-.75,0-.8,2.1-2.79,5.18.05,6.56-3.21,2.43,1.29,4.92-.35,7.76.54,3.2-2.68,6.5.93,2.68.8-.2,0-1.78-2.28-2.94.8-4.25-1.17-4.3,2.24-4.55,2.41-.26.17-2.74-.32-5.35,2.68-2.38-.76-3.79,1.28-6.29.27Z" fill="#327ccb" stroke-width="0"/><path d="m117.7,39.64c-2.29-.86-1.3,1.3-1.74,1.61-.12.08-.1-1.11-2.68,0-.98-1.35-2.14-.15-2.41-.27-.82-2.87-3.22-.68-3.48-.8-.26-.12-1.42-4-4.15-3.35-.34-.64,2.2-.72.27-3.88,6.13-1.24.36.89,1.61,2.54.31.41,2.2.58,2.27.67.18.2-1.28,2.95,3.48,2.14,3.75,5.01,8.43-3.61,6.82,1.34Z" fill="#0075c4" stroke-width="0"/><path d="m45.7,20.1c.14.04.74.47.8.54.03.04-.14.62.54.8-.21.25-.29.33-.54.54-.21.18-.54.42-.8.54-.42-.82-1.84-.44-1.61.54-.88.39-.4-.71-2.94,1.61-.25.22-.62,2.17-2.54,1.34-.19-.08-.16-.9-.94-1.34.85-2.78,5.52-5.21,8.03-4.55Z" fill="#416ff5" stroke-width="0"/><path d="m77.82,20.37c-2.72-.77-2,.93-2.27,1.07-.17.08-.73-1.36-3.08,1.34l-1.34-1.34c.54-1.04.68-1.4-.8-1.07-.19.04-.3-.08-.27-.27,1.85-.75,2.74.21,3.48-1.2,1.02-1.94-1.77-2.12,4.95-2.81,1.35,2.69-3.06.15-.67,4.28Z" fill="#3871bb" stroke-width="0"/><path d="m49.18,13.14c-.07.02.2-.36-1.47,0-2.03,1.73-9.11,3.41-3.08.67.07-.14-.55-.72,0-1.74,6.82-2.01,7.24-.2,7.63-.27.19-.03,2.64-2.85,3.08-1.2.32,1.21-5.53,2.34-6.16,2.54Z" fill="#3871bb" stroke-width="0"/><path d="m47.58,15.55c2.15,1.91.07.29-.27,1.2-.25.67,1.51.12-.8,1.07,1.48,1.36-1.88-.79-.8,2.27-2.51-.66-7.18,1.77-8.03,4.55-.51-.29-1.01-.78-1.07-.8l2.81-3.75c1.14,1.08.99-.3,2.14-.27-1.03-2.33,1.38.45,2.41-.8.82-1-1.76-.8,3.61-3.48Z" fill="#0088ec" stroke-width="0"/><path d="m63.1,19.57l-2.41,2.54c.78.89,2.15.24,2.94.13-.11,2.98,6.92-1.57,5.09,1.34-1.1.67-2.77,1.24-2.68,1.87-7.14-.73-.99-.58-2.41,2.54-.45.99-2.33,1.83-3.08.4-.1.02-.27.8-.54.8-5.55.02-1.71-5.5-8.7-7.76.03-.13.25-.52.27-.54.26-.24.2.29.54-.54.56.41.45.06.8,0,2.23-.36,3.12.34,4.28-.54l1.61,1.07c-.31.2-2.17.34-2.68,2.27,5.24-.88,2.77-1.34,5.62-3.35.48-.04.88-.13,1.34-.27Z" fill="#b984ff" stroke-width="0"/><path d="m70.33,20.37l-.27,2.41c-1.34,1.22-1.26.75-1.34.8,1.83-2.91-5.19,1.64-5.09-1.34.34-.04.61-.56.67-.54.36.15.17,1.29.8,1.34.29.02.11-.99,4.95-2.94-.03.19.08.31.27.27Z" fill="#3657b4" stroke-width="0"/><path d="m61.76,19.83c-2.85,2-.38,2.46-5.62,3.35.51-1.94,2.36-2.08,2.68-2.27.5-.32,1.71-.46,2.41-1.34-.02.32.23.29.54.27Z" fill="#5947a3" stroke-width="0"/><path d="m52.39,19.03c-.43.73-.15,1.05-.27,1.34-.34.82-.27.29-.54.54l-2.14-.8c.38-.46.87-1.31,1.07-1.87.65-.08,1.86.28,1.87.8Z" fill="#4c4ca9" stroke-width="0"/><path d="m51.59,20.91s-.24.41-.27.54c-1.37-.44-2.17-.09-2.94-.27.09-.49.89-.86,1.07-1.07l2.14.8Z" fill="#8567f2" stroke-width="0"/><path d="m59.89.03c3.05.69,4.92-.2,6.02,0,3.99,2.91,4.66,1.35,10.3,3.48,9.06,3.42,8.6,9.83,9.23,10.17.14.08,3.06.31,3.21.27.64-.17,3.79-6.57,10.97,1.87,3.41-.35,7.45,2.04,7.09,5.75,1.67,1.58,2.29,4.48,1.61,6.69.08.52,5.06-.69,4.95,3.08,3.59-.66,4.13,2.22,7.36,2.68-.1.63.25.51.27.54-.07,2.33-2.69,1.33-2.94,1.74,1.25.67,1.87,1.82,2.41,3.08.02.04.64.13.54.8-1.82-.91-1.07.92-3.21,1.87.29-1.19,2.14-1.61,0-2.41,1.61-4.95-3.07,3.67-6.82-1.34-4.76.81-3.3-1.94-3.48-2.14-.08-.09-1.97-.26-2.27-.67-1.25-1.65,4.52-3.78-1.61-2.54-.02-.03-.7.14-.54-.4.31-1.02,3.74.35.8-3.48-.02-.02.46-.33.27-.54-2.27-2.5-1.91.54-3.21.67,1.77-1.89-3.48.3-4.15-5.35l-2.81,3.48c-1.55-3.3-5-.27-8.16-5.35-.98,2.57-1.59-1.02-2.68-.8-.2.04-2.09,3.11-1.47-.67-2.22-.27-1.7-1.36-2.01-1.47-.79-.28-.86,1.86-1.74,1.34-2.39-4.13,2.02-1.59.67-4.28-6.72.69-3.93.87-4.95,2.81-.74,1.41-1.63.46-3.48,1.2-4.84,1.96-4.66,2.97-4.95,2.94-.63-.05-.44-1.19-.8-1.34-.06-.03-.33.49-.67.54-.8.1-2.17.75-2.94-.13l2.41-2.54c6.4-1.9.24-3.61-1.2-2.14-.24.24.03,1.26-.67,2.14-.7.87-1.91,1.02-2.41,1.34l-1.61-1.07c.89-.67,1.06-1.84.67-2.14-.11-.08-1.47,1.22-1.87,1.34-1.65.47-2.31-1.22-3.08,1.34-.35.06-.24.41-.8,0,.12-.29-.16-.61.27-1.34,1.77-3.04,3.33-2.63,3.48-2.81.35-.43-.55-2.01-1.74-1.74-.3.07-2.61,3.12-4.01,2.68-.34.25.61.51.4,1.07-.2.56-.69,1.41-1.07,1.87-.18.21-.98.58-1.07,1.07-.38-.09-.49-.16-.8-.27-.19-.07.66-1.23-1.07-.27-.06-.07-.66-.5-.8-.54-1.08-3.07,2.28-.91.8-2.27,2.31-.95.55-.4.8-1.07.34-.91,2.42.71.27-1.2,4.89-2.44-2.24.25,1.61-2.41.62-.2,6.48-1.34,6.16-2.54-.44-1.64-2.89,1.17-3.08,1.2-.39.07-.81-1.74-7.63.27.32-.61,1.98-1.06,2.14-1.47.09-.22-.68-.18-.54-.67,2.5,1.01,3.91-1.03,6.29-.27,2.62-3,5.1-2.5,5.35-2.68.25-.17.3-3.58,4.55-2.41,1.17-3.09,2.75-.81,2.94-.8,3.82.13.52-3.48-2.68-.8-2.84-.88-5.33.75-7.76-.54-1.38,3.26-4.45.42-6.56,3.21-1.55.44-.85-.95,0-1.87,2.08-2.26,4.37-.16,5.62-3.21.51-.13,1.55-.18,2.14-.27,2.53,1.67,1.29.34,3.75-.27Z" fill="#71fffd" stroke-width="0"/><path d="m120.37,39.37c-.54-1.26-1.16-2.41-2.41-3.08.25-.41,2.87.59,2.94-1.74.76,1.57.67.82,2.14,1.74-2.51.12-2.27.92-2.68,3.08Z" fill="#39a0f9" stroke-width="0"/><path d="m91.07,16.89c.78-.04,5.35.7,5.62.8,1.73.65,4.93,4.15,6.82,5.49.06,2.44,1.47,2.67,1.61,2.94.12.24-.12,1.11,0,1.34.24.46,1.37,1.02,1.34,1.61,0,.17-1.41.44-1.47.4-.49-.28-.99-4.04-4.01-2.94-1.35-6.4-4.36-4.31-5.09-4.55-.27-.09-1.17-2.2-5.09-1.34-1.3-2.48-4.22-2.02-4.55-2.14-2.78-1,3.57-.79,4.82-1.61Z" fill="#327ccb" stroke-width="0"/><path d="m72.07,4.85c1.67-.71,3.4,1.85,4.28,2.41.47.29,5.4,2.43,4.42,3.61-1.2,1.44-2.02-2.79-5.22-2.01-.02-1.92-4.36-2.17-3.88-3.61.02-.05.34-.38.4-.4Z" fill="#327ccb" stroke-width="0"/><path d="m52.39,19.03c-.01-.52-1.22-.88-1.87-.8.2-.56-.74-.83-.4-1.07,1.4.44,3.72-2.61,4.01-2.68,1.19-.27,2.09,1.31,1.74,1.74-.15.18-1.71-.23-3.48,2.81Z" fill="#327ccb" stroke-width="0"/><path d="m100.84,29.2c-2.06.2-3.06-2.12-6.96-1.87l2.81-3.48c.67,5.66,5.92,3.46,4.15,5.35Z" fill="#327ccb" stroke-width="0"/><path d="m63.1,19.57c-.45.13-.86.23-1.34.27-.3.03-.56.05-.54-.27.7-.88.43-1.9.67-2.14,1.44-1.47,7.6.24,1.2,2.14Z" fill="#4c4ca9" stroke-width="0"/><path d="m63.5,12.07c1.04-.14,5.31,1.72-1.61,3.21-.79-.18.72-3.09,1.61-3.21Z" fill="#3871bb" stroke-width="0"/><path d="m57.21,19.83c-1.16.88-2.05.17-4.28.54.77-2.55,1.43-.86,3.08-1.34.4-.11,1.77-1.42,1.87-1.34.39.3.22,1.47-.67,2.14Z" fill="#4c4ca9" stroke-width="0"/><path d="m62.16,7.26c3.83-.68,5.32,5.16-.67.4.19-.03.62-.39.67-.4Z" fill="#327ccb" stroke-width="0"/><path d="m70.19,17.16c1.93.43-2.29,3.89-1.74,1.2.05-.24,1.64-1.23,1.74-1.2Z" fill="#3871bb" stroke-width="0"/><path d="m82.77,17.69c.87-.37,1.8,1.45.8,1.87-.87.37-1.8-1.45-.8-1.87Z" fill="#0088ec" stroke-width="0"/><path d="m57.88,10.2c.94-.41,2.47.96,2.01,1.74-.27.46-2.35-.97-2.01-1.74Z" fill="#0088ec" stroke-width="0"/><path d="m87.32,22.78c2.92,1.8,2.8.44,2.94.54,1.01.68-.8,2.68-2.94-.54Z" fill="#327ccb" stroke-width="0"/><path d="m109.54,32.41c.99-.33,1.73,1.55.8,1.87-.51.18-1.73-1.56-.8-1.87Z" fill="#0088ec" stroke-width="0"/><path d="m69.12,7.52c.72-.59,2.08,1.27,1.07,1.61-1.26.41-1.52-1.24-1.07-1.61Z" fill="#327ccb" stroke-width="0"/><path d="m114.09,35.09c.38-.3,1.47.85,1.47.94.08,1.51-2.5-.13-1.47-.94Z" fill="#3871bb" stroke-width="0"/><path d="m71.26,11.27c1.61-.07.09,2.1-.54,1.61-.47-.37.18-1.59.54-1.61Z" fill="#0088ec" stroke-width="0"/><path d="m82.77,13.41c1.32-.33.47,1.95,0,1.87-.54-.09-.59-1.73,0-1.87Z" fill="#327ccb" stroke-width="0"/><path d="m66.45,6.45c.96-.57,1.67,1.42.8,1.61-.3.06-1.38-1.26-.8-1.61Z" fill="#0088ec" stroke-width="0"/><path d="m68.85,13.68c.65.09.59,1.96-.54,1.61-1.01-.32.43-1.62.54-1.61Z" fill="#327ccb" stroke-width="0"/><path d="m68.59,10.73c.83.04.18,1.69-.54,1.61-.78-.1.43-1.61.54-1.61Z" fill="#229aee" stroke-width="0"/><path d="m59.22,8.86l1.2.67c-.41.42-1.3-.14-1.2-.67Z" fill="#0088ec" stroke-width="0"/><path d="m47.58,20.91c-.41.05-.51.51-.54.54-.67-.18-.5-.77-.54-.8,1.73-.96.88.2,1.07.27Z" fill="#00ccea" stroke-width="0"/><path d="m59.75,13.95c2.08-.13-.17,2.02-.4.4,0-.03.37-.4.4-.4Z" fill="#327ccb" stroke-width="0"/><path d="m113.01,33.22c.29-.1.87,1.47.27,1.34-.11-.02-.66-1.21-.27-1.34Z" fill="#109ad5" stroke-width="0"/><path d="m87.32,20.37c.66-.25.94.54.54.8-.24.15-.94-.43-.54-.8Z" fill="#109ad5" stroke-width="0"/><path d="m92.94,23.58c.8-.04.05,1.23-.27,1.07-.37-.19,0-1.06.27-1.07Z" fill="#229aee" stroke-width="0"/><path d="m49.58,17.43l.13.13v.27l-.13.13h-.27l-.13-.13.13-.13.13-.13.13-.13Z" fill="#269baf" stroke-width="0"/><path d="m15.73,26.53c.38.14.25.26.27.27-.88,3.07,2.33.5,2.54.54.15.02.06.92,1.07.8.63-.07,2.8-1.13,5.49-1.07l-1.47,1.07c4.09-.06,3.42-.76,3.61-.8.26-.06,1.09.1,3.21-.54l5.09.27c1.9.1,4.09,1.08,6.42.54v.54c-.61-.07-5.23.02-4.82.54-1.6-.06-3.06.51-4.55,1.07-1.25-.24-2.54.21-3.75.27-2.05.09-9.05-.02-12.58,0-3.04.02-6.05-.03-9.1,0-.98.01-1.97.02-2.94,0-7.82-.15-3.07-.57.67-2.68.53-.3.36-.78.4-.8.12-.07,1.82.09,2.14-.54,1.87-.31-1.02,1.56.13,1.34.15-.03,1.38-1.37,2.54-1.61l5.62.8Z" fill="#8a5fff" stroke-width="0"/><path d="m25.63,23.05c1.95.96,2.43.98,2.54,1.07.42.33-.43.86.4,1.61-.58.73-1.32.39-2.14.8-.47.23-.69.72-1.34.54-2.68-.06-4.86,1-5.49,1.07-1.01.12-.92-.78-1.07-.8-.22-.03-3.42,2.53-2.54-.54,1.93.53,3.51.07,1.61-.4,1.85-1.52,4.21-.9,4.28-4.15,1.61-.38,1.87-.12,3.75.8Z" fill="#71fffd" stroke-width="0"/><path d="m16,26.79s.11-.13-.27-.27c-.37-.14-1.13-.49-1.34-.8,1.29-.23,2.6-.79,3.88-1.07.14-.21.36-.78.4-.8.68-.33,1.66-1.24,3.21-1.61-.07,3.24-2.44,2.63-4.28,4.15,1.9.47.33.93-1.61.4Z" fill="#5947a3" stroke-width="0"/><path d="m31.25,23.85l1.07,1.87c-.88.26-1.1.84-1.87,1.07-2.12.64-2.95.48-3.21.54l-.8-.8c.82-.41,1.56-.07,2.14-.8.96-.46.99-1.31,2.68-1.87Z" fill="#272f80" stroke-width="0"/><path d="m35.53,23.31c.08.23.25.32.27.54-3.07-.13-.86.99-.8,2.41-.26-.23-1.34-1.06-1.47-1.07-.07,0,.02.17-1.2.54l-1.07-1.87c.08-.03.19.02.27,0,1.33-.38,2.68-.21,4.01-.54Z" fill="#416ff5" stroke-width="0"/><path d="m15.46,39.37c-.69.85.44,1.36,1.2,1.61,1.04.33,17.69,1.74,21.68,2.68,4.87-.84,9.94-.86,14.99,0,4.36-1.85,11.81,1.15,20.34-1.07,3.79,2.36,6.58.78,9.1,2.94,1.73.21,3.48.4,5.22.27-.03.31.17.23.27.27.23.72-.71.57-2.01.54-.16,0,.66-.44-1.47,0-.72.15-1.42.39-2.14.54-1.01-.25-2.54-1.25-3.08-1.34-1.66-.27-18.39,0-22.88,0-1.34,0-2.68,0-4.01,0-3.37,0-6.82-.22-10.17.27-4.14-.84-8.89-.02-13.11-.27-1.17-.07-2.31-.2-3.48-.27,2.69-.12,1.91-1.08.13-1.61-2.15-.64-5.85.98-7.49-1.61-2.48.07-5.03-.75-7.49-1.07-1.3-.17-1.54.92-3.08-.8,1.95-.93,2.62.89,7.49-1.34v.27Z" fill="#a9f" stroke-width="0"/><path d="m14.66,44.19c1.36.17,2.82.94,4.28,1.07l-1.61.54c-.87-.09-1.98-.71-2.81-1.07-1.73-.07-3.49.1-5.22,0-1.91-.11-4.27.65-5.35-1.34.26,0,.28-.26.54-.27,2.53,1.53,5.85.55,8.43.54.32.2,1.44.5,1.74.54Z" fill="#3657b4" stroke-width="0"/><path d="m97.36,45.8c.46.29.5.52.54.54-1.06.93-4.27.48-5.62.27-1.37-.2-2.7-.63-4.01-1.07-.21-.07-.32-.19-.54-.27.12-.8-.78-.81-.8-.94-.08-.54.76-.21.54-1.2,1.28.2,3.42-.2,4.28-1.34,2.28,2.02,3.27,2.55,5.62,4.01Z" fill="#b984ff" stroke-width="0"/><path d="m92.27,46.6c.21,1.13-3.14-.22-4.01-.54-.1-.04-.29.05-.27-.27.2-.02.3-.04.27-.27,1.31.44,2.64.87,4.01,1.07Z" fill="#705dd4" stroke-width="0"/><path d="m84.78,46.6c.06.39.06.37-.27.54-.93.48-1.02.21-1.87,0,.72-.15,1.42-.39,2.14-.54Z" fill="#272f80" stroke-width="0"/><path d="m94.68,39.37c-.32,1.58,1.12,1.11,1.07,2.14-1.24,1.18.55,1.43,1.61,1.87.52.22.22.13.8.27,1.1.27,2.35.62,3.48.54v.8c-1.31.12-3.49.08-4.28.8-2.35-1.46-3.34-1.99-5.62-4.01-.21-.74-.76-.45-1.07-.54.21-.33.22-.44.27-.8.26-1.78-.8-3.08-2.14-4.01l.8-1.07c1.65,1.05,2.95,3.52,5.09,4.01Z" fill="#855cfa" stroke-width="0"/><path d="m105.39,42.05c.23.11-1.74.81-1.87.8-1.97-.04-5.01-2.67-5.35.8-.59-.14-.28-.05-.8-.27.52-2.06,1.67-1.91,3.48-2.27-4.36-1.83-3.4-.46-4.42.4-.09.08-.6-.07-.67,0,.05-1.04-1.39-.56-1.07-2.14,2.41.56.37-2.22,3.61-1.87,1.12.12,3.19,2.74,7.09,4.55Z" fill="#a166ff" stroke-width="0"/><path d="m103.51,42.85c.69.9-1.33,1.3-1.87,1.34-1.13.08-2.38-.27-3.48-.54.34-3.47,3.39-.84,5.35-.8Z" fill="#3d397f" stroke-width="0"/><path d="m89.6,35.36l-.8,1.07c-1.58-1.1-3.43-1.48-5.35-1.34-.92-.28-2.24-1.21-1.61,1.61-2.06-2.37-2.28-1.78-2.41-1.87-3.48-2.35-3.56-1.76-3.75-1.87-2.14-1.34-3.26-2.96-1.74-2.94,3.65,1.56,13.45,3.94,15.66,5.35Z" fill="#b984ff" stroke-width="0"/><path d="m61.23,32.95s.1.47-.13.54c-3.08.5-10.72,1.51-3.61-.4-1.97-.07-2.29-1.13-2.41-1.2-1.26-.74-2.63-1.29-3.48-1.87.2,0,.22-.23.8-.27.5-.03,2.03-.48,2.81-.54,4.58,4.03,5.06,2.54,5.35,2.68.24.11-.08.88.67,1.07Z" fill="#1f2139" stroke-width="0"/><path d="m75.41,34.02c2.98,1.31,5.78,3.14,7.9,5.62l.13-.54c.48.52,1.03.49,1.07.54,2.48,2.51-6.67-3.46-7.23-1.61-.16-.13-.31-.36-.54-.54-2.39-1.89-2.96-2.98-5.62-4.28-.02-.17.03-.37,0-.54,1.62.24,2.81.69,4.28,1.34Z" fill="#b984ff" stroke-width="0"/><path d="m48.11,29.74c1.25.13,1.27.33,3.48.27.85.59,2.22,1.13,3.48,1.87l-3.61-.8c-.3.16.35.47,0,.54-3.1.56-5.46,1.55-5.75,1.61,2.05-3.06-.89-1.51.54-3.48.09.02.06-.19,1.87,0Z" fill="#272f80" stroke-width="0"/><path d="m72.47,22.78c-1.64,1.88.07,1.97-6.42,2.68-.09-.63,1.57-1.2,2.68-1.87.08-.05,0,.42,1.34-.8.45-.4.8-.81,1.07-1.34l1.34,1.34Z" fill="#3657b4" stroke-width="0"/><path d="m45.44,29.2s.27.44.8.54c-1.43,1.97,1.52.41-.54,3.48-.55.1-1.01.39-1.61.27.22-1.67-.51-2.69-.54-2.94-.01-.09.28-1.43.27-1.87.17.03.49.35,1.61.54Z" fill="#8a5fff" stroke-width="0"/><path d="m79.43,34.82c.13.09.35-.5,2.41,1.87.19.83,1.04,1.78,1.61,2.41l-.13.54c-2.11-2.48-4.92-4.31-7.9-5.62.88.04.24-.2.27-.8.79.52,4.45,3.11,3.75,1.61Z" fill="#c0c8f6" stroke-width="0"/><path d="m35,26.26c.28.24.68.26.54.8l-5.09-.27c.77-.23,1-.81,1.87-1.07,1.22-.36,1.14-.54,1.2-.54.13.01,1.21.84,1.47,1.07Z" fill="#e2e4ed" stroke-width="0"/><path d="m79.43,34.82c.71,1.5-2.96-1.08-3.75-1.61v-.27c.18.11.27-.48,3.75,1.87Z" fill="#6b4bbe" stroke-width="0"/><path d="m93.88,27.33c3.9-.25,4.9,2.07,6.96,1.87,1.31-.13.94-3.17,3.21-.67.19.21-.29.51-.27.54,2.93,3.83-.5,2.46-.8,3.48-.16.54.52.37.54.4,1.93,3.16-.6,3.24-.27,3.88,2.72-.65,3.89,3.22,4.15,3.35.26.12,2.66-2.06,3.48.8.27.11,1.43-1.09,2.41.27,2.58-1.11,2.55.08,2.68,0,.44-.3-.55-2.47,1.74-1.61,2.14.8.29,1.22,0,2.41-3.26,1.46-7.85.37-11.78.27-.19-.08-.35-.18-.54-.27-3.9-1.81-5.97-4.43-7.09-4.55-3.25-.35-1.2,2.43-3.61,1.87-2.14-.5-3.44-2.96-5.09-4.01-2.21-1.41-12-3.8-15.66-5.35-1.52-.02-.4,1.61,1.74,2.94v.27c-.02.6.61.85-.27.8-1.47-.65-2.66-1.1-4.28-1.34-.55-2.78-3.04-1.22-3.88-1.34-1.95-.28-2.33-2.91-2.94-.54.25.24,3.33.95,3.61,1.07.77.33,1.5.8,2.68,1.34.11.05.43-.05.54,0,2.66,1.31,3.23,2.39,5.62,4.28-.27.52-3.29-.45-3.21-1.07,2.4-.69-2.18-1.77-5.49-1.07-.69-1.79-1.9-1.66-3.08-2.14-.6-.24-1.55-.67-2.14-.8-1.21-.28-1.04.34-1.61.54-.75-.19-.43-.96-.67-1.07-.29-.13-.78,1.35-5.35-2.68-.78.06-2.31.51-2.81.54-2.21-.67-2.25-1.38-4.28,0-1.81-.19-1.78.02-1.87,0-.53-.1-.76-.53-.8-.54l.4-.54-3.88-1.07c-2.33.55-4.53-.43-6.42-.54.14-.55-.25-.56-.54-.8-.06-1.42-2.27-2.54.8-2.41.26.01.62-.05.8,0,.06.02.56.51,1.07.8.77.44.74,1.25.94,1.34,1.92.83,2.3-1.11,2.54-1.34.27,1.77.95-.05,2.54-.8.18-.09.69,1.59,2.81-1.87.24-.21.33-.29.54-.54.02-.03.12-.49.54-.54.31.11.43.18.8.27.77.18,1.58-.17,2.94.27,6.99,2.26,3.15,7.78,8.7,7.76.26,0,.44-.78.54-.8.74,1.43,2.63.58,3.08-.4,1.42-3.12-4.73-3.27,2.41-2.54,6.49-.71,4.78-.79,6.42-2.68,2.35-2.7,2.91-1.25,3.08-1.34.27-.14-.45-1.84,2.27-1.07.88.52.95-1.62,1.74-1.34.31.11-.21,1.2,2.01,1.47-.61,3.78,1.27.71,1.47.67,1.09-.22,1.69,3.37,2.68.8,3.16,5.08,6.62,2.06,8.16,5.35Z" fill="#71fffd" stroke-width="0"/><path d="m70.19,26.79c.99-.32,2.28.79,2.41.8.18.02,4.34-1.17,2.81.67-.82.98-8.96-.28-5.22-1.47Z" fill="#3e4288" stroke-width="0"/><path d="m41.15,24.65c2.54-2.32,2.07-1.22,2.94-1.61.08-.03.28.07,1.61-.54.26-.12.59-.35.8-.54-2.12,3.46-2.63,1.79-2.81,1.87-1.59.76-2.27,2.57-2.54.8Z" fill="#272f80" stroke-width="0"/><path d="m71.13,32.68c.03.16-.02.36,0,.54-.1-.05-.42.05-.54,0,.09-1.43-1.63-2.11-2.68-1.34-.28-.12-3.36-.83-3.61-1.07.61-2.37.99.25,2.94.54.84.12,3.33-1.44,3.88,1.34Z" fill="#705dd4" stroke-width="0"/><path d="m85.18,31.08c.82-.34,2.42,1.44,1.34,1.87-1.76.7-2.3-1.47-1.34-1.87Z" fill="#4c4ca9" stroke-width="0"/><path d="m52.39,29.74c-.58.03-.61.26-.8.27-2.21.07-2.23-.14-3.48-.27,2.03-1.38,2.08-.67,4.28,0Z" fill="#888fff" stroke-width="0"/><path d="m45.44,29.2c-1.12-.18-1.43-.5-1.61-.54-.66-.12-.94-.43-1.87-.54v-.54l3.88,1.07-.4.54Z" fill="#5947a3" stroke-width="0"/><path d="m70.59,33.22c-1.18-.54-1.91-1.01-2.68-1.34,1.05-.78,2.76-.1,2.68,1.34Z" fill="#85a2ff" stroke-width="0"/><path d="m91.07,30c.81-.64,1.68,1.62.54,1.61-.34,0-1.01-1.23-.54-1.61Z" fill="#4c4ca9" stroke-width="0"/><path d="m80.63,24.92c.81-.23,1.24.81.8,1.07-1.13.67-1.95-.75-.8-1.07Z" fill="#327ccb" stroke-width="0"/><path d="m82.5,25.45c.64-.16.91.93.27,1.07-1.03.23-.73-.95-.27-1.07Z" fill="#327ccb" stroke-width="0"/><path d="m45.7,22.51c-1.32.6-1.53.5-1.61.54-.24-.98,1.18-1.36,1.61-.54Z" fill="#3657b4" stroke-width="0"/><path d="m71.13,21.44c-.27.53-.62.93-1.07,1.34l.27-2.41c1.49-.33,1.34.03.8,1.07Z" fill="#8ff" stroke-width="0"/><path d="m41.96,28.13c.93.11,1.21.42,1.87.54.02.44-.28,1.78-.27,1.87-2.43-.27-6.26.71-5.62,1.87-.35-.04-.72.04-1.07,0-.17-.02-1.5-1.45-3.21.27-1.2-.05-2.27-.33-3.48,0,.13-.13.67-1.75,2.68-2.68,2.71-1.25,6.93.16,5.62-1.2-.24-.25-.96-.12-1.34-.13-.41-.52,4.21-.61,4.82-.54Z" fill="#888fff" stroke-width="0"/><path d="m32.59,29.74l.27.27c-2.01.93-2.54,2.54-2.68,2.68-1.96,1.95-.64.16-2.27.27-.46.03-1.95,1.88-3.35,1.34,1.57-1.16,2.94-2.86,4.28-4.28,1.2-.05,2.5-.51,3.75-.27Z" fill="#2b2e46" stroke-width="0"/><path d="m37.14,28.67c.38.01,1.1-.12,1.34.13,1.31,1.36-2.91-.05-5.62,1.2l-.27-.27c1.49-.56,2.95-1.13,4.55-1.07Z" fill="#745de3" stroke-width="0"/><path d="m14.39,25.72c.21.31.96.67,1.34.8l-5.62-.8c1.06-.21,3.15.2,4.28,0Z" fill="#bbbdeb" stroke-width="0"/><path d="m27.24,27.33c-.2.04.48.75-3.61.8l1.47-1.07c.65.18.87-.3,1.34-.54l.8.8Z" fill="#888fff" stroke-width="0"/><path d="m29.65,39.1c3.37.1,3.19,1.6,3.88,1.34,1.26-.48-1.29-2.6,1.74-.54.25,1.72-10.05,1.21-8.43,2.14l9.63-.8,2.41,1.07c4.91.54,10.27-1.16,14.72.27,6.79-1.9,7.61.32,8.03.27,3.42-2.33,6.94.05,10.97-.27.23-.02,1.06-.67,4.28-1.07,2.16,1.65,3.83.57,4.82.8,1.74,1.31,4.01,2.21,6.02,2.94.21.08.32.2.54.27.03.23-.06.25-.27.27-1.74.13-3.49-.06-5.22-.27-2.52-2.16-5.31-.58-9.1-2.94-8.53,2.22-15.98-.78-20.34,1.07-5.05-.86-10.12-.84-14.99,0-3.99-.93-20.64-2.35-21.68-2.68-.76-.24-1.9-.75-1.2-1.61,2.64-.91,3.17,1,3.61.8.39-.17-.5-1.14,0-1.34.17-.07,1.57,1.25,3.21,1.87,4.64,1.76,3.55.71.13-.94-.04-.89,4.52,1.22,7.23-.67Z" fill="#212756" stroke-width="0"/><path d="m25.9,45.53c-2.3-.14-4.7-.06-6.96-.27-1.46-.14-2.92-.9-4.28-1.07.5-2.3-5.2-.5-6.82-1.87-.97.02-.11.53-2.01.54.54-.11.51-.69.8-1.34.55-.24.79-.81,1.34-1.07,1.54,1.72,1.78.63,3.08.8,2.47.32,5.01,1.14,7.49,1.07,1.64,2.59,5.34.97,7.49,1.61,1.78.53,2.55,1.49-.13,1.61Z" fill="#a9f" stroke-width="0"/><path d="m23.22,35.09c2.75,2.48-3.09.75-3.35.8-.27.06-2.36,2.27-4.42,3.21-4.87,2.23-5.55.41-7.49,1.34-.55.26-.79.83-1.34,1.07,1.05-2.29,2.86-1.31,1.87-2.94,1.63-1.78,2.66-.04,6.02-2.41,2.86,1.86,5.54-3.92,8.7-1.07Z" fill="#20222e" stroke-width="0"/><path d="m14.66,44.19c-.3-.04-1.42-.34-1.74-.54-2.59.02-5.9,1-8.43-.54.43,0,.61-.27,1.34-.27,1.9,0,1.04-.52,2.01-.54,1.62,1.38,7.33-.42,6.82,1.87Z" fill="#837cff" stroke-width="0"/><path d="m84.51,39.64c.91-.96,1.51.07,2.41.54,4.04,2.08,3,.86,3.75,1.07.31.09.86-.21,1.07.54-.86,1.14-3,1.54-4.28,1.34-3.26-1.88-6.74-2.36-10.04-4.28-.7-.43-.02-.71-.13-.8.56-1.85,9.71,4.12,7.23,1.61Z" fill="#745de3" stroke-width="0"/><path d="m90.93,40.44c-.05.36-.06.47-.27.8-.75-.21.3,1.01-3.75-1.07.92-1.32-2.96-2.6-2.94-4.82,3.18,1.19,4.57,2.89,6.96,5.09Z" fill="#a166ff" stroke-width="0"/><path d="m88.79,36.43c1.34.93,2.4,2.24,2.14,4.01-2.39-2.2-3.78-3.89-6.96-5.09-.64-.24-.51-.26-.54-.27,1.92-.14,3.77.24,5.35,1.34Z" fill="#76fff4" stroke-width="0"/><path d="m97.36,43.39c-1.06-.44-2.85-.7-1.61-1.87.07-.07.58.08.67,0,1.01-.86.06-2.23,4.42-.4-1.81.37-2.95.21-3.48,2.27Z" fill="#3a3175" stroke-width="0"/><path d="m43.56,30.54c.03.26.76,1.28.54,2.94-1.99-.62-4.1-.84-6.16-1.07-.64-1.16,3.19-2.15,5.62-1.87Z" fill="#2b2e46" stroke-width="0"/><path d="m55.07,31.88c.12.07.44,1.14,2.41,1.2-7.11,1.91.53.9,3.61.4.23-.07.11-.53.13-.54.08.02,1.51-.27,1.61-.54.59.13,1.54.56,2.14.8.04.35.47,1.39.54,1.47,1,1.18,6.48,2.19,8.03,1.74-.08.62,2.94,1.59,3.21,1.07.23.18.37.41.54.54.11.09-.56.37.13.8,3.3,1.92,6.77,2.4,10.04,4.28.23,1-.62.66-.54,1.2.02.13.93.14.8.94-2.01-.73-4.28-1.63-6.02-2.94-.98-.23-2.65.85-4.82-.8-3.22.4-4.05,1.05-4.28,1.07-4.04.32-7.55-2.07-10.97.27-.42.05-1.24-2.17-8.03-.27-4.45-1.43-9.81.27-14.72-.27l-2.41-1.07-9.63.8c-1.62-.93,8.68-.42,8.43-2.14,8.76.65,8.43-1.28,1.47-.54-3.18-4.39-3.47-1.74-4.55-2.14-.3-.11-3.93-4.15-2.54,1.87-2.71,1.89-7.27-.22-7.23.67,3.42,1.65,4.5,2.7-.13.94-1.64-.62-3.04-1.94-3.21-1.87-.5.2.39,1.16,0,1.34-.44.2-.98-1.71-3.61-.8v-.27c2.06-.94,4.15-3.16,4.42-3.21.25-.05,6.09,1.68,3.35-.8.45-.39,1.01-.56,1.34-.8,1.4.55,2.89-1.31,3.35-1.34,1.63-.11.31,1.68,2.27-.27,1.21-.33,2.28-.05,3.48,0,2.1.09,3.46.63,3.21-.27.35.04.72-.04,1.07,0,2.06.23,4.16.45,6.16,1.07.6.12,1.05-.17,1.61-.27.29-.05,2.66-1.05,5.75-1.61.35-.06-.3-.38,0-.54l3.61.8Z" fill="#b984ff" stroke-width="0"/><path d="m73.54,36.43c-1.55.45-7.03-.56-8.03-1.74-.07-.08-.5-1.12-.54-1.47,1.18.48,2.39.36,3.08,2.14,3.3-.7,7.88.38,5.49,1.07Z" fill="#3d397f" stroke-width="0"/><path d="m62.83,32.41c-.1.26-1.52.56-1.61.54.57-.19.39-.81,1.61-.54Z" fill="#1f2139" stroke-width="0"/><path d="m35.27,39.91c-3.03-2.06-.48.05-1.74.54-.69.26-.51-1.24-3.88-1.34-1.38-6.02,2.24-1.98,2.54-1.87,1.08.4,1.37-2.25,4.55,2.14,6.96-.75,7.29,1.18-1.47.54Z" fill="#76fff4" stroke-width="0"/><path d="m51.99,36.16c3.16-.23-1.35,2.69-3.88,1.2.83-.13,3.68-1.19,3.88-1.2Z" fill="#272f80" stroke-width="0"/><path d="m57.35,36.96c.65-.18,9.82,2.81-.4.67-.1-.21.26-.63.4-.67Z" fill="#724be6" stroke-width="0"/><path d="m36.87,32.41c.25.9-1.11.36-3.21.27,1.71-1.71,3.04-.29,3.21-.27Z" fill="#3d397f" stroke-width="0"/><path d="m53.87,36.7c.78-.45,3.79.85,0,.54-.22-.13-.22-.41,0-.54Z" fill="#4e4c8b" stroke-width="0"/><path d="m44.77,37.23l2.01.4c-.94.4-2.3-.08-2.01-.4Z" fill="#4e3495" stroke-width="0"/><path d="m83.44,35.09s-.1.03.54.27c-.01,2.22,3.87,3.49,2.94,4.82-.9-.46-1.5-1.49-2.41-.54-.04-.04-.59-.01-1.07-.54-.57-.62-1.42-1.58-1.61-2.41-.63-2.82.69-1.89,1.61-1.61Z" fill="#9572ff" stroke-width="0"/></g></svg>