<?xml version="1.0" encoding="UTF-8"?><svg id="Layer_2" xmlns="http://www.w3.org/2000/svg" viewBox="0 0 165.6 49.93"><g id="Layer_1-2"><path d="m133.57,31.84c2.16.97,3.03,1.17,5.34,1.53,2.33.35,4.52.52,6.87.38-1.72.73-1.59.49-2.67.76-.74.19-2.27-.13-3.24,0,.41,1.3-2.38,1.01-4.39,1.53.14-1.62-6.51-3.17-9.92-2.29v-.38c2.21.05.35-.66.38-.76.2-.64,1.05-.84.76-1.91,4.13,1.07,3.91-.85,4.77-.76.71.57,1.25,1.52,2.1,1.91Z" fill="#c7dcec" stroke-width="0"/><path d="m131.28,40.62c.83.09,4.41.6,3.43,1.53-1.48.1-3.14.32-4.58.38-4.9.2-8.81-.72-7.25,1.14-2.38-1.04-.05-.85-.38-3.05,2.73.13,6.21-.29,8.78,0Z" fill="#c490c4" stroke-width="0"/><path d="m98.08,45.58c.36.07.77-.04,1.14,0-.48,1.42-4.39.52-7.63.76v-.76c1.94.26,4.79.86,6.49,0Z" fill="#666a92" stroke-width="0"/><path d="m19.84,18.1c-2.69,1.17-2.56,1.17-3.43,3.43-.04.12-1.07-.62-.76,1.91-2.09-.38-8.41,1.48-4.58,2.67,1.05.33,2.85-.67,3.05,2.67-.57-.01-1.42,1.5-1.53,1.53-4.29,1.19-6.26,1.07-8.4,1.91-.26.1-1.73-.27-1.91,1.53-.74.07-1.57-.11-2.29,0,.22-1.17.7-3.77,1.14-4.58,1.38-2.48,3.25-2.7,5.34-3.43.58-.2,1.67.43,2.29-.57.62-6.38,5.34-7.86,11.07-7.06Z" fill="#a1e2e3" stroke-width="0"/><path d="m4.2,32.22l-1.53,1.53h-.38c.17-1.79,1.65-1.42,1.91-1.53Z" fill="#668ea4" stroke-width="0"/><path d="m58.77,6.27c2.02,2.24.78,4.21,4.96,5.72,3.94,1.42,8.9.17,11.45,4.58-.9-.25-2.02-1.38-4.58-1.14-2.4-4.49-4.11-.85-4.39-.76-1.23.37-2.5-1.32-6.3-.38.18-3.08-2.15-1.97-2.67-2.48-.24-.24-.42-3.59-3.24-5.92-4.57-3.76-13.76-3.85-16.79,1.91-4.55-.49-6.7,1.88-7.44,6.11-.11.04-.27-.05-.38,0-1.91-2.4-6.11-1.87-8.21,0-5.02,4.47.96,3.39,3.63,4.58.8.36.55,2.12,3.05,1.53.69-.16.72-.74.76-.76.18-.1.45.12.38.38-1.33.89-.33,1.47-.38,1.53-.24.25-1.08.75-1.14.76-.32.08-.78-.05-1.14,0-.42-2.78-4.42-3.53-6.49-3.82-5.72-.8-10.45.68-11.07,7.06-.62,1-1.71.37-2.29.57-.23-1.45.49-4.64,1.14-5.72,1.23-2.06,6.99-5.14,9.73-4.58.38-.17,1.93-3.04,2.86-3.82,1.87-1.56,5.69-3.34,7.82-1.53,2.66-2.63,11.15-7.83,14.31-9.16,7.49-2.3,11.39-.24,16.41,5.34Z" fill="#825698" stroke-width="0"/><path d="m103.42,10.09c2.37,6.14,6.59-1.35,10.88,8.78,2.98-.3,5.14.26,7.63,1.91,2.18,1.91,3.52,4.84,5.53,6.87,3.54,3.57,6.59-.8,6.11,4.2-.85-.38-1.39-1.34-2.1-1.91-.86-.09-.64,1.84-4.77.76-4.7-1.22-4.36-6-8.97-5.72-.89-5.72-5.76-4.69-6.11-4.96-.41-.32-.4-6.92-7.25-5.34-2.14-4.48-9.01-3.97-10.49-1.34-2.49,4.42,2.59.71,9.73,5.15.48.3,1.04,1.03,1.34,1.53.04.07-.08.42.38.38-.05.01-.3.71-.57.76-.74-2.47-3.35-3.51-5.34-1.91-1.57-5.77-5.37-1.36-5.72-1.53-.42-.2-.51-4.35-7.06-5.34.08,0-.44-.34,1.53-.76,1.62-.35,3.13.49,3.63.38.32-.07,3.09-3.14,5.53-3.43,1.72-.21,4.49,1.1,6.11,1.53Z" fill="#825698" stroke-width="0"/><path d="m83.96,12.76c2.23.01,2.54-.37,2.67-.38,6.55,1,6.64,5.14,7.06,5.34.35.17,4.15-4.24,5.72,1.53,1.99-1.6,4.6-.56,5.34,1.91.27-.05.53-.75.57-.76,1.77-.52,2.31-1.18,4.96-.57-1.57-1.55-3.76-1.2-5.34.19-.3-.5-.86-1.23-1.34-1.53-7.14-4.45-12.23-.73-9.73-5.15,1.48-2.63,8.36-3.14,10.49,1.34,6.85-1.58,6.84,5.02,7.25,5.34.35.27,5.21-.76,6.11,4.96,4.61-.27,4.27,4.5,8.97,5.72.29,1.07-.56,1.26-.76,1.91-6.9-.94-7.13-5.64-12.4-9.16-7.39,1.45-12.55-2.09-16.79-1.14-2.43.54-3.2,4.36-6.3,2.67l1.53-3.63c-.08-.29-1.08-.08-1.53-.57-4.78-5.26.2-4.03,2.86-.76,2.05.26-3.51-5.24-8.21-5.72-2.79-.29-7.01-.16-8.01,3.05-.58-.25-1.33-.6-1.91-.76-2.55-4.41-7.51-3.16-11.45-4.58-.13-1.06.18-2.49,0-3.43,3.4-3.93,10.53-2.6,12.4,2.29,5.47-1.48,5.94,2.11,6.49,2.29.4.13.5-.39,1.34-.38Z" fill="#a1e2e3" stroke-width="0"/><path d="m125.94,32.6c-.03.1,1.82.81-.38.76-1.68-1.53-5.51-.96-7.63-.38v-.38c.19.02,3.04-.65,3.82-.57-6.42-3.15-6-8.84-14.69-6.3-2.19-1.66-3.47-2.77-6.3-1.91-1.26-.44-2.38-.45-3.63,0-3.8,1.36-.9,3.48-7.06,1.14h.38c3.09,1.69,3.87-2.13,6.3-2.67,4.24-.94,9.4,2.59,16.79,1.14,5.27,3.52,5.5,8.22,12.4,9.16Z" fill="#6477a9" stroke-width="0"/><path d="m125.56,33.37v.38c-3.62,2.26-8.21,1.63-12.21,1.91.37-.19.9-1,1.14-1.14.31-.18,3.05-1.42,3.43-1.53,2.12-.58,5.96-1.15,7.63.38Z" fill="#ecd1dc" stroke-width="0"/><path d="m27.48,21.92c.67,1.67-.06,1.66,0,1.72.37.38.78.07,1.14.19,10.2,3.47,23.22-.46,28.05,5.34,4.53.59,5.8-1.24,6.11-1.14.71.21.46,1.39.76,1.53.24.11,2.12-.69,4.2-.38,5.54.83,11.54,2.57,17.17,2.67,7.53.14,4.97-2.21,9.92-1.53,1.21-3.69,3.83-4.3,4.77-.38-1.63.62-2.81,1.62-4.39,2.29-1.37,1.07.18,1.42.19,1.53.03.43-.77.46,0,1.53-.49.13-.65.59-1.14.76-4.34-1.56-9.16-.49-12.4-.76-2.36-.2-5.91-2.71-12.02-.76-2.38-.56-4.83-.79-7.06-1.91-.93-.04-1.88.63-2.48.76-5.94-3.39-10.12,3.62-16.22-2.67-5.49-.71-8.55-2.83-14.31-3.82-4.66-.8-6.94.34-7.63-1.53.07-.02-.12-.14,1.14-.76.41-.2.78-.5,1.14-.76.43-.32,2.09-.69,1.91-1.91.36-.05.83.08,1.14,0Z" fill="#e7a0cb" stroke-width="0"/><path d="m16.03,30.69c.11,1.32-2.02.17-.76,2.29-4.05,1.7-8.32,1.74-12.59,2.29v-1.53l1.53-1.53c8.26.45,6.8-1.13,8.4-1.53.73-.18,2.34.11,3.43,0Z" fill="#f4e0ce" stroke-width="0"/><path d="m60.3,33.37c.6-.13,1.55-.8,2.48-.76,2.23,1.12,4.68,1.35,7.06,1.91,2.59.61,4.93,2.05,7.63,2.29.13.4-.26,1.07-.57,1.14-2.22.52-22.94-1.06-29-.38-1.72-.35-3.8-.7-5.53-.76-1.67-.06-3.27-.32-4.96-.38-6.83.07-11.77-2.21-12.4-2.29-1.76-.23-6.1,1.56-9.73-1.14-1.26-2.12.87-.97.76-2.29.09,0,1.47.52,1.72.76,1.9-2.49,7.21-3,10.11-2.29,4.97-3.31,3.69.34,6.68-.76,2.34,3.35,3.23,2.02,3.82,2.29.47.22.46,1.25,1.91,1.91.42.19,1.86-.19,2.29,0,1.33.59,5.17,4.01,10.3,3.43,1.74-.2,5.14-2.16,7.44-2.67Z" fill="#f6f0c4" stroke-width="0"/><path d="m114.49,34.51c-.25.15-.78.96-1.14,1.14-5.64.39-11.36.07-16.98.76-.42-.31-.66-.73-.95-1.14-.77-1.06.03-1.1,0-1.53,6.27-.05,2.89-2.85,7.82-3.82,4.71,3.25,8.04-3.52,11.26,4.58Z" fill="#f1eace" stroke-width="0"/><path d="m94.26,36.04c-1.77.62-13.99,1.52-16.79.76-2.7-.24-5.04-1.68-7.63-2.29,6.11-1.95,9.66.56,12.02.76,3.25.28,8.06-.8,12.4.76Z" fill="#361749" stroke-width="0"/><path d="m95.41,43.29l-.38.38c-2.45-1.16-.09-.4.38-.38Z" fill="#764371" stroke-width="0"/><path d="m95.03,44.81c1.01.26,2.03.57,3.05.76-1.7.86-4.55.26-6.49,0-6.5-.86-12.86-3.24-19.27-4.58,3.26.25,12.08-.03,14.12.38.45.09,3.51,2.13,8.59,3.43Z" fill="#171727" stroke-width="0"/><path d="m37.4,36.42c1.69.06,3.3.32,4.96.38-4.41,1.86-11.81,1.82-16.22.38-2.43-.79,8.22-.87,11.26-.76Z" fill="#6c337e" stroke-width="0"/><path d="m119.64,36.04c6.35-.48,12.98.97,1.91,1.91-3.16-.95-10.17-1.29-1.91-1.91Z" fill="#61215f" stroke-width="0"/><path d="m105.52,36.8c10.1-.73,5.24,1.99.38,1.91-4.38-.08-7.16-1.42-.38-1.91Z" fill="#6c337e" stroke-width="0"/><path d="m29.77,26.88l-1.91,2.29c-2.9-.71-8.22-.2-10.11,2.29-.24-.24-1.62-.77-1.72-.76-1.09.11-2.71-.18-3.43,0v-.38c.1-.03.96-1.54,1.53-1.53.57-.19,4.62,2,7.63-3.43.12-.03.27.04.38,0,.69,1.87,2.97.73,7.63,1.53Z" fill="#a783ac" stroke-width="0"/><path d="m15.65,23.82c.06,0,.08.09,1.14.38,3.32.93,1.02,2.24,4.96,1.14-3.01,5.43-7.06,3.25-7.63,3.43-.2-3.35-2-2.35-3.05-2.67.67-1.5,3.04-2.33,4.58-2.29Z" fill="#f4e0ce" stroke-width="0"/><path d="m26.33,21.92c.18,1.22-1.48,1.59-1.91,1.91,1.04-1.28-4.5-2.49-8.01-2.29.87-2.27.74-2.27,3.43-3.43,2.07.29,6.07,1.04,6.49,3.82Z" fill="#f1eadc" stroke-width="0"/><path d="m16.41,21.53c3.52-.2,9.05,1.01,8.01,2.29-.36.26-.74.56-1.14.76q-3.24-.19-6.49-.38c-1.06-.3-1.08-.38-1.14-.38v-.38c-.31-2.53.72-1.79.76-1.91Z" fill="#c6a7ce" stroke-width="0"/><path d="m15.65,23.44v.38c-1.54-.04-3.91.79-4.58,2.29-3.83-1.19,2.49-3.06,4.58-2.67Z" fill="#595b87" stroke-width="0"/><path d="m12.59,30.31v.38c-1.6.4-.14,1.97-8.4,1.53,2.13-.84,4.1-.72,8.4-1.91Z" fill="#6477a9" stroke-width="0"/><path d="m66.79,4.36c6.23-.54,13.75,3.21,17.17,8.4-.83,0-.93.51-1.34.38-.55-.18-1.02-3.77-6.49-2.29-1.87-4.89-9-6.22-12.4-2.29-.21-1.09-1.11-1.56-1.14-2.67.22-.06.35-1.2,4.2-1.53Z" fill="#825698" stroke-width="0"/><path d="m62.59,5.89c.03,1.11.94,1.58,1.14,2.67.18.94-.13,2.38,0,3.43-4.19-1.51-2.94-3.48-4.96-5.72,1.14-.84,2.66-.09,3.82-.38Z" fill="#1d1b3c" stroke-width="0"/><path d="m61.06,16.19c1.25,1.16,2.37,2.7,4.2,2.29-.23.9,1.1,1.44,1.14,1.53.14.29-.13,1.17,0,1.53.11.29-.2.97.19,1.14,5.2-3.67,3.46,1.69,9.92,3.82,7.3-8.59,7.51-3.81,13.55-1.53,6.16,2.33,3.26.22,7.06-1.14,1.25-.45,2.36-.44,3.63,0,1.97.69,3.64,3.27,1.91,4.96-1,.42-2.04.76-3.05,1.14-.94-3.92-3.57-3.31-4.77.38-4.95-.69-2.39,1.67-9.92,1.53-5.63-.1-11.63-1.84-17.17-2.67-2.08-.31-3.96.49-4.2.38-.3-.14-.05-1.31-.76-1.53-.31-.09-1.58,1.73-6.11,1.14-4.84-5.8-17.85-1.87-28.05-5.34,2.17-1.69,4.34-.77,4.58-.76,1.85.04,3.68.59,7.63,0,.54-.08,1.67-1.02,2.29-1.14.61.56,3.84.52,4.58.38.42-.08.91.05,1.34,0,4.35-5.06,8.13,4.22,13.55-2.48l-10.49-.19c.08-6.13-9.74-5.03-11.45,0-1.06.45-2.23-1.64-4.77,0,.03-.33-.53-.59-.76-1.14,0-.02.55.25,0-.38-2.76-3.15-5.23-1.72-8.78-1.91,1.17-1.2,1.17-1.5,3.05-2.29.11-.05.27.04.38,0,.87-.32,1.85-.28,2.67-.76,3-.41,5.74,2,6.3,1.91,1.23-1.65,2.91-2.1,4.96-1.91,3.13-3.76,9.81-1.02,11.07,3.43,1.91-1.27,4.16-.72,6.3-.38Z" fill="#f1eace" stroke-width="0"/><path d="m47.7,22.3c-.25-1.53-3.28-.65-4.58-.38-.62.13-1.75,1.06-2.29,1.14-2.35-1.49-5.98-1.84-7.63,0-.24,0-2.41-.93-4.58.76-.36-.12-.78.19-1.14-.19-.06-.06.67-.04,0-1.72.07-.02.9-.51,1.14-.76q2.96.38,5.92.76c.41-.09,1.32-2.16,1.34-2.29,2.54-1.64,3.71.45,4.77,0,1.71-5.03,11.53-6.13,11.45,0l10.49.19c-5.42,6.7-9.2-2.58-13.55,2.48-.43.05-.92-.08-1.34,0Z" fill="#e7a0cb" stroke-width="0"/><path d="m75.18,16.57c.58.16,1.33.51,1.91.76.3.13,1.28.25,1.53.38,1.94.98,3.76,1.11,2.67,3.43-.12-.02-.26.02-.38,0-2.59-.36-7.73-.89-8.97-2.29-2.06-.2-3.76.07-5.53,1.14-.04-.09-1.38-.63-1.14-1.53.65-.12,1.08-1.09,1.14-1.14.8-.65,3.23-1.82,4.2-1.91,2.56-.23,3.68.89,4.58,1.14Z" fill="#f4e0ce" stroke-width="0"/><path d="m29.39,13.9c-1.88.79-1.88,1.09-3.05,2.29-.67.68-1.82.95-1.53,2.29-2.67-1.19-8.65-.11-3.63-4.58,2.1-1.87,6.3-2.4,8.21,0Z" fill="#a1e2e3" stroke-width="0"/><path d="m70.6,15.43c-.97.09-3.4,1.26-4.2,1.91-2.2.43-3.36-.83-5.34-1.14l-1.53-.76c-.18-.62.36-.76.38-1.14,3.79-.94,5.07.75,6.3.38.28-.08,1.99-3.72,4.39.76Z" fill="#b2d7e7" stroke-width="0"/><path d="m35.11,18.1c-3.68-.24-3.56-.32-6.49,1.14-.23.11-.92-.31-.76.76-2.5.59-2.25-1.17-3.05-1.53-.29-1.34.85-1.61,1.53-2.29,3.54.19,6.02-1.25,8.78,1.91Z" fill="#ecd1dc" stroke-width="0"/><path d="m35.11,18.48c.24.55.79.82.76,1.14-.01.13-.92,2.2-1.34,2.29q-2.96-.38-5.92-.76c.05-.06-.95-.63.38-1.53,1.3-.87,4.45-1.26,6.11-1.14Z" fill="#f1eace" stroke-width="0"/><path d="m35.11,18.1c.55.63,0,.36,0,.38-1.66-.11-4.81.27-6.11,1.14.07-.26-.2-.48-.38-.38,2.93-1.46,2.81-1.39,6.49-1.14Z" fill="#cfafc0" stroke-width="0"/><path d="m28.62,19.24s-.07.6-.76.76c-.16-1.08.54-.65.76-.76Z" fill="#cfafc0" stroke-width="0"/><path d="m105.33,20.39c-.47.04-.34-.32-.38-.38,1.58-1.39,3.77-1.74,5.34-.19-2.66-.6-3.19.05-4.96.57Z" fill="#4d7eb0" stroke-width="0"/><path d="m80.91,21.15c.12.02.26-.02.38,0,.18.02,1.78-.8,3.63-.38.46.1,9.24,6.34,5.15,0h.38c.44.49,1.44.28,1.53.57l-1.53,3.63h-.38c-6.04-2.28-6.25-7.06-13.55,1.53-6.47-2.12-4.72-7.49-9.92-3.82-.39-.18-.08-.85-.19-1.14,4.93-4.24,4.96,5.25,14.5-.38Z" fill="#5569a0" stroke-width="0"/><path d="m90.45,20.77h-.38c-.76-1.18-3.4-2.1-3.63-2.29-.12-.1.23-1.87-1.72-2.67l.38-1.53c4.69.48,10.25,5.98,8.21,5.72-2.66-3.27-7.64-4.5-2.86.76Z" fill="#6d92be" stroke-width="0"/><path d="m85.1,14.28l-.38,1.53c-2.44-1-4.77-.39-6.11,1.91-.25-.13-1.22-.25-1.53-.38,1-3.21,5.23-3.34,8.01-3.05Z" fill="#4d7eb0" stroke-width="0"/><path d="m117.92,32.6c-1.63-.18-5.13-3.21-6.68-3.43-2.69-.38-4.09,1.8-8.59-.38,1.73-1.69.07-4.27-1.91-4.96,2.82-.86,4.1.25,6.3,1.91,8.69-2.54,8.27,3.14,14.69,6.3-.78-.08-3.62.59-3.82.57Z" fill="#a1e2e3" stroke-width="0"/><path d="m117.92,32.6v.38c-.39.11-3.13,1.34-3.43,1.53-3.22-8.1-6.55-1.33-11.26-4.58-4.93.97-1.56,3.77-7.82,3.82,0-.1-1.56-.45-.19-1.53,1.58-.67,2.76-1.67,4.39-2.29,1.02-.39,2.05-.72,3.05-1.14,4.5,2.19,5.89,0,8.59.38,1.55.22,5.04,3.25,6.68,3.43Z" fill="#595b87" stroke-width="0"/><path d="m60.3,33.37c-2.3.51-5.71,2.48-7.44,2.67-5.13.58-8.97-2.85-10.3-3.43-.43-.19-1.87.19-2.29,0-1.45-.66-1.44-1.69-1.91-1.91-.59-.27-1.48,1.06-3.82-2.29-2.99,1.11-1.71-2.55-6.68.76l1.91-2.29c5.76.98,8.83,3.11,14.31,3.82,6.1,6.29,10.28-.72,16.22,2.67Z" fill="#6e4889" stroke-width="0"/><path d="m23.28,24.59c-1.26.62-1.08.74-1.14.76-.11.04-.26-.03-.38,0-3.94,1.09-1.64-.22-4.96-1.14q3.24.19,6.49.38Z" fill="#825698" stroke-width="0"/><path d="m80.91,21.15c-9.54,5.63-9.57-3.86-14.5.38-.13-.36.14-1.24,0-1.53,1.77-1.07,3.47-1.35,5.53-1.14,1.24,1.4,6.38,1.93,8.97,2.29Z" fill="#d3c0da" stroke-width="0"/><path d="m59.92,14.28c-.02.39-.56.52-.38,1.14-7.07,0-4.97-5.29-14.69-4.58-3.2,3.89-8.17,1.57-12.4,2.29-.82.48-1.8.44-2.67.76.74-4.22,2.89-6.59,7.44-6.11,3.03-5.75,12.23-5.67,16.79-1.91,2.82,2.32,3,5.67,3.24,5.92.52.51,2.85-.6,2.67,2.48Z" fill="#a1e2e3" stroke-width="0"/><path d="m59.53,15.43l1.53.76c-2.13-.34-4.38-.89-6.3.38-1.26-4.46-7.94-7.19-11.07-3.43-2.05-.19-3.73.26-4.96,1.91-.56.09-3.3-2.32-6.3-1.91,4.23-.72,9.21,1.6,12.4-2.29,9.72-.71,7.62,4.58,14.69,4.58Z" fill="#5569a0" stroke-width="0"/><path d="m40.83,23.06c-3.96.59-5.78.04-7.63,0,1.66-1.84,5.28-1.49,7.63,0Z" fill="#95659f" stroke-width="0"/><path d="m66.4,17.34c-.06.05-.49,1.02-1.14,1.14-1.83.41-2.95-1.13-4.2-2.29,1.98.31,3.14,1.58,5.34,1.14Z" fill="#595b87" stroke-width="0"/><path d="m47.7,22.3c-.74.14-3.97.18-4.58-.38,1.3-.26,4.33-1.15,4.58.38Z" fill="#a2678f" stroke-width="0"/><path d="m84.72,15.81c1.94.8,1.6,2.57,1.72,2.67.22.19,2.86,1.11,3.63,2.29,4.09,6.34-4.69.1-5.15,0-1.84-.42-3.44.41-3.63.38,1.09-2.33-.73-2.45-2.67-3.43,1.33-2.3,3.67-2.91,6.11-1.91Z" fill="#c8f5fa" stroke-width="0"/><path d="m75.42,42.25l.9.9-6.46.3c-9.15,2.79-18.95,1-28.4,1.5-.14,0-.5-.24-2.7-.3-1.68-.05-4.48,0-6.31,0-1,0-2,0-3.01,0-5.57-.03-5.65.97-7.06.9-1.73-1.13-3.72-.61-5.56-.9-3.75-.59-5.72-.13-5.11-2.1,6.11.08,12.22-.07,18.33,0,1.76.02,3.6.29,5.41.3,7.81.04,15.63-.03,23.44,0,.5,0,1,0,1.5,0,.8,0,1.74-.3,2.4-.3,4.18-.02,8.43-.28,12.62-.3Z" fill="#0d2b46" stroke-width="0"/><path d="m19.83,35.64c-.13.32-.4.49-.3.9-.95.55-2.12-.34-3.61.3-2.55-.75,1.77-1.24,4.21-2.4-.02.06.03.38-.3,1.2Z" fill="#0a5e80" stroke-width="0"/><path d="m24.93,40.45c-.38.83,6.6-.48,7.81-1.2-.18,1.01.5.2,1.8,0,3.04-.46,2.52-.78,1.2,1.8-.08.05-.95,1.25-1.35,1.2-.7-.08.33-2.66-4.36.3-6.11-.07-12.22.08-18.33,0-.4,0-.8,0-1.2,0-.5-.01-1,.03-1.5,0-2.3-.12-3.19.36-2.25-.6.28-.29,6.42-3.3,7.51-2.7l.15-.6c.24-.66.88-1.53,1.5-1.8,1.48-.64,2.65.25,3.61-.3,2.04,3.4,5.81-.46,6.16-.6,4.05-1.67,1.33,1.23-2.1,3.01-9.57.38-9.28,4.1,1.35,1.5Z" fill="#a1e2e3" stroke-width="0"/><path d="m50.78,23.32c1.76,2.29,2.79,3.59,4.06,6.31,1.62.06,3.37-.2,4.96.3.12.04,1.94,1.34,2.1,1.5.43.43.78,1.04,1.2,1.5.14.16-.78.82,2.7,2.85.35,5,2.67-2.1,7.21,4.96-3.31-.07-6.6-.59-9.92-.6.82-2.45-1.71-2.66-2.7-3.76-.53-.58-.07-3.88-7.36-4.36-3.73-11.78-20.42-13.62-21.64-.3-5.22-.68-7.44,1.5-11.57,3.91.33-.82.28-1.14.3-1.2,2.34-5.95,5.46-4.68,6.16-5.11.8-.49,1-2.41,3.31-2.1.25-.22.44-1.15.75-1.5.94-1.07,1.35-2.43,2.85-3.61,4.97-3.89,13-2.98,17.58,1.2Z" fill="#a1e2e3" stroke-width="0"/><path d="m46.27,38.94c1.82.2,1.43.3,1.5.3l-.3.6c-5.89.47-2.79,2.1,3.76,2.4.7-.54,1.68-.86,2.55-.9,1.03-.05,4.36.69,5.11,1.5-7.81-.03-15.63.04-23.44,0,2.43-2.92,6-3.12,9.02-4.51-.18.96.72.48,1.8.6Z" fill="#91d7e5" stroke-width="0"/><path d="m63.1,40.15c3.31,0,6.61.54,9.92.6-.23.7,2.23,1.19,3.01,1.2v.3c-.2,0-.4,0-.6,0-4.19.02-8.44.28-12.62.3-.89-.77-2.29-.66-3.31-.9-.12-.03.56-1.08-1.95-.3-.73-.38-.7-.59-.75-.6,2.08-.61,4.17-.61,6.31-.6Z" fill="#335d9a" stroke-width="0"/><path d="m46.27,37.14s.63.05.15.6c-.63.09-1.39.34-1.95.6-3.01,1.39-6.58,1.59-9.02,4.51-1.81,0-3.65-.28-5.41-.3,4.69-2.96,3.65-.38,4.36-.3.4.05,1.27-1.16,1.35-1.2,1.49-.88,3.07-1.45,4.51-2.4,2.08-.3,4-.98,6.01-1.5Z" fill="#4d7eb0" stroke-width="0"/><path d="m56.79,40.75s.03.22.75.6c2.52-.78,1.83.27,1.95.3l-.6.15,1.5,1.05c-.5,0-1,0-1.5,0-.75-.81-4.08-1.55-5.11-1.5l1.8-1.2c1.05-.25.78.52,1.2.6Z" fill="#7a7bb4" stroke-width="0"/><path d="m59.49,41.65c1.01.24,2.42.13,3.31.9-.67,0-1.6.3-2.4.3l-1.5-1.05.6-.15Z" fill="#a9c6ee" stroke-width="0"/><path d="m32.75,39.24c-1.22.73-8.2,2.03-7.81,1.2,3.99-.97,7.11-2.83,10.67-4.81q-1.43,1.8-2.85,3.61Z" fill="#47b8d5" stroke-width="0"/><path d="m47.77,39.24c-.08,0,.32-.1-1.5-.3-1.42-.44-.68-.69.9-1.2,3.5-1.13,7.63-2.94,9.92-.15-.15,1.04-8.05,1.68-9.32,1.65Z" fill="#91d7e5" stroke-width="0"/><path d="m47.47,39.84c2.23-.18,5.46.64,8.11.3l-1.8,1.2c-.87.04-1.86.36-2.55.9-6.54-.31-9.65-1.93-3.76-2.4Z" fill="#ae98ce" stroke-width="0"/><path d="m63.1,40.15c-2.14,0-4.23-.01-6.31.6-.42-.08-.16-.85-1.2-.6-2.65.34-5.88-.48-8.11-.3l.3-.6c1.26.03,9.16-.61,9.32-1.65-2.29-2.79-6.42-.98-9.92.15,1.61-3.4,6.86-2.78,6.76-3.91-4.78.13-5.04,1.7-7.66,3.31-2.01.52-3.93,1.2-6.01,1.5-6.71.97.5-1.25,4.06-4.51.5-.46.65-.59,0-.6-1.26-.03-8.43,4.26-9.77,5.71-1.3.2-1.98,1.01-1.8,0q1.43-1.8,2.85-3.61c-3.55,1.98-6.68,3.84-10.67,4.81-10.63,2.59-10.92-1.13-1.35-1.5,3.43-1.78,6.16-4.67,2.1-3.01-.35.14-4.12,4.01-6.16.6-.1-.41.17-.58.3-.9,4.13-2.41,6.35-4.59,11.57-3.91,1.21-13.32,17.91-11.47,21.64.3,7.29.48,6.84,3.78,7.36,4.36.99,1.1,3.52,1.31,2.7,3.76Z" fill="#f1eace" stroke-width="0"/><path d="m40.26,38.64c-1.43.96-3.02,1.52-4.51,2.4,1.32-2.58,1.83-2.27-1.2-1.8,1.34-1.44,8.51-5.73,9.77-5.71.65.01.5.15,0,.6-3.56,3.26-10.77,5.48-4.06,4.51Z" fill="#91d7e5" stroke-width="0"/><path d="m47.17,37.74c-1.59.51-2.32.76-.9,1.2-1.09-.12-1.98.36-1.8-.6.56-.26,1.33-.51,1.95-.6.48-.56-.18-.58-.15-.6,2.62-1.61,2.88-3.18,7.66-3.31.1,1.13-5.16.5-6.76,3.91Z" fill="#89cac6" stroke-width="0"/><path d="m36.5,32.33c3.55-.2-8.42,4.94-8.56,4.36,1.69-1.12,6.92-4.27,8.56-4.36Z" fill="#89cac6" stroke-width="0"/><path d="m81.79,24.05l.51.51-3.63.17c-5.14,1.57-10.64.56-15.95.84-.08,0-.28-.13-1.52-.17-.94-.03-2.52,0-3.54,0-.56,0-1.13,0-1.69,0-3.13-.02-3.17.54-3.97.51-.97-.63-2.09-.34-3.12-.51-2.11-.33-3.21-.08-2.87-1.18,3.43.05,6.86-.04,10.3,0,.99.01,2.02.16,3.04.17,4.39.02,8.78-.02,13.17,0,.28,0,.56,0,.84,0,.45,0,.98-.17,1.35-.17,2.35,0,4.73-.16,7.09-.17Z" fill="#0d2b46" stroke-width="0"/><path d="m50.56,20.33c-.07.18-.23.28-.17.51-.54.31-1.19-.19-2.03.17-1.43-.42,1-.7,2.36-1.35-.01.03.02.21-.17.68Z" fill="#0a5e80" stroke-width="0"/><path d="m53.43,23.03c-.21.46,3.71-.27,4.39-.68-.1.57.28.11,1.01,0,1.71-.26,1.42-.44.68,1.01-.04.03-.53.7-.76.68-.4-.05.19-1.49-2.45.17-3.43-.04-6.87.05-10.3,0-.22,0-.45,0-.68,0-.28,0-.56.01-.84,0-1.29-.07-1.79.2-1.27-.34.16-.16,3.61-1.85,4.22-1.52l.08-.34c.13-.37.49-.86.84-1.01.83-.36,1.49.14,2.03-.17,1.15,1.91,3.26-.26,3.46-.34,2.28-.94.74.69-1.18,1.69-5.37.21-5.21,2.3.76.84Z" fill="#a1e2e3" stroke-width="0"/><path d="m67.95,13.41c.99,1.29,1.57,2.02,2.28,3.54.91.04,1.9-.11,2.78.17.07.02,1.09.75,1.18.84.24.24.44.58.68.84.08.09-.44.46,1.52,1.6.2,2.81,1.5-1.18,4.05,2.78-1.86-.04-3.71-.33-5.57-.34.46-1.37-.96-1.49-1.52-2.11-.3-.33-.04-2.18-4.14-2.45-2.09-6.61-11.47-7.65-12.15-.17-2.93-.38-4.18.84-6.5,2.19.18-.46.16-.64.17-.68,1.31-3.34,3.06-2.63,3.46-2.87.45-.27.56-1.35,1.86-1.18.14-.13.25-.65.42-.84.53-.6.76-1.37,1.6-2.03,2.79-2.18,7.3-1.67,9.87.68Z" fill="#a1e2e3" stroke-width="0"/><path d="m65.41,22.19c1.02.11.8.17.84.17l-.17.34c-3.31.26-1.57,1.18,2.11,1.35.39-.3.94-.48,1.43-.51.58-.03,2.45.39,2.87.84-4.39-.02-8.78.02-13.17,0,1.37-1.64,3.37-1.75,5.06-2.53-.1.54.4.27,1.01.34Z" fill="#91d7e5" stroke-width="0"/><path d="m74.87,22.86c1.86,0,3.71.3,5.57.34-.13.39,1.25.67,1.69.68v.17c-.11,0-.23,0-.34,0-2.36.01-4.74.16-7.09.17-.5-.43-1.29-.37-1.86-.51-.07-.02.32-.61-1.1-.17-.41-.22-.4-.33-.42-.34,1.17-.34,2.34-.34,3.54-.34Z" fill="#335d9a" stroke-width="0"/><path d="m65.41,21.18s.35.03.08.34c-.35.05-.78.19-1.1.34-1.69.78-3.7.89-5.06,2.53-1.02,0-2.05-.16-3.04-.17,2.63-1.66,2.05-.22,2.45-.17.23.03.72-.65.76-.68.83-.5,1.73-.81,2.53-1.35,1.17-.17,2.24-.55,3.38-.84Z" fill="#4d7eb0" stroke-width="0"/><path d="m71.32,23.2s.01.12.42.34c1.41-.44,1.03.15,1.1.17l-.34.08.84.59c-.28,0-.56,0-.84,0-.42-.46-2.29-.87-2.87-.84l1.01-.68c.59-.14.44.29.68.34Z" fill="#7a7bb4" stroke-width="0"/><path d="m72.84,23.71c.57.13,1.36.07,1.86.51-.37,0-.9.17-1.35.17l-.84-.59.34-.08Z" fill="#a9c6ee" stroke-width="0"/><path d="m57.82,22.36c-.68.41-4.6,1.14-4.39.68,2.24-.55,4-1.59,5.99-2.7l-1.6,2.03Z" fill="#47b8d5" stroke-width="0"/><path d="m66.26,22.36s.18-.06-.84-.17c-.8-.25-.38-.39.51-.68,1.96-.64,4.29-1.65,5.57-.08-.09.59-4.52.94-5.23.93Z" fill="#91d7e5" stroke-width="0"/><path d="m66.09,22.7c1.25-.1,3.07.36,4.56.17l-1.01.68c-.49.02-1.04.2-1.43.51-3.68-.17-5.42-1.09-2.11-1.35Z" fill="#ae98ce" stroke-width="0"/><path d="m74.87,22.86c-1.2,0-2.38,0-3.54.34-.24-.04-.09-.48-.68-.34-1.49.19-3.3-.27-4.56-.17l.17-.34c.71.02,5.15-.34,5.23-.93-1.28-1.57-3.61-.55-5.57.08.9-1.91,3.86-1.56,3.8-2.19-2.69.07-2.83.95-4.3,1.86-1.13.29-2.21.68-3.38.84-3.77.55.28-.7,2.28-2.53.28-.26.37-.33,0-.34-.71-.01-4.73,2.4-5.49,3.21-.73.11-1.11.57-1.01,0l1.6-2.03c-2,1.11-3.75,2.15-5.99,2.7-5.97,1.46-6.13-.63-.76-.84,1.93-1,3.46-2.63,1.18-1.69-.2.08-2.31,2.25-3.46.34-.06-.23.1-.32.17-.51,2.32-1.35,3.57-2.58,6.5-2.19.68-7.48,10.06-6.44,12.15.17,4.1.27,3.84,2.12,4.14,2.45.56.62,1.98.74,1.52,2.11Z" fill="#f1eace" stroke-width="0"/><path d="m62.04,22.02c-.81.54-1.7.85-2.53,1.35.74-1.45,1.03-1.27-.68-1.01.75-.81,4.78-3.22,5.49-3.21.37,0,.28.08,0,.34-2,1.83-6.05,3.08-2.28,2.53Z" fill="#91d7e5" stroke-width="0"/><path d="m65.92,21.51c-.89.29-1.31.43-.51.68-.61-.07-1.11.2-1.01-.34.32-.15.74-.29,1.1-.34.27-.31-.1-.33-.08-.34,1.47-.9,1.62-1.79,4.3-1.86.06.63-2.9.28-3.8,2.19Z" fill="#89cac6" stroke-width="0"/><path d="m59.93,18.48c1.99-.11-4.73,2.77-4.81,2.45.95-.63,3.88-2.4,4.81-2.45Z" fill="#89cac6" stroke-width="0"/><path d="m105.22,30.55l.64.51-4.61.17c-6.53,1.57-13.51.56-20.25.84-.1,0-.36-.13-1.93-.17-1.2-.03-3.19,0-4.5,0-.71,0-1.43,0-2.14,0-3.97-.02-4.03.54-5.04.51-1.24-.63-2.65-.34-3.97-.51-2.67-.33-4.08-.08-3.64-1.18,4.36.05,8.72-.04,13.07,0,1.26.01,2.57.16,3.86.17,5.57.02,11.15-.02,16.72,0,.36,0,.71,0,1.07,0,.57,0,1.24-.17,1.71-.17,2.98,0,6.01-.16,9-.17Z" fill="#0d2b46" stroke-width="0"/><path d="m65.57,26.84c-.09.18-.29.28-.21.51-.68.31-1.51-.19-2.57.17-1.82-.42,1.27-.7,3-1.35-.02.03.02.21-.21.68Z" fill="#0a5e80" stroke-width="0"/><path d="m69.22,29.54c-.27.46,4.7-.27,5.57-.68-.13.57.36.11,1.29,0,2.17-.26,1.8-.44.86,1.01-.06.03-.68.7-.96.68-.5-.05.24-1.49-3.11.17-4.36-.04-8.72.05-13.07,0-.29,0-.57,0-.86,0-.36,0-.72.01-1.07,0-1.64-.07-2.27.2-1.61-.34.2-.16,4.58-1.85,5.36-1.52l.11-.34c.17-.37.62-.86,1.07-1.01,1.06-.36,1.89.14,2.57-.17,1.46,1.91,4.14-.26,4.39-.34,2.89-.94.95.69-1.5,1.69-6.82.21-6.62,2.3.96.84Z" fill="#a1e2e3" stroke-width="0"/><path d="m87.65,19.92c1.26,1.29,1.99,2.02,2.89,3.54,1.16.04,2.41-.11,3.54.17.09.02,1.39.75,1.5.84.31.24.56.58.86.84.1.09-.56.46,1.93,1.6.25,2.81,1.91-1.18,5.14,2.78-2.36-.04-4.71-.33-7.07-.34.58-1.37-1.22-1.49-1.93-2.11-.38-.33-.05-2.18-5.25-2.45-2.66-6.61-14.57-7.65-15.43-.17-3.72-.38-5.3.84-8.25,2.19.23-.46.2-.64.21-.68,1.67-3.34,3.89-2.63,4.39-2.87.57-.27.71-1.35,2.36-1.18.18-.13.32-.65.54-.84.67-.6.97-1.37,2.04-2.03,3.55-2.18,9.27-1.67,12.54.68Z" fill="#a1e2e3" stroke-width="0"/><path d="m84.43,28.69c1.3.11,1.02.17,1.07.17l-.21.34c-4.2.26-1.99,1.18,2.68,1.35.5-.3,1.2-.48,1.82-.51.74-.03,3.11.39,3.64.84-5.57-.02-11.15.02-16.72,0,1.73-1.64,4.28-1.75,6.43-2.53-.13.54.51.27,1.29.34Z" fill="#91d7e5" stroke-width="0"/><path d="m96.44,29.37c2.36,0,4.71.3,7.07.34-.16.39,1.59.67,2.14.68v.17c-.14,0-.29,0-.43,0-2.99.01-6.02.16-9,.17-.63-.43-1.63-.37-2.36-.51-.08-.02.4-.61-1.39-.17-.52-.22-.5-.33-.54-.34,1.48-.34,2.98-.34,4.5-.34Z" fill="#335d9a" stroke-width="0"/><path d="m84.43,27.68s.45.03.11.34c-.45.05-.99.19-1.39.34-2.15.78-4.7.89-6.43,2.53-1.29,0-2.6-.16-3.86-.17,3.35-1.66,2.6-.22,3.11-.17.29.03.91-.65.96-.68,1.06-.5,2.19-.81,3.21-1.35,1.48-.17,2.85-.55,4.29-.84Z" fill="#4d7eb0" stroke-width="0"/><path d="m91.94,29.71s.02.12.54.34c1.79-.44,1.31.15,1.39.17l-.43.08,1.07.59c-.36,0-.71,0-1.07,0-.54-.46-2.91-.87-3.64-.84l1.29-.68c.75-.14.56.29.86.34Z" fill="#7a7bb4" stroke-width="0"/><path d="m93.87,30.21c.72.13,1.73.07,2.36.51-.48,0-1.14.17-1.71.17l-1.07-.59.43-.08Z" fill="#a9c6ee" stroke-width="0"/><path d="m74.79,28.86c-.87.41-5.84,1.14-5.57.68,2.84-.55,5.07-1.59,7.61-2.7l-2.04,2.03Z" fill="#47b8d5" stroke-width="0"/><path d="m85.51,28.86c-.05,0,.23-.06-1.07-.17-1.02-.25-.49-.39.64-.68,2.5-.64,5.44-1.65,7.07-.08-.11.59-5.74.94-6.64.93Z" fill="#91d7e5" stroke-width="0"/><path d="m85.29,29.2c1.59-.1,3.89.36,5.79.17l-1.29.68c-.62.02-1.32.2-1.82.51-4.67-.17-6.88-1.09-2.68-1.35Z" fill="#ae98ce" stroke-width="0"/><path d="m96.44,29.37c-1.53,0-3.02,0-4.5.34-.3-.04-.11-.48-.86-.34-1.89.19-4.2-.27-5.79-.17l.21-.34c.9.02,6.54-.34,6.64-.93-1.63-1.57-4.58-.55-7.07.08,1.14-1.91,4.9-1.56,4.82-2.19-3.41.07-3.59.95-5.47,1.86-1.44.29-2.81.68-4.29.84-4.79.55.36-.7,2.89-2.53.35-.26.47-.33,0-.34-.9-.01-6.01,2.4-6.97,3.21-.93.11-1.41.57-1.29,0l2.04-2.03c-2.53,1.11-4.76,2.15-7.61,2.7-7.58,1.46-7.79-.63-.96-.84,2.45-1,4.39-2.63,1.5-1.69-.25.08-2.94,2.25-4.39.34-.07-.23.12-.32.21-.51,2.95-1.35,4.53-2.58,8.25-2.19.86-7.48,12.77-6.44,15.43.17,5.2.27,4.88,2.12,5.25,2.45.71.62,2.51.74,1.93,2.11Z" fill="#f1eace" stroke-width="0"/><path d="m80.15,28.52c-1.02.54-2.16.85-3.21,1.35.94-1.45,1.31-1.27-.86-1.01.95-.81,6.07-3.22,6.97-3.21.47,0,.35.08,0,.34-2.54,1.83-7.68,3.08-2.89,2.53Z" fill="#91d7e5" stroke-width="0"/><path d="m85.08,28.02c-1.13.29-1.66.43-.64.68-.77-.07-1.41.2-1.29-.34.4-.15.95-.29,1.39-.34.34-.31-.13-.33-.11-.34,1.87-.9,2.06-1.79,5.47-1.86.07.63-3.68.28-4.82,2.19Z" fill="#89cac6" stroke-width="0"/><path d="m77.47,24.98c2.53-.11-6,2.77-6.11,2.45,1.21-.63,4.93-2.4,6.11-2.45Z" fill="#89cac6" stroke-width="0"/><path d="m112.32,14.53c-3.2,1.45-6.61,4.63-6.37,8.41-.64.17-1.3.31-1.95.44-.55.11-.88.04-1.42.18-.94,2.7-3.62,3.03-3.72,3.27-.19.49,1.22.86-1.42,1.5.16.15-.14,1.03-.18,1.06l.35.18c.89-.63,1.7-.56,2.74-.53.43-.14,2.07-4.8,7.08-4.96,1.13-10.05,16.41-11.32,23.72-8.14,8.06,3.5,8.66,12.17,10.27,12.74,5.15-.77,7.79,1.39,10.27,5.66,6.74-.04,6.55,4.22,7.35,7.26.17.64.26.53,1.06,1.06.23-.37.86-.45,1.24-.53-.78-4.18-3.89-9.91-8.76-9.38-2.36-3.89-5.36-6.42-10.09-6.2-.31-.12-1.21-2.83-1.5-3.36-2.67-4.87-5.91-8.3-11.42-9.91-5.02-1.47-12.49-.92-17.26,1.24Z" fill="#825698" stroke-width="0"/><path d="m155.69,39.67c.02.05.01.24,0,.35-.02.18-.26.25-.18.53,1.59.44.96,1.43,1.68,1.95,1.33-.04,1.41.96,2.92,1.42-.02-.15.04-.17.18-.18-.32-.47-.52-.5-.18-1.06-.8-.53-.89-.42-1.06-1.06-.66.09-.9-.5-1.24-.89-.7-.78-1.29-2.06-2.12-1.06Z" fill="#d6d3eb" stroke-width="0"/><path d="m157.99,45.86c-.42.08-.66.31-1.06.35,1.11.59,2.49.93,3.72,1.06.6.06,1.16.21,1.77.18.53-.03,3.49-.69,2.48-1.24-.46.21-2.6.22-3.27.18-.37-.02-2.84-.34-2.57-.53-.23.01-1.01,0-1.06,0Z" fill="#8c90c1" stroke-width="0"/><path d="m153.74,40.9c3.87-.01,2.61,1.96,2.66,2.21.03.15.35.07.35.09,2.02-.35,1.95.79,2.12.89,1.9,1.06,1.93.25,2.66.18-.33-.37-1.03-.24-1.42-.35-1.52-.46-1.59-1.45-2.92-1.42-.72-.52-.09-1.51-1.68-1.95-.53-.15-1.66-.31-1.77.35Z" fill="#595b87" stroke-width="0"/><path d="m164.36,45.51c-1.2.23-2.39.35-2.39.71-1.14-.62-1.76-.42-2.92-.35-.27.19,2.19.51,2.57.53.67.04,2.81.04,3.27-.18,1.34-1.58.55-.91-.53-.71Z" fill="#314969" stroke-width="0"/><path d="m84.53,33.12s-.44.43-.71.53c-1.9,2.95-4.32-1.18-6.81,2.66-2.68-3.32-5.2,1.39-5.04-.18-1.14.78-2-.14-2.57-.18-2.7-.17-3.98,1.97-3.45.27.39-1.27,5.4-.35,6.55-.8.22-.14.17-.17.18-.18.12-1.01-.19-1.35-.18-1.42-1.6-.82-2.37-.03-2.83,0-.03,0-.08.39-.44.35-1.01-.83-2.08-.41-3.1.18-.22.41-.46.79-.62,1.24-.33-.19-.57-.48-.97-.53-3.14-.39-.92.2-1.5.89-1.37,1.59-6.11,1.18-5.58,4.16l-.44.44c-.27.03-.71-.05-.8,0-.04.02-.45.73-.35.89,3.18.81,2.1-.25,2.92-.53.62-.21,1.18.36,1.24.35.12-.02.6-1.09,1.24-1.24,1.73-.41,4.66,2.87,3.98-.27-3.14-.94-.57-.93,1.15-.62,0-2.7,6.04-3.1,4.6-.53.72.27,1.78-2.25,3.36-1.06.26.2.4.56.44.89,1.18-1.12,2.51-.92,3.98-.71,2.19-3.11,1.39,1.33,6.2-2.12-.62-1.01,1.08-2.05,2.12-1.42.34.21.22.63.44.89.06.07,1.76-.14-.18.97.44.85,1.99-1.83,3.27-2.21,1.12-.33,2.5.04,3.81-.18-.02-.1-.5-.35-.53-.35-.4-.07-1.04.08-1.33,0-.68-.2-3.19-2.01-4.78-.71-1.94-.84-2.05.03-3.27.53Z" fill="#f1eace" stroke-width="0"/><path d="m83.82,24.44c.4,1.7-1.35-.25-3.98,1.59-2.67,1.87-1.29,5.71-5.58,4.96-.69,1.26-3.71,1.65-1.42,2.3,1.59-1.71,4.11.23,4.34.18.22-.05,1.17-2.36,3.81-.71.56-.76.09-.61.18-.71-.64.13-.84-.5-.89-.53-.2-.13-.56.37-.71.09-.59-1.14,1.03-5.59,3.98-4.87,1.04-2.37,5.06-4.22,6.64-1.59,1.45-.07.99-.68,1.06-.71-.13-.23-.28-.65-.35-.71-1.77-1.55-5.27-.52-7.08.71Z" fill="#825698" stroke-width="0"/><path d="m62.58,33.65c-.53.03-1.07-.04-1.59,0,1.29,1.96-4.94-1.31-5.13,4.87-.29.25-.7-.21-1.42-.09-.55.1-1.07.35-1.59.53.03,1.18,1.8-.74,3.36,1.59.09-.05.53.03.8,0l.44-.44c-.54-2.98,4.2-2.57,5.58-4.16.59-.68-1.64-1.27,1.5-.89l-.89-1.24c-.05,0-.86-.14-1.06-.18Z" fill="#825698" stroke-width="0"/><path d="m50.37,41.44c1.11-.61,2.09.34,2.21.35,1.37.11,1.24-.49,2.92,0-.56-.76-.32-.53.35-.35-.09-.15.31-.86.35-.89-1.57-2.33-3.34-.41-3.36-1.59-.86.29-1.68.99-2.57,1.24-2.12.6-4.16-.29.09,1.24Z" fill="#e7b7dc" stroke-width="0"/><path d="m72.85,33.29s-.35.5-.35.53c-.02.07.3.4.18,1.42.02-.01.1-.02.35-.18,1.42-.89,2.09-.89,3.63,0,1.59-1.01,1.77-1.72,3.89-1.42.06-.73.23-.6.44-.89-2.64-1.65-3.59.65-3.81.71-.23.06-2.75-1.89-4.34-.18Z" fill="#a1e2e3" stroke-width="0"/><path d="m54.44,38.43c.71-.13,1.12.34,1.42.09.19-6.18,6.42-2.91,5.13-4.87-3.73.28-8.6,1.82-6.55,4.78Z" fill="#12203b" stroke-width="0"/><path d="m53.55,43.91c-1.25.11-2.37.72-3.19,1.59,1.05-.39,3.12.23,3.27.18.24-.08-1.62-.51,2.57-1.24-.13-.03-.86-.68-2.66-.53Z" fill="#675498" stroke-width="0"/><path d="m66.83,32.76c-.68.93-.67,1.52-.71,1.59,1.01-.58,2.09-1,3.1-.18.36.04.41-.35.44-.35.98-.85-.84-1.6-1.59-1.59-.61,0-1.08.49-1.24.53Z" fill="#825698" stroke-width="0"/><path d="m97.63,29.58c-.45.32-.73.93-.97,1.42-4-.09-1.8,1.52-2.74,2.3.03,0,.51.25.53.35.23-.04.94-.78,2.92-.53.48-.55,1.02-.93,1.68-1.24.8-.38.97-.6,1.95-.53.77-3.82,6.52-5.11,7.61-6.46,4.72-11.55,25.82-12.38,26.02,2.83.33.72,4.06,1.15,6.55,3.98,3.08-1.79,5.73,1.28,8.59,2.12.91.77,1.16,1.25,1.5,2.3.03.1,1.12.1-.35,1.59.63.04.99.54,2.74.18,1.51.71,4,.8,4.16,2.83.34.38.57.97,1.24.89-.8-3.04-.6-7.3-7.35-7.26-2.47-4.27-5.12-6.44-10.27-5.66-1.61-.57-2.21-9.24-10.27-12.74-7.31-3.17-22.59-1.91-23.72,8.14-5.01.15-6.65,4.81-7.08,4.96-1.05-.03-1.86-.1-2.74.53Z" fill="#a1e2e3" stroke-width="0"/><path d="m97.27,29.4c-.67.56-4.1,1.3-4.07,2.92-1.03-.57-.14.33-.44.44-.3.11-.66-1.42-1.59-1.59-1.88.81-2.27-1.25-3.63-.18-.67,1.16-2.82.52-3.01,2.12,1.23-.5,1.34-1.38,3.27-.53,1.59-1.3,4.1.51,4.78.71.28.08.93-.07,1.33,0,.95-.78-1.26-2.39,2.74-2.3.25-.48.52-1.09.97-1.42l-.35-.18Z" fill="#4a4d91" stroke-width="0"/><path d="m87.36,30.99h.18c1.36-1.07,1.75.99,3.63.18.93.18,1.29,1.7,1.59,1.59.3-.11-.58-1.01.44-.44-.03-1.62,3.4-2.36,4.07-2.92.04-.03.34-.92.18-1.06-.06.01-.12-.01-.18,0-2.11.38-1.62.07-2.83-.35,1.34,2.84-3.54,3.31-4.87,2.3-.35-.27-1.25-2.82-2.21.71Z" fill="#d3c0da" stroke-width="0"/><path d="m97.1,28.16l.18.18c.06-.01.12.01.18,0,2.63-.64,1.23-1.01,1.42-1.5.09-.24,2.77-.58,3.72-3.27-3.85.99-2.25,2.53-4.51,2.66-.27.41-.83,1.85-.97,1.95Z" fill="#263d6f" stroke-width="0"/><path d="m99.22,32.23c-.7.26-1.36,1.48-1.68,2.12-3.21-2.04-4.04,2.14-4.43,2.3-2.89-.37-.62,1.42-3.36,3.19-.06.04-.63-.09-1.06.18-1.85,1.14.22,1.87-3.27.89-.59-.17-1.35-.97-3.36-.71-.38.2-.76.51-1.15.71-.47.05-1.07-.08-1.5,0-.62.11-1.09.53-1.15.53-1.13.11-1.55-.91-2.39-.35-.7.28-.96.91-1.42,1.42-.25.28-.46.61-.71.89-.02.03.01.26,0,.44-.78,1.01-3.48.66-4.25-.09-.01-.01-.26-.15-.35-.18-.03.02-.27.1-.71.35-.51.29-1.05.49-1.59.71,2.3-.06,4.68.15,6.99,0,.68-1.35,3.58-.08,6.73-1.95,2.29-.08,4.61.11,6.9,0,1.55-.07,5.08-1.22,5.75,0,.14,0,.15.16.53.18,3.1-.39-.12-1.23.53-3.1.86-2.45,3.14,3.16,5.22-.44.7,1.08,2.8.81,3.54,0,.73.75-.61,1.78,1.06,1.42,1.22-.27-.19-.87.09-2.04.44-1.86,2.79.29,3.81-.27,1.27,1.95.87-.19,4.6.71,1.17-1.14,2.81-.61,4.25-.53-.09,2.11,1.55,2.71,1.68,2.83.24-.89,1.01-1.44,1.95-1.24v-.89c-.2-.09-.77.2-1.06-.27-.19-3.31-4.13-3.02-6.2-4.43l1.33-.09c.18-.09-2.37-1.62-2.48-.89-2.05-2.99-5.55-2.85-7.79,0-1.11.21-2.32-2.45-5.04-1.42Z" fill="#f1eace" stroke-width="0"/><path d="m118.52,41.44c.25.23.5-.26.53,1.42.33-.14.9-.39,1.06,0,1.34-.71,1.72-.13,2.12-.18,1.8-2.23,3.47-.4,5.4-.35l-.53.53c1.75.56,5.97,1.18,1.86,1.24.02.09.33.35.35.35.88.19,1.59-.4,2.39-.53.38-.41-.83-.21-.27-1.42-2.13-.44-1.58-1.34-1.68-1.42-1.94-.94-3.5-.5-5.75-.18-.89.13-1.32.78-2.21.53-.6-.17-.7-1.1-1.33-1.24-.94-.21-1.71.35-1.95,1.24Z" fill="#e7b7dc" stroke-width="0"/><path d="m74.79,38.43c.06.45-.11.67-.18,1.06,1.23-.42,1.69-.15,1.95,1.06.09-.07.25.19.27.18.39-.27.94-1.08,1.24-1.24,2.21-1.21,3.95-1.46,4.25-1.59,1.51-.66,2.98-1.79,4.51-2.04l-.35-.18,1.06-.62c-.22-.26-.1-.68-.44-.89-1.05-.63-2.75.41-2.12,1.42-4.81,3.45-4.01-.98-6.2,2.12-1.47-.22-2.8-.42-3.98.71Z" fill="#e7b7dc" stroke-width="0"/><path d="m93.73,42.85c-.38-.01-.39-.17-.53-.18-.75-.03-1.48-.02-2.21.18v.35c5.55.34,11.25,1,16.64-.71,1.89.92,4.45,1.39,6.46,1.59l3.36-1.59c-.63-.24-4.62.54-5.75.53-2.93-1.81-6.87-.29-9.38-.18-2.86.12-5.72.11-8.59,0Z" fill="#6c337e" stroke-width="0"/><path d="m74.62,39.49c-1.57.54,1.25-.1,1.42.44.3.99-2.33-.28-4.16.09l-3.01,1.06c-1.08.74-1.64,1.95-2.92,2.48.62.86,2.07-.04,2.48.35.44-.26.67-.33.71-.35.32-.21.82-1.56,3.19-1.59,1.05-.02,1.2.05,2.12.53.46-.51.71-1.14,1.42-1.42-.08-.51.26-.21.71-.53-.26-1.21-.72-1.48-1.95-1.06Z" fill="#825698" stroke-width="0"/><path d="m139.58,44.09c-.75,1.4,3.74.55,4.78,0-.89-.15-1.93-1.04-2.92-.89-.14.02-.88.78-1.86.89Z" fill="#f4d5cf" stroke-width="0"/><path d="m114.09,44.09c.07,0-.2.42,1.33.35.59-.59,2.05-.41,2.39-.53.23-.08.31-.51.35-.53.05-.34-.44-.78-.71-.89l-3.36,1.59Z" fill="#e7b7dc" stroke-width="0"/><path d="m122.23,42.67c-.41.04-.78-.54-2.12.18-1.24.66-1.6,2.76-3.01,3.36.72.61,9.18-1.97,11.95.53,1.52.16,1.08-.36,1.15-.35-.88.07-.29-.25-.35-.35-.55-.94-1.59-1.05-.53-1.59-.02,0-.33-.27-.35-.35-.09,0-.33.28-.97.18-3.42-3.28-4.67-1.42-4.96-1.42-.63.02-.72-.19-.8-.18Z" fill="#f1eace" stroke-width="0"/><path d="m119.05,42.85c-.45.19-.67.44-.89.53-.04.02-.13.45-.35.53,1.14,1.07-.44,1.22-.71,2.3,1.41-.6,1.77-2.71,3.01-3.36-.16-.39-.73-.14-1.06,0Z" fill="#6c337e" stroke-width="0"/><path d="m153.74,40.9c-.28,0-.62-.04-.89,0-.89,1.82-2.65,1.62-4.07,2.83,2.57.76,5.31.53,7.97.53.1-.47.06-.64,0-1.06,0-.02-.33.06-.35-.09-.05-.25,1.21-2.22-2.66-2.21Z" fill="#f1eace" stroke-width="0"/><path d="m156.75,43.21c.06.42.1.59,0,1.06.98,0,2.06.11,2.12-.18-.18-.1-.1-1.23-2.12-.89Z" fill="#f4d5cf" stroke-width="0"/><path d="m55.85,41.44c-.67-.17-.91-.4-.35.35.28.08,2.11,1.42,5.66,1.06.02,0,.12-.33.27-.35,1.17-.2,2.71.19.71.71-.47.12-.7-.19-.8-.18-4.94.82-1.27,2.19-5.13,1.42-4.19.73-2.33,1.16-2.57,1.24-.16.06-2.23-.57-3.27-.18-.04.05-.4-.09-.53.09-.02.27,2.75.18.35.97l.18.89c.18,0,.35,0,.53,0,1.69.06,2.94-.26,4.51.71,3.31-1.71,4.53.88,9.56-1.06,1.62-.13,5.51,1.39,8.41-.71-1.96.58-1.51-.03-1.77-.18-.91-.1-2.38.14-3.1,0-2.03-.38.71-1.36,3.1,0,.77-.29-1.31-1.09-1.5-.89v-.35c3.42.75,5.02-.25,3.45,1.24,1.63-1.25,1.58,1.34,6.64-.18,4.59,2.72,8.78-.39,9.56-.35,3.55,1.78,14.78,1.37,15.67,1.24.86-.13,2.34.14,3.1,0,.78-.15,1.4-1.62,5.75-.97-3.82,1.55-3.67,3.79-.44,3.98,2.2-.55,4.36-1.27,6.55-1.42.65-.16,6.78-.4,11.15.18.01.44,8.75-1.43,10.8-2.12,3.63,0,6.44,1.39,7.52,1.42.43-1.07,2.43-1.15,3.63-1.06,1.56-1.57,6.09-1.75,4.51-1.06.05,0,.83.01,1.06,0,1.17-.06,1.78-.27,2.92.35,0-.36,1.19-.48,2.39-.71-.2-.56-.93-.47-1.06-.53-.55-.24-.77-.15-.8-.18-.38-.33.71-.49-.09-.53-.29.02-.59-.03-.89,0-.73.07-.76.88-2.66-.18-.06.29-1.14.18-2.12.18-2.65,0-5.4.23-7.97-.53-1.72.61-2.6.66-4.43.35-1.04.55-5.53,1.4-4.78,0-.15.02-2.13-.35-3.1-.18-1.05.19-4.6,2.62-7.08,1.06,4.82.33,9.19-2.95,13.98-2.48,2.69,3.19,7.79-1.36,9.47-1.59.27-.04.6,0,.89,0,.11-.66,1.24-.5,1.77-.35-.08-.28.16-.35.18-.53-4.22.74-4.79-.05-5.04,0-.67.13-.05,1.32-2.48.71-2.25,2.07-3.17-.98-5.49.35-3.32-1.57-1.39-.1-1.06-2.12-1.95.08-.63.23-1.15.97-.8,1.14-2.13-.48-3.63-.09-.44-1.76-2.5-.1-2.12,2.48-3.21-1.62-.1.83-3.27.18-.57,1.21.65,1.01.27,1.42-.8.13-1.51.72-2.39.53-1.06.55-.02.66.53,1.59l10.36-.71c-3.99,2.38-5.71,1.23-10,1.06-.07,0,.37.51-1.15.35-2.77-2.5-11.22.07-11.95-.53.27-1.08,1.85-1.23.71-2.3-.34.12-1.8-.06-2.39.53-1.53.07-1.25-.35-1.33-.35-2.01-.2-4.58-.67-6.46-1.59-5.39,1.7-11.09,1.05-16.64.71v-.35c.73-.2,1.46-.21,2.21-.18-.67-1.22-4.2-.07-5.75,0-2.29.11-4.61-.08-6.9,0-3.14,1.87-6.05.6-6.73,1.95-2.31.15-4.69-.06-6.99,0-2.04.05-3.27,1.14-4.96-.09-.09-.69,2.23-.21,4.07-.97,1.28-.53,1.84-1.73,2.92-2.48l3.01-1.06c1.83-.36,4.46.9,4.16-.09-.17-.54-2.98.09-1.42-.44.07-.39.23-.61.18-1.06-.04-.32-.18-.69-.44-.89-1.58-1.19-2.65,1.33-3.36,1.06,1.44-2.57-4.6-2.16-4.6.53-1.72-.31-4.29-.32-1.15.62.68,3.14-2.26-.15-3.98.27-.63.15-1.12,1.22-1.24,1.24-.06.01-.62-.56-1.24-.35-.82.28.25,1.34-2.92.53Z" fill="#e7a0cb" stroke-width="0"/><path d="m139.58,44.09c.98-.11,1.71-.86,1.86-.89.99-.15,2.03.74,2.92.89,1.82.3,2.7.25,4.43-.35,1.43-1.21,3.18-1.01,4.07-2.83-1.68.24-6.78,4.78-9.47,1.59-4.8-.47-9.16,2.81-13.98,2.48,2.48,1.56,6.03-.87,7.08-1.06.97-.17,2.94.19,3.1.18Z" fill="#6c337e" stroke-width="0"/><path d="m129.84,46.04c.06.1-.53.42.35.35,4.29.17,6.02,1.32,10-1.06l-10.36.71Z" fill="#1d1222" stroke-width="0"/><path d="m89.75,44.27h-4.07c-1.7,1.67-5.64-.36-5.22.44,3.72,1.62,5.86,1.3,9.29-.44Z" fill="#2a1433" stroke-width="0"/><path d="m156.93,46.22c.4-.04.64-.28,1.06-.35,1.58-.69-2.95-.51-4.51,1.06-1.2-.08,1.27.51,3.45-.71Z" fill="#171727" stroke-width="0"/><path d="m108.87,43.91l-8.23.62c2.71.74,5.68,1.09,8.23-.27v-.35Z" fill="#2a1433" stroke-width="0"/><path d="m66.83,44.62c.54-.21,1.09-.41,1.59-.71-.41-.4-1.86.51-2.48-.35-1.84.76-4.16.29-4.07.97,1.69,1.23,2.92.14,4.96.09Z" fill="#6c337e" stroke-width="0"/><path d="m54,45.15c.63,1.55,7.03.93,10,1.15.61-.97-7.85.23-10-1.15Z" fill="#6c337e" stroke-width="0"/><path d="m156.31,44.62c-2.04.37-4.28-.06-5.66,0-4.64.19.88,1.23,5.66.35v-.35Z" fill="#61215f" stroke-width="0"/><path d="m71.61,46.22c.26.15-.19.76,1.77.18.16-.12.16-.16.18-.18,1.56-1.49-.03-.49-3.45-1.24v.35c.19-.2,2.28.6,1.5.89Z" fill="#e7a0cb" stroke-width="0"/><path d="m71.61,46.22c-2.38-1.36-5.13-.38-3.1,0,.72.14,2.19-.1,3.1,0Z" fill="#6c337e" stroke-width="0"/><path d="m61.16,42.85l.18.18c.09-.02.33.3.8.18,2-.52.46-.91-.71-.71-.15.03-.24.35-.27.35Z" fill="#efe4e5" stroke-width="0"/><path d="m138.16,34.36c-.11.13-.21.35-.18.53,1.48-1.06,3.14-1.78,4.16.35,1.47-.04,2.97,1.8,4.07,1.42,2.28,3.56,3.01,1.69,3.89,1.59,1-.11,1.51.35,1.59.35.98.03,3.38-.41,3.98,1.06.84-1,1.42.28,2.12,1.06-.16-2.03-2.65-2.12-4.16-2.83-1.75.36-2.11-.14-2.74-.18-2.26-.13-2.17,1.22-3.1-1.59-1.75-.77-2.77-1.29-4.78-1.06-.61-.15-2.33-3.64-4.87-.71Z" fill="#5569a0" stroke-width="0"/><path d="m94.44,33.65c-1.31.22-2.69-.16-3.81.18-1.29.38-2.83,3.07-3.27,2.21,1.94-1.11.24-.9.18-.97l-1.06.62.35.18c-1.54.25-3.01,1.37-4.51,2.04-.29.13-2.04.38-4.25,1.59-.3.16-.85.97-1.24,1.24-.01,0-.18-.24-.27-.18-.45.32-.79.02-.71.53.84-.56,1.26.46,2.39.35.06,0,.53-.42,1.15-.53v-.18c-2.87,1.12-1.9-1.04.18-.71.95-2.27,2.38-1,2.92-1.06.18-.02.69-.55.97-.71.04-.02-.18-.33.62-.71.6.18.67.09,1.15,0,.05-1.55,2.14-.93,3.01-1.24.02,0,.16-.47.35,0,.75-.49,1.34-1.79,2.39-2.12,1.21-.39,3.78-.26,1.68.62,1.27,1.16-1.19.39-2.39,3.1-.67.28-.96-.22-2.04.18-.69.26-2.21,2.18-2.83,2.83,3.5.99,1.43.26,3.27-.89.43-.27,1-.14,1.06-.18,2.74-1.76.47-3.56,3.36-3.19.38-.16,1.22-4.34,4.43-2.3.32-.64.98-1.86,1.68-2.12l-.18-.35c-.66.31-1.2.69-1.68,1.24-1.98-.25-2.69.49-2.92.53Z" fill="#595b87" stroke-width="0"/><path d="m81.17,32.05c-.09.1.38-.05-.18.71-.21.28-.38.15-.44.89-2.12-.3-2.31.4-3.89,1.42-1.54-.89-2.2-.89-3.63,0,1.67-.46,2.42-.46,3.98.35,2.55-2.38,3.69-.58,6.81-1.77.27-.1.67-.51.71-.53.19-1.6,2.34-.96,3.01-2.12h-.18c-.84.04-1.76.63-2.57.71-1.41.13-2.73-.68-3.63.35Z" fill="#91d7e5" stroke-width="0"/><path d="m73.02,35.06c-.25.16-.34.17-.35.18-.01,0,.04.04-.18.18-.5.31-.25.55-.53.71-.15,1.57,2.37-3.14,5.04.18,2.5-3.84,4.92.3,6.81-2.66-3.13,1.19-4.26-.61-6.81,1.77-1.56-.81-2.31-.81-3.98-.35Z" fill="#6477a9" stroke-width="0"/><path d="m71.96,36.13c.28-.16.03-.39.53-.71-1.15.45-6.16-.47-6.55.8-.53,1.7.75-.44,3.45-.27.56.04,1.42.96,2.57.18Z" fill="#988db9" stroke-width="0"/><path d="m63.64,33.82l.89,1.24c.41.05.64.34.97.53.16-.45.4-.83.62-1.24.04-.08.03-.67.71-1.59-1.17.31-2.79,1.04-3.19,1.06Z" fill="#12203b" stroke-width="0"/><path d="m100.28,22.5c-1.43,1.95-3.71-.51-5.75,3.19-.65-.61-1.43-.3-2.21-.18-1.86,2.33-.07,1.06,1.68,1.42,1.38.28,2.06,1.97,3.1,1.24.14-.1.7-1.53.97-1.95,2.27-.12.66-1.66,4.51-2.66.54-.14.87-.06,1.42-.18-2.63-1.74-3.03-.88-3.72-.89Z" fill="#a1e2e3" stroke-width="0"/><path d="m91.79,24.44c.17.46.91.62.53,1.06.78-.12,1.56-.43,2.21.18,2.05-3.7,4.33-1.24,5.75-3.19-1.69,0-3.63-.36-4.69,1.24-2.35-.66-3.61.63-3.81.71Z" fill="#825698" stroke-width="0"/><path d="m80.46,29.93c-.18.5-.55,1.04-.18,1.59.04.03.25.66.89.53.9-1.04,2.22-.22,3.63-.35.81-.08,1.73-.67,2.57-.71.96-3.53,1.86-.98,2.21-.71,1.33,1.01,6.21.54,4.87-2.3-.22-.08-1.65-1.81-4.16-.18-1.68-1.68-2.66.4-3.01.53-.31.11-1.37-.29-2.3.53-1.73-1.96-3.13-.4-4.51,1.06Z" fill="#f1eace" stroke-width="0"/><path d="m80.28,31.52c-.38-.55,0-1.09.18-1.59,1.52-4.15,3.64-1.13,6.46-2.83.17-.1.89-1.53,3.27-1.95-1.57-2.62-5.6-.78-6.64,1.59-2.95-.72-4.57,3.73-3.98,4.87.15.29.5-.22.71-.09Z" fill="#a1e2e3" stroke-width="0"/><path d="m100.99,31.35c.35.02.37.13.53.18-.12-.75,1.78-.14,2.39-.35.3-.1.35-2.26,5.66-1.77,2.72.25,4.02,1.32,6.11,2.66.39.25.77.63,1.24.71.54-.06,1.88-.03,1.77-.53-2.94-2.49-5.45-2.81-5.04-3.01,4.18-.07,10.93,6.37,13.19,6.9.48.11,2.71.31,3.19,0-.93-.39-3.75-2.56-4.96-3.27-.04-.82,2.37.6,3.19.8,1.53.36,3.9.51,5.49.89l.18-.53c-2.96-.67-5.51-3.05-1.68-1.77.39.13,1.39.85,2.57,1.24,1.94-.5,4.25-.63,6.37-1.06v-.71c-2.49-2.83-6.22-3.27-6.55-3.98-.2-15.21-21.3-14.38-26.02-2.83-1.09,1.35-6.85,2.64-7.61,6.46Z" fill="#f6f0c4" stroke-width="0"/><path d="m101.52,31.52c-.17-.04-.18-.15-.53-.18-.98-.07-1.15.15-1.95.53l.18.35c2.73-1.03,3.94,1.62,5.04,1.42,2.24-2.85,5.73-2.99,7.79,0,.11-.74,2.65.79,2.48.89l-1.33.09c2.06,1.41,6.01,1.11,6.2,4.43.29.47.86.17,1.06.27,1.43.67,1.58,1.18,3.36.71.83-.22,2.5-1.69,3.27-1.77,1.34-.14,2.66,1.58,4.07,1.06.45-.17.5-1.09.8-1.42l-.53-.18c-1.31.62-2.18.35-3.36-.35-1.08-.26-1.46.69-2.3,1.06-2.31,1.02-5.46-1.49-7.35-2.83-2.2-.47-4.24-1.55-5.58-3.36-3.57-2.37-5.79-1.89-9.29.18-.69.12-.85-.57-2.04-.89Z" fill="#5569a0" stroke-width="0"/><path d="m141.17,31.7v.71c2.74,1.74,4.52,1.55,5.58,1.95.65.25.98,1.6,4.51,1.77-.35-1.05-.59-1.54-1.5-2.3-2.86-.84-5.5-3.91-8.59-2.12Z" fill="#f1eace" stroke-width="0"/><path d="m134.8,33.47c.42.14.81.26,1.24.35.42.09.77.06,1.24.18.25.06.44-.07.89.35,2.54-2.93,4.25.55,4.87.71,2.01-.23,3.03.3,4.78,1.06.92,2.81.84,1.46,3.1,1.59,1.47-1.49.39-1.49.35-1.59-3.53-.17-3.86-1.52-4.51-1.77-1.05-.4-2.83-.2-5.58-1.95-2.12.44-4.43.56-6.37,1.06Z" fill="#d3c0da" stroke-width="0"/><path d="m93.73,42.85c2.87.11,5.72.12,8.59,0,2.51-.11,6.45-1.64,9.38.18,1.14.01,5.12-.77,5.75-.53.27.1.75.55.71.89.21-.1.43-.34.89-.53-.03-1.67-.28-1.19-.53-1.42-.14-.12-1.78-.72-1.68-2.83-1.43-.08-3.08-.61-4.25.53-3.73-.89-3.33,1.24-4.6-.71-1.01.55-3.37-1.59-3.81.27-.28,1.17,1.13,1.77-.09,2.04-1.67.37-.33-.67-1.06-1.42-.74.81-2.84,1.08-3.54,0-2.08,3.6-4.37-2.01-5.22.44-.65,1.87,2.57,2.71-.53,3.1Z" fill="#e7a0cb" stroke-width="0"/><path d="m85.24,37.54c-.48.09-.55.18-1.15,0-.8.37-.58.68-.62.71,1.46.09-1.02,1.73-1.42,1.95,2.01-.26,2.77.54,3.36.71.62-.65,2.15-2.58,2.83-2.83-1.01-1.71-2.84-.56-3.01-.53Z" fill="#d3c0da" stroke-width="0"/><path d="m83.47,38.25c-.29.16-.79.69-.97.71-.54.06-1.97-1.21-2.92,1.06-.08.19.16.69-.18.71v.18c.44-.08,1.04.05,1.5,0,.39-.2.77-.51,1.15-.71.4-.21,2.87-1.86,1.42-1.95Z" fill="#b2d7e7" stroke-width="0"/><path d="m69.48,43.74c.77.75,3.47,1.1,4.25.09.01-.18-.02-.42,0-.44-.11-.42-.34-.02-.53,0-2.6.22-2.42-1.35-3.72.35Z" fill="#593f85" stroke-width="0"/><path d="m120.46,39.31v.89c.62.14.73,1.07,1.33,1.24.89.25,1.32-.4,2.21-.53l-.18-.89c-1.78.47-1.94-.04-3.36-.71Z" fill="#ecd1dc" stroke-width="0"/><path d="m69.13,43.56c.09.03.34.16.35.18,1.29-1.71,1.12-.14,3.72-.35l-.89-1.42c-2.37.04-2.86,1.39-3.19,1.59Z" fill="#ecd1dc" stroke-width="0"/><path d="m72.32,41.97l.89,1.42c.19-.02.42-.42.53,0,.25-.28.46-.61.71-.89-.92-.48-1.07-.55-2.12-.53Z" fill="#c490c4" stroke-width="0"/><path d="m137.28,34c-.39.05-.88-.07-1.24,0-.04,0-.75.35-.8.35-.72,0-1.12-.31-1.33-.35l-.18.53c2.36.56-3.03.34-3.01.89.59.42,1.12.89,1.77,1.24,1.32-.85,2.79-.7,4.25-.53.44-.36.73-.87,1.24-1.24-.03-.18.07-.4.18-.53-.45-.42-.63-.29-.89-.35Z" fill="#a1e2e3" stroke-width="0"/><path d="m132.5,36.66c.02.15-.89.98-1.06,1.06l.53.18c1.9-2.09,2.37-.33,3.98-.89.33-.11.75-.85.8-.89-1.46-.16-2.93-.31-4.25.53Z" fill="#314e8a" stroke-width="0"/><path d="m137.99,34.89c-.51.37-.8.87-1.24,1.24-.05.04-.46.77-.8.89-1.62.56-2.08-1.2-3.98.89-.3.33-.34,1.25-.8,1.42-1.41.52-2.74-1.2-4.07-1.06-.78.08-2.44,1.55-3.27,1.77l.18.89c2.25-.32,3.81-.76,5.75.18.1.08-.45.97,1.68,1.42,3.17.66.07-1.79,3.27-.18-.38-2.58,1.69-4.23,2.12-2.48,1.5-.39,2.83,1.22,3.63.09.53-.75-.8-.89,1.15-.97-.32,2.03-2.25.55,1.06,2.12,2.31-1.34,3.24,1.71,5.49-.35,2.43.61,1.81-.58,2.48-.71.26-.05.82.74,5.04,0,.01-.11.02-.3,0-.35-.6-1.47-3-1.03-3.98-1.06-.08,0-.59-.46-1.59-.35-.88.1-1.61,1.97-3.89-1.59-1.1.38-2.61-1.46-4.07-1.42-1.02-2.14-2.68-1.41-4.16-.35Z" fill="#f1eace" stroke-width="0"/><path d="m145.51,38.96c-.48-.1-1.69.45-1.68.62,2.52,1.31,3-.35,1.68-.62Z" fill="#e7b7dc" stroke-width="0"/><path d="m122.23,42.67c.08,0,.17.19.8.18.29,0,1.53-1.86,4.96,1.42.64.1.88-.18.97-.18,4.11-.06-.11-.68-1.86-1.24l.53-.53c-1.93-.05-3.6-1.87-5.4.35Z" fill="#595b87" stroke-width="0"/><path d="m88.6,36.3c-.17.11-.36.27-.35,0-.87.31-2.96-.31-3.01,1.24.17-.03,2-1.18,3.01.53,1.08-.4,1.36.1,2.04-.18,1.2-2.71,3.66-1.94,2.39-3.1,2.1-.88-.47-1.01-1.68-.62-1.05.34-1.64,1.63-2.39,2.12Z" fill="#91d7e5" stroke-width="0"/><path d="m79.4,40.73c.34-.01.1-.51.18-.71-2.08-.33-3.04,1.82-.18.71Z" fill="#d6d3eb" stroke-width="0"/><path d="m88.25,36.3c0,.27.18.11.35,0-.2-.47-.34,0-.35,0Z" fill="#a9c6ee" stroke-width="0"/><path d="m91.26,24.44c-.07.03.39.64-1.06.71-2.38.41-3.11,1.85-3.27,1.95-2.82,1.7-4.94-1.32-6.46,2.83,1.38-1.46,2.79-3.02,4.51-1.06.93-.82,1.99-.42,2.3-.53.35-.13,1.33-2.21,3.01-.53,2.51-1.63,3.94.1,4.16.18,1.21.42.73.74,2.83.35l-.18-.18c-1.04.73-1.72-.95-3.1-1.24-1.75-.36-3.55.91-1.68-1.42.38-.45-.37-.6-.53-1.06-.52.2-.41-.05-.53,0Z" fill="#314e8a" stroke-width="0"/><path d="m89.75,25.86c-.28-.1-.94.03-1.24.18-1.69.82.02.77,1.24.35.29-.1.29-.43,0-.53Z" fill="#a9c6ee" stroke-width="0"/><path d="m116.92,32.76l1.68,1.59q-2.08-1.06-4.16-2.12c-.53.01-1.06,0-1.59,0,1.33,1.81,3.38,2.9,5.58,3.36,1.89,1.34,5.03,3.85,7.35,2.83-3.06-1.42-4.81-4.28-7.08-6.2.11.5-1.23.47-1.77.53Z" fill="#91d7e5" stroke-width="0"/><path d="m118.69,32.23c2.27,1.92,4.02,4.78,7.08,6.2.84-.37,1.22-1.32,2.3-1.06-.08-.04-1.08-.99-1.24-1.24-2.25-.53-9.01-6.97-13.19-6.9-.41.2,2.11.52,5.04,3.01Z" fill="#5ca5cf" stroke-width="0"/><path d="m101.52,31.52c1.19.31,1.34,1,2.04.89,3.5-2.06,5.72-2.54,9.29-.18.53,0,1.06.01,1.59,0,.43,0,.85.09,1.24-.18-2.08-1.34-3.39-2.4-6.11-2.66-5.31-.49-5.37,1.67-5.66,1.77-.61.21-2.51-.39-2.39.35Z" fill="#cfafc0" stroke-width="0"/><path d="m130.02,36.13c-.47.31-2.71.11-3.19,0,.16.25,1.16,1.19,1.24,1.24,1.18.7,2.06.97,3.36.35.18-.08,1.08-.91,1.06-1.06-.88.1-1.69-.2-2.48-.53Z" fill="#91d7e5" stroke-width="0"/><path d="m130.02,36.13c.79.33,1.6.64,2.48.53-.65-.35-1.18-.82-1.77-1.24-.81-.58-1.85-.94-2.48-1.77-.81-.19-3.23-1.62-3.19-.8,1.21.71,4.03,2.89,4.96,3.27Z" fill="#5ca5cf" stroke-width="0"/><path d="m133.92,34c.21.05.61.35,1.33.35.04,0,.75-.35.8-.35v-.18c-.43-.09-.82-.22-1.24-.35-1.17-.39-2.17-1.11-2.57-1.24-3.83-1.28-1.28,1.1,1.68,1.77Z" fill="#91d7e5" stroke-width="0"/><path d="m128.25,33.65c.63.83,1.67,1.19,2.48,1.77-.03-.54,5.37-.32,3.01-.89-1.59-.38-3.96-.52-5.49-.89Z" fill="#d4d9ea" stroke-width="0"/><path d="m114.44,32.23q2.08,1.06,4.16,2.12l-1.68-1.59c-.47-.08-.85-.46-1.24-.71-.39.27-.81.17-1.24.18Z" fill="#4994c6" stroke-width="0"/><path d="m136.04,33.82v.18c.36-.07.85.05,1.24,0-.47-.11-.82-.09-1.24-.18Z" fill="#8c90c1" stroke-width="0"/></g></svg>