<?xml version="1.0" encoding="UTF-8"?><svg id="Layer_2" xmlns="http://www.w3.org/2000/svg" viewBox="0 0 98.54 33.02"><g id="Layer_1-2"><path d="m25.36,14.73c.07.56-3.78.56-3.72,0,1.08,0,2.73-.03,3.72,0Z" fill="#3386b3" stroke-width="0"/><path d="m50.2,22.24c1.56.57,2.05,2.06,2.66,2.48.73.51.57-.06,1.77.53-1.01,1.07.55,1.25.71,1.42.29.32.61.71.71,1.15-.39.51-11.22.3-12.74.27-1.91-.05-3.83-.32-5.75-.18.3-.35.85-.45,1.5-.89,1.83-1.14,2.5.15,3.72-1.24.26-.3.49-1.02.53-1.06,1.93-2.23,3.84-3.6,6.9-2.48Z" fill="#a1e2e3" stroke-width="0"/><path d="m42.76,25.78c-1.22,1.39-1.89.1-3.72,1.24.17-.11.04-1.09,3.72-1.24Z" fill="#0a5e80" stroke-width="0"/><path d="m46.75,23.65c2.91-.32,6.65,2.53,6.28,3.27-.89.25-7,.57-7.35.44-.35-.13-.43-1-.53-1.06-.16-.09-3.68.66-.89-1.59.35-.28,2.12-1.02,2.48-1.06Z" fill="#f1eace" stroke-width="0"/><path d="m83.14,23.03c-1.91-.11-3.33.28-4.96,1.24-.19.11-.91,1.14-1.15,1.42-3.02-.31-3.28,2.37-3.54,2.48-1.47-.33-2.96-.13-3.27,1.59.68.94,1.91-.95,2.83.71,1.62.05,3.34.33,4.96.35v-.53c-2.14,0-3.79.12-3.54-.97.14-.64,6.28-4.2,7.17-4.34,2.88-.45,4.37.84,6.28,2.66.13-.09.79-.21,1.06-.18-.89-1.76-1.62-4.17-5.84-4.43Z" fill="#a1e2e3" stroke-width="0"/><path d="m87.92,27.63s.14.45-.35.35c.02.02.34.44.35.53l.09.35-3.63-.27,2.83,1.33c.93-.85,3.38-.87,3.81-.35.16.19-.17.24-.09.35.04.06-.19.34.71,1.24,2.25.11,4.47.29,6.73.18,0-.01.2.04.18-.18-.69-.02-3.8-.74-3.89-1.59-.11,0-.75-.28-1.86,0-.16-.06-.55-.85-.62-1.06-2.37-1.4-2.61.07-3.19-1.06-.27-.03-.93.09-1.06.18Z" fill="#a1e2e3" stroke-width="0"/><path d="m70.22,29.76c.16.7-1.52.19-3.01.35-.04,0-.08-.08-.71,0-.38.05-.71.24-1.06.35,2.53.06,5.08-.07,7.61,0-.92-1.66-2.15.23-2.83-.71Z" fill="#9bcaf0" stroke-width="0"/><path d="m78.01,30.29v.53c1.98.03,3.95-.04,5.93-.18v.35c-3.31.62-6.59.21-9.91.18-.07,0-.24.36-.44.35-.33-.02,0,.34.09.35,1.4.16,12.37-.45,17.44.18l.18-.35c-.73-.11-1.4-.15-2.12-.35-.4-.11-1.33-.68-1.59-1.06l-.53-.18c-3.09-.72-5.99.19-9.03.18Z" fill="#91d7e5" stroke-width="0"/><path d="m65.44,30.47c-.19.06-.4.27-1.06.18.02,0,.08.29.27.35.38.14,6.96.31,8.05.35,1.12.04.84.18.89.18.2,0,.37-.35.44-.35,3.32.03,6.61.44,9.91-.18v-.35c-1.98.13-3.94.21-5.93.18-1.62-.03-3.34-.31-4.96-.35-2.53-.07-5.08.06-7.61,0Z" fill="#263d6f" stroke-width="0"/><path d="m89.16,31.35c.72.2,1.4.24,2.12.35,1.41.22,6.3.69,7.08-.35-2.25.11-4.48-.07-6.73-.18-1.37-.07-2.77-.15-2.48.18Z" fill="#145387" stroke-width="0"/><path d="m90.22,29.94c1.63,1.39-2.04,1.04-2.12-.18-.23.09-.45.29-.53.53.26.38,1.19.95,1.59,1.06-.29-.33,1.1-.24,2.48-.18-.9-.9-.67-1.18-.71-1.24-.48-.38-.56.03-.71,0Z" fill="#ada6cb" stroke-width="0"/><path d="m87.21,29.94s.04.2-.18.18l.53.18c.08-.24.3-.44.53-.53,1.4-.56,1.99.15,2.12.18.14.03.23-.38.71,0-.08-.11.24-.17.09-.35-.43-.52-2.87-.49-3.81.35Z" fill="#7a7bb4" stroke-width="0"/><path d="m72.7,31.35c-.4.26-2.09,1.07-1.95,1.59,1.48,0,2.95,0,4.43,0,5.74.04,11.51.4,17.17-.8,0-.19-.79-.03-1.24-.09-5.07-.62-16.03-.02-17.44-.18-.09-.01-.42-.37-.09-.35-.05,0,.24-.14-.89-.18Z" fill="#0d2b46" stroke-width="0"/><path d="m78.01,30.29c3.04,0,5.94-.9,9.03-.18.22.02.17-.17.18-.18l-2.83-1.33,3.63.27-.09-.35c-6.85-1.82-2-1.9-.35-.53.5.09.33-.34.35-.35-1.92-1.81-3.4-3.1-6.28-2.66-.89.14-7.03,3.7-7.17,4.34-.25,1.1,1.4.97,3.54.97Z" fill="#f1eace" stroke-width="0"/><path d="m87.92,28.52c-.02-.09-.33-.51-.35-.53-1.64-1.37-6.5-1.29.35.53Z" fill="#89cac6" stroke-width="0"/><path d="m79.51,28.52c-.21-.03-2.29-.04-1.95.35,6,2.07,4.62-.02,1.95-.35Z" fill="#89cac6" stroke-width="0"/><path d="m88.1,29.76c.08,1.22,3.75,1.57,2.12.18-.13-.03-.72-.74-2.12-.18Z" fill="#d6d3eb" stroke-width="0"/><path d="m78,8.57c.06.1-.11.53.09.71,1.51.36,2.81,1.83,3.1,3.36-.23-.03-.49.04-.71,0-2.69-.51-2.17-1.82-2.83-2.57-3.21-3.62-6.91-3.22-10,.27-1.85-.96-4.74.35-5.22,1.95-.61,2,.16.63,1.06,1.59-1.58-.06-3.2-.03-4.78-.18-.34-.03-1.44.1-1.59-.09-.93-1.16,2.41-1.27,2.57-1.33,1.47-.52.99-2.74,3.19-1.95.8-1.44,1.51-.66,1.59-.71.17-.1.51-2.4,2.92-1.77,3.41-3.35,7.93-3.58,10.62.71Z" fill="#a1e2e3" stroke-width="0"/><path d="m71.99,10.87c.12.57-1.02,1.2-.62,1.42,3.44-1.53,5.03.88,8.41,1.06.53.03,1.06-.02,1.59,0-.05.25.11.47-.27.71-5.87,0-11.75.03-17.61-.18-.9-.96-1.67.41-1.06-1.59,1.53-.39,3.08.12,4.6,0,1.7-.13,3.15-1.81,4.96-1.42Z" fill="#91d7e5" stroke-width="0"/><path d="m81.19,12.64s.32,0,.18.71c-.53-.02-1.06.03-1.59,0-.12-.69.23-.43.71-.71.22.04.48-.03.71,0Z" fill="#ada6cb" stroke-width="0"/><path d="m80.48,12.64c-.48.28-.83.02-.71.71-3.38-.18-4.96-2.59-8.41-1.06-.4-.21.74-.85.62-1.42-.24-1.17-4.42.38-4.96,1.42-1.52.12-3.07-.39-4.6,0,.49-1.6,3.37-2.91,5.22-1.95,3.09-3.49,6.79-3.89,10-.27.66.75.14,2.05,2.83,2.57Z" fill="#f1eace" stroke-width="0"/><path d="m71.99,10.87c-1.81-.4-3.26,1.28-4.96,1.42.53-1.04,4.71-2.58,4.96-1.42Z" fill="#91d7e5" stroke-width="0"/><path d="m46.96,13.32l.53.53-3.81.18c-5.39,1.64-11.16.59-16.73.89-.08,0-.3-.14-1.59-.18-.99-.03-2.64,0-3.72,0-.59,0-1.18,0-1.77,0-3.28-.02-3.33.57-4.16.53-1.02-.66-2.19-.36-3.27-.53-2.21-.35-3.37-.08-3.01-1.24,3.6.05,7.2-.04,10.8,0,1.04.01,2.12.17,3.19.18,4.6.02,9.2-.02,13.81,0,.3,0,.59,0,.89,0,.47,0,1.02-.18,1.42-.18,2.46,0,4.96-.17,7.43-.18Z" fill="#0d2b46" stroke-width="0"/><path d="m14.21,9.42c-.08.19-.24.29-.18.53-.56.32-1.25-.2-2.12.18-1.5-.44,1.04-.73,2.48-1.42-.01.03.02.22-.18.71Z" fill="#0a5e80" stroke-width="0"/><path d="m17.22,12.26c-.22.49,3.89-.28,4.6-.71-.11.59.3.12,1.06,0,1.79-.27,1.49-.46.71,1.06-.05.03-.56.74-.8.71-.42-.05.2-1.56-2.57.18-3.6-.04-7.2.05-10.8,0-.24,0-.47,0-.71,0-.29,0-.59.01-.89,0-1.35-.07-1.88.21-1.33-.35.17-.17,3.78-1.94,4.43-1.59l.09-.35c.14-.39.52-.9.89-1.06.87-.38,1.56.15,2.12-.18,1.2,2.01,3.42-.27,3.63-.35,2.39-.98.78.72-1.24,1.77-5.64.22-5.47,2.41.8.89Z" fill="#a1e2e3" stroke-width="0"/><path d="m32.44,2.17c1.04,1.35,1.64,2.12,2.39,3.72.96.04,1.99-.12,2.92.18.07.02,1.14.79,1.24.89.25.25.46.61.71.89.08.09-.46.49,1.59,1.68.21,2.95,1.57-1.24,4.25,2.92-1.95-.04-3.89-.35-5.84-.35.48-1.44-1.01-1.57-1.59-2.21-.31-.34-.04-2.28-4.34-2.57-2.2-6.94-12.03-8.03-12.74-.18-3.07-.4-4.38.88-6.81,2.3.19-.48.16-.67.18-.71,1.38-3.5,3.21-2.76,3.63-3.01.47-.29.59-1.42,1.95-1.24.15-.13.26-.68.44-.89.55-.63.8-1.43,1.68-2.12,2.93-2.29,7.66-1.75,10.36.71Z" fill="#a1e2e3" stroke-width="0"/><path d="m29.79,11.37c1.07.12.84.18.89.18l-.18.35c-3.47.28-1.64,1.24,2.21,1.42.41-.32.99-.51,1.5-.53.61-.03,2.57.41,3.01.89-4.6-.02-9.2.02-13.81,0,1.43-1.72,3.54-1.84,5.31-2.66-.1.57.42.28,1.06.35Z" fill="#91d7e5" stroke-width="0"/><path d="m39.7,12.08c1.95,0,3.89.32,5.84.35-.13.41,1.31.7,1.77.71v.18c-.12,0-.24,0-.35,0-2.47.01-4.97.17-7.43.18-.52-.45-1.35-.39-1.95-.53-.07-.02.33-.64-1.15-.18-.43-.23-.41-.35-.44-.35,1.22-.36,2.46-.36,3.72-.35Z" fill="#335d9a" stroke-width="0"/><path d="m29.79,10.31s.37.03.09.35c-.37.05-.82.2-1.15.35-1.77.82-3.88.94-5.31,2.66-1.07,0-2.15-.17-3.19-.18,2.76-1.74,2.15-.23,2.57-.18.24.03.75-.68.8-.71.88-.52,1.81-.85,2.66-1.42,1.22-.18,2.35-.58,3.54-.89Z" fill="#4d7eb0" stroke-width="0"/><path d="m35.98,12.43s.02.13.44.35c1.48-.46,1.08.16,1.15.18l-.35.09.89.62c-.3,0-.59,0-.89,0-.44-.48-2.4-.91-3.01-.89l1.06-.71c.62-.15.46.31.71.35Z" fill="#7a7bb4" stroke-width="0"/><path d="m37.57,12.96c.6.14,1.42.08,1.95.53-.39,0-.95.18-1.42.18l-.89-.62.35-.09Z" fill="#a9c6ee" stroke-width="0"/><path d="m21.82,11.55c-.72.43-4.83,1.2-4.6.71,2.35-.57,4.19-1.67,6.28-2.83l-1.68,2.12Z" fill="#47b8d5" stroke-width="0"/><path d="m30.67,11.55s.19-.06-.89-.18c-.84-.26-.4-.41.53-.71,2.06-.67,4.49-1.73,5.84-.09-.09.62-4.74.99-5.49.97Z" fill="#91d7e5" stroke-width="0"/><path d="m30.49,11.9c1.31-.11,3.22.38,4.78.18l-1.06.71c-.51.02-1.09.21-1.5.53-3.85-.18-5.68-1.14-2.21-1.42Z" fill="#ae98ce" stroke-width="0"/><path d="m39.7,12.08c-1.26,0-2.49,0-3.72.35-.25-.05-.09-.5-.71-.35-1.56.2-3.47-.28-4.78-.18l.18-.35c.74.02,5.4-.36,5.49-.97-1.35-1.64-3.78-.58-5.84.09.95-2,4.04-1.64,3.98-2.3-2.82.07-2.97,1-4.51,1.95-1.19.31-2.32.71-3.54.89-3.95.57.29-.74,2.39-2.66.29-.27.39-.35,0-.35-.74-.01-4.97,2.51-5.75,3.36-.77.12-1.17.59-1.06,0l1.68-2.12c-2.09,1.17-3.93,2.26-6.28,2.83-6.26,1.53-6.43-.66-.8-.89,2.02-1.05,3.63-2.75,1.24-1.77-.21.09-2.42,2.36-3.63.35-.06-.24.1-.34.18-.53,2.43-1.42,3.74-2.7,6.81-2.3.71-7.85,10.55-6.76,12.74.18,4.3.28,4.03,2.22,4.34,2.57.58.65,2.07.77,1.59,2.21Z" fill="#f1eace" stroke-width="0"/><path d="m26.25,11.19c-.85.56-1.78.89-2.66,1.42.78-1.52,1.08-1.34-.71-1.06.79-.85,5.01-3.38,5.75-3.36.39,0,.29.09,0,.35-2.1,1.92-6.34,3.23-2.39,2.66Z" fill="#91d7e5" stroke-width="0"/><path d="m30.32,10.66c-.93.3-1.37.45-.53.71-.64-.07-1.17.21-1.06-.35.33-.15.78-.3,1.15-.35.28-.33-.1-.34-.09-.35,1.55-.95,1.7-1.87,4.51-1.95.06.66-3.04.3-3.98,2.3Z" fill="#89cac6" stroke-width="0"/><path d="m24.03,7.48c2.09-.12-4.96,2.91-5.04,2.57,1-.66,4.07-2.51,5.04-2.57Z" fill="#89cac6" stroke-width="0"/><path d="m18.13,23.64c2.23.82,2.93,2.95,3.8,3.55,1.05.73.81-.09,2.54.76-1.45,1.54.79,1.79,1.01,2.03.42.46.87,1.02,1.01,1.65-.56.73-16.08.43-18.26.38-2.74-.07-5.49-.45-8.24-.25.44-.5,1.21-.65,2.16-1.27,2.62-1.63,3.58.21,5.32-1.77.37-.42.7-1.46.76-1.52,2.77-3.19,5.5-5.16,9.89-3.55Z" fill="#a1e2e3" stroke-width="0"/><path d="m7.48,28.71c-1.75,1.99-2.71.14-5.32,1.77.24-.16.05-1.56,5.32-1.77Z" fill="#0a5e80" stroke-width="0"/><path d="m13.19,25.67c4.16-.46,9.53,3.63,9,4.69-1.27.35-10.03.82-10.52.63-.51-.19-.62-1.44-.76-1.52-.23-.14-5.27.95-1.27-2.28.49-.4,3.04-1.46,3.55-1.52Z" fill="#f1eace" stroke-width="0"/></g></svg>