<?xml version="1.0" encoding="UTF-8"?><svg id="Layer_2" xmlns="http://www.w3.org/2000/svg" xmlns:xlink="http://www.w3.org/1999/xlink" viewBox="0 0 117.09 154.72"><defs><linearGradient id="linear-gradient" x1="51.61" y1="76.66" x2="33.8" y2="92.12" gradientUnits="userSpaceOnUse"><stop offset="0" stop-color="#ca1450"/><stop offset=".78" stop-color="#430915"/></linearGradient></defs><g id="Layer_1-2"><path d="m67.66,67.26c5.39,1.73,12.98,4.06,17.69,7.08l9.04,25.35c-3.58.77-6.89,2.29-10.22,3.73-2.07-3.54-4.02-7.55-7.47-9.92-2.04-5.69-4.1-11.36-6.29-17-1.21-3.12-2.27-6.35-3.54-9.43.44-.09.57.13.79.2Z" style="fill:#625b85; stroke-width:0px;"/><path d="m86.92,75.12c.06.05.3.49.39.59,2.72,2.85,9,18.14,11.99,22.7l-.79.69c-1.4.09-2.76.3-4.13.59l-9.04-25.35c.24.15,1.49.71,1.57.79Z" style="fill:#2e3560; stroke-width:0px;"/><path d="m103.04,100.87c-.52-.2-1.46-1.89-1.67-1.97-.74-.25-2.08.15-2.85.2l.79-.69c-2.99-4.55-9.27-19.85-11.99-22.7.86.46,3.51,1.6,3.93,2.06.87.96,10.09,20.11,11.79,23.09Z" style="fill:#162040; stroke-width:0px;"/><path d="m83.19,103.82c-.95.43-2.01.92-2.95,1.38-1.76.86-3.6,1.67-5.11,2.95-.32-.66-.85-1.31-1.18-1.97l3.34-3.64-3.34-3.83c.99-.94,1.67-2.07,2.95-2.75.43-.23.64-.7.79-.49l5.5,8.35Z" style="fill:#625b85; stroke-width:0px;"/><path d="m84.17,103.42c-.32.14-.68.25-.98.39l-5.5-8.35c-.15-.21-.35.26-.79.49.03-.4.28-.6.2-1.08-.17-.96-6.12-15.32-6.68-18.38,2.19,5.64,4.25,11.31,6.29,17,3.45,2.37,5.4,6.39,7.47,9.92Z" style="fill:#5c1c49; stroke-width:0px;"/><path d="m3.98,5.35c.7,1.13,1.25,2.43,1.97,3.54-.13-.03-.28-.13-.39-.2-1.18-.75-3.04-4.91-3.93-6.09-.07-.47.2-.37.2-.39.76,1.02,1.49,2.07,2.16,3.14Z" style="fill:#362333; stroke-width:0px;"/><path d="m1.82,2.21s-.27-.07-.2.39C1.07,1.86.23,2.07.05,1.52-.38.21,1.89-1.41,1.82,2.21Z" style="fill:#ae2c54; stroke-width:0px;"/><path d="m33.86,93.79c.06.07-.07.61,0,.69,2.27,2.53,4.57,5,6.68,7.66,1.07,1.35,5.85,8.49,6.29,8.84.43.35,3.57,1.45,4.32,1.67-1.98,3.04-.04,7.09,3.83,5.5.77-.31,3.36-2.58,5.99-3.24-.42-.27-.44-.68-.59-1.08.64.61,1.1,1.43,1.57,2.16-.91-.44-3.82,2.35-5.11,3.44.58,1.06.19,1.03.2,1.08-.54-.18-2.91,2.1-4.13,3.14-2.8,2.4-5.45,4.67-7.66,7.66-.38.51-2.72,3.79-2.75,4.03-.07.58,1.47,2.89,1.57,4.03-.39-.5-.53-1.1-1.18-1.38-2.75-4.86-14.46-19.24-16.12-22.4-.22-.43-.56-.84-.79-1.28v-.88c.4-2.62.7-5.26,1.18-7.86.07-.39.12-.8.2-1.18.36-1.77.94-3.55,1.38-5.31.17-.66.41-1.31.59-1.97,1.07-4,2.28-5.24.79-6.68.58.64,2.62,2.1,3.73,3.34Z" style="fill:#0d2640; stroke-width:0px;"/><path d="m60.39,113.84c.15.4.17.81.59,1.08-2.64.66-5.23,2.93-5.99,3.24-3.87,1.59-5.81-2.46-3.83-5.5.33.1,0,.45.69.39l5.99-3.34c.85,1.34,1.98,2.64,2.55,4.13Z" style="fill:#162040; stroke-width:0px;"/><path d="m73.95,106.17c-.84-1.7-1.69-3.42-2.55-5.11.87-.76,1.72-1.56,2.55-2.36l3.34,3.83-3.34,3.64Z" style="fill:#162040; stroke-width:0px;"/><path d="m92.62,146.07c.29.58.7,2.55.79,3.34-.07,0,.54.38-1.18.39-3.41-2.77-5.18.1-7.47-5.31.46.65,1.37,1.59,1.87,2.36,5.11-.77,6.06,3.66,5.99-.79Z" style="fill:#e9d718; stroke-width:0px;"/><path d="m88.49,128.58l8.06,3.24c.88,2.7,4.63,9.62,2.55,8.55-.78-.51-1.28-1.01-1.97-1.57-2.71-2.55-4.97-5.52-6.98-8.65-.66.24,3.71,5.74,4.23,6.29l-.59,1.18c-1.2-1.23-.48-1.27-.69-1.38-.14-.07-1.03-.14-1.08.29-.06.48,5.95,5.02,6.88,6.88,1.3,5.6,3.17,7.22-.79,6.58-.06-.01-.13,0-.2,0-2.22-1.14-3.96-4.5-5.31-6.88-.2-.36-.38-.79-.59-1.18-1.44-2.62-1.41-3.52-1.57-3.64-1.48-1.06.64,2.52-.2,4.23-.41-.64-4.53-5.16-5.21-5.7-3.86-3.07,3.81,4.79,5.21,6.49.56.67,1.57,1.57,1.97,2.16.14.2.28.36.39.59.07,4.44-.89.01-5.99.79-.5-.77-1.4-1.71-1.87-2.36-.03-.04-.6-.4-.79-.69.65-2.36-.05-4.27-.98-6.39-1.65-3.74.11.39-1.97-1.28-.88-.71-3.72-5.66-4.32-6.29-.43-.46-.73-.41-.39.1-.53.11-1.03.16-1.57.2-.13,0-.26,0-.39,0-.03-.02-.31-.54-.49-.59-.94-.26-3.22.67.49.59.02.02-.04.03.39.39.77.64,1.61,1.39,1.97,2.36.34,1.56,1.03,2.9,1.18,4.52.08.94.41,1.46-.1,1.38-2.68-2.1-5.21-4.47-7.96-6.49-1.09-.8-.21-.07-.2.2,0,.02-.34,0-.2.39-1.1-.34-2.23-.15-3.34-.2v-.39c.39.03,1.98-.92,2.55-1.18,2.47-1.09,4.91-2.73,5.21-2.75.47-.03.87.4,1.67.39.24,0-.07-.8,1.87,0-.49-1.81,2.08-1.98-2.06-.59-1.24-1.54,2.73-1.32,3.54-1.38.33-.02,1.21.1,1.38-.1.3-.36-.75-1.55-.59-2.06.29-.24,1.19-.31,1.57-.59l1.97.39c1.01.38-.48-1.98-.2-2.46,2.81.12,2.26,1.56,2.95,2.55.24.35,2.34,2.95,2.36,3.14,0,.07-1.01.49-.98.59.14.57,1.11.28,1.18.29Z" style="fill:#f3ec10; stroke-width:0px;"/><path d="m93.8,137.62c1.03,1.05,4.66,4.42,5.11,5.21.19.33,1.94,5.68,1.97,5.99.07.97-.12,1.64-1.18,1.77-.56.07-1.29,0-1.57-.59,3.95.63,2.08-.98.79-6.58-.93-1.86-6.94-6.4-6.88-6.88.06-.44.95-.37,1.08-.29.2.11-.51.15.69,1.38Z" style="fill:#bea930; stroke-width:0px;"/><path d="m92.42,129.36c1.14,2.04,3.26,1.22,4.32,2.26.34.33,3.51,8.37,3.54,8.84.08,1.53-.84.12-1.18-.1,2.07,1.07-1.67-5.85-2.55-8.55l-8.06-3.24c1.82.5,4.25,2.03,3.93.79Z" style="fill:#bea930; stroke-width:0px;"/><path d="m97.14,138.8c-1.01-.82-1.84-1.38-2.75-2.36-.51-.55-4.88-6.04-4.23-6.29,2.01,3.13,4.27,6.09,6.98,8.65Z" style="fill:#bea930; stroke-width:0px;"/><path d="m92.03,141.94c-.46.1.47,1.72.59,1.18,1.34,2.38,3.09,5.74,5.31,6.88-.62-.07-.9-.35-1.77-.39-2.24-3.63-4.47-8.71-3.93-4.13-.4-.59-1.41-1.49-1.97-2.16l.39.1c-.08-.3-.23-.63-.39-.88.83-1.7-1.29-5.28.2-4.23.16.12.14,1.01,1.57,3.64Z" style="fill:#bea930; stroke-width:0px;"/><path d="m90.26,142.53c.16.26.32.59.39.88l-.39-.1c-1.39-1.69-9.07-9.56-5.21-6.49.67.54,4.8,5.06,5.21,5.7Z" style="fill:#bea930; stroke-width:0px;"/><path d="m82.99,137.42c-2.03-.35-4.1-3.51-5.5-5.5-.35-.49-.68-1.44-1.18-1.97-.34-.51-.04-.55.39-.1.6.63,3.44,5.58,4.32,6.29,2.08,1.67.32-2.46,1.97,1.28Z" style="fill:#bea930; stroke-width:0px;"/><path d="m76.31,129.95c.5.52.83,1.47,1.18,1.97-1.28.16-.26.56-.79.98-.35-.97-1.19-1.72-1.97-2.36v-.39c.54-.04,1.04-.09,1.57-.2Z" style="fill:#e0d298; stroke-width:0px;"/><path d="m78.86,126.81c-.9-.68,0-1.53.79-2.16-.16.52.89,1.7.59,2.06-.16.2-1.05.08-1.38.1Z" style="fill:#fc9b4e; stroke-width:0px;"/><path d="m75.52,128.77c.04-.21-.07-.44-.2-.59,4.14-1.39,1.57-1.22,2.06.59-1.93-.8-1.63,0-1.87,0Z" style="fill:#9f7507; stroke-width:0px;"/><path d="m85.35,131.92c.46.59,1.83,1.82,1.87,2.75-.81-.8-1.28-1.8-1.87-2.75Z" style="fill:#bea930; stroke-width:0px;"/><path d="m85.35,131.92c-.36-.46-1.16-1.02-1.08-1.77.59.44.73,1.2,1.08,1.77Z" style="fill:#bea930; stroke-width:0px;"/><path d="m92.62,143.12c-.12.54-1.05-1.08-.59-1.18.21.39.39.82.59,1.18Z" style="fill:#9f7507; stroke-width:0px;"/><path d="m77.88,137.42c1.63,3.08-.83,1.4-2.36.39-2.13-1.4-3.95-3.48-5.7-5.31v-.2c2.75,2.01,5.28,4.39,7.96,6.49.5.08.18-.44.1-1.38Z" style="fill:#bea930; stroke-width:0px;"/><path d="m74.34,130.15c-3.71.08-1.43-.85-.49-.59.18.05.46.57.49.59Z" style="fill:#691801; stroke-width:0px;"/><path d="m69.82,132.31v.2h-.2c-.01-.27-.89-.99.2-.2Z" style="fill:#876208; stroke-width:0px;"/><path d="m74.74,130.15v.39c-.44-.36-.37-.38-.39-.39.13,0,.26,0,.39,0Z" style="fill:#544305; stroke-width:0px;"/><path d="m86.92,119.34c2.52,2.21,4.5,8.24,5.5,10.02.32,1.24-2.11-.29-3.93-.79-.07-.02-1.04.28-1.18-.29-.02-.1.99-.52.98-.59-.02-.2-2.11-2.79-2.36-3.14-.69-.99-.14-2.44-2.95-2.55-.29.48,1.21,2.84.2,2.46.05-.67-.57-1.68-.59-1.77-.03-.16-.17-1.14-.1-1.18,3.94,1.28.37-.51,4.42-2.16Z" style="fill:#f3ec10; stroke-width:0px;"/><path d="m87.81,124.65l1.08.49c-.41.29-1.12,0-1.08-.49Z" style="fill:#d5ba23; stroke-width:0px;"/><path d="m86.92,119.34c-4.05,1.65-.48,3.44-4.42,2.16-.08.04.07,1.02.1,1.18-1.07.26-1.3,1.32-1.38,1.38-.38.28-1.28.35-1.57.59-.78.63-1.69,1.48-.79,2.16-.81.06-4.78-.17-3.54,1.38.12.15.23.38.2.59-.8,0-1.2-.42-1.67-.39-.29.02-2.73,1.66-5.21,2.75-.3-1.03,2.54-.83,1.18-2.16,1.15-.65,2.21-1.5,3.34-2.16.05-.03.17-.06.39-.2.81-.47,2.58-.86,2.95-1.97.07,0,.13,0,.2,0,.6.05,4.05-2.74,4.52-3.54,2.29-.87,4.2-2.51,6.29-3.73.15,1.01.22,1.14-.59,1.97Z" style="fill:#b9283b; stroke-width:0px;"/><path d="m61.96,116c1.14,1.77,2.2,3.6,3.44,5.31.22.07,2.78-1.16,3.24-1.38.1.01.35.33.39.39,1.38,2.16,2.68,4.37,4.13,6.49-1.13.66-2.19,1.51-3.34,2.16-.34.19-7.32,3.06-3.73,3.34v.39c-.73-.03-2.68.14-3.14-.1-1.56-2.65-5.4-9.5-5.9-12.09-.01-.05.39-.02-.2-1.08,1.29-1.09,4.2-3.88,5.11-3.44Z" style="fill:#0e1022; stroke-width:0px;"/><path d="m69.82,128.97c1.36,1.34-1.48,1.13-1.18,2.16-.58.25-2.16,1.21-2.55,1.18-3.59-.29,3.4-3.15,3.73-3.34Z" style="fill:#a51d3f; stroke-width:0px;"/><path d="m82.6,122.68c.02.09.64,1.09.59,1.77l-1.97-.39c.08-.06.3-1.12,1.38-1.38Z" style="fill:#e26c3d; stroke-width:0px;"/><path d="m76.7,116.59c-.18.71,2.04,4.3,2.95,4.72.29.13.41.44.69.39.52-.67.81-.56.88-.59-.47.8-3.92,3.59-4.52,3.54-4.73-7.06-5.96-6.46-.2,0-.37,1.1-2.14,1.49-2.95,1.97l-4.52-6.29c-.04-.07-.29-.38-.39-.39,1.15-.52,1.68-.94,1.77-.98,1.43-.72,2.77-1.51,4.13-2.36,1.02-.63,2.15-.68,2.95-2.36.08,1.79-.53,1.35-.79,2.36Z" style="fill:#1d1227; stroke-width:0px;"/><path d="m80.24,105.19c1.64,2.79,6.86,9.34,7.27,12.18-2.09,1.22-4,2.86-6.29,3.73-.07.03-.36-.08-.88.59-.27.04-.4-.26-.69-.39-.71-1.53-.16-1.59-.2-1.67-.08-.2-.95.23-2.75-3.05.25-1.01.86-.56.79-2.36-.07-1.75-1.51-4.34-2.36-6.09,1.51-1.28,3.35-2.09,5.11-2.95Z" style="fill:#1d1227; stroke-width:0px;"/><path d="m79.65,121.31c-.91-.41-3.13-4.01-2.95-4.72,1.8,3.28,2.67,2.85,2.75,3.05.03.08-.52.14.2,1.67Z" style="fill:#f9ecea; stroke-width:0px;"/><path d="m79.35,113.64l3.54,4.91-1.87-1.47-1.67-3.44Z" style="fill:#c7bfcb; stroke-width:0px;"/><path d="m73.56,126.61c-.23.13-.34.17-.39.2-1.44-2.12-2.75-4.32-4.13-6.49l4.52,6.29Z" style="fill:#c7bfcb; stroke-width:0px;"/><path d="m76.7,124.65c-.06,0-.13,0-.2,0-5.76-6.46-4.54-7.06.2,0Z" style="fill:#dad6e0; stroke-width:0px;"/><path d="m17.55,103.62s0,.05.2.2c.02.02.09.36.39.39.33.27.56.14.79.2.1.21.26.41.39.59-1.68-.04-4.17,3.33-6.68,4.32-.77-2.44-1.96-4.72-2.95-7.08,1.41-.64,3.55-1.44,4.32-2.75,1.13,1.27,2.26,3.07,3.54,4.13Z" style="fill:#29203f; stroke-width:0px;"/><path d="m20.49,124.65c-.59.27.79,2.61,1.18,3.24,2.5,4.06,8.08,10.19,11.89,13.27,1.28-.29,2.41,1.51,2.85.39.06.05.52-.21.39.59-.34.19-.78.43-.98.79h-1.08c-5.42-3.51-11.46-10.64-14.84-16.12-.15-.24-.31-.45-.39-.59-2.03-3.39-3.91-7.51-5.31-11.2-.07-.18.15-.59-.2-.59-.12-.73-.32-1.47-.59-2.16.22-.09.38-.26.59-.39.98,3.77,4.27,9.34,6.49,12.77Z" style="fill:#0884a7; stroke-width:0px;"/><path d="m48.2,150.59c.24.75.37,1.6.59,2.36.18.63.84,1.61.49,1.77-.96-.99-2.19-1.69-3.24-2.55-.8-.66-1.55-1.49-2.36-2.16-1.02-.85-2.15-1.7-3.14-2.55,1.47-.88,4.17-3.21,5.11-4.52.58,2.63,1.75,5.11,2.55,7.66Z" style="fill:#1d1227; stroke-width:0px;"/><path d="m19.31,104.99c.55.73,1.18,1.46,1.77,2.16-.59.4-1.19.77-1.77,1.18-.79.55-1.56,1.23-2.36,1.77-.58.39-1.19.79-1.77,1.18-.05.04-.72.31-1.18.59-.21.13-.36.3-.59.39-.32-.83-.49-2.05-.79-2.95,2.52-1,5-4.36,6.68-4.32Z" style="fill:#5a0f23; stroke-width:0px;"/><path d="m12.83,97.92c-.82.29-1.62.73-2.36,1.18-.23-1.08-3.06-4.1-2.75-4.82.06-.13.76-.28.79-.39.01-.05-.64-.71-.69-.69-.38.17.11.66.1.69-.56,1.28-3.43-5.34-3.93-4.03-.25-.64-.94-1.06-.29-1.77,2.98,3.34,6.14,6.51,9.14,9.83Z" style="fill:#37719e; stroke-width:0px;"/><path d="m10.47,99.1c-.57.35-1.8,1.09-1.77,1.38-1.44-3.35-3.54-7.63-4.72-10.61.5-1.31,3.37,5.31,3.93,4.03.01-.03-.47-.52-.1-.69.04-.02.7.64.69.69-.03.12-.73.26-.79.39-.31.72,2.52,3.74,2.75,4.82Z" style="fill:#4283ae; stroke-width:0px;"/><path d="m12.83,97.92c.82.91,1.11,1.5,1.18,1.57-.78,1.31-2.92,2.11-4.32,2.75-.24-.58-.72-1.16-.98-1.77-.03-.29,1.19-1.03,1.77-1.38.74-.45,1.53-.89,2.36-1.18Z" style="fill:#4c1229; stroke-width:0px;"/><path d="m22.85,113.05c1.02,1.28,2.04,2.97,3.93,2.55,1.66,3.16,13.36,17.55,16.12,22.4-1.02.66-1.95,1.48-2.95,2.16-.31.21-.56.18-.59.2-1.46-2.15-3.92-4.14-5.5-6.09-1.94-2.38-3.82-5.18-5.5-7.76-1.3-2-8.05-13.77-8.25-15.13-.05-.3-.04-.55.29-.49.84.71,1.33,2.4,2.46,2.16Z" style="fill:#9390a5; stroke-width:0px;"/><path d="m24.03,110.69c.65.9,1.03,2.05,1.97,2.75v.88c.22.44.56.85.79,1.28-1.89.41-2.91-1.27-3.93-2.55-.49-.61-1.78-3.23-3.54-4.72.58-.41,1.18-.78,1.77-1.18.97,1.17,2.06,2.3,2.95,3.54Z" style="fill:#4c5f84; stroke-width:0px;"/><path d="m44.08,139.39c.31.4.65.8.98,1.18-.97.79-1.99,1.56-2.95,2.36l-2.16-2.75c1-.68,1.93-1.5,2.95-2.16.65.27.79.88,1.18,1.38Z" style="fill:#553546; stroke-width:0px;"/><path d="m16.96,110.1c2.94,4.54,4.83,9.86,7.86,14.45,1.46,2.2,6.84,9.19,9.04,9.73,1.58,1.95,4.04,3.95,5.5,6.09-.83.56-1.41,1.15-2.55,1.77.13-.8-.34-.54-.39-.59-1.79-1.6-3.79-3.04-5.5-4.72-7.2-7.04-12.21-16.2-15.72-25.55.58-.39,1.19-.79,1.77-1.18Z" style="fill:#37719e; stroke-width:0px;"/><path d="m15.19,111.28c3.51,9.35,8.52,18.51,15.72,25.55-.18-.01-.28.31-.49.2-1.41-.73-8.63-10.37-9.92-12.38-2.22-3.43-5.51-9-6.49-12.77.46-.28,1.12-.55,1.18-.59Z" style="fill:#0d96c3; stroke-width:0px;"/><path d="m30.91,136.83c1.71,1.68,3.71,3.12,5.5,4.72-.44,1.12-1.57-.68-2.85-.39-3.81-3.07-9.39-9.2-11.89-13.27-.39-.63-1.77-2.97-1.18-3.24,1.3,2.01,8.51,11.65,9.92,12.38.21.11.31-.21.49-.2Z" style="fill:#0884a7; stroke-width:0px;"/><path d="m42.11,142.93c-1.1.92-2.26,1.8-3.14,2.95-1.08-.95-2.32-1.72-3.14-2.95.21-.36.64-.6.98-.79,1.14-.62,1.72-1.21,2.55-1.77.03-.02.28.02.59-.2l2.16,2.75Z" style="fill:#0e1022; stroke-width:0px;"/><path d="m45.65,142.93c-.94,1.31-3.64,3.64-5.11,4.52-.59-.51-1.05-1.11-1.57-1.57.89-1.15,2.04-2.03,3.14-2.95.96-.8,1.98-1.57,2.95-2.36.29.34,1.09.57,1.38,1.08.11.54-.59,1.01-.79,1.28Z" style="fill:#920a2b; stroke-width:0px;"/><path d="m22.85,113.05c-1.13.23-1.62-1.46-2.46-2.16-.34-.06-.34.19-.29.49.21,1.36,6.95,13.13,8.25,15.13,1.68,2.58,3.57,5.38,5.5,7.76-2.2-.54-7.58-7.53-9.04-9.73-3.03-4.58-4.92-9.91-7.86-14.45.79-.53,1.56-1.21,2.36-1.77,1.75,1.49,3.05,4.11,3.54,4.72Z" style="fill:#5a748e; stroke-width:0px;"/><path d="m92.03,74.14c3.16,6.51,7.85,13.71,11.6,20.64.87,1.62,2.23,4.56,3.14,5.11-1.04.52-2.14,1.16-3.14,1.77l-.59-.79c-1.7-2.98-10.92-22.13-11.79-23.09-.42-.46-3.07-1.61-3.93-2.06-.09-.1-.33-.54-.39-.59.29-.96-.18-2.52-.39-3.54,1.23-.6,2.19-1.63,3.34-2.36.56,1.68,1.39,3.32,2.16,4.91Z" style="fill:#37719e; stroke-width:0px;"/><path d="m112.47,103.62c1.65,4.67,3.55,9.32,4.62,14.15-3.28-3.8-6.18-7.89-9.34-11.79,2.17-.97,2.04-1.51,2.16-1.57.28-.15,2.44-.72,2.55-.79Z" style="fill:#1d1227; stroke-width:0px;"/><path d="m111.68,98.12c-.16-.51-.39-.56-.39-.59-.43-1.92-.53-4.54-1.57-7.96-2.45-8.05-8.07-18.76-15.13-23.68v-.2s.31-.45.69-.2c7.95,5.48,15.42,21.19,16.61,30.56.07.52.43,2.68-.2,2.06Z" style="fill:#509ccb; stroke-width:0px;"/><path d="m108.34,99.3c.09,1.54,1.13,1.77,1.57,2.95-.03.02-.36.57-.39.59-.6.42-2.89.99-2.55,2.16-.73-.9-2.38-2.06-3.34-3.34,1-.61,2.1-1.25,3.14-1.77.39-.19,1.2-.39,1.57-.59Z" style="fill:#1d1227; stroke-width:0px;"/><path d="m87.12,68.44c-.35.26-.47.99-1.18.79-.74-2.55-1.85-4.98-2.75-7.47.36-.07.88-.38,1.18-.59l2.75,7.27Z" style="fill:#2e3560; stroke-width:0px;"/><path d="m112.47,100.87c.58,1.14,1.73,1.7,0,2.75-.11.07-2.28.63-2.55.79l-.39-1.57s.36-.57.39-.59c.33-.23.52-.4.79-.59.23-.16,1.46-.9,1.77-.79Z" style="fill:#b9283b; stroke-width:0px;"/><path d="m90.07,66.47l.79,1.97c-.35.06-.55.57-.59.59-.04.02-.13.03-.39.2-1.15.73-2.11,1.76-3.34,2.36-.17-.79-.37-1.59-.59-2.36.7.2.83-.52,1.18-.79.71-.53,2.42-1.88,2.55-1.97.06-.04.33.04.39,0Z" style="fill:#5a0f23; stroke-width:0px;"/><path d="m93.41,64.71c.47.37.51.54,1.18.98v.2l-3.54,2.55h-.2l-.79-1.97c.91-.59,1.91-1.06,2.75-1.77.12.05.4-.03.59,0Z" style="fill:#b9283b; stroke-width:0px;"/><path d="m79.65,49.77c.37.63-.44.24-.2.88.33.87,4.27,7.04,5.11,8.16.03.04-.03.16,0,.2-.3.22-.56.18-.59.2-2.21-2.36-3.13-5.56-4.91-8.06-.1-.25-.12-.34-.2-.59l.79-.79Z" style="fill:#97a4b7; stroke-width:0px;"/><path d="m83.97,59.2c-.39.2-.91.78-1.38.98-1.14-3.06-2.33-6.01-3.54-9.04,1.78,2.49,2.7,5.7,4.91,8.06Z" style="fill:#5a748e; stroke-width:0px;"/><path d="m111.68,98.12c-.79,1.74.42,2.03.79,2.75-.31-.11-1.54.62-1.77.79-.47-1.4-.73-2.27-.79-3.34.46-.27.96-.43,1.38-.79,0,.03.23.08.39.59Z" style="fill:#553546; stroke-width:0px;"/><path d="m109.52,102.83l.39,1.57c-.12.07,0,.6-2.16,1.57-.26-.32-.52-.66-.79-.98-.33-1.17,1.96-1.74,2.55-2.16Z" style="fill:#920a2b; stroke-width:0px;"/><path d="m85.55,59.99c-.07.05.1.29-1.18,1.18-.3.21-.82.52-1.18.59-.19-.52-.4-1.05-.59-1.57.46-.2.99-.78,1.38-.98.03-.02.29.03.59-.2.04.05.27-.15.98.98Z" style="fill:#920a2b; stroke-width:0px;"/><path d="m87.9,58.81c-.24-.02-.19.19-.2.2-.55.37-1.21.63-1.77.98-.06.04-.33-.04-.39,0-.71-1.14-.94-.93-.98-.98-.03-.04.03-.15,0-.2.79-.13,1.34-.76,1.97-1.18.03-.02.22.04.2-.2.41.45.78.94,1.18,1.38Z" style="fill:#b9283b; stroke-width:0px;"/><path d="m86.72,57.43c.02.24-.17.18-.2.2-8.57-9.5-8.47-9.82.2-.2Z" style="fill:#8b848b; stroke-width:0px;"/><path d="m93.41,64.71c-.19-.03-.47.05-.59,0-.5-.19-4.32-4.81-5.11-5.7.01,0-.04-.22.2-.2,1.47,1.6,4.06,4.75,5.5,5.9Z" style="fill:#826f7a; stroke-width:0px;"/><path d="m79.65,49.77l-.79.79s-.37.07-.39-.1c-.1-.87.75-1.43,1.18-.69Z" style="fill:#3b3a4c; stroke-width:0px;"/><path d="m91.05,68.44c.41.07,3.76,4.94,4.32,5.7-.13,2.13,1.75,3.5,2.75,5.21.02.03-.38.14,0,.79.85,1.45,2.11,2.86,2.95,4.32,1.31,2.29,2.57,4.65,3.54,7.17-.21-.25-1.18-1.55-1.28-1.57-.06-.01-1.06.44-1.08.49-.08.24,2.79,3.96,1.38,4.23-3.74-6.92-8.43-14.13-11.6-20.64,1.75.47-.8-5.09-1.77-5.11.04-.02.24-.53.59-.59h.2Z" style="fill:#a1a2b5; stroke-width:0px;"/><path d="m104.61,91.63c1.35,1.63.92,2.55,1.77,1.38.91,1.9,1.68,3.89,2.75,5.7-.17.09-.62.5-.79.59-.38.2-1.18.4-1.57.59-.91-.55-2.27-3.49-3.14-5.11,1.41-.27-1.46-3.99-1.38-4.23.02-.06,1.02-.5,1.08-.49.1.02,1.07,1.32,1.28,1.57Z" style="fill:#97a4b7; stroke-width:0px;"/><path d="m90.26,69.03c.97.02,3.52,5.58,1.77,5.11-.77-1.59-1.6-3.23-2.16-4.91.26-.17.35-.17.39-.2Z" style="fill:#9390a5; stroke-width:0px;"/><path d="m111.29,97.53c-.42.35-.91.52-1.38.79-.26.15-.54.26-.79.39-1.08-1.81-1.84-3.8-2.75-5.7-3.48-7.27-6.19-12.36-11.01-18.87-.56-.76-3.91-5.63-4.32-5.7l3.54-2.55c7.06,4.92,12.68,15.63,15.13,23.68,1.04,3.42,1.15,6.04,1.57,7.96Z" style="fill:#f9ecea; stroke-width:0px;"/><path d="m110.7,101.65c-.26.19-.45.36-.79.59-.44-1.18-1.49-1.41-1.57-2.95.17-.09.61-.5.79-.59.25-.13.53-.24.79-.39.06,1.07.31,1.94.79,3.34Z" style="fill:#362333; stroke-width:0px;"/><path d="m92.82,64.71c-.84.71-1.84,1.17-2.75,1.77-.06.04-.33-.04-.39,0l-3.73-6.49c.55-.36,1.22-.61,1.77-.98.79.89,4.61,5.51,5.11,5.7Z" style="fill:#d2d3d5; stroke-width:0px;"/><path d="m85.94,59.99l3.73,6.49c-.13.09-1.85,1.44-2.55,1.97l-2.75-7.27c1.28-.88,1.11-1.13,1.18-1.18.06-.04.33.04.39,0Z" style="fill:#29203f; stroke-width:0px;"/><path d="m106.38,93.01c-.85,1.18-.41.26-1.77-1.38-.97-2.53-2.23-4.88-3.54-7.17-.84-1.47-2.1-2.87-2.95-4.32-.38-.65.02-.75,0-.79-1-1.71-2.88-3.08-2.75-5.21,4.81,6.51,7.53,11.6,11.01,18.87Z" style="fill:#c7bfcb; stroke-width:0px;"/><path d="m5.95,8.89c.07.11.16.26.2.39-.38.8-.77,4.87-.79,5.99,0,.21.35,2.79.39,4.13,0,.04-.41.47-.39.79,0,.04.39.55.39.59.55,10.94,2.84,24.6,6.09,35.08.41,1.31,2.5,8.29,3.44,8.45,2.04.35-1.06-2.63-.29-4.13.48,1.27,1.05,2.33,1.57,3.54.52,1.21,1.01,2.34,1.57,3.54,3.24,6.9,5.85,11.52,10.22,17.79,1.8,2.58,7.27,8.6,5.5,8.75-1.12-1.24-3.16-2.7-3.73-3.34-2.25-2.49-4.2-4.31-6.29-7.17C10.23,64.67,2.84,31.46,5.56,8.69c.11.07.26.16.39.2Z" style="fill:#01577c; stroke-width:0px;"/><path d="m11.06,9.09c23.63,10.04,49.32,32.73,56.6,58.17-.22-.07-.35-.29-.79-.2-.02-.06.02-.14,0-.2-2.26-5.47-4.9-10.69-7.47-16.02-6.32-11.17-17.96-21.99-28.4-29.38-4.56-3.23-15.85-10.11-20.73-11.99l.79-.39Z" style="fill:#509ccb; stroke-width:0px;"/><path d="m8.11,9.68c0,.08-.16,1.16-.2,1.57-.02.02-.17.29-.2.39,0-.01-.05,0-.2-.2-.5-.69-.94-1.43-1.38-2.16-.03-.13-.13-.28-.2-.39-.72-1.11-1.27-2.41-1.97-3.54l4.13,4.32Z" style="fill:#ab6278; stroke-width:0px;"/><path d="m11.06,9.09l-.79.39c-.87-.34-1.84-1.42-1.97,0h-.2c-.03-.55-.54-1.84-.29-1.97,1.05.56,2.16,1.11,3.24,1.57Z" style="fill:#19759a; stroke-width:0px;"/><path d="m8.7,9.87c-.24.69-.27.85-.79,1.38.03-.41.2-1.49.2-1.57,0-.07,0-.13,0-.2h.2c.31.04.37.38.39.39Z" style="fill:#23231d; stroke-width:0px;"/><path d="m25.8,65.3c.56,1.05.93,1.35,1.57,2.16,2.22,2.78,3.71,3.87,7.27,4.52-2.47.7-5.07-2.63-3.93.2.97,2.41,6.8,9.41,9.14,11.6.67.09,5.37-3.74,6.39-4.32,2.82-1.63,4.15-2.23,7.47-2.16.39.59,1.15.31,1.38.39.13.77-1.22.11-1.08.59,2.3.15,5.26,1.72,6.19,1.97v.2c-1.41,1.42-3.41,2.67-5.11,3.73-1.09.68-2.22,1.56-3.34,2.16-1.08.58-6.5,2.21-6.49,3.24.02,1.51,10.88,17.46,12.58,20.14l-5.99,3.34c-.68.06-.36-.3-.69-.39-.76-.23-3.89-1.32-4.32-1.67-.44-.36-5.22-7.49-6.29-8.84-2.11-2.67-4.41-5.14-6.68-7.66-.07-.07.06-.62,0-.69,1.76-.14-3.71-6.17-5.5-8.75-4.37-6.27-6.98-10.88-10.22-17.79,2.23.78,6.25.18,6.49-2.75l1.18.79Z" style="fill:url(#linear-gradient); stroke-width:0px;"/><path d="m7.72,11.64c.2.27.38.53.59.79.25,2.77,1.56,6.75,2.55,9.43-.11.86-.44,1.09-.2,2.06,2.98,10.46,4.84,23.91,11.6,32.82,1.57,2.07.41.26,1.38-.1-.08,3.23.64,5.8,2.16,8.65l-1.18-.79c.08-1.01-.88-3.01-.98-4.23-3.94-1.73-5.21.2-7.08,3.44-.52-1.21-1.09-2.27-1.57-3.54-.2-.53-.4-1.04-.59-1.57-5.22-14.64-7.38-31.69-6.88-47.17.15.2.19.19.2.2Z" style="fill:#5a0f23; stroke-width:0px;"/><path d="m7.52,11.45c-.5,15.48,1.66,32.53,6.88,47.17-1.55-.18-.52-3.32-2.55-2.75-3.26-10.48-5.55-24.15-6.09-35.08,0-.04-.39-.55-.39-.59-.01-.32.39-.74.39-.79-.04-1.33-.4-3.92-.39-4.13.02-1.13.4-5.19.79-5.99.43.73.87,1.47,1.38,2.16Z" style="fill:#0884a7; stroke-width:0px;"/><path d="m24.62,64.51c-.24,2.93-4.26,3.53-6.49,2.75-.56-1.19-1.05-2.33-1.57-3.54,1.86-3.24,3.13-5.16,7.08-3.44.1,1.22,1.06,3.21.98,4.23Z" style="fill:#691801; stroke-width:0px;"/><path d="m14.4,58.61c.19.54.39,1.04.59,1.57-.77,1.5,2.33,4.47.29,4.13-.93-.16-3.03-7.14-3.44-8.45,2.04-.57,1.01,2.57,2.55,2.75Z" style="fill:#19759a; stroke-width:0px;"/><path d="m57.64,78.46c-.85-.3-1.72-.48-2.55-.79-.22-.08-.99.19-1.38-.39q-2.65-4.72-5.31-9.43c.48-.66.95-1.27,1.38-1.97.23-.36.93-1.08.98-1.18,1.25-2.15,1.62-3.27,2.55-5.5,2.14,14.98,6.73,19.04,5.8,19.46-.31-.51-1.27-.57-1.47-.2Z" style="fill:#ec871a; stroke-width:0px;"/><path d="m53.71,77.28c-3.31-.07-4.65.53-7.47,2.16-1.62-1.52-2.37-3.88-3.73-5.6.19-.28.56-.46.59-.49.41-.45,3.48-2.44,4.52-3.64,1.09-1.38.73-1.6.79-1.67.03-.04-.03-.15,0-.2q2.65,4.72,5.31,9.43Z" style="fill:#c4540c; stroke-width:0px;"/><path d="m43.09,73.35s-.4.21-.59.49c1.37,1.72,2.12,4.08,3.73,5.6-1.02.59-5.71,4.41-6.39,4.32-2.33-2.18-8.17-9.19-9.14-11.6,1.02-.51,3.82.95,4.03.98,2.98.43,6.71-.5,8.35.2Z" style="fill:#691801; stroke-width:0px;"/><path d="m43.09,73.35c-1.65-.7-5.38.23-8.35-.2-.21-.03-3.01-1.49-4.03-.98-1.14-2.82,1.46.5,3.93-.2,4.93.89,7.97.09,11.99-2.75.55-.39,1.27-.67,1.77-1.18-.05.07.3.29-.79,1.67-1.04,1.2-4.11,3.19-4.52,3.64Z" style="fill:#561316; stroke-width:0px;"/><path d="m57.64,78.46c1.62.57,1.68.26,2.95,1.57,0,.24-.22.24-.39.2-.93-.24-3.89-1.81-6.19-1.97-.13-.48,1.21.18,1.08-.59.84.3,1.71.49,2.55.79Z" style="fill:#5a0f23; stroke-width:0px;"/><path d="m37.59,42.1c-2.33,0-5.89,1.25-7.86,2.55l-6.88-9.83c1.39-.4,2.31-.97,3.14-2.16.06.02.15-.03.2,0,2.74,1.49,8.65,7.12,11.4,9.43Z" style="fill:#ec871a; stroke-width:0px;"/><path d="m24.03,25.2c-2.93.34-3.31.16-5.7,1.77-.05.03-.15-.03-.2,0-1.52-1.78-8.38-11.42-8.65-12.48-.07-.26.19-.29.2-.49,3.54,3.6,10.22,7.63,14.35,11.2Z" style="fill:#ec871a; stroke-width:0px;"/><path d="m9.68,14c0,.2-.26.23-.2.49.27,1.05,7.13,10.7,8.65,12.48-.94.67-2.76,2.61-3.14,3.73-.02-.04-.29.18-.59-.49-1.07-2.45-2.65-5.96-3.54-8.35-1-2.69-2.3-6.66-2.55-9.43.38.46.97,1.16,1.38,1.57Z" style="fill:#c4540c; stroke-width:0px;"/><path d="m66.87,66.87c.02.06-.02.14,0,.2,1.27,3.08,2.32,6.31,3.54,9.43.56,3.05,6.52,17.41,6.68,18.38.08.48-.17.68-.2,1.08-1.28.68-1.95,1.81-2.95,2.75-.84.8-1.69,1.6-2.55,2.36-1.34-3.81-8.91-19.07-10.81-21.03-1.27-1.31-1.33-1.01-2.95-1.57.2-.37,1.16-.31,1.47.2.94-.42-3.66-4.48-5.8-19.46-.47-3.29.65-6.15-4.13-11.2-2.75-3.51-7.08-5.89-11.6-5.9-2.75-2.32-8.66-7.94-11.4-9.43,1.09-1.39.99-3.29.39-4.91-.6-1.63-1.45-1.6-2.55-2.55-4.13-3.57-10.81-7.61-14.35-11.2-.4-.41-1-1.11-1.38-1.57-.21-.26-.39-.52-.59-.79.03-.1.18-.38.2-.39.51-.53.55-.68.79-1.38,10.97,5.37,18.16,9.07,27.81,16.9,10.02,8.13,18.08,16.62,24.27,28.01,2.51,4.61,5.08,11.48,5.5,11.99.15.18.39.08.59.1Z" style="fill:#f7a72a; stroke-width:0px;"/><path d="m10.27,9.48c4.89,1.88,16.18,8.76,20.73,11.99,10.44,7.39,22.08,18.21,28.4,29.38,2.57,5.33,5.21,10.55,7.47,16.02-.2-.02-.44.08-.59-.1-.42-.51-3-7.38-5.5-11.99-6.2-11.39-14.25-19.88-24.27-28.01-9.65-7.83-16.84-11.53-27.81-16.9-.02-.01-.08-.35-.39-.39.13-1.42,1.09-.34,1.97,0Z" style="fill:#f8fdfe; stroke-width:0px;"/><path d="m71.4,101.06c-.41-.8-.96-1.54-1.38-2.36-2.1-4.12-4.14-8.29-6.29-12.38-1.04-1.97-2.09-4.21-3.54-5.9v-.2c.17.04.4.04.39-.2,1.9,1.96,9.47,17.22,10.81,21.03Z" style="fill:#995e2f; stroke-width:0px;"/><path d="m56.36,50.16c2.22-.06,3.05,5.25-.79,4.32-2.2-.53-1.23-4.27.79-4.32Z" style="fill:#a51d3f; stroke-width:0px;"/><path d="m44.67,37.98c.06,0,.13,0,.2,0,.03.46,2.1.68,2.16,2.26.13,3.12-7.01,1.86-2.36-2.26Z" style="fill:#ae2c54; stroke-width:0px;"/><path d="m44.86,37.98c3.66-.01,3.17,5.51-.29,5.11-2.31-.27-2.9-4.76.1-5.11-4.65,4.12,2.49,5.38,2.36,2.26-.06-1.58-2.13-1.8-2.16-2.26Z" style="fill:#920a2b; stroke-width:0px;"/><path d="m53.31,59.2c-.94,2.23-1.31,3.35-2.55,5.5,3.23-5.88,2.47-11.53-1.57-16.71,4.78,5.06,3.66,7.92,4.13,11.2Z" style="fill:#9b6a2b; stroke-width:0px;"/><path d="m14.99,30.71c.84,1.9.65,2.27.79,2.55,1.45,3.11,7.43,14.48,9.43,16.31.01,0-.04.22.2.2-.05.09-.13.66-.2.79-1.19,2.36-1.51,3.39-1.57,6.09-.97.36.2,2.17-1.38.1-6.75-8.91-8.62-22.36-11.6-32.82-.24-.98.09-1.2.2-2.06.89,2.39,2.47,5.9,3.54,8.35.3.68.57.46.59.49Z" style="fill:#691801; stroke-width:0px;"/><path d="m51.74,86.32c5.62,11.19,11.69,22.22,18.67,32.62-.09.05-.62.46-1.77.98-.47.21-3.02,1.44-3.24,1.38-1.24-1.71-2.3-3.54-3.44-5.31-.47-.74-.93-1.55-1.57-2.16-.57-1.49-1.71-2.79-2.55-4.13-1.7-2.69-12.56-18.64-12.58-20.14-.01-1.04,5.4-2.66,6.49-3.24Z" style="fill:#0884a7; stroke-width:0px;"/><path d="m63.73,86.32c-3.23-1.58-.85.72-.79.88.02.05-.36.19,0,.98.63,1.38,1.49,2.39,1.57,2.55,0,.02-.3.19-.2.39.39.79,1.74,2.55,1.57,3.14.79.47.7-.88,1.38-.39.32.22,1.79,4.64,2.75,4.82.41.81.97,1.56,1.38,2.36.86,1.69,1.71,3.41,2.55,5.11.33.66.86,1.31,1.18,1.97.85,1.76,2.28,4.35,2.36,6.09-.8,1.68-1.93,1.73-2.95,2.36-1.05-.8-1.64-2.91-2.36-4.23-5.28-9.64-11.01-19.06-17.1-28.2,1.7-1.06,3.7-2.32,5.11-3.73,1.45,1.69,2.5,3.93,3.54,5.9Z" style="fill:#f9ecea; stroke-width:0px;"/><path d="m74.54,116.59c-1.36.85-2.69,1.64-4.13,2.36-6.98-10.41-13.05-21.43-18.67-32.62,1.12-.6,2.25-1.48,3.34-2.16,6.09,9.14,11.82,18.56,17.1,28.2.72,1.31,1.31,3.43,2.36,4.23Z" style="fill:#c7bfcb; stroke-width:0px;"/><path d="m63.73,86.32c2.15,4.09,4.19,8.26,6.29,12.38-.96-.17-2.44-4.59-2.75-4.82-.68-.48-.59.86-1.38.39.17-.59-1.18-2.36-1.57-3.14-.1-.21.21-.37.2-.39-.09-.17-.94-1.18-1.57-2.55-.36-.79.02-.94,0-.98-.07-.17-2.44-2.47.79-.88Z" style="fill:#f8fdfe; stroke-width:0px;"/><path d="m22.85,34.83l6.88,9.83c-1.68,1.1-3.54,3.16-4.52,4.91-2-1.83-7.98-13.21-9.43-16.31,2.47,1.66,4.13,2.41,7.08,1.57Z" style="fill:#c4540c; stroke-width:0px;"/><path d="m32.87,45.64c.95.43-.77.68-1.87,1.57-3.92,3.19-5.36,8.37-4.42,13.27.42,2.21,1.58,3.44,2.95,5.01.11.13,1.05,1.06,1.18,1.18.42.36,1.03,1.09,1.57,1.38.03.02-.12.14.59.39.2.32.46.65.2.98-.72-.21-1.56-.32-2.26-.59-1.34-.51-3.68-2.22-3.44-1.38-.64-.81-1.01-1.12-1.57-2.16-1.53-2.85-2.24-5.42-2.16-8.65.06-2.7.38-3.74,1.57-6.09,2.56-1.91,4.57-3.86,7.66-4.91Z" style="fill:#63708e; stroke-width:0px;"/><path d="m33.07,69.42c4.69,1.39,8.46,1.84,12.97-.79l.59.59c-4.02,2.85-7.06,3.64-11.99,2.75-3.56-.65-5.06-1.74-7.27-4.52-.24-.85,2.1.87,3.44,1.38.7.27,1.54.38,2.26.59Z" style="fill:#5a607a; stroke-width:0px;"/><path d="m37.59,42.1c4.51,0,8.85,2.39,11.6,5.9-3.37-3.56-7.55-5.88-12.58-5.31-4.02.46-9.09,3.56-11.2,7.08-.24.02-.19-.19-.2-.2.98-1.76,2.85-3.81,4.52-4.91,1.98-1.3,5.53-2.56,7.86-2.55Z" style="fill:#693832; stroke-width:0px;"/><path d="m49.19,48c4.05,5.17,4.8,10.83,1.57,16.71-.06.1-.76.81-.98,1.18l-.1-.39c-.93.6-1.57,1.51-2.46,2.16,1.63-2.07.36-1.53.39-2.06.02-.26,3.85-3.85,1.77-3.83.29-.63.44-1.29.59-1.97,1.26-5.62-1.25-11.51-6.68-13.95.08-.44-1.79-1.07-2.26-1.18-3.87-.92-4.3.82-4.42-1.97,5.03-.57,9.21,1.74,12.58,5.31Z" style="fill:#f8fdfe; stroke-width:0px;"/><path d="m49.78,65.88c-.43.7-.89,1.31-1.38,1.97-.03.04.03.15,0,.2-.5.51-1.21.79-1.77,1.18l-.59-.59s.05-.17.39-.39c.28-.18.52-.39.79-.59.89-.66,1.53-1.56,2.46-2.16l.1.39Z" style="fill:#97a4b7; stroke-width:0px;"/><path d="m36.61,42.69c.13,2.78.55,1.04,4.42,1.97.47.11,2.34.74,2.26,1.18-3.61-1.62-6.75-1.44-10.42-.2-3.09,1.05-5.11,3-7.66,4.91.06-.12.14-.7.2-.79,2.11-3.52,7.18-6.62,11.2-7.08Z" style="fill:#dbf3fe; stroke-width:0px;"/><path d="m46.44,68.24c-.35.22-.37.38-.39.39-4.51,2.63-8.28,2.17-12.97.79.26-.33,0-.66-.2-.98.16.06,3.23.58,3.44.59,1.58.09,2.88-.06,4.42-.39,2.04,1.45,5.87-2.57,5.7-.39Z" style="fill:#b5b7be; stroke-width:0px;"/><path d="m47.22,67.65c-.27.2-.51.41-.79.59.17-2.18-3.66,1.84-5.7.39,3.48-.75,7.15-3.59,8.65-6.88,2.08-.01-1.75,3.58-1.77,3.83-.04.54,1.23,0-.39,2.06Z" style="fill:#d2d3d5; stroke-width:0px;"/><path d="m43.29,45.84c5.43,2.45,7.94,8.33,6.68,13.95-.4-.84-.2-1.76-.39-2.95-2.98-18.55-30.75-10.73-20.05,8.65-1.37-1.58-2.52-2.8-2.95-5.01-.94-4.9.5-10.07,4.42-13.27,1.1-.9,2.81-1.14,1.87-1.57,3.67-1.25,6.81-1.43,10.42.2Z" style="fill:#254363; stroke-width:0px;"/><path d="m32.87,68.44c-.71-.26-.56-.38-.59-.39.8-.11.53.29.59.39Z" style="fill:#c7bfcb; stroke-width:0px;"/><path d="m49.58,56.84c-.71,10.06-10.03,15.02-18.87,9.83-.13-.12-1.07-1.05-1.18-1.18-10.71-19.38,17.07-27.2,20.05-8.65Z" style="fill:#09d3e8; stroke-width:0px;"/><path d="m49.97,59.79c-.15.67-.3,1.34-.59,1.97-1.5,3.29-5.16,6.13-8.65,6.88-1.54.33-2.84.49-4.42.39-.2-.01-3.28-.53-3.44-.59-.06-.1.21-.5-.59-.39-.54-.28-1.16-1.01-1.57-1.38,8.84,5.19,18.16.24,18.87-9.83.19,1.19-.01,2.11.39,2.95Z" style="fill:#0d96c3; stroke-width:0px;"/><path d="m37.69,47.41c1.99-.24,4.72.77,6.29,1.97,4.43,3.35,3.87,9.21.39,8.06-.31-.1-1.73-3.1-4.13-5.11-3.17-2.66-6.19-2.43-4.52-4.13.18-.18,1.71-.76,1.97-.79Z" style="fill:#afe8f0; stroke-width:0px;"/><path d="m36.71,55.27c1.43.06.4,2.67-.79,2.36-1.25-.33.31-2.38.79-2.36Z" style="fill:#44dde1; stroke-width:0px;"/><path d="m35.72,62.15c.99-.23,1.53,1.45.59,1.77-1.33.46-1.55-1.55-.59-1.77Z" style="fill:#7edce7; stroke-width:0px;"/><path d="m18.33,26.97c.5.62-.1.93-.2,1.38-.56,2.61.37,5.28,3.34,5.5,1.25.09,3.23-.51,3.93-1.57.5.16.56.38.59.39-.84,1.2-1.76,1.77-3.14,2.16-2.95.84-4.61.09-7.08-1.57-.13-.29.06-.66-.79-2.55.38-1.12,2.2-3.06,3.14-3.73.04-.03.15.03.2,0Z" style="fill:#561316; stroke-width:0px;"/><path d="m26.59,27.76c-1.38-.06-.58,1.23-.59,1.38-.67.11-.48-.2-.79-.39-.1-.06-.3-.13-.39-.2-.93-2.97-5.89-2.68-6.29.59l-.39-.79c.1-.44.69-.76.2-1.38,2.39-1.61,2.77-1.43,5.7-1.77,1.1.95,1.96.93,2.55,2.55Z" style="fill:#c7822a; stroke-width:0px;"/><path d="m26.59,27.76c.6,1.63.7,3.52-.39,4.91-.05-.03-.14.02-.2,0-.03-.01-.09-.23-.59-.39.61-.93.53-2.11.59-3.14,0-.15-.79-1.43.59-1.38Z" style="fill:#c7822a; stroke-width:0px;"/><path d="m26,29.13c-.06,1.03.02,2.21-.59,3.14-.7,1.06-2.68,1.67-3.93,1.57l.2-.59c1.68.12,2.5-.55,3.14-1.77.01-.02.05.13.2-.39.12-.41.17-.55.2-.98,0-.06,0-.13,0-.2,0-.39,0-.79,0-1.18.3.19.12.51.79.39Z" style="fill:#fc9b4e; stroke-width:0px;"/><path d="m18.53,29.13c-.25,2.04,1.07,3.98,3.14,4.13l-.2.59c-2.97-.22-3.9-2.89-3.34-5.5l.39.79Z" style="fill:#dcba6e; stroke-width:0px;"/><path d="m24.82,28.54c-2.31-1.58-5.64-1.6-5.7,1.08-.05,2.02,2.96,5.19,5.7,1.87-.64,1.22-1.47,1.89-3.14,1.77-2.07-.14-3.4-2.09-3.14-4.13.4-3.27,5.36-3.56,6.29-.59Z" style="fill:#0884a7; stroke-width:0px;"/><path d="m25.21,28.74c0,.39,0,.79,0,1.18-.33-.25-.28-1.03-.39-1.38.09.06.3.14.39.2Z" style="fill:#3c6a76; stroke-width:0px;"/><path d="m24.82,28.54c.11.35.06,1.13.39,1.38,0,.07,0,.13,0,.2l-.2.98c-.15.52-.19.37-.2.39-2.74,3.33-5.75.15-5.7-1.87.06-2.68,3.39-2.66,5.7-1.08Z" style="fill:#02b7df; stroke-width:0px;"/><path d="m25.01,31.1l.2-.98c-.03.43-.08.58-.2.98Z" style="fill:#337d86; stroke-width:0px;"/><path d="m21.38,27.95c2.02-.64,2.91,3.16.98,3.34-1.98.19-2.12-2.98-.98-3.34Z" style="fill:#5cf4f3; stroke-width:0px;"/></g></svg>