<?xml version="1.0" encoding="UTF-8"?><svg id="Layer_2" xmlns="http://www.w3.org/2000/svg" viewBox="0 0 41.19 15.27"><g id="Layer_1-2"><path d="m40.66,13.32l.53.53-3.81.18c-5.39,1.64-11.16.59-16.73.89-.08,0-.3-.14-1.59-.18-.99-.03-2.64,0-3.72,0-.59,0-1.18,0-1.77,0-3.28-.02-3.33.57-4.16.53-1.02-.66-2.19-.36-3.27-.53-2.21-.35-3.37-.08-3.01-1.24,3.6.05,7.2-.04,10.8,0,1.04.01,2.12.17,3.19.18,4.6.02,9.2-.02,13.81,0,.3,0,.59,0,.89,0,.47,0,1.02-.18,1.42-.18,2.46,0,4.96-.17,7.43-.18Z" fill="#0d2b46" stroke-width="0"/><path d="m7.92,9.42c-.08.19-.24.29-.18.53-.56.32-1.25-.2-2.12.18-1.5-.44,1.04-.73,2.48-1.42-.01.03.02.22-.18.71Z" fill="#0a5e80" stroke-width="0"/><path d="m10.92,12.26c-.22.49,3.89-.28,4.6-.71-.11.59.3.12,1.06,0,1.79-.27,1.49-.46.71,1.06-.05.03-.56.74-.8.71-.42-.05.2-1.56-2.57.18-3.6-.04-7.2.05-10.8,0-.24,0-.47,0-.71,0-.29,0-.59.01-.89,0-1.35-.07-1.88.21-1.33-.35.17-.17,3.78-1.94,4.43-1.59l.09-.35c.14-.39.52-.9.89-1.06.87-.38,1.56.15,2.12-.18,1.2,2.01,3.42-.27,3.63-.35,2.39-.98.78.72-1.24,1.77-5.64.22-5.47,2.41.8.89Z" fill="#a1e2e3" stroke-width="0"/><path d="m26.15,2.17c1.04,1.35,1.64,2.12,2.39,3.72.96.04,1.99-.12,2.92.18.07.02,1.14.79,1.24.89.25.25.46.61.71.89.08.09-.46.49,1.59,1.68.21,2.95,1.57-1.24,4.25,2.92-1.95-.04-3.89-.35-5.84-.35.48-1.44-1.01-1.57-1.59-2.21-.31-.34-.04-2.28-4.34-2.57-2.2-6.94-12.03-8.03-12.74-.18-3.07-.4-4.38.88-6.81,2.3.19-.48.16-.67.18-.71,1.38-3.5,3.21-2.76,3.63-3.01.47-.29.59-1.42,1.95-1.24.15-.13.26-.68.44-.89.55-.63.8-1.43,1.68-2.12,2.93-2.29,7.66-1.75,10.36.71Z" fill="#a1e2e3" stroke-width="0"/><path d="m23.49,11.37c1.07.12.84.18.89.18l-.18.35c-3.47.28-1.64,1.24,2.21,1.42.41-.32.99-.51,1.5-.53.61-.03,2.57.41,3.01.89-4.6-.02-9.2.02-13.81,0,1.43-1.72,3.54-1.84,5.31-2.66-.1.57.42.28,1.06.35Z" fill="#91d7e5" stroke-width="0"/><path d="m33.4,12.08c1.95,0,3.89.32,5.84.35-.13.41,1.31.7,1.77.71v.18c-.12,0-.24,0-.35,0-2.47.01-4.97.17-7.43.18-.52-.45-1.35-.39-1.95-.53-.07-.02.33-.64-1.15-.18-.43-.23-.41-.35-.44-.35,1.22-.36,2.46-.36,3.72-.35Z" fill="#335d9a" stroke-width="0"/><path d="m23.49,10.31s.37.03.09.35c-.37.05-.82.2-1.15.35-1.77.82-3.88.94-5.31,2.66-1.07,0-2.15-.17-3.19-.18,2.76-1.74,2.15-.23,2.57-.18.24.03.75-.68.8-.71.88-.52,1.81-.85,2.66-1.42,1.22-.18,2.35-.58,3.54-.89Z" fill="#4d7eb0" stroke-width="0"/><path d="m29.69,12.43s.02.13.44.35c1.48-.46,1.08.16,1.15.18l-.35.09.89.62c-.3,0-.59,0-.89,0-.44-.48-2.4-.91-3.01-.89l1.06-.71c.62-.15.46.31.71.35Z" fill="#7a7bb4" stroke-width="0"/><path d="m31.28,12.96c.6.14,1.42.08,1.95.53-.39,0-.95.18-1.42.18l-.89-.62.35-.09Z" fill="#a9c6ee" stroke-width="0"/><path d="m15.53,11.55c-.72.43-4.83,1.2-4.6.71,2.35-.57,4.19-1.67,6.28-2.83l-1.68,2.12Z" fill="#47b8d5" stroke-width="0"/><path d="m24.38,11.55s.19-.06-.89-.18c-.84-.26-.4-.41.53-.71,2.06-.67,4.49-1.73,5.84-.09-.09.62-4.74.99-5.49.97Z" fill="#91d7e5" stroke-width="0"/><path d="m24.2,11.9c1.31-.11,3.22.38,4.78.18l-1.06.71c-.51.02-1.09.21-1.5.53-3.85-.18-5.68-1.14-2.21-1.42Z" fill="#ae98ce" stroke-width="0"/><path d="m33.4,12.08c-1.26,0-2.49,0-3.72.35-.25-.05-.09-.5-.71-.35-1.56.2-3.47-.28-4.78-.18l.18-.35c.74.02,5.4-.36,5.49-.97-1.35-1.64-3.78-.58-5.84.09.95-2,4.04-1.64,3.98-2.3-2.82.07-2.97,1-4.51,1.95-1.19.31-2.32.71-3.54.89-3.95.57.29-.74,2.39-2.66.29-.27.39-.35,0-.35-.74-.01-4.97,2.51-5.75,3.36-.77.12-1.17.59-1.06,0l1.68-2.12c-2.09,1.17-3.93,2.26-6.28,2.83-6.26,1.53-6.43-.66-.8-.89,2.02-1.05,3.63-2.75,1.24-1.77-.21.09-2.42,2.36-3.63.35-.06-.24.1-.34.18-.53,2.43-1.42,3.74-2.7,6.81-2.3.71-7.85,10.55-6.76,12.74.18,4.3.28,4.03,2.22,4.34,2.57.58.65,2.07.77,1.59,2.21Z" fill="#f1eace" stroke-width="0"/><path d="m19.95,11.19c-.85.56-1.78.89-2.66,1.42.78-1.52,1.08-1.34-.71-1.06.79-.85,5.01-3.38,5.75-3.36.39,0,.29.09,0,.35-2.1,1.92-6.34,3.23-2.39,2.66Z" fill="#91d7e5" stroke-width="0"/><path d="m24.02,10.66c-.93.3-1.37.45-.53.71-.64-.07-1.17.21-1.06-.35.33-.15.78-.3,1.15-.35.28-.33-.1-.34-.09-.35,1.55-.95,1.7-1.87,4.51-1.95.06.66-3.04.3-3.98,2.3Z" fill="#89cac6" stroke-width="0"/><path d="m17.74,7.48c2.09-.12-4.96,2.91-5.04,2.57,1-.66,4.07-2.51,5.04-2.57Z" fill="#89cac6" stroke-width="0"/></g></svg>