<?xml version="1.0" encoding="UTF-8"?><svg id="Layer_2" xmlns="http://www.w3.org/2000/svg" viewBox="0 0 24.45 8.71"><g id="Layer_1-2"><path d="m21.05,3.22c.06.1-.11.53.09.71,1.51.36,2.81,1.83,3.1,3.36-.23-.03-.49.04-.71,0-2.69-.51-2.17-1.82-2.83-2.57-3.21-3.62-6.91-3.22-10,.27-1.85-.96-4.74.35-5.22,1.95-.61,2,.16.63,1.06,1.59-1.58-.06-3.2-.03-4.78-.18-.34-.03-1.44.1-1.59-.09-.93-1.16,2.41-1.27,2.57-1.33,1.47-.52.99-2.74,3.19-1.95.8-1.44,1.51-.66,1.59-.71.17-.1.51-2.4,2.92-1.77,3.41-3.35,7.93-3.58,10.62.71Z" fill="#a1e2e3" stroke-width="0"/><path d="m15.03,5.52c.12.57-1.02,1.2-.62,1.42,3.44-1.53,5.03.88,8.41,1.06.53.03,1.06-.02,1.59,0-.05.25.11.47-.27.71-5.87,0-11.75.03-17.61-.18-.9-.96-1.67.41-1.06-1.59,1.53-.39,3.08.12,4.6,0,1.7-.13,3.15-1.81,4.96-1.42Z" fill="#91d7e5" stroke-width="0"/><path d="m24.24,7.29s.32,0,.18.71c-.53-.02-1.06.03-1.59,0-.12-.69.23-.43.71-.71.22.04.48-.03.71,0Z" fill="#ada6cb" stroke-width="0"/><path d="m23.53,7.29c-.48.28-.83.02-.71.71-3.38-.18-4.96-2.59-8.41-1.06-.4-.21.74-.85.62-1.42-.24-1.17-4.42.38-4.96,1.42-1.52.12-3.07-.39-4.6,0,.49-1.6,3.37-2.91,5.22-1.95,3.09-3.49,6.79-3.89,10-.27.66.75.14,2.05,2.83,2.57Z" fill="#f1eace" stroke-width="0"/><path d="m15.03,5.52c-1.81-.4-3.26,1.28-4.96,1.42.53-1.04,4.71-2.58,4.96-1.42Z" fill="#91d7e5" stroke-width="0"/></g></svg>