<?xml version="1.0" encoding="UTF-8"?><svg id="Layer_2" xmlns="http://www.w3.org/2000/svg" viewBox="0 0 77.42 28.64"><g id="Layer_1-2"><path d="m58.77,7.71c-.6-.41-3.14-1.43-4.07-1.59.06,0,.12,0,.18,0,.16,0,.84-.35.89-.35,1.85,0,1.91.68,3.01,1.95Z" fill="#c7dcec" stroke-width="0"/><path d="m50.63,2.58c1.09.62,3.73,2.49,4.25,3.54-.06,0-.12,0-.18,0-.87.05-1.83-.16-2.21.18-.1-1.71-1.36-2.72-2.39-3.89.02.01.16-.03.53.18Z" fill="#0e1623" stroke-width="0"/><path d="m69.21,11.61c2.66,2.16,1.84,3.11,1.95,3.27.65.98,8.08,7.08,5.84,11.68-1.08,2.23-5.61,2-7.7,2.04-18.18.32-36.49-1.22-54.7-.71l-4.51-.71c-.93-.25-1.74-.73-2.66-1.06-.87-.31-1.8-.52-2.66-.89-.05-.02-.24-.25-.89-.53-.22-.1-.58-.62-2.66-1.24,2.86-.64,5.43.76,8.14,1.24.02,0-.01.15.27.35,2.04.07,4.07.32,6.11.53,1.89.19,3.78.32,5.66.53,2.83.18,3.95-.4,4.69-.35,5.79,1.13,11.68,1.01,17.52,1.59-2.45-1.02-9.01-1.27-10.09-1.59-1.49-.44-.86-1.53-3.98-2.12-.22-.04-.82-.16-.89-.18,1.41-.87,4.02.51,6.28.71,2.42.21,5.55-.21,7.97,0,3.53.31,7.94,1.95,11.68,2.3,3.37.32-1.27-.51-1.95-.71-6.38-1.84,4.59-.43,5.58-.35,2.89.22,5.86.45,8.76.53,2.05.06.97-.23.97-.35,0-.41,0-.83,0-1.24,2.97.43.62-.5-2.48-1.42.56-.57,3.1.11,3.81.53.77-.29.21-3.57-2.39-3.72.46-.43,1.07-.74,1.68-.71.59.03,4.23,2.7,1.68-.27-.92-1.08-2.83-1.76-3.81-.44-.06,0-1.04-.46-1.15-.53-.06-.04-.14-.6-.71-.89l.71-1.42c.3.16,2.09.93,2.3.62-.49-1.86-2.3-3.57-.09-2.21.56-.33-1.41-2.32-2.21-2.66v-1.42c1.32.26,2.84.91,3.89,1.77Z" fill="#0e1623" stroke-width="0"/><path d="m50.09,2.4c1.03,1.17,2.29,2.18,2.39,3.89.39-.34,1.34-.12,2.21-.18.93.17,3.47,1.18,4.07,1.59,1.35.92,1.27.99,2.04,2.48.31.09,2.37-.75,2.92-.89.22.9.91.4,1.59.53v1.42c-.87-.36-1.64-.43-2.57-.35-2.96,2.49-3.44-2.24-6.02-1.24-1.18-2.98-2.79-2.72-5.66-2.66-2.33-5.39-10.55-6.44-15.22-3.72-1.09.64-1.15,1.73-3.89,2.3-1.62,2.6-3.19.19-4.96,3.54-.47.16-1.38-.71-2.83-.18-1.59-2.58-5.42-.71-6.9,1.24-3.74-.47-4.32,3.07-4.6,3.19-2.91-.93-5.47,3.55-5.58,5.31-.1,0-.52-.56-1.95-.53-.12,0-.24-.01-.35,0-1.03-1.16,1.21-.34,1.77-1.15.22-.32.79-4.87,5.04-4.87.99-2.1,2.69-3.8,5.13-3.54,2.59-3.08,5.96-2.55,9.38-1.24,1.7-2.42,4.46-4.89,7.61-4.07,4.2-4.88,11.31-3.59,16.37-.89Z" fill="#825698" stroke-width="0"/><path d="m65.32,11.25c.8.33,2.77,2.32,2.21,2.66-2.22-1.36-.4.36.09,2.21-.21.31-2-.46-2.3-.62-.24-.13-1.46-2.2-4.87-1.77-3.85-1.99-6.62-7.53-11.51-5.31-.59-.54-.5-.86-1.33-.89-.68-.84-1.17-1.99-2.04-2.66-2.48-1.92-8.74-1.54-9.03,2.3-.24.04-.61-.06-.8,0-1.04.33-1.03.63-1.59.89-.72.32-1.64.37-2.04.53-.13.05-.93.73-1.33.89-.01,0,0-.28-.27-.18-.2.07-.7.86-1.59,1.06-2.18.5-4.52-2.21-6.73,1.95.2.1.31-.23.44-.18.02,0-.06.34.09.35.43.03,1.32-.29,2.39-.35l-.53.53c-1.44.1-2.1,1.02-2.21,1.06-.2.07-.71-.08-.89,0-.38.16-.92.74-1.59,1.06-.86.41-1.75-.32-1.86,1.24-.12-.01-2,.1-2.3.35-.02-.06-.12.8-.18-.71,0-.2.44-.37-.18-.35.05-.02.05-.5.97-.35.19-.15.03-.67.09-.71.87-.61,1.48-1.05,2.48-1.5-.02-.53-3.62-.61-5.31,1.86-.07.11-.34.5-.35.53-1.26-.81-4.41,1.03-3.89,2.48-.02.01-.16.28-.18.35l-2.12.71c.11-1.76,2.67-6.24,5.58-5.31.28-.12.86-3.66,4.6-3.19,1.48-1.95,5.32-3.82,6.9-1.24,1.46-.54,2.36.34,2.83.18,1.77-3.36,3.33-.94,4.96-3.54,2.74-.57,2.8-1.66,3.89-2.3,4.68-2.73,12.9-1.68,15.22,3.72,2.88-.07,4.48-.32,5.66,2.66,2.58-1,3.06,3.72,6.02,1.24.93-.07,1.7,0,2.57.35Z" fill="#a1e2e3" stroke-width="0"/><path d="m6.73,22.23c-1.54.15.8.75,3.1,1.59,2.05-.14,3.85-.1,1.68-.8,1.64-.66,3.09,1.12,5.93.62v-.35c-.59-.06-1.13-.34-1.68-.53,1.21-.04.23-.83,1.86-.71.12,0,1.27.51,1.59.53,2.2.13,8.77.02,9.2.18.66.23-.43.48.27.71.06.02.67.14.89.18.23.7.54,1.05-.35,1.42-4.19-1.45-6.12.44-10.89-1.06-.36.19-1.1.34-1.5.35-2.48.09-4.95.37-7.43.35-2.71-.48-5.28-1.88-8.14-1.24-.6-.18-1.17-.13-1.24-.53.04-.01.01-.53.44-.71.25-.1,1.07.05,1.68-.18.74.91,2.52-.15,4.43-.53.22.32.57.13.18.71Z" fill="#e7b7dc" stroke-width="0"/><path d="m21.42,26.12l-.35-.53c1.82.16,2.9-.45,3.98-.53,1.34-.09,2.98.49,4.16,0,.89-.37.59-.71.35-1.42,3.13.59,2.49,1.68,3.98,2.12,1.08.32,7.64.57,10.09,1.59-5.85-.58-11.74-.46-17.52-1.59-.74-.05-1.86.54-4.69.35Z" fill="#47b8d5" stroke-width="0"/><path d="m65.32,15.5l-.71,1.42c-.27-.13-.34-.21-.71-.18.22-2.73-2.82-2.86-4.87-2.12-.04-2.56-2.14-1.17-3.72-3.01-.29-.34-.72-4.28-6.2-2.3-.66-.46-1.02-1.18-1.5-1.77.83.03.74.34,1.33.89,4.88-2.22,7.66,3.32,11.51,5.31,3.41-.43,4.63,1.64,4.87,1.77Z" fill="#5569a0" stroke-width="0"/><path d="m66.91,19.75c-.16.15-.41.24-.53.44.15.23.87-.14,1.06.62-1.11-.69-2.31-.51-3.54-.35.3-.94.04-.92-.89-1.06l-.18-.71c.74.2.49,0,.53,0,1.17-.15,1.33-.75,1.95-.89.12.08,1.09.54,1.15.53.98-1.32,2.88-.63,3.81.44,2.54,2.97-1.09.3-1.68.27-.61-.03-1.22.28-1.68.71Z" fill="#e7b7dc" stroke-width="0"/><path d="m66.38,24.17c.52.09,1.08.1,1.59.18,0,.41,0,.83,0,1.24-1.19-.19-2.36-.46-3.54-.71-.78-.16-1.53-.37-2.3-.53l.18-.89c1.4.16,2.69.47,4.07.71Z" fill="#0e1623" stroke-width="0"/><path d="m16.82,24.35v.35c-.55.06-1.8.46-1.06.89-2.03-.21-4.06-.46-6.11-.53-.28-.2-.24-.35-.27-.35,2.49.01,4.96-.26,7.43-.35Z" fill="#ae98ce" stroke-width="0"/><path d="m67.97,25.59c0,.12,1.08.41-.97.35-2.9-.08-5.87-.31-8.76-.53,2.43-.78,6.45.45,6.2-.53,1.18.25,2.35.52,3.54.71Z" fill="#8c90c1" stroke-width="0"/><path d="m21.06,25.59l.35.53c-1.89-.21-3.78-.34-5.66-.53-.74-.43.52-.83,1.06-.89,1.36-.15,3.02.78,4.25.89Z" fill="#84b7e0" stroke-width="0"/><path d="m64.61,16.92c.57.28.64.84.71.89-.62.13-.77.73-1.95.89-.61-.87-.49-1.19-.53-1.24.21.05,1-.7,1.06-.71.37-.03.44.04.71.18Z" fill="#b574b2" stroke-width="0"/><path d="m67.97,24.35c-.51-.08-1.08-.09-1.59-.18l.09-.35c-1.24.29-1.21-.64-.97-.89,3.1.91,5.45,1.85,2.48,1.42Z" fill="#ada6cb" stroke-width="0"/><path d="m47.62,7.53c.48.59.84,1.31,1.5,1.77,5.47-1.98,5.91,1.96,6.2,2.3,1.57,1.84,3.68.44,3.72,3.01,2.05-.73,5.09-.6,4.87,2.12-.06,0-.85.76-1.06.71-.18-.22-.25-.13-.53-.35-.79-.62-1.57-.84-2.57-.71-3.42,1.48-2.89,1.08.97.89.65.33,1.51,1.25,2.12,1.42l.18.71c-1.13-.17-4.57-.7-5.04,0-3.04-.66-3.02,0-3.19,0-4.54-.1-9.08-.6-13.63-.35.03-1.93-1.37-1.47-2.12-2.66-.37-.1-2.39,1.78-7.08,1.59-1.15-2.13-2.11.58-3.54-1.42-2.05,2.24-1.36-.15-2.12-.35-1.11-.3,1.27,1.43-.35,1.59-.96.1-.61-.9-1.42-1.06-1.45-.3-.64.9-1.06,1.06-.26.1-5.5.02-5.22-.71.28-.16.32-.69.35-.71.47-.24.49-.71,1.68-.53l.53-.71c2.98.03,3.18-3.08,7.61-2.12.55.12.99.86,1.06.89.16.06,1.39-.83,1.86.89-.43,1,.13.18.18.18,4.49-.77.13,4.55,8.76-1.06.61-.1,1.1.06,1.68.18.58.12.93.5,1.06.53.41.83,1.57.41,1.86.53,1.99.83-.75,3.77,6.11,1.42,1.01-.35,2.29-1.46,3.45-1.06.29.1-.62.34,0,.89,1.6,1.42,3.07-1.37,1.06-2.12-1.58-.59-2.35.57-2.48.53-.13-.04-.1-1.74-2.12-.35-1.34-1.73-2.72.88-4.34-1.33-.11-.15.2-2.69-2.39-.44-.3.02-1.32-1.82-3.27-.71-1.94-1.59-3.56.02-5.58-.18-2.34-1.35-2.84-.02-3.01,0-.83.08-2.74-.88-1.86.18-.28-.06-.83.02-1.24,0l-.71-1.24c1.59-.34,1.1.35,2.3-1.24.39-.15,1.2-.83,1.33-.89.39-.17,1.32-.21,2.04-.53,1.36.35.75.09,1.59-.89.19-.06.56.04.8,0,.29-3.84,6.55-4.22,9.03-2.3.86.67,1.35,1.82,2.04,2.66Z" fill="#f1eace" stroke-width="0"/><path d="m15.58,18.69c-.07.18.11.22-.53.62l.27.27c.47-.62.99-.75,1.15-.89.48.08.8-.04,1.24-.18.21-.06.3-.22.44-.35,2.59.61,2.62-.67,5.04.71.15.09.18,1.48,3.19.53.18,0,.35,0,.53,0,4.19,2.11,3.17.69,5.49.18,2.59-.57,3.97.19,6.2.53.49.07.33.17.35.18-.01,1.21-1.26-.27-3.1,0-.18.03-1.9.94-2.66,1.06-4.89.81-12.63-.33-17.88,0-.45-.23-1.18-.34-1.68-.35-1.41-.05-2.82-.32-4.25-.18.02-.2-.03-.48,0-.53.01-.02.53.08.35-.35,2.37-.2,3.61-2.83,5.84-1.24Z" fill="#f1eace" stroke-width="0"/><path d="m6.73,22.23c.84-.08,3.02.13,4.43.18.9.03,1.74-.62,4.6.35.55.19,1.09.47,1.68.53v.35c-2.84.5-4.29-1.28-5.93-.62,2.17.69.37.65-1.68.8-2.3-.84-4.64-1.44-3.1-1.59Z" fill="#2a1433" stroke-width="0"/><path d="m9.38,20.81c1.42-.15,2.84.13,4.25.18-.61,1.14-5.28.24-2.48,1.42-1.41-.04-3.59-.26-4.43-.18.39-.58.05-.39-.18-.71.87-.18,2.1-.63,2.83-.71Z" fill="#e7b7dc" stroke-width="0"/><path d="m18.06,16.03s-.19.48.53.35c-.04.02-.08.55-.35.71-.37.21-.51.16-.53.18-.12.07-1.74.44-2.3.97.15.1.25.27.18.44-2.23-1.59-3.47,1.04-5.84,1.24-.13-.34-.48-.02-.53-.35.06,0,.12.01.18,0,2.34-.49,1.9-.97,3.01-1.42.69-.28,3.62-.57,3.72-1.33,0-.05-.29-.2-.35-.44.3-.26,2.19-.37,2.3-.35Z" fill="#5569a0" stroke-width="0"/><path d="m32.39,19.57c-2.32.51-1.3,1.93-5.49-.18,1.63.07,3.79-.35,5.49.18Z" fill="#6c337e" stroke-width="0"/><path d="m17.7,17.27c-.11.29-.5.69-.71.89-.2.19-.5.51-.53.53-.16.13-.68.27-1.15.89l-.27-.27c.64-.4.46-.44.53-.62.07-.18-.03-.34-.18-.44.56-.54,2.18-.91,2.3-.97Z" fill="#d4d9ea" stroke-width="0"/><path d="m63.02,19.39c.92.14,1.18.12.89,1.06-2.12.28,3.71,1.02,3.54.35-.19-.76-.92-.38-1.06-.62.12-.2.38-.3.53-.44,2.6.15,3.16,3.43,2.39,3.72-.7-.42-3.25-1.1-3.81-.53-.24.25-.26,1.17.97.89l-.09.35c-1.38-.24-2.67-.55-4.07-.71-3.54-.4-7.06-.76-10.62-.44l10.44,1.33c.77.16,1.53.37,2.3.53.26.98-3.77-.24-6.2.53-.99-.07-11.95-1.48-5.58.35.68.19,5.32,1.02,1.95.71-3.74-.35-8.15-1.99-11.68-2.3-2.42-.21-5.55.21-7.97,0-2.26-.2-4.87-1.58-6.28-.71-.7-.23.39-.47-.27-.71-.43-.15-7.01-.04-9.2-.18-.32-.02-1.47-.52-1.59-.53-1.63-.13-.65.67-1.86.71-2.86-.97-3.7-.33-4.6-.35-2.81-1.18,1.87-.28,2.48-1.42.5.02,1.24.12,1.68.35,5.25-.33,12.99.81,17.88,0,.76-.13,2.48-1.04,2.66-1.06,1.83-.27,3.09,1.21,3.1,0,.58.09,1.14.31,1.68.53,4.19-.5,12.64,1.19,15.22.89,4.99-.59-.67-.57-2.66-.71-4.86-.35-9.7-1.34-14.6-.89-2.23-.34-3.6-1.1-6.2-.53-1.7-.52-3.85-.11-5.49-.18-.18,0-.35,0-.53,0-1.01-.04-2.19-.29-3.19-.53-2.43-1.38-2.45-.1-5.04-.71-.14.14-.24.29-.44.35l-.71-.35c.21-.2.59-.6.71-.89.02-.01.16.04.53-.18-.28.73,4.96.81,5.22.71.42-.16-.38-1.36,1.06-1.06.8.17.46,1.16,1.42,1.06,1.63-.16-.76-1.89.35-1.59.76.2.07,2.6,2.12.35,1.43,1.99,2.39-.72,3.54,1.42,4.69.19,6.71-1.69,7.08-1.59.75,1.19,2.15.73,2.12,2.66,4.55-.25,9.09.26,13.63.35.16,0,.15-.66,3.19,0,.48-.7,3.91-.17,5.04,0Z" fill="#e7a0cb" stroke-width="0"/><path d="m38.94,20.28s.14-.1-.35-.18c4.91-.45,9.75.54,14.6.89,1.99.14,7.65.12,2.66.71-2.58.3-11.04-1.39-15.22-.89-.54-.22-1.1-.44-1.68-.53Z" fill="#6c337e" stroke-width="0"/><path d="m62.31,23.47l-.18.89-10.44-1.33c3.57-.32,7.08.04,10.62.44Z" fill="#2a1433" stroke-width="0"/><path d="m40.27,21.87c1.07-.2,9.21.11,10.71,1.15-3.3-.42-6.71-.3-10-.62-.54-.05-2.04-.28-.71-.53Z" fill="#61215f" stroke-width="0"/><path d="m67.44,20.81c.17.67-5.66-.08-3.54-.35,1.23-.16,2.43-.34,3.54.35Z" fill="#61215f" stroke-width="0"/><path d="m26.37,19.39c-3.01.95-3.03-.44-3.19-.53.99.24,2.18.49,3.19.53Z" fill="#764371" stroke-width="0"/><path d="m60.1,20.1c.71-.13,1.5.22,2.21.27,0,.3-4.15.09-2.21-.27Z" fill="#b3569a" stroke-width="0"/><path d="m17.7,18.51c-.44.14-.76.26-1.24.18.03-.02.33-.34.53-.53l.71.35Z" fill="#9a829c" stroke-width="0"/><path d="m31.69,13.73s0,.15.27.35c2.79-.97,2.99,2.4,5.4.8-.38-.19-1.18-.2-1.33-.27-2.83-1.19,1.43-.34,1.59-.35.22-.02,1.95-.94,2.92-1.06.84-.11,1.62.04,1.42.89-.58-.12-1.07-.28-1.68-.18-8.63,5.61-4.27.29-8.76,1.06-.2.02-.15-.09-.18-.18-.47-1.72-1.7-.83-1.86-.89-.07-.03-.51-.77-1.06-.89-4.43-.96-4.64,2.15-7.61,2.12l-.53.71c-1.2-.18-1.21.29-1.68.53-.72.13-.5-.35-.53-.35.11-1.56,1-.82,1.86-1.24.67-.32,1.22-.9,1.59-1.06.18-.08.69.07.89,0,.11-.04.77-.96,2.21-1.06,2.88-.47,4.56.33,7.08,1.06Z" fill="#5569a0" stroke-width="0"/><path d="m13.1,15.68c.13,0,.42.67,2.48,0,.06,1.51.16.65.18.71.07.25.36.4.35.44-.1.76-3.03,1.05-3.72,1.33-.45-1.06-1.95.15-2.83.18-.14,0-.34-.2-.35-.35.02-.07.16-.34.18-.35,1.79-1.25.74-2.08,3.72-1.95Z" fill="#b2d7e7" stroke-width="0"/><path d="m28.5,10.72l.71,1.24c-1.21-.07-2.82.11-4.07.18-1.07.06-1.96.39-2.39.35-.15-.01-.07-.35-.09-.35,1.28-1.69,2.88-2.81,4.51-.89.38-.31.87-.43,1.33-.53Z" fill="#a1e2e3" stroke-width="0"/><path d="m29.21,11.96c.4.02.96-.06,1.24,0,.97.22,1.56.69,1.24,1.77-2.52-.73-4.2-1.53-7.08-1.06l.53-.53c1.25-.07,2.86-.24,4.07-.18Z" fill="#a9c6ee" stroke-width="0"/><path d="m16.46,14.26l-2.83.35c1.69-2.47,5.29-2.39,5.31-1.86-.99.45-1.61.9-2.48,1.5Z" fill="#efe4e5" stroke-width="0"/><path d="m30.8,9.48c-1.2,1.59-.71.9-2.3,1.24-.46.1-.95.23-1.33.53-1.64-1.93-3.23-.8-4.51.89-.13-.05-.24.27-.44.18,2.21-4.15,4.55-1.45,6.73-1.95.89-.2,1.4-.99,1.59-1.06.27-.1.25.18.27.18Z" fill="#595b87" stroke-width="0"/><path d="m9.2,17.98c.01.15.21.36.35.35l-.18,1.24c-.06.01-.12,0-.18,0-1.31.22-.39.43.53.35.17.44-.34.33-.35.35-.43.02-.86-.2-1.24-.35-.79-.32-1.13-.16-1.06-1.24l2.12-.71Z" fill="#4a4d91" stroke-width="0"/><path d="m13.28,15.15s.02.12,0,.18c-.04.12.09.36-.18.35-2.97-.13-1.93.7-3.72,1.95-.52-1.45,2.64-3.29,3.89-2.48Z" fill="#5569a0" stroke-width="0"/><path d="m15.4,15.32c-.73.28-1.35.35-2.12,0,.02-.05-.02-.13,0-.18.01-.03.28-.42.35-.53l2.83-.35c-.05.04.1.56-.09.71-.93-.15-.93.34-.97.35Z" fill="#d4d9ea" stroke-width="0"/><path d="m15.4,15.32c.62-.01.17.15.18.35-2.06.67-2.35,0-2.48,0,.27,0,.14-.24.18-.35.78.35,1.4.28,2.12,0Z" fill="#d4d9ea" stroke-width="0"/><path d="m35.76,7.18c-.84.98-.23,1.24-1.59.89.56-.25.55-.55,1.59-.89Z" fill="#4d7eb0" stroke-width="0"/><path d="m29.21,25.06c-1.18.49-2.82-.09-4.16,0-1.09.08-2.16.69-3.98.53-1.23-.11-2.89-1.03-4.25-.89v-.35c.41-.02,1.14-.16,1.5-.35,4.77,1.5,6.69-.39,10.89,1.06Z" fill="#12203b" stroke-width="0"/><path d="m8.14,19.93c.38.15.81.38,1.24.35-.03.05.02.33,0,.53-.73.08-1.96.53-2.83.71-1.9.38-3.68,1.44-4.43.53.36-.13.76-.21,1.15-.18.62-1.1,3.56-1.86,4.87-1.95Z" fill="#d6d3eb" stroke-width="0"/><path d="m62.31,17.09c.28.22.35.13.53.35.04.05-.08.37.53,1.24-.04,0,.21.2-.53,0-.62-.17-1.47-1.09-2.12-1.42.08,0,.16-.3,1.59-.18Z" fill="#4c255e" stroke-width="0"/><path d="m50.98,16.56c-1.99-.12-3.74-1.31-5.58-1.77-.67-.17-1.3.42-2.39-.18-.13-.03-.48-.41-1.06-.53.2-.85-.57-.99-1.42-.89-.05-.73-.42-.8.35-1.24,1.96-1.11,2.98.73,3.27.71,2.59-2.24,2.28.3,2.39.44,1.61,2.21,2.99-.4,4.34,1.33,2.03-1.39,2,.31,2.12.35.13.04.9-1.12,2.48-.53,2.01.75.54,3.55-1.06,2.12-.62-.55.29-.79,0-.89-1.16-.4-2.44.72-3.45,1.06Z" fill="#e7a0cb" stroke-width="0"/><path d="m40.89,11.96c-.78.44-.4.51-.35,1.24-.97.12-2.71,1.04-2.92,1.06-.17.02-4.43-.84-1.59.35.15.06.95.08,1.33.27-2.41,1.6-2.61-1.77-5.4-.8-.27-.2-.24-.35-.27-.35.32-1.08-.27-1.55-1.24-1.77-.88-1.06,1.03-.1,1.86-.18.17-.02.67-1.35,3.01,0,2.01.2,3.64-1.41,5.58.18Z" fill="#e7b7dc" stroke-width="0"/><path d="m50.98,16.56c-6.86,2.35-4.12-.58-6.11-1.42-.29-.12-1.44.3-1.86-.53,1.09.6,1.71,0,2.39.18,1.83.46,3.59,1.65,5.58,1.77Z" fill="#6e4889" stroke-width="0"/><path d="m62.31,17.09c-1.43-.13-1.51.17-1.59.18-3.86.19-4.39.59-.97-.89,1-.13,1.78.09,2.57.71Z" fill="#e7b7dc" stroke-width="0"/><path d="m31.51,14.97s-.61.82-.18-.18c.02.09-.02.2.18.18Z" fill="#a09b8e" stroke-width="0"/><path d="m12.39,18.16c-1.11.44-.67.93-3.01,1.42l.18-1.24c.88-.02,2.38-1.24,2.83-.18Z" fill="#bbb0e3" stroke-width="0"/><path d="m9.2,19.57c.05.34.4.01.53.35-.92.08-1.84-.13-.53-.35Z" fill="#bbb0e3" stroke-width="0"/></g></svg>