<?xml version="1.0" encoding="UTF-8"?><svg id="b" xmlns="http://www.w3.org/2000/svg" xmlns:xlink="http://www.w3.org/1999/xlink" viewBox="0 0 2527.35 1444.62"><defs><linearGradient id="e" x1="1262.78" y1="-650.45" x2="1265.09" y2="-191.46" gradientTransform="translate(-.47 1887.79) scale(1 2.85)" gradientUnits="userSpaceOnUse"><stop offset=".16" stop-color="#c93496"/><stop offset="1" stop-color="#f8cda7"/></linearGradient><linearGradient id="f" x1="1262.91" y1="11.83" x2="1265.23" y2="470.82" gradientTransform="matrix(1,0,0,1,0,0)" xlink:href="#e"/><linearGradient id="g" x1="1263.11" y1="304.31" x2="1264.16" y2="565.89" gradientUnits="userSpaceOnUse"><stop offset="0" stop-color="#1b3a71"/><stop offset="1" stop-color="#afb9cb"/></linearGradient><linearGradient id="h" x1="1227.13" y1="550.1" x2="1226.56" y2="611.79" gradientUnits="userSpaceOnUse"><stop offset="0" stop-color="#5480b4"/><stop offset="1" stop-color="#819cc0"/></linearGradient></defs><g id="c"><g id="d"><rect width="2527.35" height="1444.62" style="fill:url(#e); stroke-width:0px;"/><path d="m182.96.92c-2.28,14.46,14.26,16.64,7.4,0C969.32-1.98,1748.34,3.09,2527.31.92c.17,135.72-.23,271.45,0,407.18-35.4-8.88-71.14-6.62-107.35-2.47-44.17-26.31-101.69,5.1-150.53,7.4-27.08-20.34-72.56-1.63-108.58-17.27q-29.61,8.64-59.23,17.27c-12.45.9-23.24-21.05-69.1,2.47-36.89-14.2-50.98-6.26-85.14,0-24.9,4.56-51.54,15.1-77.73,17.27-31.84,2.65-88.26-8.5-103.64,7.4-88.15-35.79-172.41-81.25-250.48-135.73-51.42-35.88-100.81-75.77-144.36-120.92h-101.18c-19.77,19.79-38.84,41.42-60.46,59.23-10.78,8.88-22.68,16.67-32.08,27.15-23.7,11.1-42.64,30.3-64.16,44.42-137.5,90.25-291.64,151.48-450.36,192.48-113.41-33.95-218.99-84.94-315.87-153-28.73-20.18-63.43-53.1-80.2-64.16-1.05-.69-5.64-10.76-12.34-9.87,3.63-3.69-1.16-11.56-3.7-12.34-5.45-1.67-124.02-5.15-102.41,12.34-6.96-1.07-12,10.39-14.81,12.34C89.23,322.86,49.35,361.19.35,385.89.58,257.57.17,129.24.35.92c60.87-.19,121.74.25,182.61,0Z" style="fill:url(#f); stroke-width:0px;"/><path d="m59.57,1264.4c14.05,11.11,27.2-3.77,33.31,24.68,43.19,2.59,3.04,3.88,1.23,8.64-.2.52,5.14,9.36,4.94,9.87-.89,2.25-25.36,6.36-22.21,14.81,2.13,5.7,22.86-1.48,24.68,18.51-8.43,0-19.25,5.07-28.38,2.47-4.65,4.03-5.31,9.86-8.64,14.81q-32.08,11.1-64.16,22.21c-.88-50.13.2-100.39,0-150.53,21.28-.23,20.43,17,45.65,17.27,6.43,3.58,9.89,14.36,13.57,17.27Z" style="fill:#191a24; stroke-width:0px;"/><path d="m190.36.92c6.86,16.64-9.68,14.46-7.4,0,2.47-.01,4.94,0,7.4,0Z" style="fill:#f3c5e7; stroke-width:0px;"/><path d="m2232.42,72.49c150.19-17.82,160.7,227.92-2.47,207.29-113.91-14.4-110.32-193.91,2.47-207.29Z" style="fill:#f1f1f3; stroke-width:0px;"/><path d="m2378.01,8.32c7.88-5.17,12.48,8.06,4.94,9.87-4.82,1.16-8.72-7.39-4.94-9.87Z" style="fill:#e06cb2; stroke-width:0px;"/><path d="m1854.85,50.28c8.52,0,3.63,9.87,0,9.87s-8.52-9.87,0-9.87Z" style="fill:#f3c5e7; stroke-width:0px;"/><path d="m255.76,50.28c7.57-1.37,4.93,9.48,2.47,9.87-1.3.21-9.5-8.6-2.47-9.87Z" style="fill:#f3c5e7; stroke-width:0px;"/><path d="m120.03,35.47c5.81-.96,7.3,6.6,2.47,7.4-5.81.96-7.3-6.6-2.47-7.4Z" style="fill:#f587d5; stroke-width:0px;"/><path d="m2424.9,35.47c1.31-.32,9.91,6.08,2.47,7.4-9.43,1.68-6.24-6.5-2.47-7.4Z" style="fill:#f3c5e7; stroke-width:0px;"/><path d="m653.06,124.31c3.67.08,3.28,13.24-2.47,9.87-3.54-2.07.28-9.92,2.47-9.87Z" style="fill:#f3c5e7; stroke-width:0px;"/><path d="m349.53,33c5.81-.96,7.3,6.6,2.47,7.4-5.81.96-7.3-6.6-2.47-7.4Z" style="fill:#f3c5e7; stroke-width:0px;"/><path d="m574.1,50.28c4.78-2.51,7.55,7.68,2.47,7.4-5.47-.3-4.8-6.18-2.47-7.4Z" style="fill:#ffdffd; stroke-width:0px;"/><path d="m919.58,227.95c8.18-3.6,6.68,7.27,2.47,7.4-1.25.04-6.01-5.85-2.47-7.4Z" style="fill:#f67ea9; stroke-width:0px;"/><path d="m630.86,37.94c8.18-3.6,6.68,7.27,2.47,7.4-1.25.04-6.01-5.85-2.47-7.4Z" style="fill:#e06cb2; stroke-width:0px;"/><path d="m1546.38,40.4c4.78-2.51,7.55,7.68,2.47,7.4-5.47-.3-4.8-6.18-2.47-7.4Z" style="fill:#f3c5e7; stroke-width:0px;"/><path d="m2089.29,45.34c4.78-2.51,7.55,7.68,2.47,7.4-5.47-.3-4.8-6.18-2.47-7.4Z" style="fill:#e06cb2; stroke-width:0px;"/><path d="m954.13,242.76c1.8-1.32,7.95.19,6.17,3.7-1.94,3.82-11.46.17-6.17-3.7Z" style="fill:#ffc2d2; stroke-width:0px;"/><path d="m786.32,237.82c.84-.25,5.41,5.19,3.7,8.64-2.03,4.09-8.12-7.33-3.7-8.64Z" style="fill:#f8e0e3; stroke-width:0px;"/><path d="m2484.12,33c5.2-2.34,5.2,9.75,0,7.4-1.98-.89-1.98-6.51,0-7.4Z" style="fill:#f3c5e7; stroke-width:0px;"/><path d="m998.55,30.53c1.8-1.32,7.95.19,6.17,3.7-1.94,3.82-11.46.17-6.17-3.7Z" style="fill:#e06cb2; stroke-width:0px;"/><path d="m1042.97,144.05c5.2-2.34,5.2,9.75,0,7.4-1.98-.89-1.98-6.51,0-7.4Z" style="fill:#f3c5e7; stroke-width:0px;"/><path d="m1353.9,55.21c1.64,0,4.78,9.87,0,9.87s-1.64-9.87,0-9.87Z" style="fill:#f3c5e7; stroke-width:0px;"/><path d="m544.48,15.73c.88,0,5.43,3.55,1.23,6.17-4.7,2.94-5.49-6.17-1.23-6.17Z" style="fill:#f587d5; stroke-width:0px;"/><path d="m1457.55,28.07c.88,0,5.43,3.55,1.23,6.17-4.7,2.94-5.49-6.17-1.23-6.17Z" style="fill:#e06cb2; stroke-width:0px;"/><path d="m1926.42,28.07c.88,0,5.43,3.55,1.23,6.17-4.7,2.94-5.49-6.17-1.23-6.17Z" style="fill:#f587d5; stroke-width:0px;"/><path d="m2392.82,252.63c.28-.2,4.03,2.5,2.47,4.94-3.8,5.91-5.61-2.71-2.47-4.94Z" style="fill:#f8e0e3; stroke-width:0px;"/><path d="m1662.37,220.55c3.69-1.48,5.42,3.75,2.47,4.94-3.69,1.48-5.42-3.75-2.47-4.94Z" style="fill:#f3c5e7; stroke-width:0px;"/><path d="m951.66,37.94c6.35-3.36,7.13,4.4,2.47,4.94-.27.03-4.99-3.6-2.47-4.94Z" style="fill:#e06cb2; stroke-width:0px;"/><path d="m1302.08,109.5c.28-.2,4.03,2.5,2.47,4.94-3.8,5.91-5.61-2.71-2.47-4.94Z" style="fill:#f587d5; stroke-width:0px;"/><path d="m1622.88,186c3.69-1.48,5.42,3.75,2.47,4.94-3.69,1.48-5.42-3.75-2.47-4.94Z" style="fill:#ffb8ea; stroke-width:0px;"/><path d="m2380.48,40.4l1.23,1.23v2.47l-1.23,1.23h-2.47l-1.23-1.23,1.23-1.23,1.23-1.23,1.23-1.23Z" style="fill:#d749a9; stroke-width:0px;"/><path d="m115.1,186l1.23,1.23,1.23,1.23,1.23,1.23-1.23,1.23h-2.47l-1.23-1.23v-2.47l1.23-1.23Z" style="fill:#ffb8ea; stroke-width:0px;"/><path d="m2017.72,151.45c1.88,0,1.88,7.4,0,7.4s-1.88-7.4,0-7.4Z" style="fill:#e06cb2; stroke-width:0px;"/><path d="m690.08,20.66l1.23,1.23v2.47l-1.23,1.23h-2.47l-1.23-1.23,1.23-1.23,1.23-1.23,1.23-1.23Z" style="fill:#d749a9; stroke-width:0px;"/><path d="m564.23,148.99l1.23,1.23v2.47l-1.23,1.23h-2.47l-1.23-1.23,1.23-1.23,1.23-1.23,1.23-1.23Z" style="fill:#f587d5; stroke-width:0px;"/><path d="m1849.92,15.73l1.23,1.23v2.47l-1.23,1.23h-2.47l-1.23-1.23,1.23-1.23,1.23-1.23,1.23-1.23Z" style="fill:#ff9ded; stroke-width:0px;"/><path d="m996.08,146.52l1.23,1.23v2.47l-1.23,1.23h-2.47l-1.23-1.23,1.23-1.23,1.23-1.23,1.23-1.23Z" style="fill:#f587d5; stroke-width:0px;"/><path d="m1923.95,134.18h2.47l1.23,1.23-1.23,1.23-1.23,1.23-1.23,1.23-1.23-1.23v-2.47l1.23-1.23Z" style="fill:#f587d5; stroke-width:0px;"/><path d="m2113.96,121.84h2.47l1.23,1.23-1.23,1.23-1.23,1.23-1.23,1.23-1.23-1.23v-2.47l1.23-1.23Z" style="fill:#ffb8ea; stroke-width:0px;"/><path d="m240.95,114.44h2.47l1.23,1.23v2.47l-1.23,1.23-1.23-1.23-1.23-1.23-1.23-1.23,1.23-1.23Z" style="fill:#e06cb2; stroke-width:0px;"/><path d="m1126.87,139.11l1.23,1.23,1.23,1.23,1.23,1.23-1.23,1.23h-2.47l-1.23-1.23v-2.47l1.23-1.23Z" style="fill:#f587d5; stroke-width:0px;"/><path d="m1119.47,102.1l1.23,1.23,1.23,1.23,1.23,1.23-1.23,1.23h-2.47l-1.23-1.23v-2.47l1.23-1.23Z" style="fill:#d749a9; stroke-width:0px;"/><path d="m2091.75,92.23l1.23,1.23,1.23,1.23,1.23,1.23-1.23,1.23h-2.47l-1.23-1.23v-2.47l1.23-1.23Z" style="fill:#f587d5; stroke-width:0px;"/><path d="m1919.01,84.82l1.23,1.23v2.47l-1.23,1.23h-2.47l-1.23-1.23,1.23-1.23,1.23-1.23,1.23-1.23Z" style="fill:#fb6bca; stroke-width:0px;"/><path d="m959.06,84.82l1.23,1.23,1.23,1.23,1.23,1.23-1.23,1.23h-2.47l-1.23-1.23v-2.47l1.23-1.23Z" style="fill:#e06cb2; stroke-width:0px;"/><path d="m1145.38,1145.95c5.55.48,12.98-.78,14.81,0,1.01.43,10.14,16.92,13.57,17.27,4.66.48,29.6-41.38,81.44,2.47,34.31-21.14,42.31-5.57,62.93,2.47,8.53,3.33,6.97,12.02,29.61,12.34,34.84.48,52.74-32.86,90.07,4.94,45.57-19.29,52.45.41,83.9,27.15,29.65-8.65,51.68,5.9,54.29,4.94,4.94-1.83-4.96-36.35,44.42-29.61,28.87,3.94,16.29,22.66,48.12,41.95,2.39,8.1,11.13,3.75,17.27,4.94,3.99,11.15,7.16,12.56,17.27,17.27-.52,5.25.36,10.75,0,16.04-3.15,3.78-5.99-1.49-6.17-1.23-20.71,29.21-26.78,23.14-57.99,32.08-11.55,3.31-36.28,11.93-38.25,12.34-5.93,1.22-8.44-14.04-12.34,2.47-1.76.15-.71-5.06-2.47-4.94-110.4,7.92-220.29,28.16-328.21,51.82-79.25,31.79-244.89,81.83-323.27,56.76-25.84-8.27-80.61-52.03-114.75-49.35-1.68-4.15-2.47-11.72-8.64-12.34-.97-.1-3.53,6.2-8.64,4.94-3.28-21.63-13.65-18.66-12.34-37.02,1.02-14.34,10.29-17.55,9.87-18.51-.69-1.59-24.1-2.84-17.27-24.68,2.84-9.07,21.35-11.4,22.21-12.34.97-1.06-.84-13.74,12.34-25.91,7.67-7.08,17.74-6.77,18.51-7.4,2.35-1.93,5.32-13.41,7.4-14.81,6.06-4.07,16.04-1.65,17.27-2.47,2.33-1.55-3.62-21.97,32.08-17.27-.48-32.07,67.4-49.45,91.31-39.48,2.24-.79-1.79-11.93,38.25-24.68,30.77-9.79,53.48-9.62,77.73,17.27,5.48,1.05,12.94-10.26,45.65-7.4Z" style="fill:#191a24; stroke-width:0px;"/></g><path d="m2527.31,913.98c-.23,176.85.17,353.71,0,530.56-104.47.16-208.94-.21-313.4,0-1.12-18.35,18.44-16.12,19.74-20.98.21-.8-7.4-12.2-7.4-14.81-.06-21.07,19.4-14.95,32.08-43.19,65.24-4.95,40.23-60.7,99.94-59.23,2.9-1.54-11.66-18.39,6.17-39.48,5.25-6.21,15.23-9.73,22.21-13.57-44.41-18.04-3.65-16.88,0-45.65,26.87,2.63,18.24-5.76,19.74-7.4,47.24-51.46,111.67-56.25,25.91-49.35-11.16-11.97-34.33-17.77-48.12-24.68-3.99-2-8.29-5.07-12.34-7.4-5.17-2.97-7.07-2.26-7.4-2.47-3.34-2.05-4.7-2.32-4.94-2.47-3.65-2.36-4.71-2.31-4.94-2.47-3.19-2.22-29.03-24.03-29.61-25.91-7.04-22.57,23.01-6.81,27.15-12.34,3.63-4.85-45.72-23.99,38.25-18.51,2.55-1.8.87-13.46,1.23-17.27,1.74-18.11,4.59-70.16-13.57-74.03-66.87,2.27-453.06-.38-476.27,4.94-4.31.99-14.04,7-16.04,11.1-18.53,37.96,19.2,25.97,18.51,40.72,3.34.57,9.04-.85,11.1,0,2.08.86,12.73-.33,14.81,3.7,2.81,5.45-4.59,41.97,3.7,45.65,3.04,1.35,15.39-1.32,17.27,0,3.06,2.15-.59,10.19,2.47,12.34,2.85,2,50.09-2.59,53.06,1.23,12.51,16.11-41.41,2.16-72.8,13.57-6.44,4.46-2.81,13.68-3.7,22.21-1.61-13.84-43.45,2.21-77.73,4.94-71.3,5.66-306.71,6.23-380.03,2.47-43.33-2.22-85.9-6-127.09-19.74,2.63-22.78-33.64-4.25-19.74-35.78,3.22-7.31,19.58-1.18,22.21-4.94,2.19-3.13-1.66-65.78,0-76.5-.53-1.31-7.47-5.81-8.64-6.17-16.17-4.92-290.75,3.75-338.08,0-36.71,75.57,1.79,7.86,37.02,76.5,30.75-5.99,41.95,14.43,44.42,14.81,6.14.92,16.35-9.46,19.74-9.87,45.54-5.55,38.85,14.33,46.89,17.27,7.33,2.69,105.6,3.28,20.98,29.61-6.43,2-15.62,3.69-22.21,4.94-44.72,8.48-89.45,2.97-133.26,12.34-22.62-9.54-425.05,16.24-489.85-7.4-2.64,20.98-27.65,9.04-46.89,12.34-28.01,4.8-55.72,13-83.9,17.27-131.4,3.13-262.19,14.2-393.6,4.94-.15-63.34.08-126.68,0-190.02,566.84-41.9,1135.94-32.94,1703.97-41.95q81.44-4.94,162.87-9.87h660.12Z" style="fill:#191a24; stroke-width:0px;"/><path d="m1452.61,997.89c1.36-.96,32.26-.25,33.31,1.23,1.68,2.37,1.24,54.37-3.7,57.99-1.31.96-29.44,6.26-30.85,1.23,1.16-8.34-2.06-58.12,1.23-60.46Z" style="fill:#bba4a7; stroke-width:0px;"/><path d="m1536.51,995.42c34.43-15.28,32.43,29.33,27.15,37.02-.89,1.3-28.59,9.74-30.85,6.17,1.58-7.69-3.66-39.92,3.7-43.19Z" style="fill:#bba4a7; stroke-width:0px;"/><path d="m1627.82,995.42q31.46.62,62.93,1.23c-51.89,19.16-85.98,42.09-62.93-1.23Z" style="fill:#bba4a7; stroke-width:0px;"/><path d="m1411.89,1007.76c-11.01,4.65-7.84,35.83-12.34,51.82-2.24-.41-6.17,1.12-7.4-1.23-1.76-3.36-6.23-80,19.74-50.59Z" style="fill:#bba4a7; stroke-width:0px;"/><path d="m1399.55,1059.58c4.5-16,1.33-47.18,12.34-51.82-2.37,36.86,8.13,55.58-12.34,51.82Z" style="fill:#a69599; stroke-width:0px;"/><path d="m2442.17,992.95c1.06-.75,24.91-.4,25.91,1.23-37.99,29.91-28.44.56-25.91-1.23Z" style="fill:#cfa0aa; stroke-width:0px;"/><path d="m634.56,1017.63c-.34-12.73-1.87-17.89,7.4-27.15,15.71-3.45,96.77-7.82,91.31,6.17-30.27-1.82-65.91,17.96-98.71,20.98Z" style="fill:#594c5d; stroke-width:0px;"/><path d="m641.96,990.48c-9.27,9.26-7.75,14.41-7.4,27.15-6.04.55-8.36,17.77-7.4-25.91,1.99-2.8,11.23-.45,14.81-1.23Z" style="fill:#928089; stroke-width:0px;"/><path d="m548.19,1037.37c1.16-8.64-12.47-4.72-24.68-9.87,19.07-18.97.74-42.91,25.91-37.02,12.4,2.9,12.88,50.47-1.23,46.89Z" style="fill:#594c5d; stroke-width:0px;"/><path d="m548.19,1037.37c-25.19-6.17-2.24,32.64-18.51,32.08-10.85-.38-4.55-33.21-6.17-41.95,12.21,5.15,25.84,1.23,24.68,9.87Z" style="fill:#928089; stroke-width:0px;"/><path d="m461.82,995.42c3.72.74,10.77,7.6,12.34-4.94,10.37,3.75,2.49,42.53,4.94,55.52-9.85,3.93-16.39-5.93-17.27-6.17,7.42-4.98-2.47-11.75-4.94-22.21-1.56-6.63-1.98-19.67-2.47-27.15,3.26.31.54,3.56,7.4,4.94Z" style="fill:#675a66; stroke-width:0px;"/><path d="m444.54,1015.16c1.03.57-5.31,5.85,12.34,2.47,2.46,10.46,12.35,17.23,4.94,22.21-6.3-1.72-8.22,2.63-8.64,2.47-1.84-.69-32.62-19.14-33.31-20.98-.46-1.21-.45-24.7,0-25.91,14.08-2.99,4.57,8.52,24.68,19.74Z" style="fill:#bba4a7; stroke-width:0px;"/><path d="m454.41,990.48c.48,7.47.91,20.51,2.47,27.15-17.65,3.38-11.31-1.89-12.34-2.47q-1.23-12.34-2.47-24.68c4.06.02,8.33-.38,12.34,0Z" style="fill:#928089; stroke-width:0px;"/><path d="m442.07,990.48q1.23,12.34,2.47,24.68c-20.11-11.22-10.6-22.73-24.68-19.74,2.81-7.55,14.81-4.98,22.21-4.94Z" style="fill:#a69599; stroke-width:0px;"/><path d="m474.15,990.48c-1.56,12.53-8.62,5.68-12.34,4.94-2.27-6.04,8.63-6.28,12.34-4.94Z" style="fill:#bba4a7; stroke-width:0px;"/><path d="m1456.31,881.9c-3.91,11.76-23.42,5.03-34.55,4.94,5.69-18.62,32.43-5.01,34.55-4.94Z" style="fill:#291921; stroke-width:0px;"/><path d="m2443.41,864.63c20.57,0,41.12-.75,61.69,0h22.21c0,6.58,0,13.16,0,19.74-45.09,8.47-381.34-12.52-392.37,3.7-.59.87-.41,5.2,1.23,6.17,16.82,9.99,342.51-9.12,391.14,2.47,0,5.76,0,11.52,0,17.27h-660.12q-81.44,4.94-162.87,9.87c-568.03,9.01-1137.13.06-1703.97,41.95-.02-14.81.02-29.61,0-44.42,7.35.4,14.89-.57,22.21,0,40.59,3.18,58.3-2.54,96.24-4.94,35.58-2.25,70.54-4.45,106.11-7.4,4.06-.34,8.28.35,12.34,0,10.03-.87,19.5-1.35,29.61-2.47,42.07,5.54,84.78-5.65,127.09-7.4,70.76-2.94,142.5-.63,213.46-2.47,17.28-.45,34.73-2.01,51.82-2.47,46.32-1.23,93.06,1.01,139.43,0,1.75-.04,21.79-4.9,23.44-4.94,4.11-.08,8.23.08,12.34,0,48.91-.95,97.91.73,146.83,0,1.29-.02,5.77-4.93,6.17-4.94,56.72-.82,113.54.2,170.27,0,8.23-.03,16.45.02,24.68,0,1.65,0,3.29,0,4.94,0,13.37-.02,28.07,2.39,41.95,2.47,16.38.09,14.06-2.47,14.81-2.47,9.82.08,19.87-.09,29.61,0,43.75.4,87.17-.23,130.79,0,.28,0-1.58,2.43,4.94,2.47,4.11.03,8.23-.04,12.34,0,11.13.09,30.64,6.83,34.55-4.94,26.7.91,52.38-1.01,78.97-2.47,2.46-.13,4.95.16,7.4,0,12.92-.85,39.7,1.66,45.65,0,.67-.19,4.84-13.67,9.87-9.87,1.49,1.12,5.43,19.89,29.61,9.87,1.06-.44-9.46-23.51,7.4-12.34,9.94,6.59-26.46,12.98,48.12,12.34,4.02-.03,14.06-2.45,14.81-2.47,18.05-.49,36.43-2.06,54.29-2.47,24.65-.56,49.38.6,74.03,0,6.57-.16,13.17.15,19.74,0,8.54-.2,16.14-2.3,24.68-2.47,27.99-.55,55.94-1.9,83.9-2.47,27.12-.55,54.31.48,81.44,0,37.39-.66,74.9.57,112.28,0,1.81-.03,21.53-4.74,35.78-4.94,5.76-.08,11.52.08,17.27,0,22.2-.29,44.43.26,66.63,0,6.58-.08,13.16.07,19.74,0,13.88-.15,28.55-2.41,41.95-2.47,37.54-.15,75.75,2.49,113.52,2.47Z" style="fill:#902a31; stroke-width:0px;"/><path d="m2527.31,884.37c0,4.11,0,8.23,0,12.34-48.62-11.58-374.32,7.52-391.14-2.47-1.64-.97-1.83-5.3-1.23-6.17,11.03-16.22,347.28,4.77,392.37-3.7Z" style="fill:#492725; stroke-width:0px;"/><path d="m116.33,911.52l2.47,4.94c-37.94,2.39-55.65,8.11-96.24,4.94l2.47-4.94c.88.16,5.72-8.84,13.57,4.94,12.62-4.34,17.01-5.59,33.31-7.4,14.71-1.64,29.57-3.06,44.42-2.47Z" style="fill:#3c293a; stroke-width:0px;"/><path d="m305.11,926.32c15.52-6.81,101.08,7.67-1.23,1.23.35-.54.74-1.02,1.23-1.23Z" style="fill:#791f20; stroke-width:0px;"/><path d="m64.51,1358.18c-.35.52-.94,10.43-2.47,12.34-2.34,2.92-50.94,28.83-61.69,34.55-.23-8.21.14-16.46,0-24.68q32.08-11.1,64.16-22.21Z" style="fill:#441e41; stroke-width:0px;"/><path d="m1147.85,1116.34l-2.47,29.61c-32.71-2.85-40.18,8.46-45.65,7.4-24.25-26.9-46.97-27.07-77.73-17.27,0-2.15-6.92-7.2-7.4-7.4,43.81-9.37,88.54-3.86,133.26-12.34Z" style="fill:#593258; stroke-width:0px;"/><path d="m1703.09,1244.66c.61,4.76.49,2.51,0,7.4-10.11-4.72-13.28-6.13-17.27-17.27.92.18,3.06-4.72,18.51,2.47-7.22,7.12-1.28,7.03-1.23,7.4Z" style="fill:#593258; stroke-width:0px;"/><path d="m703.65,640.06c-4.17,5.47,26.83,1.14,44.42-2.47,4.78,1.48,7.81,2.83,12.34,4.94.5.23-2.51,1.12,9.87,4.94,2.72.84,3.93,3.43,7.4,2.47-.22.65-5.55,12.03-6.17,12.34-3.68,1.88-70.54-.21-82.67,0,.94-28.4,13.39-21.37,14.81-22.21Z" style="fill:#556697; stroke-width:0px;"/><path d="m138.54,635.13c-.42,6.84.92,18.86,0,20.98-1.66,3.82-11.1,4.15-17.27,6.17-1.13.37-3.88-3.96-11.1-2.47-1.03.21-2.19,7.05-4.94,7.4-24.76,3.21-74.9-2.38-104.88,0,.02-18.92-.02-37.84,0-56.76,23.65,2.22,85.29-3.01,97.48,0,5.32,1.31,29.56,27.77,40.72,24.68Z" style="fill:#4872a8; stroke-width:0px;"/><path d="m254.53,279.78h-106.11c-21.61-17.49,96.96-14.01,102.41-12.34,2.54.78,7.33,8.65,3.7,12.34Z" style="fill:#f8e0e3; stroke-width:0px;"/><path d="m148.41,279.78h106.11c6.7-.89,11.29,9.18,12.34,9.87q-66.63,1.23-133.26,2.47c2.81-1.94,7.85-13.4,14.81-12.34Z" style="fill:#1c1e34; stroke-width:0px;"/><path d="m2527.31,408.1c0,3.29,0,6.58,0,9.87-74.86,7.5-150.29-15.06-223.33,2.47-75.52-8.6-152.54-.33-227.03-7.4-40.93,8.86-98.23,23.65-129.56,2.47,34.15-6.26,48.24-14.2,85.14,0,45.85-23.52,56.65-1.57,69.1-2.47q29.61-8.64,59.23-17.27c36.02,15.64,81.5-3.06,108.58,17.27,48.84-2.3,106.36-33.71,150.53-7.4,36.2-4.16,71.95-6.42,107.35,2.47Z" style="fill:#315186; stroke-width:0px;"/><path d="m1330.46,260.03c31.83,72.34,25.64,89.57,27.15-4.94.04-2.47-.07-4.94,0-7.4l53.06,61.69q-8.02-27.76-16.04-55.52,1.85-1.85,3.7-3.7c67.77,59.5,86.57,87.14,23.44-3.7-2.09-3,2.6-3.52,2.47-3.7q45.65,30.85,91.31,61.69c78.07,54.47,162.32,99.94,250.48,135.73,15.39-15.9,71.81-4.76,103.64-7.4,26.19-2.18,52.83-12.71,77.73-17.27,31.32,21.18,88.62,6.39,129.56-2.47,74.49,7.07,151.51-1.19,227.03,7.4,73.04-17.52,148.47,5.03,223.33-2.47.03,16.45-.02,32.9,0,49.35-83.02-14.37-107.34-26.54-191.25,4.94-19.86-5.62-84.14-6.38-96.24,4.94-72.83-4.25-141.05,35.77-214.69,29.61q-8.02,3.7-16.04,7.4c-54.96,19.94-127.99,20.31-171.51,49.35-19.54-10.77-35.25.29-39.48,0-25.18-8-91.66-26.3-97.48,4.94-38.87,17.08-83.82,8.27-125.85,9.87-28.7-10.27-64.84-9.04-70.33-9.87-3.91-.59-52.23-18.06-76.5-19.74-29.1-2.02-69.15,6.78-125.85-2.47-1.03-.17-2.11-6.94-4.94-7.4-14.27-2.32-28.95-1.83-41.95-9.87-95.3.42-189.48,19.07-281.32,44.42-31.62.12-66.1,3.86-95.01,17.27-38.3,5.27-113.43,9.7-144.36-7.4-32.28,13.97-64.93-1.83-93.77-12.34-38.6-3.29-72.88-12.23-111.05-4.94-24.19-8.66-50.23-11.91-75.27-17.27-17.52-3.76-34.92-9.73-53.06-9.87-11.15-12.26-41.3-10.53-66.63-27.15-19.73-2.29-58.5,22.02-93.77-4.94-33.6,8.26-89.02,7.16-93.77,27.15-59.52,14.13-107.24-10.91-146.83,14.81.06-54.29-.1-108.58,0-162.87,49.01-24.7,88.88-63.03,133.26-93.77q66.63-1.23,133.26-2.47c16.78,11.06,51.47,43.98,80.2,64.16,96.88,68.06,202.46,119.05,315.87,153,158.72-41,312.87-102.24,450.36-192.48,24.42-12.89,48.07-27.49,71.56-41.95,49.42-30.42,41.75-33.79-7.4,28.38q1.85,1.85,3.7,3.7,29.61-23.44,59.23-46.89-4.94,22.21-9.87,44.42c62.93-69.93,61.11-67.2,39.48,27.15,14.74-18.69,22.43-41.02,33.31-61.69,5-9.5,12.16-26.6,13.57-27.15,10.82-4.18,10.48,12.72,13.57,19.74Z" style="fill:url(#g); stroke-width:0px;"/><path d="m1177.46,269.9l7.4,2.47c-23.49,14.46-47.15,29.06-71.56,41.95,21.52-14.12,40.46-33.31,64.16-44.42Z" style="fill:#f8e0e3; stroke-width:0px;"/><path d="m1357.6,255.1c-1.5,94.51,4.68,77.28-27.15,4.94,15.95-1.47,15.88,7.29,27.15-4.94Z" style="fill:#b4c4db; stroke-width:0px;"/><path d="m1225.58,319.26c1.88,0,1.88,7.4,0,7.4s-1.88-7.4,0-7.4Z" style="fill:#c4e6ff; stroke-width:0px;"/><path d="m1515.54,304.45q-45.65-30.85-91.31-61.69c-9.29-13.05-61.05-55.57-66.63-43.19-1.56,3.47,2.63,14.16,2.47,16.04-.03.39-1.97-2.43-2.47,7.4-4.02,1.72-18.5,7.62-20.98,7.4-21.68-1.9-10.69-51.28-22.21-2.47-.37-10.53-10.76-7.08-20.98-9.87.08-2.99,3.31-16.64,1.23-17.27-8.63,6.5-32.91,63.2-44.42,49.35-6.25-7.52,25.75-45.35,25.91-48.12.84-14.17-51.24,55.71-56.76,44.42l8.64-8.64q-9.25,2.47-18.51,4.94c21.62-17.81,40.69-39.43,60.46-59.23h101.18c43.56,45.15,92.95,85.04,144.36,120.92Z" style="fill:#f1f1f3; stroke-width:0px;"/><path d="m1293.44,218.08c-1.58,57.54-13.6,85.95,9.87,49.35-10.88,20.67-18.58,43-33.31,61.69,21.63-94.35,23.45-97.07-39.48-27.15q4.94-22.21,9.87-44.42-29.61,23.44-59.23,46.89-1.85-1.85-3.7-3.7c49.15-62.17,56.82-58.8,7.4-28.38l-7.4-2.47c9.4-10.47,21.3-18.27,32.08-27.15q9.25-2.47,18.51-4.94l-8.64,8.64c5.52,11.29,57.6-58.59,56.76-44.42-.16,2.77-32.16,40.6-25.91,48.12,11.51,13.85,35.78-42.85,44.42-49.35,2.07.63-1.15,14.29-1.23,17.27Z" style="fill:#b4c4db; stroke-width:0px;"/><path d="m1424.23,242.76c.13.18-4.55.7-2.47,3.7,63.12,90.84,44.33,63.2-23.44,3.7q-1.85,1.85-3.7,3.7,8.02,27.76,16.04,55.52l-53.06-61.69c.23-8.2-.41-16.49,0-24.68,6.23-2.66,22.07-5.51,2.47-7.4.17-1.88-4.03-12.57-2.47-16.04,5.57-12.39,57.34,30.14,66.63,43.19Z" style="fill:#b4c4db; stroke-width:0px;"/><path d="m1357.6,223.02c-.41,8.18.23,16.48,0,24.68-.07,2.46.04,4.94,0,7.4-11.26,12.22-11.2,3.46-27.15,4.94-3.09-7.02-2.75-23.92-13.57-19.74-1.42.55-8.57,17.64-13.57,27.15-23.47,36.59-11.45,8.19-9.87-49.35,10.22,2.79,20.61-.66,20.98,9.87,11.52-48.82.53.57,22.21,2.47,2.48.22,16.96-5.69,20.98-7.4Z" style="fill:#f1f1f3; stroke-width:0px;"/><path d="m1357.6,223.02c.49-9.84,2.43-7.01,2.47-7.4,19.6,1.89,3.77,4.74-2.47,7.4Z" style="fill:#d0d4df; stroke-width:0px;"/><path d="m1377.35,640.06c4.25-1.06,84.03-2.53,87.6,0,2.69,1.9.61,11.1,1.23,14.81-.25,0,.77,4.96-1.23,4.94-12.53-.15-89.95,2.71-93.77,0-1.06-.75-7.01-16.46,6.17-19.74Z" style="fill:#adb2c8; stroke-width:0px;"/><path d="m1574.76,578.37c-13.76,6.92-29.85,6.59-44.42,9.87-45.88,10.34-115.8,32.84-160.4,37.02-1.42.13-11.22,3.23-13.57,4.94-26.27-14.87-56.53-1.81-83.9,0-60.79,4.03-121.9,4.23-182.61,9.87-45.13-8.39-89.6-20.25-134.49-29.61-25.83-5.39-51.27-12.06-76.5-19.74,28.91-13.41,63.39-17.15,95.01-17.27,91.84-25.35,186.03-44,281.32-44.42,13.01,8.04,27.69,7.55,41.95,9.87,2.83.46,3.91,7.24,4.94,7.4,56.7,9.25,96.75.45,125.85,2.47,24.27,1.68,72.59,19.15,76.5,19.74,5.49.83,41.63-.4,70.33,9.87Z" style="fill:url(#h); stroke-width:0px;"/><path d="m2527.31,501.87c.04,27.14-.03,54.29,0,81.44-195.43,5.17-390.72-4.88-586.09-7.4-80.61-1.04-160.82,9.96-240.6-7.4,5.81-31.24,72.3-12.93,97.48-4.94,4.23.29,19.94-10.77,39.48,0,43.51-29.05,116.55-29.42,171.51-49.35,39.56,6.63,86.87-6.2,102.41-7.4,1.24-.1,3.25,4.1,24.68,2.47,53.59-4.07,106.49-10.95,160.4-12.34,30.23-.78,35.15,4.96,37.02,4.94,39.51-.56,35.09-4.93,37.02-4.94,52.09-.04,104.68,1.74,156.7,4.94Z" style="fill:#1f3b69; stroke-width:0px;"/><path d="m2527.31,467.32c.02,11.52-.02,23.03,0,34.55-52.02-3.2-104.61-4.97-156.7-4.94-1.93,0,2.5,4.38-37.02,4.94-1.87.03-6.79-5.71-37.02-4.94-53.91,1.39-106.81,8.27-160.4,12.34-21.43,1.63-23.44-2.56-24.68-2.47-15.55,1.21-62.85,14.04-102.41,7.4q8.02-3.7,16.04-7.4c73.65,6.16,141.87-33.86,214.69-29.61,12.1-11.31,76.38-10.55,96.24-4.94,83.91-31.48,108.23-19.3,191.25-4.94Z" style="fill:#1f3b69; stroke-width:0px;"/><path d="m1685.81,652.4h2.47c19.79,22.8,120.32,3.74,96.24,39.48-.36.61.35,1.84,0,2.47h-85.14l-1.23,4.94c.44,5.68-.63,11.64,0,17.27-16.85,1.82-23.44-2.5-24.68-2.47,3.19-21.78-3.42-17.35-30.85-19.74.94-18.1-49.86-6.82-85.14-9.87.68-3.69,6.77-1.15,4.94-8.64-27.59-7.39-68.03-20.57-96.24-20.98-.62-3.7,1.46-12.9-1.23-14.81-3.57-2.53-83.35-1.06-87.6,0q-3.7-7.4-7.4-14.81c44.6-4.18,114.52-26.68,160.4-37.02,46.17,34.51,96.49,62.33,155.47,64.16Z" style="fill:#4872a8; stroke-width:0px;"/><path d="m2440.94,686.95c.64,4.6-.94,11.25,0,14.81-3.26-.21-6.64.33-9.87,0-32.87-3.33-66.02,1.7-98.71,2.47-1.17.03,6.99-3.55-17.27-2.47,3.69-2.59,3.79-12.96,33.31-17.27,43.43-6.35,33.02,7.17,37.02,7.4,9.13.54,42.7-4.51,55.52-4.94Z" style="fill:#556697; stroke-width:0px;"/><path d="m2527.31,583.31c.04,37.02-.03,74.03,0,111.05h-27.15c-5.29-18.47-31.77-8.32-59.23-7.4-12.83.43-46.39,5.48-55.52,4.94-4-.24,6.42-13.75-37.02-7.4-29.53,4.31-29.62,14.69-33.31,17.27-.41.29-1.2,6.25-8.64,4.94-6.36-13.9-75.4-17.73-60.46,4.94-7.56-.12-29.82,4.02-33.31,2.47q-1.85-15.42-3.7-30.85c-3.12-3.36-1.44,4.28-4.94,3.7-15.87-2.62-33.37-4.14-49.35-4.94,2.85-14.33-12.76-14.23-9.87,0-1.64-.04-3.29.04-4.94,0-.25,0,.9-4.04-1.23-4.94-6.67-.15-22.17,8.16-51.82,4.94-2.06.24-.98,4.91-1.23,4.94-65.82,7.54-40.89-4.79-48.12-9.87-2.12-1.49-49.71-1.5-51.82,0-2.68,1.89-.64,11.23-1.23,14.81-.93,5.62-1.36,11.63-2.47,17.27-27.54-.43-55.12.32-82.67,0-2.75-5.09-5.68-9.85-8.64-14.81-.36-.61.35-1.84,0-2.47-.51-.91,2.84-6.83-8.64-17.27-21.83,19.57-102.77-5.97-92.54,17.27h-4.94c24.07-35.75-76.46-16.69-96.24-39.48,5.94-2.71.78-8.48-2.47,0-58.98-1.83-109.3-29.65-155.47-64.16,14.57-3.28,30.66-2.95,44.42-9.87,42.04-1.6,86.99,7.21,125.85-9.87,79.79,17.36,160,6.36,240.6,7.4,195.37,2.52,390.65,12.57,586.09,7.4Z" style="fill:#315186; stroke-width:0px;"/><path d="m2154.68,682.02c-3.28-.16-6.59.08-9.87,0-2.88-14.23,12.72-14.33,9.87,0Z" style="fill:#1f3b69; stroke-width:0px;"/><path d="m1941.22,632.66c1.94-.21,9.06,13.31,2.47,14.81-7.24,1.65-6.47-14.37-2.47-14.81Z" style="fill:#98bcdb; stroke-width:0px;"/><path d="m1726.53,632.66c5.02.45,5.3,12.95-2.47,12.34-9.91-.78-1.02-12.65,2.47-12.34Z" style="fill:#98bcdb; stroke-width:0px;"/><path d="m2459.45,635.13c3.69-1.48,5.42,3.75,2.47,4.94-3.69,1.48-5.42-3.75-2.47-4.94Z" style="fill:#7798cb; stroke-width:0px;"/><path d="m1688.28,652.4h-2.47c3.24-8.48,8.41-2.71,2.47,0Z" style="fill:#adcdff; stroke-width:0px;"/><path d="m878.86,590.71c25.23,7.69,50.67,14.36,76.5,19.74,5.75,8.73-43.86,9.01-75.27,9.87-47.67,1.3-95.48-1.73-143.13-2.47-33.68,7.52-66.56,12.29-101.18,9.87-2.79,1.3,1.83,2.01,1.23,7.4-22.01-6.27-44.64-1.14-66.63,0-5.71-12.68-60.83-6.44-97.48-7.4-1.08-.03-6.34-7.39-7.4-7.4-26.12-.32-119.41,10.07-151.77,14.81-27.6-13.3-63.04-9.01-93.77-9.87-27.46-.77-55.06-4.54-82.67-2.47-4.42,5.4,1.27,9.37,1.23,9.87-.06.82.05,1.65,0,2.47-11.15,3.1-35.4-23.36-40.72-24.68-12.18-3.01-73.82,2.22-97.48,0,.02-18.92-.02-37.84,0-56.76,50.27-7.2,40.82,4.39,43.19,4.94,24.03,5.57,15.45-14.18,24.68,0,2.5-17.57,9.54,7.65,17.27-7.4,2.35.36.13,7.11,2.47,7.4,40.74,5.07,333.43,3.11,365.22-4.94,1.84-.47,1.25-3.27,1.23-4.94,25.04,5.37,51.07,8.62,75.27,17.27,38.16-7.29,72.45,1.65,111.05,4.94,28.84,10.51,61.49,26.31,93.77,12.34,30.93,17.1,106.06,12.68,144.36,7.4Z" style="fill:#4872a8; stroke-width:0px;"/><path d="m454.41,548.76c.02,1.67.61,4.47-1.23,4.94-31.8,8.05-324.48,10.01-365.22,4.94-2.34-.29-.12-7.04-2.47-7.4-7.73,15.05-14.77-10.17-17.27,7.4-9.22-14.18-.65,5.57-24.68,0-2.37-.55,7.08-12.13-43.19-4.94,0-1.65,0-3.29,0-4.94,39.59-25.72,87.31-.67,146.83-14.81,4.76-19.98,60.17-18.89,93.77-27.15,35.27,26.95,74.04,2.65,93.77,4.94,25.33,16.61,55.48,14.89,66.63,27.15,18.14.14,35.54,6.12,53.06,9.87Z" style="fill:#315186; stroke-width:0px;"/><path d="m570.4,635.13c-6.65.34-4.66,2.46-4.94,2.47-67.09,2.98-98.2-13.43-88.84,24.68-39.9.29-236.78-.49-254.18,2.47-6.73-3.63,0-9.38,0-9.87,29.52-10.28,60.53-15.23,91.31-19.74,32.36-4.74,125.64-15.13,151.77-14.81,1.06.01,6.32,7.37,7.4,7.4,36.65.96,91.77-5.28,97.48,7.4Z" style="fill:#556697; stroke-width:0px;"/><path d="m313.75,635.13c-30.78,4.51-61.79,9.46-91.31,19.74-.03-1.49-4.41-11.33-2.47-29.61,30.74.86,66.17-3.43,93.77,9.87Z" style="fill:#6885b5; stroke-width:0px;"/><path d="m1369.94,625.26q3.7,7.4,7.4,14.81c-13.17,3.28-7.23,18.99-6.17,19.74,3.83,2.71,81.24-.15,93.77,0,2,.02.98-4.94,1.23-4.94,28.21.4,68.65,13.59,96.24,20.98,1.84,7.49-4.25,4.94-4.94,8.64-1.9,10.28-3.7,19.08-2.47,29.61-8.36-.31-53.24,1.57-55.52,0-3.08-2.12,1.46-11.94-4.94-14.81-13.6-6.1-14.25,9.09-17.27,9.87-3.35.87-4.12-2.93-6.17-2.47-25.43-27.68-67.09-36.12-83.9,0-3.38.04-6.6-.02-9.87,0-3.93-10.9-34.61-34.85-40.72-22.21-5.12-18.81-48.15,15.29-55.52,14.81-39.78-25.75-83.63-19.43-132.02-19.74-2.29,1.03-.84,4.65-1.23,4.94-12.73-14.67-46.24-13.46-46.89,4.94-19.9,2.86-18.62,7.29-19.74,7.4-10.99,1.15-23.33-.75-34.55,0,.44-19.06-18.18-6.48-25.91-19.74-26.01,1.05-38.49,16.61-40.72,17.27-13.85,4.13-36.93,3.09-51.82,2.47-1.85-.08,3.52-4.01-34.55-4.94-7.81-.19-8.61-2.5-9.87-2.47v-9.87c15.23-28.59-83.87-7.64-97.48-17.27-2.83-2.01-.48-14.36-1.23-18.51-21.2-9.91-5.47.34-7.4,6.17-3.47.97-4.68-1.63-7.4-2.47,1.21-9.14-2.63-9.3-9.87-4.94-4.53-2.11-7.56-3.46-12.34-4.94-42.99-13.29-31.1-5.46-44.42,2.47-1.41.84-13.87-6.19-14.81,22.21-17.26.3-34.56-.15-51.82,0,.08-8.83-.96-18.44,0-27.15.6-5.4-4.02-6.1-1.23-7.4,34.61,2.42,67.5-2.36,101.18-9.87,47.65.74,95.46,3.77,143.13,2.47,31.4-.86,81.01-1.15,75.27-9.87,44.89,9.36,89.36,21.22,134.49,29.61,60.71-5.64,121.82-5.84,182.61-9.87,27.37-1.81,57.63-14.87,83.9,0,2.35-1.71,12.15-4.8,13.57-4.94Z" style="fill:#6885b5; stroke-width:0px;"/><path d="m748.07,637.6c-17.59,3.6-48.59,7.94-44.42,2.47,13.32-7.93,1.43-15.75,44.42-2.47Z" style="fill:#315186; stroke-width:0px;"/><path d="m904.77,659.81c1.55.9,2.03,13.63,1.23,16.04-5.24,15.9-7.06-19.42-1.23-16.04Z" style="fill:#556697; stroke-width:0px;"/><path d="m770.28,647.47c-12.38-3.81-9.37-4.7-9.87-4.94,7.24-4.36,11.08-4.21,9.87,4.94Z" style="fill:#b4c4db; stroke-width:0px;"/><path d="m819.64,1368.05c1.91,4.72.38,8.58,4.94,22.21,2.06,6.16-1.1,12.49,9.87,13.57-9.04,15.09,6.89,26.48,9.87,40.72-281.32-.17-562.64.13-843.97,0-.27-13.15.37-26.34,0-39.48,10.75-5.71,59.36-31.63,61.69-34.55,45.78,28.25,130.77,28.63,136.96,32.08,2.86,1.6-7.09,6.71,3.7,9.87,3.37.99,6.68-1.56,7.4-4.94.24-.09-.85-4.57,1.23-4.94,37.67-6.63,45.21,8.9,48.12,9.87,1.53.51,4.95-2.99,4.94-4.94,20.8-6.99,18.21-6.75,39.48,0,4.32,1.37,7.61,6.09,7.4-2.47,39.59,1.47,78.1-5.39,117.22-7.4,1.89-.1.59-4.89,2.47-4.94,5.64-.13,2.94,4.86,4.94,4.94,16.49.59,29.76-3.78,32.08,7.4,2.92.31,4.03-12.43,9.87,0,18.64-13.1,60.1-9.42,82.67-2.47h4.94c70.03-17.69,99.23,5.06,181.38-12.34,20.35-4.31,35.25-25.55,56.76-7.4-1.22-7.17-.2-15.38-1.23-22.21,5.11,1.26,7.67-5.03,8.64-4.94,6.16.62,6.96,8.19,8.64,12.34Z" style="fill:#b7368a; stroke-width:0px;"/><path d="m1638.93,1308.82q-24.06,7.4-48.12,14.81l3.7,3.7c-9.86,1.93-21.05,6.81-32.08,6.17-9.97-6.03-30.34-4.07-33.31,7.4-2.83-7.79-54.15,1.53-51.82,9.87-205.9,3.66-202.75,39.37-296.13,78.97-9.67,4.1-27.52,2.34-33.31,14.81-90.48-.04-180.97.05-271.45,0,1.13-11.09-39.39-50.58-51.82-54.29-4.56-13.63-3.03-17.49-4.94-22.21,34.14-2.67,88.91,41.09,114.75,49.35,78.39,25.07,244.02-24.97,323.27-56.76,107.92-23.66,217.81-43.9,328.21-51.82,1.76-.13.71,5.08,2.47,4.94,3.9-16.51,6.4-1.25,12.34-2.47,1.97-.4,26.7-9.03,38.25-12.34.33,3.19-.52,6.78,0,9.87Z" style="fill:#593258; stroke-width:0px;"/><path d="m1562.43,1333.5c-27.39,21.24-84.47,28.87-122.15,44.42-86.17,4.17-171.17,3.57-238.14,66.63-18.1,0-36.19,0-54.29,0,5.8-12.46,23.64-10.7,33.31-14.81,93.37-39.6,90.23-75.3,296.13-78.97-2.33-8.34,48.99-17.66,51.82-9.87,2.97-11.47,23.34-13.43,33.31-7.4Z" style="fill:#78286a; stroke-width:0px;"/><path d="m876.39,1444.55c-10.69,0-21.39,0-32.08,0-2.98-14.24-18.91-25.63-9.87-40.72-10.97-1.08-7.81-7.42-9.87-13.57,12.43,3.71,52.95,43.2,51.82,54.29Z" style="fill:#78286a; stroke-width:0px;"/><path d="m1014.59,1128.68c.48.2,7.41,5.26,7.4,7.4-40.04,12.74-36,23.89-38.25,24.68-23.91-9.97-91.78,7.42-91.31,39.48-35.7-4.7-29.75,15.72-32.08,17.27-1.23.82-11.21-1.61-17.27,2.47-2.08,1.4-5.05,12.88-7.4,14.81-.77.63-10.84.32-18.51,7.4.02-1.66.6-4.5-1.23-4.94-23.04-5.48-118.04,11.57-164.1,2.47-.3-.06-2.24-5.23-3.7-4.94-2.08.42-3.41,4.84-3.7,4.94-.26.09.91,4.33-1.23,4.94-16.99,4.77-123.47-7.37-143.13-14.81-5.27-2-41.9-28.53-43.19-30.85-1.12-2.02,7.61-32.85-28.38-16.04-6.4,2.99-33.5,55.31-108.58,69.1q-130.17,6.17-260.35,12.34c-3.68-2.91-7.14-13.7-13.57-17.27-25.22-.27-24.37-17.51-45.65-17.27-.1-24.68.06-49.36,0-74.03,131.41,9.27,262.2-1.8,393.6-4.94,28.19-4.28,55.89-12.47,83.9-17.27,19.24-3.3,44.24,8.64,46.89-12.34,64.8,23.65,467.23-2.14,489.85,7.4Z" style="fill:#593258; stroke-width:0px;"/><path d="m551.89,1197.77c5.2-2.34,5.2,9.75,0,7.4-1.98-.89-1.98-6.51,0-7.4Z" style="fill:#f3c5e7; stroke-width:0px;"/><path d="m164.45,1232.32c3.69-1.48,5.42,3.75,2.47,4.94-3.69,1.48-5.42-3.75-2.47-4.94Z" style="fill:#f3c5e7; stroke-width:0px;"/><path d="m1745.04,1254.53c-.22,3.26.09,6.59,0,9.87-40.5,40.81,8.54,100.77-85.14,101.18-7.89-18.99-35.37,4.45-30.85-25.91,1.72-11.55,13.59-8.63,9.87-30.85-.52-3.09.33-6.68,0-9.87,31.21-8.94,37.28-2.87,57.99-32.08.18-.26,3.02,5.01,6.17,1.23.36-5.29-.52-10.79,0-16.04.49-4.9.61-2.65,0-7.4,33.61-1.42,21.93,24.93,28.38,24.68,4.2-.17-.38-19.38,13.57-14.81Z" style="fill:#c14d8f; stroke-width:0px;"/><path d="m1747.51,1444.55c-181.79.13-363.58.08-545.37,0,66.96-63.06,151.97-62.46,238.14-66.63,37.68-15.55,94.76-23.18,122.15-44.42,11.03.64,22.22-4.23,32.08-6.17l-3.7-3.7q24.06-7.4,48.12-14.81c3.72,22.22-8.15,19.3-9.87,30.85-4.53,30.36,22.96,6.92,30.85,25.91,93.68-.41,44.64-60.37,85.14-101.18-.48,17.72-4.94,3.88-4.94,20.98,9.2,12.87,1.42,46.72,2.47,83.9.7,24.88,7.72,50.04,4.94,75.27Z" style="fill:#b7368a; stroke-width:0px;"/><path d="m1590.8,1343.37c5.47.3,4.8,6.18,2.47,7.4-4.78,2.51-7.55-7.69-2.47-7.4Z" style="fill:#ffd6e5; stroke-width:0px;"/><path d="m1546.38,1387.79c1.8-1.32,7.95.19,6.17,3.7-1.94,3.82-11.46.17-6.17-3.7Z" style="fill:#ffb8ea; stroke-width:0px;"/><path d="m1625.35,1380.39c6.35-3.36,7.13,4.4,2.47,4.94-.27.03-4.99-3.6-2.47-4.94Z" style="fill:#f587d5; stroke-width:0px;"/><path d="m1745.04,1244.66c-.03,3.27.22,6.62,0,9.87-13.95-4.57-9.38,14.64-13.57,14.81-6.45.26,5.23-26.09-28.38-24.68-.05-.37-5.99-.28,1.23-7.4-15.44-7.19-17.59-2.29-18.51-2.47-6.15-1.19-14.89,3.16-17.27-4.94,8.39-14.7-5-8.25,6.17-14.81,45.42.69,41.15-13.04,72.8-1.23,2,18.3-2.45,29.3-2.47,30.85Z" style="fill:#a84f84; stroke-width:0px;"/><path d="m1902.97,1444.55c-51.82.05-103.64-.04-155.47,0,2.79-25.23-4.23-50.39-4.94-75.27-1.05-37.18,6.73-71.03-2.47-83.9,0-17.1,4.46-3.25,4.94-20.98.09-3.28-.22-6.61,0-9.87.22-3.25-.03-6.6,0-9.87,8.44-2.93,10.74,13.91,12.34,20.98,7.99-11.15,5.36,41.9,9.87,64.16,6.36,31.37,37.79,91.12,76.5,59.23,27.06-22.29,21.72-60.66,22.21-64.16.16-1.16,6.41-1.65,7.4-4.94,8.97-29.64-39.38,13.51,2.47-32.08-8.51-27.42,7.49-39.68,7.4-41.95-.43-11.55-12.15,4.99,0-13.57.07.56,6.8,3.99,7.4,8.64,8.73,67.63,14.69,135.07,12.34,203.59Z" style="fill:#78286a; stroke-width:0px;"/><path d="m1891.87,1363.11c5.06-1.38,7.78,6.38,2.47,7.4-9.18,1.76-6.52-6.29-2.47-7.4Z" style="fill:#ffc2d2; stroke-width:0px;"/><path d="m1347.73,1180.5c-22.64-.31-21.08-9.01-29.61-12.34,4.8-.35,19.8-34.7,22.21-41.95q3.7,27.15,7.4,54.29Z" style="fill:#a86b8b; stroke-width:0px;"/><path d="m1930.12,1118.81c-.34,3.23.27,6.62,0,9.87-.27,3.25.36,6.65,0,9.87-1.58,14.02.2,16.43,0,17.27-25.32,9.07-41.52,61.75-17.27,1.23-12.14-8.16-4.84,3.67-8.64,6.17-3.1,2.04-6.82-3.19-8.64-1.23-9.61,10.38-14.26,54.84-12.34,70.33-12.15,18.56-.43,2.02,0,13.57.08,2.28-15.92,14.53-7.4,41.95-41.85,45.59,6.5,2.44-2.47,32.08-.99,3.29-7.24,3.78-7.4,4.94-.49,3.5,4.85,41.87-22.21,64.16-38.71,31.89-70.14-27.86-76.5-59.23-4.51-22.26-1.88-75.32-9.87-64.16-1.59-7.07-3.9-23.91-12.34-20.98.02-1.55,4.46-12.55,2.47-30.85-31.65-11.81-27.38,1.92-72.8,1.23-11.16,6.56,2.22.11-6.17,14.81-31.84-19.29-19.25-38.01-48.12-41.95-49.38-6.74-39.48,27.78-44.42,29.61-2.61.97-24.64-13.59-54.29-4.94-31.46-26.73-38.34-46.44-83.9-27.15-37.34-37.8-55.23-4.45-90.07-4.94q-3.7-27.15-7.4-54.29c2.13-6.42,4.15-12.95,4.94-19.74,41.19,13.74,83.76,17.52,127.09,19.74,73.32,3.76,308.73,3.2,380.03-2.47,34.28-2.72,76.12-18.78,77.73-4.94Z" style="fill:#593258; stroke-width:0px;"/><path d="m1854.85,1178.03c10.44-1.78,10.44,9.19,0,7.4-3.83-.65-3.83-6.75,0-7.4Z" style="fill:#874c80; stroke-width:0px;"/><path d="m1780.82,1338.43c.5-.19,8.83,5.67,8.64,6.17-2.16,5.59-14.6-3.89-8.64-6.17Z" style="fill:#694175; stroke-width:0px;"/><path d="m1699.38,1163.22c.88,0,5.43,3.55,1.23,6.17-4.7,2.94-5.49-6.17-1.23-6.17Z" style="fill:#ffecff; stroke-width:0px;"/><path d="m1842.51,1345.84c.88,0,5.43,3.55,1.23,6.17-4.7,2.94-5.49-6.17-1.23-6.17Z" style="fill:#694175; stroke-width:0px;"/><path d="m1170.06,1111.4q-4.94,17.27-9.87,34.55c-1.82-.78-9.26.48-14.81,0l2.47-29.61c6.59-1.25,15.78-2.93,22.21-4.94Z" style="fill:#9e7e91; stroke-width:0px;"/><path d="m1345.26,1106.47c-.78,6.79-2.8,13.32-4.94,19.74-2.41,7.25-17.41,41.6-22.21,41.95-20.62-8.04-28.61-23.61-62.93-2.47-51.84-43.84-76.78-1.99-81.44-2.47-3.43-.35-12.56-16.84-13.57-17.27q4.94-17.27,9.87-34.55c84.63-26.33-13.64-26.92-20.98-29.61-8.04-2.95-1.34-22.83-46.89-17.27-3.39.41-13.61,10.8-19.74,9.87-2.47-.37-13.67-20.8-44.42-14.81-35.23-68.64-73.72-.93-37.02-76.5,47.33,3.75,321.91-4.92,338.08,0,1.17.36,8.11,4.86,8.64,6.17-1.66,10.72,2.19,73.37,0,76.5-2.63,3.76-18.99-2.38-22.21,4.94-13.9,31.53,22.37,13,19.74,35.78Z" style="fill:#cfa0aa; stroke-width:0px;"/><path d="m1216.94,1091.66l2.47-4.94c25.52-4,18.24,18.52-2.47,4.94Z" style="fill:#928089; stroke-width:0px;"/><path d="m1267.53,1116.34c7.82-2.42,11.71,7.77,4.94,9.87-7.82,2.42-11.71-7.77-4.94-9.87Z" style="fill:#e4ccd9; stroke-width:0px;"/><path d="m1219.41,1086.72l-2.47,4.94c-5.16-3.39-10.14-2.18-9.87-3.7,3-2.6,8.3-.6,12.34-1.23Z" style="fill:#53484a; stroke-width:0px;"/><path d="m2359.5,1113.87c-5.62,58.91-30.93,43.45-67.86,51.82-2.95.67-6.93,6.31-13.57,7.4-1.29.21-4.28-4.92-9.87,2.47-65.7,1.27-244.04,12.3-294.89,4.94-44.62-6.46-20.76-38.14-43.19-41.95.36-3.22-.27-6.63,0-9.87,77.35,4.75,350.62,12.69,405.94-4.94,1.06-.34,15.69-9.51,18.51-12.34.23.16,1.28.11,4.94,2.47Z" style="fill:#ce84a1; stroke-width:0px;"/><path d="m2406.39,1200.24c-9.64-28.76-19.16-50.18-22.21-74.03,13.79,6.9,36.96,12.7,48.12,24.68,85.76-6.9,21.33-2.11-25.91,49.35Z" style="fill:#593258; stroke-width:0px;"/><path d="m2384.18,1126.21c3.05,23.85,12.57,45.27,22.21,74.03-1.5,1.64,7.13,10.03-19.74,7.4,1.98-15.61-23.26-63.68-14.81-88.84,4.05,2.33,8.35,5.41,12.34,7.4Z" style="fill:#a84f84; stroke-width:0px;"/><path d="m1930.12,1155.82c-.66,2.73-3.54,3.87-2.47,7.4-7.12,9.36-15.2,18.61-19.74,29.61-10.69,25.91,11.66,146.55,43.19,167.81,35.59,8.81,96.17,48.31,125.85,24.68,13.06,14.69,55.3-9.58,66.63-4.94,6.57,2.7,1.18,11.35,11.1,12.34,9.04.9,2.23-1.74,9.87-4.94,14.02-5.87,49.97-7.67,62.93,4.94q15.42-13.57,30.85-27.15c-12.68,28.24-32.14,22.12-32.08,43.19,0,2.61,7.62,14.01,7.4,14.81-1.3,4.86-20.86,2.62-19.74,20.98-103.64.21-207.29-.09-310.93,0,2.35-68.52-3.61-135.95-12.34-203.59-.6-4.65-7.33-8.07-7.4-8.64-1.92-15.5,2.73-59.95,12.34-70.33,1.82-1.96,5.53,3.27,8.64,1.23,3.8-2.49-3.5-14.33,8.64-6.17-24.25,60.52-8.05,7.83,17.27-1.23Z" style="fill:#b7368a; stroke-width:0px;"/><path d="m2164.55,1387.79c-7.64,3.2-.83,5.83-9.87,4.94-6.5-6.29,2.82-8.45,9.87-4.94Z" style="fill:#f3c5e7; stroke-width:0px;"/><path d="m1953.56,1390.26c5.2-2.34,5.2,9.75,0,7.4-1.98-.89-1.98-6.51,0-7.4Z" style="fill:#e06cb2; stroke-width:0px;"/><path d="m2391.58,1037.37c-6.62-43.21-.6-23.19-40.72-27.15-31.81-3.13-64.19-10.69-96.24-12.34-46.86-2.41-257.21-2.99-293.66,2.47-30.71,14.89-61.72,9.69-45.65,19.74-2.06-.85-7.77.57-11.1,0,.69-14.74-37.04-2.75-18.51-40.72,2-4.1,11.73-10.12,16.04-11.1,23.21-5.31,409.41-2.66,476.27-4.94,18.16,3.87,15.32,55.92,13.57,74.03Z" style="fill:#bba4a7; stroke-width:0px;"/><path d="m2391.58,1037.37c-.37,3.81,1.31,15.47-1.23,17.27-83.97-5.48-34.62,13.66-38.25,18.51-4.14,5.53-34.19-10.23-27.15,12.34.59,1.88,26.42,23.69,29.61,25.91-2.81,2.82-17.45,12-18.51,12.34-55.32,17.63-328.59,9.68-405.94,4.94.27-3.25-.34-6.64,0-9.87.89-8.53-2.73-17.75,3.7-22.21,31.39-11.41,85.31,2.54,72.8-13.57-2.97-3.82-50.21.77-53.06-1.23-3.06-2.15.59-10.19-2.47-12.34-1.88-1.32-14.24,1.35-17.27,0-8.3-3.68-.89-40.2-3.7-45.65-2.08-4.03-12.72-2.84-14.81-3.7-16.07-10.05,14.94-4.85,45.65-19.74,36.45-5.45,246.8-4.88,293.66-2.47,32.06,1.65,64.44,9.2,96.24,12.34,40.12,3.95,34.1-16.06,40.72,27.15Z" style="fill:#cfa0aa; stroke-width:0px;"/><path d="m2106.56,1057.11c1.45,0,6.44,5.54,1.23,8.64-5.34,3.17-6.06-8.64-1.23-8.64Z" style="fill:#f8e0e3; stroke-width:0px;"/><path d="m2183.06,1079.32c3.69-1.48,5.42,3.75,2.47,4.94-3.69,1.48-5.42-3.75-2.47-4.94Z" style="fill:#f8e0e3; stroke-width:0px;"/><path d="m1957.26,1271.8c-6.54,20,6.32,7.38,7.4,7.4,21.73.42,41.98,12.47,65.39,14.81,44.55,4.45,87.06-8.63,130.79-2.47,29.46-11.23,176.24-44.85,194.95-39.48,4.88,1.4,6.93,10.67,8.64,14.81-17.83,21.1-3.27,37.94-6.17,39.48-59.71-1.48-34.7,54.28-99.94,59.23q-15.42,13.57-30.85,27.15c-12.96-12.6-48.9-10.81-62.93-4.94-7.05-3.52-16.37-1.35-9.87,4.94-9.93-.99-4.53-9.64-11.1-12.34-11.33-4.65-53.57,19.62-66.63,4.94-29.68,23.64-90.26-15.87-125.85-24.68-31.52-21.26-53.87-141.89-43.19-167.81,5.98,38.62,20.11,56.5,49.35,78.97Z" style="fill:#c14d8f; stroke-width:0px;"/><path d="m2284.24,1316.22c6.06-1.35,8.25,8.58,2.47,9.87-6.06,1.35-8.25-8.58-2.47-9.87Z" style="fill:#f3c5e7; stroke-width:0px;"/><path d="m2229.95,1296.48c8.18-3.6,6.68,7.27,2.47,7.4-1.25.04-6.01-5.85-2.47-7.4Z" style="fill:#ffb8ea; stroke-width:0px;"/><path d="m2308.92,1274.27c.28-.2,4.03,2.5,2.47,4.94-3.8,5.91-5.61-2.71-2.47-4.94Z" style="fill:#ffb8ea; stroke-width:0px;"/><path d="m2109.03,1345.84c3.69-1.48,5.42,3.75,2.47,4.94-3.69,1.48-5.42-3.75-2.47-4.94Z" style="fill:#ffb8ea; stroke-width:0px;"/><path d="m2000.45,1303.89h2.47l1.23,1.23v2.47l-1.23,1.23-1.23-1.23-1.23-1.23-1.23-1.23,1.23-1.23Z" style="fill:#f3c5e7; stroke-width:0px;"/><path d="m2371.84,1118.81c-8.45,25.16,16.78,73.23,14.81,88.84-3.65,28.77-44.41,27.61,0,45.65-6.98,3.84-16.96,7.36-22.21,13.57-1.71-4.14-3.76-13.41-8.64-14.81-18.71-5.37-165.49,28.26-194.95,39.48-43.73-6.16-86.24,6.92-130.79,2.47-23.42-2.34-43.66-14.39-65.39-14.81-.84-3.9-4.7-5.33-7.4-7.4-29.24-22.47-43.37-40.35-49.35-78.97,4.54-11,12.63-20.26,19.74-29.61,3.43,16.2,4.65,34.98,20.98,44.42,21.95,12.68,51.81,3.11,46.89,12.34,53.47,3.71,336.32-4.14,362.76-34.55,15.26-17.55-3.92-48.87,6.17-69.1.33.2,2.23-.51,7.4,2.47Z" style="fill:#c56394; stroke-width:0px;"/><path d="m1964.67,1279.21c-1.08-.02-13.94,12.59-7.4-7.4,2.7,2.08,6.56,3.51,7.4,7.4Z" style="fill:#f3c5e7; stroke-width:0px;"/><path d="m2180.59,1229.85c2.89,0,7.72,12.34,0,12.34s-2.89-12.34,0-12.34Z" style="fill:#ffdffd; stroke-width:0px;"/><path d="m2104.09,1261.93c2.96.56,4.48,11.86-2.47,9.87-7.91-2.27-.15-10.37,2.47-9.87Z" style="fill:#ffecff; stroke-width:0px;"/><path d="m2266.96,1227.39c1.25-.04,6.01,5.85,2.47,7.4-8.18,3.6-6.68-7.27-2.47-7.4Z" style="fill:#ffecff; stroke-width:0px;"/><path d="m2364.44,1116.34c-10.09,20.23,9.09,51.55-6.17,69.1-26.44,30.41-309.29,38.26-362.76,34.55,4.92-9.22-24.94.34-46.89-12.34-16.32-9.43-17.55-28.22-20.98-44.42-1.07-3.53,1.81-4.68,2.47-7.4.2-.84-1.58-3.25,0-17.27,22.43,3.81-1.44,35.49,43.19,41.95,50.85,7.36,229.19-3.67,294.89-4.94,6.4,8.66,13.76,9.45,9.87-2.47,6.65-1.1,10.63-6.74,13.57-7.4,36.93-8.37,62.24,7.08,67.86-51.82.23.15,1.59.42,4.94,2.47Z" style="fill:#c56394; stroke-width:0px;"/><path d="m2278.07,1173.1c3.89,11.92-3.47,11.13-9.87,2.47,5.59-7.39,8.58-2.26,9.87-2.47Z" style="fill:#ffecff; stroke-width:0px;"/><path d="m2331.12,1178.03c8.18-3.6,6.68,7.27,2.47,7.4-1.25.04-6.01-5.85-2.47-7.4Z" style="fill:#ffdffd; stroke-width:0px;"/><path d="m644.43,1239.72h7.4c46.06,9.1,141.07-7.95,164.1-2.47,1.83.44,1.26,3.27,1.23,4.94-13.18,12.17-11.37,24.85-12.34,25.91-.86.94-19.37,3.26-22.21,12.34-6.83,21.84,16.58,23.09,17.27,24.68.42.96-8.85,4.17-9.87,18.51-19.38-22.09-51.98,2.28-76.5,4.94-2.53.27-5.1-.95-4.94,2.47-32.66-.5-57.65,3.58-60.46,2.47-2.56-1.01-.47-5.73-1.23-7.4-.16-.34,5.4-7.4-1.23-7.4s-.97,7.14-1.23,7.4c-19.14,19-80.76.44-107.35,0-19.73-.33-144.07,3.98-151.77,7.4-3.99,1.77-9.82,8.52-4.94,12.34-11.17-.99-3-12.88-8.64-14.81-8.69-2.98-118.91,10.93-139.43,4.94-1.16-.34-9.46-18.74-9.87,4.94-21.88-.55-82.58-10.9-99.94-4.94-4.31,1.48-3.34,7.2-3.7,7.4h-9.87c-.39-.03-5.65-2.47-7.4-2.47-1.81-19.99-22.55-12.81-24.68-18.51-3.15-8.45,21.32-12.56,22.21-14.81.2-.51-5.13-9.35-4.94-9.87,1.8-4.76,41.95-6.04-1.23-8.64-6.11-28.45-19.26-13.57-33.31-24.68q130.17-6.17,260.35-12.34c75.08-13.79,102.19-66.11,108.58-69.1,35.99-16.81,27.26,14.02,28.38,16.04,1.29,2.32,37.91,28.85,43.19,30.85,19.65,7.44,126.14,19.58,143.13,14.81,2.14-.6.98-4.85,1.23-4.94Z" style="fill:#c56394; stroke-width:0px;"/><path d="m651.83,1239.72h-7.4c.29-.1,1.62-4.52,3.7-4.94,1.46-.29,3.4,4.88,3.7,4.94Z" style="fill:#ffdffd; stroke-width:0px;"/><path d="m744.37,1279.21c16.32,3.98.21,29.54-8.64,11.1-1.81-3.77,7.82-11.3,8.64-11.1Z" style="fill:#f8e0e3; stroke-width:0px;"/><path d="m232.32,1335.97c2.75,3.41-6.83,5.01-9.87,4.94.41-23.68,8.71-5.27,9.87-4.94Z" style="fill:#f3c5e7; stroke-width:0px;"/><path d="m646.9,1326.09h-2.47c.27-.26-5.5-7.4,1.23-7.4s1.08,7.06,1.23,7.4Z" style="fill:#f3c5e7; stroke-width:0px;"/><path d="m556.82,1284.14c4.78-2.51,7.55,7.69,2.47,7.4-5.47-.3-4.8-6.18-2.47-7.4Z" style="fill:#f3c5e7; stroke-width:0px;"/><path d="m790.02,1323.63c-1.31,18.36,9.06,15.38,12.34,37.02,1.03,6.83.01,15.04,1.23,22.21-21.51-18.15-36.41,3.09-56.76,7.4-82.14,17.4-111.35-5.35-181.38,12.34h-4.94c-22.57-6.95-64.03-10.64-82.67,2.47-5.84-12.43-6.95.31-9.87,0-2.32-11.18-15.59-6.81-32.08-7.4-2-.07.7-5.07-4.94-4.94-1.87.04-.58,4.84-2.47,4.94-39.12,2.01-77.62,8.87-117.22,7.4-.39-.01-2.1-7.44-7.4,2.47-21.27-6.75-18.69-6.99-39.48,0-.57.19-10.03-5.83-4.94,4.94-2.91-.97-10.46-16.5-48.12-9.87-2.08.37-.99,4.85-1.23,4.94-1.51.54-8.5-8.38-7.4,4.94-10.8-3.16-.84-8.27-3.7-9.87-6.18-3.46-91.18-3.83-136.96-32.08,1.53-1.91,2.12-11.82,2.47-12.34,3.33-4.95,3.98-10.77,8.64-14.81,9.13,2.6,19.95-2.47,28.38-2.47,1.75,0,7.01,2.44,7.4,2.47,4.18.29-3.5,7.46,9.87,0,.36-.2-.61-5.92,3.7-7.4,17.36-5.96,78.07,4.39,99.94,4.94,3.04.08,12.62-1.52,9.87-4.94,20.52,6,130.73-7.91,139.43-4.94,5.64,1.93-2.53,13.82,8.64,14.81,9.47.84,9.54-6.83,4.94-12.34,7.69-3.42,132.04-7.73,151.77-7.4,26.59.44,88.21,19,107.35,0h2.47c.76,1.67-1.33,6.39,1.23,7.4,2.81,1.11,27.8-2.97,60.46-2.47,2.97.05,5.09,6.11,4.94-2.47,24.52-2.66,57.12-27.02,76.5-4.94Z" style="fill:#c14d8f; stroke-width:0px;"/><path d="m311.28,1405.06c.2,8.55-3.08,3.84-7.4,2.47,5.3-9.91,7.01-2.48,7.4-2.47Z" style="fill:#e06cb2; stroke-width:0px;"/><path d="m210.11,1407.53c-.72,3.38-4.04,5.92-7.4,4.94-1.1-13.31,5.89-4.39,7.4-4.94Z" style="fill:#ffb8ea; stroke-width:0px;"/><path d="m264.4,1407.53c.01,1.95-3.4,5.45-4.94,4.94-5.09-10.77,4.37-4.75,4.94-4.94Z" style="fill:#f587d5; stroke-width:0px;"/><path d="m380.38,1345.84c-4.89-3.82.95-10.56,4.94-12.34,4.6,5.51,4.54,13.18-4.94,12.34Z" style="fill:#ffdffd; stroke-width:0px;"/><path d="m118.8,1343.37c-13.37,7.46-5.69.29-9.87,0h9.87Z" style="fill:#f3c5e7; stroke-width:0px;"/><path d="m713.52,1328.56c.16,8.58-1.96,2.51-4.94,2.47-.16-3.42,2.41-2.19,4.94-2.47Z" style="fill:#f3c5e7; stroke-width:0px;"/><path d="m495.13,1358.18c.82-.54,13.74-.07,13.57,3.7-.51,11.83-20.47.82-13.57-3.7Z" style="fill:#f3c5e7; stroke-width:0px;"/><path d="m754.24,1358.18c5.06-1.38,7.78,6.38,2.47,7.4-9.18,1.76-6.52-6.29-2.47-7.4Z" style="fill:#ffdffd; stroke-width:0px;"/><path d="m356.94,1355.71c6.35-3.36,7.13,4.4,2.47,4.94-.27.03-4.99-3.6-2.47-4.94Z" style="fill:#f3c5e7; stroke-width:0px;"/><path d="m411.23,1348.3l1.23,1.23,1.23,1.23,1.23,1.23-1.23,1.23h-2.47l-1.23-1.23v-2.47l1.23-1.23Z" style="fill:#f3c5e7; stroke-width:0px;"/><path d="m648.13,1358.18h2.47l1.23,1.23-1.23,1.23-1.23,1.23-1.23,1.23-1.23-1.23v-2.47l1.23-1.23Z" style="fill:#e06cb2; stroke-width:0px;"/><path d="m178.03,701.76c13.52-.07,64.34,1.7,69.1,0-1.33,6.19,2.63,8.2,2.47,9.87-.13,1.37-7.29,7.76-4.94,27.15-64.98-5.07-172.47,3.79-244.31,0,0-12.34-.01-24.68,0-37.02,59.28-4.01,118.44.32,177.68,0Z" style="fill:#37365b; stroke-width:0px;"/><path d="m2418.73,807.87c10.37,8.77,13.39,6.33,27.15,7.4-8.71,21.71,41.18,9.12,81.44,12.34-.01,12.34.01,24.68,0,37.02h-22.21c-2.75-11.84-66.9-20.6-61.69,0-37.76.02-75.98-2.62-113.52-2.47,2.62-6-2.61-23.45-2.47-24.68.12-1.03,3.02-6.59,3.7-14.81,41.13,2.71,74.06-4.18,35.78-7.4,15.22-7.11,38.1-4.93,44.42-12.34,4.55,8.62,5.91,3.67,7.4,4.94Z" style="fill:#9090a9; stroke-width:0px;"/><path d="m2438.47,751.11c-10.11,32.9,39.2,15.65,88.84,19.74,0,1.65,0,3.29,0,4.94-62.5-3.69-125.24,5.02-187.55,4.94-11.13-.02-23.17,2.07-27.15-3.7q4.94-20.36,9.87-40.72c.25,0-.78-4.92,1.23-4.94,13.69-.1,99.11-2.51,103.64,0,1.88,1.04-9.45,15.07,11.1,19.74Z" style="fill:#37365b; stroke-width:0px;"/><path d="m2431.07,701.76l-1.23,27.15c11.94-14.23,21.99-4.65,28.38-4.94-1.31,15.42,24.91,9.18,35.78,7.4,1.91-.31-6.62-10.95,33.31-4.94,0,8.23,0,16.45,0,24.68-22.77-2.15-75.99,2.92-88.84,0-20.56-4.67-9.22-18.7-11.1-19.74-4.53-2.51-89.96-.1-103.64,0-2.01.01-.98,4.93-1.23,4.94-2.49,0-9.33-4.82-9.87-4.94,7.55.91,6.42-8.41,7.4-12.34,3.7-14.82,8.96-.74,12.34-14.81,32.69-.77,65.84-5.8,98.71-2.47Z" style="fill:#575882; stroke-width:0px;"/><path d="m148.41,827.61c4.36,2.38,1.14,4.63,3.7,7.4h39.48c5.28-2.33,3.86-12.6,3.7-17.27h43.19c-12.38,5.51-.77,19.79-13.57,20.98-2.1,6.13,6.06,7.28,7.4,11.1,1.34,3.81-.37,8.91-2.47,12.34h-4.94c-.23-.27-3.57.17-6.17,0q-1.85-4.94-3.7-9.87c23.98-36.13-98.41,2.26-85.14-22.21-43.25-2.01-88.81,5.97-129.56-9.87,0-3.29,0-6.58,0-9.87q63.54,1.23,127.09,2.47c.08,12.77,9.24,19.78,20.98,14.81Z" style="fill:#1c1e34; stroke-width:0px;"/><path d="m222.45,872.03v7.4c-17.43-2.08-143.21-1.85-149.3,2.47-3.09,2.19-.26,26.44-1.23,32.08-16.31,1.82-20.7,3.06-33.31,7.4-7.86-13.78-12.69-4.78-13.57-4.94-8.4-1.53-15.84-3.95-24.68-2.47,0-2.47,0-4.94,0-7.4,13.93-4.61,26.56-2.46,27.15-3.7.66-1.4.38-26.38,0-30.85h2.47c1.06,8.81-1.48,32.97,0,35.78,1.3,2.47,26.15,11.94,19.74-38.25.81.11,1.66-.09,2.47,0,3.16.36,5.11,4.86,6.17,4.94,45.65,3.4,130.24-9.61,164.1-2.47Z" style="fill:#4e4768; stroke-width:0px;"/><path d="m2527.31,775.79c0,4.11,0,8.23,0,12.34-35.68,2.9-89.09-6.08-115.98,4.94-9.42-22.51-49.31-.96-71.56-9.87v-2.47c62.3.08,125.05-8.63,187.55-4.94Z" style="fill:#9090a9; stroke-width:0px;"/><path d="m2527.31,751.11c0,6.58,0,13.16,0,19.74-49.64-4.1-98.95,13.15-88.84-19.74,12.85,2.92,66.07-2.15,88.84,0Z" style="fill:#9090a9; stroke-width:0px;"/><path d="m2527.31,800.47c0,4.94,0,9.87,0,14.81-26.72-1.53-54.9,2.08-81.44,0-13.75-1.08-16.77,1.36-27.15-7.4,8.09-15.05,72.26-4.11,108.58-7.4Z" style="fill:#7f7a9a; stroke-width:0px;"/><path d="m2527.31,788.13c0,4.11,0,8.23,0,12.34-36.32,3.29-100.49-7.64-108.58,7.4-1.49-1.26-2.85,3.68-7.4-4.94-.9-1.7.89-7.73,0-9.87,26.89-11.01,80.3-2.04,115.98-4.94Z" style="fill:#37365b; stroke-width:0px;"/><path d="m27.49,872.03c.38,4.47.66,29.45,0,30.85-.58,1.24-13.21-.91-27.15,3.7-.02-18.1.02-36.19,0-54.29,10.95,4.4,24.46,1.44,25.91,2.47,1.79,1.27.87,13.04,1.23,17.27Z" style="fill:#b4adbf; stroke-width:0px;"/><path d="m2527.31,694.35c0,1.65,0,3.29,0,4.94-5.93.77-19.01-1.11-20.98,0-10.38,5.88,27.17,21.26-48.12,24.68-6.39.29-16.44-9.3-28.38,4.94l1.23-27.15c3.23.33,6.61-.21,9.87,0,5.25,19.78,40.24,5.75,57.99,9.87,2.23-5.86,2.99-11.14,1.23-17.27h27.15Z" style="fill:#37365b; stroke-width:0px;"/><path d="m52.17,847.35c1.25,5.57-.88,15.52,0,22.21-.81-.09-1.66.11-2.47,0-7.89-1.03-14.41-2.66-19.74,2.47h-2.47c-.36-4.24.55-16.01-1.23-17.27-1.45-1.03-14.96,1.93-25.91-2.47,0-1.65,0-3.29,0-4.94,40.57,4.37,25.42-10.89,33.31-14.81,12.33-6.12,16.38,5.32,18.51,14.81Z" style="fill:#37365b; stroke-width:0px;"/><path d="m2527.31,699.29c0,9.05,0,18.1,0,27.15-39.93-6.01-31.4,4.62-33.31,4.94-10.87,1.78-37.09,8.02-35.78-7.4,75.29-3.42,37.74-18.8,48.12-24.68,1.97-1.11,15.04.77,20.98,0Z" style="fill:#7f7a9a; stroke-width:0px;"/><path d="m2527.31,815.27c0,4.11,0,8.23,0,12.34-40.25-3.22-90.14,9.37-81.44-12.34,26.53,2.08,54.71-1.53,81.44,0Z" style="fill:#575882; stroke-width:0px;"/><path d="m25.03,916.45l-2.47,4.94c-7.32-.57-14.86.4-22.21,0,0-2.47,0-4.94,0-7.4,8.84-1.48,16.27.94,24.68,2.47Z" style="fill:#9090a9; stroke-width:0px;"/><path d="m590.14,817.74c.25,0-.78,4.9,1.23,4.94,18.21,2.79,37.72-2.69,55.52-2.47,32.94.41,186.83-.68,202.35,2.47,3.83.78,9.41,4.04,7.4,9.87-.25.02.8,4.83-1.23,4.94-47.36,2.54-118-9.38-99.94,16.04,2.89,4.07,95.66,3.81,99.94,1.23,2.39-1.44-.09-8.67,3.7-12.34,39.65-3.43,79.72,9.8,82.67-12.34,9.58,31.57,52.07-9.21,50.59,29.61h-132.02c-.62,12.64-24.01,9.32-43.19,16.04q8.64,6.79,17.27,13.57c-4.11.08-8.23-.08-12.34,0-13.29-18.46-118.53-8.11-160.4-7.4-.11-1.34-3.26-7.14-3.7-12.34-39.53,2.42-46.8-7.82-50.59,9.87-19.64.16-39.66-4.16-59.23-4.94-.96-20.27,74.58,2.98,76.5-17.27,11.69.6,93.5,2.82,97.48,0,2.03-1.44,2.03-18.3,0-19.74-5.08-3.6-108.58.02-124.62,0-16.45-.02-32.9-.11-49.35,0,.01-1.65,0-3.29,0-4.94v-12.34c.25,0-.78-4.9,1.23-4.94,13.87-.25,27.25,2.2,40.72,2.47Z" style="fill:#1c1e34; stroke-width:0px;"/><path d="m2117.67,790.6q93.77,1.23,187.55,2.47c2.37,35.76-10.06,48.39,22.21,44.42-.15,1.23,5.09,18.68,2.47,24.68-13.41.05-28.07,2.31-41.95,2.47q-6.17-12.96-12.34-25.91c3.18-3.73,24.33,1.25,27.15-2.47,1.98-2.61-8.64-22.97-8.64-28.38-29.59,5.44-223.86-7.53-234.43-2.47-5.91,2.83-.26,12.52-11.1,22.21-31.51-.57-64.36,2.72-96.24,2.47-24.06-.19-57.95,1.85-78.97,0-12.78-1.12-24.3,5.02-22.21-12.34,63.96,1.85,129.53-6.5,193.72-2.47,2.62-1.86.83-20.05,1.23-24.68h71.56Z" style="fill:#37365b; stroke-width:0px;"/><path d="m2287.94,864.63c-6.58.07-13.16-.08-19.74,0-.91-5.13,1.78-25.01-1.23-27.15-2.92-2.07-68.64-2.07-71.56,0-1.68,1.19-1.9,11.67-1.23,13.57.5,1.43,9.75-14.75,7.4,13.57-5.76.08-11.52-.08-17.27,0-8.37-6.43,6.2-22.05,0-25.91-15.89-9.9-16.16,5.78-17.27,6.17-26.23,9.28-9.07-10.67-22.21-4.94-58.42-18.41-68.15,17.79-2.47,4.94.09,1.97,3.75,3.78,2.47,9.87-14.49-1.04-30,5.99-44.42,7.4-2.24-.19-4.79-2.81-4.94-4.94-.88-13.08-2.48-6.82-2.47-7.4.03-2.32,4.22-14.69,6.17-19.74-16.79,2.41-34.13-2.17-50.59-2.47,10.84-9.69,5.19-19.38,11.1-22.21,10.57-5.06,204.84,7.91,234.43,2.47,0,5.41,10.62,25.77,8.64,28.38-2.81,3.71-23.97-1.26-27.15,2.47q6.17,12.96,12.34,25.91Z" style="fill:#575882; stroke-width:0px;"/><path d="m1703.09,849.82c.03-2.35,2.45-2.6,2.47-4.94,27.9,3.48,26.78-7.2,28.38-7.4,14.77-1.91,16.27,5.03,18.51,4.94v32.08c-17.86.41-36.24,1.97-54.29,2.47-3.29-19.73-16.85-16.21-14.81,2.47-74.58.64-38.18-5.75-48.12-12.34-16.86-11.17-6.35,11.9-7.4,12.34-24.18,10.02-28.12-8.75-29.61-9.87-5.04-3.8-9.2,9.68-9.87,9.87-5.95,1.66-32.74-.85-45.65,0-5.7-27.08,45.99,4.03,33.31-41.95.21,25.26-21.38,10.36-34.55,12.34-8.03,1.21-24.69,12.29-23.44,18.51,2.19,10.88,17.35-11.96,17.27,11.1-26.59,1.46-52.27,3.38-78.97,2.47-2.12-.07-28.86-13.68-34.55,4.94-4.11-.04-8.23.03-12.34,0,16.96-34.72,10.26-43.95,32.08-44.42-.3,14.44-2.61,16.1,12.34,14.81,1.03,4.12-2.09,8.9,3.7,12.34,37.37-7.06,62,18.4,65.39-34.55,17.75,0,34.13,1.13,51.82-2.47,13.57-2.76,15.97-28.84,23.44,29.61,14.51-13.78,108.98,4.62,109.81-11.1.1-1.98-4.94-.98-4.94-1.23Z" style="fill:#9090a9; stroke-width:0px;"/><path d="m548.19,874.5c19.56.78,39.58,5.09,59.23,4.94-1,4.67.69,11.95,0,17.27-70.96,1.84-142.7-.47-213.46,2.47-42.3,1.76-85.02,12.95-127.09,7.4,17.61-1.94,35.35-4.09,53.06-4.94v-4.94c-7.31,2.28-28.94-1.28-23.44-11.1,2.73-4.88,15.69-1.83,28.38-3.7,2.08-.31.98-4.91,1.23-4.94,24.31-2.73,189.52-3.76,222.1-2.47Z" style="fill:#1c1e34; stroke-width:0px;"/><path d="m318.69,832.55c4.66,2.64,2.93-.81,4.94,0,2.94,1.18.1,15.12,17.27,2.47.33-.25.51-7.55,3.7-7.4,6.89.31,15.5,24.65,11.1,30.85-4.5,6.35-35.65-10.41-29.61,18.51-.25.03.84,4.63-1.23,4.94-12.69,1.88-25.65-1.18-28.38,3.7-5.49,9.82,16.13,13.39,23.44,11.1v4.94c-17.71.85-35.45,3-53.06,4.94-10.11,1.11-19.59,1.6-29.61,2.47.98-9.89-19.17-3.9-12.34,0-35.57,2.96-70.53,5.16-106.11,7.4l-2.47-4.94c2.96-5.4,10.41,4.67,8.64-7.4,37.52,3.07,77.93-15.83,97.48-19.74,1.39-.28,13.65,16.17,7.4-12.34-.95-4.31,3.82.5-4.94-9.87h4.94c22.95-1.86,55.77,2.52,76.5,0,8.1-.98,24.92-.04,19.74-16.04-1.1-3.4-17.4-7.01-20.98-3.7-2.98-2.53.79-11.32,1.23-14.81,11.1-1.67,8.66,2.85,12.34,4.94Z" style="fill:#9090a9; stroke-width:0px;"/><path d="m1851.15,817.74c-2.09,17.36,9.43,11.21,22.21,12.34q-1.23,20.98-2.47,41.95c-8.54.17-16.14,2.27-24.68,2.47-2.22-25.5-23.16-23.86-19.74,0-24.65.6-49.38-.56-74.03,0v-32.08c13.75-.59,88.31-.59,92.54-2.47,5.47-2.42,5.47-17.32,0-19.74-2.5-1.11-29.54.34-38.25,0-1.14-6.43-6.15-8.44-9.87-12.34-19.32-20.25-2.24-21.68-14.81-37.02,10.43-.42,11.67-4.91,12.34-4.94,3.59-.12,15.74-.93,17.27,1.23q.62,24.06,1.23,48.12c12.69-2.35,25.98,2.11,38.25,2.47Z" style="fill:#7f7a9a; stroke-width:0px;"/><path d="m992.38,859.69c-.09,2.43.33,5.02,0,7.4-.23,1.66-8.3,3.43-4.94,17.27-.39,0-4.88,4.92-6.17,4.94-48.92.73-97.92-.95-146.83,0q-8.64-6.79-17.27-13.57c19.17-6.72,42.57-3.4,43.19-16.04h132.02Z" style="fill:#4e4768; stroke-width:0px;"/><path d="m1952.33,830.08c1.56,8.14-4.39,15.06,1.23,17.27,6.49,2.55,120.8,1.17,139.43,2.47,0,.59,1.58-5.67,2.47,7.4-17.45-.64-136.94-4.78-140.66,1.23-.67,1.08.42,6.88,0,11.1-27.96.57-55.91,1.91-83.9,2.47q1.23-20.98,2.47-41.95c21.02,1.85,54.91-.19,78.97,0Z" style="fill:#635177; stroke-width:0px;"/><path d="m1133.04,864.63c1.24.08,8.24,4.25,24.68,2.47v17.27c-56.73.2-113.55-.82-170.27,0-3.37-13.84,4.71-15.62,4.94-17.27,20.47-2.67,36.85,7.88,33.31-7.4,27.25,11,75.13,2.94,107.35,4.94Z" style="fill:#191a24; stroke-width:0px;"/><path d="m822.1,889.31c-1.66.03-21.69,4.9-23.44,4.94-46.36,1.01-93.11-1.23-139.43,0-1.8-10.06,2.52-11.71,2.47-12.34,41.88-.71,147.11-11.05,160.4,7.4Z" style="fill:#6d6782; stroke-width:0px;"/><path d="m1325.52,832.55c-2.48-.43-6.94-11.07-48.12-7.4-5.61,3.48-2.9,7.8-3.7,12.34h-7.4c8-.99-4.82-14.7-9.87-17.27-14.01-7.12-21.77.86-28.38-4.94-2.22,1.47-1.29,13.83-1.23,17.27-21.66,1.21-41.97-3.71-39.48,4.94-.24,4.08.36,8.28,0,12.34-1,11.35.72,23.15,0,34.55-1.65,0-3.29,0-4.94,0-1.17-12.11,1.62-28.4,0-39.48-2.53-17.33-2.05-12.95-22.21-12.34.41-4.36-.25-6.31-2.47-9.87,89.47.46,61.4,1.73,59.23-12.34,18.22,1.91,25.79-2.56,27.15-2.47.25.02-.8,4.83,1.23,4.94,50.4,2.72,86.73-10.96,80.2,19.74Z" style="fill:#37365b; stroke-width:0px;"/><path d="m2268.2,864.63c-22.2.26-44.43-.29-66.63,0,2.35-28.32-6.9-12.15-7.4-13.57-.67-1.9-.45-12.38,1.23-13.57,2.92-2.07,68.65-2.07,71.56,0,3.02,2.14.32,22.02,1.23,27.15Z" style="fill:#1c1e34; stroke-width:0px;"/><path d="m2095.46,857.23c.14,2.13,2.7,4.75,4.94,4.94-21.11,2.07-43.55,2.9-64.16,7.4-27.13.48-54.31-.55-81.44,0,.42-4.22-.67-10.02,0-11.1,3.73-6.01,123.22-1.87,140.66-1.23Z" style="fill:#37365b; stroke-width:0px;"/><path d="m1256.43,820.21c-23.68,4.45-12.46,22.68,9.87,17.27h7.4c-.75,4.27.02,11.86,0,17.27-6.79.11-24.01-.84-25.91,0-6.87,3.05-2.5,23.27-3.7,29.61-.75,0,1.58,2.56-14.81,2.47,2.43-18.01-2.19-36.59-2.47-54.29-.05-3.44-.98-15.81,1.23-17.27,6.61,5.79,14.37-2.19,28.38,4.94Z" style="fill:#191a24; stroke-width:0px;"/><path d="m661.7,881.9c.05.63-4.27,2.28-2.47,12.34-17.09.45-34.54,2.02-51.82,2.47.69-5.32-1-12.61,0-17.27,3.79-17.69,11.05-7.46,50.59-9.87.44,5.2,3.59,11,3.7,12.34Z" style="fill:#a69ca9; stroke-width:0px;"/><path d="m2184.29,864.63c-14.25.19-33.98,4.91-35.78,4.94-37.39.57-74.89-.66-112.28,0,20.61-4.5,43.05-5.34,64.16-7.4,14.42-1.41,29.93-8.45,44.42-7.4,3.46.25,27.67,23.43,22.21-9.87,1.11-.39,1.38-16.07,17.27-6.17,6.2,3.86-8.37,19.48,0,25.91Z" style="fill:#1c1e34; stroke-width:0px;"/><path d="m1542.68,879.43c-2.45.16-4.95-.13-7.4,0,.08-23.07-15.09-.22-17.27-11.1-1.25-6.22,15.41-17.3,23.44-18.51,13.17-1.98,34.75,12.92,34.55-12.34,12.68,45.99-39.01,14.87-33.31,41.95Z" style="fill:#37365b; stroke-width:0px;"/><path d="m1273.7,854.76c-.03,9.87.02,19.74,0,29.61-9.75-.09-19.79.08-29.61,0,1.2-6.34-3.17-26.57,3.7-29.61,1.9-.84,19.12.11,25.91,0Z" style="fill:#575882; stroke-width:0px;"/><path d="m2505.1,864.63c-20.57-.75-41.12,0-61.69,0-5.21-20.6,58.94-11.84,61.69,0Z" style="fill:#1c1e34; stroke-width:0px;"/><path d="m1846.21,874.5c-6.57.15-13.17-.16-19.74,0-3.42-23.86,17.52-25.5,19.74,0Z" style="fill:#1c1e34; stroke-width:0px;"/><path d="m1698.15,876.97c-.75.02-10.79,2.43-14.81,2.47-2.04-18.67,11.52-22.2,14.81-2.47Z" style="fill:#3c293a; stroke-width:0px;"/><path d="m237.25,909.05c-4.06.35-8.27-.34-12.34,0-6.83-3.9,13.32-9.89,12.34,0Z" style="fill:#3a3543; stroke-width:0px;"/><path d="m1789.46,691.89c63.73-5.74,16.01,12.5,35.78,22.21,23.18,11.39,25.74-43.97,25.91,19.74-41.1-6.56-17.97,19.77-25.91,27.15-14.1,13.1-29.88-37.85-30.85,4.94-.66.02-1.91,4.52-12.34,4.94-106.24,4.26-213.26.93-319.57,2.47-18.65-50.19,72.38-10.75,132.02-29.61,2.24-.22,2.56,2.48,4.94,2.47,14.92-.09,33.08,3.12,48.12,4.94,19.98-6.78,133.87-.62,140.66-2.47,23.83-6.48-10.47-17.06-11.1-18.51-.6-1.38-5.57-28.24-4.94-29.61,2.74-5.95,9.69-1.39,12.34-6.17.35-.63-.36-1.85,0-2.47h4.94Z" style="fill:#7f7a9a; stroke-width:0px;"/><path d="m2085.59,686.95c1.39,3.37-5.15,21.68-6.17,22.21-4.22,2.19-82.12.09-95.01,0,7.08-2.88,8.48-18.44,11.1-19.74,2.84-1.41,23.38,1,32.08,0,6.99-12.65-19.48-5.2-24.68-4.94-1.07.05-3.53-5.83-7.4-4.94-3.41.79-5.64,19.19-11.1,12.34.6-3.58-1.44-12.91,1.23-14.81,2.11-1.5,49.7-1.49,51.82,0,7.23,5.08-17.7,17.41,48.12,9.87Z" style="fill:#37365b; stroke-width:0px;"/><path d="m2500.16,694.35c1.76,6.13,1,11.41-1.23,17.27-17.75-4.12-52.74,9.91-57.99-9.87-.94-3.56.64-10.21,0-14.81,27.45-.91,53.93-11.06,59.23,7.4Z" style="fill:#7e86ac; stroke-width:0px;"/><path d="m2315.08,701.76c24.27-1.09,16.1,2.5,17.27,2.47-3.38,14.06-8.64-.02-12.34,14.81-12.05-.37-20.59,9.22-23.44-7.4-16.86-.19-33.73.27-50.59,0-14.94-22.66,54.1-18.83,60.46-4.94,7.44,1.32,8.23-4.65,8.64-4.94Z" style="fill:#7e86ac; stroke-width:0px;"/><path d="m2139.88,682.02c1.64.04,3.29-.04,4.94,0,3.28.08,6.6-.16,9.87,0,15.99.8,33.49,2.32,49.35,4.94.33,3.19-.51,6.77,0,9.87-9.75,1.43-56.28,5.3-59.23,4.94-15.71-1.96-23.91-17-4.94-19.74Z" style="fill:#7e86ac; stroke-width:0px;"/><path d="m1984.41,709.16c-.82,0-1.65.01-2.47,0,1.11-5.65,1.53-11.66,2.47-17.27,5.47,6.85,7.69-11.55,11.1-12.34,3.87-.89,6.33,4.99,7.4,4.94,5.2-.26,31.67-7.71,24.68,4.94-8.7,1-29.24-1.41-32.08,0-2.62,1.3-4.02,16.86-11.1,19.74Z" style="fill:#556697; stroke-width:0px;"/><path d="m121.27,662.27v14.81c-40.3,1.1-80.53,4.3-120.92,2.47,0-4.11,0-8.23,0-12.34,29.98-2.38,80.12,3.21,104.88,0,2.74-.36,3.91-7.19,4.94-7.4,7.22-1.49,9.98,2.84,11.1,2.47Z" style="fill:#575882; stroke-width:0px;"/><path d="m180.49,674.61q-1.23,13.57-2.47,27.15c-59.24.32-118.4-4.01-177.68,0,0-7.4,0-14.81,0-22.21,40.39,1.84,80.62-1.37,120.92-2.47,19.73-.54,39.49-2.56,59.23-2.47Z" style="fill:#9090a9; stroke-width:0px;"/><path d="m215.04,667.21v7.4c-11.31-.81-23.16.05-34.55,0-19.74-.09-39.5,1.93-59.23,2.47v-14.81c6.17-2.02,15.61-2.35,17.27-6.17.92-2.11-.42-14.14,0-20.98.05-.82-.06-1.65,0-2.47,8.55-4.59,72.2-2.18,75.27,0,3.12,2.21.23,28.66,1.23,34.55Z" style="fill:#b4adbf; stroke-width:0px;"/><path d="m219.98,625.26c-1.94,18.28,2.44,28.13,2.47,29.61,0,.49-6.73,6.24,0,9.87-.38.07,1.13,3.62-7.4,2.47-1-5.88,1.88-32.34-1.23-34.55-3.07-2.18-66.72-4.59-75.27,0,.04-.5-5.65-4.47-1.23-9.87,27.61-2.07,55.21,1.7,82.67,2.47Z" style="fill:#315186; stroke-width:0px;"/><path d="m545.72,709.16c-13.85,6.02-4.72,9.16-4.94,9.87-1.29,4.31,2.69,10.87-3.7,14.81-34.82.12-40.47-7.97-35.78,32.08.41,3.54-1.32,13,1.23,14.81,19.33-.17,38.67.23,57.99,0-1.67,9.69,15.26,1.33,13.57,7.4-33.23-2.68-33.92,4.73-35.78,4.94-13.77,1.55-28.3-2.61-41.95,2.47-10.94-1.81-7.62-14.31-8.64-14.81-3.23-1.59-52.12.26-57.99,2.47-8.48,1.15-7.03-2.37-7.4-2.47,2.39-.15,5.69-4.04,4.94-4.94-2.03-2.4-6.5-3.61-9.87-4.94,52.49-14.75,84.98,18.12,72.8-34.55h-111.05c-.66,8.1-3.61,13.91-3.7,14.81-11.31.57-5.39-12.51-8.64-14.81-3.59-2.54-68.9-3.94-85.14,9.87-19.5,6.12-13.44-6.78-16.04-7.4-4.25-1.02-13.86.55-20.98,0-2.36-19.39,4.8-25.77,4.94-27.15h134.49c5.19-29.79-34.79-5.77-40.72-18.51-3.47-7.47,2.76-25.39,11.1-8.64,18.34-19.63,20.84-3.13,22.21-2.47,2.97,1.44,6.09-9.87,11.1-3.7,1.07,1.31,3.65,31.99,6.17,33.31,6.72,3.52,133.46-4.97,151.77-2.47Z" style="fill:#4e4768; stroke-width:0px;"/><path d="m215.04,674.61c15.2,1.08,54.28-1.49,44.42,18.51-.33.68-11.63,8.38-12.34,8.64-4.76,1.7-55.57-.07-69.1,0q1.23-13.57,2.47-27.15c11.38.05,23.23-.81,34.55,0Z" style="fill:#575882; stroke-width:0px;"/><path d="m2312.62,731.37c.54.11,7.38,4.94,9.87,4.94q-4.94,20.36-9.87,40.72c3.97,5.77,16.02,3.69,27.15,3.7v2.47c-.76,6.07,1.08,14.32,0,19.74-24.59-7.69-8.74,31.4,0,7.4-2.13,8.56,11.19,3.59,27.15,4.94,38.28,3.22,5.35,10.11-35.78,7.4-.68,8.22-3.58,13.78-3.7,14.81-32.27,3.97-19.84-8.66-22.21-44.42-.72-10.85-.02-23.87-2.47-32.08-6.91-23.2-26.1,13.33-27.15-28.38-.05-1.83-5.12-.69-4.94-2.47,28.15-18.01,31.33,3.11,33.31,3.7,4.95,1.49,6.96-2.81,8.64-2.47Z" style="fill:#6d6782; stroke-width:0px;"/><path d="m2411.33,793.06c.89,2.14-.9,8.17,0,9.87-6.32,7.41-29.2,5.23-44.42,12.34-15.96-1.34-29.27,3.63-27.15-4.94.59-1.63-.46-5.08,0-7.4,1.08-5.42-.76-13.67,0-19.74,22.26,8.91,62.14-12.64,71.56,9.87Z" style="fill:#b4adbf; stroke-width:0px;"/><path d="m365.57,765.92c-.38,4.42-1.97,30.83,1.23,32.08,18.45-2.38,37.36,2.13,55.52,2.47,32.13.6,7.27-10.76,18.51-14.81,10.24-3.69,50.16-2.14,45.65,17.27-7.15,11.25,46.12,2.24,54.29,2.47,2.59.07-5.53,4.91,49.35,4.94v7.4c-13.47-.26-26.85-2.72-40.72-2.47-2.01.04-.98,4.93-1.23,4.94-15.15.56-54.9-1.62-60.46,0-7.84,2.28,2.98,8.78,0,9.87-2.96,1.08-54,2.42-62.93,2.47-19.53.11-39.57-6.82-59.23,0,5.24-20.35,60.31-3.07,77.73-14.81-45.41-8.98-92.11-3.4-138.19-4.94-4.36,11.55,1.33,14.07,1.23,14.81-.45,3.49-4.22,12.28-1.23,14.81,3.58-3.31,19.87.3,20.98,3.7,5.18,16-11.64,15.06-19.74,16.04-4.79-6.23-.64-15.26-3.7-17.27-3.04-2-65.7,1.52-70.33,4.94-1.35-3.83-9.5-4.97-7.4-11.1,12.8-1.19,1.2-15.47,13.57-20.98h-43.19c-.36-10.79-6.92-18.64-12.34-27.15,16.11-9.02,60.63,26.62,45.65-2.47-25.3-.71-49.92-10.19-33.31-14.81,1.36,5.47,41.68,10,51.82-2.47-.9,6.76,2.83,4.61,7.4,4.94q.62,19.74,1.23,39.48c10.49,5.42,74.83-9.26,28.38-11.1-4.17-12.1,22.26,2.2,17.27-19.74-1.37-6.02-5.4-5.61-7.4-6.17-5.06-19.59,37.19-10.22,71.56-12.34Z" style="fill:#37365b; stroke-width:0px;"/><path d="m195.3,773.32c-16.6,4.61,8.01,14.1,33.31,14.81,14.97,29.09-29.55-6.55-45.65,2.47-3.4-5.33-7.72-10.43-12.34-14.81-4.87-4.61-11.39-9.76-17.27-12.34,5.03-14.23,53.23-14.42,41.95,9.87Z" style="fill:#1c1e34; stroke-width:0px;"/><path d="m244.65,738.77c7.12.55,16.72-1.02,20.98,0,2.6.62-3.46,13.53,16.04,7.4-.4.34-.48,5.92-3.7,9.87-43.68-4.84-24.09,6.5-30.85,14.81-10.14,12.47-50.46,7.94-51.82,2.47,11.28-24.29-36.92-24.1-41.95-9.87-8.99-3.94-8.08-7.27-8.64-7.4-9.04-2.24-39.42,1.62-54.29,0-3.71,1.9-10.74,43.17-13.57,45.65-5.09,4.47-14.04-1.28-14.81-1.23,8.86-57.79,3.85-39.24-61.69-41.95,0-6.58,0-13.16,0-19.74,71.83,3.79,179.32-5.07,244.31,0Z" style="fill:#1c1e34; stroke-width:0px;"/><path d="m218.74,756.05c6.88-3.53,21.71.76,16.04,11.1-2.31,4.21-23.29-7.38-16.04-11.1Z" style="fill:#37365b; stroke-width:0px;"/><path d="m170.62,775.79c4.62,4.37,8.94,9.48,12.34,14.81,5.42,8.5,11.98,16.35,12.34,27.15.16,4.67,1.58,14.94-3.7,17.27h-39.48c-2.57-2.77.66-5.02-3.7-7.4-18.82-10.28-22.08-6.91,2.47-35.78,4.38-5.15,13.76-15.56,19.74-16.04Z" style="fill:#9090a9; stroke-width:0px;"/><path d="m153.35,763.45c5.88,2.58,12.41,7.72,17.27,12.34-5.98.48-15.36,10.89-19.74,16.04-24.55,28.87-21.29,25.5-2.47,35.78-11.74,4.97-20.9-2.04-20.98-14.81q-63.54-1.23-127.09-2.47c0-1.65,0-3.29,0-4.94,9.34,1.9,18.21-1.5,27.15-2.47,6.64-.72,13.58,1.89,19.74-2.47,8.65,1.38,7.42.41,14.81,0,.76-.04,9.71,5.71,14.81,1.23,2.83-2.49,9.86-43.75,13.57-45.65,14.87,1.62,45.25-2.24,54.29,0,.55.14-.35,3.47,8.64,7.4Z" style="fill:#37365b; stroke-width:0px;"/><path d="m120.03,783.19c1.45-.47,1.02,5.41,2.47,4.94,37.61-12.44,3.84,18.31-7.4,12.34-2.57-1.37,3.9-16.94,4.94-17.27Z" style="fill:#7f7a9a; stroke-width:0px;"/><path d="m62.04,800.47c-7.38.41-6.16,1.38-14.81,0-1.24-.2-14.59-14.86-19.74,2.47-8.93.97-17.81,4.37-27.15,2.47-.01-15.63.01-31.26,0-46.89,65.54,2.71,70.55-15.84,61.69,41.95Z" style="fill:#4e4768; stroke-width:0px;"/><path d="m47.24,800.47c-6.16,4.36-13.1,1.75-19.74,2.47,5.15-17.32,18.5-2.66,19.74-2.47Z" style="fill:#1c1e34; stroke-width:0px;"/><path d="m215.04,852.29c-25.16-5.74-50.02-1.8-75.27-2.47-.55-.01-9.32-4.92-9.87-4.94s-9.32,4.95-9.87,4.94c-12.56-.22-40.49-5.38-67.86-2.47-2.13-9.49-6.17-20.93-18.51-14.81-7.89,3.92,7.26,19.18-33.31,14.81,0-9.05,0-18.1,0-27.15,40.74,15.84,86.3,7.86,129.56,9.87-13.27,24.47,109.12-13.92,85.14,22.21Z" style="fill:#9090a9; stroke-width:0px;"/><path d="m215.04,852.29q1.85,4.94,3.7,9.87c2.6.17,5.94-.27,6.17,0,8.75,10.37,3.99,5.56,4.94,9.87-2.38-.29-5.11.48-7.4,0-33.87-7.15-118.46,5.87-164.1,2.47-1.06-.08-3-4.57-6.17-4.94-.88-6.69,1.25-16.64,0-22.21,27.37-2.92,55.3,2.24,67.86,2.47.55,0,9.32-4.95,9.87-4.94s9.32,4.92,9.87,4.94c25.25.67,50.11-3.27,75.27,2.47Z" style="fill:#9090a9; stroke-width:0px;"/><path d="m306.35,862.16c-20.73,2.52-53.55-1.86-76.5,0,2.1-3.43,3.81-8.53,2.47-12.34,4.63-3.42,67.29-6.93,70.33-4.94,3.06,2.01-1.09,11.04,3.7,17.27Z" style="fill:#6d6782; stroke-width:0px;"/><path d="m222.45,879.43v4.94c-19.55,3.91-59.95,22.81-97.48,19.74,1.77,12.08-5.68,2-8.64,7.4-14.85-.6-29.71.83-44.42,2.47.98-5.64-1.85-29.89,1.23-32.08,6.09-4.32,131.87-4.54,149.3-2.47Z" style="fill:#b4adbf; stroke-width:0px;"/><path d="m49.7,869.56c6.4,50.19-18.45,40.72-19.74,38.25-1.48-2.81,1.06-26.97,0-35.78,5.34-5.13,11.85-3.5,19.74-2.47Z" style="fill:#b4adbf; stroke-width:0px;"/><path d="m229.85,872.03c6.25,28.51-6.02,12.06-7.4,12.34v-12.34c2.3.48,5.02-.29,7.4,0Z" style="fill:#1c1e34; stroke-width:0px;"/><path d="m997.31,738.77c-.04,4.11.07,8.23,0,12.34-11.53-8.84-14.29,15.41-4.94,14.81-10.54,6.66-27.8,2.1,4.94,7.4-24.53,8.68-3.65,18.6-2.47,19.74,9.1,8.85,24.17,12.13,39.48,14.81,5.47.96,14.9,8.36,14.81-7.4,54.13,5.62,113.44-3.08,167.81-4.94.2,1.6-.15,3.32,0,4.94.3,3.21-.48,6.75,0,9.87,2.17,14.07,30.25,12.8-59.23,12.34-51.4-.26-102.78-4.31-154.23-2.47,3.37,12.76-46.89,9.6-27.15,17.27,11.51,4.47,149.12-4.5,155.47,0,3.02,2.14.32,22.02,1.23,27.15-32.22-1.99-80.1,6.06-107.35-4.94,3.54,15.28-12.84,4.73-33.31,7.4.33-2.38-.09-4.97,0-7.4,1.48-38.83-41.01,1.96-50.59-29.61-2.95,22.14-43.02,8.91-82.67,12.34,6.95-6.72,72.73.54,19.74-6.17q8.64-1.85,17.27-3.7c11.07-.44,22.23.32,33.31,0-.28-9.13,3.78-30.47,3.7-32.08,28.26,9.21,20.37-25.82,18.51-27.15-3.12-2.21-65.78,1.67-76.5,0-2.55-1.8-.82-11.27-1.23-14.81,17.35.47,21.74-5.73,14.81-22.21,7.34-.86,71.58-3.25,75.27-2.47,5.74,1.23.94,19.06,13.57,0,.48-.73-.49-3.91,0-4.94,16.37-.84,7.82,15.92,19.74,9.87Z" style="fill:#7f7a9a; stroke-width:0px;"/><path d="m933.15,800.47c.08,1.61-3.98,22.95-3.7,32.08-11.08.32-22.24-.44-33.31,0-13.1.52-26.41-.78-39.48,0,2-5.83-3.57-9.09-7.4-9.87,8.7.16,7.29-5.8,7.4-12.34.33-19.19-1.28-12.55-4.94-14.81l7.4-9.87c23.44.2,46.89-.15,70.33,0,5.6,3.85,3.44,9.47,3.7,14.81Z" style="fill:#4e4768; stroke-width:0px;"/><path d="m856.65,810.34c-.11,6.54,1.29,12.5-7.4,12.34-15.53-3.15-169.42-2.06-202.35-2.47v-9.87c39.05-.15,115.01.58,149.3-2.47.94-.08,5.17-5.75,7.4-7.4,11.35-2.09,11.09,15.13,53.06,9.87Z" style="fill:#7f7a9a; stroke-width:0px;"/><path d="m597.54,837.48c16.04.02,119.54-3.6,124.62,0,2.03,1.44,2.03,18.3,0,19.74-3.98,2.82-85.79.6-97.48,0-16.8-.86-52.41,4.41-27.15-19.74Z" style="fill:#9090a9; stroke-width:0px;"/><path d="m548.19,820.21v12.34c-4.59,3.82-9.78,6.59-14.81,9.87-12.82-19.97-68.81-10.65-24.68,0-.55,3.88-4.66,4.72-4.94,4.94-26.34-9.99-23.1,20.75-29.61,2.47-.19-.53,13.03-2.22,0-4.94-11.82-2.46-31.34,3.75-43.19-2.47-2.46.95-.68,7.05-1.23,7.4-20.49-.5-10.58-6.38-4.94-17.27,8.93-.05,59.97-1.38,62.93-2.47,2.98-1.09-7.84-7.59,0-9.87,5.56-1.62,45.31.56,60.46,0Z" style="fill:#575882; stroke-width:0px;"/><path d="m896.14,832.55q-8.64,1.85-17.27,3.7c52.98,6.71-12.79-.55-19.74,6.17-3.79,3.67-1.31,10.9-3.7,12.34-4.28,2.58-97.05,2.84-99.94-1.23-18.06-25.42,52.58-13.5,99.94-16.04,2.03-.11.98-4.92,1.23-4.94,13.07-.78,26.38.52,39.48,0Z" style="fill:#6d6782; stroke-width:0px;"/><path d="m597.54,805.4c55.32.17,46.76,4.95,49.35,4.94v9.87c-17.81-.22-37.31,5.26-55.52,2.47-2.01-.04-.98-4.93-1.23-4.94v-7.4c.44,0-3.85-4.97,7.4-4.94Z" style="fill:#bfbfca; stroke-width:0px;"/><path d="m548.19,837.48c-.31,49.78-21.56,6.65-49.35,14.81,1.29-1.2,3.68-3.95,4.94-4.94.27-.22,4.39-1.06,4.94-4.94,7.45,1.8,11.5-9.25,23.44,4.94,2.07-.17.93-4.74,1.23-4.94,5.03-3.28,10.21-6.06,14.81-9.87,0,1.65.01,3.29,0,4.94Z" style="fill:#6d6782; stroke-width:0px;"/><path d="m1851.15,733.84c0,.44,3.53,6.96,4.94,7.4-.35,4.07-.75,10.96,0,14.81,5.57,28.48,28.09-4.01,24.68,27.15-5.84-.08-10.51,4.82-11.1,4.94-4.97.98-9.85-4.47-12.34-2.47-29.73,23.93,105.19,12.12,145.6,14.81,7.25-3.39,4.04-29.61,2.47-29.61,4.28,29.51-27.02,19.62-45.65,17.27-9.84-38.73,34.96-20.76,88.84-24.68.09,1.36-2.02,21.98-2.47,27.15-.4,4.63,1.39,22.82-1.23,24.68-64.19-4.04-129.76,4.32-193.72,2.47-12.27-.35-25.56-4.82-38.25-2.47q-.62-24.06-1.23-48.12c-1.53-2.16-13.68-1.36-17.27-1.23.97-42.79,16.75,8.17,30.85-4.94,7.94-7.38-15.19-33.7,25.91-27.15Z" style="fill:#575882; stroke-width:0px;"/><path d="m2302.75,760.98c2.44,8.21,1.75,21.23,2.47,32.08q-93.77-1.23-187.55-2.47c-.37-3.17.57-6.82,0-9.87h122.15c4.16-9.72-1.26-16.29-1.23-17.27.04-1.64.05-3.3,0-4.94q32.08,1.23,64.16,2.47Z" style="fill:#4e4768; stroke-width:0px;"/><path d="m2127.54,756.05c1.14,7.29-4.02,2.75-7.4,7.4-.18.25-4.12,1.34-4.94,3.7-2.85,8.24,2.34,12.89,2.47,13.57.57,3.05-.37,6.7,0,9.87h-71.56c.45-5.16,2.56-25.79,2.47-27.15-.21-3.02.93-6-1.23-7.4-7.92-.97-37.6,1.33-39.48,0-3.89-2.75,2.99-16.74-6.17-14.81.3-.69-.3-1.78,0-2.47,78.12-5.6,46.72,12.34,57.99,17.27,3.11,1.36,61.29.96,67.86,0Z" style="fill:#6d6782; stroke-width:0px;"/><path d="m2092.99,849.82c-18.63-1.3-132.94.08-139.43-2.47-5.62-2.21.33-9.13-1.23-17.27,31.88.25,64.73-3.03,96.24-2.47,16.46.3,33.8,4.88,50.59,2.47-1.95,5.05-6.14,17.42-6.17,19.74Z" style="fill:#6d6782; stroke-width:0px;"/><path d="m2144.81,839.95c.92,5.87-2.48,4.66-2.47,4.94-65.68,12.85-55.95-23.35,2.47-4.94Z" style="fill:#37365b; stroke-width:0px;"/><path d="m2167.02,844.89c5.46,33.3-18.75,10.12-22.21,9.87,1.28-6.09-2.38-7.9-2.47-9.87-.01-.28,3.39.94,2.47-4.94,13.14-5.74-4.02,14.22,22.21,4.94Z" style="fill:#7f7a9a; stroke-width:0px;"/><path d="m1705.55,785.66c3.19-.53,3.1,6.76,2.47,12.34-.98,8.7-2.33,15.68-2.47,24.68-.11,7.4.04,14.81,0,22.21-.01,2.34-2.44,2.58-2.47,4.94h-65.39c-2.34-1.66-1.22-27.04-1.23-32.08-.03-9.87.02-19.74,0-29.61,23.23-1.23,45.97-1.46,69.1-2.47Z" style="fill:#b4adbf; stroke-width:0px;"/><path d="m1806.73,820.21c8.71.34,35.75-1.11,38.25,0,5.47,2.42,5.47,17.32,0,19.74-4.23,1.88-78.79,1.87-92.54,2.47-2.24.1-3.74-6.85-18.51-4.94-1.6.21-.48,10.88-28.38,7.4.04-7.4-.11-14.81,0-22.21,33.16-3.55,67.92-3.75,101.18-2.47Z" style="fill:#1c1e34; stroke-width:0px;"/><path d="m1451.38,842.42c-3.29.05-6.58-.07-9.87,0-21.82.47-15.12,9.7-32.08,44.42-6.51-.04-4.66-2.47-4.94-2.47,10.14-16.6,28.7-55.57-6.17-32.08,6.29-7.67-33.82-10.18-43.19-9.87l-4.94-7.4c.31.02,2-5.03,3.7-4.94,14.81.81,65.58,10.34,76.5,4.94,2.25-1.12.93-4.84,1.23-4.94.3-.1-1-3.94,1.23-4.94,32.05-4.74,17.56,9.4,18.51,17.27Z" style="fill:#1c1e34; stroke-width:0px;"/><path d="m1451.38,842.42c.35,2.91,1.94,12.71,2.47,14.81-14.95,1.29-12.64-.37-12.34-14.81,3.29-.07,6.58.05,9.87,0Z" style="fill:#b4adbf; stroke-width:0px;"/><path d="m1355.14,842.42c9.37-.31,49.47,2.2,43.19,9.87,34.87-23.49,16.31,15.49,6.17,32.08-43.62-.23-87.04.4-130.79,0,.02-9.87-.03-19.74,0-29.61,27.4-.46,48.61,7.97,80.2-4.94-10.51-3.66-11.11-6.99,1.23-7.4Z" style="fill:#b4adbf; stroke-width:0px;"/><path d="m1325.52,832.55c.39.07.2,1.77,6.17,4.94,3.12-3.69,12.09-2.85,18.51-2.47l4.94,7.4c-12.35.41-11.75,3.74-1.23,7.4-31.6,12.9-52.8,4.47-80.2,4.94.02-5.42-.75-13.01,0-17.27.8-4.54-1.91-8.86,3.7-12.34,41.18-3.67,45.64,6.97,48.12,7.4Z" style="fill:#9090a9; stroke-width:0px;"/><path d="m1157.72,822.68c2.21,3.56,2.88,5.51,2.47,9.87-.06.63-2.01-3.18-2.47,12.34-.22,7.39.16,14.81,0,22.21-16.44,1.78-23.44-2.39-24.68-2.47-.91-5.13,1.78-25.01-1.23-27.15-6.35-4.5-143.96,4.47-155.47,0-19.75-7.67,30.52-4.52,27.15-17.27,51.46-1.85,102.83,2.21,154.23,2.47Z" style="fill:#1c1e34; stroke-width:0px;"/><path d="m1387.22,788.13c-2.78,24.36-5.14,22.8-14.81,24.68-.37.07-7.73-7.2-7.4,1.23.37,9.48,55.52,21.88,66.63,16.04-.31.1,1.02,3.82-1.23,4.94-10.92,5.41-61.69-4.13-76.5-4.94-1.7-.09-3.39,4.95-3.7,4.94-6.41-.38-15.39-1.23-18.51,2.47-5.97-3.16-5.78-4.87-6.17-4.94,6.53-30.71-29.81-17.02-80.2-19.74-2.03-.11-.98-4.92-1.23-4.94v-7.4c.25-.02-.9-4.03,1.23-4.94,13.44-.87,73.04,1.63,76.5,0,8.93-4.2-15.82-16.23,61.69-12.34,1.85.09,3.39,4.92,3.7,4.94Z" style="fill:#b4adbf; stroke-width:0px;"/><path d="m1256.43,820.21c5.05,2.57,17.87,16.29,9.87,17.27-22.33,5.41-33.56-12.83-9.87-17.27Z" style="fill:#7f7a9a; stroke-width:0px;"/><path d="m1182.39,844.89c1.62,11.09-1.17,27.37,0,39.48-8.23.02-16.45-.03-24.68,0v-17.27c.16-7.4-.22-14.82,0-22.21h24.68Z" style="fill:#9090a9; stroke-width:0px;"/><path d="m1182.39,844.89h-24.68c.46-15.52,2.41-11.71,2.47-12.34,20.16-.61,19.68-4.99,22.21,12.34Z" style="fill:#7a7c92; stroke-width:0px;"/><path d="m1226.81,832.55c.27,17.7,4.89,36.28,2.47,54.29-13.88-.08-28.58-2.48-41.95-2.47.72-11.4-1-23.2,0-34.55,20.56.28,20.58-12.9,0-12.34-2.49-8.65,17.82-3.73,39.48-4.94Z" style="fill:#9090a9; stroke-width:0px;"/><path d="m1187.33,849.82c.36-4.06-.24-8.26,0-12.34,20.58-.56,20.56,12.62,0,12.34Z" style="fill:#9090a9; stroke-width:0px;"/><path d="m1784.52,694.35c-2.65,4.78-9.6.22-12.34,6.17-.63,1.37,4.33,28.23,4.94,29.61.63,1.44,34.94,12.02,11.1,18.51-6.79,1.85-120.68-4.31-140.66,2.47-15.04-1.81-33.2-5.02-48.12-4.94-3.74-18.71,36.13-5.68,45.65-9.87,10.93-4.81-12.18-21.21,28.38-22.21,1.24-.03,7.83,4.28,24.68,2.47.69,6.15-2.44,12.98,3.7,17.27,21.39-2.49,86.09,9.77,60.46-18.51,27.76-25.06-42.76-13.6-64.16-16.04l1.23-4.94h85.14Z" style="fill:#37365b; stroke-width:0px;"/><path d="m1698.15,716.56c-.63-5.63.44-11.6,0-17.27,21.4,2.44,91.92-9.02,64.16,16.04,25.63,28.28-39.07,16.01-60.46,18.51-6.14-4.29-3.01-11.13-3.7-17.27Z" style="fill:#9090a9; stroke-width:0px;"/><path d="m2001.68,738.77c-.3.69.3,1.78,0,2.47-.32.74-4.36,1.49-6.17,14.81h-139.43c-.75-3.84-.35-10.74,0-14.81.72-8.42-2.1-17,3.7-24.68,34.47,2.73,103.76-3.69,128.32,0,1.79.27-7.64,9.14,30.85,8.64-29.9,5.37-16.75,12.36-17.27,13.57Z" style="fill:#7f7a9a; stroke-width:0px;"/><path d="m2206.5,726.44c1.55.06,12.88,4.45,30.85,2.47,2.46,1.75,1.07,24.66,1.23,29.61.05,1.64.04,3.29,0,4.94h-118.45c3.38-4.65,8.55-.11,7.4-7.4,3.23-.47,10.54,1.31,12.34-1.23,1.33-7.31-.18-24.63,0-25.91,19.81,2.94,53.49-2.99,66.63-2.47Z" style="fill:#7f7a9a; stroke-width:0px;"/><path d="m2206.5,726.44c-13.13-.53-46.82,5.41-66.63,2.47.22-1.53,7.53-5.41,4.94-27.15,2.95.37,49.48-3.51,59.23-4.94,1.69,10.16,3.85,19.14,2.47,29.61Z" style="fill:#575882; stroke-width:0px;"/><path d="m1890.63,691.89c-26.64,8.74-23.07-3.62-28.38-2.47-18.62,4.03,17.66,29.21,28.38,4.94,2.96,4.96,5.88,9.72,8.64,14.81,27.55.32,55.13-.43,82.67,0,.82.01,1.65,0,2.47,0,12.89.09,90.79,2.19,95.01,0,1.02-.53,7.56-18.84,6.17-22.21.25-.03-.83-4.69,1.23-4.94,29.65,3.23,45.15-5.08,51.82-4.94,2.13.89.98,4.93,1.23,4.94-18.97,2.74-10.78,17.78,4.94,19.74,2.59,21.73-4.72,25.62-4.94,27.15-.18,1.28,1.33,18.6,0,25.91-1.8,2.55-9.11.76-12.34,1.23-6.57.96-64.76,1.36-67.86,0-11.27-4.94,20.13-22.87-57.99-17.27.53-1.21-12.63-8.2,17.27-13.57-38.48.51-29.06-8.37-30.85-8.64-24.56-3.69-93.85,2.73-128.32,0-5.8,7.68-2.98,16.26-3.7,24.68-1.4-.44-4.93-6.96-4.94-7.4-.17-63.71-2.73-8.35-25.91-19.74-19.77-9.71,27.95-27.95-35.78-22.21-10.23-23.24,70.71,2.29,92.54-17.27,11.48,10.44,8.12,16.37,8.64,17.27Z" style="fill:#37365b; stroke-width:0px;"/><path d="m1890.63,691.89c.35.62-.36,1.86,0,2.47-10.72,24.27-47-.9-28.38-4.94,5.31-1.15,1.74,11.2,28.38,2.47Z" style="fill:#9a9ec0; stroke-width:0px;"/><path d="m2086.82,701.76c14.5-6.68,9.97,13.14,7.4,14.81-10.08,6.56-16.41-10.66-7.4-14.81Z" style="fill:#6d6782; stroke-width:0px;"/><path d="m2113.96,709.16c4.82-1.16,8.72,7.39,4.94,9.87-7.88,5.17-12.48-8.06-4.94-9.87Z" style="fill:#575882; stroke-width:0px;"/><path d="m1832.64,691.89c8.15-3.78,10.08,11.14,2.47,12.34-2.39.38-4.26-11.51-2.47-12.34Z" style="fill:#9090a9; stroke-width:0px;"/><path d="m1844.98,689.42l1.23,1.23,1.23,1.23,1.23,1.23-1.23,1.23h-2.47l-1.23-1.23v-2.47l1.23-1.23Z" style="fill:#9090a9; stroke-width:0px;"/><path d="m2245.99,711.63c16.85.27,33.73-.19,50.59,0,2.85,16.63,11.39,7.04,23.44,7.4-.98,3.92.15,13.25-7.4,12.34-1.68-.34-3.68,3.96-8.64,2.47-1.98-.6-5.17-21.71-33.31-3.7-.18,1.77,4.89.64,4.94,2.47,1.04,41.71,20.24,5.17,27.15,28.38q-32.08-1.23-64.16-2.47c-.17-4.95,1.22-27.87-1.23-29.61-17.97,1.98-29.3-2.41-30.85-2.47,1.38-10.47-.78-19.45-2.47-29.61-.51-3.1.33-6.68,0-9.87,3.49.58,1.81-7.06,4.94-3.7q1.85,15.42,3.7,30.85c3.49,1.55,25.76-2.59,33.31-2.47Z" style="fill:#37365b; stroke-width:0px;"/><path d="m2247.22,731.37c5.61-4.66,6.53,6.91,7.4,7.4,7.59,4.27,4.36-8.35,9.87-7.4,36.21,6.24-44.94,22.95-17.27,0Z" style="fill:#9090a9; stroke-width:0px;"/><path d="m1147.85,684.48c-38.62,27.88,51.22,14.67,102.41,17.27,2.21.11.86,7.38,1.23,7.4,2.94,3.75,4.1,10.22-1.23,12.34-12.61,5.01-235.16-3.83-271.45,0-2.58,1.35-.48,5.83-1.23,7.4-.49,1.02.48,4.2,0,4.94-14.35-3.07-14.95-12.05-16.04-12.34-12.73-3.32-102.02,2.46-130.79,0,4.47-7.64,9.09-16.49,16.04-22.21,17.24-14.19,21.95-4.41,28.38-4.94,1.06-.09,8.14-4.92,8.64-4.94,1.26-.03,2.06,2.28,9.87,2.47-3.85,24.06,9.94,11.6,32.08,14.81.25.04-.83,4.7,1.23,4.94,12.15,1.38,169.15,2.49,177.68,0,2.09-.61,4.49-4.73,3.7-7.4,5.86.22,4.9-5.28,16.04,2.47,24.4-32.73-.71-14.53-2.47-14.81-6.32-.99,7.77-6.6-20.98-2.47.65-18.39,34.15-19.6,46.89-4.94Z" style="fill:#575882; stroke-width:0px;"/><path d="m1555.02,714.1c10.89.41,35.77-1.25,39.48,0,13.43,24.98-45.71,17.26-98.71,17.27,5.27-27.05-12.03-12.36-13.57-12.34-48.11.62-96.25-.45-144.36,0v-7.4c6.01.12,32.53-4.88,39.48-4.94,3.27-.02,6.49.04,9.87,0,28.18-.3,55.36,6.44,83.9,0,2.05-.46,2.82,3.34,6.17,2.47,3.02-.79,3.68-15.97,17.27-9.87,6.39,2.87,1.85,12.68,4.94,14.81,2.29,1.57,47.17-.31,55.52,0Z" style="fill:#37365b; stroke-width:0px;"/><path d="m1281.1,699.29v7.4c-6.33-.39-14.32,3.23-29.61,2.47-.37-.02.98-7.29-1.23-7.4-51.19-2.61-141.03,10.6-102.41-17.27.39-.28-1.06-3.9,1.23-4.94,48.39.31,92.24-6.01,132.02,19.74Z" style="fill:#b4adbf; stroke-width:0px;"/><path d="m1046.67,696.82c11.22-.75,23.56,1.15,34.55,0,2.47,11.16,11.78,6.82,27.15,7.4.78,2.67-1.61,6.79-3.7,7.4-8.53,2.49-165.52,1.38-177.68,0-2.06-.23-.98-4.9-1.23-4.94q1.23-4.94,2.47-9.87c14.89.62,37.97,1.67,51.82-2.47,8.03,10.2,46.94,3.78,66.63,2.47Z" style="fill:#37365b; stroke-width:0px;"/><path d="m1377.35,706.69c-6.95.05-33.48,5.06-39.48,4.94-.48,0,2.52-3.4-6.17-7.4-5.29,2.73-5.77,4.95-6.17,4.94-15.11-.42-29.42-1.55-44.42-2.47v-7.4c7.38.49,50.41-33.62,55.52-14.81,6.11-12.64,36.78,11.31,40.72,22.21Z" style="fill:#575882; stroke-width:0px;"/><path d="m1471.12,706.69c-28.55,6.44-55.73-.3-83.9,0,16.82-36.12,58.47-27.68,83.9,0Z" style="fill:#575882; stroke-width:0px;"/><path d="m883.8,679.55v9.87c-.5.01-7.58,4.85-8.64,4.94-6.43.52-11.14-9.26-28.38,4.94-10.78-6.19-31.01-.1-41.95-2.47-15.78-28,34.18-14.1,78.97-17.27Z" style="fill:#4e4768; stroke-width:0px;"/><path d="m1046.67,696.82c-19.69,1.31-58.6,7.74-66.63-2.47,2.23-.67,14.71-16.22,40.72-17.27,7.73,13.27,26.35.68,25.91,19.74Z" style="fill:#4e4768; stroke-width:0px;"/><path d="m1108.36,704.23c-15.37-.59-24.68,3.75-27.15-7.4,1.12-.12-.16-4.54,19.74-7.4,28.74-4.13,14.65,1.47,20.98,2.47,1.76.28,26.86-17.93,2.47,14.81-11.14-7.75-10.18-2.24-16.04-2.47Z" style="fill:#adb2c8; stroke-width:0px;"/><path d="m928.22,696.82q-1.23,4.94-2.47,9.87c-22.14-3.2-35.93,9.25-32.08-14.81,38.07.93,32.7,4.86,34.55,4.94Z" style="fill:#d0d4df; stroke-width:0px;"/><path d="m637.02,635.13c-.96,8.7.08,18.32,0,27.15-23.86.2-47.71-.29-71.56,0v-24.68c.28-.01-1.71-2.12,4.94-2.47,21.99-1.14,44.62-6.27,66.63,0Z" style="fill:#1f3b69; stroke-width:0px;"/><path d="m565.46,637.6v24.68c-29.6.35-59.23-.21-88.84,0-9.37-38.11,21.75-21.7,88.84-24.68Z" style="fill:#7e86ac; stroke-width:0px;"/><path d="m790.02,689.42c14.27-2.03,5.77,5.45,14.81,7.4,10.94,2.37,31.17-3.72,41.95,2.47-6.95,5.72-11.57,14.57-16.04,22.21,28.77,2.46,118.06-3.32,130.79,0,1.09.29,1.69,9.27,16.04,12.34-12.63,19.06-7.84,1.23-13.57,0-3.68-.79-67.93,1.61-75.27,2.47-12.07,1.41-18.13-6.35-14.81,22.21.41,3.54-1.31,13,1.23,14.81,10.72,1.67,73.38-2.21,76.5,0,1.86,1.32,9.75,36.36-18.51,27.15-.27-5.34,1.9-10.95-3.7-14.81-23.44-.15-46.89.2-70.33,0-1.18-.01-14.25,7.42-22.21-1.23l-1.23-50.59h-88.84c-2.52,1.79-.96,20.14-1.23,24.68-14.01-.14-2.54-2.79-2.47-3.7.28-3.46.3-7.65,0-11.1-1.66-19.26-14.93-.46-12.34-27.15,2.71.14,41.43.8,41.95-1.23-9.96-11.45-27.14.81-29.61-18.51-.15-1.17,3.91-4.3,2.47-12.34,4.5,4.58-.89,16.33,19.74,12.34,7.29-1.41,11.12,1.74,9.87-14.81.78-.09,1.68-.04,2.47,0-3.4,18.14,13.97,20.29,12.34,7.4Z" style="fill:#1c1e34; stroke-width:0px;"/><path d="m745.6,684.48c1.44,8.04-2.62,11.17-2.47,12.34-56.84,4.57-118.99-7.23-175.21,2.47-.33.06.14-4.34-6.17-2.47-1.18.35-.32,4.28-6.17,7.4-1.03-4.66,4.06-6.24,1.23-7.4-7.79-3.19-148.36,3.15-155.47,0-5.14-2.28-4.76-15.66-2.47-17.27,14.02-9.88,301.69,7.59,343.02,0,3.55,2.6,3.49,4.72,3.7,4.94Z" style="fill:#37365b; stroke-width:0px;"/><path d="m567.93,699.29c-1.48,4.19,2.91,11.28,6.17,12.34,7.4,2.39,129.43-1.13,155.47,0,2.03.09.98,4.92,1.23,4.94-2.59,26.69,10.68,7.89,12.34,27.15q-76.5-1.23-153-2.47c-8.52,1.15-7.02-2.39-7.4-2.47-.25-.05.88-4.44-1.23-4.94-10.27-2.39-28.64,4.62-40.72-14.81.21-.71-8.91-3.85,4.94-9.87,3.29-1.64,6.63-3.2,9.87-4.94,5.85-3.13,4.99-7.05,6.17-7.4,6.3-1.87,5.84,2.52,6.17,2.47Z" style="fill:#575882; stroke-width:0px;"/><path d="m883.8,679.55c-44.79,3.17-94.75-10.72-78.97,17.27-9.03-1.96-.54-9.44-14.81-7.4l-1.23-9.87c-7.12-1.38-9.56,2.55-11.1,2.47-.79-.04-1.69-.09-2.47,0-1.88.22-17.24-13.14-9.87,14.81-20.63,3.99-15.24-7.76-19.74-12.34-.22-.22-.16-2.33-3.7-4.94-41.33,7.59-329-9.88-343.02,0-2.29,1.62-2.67,15,2.47,17.27,7.11,3.15,147.67-3.19,155.47,0,2.83,1.16-2.26,2.75-1.23,7.4-3.24,1.73-6.58,3.3-9.87,4.94-18.31-2.5-145.04,5.99-151.77,2.47-2.52-1.32-5.1-32-6.17-33.31-5.02-6.16-8.13,5.14-11.1,3.7-1.37-.66-3.87-17.16-22.21,2.47-8.34-16.76-14.58,1.17-11.1,8.64,5.92,12.74,45.91-11.29,40.72,18.51h-134.49c.16-1.67-3.79-3.69-2.47-9.87.71-.25,12.01-7.96,12.34-8.64,9.86-19.99-29.22-17.43-44.42-18.51v-7.4c8.53,1.16,7.02-2.4,7.4-2.47,17.4-2.96,214.28-2.18,254.18-2.47,29.61-.21,59.23.35,88.84,0,23.86-.29,47.7.2,71.56,0,17.27-.15,34.56.3,51.82,0,12.12-.21,78.99,1.88,82.67,0,.61-.31,5.95-11.68,6.17-12.34,1.94-5.83-13.8-16.08,7.4-6.17.75,4.15-1.6,16.5,1.23,18.51,13.6,9.64,112.7-11.32,97.48,17.27Z" style="fill:#37365b; stroke-width:0px;"/><path d="m790.02,689.42c1.63,12.88-15.74,10.73-12.34-7.4,1.54.08,3.99-3.85,11.1-2.47l1.23,9.87Z" style="fill:#4e4768; stroke-width:0px;"/><path d="m775.22,682.02c1.25,16.54-2.58,13.39-9.87,14.81-7.37-27.94,7.99-14.59,9.87-14.81Z" style="fill:#4e4768; stroke-width:0px;"/><path d="m297.71,679.55c3.1-1.55,16.4-1.09,16.04,6.17-.29,6.03-25.93-1.24-16.04-6.17Z" style="fill:#575882; stroke-width:0px;"/><path d="m327.32,682.02c3.38-1.9,11.06-.11,8.64,6.17-1.33,3.46-14.18-3.05-8.64-6.17Z" style="fill:#575882; stroke-width:0px;"/><path d="m417.4,770.85c-14.89-5.84-21.53-5.73-38.25-4.94-5.4-3.51-3.19-7.48-3.7-12.34-.08-.77-.08-1.7,0-2.47.09-.89,3.04-6.7,3.7-14.81h111.05c12.18,52.67-20.31,19.8-72.8,34.55Z" style="fill:#9090a9; stroke-width:0px;"/><path d="m619.75,773.32c11.3,7.09-.12,11.43-4.94,17.27-10.39,1-21.12,1.85-17.27,14.81-11.25-.04-6.96,4.94-7.4,4.94-54.88-.02-46.76-4.86-49.35-4.94q-1.23-6.17-2.47-12.34c1.86-.21,2.56-7.61,35.78-4.94,1.69-6.07-15.25,2.29-13.57-7.4,7.72-.09,15.18-2.13,22.21-2.47,6.9-.33,8.4,2.76,12.34,2.47,7.65-.56,11.09,2.6,9.87-7.4,2.94.36,12.93-1.18,14.81,0Z" style="fill:#575882; stroke-width:0px;"/><path d="m375.44,753.58c.51,4.86-1.7,8.82,3.7,12.34,16.72-.8,23.36-.91,38.25,4.94,3.37,1.32,7.84,2.53,9.87,4.94q-7.4,1.85-14.81,3.7c.05,2.37,7.68.64,9.87,1.23.38.1-1.07,3.62,7.4,2.47-16.61,6.25-1.62,8.22-7.4,17.27-18.16-.34-37.07-4.85-55.52-2.47-3.2-1.25-1.62-27.66-1.23-32.08.02-.25,4.73.82,4.94-1.23.46-4.58-17.13-9.03,4.94-11.1Z" style="fill:#37365b; stroke-width:0px;"/><path d="m582.73,738.77c-14.45,41.91-31.27,17.71-81.44,27.15-4.69-40.05.97-31.96,35.78-32.08,6.39-3.94,2.42-10.5,3.7-14.81,12.07,19.43,30.44,12.41,40.72,14.81,2.12.49.98,4.89,1.23,4.94Z" style="fill:#7f7a9a; stroke-width:0px;"/><path d="m590.14,741.24c-13.93,27.86-4.99,28.38-4.94,32.08,0,.28-3.39-.93-2.47,4.94-7.03.34-14.49,2.37-22.21,2.47-19.33.23-38.67-.17-57.99,0-2.55-1.81-.82-11.27-1.23-14.81,50.17-9.43,66.99,14.77,81.44-27.15.38.07-1.12,3.62,7.4,2.47Z" style="fill:#8f88b0; stroke-width:0px;"/><path d="m496.36,795.53c6.43,9.65-1.82,7.38-9.87,7.4,4.51-19.42-35.41-20.97-45.65-17.27-11.23,4.05,13.62,15.41-18.51,14.81,5.79-9.05-9.21-11.02,7.4-17.27,5.87-2.21,54.76-4.06,57.99-2.47,1.01.5-2.31,13,8.64,14.81Z" style="fill:#575882; stroke-width:0px;"/><path d="m538.32,793.06q1.23,6.17,2.47,12.34c-8.17-.23-61.44,8.78-54.29-2.47,8.05-.02,16.3,2.25,9.87-7.4,13.65-5.08,28.18-.91,41.95-2.47Z" style="fill:#37365b; stroke-width:0px;"/><path d="m427.27,775.79c.76.9-2.55,4.79-4.94,4.94-2.19-.59-9.82,1.13-9.87-1.23q7.4-1.85,14.81-3.7Z" style="fill:#6d6782; stroke-width:0px;"/><path d="m2339.76,802.94c-.46,2.33.59,5.77,0,7.4-8.74,24-24.59-15.09,0-7.4Z" style="fill:#37365b; stroke-width:0px;"/><path d="m424.8,832.55c-5.64,10.89-15.56,16.77,4.94,17.27-6.07,3.91-7.99,1.54-9.87,9.87-9.63-.51-72.86,4.48-60.46-14.81.73-1.13,6.71,4.89,8.64-1.23.17-.54-4.56-3-2.47-11.1,19.66-6.82,39.7.11,59.23,0Z" style="fill:#9090a9; stroke-width:0px;"/><path d="m294.01,778.26c2,.56,6.04.15,7.4,6.17,4.99,21.94-21.44,7.64-17.27,19.74,46.45,1.84-17.89,16.52-28.38,11.1q-.62-19.74-1.23-39.48c10.54.74,35.82,1.44,39.48,2.47Z" style="fill:#1c1e34; stroke-width:0px;"/><path d="m375.44,751.11c-.08.77-.08,1.7,0,2.47-22.06,2.08-4.47,6.53-4.94,11.1-.21,2.05-4.91.98-4.94,1.23-34.37,2.12-76.62-7.25-71.56,12.34-3.66-1.03-28.94-1.73-39.48-2.47-4.57-.32-8.3,1.82-7.4-4.94,6.75-8.3-12.83-19.64,30.85-14.81,3.22-3.95,3.3-9.53,3.7-9.87,16.24-13.81,81.55-12.41,85.14-9.87,3.25,2.3-2.68,15.38,8.64,14.81Z" style="fill:#6d6782; stroke-width:0px;"/><path d="m290.31,756.05c1.67-.36,5.47-.53,6.17,1.23,3.69,9.23-18.85,1.46-6.17-1.23Z" style="fill:#37365b; stroke-width:0px;"/><path d="m273.03,758.52c3.69-1.48,5.42,3.75,2.47,4.94-3.69,1.48-5.42-3.75-2.47-4.94Z" style="fill:#37365b; stroke-width:0px;"/><path d="m1031.86,765.92c-.02,2.33,2.46,2.58,2.47,4.94.03,7.74,2.38,8.3,2.47,9.87.03.51-2.11-.85-2.47,9.87-.08,2.46.05,4.94,0,7.4v9.87c-15.32-2.68-30.38-5.96-39.48-14.81,7.76-2.58,11.95-15.15,2.47-19.74-32.73-5.31-15.48-.75-4.94-7.4,4.3-2.71,4.62,4.67,4.94-14.81.07-4.11-.04-8.23,0-12.34,20.52,7.26-13.35,33.49,34.55,27.15Z" style="fill:#b4adbf; stroke-width:0px;"/><path d="m888.73,736.31c6.94,16.47,2.54,22.68-14.81,22.21-3.33-28.56,2.74-20.8,14.81-22.21Z" style="fill:#adb2c8; stroke-width:0px;"/><path d="m997.31,773.32c9.48,4.6,5.29,17.16-2.47,19.74-1.18-1.15-22.06-11.06,2.47-19.74Z" style="fill:#312e47; stroke-width:0px;"/><path d="m997.31,751.11c-.32,19.47-.64,12.09-4.94,14.81-9.36.6-6.6-23.64,4.94-14.81Z" style="fill:#37365b; stroke-width:0px;"/><path d="m474.15,844.89v4.94c6.52,18.28,3.27-12.46,29.61-2.47-1.26.98-3.65,3.74-4.94,4.94-4.65,4.32-1,8.01-3.7,9.87-9.34-8.68-10.7-.19-12.34,0-16.39,1.94-45.84-1.55-62.93-2.47,1.88-8.33,3.8-5.96,9.87-9.87.55-.36-1.22-6.46,1.23-7.4,11.85,6.22,31.37,0,43.19,2.47Z" style="fill:#575882; stroke-width:0px;"/><path d="m365.57,832.55c-2.09,8.1,2.64,10.56,2.47,11.1-1.92,6.12-7.91.1-8.64,1.23-12.4,19.29,50.83,14.29,60.46,14.81,17.08.91,46.53,4.41,62.93,2.47,1.64-.19,3-8.68,12.34,0,2.7-1.86-.95-5.55,3.7-9.87,27.8-8.15,49.05,34.98,49.35-14.81,16.45-.11,32.9-.02,49.35,0-25.26,24.16,10.35,18.88,27.15,19.74-1.92,20.25-77.46-2.99-76.5,17.27-32.58-1.3-197.79-.26-222.1,2.47-6.03-28.92,25.11-12.16,29.61-18.51,4.4-6.2-4.22-30.53-11.1-30.85-3.2-.15-3.37,7.16-3.7,7.4-5.27-1.13-9.22-6.82-14.81-7.4-5.41-.57-8.38-.7-7.4,4.94-3.68-2.09-1.24-6.6-12.34-4.94.09-.74-5.59-3.26-1.23-14.81,46.08,1.53,92.78-4.05,138.19,4.94-17.42,11.74-72.49-5.54-77.73,14.81Z" style="fill:#37365b; stroke-width:0px;"/><path d="m340.9,835.02c-17.17,12.66-14.34-1.29-17.27-2.47l2.47-4.94c5.58.59,9.53,6.28,14.81,7.4Z" style="fill:#7f7a9a; stroke-width:0px;"/><path d="m326.09,827.61l-2.47,4.94c-2.01-.81-.28,2.64-4.94,0-.98-5.63,1.99-5.51,7.4-4.94Z" style="fill:#37365b; stroke-width:0px;"/><path d="m509.94,854.76c.36-.06,6.06,3.36,6.17,3.7,4.03,12.37-19.96-1.5-6.17-3.7Z" style="fill:#575882; stroke-width:0px;"/><path d="m859.12,785.66l-7.4,9.87c-7.95-4.91-86.48-2.27-103.64-2.47-3.77-9.24-3.08-24.32-2.47-34.55.27-4.54-1.29-22.89,1.23-24.68h88.84l1.23,50.59c7.96,8.65,21.03,1.22,22.21,1.23Z" style="fill:#b4adbf; stroke-width:0px;"/><path d="m723.4,793.06c8.22,0,16.46-.1,24.68,0,17.16.2,95.69-2.44,103.64,2.47,3.66,2.26,5.27-4.39,4.94,14.81-41.96,5.26-41.71-11.96-53.06-9.87-2.24,1.65-6.47,7.32-7.4,7.4-34.28,3.04-110.25,2.32-149.3,2.47-2.59,0,5.97-4.76-49.35-4.94-3.85-12.95,6.88-13.81,17.27-14.81,5.41-.52,85.2,2.48,108.58,2.47Z" style="fill:#1c1e34; stroke-width:0px;"/><path d="m533.38,842.42c-.3.2.83,4.77-1.23,4.94-11.94-14.18-16-3.14-23.44-4.94-44.14-10.65,11.86-19.97,24.68,0Z" style="fill:#37365b; stroke-width:0px;"/><path d="m474.15,849.82v-4.94c13.03,2.72-.19,4.41,0,4.94Z" style="fill:#37365b; stroke-width:0px;"/><path d="m2048.57,763.45c-53.88,3.92-98.68-14.05-88.84,24.68-7.09-.89-16.59,1.42-23.44,0-2.41-.5-.05-6.87-2.47-7.4-13.74-3.06-9.64,5.78-51.82,7.4-1.99.08-.98-4.93-1.23-4.94,3.41-31.16-19.11,1.33-24.68-27.15h139.43c1.81-13.32,5.85-14.07,6.17-14.81,9.16-1.93,2.28,12.05,6.17,14.81,1.88,1.33,31.56-.97,39.48,0,2.17,1.4,1.02,4.38,1.23,7.4Z" style="fill:#1c1e34; stroke-width:0px;"/><path d="m1880.76,783.19c.25,0-.75,5.01,1.23,4.94,42.18-1.63,38.09-10.46,51.82-7.4,2.41.54.06,6.9,2.47,7.4,6.85,1.42,16.35-.89,23.44,0,18.64,2.34,49.93,12.23,45.65-17.27,1.57,0,4.78,26.22-2.47,29.61-40.4-2.68-175.32,9.13-145.6-14.81,2.49-2.01,7.36,3.45,12.34,2.47.6-.12,5.26-5.01,11.1-4.94Z" style="fill:#37365b; stroke-width:0px;"/><path d="m2238.58,763.45c-.02.99,5.39,7.55,1.23,17.27h-122.15c-.13-.68-5.32-5.33-2.47-13.57.82-2.36,4.75-3.45,4.94-3.7h118.45Z" style="fill:#1c1e34; stroke-width:0px;"/><path d="m1636.46,817.74q-55.52-1.23-111.05-2.47c-3.25-6.86-4.37-16.58-4.94-17.27.24-2.18-1-6.37,1.23-7.4,5.21-2.41,97.52-1.56,114.75-2.47.02,9.87-.03,19.74,0,29.61Z" style="fill:#7f7a9a; stroke-width:0px;"/><path d="m1520.47,798c.57.69,1.68,10.41,4.94,17.27-7.79,11.12-28.37.05-40.72,7.4-20.72-.82-33.98-4.88-35.78-4.94,14.38-14.17-28.19-12.3-11.1-22.21,5.58-3.24,14.95,6.45,6.17-7.4,18.25,1,64.94-4.24,76.5,9.87Z" style="fill:#37365b; stroke-width:0px;"/><path d="m1443.97,788.13c8.78,13.85-.59,4.17-6.17,7.4-17.09,9.91,25.49,8.04,11.1,22.21-29.05-.87-69.82,4.02-76.5-4.94,9.66-1.87,12.02-.31,14.81-24.68,18.43.79,38.63-.99,56.76,0Z" style="fill:#575882; stroke-width:0px;"/><path d="m1372.41,812.81c6.68,8.96,47.45,4.06,76.5,4.94,1.81.05,15.06,4.12,35.78,4.94,12.35-7.35,32.93,3.71,40.72-7.4q55.52,1.23,111.05,2.47c.02,5.04-1.11,30.42,1.23,32.08h65.39c0,.25,5.04-.74,4.94,1.23-.83,15.73-95.3-2.68-109.81,11.1-7.47-58.45-9.88-32.37-23.44-29.61-11.47-9.49-32.06-3.18-48.12-4.94l-3.7,7.4c-3.4,52.95-28.02,27.49-65.39,34.55-5.79-3.43-2.67-8.22-3.7-12.34-.52-2.1-2.12-11.9-2.47-14.81-.95-7.87,13.54-22.01-18.51-17.27-2.23.99-.94,4.84-1.23,4.94-11.1,5.84-66.26-6.56-66.63-16.04-.33-8.44,7.03-1.16,7.4-1.23Z" style="fill:#312e47; stroke-width:0px;"/><path d="m1574.76,832.55c-17.69,3.6-34.07,2.46-51.82,2.47l3.7-7.4c16.06,1.76,36.65-4.55,48.12,4.94Z" style="fill:#b4adbf; stroke-width:0px;"/><path d="m1626.59,839.95c.29,14.75-29.67,12.89-24.68-2.47q12.34,1.23,24.68,2.47Z" style="fill:#7a7c92; stroke-width:0px;"/><path d="m1626.59,839.95q-12.34-1.23-24.68-2.47c3.87-11.9,24.37-13.08,24.68,2.47Z" style="fill:#b4adbf; stroke-width:0px;"/><path d="m1779.59,802.94c2.27,11.72,8.02,15.21,17.27,4.94,3.72,3.9,8.73,5.91,9.87,12.34-33.26-1.28-68.01-1.08-101.18,2.47.14-8.99,1.49-15.98,2.47-24.68-.86,10.21,57.64,11.96,71.56,4.94Z" style="fill:#9090a9; stroke-width:0px;"/><path d="m1779.59,802.94c-13.93,7.03-72.42,5.28-71.56-4.94.63-5.58.72-12.87-2.47-12.34.31-.01-.19-2.09,3.7-4.94,89.82-3.42,66.15.62,70.33,22.21Z" style="fill:#b4adbf; stroke-width:0px;"/><path d="m1337.86,719.03c48.11-.45,96.26.62,144.36,0,1.54-.02,18.84-14.72,13.57,12.34-76.1.02-152.14-3.92-228.27,0-22.4-17.7,15.15-11.43,54.29-12.34,1.93-.04-.08-4.87,3.7-4.94.66-.01-1.88,5.07,12.34,4.94Z" style="fill:#4e4768; stroke-width:0px;"/><path d="m1281.1,706.69c15,.92,29.31,2.05,44.42,2.47v4.94c-3.78.06-1.77,4.89-3.7,4.94-39.14.91-76.69-5.36-54.29,12.34,76.13-3.92,152.17.02,228.27,0,53-.01,112.14,7.71,98.71-17.27,15.65,5.27-4.05,19.89,0,29.61-59.65,18.87-150.67-20.58-132.02,29.61,106.32-1.54,213.33,1.79,319.57-2.47,12.57,15.34-4.51,16.77,14.81,37.02-9.25,10.28-15,6.79-17.27-4.94-4.18-21.59,19.49-25.63-70.33-22.21-3.89,2.85-3.39,4.92-3.7,4.94-23.13,1.01-45.87,1.24-69.1,2.47-17.23.91-109.54.06-114.75,2.47-2.23,1.03-1,5.22-1.23,7.4-11.56-14.12-58.25-8.87-76.5-9.87-18.12-.99-38.33.79-56.76,0-.31-.01-1.85-4.84-3.7-4.94-77.51-3.89-52.77,8.14-61.69,12.34-3.46,1.63-63.06-.87-76.5,0-2.13.9-.98,4.91-1.23,4.94-8.68.75-18.63-5.71-27.15,0-.15-1.62.2-3.33,0-4.94-1.18-9.32,2.96-24.19-3.7-27.15-16.09-2.23-33.24,2.48-48.12,2.47-7.76,0-8.42-2.47-9.87-2.47-.79-8.03,1.14-23.82,0-25.91-2.89-5.28-105.47-2.85-119.69-3.7-5.82,4-3.62,15.9-3.7,27.15-47.9,6.34-14.03-19.89-34.55-27.15-11.93,6.04-3.37-10.71-19.74-9.87.76-1.57-1.34-6.05,1.23-7.4,36.29-3.83,258.84,5.01,271.45,0,5.33-2.12,4.18-8.59,1.23-12.34,15.29.77,23.29-2.85,29.61-2.47Z" style="fill:#1c1e34; stroke-width:0px;"/><path d="m1244.09,800.47v7.4c-1.36-.1-8.93,4.38-27.15,2.47-.48-3.12.3-6.66,0-9.87,8.52-5.71,18.47.75,27.15,0Z" style="fill:#1c1e34; stroke-width:0px;"/><path d="m1267.53,751.11c21.69,3.47,172.79-2.73,180.14,2.47,1.65,1.17,1.9,9.66,1.23,11.1-3.91,8.43-147.1,1.1-173.98,3.7-1.55.15-12.32,19.26-7.4-17.27Z" style="fill:#37365b; stroke-width:0px;"/><path d="m1198.43,741.24c3.28-2.32,17.46-.02,17.27,7.4,4.53-14.5,20.68-5.99,16.04,3.7-5.06,10.57-52.07,2.2-33.31-11.1Z" style="fill:#9090a9; stroke-width:0px;"/><path d="m1337.86,711.63v7.4c-14.21.13-11.67-4.95-12.34-4.94v-4.94c.39.01.88-2.2,6.17-4.94,8.69,4.01,5.69,7.39,6.17,7.4Z" style="fill:#656a8f; stroke-width:0px;"/><path d="m1673.47,714.1c-40.56,1-17.45,17.4-28.38,22.21-9.52,4.19-49.39-8.84-45.65,9.87-2.38.01-2.7-2.68-4.94-2.47-4.05-9.72,15.65-24.34,0-29.61-3.72-1.25-28.6.41-39.48,0-1.23-10.54.57-19.34,2.47-29.61,35.28,3.05,86.08-8.23,85.14,9.87,27.43,2.39,34.04-2.04,30.85,19.74Z" style="fill:#b4adbf; stroke-width:0px;"/><path d="m1622.88,719.03c5.47.3,4.8,6.18,2.47,7.4-4.78,2.51-7.55-7.69-2.47-7.4Z" style="fill:#404356; stroke-width:0px;"/><path d="m743.14,743.71c.3,3.46.28,7.64,0,11.1-.07.91-11.54,3.56,2.47,3.7-.61,10.23-1.3,25.3,2.47,34.55-8.22-.1-16.45,0-24.68,0-15.48-20.33-93.71-46.77-103.64-19.74-1.88-1.18-11.87.36-14.81,0-12.92-1.58-4.61,1.86-9.87,2.47-.51.06-3.24-4.46-9.87-2.47-.05-3.7-9-4.22,4.94-32.08q76.5,1.23,153,2.47Z" style="fill:#575882; stroke-width:0px;"/><path d="m743.14,696.82c2.47,19.32,19.65,7.06,29.61,18.51-.52,2.03-39.24,1.37-41.95,1.23-.25-.01.79-4.85-1.23-4.94-26.04-1.13-148.07,2.39-155.47,0-3.26-1.06-7.65-8.15-6.17-12.34,56.21-9.7,118.37,2.1,175.21-2.47Z" style="fill:#37365b; stroke-width:0px;"/><path d="m723.4,793.06c-23.38.02-103.17-2.99-108.58-2.47,4.81-5.84,16.24-10.19,4.94-17.27,9.93-27.03,88.16-.59,103.64,19.74Z" style="fill:#b4adbf; stroke-width:0px;"/><path d="m604.94,773.32c1.22,10-2.22,6.84-9.87,7.4v-4.94c5.26-.61-3.05-4.05,9.87-2.47Z" style="fill:#9090a9; stroke-width:0px;"/><path d="m595.07,775.79v4.94c-3.94.29-5.43-2.8-12.34-2.47-.92-5.87,2.47-4.66,2.47-4.94,6.63-1.99,9.37,2.53,9.87,2.47Z" style="fill:#1f264a; stroke-width:0px;"/><path d="m1216.94,795.53c-54.37,1.85-113.68,10.56-167.81,4.94-.75-.08,1.56-3.88-14.81-2.47.05-2.47-.08-4.94,0-7.4,16.56-3.18,128.05,4.75,130.79-1.23,1.1-2.41-.76-12.94,0-18.51,14.88,0,32.03-4.7,48.12-2.47,6.66,2.95,2.52,17.82,3.7,27.15Z" style="fill:#575882; stroke-width:0px;"/><path d="m1049.14,800.47c.09,15.76-9.34,8.36-14.81,7.4v-9.87c16.37-1.41,14.06,2.39,14.81,2.47Z" style="fill:#37365b; stroke-width:0px;"/><path d="m1155.25,768.39c-.51,0,2.68,2.49-9.87,2.47-37.02-.07-74.03.05-111.05,0-.01-2.35-2.48-2.6-2.47-4.94.08-11.24-2.12-23.15,3.7-27.15,14.21.85,116.8-1.58,119.69,3.7,1.14,2.09-.79,17.88,0,25.91Z" style="fill:#656a8f; stroke-width:0px;"/><path d="m1165.12,770.85c-.76,5.57,1.1,16.09,0,18.51-2.74,5.98-114.23-1.95-130.79,1.23.36-10.72,2.5-9.36,2.47-9.87,30.98-4.76,108.34,5.5,108.58-9.87,12.55.02,9.36-2.47,9.87-2.47,1.45,0,2.11,2.46,9.87,2.47Z" style="fill:#7f7a9a; stroke-width:0px;"/><path d="m1145.38,770.85c-.24,15.37-77.6,5.11-108.58,9.87-.08-1.57-2.43-2.13-2.47-9.87,37.02.05,74.03-.07,111.05,0Z" style="fill:#9090a9; stroke-width:0px;"/></g></svg>